G04*
G04 #@! TF.GenerationSoftware,Altium Limited,Altium Designer,24.6.1 (21)*
G04*
G04 Layer_Color=16711935*
%FSLAX25Y25*%
%MOIN*%
G70*
G04*
G04 #@! TF.SameCoordinates,65BBE5AF-797C-4DEE-A542-627196F68B12*
G04*
G04*
G04 #@! TF.FilePolarity,Positive*
G04*
G01*
G75*
%ADD13C,0.00787*%
%ADD15C,0.00500*%
%ADD114C,0.00394*%
D13*
X633646Y495405D02*
G03*
X633646Y495405I-394J0D01*
G01*
X120614Y214614D02*
Y241386D01*
Y214614D02*
X147386D01*
Y241386D01*
X120614D02*
X147386D01*
X157224Y339650D02*
Y358350D01*
X172776D01*
Y339650D02*
Y358350D01*
X157224Y339650D02*
X172776D01*
X152825Y161151D02*
X168175D01*
Y141849D02*
Y161151D01*
X152825Y141849D02*
X168175D01*
X152825D02*
Y161151D01*
X183716Y210811D02*
Y237189D01*
Y210811D02*
X198284D01*
Y237189D01*
X183716D02*
X198284D01*
X597342Y207126D02*
Y222874D01*
X577658Y207126D02*
X597342D01*
X577658D02*
Y222874D01*
X597342D01*
X176224Y339650D02*
Y358350D01*
X191776D01*
Y339650D02*
Y358350D01*
X176224Y339650D02*
X191776D01*
X601224Y192055D02*
X616776D01*
X601224Y173945D02*
Y192055D01*
Y173945D02*
X616776D01*
Y192055D01*
X665606Y232016D02*
Y263984D01*
X686394D01*
Y232016D02*
Y263984D01*
X665606Y232016D02*
X686394D01*
X176614Y242614D02*
Y269386D01*
Y242614D02*
X203386D01*
Y269386D01*
X176614D02*
X203386D01*
X178480Y377236D02*
Y406764D01*
X163520Y377236D02*
X178480D01*
X163520D02*
Y406764D01*
X178480D01*
X616776Y146945D02*
Y165055D01*
X601224Y146945D02*
X616776D01*
X601224D02*
Y165055D01*
X616776D01*
X661945Y365776D02*
X680055D01*
Y350224D02*
Y365776D01*
X661945Y350224D02*
X680055D01*
X661945D02*
Y365776D01*
X202228Y177614D02*
Y204386D01*
X175457D02*
X202228D01*
X175457Y177614D02*
Y204386D01*
Y177614D02*
X202228D01*
X157461Y282043D02*
Y289957D01*
X152539Y282043D02*
X157461D01*
X152539D02*
Y289957D01*
X157461D01*
X625957Y387539D02*
Y392461D01*
X618043D02*
X625957D01*
X618043Y387539D02*
Y392461D01*
Y387539D02*
X625957D01*
X661945Y289776D02*
X680055D01*
Y274224D02*
Y289776D01*
X661945Y274224D02*
X680055D01*
X661945D02*
Y289776D01*
X590043Y403539D02*
X597957D01*
X590043D02*
Y408461D01*
X597957D01*
Y403539D02*
Y408461D01*
X152539Y257043D02*
Y264957D01*
X157461D01*
Y257043D02*
Y264957D01*
X152539Y257043D02*
X157461D01*
X199480Y377236D02*
Y406764D01*
X184520Y377236D02*
X199480D01*
X184520D02*
Y406764D01*
X199480D01*
X117268Y174268D02*
Y207732D01*
Y174268D02*
X150732D01*
Y207732D01*
X117268D02*
X150732D01*
X158268Y454732D02*
X191732D01*
X158268Y421268D02*
Y454732D01*
Y421268D02*
X191732D01*
Y454732D01*
X604043Y208461D02*
X611957D01*
Y203539D02*
Y208461D01*
X604043Y203539D02*
X611957D01*
X604043D02*
Y208461D01*
X189228Y299614D02*
Y326386D01*
X162457D02*
X189228D01*
X162457Y299614D02*
Y326386D01*
Y299614D02*
X189228D01*
D15*
X147315Y249500D02*
Y296500D01*
X112000Y249500D02*
X147315D01*
X112000D02*
Y296500D01*
X147315D01*
X637780Y411646D02*
Y492354D01*
X610220Y411646D02*
X637780D01*
X610220D02*
Y492354D01*
X637780D01*
D114*
X597669Y373669D02*
G03*
X597669Y373669I-1969J0D01*
G01*
X173063Y116539D02*
Y121461D01*
X180937D01*
Y116539D02*
Y121461D01*
X177984Y116539D02*
X180937D01*
X173063D02*
X180937D01*
X159937Y125539D02*
Y130461D01*
X152063Y125539D02*
X159937D01*
X152063D02*
Y130461D01*
X155016D01*
X152063D02*
X159937D01*
X679803Y214539D02*
Y219461D01*
X671929Y214539D02*
X679803D01*
X671929D02*
Y219461D01*
X674882D01*
X671929D02*
X679803D01*
X598146Y475331D02*
X603854D01*
X598146Y466669D02*
X603854D01*
Y475331D01*
X598146Y466669D02*
Y475331D01*
X602854Y414669D02*
Y423331D01*
X597146Y414669D02*
Y423331D01*
X602854D01*
X597146Y414669D02*
X602854D01*
X615669Y372146D02*
Y377854D01*
X624331Y372146D02*
Y377854D01*
X615669D02*
X624331D01*
X615669Y372146D02*
X624331D01*
X590854Y414669D02*
Y423331D01*
X585146Y414669D02*
Y423331D01*
X590854D01*
X585146Y414669D02*
X590854D01*
X138669Y121854D02*
X147331D01*
X138669Y116146D02*
X147331D01*
X138669D02*
Y121854D01*
X147331Y116146D02*
Y121854D01*
X644890Y295500D02*
X694102D01*
X644890D02*
Y345500D01*
X694102Y295500D02*
Y345500D01*
X644890D02*
X694102D01*
X644890Y412000D02*
X694102D01*
X644890D02*
Y462000D01*
X694102Y412000D02*
Y462000D01*
X644890D02*
X694102D01*
X179146Y156331D02*
X184854D01*
X179146Y147669D02*
X184854D01*
Y156331D01*
X179146Y147669D02*
Y156331D01*
X135146Y163331D02*
X140854D01*
X135146Y154669D02*
X140854D01*
Y163331D01*
X135146Y154669D02*
Y163331D01*
X160071Y116539D02*
Y121461D01*
X152197Y116539D02*
X160071D01*
X152197D02*
Y121461D01*
X155150D01*
X152197D02*
X160071D01*
X173063Y125539D02*
Y130461D01*
X180937D01*
Y125539D02*
Y130461D01*
X177984Y125539D02*
X180937D01*
X173063D02*
X180937D01*
X628669Y294146D02*
X637331D01*
X628669Y299854D02*
X637331D01*
Y294146D02*
Y299854D01*
X628669Y294146D02*
Y299854D01*
X579669Y372146D02*
Y377854D01*
X588331Y372146D02*
Y377854D01*
X579669D02*
X588331D01*
X579669Y372146D02*
X588331D01*
X140854Y142669D02*
Y151331D01*
X135146Y142669D02*
Y151331D01*
X140854D01*
X135146Y142669D02*
X140854D01*
X213461Y418063D02*
Y425937D01*
Y422984D02*
Y425937D01*
X208539D02*
X213461D01*
X208539Y418063D02*
Y425937D01*
Y418063D02*
X213461D01*
X628669Y330146D02*
X637331D01*
X628669Y335854D02*
X637331D01*
Y330146D02*
Y335854D01*
X628669Y330146D02*
Y335854D01*
X615669Y364146D02*
Y369854D01*
X624331Y364146D02*
Y369854D01*
X615669D02*
X624331D01*
X615669Y364146D02*
X624331D01*
X185669Y116146D02*
X194331D01*
X185669Y121854D02*
X194331D01*
Y116146D02*
Y121854D01*
X185669Y116146D02*
Y121854D01*
Y125146D02*
X194331D01*
X185669Y130854D02*
X194331D01*
Y125146D02*
Y130854D01*
X185669Y125146D02*
Y130854D01*
X587602Y436248D02*
X600398D01*
X587602Y429752D02*
X600398D01*
X587602D02*
Y436248D01*
X600398Y429752D02*
Y436248D01*
X138669Y130854D02*
X147331D01*
X138669Y125146D02*
X147331D01*
X138669D02*
Y130854D01*
X147331Y125146D02*
Y130854D01*
X598539Y481063D02*
Y488937D01*
Y481063D02*
Y484016D01*
Y481063D02*
X603461D01*
Y488937D01*
X598539D02*
X603461D01*
X657535Y219854D02*
X666197D01*
X657535Y214146D02*
X666197D01*
X657535D02*
Y219854D01*
X666197Y214146D02*
Y219854D01*
X579669Y364146D02*
Y369854D01*
X588331Y364146D02*
Y369854D01*
X579669D02*
X588331D01*
X579669Y364146D02*
X588331D01*
X628669Y308854D02*
X637331D01*
X628669Y303146D02*
X637331D01*
X628669D02*
Y308854D01*
X637331Y303146D02*
Y308854D01*
X199724Y423831D02*
X205433D01*
X199724Y415169D02*
X205433D01*
Y423831D01*
X199724Y415169D02*
Y423831D01*
X103898Y411500D02*
X153110D01*
X103898D02*
Y461500D01*
X153110Y411500D02*
Y461500D01*
X103898D02*
X153110D01*
X611842Y370126D02*
Y385874D01*
X592158Y370126D02*
Y385874D01*
X611842D01*
X592158Y370126D02*
X611842D01*
X111496Y404032D02*
X148504D01*
Y307968D02*
Y404032D01*
X111496Y307968D02*
X148504D01*
X111496D02*
Y404032D01*
M02*
