G04*
G04 #@! TF.GenerationSoftware,Altium Limited,Altium Designer,24.6.1 (21)*
G04*
G04 Layer_Color=32768*
%FSLAX25Y25*%
%MOIN*%
G70*
G04*
G04 #@! TF.SameCoordinates,65BBE5AF-797C-4DEE-A542-627196F68B12*
G04*
G04*
G04 #@! TF.FilePolarity,Positive*
G04*
G01*
G75*
%ADD13C,0.00787*%
%ADD114C,0.00394*%
%ADD115C,0.00197*%
D13*
X116874Y213630D02*
Y242370D01*
Y213630D02*
X151126D01*
Y242370D01*
X116874D02*
X151126D01*
X156831Y334433D02*
Y363567D01*
X173169D01*
Y334433D02*
Y363567D01*
X156831Y334433D02*
X173169D01*
X144156Y163119D02*
X176845D01*
Y139881D02*
Y163119D01*
X144156Y139881D02*
X176845D01*
X144156D02*
Y163119D01*
X174957Y210417D02*
Y237583D01*
Y210417D02*
X207043D01*
Y237583D01*
X174957D02*
X207043D01*
X598327Y201004D02*
Y228996D01*
X576673Y201004D02*
X598327D01*
X576673D02*
Y228996D01*
X598327D01*
X175831Y334433D02*
Y363567D01*
X192169D01*
Y334433D02*
Y363567D01*
X175831Y334433D02*
X192169D01*
X600831Y194890D02*
X617169D01*
X600831Y171110D02*
Y194890D01*
Y171110D02*
X617169D01*
Y194890D01*
X665213Y231622D02*
Y264378D01*
X686787D01*
Y231622D02*
Y264378D01*
X665213Y231622D02*
X686787D01*
X172874Y241630D02*
Y270370D01*
Y241630D02*
X207126D01*
Y270370D01*
X172874D02*
X207126D01*
X178874Y376842D02*
Y407158D01*
X163126Y376842D02*
X178874D01*
X163126D02*
Y407158D01*
X178874D01*
X617169Y144110D02*
Y167890D01*
X600831Y144110D02*
X617169D01*
X600831D02*
Y167890D01*
X617169D01*
X659110Y366169D02*
X682890D01*
Y349831D02*
Y366169D01*
X659110Y349831D02*
X682890D01*
X659110D02*
Y366169D01*
X205968Y176630D02*
Y205370D01*
X171716D02*
X205968D01*
X171716Y176630D02*
Y205370D01*
Y176630D02*
X205968D01*
X158851Y279275D02*
Y292725D01*
X151149Y279275D02*
X158851D01*
X151149D02*
Y292725D01*
X158851D01*
X628725Y386149D02*
Y393851D01*
X615275D02*
X628725D01*
X615275Y386149D02*
Y393851D01*
Y386149D02*
X628725D01*
X659110Y290169D02*
X682890D01*
Y273831D02*
Y290169D01*
X659110Y273831D02*
X682890D01*
X659110D02*
Y290169D01*
X587275Y402149D02*
X600725D01*
X587275D02*
Y409851D01*
X600725D01*
Y402149D02*
Y409851D01*
X151149Y254275D02*
Y267725D01*
X158851D01*
Y254275D02*
Y267725D01*
X151149Y254275D02*
X158851D01*
X199874Y376842D02*
Y407158D01*
X184126Y376842D02*
X199874D01*
X184126D02*
Y407158D01*
X199874D01*
X112937Y173284D02*
Y208717D01*
Y173284D02*
X155063D01*
Y208717D01*
X112937D02*
X155063D01*
X157283Y459063D02*
X192717D01*
X157283Y416937D02*
Y459063D01*
Y416937D02*
X192717D01*
Y459063D01*
X601275Y209851D02*
X614725D01*
Y202149D02*
Y209851D01*
X601275Y202149D02*
X614725D01*
X601275D02*
Y209851D01*
X192968Y298630D02*
Y327370D01*
X158716D02*
X192968D01*
X158716Y298630D02*
Y327370D01*
Y298630D02*
X192968D01*
D114*
X177000Y118016D02*
Y119984D01*
X176016Y119000D02*
X177984D01*
X156000Y127016D02*
Y128984D01*
X155016Y128000D02*
X156984D01*
X675866Y216016D02*
Y217984D01*
X674882Y217000D02*
X676850D01*
X601000Y469031D02*
Y472968D01*
X599031Y471000D02*
X602969D01*
X598032Y419000D02*
X601968D01*
X600000Y417031D02*
Y420968D01*
X618032Y375000D02*
X621969D01*
X620000Y373031D02*
Y376969D01*
X586031Y419000D02*
X589968D01*
X588000Y417031D02*
Y420968D01*
X143000Y117032D02*
Y120968D01*
X141032Y119000D02*
X144968D01*
X661031Y320500D02*
X664968D01*
X663000Y318531D02*
Y322468D01*
X661031Y437000D02*
X664968D01*
X663000Y435032D02*
Y438969D01*
X182000Y150031D02*
Y153969D01*
X180032Y152000D02*
X183968D01*
X138000Y157032D02*
Y160968D01*
X136031Y159000D02*
X139969D01*
X156134Y118016D02*
Y119984D01*
X155150Y119000D02*
X157118D01*
X177000Y127016D02*
Y128984D01*
X176016Y128000D02*
X177984D01*
X633000Y295031D02*
Y298969D01*
X631032Y297000D02*
X634969D01*
X582031Y375000D02*
X585968D01*
X584000Y373031D02*
Y376969D01*
X136031Y147000D02*
X139969D01*
X138000Y145031D02*
Y148969D01*
X211000Y421016D02*
Y422984D01*
X210016Y422000D02*
X211984D01*
X633000Y331031D02*
Y334968D01*
X631032Y333000D02*
X634969D01*
X618032Y367000D02*
X621969D01*
X620000Y365032D02*
Y368969D01*
X190000Y117032D02*
Y120968D01*
X188031Y119000D02*
X191969D01*
X190000Y126031D02*
Y129969D01*
X188031Y128000D02*
X191969D01*
X594000Y431032D02*
Y434969D01*
X592031Y433000D02*
X595968D01*
X143000Y126031D02*
Y129969D01*
X141032Y128000D02*
X144968D01*
X601000Y484016D02*
Y485984D01*
X600016Y485000D02*
X601984D01*
X661866Y215032D02*
Y218969D01*
X659898Y217000D02*
X663835D01*
X582031Y367000D02*
X585968D01*
X584000Y365032D02*
Y368969D01*
X633000Y304031D02*
Y307968D01*
X631032Y306000D02*
X634969D01*
X202579Y417531D02*
Y421468D01*
X200610Y419500D02*
X204547D01*
X135000Y434531D02*
Y438469D01*
X133031Y436500D02*
X136969D01*
X600032Y378000D02*
X603968D01*
X602000Y376031D02*
Y379969D01*
D115*
X111500Y249000D02*
X148299D01*
X111500D02*
Y297000D01*
X148299D01*
Y249000D02*
Y297000D01*
X170110Y116244D02*
Y121756D01*
X183890D01*
Y116244D02*
Y121756D01*
X170110Y116244D02*
X183890D01*
X162890Y125244D02*
Y130756D01*
X149110Y125244D02*
X162890D01*
X149110D02*
Y130756D01*
X162890D01*
X682756Y214244D02*
Y219756D01*
X668976Y214244D02*
X682756D01*
X668976D02*
Y219756D01*
X682756D01*
X597653Y476315D02*
X604347D01*
X597653Y465685D02*
X604347D01*
Y476315D01*
X597653Y465685D02*
Y476315D01*
X603346Y413685D02*
Y424315D01*
X596654Y413685D02*
Y424315D01*
X603346D01*
X596654Y413685D02*
X603346D01*
X614685Y371654D02*
Y378346D01*
X625315Y371654D02*
Y378346D01*
X614685D02*
X625315D01*
X614685Y371654D02*
X625315D01*
X591347Y413685D02*
Y424315D01*
X584654Y413685D02*
Y424315D01*
X591347D01*
X584654Y413685D02*
X591347D01*
X137685Y122346D02*
X148315D01*
X137685Y115654D02*
X148315D01*
X137685D02*
Y122346D01*
X148315Y115654D02*
Y122346D01*
X644496Y292863D02*
Y345894D01*
Y292863D02*
X694495D01*
Y345894D01*
X644496D02*
X694495D01*
X644496Y409363D02*
Y462394D01*
Y409363D02*
X694495D01*
Y462394D01*
X644496D02*
X694495D01*
X178654Y157315D02*
X185346D01*
X178654Y146685D02*
X185346D01*
Y157315D01*
X178654Y146685D02*
Y157315D01*
X134653Y164315D02*
X141347D01*
X134653Y153685D02*
X141347D01*
Y164315D01*
X134653Y153685D02*
Y164315D01*
X163024Y116244D02*
Y121756D01*
X149244Y116244D02*
X163024D01*
X149244D02*
Y121756D01*
X163024D01*
X170110Y125244D02*
Y130756D01*
X183890D01*
Y125244D02*
Y130756D01*
X170110Y125244D02*
X183890D01*
X627685Y293653D02*
X638315D01*
X627685Y300346D02*
X638315D01*
Y293653D02*
Y300346D01*
X627685Y293653D02*
Y300346D01*
X578685Y371654D02*
Y378346D01*
X589315Y371654D02*
Y378346D01*
X578685D02*
X589315D01*
X578685Y371654D02*
X589315D01*
X141347Y141685D02*
Y152315D01*
X134653Y141685D02*
Y152315D01*
X141347D01*
X134653Y141685D02*
X141347D01*
X213756Y415110D02*
Y428890D01*
X208244D02*
X213756D01*
X208244Y415110D02*
Y428890D01*
Y415110D02*
X213756D01*
X627685Y329654D02*
X638315D01*
X627685Y336347D02*
X638315D01*
Y329654D02*
Y336347D01*
X627685Y329654D02*
Y336347D01*
X614685Y363653D02*
Y370346D01*
X625315Y363653D02*
Y370346D01*
X614685D02*
X625315D01*
X614685Y363653D02*
X625315D01*
X184685Y115654D02*
X195315D01*
X184685Y122346D02*
X195315D01*
Y115654D02*
Y122346D01*
X184685Y115654D02*
Y122346D01*
Y124653D02*
X195315D01*
X184685Y131346D02*
X195315D01*
Y124653D02*
Y131346D01*
X184685Y124653D02*
Y131346D01*
X585142Y437331D02*
X602858D01*
X585142Y428669D02*
X602858D01*
X585142D02*
Y437331D01*
X602858Y428669D02*
Y437331D01*
X137685Y131346D02*
X148315D01*
X137685Y124653D02*
X148315D01*
X137685D02*
Y131346D01*
X148315Y124653D02*
Y131346D01*
X598244Y478110D02*
Y491890D01*
Y478110D02*
X603756D01*
Y491890D01*
X598244D02*
X603756D01*
X656551Y220346D02*
X667181D01*
X656551Y213653D02*
X667181D01*
X656551D02*
Y220346D01*
X667181Y213653D02*
Y220346D01*
X638764Y410661D02*
Y493339D01*
X609236Y410661D02*
X638764D01*
X609236D02*
Y493339D01*
X638764D01*
X578685Y363653D02*
Y370346D01*
X589315Y363653D02*
Y370346D01*
X578685D02*
X589315D01*
X578685Y363653D02*
X589315D01*
X627685Y309347D02*
X638315D01*
X627685Y302654D02*
X638315D01*
X627685D02*
Y309347D01*
X638315Y302654D02*
Y309347D01*
X199232Y424815D02*
X205925D01*
X199232Y414185D02*
X205925D01*
Y424815D01*
X199232Y414185D02*
Y424815D01*
X103505Y411106D02*
X153504D01*
X103505D02*
Y464137D01*
X153504D01*
Y411106D02*
Y464137D01*
X612827Y363433D02*
Y392567D01*
X591173Y363433D02*
Y392567D01*
X612827D01*
X591173Y363433D02*
X612827D01*
X110709Y404819D02*
X149291D01*
X110709Y307181D02*
Y404819D01*
Y307181D02*
X149291D01*
Y404819D01*
X130000Y354031D02*
Y357968D01*
X128032Y356000D02*
X131968D01*
M02*
