G04*
G04 #@! TF.GenerationSoftware,Altium Limited,Altium Designer,24.6.1 (21)*
G04*
G04 Layer_Color=128*
%FSLAX25Y25*%
%MOIN*%
G70*
G04*
G04 #@! TF.SameCoordinates,65BBE5AF-797C-4DEE-A542-627196F68B12*
G04*
G04*
G04 #@! TF.FilePolarity,Positive*
G04*
G01*
G75*
%ADD25R,0.08583X0.06378*%
%ADD26R,0.05315X0.03347*%
%ADD27R,0.03347X0.05315*%
%ADD30R,0.05733X0.05136*%
%ADD31R,0.05136X0.05733*%
G04:AMPARAMS|DCode=87|XSize=17.72mil|YSize=45.28mil|CornerRadius=1.95mil|HoleSize=0mil|Usage=FLASHONLY|Rotation=90.000|XOffset=0mil|YOffset=0mil|HoleType=Round|Shape=RoundedRectangle|*
%AMROUNDEDRECTD87*
21,1,0.01772,0.04138,0,0,90.0*
21,1,0.01382,0.04528,0,0,90.0*
1,1,0.00390,0.02069,0.00691*
1,1,0.00390,0.02069,-0.00691*
1,1,0.00390,-0.02069,-0.00691*
1,1,0.00390,-0.02069,0.00691*
%
%ADD87ROUNDEDRECTD87*%
%ADD88R,0.15158X0.03740*%
%ADD89R,0.33071X0.39764*%
%ADD90R,0.03740X0.15158*%
%ADD91R,0.39764X0.33071*%
%ADD92R,0.03765X0.04749*%
%ADD93R,0.09843X0.08661*%
%ADD94R,0.03150X0.03543*%
%ADD95R,0.03543X0.03150*%
%ADD96R,0.14567X0.09646*%
G04:AMPARAMS|DCode=97|XSize=23.62mil|YSize=39.37mil|CornerRadius=2.01mil|HoleSize=0mil|Usage=FLASHONLY|Rotation=270.000|XOffset=0mil|YOffset=0mil|HoleType=Round|Shape=RoundedRectangle|*
%AMROUNDEDRECTD97*
21,1,0.02362,0.03535,0,0,270.0*
21,1,0.01961,0.03937,0,0,270.0*
1,1,0.00402,-0.01768,-0.00980*
1,1,0.00402,-0.01768,0.00980*
1,1,0.00402,0.01768,0.00980*
1,1,0.00402,0.01768,-0.00980*
%
%ADD97ROUNDEDRECTD97*%
%ADD98O,0.02362X0.07677*%
%ADD99O,0.07677X0.02362*%
%ADD100R,0.05906X0.06693*%
D25*
X522000Y284307D02*
D03*
Y267693D02*
D03*
D26*
X648000Y155752D02*
D03*
Y162248D02*
D03*
X577000Y312248D02*
D03*
Y305752D02*
D03*
X465000Y153248D02*
D03*
Y146752D02*
D03*
X497000Y295752D02*
D03*
Y302248D02*
D03*
X489000Y166248D02*
D03*
Y159752D02*
D03*
X424000Y466248D02*
D03*
Y459752D02*
D03*
X261000Y307752D02*
D03*
Y314248D02*
D03*
X648000Y186248D02*
D03*
Y179752D02*
D03*
X482000Y166248D02*
D03*
Y159752D02*
D03*
X447000Y473000D02*
D03*
Y466504D02*
D03*
X477000Y306752D02*
D03*
Y313248D02*
D03*
X648000Y174248D02*
D03*
Y167752D02*
D03*
X447000Y460248D02*
D03*
Y453752D02*
D03*
D27*
X473752Y352000D02*
D03*
X480248D02*
D03*
X251752Y333000D02*
D03*
X258248D02*
D03*
X477752Y139000D02*
D03*
X484248D02*
D03*
X487000Y352000D02*
D03*
X493496D02*
D03*
X435248Y450000D02*
D03*
X428752D02*
D03*
X244752Y307000D02*
D03*
X251248D02*
D03*
X569752Y346000D02*
D03*
X576248D02*
D03*
X588248D02*
D03*
X581752D02*
D03*
X470752Y322000D02*
D03*
X477248D02*
D03*
X511248Y295000D02*
D03*
X504752D02*
D03*
X381752Y385000D02*
D03*
X388248D02*
D03*
X237752Y333000D02*
D03*
X244248D02*
D03*
D30*
X520000Y302172D02*
D03*
Y295828D02*
D03*
X471000Y168172D02*
D03*
Y161828D02*
D03*
X562000Y345172D02*
D03*
Y338828D02*
D03*
D31*
X493172Y341000D02*
D03*
X486828D02*
D03*
X493345Y312000D02*
D03*
X487000D02*
D03*
X517172Y320000D02*
D03*
X510828D02*
D03*
X559828Y301000D02*
D03*
X566172D02*
D03*
X588828Y315000D02*
D03*
X595172D02*
D03*
X402172Y385000D02*
D03*
X395828D02*
D03*
D87*
X472134Y146161D02*
D03*
Y148721D02*
D03*
Y151279D02*
D03*
X488866Y148721D02*
D03*
Y151279D02*
D03*
Y153839D02*
D03*
X472134D02*
D03*
X488866Y146161D02*
D03*
D88*
X461984Y474000D02*
D03*
Y454000D02*
D03*
D89*
X501158Y464000D02*
D03*
D90*
X238000Y349000D02*
D03*
X258000D02*
D03*
D91*
X248000Y388173D02*
D03*
D92*
X611035Y257000D02*
D03*
X602965D02*
D03*
X558965Y293000D02*
D03*
X567035D02*
D03*
X588965Y306000D02*
D03*
X597035D02*
D03*
D93*
X614748Y474000D02*
D03*
X633252D02*
D03*
D94*
X244520Y315000D02*
D03*
X252000D02*
D03*
X248260Y322874D02*
D03*
D95*
X431063Y466740D02*
D03*
Y459260D02*
D03*
X438937Y463000D02*
D03*
D96*
X455000Y233724D02*
D03*
Y254000D02*
D03*
D97*
X489173Y325740D02*
D03*
X500000Y322000D02*
D03*
Y329480D02*
D03*
X489173D02*
D03*
Y322000D02*
D03*
D98*
X586575Y291634D02*
D03*
X573976D02*
D03*
X596024Y258366D02*
D03*
X577126Y291634D02*
D03*
X580276D02*
D03*
X583425D02*
D03*
X589724D02*
D03*
X592874D02*
D03*
X596024D02*
D03*
X592874Y258366D02*
D03*
X589724D02*
D03*
X586575D02*
D03*
X583425D02*
D03*
X580276D02*
D03*
X577126D02*
D03*
X573976D02*
D03*
D99*
X601634Y263976D02*
D03*
X568366Y286024D02*
D03*
X601634D02*
D03*
Y282874D02*
D03*
Y279724D02*
D03*
Y276575D02*
D03*
Y273425D02*
D03*
Y270276D02*
D03*
Y267126D02*
D03*
X568366Y263976D02*
D03*
Y267126D02*
D03*
Y270276D02*
D03*
Y273425D02*
D03*
Y276575D02*
D03*
Y279724D02*
D03*
Y282874D02*
D03*
D100*
X580331Y326000D02*
D03*
X571669Y336000D02*
D03*
Y326000D02*
D03*
X580331Y336000D02*
D03*
M02*
