G04*
G04 #@! TF.GenerationSoftware,Altium Limited,Altium Designer,24.6.1 (21)*
G04*
G04 Layer_Color=65535*
%FSLAX25Y25*%
%MOIN*%
G70*
G04*
G04 #@! TF.SameCoordinates,65BBE5AF-797C-4DEE-A542-627196F68B12*
G04*
G04*
G04 #@! TF.FilePolarity,Positive*
G04*
G01*
G75*
G36*
X130043Y357955D02*
X131275Y358827D01*
Y358421D01*
X130619Y357955D01*
X130616Y357951D01*
X130609Y357948D01*
X130599Y357941D01*
X130586Y357931D01*
X130550Y357905D01*
X130503Y357875D01*
X130453Y357841D01*
X130400Y357808D01*
X130350Y357778D01*
X130306Y357752D01*
X130313Y357748D01*
X130330Y357735D01*
X130356Y357718D01*
X130393Y357695D01*
X130436Y357665D01*
X130486Y357628D01*
X130536Y357592D01*
X130593Y357548D01*
X131275Y357039D01*
Y356669D01*
X130057Y357555D01*
X128715Y356599D01*
Y357016D01*
X129627Y357662D01*
X129630Y357665D01*
X129640Y357672D01*
X129657Y357682D01*
X129677Y357695D01*
X129700Y357712D01*
X129727Y357728D01*
X129783Y357768D01*
X129777Y357771D01*
X129764Y357782D01*
X129740Y357795D01*
X129714Y357815D01*
X129650Y357855D01*
X129624Y357871D01*
X129600Y357888D01*
X128715Y358537D01*
Y358944D01*
X130043Y357955D01*
D02*
G37*
G36*
X131275Y354551D02*
X130972D01*
Y355940D01*
X130180D01*
Y354738D01*
X129877D01*
Y355940D01*
X128715D01*
Y356280D01*
X131275D01*
Y354551D01*
D02*
G37*
G36*
X130643Y353995D02*
X130649Y353985D01*
X130656Y353972D01*
X130666Y353955D01*
X130676Y353932D01*
X130693Y353905D01*
X130726Y353842D01*
X130769Y353772D01*
X130823Y353692D01*
X130879Y353616D01*
X130942Y353539D01*
X130946Y353536D01*
X130949Y353529D01*
X130959Y353519D01*
X130972Y353506D01*
X131006Y353472D01*
X131052Y353429D01*
X131102Y353386D01*
X131162Y353339D01*
X131222Y353296D01*
X131285Y353259D01*
Y353056D01*
X128715D01*
Y353369D01*
X130716D01*
X130713Y353376D01*
X130699Y353389D01*
X130676Y353416D01*
X130649Y353449D01*
X130616Y353492D01*
X130579Y353546D01*
X130540Y353602D01*
X130499Y353669D01*
Y353672D01*
X130496Y353676D01*
X130490Y353686D01*
X130483Y353699D01*
X130463Y353736D01*
X130440Y353779D01*
X130413Y353829D01*
X130386Y353885D01*
X130360Y353942D01*
X130336Y353999D01*
X130643D01*
Y353995D01*
D02*
G37*
M02*
