G04*
G04 #@! TF.GenerationSoftware,Altium Limited,Altium Designer,24.6.1 (21)*
G04*
G04 Layer_Color=2752767*
%FSLAX25Y25*%
%MOIN*%
G70*
G04*
G04 #@! TF.SameCoordinates,65BBE5AF-797C-4DEE-A542-627196F68B12*
G04*
G04*
G04 #@! TF.FilePolarity,Positive*
G04*
G01*
G75*
%ADD15C,0.00500*%
%ADD116C,0.00667*%
%ADD117C,0.00400*%
D15*
X137000Y263000D02*
X139000Y265000D01*
X141000Y263000D01*
X139000Y261000D01*
X137000Y263000D01*
Y273000D02*
X139000Y275000D01*
X141000Y273000D01*
X139000Y271000D01*
X137000Y273000D01*
Y283000D02*
X139000Y285000D01*
X141000Y283000D01*
X139000Y281000D01*
X137000Y283000D01*
X679000Y236000D02*
Y240000D01*
X683000D01*
Y236000D01*
X679000D01*
Y246000D02*
Y250000D01*
X683000D01*
Y246000D01*
X679000D01*
Y256000D02*
Y260000D01*
X683000D01*
Y256000D01*
X679000D01*
X669000Y236000D02*
Y240000D01*
X673000D01*
Y236000D01*
X669000D01*
Y246000D02*
Y250000D01*
X673000D01*
Y246000D01*
X669000D01*
Y256000D02*
Y260000D01*
X673000D01*
Y256000D01*
X669000D01*
X240937Y453524D02*
X241937Y454524D01*
X242937D01*
X241937Y455524D01*
X242937Y456524D01*
X241937D01*
X240937Y457524D01*
X239937Y456524D01*
X238937D01*
X239937Y455524D01*
X238937Y454524D01*
X239937D01*
X240937Y453524D01*
Y454324D02*
X241537Y454924D01*
X242137D01*
X241537Y455524D01*
X242137Y456124D01*
X241537D01*
X240937Y456724D01*
X240337Y456124D01*
X239737D01*
X240337Y455524D01*
X239737Y454924D01*
X240337D01*
X240937Y454324D01*
Y146437D02*
X241937Y147437D01*
X242937D01*
X241937Y148437D01*
X242937Y149437D01*
X241937D01*
X240937Y150437D01*
X239937Y149437D01*
X238937D01*
X239937Y148437D01*
X238937Y147437D01*
X239937D01*
X240937Y146437D01*
Y147237D02*
X241537Y147837D01*
X242137D01*
X241537Y148437D01*
X242137Y149037D01*
X241537D01*
X240937Y149637D01*
X240337Y149037D01*
X239737D01*
X240337Y148437D01*
X239737Y147837D01*
X240337D01*
X240937Y147237D01*
X548024Y453524D02*
X549024Y454524D01*
X550024D01*
X549024Y455524D01*
X550024Y456524D01*
X549024D01*
X548024Y457524D01*
X547024Y456524D01*
X546024D01*
X547024Y455524D01*
X546024Y454524D01*
X547024D01*
X548024Y453524D01*
Y454324D02*
X548624Y454924D01*
X549224D01*
X548624Y455524D01*
X549224Y456124D01*
X548624D01*
X548024Y456724D01*
X547424Y456124D01*
X546824D01*
X547424Y455524D01*
X546824Y454924D01*
X547424D01*
X548024Y454324D01*
Y146437D02*
X549024Y147437D01*
X550024D01*
X549024Y148437D01*
X550024Y149437D01*
X549024D01*
X548024Y150437D01*
X547024Y149437D01*
X546024D01*
X547024Y148437D01*
X546024Y147437D01*
X547024D01*
X548024Y146437D01*
Y147237D02*
X548624Y147837D01*
X549224D01*
X548624Y148437D01*
X549224Y149037D01*
X548624D01*
X548024Y149637D01*
X547424Y149037D01*
X546824D01*
X547424Y148437D01*
X546824Y147837D01*
X547424D01*
X548024Y147237D01*
X661000Y306000D02*
X662000D01*
X663000Y307000D01*
X664000Y306000D01*
X665000D01*
Y307000D01*
X664000Y308000D01*
X665000Y309000D01*
Y310000D01*
X664000D01*
X663000Y309000D01*
X662000Y310000D01*
X661000D01*
Y309000D01*
X662000Y308000D01*
X661000Y307000D01*
Y306000D01*
Y331000D02*
X662000D01*
X663000Y332000D01*
X664000Y331000D01*
X665000D01*
Y332000D01*
X664000Y333000D01*
X665000Y334000D01*
Y335000D01*
X664000D01*
X663000Y334000D01*
X662000Y335000D01*
X661000D01*
Y334000D01*
X662000Y333000D01*
X661000Y332000D01*
Y331000D01*
Y422500D02*
X662000D01*
X663000Y423500D01*
X664000Y422500D01*
X665000D01*
Y423500D01*
X664000Y424500D01*
X665000Y425500D01*
Y426500D01*
X664000D01*
X663000Y425500D01*
X662000Y426500D01*
X661000D01*
Y425500D01*
X662000Y424500D01*
X661000Y423500D01*
Y422500D01*
Y447500D02*
X662000D01*
X663000Y448500D01*
X664000Y447500D01*
X665000D01*
Y448500D01*
X664000Y449500D01*
X665000Y450500D01*
Y451500D01*
X664000D01*
X663000Y450500D01*
X662000Y451500D01*
X661000D01*
Y450500D01*
X662000Y449500D01*
X661000Y448500D01*
Y447500D01*
X631252Y486221D02*
Y490220D01*
X635252D01*
Y486221D01*
X631252D01*
X632052Y487020D02*
Y489421D01*
X634452D01*
Y487020D01*
X632052D01*
X612748Y440945D02*
Y444945D01*
X616748D01*
Y440945D01*
X612748D01*
X613548Y441745D02*
Y444145D01*
X615948D01*
Y441745D01*
X613548D01*
X612748Y413386D02*
Y417386D01*
X616748D01*
Y413386D01*
X612748D01*
X613548Y414186D02*
Y416586D01*
X615948D01*
Y414186D01*
X613548D01*
X612748Y486221D02*
Y490220D01*
X616748D01*
Y486221D01*
X612748D01*
X613548Y487020D02*
Y489421D01*
X615948D01*
Y487020D01*
X613548D01*
X133000Y422000D02*
X134000D01*
X135000Y423000D01*
X136000Y422000D01*
X137000D01*
Y423000D01*
X136000Y424000D01*
X137000Y425000D01*
Y426000D01*
X136000D01*
X135000Y425000D01*
X134000Y426000D01*
X133000D01*
Y425000D01*
X134000Y424000D01*
X133000Y423000D01*
Y422000D01*
Y447000D02*
X134000D01*
X135000Y448000D01*
X136000Y447000D01*
X137000D01*
Y448000D01*
X136000Y449000D01*
X137000Y450000D01*
Y451000D01*
X136000D01*
X135000Y450000D01*
X134000Y451000D01*
X133000D01*
Y450000D01*
X134000Y449000D01*
X133000Y448000D01*
Y447000D01*
X627881Y175816D02*
X625881Y179816D01*
X629881D01*
X627881Y175816D01*
X663000Y191000D02*
X664000Y192000D01*
X665000D01*
X664000Y193000D01*
X665000Y194000D01*
X664000D01*
X663000Y195000D01*
X662000Y194000D01*
X661000D01*
X662000Y193000D01*
X661000Y192000D01*
X662000D01*
X663000Y191000D01*
X663500Y146000D02*
X664500Y147000D01*
X665500D01*
X664500Y148000D01*
X665500Y149000D01*
X664500D01*
X663500Y150000D01*
X662500Y149000D01*
X661500D01*
X662500Y148000D01*
X661500Y147000D01*
X662500D01*
X663500Y146000D01*
X637881Y160816D02*
X635881Y164816D01*
X639881D01*
X637881Y160816D01*
X627881Y165816D02*
X625881Y169816D01*
X629881D01*
X627881Y165816D01*
X637881Y170816D02*
X635881Y174816D01*
X639881D01*
X637881Y170816D01*
Y180816D02*
X635881Y184816D01*
X639881D01*
X637881Y180816D01*
X627881Y185816D02*
X625881Y189816D01*
X629881D01*
X627881Y185816D01*
X637881Y150816D02*
X635881Y154816D01*
X639881D01*
X637881Y150816D01*
X627881Y155816D02*
X625881Y159816D01*
X629881D01*
X627881Y155816D01*
X129000Y325472D02*
Y324472D01*
X131000D01*
Y325472D01*
X132000D01*
Y327472D01*
X131000D01*
Y328472D01*
X129000D01*
Y327472D01*
X128000D01*
Y325472D01*
X129000D01*
Y384528D02*
Y383528D01*
X131000D01*
Y384528D01*
X132000D01*
Y386528D01*
X131000D01*
Y387528D01*
X129000D01*
Y386528D01*
X128000D01*
Y384528D01*
X129000D01*
X456000Y276504D02*
X454000Y280504D01*
X458000D01*
X456000Y276504D01*
Y277304D02*
X454800Y279704D01*
X457200D01*
X456000Y277304D01*
Y298000D02*
X454000Y302000D01*
X458000D01*
X456000Y298000D01*
Y298800D02*
X454800Y301200D01*
X457200D01*
X456000Y298800D01*
Y319496D02*
X454000Y323496D01*
X458000D01*
X456000Y319496D01*
Y320296D02*
X454800Y322696D01*
X457200D01*
X456000Y320296D01*
X676576Y118076D02*
X677576Y120076D01*
X676576Y122076D01*
X678576Y121076D01*
X680576Y122076D01*
X679576Y120076D01*
X680576Y118076D01*
X678576Y119076D01*
X676576Y118076D01*
Y480281D02*
X677576Y482281D01*
X676576Y484281D01*
X678576Y483281D01*
X680576Y484281D01*
X679576Y482281D01*
X680576Y480281D01*
X678576Y481281D01*
X676576Y480281D01*
X117521Y118076D02*
X118521Y120076D01*
X117521Y122076D01*
X119521Y121076D01*
X121521Y122076D01*
X120521Y120076D01*
X121521Y118076D01*
X119521Y119076D01*
X117521Y118076D01*
Y480281D02*
X118521Y482281D01*
X117521Y484281D01*
X119521Y483281D01*
X121521Y484281D01*
X120521Y482281D01*
X121521Y480281D01*
X119521Y481281D01*
X117521Y480281D01*
X251000Y415000D02*
Y414000D01*
X253000D01*
Y415000D01*
X254000D01*
Y417000D01*
X253000D01*
Y418000D01*
X251000D01*
Y417000D01*
X250000D01*
Y415000D01*
X251000D01*
X251400Y415400D02*
Y414800D01*
X252600D01*
Y415400D01*
X253200D01*
Y416600D01*
X252600D01*
Y417200D01*
X251400D01*
Y416600D01*
X250800D01*
Y415400D01*
X251400D01*
X199000Y443000D02*
Y442000D01*
X201000D01*
Y443000D01*
X202000D01*
Y445000D01*
X201000D01*
Y446000D01*
X199000D01*
Y445000D01*
X198000D01*
Y443000D01*
X199000D01*
X199400Y443400D02*
Y442800D01*
X200600D01*
Y443400D01*
X201200D01*
Y444600D01*
X200600D01*
Y445200D01*
X199400D01*
Y444600D01*
X198800D01*
Y443400D01*
X199400D01*
X227000Y413000D02*
Y412000D01*
X229000D01*
Y413000D01*
X230000D01*
Y415000D01*
X229000D01*
Y416000D01*
X227000D01*
Y415000D01*
X226000D01*
Y413000D01*
X227000D01*
X227400Y413400D02*
Y412800D01*
X228600D01*
Y413400D01*
X229200D01*
Y414600D01*
X228600D01*
Y415200D01*
X227400D01*
Y414600D01*
X226800D01*
Y413400D01*
X227400D01*
X203000Y375000D02*
Y374000D01*
X205000D01*
Y375000D01*
X206000D01*
Y377000D01*
X205000D01*
Y378000D01*
X203000D01*
Y377000D01*
X202000D01*
Y375000D01*
X203000D01*
X203400Y375400D02*
Y374800D01*
X204600D01*
Y375400D01*
X205200D01*
Y376600D01*
X204600D01*
Y377200D01*
X203400D01*
Y376600D01*
X202800D01*
Y375400D01*
X203400D01*
X159000Y375000D02*
Y374000D01*
X161000D01*
Y375000D01*
X162000D01*
Y377000D01*
X161000D01*
Y378000D01*
X159000D01*
Y377000D01*
X158000D01*
Y375000D01*
X159000D01*
X159400Y375400D02*
Y374800D01*
X160600D01*
Y375400D01*
X161200D01*
Y376600D01*
X160600D01*
Y377200D01*
X159400D01*
Y376600D01*
X158800D01*
Y375400D01*
X159400D01*
X180485Y377056D02*
Y376056D01*
X182485D01*
Y377056D01*
X183485D01*
Y379056D01*
X182485D01*
Y380056D01*
X180485D01*
Y379056D01*
X179485D01*
Y377056D01*
X180485D01*
X180885Y377456D02*
Y376856D01*
X182085D01*
Y377456D01*
X182685D01*
Y378656D01*
X182085D01*
Y379256D01*
X180885D01*
Y378656D01*
X180285D01*
Y377456D01*
X180885D01*
X181000Y323000D02*
Y322000D01*
X183000D01*
Y323000D01*
X184000D01*
Y325000D01*
X183000D01*
Y326000D01*
X181000D01*
Y325000D01*
X180000D01*
Y323000D01*
X181000D01*
X181400Y323400D02*
Y322800D01*
X182600D01*
Y323400D01*
X183200D01*
Y324600D01*
X182600D01*
Y325200D01*
X181400D01*
Y324600D01*
X180800D01*
Y323400D01*
X181400D01*
X175000Y291000D02*
Y290000D01*
X177000D01*
Y291000D01*
X178000D01*
Y293000D01*
X177000D01*
Y294000D01*
X175000D01*
Y293000D01*
X174000D01*
Y291000D01*
X175000D01*
X175400Y291400D02*
Y290800D01*
X176600D01*
Y291400D01*
X177200D01*
Y292600D01*
X176600D01*
Y293200D01*
X175400D01*
Y292600D01*
X174800D01*
Y291400D01*
X175400D01*
X165000Y241000D02*
Y240000D01*
X167000D01*
Y241000D01*
X168000D01*
Y243000D01*
X167000D01*
Y244000D01*
X165000D01*
Y243000D01*
X164000D01*
Y241000D01*
X165000D01*
X165400Y241400D02*
Y240800D01*
X166600D01*
Y241400D01*
X167200D01*
Y242600D01*
X166600D01*
Y243200D01*
X165400D01*
Y242600D01*
X164800D01*
Y241400D01*
X165400D01*
X177000Y243000D02*
Y242000D01*
X179000D01*
Y243000D01*
X180000D01*
Y245000D01*
X179000D01*
Y246000D01*
X177000D01*
Y245000D01*
X176000D01*
Y243000D01*
X177000D01*
X177400Y243400D02*
Y242800D01*
X178600D01*
Y243400D01*
X179200D01*
Y244600D01*
X178600D01*
Y245200D01*
X177400D01*
Y244600D01*
X176800D01*
Y243400D01*
X177400D01*
X171000Y269000D02*
Y268000D01*
X173000D01*
Y269000D01*
X174000D01*
Y271000D01*
X173000D01*
Y272000D01*
X171000D01*
Y271000D01*
X170000D01*
Y269000D01*
X171000D01*
X171400Y269400D02*
Y268800D01*
X172600D01*
Y269400D01*
X173200D01*
Y270600D01*
X172600D01*
Y271200D01*
X171400D01*
Y270600D01*
X170800D01*
Y269400D01*
X171400D01*
X193000Y271000D02*
Y270000D01*
X195000D01*
Y271000D01*
X196000D01*
Y273000D01*
X195000D01*
Y274000D01*
X193000D01*
Y273000D01*
X192000D01*
Y271000D01*
X193000D01*
X193400Y271400D02*
Y270800D01*
X194600D01*
Y271400D01*
X195200D01*
Y272600D01*
X194600D01*
Y273200D01*
X193400D01*
Y272600D01*
X192800D01*
Y271400D01*
X193400D01*
X219000Y287000D02*
Y286000D01*
X221000D01*
Y287000D01*
X222000D01*
Y289000D01*
X221000D01*
Y290000D01*
X219000D01*
Y289000D01*
X218000D01*
Y287000D01*
X219000D01*
X219400Y287400D02*
Y286800D01*
X220600D01*
Y287400D01*
X221200D01*
Y288600D01*
X220600D01*
Y289200D01*
X219400D01*
Y288600D01*
X218800D01*
Y287400D01*
X219400D01*
X209000Y277000D02*
Y276000D01*
X211000D01*
Y277000D01*
X212000D01*
Y279000D01*
X211000D01*
Y280000D01*
X209000D01*
Y279000D01*
X208000D01*
Y277000D01*
X209000D01*
X209400Y277400D02*
Y276800D01*
X210600D01*
Y277400D01*
X211200D01*
Y278600D01*
X210600D01*
Y279200D01*
X209400D01*
Y278600D01*
X208800D01*
Y277400D01*
X209400D01*
X215000Y303000D02*
Y302000D01*
X217000D01*
Y303000D01*
X218000D01*
Y305000D01*
X217000D01*
Y306000D01*
X215000D01*
Y305000D01*
X214000D01*
Y303000D01*
X215000D01*
X215400Y303400D02*
Y302800D01*
X216600D01*
Y303400D01*
X217200D01*
Y304600D01*
X216600D01*
Y305200D01*
X215400D01*
Y304600D01*
X214800D01*
Y303400D01*
X215400D01*
X215000Y321000D02*
Y320000D01*
X217000D01*
Y321000D01*
X218000D01*
Y323000D01*
X217000D01*
Y324000D01*
X215000D01*
Y323000D01*
X214000D01*
Y321000D01*
X215000D01*
X215400Y321400D02*
Y320800D01*
X216600D01*
Y321400D01*
X217200D01*
Y322600D01*
X216600D01*
Y323200D01*
X215400D01*
Y322600D01*
X214800D01*
Y321400D01*
X215400D01*
X199000Y293000D02*
Y292000D01*
X201000D01*
Y293000D01*
X202000D01*
Y295000D01*
X201000D01*
Y296000D01*
X199000D01*
Y295000D01*
X198000D01*
Y293000D01*
X199000D01*
X199400Y293400D02*
Y292800D01*
X200600D01*
Y293400D01*
X201200D01*
Y294600D01*
X200600D01*
Y295200D01*
X199400D01*
Y294600D01*
X198800D01*
Y293400D01*
X199400D01*
X183000Y281000D02*
Y280000D01*
X185000D01*
Y281000D01*
X186000D01*
Y283000D01*
X185000D01*
Y284000D01*
X183000D01*
Y283000D01*
X182000D01*
Y281000D01*
X183000D01*
X183400Y281400D02*
Y280800D01*
X184600D01*
Y281400D01*
X185200D01*
Y282600D01*
X184600D01*
Y283200D01*
X183400D01*
Y282600D01*
X182800D01*
Y281400D01*
X183400D01*
X665834Y225638D02*
Y224638D01*
X667834D01*
Y225638D01*
X668834D01*
Y227638D01*
X667834D01*
Y228638D01*
X665834D01*
Y227638D01*
X664834D01*
Y225638D01*
X665834D01*
X666234Y226038D02*
Y225438D01*
X667434D01*
Y226038D01*
X668034D01*
Y227238D01*
X667434D01*
Y227838D01*
X666234D01*
Y227238D01*
X665634D01*
Y226038D01*
X666234D01*
X634808Y219052D02*
Y218052D01*
X636808D01*
Y219052D01*
X637808D01*
Y221052D01*
X636808D01*
Y222052D01*
X634808D01*
Y221052D01*
X633808D01*
Y219052D01*
X634808D01*
X635208Y219452D02*
Y218852D01*
X636408D01*
Y219452D01*
X637008D01*
Y220652D01*
X636408D01*
Y221252D01*
X635208D01*
Y220652D01*
X634608D01*
Y219452D01*
X635208D01*
X663000Y167000D02*
Y166000D01*
X665000D01*
Y167000D01*
X666000D01*
Y169000D01*
X665000D01*
Y170000D01*
X663000D01*
Y169000D01*
X662000D01*
Y167000D01*
X663000D01*
X663400Y167400D02*
Y166800D01*
X664600D01*
Y167400D01*
X665200D01*
Y168600D01*
X664600D01*
Y169200D01*
X663400D01*
Y168600D01*
X662800D01*
Y167400D01*
X663400D01*
X633000Y203000D02*
Y202000D01*
X635000D01*
Y203000D01*
X636000D01*
Y205000D01*
X635000D01*
Y206000D01*
X633000D01*
Y205000D01*
X632000D01*
Y203000D01*
X633000D01*
X633400Y203400D02*
Y202800D01*
X634600D01*
Y203400D01*
X635200D01*
Y204600D01*
X634600D01*
Y205200D01*
X633400D01*
Y204600D01*
X632800D01*
Y203400D01*
X633400D01*
X579000Y135000D02*
Y134000D01*
X581000D01*
Y135000D01*
X582000D01*
Y137000D01*
X581000D01*
Y138000D01*
X579000D01*
Y137000D01*
X578000D01*
Y135000D01*
X579000D01*
X579400Y135400D02*
Y134800D01*
X580600D01*
Y135400D01*
X581200D01*
Y136600D01*
X580600D01*
Y137200D01*
X579400D01*
Y136600D01*
X578800D01*
Y135400D01*
X579400D01*
X579000Y157000D02*
Y156000D01*
X581000D01*
Y157000D01*
X582000D01*
Y159000D01*
X581000D01*
Y160000D01*
X579000D01*
Y159000D01*
X578000D01*
Y157000D01*
X579000D01*
X579400Y157400D02*
Y156800D01*
X580600D01*
Y157400D01*
X581200D01*
Y158600D01*
X580600D01*
Y159200D01*
X579400D01*
Y158600D01*
X578800D01*
Y157400D01*
X579400D01*
X439000Y141000D02*
Y140000D01*
X441000D01*
Y141000D01*
X442000D01*
Y143000D01*
X441000D01*
Y144000D01*
X439000D01*
Y143000D01*
X438000D01*
Y141000D01*
X439000D01*
X439400Y141400D02*
Y140800D01*
X440600D01*
Y141400D01*
X441200D01*
Y142600D01*
X440600D01*
Y143200D01*
X439400D01*
Y142600D01*
X438800D01*
Y141400D01*
X439400D01*
X437000Y161000D02*
Y160000D01*
X439000D01*
Y161000D01*
X440000D01*
Y163000D01*
X439000D01*
Y164000D01*
X437000D01*
Y163000D01*
X436000D01*
Y161000D01*
X437000D01*
X437400Y161400D02*
Y160800D01*
X438600D01*
Y161400D01*
X439200D01*
Y162600D01*
X438600D01*
Y163200D01*
X437400D01*
Y162600D01*
X436800D01*
Y161400D01*
X437400D01*
X451000Y175000D02*
Y174000D01*
X453000D01*
Y175000D01*
X454000D01*
Y177000D01*
X453000D01*
Y178000D01*
X451000D01*
Y177000D01*
X450000D01*
Y175000D01*
X451000D01*
X451400Y175400D02*
Y174800D01*
X452600D01*
Y175400D01*
X453200D01*
Y176600D01*
X452600D01*
Y177200D01*
X451400D01*
Y176600D01*
X450800D01*
Y175400D01*
X451400D01*
X505000Y133000D02*
Y132000D01*
X507000D01*
Y133000D01*
X508000D01*
Y135000D01*
X507000D01*
Y136000D01*
X505000D01*
Y135000D01*
X504000D01*
Y133000D01*
X505000D01*
X505400Y133400D02*
Y132800D01*
X506600D01*
Y133400D01*
X507200D01*
Y134600D01*
X506600D01*
Y135200D01*
X505400D01*
Y134600D01*
X504800D01*
Y133400D01*
X505400D01*
X513000Y155000D02*
Y154000D01*
X515000D01*
Y155000D01*
X516000D01*
Y157000D01*
X515000D01*
Y158000D01*
X513000D01*
Y157000D01*
X512000D01*
Y155000D01*
X513000D01*
X513400Y155400D02*
Y154800D01*
X514600D01*
Y155400D01*
X515200D01*
Y156600D01*
X514600D01*
Y157200D01*
X513400D01*
Y156600D01*
X512800D01*
Y155400D01*
X513400D01*
X347000Y373000D02*
Y372000D01*
X349000D01*
Y373000D01*
X350000D01*
Y375000D01*
X349000D01*
Y376000D01*
X347000D01*
Y375000D01*
X346000D01*
Y373000D01*
X347000D01*
X347400Y373400D02*
Y372800D01*
X348600D01*
Y373400D01*
X349200D01*
Y374600D01*
X348600D01*
Y375200D01*
X347400D01*
Y374600D01*
X346800D01*
Y373400D01*
X347400D01*
X321000Y353000D02*
Y352000D01*
X323000D01*
Y353000D01*
X324000D01*
Y355000D01*
X323000D01*
Y356000D01*
X321000D01*
Y355000D01*
X320000D01*
Y353000D01*
X321000D01*
X321400Y353400D02*
Y352800D01*
X322600D01*
Y353400D01*
X323200D01*
Y354600D01*
X322600D01*
Y355200D01*
X321400D01*
Y354600D01*
X320800D01*
Y353400D01*
X321400D01*
X319000Y317000D02*
Y316000D01*
X321000D01*
Y317000D01*
X322000D01*
Y319000D01*
X321000D01*
Y320000D01*
X319000D01*
Y319000D01*
X318000D01*
Y317000D01*
X319000D01*
X319400Y317400D02*
Y316800D01*
X320600D01*
Y317400D01*
X321200D01*
Y318600D01*
X320600D01*
Y319200D01*
X319400D01*
Y318600D01*
X318800D01*
Y317400D01*
X319400D01*
X319000Y285000D02*
Y284000D01*
X321000D01*
Y285000D01*
X322000D01*
Y287000D01*
X321000D01*
Y288000D01*
X319000D01*
Y287000D01*
X318000D01*
Y285000D01*
X319000D01*
X319400Y285400D02*
Y284800D01*
X320600D01*
Y285400D01*
X321200D01*
Y286600D01*
X320600D01*
Y287200D01*
X319400D01*
Y286600D01*
X318800D01*
Y285400D01*
X319400D01*
X319000Y259000D02*
Y258000D01*
X321000D01*
Y259000D01*
X322000D01*
Y261000D01*
X321000D01*
Y262000D01*
X319000D01*
Y261000D01*
X318000D01*
Y259000D01*
X319000D01*
X319400Y259400D02*
Y258800D01*
X320600D01*
Y259400D01*
X321200D01*
Y260600D01*
X320600D01*
Y261200D01*
X319400D01*
Y260600D01*
X318800D01*
Y259400D01*
X319400D01*
X681000Y191000D02*
Y190000D01*
X683000D01*
Y191000D01*
X684000D01*
Y193000D01*
X683000D01*
Y194000D01*
X681000D01*
Y193000D01*
X680000D01*
Y191000D01*
X681000D01*
X681400Y191400D02*
Y190800D01*
X682600D01*
Y191400D01*
X683200D01*
Y192600D01*
X682600D01*
Y193200D01*
X681400D01*
Y192600D01*
X680800D01*
Y191400D01*
X681400D01*
X681000Y163000D02*
Y162000D01*
X683000D01*
Y163000D01*
X684000D01*
Y165000D01*
X683000D01*
Y166000D01*
X681000D01*
Y165000D01*
X680000D01*
Y163000D01*
X681000D01*
X681400Y163400D02*
Y162800D01*
X682600D01*
Y163400D01*
X683200D01*
Y164600D01*
X682600D01*
Y165200D01*
X681400D01*
Y164600D01*
X680800D01*
Y163400D01*
X681400D01*
X681000Y141000D02*
Y140000D01*
X683000D01*
Y141000D01*
X684000D01*
Y143000D01*
X683000D01*
Y144000D01*
X681000D01*
Y143000D01*
X680000D01*
Y141000D01*
X681000D01*
X681400Y141400D02*
Y140800D01*
X682600D01*
Y141400D01*
X683200D01*
Y142600D01*
X682600D01*
Y143200D01*
X681400D01*
Y142600D01*
X680800D01*
Y141400D01*
X681400D01*
X653000Y115000D02*
Y114000D01*
X655000D01*
Y115000D01*
X656000D01*
Y117000D01*
X655000D01*
Y118000D01*
X653000D01*
Y117000D01*
X652000D01*
Y115000D01*
X653000D01*
X653400Y115400D02*
Y114800D01*
X654600D01*
Y115400D01*
X655200D01*
Y116600D01*
X654600D01*
Y117200D01*
X653400D01*
Y116600D01*
X652800D01*
Y115400D01*
X653400D01*
X629000Y115000D02*
Y114000D01*
X631000D01*
Y115000D01*
X632000D01*
Y117000D01*
X631000D01*
Y118000D01*
X629000D01*
Y117000D01*
X628000D01*
Y115000D01*
X629000D01*
X629400Y115400D02*
Y114800D01*
X630600D01*
Y115400D01*
X631200D01*
Y116600D01*
X630600D01*
Y117200D01*
X629400D01*
Y116600D01*
X628800D01*
Y115400D01*
X629400D01*
X603000Y115000D02*
Y114000D01*
X605000D01*
Y115000D01*
X606000D01*
Y117000D01*
X605000D01*
Y118000D01*
X603000D01*
Y117000D01*
X602000D01*
Y115000D01*
X603000D01*
X603400Y115400D02*
Y114800D01*
X604600D01*
Y115400D01*
X605200D01*
Y116600D01*
X604600D01*
Y117200D01*
X603400D01*
Y116600D01*
X602800D01*
Y115400D01*
X603400D01*
X579000Y115000D02*
Y114000D01*
X581000D01*
Y115000D01*
X582000D01*
Y117000D01*
X581000D01*
Y118000D01*
X579000D01*
Y117000D01*
X578000D01*
Y115000D01*
X579000D01*
X579400Y115400D02*
Y114800D01*
X580600D01*
Y115400D01*
X581200D01*
Y116600D01*
X580600D01*
Y117200D01*
X579400D01*
Y116600D01*
X578800D01*
Y115400D01*
X579400D01*
X555000Y115000D02*
Y114000D01*
X557000D01*
Y115000D01*
X558000D01*
Y117000D01*
X557000D01*
Y118000D01*
X555000D01*
Y117000D01*
X554000D01*
Y115000D01*
X555000D01*
X555400Y115400D02*
Y114800D01*
X556600D01*
Y115400D01*
X557200D01*
Y116600D01*
X556600D01*
Y117200D01*
X555400D01*
Y116600D01*
X554800D01*
Y115400D01*
X555400D01*
X527000Y115000D02*
Y114000D01*
X529000D01*
Y115000D01*
X530000D01*
Y117000D01*
X529000D01*
Y118000D01*
X527000D01*
Y117000D01*
X526000D01*
Y115000D01*
X527000D01*
X527400Y115400D02*
Y114800D01*
X528600D01*
Y115400D01*
X529200D01*
Y116600D01*
X528600D01*
Y117200D01*
X527400D01*
Y116600D01*
X526800D01*
Y115400D01*
X527400D01*
X501000Y115000D02*
Y114000D01*
X503000D01*
Y115000D01*
X504000D01*
Y117000D01*
X503000D01*
Y118000D01*
X501000D01*
Y117000D01*
X500000D01*
Y115000D01*
X501000D01*
X501400Y115400D02*
Y114800D01*
X502600D01*
Y115400D01*
X503200D01*
Y116600D01*
X502600D01*
Y117200D01*
X501400D01*
Y116600D01*
X500800D01*
Y115400D01*
X501400D01*
X477000Y115000D02*
Y114000D01*
X479000D01*
Y115000D01*
X480000D01*
Y117000D01*
X479000D01*
Y118000D01*
X477000D01*
Y117000D01*
X476000D01*
Y115000D01*
X477000D01*
X477400Y115400D02*
Y114800D01*
X478600D01*
Y115400D01*
X479200D01*
Y116600D01*
X478600D01*
Y117200D01*
X477400D01*
Y116600D01*
X476800D01*
Y115400D01*
X477400D01*
X451000Y115000D02*
Y114000D01*
X453000D01*
Y115000D01*
X454000D01*
Y117000D01*
X453000D01*
Y118000D01*
X451000D01*
Y117000D01*
X450000D01*
Y115000D01*
X451000D01*
X451400Y115400D02*
Y114800D01*
X452600D01*
Y115400D01*
X453200D01*
Y116600D01*
X452600D01*
Y117200D01*
X451400D01*
Y116600D01*
X450800D01*
Y115400D01*
X451400D01*
X423000Y115000D02*
Y114000D01*
X425000D01*
Y115000D01*
X426000D01*
Y117000D01*
X425000D01*
Y118000D01*
X423000D01*
Y117000D01*
X422000D01*
Y115000D01*
X423000D01*
X423400Y115400D02*
Y114800D01*
X424600D01*
Y115400D01*
X425200D01*
Y116600D01*
X424600D01*
Y117200D01*
X423400D01*
Y116600D01*
X422800D01*
Y115400D01*
X423400D01*
X397000Y115000D02*
Y114000D01*
X399000D01*
Y115000D01*
X400000D01*
Y117000D01*
X399000D01*
Y118000D01*
X397000D01*
Y117000D01*
X396000D01*
Y115000D01*
X397000D01*
X397400Y115400D02*
Y114800D01*
X398600D01*
Y115400D01*
X399200D01*
Y116600D01*
X398600D01*
Y117200D01*
X397400D01*
Y116600D01*
X396800D01*
Y115400D01*
X397400D01*
X369000Y115000D02*
Y114000D01*
X371000D01*
Y115000D01*
X372000D01*
Y117000D01*
X371000D01*
Y118000D01*
X369000D01*
Y117000D01*
X368000D01*
Y115000D01*
X369000D01*
X369400Y115400D02*
Y114800D01*
X370600D01*
Y115400D01*
X371200D01*
Y116600D01*
X370600D01*
Y117200D01*
X369400D01*
Y116600D01*
X368800D01*
Y115400D01*
X369400D01*
X341000Y115000D02*
Y114000D01*
X343000D01*
Y115000D01*
X344000D01*
Y117000D01*
X343000D01*
Y118000D01*
X341000D01*
Y117000D01*
X340000D01*
Y115000D01*
X341000D01*
X341400Y115400D02*
Y114800D01*
X342600D01*
Y115400D01*
X343200D01*
Y116600D01*
X342600D01*
Y117200D01*
X341400D01*
Y116600D01*
X340800D01*
Y115400D01*
X341400D01*
X313000Y115000D02*
Y114000D01*
X315000D01*
Y115000D01*
X316000D01*
Y117000D01*
X315000D01*
Y118000D01*
X313000D01*
Y117000D01*
X312000D01*
Y115000D01*
X313000D01*
X313400Y115400D02*
Y114800D01*
X314600D01*
Y115400D01*
X315200D01*
Y116600D01*
X314600D01*
Y117200D01*
X313400D01*
Y116600D01*
X312800D01*
Y115400D01*
X313400D01*
X285000Y115000D02*
Y114000D01*
X287000D01*
Y115000D01*
X288000D01*
Y117000D01*
X287000D01*
Y118000D01*
X285000D01*
Y117000D01*
X284000D01*
Y115000D01*
X285000D01*
X285400Y115400D02*
Y114800D01*
X286600D01*
Y115400D01*
X287200D01*
Y116600D01*
X286600D01*
Y117200D01*
X285400D01*
Y116600D01*
X284800D01*
Y115400D01*
X285400D01*
X259000Y115000D02*
Y114000D01*
X261000D01*
Y115000D01*
X262000D01*
Y117000D01*
X261000D01*
Y118000D01*
X259000D01*
Y117000D01*
X258000D01*
Y115000D01*
X259000D01*
X259400Y115400D02*
Y114800D01*
X260600D01*
Y115400D01*
X261200D01*
Y116600D01*
X260600D01*
Y117200D01*
X259400D01*
Y116600D01*
X258800D01*
Y115400D01*
X259400D01*
X237000Y115000D02*
Y114000D01*
X239000D01*
Y115000D01*
X240000D01*
Y117000D01*
X239000D01*
Y118000D01*
X237000D01*
Y117000D01*
X236000D01*
Y115000D01*
X237000D01*
X237400Y115400D02*
Y114800D01*
X238600D01*
Y115400D01*
X239200D01*
Y116600D01*
X238600D01*
Y117200D01*
X237400D01*
Y116600D01*
X236800D01*
Y115400D01*
X237400D01*
X217000Y115000D02*
Y114000D01*
X219000D01*
Y115000D01*
X220000D01*
Y117000D01*
X219000D01*
Y118000D01*
X217000D01*
Y117000D01*
X216000D01*
Y115000D01*
X217000D01*
X217400Y115400D02*
Y114800D01*
X218600D01*
Y115400D01*
X219200D01*
Y116600D01*
X218600D01*
Y117200D01*
X217400D01*
Y116600D01*
X216800D01*
Y115400D01*
X217400D01*
X201000Y149000D02*
Y148000D01*
X203000D01*
Y149000D01*
X204000D01*
Y151000D01*
X203000D01*
Y152000D01*
X201000D01*
Y151000D01*
X200000D01*
Y149000D01*
X201000D01*
X201400Y149400D02*
Y148800D01*
X202600D01*
Y149400D01*
X203200D01*
Y150600D01*
X202600D01*
Y151200D01*
X201400D01*
Y150600D01*
X200800D01*
Y149400D01*
X201400D01*
X201000Y133000D02*
Y132000D01*
X203000D01*
Y133000D01*
X204000D01*
Y135000D01*
X203000D01*
Y136000D01*
X201000D01*
Y135000D01*
X200000D01*
Y133000D01*
X201000D01*
X201400Y133400D02*
Y132800D01*
X202600D01*
Y133400D01*
X203200D01*
Y134600D01*
X202600D01*
Y135200D01*
X201400D01*
Y134600D01*
X200800D01*
Y133400D01*
X201400D01*
X169000Y169000D02*
Y168000D01*
X171000D01*
Y169000D01*
X172000D01*
Y171000D01*
X171000D01*
Y172000D01*
X169000D01*
Y171000D01*
X168000D01*
Y169000D01*
X169000D01*
X169400Y169400D02*
Y168800D01*
X170600D01*
Y169400D01*
X171200D01*
Y170600D01*
X170600D01*
Y171200D01*
X169400D01*
Y170600D01*
X168800D01*
Y169400D01*
X169400D01*
X151000Y169000D02*
Y168000D01*
X153000D01*
Y169000D01*
X154000D01*
Y171000D01*
X153000D01*
Y172000D01*
X151000D01*
Y171000D01*
X150000D01*
Y169000D01*
X151000D01*
X151400Y169400D02*
Y168800D01*
X152600D01*
Y169400D01*
X153200D01*
Y170600D01*
X152600D01*
Y171200D01*
X151400D01*
Y170600D01*
X150800D01*
Y169400D01*
X151400D01*
X115000Y159000D02*
Y158000D01*
X117000D01*
Y159000D01*
X118000D01*
Y161000D01*
X117000D01*
Y162000D01*
X115000D01*
Y161000D01*
X114000D01*
Y159000D01*
X115000D01*
X115400Y159400D02*
Y158800D01*
X116600D01*
Y159400D01*
X117200D01*
Y160600D01*
X116600D01*
Y161200D01*
X115400D01*
Y160600D01*
X114800D01*
Y159400D01*
X115400D01*
X121000Y215000D02*
Y214000D01*
X123000D01*
Y215000D01*
X124000D01*
Y217000D01*
X123000D01*
Y218000D01*
X121000D01*
Y217000D01*
X120000D01*
Y215000D01*
X121000D01*
X121400Y215400D02*
Y214800D01*
X122600D01*
Y215400D01*
X123200D01*
Y216600D01*
X122600D01*
Y217200D01*
X121400D01*
Y216600D01*
X120800D01*
Y215400D01*
X121400D01*
X123000Y251000D02*
Y250000D01*
X125000D01*
Y251000D01*
X126000D01*
Y253000D01*
X125000D01*
Y254000D01*
X123000D01*
Y253000D01*
X122000D01*
Y251000D01*
X123000D01*
X123400Y251400D02*
Y250800D01*
X124600D01*
Y251400D01*
X125200D01*
Y252600D01*
X124600D01*
Y253200D01*
X123400D01*
Y252600D01*
X122800D01*
Y251400D01*
X123400D01*
X115000Y273000D02*
Y272000D01*
X117000D01*
Y273000D01*
X118000D01*
Y275000D01*
X117000D01*
Y276000D01*
X115000D01*
Y275000D01*
X114000D01*
Y273000D01*
X115000D01*
X115400Y273400D02*
Y272800D01*
X116600D01*
Y273400D01*
X117200D01*
Y274600D01*
X116600D01*
Y275200D01*
X115400D01*
Y274600D01*
X114800D01*
Y273400D01*
X115400D01*
X115000Y295000D02*
Y294000D01*
X117000D01*
Y295000D01*
X118000D01*
Y297000D01*
X117000D01*
Y298000D01*
X115000D01*
Y297000D01*
X114000D01*
Y295000D01*
X115000D01*
X115400Y295400D02*
Y294800D01*
X116600D01*
Y295400D01*
X117200D01*
Y296600D01*
X116600D01*
Y297200D01*
X115400D01*
Y296600D01*
X114800D01*
Y295400D01*
X115400D01*
X115000Y317000D02*
Y316000D01*
X117000D01*
Y317000D01*
X118000D01*
Y319000D01*
X117000D01*
Y320000D01*
X115000D01*
Y319000D01*
X114000D01*
Y317000D01*
X115000D01*
X115400Y317400D02*
Y316800D01*
X116600D01*
Y317400D01*
X117200D01*
Y318600D01*
X116600D01*
Y319200D01*
X115400D01*
Y318600D01*
X114800D01*
Y317400D01*
X115400D01*
X115000Y343000D02*
Y342000D01*
X117000D01*
Y343000D01*
X118000D01*
Y345000D01*
X117000D01*
Y346000D01*
X115000D01*
Y345000D01*
X114000D01*
Y343000D01*
X115000D01*
X115400Y343400D02*
Y342800D01*
X116600D01*
Y343400D01*
X117200D01*
Y344600D01*
X116600D01*
Y345200D01*
X115400D01*
Y344600D01*
X114800D01*
Y343400D01*
X115400D01*
X115000Y367000D02*
Y366000D01*
X117000D01*
Y367000D01*
X118000D01*
Y369000D01*
X117000D01*
Y370000D01*
X115000D01*
Y369000D01*
X114000D01*
Y367000D01*
X115000D01*
X115400Y367400D02*
Y366800D01*
X116600D01*
Y367400D01*
X117200D01*
Y368600D01*
X116600D01*
Y369200D01*
X115400D01*
Y368600D01*
X114800D01*
Y367400D01*
X115400D01*
X115000Y391000D02*
Y390000D01*
X117000D01*
Y391000D01*
X118000D01*
Y393000D01*
X117000D01*
Y394000D01*
X115000D01*
Y393000D01*
X114000D01*
Y391000D01*
X115000D01*
X115400Y391400D02*
Y390800D01*
X116600D01*
Y391400D01*
X117200D01*
Y392600D01*
X116600D01*
Y393200D01*
X115400D01*
Y392600D01*
X114800D01*
Y391400D01*
X115400D01*
X115000Y415000D02*
Y414000D01*
X117000D01*
Y415000D01*
X118000D01*
Y417000D01*
X117000D01*
Y418000D01*
X115000D01*
Y417000D01*
X114000D01*
Y415000D01*
X115000D01*
X115400Y415400D02*
Y414800D01*
X116600D01*
Y415400D01*
X117200D01*
Y416600D01*
X116600D01*
Y417200D01*
X115400D01*
Y416600D01*
X114800D01*
Y415400D01*
X115400D01*
X115000Y439000D02*
Y438000D01*
X117000D01*
Y439000D01*
X118000D01*
Y441000D01*
X117000D01*
Y442000D01*
X115000D01*
Y441000D01*
X114000D01*
Y439000D01*
X115000D01*
X115400Y439400D02*
Y438800D01*
X116600D01*
Y439400D01*
X117200D01*
Y440600D01*
X116600D01*
Y441200D01*
X115400D01*
Y440600D01*
X114800D01*
Y439400D01*
X115400D01*
X115000Y459000D02*
Y458000D01*
X117000D01*
Y459000D01*
X118000D01*
Y461000D01*
X117000D01*
Y462000D01*
X115000D01*
Y461000D01*
X114000D01*
Y459000D01*
X115000D01*
X115400Y459400D02*
Y458800D01*
X116600D01*
Y459400D01*
X117200D01*
Y460600D01*
X116600D01*
Y461200D01*
X115400D01*
Y460600D01*
X114800D01*
Y459400D01*
X115400D01*
X137000Y479000D02*
Y478000D01*
X139000D01*
Y479000D01*
X140000D01*
Y481000D01*
X139000D01*
Y482000D01*
X137000D01*
Y481000D01*
X136000D01*
Y479000D01*
X137000D01*
X137400Y479400D02*
Y478800D01*
X138600D01*
Y479400D01*
X139200D01*
Y480600D01*
X138600D01*
Y481200D01*
X137400D01*
Y480600D01*
X136800D01*
Y479400D01*
X137400D01*
X159000Y479000D02*
Y478000D01*
X161000D01*
Y479000D01*
X162000D01*
Y481000D01*
X161000D01*
Y482000D01*
X159000D01*
Y481000D01*
X158000D01*
Y479000D01*
X159000D01*
X159400Y479400D02*
Y478800D01*
X160600D01*
Y479400D01*
X161200D01*
Y480600D01*
X160600D01*
Y481200D01*
X159400D01*
Y480600D01*
X158800D01*
Y479400D01*
X159400D01*
X187000Y479000D02*
Y478000D01*
X189000D01*
Y479000D01*
X190000D01*
Y481000D01*
X189000D01*
Y482000D01*
X187000D01*
Y481000D01*
X186000D01*
Y479000D01*
X187000D01*
X187400Y479400D02*
Y478800D01*
X188600D01*
Y479400D01*
X189200D01*
Y480600D01*
X188600D01*
Y481200D01*
X187400D01*
Y480600D01*
X186800D01*
Y479400D01*
X187400D01*
X213000Y479000D02*
Y478000D01*
X215000D01*
Y479000D01*
X216000D01*
Y481000D01*
X215000D01*
Y482000D01*
X213000D01*
Y481000D01*
X212000D01*
Y479000D01*
X213000D01*
X213400Y479400D02*
Y478800D01*
X214600D01*
Y479400D01*
X215200D01*
Y480600D01*
X214600D01*
Y481200D01*
X213400D01*
Y480600D01*
X212800D01*
Y479400D01*
X213400D01*
X257000Y479000D02*
Y478000D01*
X259000D01*
Y479000D01*
X260000D01*
Y481000D01*
X259000D01*
Y482000D01*
X257000D01*
Y481000D01*
X256000D01*
Y479000D01*
X257000D01*
X257400Y479400D02*
Y478800D01*
X258600D01*
Y479400D01*
X259200D01*
Y480600D01*
X258600D01*
Y481200D01*
X257400D01*
Y480600D01*
X256800D01*
Y479400D01*
X257400D01*
X289000Y479000D02*
Y478000D01*
X291000D01*
Y479000D01*
X292000D01*
Y481000D01*
X291000D01*
Y482000D01*
X289000D01*
Y481000D01*
X288000D01*
Y479000D01*
X289000D01*
X289400Y479400D02*
Y478800D01*
X290600D01*
Y479400D01*
X291200D01*
Y480600D01*
X290600D01*
Y481200D01*
X289400D01*
Y480600D01*
X288800D01*
Y479400D01*
X289400D01*
X315000Y479000D02*
Y478000D01*
X317000D01*
Y479000D01*
X318000D01*
Y481000D01*
X317000D01*
Y482000D01*
X315000D01*
Y481000D01*
X314000D01*
Y479000D01*
X315000D01*
X315400Y479400D02*
Y478800D01*
X316600D01*
Y479400D01*
X317200D01*
Y480600D01*
X316600D01*
Y481200D01*
X315400D01*
Y480600D01*
X314800D01*
Y479400D01*
X315400D01*
X343000Y479000D02*
Y478000D01*
X345000D01*
Y479000D01*
X346000D01*
Y481000D01*
X345000D01*
Y482000D01*
X343000D01*
Y481000D01*
X342000D01*
Y479000D01*
X343000D01*
X343400Y479400D02*
Y478800D01*
X344600D01*
Y479400D01*
X345200D01*
Y480600D01*
X344600D01*
Y481200D01*
X343400D01*
Y480600D01*
X342800D01*
Y479400D01*
X343400D01*
X371000Y479000D02*
Y478000D01*
X373000D01*
Y479000D01*
X374000D01*
Y481000D01*
X373000D01*
Y482000D01*
X371000D01*
Y481000D01*
X370000D01*
Y479000D01*
X371000D01*
X371400Y479400D02*
Y478800D01*
X372600D01*
Y479400D01*
X373200D01*
Y480600D01*
X372600D01*
Y481200D01*
X371400D01*
Y480600D01*
X370800D01*
Y479400D01*
X371400D01*
X403000Y479000D02*
Y478000D01*
X405000D01*
Y479000D01*
X406000D01*
Y481000D01*
X405000D01*
Y482000D01*
X403000D01*
Y481000D01*
X402000D01*
Y479000D01*
X403000D01*
X403400Y479400D02*
Y478800D01*
X404600D01*
Y479400D01*
X405200D01*
Y480600D01*
X404600D01*
Y481200D01*
X403400D01*
Y480600D01*
X402800D01*
Y479400D01*
X403400D01*
X435000Y479000D02*
Y478000D01*
X437000D01*
Y479000D01*
X438000D01*
Y481000D01*
X437000D01*
Y482000D01*
X435000D01*
Y481000D01*
X434000D01*
Y479000D01*
X435000D01*
X435400Y479400D02*
Y478800D01*
X436600D01*
Y479400D01*
X437200D01*
Y480600D01*
X436600D01*
Y481200D01*
X435400D01*
Y480600D01*
X434800D01*
Y479400D01*
X435400D01*
X513000Y431000D02*
Y430000D01*
X515000D01*
Y431000D01*
X516000D01*
Y433000D01*
X515000D01*
Y434000D01*
X513000D01*
Y433000D01*
X512000D01*
Y431000D01*
X513000D01*
X513400Y431400D02*
Y430800D01*
X514600D01*
Y431400D01*
X515200D01*
Y432600D01*
X514600D01*
Y433200D01*
X513400D01*
Y432600D01*
X512800D01*
Y431400D01*
X513400D01*
X483000Y427000D02*
Y426000D01*
X485000D01*
Y427000D01*
X486000D01*
Y429000D01*
X485000D01*
Y430000D01*
X483000D01*
Y429000D01*
X482000D01*
Y427000D01*
X483000D01*
X483400Y427400D02*
Y426800D01*
X484600D01*
Y427400D01*
X485200D01*
Y428600D01*
X484600D01*
Y429200D01*
X483400D01*
Y428600D01*
X482800D01*
Y427400D01*
X483400D01*
X501000Y409000D02*
Y408000D01*
X503000D01*
Y409000D01*
X504000D01*
Y411000D01*
X503000D01*
Y412000D01*
X501000D01*
Y411000D01*
X500000D01*
Y409000D01*
X501000D01*
X501400Y409400D02*
Y408800D01*
X502600D01*
Y409400D01*
X503200D01*
Y410600D01*
X502600D01*
Y411200D01*
X501400D01*
Y410600D01*
X500800D01*
Y409400D01*
X501400D01*
X521000Y399000D02*
Y398000D01*
X523000D01*
Y399000D01*
X524000D01*
Y401000D01*
X523000D01*
Y402000D01*
X521000D01*
Y401000D01*
X520000D01*
Y399000D01*
X521000D01*
X521400Y399400D02*
Y398800D01*
X522600D01*
Y399400D01*
X523200D01*
Y400600D01*
X522600D01*
Y401200D01*
X521400D01*
Y400600D01*
X520800D01*
Y399400D01*
X521400D01*
X531000Y411000D02*
Y410000D01*
X533000D01*
Y411000D01*
X534000D01*
Y413000D01*
X533000D01*
Y414000D01*
X531000D01*
Y413000D01*
X530000D01*
Y411000D01*
X531000D01*
X531400Y411400D02*
Y410800D01*
X532600D01*
Y411400D01*
X533200D01*
Y412600D01*
X532600D01*
Y413200D01*
X531400D01*
Y412600D01*
X530800D01*
Y411400D01*
X531400D01*
X543000Y425000D02*
Y424000D01*
X545000D01*
Y425000D01*
X546000D01*
Y427000D01*
X545000D01*
Y428000D01*
X543000D01*
Y427000D01*
X542000D01*
Y425000D01*
X543000D01*
X543400Y425400D02*
Y424800D01*
X544600D01*
Y425400D01*
X545200D01*
Y426600D01*
X544600D01*
Y427200D01*
X543400D01*
Y426600D01*
X542800D01*
Y425400D01*
X543400D01*
X527000Y471000D02*
Y470000D01*
X529000D01*
Y471000D01*
X530000D01*
Y473000D01*
X529000D01*
Y474000D01*
X527000D01*
Y473000D01*
X526000D01*
Y471000D01*
X527000D01*
X527400Y471400D02*
Y470800D01*
X528600D01*
Y471400D01*
X529200D01*
Y472600D01*
X528600D01*
Y473200D01*
X527400D01*
Y472600D01*
X526800D01*
Y471400D01*
X527400D01*
X577000Y449000D02*
Y448000D01*
X579000D01*
Y449000D01*
X580000D01*
Y451000D01*
X579000D01*
Y452000D01*
X577000D01*
Y451000D01*
X576000D01*
Y449000D01*
X577000D01*
X577400Y449400D02*
Y448800D01*
X578600D01*
Y449400D01*
X579200D01*
Y450600D01*
X578600D01*
Y451200D01*
X577400D01*
Y450600D01*
X576800D01*
Y449400D01*
X577400D01*
X651000Y475000D02*
Y474000D01*
X653000D01*
Y475000D01*
X654000D01*
Y477000D01*
X653000D01*
Y478000D01*
X651000D01*
Y477000D01*
X650000D01*
Y475000D01*
X651000D01*
X651400Y475400D02*
Y474800D01*
X652600D01*
Y475400D01*
X653200D01*
Y476600D01*
X652600D01*
Y477200D01*
X651400D01*
Y476600D01*
X650800D01*
Y475400D01*
X651400D01*
X641000Y447000D02*
Y446000D01*
X643000D01*
Y447000D01*
X644000D01*
Y449000D01*
X643000D01*
Y450000D01*
X641000D01*
Y449000D01*
X640000D01*
Y447000D01*
X641000D01*
X641400Y447400D02*
Y446800D01*
X642600D01*
Y447400D01*
X643200D01*
Y448600D01*
X642600D01*
Y449200D01*
X641400D01*
Y448600D01*
X640800D01*
Y447400D01*
X641400D01*
X675000Y447000D02*
Y446000D01*
X677000D01*
Y447000D01*
X678000D01*
Y449000D01*
X677000D01*
Y450000D01*
X675000D01*
Y449000D01*
X674000D01*
Y447000D01*
X675000D01*
X675400Y447400D02*
Y446800D01*
X676600D01*
Y447400D01*
X677200D01*
Y448600D01*
X676600D01*
Y449200D01*
X675400D01*
Y448600D01*
X674800D01*
Y447400D01*
X675400D01*
X677000Y423000D02*
Y422000D01*
X679000D01*
Y423000D01*
X680000D01*
Y425000D01*
X679000D01*
Y426000D01*
X677000D01*
Y425000D01*
X676000D01*
Y423000D01*
X677000D01*
X677400Y423400D02*
Y422800D01*
X678600D01*
Y423400D01*
X679200D01*
Y424600D01*
X678600D01*
Y425200D01*
X677400D01*
Y424600D01*
X676800D01*
Y423400D01*
X677400D01*
X617000Y399000D02*
Y398000D01*
X619000D01*
Y399000D01*
X620000D01*
Y401000D01*
X619000D01*
Y402000D01*
X617000D01*
Y401000D01*
X616000D01*
Y399000D01*
X617000D01*
X617400Y399400D02*
Y398800D01*
X618600D01*
Y399400D01*
X619200D01*
Y400600D01*
X618600D01*
Y401200D01*
X617400D01*
Y400600D01*
X616800D01*
Y399400D01*
X617400D01*
X651000Y397000D02*
Y396000D01*
X653000D01*
Y397000D01*
X654000D01*
Y399000D01*
X653000D01*
Y400000D01*
X651000D01*
Y399000D01*
X650000D01*
Y397000D01*
X651000D01*
X651400Y397400D02*
Y396800D01*
X652600D01*
Y397400D01*
X653200D01*
Y398600D01*
X652600D01*
Y399200D01*
X651400D01*
Y398600D01*
X650800D01*
Y397400D01*
X651400D01*
X677000Y397000D02*
Y396000D01*
X679000D01*
Y397000D01*
X680000D01*
Y399000D01*
X679000D01*
Y400000D01*
X677000D01*
Y399000D01*
X676000D01*
Y397000D01*
X677000D01*
X677400Y397400D02*
Y396800D01*
X678600D01*
Y397400D01*
X679200D01*
Y398600D01*
X678600D01*
Y399200D01*
X677400D01*
Y398600D01*
X676800D01*
Y397400D01*
X677400D01*
X665000Y379000D02*
Y378000D01*
X667000D01*
Y379000D01*
X668000D01*
Y381000D01*
X667000D01*
Y382000D01*
X665000D01*
Y381000D01*
X664000D01*
Y379000D01*
X665000D01*
X665400Y379400D02*
Y378800D01*
X666600D01*
Y379400D01*
X667200D01*
Y380600D01*
X666600D01*
Y381200D01*
X665400D01*
Y380600D01*
X664800D01*
Y379400D01*
X665400D01*
X635000Y349000D02*
Y348000D01*
X637000D01*
Y349000D01*
X638000D01*
Y351000D01*
X637000D01*
Y352000D01*
X635000D01*
Y351000D01*
X634000D01*
Y349000D01*
X635000D01*
X635400Y349400D02*
Y348800D01*
X636600D01*
Y349400D01*
X637200D01*
Y350600D01*
X636600D01*
Y351200D01*
X635400D01*
Y350600D01*
X634800D01*
Y349400D01*
X635400D01*
X615000Y343000D02*
Y342000D01*
X617000D01*
Y343000D01*
X618000D01*
Y345000D01*
X617000D01*
Y346000D01*
X615000D01*
Y345000D01*
X614000D01*
Y343000D01*
X615000D01*
X615400Y343400D02*
Y342800D01*
X616600D01*
Y343400D01*
X617200D01*
Y344600D01*
X616600D01*
Y345200D01*
X615400D01*
Y344600D01*
X614800D01*
Y343400D01*
X615400D01*
X601000Y333000D02*
Y332000D01*
X603000D01*
Y333000D01*
X604000D01*
Y335000D01*
X603000D01*
Y336000D01*
X601000D01*
Y335000D01*
X600000D01*
Y333000D01*
X601000D01*
X601400Y333400D02*
Y332800D01*
X602600D01*
Y333400D01*
X603200D01*
Y334600D01*
X602600D01*
Y335200D01*
X601400D01*
Y334600D01*
X600800D01*
Y333400D01*
X601400D01*
X611000Y317000D02*
Y316000D01*
X613000D01*
Y317000D01*
X614000D01*
Y319000D01*
X613000D01*
Y320000D01*
X611000D01*
Y319000D01*
X610000D01*
Y317000D01*
X611000D01*
X611400Y317400D02*
Y316800D01*
X612600D01*
Y317400D01*
X613200D01*
Y318600D01*
X612600D01*
Y319200D01*
X611400D01*
Y318600D01*
X610800D01*
Y317400D01*
X611400D01*
X645000Y317000D02*
Y316000D01*
X647000D01*
Y317000D01*
X648000D01*
Y319000D01*
X647000D01*
Y320000D01*
X645000D01*
Y319000D01*
X644000D01*
Y317000D01*
X645000D01*
X645400Y317400D02*
Y316800D01*
X646600D01*
Y317400D01*
X647200D01*
Y318600D01*
X646600D01*
Y319200D01*
X645400D01*
Y318600D01*
X644800D01*
Y317400D01*
X645400D01*
X677000Y327000D02*
Y326000D01*
X679000D01*
Y327000D01*
X680000D01*
Y329000D01*
X679000D01*
Y330000D01*
X677000D01*
Y329000D01*
X676000D01*
Y327000D01*
X677000D01*
X677400Y327400D02*
Y326800D01*
X678600D01*
Y327400D01*
X679200D01*
Y328600D01*
X678600D01*
Y329200D01*
X677400D01*
Y328600D01*
X676800D01*
Y327400D01*
X677400D01*
X677000Y307000D02*
Y306000D01*
X679000D01*
Y307000D01*
X680000D01*
Y309000D01*
X679000D01*
Y310000D01*
X677000D01*
Y309000D01*
X676000D01*
Y307000D01*
X677000D01*
X677400Y307400D02*
Y306800D01*
X678600D01*
Y307400D01*
X679200D01*
Y308600D01*
X678600D01*
Y309200D01*
X677400D01*
Y308600D01*
X676800D01*
Y307400D01*
X677400D01*
X635000Y283000D02*
Y282000D01*
X637000D01*
Y283000D01*
X638000D01*
Y285000D01*
X637000D01*
Y286000D01*
X635000D01*
Y285000D01*
X634000D01*
Y283000D01*
X635000D01*
X635400Y283400D02*
Y282800D01*
X636600D01*
Y283400D01*
X637200D01*
Y284600D01*
X636600D01*
Y285200D01*
X635400D01*
Y284600D01*
X634800D01*
Y283400D01*
X635400D01*
X655000Y263000D02*
Y262000D01*
X657000D01*
Y263000D01*
X658000D01*
Y265000D01*
X657000D01*
Y266000D01*
X655000D01*
Y265000D01*
X654000D01*
Y263000D01*
X655000D01*
X655400Y263400D02*
Y262800D01*
X656600D01*
Y263400D01*
X657200D01*
Y264600D01*
X656600D01*
Y265200D01*
X655400D01*
Y264600D01*
X654800D01*
Y263400D01*
X655400D01*
X561000Y249000D02*
Y248000D01*
X563000D01*
Y249000D01*
X564000D01*
Y251000D01*
X563000D01*
Y252000D01*
X561000D01*
Y251000D01*
X560000D01*
Y249000D01*
X561000D01*
X561400Y249400D02*
Y248800D01*
X562600D01*
Y249400D01*
X563200D01*
Y250600D01*
X562600D01*
Y251200D01*
X561400D01*
Y250600D01*
X560800D01*
Y249400D01*
X561400D01*
X533000Y271000D02*
Y270000D01*
X535000D01*
Y271000D01*
X536000D01*
Y273000D01*
X535000D01*
Y274000D01*
X533000D01*
Y273000D01*
X532000D01*
Y271000D01*
X533000D01*
X533400Y271400D02*
Y270800D01*
X534600D01*
Y271400D01*
X535200D01*
Y272600D01*
X534600D01*
Y273200D01*
X533400D01*
Y272600D01*
X532800D01*
Y271400D01*
X533400D01*
X497000Y251000D02*
Y250000D01*
X499000D01*
Y251000D01*
X500000D01*
Y253000D01*
X499000D01*
Y254000D01*
X497000D01*
Y253000D01*
X496000D01*
Y251000D01*
X497000D01*
X497400Y251400D02*
Y250800D01*
X498600D01*
Y251400D01*
X499200D01*
Y252600D01*
X498600D01*
Y253200D01*
X497400D01*
Y252600D01*
X496800D01*
Y251400D01*
X497400D01*
X497000Y275000D02*
Y274000D01*
X499000D01*
Y275000D01*
X500000D01*
Y277000D01*
X499000D01*
Y278000D01*
X497000D01*
Y277000D01*
X496000D01*
Y275000D01*
X497000D01*
X497400Y275400D02*
Y274800D01*
X498600D01*
Y275400D01*
X499200D01*
Y276600D01*
X498600D01*
Y277200D01*
X497400D01*
Y276600D01*
X496800D01*
Y275400D01*
X497400D01*
X477000Y263000D02*
Y262000D01*
X479000D01*
Y263000D01*
X480000D01*
Y265000D01*
X479000D01*
Y266000D01*
X477000D01*
Y265000D01*
X476000D01*
Y263000D01*
X477000D01*
X477400Y263400D02*
Y262800D01*
X478600D01*
Y263400D01*
X479200D01*
Y264600D01*
X478600D01*
Y265200D01*
X477400D01*
Y264600D01*
X476800D01*
Y263400D01*
X477400D01*
X439000Y299000D02*
Y298000D01*
X441000D01*
Y299000D01*
X442000D01*
Y301000D01*
X441000D01*
Y302000D01*
X439000D01*
Y301000D01*
X438000D01*
Y299000D01*
X439000D01*
X439400Y299400D02*
Y298800D01*
X440600D01*
Y299400D01*
X441200D01*
Y300600D01*
X440600D01*
Y301200D01*
X439400D01*
Y300600D01*
X438800D01*
Y299400D01*
X439400D01*
X439000Y321000D02*
Y320000D01*
X441000D01*
Y321000D01*
X442000D01*
Y323000D01*
X441000D01*
Y324000D01*
X439000D01*
Y323000D01*
X438000D01*
Y321000D01*
X439000D01*
X439400Y321400D02*
Y320800D01*
X440600D01*
Y321400D01*
X441200D01*
Y322600D01*
X440600D01*
Y323200D01*
X439400D01*
Y322600D01*
X438800D01*
Y321400D01*
X439400D01*
X469000Y339000D02*
Y338000D01*
X471000D01*
Y339000D01*
X472000D01*
Y341000D01*
X471000D01*
Y342000D01*
X469000D01*
Y341000D01*
X468000D01*
Y339000D01*
X469000D01*
X469400Y339400D02*
Y338800D01*
X470600D01*
Y339400D01*
X471200D01*
Y340600D01*
X470600D01*
Y341200D01*
X469400D01*
Y340600D01*
X468800D01*
Y339400D01*
X469400D01*
X449000Y339000D02*
Y338000D01*
X451000D01*
Y339000D01*
X452000D01*
Y341000D01*
X451000D01*
Y342000D01*
X449000D01*
Y341000D01*
X448000D01*
Y339000D01*
X449000D01*
X449400Y339400D02*
Y338800D01*
X450600D01*
Y339400D01*
X451200D01*
Y340600D01*
X450600D01*
Y341200D01*
X449400D01*
Y340600D01*
X448800D01*
Y339400D01*
X449400D01*
X449000Y363000D02*
Y362000D01*
X451000D01*
Y363000D01*
X452000D01*
Y365000D01*
X451000D01*
Y366000D01*
X449000D01*
Y365000D01*
X448000D01*
Y363000D01*
X449000D01*
X449400Y363400D02*
Y362800D01*
X450600D01*
Y363400D01*
X451200D01*
Y364600D01*
X450600D01*
Y365200D01*
X449400D01*
Y364600D01*
X448800D01*
Y363400D01*
X449400D01*
X481000Y363000D02*
Y362000D01*
X483000D01*
Y363000D01*
X484000D01*
Y365000D01*
X483000D01*
Y366000D01*
X481000D01*
Y365000D01*
X480000D01*
Y363000D01*
X481000D01*
X481400Y363400D02*
Y362800D01*
X482600D01*
Y363400D01*
X483200D01*
Y364600D01*
X482600D01*
Y365200D01*
X481400D01*
Y364600D01*
X480800D01*
Y363400D01*
X481400D01*
X575000Y281998D02*
Y277000D01*
X577499D01*
X578332Y277833D01*
Y278666D01*
X577499Y279499D01*
X575000D01*
X577499D01*
X578332Y280332D01*
Y281165D01*
X577499Y281998D01*
X575000D01*
X588500Y282998D02*
Y278000D01*
X590999D01*
X591832Y278833D01*
Y279666D01*
X590999Y280499D01*
X588500D01*
X590999D01*
X591832Y281332D01*
Y282165D01*
X590999Y282998D01*
X588500D01*
X198685Y181315D02*
Y184647D01*
X200351Y186313D01*
X202017Y184647D01*
Y181315D01*
Y183814D01*
X198685D01*
X585000Y324000D02*
X586000D01*
X587000Y325000D01*
X588000Y324000D01*
X589000D01*
Y325000D01*
X588000Y326000D01*
X589000Y327000D01*
Y328000D01*
X588000D01*
X587000Y327000D01*
X586000Y328000D01*
X585000D01*
Y327000D01*
X586000Y326000D01*
X585000Y325000D01*
Y324000D01*
X585800Y324800D02*
X586400D01*
X587000Y325400D01*
X587600Y324800D01*
X588200D01*
Y325400D01*
X587600Y326000D01*
X588200Y326600D01*
Y327200D01*
X587600D01*
X587000Y326600D01*
X586400Y327200D01*
X585800D01*
Y326600D01*
X586400Y326000D01*
X585800Y325400D01*
Y324800D01*
X495000Y160998D02*
Y156000D01*
X497499D01*
X498332Y156833D01*
Y157666D01*
X497499Y158499D01*
X495000D01*
X497499D01*
X498332Y159332D01*
Y160165D01*
X497499Y160998D01*
X495000D01*
X500000Y153998D02*
Y149000D01*
X502499D01*
X503332Y149833D01*
Y150666D01*
X502499Y151499D01*
X500000D01*
X502499D01*
X503332Y152332D01*
Y153165D01*
X502499Y153998D01*
X500000D01*
X606000Y302998D02*
Y298000D01*
X608499D01*
X609332Y298833D01*
Y299666D01*
X608499Y300499D01*
X606000D01*
X608499D01*
X609332Y301332D01*
Y302165D01*
X608499Y302998D01*
X606000D01*
X616998Y305998D02*
Y301000D01*
X619497D01*
X620330Y301833D01*
Y302666D01*
X619497Y303499D01*
X616998D01*
X619497D01*
X620330Y304332D01*
Y305165D01*
X619497Y305998D01*
X616998D01*
X580000Y235998D02*
Y231000D01*
X582499D01*
X583332Y231833D01*
Y232666D01*
X582499Y233499D01*
X580000D01*
X582499D01*
X583332Y234332D01*
Y235165D01*
X582499Y235998D01*
X580000D01*
X586500Y245498D02*
Y240500D01*
X588999D01*
X589832Y241333D01*
Y242166D01*
X588999Y242999D01*
X586500D01*
X588999D01*
X589832Y243832D01*
Y244665D01*
X588999Y245498D01*
X586500D01*
X601000Y249500D02*
X602000D01*
X603000Y250500D01*
X604000Y249500D01*
X605000D01*
Y250500D01*
X604000Y251500D01*
X605000Y252500D01*
Y253500D01*
X604000D01*
X603000Y252500D01*
X602000Y253500D01*
X601000D01*
Y252500D01*
X602000Y251500D01*
X601000Y250500D01*
Y249500D01*
X601800Y250300D02*
X602400D01*
X603000Y250900D01*
X603600Y250300D01*
X604200D01*
Y250900D01*
X603600Y251500D01*
X604200Y252100D01*
Y252700D01*
X603600D01*
X603000Y252100D01*
X602400Y252700D01*
X601800D01*
Y252100D01*
X602400Y251500D01*
X601800Y250900D01*
Y250300D01*
X574000Y253998D02*
Y249000D01*
X576499D01*
X577332Y249833D01*
Y250666D01*
X576499Y251499D01*
X574000D01*
X576499D01*
X577332Y252332D01*
Y253165D01*
X576499Y253998D01*
X574000D01*
X578500Y287998D02*
Y283000D01*
X580999D01*
X581832Y283833D01*
Y284666D01*
X580999Y285499D01*
X578500D01*
X580999D01*
X581832Y286332D01*
Y287165D01*
X580999Y287998D01*
X578500D01*
X586500Y289998D02*
Y285000D01*
X588999D01*
X589832Y285833D01*
Y286666D01*
X588999Y287499D01*
X586500D01*
X588999D01*
X589832Y288332D01*
Y289165D01*
X588999Y289998D01*
X586500D01*
X591000Y278998D02*
Y274000D01*
X593499D01*
X594332Y274833D01*
Y275666D01*
X593499Y276499D01*
X591000D01*
X593499D01*
X594332Y277332D01*
Y278165D01*
X593499Y278998D01*
X591000D01*
X586000Y275624D02*
Y270626D01*
X588499D01*
X589332Y271459D01*
Y272292D01*
X588499Y273125D01*
X586000D01*
X588499D01*
X589332Y273958D01*
Y274791D01*
X588499Y275624D01*
X586000D01*
X577000Y195000D02*
X578000D01*
X579000Y196000D01*
X580000Y195000D01*
X581000D01*
Y196000D01*
X580000Y197000D01*
X581000Y198000D01*
Y199000D01*
X580000D01*
X579000Y198000D01*
X578000Y199000D01*
X577000D01*
Y198000D01*
X578000Y197000D01*
X577000Y196000D01*
Y195000D01*
X577800Y195800D02*
X578400D01*
X579000Y196400D01*
X579600Y195800D01*
X580200D01*
Y196400D01*
X579600Y197000D01*
X580200Y197600D01*
Y198200D01*
X579600D01*
X579000Y197600D01*
X578400Y198200D01*
X577800D01*
Y197600D01*
X578400Y197000D01*
X577800Y196400D01*
Y195800D01*
X122000Y202000D02*
Y205332D01*
X123666Y206998D01*
X125332Y205332D01*
Y202000D01*
Y204499D01*
X122000D01*
X599000Y364998D02*
Y360000D01*
X601499D01*
X602332Y360833D01*
Y361666D01*
X601499Y362499D01*
X599000D01*
X601499D01*
X602332Y363332D01*
Y364165D01*
X601499Y364998D01*
X599000D01*
X604000Y395000D02*
X605000D01*
X606000Y396000D01*
X607000Y395000D01*
X608000D01*
Y396000D01*
X607000Y397000D01*
X608000Y398000D01*
Y399000D01*
X607000D01*
X606000Y398000D01*
X605000Y399000D01*
X604000D01*
Y398000D01*
X605000Y397000D01*
X604000Y396000D01*
Y395000D01*
X604800Y395800D02*
X605400D01*
X606000Y396400D01*
X606600Y395800D01*
X607200D01*
Y396400D01*
X606600Y397000D01*
X607200Y397600D01*
Y398200D01*
X606600D01*
X606000Y397600D01*
X605400Y398200D01*
X604800D01*
Y397600D01*
X605400Y397000D01*
X604800Y396400D01*
Y395800D01*
X591000Y403998D02*
Y399000D01*
X593499D01*
X594332Y399833D01*
Y400666D01*
X593499Y401499D01*
X591000D01*
X593499D01*
X594332Y402332D01*
Y403165D01*
X593499Y403998D01*
X591000D01*
X480000Y328000D02*
X481000D01*
X482000Y329000D01*
X483000Y328000D01*
X484000D01*
Y329000D01*
X483000Y330000D01*
X484000Y331000D01*
Y332000D01*
X483000D01*
X482000Y331000D01*
X481000Y332000D01*
X480000D01*
Y331000D01*
X481000Y330000D01*
X480000Y329000D01*
Y328000D01*
X480800Y328800D02*
X481400D01*
X482000Y329400D01*
X482600Y328800D01*
X483200D01*
Y329400D01*
X482600Y330000D01*
X483200Y330600D01*
Y331200D01*
X482600D01*
X482000Y330600D01*
X481400Y331200D01*
X480800D01*
Y330600D01*
X481400Y330000D01*
X480800Y329400D01*
Y328800D01*
X475000Y286000D02*
X476000D01*
X477000Y287000D01*
X478000Y286000D01*
X479000D01*
Y287000D01*
X478000Y288000D01*
X479000Y289000D01*
Y290000D01*
X478000D01*
X477000Y289000D01*
X476000Y290000D01*
X475000D01*
Y289000D01*
X476000Y288000D01*
X475000Y287000D01*
Y286000D01*
X475800Y286800D02*
X476400D01*
X477000Y287400D01*
X477600Y286800D01*
X478200D01*
Y287400D01*
X477600Y288000D01*
X478200Y288600D01*
Y289200D01*
X477600D01*
X477000Y288600D01*
X476400Y289200D01*
X475800D01*
Y288600D01*
X476400Y288000D01*
X475800Y287400D01*
Y286800D01*
X590000Y235998D02*
Y231000D01*
X592499D01*
X593332Y231833D01*
Y232666D01*
X592499Y233499D01*
X590000D01*
X592499D01*
X593332Y234332D01*
Y235165D01*
X592499Y235998D01*
X590000D01*
X165000Y117000D02*
X166000D01*
X167000Y118000D01*
X168000Y117000D01*
X169000D01*
Y118000D01*
X168000Y119000D01*
X169000Y120000D01*
Y121000D01*
X168000D01*
X167000Y120000D01*
X166000Y121000D01*
X165000D01*
Y120000D01*
X166000Y119000D01*
X165000Y118000D01*
Y117000D01*
X165800Y117800D02*
X166400D01*
X167000Y118400D01*
X167600Y117800D01*
X168200D01*
Y118400D01*
X167600Y119000D01*
X168200Y119600D01*
Y120200D01*
X167600D01*
X167000Y119600D01*
X166400Y120200D01*
X165800D01*
Y119600D01*
X166400Y119000D01*
X165800Y118400D01*
Y117800D01*
X165000Y126000D02*
X166000D01*
X167000Y127000D01*
X168000Y126000D01*
X169000D01*
Y127000D01*
X168000Y128000D01*
X169000Y129000D01*
Y130000D01*
X168000D01*
X167000Y129000D01*
X166000Y130000D01*
X165000D01*
Y129000D01*
X166000Y128000D01*
X165000Y127000D01*
Y126000D01*
X165800Y126800D02*
X166400D01*
X167000Y127400D01*
X167600Y126800D01*
X168200D01*
Y127400D01*
X167600Y128000D01*
X168200Y128600D01*
Y129200D01*
X167600D01*
X167000Y128600D01*
X166400Y129200D01*
X165800D01*
Y128600D01*
X166400Y128000D01*
X165800Y127400D01*
Y126800D01*
X153000Y269000D02*
X154000D01*
X155000Y270000D01*
X156000Y269000D01*
X157000D01*
Y270000D01*
X156000Y271000D01*
X157000Y272000D01*
Y273000D01*
X156000D01*
X155000Y272000D01*
X154000Y273000D01*
X153000D01*
Y272000D01*
X154000Y271000D01*
X153000Y270000D01*
Y269000D01*
X153800Y269800D02*
X154400D01*
X155000Y270400D01*
X155600Y269800D01*
X156200D01*
Y270400D01*
X155600Y271000D01*
X156200Y271600D01*
Y272200D01*
X155600D01*
X155000Y271600D01*
X154400Y272200D01*
X153800D01*
Y271600D01*
X154400Y271000D01*
X153800Y270400D01*
Y269800D01*
X162000Y281000D02*
X163000D01*
X164000Y282000D01*
X165000Y281000D01*
X166000D01*
Y282000D01*
X165000Y283000D01*
X166000Y284000D01*
Y285000D01*
X165000D01*
X164000Y284000D01*
X163000Y285000D01*
X162000D01*
Y284000D01*
X163000Y283000D01*
X162000Y282000D01*
Y281000D01*
X162800Y281800D02*
X163400D01*
X164000Y282400D01*
X164600Y281800D01*
X165200D01*
Y282400D01*
X164600Y283000D01*
X165200Y283600D01*
Y284200D01*
X164600D01*
X164000Y283600D01*
X163400Y284200D01*
X162800D01*
Y283600D01*
X163400Y283000D01*
X162800Y282400D01*
Y281800D01*
X203000Y340000D02*
Y343332D01*
X204666Y344998D01*
X206332Y343332D01*
Y340000D01*
Y342499D01*
X203000D01*
X562000Y349000D02*
X563000D01*
X564000Y350000D01*
X565000Y349000D01*
X566000D01*
Y350000D01*
X565000Y351000D01*
X566000Y352000D01*
Y353000D01*
X565000D01*
X564000Y352000D01*
X563000Y353000D01*
X562000D01*
Y352000D01*
X563000Y351000D01*
X562000Y350000D01*
Y349000D01*
X562800Y349800D02*
X563400D01*
X564000Y350400D01*
X564600Y349800D01*
X565200D01*
Y350400D01*
X564600Y351000D01*
X565200Y351600D01*
Y352200D01*
X564600D01*
X564000Y351600D01*
X563400Y352200D01*
X562800D01*
Y351600D01*
X563400Y351000D01*
X562800Y350400D01*
Y349800D01*
X546000Y353998D02*
Y349000D01*
X548499D01*
X549332Y349833D01*
Y350666D01*
X548499Y351499D01*
X546000D01*
X548499D01*
X549332Y352332D01*
Y353165D01*
X548499Y353998D01*
X546000D01*
X592000Y344000D02*
X593000D01*
X594000Y345000D01*
X595000Y344000D01*
X596000D01*
Y345000D01*
X595000Y346000D01*
X596000Y347000D01*
Y348000D01*
X595000D01*
X594000Y347000D01*
X593000Y348000D01*
X592000D01*
Y347000D01*
X593000Y346000D01*
X592000Y345000D01*
Y344000D01*
X592800Y344800D02*
X593400D01*
X594000Y345400D01*
X594600Y344800D01*
X595200D01*
Y345400D01*
X594600Y346000D01*
X595200Y346600D01*
Y347200D01*
X594600D01*
X594000Y346600D01*
X593400Y347200D01*
X592800D01*
Y346600D01*
X593400Y346000D01*
X592800Y345400D01*
Y344800D01*
X558000Y310000D02*
X559000D01*
X560000Y311000D01*
X561000Y310000D01*
X562000D01*
Y311000D01*
X561000Y312000D01*
X562000Y313000D01*
Y314000D01*
X561000D01*
X560000Y313000D01*
X559000Y314000D01*
X558000D01*
Y313000D01*
X559000Y312000D01*
X558000Y311000D01*
Y310000D01*
X558800Y310800D02*
X559400D01*
X560000Y311400D01*
X560600Y310800D01*
X561200D01*
Y311400D01*
X560600Y312000D01*
X561200Y312600D01*
Y313200D01*
X560600D01*
X560000Y312600D01*
X559400Y313200D01*
X558800D01*
Y312600D01*
X559400Y312000D01*
X558800Y311400D01*
Y310800D01*
X646000Y149000D02*
X647000D01*
X648000Y150000D01*
X649000Y149000D01*
X650000D01*
Y150000D01*
X649000Y151000D01*
X650000Y152000D01*
Y153000D01*
X649000D01*
X648000Y152000D01*
X647000Y153000D01*
X646000D01*
Y152000D01*
X647000Y151000D01*
X646000Y150000D01*
Y149000D01*
X646800Y149800D02*
X647400D01*
X648000Y150400D01*
X648600Y149800D01*
X649200D01*
Y150400D01*
X648600Y151000D01*
X649200Y151600D01*
Y152200D01*
X648600D01*
X648000Y151600D01*
X647400Y152200D01*
X646800D01*
Y151600D01*
X647400Y151000D01*
X646800Y150400D01*
Y149800D01*
X189000Y154000D02*
X190000D01*
X191000Y155000D01*
X192000Y154000D01*
X193000D01*
Y155000D01*
X192000Y156000D01*
X193000Y157000D01*
Y158000D01*
X192000D01*
X191000Y157000D01*
X190000Y158000D01*
X189000D01*
Y157000D01*
X190000Y156000D01*
X189000Y155000D01*
Y154000D01*
X189800Y154800D02*
X190400D01*
X191000Y155400D01*
X191600Y154800D01*
X192200D01*
Y155400D01*
X191600Y156000D01*
X192200Y156600D01*
Y157200D01*
X191600D01*
X191000Y156600D01*
X190400Y157200D01*
X189800D01*
Y156600D01*
X190400Y156000D01*
X189800Y155400D01*
Y154800D01*
X180000Y159000D02*
X181000D01*
X182000Y160000D01*
X183000Y159000D01*
X184000D01*
Y160000D01*
X183000Y161000D01*
X184000Y162000D01*
Y163000D01*
X183000D01*
X182000Y162000D01*
X181000Y163000D01*
X180000D01*
Y162000D01*
X181000Y161000D01*
X180000Y160000D01*
Y159000D01*
X180800Y159800D02*
X181400D01*
X182000Y160400D01*
X182600Y159800D01*
X183200D01*
Y160400D01*
X182600Y161000D01*
X183200Y161600D01*
Y162200D01*
X182600D01*
X182000Y161600D01*
X181400Y162200D01*
X180800D01*
Y161600D01*
X181400Y161000D01*
X180800Y160400D01*
Y159800D01*
X237000Y305000D02*
X238000D01*
X239000Y306000D01*
X240000Y305000D01*
X241000D01*
Y306000D01*
X240000Y307000D01*
X241000Y308000D01*
Y309000D01*
X240000D01*
X239000Y308000D01*
X238000Y309000D01*
X237000D01*
Y308000D01*
X238000Y307000D01*
X237000Y306000D01*
Y305000D01*
X237800Y305800D02*
X238400D01*
X239000Y306400D01*
X239600Y305800D01*
X240200D01*
Y306400D01*
X239600Y307000D01*
X240200Y307600D01*
Y308200D01*
X239600D01*
X239000Y307600D01*
X238400Y308200D01*
X237800D01*
Y307600D01*
X238400Y307000D01*
X237800Y306400D01*
Y305800D01*
X459984Y478984D02*
X460984D01*
X461984Y479984D01*
X462984Y478984D01*
X463984D01*
Y479984D01*
X462984Y480984D01*
X463984Y481984D01*
Y482984D01*
X462984D01*
X461984Y481984D01*
X460984Y482984D01*
X459984D01*
Y481984D01*
X460984Y480984D01*
X459984Y479984D01*
Y478984D01*
X460784Y479784D02*
X461384D01*
X461984Y480384D01*
X462584Y479784D01*
X463184D01*
Y480384D01*
X462584Y480984D01*
X463184Y481584D01*
Y482184D01*
X462584D01*
X461984Y481584D01*
X461384Y482184D01*
X460784D01*
Y481584D01*
X461384Y480984D01*
X460784Y480384D01*
Y479784D01*
X469000Y407000D02*
X470000D01*
X471000Y408000D01*
X472000Y407000D01*
X473000D01*
Y408000D01*
X472000Y409000D01*
X473000Y410000D01*
Y411000D01*
X472000D01*
X471000Y410000D01*
X470000Y411000D01*
X469000D01*
Y410000D01*
X470000Y409000D01*
X469000Y408000D01*
Y407000D01*
X469800Y407800D02*
X470400D01*
X471000Y408400D01*
X471600Y407800D01*
X472200D01*
Y408400D01*
X471600Y409000D01*
X472200Y409600D01*
Y410200D01*
X471600D01*
X471000Y409600D01*
X470400Y410200D01*
X469800D01*
Y409600D01*
X470400Y409000D01*
X469800Y408400D01*
Y407800D01*
X501000Y375000D02*
X502000D01*
X503000Y376000D01*
X504000Y375000D01*
X505000D01*
Y376000D01*
X504000Y377000D01*
X505000Y378000D01*
Y379000D01*
X504000D01*
X503000Y378000D01*
X502000Y379000D01*
X501000D01*
Y378000D01*
X502000Y377000D01*
X501000Y376000D01*
Y375000D01*
X501800Y375800D02*
X502400D01*
X503000Y376400D01*
X503600Y375800D01*
X504200D01*
Y376400D01*
X503600Y377000D01*
X504200Y377600D01*
Y378200D01*
X503600D01*
X503000Y377600D01*
X502400Y378200D01*
X501800D01*
Y377600D01*
X502400Y377000D01*
X501800Y376400D01*
Y375800D01*
X508828Y310828D02*
X509828D01*
X510828Y311828D01*
X511828Y310828D01*
X512828D01*
Y311828D01*
X511828Y312828D01*
X512828Y313828D01*
Y314828D01*
X511828D01*
X510828Y313828D01*
X509828Y314828D01*
X508828D01*
Y313828D01*
X509828Y312828D01*
X508828Y311828D01*
Y310828D01*
X509628Y311628D02*
X510228D01*
X510828Y312228D01*
X511428Y311628D01*
X512028D01*
Y312228D01*
X511428Y312828D01*
X512028Y313428D01*
Y314028D01*
X511428D01*
X510828Y313428D01*
X510228Y314028D01*
X509628D01*
Y313428D01*
X510228Y312828D01*
X509628Y312228D01*
Y311628D01*
X262893Y290106D02*
Y285107D01*
X265392D01*
X266225Y285941D01*
Y286774D01*
X265392Y287607D01*
X262893D01*
X265392D01*
X266225Y288440D01*
Y289273D01*
X265392Y290106D01*
X262893D01*
X375000Y383000D02*
X376000D01*
X377000Y384000D01*
X378000Y383000D01*
X379000D01*
Y384000D01*
X378000Y385000D01*
X379000Y386000D01*
Y387000D01*
X378000D01*
X377000Y386000D01*
X376000Y387000D01*
X375000D01*
Y386000D01*
X376000Y385000D01*
X375000Y384000D01*
Y383000D01*
X375800Y383800D02*
X376400D01*
X377000Y384400D01*
X377600Y383800D01*
X378200D01*
Y384400D01*
X377600Y385000D01*
X378200Y385600D01*
Y386200D01*
X377600D01*
X377000Y385600D01*
X376400Y386200D01*
X375800D01*
Y385600D01*
X376400Y385000D01*
X375800Y384400D01*
Y383800D01*
X591000Y321000D02*
X592000D01*
X593000Y322000D01*
X594000Y321000D01*
X595000D01*
Y322000D01*
X594000Y323000D01*
X595000Y324000D01*
Y325000D01*
X594000D01*
X593000Y324000D01*
X592000Y325000D01*
X591000D01*
Y324000D01*
X592000Y323000D01*
X591000Y322000D01*
Y321000D01*
X591800Y321800D02*
X592400D01*
X593000Y322400D01*
X593600Y321800D01*
X594200D01*
Y322400D01*
X593600Y323000D01*
X594200Y323600D01*
Y324200D01*
X593600D01*
X593000Y323600D01*
X592400Y324200D01*
X591800D01*
Y323600D01*
X592400Y323000D01*
X591800Y322400D01*
Y321800D01*
X579000Y256089D02*
Y251091D01*
X581499D01*
X582332Y251924D01*
Y252757D01*
X581499Y253590D01*
X579000D01*
X581499D01*
X582332Y254423D01*
Y255256D01*
X581499Y256089D01*
X579000D01*
X621248Y359099D02*
X622248D01*
X623248Y360099D01*
X624248Y359099D01*
X625248D01*
Y360099D01*
X624248Y361099D01*
X625248Y362099D01*
Y363099D01*
X624248D01*
X623248Y362099D01*
X622248Y363099D01*
X621248D01*
Y362099D01*
X622248Y361099D01*
X621248Y360099D01*
Y359099D01*
X622048Y359899D02*
X622648D01*
X623248Y360499D01*
X623848Y359899D01*
X624448D01*
Y360499D01*
X623848Y361099D01*
X624448Y361699D01*
Y362299D01*
X623848D01*
X623248Y361699D01*
X622648Y362299D01*
X622048D01*
Y361699D01*
X622648Y361099D01*
X622048Y360499D01*
Y359899D01*
X560000Y322000D02*
X561000D01*
X562000Y323000D01*
X563000Y322000D01*
X564000D01*
Y323000D01*
X563000Y324000D01*
X564000Y325000D01*
Y326000D01*
X563000D01*
X562000Y325000D01*
X561000Y326000D01*
X560000D01*
Y325000D01*
X561000Y324000D01*
X560000Y323000D01*
Y322000D01*
X560800Y322800D02*
X561400D01*
X562000Y323400D01*
X562600Y322800D01*
X563200D01*
Y323400D01*
X562600Y324000D01*
X563200Y324600D01*
Y325200D01*
X562600D01*
X562000Y324600D01*
X561400Y325200D01*
X560800D01*
Y324600D01*
X561400Y324000D01*
X560800Y323400D01*
Y322800D01*
X520000Y259000D02*
X521000D01*
X522000Y260000D01*
X523000Y259000D01*
X524000D01*
Y260000D01*
X523000Y261000D01*
X524000Y262000D01*
Y263000D01*
X523000D01*
X522000Y262000D01*
X521000Y263000D01*
X520000D01*
Y262000D01*
X521000Y261000D01*
X520000Y260000D01*
Y259000D01*
X520800Y259800D02*
X521400D01*
X522000Y260400D01*
X522600Y259800D01*
X523200D01*
Y260400D01*
X522600Y261000D01*
X523200Y261600D01*
Y262200D01*
X522600D01*
X522000Y261600D01*
X521400Y262200D01*
X520800D01*
Y261600D01*
X521400Y261000D01*
X520800Y260400D01*
Y259800D01*
X598307Y145693D02*
X599307D01*
X600307Y146693D01*
X601307Y145693D01*
X602307D01*
Y146693D01*
X601307Y147693D01*
X602307Y148693D01*
Y149693D01*
X601307D01*
X600307Y148693D01*
X599307Y149693D01*
X598307D01*
Y148693D01*
X599307Y147693D01*
X598307Y146693D01*
Y145693D01*
X599107Y146493D02*
X599707D01*
X600307Y147093D01*
X600907Y146493D01*
X601507D01*
Y147093D01*
X600907Y147693D01*
X601507Y148293D01*
Y148893D01*
X600907D01*
X600307Y148293D01*
X599707Y148893D01*
X599107D01*
Y148293D01*
X599707Y147693D01*
X599107Y147093D01*
Y146493D01*
X602828Y210828D02*
X603828D01*
X604828Y211828D01*
X605828Y210828D01*
X606828D01*
Y211828D01*
X605828Y212828D01*
X606828Y213828D01*
Y214828D01*
X605828D01*
X604828Y213828D01*
X603828Y214828D01*
X602828D01*
Y213828D01*
X603828Y212828D01*
X602828Y211828D01*
Y210828D01*
X603628Y211628D02*
X604228D01*
X604828Y212228D01*
X605428Y211628D01*
X606028D01*
Y212228D01*
X605428Y212828D01*
X606028Y213428D01*
Y214028D01*
X605428D01*
X604828Y213428D01*
X604228Y214028D01*
X603628D01*
Y213428D01*
X604228Y212828D01*
X603628Y212228D01*
Y211628D01*
X487000Y170000D02*
X488000D01*
X489000Y171000D01*
X490000Y170000D01*
X491000D01*
Y171000D01*
X490000Y172000D01*
X491000Y173000D01*
Y174000D01*
X490000D01*
X489000Y173000D01*
X488000Y174000D01*
X487000D01*
Y173000D01*
X488000Y172000D01*
X487000Y171000D01*
Y170000D01*
X487800Y170800D02*
X488400D01*
X489000Y171400D01*
X489600Y170800D01*
X490200D01*
Y171400D01*
X489600Y172000D01*
X490200Y172600D01*
Y173200D01*
X489600D01*
X489000Y172600D01*
X488400Y173200D01*
X487800D01*
Y172600D01*
X488400Y172000D01*
X487800Y171400D01*
Y170800D01*
X480000Y170000D02*
X481000D01*
X482000Y171000D01*
X483000Y170000D01*
X484000D01*
Y171000D01*
X483000Y172000D01*
X484000Y173000D01*
Y174000D01*
X483000D01*
X482000Y173000D01*
X481000Y174000D01*
X480000D01*
Y173000D01*
X481000Y172000D01*
X480000Y171000D01*
Y170000D01*
X480800Y170800D02*
X481400D01*
X482000Y171400D01*
X482600Y170800D01*
X483200D01*
Y171400D01*
X482600Y172000D01*
X483200Y172600D01*
Y173200D01*
X482600D01*
X482000Y172600D01*
X481400Y173200D01*
X480800D01*
Y172600D01*
X481400Y172000D01*
X480800Y171400D01*
Y170800D01*
X462172Y159828D02*
X463172D01*
X464172Y160828D01*
X465172Y159828D01*
X466172D01*
Y160828D01*
X465172Y161828D01*
X466172Y162828D01*
Y163828D01*
X465172D01*
X464172Y162828D01*
X463172Y163828D01*
X462172D01*
Y162828D01*
X463172Y161828D01*
X462172Y160828D01*
Y159828D01*
X462972Y160628D02*
X463572D01*
X464172Y161228D01*
X464772Y160628D01*
X465372D01*
Y161228D01*
X464772Y161828D01*
X465372Y162428D01*
Y163028D01*
X464772D01*
X464172Y162428D01*
X463572Y163028D01*
X462972D01*
Y162428D01*
X463572Y161828D01*
X462972Y161228D01*
Y160628D01*
X456248Y151248D02*
X457248D01*
X458248Y152248D01*
X459248Y151248D01*
X460248D01*
Y152248D01*
X459248Y153248D01*
X460248Y154248D01*
Y155248D01*
X459248D01*
X458248Y154248D01*
X457248Y155248D01*
X456248D01*
Y154248D01*
X457248Y153248D01*
X456248Y152248D01*
Y151248D01*
X457048Y152048D02*
X457648D01*
X458248Y152648D01*
X458848Y152048D01*
X459448D01*
Y152648D01*
X458848Y153248D01*
X459448Y153848D01*
Y154448D01*
X458848D01*
X458248Y153848D01*
X457648Y154448D01*
X457048D01*
Y153848D01*
X457648Y153248D01*
X457048Y152648D01*
Y152048D01*
X469000Y137000D02*
X470000D01*
X471000Y138000D01*
X472000Y137000D01*
X473000D01*
Y138000D01*
X472000Y139000D01*
X473000Y140000D01*
Y141000D01*
X472000D01*
X471000Y140000D01*
X470000Y141000D01*
X469000D01*
Y140000D01*
X470000Y139000D01*
X469000Y138000D01*
Y137000D01*
X469800Y137800D02*
X470400D01*
X471000Y138400D01*
X471600Y137800D01*
X472200D01*
Y138400D01*
X471600Y139000D01*
X472200Y139600D01*
Y140200D01*
X471600D01*
X471000Y139600D01*
X470400Y140200D01*
X469800D01*
Y139600D01*
X470400Y139000D01*
X469800Y138400D01*
Y137800D01*
X567000Y306000D02*
X568000D01*
X569000Y307000D01*
X570000Y306000D01*
X571000D01*
Y307000D01*
X570000Y308000D01*
X571000Y309000D01*
Y310000D01*
X570000D01*
X569000Y309000D01*
X568000Y310000D01*
X567000D01*
Y309000D01*
X568000Y308000D01*
X567000Y307000D01*
Y306000D01*
X567800Y306800D02*
X568400D01*
X569000Y307400D01*
X569600Y306800D01*
X570200D01*
Y307400D01*
X569600Y308000D01*
X570200Y308600D01*
Y309200D01*
X569600D01*
X569000Y308600D01*
X568400Y309200D01*
X567800D01*
Y308600D01*
X568400Y308000D01*
X567800Y307400D01*
Y306800D01*
X469000Y173000D02*
X470000D01*
X471000Y174000D01*
X472000Y173000D01*
X473000D01*
Y174000D01*
X472000Y175000D01*
X473000Y176000D01*
Y177000D01*
X472000D01*
X471000Y176000D01*
X470000Y177000D01*
X469000D01*
Y176000D01*
X470000Y175000D01*
X469000Y174000D01*
Y173000D01*
X469800Y173800D02*
X470400D01*
X471000Y174400D01*
X471600Y173800D01*
X472200D01*
Y174400D01*
X471600Y175000D01*
X472200Y175600D01*
Y176200D01*
X471600D01*
X471000Y175600D01*
X470400Y176200D01*
X469800D01*
Y175600D01*
X470400Y175000D01*
X469800Y174400D01*
Y173800D01*
X493000Y142000D02*
X494000D01*
X495000Y143000D01*
X496000Y142000D01*
X497000D01*
Y143000D01*
X496000Y144000D01*
X497000Y145000D01*
Y146000D01*
X496000D01*
X495000Y145000D01*
X494000Y146000D01*
X493000D01*
Y145000D01*
X494000Y144000D01*
X493000Y143000D01*
Y142000D01*
X493800Y142800D02*
X494400D01*
X495000Y143400D01*
X495600Y142800D01*
X496200D01*
Y143400D01*
X495600Y144000D01*
X496200Y144600D01*
Y145200D01*
X495600D01*
X495000Y144600D01*
X494400Y145200D01*
X493800D01*
Y144600D01*
X494400Y144000D01*
X493800Y143400D01*
Y142800D01*
X212000Y224000D02*
Y227332D01*
X213666Y228998D01*
X215332Y227332D01*
Y224000D01*
Y226499D01*
X212000D01*
X615000Y204000D02*
X616000D01*
X617000Y205000D01*
X618000Y204000D01*
X619000D01*
Y205000D01*
X618000Y206000D01*
X619000Y207000D01*
Y208000D01*
X618000D01*
X617000Y207000D01*
X616000Y208000D01*
X615000D01*
Y207000D01*
X616000Y206000D01*
X615000Y205000D01*
Y204000D01*
X615800Y204800D02*
X616400D01*
X617000Y205400D01*
X617600Y204800D01*
X618200D01*
Y205400D01*
X617600Y206000D01*
X618200Y206600D01*
Y207200D01*
X617600D01*
X617000Y206600D01*
X616400Y207200D01*
X615800D01*
Y206600D01*
X616400Y206000D01*
X615800Y205400D01*
Y204800D01*
X614693Y189307D02*
X615693D01*
X616693Y190307D01*
X617693Y189307D01*
X618693D01*
Y190307D01*
X617693Y191307D01*
X618693Y192307D01*
Y193307D01*
X617693D01*
X616693Y192307D01*
X615693Y193307D01*
X614693D01*
Y192307D01*
X615693Y191307D01*
X614693Y190307D01*
Y189307D01*
X615493Y190107D02*
X616093D01*
X616693Y190707D01*
X617293Y190107D01*
X617893D01*
Y190707D01*
X617293Y191307D01*
X617893Y191907D01*
Y192507D01*
X617293D01*
X616693Y191907D01*
X616093Y192507D01*
X615493D01*
Y191907D01*
X616093Y191307D01*
X615493Y190707D01*
Y190107D01*
X406000Y383000D02*
X407000D01*
X408000Y384000D01*
X409000Y383000D01*
X410000D01*
Y384000D01*
X409000Y385000D01*
X410000Y386000D01*
Y387000D01*
X409000D01*
X408000Y386000D01*
X407000Y387000D01*
X406000D01*
Y386000D01*
X407000Y385000D01*
X406000Y384000D01*
Y383000D01*
X406800Y383800D02*
X407400D01*
X408000Y384400D01*
X408600Y383800D01*
X409200D01*
Y384400D01*
X408600Y385000D01*
X409200Y385600D01*
Y386200D01*
X408600D01*
X408000Y385600D01*
X407400Y386200D01*
X406800D01*
Y385600D01*
X407400Y385000D01*
X406800Y384400D01*
Y383800D01*
X603000Y360998D02*
Y356000D01*
X605499D01*
X606332Y356833D01*
Y357666D01*
X605499Y358499D01*
X603000D01*
X605499D01*
X606332Y359332D01*
Y360165D01*
X605499Y360998D01*
X603000D01*
X542000Y327998D02*
Y323000D01*
X544499D01*
X545332Y323833D01*
Y324666D01*
X544499Y325499D01*
X542000D01*
X544499D01*
X545332Y326332D01*
Y327165D01*
X544499Y327998D01*
X542000D01*
X531000Y330998D02*
Y326000D01*
X533499D01*
X534332Y326833D01*
Y327666D01*
X533499Y328499D01*
X531000D01*
X533499D01*
X534332Y329332D01*
Y330165D01*
X533499Y330998D01*
X531000D01*
X600000Y304000D02*
X601000D01*
X602000Y305000D01*
X603000Y304000D01*
X604000D01*
Y305000D01*
X603000Y306000D01*
X604000Y307000D01*
Y308000D01*
X603000D01*
X602000Y307000D01*
X601000Y308000D01*
X600000D01*
Y307000D01*
X601000Y306000D01*
X600000Y305000D01*
Y304000D01*
X600800Y304800D02*
X601400D01*
X602000Y305400D01*
X602600Y304800D01*
X603200D01*
Y305400D01*
X602600Y306000D01*
X603200Y306600D01*
Y307200D01*
X602600D01*
X602000Y306600D01*
X601400Y307200D01*
X600800D01*
Y306600D01*
X601400Y306000D01*
X600800Y305400D01*
Y304800D01*
X599000Y313000D02*
X600000D01*
X601000Y314000D01*
X602000Y313000D01*
X603000D01*
Y314000D01*
X602000Y315000D01*
X603000Y316000D01*
Y317000D01*
X602000D01*
X601000Y316000D01*
X600000Y317000D01*
X599000D01*
Y316000D01*
X600000Y315000D01*
X599000Y314000D01*
Y313000D01*
X599800Y313800D02*
X600400D01*
X601000Y314400D01*
X601600Y313800D01*
X602200D01*
Y314400D01*
X601600Y315000D01*
X602200Y315600D01*
Y316200D01*
X601600D01*
X601000Y315600D01*
X600400Y316200D01*
X599800D01*
Y315600D01*
X600400Y315000D01*
X599800Y314400D01*
Y313800D01*
X614000Y255000D02*
X615000D01*
X616000Y256000D01*
X617000Y255000D01*
X618000D01*
Y256000D01*
X617000Y257000D01*
X618000Y258000D01*
Y259000D01*
X617000D01*
X616000Y258000D01*
X615000Y259000D01*
X614000D01*
Y258000D01*
X615000Y257000D01*
X614000Y256000D01*
Y255000D01*
X614800Y255800D02*
X615400D01*
X616000Y256400D01*
X616600Y255800D01*
X617200D01*
Y256400D01*
X616600Y257000D01*
X617200Y257600D01*
Y258200D01*
X616600D01*
X616000Y257600D01*
X615400Y258200D01*
X614800D01*
Y257600D01*
X615400Y257000D01*
X614800Y256400D01*
Y255800D01*
X468724Y233724D02*
Y237057D01*
X470391Y238723D01*
X472057Y237057D01*
Y233724D01*
Y236224D01*
X468724D01*
X518000Y306000D02*
X519000D01*
X520000Y307000D01*
X521000Y306000D01*
X522000D01*
Y307000D01*
X521000Y308000D01*
X522000Y309000D01*
Y310000D01*
X521000D01*
X520000Y309000D01*
X519000Y310000D01*
X518000D01*
Y309000D01*
X519000Y308000D01*
X518000Y307000D01*
Y306000D01*
X518800Y306800D02*
X519400D01*
X520000Y307400D01*
X520600Y306800D01*
X521200D01*
Y307400D01*
X520600Y308000D01*
X521200Y308600D01*
Y309200D01*
X520600D01*
X520000Y308600D01*
X519400Y309200D01*
X518800D01*
Y308600D01*
X519400Y308000D01*
X518800Y307400D01*
Y306800D01*
X521000Y318000D02*
X522000D01*
X523000Y319000D01*
X524000Y318000D01*
X525000D01*
Y319000D01*
X524000Y320000D01*
X525000Y321000D01*
Y322000D01*
X524000D01*
X523000Y321000D01*
X522000Y322000D01*
X521000D01*
Y321000D01*
X522000Y320000D01*
X521000Y319000D01*
Y318000D01*
X521800Y318800D02*
X522400D01*
X523000Y319400D01*
X523600Y318800D01*
X524200D01*
Y319400D01*
X523600Y320000D01*
X524200Y320600D01*
Y321200D01*
X523600D01*
X523000Y320600D01*
X522400Y321200D01*
X521800D01*
Y320600D01*
X522400Y320000D01*
X521800Y319400D01*
Y318800D01*
X497000Y339000D02*
X498000D01*
X499000Y340000D01*
X500000Y339000D01*
X501000D01*
Y340000D01*
X500000Y341000D01*
X501000Y342000D01*
Y343000D01*
X500000D01*
X499000Y342000D01*
X498000Y343000D01*
X497000D01*
Y342000D01*
X498000Y341000D01*
X497000Y340000D01*
Y339000D01*
X497800Y339800D02*
X498400D01*
X499000Y340400D01*
X499600Y339800D01*
X500200D01*
Y340400D01*
X499600Y341000D01*
X500200Y341600D01*
Y342200D01*
X499600D01*
X499000Y341600D01*
X498400Y342200D01*
X497800D01*
Y341600D01*
X498400Y341000D01*
X497800Y340400D01*
Y339800D01*
X467000Y350000D02*
X468000D01*
X469000Y351000D01*
X470000Y350000D01*
X471000D01*
Y351000D01*
X470000Y352000D01*
X471000Y353000D01*
Y354000D01*
X470000D01*
X469000Y353000D01*
X468000Y354000D01*
X467000D01*
Y353000D01*
X468000Y352000D01*
X467000Y351000D01*
Y350000D01*
X467800Y350800D02*
X468400D01*
X469000Y351400D01*
X469600Y350800D01*
X470200D01*
Y351400D01*
X469600Y352000D01*
X470200Y352600D01*
Y353200D01*
X469600D01*
X469000Y352600D01*
X468400Y353200D01*
X467800D01*
Y352600D01*
X468400Y352000D01*
X467800Y351400D01*
Y350800D01*
X416000Y464000D02*
X417000D01*
X418000Y465000D01*
X419000Y464000D01*
X420000D01*
Y465000D01*
X419000Y466000D01*
X420000Y467000D01*
Y468000D01*
X419000D01*
X418000Y467000D01*
X417000Y468000D01*
X416000D01*
Y467000D01*
X417000Y466000D01*
X416000Y465000D01*
Y464000D01*
X416800Y464800D02*
X417400D01*
X418000Y465400D01*
X418600Y464800D01*
X419200D01*
Y465400D01*
X418600Y466000D01*
X419200Y466600D01*
Y467200D01*
X418600D01*
X418000Y466600D01*
X417400Y467200D01*
X416800D01*
Y466600D01*
X417400Y466000D01*
X416800Y465400D01*
Y464800D01*
X574000Y373000D02*
X575000D01*
X576000Y374000D01*
X577000Y373000D01*
X578000D01*
Y374000D01*
X577000Y375000D01*
X578000Y376000D01*
Y377000D01*
X577000D01*
X576000Y376000D01*
X575000Y377000D01*
X574000D01*
Y376000D01*
X575000Y375000D01*
X574000Y374000D01*
Y373000D01*
X574800Y373800D02*
X575400D01*
X576000Y374400D01*
X576600Y373800D01*
X577200D01*
Y374400D01*
X576600Y375000D01*
X577200Y375600D01*
Y376200D01*
X576600D01*
X576000Y375600D01*
X575400Y376200D01*
X574800D01*
Y375600D01*
X575400Y375000D01*
X574800Y374400D01*
Y373800D01*
X574000Y365000D02*
X575000D01*
X576000Y366000D01*
X577000Y365000D01*
X578000D01*
Y366000D01*
X577000Y367000D01*
X578000Y368000D01*
Y369000D01*
X577000D01*
X576000Y368000D01*
X575000Y369000D01*
X574000D01*
Y368000D01*
X575000Y367000D01*
X574000Y366000D01*
Y365000D01*
X574800Y365800D02*
X575400D01*
X576000Y366400D01*
X576600Y365800D01*
X577200D01*
Y366400D01*
X576600Y367000D01*
X577200Y367600D01*
Y368200D01*
X576600D01*
X576000Y367600D01*
X575400Y368200D01*
X574800D01*
Y367600D01*
X575400Y367000D01*
X574800Y366400D01*
Y365800D01*
X592134Y487134D02*
X593134D01*
X594134Y488134D01*
X595134Y487134D01*
X596134D01*
Y488134D01*
X595134Y489134D01*
X596134Y490134D01*
Y491134D01*
X595134D01*
X594134Y490134D01*
X593134Y491134D01*
X592134D01*
Y490134D01*
X593134Y489134D01*
X592134Y488134D01*
Y487134D01*
X592934Y487934D02*
X593534D01*
X594134Y488534D01*
X594734Y487934D01*
X595334D01*
Y488534D01*
X594734Y489134D01*
X595334Y489734D01*
Y490334D01*
X594734D01*
X594134Y489734D01*
X593534Y490334D01*
X592934D01*
Y489734D01*
X593534Y489134D01*
X592934Y488534D01*
Y487934D01*
X629000Y388000D02*
X630000D01*
X631000Y389000D01*
X632000Y388000D01*
X633000D01*
Y389000D01*
X632000Y390000D01*
X633000Y391000D01*
Y392000D01*
X632000D01*
X631000Y391000D01*
X630000Y392000D01*
X629000D01*
Y391000D01*
X630000Y390000D01*
X629000Y389000D01*
Y388000D01*
X629800Y388800D02*
X630400D01*
X631000Y389400D01*
X631600Y388800D01*
X632200D01*
Y389400D01*
X631600Y390000D01*
X632200Y390600D01*
Y391200D01*
X631600D01*
X631000Y390600D01*
X630400Y391200D01*
X629800D01*
Y390600D01*
X630400Y390000D01*
X629800Y389400D01*
Y388800D01*
X677307Y344307D02*
X678307D01*
X679307Y345307D01*
X680307Y344307D01*
X681307D01*
Y345307D01*
X680307Y346307D01*
X681307Y347307D01*
Y348307D01*
X680307D01*
X679307Y347307D01*
X678307Y348307D01*
X677307D01*
Y347307D01*
X678307Y346307D01*
X677307Y345307D01*
Y344307D01*
X678107Y345107D02*
X678707D01*
X679307Y345707D01*
X679907Y345107D01*
X680507D01*
Y345707D01*
X679907Y346307D01*
X680507Y346907D01*
Y347507D01*
X679907D01*
X679307Y346907D01*
X678707Y347507D01*
X678107D01*
Y346907D01*
X678707Y346307D01*
X678107Y345707D01*
Y345107D01*
X640000Y295000D02*
X641000D01*
X642000Y296000D01*
X643000Y295000D01*
X644000D01*
Y296000D01*
X643000Y297000D01*
X644000Y298000D01*
Y299000D01*
X643000D01*
X642000Y298000D01*
X641000Y299000D01*
X640000D01*
Y298000D01*
X641000Y297000D01*
X640000Y296000D01*
Y295000D01*
X640800Y295800D02*
X641400D01*
X642000Y296400D01*
X642600Y295800D01*
X643200D01*
Y296400D01*
X642600Y297000D01*
X643200Y297600D01*
Y298200D01*
X642600D01*
X642000Y297600D01*
X641400Y298200D01*
X640800D01*
Y297600D01*
X641400Y297000D01*
X640800Y296400D01*
Y295800D01*
X677307Y290693D02*
X678307D01*
X679307Y291693D01*
X680307Y290693D01*
X681307D01*
Y291693D01*
X680307Y292693D01*
X681307Y293693D01*
Y294693D01*
X680307D01*
X679307Y293693D01*
X678307Y294693D01*
X677307D01*
Y293693D01*
X678307Y292693D01*
X677307Y291693D01*
Y290693D01*
X678107Y291493D02*
X678707D01*
X679307Y292093D01*
X679907Y291493D01*
X680507D01*
Y292093D01*
X679907Y292693D01*
X680507Y293293D01*
Y293893D01*
X679907D01*
X679307Y293293D01*
X678707Y293893D01*
X678107D01*
Y293293D01*
X678707Y292693D01*
X678107Y292093D01*
Y291493D01*
X684000Y215000D02*
X685000D01*
X686000Y216000D01*
X687000Y215000D01*
X688000D01*
Y216000D01*
X687000Y217000D01*
X688000Y218000D01*
Y219000D01*
X687000D01*
X686000Y218000D01*
X685000Y219000D01*
X684000D01*
Y218000D01*
X685000Y217000D01*
X684000Y216000D01*
Y215000D01*
X684800Y215800D02*
X685400D01*
X686000Y216400D01*
X686600Y215800D01*
X687200D01*
Y216400D01*
X686600Y217000D01*
X687200Y217600D01*
Y218200D01*
X686600D01*
X686000Y217600D01*
X685400Y218200D01*
X684800D01*
Y217600D01*
X685400Y217000D01*
X684800Y216400D01*
Y215800D01*
X646000Y190000D02*
X647000D01*
X648000Y191000D01*
X649000Y190000D01*
X650000D01*
Y191000D01*
X649000Y192000D01*
X650000Y193000D01*
Y194000D01*
X649000D01*
X648000Y193000D01*
X647000Y194000D01*
X646000D01*
Y193000D01*
X647000Y192000D01*
X646000Y191000D01*
Y190000D01*
X646800Y190800D02*
X647400D01*
X648000Y191400D01*
X648600Y190800D01*
X649200D01*
Y191400D01*
X648600Y192000D01*
X649200Y192600D01*
Y193200D01*
X648600D01*
X648000Y192600D01*
X647400Y193200D01*
X646800D01*
Y192600D01*
X647400Y192000D01*
X646800Y191400D01*
Y190800D01*
X158000Y142000D02*
X159000D01*
X160000Y143000D01*
X161000Y142000D01*
X162000D01*
Y143000D01*
X161000Y144000D01*
X162000Y145000D01*
Y146000D01*
X161000D01*
X160000Y145000D01*
X159000Y146000D01*
X158000D01*
Y145000D01*
X159000Y144000D01*
X158000Y143000D01*
Y142000D01*
X158800Y142800D02*
X159400D01*
X160000Y143400D01*
X160600Y142800D01*
X161200D01*
Y143400D01*
X160600Y144000D01*
X161200Y144600D01*
Y145200D01*
X160600D01*
X160000Y144600D01*
X159400Y145200D01*
X158800D01*
Y144600D01*
X159400Y144000D01*
X158800Y143400D01*
Y142800D01*
X136000Y166000D02*
X137000D01*
X138000Y167000D01*
X139000Y166000D01*
X140000D01*
Y167000D01*
X139000Y168000D01*
X140000Y169000D01*
Y170000D01*
X139000D01*
X138000Y169000D01*
X137000Y170000D01*
X136000D01*
Y169000D01*
X137000Y168000D01*
X136000Y167000D01*
Y166000D01*
X136800Y166800D02*
X137400D01*
X138000Y167400D01*
X138600Y166800D01*
X139200D01*
Y167400D01*
X138600Y168000D01*
X139200Y168600D01*
Y169200D01*
X138600D01*
X138000Y168600D01*
X137400Y169200D01*
X136800D01*
Y168600D01*
X137400Y168000D01*
X136800Y167400D01*
Y166800D01*
X124158Y237842D02*
Y241175D01*
X125824Y242841D01*
X127490Y241175D01*
Y237842D01*
Y240342D01*
X124158D01*
X168000Y231000D02*
X169000D01*
X170000Y232000D01*
X171000Y231000D01*
X172000D01*
Y232000D01*
X171000Y233000D01*
X172000Y234000D01*
Y235000D01*
X171000D01*
X170000Y234000D01*
X169000Y235000D01*
X168000D01*
Y234000D01*
X169000Y233000D01*
X168000Y232000D01*
Y231000D01*
X168800Y231800D02*
X169400D01*
X170000Y232400D01*
X170600Y231800D01*
X171200D01*
Y232400D01*
X170600Y233000D01*
X171200Y233600D01*
Y234200D01*
X170600D01*
X170000Y233600D01*
X169400Y234200D01*
X168800D01*
Y233600D01*
X169400Y233000D01*
X168800Y232400D01*
Y231800D01*
X169000Y256000D02*
Y259332D01*
X170666Y260998D01*
X172332Y259332D01*
Y256000D01*
Y258499D01*
X169000D01*
X197000Y313000D02*
Y316332D01*
X198666Y317998D01*
X200332Y316332D01*
Y313000D01*
Y315499D01*
X197000D01*
X209000Y409000D02*
X210000D01*
X211000Y410000D01*
X212000Y409000D01*
X213000D01*
Y410000D01*
X212000Y411000D01*
X213000Y412000D01*
Y413000D01*
X212000D01*
X211000Y412000D01*
X210000Y413000D01*
X209000D01*
Y412000D01*
X210000Y411000D01*
X209000Y410000D01*
Y409000D01*
X209800Y409800D02*
X210400D01*
X211000Y410400D01*
X211600Y409800D01*
X212200D01*
Y410400D01*
X211600Y411000D01*
X212200Y411600D01*
Y412200D01*
X211600D01*
X211000Y411600D01*
X210400Y412200D01*
X209800D01*
Y411600D01*
X210400Y411000D01*
X209800Y410400D01*
Y409800D01*
X175000Y467000D02*
Y470332D01*
X176666Y471998D01*
X178332Y470332D01*
Y467000D01*
Y469499D01*
X175000D01*
X626000Y280998D02*
Y276000D01*
X628499D01*
X629332Y276833D01*
Y277666D01*
X628499Y278499D01*
X626000D01*
X628499D01*
X629332Y279332D01*
Y280165D01*
X628499Y280998D01*
X626000D01*
X554090Y296998D02*
Y292000D01*
X556590D01*
X557423Y292833D01*
Y293666D01*
X556590Y294499D01*
X554090D01*
X556590D01*
X557423Y295332D01*
Y296165D01*
X556590Y296998D01*
X554090D01*
X590126Y272124D02*
Y267126D01*
X592625D01*
X593458Y267959D01*
Y268792D01*
X592625Y269625D01*
X590126D01*
X592625D01*
X593458Y270458D01*
Y271291D01*
X592625Y272124D01*
X590126D01*
X653445Y224489D02*
Y219491D01*
X655944D01*
X656777Y220324D01*
Y221157D01*
X655944Y221990D01*
X653445D01*
X655944D01*
X656777Y222823D01*
Y223656D01*
X655944Y224489D01*
X653445D01*
X601634Y295788D02*
Y290790D01*
X604133D01*
X604966Y291622D01*
Y292456D01*
X604133Y293289D01*
X601634D01*
X604133D01*
X604966Y294122D01*
Y294955D01*
X604133Y295788D01*
X601634D01*
X528000Y299998D02*
Y295000D01*
X530499D01*
X531332Y295833D01*
Y296666D01*
X530499Y297499D01*
X528000D01*
X530499D01*
X531332Y298332D01*
Y299165D01*
X530499Y299998D01*
X528000D01*
X599500Y400498D02*
Y395500D01*
X601999D01*
X602832Y396333D01*
Y397166D01*
X601999Y397999D01*
X599500D01*
X601999D01*
X602832Y398832D01*
Y399665D01*
X601999Y400498D01*
X599500D01*
X599000Y459000D02*
X600000Y461000D01*
X599000Y463000D01*
X601000Y462000D01*
X603000Y463000D01*
X602000Y461000D01*
X603000Y459000D01*
X601000Y460000D01*
X599000Y459000D01*
X599800Y459800D02*
X600400Y461000D01*
X599800Y462200D01*
X601000Y461600D01*
X602200Y462200D01*
X601600Y461000D01*
X602200Y459800D01*
X601000Y460400D01*
X599800Y459800D01*
D116*
X403071Y375000D02*
G03*
X403071Y375000I-2000J0D01*
G01*
X386929D02*
G03*
X386929Y375000I-2000J0D01*
G01*
X174181Y396921D02*
G03*
X174181Y396921I-2000J0D01*
G01*
Y387079D02*
G03*
X174181Y387079I-2000J0D01*
G01*
X195181Y396921D02*
G03*
X195181Y396921I-2000J0D01*
G01*
Y387079D02*
G03*
X195181Y387079I-2000J0D01*
G01*
D117*
X173381Y396921D02*
G03*
X173381Y396921I-1200J0D01*
G01*
Y387079D02*
G03*
X173381Y387079I-1200J0D01*
G01*
X194381Y396921D02*
G03*
X194381Y396921I-1200J0D01*
G01*
Y387079D02*
G03*
X194381Y387079I-1200J0D01*
G01*
M02*
