G04*
G04 #@! TF.GenerationSoftware,Altium Limited,Altium Designer,24.6.1 (21)*
G04*
G04 Layer_Physical_Order=4*
G04 Layer_Color=16711680*
%FSLAX25Y25*%
%MOIN*%
G70*
G04*
G04 #@! TF.SameCoordinates,65BBE5AF-797C-4DEE-A542-627196F68B12*
G04*
G04*
G04 #@! TF.FilePolarity,Positive*
G04*
G01*
G75*
%ADD12C,0.01000*%
%ADD25R,0.08583X0.06378*%
%ADD26R,0.05315X0.03347*%
%ADD27R,0.03347X0.05315*%
%ADD30R,0.05733X0.05136*%
%ADD31R,0.05136X0.05733*%
%ADD44C,0.05315*%
%ADD45R,0.05315X0.05315*%
%ADD48R,0.06181X0.06181*%
%ADD49C,0.06181*%
%ADD53R,0.05512X0.05512*%
%ADD54C,0.05512*%
%ADD60C,0.10827*%
%ADD61R,0.10827X0.10827*%
%ADD62C,0.10000*%
%ADD63C,0.01500*%
%ADD64C,0.05000*%
%ADD65C,0.02000*%
%ADD66C,0.03500*%
%ADD67C,0.03000*%
%ADD69C,0.04000*%
%ADD72C,0.04598*%
%ADD73R,0.04598X0.04598*%
%ADD74C,0.39370*%
%ADD75R,0.07087X0.07087*%
%ADD76C,0.07087*%
%ADD77R,0.06496X0.06496*%
%ADD78C,0.06496*%
%ADD79C,0.05906*%
%ADD80C,0.19685*%
%ADD81C,0.08858*%
%ADD82C,0.06000*%
%ADD83C,0.03000*%
%ADD84C,0.10000*%
%ADD85C,0.05000*%
G04:AMPARAMS|DCode=87|XSize=17.72mil|YSize=45.28mil|CornerRadius=1.95mil|HoleSize=0mil|Usage=FLASHONLY|Rotation=90.000|XOffset=0mil|YOffset=0mil|HoleType=Round|Shape=RoundedRectangle|*
%AMROUNDEDRECTD87*
21,1,0.01772,0.04138,0,0,90.0*
21,1,0.01382,0.04528,0,0,90.0*
1,1,0.00390,0.02069,0.00691*
1,1,0.00390,0.02069,-0.00691*
1,1,0.00390,-0.02069,-0.00691*
1,1,0.00390,-0.02069,0.00691*
%
%ADD87ROUNDEDRECTD87*%
%ADD88R,0.15158X0.03740*%
%ADD89R,0.33071X0.39764*%
%ADD90R,0.03740X0.15158*%
%ADD91R,0.39764X0.33071*%
%ADD92R,0.03765X0.04749*%
%ADD93R,0.09843X0.08661*%
%ADD94R,0.03150X0.03543*%
%ADD95R,0.03543X0.03150*%
%ADD96R,0.14567X0.09646*%
G04:AMPARAMS|DCode=97|XSize=23.62mil|YSize=39.37mil|CornerRadius=2.01mil|HoleSize=0mil|Usage=FLASHONLY|Rotation=270.000|XOffset=0mil|YOffset=0mil|HoleType=Round|Shape=RoundedRectangle|*
%AMROUNDEDRECTD97*
21,1,0.02362,0.03535,0,0,270.0*
21,1,0.01961,0.03937,0,0,270.0*
1,1,0.00402,-0.01768,-0.00980*
1,1,0.00402,-0.01768,0.00980*
1,1,0.00402,0.01768,0.00980*
1,1,0.00402,0.01768,-0.00980*
%
%ADD97ROUNDEDRECTD97*%
%ADD98O,0.02362X0.07677*%
%ADD99O,0.07677X0.02362*%
%ADD100R,0.05906X0.06693*%
%ADD101C,0.02500*%
%ADD102C,0.07000*%
G36*
X524752Y480523D02*
X523301Y479054D01*
X518521Y473620D01*
X518061Y472916D01*
X517765Y472340D01*
X517634Y471891D01*
X517669Y471570D01*
X512074Y483858D01*
X512245Y483673D01*
X512523Y483634D01*
X512909Y483739D01*
X513403Y483989D01*
X514004Y484385D01*
X514712Y484925D01*
X516452Y486440D01*
X518622Y488535D01*
X524752Y480523D01*
D02*
G37*
G36*
X618262Y483989D02*
X618473Y480839D01*
X618600Y480069D01*
X618755Y479439D01*
X618939Y478949D01*
X619150Y478599D01*
X619389Y478389D01*
X619657Y478319D01*
X609839D01*
X610107Y478389D01*
X610346Y478599D01*
X610558Y478949D01*
X610741Y479439D01*
X610896Y480069D01*
X611023Y480839D01*
X611121Y481749D01*
X611234Y483989D01*
X611248Y485319D01*
X618248D01*
X618262Y483989D01*
D02*
G37*
G36*
X636805Y483403D02*
X636977Y480839D01*
X637104Y480069D01*
X637259Y479439D01*
X637442Y478949D01*
X637654Y478599D01*
X637893Y478389D01*
X638161Y478319D01*
X636870D01*
X636882Y477439D01*
X629622D01*
X629647Y477565D01*
X629669Y477888D01*
X629676Y478319D01*
X628343D01*
X628611Y478389D01*
X628850Y478599D01*
X629061Y478949D01*
X629245Y479439D01*
X629400Y480069D01*
X629527Y480839D01*
X629625Y481749D01*
X629738Y483989D01*
X629745Y484699D01*
X629752Y487571D01*
X636752D01*
X636805Y483403D01*
D02*
G37*
G36*
X464004Y479096D02*
X464064Y478414D01*
X464164Y477812D01*
X464304Y477290D01*
X464484Y476849D01*
X464704Y476488D01*
X464964Y476207D01*
X465264Y476007D01*
X465604Y475886D01*
X465984Y475846D01*
X457984D01*
X458364Y475886D01*
X458704Y476007D01*
X459004Y476207D01*
X459264Y476488D01*
X459484Y476849D01*
X459664Y477290D01*
X459804Y477812D01*
X459904Y478414D01*
X459964Y479096D01*
X459984Y479858D01*
X463984D01*
X464004Y479096D01*
D02*
G37*
G36*
X454418Y472142D02*
X454388Y472210D01*
X454297Y472271D01*
X454147Y472325D01*
X453937Y472371D01*
X453667Y472410D01*
X452948Y472468D01*
X452056Y472486D01*
X451116Y472396D01*
X450726Y472314D01*
X450395Y472210D01*
X450126Y472082D01*
X449916Y471931D01*
X449765Y471757D01*
X449676Y471559D01*
X449646Y471339D01*
Y474661D01*
X449676Y474821D01*
X449765Y474963D01*
X449916Y475089D01*
X450126Y475198D01*
X450395Y475290D01*
X450726Y475366D01*
X451116Y475424D01*
X451417Y475453D01*
Y475500D01*
X451988Y475504D01*
X453937Y475629D01*
X454147Y475675D01*
X454297Y475729D01*
X454388Y475790D01*
X454418Y475858D01*
Y472142D01*
D02*
G37*
G36*
X421354Y467501D02*
X421500Y467500D01*
Y464500D01*
X421218Y464498D01*
X420336Y464437D01*
X420177Y464410D01*
X420043Y464377D01*
X419932Y464340D01*
X419847Y464297D01*
X419785Y464250D01*
Y464507D01*
X418355Y464500D01*
Y467500D01*
X418925Y467504D01*
X419785Y467567D01*
Y467750D01*
X419847Y467702D01*
X419932Y467660D01*
X420043Y467623D01*
X420158Y467595D01*
X420875Y467647D01*
X421084Y467700D01*
X421235Y467762D01*
X421324Y467832D01*
X421354Y467909D01*
Y467501D01*
D02*
G37*
G36*
X429303Y468202D02*
X429645Y468240D01*
Y465240D01*
X429303Y465236D01*
Y465177D01*
X429273Y465189D01*
X429183Y465200D01*
X429033Y465209D01*
X428781Y465212D01*
X427726Y465136D01*
X427395Y465077D01*
X427126Y465005D01*
X426916Y464920D01*
X426765Y464822D01*
X426676Y464711D01*
X426646Y464587D01*
Y465236D01*
X426303Y465240D01*
Y468240D01*
X429303Y468303D01*
Y468202D01*
D02*
G37*
G36*
X443342Y467004D02*
X447000D01*
Y466504D01*
X447500D01*
Y463831D01*
X450000D01*
Y462921D01*
X447500D01*
Y460248D01*
X447000D01*
Y459748D01*
X443342D01*
Y458500D01*
X439000D01*
X437537Y459963D01*
X437728Y460425D01*
X438437D01*
Y463000D01*
Y465575D01*
X437728D01*
X437537Y466037D01*
X439500Y468000D01*
X443342D01*
Y467004D01*
D02*
G37*
G36*
X454418Y452142D02*
X454388Y452163D01*
X454297Y452181D01*
X454147Y452198D01*
X453667Y452224D01*
X452418Y452240D01*
X449646Y452091D01*
Y455413D01*
X449676Y455383D01*
X449765Y455355D01*
X449916Y455331D01*
X450126Y455310D01*
X451116Y455267D01*
X451990Y455258D01*
X453337Y455349D01*
X453667Y455404D01*
X453937Y455470D01*
X454147Y455549D01*
X454297Y455640D01*
X454388Y455743D01*
X454418Y455858D01*
Y452142D01*
D02*
G37*
G36*
X428291Y459760D02*
X431063D01*
Y459260D01*
X431563D01*
Y456685D01*
X432032D01*
X432223Y456223D01*
X430500Y454500D01*
Y453657D01*
X429252D01*
Y450000D01*
X428752D01*
Y449500D01*
X426079D01*
Y447000D01*
X424500D01*
X421000Y450500D01*
Y457079D01*
X423500D01*
Y459752D01*
X424000D01*
Y460252D01*
X427658D01*
Y461500D01*
X428291D01*
Y459760D01*
D02*
G37*
G36*
X436773Y449777D02*
X436709Y449603D01*
X436704Y449398D01*
X436757Y449162D01*
X436870Y448894D01*
X437043Y448596D01*
X437274Y448266D01*
X437565Y447906D01*
X438323Y447091D01*
X436646Y445940D01*
X436246Y446326D01*
X435525Y446935D01*
X435203Y447158D01*
X434907Y447328D01*
X434638Y447443D01*
X434394Y447505D01*
X434176Y447513D01*
X433983Y447467D01*
X433817Y447367D01*
X436897Y449919D01*
X436773Y449777D01*
D02*
G37*
G36*
X195975Y399619D02*
X196125Y399577D01*
X196375Y399541D01*
X196725Y399509D01*
X199125Y399431D01*
X200925Y399421D01*
Y394421D01*
X195925Y394177D01*
Y399665D01*
X195975Y399619D01*
D02*
G37*
G36*
X228142Y391921D02*
X228092Y392396D01*
X227942Y392821D01*
X227691Y393196D01*
X227340Y393521D01*
X226889Y393796D01*
X226338Y394021D01*
X225686Y394196D01*
X224934Y394321D01*
X224082Y394396D01*
X223130Y394421D01*
Y399421D01*
X224082Y399446D01*
X224934Y399521D01*
X225686Y399646D01*
X226338Y399821D01*
X226889Y400046D01*
X227340Y400321D01*
X227691Y400646D01*
X227942Y401021D01*
X228092Y401446D01*
X228142Y401921D01*
Y391921D01*
D02*
G37*
G36*
X241783Y396550D02*
X241877Y396152D01*
X242033Y395726D01*
X242252Y395274D01*
X242533Y394796D01*
X242876Y394291D01*
X243282Y393760D01*
X244280Y392618D01*
X244873Y392007D01*
X244166Y391300D01*
X243555Y391893D01*
X241882Y393297D01*
X241377Y393640D01*
X240899Y393921D01*
X240447Y394140D01*
X240022Y394296D01*
X239623Y394390D01*
X239250Y394421D01*
X241752Y396923D01*
X241783Y396550D01*
D02*
G37*
G36*
X393271Y386752D02*
X393409Y386750D01*
Y383250D01*
X393271Y383248D01*
Y382146D01*
X393236Y382355D01*
X393131Y382543D01*
X392956Y382709D01*
X392711Y382852D01*
X392396Y382974D01*
X392011Y383073D01*
X391599Y383143D01*
X391169Y383107D01*
X390784Y383026D01*
X390469Y382928D01*
X390224Y382811D01*
X390049Y382677D01*
X389944Y382525D01*
X389909Y382354D01*
Y383245D01*
X389772Y383250D01*
Y386750D01*
X389909Y386752D01*
Y387646D01*
X389944Y387475D01*
X390049Y387323D01*
X390224Y387189D01*
X390469Y387072D01*
X390784Y386974D01*
X391169Y386893D01*
X391513Y386846D01*
X391556Y386849D01*
X392011Y386927D01*
X392396Y387026D01*
X392711Y387148D01*
X392956Y387291D01*
X393131Y387457D01*
X393236Y387645D01*
X393271Y387855D01*
Y386752D01*
D02*
G37*
G36*
X406215Y383250D02*
X405972Y383488D01*
X405505Y383888D01*
X405280Y384050D01*
X405061Y384188D01*
X404853Y384297D01*
X404808Y384255D01*
X404757Y384180D01*
X404727Y384095D01*
X404717Y384000D01*
Y384355D01*
X404640Y384387D01*
X404437Y384450D01*
X404241Y384488D01*
X404050Y384500D01*
Y385500D01*
X404241Y385512D01*
X404437Y385550D01*
X404640Y385613D01*
X404717Y385645D01*
Y386000D01*
X404727Y385905D01*
X404757Y385820D01*
X404808Y385745D01*
X404853Y385703D01*
X405061Y385812D01*
X405280Y385950D01*
X405505Y386112D01*
X405736Y386300D01*
X406215Y386750D01*
Y383250D01*
D02*
G37*
G36*
X379028Y386512D02*
X379495Y386112D01*
X379720Y385950D01*
X379939Y385812D01*
X380026Y385767D01*
X380062Y385820D01*
X380093Y385905D01*
X380103Y386000D01*
Y385726D01*
X380153Y385700D01*
X380360Y385613D01*
X380562Y385550D01*
X380759Y385512D01*
X380949Y385500D01*
Y384500D01*
X380759Y384488D01*
X380562Y384450D01*
X380360Y384387D01*
X380153Y384300D01*
X380103Y384274D01*
Y384000D01*
X380093Y384095D01*
X380062Y384180D01*
X380026Y384233D01*
X379939Y384188D01*
X379720Y384050D01*
X379495Y383888D01*
X379264Y383700D01*
X378785Y383250D01*
Y386750D01*
X379028Y386512D01*
D02*
G37*
G36*
X403142Y376697D02*
X403325Y376551D01*
X403517Y376421D01*
X403719Y376310D01*
X403930Y376215D01*
X404151Y376138D01*
X404381Y376077D01*
X404620Y376034D01*
X404814Y376014D01*
X406007Y376000D01*
Y374000D01*
X405347Y373998D01*
X404492Y373943D01*
X404381Y373923D01*
X404151Y373862D01*
X403930Y373785D01*
X403719Y373690D01*
X403517Y373579D01*
X403325Y373449D01*
X403142Y373303D01*
X402969Y373140D01*
Y373845D01*
X402388Y373807D01*
X402308Y373762D01*
Y376238D01*
X402388Y376193D01*
X402532Y376152D01*
X402741Y376117D01*
X402969Y376091D01*
Y376860D01*
X403142Y376697D01*
D02*
G37*
G36*
X399982Y378566D02*
X401004Y377668D01*
X401044Y377657D01*
X398413Y375027D01*
X398403Y375067D01*
X398369Y375127D01*
X398313Y375206D01*
X398235Y375305D01*
X397865Y375717D01*
X397292Y376304D01*
X399767Y378779D01*
X399982Y378566D01*
D02*
G37*
G36*
X597929Y358950D02*
X597819Y359054D01*
X597707Y359148D01*
X597590Y359230D01*
X597471Y359302D01*
X597348Y359363D01*
X597223Y359412D01*
X597093Y359451D01*
X596961Y359478D01*
X596825Y359494D01*
X596686Y359500D01*
Y360500D01*
X596825Y360506D01*
X596961Y360522D01*
X597093Y360549D01*
X597223Y360588D01*
X597348Y360637D01*
X597471Y360698D01*
X597590Y360770D01*
X597707Y360852D01*
X597819Y360946D01*
X597929Y361050D01*
Y358950D01*
D02*
G37*
G36*
X601929Y354950D02*
X601819Y355054D01*
X601707Y355148D01*
X601590Y355230D01*
X601471Y355302D01*
X601348Y355363D01*
X601223Y355412D01*
X601093Y355451D01*
X600961Y355478D01*
X600825Y355494D01*
X600686Y355500D01*
Y356500D01*
X600825Y356505D01*
X600961Y356522D01*
X601093Y356550D01*
X601223Y356588D01*
X601348Y356638D01*
X601471Y356698D01*
X601590Y356769D01*
X601707Y356852D01*
X601819Y356945D01*
X601929Y357050D01*
Y354950D01*
D02*
G37*
G36*
X472091Y353508D02*
X472218Y353502D01*
X472500Y353500D01*
Y350500D01*
X472218Y350498D01*
X472091Y350489D01*
Y349355D01*
X472061Y349572D01*
X471971Y349767D01*
X471821Y349939D01*
X471611Y350088D01*
X471341Y350214D01*
X471011Y350317D01*
X470922Y350335D01*
X470847Y350297D01*
X470785Y350250D01*
Y350363D01*
X470621Y350397D01*
X470171Y350454D01*
X469661Y350488D01*
X469091Y350500D01*
Y353500D01*
X469661Y353512D01*
X470621Y353603D01*
X470785Y353637D01*
Y353750D01*
X470847Y353702D01*
X470922Y353665D01*
X471011Y353683D01*
X471341Y353786D01*
X471611Y353912D01*
X471821Y354061D01*
X471971Y354233D01*
X472061Y354428D01*
X472091Y354645D01*
Y353508D01*
D02*
G37*
G36*
X485339Y349355D02*
X488661D01*
X488631Y349324D01*
X488603Y349235D01*
X488579Y349084D01*
X488558Y348874D01*
X488515Y347884D01*
X488500Y346355D01*
X485500D01*
X485339Y349355D01*
X485309Y349572D01*
X485219Y349767D01*
X485069Y349939D01*
X484859Y350088D01*
X484589Y350214D01*
X484259Y350317D01*
X483869Y350397D01*
X483659Y350424D01*
X483379Y350397D01*
X482989Y350317D01*
X482659Y350214D01*
X482389Y350088D01*
X482179Y349939D01*
X482029Y349767D01*
X481939Y349572D01*
X481909Y349355D01*
Y354645D01*
X481939Y354428D01*
X482029Y354233D01*
X482179Y354061D01*
X482389Y353912D01*
X482659Y353786D01*
X482989Y353683D01*
X483379Y353603D01*
X483589Y353576D01*
X483869Y353603D01*
X484259Y353683D01*
X484589Y353786D01*
X484859Y353912D01*
X485069Y354061D01*
X485219Y354233D01*
X485309Y354428D01*
X485339Y354645D01*
Y349355D01*
D02*
G37*
G36*
X495160Y353442D02*
X495206Y353315D01*
X495281Y353202D01*
X495387Y353105D01*
X495523Y353022D01*
X495690Y352955D01*
X495886Y352902D01*
X496113Y352865D01*
X496370Y352842D01*
X496657Y352835D01*
Y351335D01*
X496370Y351327D01*
X496113Y351305D01*
X495886Y351267D01*
X495690Y351215D01*
X495523Y351147D01*
X495387Y351065D01*
X495281Y350967D01*
X495206Y350855D01*
X495160Y350727D01*
X495145Y350585D01*
Y353585D01*
X495160Y353442D01*
D02*
G37*
G36*
X545985Y350500D02*
X544500Y349015D01*
X544494Y349035D01*
X544475Y349066D01*
X544443Y349108D01*
X544342Y349226D01*
X543987Y349599D01*
X543866Y349720D01*
X545280Y351134D01*
X545985Y350500D01*
D02*
G37*
G36*
X580091Y347528D02*
X580339Y347512D01*
X580909Y347500D01*
Y344500D01*
X580339Y344489D01*
X580091Y344465D01*
Y343355D01*
X583413D01*
X583383Y343324D01*
X583355Y343234D01*
X583331Y343085D01*
X583310Y342875D01*
X583266Y341884D01*
X583260Y341159D01*
X583272Y339335D01*
X578752Y339322D01*
X579037Y339353D01*
X579292Y339444D01*
X579517Y339595D01*
X579712Y339806D01*
X579877Y340077D01*
X580012Y340409D01*
X580117Y340800D01*
X580192Y341251D01*
X580199Y341335D01*
X580091Y343355D01*
X580061Y343572D01*
X579971Y343767D01*
X579821Y343939D01*
X579611Y344088D01*
X579341Y344214D01*
X579011Y344317D01*
X579000Y344319D01*
X578989Y344317D01*
X578659Y344214D01*
X578389Y344088D01*
X578179Y343939D01*
X578029Y343767D01*
X577939Y343572D01*
X577909Y343355D01*
Y344472D01*
X577661Y344489D01*
X577091Y344500D01*
Y347500D01*
X577661Y347512D01*
X577909Y347535D01*
Y348645D01*
X577939Y348428D01*
X578029Y348233D01*
X578179Y348061D01*
X578389Y347912D01*
X578659Y347786D01*
X578989Y347683D01*
X579000Y347681D01*
X579011Y347683D01*
X579341Y347786D01*
X579611Y347912D01*
X579821Y348061D01*
X579971Y348233D01*
X580061Y348428D01*
X580091Y348645D01*
Y347528D01*
D02*
G37*
G36*
X589939Y348428D02*
X590029Y348233D01*
X590179Y348061D01*
X590389Y347912D01*
X590659Y347786D01*
X590989Y347683D01*
X591379Y347603D01*
X591678Y347565D01*
X591823Y347590D01*
X591957Y347622D01*
X592068Y347660D01*
X592153Y347703D01*
X592215Y347750D01*
Y347520D01*
X592339Y347512D01*
X592909Y347500D01*
Y344500D01*
X592339Y344489D01*
X592215Y344477D01*
Y344250D01*
X592153Y344298D01*
X592068Y344340D01*
X591957Y344377D01*
X591823Y344410D01*
X591714Y344429D01*
X591379Y344397D01*
X590989Y344317D01*
X590659Y344214D01*
X590389Y344088D01*
X590179Y343939D01*
X590029Y343767D01*
X589939Y343572D01*
X589909Y343355D01*
Y348645D01*
X589939Y348428D01*
D02*
G37*
G36*
X497215Y339250D02*
X496973Y339488D01*
X496505Y339887D01*
X496280Y340050D01*
X496061Y340188D01*
X495853Y340297D01*
X495808Y340255D01*
X495757Y340180D01*
X495727Y340095D01*
X495717Y340000D01*
Y340355D01*
X495640Y340388D01*
X495437Y340450D01*
X495241Y340488D01*
X495050Y340500D01*
Y341500D01*
X495241Y341512D01*
X495437Y341550D01*
X495640Y341613D01*
X495717Y341645D01*
Y342000D01*
X495727Y341905D01*
X495757Y341820D01*
X495808Y341745D01*
X495853Y341703D01*
X496061Y341812D01*
X496280Y341950D01*
X496505Y342112D01*
X496736Y342300D01*
X497215Y342750D01*
Y339250D01*
D02*
G37*
G36*
X571383Y343324D02*
X571355Y343234D01*
X571331Y343085D01*
X571310Y342875D01*
X571267Y341884D01*
X571266Y341809D01*
X571267Y341763D01*
X571312Y341252D01*
X571387Y340800D01*
X571492Y340409D01*
X571627Y340078D01*
X571792Y339807D01*
X571987Y339595D01*
X572212Y339444D01*
X572467Y339353D01*
X572752Y339322D01*
X568728Y339335D01*
X568567Y340354D01*
X568252D01*
X568091Y343355D01*
X571413D01*
X571383Y343324D01*
D02*
G37*
G36*
X203507Y339953D02*
X203527Y339892D01*
X203561Y339818D01*
X203609Y339731D01*
X203746Y339515D01*
X203937Y339246D01*
X204183Y338923D01*
X201817D01*
X201947Y339091D01*
X202439Y339818D01*
X202473Y339892D01*
X202493Y339953D01*
X202500Y340000D01*
X203500D01*
X203507Y339953D01*
D02*
G37*
G36*
X259885Y341398D02*
X259909Y341293D01*
X259929Y341118D01*
X259963Y340558D01*
X259998Y337933D01*
X256498D01*
X256494Y338598D01*
X256324Y341118D01*
X256270Y341293D01*
X256210Y341398D01*
X256142Y341433D01*
X259858D01*
X259885Y341398D01*
D02*
G37*
G36*
X566298Y340318D02*
X567259Y340238D01*
X567649Y340169D01*
X567978Y340079D01*
X568249Y339970D01*
X568459Y339841D01*
X568609Y339692D01*
X568699Y339523D01*
X568728Y339335D01*
Y335828D01*
X568699Y336113D01*
X568609Y336368D01*
X568459Y336593D01*
X568249Y336788D01*
X567978Y336953D01*
X567649Y337088D01*
X567259Y337193D01*
X566809Y337268D01*
X566298Y337313D01*
X565729Y337328D01*
Y340328D01*
X566298Y340318D01*
D02*
G37*
G36*
X581937Y335933D02*
X581726Y335905D01*
X580860Y335735D01*
X580782Y335705D01*
X580724Y335676D01*
X580684Y335647D01*
X579977Y336353D01*
X580007Y336393D01*
X580036Y336451D01*
X580065Y336529D01*
X580094Y336626D01*
X580152Y336876D01*
X580208Y337203D01*
X580264Y337607D01*
X581937Y335933D01*
D02*
G37*
G36*
X571274Y337901D02*
X571376Y337484D01*
X571440Y337291D01*
X571514Y337109D01*
X571597Y336937D01*
X571690Y336775D01*
X571792Y336624D01*
X571903Y336484D01*
X572023Y336353D01*
X571316Y335647D01*
X571186Y335767D01*
X571045Y335878D01*
X570894Y335979D01*
X570732Y336072D01*
X570561Y336155D01*
X570378Y336229D01*
X570185Y336294D01*
X569982Y336349D01*
X569768Y336395D01*
X569544Y336432D01*
X571237Y338126D01*
X571274Y337901D01*
D02*
G37*
G36*
X239790Y341403D02*
X239729Y341313D01*
X239675Y341163D01*
X239629Y340953D01*
X239590Y340683D01*
X239532Y339963D01*
X239500Y338433D01*
X239494D01*
X239413Y335646D01*
X236091D01*
X236169Y335676D01*
X236238Y335766D01*
X236299Y335915D01*
X236353Y336125D01*
X236398Y336396D01*
X236435Y336725D01*
X236484Y337565D01*
X236499Y338583D01*
X236496Y339003D01*
X236371Y340953D01*
X236325Y341163D01*
X236271Y341313D01*
X236210Y341403D01*
X236142Y341433D01*
X239858D01*
X239790Y341403D01*
D02*
G37*
G36*
X564597Y336241D02*
X564367Y336152D01*
X564164Y336001D01*
X563988Y335791D01*
X563839Y335522D01*
X563717Y335191D01*
X563622Y334802D01*
X563554Y334351D01*
X563514Y333841D01*
X563500Y333272D01*
X560500D01*
X560486Y333841D01*
X560446Y334351D01*
X560378Y334802D01*
X560283Y335191D01*
X560161Y335522D01*
X560012Y335791D01*
X559836Y336001D01*
X559633Y336152D01*
X559403Y336241D01*
X559145Y336272D01*
X564854D01*
X564597Y336241D01*
D02*
G37*
G36*
X207656Y338056D02*
X207579Y337589D01*
X207551Y337137D01*
X207572Y336701D01*
X207641Y336280D01*
X207759Y335874D01*
X207925Y335484D01*
X208140Y335109D01*
X208404Y334749D01*
X208717Y334404D01*
X205934Y332945D01*
X205633Y333225D01*
X205304Y333492D01*
X204946Y333748D01*
X204559Y333991D01*
X204144Y334221D01*
X203226Y334646D01*
X202724Y334840D01*
X201634Y335190D01*
X207781Y338538D01*
X207656Y338056D01*
D02*
G37*
G36*
X236091Y330354D02*
X236061Y330619D01*
X235971Y330856D01*
X235821Y331065D01*
X235611Y331246D01*
X235341Y331400D01*
X235011Y331525D01*
X234621Y331623D01*
X234171Y331692D01*
X233661Y331734D01*
X233091Y331748D01*
Y334748D01*
X233661Y334757D01*
X234621Y334829D01*
X235011Y334892D01*
X235341Y334972D01*
X235611Y335071D01*
X235821Y335188D01*
X235971Y335322D01*
X236061Y335475D01*
X236091Y335646D01*
Y330354D01*
D02*
G37*
G36*
X530092Y327973D02*
X530314Y327785D01*
X530420Y327709D01*
X530523Y327644D01*
X530622Y327592D01*
X530718Y327551D01*
X530810Y327522D01*
X530899Y327505D01*
X530985Y327500D01*
X529500Y326015D01*
X529495Y326101D01*
X529478Y326190D01*
X529449Y326282D01*
X529408Y326378D01*
X529356Y326477D01*
X529291Y326580D01*
X529215Y326686D01*
X529127Y326796D01*
X528915Y327025D01*
X529975Y328085D01*
X530092Y327973D01*
D02*
G37*
G36*
X563503Y327218D02*
X563562Y326337D01*
X563590Y326177D01*
X563623Y326043D01*
X563660Y325932D01*
X563702Y325847D01*
X563750Y325785D01*
X560250D01*
X560297Y325847D01*
X560340Y325932D01*
X560378Y326043D01*
X560410Y326177D01*
X560437Y326337D01*
X560477Y326729D01*
X560498Y327218D01*
X560500Y327500D01*
X563500D01*
X563503Y327218D01*
D02*
G37*
G36*
X541985Y324500D02*
X540500Y323015D01*
X540494Y323035D01*
X540475Y323066D01*
X540443Y323108D01*
X540342Y323226D01*
X539987Y323599D01*
X539866Y323720D01*
X541280Y325134D01*
X541985Y324500D01*
D02*
G37*
G36*
X583309Y329176D02*
X583421Y329034D01*
X583607Y328909D01*
X583868Y328800D01*
X584204Y328709D01*
X584614Y328633D01*
X585098Y328575D01*
X586292Y328508D01*
X587000Y328500D01*
Y323500D01*
X586292Y323492D01*
X584614Y323366D01*
X584204Y323291D01*
X583868Y323200D01*
X583607Y323091D01*
X583421Y322966D01*
X583309Y322824D01*
X583272Y322666D01*
Y329334D01*
X583309Y329176D01*
D02*
G37*
G36*
X249079Y333500D02*
X251752D01*
Y333000D01*
X252252D01*
Y329343D01*
X253000D01*
Y321000D01*
X250835D01*
Y322374D01*
X245685D01*
Y321000D01*
X243000D01*
Y329343D01*
X243748D01*
Y333000D01*
X244248D01*
Y333500D01*
X246921D01*
Y335000D01*
X249079D01*
Y333500D01*
D02*
G37*
G36*
X501942Y323101D02*
X502011Y323080D01*
X502119Y323061D01*
X502265Y323045D01*
X502939Y323011D01*
X503964Y323000D01*
Y321000D01*
X503583Y320999D01*
X501942Y320899D01*
X501912Y320875D01*
Y323125D01*
X501942Y323101D01*
D02*
G37*
G36*
X508272Y322854D02*
X508283Y320000D01*
X508263Y320190D01*
X508202Y320360D01*
X508101Y320510D01*
X507960Y320640D01*
X507778Y320750D01*
X507557Y320840D01*
X507296Y320910D01*
X506994Y320960D01*
X506653Y320990D01*
X506272Y321000D01*
Y323000D01*
X508272Y322854D01*
D02*
G37*
G36*
X574336Y322636D02*
X574091Y322546D01*
X573875Y322396D01*
X573688Y322186D01*
X573529Y321916D01*
X573400Y321586D01*
X573299Y321196D01*
X573227Y320746D01*
X573184Y320236D01*
X573169Y319666D01*
X570169D01*
X570155Y320236D01*
X570112Y320746D01*
X570040Y321196D01*
X569939Y321586D01*
X569809Y321916D01*
X569651Y322186D01*
X569463Y322396D01*
X569247Y322546D01*
X569002Y322636D01*
X568728Y322666D01*
X574610D01*
X574336Y322636D01*
D02*
G37*
G36*
X509225Y322325D02*
X509301Y322295D01*
X509410Y322263D01*
X509726Y322193D01*
X510447Y322073D01*
X511090Y321983D01*
X510346Y321238D01*
X510697Y320851D01*
X511181Y320354D01*
X510474Y319647D01*
X510215Y319902D01*
X509576Y320468D01*
X508845Y319737D01*
X508799Y320076D01*
X508502Y321603D01*
X508474Y321646D01*
X509181Y322354D01*
X509225Y322325D01*
D02*
G37*
G36*
X469091Y319355D02*
X469061Y319572D01*
X468971Y319767D01*
X468821Y319939D01*
X468611Y320088D01*
X468341Y320214D01*
X468011Y320317D01*
X467621Y320397D01*
X467171Y320454D01*
X466661Y320489D01*
X466091Y320500D01*
Y323500D01*
X466661Y323512D01*
X467621Y323603D01*
X468011Y323683D01*
X468341Y323786D01*
X468611Y323912D01*
X468821Y324061D01*
X468971Y324233D01*
X469061Y324428D01*
X469091Y324645D01*
Y319355D01*
D02*
G37*
G36*
X461419Y324715D02*
X461510Y324460D01*
X461660Y324235D01*
X461871Y324040D01*
X462142Y323875D01*
X462474Y323740D01*
X462865Y323635D01*
X463317Y323560D01*
X463829Y323515D01*
X464401Y323500D01*
Y320500D01*
X463829Y320485D01*
X463317Y320440D01*
X462865Y320365D01*
X462474Y320260D01*
X462142Y320125D01*
X461871Y319960D01*
X461660Y319765D01*
X461510Y319540D01*
X461419Y319285D01*
X461389Y319000D01*
Y325000D01*
X461419Y324715D01*
D02*
G37*
G36*
X519761Y322692D02*
X519859Y322547D01*
X520023Y322419D01*
X520252Y322308D01*
X520546Y322214D01*
X520906Y322137D01*
X521332Y322077D01*
X521822Y322034D01*
X523000Y322000D01*
Y318000D01*
X522378Y317991D01*
X520906Y317863D01*
X520546Y317786D01*
X520252Y317692D01*
X520023Y317581D01*
X519859Y317453D01*
X519761Y317308D01*
X519729Y317145D01*
Y322854D01*
X519761Y322692D01*
D02*
G37*
G36*
X478879Y319324D02*
X478851Y319234D01*
X478827Y319085D01*
X478806Y318875D01*
X478762Y317884D01*
X478757Y317335D01*
X478829Y316379D01*
X478892Y315989D01*
X478972Y315659D01*
X479071Y315389D01*
X479188Y315179D01*
X479322Y315029D01*
X479475Y314939D01*
X479645Y314909D01*
X474355D01*
X474619Y314939D01*
X474856Y315029D01*
X475065Y315179D01*
X475246Y315389D01*
X475400Y315659D01*
X475525Y315989D01*
X475623Y316379D01*
X475692Y316829D01*
X475710Y317052D01*
X475587Y319355D01*
X478909D01*
X478879Y319324D01*
D02*
G37*
G36*
X495901Y314855D02*
X492500Y314843D01*
X492737Y314868D01*
X492950Y314944D01*
X493138Y315071D01*
X493300Y315247D01*
X493437Y315473D01*
X493550Y315749D01*
X493638Y316075D01*
X493700Y316452D01*
X493738Y316878D01*
X493750Y317354D01*
X496250D01*
X495901Y314855D01*
D02*
G37*
G36*
X253593Y316567D02*
X253683Y316395D01*
X253833Y316244D01*
X254043Y316112D01*
X254313Y316001D01*
X254643Y315910D01*
X255033Y315839D01*
X255483Y315789D01*
X255779Y315771D01*
X258354Y315909D01*
Y312587D01*
X258325Y312617D01*
X258235Y312645D01*
X258085Y312669D01*
X257874Y312690D01*
X256885Y312734D01*
X255354Y312748D01*
Y312946D01*
X253563Y313240D01*
Y316760D01*
X253593Y316567D01*
D02*
G37*
G36*
X597761Y317787D02*
X597859Y317727D01*
X598023Y317674D01*
X598252Y317628D01*
X598546Y317589D01*
X599332Y317532D01*
X601000Y317500D01*
Y312500D01*
X600378Y312496D01*
X598252Y312372D01*
X598023Y312326D01*
X597859Y312273D01*
X597761Y312213D01*
X597728Y312145D01*
Y317854D01*
X597761Y317787D01*
D02*
G37*
G36*
X487354Y312353D02*
X486647Y311647D01*
X486634Y311649D01*
X486602Y311654D01*
X485609Y311755D01*
X487245Y313390D01*
X487354Y312353D01*
D02*
G37*
G36*
X574690Y315453D02*
X575771Y314540D01*
X576253Y314205D01*
X576697Y313952D01*
X577102Y313779D01*
X577468Y313687D01*
X577795Y313676D01*
X578084Y313746D01*
X578333Y313897D01*
X574355Y310587D01*
X574333Y310786D01*
X574270Y311009D01*
X574164Y311256D01*
X574015Y311526D01*
X573824Y311820D01*
X573591Y312138D01*
X572997Y312844D01*
X572233Y313646D01*
X574091Y316031D01*
X574690Y315453D01*
D02*
G37*
G36*
X479675Y314879D02*
X479766Y314851D01*
X479916Y314827D01*
X480126Y314806D01*
X481115Y314762D01*
X481697Y314757D01*
X484444Y314855D01*
X484456Y310248D01*
X484425Y310533D01*
X484334Y310788D01*
X484183Y311013D01*
X483972Y311208D01*
X483701Y311373D01*
X483370Y311508D01*
X482978Y311613D01*
X482527Y311688D01*
X482149Y311721D01*
X479645Y311587D01*
Y314909D01*
X479675Y314879D01*
D02*
G37*
G36*
X253551Y313210D02*
X253540Y313120D01*
X253531Y312970D01*
X253500Y310240D01*
X253026D01*
X252909Y309646D01*
X249587D01*
X249760Y309676D01*
X249916Y309766D01*
X250052Y309915D01*
X250171Y310125D01*
X250272Y310396D01*
X250354Y310725D01*
X250418Y311116D01*
X250464Y311565D01*
X250469Y311726D01*
X250437Y313240D01*
X253563D01*
X253551Y313210D01*
D02*
G37*
G36*
X246071D02*
X246060Y313120D01*
X246051Y312970D01*
X246038Y311871D01*
X246161Y310125D01*
X246213Y309915D01*
X246271Y309766D01*
X246338Y309676D01*
X246413Y309646D01*
X243091D01*
Y304355D01*
X243061Y304572D01*
X242971Y304767D01*
X242821Y304939D01*
X242611Y305088D01*
X242341Y305214D01*
X242011Y305317D01*
X241621Y305397D01*
X241322Y305435D01*
X241177Y305410D01*
X241043Y305378D01*
X240932Y305340D01*
X240847Y305297D01*
X240785Y305250D01*
Y305480D01*
X240661Y305488D01*
X240091Y305500D01*
Y308500D01*
X240661Y308511D01*
X240785Y308523D01*
Y308750D01*
X240847Y308702D01*
X240932Y308660D01*
X241043Y308623D01*
X241177Y308590D01*
X241286Y308571D01*
X241621Y308603D01*
X242011Y308683D01*
X242341Y308786D01*
X242611Y308912D01*
X242821Y309061D01*
X242971Y309233D01*
X243061Y309428D01*
X243091Y309646D01*
X243077Y310240D01*
X243020D01*
X242957Y313240D01*
X246082D01*
X246071Y313210D01*
D02*
G37*
G36*
X590468Y310792D02*
X590598Y308842D01*
X590646Y308632D01*
X590702Y308482D01*
X590765Y308392D01*
X590835Y308362D01*
X587094D01*
X587165Y308392D01*
X587228Y308482D01*
X587283Y308632D01*
X587331Y308842D01*
X587372Y309112D01*
X587431Y309832D01*
X587465Y311362D01*
X590465D01*
X590468Y310792D01*
D02*
G37*
G36*
X495874Y311577D02*
X495902Y311478D01*
X495973Y311344D01*
X496087Y311176D01*
X496243Y310974D01*
X496685Y310465D01*
X497669Y309444D01*
X496116Y307461D01*
X495747Y307826D01*
X494426Y309000D01*
X494267Y309105D01*
X494143Y309166D01*
X494055Y309183D01*
X494001Y309157D01*
X495889Y311642D01*
X495874Y311577D01*
D02*
G37*
G36*
X521514Y307159D02*
X521554Y306648D01*
X521620Y306215D01*
X521750D01*
X521702Y306153D01*
X521660Y306068D01*
X521656Y306057D01*
X521717Y305809D01*
X521839Y305479D01*
X521988Y305209D01*
X522164Y304998D01*
X522367Y304849D01*
X522597Y304759D01*
X522855Y304729D01*
X521502D01*
X521500Y304500D01*
X518500D01*
X518498Y304729D01*
X517145D01*
X517403Y304759D01*
X517633Y304849D01*
X517836Y304998D01*
X518012Y305209D01*
X518161Y305479D01*
X518283Y305809D01*
X518344Y306057D01*
X518340Y306068D01*
X518297Y306153D01*
X518250Y306215D01*
X518380D01*
X518446Y306648D01*
X518486Y307159D01*
X518500Y307729D01*
X521500D01*
X521514Y307159D01*
D02*
G37*
G36*
X262810Y306071D02*
X262640Y306011D01*
X262490Y305911D01*
X262360Y305771D01*
X262250Y305591D01*
X262160Y305371D01*
X262090Y305111D01*
X262040Y304811D01*
X262010Y304471D01*
X262000Y304091D01*
X260000D01*
X259990Y304471D01*
X259960Y304811D01*
X259910Y305111D01*
X259840Y305371D01*
X259750Y305591D01*
X259640Y305771D01*
X259510Y305911D01*
X259360Y306011D01*
X259190Y306071D01*
X259000Y306091D01*
X263000D01*
X262810Y306071D01*
D02*
G37*
G36*
X498263Y305932D02*
X498300Y305505D01*
X498362Y305128D01*
X498450Y304802D01*
X498562Y304525D01*
X498700Y304299D01*
X498863Y304123D01*
X499050Y303998D01*
X499263Y303922D01*
X499500Y303897D01*
X494500D01*
X494737Y303922D01*
X494950Y303998D01*
X495138Y304123D01*
X495300Y304299D01*
X495437Y304525D01*
X495550Y304802D01*
X495638Y305128D01*
X495700Y305505D01*
X495738Y305932D01*
X495750Y306409D01*
X498250D01*
X498263Y305932D01*
D02*
G37*
G36*
X589125Y304509D02*
X588985Y304482D01*
X588832Y304429D01*
X588665Y304350D01*
X588484Y304246D01*
X588289Y304116D01*
X588080Y303960D01*
X587620Y303571D01*
X587105Y303080D01*
X586045Y304141D01*
X586303Y304405D01*
X586925Y305115D01*
X587080Y305324D01*
X587210Y305519D01*
X587315Y305700D01*
X587393Y305868D01*
X587446Y306021D01*
X587473Y306160D01*
X589125Y304509D01*
D02*
G37*
G36*
X578358Y304088D02*
X578230Y304042D01*
X578118Y303967D01*
X578020Y303861D01*
X577938Y303725D01*
X577870Y303558D01*
X577817Y303362D01*
X577780Y303135D01*
X577758Y302878D01*
X577750Y302591D01*
X576250D01*
X576242Y302878D01*
X576220Y303135D01*
X576183Y303362D01*
X576130Y303558D01*
X576062Y303725D01*
X575980Y303861D01*
X575882Y303967D01*
X575770Y304042D01*
X575642Y304088D01*
X575500Y304103D01*
X578500D01*
X578358Y304088D01*
D02*
G37*
G36*
X479428Y305061D02*
X479233Y304971D01*
X479061Y304821D01*
X478912Y304611D01*
X478786Y304341D01*
X478683Y304011D01*
X478603Y303621D01*
X478546Y303171D01*
X478511Y302661D01*
X478500Y302091D01*
X475500D01*
X475489Y302661D01*
X475397Y303621D01*
X475317Y304011D01*
X475214Y304341D01*
X475088Y304611D01*
X474939Y304821D01*
X474767Y304971D01*
X474572Y305061D01*
X474355Y305091D01*
X479645D01*
X479428Y305061D01*
D02*
G37*
G36*
X615927Y299950D02*
X615863Y300007D01*
X615788Y300058D01*
X615702Y300103D01*
X615605Y300142D01*
X615498Y300175D01*
X615380Y300202D01*
X615251Y300223D01*
X615111Y300238D01*
X614799Y300250D01*
Y301750D01*
X614960Y301753D01*
X615251Y301777D01*
X615380Y301798D01*
X615498Y301825D01*
X615605Y301858D01*
X615702Y301897D01*
X615788Y301942D01*
X615863Y301993D01*
X615927Y302050D01*
Y299950D01*
D02*
G37*
G36*
X503103Y292752D02*
X503072Y293037D01*
X502981Y293292D01*
X502830Y293517D01*
X502619Y293712D01*
X502348Y293877D01*
X502017Y294012D01*
X501625Y294117D01*
X501261Y294178D01*
X499646Y294091D01*
Y297413D01*
X499676Y297383D01*
X499765Y297355D01*
X499916Y297331D01*
X500126Y297310D01*
X500927Y297275D01*
X502611Y297394D01*
X502821Y297445D01*
X502971Y297504D01*
X503061Y297571D01*
X503091Y297645D01*
X503103Y292752D01*
D02*
G37*
G36*
X568539Y297792D02*
X568669Y295842D01*
X568717Y295632D01*
X568772Y295482D01*
X568835Y295392D01*
X568906Y295362D01*
X565165D01*
X565236Y295392D01*
X565298Y295482D01*
X565354Y295632D01*
X565402Y295842D01*
X565443Y296112D01*
X565502Y296832D01*
X565535Y298362D01*
X568535D01*
X568539Y297792D01*
D02*
G37*
G36*
X499581Y294091D02*
X499304Y294216D01*
X498993Y294267D01*
X498651Y294242D01*
X498275Y294142D01*
X497867Y293968D01*
X497427Y293718D01*
X496954Y293393D01*
X496448Y292994D01*
X495910Y292519D01*
X495339Y291969D01*
X492233Y293107D01*
X492872Y293766D01*
X493864Y294928D01*
X494218Y295431D01*
X494478Y295881D01*
X494642Y296279D01*
X494712Y296625D01*
X494688Y296919D01*
X494568Y297160D01*
X494354Y297349D01*
X499581Y294091D01*
D02*
G37*
G36*
X568914Y294810D02*
X568974Y294640D01*
X569075Y294490D01*
X569216Y294360D01*
X569397Y294250D01*
X569618Y294160D01*
X569880Y294090D01*
X570181Y294040D01*
X570523Y294010D01*
X570782Y294003D01*
X571153Y294000D01*
Y292000D01*
X570484Y291987D01*
X570181Y291960D01*
X569880Y291910D01*
X569618Y291840D01*
X569397Y291750D01*
X569216Y291640D01*
X569075Y291510D01*
X568974Y291360D01*
X568914Y291190D01*
X568894Y291000D01*
Y291955D01*
X568095Y291939D01*
Y294061D01*
X568137Y294050D01*
X568237Y294039D01*
X568614Y294022D01*
X568894Y294020D01*
Y295000D01*
X568914Y294810D01*
D02*
G37*
G36*
X512939Y297428D02*
X513029Y297233D01*
X513179Y297061D01*
X513389Y296912D01*
X513659Y296786D01*
X513989Y296683D01*
X514379Y296603D01*
X514829Y296546D01*
X515339Y296512D01*
X515909Y296500D01*
Y293500D01*
X515339Y293489D01*
X514379Y293397D01*
X513989Y293317D01*
X513659Y293214D01*
X513389Y293088D01*
X513179Y292939D01*
X513029Y292767D01*
X512939Y292572D01*
X512909Y292354D01*
Y297645D01*
X512939Y297428D01*
D02*
G37*
G36*
X478503Y291218D02*
X478562Y290336D01*
X478590Y290177D01*
X478622Y290043D01*
X478660Y289932D01*
X478702Y289847D01*
X478750Y289785D01*
X475250D01*
X475297Y289847D01*
X475340Y289932D01*
X475378Y290043D01*
X475410Y290177D01*
X475437Y290336D01*
X475478Y290728D01*
X475497Y291218D01*
X475500Y291500D01*
X478500D01*
X478503Y291218D01*
D02*
G37*
G36*
X560690Y292860D02*
X560618Y292694D01*
X560607Y292494D01*
X560658Y292261D01*
X560770Y291995D01*
X560943Y291695D01*
X561178Y291363D01*
X561474Y290997D01*
X562249Y290165D01*
X560362Y289223D01*
X559972Y289599D01*
X559264Y290196D01*
X558945Y290416D01*
X558650Y290585D01*
X558380Y290702D01*
X558132Y290766D01*
X557909Y290779D01*
X557710Y290740D01*
X557534Y290650D01*
X560823Y292994D01*
X560690Y292860D01*
D02*
G37*
G36*
X522597Y293241D02*
X522367Y293151D01*
X522164Y293002D01*
X521988Y292791D01*
X521839Y292522D01*
X521717Y292191D01*
X521622Y291802D01*
X521554Y291352D01*
X521514Y290841D01*
X521503Y290383D01*
X521515Y289912D01*
X521560Y289401D01*
X521635Y288949D01*
X521740Y288558D01*
X521875Y288227D01*
X522040Y287956D01*
X522235Y287745D01*
X522460Y287594D01*
X522715Y287503D01*
X523000Y287472D01*
X517721Y287484D01*
X517869Y287514D01*
X518001Y287604D01*
X518118Y287754D01*
X518219Y287964D01*
X518305Y288234D01*
X518375Y288564D01*
X518430Y288954D01*
X518469Y289404D01*
X518497Y290388D01*
X518486Y290841D01*
X518446Y291352D01*
X518378Y291802D01*
X518283Y292191D01*
X518161Y292522D01*
X518012Y292791D01*
X517836Y293002D01*
X517633Y293151D01*
X517403Y293241D01*
X517145Y293271D01*
X522855D01*
X522597Y293241D01*
D02*
G37*
G36*
X602674Y289700D02*
X602666Y289665D01*
X602658Y289612D01*
X602646Y289457D01*
X602637Y289070D01*
X602644Y288821D01*
X602674Y288478D01*
X602724Y288177D01*
X602794Y287915D01*
X602884Y287694D01*
X602994Y287513D01*
X603124Y287372D01*
X603274Y287271D01*
X603444Y287211D01*
X603634Y287191D01*
X599634D01*
X599824Y287211D01*
X599994Y287271D01*
X600144Y287372D01*
X600274Y287513D01*
X600384Y287694D01*
X600474Y287915D01*
X600544Y288177D01*
X600594Y288478D01*
X600624Y288821D01*
X600626Y288914D01*
X600584Y289718D01*
X602684D01*
X602674Y289700D01*
D02*
G37*
G36*
X262877Y286608D02*
X261392Y285123D01*
X261386Y285142D01*
X261367Y285173D01*
X261336Y285215D01*
X261234Y285334D01*
X260879Y285706D01*
X260758Y285827D01*
X262173Y287242D01*
X262877Y286608D01*
D02*
G37*
G36*
X521523Y286287D02*
X521571Y286072D01*
X521630Y285866D01*
X521700Y285668D01*
X521781Y285479D01*
X521873Y285298D01*
X521977Y285126D01*
X522091Y284962D01*
X522217Y284807D01*
X522354Y284661D01*
X521646Y283953D01*
X521500Y284090D01*
X521345Y284216D01*
X521181Y284330D01*
X521009Y284434D01*
X520828Y284526D01*
X520639Y284607D01*
X520441Y284677D01*
X520235Y284736D01*
X520020Y284784D01*
X519796Y284821D01*
X521486Y286511D01*
X521523Y286287D01*
D02*
G37*
G36*
X579681Y283945D02*
X579794Y283852D01*
X579910Y283769D01*
X580029Y283698D01*
X580152Y283637D01*
X580277Y283588D01*
X580407Y283549D01*
X580539Y283522D01*
X580675Y283506D01*
X580814Y283500D01*
Y282500D01*
X580675Y282494D01*
X580539Y282478D01*
X580407Y282451D01*
X580277Y282412D01*
X580152Y282363D01*
X580029Y282302D01*
X579910Y282230D01*
X579794Y282148D01*
X579681Y282054D01*
X579571Y281950D01*
Y284050D01*
X579681Y283945D01*
D02*
G37*
G36*
X465000Y249000D02*
X463283D01*
Y253500D01*
X455000D01*
X446716D01*
Y249000D01*
X446000D01*
Y284000D01*
X451820D01*
X451966Y283522D01*
X451912Y283486D01*
X451018Y282592D01*
X450316Y281542D01*
X449833Y280375D01*
X449587Y279136D01*
Y279004D01*
X456000D01*
X462413D01*
Y279136D01*
X462167Y280375D01*
X461684Y281542D01*
X460982Y282592D01*
X460088Y283486D01*
X460034Y283522D01*
X460180Y284000D01*
X465000D01*
Y249000D01*
D02*
G37*
G36*
X560369Y280797D02*
X560519Y280677D01*
X560675Y280571D01*
X560837Y280479D01*
X561005Y280401D01*
X561178Y280338D01*
X561358Y280288D01*
X561543Y280253D01*
X561734Y280231D01*
X561932Y280224D01*
Y279224D01*
X561734Y279217D01*
X561543Y279196D01*
X561358Y279161D01*
X561178Y279111D01*
X561005Y279048D01*
X560837Y278970D01*
X560675Y278878D01*
X560519Y278772D01*
X560369Y278652D01*
X560224Y278517D01*
X559310Y279017D01*
X559438Y279159D01*
X559537Y279300D01*
X559607Y279442D01*
X559650Y279583D01*
X559664Y279724D01*
X559650Y279866D01*
X559607Y280007D01*
X559537Y280149D01*
X559438Y280290D01*
X559310Y280432D01*
X560224Y280931D01*
X560369Y280797D01*
D02*
G37*
G36*
X627503Y275834D02*
X627517Y275688D01*
X627541Y275547D01*
X627575Y275413D01*
X627619Y275283D01*
X627673Y275159D01*
X627737Y275040D01*
X627811Y274927D01*
X627895Y274819D01*
X627990Y274717D01*
X627283Y274010D01*
X627181Y274104D01*
X627073Y274189D01*
X626960Y274263D01*
X626841Y274327D01*
X626717Y274381D01*
X626587Y274425D01*
X626453Y274459D01*
X626312Y274483D01*
X626166Y274497D01*
X626015Y274500D01*
X627500Y275985D01*
X627503Y275834D01*
D02*
G37*
G36*
X585090Y272623D02*
X585195Y272538D01*
X585306Y272459D01*
X585423Y272388D01*
X585546Y272323D01*
X585674Y272266D01*
X585809Y272215D01*
X585950Y272172D01*
X586097Y272135D01*
X586250Y272105D01*
X584526Y270905D01*
X584547Y271048D01*
X584555Y271186D01*
X584550Y271321D01*
X584532Y271451D01*
X584501Y271577D01*
X584456Y271699D01*
X584399Y271816D01*
X584329Y271929D01*
X584246Y272039D01*
X584150Y272143D01*
X584992Y272715D01*
X585090Y272623D01*
D02*
G37*
G36*
X591216Y268166D02*
X591251Y268158D01*
X591303Y268150D01*
X591458Y268139D01*
X591973Y268127D01*
X592144Y268126D01*
Y266126D01*
X591197Y266076D01*
Y268176D01*
X591216Y268166D01*
D02*
G37*
G36*
X525323Y264493D02*
X525150Y264387D01*
X524998Y264210D01*
X524866Y263964D01*
X524754Y263646D01*
X524663Y263258D01*
X524591Y262799D01*
X524541Y262270D01*
X524500Y261000D01*
X519500D01*
X519490Y261670D01*
X519409Y262799D01*
X519337Y263258D01*
X519246Y263646D01*
X519134Y263964D01*
X519002Y264210D01*
X518850Y264387D01*
X518677Y264493D01*
X518484Y264528D01*
X525516D01*
X525323Y264493D01*
D02*
G37*
G36*
X602685Y258744D02*
X603147Y258708D01*
X602668Y258230D01*
X602685Y258190D01*
X602742Y258079D01*
X602812Y257963D01*
X602895Y257843D01*
X603099Y257590D01*
X603220Y257456D01*
X603354Y257318D01*
X602646Y256611D01*
X602508Y256745D01*
X602121Y257070D01*
X602001Y257152D01*
X601886Y257222D01*
X601775Y257280D01*
X601735Y257296D01*
X601256Y256818D01*
X601236Y257062D01*
X601214Y257996D01*
X601228Y258018D01*
X601245Y258013D01*
X601952Y258720D01*
X601946Y258737D01*
X601969Y258750D01*
X602019Y258760D01*
X602096Y258765D01*
X602202Y258766D01*
X602685Y258744D01*
D02*
G37*
G36*
X610028Y260401D02*
X610736Y259804D01*
X611055Y259584D01*
X611349Y259415D01*
X611621Y259298D01*
X611868Y259234D01*
X612091Y259221D01*
X612290Y259260D01*
X612466Y259350D01*
X609177Y257006D01*
X609310Y257140D01*
X609382Y257306D01*
X609393Y257506D01*
X609342Y257739D01*
X609230Y258005D01*
X609057Y258305D01*
X608822Y258637D01*
X608526Y259003D01*
X607751Y259835D01*
X609638Y260777D01*
X610028Y260401D01*
D02*
G37*
G36*
X597211Y260176D02*
X597271Y260006D01*
X597372Y259856D01*
X597513Y259726D01*
X597694Y259616D01*
X597915Y259526D01*
X598177Y259456D01*
X598479Y259406D01*
X598820Y259376D01*
X599203Y259366D01*
Y259366D01*
X601094Y259362D01*
X601106Y256366D01*
X601086Y256556D01*
X601024Y256726D01*
X600923Y256876D01*
X600782Y257006D01*
X600601Y257116D01*
X600380Y257206D01*
X600119Y257276D01*
X599817Y257326D01*
X599476Y257356D01*
X599149Y257365D01*
X598820Y257356D01*
X598479Y257326D01*
X598177Y257276D01*
X597915Y257206D01*
X597694Y257116D01*
X597513Y257006D01*
X597372Y256876D01*
X597271Y256726D01*
X597211Y256556D01*
X597191Y256366D01*
Y260366D01*
X597211Y260176D01*
D02*
G37*
G36*
X612937Y259294D02*
X613029Y259232D01*
X613184Y259178D01*
X613401Y259131D01*
X613679Y259091D01*
X614422Y259033D01*
X616000Y259000D01*
Y255000D01*
X615412Y254996D01*
X613401Y254870D01*
X613184Y254822D01*
X613029Y254768D01*
X612937Y254706D01*
X612906Y254638D01*
Y259362D01*
X612937Y259294D01*
D02*
G37*
G36*
X604819Y254606D02*
X604804Y254512D01*
X604792Y254355D01*
X604758Y253100D01*
X604750Y251500D01*
X601250D01*
X601094Y254638D01*
X604835D01*
X604819Y254606D01*
D02*
G37*
G36*
X668793Y235837D02*
X668472Y236153D01*
X667865Y236685D01*
X667579Y236901D01*
X667303Y237084D01*
X667039Y237234D01*
X666786Y237350D01*
X666545Y237434D01*
X666315Y237483D01*
X666096Y237500D01*
Y238500D01*
X666315Y238517D01*
X666545Y238566D01*
X666786Y238650D01*
X667039Y238766D01*
X667303Y238916D01*
X667579Y239099D01*
X667865Y239315D01*
X668472Y239847D01*
X668793Y240163D01*
Y235837D01*
D02*
G37*
G36*
X592085Y232025D02*
X591973Y231908D01*
X591785Y231686D01*
X591709Y231580D01*
X591644Y231477D01*
X591592Y231378D01*
X591551Y231282D01*
X591522Y231190D01*
X591505Y231101D01*
X591500Y231015D01*
X590015Y232500D01*
X590101Y232505D01*
X590190Y232522D01*
X590282Y232551D01*
X590378Y232592D01*
X590477Y232644D01*
X590580Y232709D01*
X590686Y232785D01*
X590796Y232873D01*
X591025Y233085D01*
X592085Y232025D01*
D02*
G37*
G36*
X581135Y231993D02*
X581210Y231942D01*
X581296Y231897D01*
X581393Y231858D01*
X581500Y231825D01*
X581618Y231798D01*
X581747Y231777D01*
X581887Y231762D01*
X582199Y231750D01*
Y230250D01*
X582038Y230247D01*
X581747Y230223D01*
X581618Y230202D01*
X581500Y230175D01*
X581393Y230142D01*
X581296Y230103D01*
X581210Y230058D01*
X581135Y230007D01*
X581071Y229950D01*
Y232050D01*
X581135Y231993D01*
D02*
G37*
G36*
X654198Y221528D02*
X654222Y221238D01*
X654243Y221109D01*
X654270Y220991D01*
X654303Y220883D01*
X654342Y220787D01*
X654387Y220701D01*
X654438Y220626D01*
X654495Y220562D01*
X652395D01*
X652452Y220626D01*
X652503Y220701D01*
X652548Y220787D01*
X652587Y220883D01*
X652620Y220991D01*
X652647Y221109D01*
X652668Y221238D01*
X652683Y221378D01*
X652695Y221690D01*
X654195D01*
X654198Y221528D01*
D02*
G37*
G36*
X649511Y190339D02*
X649523Y190215D01*
X649750D01*
X649703Y190153D01*
X649660Y190068D01*
X649622Y189957D01*
X649590Y189823D01*
X649571Y189714D01*
X649603Y189379D01*
X649683Y188989D01*
X649786Y188659D01*
X649912Y188389D01*
X650061Y188179D01*
X650233Y188029D01*
X650428Y187939D01*
X650645Y187909D01*
X645355D01*
X645572Y187939D01*
X645767Y188029D01*
X645939Y188179D01*
X646088Y188389D01*
X646214Y188659D01*
X646317Y188989D01*
X646397Y189379D01*
X646435Y189678D01*
X646410Y189823D01*
X646378Y189957D01*
X646340Y190068D01*
X646298Y190153D01*
X646250Y190215D01*
X646480D01*
X646489Y190339D01*
X646500Y190909D01*
X649500D01*
X649511Y190339D01*
D02*
G37*
G36*
X649810Y178083D02*
X649640Y178022D01*
X649490Y177922D01*
X649360Y177781D01*
X649250Y177600D01*
X649160Y177378D01*
X649090Y177117D01*
X649071Y177003D01*
X649090Y176889D01*
X649160Y176629D01*
X649250Y176409D01*
X649360Y176229D01*
X649490Y176089D01*
X649640Y175989D01*
X649810Y175929D01*
X650000Y175909D01*
X646000D01*
X646190Y175929D01*
X646360Y175989D01*
X646510Y176089D01*
X646640Y176229D01*
X646750Y176409D01*
X646840Y176629D01*
X646910Y176889D01*
X646929Y177003D01*
X646910Y177117D01*
X646840Y177378D01*
X646750Y177600D01*
X646640Y177781D01*
X646510Y177922D01*
X646360Y178022D01*
X646190Y178083D01*
X646000Y178103D01*
X650000D01*
X649810Y178083D01*
D02*
G37*
G36*
X645355Y172587D02*
X645334Y172712D01*
X645274Y172825D01*
X645175Y172924D01*
X645035Y173010D01*
X644854Y173083D01*
X644634Y173142D01*
X644375Y173188D01*
X644074Y173222D01*
X643355Y173248D01*
Y175248D01*
X643735Y175255D01*
X644375Y175308D01*
X644634Y175354D01*
X644854Y175413D01*
X645035Y175486D01*
X645175Y175572D01*
X645274Y175671D01*
X645334Y175784D01*
X645355Y175909D01*
Y172587D01*
D02*
G37*
G36*
X640625Y173935D02*
X640670Y173910D01*
X640737Y173888D01*
X640826Y173869D01*
X640937Y173853D01*
X641223Y173829D01*
X641816Y173816D01*
Y171816D01*
X641597Y171815D01*
X640826Y171764D01*
X640737Y171745D01*
X640670Y171723D01*
X640625Y171698D01*
X640602Y171670D01*
Y173962D01*
X640625Y173935D01*
D02*
G37*
G36*
X472512Y172973D02*
X472113Y172505D01*
X471950Y172280D01*
X471812Y172061D01*
X471700Y171847D01*
X471613Y171640D01*
X471550Y171438D01*
X471527Y171319D01*
X471545Y171212D01*
X471580Y171081D01*
X471625Y170970D01*
X471680Y170879D01*
X471745Y170808D01*
X471820Y170757D01*
X471905Y170727D01*
X472000Y170717D01*
X470000D01*
X470095Y170727D01*
X470180Y170757D01*
X470255Y170808D01*
X470320Y170879D01*
X470375Y170970D01*
X470420Y171081D01*
X470455Y171212D01*
X470473Y171319D01*
X470450Y171438D01*
X470388Y171640D01*
X470300Y171847D01*
X470188Y172061D01*
X470050Y172280D01*
X469887Y172505D01*
X469700Y172736D01*
X469250Y173215D01*
X472750D01*
X472512Y172973D01*
D02*
G37*
G36*
X490513Y169973D02*
X490112Y169505D01*
X489950Y169280D01*
X489813Y169061D01*
X489700Y168847D01*
X489612Y168640D01*
X489550Y168438D01*
X489543Y168403D01*
X489545Y168393D01*
X489580Y168262D01*
X489625Y168150D01*
X489680Y168059D01*
X489745Y167988D01*
X489820Y167938D01*
X489905Y167907D01*
X490000Y167897D01*
X488000D01*
X488095Y167907D01*
X488180Y167938D01*
X488255Y167988D01*
X488320Y168059D01*
X488375Y168150D01*
X488420Y168262D01*
X488455Y168393D01*
X488457Y168403D01*
X488450Y168438D01*
X488387Y168640D01*
X488300Y168847D01*
X488188Y169061D01*
X488050Y169280D01*
X487887Y169505D01*
X487700Y169736D01*
X487250Y170215D01*
X490750D01*
X490513Y169973D01*
D02*
G37*
G36*
X483512D02*
X483112Y169505D01*
X482950Y169280D01*
X482812Y169061D01*
X482700Y168847D01*
X482613Y168640D01*
X482550Y168438D01*
X482543Y168403D01*
X482545Y168393D01*
X482580Y168262D01*
X482625Y168150D01*
X482680Y168059D01*
X482745Y167988D01*
X482820Y167938D01*
X482905Y167907D01*
X483000Y167897D01*
X481000D01*
X481095Y167907D01*
X481180Y167938D01*
X481255Y167988D01*
X481320Y168059D01*
X481375Y168150D01*
X481420Y168262D01*
X481455Y168393D01*
X481457Y168403D01*
X481450Y168438D01*
X481388Y168640D01*
X481300Y168847D01*
X481187Y169061D01*
X481050Y169280D01*
X480888Y169505D01*
X480700Y169736D01*
X480250Y170215D01*
X483750D01*
X483512Y169973D01*
D02*
G37*
G36*
X645366Y168253D02*
X645507Y168254D01*
X647012Y168354D01*
X647141Y168385D01*
X647234Y168420D01*
X647293Y168459D01*
Y167044D01*
X647234Y167084D01*
X647141Y167119D01*
X647012Y167150D01*
X646848Y167177D01*
X646416Y167219D01*
X645507Y167250D01*
X645366Y167251D01*
Y166752D01*
X645356Y166847D01*
X645326Y166932D01*
X645275Y167007D01*
X645205Y167072D01*
X645114Y167127D01*
X645002Y167172D01*
X644871Y167207D01*
X644719Y167232D01*
X644547Y167247D01*
X644354Y167252D01*
Y168252D01*
X644547Y168257D01*
X644719Y168272D01*
X644871Y168297D01*
X645002Y168332D01*
X645114Y168377D01*
X645205Y168432D01*
X645275Y168497D01*
X645326Y168572D01*
X645356Y168657D01*
X645366Y168752D01*
Y168253D01*
D02*
G37*
G36*
X630327Y169536D02*
X630887Y169028D01*
X631154Y168823D01*
X631412Y168648D01*
X631662Y168506D01*
X631903Y168395D01*
X632135Y168315D01*
X632358Y168268D01*
X632573Y168252D01*
X632551Y167252D01*
X632341Y167236D01*
X632120Y167190D01*
X631887Y167113D01*
X631643Y167004D01*
X631388Y166865D01*
X631122Y166695D01*
X630844Y166493D01*
X630256Y165998D01*
X629944Y165704D01*
X630034Y169837D01*
X630327Y169536D01*
D02*
G37*
G36*
X649810Y166083D02*
X649640Y166022D01*
X649490Y165922D01*
X649360Y165781D01*
X649250Y165600D01*
X649160Y165378D01*
X649090Y165117D01*
X649071Y165003D01*
X649090Y164889D01*
X649160Y164629D01*
X649250Y164409D01*
X649360Y164229D01*
X649490Y164089D01*
X649640Y163989D01*
X649810Y163929D01*
X650000Y163909D01*
X646000D01*
X646190Y163929D01*
X646360Y163989D01*
X646510Y164089D01*
X646640Y164229D01*
X646750Y164409D01*
X646840Y164629D01*
X646910Y164889D01*
X646929Y165003D01*
X646910Y165117D01*
X646840Y165378D01*
X646750Y165600D01*
X646640Y165781D01*
X646510Y165922D01*
X646360Y166022D01*
X646190Y166083D01*
X646000Y166103D01*
X650000D01*
X649810Y166083D01*
D02*
G37*
G36*
X466200Y163340D02*
X466667Y162940D01*
X466892Y162778D01*
X467111Y162640D01*
X467325Y162528D01*
X467533Y162440D01*
X467710Y162385D01*
X467793Y162408D01*
X467905Y162453D01*
X467996Y162508D01*
X468066Y162573D01*
X468117Y162648D01*
X468147Y162733D01*
X468157Y162828D01*
Y160828D01*
X468147Y160923D01*
X468117Y161008D01*
X468066Y161083D01*
X467996Y161148D01*
X467905Y161203D01*
X467793Y161248D01*
X467710Y161270D01*
X467533Y161215D01*
X467325Y161128D01*
X467111Y161015D01*
X466892Y160878D01*
X466667Y160715D01*
X466436Y160528D01*
X465958Y160078D01*
Y163578D01*
X466200Y163340D01*
D02*
G37*
G36*
X489771Y158081D02*
X489686Y158051D01*
X489611Y158001D01*
X489546Y157931D01*
X489491Y157841D01*
X489446Y157731D01*
X489411Y157601D01*
X489386Y157451D01*
X489371Y157281D01*
X489366Y157091D01*
X488366D01*
X488361Y157281D01*
X488346Y157451D01*
X488321Y157601D01*
X488286Y157731D01*
X488241Y157841D01*
X488186Y157931D01*
X488121Y158001D01*
X488046Y158051D01*
X487961Y158081D01*
X487866Y158091D01*
X489866D01*
X489771Y158081D01*
D02*
G37*
G36*
X482905D02*
X482820Y158051D01*
X482745Y158001D01*
X482680Y157931D01*
X482625Y157841D01*
X482580Y157731D01*
X482545Y157601D01*
X482520Y157451D01*
X482505Y157281D01*
X482500Y157091D01*
X481500D01*
X481495Y157281D01*
X481480Y157451D01*
X481455Y157601D01*
X481420Y157731D01*
X481375Y157841D01*
X481320Y157931D01*
X481255Y158001D01*
X481180Y158051D01*
X481095Y158081D01*
X481000Y158091D01*
X483000D01*
X482905Y158081D01*
D02*
G37*
G36*
X649503Y154218D02*
X649511Y154091D01*
X650645D01*
X650428Y154061D01*
X650233Y153971D01*
X650061Y153821D01*
X649912Y153611D01*
X649786Y153341D01*
X649683Y153011D01*
X649665Y152922D01*
X649703Y152847D01*
X649750Y152785D01*
X649637D01*
X649603Y152621D01*
X649546Y152171D01*
X649511Y151661D01*
X649500Y151091D01*
X646500D01*
X646489Y151661D01*
X646397Y152621D01*
X646363Y152785D01*
X646250D01*
X646298Y152847D01*
X646335Y152922D01*
X646317Y153011D01*
X646214Y153341D01*
X646088Y153611D01*
X645939Y153821D01*
X645767Y153971D01*
X645572Y154061D01*
X645355Y154091D01*
X646492D01*
X646497Y154218D01*
X646500Y154500D01*
X649500D01*
X649503Y154218D01*
D02*
G37*
G36*
X472639Y147858D02*
X472640Y147844D01*
X473134D01*
X473039Y147834D01*
X472954Y147803D01*
X472879Y147752D01*
X472814Y147682D01*
X472759Y147591D01*
X472714Y147479D01*
X472704Y147441D01*
X472714Y147403D01*
X472759Y147291D01*
X472814Y147200D01*
X472879Y147129D01*
X472954Y147079D01*
X473039Y147048D01*
X473134Y147038D01*
X472640D01*
X472639Y147024D01*
X472634Y146832D01*
X471634D01*
X471629Y147024D01*
X471628Y147038D01*
X471134D01*
X471229Y147048D01*
X471314Y147079D01*
X471389Y147129D01*
X471454Y147200D01*
X471509Y147291D01*
X471554Y147403D01*
X471564Y147441D01*
X471554Y147479D01*
X471509Y147591D01*
X471454Y147682D01*
X471389Y147752D01*
X471314Y147803D01*
X471229Y147834D01*
X471134Y147844D01*
X471628D01*
X471629Y147858D01*
X471634Y148050D01*
X472634D01*
X472639Y147858D01*
D02*
G37*
G36*
X469182Y147250D02*
X470107Y147179D01*
X470162Y147153D01*
X470173Y147123D01*
X470141Y147089D01*
X470065Y147050D01*
X469879Y145752D01*
X469882Y145847D01*
X469861Y145932D01*
X469818Y146007D01*
X469752Y146072D01*
X469662Y146127D01*
X469549Y146172D01*
X469413Y146207D01*
X469254Y146232D01*
X469072Y146247D01*
X468867Y146252D01*
Y147252D01*
X469182Y147250D01*
D02*
G37*
G36*
X467644Y147657D02*
X467674Y147572D01*
X467725Y147497D01*
X467795Y147432D01*
X467886Y147377D01*
X467998Y147332D01*
X468129Y147297D01*
X468281Y147272D01*
X468453Y147257D01*
X468645Y147252D01*
Y146252D01*
X468453Y146247D01*
X468281Y146232D01*
X468129Y146207D01*
X467998Y146172D01*
X467886Y146127D01*
X467795Y146072D01*
X467725Y146007D01*
X467674Y145932D01*
X467644Y145847D01*
X467633Y145752D01*
Y147752D01*
X467644Y147657D01*
D02*
G37*
G36*
X484753Y142453D02*
X484768Y142281D01*
X484793Y142129D01*
X484828Y141998D01*
X484873Y141886D01*
X484928Y141795D01*
X484993Y141725D01*
X485068Y141674D01*
X485153Y141644D01*
X485248Y141633D01*
X483248D01*
X483343Y141644D01*
X483428Y141674D01*
X483503Y141725D01*
X483568Y141795D01*
X483623Y141886D01*
X483668Y141998D01*
X483703Y142129D01*
X483728Y142281D01*
X483743Y142453D01*
X483748Y142646D01*
X484748D01*
X484753Y142453D01*
D02*
G37*
G36*
X478257D02*
X478272Y142281D01*
X478297Y142129D01*
X478332Y141998D01*
X478377Y141886D01*
X478432Y141795D01*
X478497Y141725D01*
X478572Y141674D01*
X478657Y141644D01*
X478752Y141633D01*
X476752D01*
X476847Y141644D01*
X476932Y141674D01*
X477007Y141725D01*
X477072Y141795D01*
X477127Y141886D01*
X477172Y141998D01*
X477207Y142129D01*
X477232Y142281D01*
X477247Y142453D01*
X477252Y142646D01*
X478252D01*
X478257Y142453D01*
D02*
G37*
G36*
X476103Y138000D02*
X476093Y138095D01*
X476062Y138180D01*
X476012Y138255D01*
X475941Y138320D01*
X475850Y138375D01*
X475738Y138420D01*
X475607Y138455D01*
X475455Y138480D01*
X475283Y138495D01*
X475091Y138500D01*
Y139500D01*
X475283Y139505D01*
X475455Y139520D01*
X475607Y139545D01*
X475738Y139580D01*
X475850Y139625D01*
X475941Y139680D01*
X476012Y139745D01*
X476062Y139820D01*
X476093Y139905D01*
X476103Y140000D01*
Y138000D01*
D02*
G37*
G36*
X473028Y140513D02*
X473495Y140112D01*
X473720Y139950D01*
X473939Y139813D01*
X474153Y139700D01*
X474360Y139612D01*
X474563Y139550D01*
X474759Y139513D01*
X474950Y139500D01*
Y138500D01*
X474759Y138488D01*
X474563Y138450D01*
X474360Y138388D01*
X474153Y138300D01*
X473939Y138188D01*
X473720Y138050D01*
X473495Y137888D01*
X473264Y137700D01*
X472785Y137250D01*
Y140750D01*
X473028Y140513D01*
D02*
G37*
%LPC*%
G36*
X446500Y466004D02*
X443342D01*
Y463831D01*
X446500D01*
Y466004D01*
D02*
G37*
G36*
X441709Y465575D02*
X439437D01*
Y463500D01*
X441709D01*
Y465575D01*
D02*
G37*
G36*
X446500Y462921D02*
X443342D01*
Y460748D01*
X446500D01*
Y462921D01*
D02*
G37*
G36*
X441709Y462500D02*
X439437D01*
Y460425D01*
X441709D01*
Y462500D01*
D02*
G37*
G36*
X427658Y459252D02*
X424500D01*
Y457079D01*
X427658D01*
Y459252D01*
D02*
G37*
G36*
X430563Y458760D02*
X428291D01*
Y456685D01*
X430563D01*
Y458760D01*
D02*
G37*
G36*
X428252Y453657D02*
X426079D01*
Y450500D01*
X428252D01*
Y453657D01*
D02*
G37*
G36*
X251252Y332500D02*
X249079D01*
Y329343D01*
X251252D01*
Y332500D01*
D02*
G37*
G36*
X246921D02*
X244748D01*
Y329343D01*
X246921D01*
Y332500D01*
D02*
G37*
G36*
X250835Y325646D02*
X248760D01*
Y323374D01*
X250835D01*
Y325646D01*
D02*
G37*
G36*
X247760D02*
X245685D01*
Y323374D01*
X247760D01*
Y325646D01*
D02*
G37*
G36*
X462413Y278004D02*
X456500D01*
Y272091D01*
X456632D01*
X457871Y272337D01*
X459038Y272820D01*
X460088Y273522D01*
X460982Y274416D01*
X461684Y275466D01*
X462167Y276633D01*
X462413Y277872D01*
Y278004D01*
D02*
G37*
G36*
X455500D02*
X449587D01*
Y277872D01*
X449833Y276633D01*
X450316Y275466D01*
X451018Y274416D01*
X451912Y273522D01*
X452962Y272820D01*
X454129Y272337D01*
X455368Y272091D01*
X455500D01*
Y278004D01*
D02*
G37*
G36*
X463283Y259823D02*
X455500D01*
Y254500D01*
X463283D01*
Y259823D01*
D02*
G37*
G36*
X454500D02*
X446716D01*
Y254500D01*
X454500D01*
Y259823D01*
D02*
G37*
%LPD*%
D12*
X568366Y282874D02*
X574126D01*
X582234Y283000D02*
X584101Y281133D01*
X574126Y282874D02*
X586000Y271000D01*
X588261Y281133D02*
X590002Y282874D01*
X584101Y281133D02*
X588261D01*
X586000Y270626D02*
Y271000D01*
X499000Y160000D02*
Y210000D01*
X559276Y270276D02*
X568366D01*
X499000Y210000D02*
X559276Y270276D01*
X495000Y156000D02*
X499000Y160000D01*
X503000Y205000D02*
X561976Y263976D01*
X497000Y152000D02*
X503000Y158000D01*
Y205000D01*
X561976Y263976D02*
X568366D01*
X577000Y291760D02*
X577126Y291634D01*
X575752Y312248D02*
X577000D01*
X568842Y338828D02*
X569752Y337917D01*
X571669Y336000D01*
X562000Y360000D02*
X599000D01*
X550000Y290449D02*
Y348000D01*
X562000Y360000D01*
Y356000D02*
X603000D01*
X554000Y292000D02*
Y348000D01*
X562000Y356000D01*
X550000Y290449D02*
X560724Y279724D01*
X496925Y152000D02*
X497000D01*
X485720Y148721D02*
X499720D01*
X500000Y149000D01*
X488866Y151279D02*
X496205D01*
X496925Y152000D01*
X484721Y151279D02*
X488866D01*
X586500Y240500D02*
X586575Y240575D01*
X601598Y258366D02*
X603000Y256965D01*
X577126Y252965D02*
X579000Y251091D01*
X577126Y252965D02*
Y258366D01*
X574000Y249000D02*
Y258343D01*
X573976Y258366D02*
X574000Y258343D01*
X590002Y282874D02*
X601634D01*
X578500Y283000D02*
X582234D01*
X585000Y285000D02*
X586500D01*
X583425Y286575D02*
Y291634D01*
Y286575D02*
X585000Y285000D01*
X258000Y349000D02*
X258248Y348752D01*
X203000Y338000D02*
Y340000D01*
X262893Y285107D02*
Y285107D01*
X377000Y385000D02*
X381752D01*
X489000Y166248D02*
Y172000D01*
X482000Y166248D02*
Y172000D01*
X464172Y161828D02*
X471000D01*
Y139000D02*
X477752D01*
X471000Y168172D02*
Y175000D01*
X493000Y146000D02*
X495000Y144000D01*
X402172Y385000D02*
X408000D01*
X554000Y292000D02*
X554090D01*
X493172Y341000D02*
X499000D01*
X423752Y466000D02*
X424492Y466740D01*
X489028Y146000D02*
X493000D01*
X488866Y146161D02*
X489028Y146000D01*
X482000Y154000D02*
Y159752D01*
Y154000D02*
X484721Y151279D01*
X664000Y238000D02*
X671000D01*
X626000Y276000D02*
X664000Y238000D01*
X495000Y162000D02*
Y214000D01*
X560724Y279724D02*
X568366D01*
X492618Y159618D02*
X495000Y162000D01*
Y214000D02*
X560724Y279724D01*
X488866Y159618D02*
X492618D01*
X520000Y295828D02*
X520828Y295000D01*
X488866Y153839D02*
Y159618D01*
X484248Y139000D02*
Y147248D01*
X485720Y148721D01*
X472134Y153839D02*
X475161D01*
X477752Y151248D01*
Y139000D02*
Y151248D01*
X472134Y146161D02*
Y148721D01*
Y151279D01*
X471543Y146752D02*
X472134Y146161D01*
X465000Y146752D02*
X471543D01*
X465000Y153248D02*
X465590Y153839D01*
X472134D01*
X520000Y286307D02*
X522000Y284307D01*
X519172Y295000D02*
X520000Y295828D01*
X504000Y295752D02*
X504752Y295000D01*
X508828Y322000D02*
X510828Y320000D01*
X485752Y313248D02*
X487000Y312000D01*
X477000Y313248D02*
X477248Y313496D01*
X456000Y321496D02*
X456504Y322000D01*
X430571Y459752D02*
X431063Y459260D01*
X424000Y459752D02*
X430571D01*
X428752Y456949D02*
X431063Y459260D01*
X428752Y450000D02*
Y456949D01*
X447000Y453752D02*
X447248Y454000D01*
X438937Y463000D02*
X441689Y460248D01*
X447000D01*
Y466504D01*
X580331Y336000D02*
X581752Y337421D01*
X627881Y167816D02*
X627945Y167752D01*
X648000D01*
X252000Y315000D02*
X252752Y314248D01*
X244520Y315000D02*
X244752Y314768D01*
X251248Y307000D02*
X252000Y307752D01*
X239252Y396921D02*
X248000Y388173D01*
D25*
X522000Y284307D02*
D03*
Y267693D02*
D03*
D26*
X648000Y155752D02*
D03*
Y162248D02*
D03*
X577000Y312248D02*
D03*
Y305752D02*
D03*
X465000Y153248D02*
D03*
Y146752D02*
D03*
X497000Y295752D02*
D03*
Y302248D02*
D03*
X489000Y166248D02*
D03*
Y159752D02*
D03*
X424000Y466248D02*
D03*
Y459752D02*
D03*
X261000Y307752D02*
D03*
Y314248D02*
D03*
X648000Y186248D02*
D03*
Y179752D02*
D03*
X482000Y166248D02*
D03*
Y159752D02*
D03*
X447000Y473000D02*
D03*
Y466504D02*
D03*
X477000Y306752D02*
D03*
Y313248D02*
D03*
X648000Y174248D02*
D03*
Y167752D02*
D03*
X447000Y460248D02*
D03*
Y453752D02*
D03*
D27*
X473752Y352000D02*
D03*
X480248D02*
D03*
X251752Y333000D02*
D03*
X258248D02*
D03*
X477752Y139000D02*
D03*
X484248D02*
D03*
X487000Y352000D02*
D03*
X493496D02*
D03*
X435248Y450000D02*
D03*
X428752D02*
D03*
X244752Y307000D02*
D03*
X251248D02*
D03*
X569752Y346000D02*
D03*
X576248D02*
D03*
X588248D02*
D03*
X581752D02*
D03*
X470752Y322000D02*
D03*
X477248D02*
D03*
X511248Y295000D02*
D03*
X504752D02*
D03*
X381752Y385000D02*
D03*
X388248D02*
D03*
X237752Y333000D02*
D03*
X244248D02*
D03*
D30*
X520000Y302172D02*
D03*
Y295828D02*
D03*
X471000Y168172D02*
D03*
Y161828D02*
D03*
X562000Y345172D02*
D03*
Y338828D02*
D03*
D31*
X493172Y341000D02*
D03*
X486828D02*
D03*
X493345Y312000D02*
D03*
X487000D02*
D03*
X517172Y320000D02*
D03*
X510828D02*
D03*
X559828Y301000D02*
D03*
X566172D02*
D03*
X588828Y315000D02*
D03*
X595172D02*
D03*
X402172Y385000D02*
D03*
X395828D02*
D03*
D44*
X401071Y375000D02*
D03*
D45*
X384929D02*
D03*
D48*
X681000Y238000D02*
D03*
D49*
Y248000D02*
D03*
Y258000D02*
D03*
X671000Y238000D02*
D03*
Y248000D02*
D03*
Y258000D02*
D03*
D53*
X172181Y396921D02*
D03*
X193181D02*
D03*
D54*
X172181Y387079D02*
D03*
X193181D02*
D03*
D60*
X456000Y278504D02*
D03*
Y300000D02*
D03*
D61*
Y321496D02*
D03*
D62*
X455000Y233724D02*
X468724D01*
X455000Y254000D02*
X456000Y255000D01*
Y278504D01*
X633252Y465252D02*
Y474000D01*
X601000Y461000D02*
X629000D01*
X633252Y465252D01*
X590000Y461000D02*
X601000D01*
X566000Y485000D02*
X590000Y461000D01*
X522157Y485000D02*
X566000D01*
X501158Y464000D02*
X522157Y485000D01*
D63*
X588500Y278000D02*
X590000D01*
X575000Y266000D02*
Y277000D01*
X590000Y278000D02*
X591724Y279724D01*
X601634D01*
X615724Y270276D02*
X653445Y232555D01*
Y219491D02*
Y232555D01*
X601634Y270276D02*
X615724D01*
X577000Y291760D02*
Y305752D01*
X591931Y299931D02*
X591931D01*
X593000Y301000D02*
X616998D01*
X591931Y299931D02*
X593000Y301000D01*
X589724Y297724D02*
X590793Y298793D01*
X589724Y291634D02*
Y297724D01*
X594000Y298000D02*
X606000D01*
X592874Y296874D02*
X594000Y298000D01*
X590793Y298793D02*
X591931Y299931D01*
X580000Y231000D02*
X583000D01*
X589724Y237724D01*
Y258366D01*
X586575Y240575D02*
Y258366D01*
X572976Y263976D02*
X575000Y266000D01*
X568366Y263976D02*
X572976D01*
X591000Y274000D02*
X593575Y276575D01*
X601634D01*
X590000Y231000D02*
X592874Y233874D01*
Y258366D01*
X493581Y352085D02*
X504915D01*
X531000Y326000D01*
X493496Y352000D02*
X493581Y352085D01*
X586575Y303610D02*
X588965Y306000D01*
X586575Y291634D02*
Y303610D01*
X592874Y291634D02*
Y296874D01*
D64*
X580331Y326000D02*
X587000D01*
X471000Y409000D02*
X503000Y377000D01*
X522000Y261000D02*
Y267693D01*
X597035Y306000D02*
X602000D01*
X595172Y315000D02*
X601000D01*
X193181Y396921D02*
X239252D01*
D65*
X564976Y286024D02*
X568366D01*
X558965Y292035D02*
X564976Y286024D01*
X558965Y292035D02*
Y293000D01*
X572610D02*
X573976Y291634D01*
X567035Y293000D02*
X572610D01*
X435248Y448752D02*
X439260Y444740D01*
X435248Y448752D02*
Y450000D01*
X439260Y444740D02*
X450260D01*
X546000Y349000D01*
X559828Y311828D02*
X560000Y312000D01*
X261000Y287000D02*
X262893Y285107D01*
X261000Y287000D02*
Y307752D01*
X401071Y375000D02*
X490000D01*
X542000Y323000D01*
X558965Y300137D02*
X559828Y301000D01*
X601634Y263976D02*
X605024D01*
X611035Y257965D01*
Y257000D02*
Y257965D01*
X590126Y267126D02*
X601634D01*
Y286024D02*
Y290790D01*
X500000Y322000D02*
X508828D01*
X596024Y258366D02*
X601598D01*
X648000Y162248D02*
Y167752D01*
Y174248D02*
Y179752D01*
X643248Y174248D02*
X648000D01*
X641816Y172816D02*
X643248Y174248D01*
X637881Y172816D02*
X641816D01*
D66*
X603000Y251500D02*
Y256965D01*
X258248Y333000D02*
Y348752D01*
X248260Y322874D02*
Y328260D01*
X251752Y331752D02*
Y333000D01*
X248260Y328260D02*
X251752Y331752D01*
X395828Y380243D02*
X401071Y375000D01*
X395828Y380243D02*
Y385000D01*
X388248D02*
X395828D01*
X244248Y333000D02*
X251752D01*
D67*
X567035Y293000D02*
Y301000D01*
X571669Y316331D02*
Y326000D01*
Y316331D02*
X575752Y312248D01*
X562000Y338828D02*
X568842D01*
X477000Y288000D02*
Y302000D01*
X447000Y473000D02*
X448000Y474000D01*
X447000Y453752D02*
X461736D01*
X461984Y454000D01*
X244520Y307232D02*
X244752Y307000D01*
X244520Y307232D02*
Y315000D01*
X237752Y333000D02*
X238000Y333248D01*
Y349000D01*
X596000Y399000D02*
X599500Y395500D01*
X591000Y399000D02*
X596000D01*
X203000Y338000D02*
X207752Y333248D01*
X238000D01*
X588248Y346000D02*
X594000D01*
X648000Y151000D02*
Y155752D01*
X239000Y307000D02*
X244752D01*
X588965Y306000D02*
Y318965D01*
X593000Y323000D01*
X562000Y324000D02*
Y338828D01*
X558965Y293000D02*
Y300137D01*
X477000Y302000D02*
Y306752D01*
X520000Y302172D02*
Y308000D01*
X469000Y352000D02*
X473752D01*
X418000Y466000D02*
X423752D01*
X648000Y186248D02*
Y192000D01*
X520828Y295000D02*
X528000D01*
X479752Y278504D02*
X497000Y295752D01*
X456000Y278504D02*
X479752D01*
X520000Y286307D02*
Y295828D01*
X511248Y295000D02*
X519172D01*
X497000Y295752D02*
X504000D01*
X477000Y313248D02*
X485752D01*
X477248Y313496D02*
Y322000D01*
X456504D02*
X470752D01*
X480248Y352000D02*
X487000D01*
X486828Y341000D02*
X487000Y341172D01*
Y352000D01*
X424492Y466740D02*
X431063D01*
X448000Y474000D02*
X461984D01*
X581752Y337421D02*
Y346000D01*
X576248D02*
X581752D01*
X569752Y337917D02*
Y346000D01*
X252752Y314248D02*
X261000D01*
X252000Y307752D02*
Y315000D01*
D69*
X566172Y301000D02*
X569000Y303828D01*
Y308000D01*
X564000Y348000D02*
Y351000D01*
X562000Y346000D02*
X564000Y348000D01*
X562000Y345172D02*
Y346000D01*
X559828Y301000D02*
Y311828D01*
X461984Y474000D02*
Y480984D01*
X510828Y312828D02*
Y320000D01*
X611035Y257000D02*
X616000D01*
X517172Y320000D02*
X523000D01*
D72*
X139000Y263000D02*
D03*
Y273000D02*
D03*
D73*
Y283000D02*
D03*
D74*
X240937Y455524D02*
D03*
Y148437D02*
D03*
X548024Y455524D02*
D03*
Y148437D02*
D03*
D75*
X663000Y308000D02*
D03*
Y424500D02*
D03*
X135000Y449000D02*
D03*
D76*
X663000Y333000D02*
D03*
Y449500D02*
D03*
X135000Y424000D02*
D03*
D77*
X633252Y488221D02*
D03*
D78*
X614748Y442945D02*
D03*
Y415386D02*
D03*
Y488221D02*
D03*
D79*
X627881Y177816D02*
D03*
X637881Y162816D02*
D03*
X627881Y167816D02*
D03*
X637881Y172816D02*
D03*
Y182816D02*
D03*
X627881Y187816D02*
D03*
X637881Y152816D02*
D03*
X627881Y157816D02*
D03*
D80*
X663000Y193000D02*
D03*
X663500Y148000D02*
D03*
X678576Y120076D02*
D03*
Y482281D02*
D03*
X119521Y120076D02*
D03*
Y482281D02*
D03*
D81*
X130000Y326472D02*
D03*
Y385528D02*
D03*
D82*
X252000Y416000D02*
D03*
X200000Y444000D02*
D03*
X228000Y414000D02*
D03*
X204000Y376000D02*
D03*
X160000D02*
D03*
X181485Y378056D02*
D03*
X182000Y324000D02*
D03*
X176000Y292000D02*
D03*
X166000Y242000D02*
D03*
X178000Y244000D02*
D03*
X172000Y270000D02*
D03*
X194000Y272000D02*
D03*
X220000Y288000D02*
D03*
X210000Y278000D02*
D03*
X216000Y304000D02*
D03*
Y322000D02*
D03*
X200000Y294000D02*
D03*
X184000Y282000D02*
D03*
X666834Y226638D02*
D03*
X635808Y220052D02*
D03*
X664000Y168000D02*
D03*
X634000Y204000D02*
D03*
X580000Y136000D02*
D03*
Y158000D02*
D03*
X440000Y142000D02*
D03*
X438000Y162000D02*
D03*
X452000Y176000D02*
D03*
X506000Y134000D02*
D03*
X514000Y156000D02*
D03*
X348000Y374000D02*
D03*
X322000Y354000D02*
D03*
X320000Y318000D02*
D03*
Y286000D02*
D03*
Y260000D02*
D03*
X682000Y192000D02*
D03*
Y164000D02*
D03*
Y142000D02*
D03*
X654000Y116000D02*
D03*
X630000D02*
D03*
X604000D02*
D03*
X580000D02*
D03*
X556000D02*
D03*
X528000D02*
D03*
X502000D02*
D03*
X478000D02*
D03*
X452000D02*
D03*
X424000D02*
D03*
X398000D02*
D03*
X370000D02*
D03*
X342000D02*
D03*
X314000D02*
D03*
X286000D02*
D03*
X260000D02*
D03*
X238000D02*
D03*
X218000D02*
D03*
X202000Y150000D02*
D03*
Y134000D02*
D03*
X170000Y170000D02*
D03*
X152000D02*
D03*
X116000Y160000D02*
D03*
X122000Y216000D02*
D03*
X124000Y252000D02*
D03*
X116000Y274000D02*
D03*
Y296000D02*
D03*
Y318000D02*
D03*
Y344000D02*
D03*
Y368000D02*
D03*
Y392000D02*
D03*
Y416000D02*
D03*
Y440000D02*
D03*
Y460000D02*
D03*
X138000Y480000D02*
D03*
X160000D02*
D03*
X188000D02*
D03*
X214000D02*
D03*
X258000D02*
D03*
X290000D02*
D03*
X316000D02*
D03*
X344000D02*
D03*
X372000D02*
D03*
X404000D02*
D03*
X436000D02*
D03*
X514000Y432000D02*
D03*
X484000Y428000D02*
D03*
X502000Y410000D02*
D03*
X522000Y400000D02*
D03*
X532000Y412000D02*
D03*
X544000Y426000D02*
D03*
X528000Y472000D02*
D03*
X578000Y450000D02*
D03*
X652000Y476000D02*
D03*
X642000Y448000D02*
D03*
X676000D02*
D03*
X678000Y424000D02*
D03*
X618000Y400000D02*
D03*
X652000Y398000D02*
D03*
X678000D02*
D03*
X666000Y380000D02*
D03*
X636000Y350000D02*
D03*
X616000Y344000D02*
D03*
X602000Y334000D02*
D03*
X612000Y318000D02*
D03*
X646000D02*
D03*
X678000Y328000D02*
D03*
Y308000D02*
D03*
X636000Y284000D02*
D03*
X656000Y264000D02*
D03*
X562000Y250000D02*
D03*
X534000Y272000D02*
D03*
X498000Y252000D02*
D03*
Y276000D02*
D03*
X478000Y264000D02*
D03*
X440000Y300000D02*
D03*
Y322000D02*
D03*
X470000Y340000D02*
D03*
X450000D02*
D03*
Y364000D02*
D03*
X482000D02*
D03*
X601000Y461000D02*
D03*
D83*
X575000Y277000D02*
D03*
X588500Y278000D02*
D03*
X495000Y156000D02*
D03*
X500000Y149000D02*
D03*
X606000Y298000D02*
D03*
X616998Y301000D02*
D03*
X580000Y231000D02*
D03*
X586500Y240500D02*
D03*
X574000Y249000D02*
D03*
X578500Y283000D02*
D03*
X586500Y285000D02*
D03*
X591000Y274000D02*
D03*
X586000Y270626D02*
D03*
X599000Y360000D02*
D03*
X591000Y399000D02*
D03*
X590000Y231000D02*
D03*
X546000Y349000D02*
D03*
X262893Y285107D02*
D03*
X579000Y251091D02*
D03*
X603000Y356000D02*
D03*
X542000Y323000D02*
D03*
X531000Y326000D02*
D03*
X626000Y276000D02*
D03*
X554090Y292000D02*
D03*
X590126Y267126D02*
D03*
X653445Y219491D02*
D03*
X601634Y290790D02*
D03*
X528000Y295000D02*
D03*
X599500Y395500D02*
D03*
D84*
X198685Y181315D02*
D03*
X122000Y202000D02*
D03*
X203000Y340000D02*
D03*
X212000Y224000D02*
D03*
X468724Y233724D02*
D03*
X124158Y237842D02*
D03*
X169000Y256000D02*
D03*
X197000Y313000D02*
D03*
X175000Y467000D02*
D03*
D85*
X587000Y326000D02*
D03*
X603000Y251500D02*
D03*
X579000Y197000D02*
D03*
X606000Y397000D02*
D03*
X482000Y330000D02*
D03*
X477000Y288000D02*
D03*
X167000Y119000D02*
D03*
Y128000D02*
D03*
X155000Y271000D02*
D03*
X164000Y283000D02*
D03*
X564000Y351000D02*
D03*
X594000Y346000D02*
D03*
X560000Y312000D02*
D03*
X648000Y151000D02*
D03*
X191000Y156000D02*
D03*
X182000Y161000D02*
D03*
X239000Y307000D02*
D03*
X461984Y480984D02*
D03*
X471000Y409000D02*
D03*
X503000Y377000D02*
D03*
X510828Y312828D02*
D03*
X377000Y385000D02*
D03*
X593000Y323000D02*
D03*
X623248Y361099D02*
D03*
X562000Y324000D02*
D03*
X522000Y261000D02*
D03*
X600307Y147693D02*
D03*
X604828Y212828D02*
D03*
X489000Y172000D02*
D03*
X482000D02*
D03*
X464172Y161828D02*
D03*
X458248Y153248D02*
D03*
X471000Y139000D02*
D03*
X569000Y308000D02*
D03*
X471000Y175000D02*
D03*
X495000Y144000D02*
D03*
X617000Y206000D02*
D03*
X616693Y191307D02*
D03*
X408000Y385000D02*
D03*
X602000Y306000D02*
D03*
X601000Y315000D02*
D03*
X616000Y257000D02*
D03*
X520000Y308000D02*
D03*
X523000Y320000D02*
D03*
X499000Y341000D02*
D03*
X469000Y352000D02*
D03*
X418000Y466000D02*
D03*
X576000Y375000D02*
D03*
Y367000D02*
D03*
X594134Y489134D02*
D03*
X631000Y390000D02*
D03*
X679307Y346307D02*
D03*
X642000Y297000D02*
D03*
X679307Y292693D02*
D03*
X686000Y217000D02*
D03*
X648000Y192000D02*
D03*
X160000Y144000D02*
D03*
X138000Y168000D02*
D03*
X170000Y233000D02*
D03*
X211000Y411000D02*
D03*
D87*
X472134Y146161D02*
D03*
Y148721D02*
D03*
Y151279D02*
D03*
X488866Y148721D02*
D03*
Y151279D02*
D03*
Y153839D02*
D03*
X472134D02*
D03*
X488866Y146161D02*
D03*
D88*
X461984Y474000D02*
D03*
Y454000D02*
D03*
D89*
X501158Y464000D02*
D03*
D90*
X238000Y349000D02*
D03*
X258000D02*
D03*
D91*
X248000Y388173D02*
D03*
D92*
X611035Y257000D02*
D03*
X602965D02*
D03*
X558965Y293000D02*
D03*
X567035D02*
D03*
X588965Y306000D02*
D03*
X597035D02*
D03*
D93*
X614748Y474000D02*
D03*
X633252D02*
D03*
D94*
X244520Y315000D02*
D03*
X252000D02*
D03*
X248260Y322874D02*
D03*
D95*
X431063Y466740D02*
D03*
Y459260D02*
D03*
X438937Y463000D02*
D03*
D96*
X455000Y233724D02*
D03*
Y254000D02*
D03*
D97*
X489173Y325740D02*
D03*
X500000Y322000D02*
D03*
Y329480D02*
D03*
X489173D02*
D03*
Y322000D02*
D03*
D98*
X586575Y291634D02*
D03*
X573976D02*
D03*
X596024Y258366D02*
D03*
X577126Y291634D02*
D03*
X580276D02*
D03*
X583425D02*
D03*
X589724D02*
D03*
X592874D02*
D03*
X596024D02*
D03*
X592874Y258366D02*
D03*
X589724D02*
D03*
X586575D02*
D03*
X583425D02*
D03*
X580276D02*
D03*
X577126D02*
D03*
X573976D02*
D03*
D99*
X601634Y263976D02*
D03*
X568366Y286024D02*
D03*
X601634D02*
D03*
Y282874D02*
D03*
Y279724D02*
D03*
Y276575D02*
D03*
Y273425D02*
D03*
Y270276D02*
D03*
Y267126D02*
D03*
X568366Y263976D02*
D03*
Y267126D02*
D03*
Y270276D02*
D03*
Y273425D02*
D03*
Y276575D02*
D03*
Y279724D02*
D03*
Y282874D02*
D03*
D100*
X580331Y326000D02*
D03*
X571669Y336000D02*
D03*
Y326000D02*
D03*
X580331Y336000D02*
D03*
D101*
X482000Y328000D02*
Y330000D01*
Y328000D02*
X484260Y325740D01*
X489173D01*
X493345Y312000D02*
X497000Y308345D01*
Y302248D02*
Y308345D01*
X486828Y334172D02*
Y341000D01*
Y334172D02*
X489173Y331827D01*
Y329480D02*
Y331827D01*
X477248Y322000D02*
X489173D01*
X493345Y312000D02*
X495000Y313655D01*
Y327000D01*
X497480Y329480D01*
X500000D01*
D102*
X614748Y474000D02*
Y488221D01*
X633252Y474000D02*
Y488221D01*
M02*
