G04*
G04 #@! TF.GenerationSoftware,Altium Limited,Altium Designer,24.6.1 (21)*
G04*
G04 Layer_Physical_Order=2*
G04 Layer_Color=36540*
%FSLAX25Y25*%
%MOIN*%
G70*
G04*
G04 #@! TF.SameCoordinates,65BBE5AF-797C-4DEE-A542-627196F68B12*
G04*
G04*
G04 #@! TF.FilePolarity,Positive*
G04*
G01*
G75*
%ADD44C,0.05315*%
%ADD45R,0.05315X0.05315*%
%ADD48R,0.06181X0.06181*%
%ADD49C,0.06181*%
%ADD53R,0.05512X0.05512*%
%ADD54C,0.05512*%
%ADD60C,0.10827*%
%ADD61R,0.10827X0.10827*%
%ADD62C,0.10000*%
%ADD64C,0.05000*%
%ADD72C,0.04598*%
%ADD74C,0.39370*%
%ADD75R,0.07087X0.07087*%
%ADD76C,0.07087*%
%ADD78C,0.06496*%
%ADD79C,0.05906*%
%ADD80C,0.19685*%
%ADD81C,0.08858*%
%ADD82C,0.06000*%
%ADD83C,0.03000*%
%ADD84C,0.10000*%
%ADD85C,0.05000*%
%ADD86C,0.07500*%
G36*
X668572Y491318D02*
X669141Y489443D01*
X668447Y488488D01*
X667601Y486827D01*
X667025Y485054D01*
X666733Y483213D01*
Y481349D01*
X667025Y479508D01*
X667601Y477735D01*
X668447Y476074D01*
X669543Y474566D01*
X670861Y473248D01*
X672369Y472152D01*
X674030Y471306D01*
X675803Y470730D01*
X677644Y470438D01*
X679508D01*
X681349Y470730D01*
X683122Y471306D01*
X684783Y472152D01*
X684837Y472192D01*
X687837Y470663D01*
Y262339D01*
X685876Y261478D01*
X684837Y261362D01*
X684126Y262073D01*
X682965Y262744D01*
X681670Y263090D01*
X680330D01*
X679035Y262744D01*
X677874Y262073D01*
X677216Y261415D01*
X676298Y261133D01*
X673619Y261166D01*
X673512Y261273D01*
X672579Y261812D01*
X671538Y262090D01*
X671500D01*
Y258000D01*
X671000D01*
Y257500D01*
X666910D01*
Y257462D01*
X667026Y257026D01*
X666104Y255173D01*
X665107Y254026D01*
X621789D01*
X621215Y254394D01*
X619531Y256500D01*
X616000D01*
Y257000D01*
X615500D01*
Y260490D01*
X614649Y260262D01*
X613851Y259801D01*
X613199Y259149D01*
X613026Y258849D01*
X611197Y258929D01*
X610026Y259369D01*
Y269747D01*
X631140Y290860D01*
X631621Y291487D01*
X631923Y292217D01*
X632026Y293000D01*
Y344225D01*
X633221Y345232D01*
X635026Y346120D01*
X635473Y346000D01*
X635500D01*
Y350000D01*
Y354000D01*
X635473D01*
X635026Y353880D01*
X633221Y354768D01*
X632026Y355775D01*
Y364000D01*
X632026Y364000D01*
X631923Y364783D01*
X631621Y365513D01*
X631140Y366140D01*
X629140Y368140D01*
X628513Y368620D01*
X627783Y368923D01*
X627000Y369026D01*
X621000D01*
X620217Y368923D01*
X619487Y368620D01*
X618860Y368140D01*
X618860Y368140D01*
X617860Y367140D01*
X617380Y366513D01*
X617077Y365783D01*
X616974Y365000D01*
Y363375D01*
X616997Y363204D01*
X616994Y363031D01*
X617048Y362814D01*
X617077Y362592D01*
X617143Y362432D01*
X617185Y362265D01*
X617294Y362069D01*
X617380Y361862D01*
X617485Y361725D01*
X617522Y361658D01*
X617448Y361099D01*
Y360425D01*
X617380Y360336D01*
X617294Y360129D01*
X617185Y359933D01*
X617143Y359765D01*
X617077Y359606D01*
X617048Y359384D01*
X616994Y359167D01*
X616997Y358994D01*
X616974Y358823D01*
Y348343D01*
X616527Y348000D01*
X616500D01*
Y344000D01*
Y340000D01*
X616527D01*
X616974Y339657D01*
Y322925D01*
X615693Y322048D01*
X613974Y321479D01*
X613544Y321727D01*
X612527Y322000D01*
X612500D01*
Y318000D01*
Y314000D01*
X612527D01*
X613544Y314273D01*
X613974Y314521D01*
X615693Y313952D01*
X616974Y313075D01*
Y304500D01*
X616537D01*
X615647Y304261D01*
X614849Y303801D01*
X614197Y303149D01*
X613736Y302351D01*
X613498Y301461D01*
Y300539D01*
X613736Y299649D01*
X612174Y297125D01*
X611471Y297476D01*
X609315Y299150D01*
X609262Y299351D01*
X608801Y300149D01*
X608149Y300801D01*
X607351Y301261D01*
X606643Y301451D01*
X605869Y302460D01*
X605121Y304165D01*
X605091Y304355D01*
X605262Y304649D01*
X605489Y305500D01*
X598511D01*
X598738Y304649D01*
X599199Y303851D01*
X599851Y303199D01*
X600649Y302738D01*
X601357Y302549D01*
X602131Y301540D01*
X602879Y299835D01*
X602909Y299645D01*
X602739Y299351D01*
X602500Y298461D01*
Y297539D01*
X602604Y297152D01*
X602570Y296963D01*
X601745Y295385D01*
X600809Y294192D01*
X600283Y294051D01*
X599485Y293590D01*
X598833Y292938D01*
X596091Y294188D01*
X585026Y305253D01*
Y312000D01*
X584923Y312783D01*
X584621Y313513D01*
X584140Y314140D01*
X567140Y331140D01*
X566721Y331461D01*
X566710Y331786D01*
X568438Y334461D01*
X582120D01*
X584618Y331964D01*
X584659Y331854D01*
X584851Y328801D01*
X584199Y328149D01*
X583739Y327351D01*
X583510Y326500D01*
X587000D01*
Y326000D01*
X587500D01*
Y322477D01*
X588616Y321825D01*
X588683Y321662D01*
X588807Y321263D01*
X588955Y321005D01*
X589069Y320731D01*
X589250Y320495D01*
X589399Y320237D01*
X589609Y320027D01*
X589791Y319791D01*
X590027Y319609D01*
X590237Y319399D01*
X590495Y319250D01*
X590731Y319069D01*
X591005Y318955D01*
X591263Y318807D01*
X591550Y318730D01*
X591825Y318616D01*
X592120Y318577D01*
X592408Y318500D01*
X592705D01*
X593000Y318461D01*
X593295Y318500D01*
X593592D01*
X593880Y318577D01*
X594175Y318616D01*
X594450Y318730D01*
X594737Y318807D01*
X594995Y318955D01*
X595269Y319069D01*
X595505Y319250D01*
X595763Y319399D01*
X595973Y319609D01*
X596209Y319791D01*
X596391Y320027D01*
X596601Y320237D01*
X596750Y320495D01*
X596931Y320731D01*
X597045Y321005D01*
X597193Y321263D01*
X597270Y321550D01*
X597384Y321825D01*
X597423Y322120D01*
X597500Y322408D01*
Y322705D01*
X597539Y323000D01*
Y328630D01*
X597933Y329056D01*
X600351Y330263D01*
X600456Y330273D01*
X601473Y330000D01*
X601500D01*
Y334000D01*
Y338000D01*
X601473D01*
X600456Y337727D01*
X599544Y337201D01*
X598799Y336456D01*
X598273Y335544D01*
X598240Y335422D01*
X595931Y334452D01*
X595000Y334419D01*
X587209Y342209D01*
X586269Y342931D01*
X585175Y343384D01*
X584000Y343539D01*
X567288D01*
X565829Y345168D01*
X566149Y348199D01*
X566801Y348851D01*
X567262Y349649D01*
X567489Y350500D01*
X564000D01*
Y351000D01*
X563500D01*
Y354489D01*
X562649Y354261D01*
X561851Y353801D01*
X561199Y353149D01*
X560948Y352714D01*
X559065Y352025D01*
X557758Y351771D01*
X557634Y351785D01*
X514209Y395209D01*
X513269Y395931D01*
X512175Y396384D01*
X511000Y396539D01*
X384000D01*
X382825Y396384D01*
X381731Y395931D01*
X380791Y395209D01*
X380790Y395209D01*
X375120Y389539D01*
X341000D01*
X339825Y389384D01*
X338731Y388931D01*
X337791Y388209D01*
X185791Y236209D01*
X185069Y235269D01*
X184616Y234175D01*
X184461Y233000D01*
Y166911D01*
X184455Y166895D01*
X182500Y164547D01*
Y161000D01*
Y157488D01*
X183956Y157032D01*
X185069Y155731D01*
X185791Y154791D01*
X187791Y152791D01*
X188027Y152609D01*
X188237Y152399D01*
X188495Y152250D01*
X188731Y152069D01*
X189005Y151955D01*
X189263Y151807D01*
X189550Y151730D01*
X189825Y151616D01*
X190120Y151577D01*
X190408Y151500D01*
X190705D01*
X191000Y151461D01*
X191295Y151500D01*
X191592D01*
X191880Y151577D01*
X192175Y151616D01*
X192450Y151730D01*
X192737Y151807D01*
X192995Y151955D01*
X193269Y152069D01*
X193505Y152250D01*
X193763Y152399D01*
X193973Y152609D01*
X194209Y152791D01*
X194391Y153027D01*
X194601Y153237D01*
X194750Y153495D01*
X194931Y153731D01*
X195045Y154005D01*
X195193Y154263D01*
X195270Y154550D01*
X195384Y154825D01*
X195423Y155120D01*
X195500Y155408D01*
Y155705D01*
X195539Y156000D01*
X195500Y156295D01*
Y156592D01*
X195423Y156880D01*
X195384Y157175D01*
X195270Y157450D01*
X195193Y157737D01*
X195045Y157995D01*
X194931Y158269D01*
X194750Y158505D01*
X194601Y158763D01*
X194391Y158973D01*
X194209Y159209D01*
X193539Y159880D01*
Y173929D01*
X194534Y174822D01*
X196539Y175710D01*
X196935Y175546D01*
X198094Y175315D01*
X198185D01*
Y181315D01*
Y187315D01*
X198094D01*
X196935Y187084D01*
X196539Y186920D01*
X194534Y187808D01*
X193539Y188701D01*
Y231120D01*
X315105Y352686D01*
X316635Y352575D01*
X318582Y351920D01*
X318799Y351544D01*
X319544Y350799D01*
X320456Y350273D01*
X321473Y350000D01*
X321500D01*
Y354000D01*
X322000D01*
Y354500D01*
X326000D01*
Y354527D01*
X325727Y355544D01*
X325201Y356456D01*
X324456Y357201D01*
X324080Y357418D01*
X323425Y359365D01*
X323314Y360895D01*
X342682Y380264D01*
X344495Y380059D01*
X345198Y378143D01*
X345293Y376950D01*
X344799Y376456D01*
X344273Y375544D01*
X344000Y374527D01*
Y374500D01*
X352000D01*
Y374527D01*
X351727Y375544D01*
X351201Y376456D01*
X350456Y377201D01*
X350005Y377461D01*
X350009Y379012D01*
X350534Y380461D01*
X377000D01*
X377295Y380500D01*
X377592D01*
X377880Y380577D01*
X378175Y380616D01*
X378450Y380730D01*
X378737Y380807D01*
X378995Y380955D01*
X379269Y381069D01*
X379505Y381250D01*
X379763Y381399D01*
X379973Y381609D01*
X380209Y381791D01*
X385880Y387461D01*
X402089D01*
X402105Y387455D01*
X404453Y385500D01*
X411547D01*
X413895Y387455D01*
X413911Y387461D01*
X509120D01*
X543959Y352622D01*
X543851Y351801D01*
X543199Y351149D01*
X542738Y350351D01*
X542500Y349461D01*
Y348539D01*
X542738Y347649D01*
X543199Y346851D01*
X543851Y346199D01*
X544649Y345739D01*
X545539Y345500D01*
X546461D01*
X547351Y345739D01*
X548149Y346199D01*
X548801Y346851D01*
X549622Y346959D01*
X560791Y335791D01*
X561731Y335069D01*
X562184Y334881D01*
X561238Y332026D01*
X559000D01*
X559000Y332026D01*
X558217Y331923D01*
X557487Y331621D01*
X556860Y331140D01*
X554860Y329140D01*
X554380Y328513D01*
X554077Y327783D01*
X553974Y327000D01*
Y325000D01*
X554077Y324217D01*
X554380Y323487D01*
X554860Y322860D01*
X554860Y322860D01*
X555860Y321860D01*
X556018Y321740D01*
X556158Y321599D01*
X556330Y321500D01*
X556487Y321379D01*
X556670Y321304D01*
X556842Y321204D01*
X557835Y320832D01*
X558291Y320499D01*
X559043Y319273D01*
X559204Y318842D01*
X559304Y318670D01*
X559379Y318487D01*
X559410Y318447D01*
X559432Y317950D01*
X558959Y316035D01*
X558375Y315103D01*
X557851Y314801D01*
X557199Y314149D01*
X556739Y313351D01*
X556510Y312500D01*
X560000D01*
Y312000D01*
X560500D01*
Y308510D01*
X561351Y308738D01*
X562393Y308774D01*
X563326Y308303D01*
X564500Y307407D01*
X564577Y307120D01*
X564616Y306825D01*
X564730Y306550D01*
X564807Y306263D01*
X564955Y306005D01*
X565069Y305731D01*
X565250Y305495D01*
X565399Y305237D01*
X565609Y305027D01*
X565791Y304791D01*
X566027Y304609D01*
X566237Y304399D01*
X566495Y304250D01*
X566731Y304069D01*
X567005Y303955D01*
X567263Y303807D01*
X567550Y303730D01*
X567724Y303658D01*
X567737Y303557D01*
X567813Y303373D01*
X567865Y303182D01*
X567964Y303010D01*
X568040Y302827D01*
X568160Y302669D01*
X568260Y302498D01*
X568400Y302358D01*
X568521Y302200D01*
X581414Y289307D01*
X581423Y289274D01*
X581425Y288817D01*
X580989Y288109D01*
X579293Y286411D01*
X578961Y286500D01*
X578039D01*
X577149Y286262D01*
X576351Y285801D01*
X575699Y285149D01*
X575239Y284351D01*
X575000Y283461D01*
Y282539D01*
X574691Y281171D01*
X573649Y280261D01*
X572851Y279801D01*
X572199Y279149D01*
X571738Y278351D01*
X571500Y277461D01*
Y276539D01*
X571738Y275649D01*
X572199Y274851D01*
X572851Y274199D01*
X573649Y273739D01*
X574539Y273500D01*
X575461D01*
X576351Y273739D01*
X577149Y274199D01*
X577801Y274851D01*
X578262Y275649D01*
X578500Y276539D01*
Y277461D01*
X578809Y278829D01*
X579851Y279738D01*
X580649Y280199D01*
X581301Y280851D01*
X581433Y281080D01*
X582414Y281456D01*
X584453Y280286D01*
X584583Y280132D01*
X585161Y279061D01*
X585000Y278461D01*
Y277539D01*
X585153Y276966D01*
X585213Y276529D01*
X584821Y274692D01*
X583870Y273438D01*
X583851Y273427D01*
X583199Y272775D01*
X582738Y271977D01*
X582500Y271087D01*
Y270165D01*
X582738Y269275D01*
X583199Y268477D01*
X583851Y267825D01*
X584649Y267365D01*
X585539Y267126D01*
X586461D01*
X586865Y265775D01*
X587325Y264977D01*
X587977Y264325D01*
X588775Y263864D01*
X589665Y263626D01*
X590587D01*
X590974Y263730D01*
X592866Y262820D01*
X593974Y261987D01*
X593974Y236045D01*
X593853Y235896D01*
X592360Y234921D01*
X590974Y234363D01*
X590461Y234500D01*
X589539D01*
X588649Y234261D01*
X587851Y233801D01*
X587199Y233149D01*
X586738Y232351D01*
X586500Y231461D01*
Y230539D01*
X585560Y230354D01*
X583500Y231461D01*
X583261Y232351D01*
X582801Y233149D01*
X582149Y233801D01*
X581351Y234261D01*
X580461Y234500D01*
X579539D01*
X578649Y234261D01*
X577851Y233801D01*
X577199Y233149D01*
X576739Y232351D01*
X576500Y231461D01*
Y230539D01*
X574645Y228070D01*
X572418Y227861D01*
X535158Y265121D01*
X535353Y266713D01*
X535991Y268531D01*
X536456Y268799D01*
X537201Y269544D01*
X537727Y270456D01*
X538000Y271473D01*
Y271500D01*
X534000D01*
Y272000D01*
X533500D01*
Y276000D01*
X533473D01*
X532456Y275727D01*
X531544Y275201D01*
X530799Y274456D01*
X530273Y273544D01*
X530179Y273194D01*
X530057Y272816D01*
X529535Y272048D01*
X528487Y270971D01*
X527148Y270526D01*
X517500D01*
X517401Y270513D01*
X517301Y270519D01*
X517011Y270462D01*
X516717Y270423D01*
X516624Y270385D01*
X516526Y270365D01*
X516261Y270234D01*
X515987Y270121D01*
X515908Y270060D01*
X515818Y270015D01*
X515595Y269820D01*
X515360Y269640D01*
X515299Y269560D01*
X515224Y269494D01*
X503509Y256125D01*
X500456Y255201D01*
X499544Y255727D01*
X498527Y256000D01*
X498500D01*
Y252000D01*
X498000D01*
Y251500D01*
X494000D01*
Y251473D01*
X494273Y250456D01*
X494799Y249544D01*
X495544Y248799D01*
X494555Y245906D01*
X478010Y227026D01*
X474754D01*
X473575Y229501D01*
X473469Y230026D01*
X474042Y230882D01*
X474494Y231974D01*
X474724Y233133D01*
Y233224D01*
X462724D01*
Y233133D01*
X462955Y231974D01*
X463407Y230882D01*
X463979Y230026D01*
X463874Y229501D01*
X462695Y227026D01*
X446984D01*
X436780Y234447D01*
X436639Y234523D01*
X436513Y234620D01*
X436294Y234711D01*
X436086Y234824D01*
X435931Y234862D01*
X435783Y234923D01*
X435548Y234954D01*
X435318Y235009D01*
X435158Y235005D01*
X435000Y235026D01*
X210000D01*
X209217Y234923D01*
X208487Y234620D01*
X207860Y234140D01*
X207860Y234140D01*
X203860Y230140D01*
X203380Y229513D01*
X203077Y228783D01*
X202974Y228000D01*
Y226500D01*
X202987Y226401D01*
X202981Y226302D01*
X203039Y226011D01*
X203077Y225717D01*
X203115Y225625D01*
X203135Y225527D01*
X203266Y225261D01*
X203380Y224987D01*
X203732Y224000D01*
X203380Y223013D01*
X203266Y222739D01*
X203135Y222473D01*
X203115Y222375D01*
X203077Y222283D01*
X203039Y221989D01*
X202981Y221698D01*
X202987Y221599D01*
X202974Y221500D01*
Y203000D01*
X203077Y202217D01*
X203380Y201487D01*
X203860Y200860D01*
X217860Y186860D01*
X218487Y186380D01*
X219217Y186077D01*
X220000Y185974D01*
X477974D01*
Y177850D01*
X476943Y176962D01*
X476654Y176924D01*
X473801Y177149D01*
X473149Y177801D01*
X472351Y178261D01*
X471500Y178489D01*
Y175000D01*
X471000D01*
Y174500D01*
X467511D01*
X467738Y173649D01*
X468199Y172851D01*
X468851Y172199D01*
X468488Y169218D01*
X467580Y168026D01*
X466631D01*
X466368Y167991D01*
X466103Y167980D01*
X465978Y167940D01*
X465848Y167923D01*
X465603Y167821D01*
X465350Y167741D01*
X465239Y167671D01*
X465118Y167621D01*
X464908Y167459D01*
X464684Y167316D01*
X464596Y167219D01*
X464492Y167140D01*
X463026Y166553D01*
X461703Y166341D01*
X461512Y166392D01*
X461328Y166468D01*
X461132Y166494D01*
X460940Y166545D01*
X460742D01*
X460545Y166571D01*
X460349Y166545D01*
X460150D01*
X459959Y166494D01*
X459762Y166468D01*
X459579Y166392D01*
X459387Y166341D01*
X459215Y166242D01*
X459032Y166166D01*
X458875Y166045D01*
X458703Y165946D01*
X458563Y165805D01*
X458406Y165685D01*
X451860Y159140D01*
X451379Y158513D01*
X451077Y157783D01*
X450974Y157000D01*
Y150000D01*
X451077Y149217D01*
X451379Y148487D01*
X451860Y147860D01*
X451860Y147860D01*
X466860Y132860D01*
X467487Y132379D01*
X468217Y132077D01*
X469000Y131974D01*
X475000D01*
X475783Y132077D01*
X476513Y132379D01*
X477140Y132860D01*
X488140Y143860D01*
X488621Y144487D01*
X488709Y144701D01*
X491500Y143599D01*
Y143539D01*
X491739Y142649D01*
X492199Y141851D01*
X492851Y141199D01*
X493649Y140738D01*
X494500Y140510D01*
Y144000D01*
X495500D01*
Y140510D01*
X496351Y140738D01*
X497149Y141199D01*
X497801Y141851D01*
X498261Y142649D01*
X498353Y142991D01*
X498713Y143752D01*
X500248Y145287D01*
X501009Y145647D01*
X501351Y145738D01*
X502149Y146199D01*
X502801Y146851D01*
X503262Y147649D01*
X503500Y148539D01*
Y149461D01*
X503262Y150351D01*
X502801Y151149D01*
X502149Y151801D01*
X501351Y152261D01*
X500461Y152500D01*
X499352Y153584D01*
X498811Y154361D01*
X498439Y155311D01*
X498500Y155539D01*
Y156461D01*
X498261Y157351D01*
X497801Y158149D01*
X497149Y158801D01*
X496512Y161361D01*
X496584Y162305D01*
X537253Y202974D01*
X576631D01*
X577071Y201803D01*
X577151Y199974D01*
X576851Y199801D01*
X576199Y199149D01*
X575738Y198351D01*
X575511Y197500D01*
X582489D01*
X582262Y198351D01*
X581801Y199149D01*
X581708Y199242D01*
X582113Y201444D01*
X582662Y202381D01*
X584156Y202565D01*
X586974Y199747D01*
Y160216D01*
X583974Y159268D01*
X583727Y159544D01*
X583472Y159986D01*
X583201Y160456D01*
X582456Y161201D01*
X581544Y161727D01*
X580527Y162000D01*
X580500D01*
Y158000D01*
Y154000D01*
X580527D01*
X581544Y154273D01*
X582456Y154799D01*
X583201Y155544D01*
X583727Y156456D01*
X583974Y156732D01*
X586974Y155783D01*
Y149000D01*
X586974Y149000D01*
X587077Y148217D01*
X587380Y147487D01*
X587860Y146860D01*
X587860Y146860D01*
X600860Y133860D01*
X601487Y133379D01*
X602217Y133077D01*
X603000Y132974D01*
X642000D01*
X642783Y133077D01*
X643513Y133379D01*
X644140Y133860D01*
X650821Y140542D01*
X654467Y140285D01*
X655785Y138967D01*
X657293Y137871D01*
X658954Y137025D01*
X660727Y136449D01*
X662568Y136158D01*
X664432D01*
X666273Y136449D01*
X668046Y137025D01*
X669707Y137871D01*
X671215Y138967D01*
X672533Y140285D01*
X673629Y141793D01*
X674475Y143454D01*
X675051Y145227D01*
X675343Y147068D01*
Y148932D01*
X675051Y150773D01*
X674475Y152546D01*
X673629Y154207D01*
X672533Y155715D01*
X671215Y157033D01*
X669707Y158129D01*
X668046Y158975D01*
X666273Y159551D01*
X664432Y159843D01*
X662568D01*
X660727Y159551D01*
X658954Y158975D01*
X657293Y158129D01*
X655785Y157033D01*
X654467Y155715D01*
X654160Y155293D01*
X653534Y154919D01*
X652572Y154720D01*
X651155Y154627D01*
X650689Y154715D01*
X650344Y154874D01*
X650269Y154931D01*
X649995Y155045D01*
X649737Y155193D01*
X649450Y155270D01*
X649175Y155384D01*
X648880Y155423D01*
X648592Y155500D01*
X648295D01*
X648000Y155539D01*
X647705Y155500D01*
X647408D01*
X647120Y155423D01*
X646825Y155384D01*
X646550Y155270D01*
X646263Y155193D01*
X646005Y155045D01*
X645731Y154931D01*
X645495Y154750D01*
X644341Y154741D01*
X643379Y154892D01*
X642859Y155051D01*
X642126Y155370D01*
X641844Y155857D01*
X641804Y155898D01*
X641231Y157816D01*
X641804Y159734D01*
X641844Y159775D01*
X642496Y160905D01*
X642834Y162164D01*
Y163468D01*
X642496Y164728D01*
X641844Y165857D01*
X641804Y165898D01*
X641231Y167816D01*
X641804Y169735D01*
X641844Y169775D01*
X642496Y170905D01*
X642834Y172164D01*
Y173468D01*
X642496Y174728D01*
X641844Y175857D01*
X641804Y175898D01*
X641231Y177816D01*
X641804Y179735D01*
X641844Y179775D01*
X642496Y180904D01*
X642834Y182164D01*
Y183468D01*
X642496Y184728D01*
X641844Y185857D01*
X640922Y186779D01*
X639793Y187431D01*
X638533Y187769D01*
X637229D01*
X635969Y187431D01*
X635834Y187353D01*
X633627Y188173D01*
X633204Y188414D01*
X632718Y188900D01*
X632496Y189728D01*
X631844Y190857D01*
X630922Y191779D01*
X629793Y192431D01*
X628533Y192769D01*
X627229D01*
X625969Y192431D01*
X624840Y191779D01*
X623918Y190857D01*
X623266Y189728D01*
X622928Y188468D01*
Y187164D01*
X623266Y185905D01*
X623918Y184775D01*
X624690Y184002D01*
X624872Y183700D01*
X624976Y183218D01*
X625006Y180612D01*
X624958Y180483D01*
X624718Y180243D01*
X624198Y179342D01*
X623928Y178337D01*
Y178316D01*
X627881D01*
Y177316D01*
X623928D01*
Y177296D01*
X624198Y176291D01*
X624718Y175389D01*
X624958Y175149D01*
X625006Y175020D01*
X624976Y172415D01*
X624872Y171932D01*
X624690Y171630D01*
X623918Y170857D01*
X623266Y169728D01*
X622928Y168468D01*
Y167164D01*
X623266Y165904D01*
X623918Y164775D01*
X623958Y164734D01*
X624531Y162816D01*
X623958Y160898D01*
X623918Y160857D01*
X623266Y159728D01*
X622928Y158468D01*
Y157164D01*
X623266Y155904D01*
X623918Y154775D01*
X624840Y153853D01*
X625969Y153201D01*
X627229Y152863D01*
X628533D01*
X629793Y153201D01*
X630525Y151858D01*
X628611Y149026D01*
X620253D01*
X611026Y158253D01*
Y188123D01*
X613416Y188986D01*
X614026Y189024D01*
X614544Y188506D01*
X615342Y188046D01*
X616193Y187818D01*
Y191307D01*
Y194797D01*
X615342Y194569D01*
X614544Y194108D01*
X614026Y193590D01*
X613416Y193628D01*
X611026Y194492D01*
Y203631D01*
X612197Y204071D01*
X614026Y204151D01*
X614199Y203851D01*
X614851Y203199D01*
X615649Y202738D01*
X616500Y202510D01*
Y206000D01*
X617000D01*
Y206500D01*
X620490D01*
X620261Y207351D01*
X619801Y208149D01*
X619149Y208801D01*
X618625Y209103D01*
X618236Y209724D01*
X617658Y212047D01*
X617686Y212407D01*
X643292Y238013D01*
X643783Y238077D01*
X644513Y238380D01*
X645140Y238860D01*
X645140Y238860D01*
X648253Y241974D01*
X663952D01*
X664643Y241372D01*
X665991Y238974D01*
X665909Y238670D01*
Y237330D01*
X666256Y236035D01*
X666926Y234874D01*
X667560Y234241D01*
X667390Y231876D01*
X666026Y230562D01*
X665290Y230365D01*
X664378Y229839D01*
X663633Y229094D01*
X663107Y228182D01*
X662834Y227165D01*
Y227138D01*
X670834D01*
Y227165D01*
X670562Y228182D01*
X670035Y229094D01*
X669787Y229534D01*
X669504Y230047D01*
X670381Y231826D01*
X671454Y232884D01*
X671670Y232909D01*
X671851Y232958D01*
X672965Y233256D01*
X675910Y232909D01*
X675910Y232909D01*
X684837D01*
X686091Y232909D01*
X687837Y230633D01*
Y223237D01*
X686500Y220578D01*
Y217000D01*
Y213422D01*
X687837Y210763D01*
Y195890D01*
X686345Y195078D01*
X684837Y194820D01*
X684456Y195201D01*
X683544Y195727D01*
X682527Y196000D01*
X682500D01*
Y192000D01*
Y188000D01*
X682527D01*
X683544Y188273D01*
X684456Y188799D01*
X684837Y189180D01*
X686345Y188922D01*
X687837Y188110D01*
Y167890D01*
X686345Y167078D01*
X684837Y166820D01*
X684456Y167201D01*
X683544Y167727D01*
X682527Y168000D01*
X682500D01*
Y164000D01*
Y160000D01*
X682527D01*
X683544Y160273D01*
X684456Y160799D01*
X684837Y161180D01*
X686345Y160922D01*
X687837Y160110D01*
Y145890D01*
X686345Y145078D01*
X684837Y144820D01*
X684456Y145201D01*
X683544Y145727D01*
X682527Y146000D01*
X682500D01*
Y142000D01*
Y138000D01*
X682527D01*
X683544Y138273D01*
X684456Y138799D01*
X684837Y139180D01*
X686345Y138922D01*
X687837Y138110D01*
Y131694D01*
X684837Y130165D01*
X684783Y130205D01*
X683122Y131051D01*
X681349Y131627D01*
X679508Y131919D01*
X677644D01*
X675803Y131627D01*
X674030Y131051D01*
X672369Y130205D01*
X670861Y129109D01*
X669543Y127791D01*
X668447Y126283D01*
X667601Y124622D01*
X667025Y122849D01*
X666733Y121008D01*
Y119144D01*
X667025Y117303D01*
X667601Y115530D01*
X668447Y113869D01*
X669543Y112361D01*
X670320Y111584D01*
X669792Y109514D01*
X669141Y108584D01*
X128955D01*
X128305Y109514D01*
X127777Y111584D01*
X128554Y112361D01*
X129649Y113869D01*
X130496Y115530D01*
X131072Y117303D01*
X131363Y119144D01*
Y121008D01*
X131072Y122849D01*
X130496Y124622D01*
X129649Y126283D01*
X128554Y127791D01*
X127236Y129109D01*
X125727Y130205D01*
X124067Y131051D01*
X122294Y131627D01*
X120453Y131919D01*
X118589D01*
X116748Y131627D01*
X114975Y131051D01*
X113314Y130205D01*
X112097Y129321D01*
X110997Y129567D01*
X109097Y130643D01*
Y157710D01*
X112097Y158669D01*
X112273Y158456D01*
X112535Y158001D01*
X112799Y157544D01*
X113544Y156799D01*
X114456Y156273D01*
X115473Y156000D01*
X115500D01*
Y160000D01*
Y164000D01*
X115473D01*
X114456Y163727D01*
X113544Y163201D01*
X112799Y162456D01*
X112273Y161544D01*
X112097Y161331D01*
X109097Y162290D01*
Y271710D01*
X112097Y272669D01*
X112273Y272456D01*
X112535Y272001D01*
X112799Y271544D01*
X113544Y270799D01*
X114456Y270273D01*
X115473Y270000D01*
X115500D01*
Y274000D01*
Y278000D01*
X115473D01*
X114456Y277727D01*
X113544Y277201D01*
X112799Y276456D01*
X112273Y275544D01*
X112097Y275331D01*
X109097Y276290D01*
Y293710D01*
X112097Y294669D01*
X112273Y294456D01*
X112535Y294001D01*
X112799Y293544D01*
X113544Y292799D01*
X114456Y292273D01*
X115473Y292000D01*
X115500D01*
Y296000D01*
Y300000D01*
X115473D01*
X114456Y299727D01*
X113544Y299201D01*
X112799Y298456D01*
X112273Y297544D01*
X112097Y297331D01*
X109097Y298290D01*
Y315710D01*
X112097Y316669D01*
X112273Y316456D01*
X112535Y316001D01*
X112799Y315544D01*
X113544Y314799D01*
X114456Y314273D01*
X115473Y314000D01*
X115500D01*
Y318000D01*
Y322000D01*
X115473D01*
X114456Y321727D01*
X113544Y321201D01*
X112799Y320456D01*
X112273Y319544D01*
X112097Y319331D01*
X109097Y320290D01*
Y341710D01*
X112097Y342669D01*
X112273Y342456D01*
X112535Y342001D01*
X112799Y341544D01*
X113544Y340799D01*
X114456Y340273D01*
X115473Y340000D01*
X115500D01*
Y344000D01*
Y348000D01*
X115473D01*
X114456Y347727D01*
X113544Y347201D01*
X112799Y346456D01*
X112273Y345544D01*
X112097Y345331D01*
X109097Y346290D01*
Y365710D01*
X112097Y366669D01*
X112273Y366456D01*
X112535Y366001D01*
X112799Y365544D01*
X113544Y364799D01*
X114456Y364273D01*
X115473Y364000D01*
X115500D01*
Y368000D01*
Y372000D01*
X115473D01*
X114456Y371727D01*
X113544Y371201D01*
X112799Y370456D01*
X112273Y369544D01*
X112097Y369331D01*
X109097Y370290D01*
Y389710D01*
X112097Y390669D01*
X112273Y390456D01*
X112535Y390001D01*
X112799Y389544D01*
X113544Y388799D01*
X114456Y388273D01*
X115473Y388000D01*
X115500D01*
Y392000D01*
Y396000D01*
X115473D01*
X114456Y395727D01*
X113544Y395201D01*
X112799Y394456D01*
X112273Y393544D01*
X112097Y393331D01*
X109097Y394290D01*
Y413710D01*
X112097Y414669D01*
X112273Y414456D01*
X112535Y414001D01*
X112799Y413544D01*
X113544Y412799D01*
X114456Y412273D01*
X115473Y412000D01*
X115500D01*
Y416000D01*
Y420000D01*
X115473D01*
X114456Y419727D01*
X113544Y419201D01*
X112799Y418456D01*
X112273Y417544D01*
X112097Y417331D01*
X109097Y418290D01*
Y437710D01*
X112097Y438669D01*
X112273Y438456D01*
X112535Y438001D01*
X112799Y437544D01*
X113544Y436799D01*
X114456Y436273D01*
X115473Y436000D01*
X115500D01*
Y440000D01*
Y444000D01*
X115473D01*
X114456Y443727D01*
X113544Y443201D01*
X112799Y442456D01*
X112273Y441544D01*
X112097Y441331D01*
X109097Y442290D01*
Y457710D01*
X112097Y458669D01*
X112273Y458456D01*
X112535Y458001D01*
X112799Y457544D01*
X113544Y456799D01*
X114456Y456273D01*
X115473Y456000D01*
X115500D01*
Y460000D01*
Y464000D01*
X115473D01*
X114456Y463727D01*
X113544Y463201D01*
X112799Y462456D01*
X112273Y461544D01*
X112097Y461331D01*
X109097Y462290D01*
Y471714D01*
X110997Y472790D01*
X112097Y473036D01*
X113314Y472152D01*
X114975Y471306D01*
X116748Y470730D01*
X118589Y470438D01*
X120453D01*
X122294Y470730D01*
X124067Y471306D01*
X125727Y472152D01*
X127236Y473248D01*
X128554Y474566D01*
X129649Y476074D01*
X130496Y477735D01*
X130996Y479276D01*
X131072Y479508D01*
X134000Y479473D01*
X134273Y478456D01*
X134799Y477544D01*
X135544Y476799D01*
X136456Y476273D01*
X137473Y476000D01*
X137500D01*
Y480000D01*
Y484000D01*
X137473D01*
X136456Y483727D01*
X135544Y483201D01*
X134799Y482456D01*
X134273Y481544D01*
X131363Y482277D01*
X131363Y482505D01*
Y483213D01*
X131072Y485054D01*
X130496Y486827D01*
X129649Y488488D01*
X128955Y489443D01*
X129524Y491318D01*
X130349Y492443D01*
X588539D01*
X589247Y491849D01*
X590610Y489634D01*
X597658D01*
X599021Y491849D01*
X599729Y492443D01*
X608899D01*
X609943Y491016D01*
X610678Y489443D01*
X610500Y488780D01*
Y488721D01*
X614748D01*
Y488221D01*
D01*
Y488721D01*
X618996D01*
Y488780D01*
X618818Y489443D01*
X619553Y491016D01*
X620597Y492443D01*
X626166D01*
X626993Y491615D01*
X628146Y489443D01*
X628004Y488911D01*
Y487530D01*
X628362Y486195D01*
X629052Y484998D01*
X630030Y484021D01*
X631226Y483330D01*
X632561Y482972D01*
X633943D01*
X635278Y483330D01*
X636474Y484021D01*
X637451Y484998D01*
X638142Y486195D01*
X638500Y487530D01*
Y488911D01*
X638358Y489443D01*
X639511Y491615D01*
X640338Y492443D01*
X667747D01*
X668572Y491318D01*
D02*
G37*
G36*
X629000Y364000D02*
Y293000D01*
X607000Y271000D01*
Y256000D01*
X612000Y251000D01*
X667562D01*
X667753Y250538D01*
X667727Y250512D01*
X667188Y249579D01*
X666910Y248538D01*
Y248500D01*
X671000D01*
Y247500D01*
X666910D01*
Y247462D01*
X667188Y246421D01*
X667727Y245488D01*
X667753Y245462D01*
X667562Y245000D01*
X647000D01*
X643000Y241000D01*
X642000D01*
X608000Y207000D01*
Y157000D01*
X619000Y146000D01*
X639000D01*
X644000Y151000D01*
X644500Y150793D01*
Y150539D01*
X644738Y149649D01*
X645199Y148851D01*
X645851Y148199D01*
X646649Y147739D01*
X647500Y147511D01*
Y151000D01*
X648500D01*
Y147511D01*
X649351Y147739D01*
X650149Y148199D01*
X650500Y148550D01*
X651000Y148343D01*
Y145000D01*
X642000Y136000D01*
X603000D01*
X590000Y149000D01*
Y201000D01*
X585000Y206000D01*
X536000D01*
X486000Y156000D01*
Y146000D01*
X475000Y135000D01*
X469000D01*
X454000Y150000D01*
Y157000D01*
X460545Y163545D01*
X460945Y163238D01*
X460911Y163179D01*
X460683Y162328D01*
X467662D01*
X467434Y163179D01*
X466973Y163977D01*
X466450Y164500D01*
X466631Y165000D01*
X471000D01*
X478000Y172000D01*
X478500Y171793D01*
Y171539D01*
X478738Y170649D01*
X479199Y169851D01*
X479851Y169199D01*
X480649Y168738D01*
X481500Y168510D01*
Y172000D01*
Y175489D01*
X481397Y175462D01*
X481000Y175766D01*
Y189000D01*
X220000D01*
X206000Y203000D01*
Y221500D01*
X206500Y221599D01*
X206683Y221158D01*
X207340Y220175D01*
X208175Y219339D01*
X209158Y218683D01*
X210250Y218231D01*
X211409Y218000D01*
X211500D01*
Y224000D01*
Y230000D01*
X211409D01*
X210250Y229769D01*
X209158Y229317D01*
X208175Y228660D01*
X207340Y227825D01*
X206683Y226842D01*
X206500Y226401D01*
X206000Y226500D01*
Y228000D01*
X210000Y232000D01*
X435000D01*
X446000Y224000D01*
X479381D01*
X499805Y247307D01*
X499930Y247341D01*
X501070Y247999D01*
X502001Y248930D01*
X502659Y250070D01*
X502850Y250782D01*
X517500Y267500D01*
X528500D01*
X572000Y224000D01*
X593000D01*
X597000Y228000D01*
X597000Y278000D01*
X590000Y285000D01*
Y285461D01*
X589761Y286351D01*
X589301Y287149D01*
X588649Y287801D01*
X587851Y288262D01*
X586961Y288500D01*
X586500D01*
X570660Y304340D01*
X570743Y304965D01*
X571149Y305199D01*
X571801Y305851D01*
X572261Y306649D01*
X572490Y307500D01*
X569000D01*
Y308000D01*
X568500D01*
Y311490D01*
X567649Y311262D01*
X566851Y310801D01*
X566500Y310450D01*
X566000Y310657D01*
Y316000D01*
X562000Y320000D01*
X562207Y320500D01*
X562461D01*
X563351Y320739D01*
X564149Y321199D01*
X564801Y321851D01*
X565262Y322649D01*
X565489Y323500D01*
X562000D01*
Y324000D01*
X561500D01*
Y327489D01*
X560649Y327261D01*
X559851Y326801D01*
X559199Y326149D01*
X558739Y325351D01*
X558500Y324461D01*
Y324207D01*
X558000Y324000D01*
X557000Y325000D01*
Y327000D01*
X559000Y329000D01*
X565000D01*
X582000Y312000D01*
Y304000D01*
X599000Y287000D01*
X608000D01*
X620000Y299000D01*
Y299200D01*
X620260Y299649D01*
X620498Y300539D01*
Y301461D01*
X620260Y302351D01*
X620000Y302800D01*
Y340929D01*
X620001Y340930D01*
X620659Y342070D01*
X621000Y343342D01*
Y344658D01*
X620659Y345930D01*
X620001Y347070D01*
X620000Y347071D01*
Y358823D01*
X620500Y358897D01*
X621099Y358298D01*
X621897Y357837D01*
X622748Y357609D01*
Y361099D01*
Y364588D01*
X621897Y364360D01*
X621099Y363900D01*
X620500Y363301D01*
X620000Y363375D01*
Y365000D01*
X621000Y366000D01*
X627000D01*
X629000Y364000D01*
D02*
G37*
%LPC*%
G36*
X597623Y488634D02*
X594634D01*
Y485644D01*
X595485Y485872D01*
X596283Y486333D01*
X596935Y486985D01*
X597395Y487783D01*
X597623Y488634D01*
D02*
G37*
G36*
X593634D02*
X590644D01*
X590872Y487783D01*
X591333Y486985D01*
X591985Y486333D01*
X592783Y485872D01*
X593634Y485644D01*
Y488634D01*
D02*
G37*
G36*
X618996Y487720D02*
X615248D01*
Y483972D01*
X615307D01*
X616388Y484262D01*
X617356Y484821D01*
X618147Y485612D01*
X618707Y486581D01*
X618996Y487661D01*
Y487720D01*
D02*
G37*
G36*
X614248D02*
X610500D01*
Y487661D01*
X610789Y486581D01*
X611349Y485612D01*
X612140Y484821D01*
X613108Y484262D01*
X614189Y483972D01*
X614248D01*
Y487720D01*
D02*
G37*
G36*
X436527Y484000D02*
X436500D01*
Y480500D01*
X440000D01*
Y480527D01*
X439727Y481544D01*
X439201Y482456D01*
X438456Y483201D01*
X437544Y483727D01*
X436527Y484000D01*
D02*
G37*
G36*
X435500D02*
X435473D01*
X434456Y483727D01*
X433544Y483201D01*
X432799Y482456D01*
X432273Y481544D01*
X432000Y480527D01*
Y480500D01*
X435500D01*
Y484000D01*
D02*
G37*
G36*
X404527D02*
X404500D01*
Y480500D01*
X408000D01*
Y480527D01*
X407727Y481544D01*
X407201Y482456D01*
X406456Y483201D01*
X405544Y483727D01*
X404527Y484000D01*
D02*
G37*
G36*
X403500D02*
X403473D01*
X402456Y483727D01*
X401544Y483201D01*
X400799Y482456D01*
X400273Y481544D01*
X400000Y480527D01*
Y480500D01*
X403500D01*
Y484000D01*
D02*
G37*
G36*
X372527D02*
X372500D01*
Y480500D01*
X376000D01*
Y480527D01*
X375727Y481544D01*
X375201Y482456D01*
X374456Y483201D01*
X373544Y483727D01*
X372527Y484000D01*
D02*
G37*
G36*
X371500D02*
X371473D01*
X370456Y483727D01*
X369544Y483201D01*
X368799Y482456D01*
X368273Y481544D01*
X368000Y480527D01*
Y480500D01*
X371500D01*
Y484000D01*
D02*
G37*
G36*
X344527D02*
X344500D01*
Y480500D01*
X348000D01*
Y480527D01*
X347727Y481544D01*
X347201Y482456D01*
X346456Y483201D01*
X345544Y483727D01*
X344527Y484000D01*
D02*
G37*
G36*
X343500D02*
X343473D01*
X342456Y483727D01*
X341544Y483201D01*
X340799Y482456D01*
X340273Y481544D01*
X340000Y480527D01*
Y480500D01*
X343500D01*
Y484000D01*
D02*
G37*
G36*
X316527D02*
X316500D01*
Y480500D01*
X320000D01*
Y480527D01*
X319727Y481544D01*
X319201Y482456D01*
X318456Y483201D01*
X317544Y483727D01*
X316527Y484000D01*
D02*
G37*
G36*
X315500D02*
X315473D01*
X314456Y483727D01*
X313544Y483201D01*
X312799Y482456D01*
X312273Y481544D01*
X312000Y480527D01*
Y480500D01*
X315500D01*
Y484000D01*
D02*
G37*
G36*
X290527D02*
X290500D01*
Y480500D01*
X294000D01*
Y480527D01*
X293727Y481544D01*
X293201Y482456D01*
X292456Y483201D01*
X291544Y483727D01*
X290527Y484000D01*
D02*
G37*
G36*
X289500D02*
X289473D01*
X288456Y483727D01*
X287544Y483201D01*
X286799Y482456D01*
X286273Y481544D01*
X286000Y480527D01*
Y480500D01*
X289500D01*
Y484000D01*
D02*
G37*
G36*
X258527D02*
X258500D01*
Y480500D01*
X262000D01*
Y480527D01*
X261727Y481544D01*
X261201Y482456D01*
X260456Y483201D01*
X259544Y483727D01*
X258527Y484000D01*
D02*
G37*
G36*
X257500D02*
X257473D01*
X256456Y483727D01*
X255544Y483201D01*
X254799Y482456D01*
X254273Y481544D01*
X254000Y480527D01*
Y480500D01*
X257500D01*
Y484000D01*
D02*
G37*
G36*
X214527D02*
X214500D01*
Y480500D01*
X218000D01*
Y480527D01*
X217727Y481544D01*
X217201Y482456D01*
X216456Y483201D01*
X215544Y483727D01*
X214527Y484000D01*
D02*
G37*
G36*
X213500D02*
X213473D01*
X212456Y483727D01*
X211544Y483201D01*
X210799Y482456D01*
X210273Y481544D01*
X210000Y480527D01*
Y480500D01*
X213500D01*
Y484000D01*
D02*
G37*
G36*
X188527D02*
X188500D01*
Y480500D01*
X192000D01*
Y480527D01*
X191727Y481544D01*
X191201Y482456D01*
X190456Y483201D01*
X189544Y483727D01*
X188527Y484000D01*
D02*
G37*
G36*
X187500D02*
X187473D01*
X186456Y483727D01*
X185544Y483201D01*
X184799Y482456D01*
X184273Y481544D01*
X184000Y480527D01*
Y480500D01*
X187500D01*
Y484000D01*
D02*
G37*
G36*
X160527D02*
X160500D01*
Y480500D01*
X164000D01*
Y480527D01*
X163727Y481544D01*
X163201Y482456D01*
X162456Y483201D01*
X161544Y483727D01*
X160527Y484000D01*
D02*
G37*
G36*
X159500D02*
X159473D01*
X158456Y483727D01*
X157544Y483201D01*
X156799Y482456D01*
X156273Y481544D01*
X156000Y480527D01*
Y480500D01*
X159500D01*
Y484000D01*
D02*
G37*
G36*
X138527D02*
X138500D01*
Y480500D01*
X142000D01*
Y480527D01*
X141727Y481544D01*
X141201Y482456D01*
X140456Y483201D01*
X139544Y483727D01*
X138527Y484000D01*
D02*
G37*
G36*
X652527Y480000D02*
X652500D01*
Y476500D01*
X656000D01*
Y476527D01*
X655727Y477544D01*
X655201Y478456D01*
X654456Y479201D01*
X653544Y479727D01*
X652527Y480000D01*
D02*
G37*
G36*
X651500D02*
X651473D01*
X650456Y479727D01*
X649544Y479201D01*
X648799Y478456D01*
X648273Y477544D01*
X648000Y476527D01*
Y476500D01*
X651500D01*
Y480000D01*
D02*
G37*
G36*
X440000Y479500D02*
X436500D01*
Y476000D01*
X436527D01*
X437544Y476273D01*
X438456Y476799D01*
X439201Y477544D01*
X439727Y478456D01*
X440000Y479473D01*
Y479500D01*
D02*
G37*
G36*
X435500D02*
X432000D01*
Y479473D01*
X432273Y478456D01*
X432799Y477544D01*
X433544Y476799D01*
X434456Y476273D01*
X435473Y476000D01*
X435500D01*
Y479500D01*
D02*
G37*
G36*
X408000D02*
X404500D01*
Y476000D01*
X404527D01*
X405544Y476273D01*
X406456Y476799D01*
X407201Y477544D01*
X407727Y478456D01*
X408000Y479473D01*
Y479500D01*
D02*
G37*
G36*
X403500D02*
X400000D01*
Y479473D01*
X400273Y478456D01*
X400799Y477544D01*
X401544Y476799D01*
X402456Y476273D01*
X403473Y476000D01*
X403500D01*
Y479500D01*
D02*
G37*
G36*
X376000D02*
X372500D01*
Y476000D01*
X372527D01*
X373544Y476273D01*
X374456Y476799D01*
X375201Y477544D01*
X375727Y478456D01*
X376000Y479473D01*
Y479500D01*
D02*
G37*
G36*
X371500D02*
X368000D01*
Y479473D01*
X368273Y478456D01*
X368799Y477544D01*
X369544Y476799D01*
X370456Y476273D01*
X371473Y476000D01*
X371500D01*
Y479500D01*
D02*
G37*
G36*
X348000D02*
X344500D01*
Y476000D01*
X344527D01*
X345544Y476273D01*
X346456Y476799D01*
X347201Y477544D01*
X347727Y478456D01*
X348000Y479473D01*
Y479500D01*
D02*
G37*
G36*
X343500D02*
X340000D01*
Y479473D01*
X340273Y478456D01*
X340799Y477544D01*
X341544Y476799D01*
X342456Y476273D01*
X343473Y476000D01*
X343500D01*
Y479500D01*
D02*
G37*
G36*
X320000D02*
X316500D01*
Y476000D01*
X316527D01*
X317544Y476273D01*
X318456Y476799D01*
X319201Y477544D01*
X319727Y478456D01*
X320000Y479473D01*
Y479500D01*
D02*
G37*
G36*
X315500D02*
X312000D01*
Y479473D01*
X312273Y478456D01*
X312799Y477544D01*
X313544Y476799D01*
X314456Y476273D01*
X315473Y476000D01*
X315500D01*
Y479500D01*
D02*
G37*
G36*
X294000D02*
X290500D01*
Y476000D01*
X290527D01*
X291544Y476273D01*
X292456Y476799D01*
X293201Y477544D01*
X293727Y478456D01*
X294000Y479473D01*
Y479500D01*
D02*
G37*
G36*
X289500D02*
X286000D01*
Y479473D01*
X286273Y478456D01*
X286799Y477544D01*
X287544Y476799D01*
X288456Y476273D01*
X289473Y476000D01*
X289500D01*
Y479500D01*
D02*
G37*
G36*
X262000D02*
X258500D01*
Y476000D01*
X258527D01*
X259544Y476273D01*
X260456Y476799D01*
X261201Y477544D01*
X261727Y478456D01*
X262000Y479473D01*
Y479500D01*
D02*
G37*
G36*
X257500D02*
X254000D01*
Y479473D01*
X254273Y478456D01*
X254799Y477544D01*
X255544Y476799D01*
X256456Y476273D01*
X257473Y476000D01*
X257500D01*
Y479500D01*
D02*
G37*
G36*
X218000D02*
X214500D01*
Y476000D01*
X214527D01*
X215544Y476273D01*
X216456Y476799D01*
X217201Y477544D01*
X217727Y478456D01*
X218000Y479473D01*
Y479500D01*
D02*
G37*
G36*
X213500D02*
X210000D01*
Y479473D01*
X210273Y478456D01*
X210799Y477544D01*
X211544Y476799D01*
X212456Y476273D01*
X213473Y476000D01*
X213500D01*
Y479500D01*
D02*
G37*
G36*
X192000D02*
X188500D01*
Y476000D01*
X188527D01*
X189544Y476273D01*
X190456Y476799D01*
X191201Y477544D01*
X191727Y478456D01*
X192000Y479473D01*
Y479500D01*
D02*
G37*
G36*
X187500D02*
X184000D01*
Y479473D01*
X184273Y478456D01*
X184799Y477544D01*
X185544Y476799D01*
X186456Y476273D01*
X187473Y476000D01*
X187500D01*
Y479500D01*
D02*
G37*
G36*
X164000D02*
X160500D01*
Y476000D01*
X160527D01*
X161544Y476273D01*
X162456Y476799D01*
X163201Y477544D01*
X163727Y478456D01*
X164000Y479473D01*
Y479500D01*
D02*
G37*
G36*
X159500D02*
X156000D01*
Y479473D01*
X156273Y478456D01*
X156799Y477544D01*
X157544Y476799D01*
X158456Y476273D01*
X159473Y476000D01*
X159500D01*
Y479500D01*
D02*
G37*
G36*
X142000D02*
X138500D01*
Y476000D01*
X138527D01*
X139544Y476273D01*
X140456Y476799D01*
X141201Y477544D01*
X141727Y478456D01*
X142000Y479473D01*
Y479500D01*
D02*
G37*
G36*
X549445Y477209D02*
X546602D01*
X543784Y476838D01*
X541038Y476102D01*
X538412Y475014D01*
X535950Y473593D01*
X534894Y472782D01*
X534683Y472764D01*
X532269Y473401D01*
X531770Y473675D01*
X531510Y473920D01*
X531201Y474456D01*
X530456Y475201D01*
X529544Y475727D01*
X528527Y476000D01*
X528500D01*
Y472000D01*
X528000D01*
Y471500D01*
X524000D01*
Y471473D01*
X524273Y470456D01*
X524799Y469544D01*
X525544Y468799D01*
X526456Y468273D01*
X526824Y468174D01*
X528171Y466114D01*
X528533Y465135D01*
X527445Y462509D01*
X526710Y459763D01*
X526339Y456945D01*
Y454102D01*
X526710Y451284D01*
X527445Y448538D01*
X528533Y445912D01*
X529954Y443450D01*
X531685Y441195D01*
X533695Y439185D01*
X535950Y437455D01*
X538412Y436033D01*
X541038Y434945D01*
X543784Y434210D01*
X546602Y433839D01*
X549445D01*
X552263Y434210D01*
X555009Y434945D01*
X557635Y436033D01*
X560097Y437455D01*
X562352Y439185D01*
X564362Y441195D01*
X566093Y443450D01*
X567514Y445912D01*
X568602Y448538D01*
X569338Y451284D01*
X569709Y454102D01*
Y456945D01*
X569338Y459763D01*
X568602Y462509D01*
X567514Y465135D01*
X566093Y467597D01*
X564362Y469852D01*
X562352Y471862D01*
X560097Y473593D01*
X557635Y475014D01*
X555009Y476102D01*
X552263Y476838D01*
X549445Y477209D01*
D02*
G37*
G36*
X527500Y476000D02*
X527473D01*
X526456Y475727D01*
X525544Y475201D01*
X524799Y474456D01*
X524273Y473544D01*
X524000Y472527D01*
Y472500D01*
X527500D01*
Y476000D01*
D02*
G37*
G36*
X656000Y475500D02*
X652500D01*
Y472000D01*
X652527D01*
X653544Y472273D01*
X654456Y472799D01*
X655201Y473544D01*
X655727Y474456D01*
X656000Y475473D01*
Y475500D01*
D02*
G37*
G36*
X651500D02*
X648000D01*
Y475473D01*
X648273Y474456D01*
X648799Y473544D01*
X649544Y472799D01*
X650456Y472273D01*
X651473Y472000D01*
X651500D01*
Y475500D01*
D02*
G37*
G36*
X175591Y473000D02*
X175500D01*
Y467500D01*
X181000D01*
Y467591D01*
X180769Y468750D01*
X180317Y469842D01*
X179660Y470825D01*
X178825Y471661D01*
X177842Y472317D01*
X176750Y472769D01*
X175591Y473000D01*
D02*
G37*
G36*
X174500D02*
X174409D01*
X173250Y472769D01*
X172158Y472317D01*
X171175Y471661D01*
X170340Y470825D01*
X169683Y469842D01*
X169231Y468750D01*
X169000Y467591D01*
Y467500D01*
X174500D01*
Y473000D01*
D02*
G37*
G36*
X418500Y469489D02*
Y466500D01*
X421489D01*
X421262Y467351D01*
X420801Y468149D01*
X420149Y468801D01*
X419351Y469262D01*
X418500Y469489D01*
D02*
G37*
G36*
X417500D02*
X416649Y469262D01*
X415851Y468801D01*
X415199Y468149D01*
X414739Y467351D01*
X414510Y466500D01*
X417500D01*
Y469489D01*
D02*
G37*
G36*
X421489Y465500D02*
X418500D01*
Y462510D01*
X419351Y462739D01*
X420149Y463199D01*
X420801Y463851D01*
X421262Y464649D01*
X421489Y465500D01*
D02*
G37*
G36*
X417500D02*
X414510D01*
X414739Y464649D01*
X415199Y463851D01*
X415851Y463199D01*
X416649Y462739D01*
X417500Y462510D01*
Y465500D01*
D02*
G37*
G36*
X181000Y466500D02*
X175500D01*
Y461000D01*
X175591D01*
X176750Y461231D01*
X177842Y461683D01*
X178825Y462339D01*
X179660Y463175D01*
X180317Y464158D01*
X180769Y465250D01*
X181000Y466409D01*
Y466500D01*
D02*
G37*
G36*
X174500D02*
X169000D01*
Y466409D01*
X169231Y465250D01*
X169683Y464158D01*
X170340Y463175D01*
X171175Y462339D01*
X172158Y461683D01*
X173250Y461231D01*
X174409Y461000D01*
X174500D01*
Y466500D01*
D02*
G37*
G36*
X116527Y464000D02*
X116500D01*
Y460500D01*
X120000D01*
Y460527D01*
X119727Y461544D01*
X119201Y462456D01*
X118456Y463201D01*
X117544Y463727D01*
X116527Y464000D01*
D02*
G37*
G36*
X601658Y466000D02*
X600342D01*
X599070Y465659D01*
X597930Y465001D01*
X596999Y464070D01*
X596341Y462930D01*
X596000Y461658D01*
Y460342D01*
X596341Y459070D01*
X596999Y457930D01*
X597930Y456999D01*
X599070Y456341D01*
X600342Y456000D01*
X601658D01*
X602930Y456341D01*
X604070Y456999D01*
X605001Y457930D01*
X605659Y459070D01*
X606000Y460342D01*
Y461658D01*
X605659Y462930D01*
X605001Y464070D01*
X604070Y465001D01*
X602930Y465659D01*
X601658Y466000D01*
D02*
G37*
G36*
X120000Y459500D02*
X116500D01*
Y456000D01*
X116527D01*
X117544Y456273D01*
X118456Y456799D01*
X119201Y457544D01*
X119727Y458456D01*
X120000Y459473D01*
Y459500D01*
D02*
G37*
G36*
X578527Y454000D02*
X578500D01*
Y450500D01*
X582000D01*
Y450527D01*
X581727Y451544D01*
X581201Y452456D01*
X580456Y453201D01*
X579544Y453727D01*
X578527Y454000D01*
D02*
G37*
G36*
X577500D02*
X577473D01*
X576456Y453727D01*
X575544Y453201D01*
X574799Y452456D01*
X574273Y451544D01*
X574000Y450527D01*
Y450500D01*
X577500D01*
Y454000D01*
D02*
G37*
G36*
X663598Y454043D02*
X663500D01*
Y450000D01*
X667543D01*
Y450098D01*
X667234Y451254D01*
X666636Y452290D01*
X665790Y453135D01*
X664754Y453734D01*
X663598Y454043D01*
D02*
G37*
G36*
X662500D02*
X662402D01*
X661246Y453734D01*
X660210Y453135D01*
X659365Y452290D01*
X658766Y451254D01*
X658457Y450098D01*
Y450000D01*
X662500D01*
Y454043D01*
D02*
G37*
G36*
X139543Y453543D02*
X135500D01*
Y449500D01*
X139543D01*
Y453543D01*
D02*
G37*
G36*
X134500D02*
X130457D01*
Y449500D01*
X134500D01*
Y453543D01*
D02*
G37*
G36*
X676527Y452000D02*
X676500D01*
Y448500D01*
X680000D01*
Y448527D01*
X679727Y449544D01*
X679201Y450456D01*
X678456Y451201D01*
X677544Y451727D01*
X676527Y452000D01*
D02*
G37*
G36*
X675500D02*
X675473D01*
X674456Y451727D01*
X673544Y451201D01*
X672799Y450456D01*
X672273Y449544D01*
X672000Y448527D01*
Y448500D01*
X675500D01*
Y452000D01*
D02*
G37*
G36*
X642527D02*
X642500D01*
Y448500D01*
X646000D01*
Y448527D01*
X645727Y449544D01*
X645201Y450456D01*
X644456Y451201D01*
X643544Y451727D01*
X642527Y452000D01*
D02*
G37*
G36*
X641500D02*
X641473D01*
X640456Y451727D01*
X639544Y451201D01*
X638799Y450456D01*
X638273Y449544D01*
X638000Y448527D01*
Y448500D01*
X641500D01*
Y452000D01*
D02*
G37*
G36*
X582000Y449500D02*
X578500D01*
Y446000D01*
X578527D01*
X579544Y446273D01*
X580456Y446799D01*
X581201Y447544D01*
X581727Y448456D01*
X582000Y449473D01*
Y449500D01*
D02*
G37*
G36*
X577500D02*
X574000D01*
Y449473D01*
X574273Y448456D01*
X574799Y447544D01*
X575544Y446799D01*
X576456Y446273D01*
X577473Y446000D01*
X577500D01*
Y449500D01*
D02*
G37*
G36*
X667543Y449000D02*
X663500D01*
Y444957D01*
X663598D01*
X664754Y445266D01*
X665790Y445864D01*
X666636Y446710D01*
X667234Y447746D01*
X667543Y448902D01*
Y449000D01*
D02*
G37*
G36*
X662500D02*
X658457D01*
Y448902D01*
X658766Y447746D01*
X659365Y446710D01*
X660210Y445864D01*
X661246Y445266D01*
X662402Y444957D01*
X662500D01*
Y449000D01*
D02*
G37*
G36*
X200527Y448000D02*
X200500D01*
Y444500D01*
X204000D01*
Y444527D01*
X203727Y445544D01*
X203201Y446456D01*
X202456Y447201D01*
X201544Y447727D01*
X200527Y448000D01*
D02*
G37*
G36*
X199500D02*
X199473D01*
X198456Y447727D01*
X197544Y447201D01*
X196799Y446456D01*
X196273Y445544D01*
X196000Y444527D01*
Y444500D01*
X199500D01*
Y448000D01*
D02*
G37*
G36*
X139543Y448500D02*
X135500D01*
Y444457D01*
X139543D01*
Y448500D01*
D02*
G37*
G36*
X134500D02*
X130457D01*
Y444457D01*
X134500D01*
Y448500D01*
D02*
G37*
G36*
X680000Y447500D02*
X676500D01*
Y444000D01*
X676527D01*
X677544Y444273D01*
X678456Y444799D01*
X679201Y445544D01*
X679727Y446456D01*
X680000Y447473D01*
Y447500D01*
D02*
G37*
G36*
X675500D02*
X672000D01*
Y447473D01*
X672273Y446456D01*
X672799Y445544D01*
X673544Y444799D01*
X674456Y444273D01*
X675473Y444000D01*
X675500D01*
Y447500D01*
D02*
G37*
G36*
X646000D02*
X642500D01*
Y444000D01*
X642527D01*
X643544Y444273D01*
X644456Y444799D01*
X645201Y445544D01*
X645727Y446456D01*
X646000Y447473D01*
Y447500D01*
D02*
G37*
G36*
X641500D02*
X638000D01*
Y447473D01*
X638273Y446456D01*
X638799Y445544D01*
X639544Y444799D01*
X640456Y444273D01*
X641473Y444000D01*
X641500D01*
Y447500D01*
D02*
G37*
G36*
X116527Y444000D02*
X116500D01*
Y440500D01*
X120000D01*
Y440527D01*
X119727Y441544D01*
X119201Y442456D01*
X118456Y443201D01*
X117544Y443727D01*
X116527Y444000D01*
D02*
G37*
G36*
X204000Y443500D02*
X200500D01*
Y440000D01*
X200527D01*
X201544Y440273D01*
X202456Y440799D01*
X203201Y441544D01*
X203727Y442456D01*
X204000Y443473D01*
Y443500D01*
D02*
G37*
G36*
X199500D02*
X196000D01*
Y443473D01*
X196273Y442456D01*
X196799Y441544D01*
X197544Y440799D01*
X198456Y440273D01*
X199473Y440000D01*
X199500D01*
Y443500D01*
D02*
G37*
G36*
X615439Y448193D02*
X614057D01*
X612722Y447835D01*
X611526Y447144D01*
X610549Y446167D01*
X609858Y444971D01*
X609500Y443636D01*
Y442254D01*
X609858Y440919D01*
X610549Y439722D01*
X611526Y438745D01*
X612722Y438055D01*
X614057Y437697D01*
X615439D01*
X616774Y438055D01*
X617970Y438745D01*
X618948Y439722D01*
X619638Y440919D01*
X619996Y442254D01*
Y443636D01*
X619638Y444971D01*
X618948Y446167D01*
X617970Y447144D01*
X616774Y447835D01*
X615439Y448193D01*
D02*
G37*
G36*
X120000Y439500D02*
X116500D01*
Y436000D01*
X116527D01*
X117544Y436273D01*
X118456Y436799D01*
X119201Y437544D01*
X119727Y438456D01*
X120000Y439473D01*
Y439500D01*
D02*
G37*
G36*
X242358Y477209D02*
X239516D01*
X236697Y476838D01*
X233952Y476102D01*
X231325Y475014D01*
X228864Y473593D01*
X226608Y471862D01*
X224598Y469852D01*
X222868Y467597D01*
X221447Y465135D01*
X220359Y462509D01*
X219623Y459763D01*
X219252Y456945D01*
Y454102D01*
X219623Y451284D01*
X220359Y448538D01*
X221447Y445912D01*
X222868Y443450D01*
X224598Y441195D01*
X226608Y439185D01*
X228864Y437455D01*
X231325Y436033D01*
X233952Y434945D01*
X236697Y434210D01*
X239516Y433839D01*
X242358D01*
X245177Y434210D01*
X247922Y434945D01*
X250549Y436033D01*
X253010Y437455D01*
X255266Y439185D01*
X257276Y441195D01*
X259006Y443450D01*
X260427Y445912D01*
X261515Y448538D01*
X262251Y451284D01*
X262622Y454102D01*
Y456945D01*
X262251Y459763D01*
X261515Y462509D01*
X260427Y465135D01*
X259006Y467597D01*
X257276Y469852D01*
X255266Y471862D01*
X253010Y473593D01*
X250549Y475014D01*
X247922Y476102D01*
X245177Y476838D01*
X242358Y477209D01*
D02*
G37*
G36*
X514527Y436000D02*
X514500D01*
Y432500D01*
X518000D01*
Y432527D01*
X517727Y433544D01*
X517201Y434456D01*
X516456Y435201D01*
X515544Y435727D01*
X514527Y436000D01*
D02*
G37*
G36*
X513500D02*
X513473D01*
X512456Y435727D01*
X511544Y435201D01*
X510799Y434456D01*
X510273Y433544D01*
X510000Y432527D01*
Y432500D01*
X513500D01*
Y436000D01*
D02*
G37*
G36*
X484527Y432000D02*
X484500D01*
Y428500D01*
X488000D01*
Y428527D01*
X487727Y429544D01*
X487201Y430456D01*
X486456Y431201D01*
X485544Y431727D01*
X484527Y432000D01*
D02*
G37*
G36*
X518000Y431500D02*
X514500D01*
Y428000D01*
X514527D01*
X515544Y428273D01*
X516456Y428799D01*
X517201Y429544D01*
X517727Y430456D01*
X518000Y431473D01*
Y431500D01*
D02*
G37*
G36*
X513500D02*
X510000D01*
Y431473D01*
X510273Y430456D01*
X510799Y429544D01*
X511544Y428799D01*
X512456Y428273D01*
X513473Y428000D01*
X513500D01*
Y431500D01*
D02*
G37*
G36*
X544527Y430000D02*
X544500D01*
Y426500D01*
X548000D01*
Y426527D01*
X547727Y427544D01*
X547201Y428456D01*
X546456Y429201D01*
X545544Y429727D01*
X544527Y430000D01*
D02*
G37*
G36*
X543500D02*
X543473D01*
X542456Y429727D01*
X541544Y429201D01*
X540799Y428456D01*
X540273Y427544D01*
X540000Y426527D01*
Y426500D01*
X543500D01*
Y430000D01*
D02*
G37*
G36*
X678527Y428000D02*
X678500D01*
Y424500D01*
X682000D01*
Y424527D01*
X681727Y425544D01*
X681201Y426456D01*
X680456Y427201D01*
X679544Y427727D01*
X678527Y428000D01*
D02*
G37*
G36*
X677500D02*
X677473D01*
X676456Y427727D01*
X675544Y427201D01*
X674799Y426456D01*
X674273Y425544D01*
X674000Y424527D01*
Y424500D01*
X677500D01*
Y428000D01*
D02*
G37*
G36*
X488000Y427500D02*
X484500D01*
Y424000D01*
X484527D01*
X485544Y424273D01*
X486456Y424799D01*
X487201Y425544D01*
X487727Y426456D01*
X488000Y427473D01*
Y427500D01*
D02*
G37*
G36*
X461984Y488018D02*
X460612Y487883D01*
X459293Y487483D01*
X458076Y486833D01*
X457011Y485958D01*
X456136Y484892D01*
X455486Y483676D01*
X455086Y482357D01*
X454950Y480984D01*
X455086Y479612D01*
X455486Y478293D01*
X456136Y477076D01*
X457011Y476011D01*
X463966Y469055D01*
Y416034D01*
X272000D01*
X272000Y416034D01*
X270628Y415899D01*
X269308Y415498D01*
X268092Y414848D01*
X267026Y413974D01*
X267026Y413974D01*
X198026Y344974D01*
X197807Y344707D01*
X197563Y344462D01*
X197371Y344175D01*
X197152Y343908D01*
X196989Y343603D01*
X196797Y343316D01*
X196665Y342997D01*
X196502Y342692D01*
X196401Y342361D01*
X196269Y342042D01*
X196202Y341703D01*
X196101Y341372D01*
X196067Y341028D01*
X196000Y340689D01*
Y340344D01*
X195966Y340000D01*
X196000Y339656D01*
Y339311D01*
X196067Y338972D01*
X196101Y338628D01*
X196202Y338297D01*
X196269Y337958D01*
X196401Y337639D01*
X196502Y337308D01*
X196665Y337003D01*
X196797Y336684D01*
X196989Y336397D01*
X197152Y336092D01*
X197371Y335825D01*
X197563Y335538D01*
X197807Y335293D01*
X198026Y335026D01*
X198293Y334807D01*
X198538Y334563D01*
X198825Y334371D01*
X199092Y334152D01*
X199397Y333989D01*
X199684Y333797D01*
X200004Y333664D01*
X200308Y333502D01*
X200639Y333401D01*
X200958Y333269D01*
X201297Y333202D01*
X201628Y333101D01*
X201972Y333067D01*
X202311Y333000D01*
X202656D01*
X203000Y332966D01*
X203344Y333000D01*
X203689D01*
X204028Y333067D01*
X204372Y333101D01*
X204703Y333202D01*
X205042Y333269D01*
X205361Y333401D01*
X205692Y333502D01*
X205996Y333664D01*
X206316Y333797D01*
X206603Y333989D01*
X206908Y334152D01*
X207175Y334371D01*
X207462Y334563D01*
X207707Y334807D01*
X207974Y335026D01*
X274914Y401966D01*
X471000D01*
X472372Y402101D01*
X473692Y402501D01*
X474908Y403152D01*
X475974Y404026D01*
X476848Y405092D01*
X477498Y406308D01*
X477899Y407628D01*
X478034Y409000D01*
Y424334D01*
X480002Y425195D01*
X481034Y425309D01*
X481544Y424799D01*
X482456Y424273D01*
X483473Y424000D01*
X483500D01*
Y428000D01*
Y432000D01*
X483473D01*
X482456Y431727D01*
X481544Y431201D01*
X481034Y430691D01*
X480002Y430805D01*
X478034Y431666D01*
Y471968D01*
X478034Y471969D01*
X477899Y473341D01*
X477498Y474660D01*
X476848Y475876D01*
X475974Y476942D01*
X475974Y476942D01*
X466958Y485958D01*
X465892Y486833D01*
X464676Y487483D01*
X463356Y487883D01*
X461984Y488018D01*
D02*
G37*
G36*
X548000Y425500D02*
X544500D01*
Y422000D01*
X544527D01*
X545544Y422273D01*
X546456Y422799D01*
X547201Y423544D01*
X547727Y424456D01*
X548000Y425473D01*
Y425500D01*
D02*
G37*
G36*
X543500D02*
X540000D01*
Y425473D01*
X540273Y424456D01*
X540799Y423544D01*
X541544Y422799D01*
X542456Y422273D01*
X543473Y422000D01*
X543500D01*
Y425500D01*
D02*
G37*
G36*
X682000Y423500D02*
X678500D01*
Y420000D01*
X678527D01*
X679544Y420273D01*
X680456Y420799D01*
X681201Y421544D01*
X681727Y422456D01*
X682000Y423473D01*
Y423500D01*
D02*
G37*
G36*
X677500D02*
X674000D01*
Y423473D01*
X674273Y422456D01*
X674799Y421544D01*
X675544Y420799D01*
X676456Y420273D01*
X677473Y420000D01*
X677500D01*
Y423500D01*
D02*
G37*
G36*
X668543Y430043D02*
X657457D01*
Y418957D01*
X668543D01*
Y430043D01*
D02*
G37*
G36*
X135730Y429543D02*
X134270D01*
X132860Y429166D01*
X131596Y428436D01*
X130564Y427404D01*
X129834Y426140D01*
X129457Y424730D01*
Y423270D01*
X129834Y421860D01*
X130564Y420596D01*
X131596Y419564D01*
X132860Y418834D01*
X134270Y418457D01*
X135730D01*
X137140Y418834D01*
X138404Y419564D01*
X139436Y420596D01*
X140165Y421860D01*
X140543Y423270D01*
Y424730D01*
X140165Y426140D01*
X139436Y427404D01*
X138404Y428436D01*
X137140Y429166D01*
X135730Y429543D01*
D02*
G37*
G36*
X252527Y420000D02*
X252500D01*
Y416500D01*
X256000D01*
Y416527D01*
X255727Y417544D01*
X255201Y418456D01*
X254456Y419201D01*
X253544Y419727D01*
X252527Y420000D01*
D02*
G37*
G36*
X251500D02*
X251473D01*
X250456Y419727D01*
X249544Y419201D01*
X248799Y418456D01*
X248273Y417544D01*
X248000Y416527D01*
Y416500D01*
X251500D01*
Y420000D01*
D02*
G37*
G36*
X116527D02*
X116500D01*
Y416500D01*
X120000D01*
Y416527D01*
X119727Y417544D01*
X119201Y418456D01*
X118456Y419201D01*
X117544Y419727D01*
X116527Y420000D01*
D02*
G37*
G36*
X228527Y418000D02*
X228500D01*
Y414500D01*
X232000D01*
Y414527D01*
X231727Y415544D01*
X231201Y416456D01*
X230456Y417201D01*
X229544Y417727D01*
X228527Y418000D01*
D02*
G37*
G36*
X227500D02*
X227473D01*
X226456Y417727D01*
X225544Y417201D01*
X224799Y416456D01*
X224273Y415544D01*
X224000Y414527D01*
Y414500D01*
X227500D01*
Y418000D01*
D02*
G37*
G36*
X532527Y416000D02*
X532500D01*
Y412500D01*
X536000D01*
Y412527D01*
X535727Y413544D01*
X535201Y414456D01*
X534456Y415201D01*
X533544Y415727D01*
X532527Y416000D01*
D02*
G37*
G36*
X531500D02*
X531473D01*
X530456Y415727D01*
X529544Y415201D01*
X528799Y414456D01*
X528273Y413544D01*
X528000Y412527D01*
Y412500D01*
X531500D01*
Y416000D01*
D02*
G37*
G36*
X256000Y415500D02*
X252500D01*
Y412000D01*
X252527D01*
X253544Y412273D01*
X254456Y412799D01*
X255201Y413544D01*
X255727Y414456D01*
X256000Y415473D01*
Y415500D01*
D02*
G37*
G36*
X251500D02*
X248000D01*
Y415473D01*
X248273Y414456D01*
X248799Y413544D01*
X249544Y412799D01*
X250456Y412273D01*
X251473Y412000D01*
X251500D01*
Y415500D01*
D02*
G37*
G36*
X120000D02*
X116500D01*
Y412000D01*
X116527D01*
X117544Y412273D01*
X118456Y412799D01*
X119201Y413544D01*
X119727Y414456D01*
X120000Y415473D01*
Y415500D01*
D02*
G37*
G36*
X211500Y414490D02*
Y411500D01*
X214490D01*
X214262Y412351D01*
X213801Y413149D01*
X213149Y413801D01*
X212351Y414261D01*
X211500Y414490D01*
D02*
G37*
G36*
X210500D02*
X209649Y414261D01*
X208851Y413801D01*
X208199Y413149D01*
X207738Y412351D01*
X207510Y411500D01*
X210500D01*
Y414490D01*
D02*
G37*
G36*
X502527Y414000D02*
X502500D01*
Y410500D01*
X506000D01*
Y410527D01*
X505727Y411544D01*
X505201Y412456D01*
X504456Y413201D01*
X503544Y413727D01*
X502527Y414000D01*
D02*
G37*
G36*
X501500D02*
X501473D01*
X500456Y413727D01*
X499544Y413201D01*
X498799Y412456D01*
X498273Y411544D01*
X498000Y410527D01*
Y410500D01*
X501500D01*
Y414000D01*
D02*
G37*
G36*
X615439Y420634D02*
X614057D01*
X612722Y420276D01*
X611526Y419585D01*
X610549Y418608D01*
X609858Y417412D01*
X609500Y416077D01*
Y414695D01*
X609858Y413360D01*
X610549Y412163D01*
X611526Y411186D01*
X612722Y410495D01*
X614057Y410138D01*
X615439D01*
X616774Y410495D01*
X617970Y411186D01*
X618948Y412163D01*
X619638Y413360D01*
X619996Y414695D01*
Y416077D01*
X619638Y417412D01*
X618948Y418608D01*
X617970Y419585D01*
X616774Y420276D01*
X615439Y420634D01*
D02*
G37*
G36*
X232000Y413500D02*
X228500D01*
Y410000D01*
X228527D01*
X229544Y410273D01*
X230456Y410799D01*
X231201Y411544D01*
X231727Y412456D01*
X232000Y413473D01*
Y413500D01*
D02*
G37*
G36*
X227500D02*
X224000D01*
Y413473D01*
X224273Y412456D01*
X224799Y411544D01*
X225544Y410799D01*
X226456Y410273D01*
X227473Y410000D01*
X227500D01*
Y413500D01*
D02*
G37*
G36*
X536000Y411500D02*
X532500D01*
Y408000D01*
X532527D01*
X533544Y408273D01*
X534456Y408799D01*
X535201Y409544D01*
X535727Y410456D01*
X536000Y411473D01*
Y411500D01*
D02*
G37*
G36*
X531500D02*
X528000D01*
Y411473D01*
X528273Y410456D01*
X528799Y409544D01*
X529544Y408799D01*
X530456Y408273D01*
X531473Y408000D01*
X531500D01*
Y411500D01*
D02*
G37*
G36*
X214490Y410500D02*
X211500D01*
Y407511D01*
X212351Y407738D01*
X213149Y408199D01*
X213801Y408851D01*
X214262Y409649D01*
X214490Y410500D01*
D02*
G37*
G36*
X210500D02*
X207510D01*
X207738Y409649D01*
X208199Y408851D01*
X208851Y408199D01*
X209649Y407738D01*
X210500Y407511D01*
Y410500D01*
D02*
G37*
G36*
X506000Y409500D02*
X502500D01*
Y406000D01*
X502527D01*
X503544Y406273D01*
X504456Y406799D01*
X505201Y407544D01*
X505727Y408456D01*
X506000Y409473D01*
Y409500D01*
D02*
G37*
G36*
X501500D02*
X498000D01*
Y409473D01*
X498273Y408456D01*
X498799Y407544D01*
X499544Y406799D01*
X500456Y406273D01*
X501473Y406000D01*
X501500D01*
Y409500D01*
D02*
G37*
G36*
X618527Y404000D02*
X618500D01*
Y400500D01*
X622000D01*
Y400527D01*
X621727Y401544D01*
X621201Y402456D01*
X620456Y403201D01*
X619544Y403727D01*
X618527Y404000D01*
D02*
G37*
G36*
X617500D02*
X617473D01*
X616456Y403727D01*
X615544Y403201D01*
X614799Y402456D01*
X614273Y401544D01*
X614000Y400527D01*
Y400500D01*
X617500D01*
Y404000D01*
D02*
G37*
G36*
X522527D02*
X522500D01*
Y400500D01*
X526000D01*
Y400527D01*
X525727Y401544D01*
X525201Y402456D01*
X524456Y403201D01*
X523544Y403727D01*
X522527Y404000D01*
D02*
G37*
G36*
X521500D02*
X521473D01*
X520456Y403727D01*
X519544Y403201D01*
X518799Y402456D01*
X518273Y401544D01*
X518000Y400527D01*
Y400500D01*
X521500D01*
Y404000D01*
D02*
G37*
G36*
X678527Y402000D02*
X678500D01*
Y398500D01*
X682000D01*
Y398527D01*
X681727Y399544D01*
X681201Y400456D01*
X680456Y401201D01*
X679544Y401727D01*
X678527Y402000D01*
D02*
G37*
G36*
X677500D02*
X677473D01*
X676456Y401727D01*
X675544Y401201D01*
X674799Y400456D01*
X674273Y399544D01*
X674000Y398527D01*
Y398500D01*
X677500D01*
Y402000D01*
D02*
G37*
G36*
X652527D02*
X652500D01*
Y398500D01*
X656000D01*
Y398527D01*
X655727Y399544D01*
X655201Y400456D01*
X654456Y401201D01*
X653544Y401727D01*
X652527Y402000D01*
D02*
G37*
G36*
X651500D02*
X651473D01*
X650456Y401727D01*
X649544Y401201D01*
X648799Y400456D01*
X648273Y399544D01*
X648000Y398527D01*
Y398500D01*
X651500D01*
Y402000D01*
D02*
G37*
G36*
X606500Y400490D02*
Y397500D01*
X609489D01*
X609262Y398351D01*
X608801Y399149D01*
X608149Y399801D01*
X607351Y400261D01*
X606500Y400490D01*
D02*
G37*
G36*
X622000Y399500D02*
X618500D01*
Y396000D01*
X618527D01*
X619544Y396273D01*
X620456Y396799D01*
X621201Y397544D01*
X621727Y398456D01*
X622000Y399473D01*
Y399500D01*
D02*
G37*
G36*
X617500D02*
X614000D01*
Y399473D01*
X614273Y398456D01*
X614799Y397544D01*
X615544Y396799D01*
X616456Y396273D01*
X617473Y396000D01*
X617500D01*
Y399500D01*
D02*
G37*
G36*
X526000D02*
X522500D01*
Y396000D01*
X522527D01*
X523544Y396273D01*
X524456Y396799D01*
X525201Y397544D01*
X525727Y398456D01*
X526000Y399473D01*
Y399500D01*
D02*
G37*
G36*
X521500D02*
X518000D01*
Y399473D01*
X518273Y398456D01*
X518799Y397544D01*
X519544Y396799D01*
X520456Y396273D01*
X521473Y396000D01*
X521500D01*
Y399500D01*
D02*
G37*
G36*
X682000Y397500D02*
X678500D01*
Y394000D01*
X678527D01*
X679544Y394273D01*
X680456Y394799D01*
X681201Y395544D01*
X681727Y396456D01*
X682000Y397473D01*
Y397500D01*
D02*
G37*
G36*
X677500D02*
X674000D01*
Y397473D01*
X674273Y396456D01*
X674799Y395544D01*
X675544Y394799D01*
X676456Y394273D01*
X677473Y394000D01*
X677500D01*
Y397500D01*
D02*
G37*
G36*
X656000D02*
X652500D01*
Y394000D01*
X652527D01*
X653544Y394273D01*
X654456Y394799D01*
X655201Y395544D01*
X655727Y396456D01*
X656000Y397473D01*
Y397500D01*
D02*
G37*
G36*
X651500D02*
X648000D01*
Y397473D01*
X648273Y396456D01*
X648799Y395544D01*
X649544Y394799D01*
X650456Y394273D01*
X651473Y394000D01*
X651500D01*
Y397500D01*
D02*
G37*
G36*
X609489Y396500D02*
X606500D01*
Y393511D01*
X607351Y393739D01*
X608149Y394199D01*
X608801Y394851D01*
X609262Y395649D01*
X609489Y396500D01*
D02*
G37*
G36*
X591461Y402500D02*
X590539D01*
X589649Y402261D01*
X588851Y401801D01*
X588199Y401149D01*
X587739Y400351D01*
X587500Y399461D01*
Y398539D01*
X587739Y397649D01*
X588199Y396851D01*
X588851Y396199D01*
X589649Y395739D01*
X590539Y395500D01*
X591461D01*
X592351Y395739D01*
X593083Y396161D01*
X593572Y396027D01*
X595591Y395206D01*
X596020Y394966D01*
X596239Y394149D01*
X596699Y393351D01*
X597351Y392699D01*
X598149Y392238D01*
X599039Y392000D01*
X599961D01*
X600851Y392238D01*
X601649Y392699D01*
X602301Y393351D01*
X603475Y393994D01*
X604649Y393739D01*
X604649Y393739D01*
X605500Y393511D01*
Y397000D01*
Y400490D01*
X604649Y400261D01*
X603851Y399801D01*
X603199Y399149D01*
X602025Y398506D01*
X600851Y398762D01*
X600851Y398762D01*
X599961Y399000D01*
X599039D01*
X598149Y398762D01*
X597417Y398339D01*
X596928Y398473D01*
X594909Y399294D01*
X594480Y399535D01*
X594262Y400351D01*
X593801Y401149D01*
X593149Y401801D01*
X592351Y402261D01*
X591461Y402500D01*
D02*
G37*
G36*
X116527Y396000D02*
X116500D01*
Y392500D01*
X120000D01*
Y392527D01*
X119727Y393544D01*
X119201Y394456D01*
X118456Y395201D01*
X117544Y395727D01*
X116527Y396000D01*
D02*
G37*
G36*
X631500Y393490D02*
Y390500D01*
X634489D01*
X634262Y391351D01*
X633801Y392149D01*
X633149Y392801D01*
X632351Y393262D01*
X631500Y393490D01*
D02*
G37*
G36*
X630500D02*
X629649Y393262D01*
X628851Y392801D01*
X628199Y392149D01*
X627739Y391351D01*
X627510Y390500D01*
X630500D01*
Y393490D01*
D02*
G37*
G36*
X120000Y391500D02*
X116500D01*
Y388000D01*
X116527D01*
X117544Y388273D01*
X118456Y388799D01*
X119201Y389544D01*
X119727Y390456D01*
X120000Y391473D01*
Y391500D01*
D02*
G37*
G36*
X197937Y401677D02*
X188425D01*
Y392165D01*
X188713D01*
X189798Y390103D01*
X190049Y389165D01*
X189681Y388528D01*
X189427Y387579D01*
X193181D01*
X196935D01*
X196681Y388528D01*
X196313Y389165D01*
X196564Y390103D01*
X197649Y392165D01*
X197937D01*
Y401677D01*
D02*
G37*
G36*
X176937D02*
X167425D01*
Y392165D01*
X167713D01*
X168798Y390103D01*
X169049Y389165D01*
X168681Y388528D01*
X168427Y387579D01*
X172181D01*
X175935D01*
X175681Y388528D01*
X175313Y389165D01*
X175564Y390103D01*
X176649Y392165D01*
X176937D01*
Y401677D01*
D02*
G37*
G36*
X634489Y389500D02*
X631500D01*
Y386510D01*
X632351Y386738D01*
X633149Y387199D01*
X633801Y387851D01*
X634262Y388649D01*
X634489Y389500D01*
D02*
G37*
G36*
X630500D02*
X627510D01*
X627739Y388649D01*
X628199Y387851D01*
X628851Y387199D01*
X629649Y386738D01*
X630500Y386510D01*
Y389500D01*
D02*
G37*
G36*
X196935Y386579D02*
X193681D01*
Y383324D01*
X194631Y383579D01*
X195487Y384073D01*
X196187Y384773D01*
X196681Y385629D01*
X196935Y386579D01*
D02*
G37*
G36*
X175935D02*
X172681D01*
Y383324D01*
X173631Y383579D01*
X174487Y384073D01*
X175187Y384773D01*
X175681Y385629D01*
X175935Y386579D01*
D02*
G37*
G36*
X192681D02*
X189427D01*
X189681Y385629D01*
X190176Y384773D01*
X190875Y384073D01*
X191731Y383579D01*
X192681Y383324D01*
Y386579D01*
D02*
G37*
G36*
X171681D02*
X168427D01*
X168681Y385629D01*
X169176Y384773D01*
X169875Y384073D01*
X170731Y383579D01*
X171681Y383324D01*
Y386579D01*
D02*
G37*
G36*
X411489Y384500D02*
X408500D01*
Y381510D01*
X409351Y381738D01*
X410149Y382199D01*
X410801Y382851D01*
X411262Y383649D01*
X411489Y384500D01*
D02*
G37*
G36*
X407500D02*
X404510D01*
X404739Y383649D01*
X405199Y382851D01*
X405851Y382199D01*
X406649Y381738D01*
X407500Y381510D01*
Y384500D01*
D02*
G37*
G36*
X666527Y384000D02*
X666500D01*
Y380500D01*
X670000D01*
Y380527D01*
X669727Y381544D01*
X669201Y382456D01*
X668456Y383201D01*
X667544Y383727D01*
X666527Y384000D01*
D02*
G37*
G36*
X665500D02*
X665473D01*
X664456Y383727D01*
X663544Y383201D01*
X662799Y382456D01*
X662273Y381544D01*
X662000Y380527D01*
Y380500D01*
X665500D01*
Y384000D01*
D02*
G37*
G36*
X130633Y391957D02*
X129367D01*
X128125Y391710D01*
X126955Y391225D01*
X125902Y390521D01*
X125006Y389626D01*
X124303Y388573D01*
X123818Y387403D01*
X123571Y386161D01*
Y384894D01*
X123818Y383652D01*
X124303Y382482D01*
X125006Y381429D01*
X125902Y380534D01*
X126955Y379830D01*
X128125Y379345D01*
X129367Y379098D01*
X130633D01*
X131875Y379345D01*
X133045Y379830D01*
X134098Y380534D01*
X134994Y381429D01*
X135697Y382482D01*
X136182Y383652D01*
X136429Y384894D01*
Y386161D01*
X136182Y387403D01*
X135697Y388573D01*
X134994Y389626D01*
X134098Y390521D01*
X133045Y391225D01*
X131875Y391710D01*
X130633Y391957D01*
D02*
G37*
G36*
X182012Y382056D02*
X181985D01*
Y378556D01*
X185485D01*
Y378583D01*
X185212Y379600D01*
X184686Y380512D01*
X183941Y381257D01*
X183029Y381784D01*
X182012Y382056D01*
D02*
G37*
G36*
X180985D02*
X180958D01*
X179941Y381784D01*
X179029Y381257D01*
X178284Y380512D01*
X177758Y379600D01*
X177485Y378583D01*
Y378556D01*
X180985D01*
Y382056D01*
D02*
G37*
G36*
X204527Y380000D02*
X204500D01*
Y376500D01*
X208000D01*
Y376527D01*
X207727Y377544D01*
X207201Y378456D01*
X206456Y379201D01*
X205544Y379727D01*
X204527Y380000D01*
D02*
G37*
G36*
X203500D02*
X203473D01*
X202456Y379727D01*
X201544Y379201D01*
X200799Y378456D01*
X200273Y377544D01*
X200000Y376527D01*
Y376500D01*
X203500D01*
Y380000D01*
D02*
G37*
G36*
X160527D02*
X160500D01*
Y376500D01*
X164000D01*
Y376527D01*
X163727Y377544D01*
X163201Y378456D01*
X162456Y379201D01*
X161544Y379727D01*
X160527Y380000D01*
D02*
G37*
G36*
X159500D02*
X159473D01*
X158456Y379727D01*
X157544Y379201D01*
X156799Y378456D01*
X156273Y377544D01*
X156000Y376527D01*
Y376500D01*
X159500D01*
Y380000D01*
D02*
G37*
G36*
X670000Y379500D02*
X666500D01*
Y376000D01*
X666527D01*
X667544Y376273D01*
X668456Y376799D01*
X669201Y377544D01*
X669727Y378456D01*
X670000Y379473D01*
Y379500D01*
D02*
G37*
G36*
X665500D02*
X662000D01*
Y379473D01*
X662273Y378456D01*
X662799Y377544D01*
X663544Y376799D01*
X664456Y376273D01*
X665473Y376000D01*
X665500D01*
Y379500D01*
D02*
G37*
G36*
X576500Y378489D02*
Y375500D01*
X579490D01*
X579470Y375574D01*
X579261Y376351D01*
X578801Y377149D01*
X578149Y377801D01*
X577351Y378261D01*
X576500Y378489D01*
D02*
G37*
G36*
X575500D02*
X574649Y378261D01*
X573851Y377801D01*
X573199Y377149D01*
X572739Y376351D01*
X572530Y375574D01*
X572510Y375500D01*
X575500D01*
Y378489D01*
D02*
G37*
G36*
X388587Y378658D02*
X385429D01*
Y375500D01*
X388587D01*
Y378658D01*
D02*
G37*
G36*
X384429D02*
X381272D01*
Y375500D01*
X384429D01*
Y378658D01*
D02*
G37*
G36*
X185485Y377556D02*
X181985D01*
Y374056D01*
X182012D01*
X183029Y374329D01*
X183941Y374856D01*
X184686Y375600D01*
X185212Y376513D01*
X185485Y377530D01*
Y377556D01*
D02*
G37*
G36*
X180985D02*
X177485D01*
Y377530D01*
X177758Y376513D01*
X178284Y375600D01*
X179029Y374856D01*
X179941Y374329D01*
X180958Y374056D01*
X180985D01*
Y377556D01*
D02*
G37*
G36*
X208000Y375500D02*
X204500D01*
Y372000D01*
X204527D01*
X205544Y372273D01*
X206456Y372799D01*
X207201Y373544D01*
X207727Y374456D01*
X208000Y375473D01*
Y375500D01*
D02*
G37*
G36*
X203500D02*
X200000D01*
Y375473D01*
X200273Y374456D01*
X200799Y373544D01*
X201544Y372799D01*
X202456Y372273D01*
X203473Y372000D01*
X203500D01*
Y375500D01*
D02*
G37*
G36*
X164000D02*
X160500D01*
Y372000D01*
X160527D01*
X161544Y372273D01*
X162456Y372799D01*
X163201Y373544D01*
X163727Y374456D01*
X164000Y375473D01*
Y375500D01*
D02*
G37*
G36*
X159500D02*
X156000D01*
Y375473D01*
X156273Y374456D01*
X156799Y373544D01*
X157544Y372799D01*
X158456Y372273D01*
X159473Y372000D01*
X159500D01*
Y375500D01*
D02*
G37*
G36*
X388587Y374500D02*
X385429D01*
Y371342D01*
X388587D01*
Y374500D01*
D02*
G37*
G36*
X384429D02*
X381272D01*
Y371342D01*
X384429D01*
Y374500D01*
D02*
G37*
G36*
X401684Y379658D02*
X400458D01*
X399273Y379340D01*
X398211Y378727D01*
X397344Y377860D01*
X396731Y376798D01*
X396413Y375613D01*
Y374387D01*
X396731Y373202D01*
X397344Y372140D01*
X398211Y371273D01*
X399273Y370660D01*
X400458Y370342D01*
X401684D01*
X402869Y370660D01*
X403931Y371273D01*
X404798Y372140D01*
X405411Y373202D01*
X405728Y374387D01*
Y375613D01*
X405411Y376798D01*
X404798Y377860D01*
X403931Y378727D01*
X402869Y379340D01*
X401684Y379658D01*
D02*
G37*
G36*
X352000Y373500D02*
X348500D01*
Y370000D01*
X348527D01*
X349544Y370273D01*
X350456Y370799D01*
X351201Y371544D01*
X351727Y372456D01*
X352000Y373473D01*
Y373500D01*
D02*
G37*
G36*
X347500D02*
X344000D01*
Y373473D01*
X344273Y372456D01*
X344799Y371544D01*
X345544Y370799D01*
X346456Y370273D01*
X347473Y370000D01*
X347500D01*
Y373500D01*
D02*
G37*
G36*
X116527Y372000D02*
X116500D01*
Y368500D01*
X120000D01*
Y368527D01*
X119727Y369544D01*
X119201Y370456D01*
X118456Y371201D01*
X117544Y371727D01*
X116527Y372000D01*
D02*
G37*
G36*
X579490Y374500D02*
X572510D01*
X572739Y373649D01*
X573191Y372865D01*
X573202Y372816D01*
X573333Y371000D01*
X573202Y369184D01*
X573191Y369135D01*
X572739Y368351D01*
X572510Y367500D01*
X579490D01*
X579261Y368351D01*
X578809Y369135D01*
X578798Y369184D01*
X578667Y371000D01*
X578798Y372816D01*
X578809Y372865D01*
X579261Y373649D01*
X579490Y374500D01*
D02*
G37*
G36*
X482527Y368000D02*
X482500D01*
Y364500D01*
X486000D01*
Y364527D01*
X485727Y365544D01*
X485201Y366456D01*
X484456Y367201D01*
X483544Y367727D01*
X482527Y368000D01*
D02*
G37*
G36*
X481500D02*
X481473D01*
X480456Y367727D01*
X479544Y367201D01*
X478799Y366456D01*
X478273Y365544D01*
X478000Y364527D01*
Y364500D01*
X481500D01*
Y368000D01*
D02*
G37*
G36*
X450527D02*
X450500D01*
Y364500D01*
X454000D01*
Y364527D01*
X453727Y365544D01*
X453201Y366456D01*
X452456Y367201D01*
X451544Y367727D01*
X450527Y368000D01*
D02*
G37*
G36*
X449500D02*
X449473D01*
X448456Y367727D01*
X447544Y367201D01*
X446799Y366456D01*
X446273Y365544D01*
X446000Y364527D01*
Y364500D01*
X449500D01*
Y368000D01*
D02*
G37*
G36*
X120000Y367500D02*
X116500D01*
Y364000D01*
X116527D01*
X117544Y364273D01*
X118456Y364799D01*
X119201Y365544D01*
X119727Y366456D01*
X120000Y367473D01*
Y367500D01*
D02*
G37*
G36*
X579490Y366500D02*
X576500D01*
Y363510D01*
X577351Y363738D01*
X578149Y364199D01*
X578801Y364851D01*
X579261Y365649D01*
X579470Y366426D01*
X579490Y366500D01*
D02*
G37*
G36*
X575500D02*
X572510D01*
X572530Y366426D01*
X572739Y365649D01*
X573199Y364851D01*
X573851Y364199D01*
X574649Y363738D01*
X575500Y363510D01*
Y366500D01*
D02*
G37*
G36*
X486000Y363500D02*
X482500D01*
Y360000D01*
X482527D01*
X483544Y360273D01*
X484456Y360799D01*
X485201Y361544D01*
X485727Y362456D01*
X486000Y363473D01*
Y363500D01*
D02*
G37*
G36*
X481500D02*
X478000D01*
Y363473D01*
X478273Y362456D01*
X478799Y361544D01*
X479544Y360799D01*
X480456Y360273D01*
X481473Y360000D01*
X481500D01*
Y363500D01*
D02*
G37*
G36*
X454000D02*
X450500D01*
Y360000D01*
X450527D01*
X451544Y360273D01*
X452456Y360799D01*
X453201Y361544D01*
X453727Y362456D01*
X454000Y363473D01*
Y363500D01*
D02*
G37*
G36*
X449500D02*
X446000D01*
Y363473D01*
X446273Y362456D01*
X446799Y361544D01*
X447544Y360799D01*
X448456Y360273D01*
X449473Y360000D01*
X449500D01*
Y363500D01*
D02*
G37*
G36*
X599461D02*
X598539D01*
X597649Y363262D01*
X596851Y362801D01*
X596199Y362149D01*
X595739Y361351D01*
X595500Y360461D01*
Y359539D01*
X595739Y358649D01*
X596199Y357851D01*
X596851Y357199D01*
X597649Y356738D01*
X598539Y356500D01*
X599500Y355539D01*
X599739Y354649D01*
X600199Y353851D01*
X600851Y353199D01*
X601649Y352738D01*
X602539Y352500D01*
X603461D01*
X604351Y352738D01*
X605149Y353199D01*
X605801Y353851D01*
X606261Y354649D01*
X606500Y355539D01*
Y356461D01*
X606261Y357351D01*
X605801Y358149D01*
X605149Y358801D01*
X604351Y359261D01*
X603461Y359500D01*
X602500Y360461D01*
X602261Y361351D01*
X601801Y362149D01*
X601149Y362801D01*
X600351Y363262D01*
X599461Y363500D01*
D02*
G37*
G36*
X469500Y355489D02*
Y352500D01*
X472490D01*
X472261Y353351D01*
X471801Y354149D01*
X471149Y354801D01*
X470351Y355261D01*
X469500Y355489D01*
D02*
G37*
G36*
X468500D02*
X467649Y355261D01*
X466851Y354801D01*
X466199Y354149D01*
X465738Y353351D01*
X465511Y352500D01*
X468500D01*
Y355489D01*
D02*
G37*
G36*
X564500Y354489D02*
Y351500D01*
X567489D01*
X567262Y352351D01*
X566801Y353149D01*
X566149Y353801D01*
X565351Y354261D01*
X564500Y354489D01*
D02*
G37*
G36*
X636527Y354000D02*
X636500D01*
Y350500D01*
X640000D01*
Y350527D01*
X639727Y351544D01*
X639201Y352456D01*
X638456Y353201D01*
X637544Y353727D01*
X636527Y354000D01*
D02*
G37*
G36*
X326000Y353500D02*
X322500D01*
Y350000D01*
X322527D01*
X323544Y350273D01*
X324456Y350799D01*
X325201Y351544D01*
X325727Y352456D01*
X326000Y353473D01*
Y353500D01*
D02*
G37*
G36*
X472490Y351500D02*
X469500D01*
Y348511D01*
X470351Y348739D01*
X471149Y349199D01*
X471801Y349851D01*
X472261Y350649D01*
X472490Y351500D01*
D02*
G37*
G36*
X468500D02*
X465511D01*
X465738Y350649D01*
X466199Y349851D01*
X466851Y349199D01*
X467649Y348739D01*
X468500Y348511D01*
Y351500D01*
D02*
G37*
G36*
X679807Y349797D02*
Y346807D01*
X682797D01*
X682569Y347658D01*
X682108Y348456D01*
X681456Y349108D01*
X680658Y349569D01*
X679807Y349797D01*
D02*
G37*
G36*
X678807D02*
X677956Y349569D01*
X677158Y349108D01*
X676506Y348456D01*
X676046Y347658D01*
X675818Y346807D01*
X678807D01*
Y349797D01*
D02*
G37*
G36*
X594500Y349489D02*
Y346500D01*
X597490D01*
X597261Y347351D01*
X596801Y348149D01*
X596149Y348801D01*
X595351Y349261D01*
X594500Y349489D01*
D02*
G37*
G36*
X593500D02*
X592649Y349261D01*
X591851Y348801D01*
X591199Y348149D01*
X590738Y347351D01*
X590511Y346500D01*
X593500D01*
Y349489D01*
D02*
G37*
G36*
X640000Y349500D02*
X636500D01*
Y346000D01*
X636527D01*
X637544Y346273D01*
X638456Y346799D01*
X639201Y347544D01*
X639727Y348456D01*
X640000Y349473D01*
Y349500D01*
D02*
G37*
G36*
X615500Y348000D02*
X615473D01*
X614456Y347727D01*
X613544Y347201D01*
X612799Y346456D01*
X612273Y345544D01*
X612000Y344527D01*
Y344500D01*
X615500D01*
Y348000D01*
D02*
G37*
G36*
X116527D02*
X116500D01*
Y344500D01*
X120000D01*
Y344527D01*
X119727Y345544D01*
X119201Y346456D01*
X118456Y347201D01*
X117544Y347727D01*
X116527Y348000D01*
D02*
G37*
G36*
X682797Y345807D02*
X679807D01*
Y342818D01*
X680658Y343046D01*
X681456Y343506D01*
X682108Y344158D01*
X682569Y344956D01*
X682797Y345807D01*
D02*
G37*
G36*
X678807D02*
X675818D01*
X676046Y344956D01*
X676506Y344158D01*
X677158Y343506D01*
X677956Y343046D01*
X678807Y342818D01*
Y345807D01*
D02*
G37*
G36*
X597490Y345500D02*
X594500D01*
Y342511D01*
X595351Y342739D01*
X596149Y343199D01*
X596801Y343851D01*
X597261Y344649D01*
X597490Y345500D01*
D02*
G37*
G36*
X593500D02*
X590511D01*
X590738Y344649D01*
X591199Y343851D01*
X591851Y343199D01*
X592649Y342739D01*
X593500Y342511D01*
Y345500D01*
D02*
G37*
G36*
X499500Y344490D02*
Y341500D01*
X502490D01*
X502261Y342351D01*
X501801Y343149D01*
X501149Y343801D01*
X500351Y344262D01*
X499500Y344490D01*
D02*
G37*
G36*
X498500D02*
X497649Y344262D01*
X496851Y343801D01*
X496199Y343149D01*
X495739Y342351D01*
X495510Y341500D01*
X498500D01*
Y344490D01*
D02*
G37*
G36*
X470527Y344000D02*
X470500D01*
Y340500D01*
X474000D01*
Y340527D01*
X473727Y341544D01*
X473201Y342456D01*
X472456Y343201D01*
X471544Y343727D01*
X470527Y344000D01*
D02*
G37*
G36*
X469500D02*
X469473D01*
X468456Y343727D01*
X467544Y343201D01*
X466799Y342456D01*
X466273Y341544D01*
X466000Y340527D01*
Y340500D01*
X469500D01*
Y344000D01*
D02*
G37*
G36*
X450527D02*
X450500D01*
Y340500D01*
X454000D01*
Y340527D01*
X453727Y341544D01*
X453201Y342456D01*
X452456Y343201D01*
X451544Y343727D01*
X450527Y344000D01*
D02*
G37*
G36*
X449500D02*
X449473D01*
X448456Y343727D01*
X447544Y343201D01*
X446799Y342456D01*
X446273Y341544D01*
X446000Y340527D01*
Y340500D01*
X449500D01*
Y344000D01*
D02*
G37*
G36*
X615500Y343500D02*
X612000D01*
Y343473D01*
X612273Y342456D01*
X612799Y341544D01*
X613544Y340799D01*
X614456Y340273D01*
X615473Y340000D01*
X615500D01*
Y343500D01*
D02*
G37*
G36*
X120000D02*
X116500D01*
Y340000D01*
X116527D01*
X117544Y340273D01*
X118456Y340799D01*
X119201Y341544D01*
X119727Y342456D01*
X120000Y343473D01*
Y343500D01*
D02*
G37*
G36*
X502490Y340500D02*
X499500D01*
Y337510D01*
X500351Y337738D01*
X501149Y338199D01*
X501801Y338851D01*
X502261Y339649D01*
X502490Y340500D01*
D02*
G37*
G36*
X498500D02*
X495510D01*
X495739Y339649D01*
X496199Y338851D01*
X496851Y338199D01*
X497649Y337738D01*
X498500Y337510D01*
Y340500D01*
D02*
G37*
G36*
X474000Y339500D02*
X470500D01*
Y336000D01*
X470527D01*
X471544Y336273D01*
X472456Y336799D01*
X473201Y337544D01*
X473727Y338456D01*
X474000Y339473D01*
Y339500D01*
D02*
G37*
G36*
X469500D02*
X466000D01*
Y339473D01*
X466273Y338456D01*
X466799Y337544D01*
X467544Y336799D01*
X468456Y336273D01*
X469473Y336000D01*
X469500D01*
Y339500D01*
D02*
G37*
G36*
X454000D02*
X450500D01*
Y336000D01*
X450527D01*
X451544Y336273D01*
X452456Y336799D01*
X453201Y337544D01*
X453727Y338456D01*
X454000Y339473D01*
Y339500D01*
D02*
G37*
G36*
X449500D02*
X446000D01*
Y339473D01*
X446273Y338456D01*
X446799Y337544D01*
X447544Y336799D01*
X448456Y336273D01*
X449473Y336000D01*
X449500D01*
Y339500D01*
D02*
G37*
G36*
X602527Y338000D02*
X602500D01*
Y334500D01*
X606000D01*
Y334527D01*
X605727Y335544D01*
X605201Y336456D01*
X604456Y337201D01*
X603544Y337727D01*
X602527Y338000D01*
D02*
G37*
G36*
X482500Y333489D02*
Y330500D01*
X485490D01*
X485261Y331351D01*
X484801Y332149D01*
X484149Y332801D01*
X483351Y333261D01*
X482500Y333489D01*
D02*
G37*
G36*
X481500D02*
X480649Y333261D01*
X479851Y332801D01*
X479199Y332149D01*
X478738Y331351D01*
X478511Y330500D01*
X481500D01*
Y333489D01*
D02*
G37*
G36*
X606000Y333500D02*
X602500D01*
Y330000D01*
X602527D01*
X603544Y330273D01*
X604456Y330799D01*
X605201Y331544D01*
X605727Y332456D01*
X606000Y333473D01*
Y333500D01*
D02*
G37*
G36*
X678527Y332000D02*
X678500D01*
Y328500D01*
X682000D01*
Y328527D01*
X681727Y329544D01*
X681201Y330456D01*
X680456Y331201D01*
X679544Y331727D01*
X678527Y332000D01*
D02*
G37*
G36*
X677500D02*
X677473D01*
X676456Y331727D01*
X675544Y331201D01*
X674799Y330456D01*
X674273Y329544D01*
X674000Y328527D01*
Y328500D01*
X677500D01*
Y332000D01*
D02*
G37*
G36*
X663730Y338543D02*
X662270D01*
X660860Y338165D01*
X659596Y337436D01*
X658564Y336404D01*
X657834Y335140D01*
X657457Y333730D01*
Y332270D01*
X657834Y330860D01*
X658564Y329596D01*
X659596Y328564D01*
X660860Y327835D01*
X662270Y327457D01*
X663730D01*
X665140Y327835D01*
X666404Y328564D01*
X667436Y329596D01*
X668165Y330860D01*
X668543Y332270D01*
Y333730D01*
X668165Y335140D01*
X667436Y336404D01*
X666404Y337436D01*
X665140Y338165D01*
X663730Y338543D01*
D02*
G37*
G36*
X485490Y329500D02*
X482500D01*
Y326511D01*
X483351Y326739D01*
X484149Y327199D01*
X484801Y327851D01*
X485261Y328649D01*
X485490Y329500D01*
D02*
G37*
G36*
X481500D02*
X478511D01*
X478738Y328649D01*
X479199Y327851D01*
X479851Y327199D01*
X480649Y326739D01*
X481500Y326511D01*
Y329500D01*
D02*
G37*
G36*
X182527Y328000D02*
X182500D01*
Y324500D01*
X186000D01*
Y324527D01*
X185727Y325544D01*
X185201Y326456D01*
X184456Y327201D01*
X183544Y327727D01*
X182527Y328000D01*
D02*
G37*
G36*
X181500D02*
X181473D01*
X180456Y327727D01*
X179544Y327201D01*
X178799Y326456D01*
X178273Y325544D01*
X178000Y324527D01*
Y324500D01*
X181500D01*
Y328000D01*
D02*
G37*
G36*
X682000Y327500D02*
X678500D01*
Y324000D01*
X678527D01*
X679544Y324273D01*
X680456Y324799D01*
X681201Y325544D01*
X681727Y326456D01*
X682000Y327473D01*
Y327500D01*
D02*
G37*
G36*
X677500D02*
X674000D01*
Y327473D01*
X674273Y326456D01*
X674799Y325544D01*
X675544Y324799D01*
X676456Y324273D01*
X677473Y324000D01*
X677500D01*
Y327500D01*
D02*
G37*
G36*
X586500Y325500D02*
X583510D01*
X583739Y324649D01*
X584199Y323851D01*
X584851Y323199D01*
X585649Y322739D01*
X586500Y322511D01*
Y325500D01*
D02*
G37*
G36*
X531461Y329500D02*
X530539D01*
X529649Y329261D01*
X528851Y328801D01*
X528199Y328149D01*
X527739Y327351D01*
X527500Y326461D01*
Y325539D01*
X527739Y324649D01*
X528199Y323851D01*
X528851Y323199D01*
X529649Y322739D01*
X530539Y322500D01*
X531461D01*
X532351Y322739D01*
X533149Y323199D01*
X533801Y323851D01*
X534262Y324649D01*
X534500Y325539D01*
Y326461D01*
X534262Y327351D01*
X533801Y328149D01*
X533149Y328801D01*
X532351Y329261D01*
X531461Y329500D01*
D02*
G37*
G36*
X440527Y326000D02*
X440500D01*
Y322500D01*
X444000D01*
Y322527D01*
X443727Y323544D01*
X443201Y324456D01*
X442456Y325201D01*
X441544Y325727D01*
X440527Y326000D01*
D02*
G37*
G36*
X216527D02*
X216500D01*
Y322500D01*
X220000D01*
Y322527D01*
X219727Y323544D01*
X219201Y324456D01*
X218456Y325201D01*
X217544Y325727D01*
X216527Y326000D01*
D02*
G37*
G36*
X215500D02*
X215473D01*
X214456Y325727D01*
X213544Y325201D01*
X212799Y324456D01*
X212273Y323544D01*
X212000Y322527D01*
Y322500D01*
X215500D01*
Y326000D01*
D02*
G37*
G36*
X523500Y323489D02*
Y320500D01*
X526489D01*
X526262Y321351D01*
X525801Y322149D01*
X525149Y322801D01*
X524351Y323261D01*
X523500Y323489D01*
D02*
G37*
G36*
X522500D02*
X521649Y323261D01*
X520851Y322801D01*
X520199Y322149D01*
X519738Y321351D01*
X519511Y320500D01*
X522500D01*
Y323489D01*
D02*
G37*
G36*
X130633Y332902D02*
X129367D01*
X128125Y332655D01*
X126955Y332170D01*
X125902Y331466D01*
X125006Y330571D01*
X124303Y329518D01*
X123818Y328348D01*
X123571Y327106D01*
Y325839D01*
X123818Y324597D01*
X124303Y323427D01*
X125006Y322374D01*
X125902Y321479D01*
X126955Y320775D01*
X128125Y320290D01*
X129367Y320043D01*
X130633D01*
X131875Y320290D01*
X133045Y320775D01*
X134098Y321479D01*
X134994Y322374D01*
X135697Y323427D01*
X136182Y324597D01*
X136429Y325839D01*
Y327106D01*
X136182Y328348D01*
X135697Y329518D01*
X134994Y330571D01*
X134098Y331466D01*
X133045Y332170D01*
X131875Y332655D01*
X130633Y332902D01*
D02*
G37*
G36*
X186000Y323500D02*
X182500D01*
Y320000D01*
X182527D01*
X183544Y320273D01*
X184456Y320799D01*
X185201Y321544D01*
X185727Y322456D01*
X186000Y323473D01*
Y323500D01*
D02*
G37*
G36*
X181500D02*
X178000D01*
Y323473D01*
X178273Y322456D01*
X178799Y321544D01*
X179544Y320799D01*
X180456Y320273D01*
X181473Y320000D01*
X181500D01*
Y323500D01*
D02*
G37*
G36*
X542461Y326500D02*
X541539D01*
X540649Y326261D01*
X539851Y325801D01*
X539199Y325149D01*
X538738Y324351D01*
X538500Y323461D01*
Y322539D01*
X538738Y321649D01*
X539199Y320851D01*
X539851Y320199D01*
X540649Y319739D01*
X541539Y319500D01*
X542461D01*
X543351Y319739D01*
X544149Y320199D01*
X544801Y320851D01*
X545261Y321649D01*
X545500Y322539D01*
Y323461D01*
X545261Y324351D01*
X544801Y325149D01*
X544149Y325801D01*
X543351Y326261D01*
X542461Y326500D01*
D02*
G37*
G36*
X646527Y322000D02*
X646500D01*
Y318500D01*
X650000D01*
Y318527D01*
X649727Y319544D01*
X649201Y320456D01*
X648456Y321201D01*
X647544Y321727D01*
X646527Y322000D01*
D02*
G37*
G36*
X645500D02*
X645473D01*
X644456Y321727D01*
X643544Y321201D01*
X642799Y320456D01*
X642273Y319544D01*
X642000Y318527D01*
Y318500D01*
X645500D01*
Y322000D01*
D02*
G37*
G36*
X611500D02*
X611473D01*
X610456Y321727D01*
X609544Y321201D01*
X608799Y320456D01*
X608273Y319544D01*
X608000Y318527D01*
Y318500D01*
X611500D01*
Y322000D01*
D02*
G37*
G36*
X320527D02*
X320500D01*
Y318500D01*
X324000D01*
Y318527D01*
X323727Y319544D01*
X323201Y320456D01*
X322456Y321201D01*
X321544Y321727D01*
X320527Y322000D01*
D02*
G37*
G36*
X319500D02*
X319473D01*
X318456Y321727D01*
X317544Y321201D01*
X316799Y320456D01*
X316273Y319544D01*
X316000Y318527D01*
Y318500D01*
X319500D01*
Y322000D01*
D02*
G37*
G36*
X116527D02*
X116500D01*
Y318500D01*
X120000D01*
Y318527D01*
X119727Y319544D01*
X119201Y320456D01*
X118456Y321201D01*
X117544Y321727D01*
X116527Y322000D01*
D02*
G37*
G36*
X444000Y321500D02*
X440500D01*
Y318000D01*
X440527D01*
X441544Y318273D01*
X442456Y318799D01*
X443201Y319544D01*
X443727Y320456D01*
X444000Y321473D01*
Y321500D01*
D02*
G37*
G36*
X425591Y361026D02*
X425000D01*
X344488Y361026D01*
X343933D01*
X343639Y360987D01*
X343343Y360968D01*
X342253Y360751D01*
X341972Y360656D01*
X341686Y360579D01*
X340660Y360154D01*
X340403Y360005D01*
X340137Y359874D01*
X339213Y359257D01*
X338990Y359062D01*
X338755Y358881D01*
X337969Y358096D01*
X337789Y357860D01*
X337593Y357637D01*
X336976Y356714D01*
X336845Y356448D01*
X336697Y356191D01*
X336272Y355165D01*
X336195Y354878D01*
X336099Y354597D01*
X335883Y353508D01*
X335877Y353429D01*
X335849Y353360D01*
X335778Y353249D01*
X335698Y352996D01*
X335597Y352752D01*
X335580Y352621D01*
X335540Y352496D01*
X335528Y352231D01*
X335494Y351969D01*
Y251969D01*
Y251381D01*
X335532Y251086D01*
X335552Y250790D01*
X335781Y249637D01*
X335877Y249356D01*
X335953Y249070D01*
X336403Y247983D01*
X336552Y247726D01*
X336683Y247460D01*
X337336Y246483D01*
X337532Y246260D01*
X337713Y246024D01*
X338544Y245193D01*
X338779Y245012D01*
X339002Y244816D01*
X339980Y244163D01*
X340246Y244032D01*
X340503Y243884D01*
X341589Y243434D01*
X341876Y243357D01*
X342157Y243262D01*
X343310Y243032D01*
X343606Y243013D01*
X343900Y242974D01*
X344488D01*
X424000Y242974D01*
X424689D01*
X424984Y243013D01*
X425280Y243032D01*
X426632Y243301D01*
X426913Y243397D01*
X427200Y243474D01*
X428474Y244001D01*
X428731Y244149D01*
X428997Y244281D01*
X430143Y245047D01*
X430367Y245243D01*
X430602Y245423D01*
X431577Y246398D01*
X431757Y246634D01*
X431953Y246857D01*
X432719Y248003D01*
X432851Y248269D01*
X432999Y248526D01*
X433527Y249800D01*
X433603Y250087D01*
X433699Y250368D01*
X433968Y251720D01*
X433987Y252016D01*
X434026Y252311D01*
Y253000D01*
Y296347D01*
X436026Y297210D01*
X437026Y297317D01*
X437544Y296799D01*
X438456Y296273D01*
X439473Y296000D01*
X439500D01*
Y300000D01*
Y304000D01*
X439473D01*
X438456Y303727D01*
X437544Y303201D01*
X437026Y302683D01*
X436026Y302790D01*
X434026Y303653D01*
Y318347D01*
X436026Y319210D01*
X437026Y319317D01*
X437544Y318799D01*
X438456Y318273D01*
X439473Y318000D01*
X439500D01*
Y322000D01*
Y326000D01*
X439473D01*
X438456Y325727D01*
X437544Y325201D01*
X437026Y324683D01*
X436026Y324790D01*
X434026Y325653D01*
Y352000D01*
Y352591D01*
X433987Y352885D01*
X433968Y353181D01*
X433737Y354341D01*
X433642Y354622D01*
X433565Y354908D01*
X433113Y356000D01*
X432964Y356257D01*
X432833Y356523D01*
X432176Y357506D01*
X431981Y357729D01*
X431800Y357964D01*
X430964Y358800D01*
X430729Y358981D01*
X430506Y359176D01*
X429523Y359833D01*
X429257Y359964D01*
X429000Y360113D01*
X427908Y360565D01*
X427622Y360642D01*
X427341Y360737D01*
X426181Y360968D01*
X425885Y360987D01*
X425591Y361026D01*
D02*
G37*
G36*
X220000Y321500D02*
X216500D01*
Y318000D01*
X216527D01*
X217544Y318273D01*
X218456Y318799D01*
X219201Y319544D01*
X219727Y320456D01*
X220000Y321473D01*
Y321500D01*
D02*
G37*
G36*
X215500D02*
X212000D01*
Y321473D01*
X212273Y320456D01*
X212799Y319544D01*
X213544Y318799D01*
X214456Y318273D01*
X215473Y318000D01*
X215500D01*
Y321500D01*
D02*
G37*
G36*
X526489Y319500D02*
X523500D01*
Y316511D01*
X524351Y316739D01*
X525149Y317199D01*
X525801Y317851D01*
X526262Y318649D01*
X526489Y319500D01*
D02*
G37*
G36*
X522500D02*
X519511D01*
X519738Y318649D01*
X520199Y317851D01*
X520851Y317199D01*
X521649Y316739D01*
X522500Y316511D01*
Y319500D01*
D02*
G37*
G36*
X601500Y318490D02*
Y315500D01*
X604490D01*
X604261Y316351D01*
X603801Y317149D01*
X603149Y317801D01*
X602351Y318262D01*
X601500Y318490D01*
D02*
G37*
G36*
X600500D02*
X599649Y318262D01*
X598851Y317801D01*
X598199Y317149D01*
X597739Y316351D01*
X597510Y315500D01*
X600500D01*
Y318490D01*
D02*
G37*
G36*
X463413Y328909D02*
X448587D01*
Y314083D01*
X463413D01*
Y328909D01*
D02*
G37*
G36*
X650000Y317500D02*
X646500D01*
Y314000D01*
X646527D01*
X647544Y314273D01*
X648456Y314799D01*
X649201Y315544D01*
X649727Y316456D01*
X650000Y317473D01*
Y317500D01*
D02*
G37*
G36*
X645500D02*
X642000D01*
Y317473D01*
X642273Y316456D01*
X642799Y315544D01*
X643544Y314799D01*
X644456Y314273D01*
X645473Y314000D01*
X645500D01*
Y317500D01*
D02*
G37*
G36*
X611500D02*
X608000D01*
Y317473D01*
X608273Y316456D01*
X608799Y315544D01*
X609544Y314799D01*
X610456Y314273D01*
X611473Y314000D01*
X611500D01*
Y317500D01*
D02*
G37*
G36*
X324000D02*
X320500D01*
Y314000D01*
X320527D01*
X321544Y314273D01*
X322456Y314799D01*
X323201Y315544D01*
X323727Y316456D01*
X324000Y317473D01*
Y317500D01*
D02*
G37*
G36*
X319500D02*
X316000D01*
Y317473D01*
X316273Y316456D01*
X316799Y315544D01*
X317544Y314799D01*
X318456Y314273D01*
X319473Y314000D01*
X319500D01*
Y317500D01*
D02*
G37*
G36*
X120000D02*
X116500D01*
Y314000D01*
X116527D01*
X117544Y314273D01*
X118456Y314799D01*
X119201Y315544D01*
X119727Y316456D01*
X120000Y317473D01*
Y317500D01*
D02*
G37*
G36*
X197591Y319000D02*
X197500D01*
Y313500D01*
X203000D01*
Y313591D01*
X202769Y314750D01*
X202317Y315842D01*
X201660Y316825D01*
X200825Y317660D01*
X199842Y318317D01*
X198750Y318769D01*
X197591Y319000D01*
D02*
G37*
G36*
X196500D02*
X196409D01*
X195250Y318769D01*
X194158Y318317D01*
X193175Y317660D01*
X192340Y316825D01*
X191683Y315842D01*
X191231Y314750D01*
X191000Y313591D01*
Y313500D01*
X196500D01*
Y319000D01*
D02*
G37*
G36*
X559500Y311500D02*
X556510D01*
X556739Y310649D01*
X557199Y309851D01*
X557851Y309199D01*
X558649Y308738D01*
X559500Y308510D01*
Y311500D01*
D02*
G37*
G36*
X678527Y312000D02*
X678500D01*
Y308500D01*
X682000D01*
Y308527D01*
X681727Y309544D01*
X681201Y310456D01*
X680456Y311201D01*
X679544Y311727D01*
X678527Y312000D01*
D02*
G37*
G36*
X677500D02*
X677473D01*
X676456Y311727D01*
X675544Y311201D01*
X674799Y310456D01*
X674273Y309544D01*
X674000Y308527D01*
Y308500D01*
X677500D01*
Y312000D01*
D02*
G37*
G36*
X520500Y311490D02*
Y308500D01*
X523490D01*
X523261Y309351D01*
X522801Y310149D01*
X522149Y310801D01*
X521351Y311262D01*
X520500Y311490D01*
D02*
G37*
G36*
X239500Y310490D02*
Y307500D01*
X242490D01*
X242262Y308351D01*
X241801Y309149D01*
X241149Y309801D01*
X240351Y310262D01*
X239500Y310490D01*
D02*
G37*
G36*
X238500D02*
X237649Y310262D01*
X236851Y309801D01*
X236199Y309149D01*
X235738Y308351D01*
X235510Y307500D01*
X238500D01*
Y310490D01*
D02*
G37*
G36*
X203000Y312500D02*
X197500D01*
Y307000D01*
X197591D01*
X198750Y307231D01*
X199842Y307683D01*
X200825Y308340D01*
X201660Y309175D01*
X202317Y310158D01*
X202769Y311250D01*
X203000Y312409D01*
Y312500D01*
D02*
G37*
G36*
X196500D02*
X191000D01*
Y312409D01*
X191231Y311250D01*
X191683Y310158D01*
X192340Y309175D01*
X193175Y308340D01*
X194158Y307683D01*
X195250Y307231D01*
X196409Y307000D01*
X196500D01*
Y312500D01*
D02*
G37*
G36*
X604490Y314500D02*
X597510D01*
X597739Y313649D01*
X598199Y312851D01*
X598851Y312199D01*
X599385Y311891D01*
X599679Y310494D01*
X599676Y308626D01*
X599199Y308149D01*
X598738Y307351D01*
X598511Y306500D01*
X605489D01*
X605262Y307351D01*
X604801Y308149D01*
X604149Y308801D01*
X603615Y309109D01*
X603321Y310506D01*
X603324Y312374D01*
X603801Y312851D01*
X604261Y313649D01*
X604490Y314500D01*
D02*
G37*
G36*
X523490Y307500D02*
X520500D01*
Y304510D01*
X521351Y304738D01*
X522149Y305199D01*
X522801Y305851D01*
X523261Y306649D01*
X523490Y307500D01*
D02*
G37*
G36*
X503000Y381539D02*
X502705Y381500D01*
X502408D01*
X502120Y381423D01*
X501825Y381384D01*
X501550Y381270D01*
X501263Y381193D01*
X501005Y381045D01*
X500731Y380931D01*
X500495Y380750D01*
X500237Y380601D01*
X500027Y380391D01*
X499791Y380209D01*
X499610Y379973D01*
X499399Y379763D01*
X499250Y379505D01*
X499069Y379269D01*
X498955Y378995D01*
X498807Y378737D01*
X498730Y378450D01*
X498616Y378175D01*
X498577Y377880D01*
X498500Y377592D01*
Y377295D01*
X498461Y377000D01*
X498500Y376705D01*
Y376408D01*
X498577Y376120D01*
X498616Y375825D01*
X498730Y375550D01*
X498807Y375263D01*
X498955Y375005D01*
X499069Y374731D01*
X499250Y374495D01*
X499399Y374237D01*
X499610Y374027D01*
X499791Y373791D01*
X506289Y367292D01*
Y312828D01*
X506328Y312533D01*
Y312235D01*
X506405Y311948D01*
X506444Y311653D01*
X506557Y311378D01*
X506634Y311091D01*
X506783Y310833D01*
X506897Y310558D01*
X507078Y310322D01*
X507227Y310065D01*
X507437Y309854D01*
X507618Y309618D01*
X507854Y309437D01*
X508065Y309227D01*
X508322Y309078D01*
X508558Y308897D01*
X508833Y308783D01*
X509091Y308634D01*
X509378Y308557D01*
X509653Y308443D01*
X509948Y308405D01*
X510235Y308328D01*
X510533D01*
X510828Y308289D01*
X511123Y308328D01*
X511420D01*
X511707Y308405D01*
X512002Y308443D01*
X512277Y308557D01*
X512565Y308634D01*
X512822Y308783D01*
X513097Y308897D01*
X513333Y309078D01*
X513591Y309227D01*
X513603Y309239D01*
X514400Y309220D01*
X514830Y309065D01*
X516460Y307928D01*
X516500Y307893D01*
Y307539D01*
X516739Y306649D01*
X517199Y305851D01*
X517851Y305199D01*
X518649Y304738D01*
X519500Y304510D01*
Y308000D01*
Y311490D01*
X518649Y311262D01*
X517983Y310877D01*
X517754Y310941D01*
X517240Y311148D01*
X516431Y311608D01*
X515328Y312520D01*
Y312533D01*
X515367Y312828D01*
Y369172D01*
X515212Y370347D01*
X514758Y371442D01*
X514037Y372382D01*
X506209Y380209D01*
X505973Y380391D01*
X505763Y380601D01*
X505505Y380750D01*
X505269Y380931D01*
X504995Y381045D01*
X504737Y381193D01*
X504450Y381270D01*
X504175Y381384D01*
X503880Y381423D01*
X503592Y381500D01*
X503295D01*
X503000Y381539D01*
D02*
G37*
G36*
X216527Y308000D02*
X216500D01*
Y304500D01*
X220000D01*
Y304527D01*
X219727Y305544D01*
X219201Y306456D01*
X218456Y307201D01*
X217544Y307727D01*
X216527Y308000D01*
D02*
G37*
G36*
X215500D02*
X215473D01*
X214456Y307727D01*
X213544Y307201D01*
X212799Y306456D01*
X212273Y305544D01*
X212000Y304527D01*
Y304500D01*
X215500D01*
Y308000D01*
D02*
G37*
G36*
X682000Y307500D02*
X678500D01*
Y304000D01*
X678527D01*
X679544Y304273D01*
X680456Y304799D01*
X681201Y305544D01*
X681727Y306456D01*
X682000Y307473D01*
Y307500D01*
D02*
G37*
G36*
X677500D02*
X674000D01*
Y307473D01*
X674273Y306456D01*
X674799Y305544D01*
X675544Y304799D01*
X676456Y304273D01*
X677473Y304000D01*
X677500D01*
Y307500D01*
D02*
G37*
G36*
X242490Y306500D02*
X239500D01*
Y303510D01*
X240351Y303738D01*
X241149Y304199D01*
X241801Y304851D01*
X242262Y305649D01*
X242490Y306500D01*
D02*
G37*
G36*
X238500D02*
X235510D01*
X235738Y305649D01*
X236199Y304851D01*
X236851Y304199D01*
X237649Y303738D01*
X238500Y303510D01*
Y306500D01*
D02*
G37*
G36*
X668543Y313543D02*
X657457D01*
Y302457D01*
X668543D01*
Y313543D01*
D02*
G37*
G36*
X440527Y304000D02*
X440500D01*
Y300500D01*
X444000D01*
Y300527D01*
X443727Y301544D01*
X443201Y302456D01*
X442456Y303201D01*
X441544Y303727D01*
X440527Y304000D01*
D02*
G37*
G36*
X220000Y303500D02*
X216500D01*
Y300000D01*
X216527D01*
X217544Y300273D01*
X218456Y300799D01*
X219201Y301544D01*
X219727Y302456D01*
X220000Y303473D01*
Y303500D01*
D02*
G37*
G36*
X215500D02*
X212000D01*
Y303473D01*
X212273Y302456D01*
X212799Y301544D01*
X213544Y300799D01*
X214456Y300273D01*
X215473Y300000D01*
X215500D01*
Y303500D01*
D02*
G37*
G36*
X642500Y300489D02*
Y297500D01*
X645490D01*
X645261Y298351D01*
X644801Y299149D01*
X644149Y299801D01*
X643351Y300261D01*
X642500Y300489D01*
D02*
G37*
G36*
X641500D02*
X640649Y300261D01*
X639851Y299801D01*
X639199Y299149D01*
X638738Y298351D01*
X638511Y297500D01*
X641500D01*
Y300489D01*
D02*
G37*
G36*
X116527Y300000D02*
X116500D01*
Y296500D01*
X120000D01*
Y296527D01*
X119727Y297544D01*
X119201Y298456D01*
X118456Y299201D01*
X117544Y299727D01*
X116527Y300000D01*
D02*
G37*
G36*
X444000Y299500D02*
X440500D01*
Y296000D01*
X440527D01*
X441544Y296273D01*
X442456Y296799D01*
X443201Y297544D01*
X443727Y298456D01*
X444000Y299473D01*
Y299500D01*
D02*
G37*
G36*
X200527Y298000D02*
X200500D01*
Y294500D01*
X204000D01*
Y294527D01*
X203727Y295544D01*
X203201Y296456D01*
X202456Y297201D01*
X201544Y297727D01*
X200527Y298000D01*
D02*
G37*
G36*
X199500D02*
X199473D01*
X198456Y297727D01*
X197544Y297201D01*
X196799Y296456D01*
X196273Y295544D01*
X196000Y294527D01*
Y294500D01*
X199500D01*
Y298000D01*
D02*
G37*
G36*
X645490Y296500D02*
X642500D01*
Y293511D01*
X643351Y293739D01*
X644149Y294199D01*
X644801Y294851D01*
X645261Y295649D01*
X645490Y296500D01*
D02*
G37*
G36*
X641500D02*
X638511D01*
X638738Y295649D01*
X639199Y294851D01*
X639851Y294199D01*
X640649Y293739D01*
X641500Y293511D01*
Y296500D01*
D02*
G37*
G36*
X679807Y296182D02*
Y293193D01*
X682797D01*
X682569Y294044D01*
X682108Y294842D01*
X681456Y295494D01*
X680658Y295954D01*
X679807Y296182D01*
D02*
G37*
G36*
X678807D02*
X677956Y295954D01*
X677158Y295494D01*
X676506Y294842D01*
X676046Y294044D01*
X675818Y293193D01*
X678807D01*
Y296182D01*
D02*
G37*
G36*
X456730Y307413D02*
X455270D01*
X453838Y307129D01*
X452489Y306570D01*
X451274Y305758D01*
X450242Y304726D01*
X449430Y303512D01*
X448872Y302162D01*
X448587Y300730D01*
Y299270D01*
X448872Y297838D01*
X449430Y296488D01*
X450242Y295274D01*
X451274Y294242D01*
X452489Y293430D01*
X453838Y292871D01*
X455270Y292587D01*
X456730D01*
X458162Y292871D01*
X459512Y293430D01*
X460726Y294242D01*
X461758Y295274D01*
X462570Y296488D01*
X463129Y297838D01*
X463413Y299270D01*
Y300730D01*
X463129Y302162D01*
X462570Y303512D01*
X461758Y304726D01*
X460726Y305758D01*
X459512Y306570D01*
X458162Y307129D01*
X456730Y307413D01*
D02*
G37*
G36*
X176527Y296000D02*
X176500D01*
Y292500D01*
X180000D01*
Y292527D01*
X179727Y293544D01*
X179201Y294456D01*
X178456Y295201D01*
X177544Y295727D01*
X176527Y296000D01*
D02*
G37*
G36*
X175500D02*
X175473D01*
X174456Y295727D01*
X173544Y295201D01*
X172799Y294456D01*
X172273Y293544D01*
X172000Y292527D01*
Y292500D01*
X175500D01*
Y296000D01*
D02*
G37*
G36*
X120000Y295500D02*
X116500D01*
Y292000D01*
X116527D01*
X117544Y292273D01*
X118456Y292799D01*
X119201Y293544D01*
X119727Y294456D01*
X120000Y295473D01*
Y295500D01*
D02*
G37*
G36*
X528461Y298500D02*
X527539D01*
X526649Y298261D01*
X525851Y297801D01*
X525199Y297149D01*
X524739Y296351D01*
X524500Y295461D01*
Y294539D01*
X524739Y293649D01*
X525199Y292851D01*
X525851Y292199D01*
X526649Y291739D01*
X527539Y291500D01*
X528461D01*
X529351Y291739D01*
X530149Y292199D01*
X530801Y292851D01*
X531261Y293649D01*
X531500Y294539D01*
Y295461D01*
X531261Y296351D01*
X530801Y297149D01*
X530149Y297801D01*
X529351Y298261D01*
X528461Y298500D01*
D02*
G37*
G36*
X204000Y293500D02*
X200500D01*
Y290000D01*
X200527D01*
X201544Y290273D01*
X202456Y290799D01*
X203201Y291544D01*
X203727Y292456D01*
X204000Y293473D01*
Y293500D01*
D02*
G37*
G36*
X199500D02*
X196000D01*
Y293473D01*
X196273Y292456D01*
X196799Y291544D01*
X197544Y290799D01*
X198456Y290273D01*
X199473Y290000D01*
X199500D01*
Y293500D01*
D02*
G37*
G36*
X682797Y292193D02*
X679807D01*
Y289203D01*
X680658Y289431D01*
X681456Y289892D01*
X682108Y290544D01*
X682569Y291342D01*
X682797Y292193D01*
D02*
G37*
G36*
X678807D02*
X675818D01*
X676046Y291342D01*
X676506Y290544D01*
X677158Y289892D01*
X677956Y289431D01*
X678807Y289203D01*
Y292193D01*
D02*
G37*
G36*
X554551Y295500D02*
X553630D01*
X552740Y295262D01*
X551941Y294801D01*
X551290Y294149D01*
X550829Y293351D01*
X550591Y292461D01*
Y291539D01*
X550829Y290649D01*
X551290Y289851D01*
X551941Y289199D01*
X552740Y288738D01*
X553630Y288500D01*
X554551D01*
X555442Y288738D01*
X556240Y289199D01*
X556891Y289851D01*
X557352Y290649D01*
X557590Y291539D01*
Y292461D01*
X557352Y293351D01*
X556891Y294149D01*
X556240Y294801D01*
X555442Y295262D01*
X554551Y295500D01*
D02*
G37*
G36*
X477500Y291490D02*
Y288500D01*
X480489D01*
X480262Y289351D01*
X479801Y290149D01*
X479149Y290801D01*
X478351Y291262D01*
X477500Y291490D01*
D02*
G37*
G36*
X476500D02*
X475649Y291262D01*
X474851Y290801D01*
X474199Y290149D01*
X473738Y289351D01*
X473511Y288500D01*
X476500D01*
Y291490D01*
D02*
G37*
G36*
X220527Y292000D02*
X220500D01*
Y288500D01*
X224000D01*
Y288527D01*
X223727Y289544D01*
X223201Y290456D01*
X222456Y291201D01*
X221544Y291727D01*
X220527Y292000D01*
D02*
G37*
G36*
X219500D02*
X219473D01*
X218456Y291727D01*
X217544Y291201D01*
X216799Y290456D01*
X216273Y289544D01*
X216000Y288527D01*
Y288500D01*
X219500D01*
Y292000D01*
D02*
G37*
G36*
X180000Y291500D02*
X176500D01*
Y288000D01*
X176527D01*
X177544Y288273D01*
X178456Y288799D01*
X179201Y289544D01*
X179727Y290456D01*
X180000Y291473D01*
Y291500D01*
D02*
G37*
G36*
X175500D02*
X172000D01*
Y291473D01*
X172273Y290456D01*
X172799Y289544D01*
X173544Y288799D01*
X174456Y288273D01*
X175473Y288000D01*
X175500D01*
Y291500D01*
D02*
G37*
G36*
X320527Y290000D02*
X320500D01*
Y286500D01*
X324000D01*
Y286527D01*
X323727Y287544D01*
X323201Y288456D01*
X322456Y289201D01*
X321544Y289727D01*
X320527Y290000D01*
D02*
G37*
G36*
X319500D02*
X319473D01*
X318456Y289727D01*
X317544Y289201D01*
X316799Y288456D01*
X316273Y287544D01*
X316000Y286527D01*
Y286500D01*
X319500D01*
Y290000D01*
D02*
G37*
G36*
X480489Y287500D02*
X477500D01*
Y284510D01*
X478351Y284738D01*
X479149Y285199D01*
X479801Y285851D01*
X480262Y286649D01*
X480489Y287500D01*
D02*
G37*
G36*
X476500D02*
X473511D01*
X473738Y286649D01*
X474199Y285851D01*
X474851Y285199D01*
X475649Y284738D01*
X476500Y284510D01*
Y287500D01*
D02*
G37*
G36*
X636527Y288000D02*
X636500D01*
Y284500D01*
X640000D01*
Y284527D01*
X639727Y285544D01*
X639201Y286456D01*
X638456Y287201D01*
X637544Y287727D01*
X636527Y288000D01*
D02*
G37*
G36*
X635500D02*
X635473D01*
X634456Y287727D01*
X633544Y287201D01*
X632799Y286456D01*
X632273Y285544D01*
X632000Y284527D01*
Y284500D01*
X635500D01*
Y288000D01*
D02*
G37*
G36*
X224000Y287500D02*
X220500D01*
Y284000D01*
X220527D01*
X221544Y284273D01*
X222456Y284799D01*
X223201Y285544D01*
X223727Y286456D01*
X224000Y287473D01*
Y287500D01*
D02*
G37*
G36*
X219500D02*
X216000D01*
Y287473D01*
X216273Y286456D01*
X216799Y285544D01*
X217544Y284799D01*
X218456Y284273D01*
X219473Y284000D01*
X219500D01*
Y287500D01*
D02*
G37*
G36*
X164500Y286490D02*
Y283500D01*
X167490D01*
X167262Y284351D01*
X166801Y285149D01*
X166149Y285801D01*
X165351Y286262D01*
X164500Y286490D01*
D02*
G37*
G36*
X163500D02*
X162649Y286262D01*
X161851Y285801D01*
X161199Y285149D01*
X160739Y284351D01*
X160511Y283500D01*
X163500D01*
Y286490D01*
D02*
G37*
G36*
X184527Y286000D02*
X184500D01*
Y282500D01*
X188000D01*
Y282527D01*
X187727Y283544D01*
X187201Y284456D01*
X186456Y285201D01*
X185544Y285727D01*
X184527Y286000D01*
D02*
G37*
G36*
X183500D02*
X183473D01*
X182456Y285727D01*
X181544Y285201D01*
X180799Y284456D01*
X180273Y283544D01*
X180000Y282527D01*
Y282500D01*
X183500D01*
Y286000D01*
D02*
G37*
G36*
X324000Y285500D02*
X320500D01*
Y282000D01*
X320527D01*
X321544Y282273D01*
X322456Y282799D01*
X323201Y283544D01*
X323727Y284456D01*
X324000Y285473D01*
Y285500D01*
D02*
G37*
G36*
X319500D02*
X316000D01*
Y285473D01*
X316273Y284456D01*
X316799Y283544D01*
X317544Y282799D01*
X318456Y282273D01*
X319473Y282000D01*
X319500D01*
Y285500D01*
D02*
G37*
G36*
X263353Y288608D02*
X262432D01*
X261542Y288369D01*
X260743Y287908D01*
X260092Y287257D01*
X259631Y286458D01*
X259392Y285568D01*
Y284647D01*
X259631Y283757D01*
X260092Y282959D01*
X260743Y282307D01*
X261542Y281846D01*
X262432Y281608D01*
X263353D01*
X264243Y281846D01*
X265041Y282307D01*
X265693Y282959D01*
X266154Y283757D01*
X266392Y284647D01*
Y285568D01*
X266154Y286458D01*
X265693Y287257D01*
X265041Y287908D01*
X264243Y288369D01*
X263353Y288608D01*
D02*
G37*
G36*
X640000Y283500D02*
X636500D01*
Y280000D01*
X636527D01*
X637544Y280273D01*
X638456Y280799D01*
X639201Y281544D01*
X639727Y282456D01*
X640000Y283473D01*
Y283500D01*
D02*
G37*
G36*
X635500D02*
X632000D01*
Y283473D01*
X632273Y282456D01*
X632799Y281544D01*
X633544Y280799D01*
X634456Y280273D01*
X635473Y280000D01*
X635500D01*
Y283500D01*
D02*
G37*
G36*
X167490Y282500D02*
X164500D01*
Y279510D01*
X165351Y279738D01*
X166149Y280199D01*
X166801Y280851D01*
X167262Y281649D01*
X167490Y282500D01*
D02*
G37*
G36*
X163500D02*
X160511D01*
X160739Y281649D01*
X161199Y280851D01*
X161851Y280199D01*
X162649Y279738D01*
X163500Y279510D01*
Y282500D01*
D02*
G37*
G36*
X210527Y282000D02*
X210500D01*
Y278500D01*
X214000D01*
Y278527D01*
X213727Y279544D01*
X213201Y280456D01*
X212456Y281201D01*
X211544Y281727D01*
X210527Y282000D01*
D02*
G37*
G36*
X209500D02*
X209473D01*
X208456Y281727D01*
X207544Y281201D01*
X206799Y280456D01*
X206273Y279544D01*
X206000Y278527D01*
Y278500D01*
X209500D01*
Y282000D01*
D02*
G37*
G36*
X188000Y281500D02*
X184500D01*
Y278000D01*
X184527D01*
X185544Y278273D01*
X186456Y278799D01*
X187201Y279544D01*
X187727Y280456D01*
X188000Y281473D01*
Y281500D01*
D02*
G37*
G36*
X183500D02*
X180000D01*
Y281473D01*
X180273Y280456D01*
X180799Y279544D01*
X181544Y278799D01*
X182456Y278273D01*
X183473Y278000D01*
X183500D01*
Y281500D01*
D02*
G37*
G36*
X498527Y280000D02*
X498500D01*
Y276500D01*
X502000D01*
Y276527D01*
X501727Y277544D01*
X501201Y278456D01*
X500456Y279201D01*
X499544Y279727D01*
X498527Y280000D01*
D02*
G37*
G36*
X497500D02*
X497473D01*
X496456Y279727D01*
X495544Y279201D01*
X494799Y278456D01*
X494273Y277544D01*
X494000Y276527D01*
Y276500D01*
X497500D01*
Y280000D01*
D02*
G37*
G36*
X116527Y278000D02*
X116500D01*
Y274500D01*
X120000D01*
Y274527D01*
X119727Y275544D01*
X119201Y276456D01*
X118456Y277201D01*
X117544Y277727D01*
X116527Y278000D01*
D02*
G37*
G36*
X214000Y277500D02*
X210500D01*
Y274000D01*
X210527D01*
X211544Y274273D01*
X212456Y274799D01*
X213201Y275544D01*
X213727Y276456D01*
X214000Y277473D01*
Y277500D01*
D02*
G37*
G36*
X209500D02*
X206000D01*
Y277473D01*
X206273Y276456D01*
X206799Y275544D01*
X207544Y274799D01*
X208456Y274273D01*
X209473Y274000D01*
X209500D01*
Y277500D01*
D02*
G37*
G36*
X139566Y287299D02*
X138434D01*
X137341Y287006D01*
X136360Y286440D01*
X135560Y285640D01*
X134994Y284659D01*
X134701Y283566D01*
Y282434D01*
X134994Y281341D01*
X135560Y280360D01*
X135752Y280168D01*
X137487Y277887D01*
X137487Y276664D01*
X136837Y275719D01*
X136360Y275026D01*
X135926Y274273D01*
X135718Y273500D01*
X139000D01*
X142282D01*
X142074Y274273D01*
X141640Y275026D01*
X141163Y275719D01*
X140513Y276664D01*
X140513Y277887D01*
X142248Y280168D01*
X142440Y280360D01*
X143006Y281341D01*
X143299Y282434D01*
Y283566D01*
X143006Y284659D01*
X142440Y285640D01*
X141640Y286440D01*
X140659Y287006D01*
X139566Y287299D01*
D02*
G37*
G36*
X626461Y279500D02*
X625539D01*
X624649Y279261D01*
X623851Y278801D01*
X623199Y278149D01*
X622739Y277351D01*
X622500Y276461D01*
Y275539D01*
X622739Y274649D01*
X623199Y273851D01*
X623851Y273199D01*
X624649Y272739D01*
X625539Y272500D01*
X626461D01*
X627351Y272739D01*
X628149Y273199D01*
X628801Y273851D01*
X629261Y274649D01*
X629500Y275539D01*
Y276461D01*
X629261Y277351D01*
X628801Y278149D01*
X628149Y278801D01*
X627351Y279261D01*
X626461Y279500D01*
D02*
G37*
G36*
X534527Y276000D02*
X534500D01*
Y272500D01*
X538000D01*
Y272527D01*
X537727Y273544D01*
X537201Y274456D01*
X536456Y275201D01*
X535544Y275727D01*
X534527Y276000D01*
D02*
G37*
G36*
X194527D02*
X194500D01*
Y272500D01*
X198000D01*
Y272527D01*
X197727Y273544D01*
X197201Y274456D01*
X196456Y275201D01*
X195544Y275727D01*
X194527Y276000D01*
D02*
G37*
G36*
X193500D02*
X193473D01*
X192456Y275727D01*
X191544Y275201D01*
X190799Y274456D01*
X190273Y273544D01*
X190000Y272527D01*
Y272500D01*
X193500D01*
Y276000D01*
D02*
G37*
G36*
X502000Y275500D02*
X498500D01*
Y272000D01*
X498527D01*
X499544Y272273D01*
X500456Y272799D01*
X501201Y273544D01*
X501727Y274456D01*
X502000Y275473D01*
Y275500D01*
D02*
G37*
G36*
X497500D02*
X494000D01*
Y275473D01*
X494273Y274456D01*
X494799Y273544D01*
X495544Y272799D01*
X496456Y272273D01*
X497473Y272000D01*
X497500D01*
Y275500D01*
D02*
G37*
G36*
X155500Y274489D02*
Y271500D01*
X158490D01*
X158262Y272351D01*
X157801Y273149D01*
X157149Y273801D01*
X156351Y274261D01*
X155500Y274489D01*
D02*
G37*
G36*
X154500D02*
X153649Y274261D01*
X152851Y273801D01*
X152199Y273149D01*
X151739Y272351D01*
X151511Y271500D01*
X154500D01*
Y274489D01*
D02*
G37*
G36*
X456730Y285917D02*
X455270D01*
X453838Y285632D01*
X452489Y285074D01*
X451274Y284262D01*
X450242Y283230D01*
X449430Y282015D01*
X448872Y280666D01*
X448587Y279234D01*
Y277774D01*
X448872Y276342D01*
X449430Y274992D01*
X450242Y273778D01*
X451274Y272746D01*
X452489Y271934D01*
X453838Y271375D01*
X455270Y271091D01*
X456730D01*
X458162Y271375D01*
X459512Y271934D01*
X460726Y272746D01*
X461758Y273778D01*
X462570Y274992D01*
X463129Y276342D01*
X463413Y277774D01*
Y279234D01*
X463129Y280666D01*
X462570Y282015D01*
X461758Y283230D01*
X460726Y284262D01*
X459512Y285074D01*
X458162Y285632D01*
X456730Y285917D01*
D02*
G37*
G36*
X172527Y274000D02*
X172500D01*
Y270500D01*
X176000D01*
Y270527D01*
X175727Y271544D01*
X175201Y272456D01*
X174456Y273201D01*
X173544Y273727D01*
X172527Y274000D01*
D02*
G37*
G36*
X171500D02*
X171473D01*
X170456Y273727D01*
X169544Y273201D01*
X168799Y272456D01*
X168273Y271544D01*
X168000Y270527D01*
Y270500D01*
X171500D01*
Y274000D01*
D02*
G37*
G36*
X120000Y273500D02*
X116500D01*
Y270000D01*
X116527D01*
X117544Y270273D01*
X118456Y270799D01*
X119201Y271544D01*
X119727Y272456D01*
X120000Y273473D01*
Y273500D01*
D02*
G37*
G36*
X198000Y271500D02*
X194500D01*
Y268000D01*
X194527D01*
X195544Y268273D01*
X196456Y268799D01*
X197201Y269544D01*
X197727Y270456D01*
X198000Y271473D01*
Y271500D01*
D02*
G37*
G36*
X193500D02*
X190000D01*
Y271473D01*
X190273Y270456D01*
X190799Y269544D01*
X191544Y268799D01*
X192456Y268273D01*
X193473Y268000D01*
X193500D01*
Y271500D01*
D02*
G37*
G36*
X158490Y270500D02*
X155500D01*
Y267511D01*
X156351Y267739D01*
X157149Y268199D01*
X157801Y268851D01*
X158262Y269649D01*
X158490Y270500D01*
D02*
G37*
G36*
X154500D02*
X151511D01*
X151739Y269649D01*
X152199Y268851D01*
X152851Y268199D01*
X153649Y267739D01*
X154500Y267511D01*
Y270500D01*
D02*
G37*
G36*
X176000Y269500D02*
X172500D01*
Y266000D01*
X172527D01*
X173544Y266273D01*
X174456Y266799D01*
X175201Y267544D01*
X175727Y268456D01*
X176000Y269473D01*
Y269500D01*
D02*
G37*
G36*
X171500D02*
X168000D01*
Y269473D01*
X168273Y268456D01*
X168799Y267544D01*
X169544Y266799D01*
X170456Y266273D01*
X171473Y266000D01*
X171500D01*
Y269500D01*
D02*
G37*
G36*
X656527Y268000D02*
X656500D01*
Y264500D01*
X660000D01*
Y264527D01*
X659727Y265544D01*
X659201Y266456D01*
X658456Y267201D01*
X657544Y267727D01*
X656527Y268000D01*
D02*
G37*
G36*
X655500D02*
X655473D01*
X654456Y267727D01*
X653544Y267201D01*
X652799Y266456D01*
X652273Y265544D01*
X652000Y264527D01*
Y264500D01*
X655500D01*
Y268000D01*
D02*
G37*
G36*
X478527D02*
X478500D01*
Y264500D01*
X482000D01*
Y264527D01*
X481727Y265544D01*
X481201Y266456D01*
X480456Y267201D01*
X479544Y267727D01*
X478527Y268000D01*
D02*
G37*
G36*
X477500D02*
X477473D01*
X476456Y267727D01*
X475544Y267201D01*
X474799Y266456D01*
X474273Y265544D01*
X474000Y264527D01*
Y264500D01*
X477500D01*
Y268000D01*
D02*
G37*
G36*
X320527Y264000D02*
X320500D01*
Y260500D01*
X324000D01*
Y260527D01*
X323727Y261544D01*
X323201Y262456D01*
X322456Y263201D01*
X321544Y263727D01*
X320527Y264000D01*
D02*
G37*
G36*
X319500D02*
X319473D01*
X318456Y263727D01*
X317544Y263201D01*
X316799Y262456D01*
X316273Y261544D01*
X316000Y260527D01*
Y260500D01*
X319500D01*
Y264000D01*
D02*
G37*
G36*
X660000Y263500D02*
X656500D01*
Y260000D01*
X656527D01*
X657544Y260273D01*
X658456Y260799D01*
X659201Y261544D01*
X659727Y262456D01*
X660000Y263473D01*
Y263500D01*
D02*
G37*
G36*
X655500D02*
X652000D01*
Y263473D01*
X652273Y262456D01*
X652799Y261544D01*
X653544Y260799D01*
X654456Y260273D01*
X655473Y260000D01*
X655500D01*
Y263500D01*
D02*
G37*
G36*
X482000D02*
X478500D01*
Y260000D01*
X478527D01*
X479544Y260273D01*
X480456Y260799D01*
X481201Y261544D01*
X481727Y262456D01*
X482000Y263473D01*
Y263500D01*
D02*
G37*
G36*
X477500D02*
X474000D01*
Y263473D01*
X474273Y262456D01*
X474799Y261544D01*
X475544Y260799D01*
X476456Y260273D01*
X477473Y260000D01*
X477500D01*
Y263500D01*
D02*
G37*
G36*
X142282Y272500D02*
X139000D01*
X135718D01*
X135926Y271726D01*
X136360Y270974D01*
X136837Y270281D01*
X137487Y269336D01*
X137487Y268113D01*
X135752Y265832D01*
X135560Y265640D01*
X134994Y264659D01*
X134701Y263566D01*
Y262434D01*
X134994Y261341D01*
X135560Y260360D01*
X136360Y259560D01*
X137341Y258994D01*
X138434Y258701D01*
X139566D01*
X140659Y258994D01*
X141640Y259560D01*
X142440Y260360D01*
X143006Y261341D01*
X143299Y262434D01*
Y263566D01*
X143006Y264659D01*
X142440Y265640D01*
X142248Y265832D01*
X140513Y268113D01*
X140513Y269336D01*
X141163Y270281D01*
X141640Y270974D01*
X142074Y271726D01*
X142282Y272500D01*
D02*
G37*
G36*
X670500Y262090D02*
X670462D01*
X669421Y261812D01*
X668488Y261273D01*
X667727Y260512D01*
X667188Y259579D01*
X666910Y258539D01*
Y258500D01*
X670500D01*
Y262090D01*
D02*
G37*
G36*
X616500Y260490D02*
Y257500D01*
X619489D01*
X619262Y258351D01*
X618801Y259149D01*
X618149Y259801D01*
X617351Y260262D01*
X616500Y260490D01*
D02*
G37*
G36*
X169591Y262000D02*
X169500D01*
Y256500D01*
X175000D01*
Y256591D01*
X174769Y257750D01*
X174317Y258842D01*
X173661Y259825D01*
X172825Y260661D01*
X171842Y261317D01*
X170750Y261769D01*
X169591Y262000D01*
D02*
G37*
G36*
X168500D02*
X168409D01*
X167250Y261769D01*
X166158Y261317D01*
X165175Y260661D01*
X164339Y259825D01*
X163683Y258842D01*
X163231Y257750D01*
X163000Y256591D01*
Y256500D01*
X168500D01*
Y262000D01*
D02*
G37*
G36*
X324000Y259500D02*
X320500D01*
Y256000D01*
X320527D01*
X321544Y256273D01*
X322456Y256799D01*
X323201Y257544D01*
X323727Y258456D01*
X324000Y259473D01*
Y259500D01*
D02*
G37*
G36*
X319500D02*
X316000D01*
Y259473D01*
X316273Y258456D01*
X316799Y257544D01*
X317544Y256799D01*
X318456Y256273D01*
X319473Y256000D01*
X319500D01*
Y259500D01*
D02*
G37*
G36*
X497500Y256000D02*
X497473D01*
X496456Y255727D01*
X495544Y255201D01*
X494799Y254456D01*
X494273Y253544D01*
X494000Y252527D01*
Y252500D01*
X497500D01*
Y256000D01*
D02*
G37*
G36*
X124527D02*
X124500D01*
Y252500D01*
X128000D01*
Y252527D01*
X127727Y253544D01*
X127201Y254456D01*
X126456Y255201D01*
X125544Y255727D01*
X124527Y256000D01*
D02*
G37*
G36*
X123500D02*
X123473D01*
X122456Y255727D01*
X121544Y255201D01*
X120799Y254456D01*
X120273Y253544D01*
X120000Y252527D01*
Y252500D01*
X123500D01*
Y256000D01*
D02*
G37*
G36*
X579461Y254591D02*
X578539D01*
X577649Y254352D01*
X576851Y253891D01*
X576199Y253240D01*
X575351Y252261D01*
X574461Y252500D01*
X573539D01*
X572649Y252261D01*
X571851Y251801D01*
X571199Y251149D01*
X570739Y250351D01*
X570500Y249461D01*
Y248539D01*
X570739Y247649D01*
X571199Y246851D01*
X571851Y246199D01*
X572649Y245739D01*
X573539Y245500D01*
X574461D01*
X575351Y245739D01*
X576149Y246199D01*
X576801Y246851D01*
X577649Y247829D01*
X578539Y247590D01*
X579461D01*
X580351Y247829D01*
X581149Y248290D01*
X581801Y248941D01*
X582262Y249740D01*
X582500Y250630D01*
Y251551D01*
X582262Y252442D01*
X581801Y253240D01*
X581149Y253891D01*
X580351Y254352D01*
X579461Y254591D01*
D02*
G37*
G36*
X562527Y254000D02*
X562500D01*
Y250500D01*
X566000D01*
Y250527D01*
X565727Y251544D01*
X565201Y252456D01*
X564456Y253201D01*
X563544Y253727D01*
X562527Y254000D01*
D02*
G37*
G36*
X561500D02*
X561473D01*
X560456Y253727D01*
X559544Y253201D01*
X558799Y252456D01*
X558273Y251544D01*
X558000Y250527D01*
Y250500D01*
X561500D01*
Y254000D01*
D02*
G37*
G36*
X175000Y255500D02*
X169500D01*
Y250000D01*
X169591D01*
X170750Y250231D01*
X171842Y250683D01*
X172825Y251340D01*
X173661Y252175D01*
X174317Y253158D01*
X174769Y254250D01*
X175000Y255409D01*
Y255500D01*
D02*
G37*
G36*
X168500D02*
X163000D01*
Y255409D01*
X163231Y254250D01*
X163683Y253158D01*
X164339Y252175D01*
X165175Y251340D01*
X166158Y250683D01*
X167250Y250231D01*
X168409Y250000D01*
X168500D01*
Y255500D01*
D02*
G37*
G36*
X128000Y251500D02*
X124500D01*
Y248000D01*
X124527D01*
X125544Y248273D01*
X126456Y248799D01*
X127201Y249544D01*
X127727Y250456D01*
X128000Y251473D01*
Y251500D01*
D02*
G37*
G36*
X123500D02*
X120000D01*
Y251473D01*
X120273Y250456D01*
X120799Y249544D01*
X121544Y248799D01*
X122456Y248273D01*
X123473Y248000D01*
X123500D01*
Y251500D01*
D02*
G37*
G36*
X566000Y249500D02*
X562500D01*
Y246000D01*
X562527D01*
X563544Y246273D01*
X564456Y246799D01*
X565201Y247544D01*
X565727Y248456D01*
X566000Y249473D01*
Y249500D01*
D02*
G37*
G36*
X561500D02*
X558000D01*
Y249473D01*
X558273Y248456D01*
X558799Y247544D01*
X559544Y246799D01*
X560456Y246273D01*
X561473Y246000D01*
X561500D01*
Y249500D01*
D02*
G37*
G36*
X178527Y248000D02*
X178500D01*
Y244500D01*
X182000D01*
Y244527D01*
X181727Y245544D01*
X181201Y246456D01*
X180456Y247201D01*
X179544Y247727D01*
X178527Y248000D01*
D02*
G37*
G36*
X177500D02*
X177473D01*
X176456Y247727D01*
X175544Y247201D01*
X174799Y246456D01*
X174273Y245544D01*
X174000Y244527D01*
Y244500D01*
X177500D01*
Y248000D01*
D02*
G37*
G36*
X166527Y246000D02*
X166500D01*
Y242500D01*
X170000D01*
Y242527D01*
X169727Y243544D01*
X169201Y244456D01*
X168456Y245201D01*
X167544Y245727D01*
X166527Y246000D01*
D02*
G37*
G36*
X165500D02*
X165473D01*
X164456Y245727D01*
X163544Y245201D01*
X162799Y244456D01*
X162273Y243544D01*
X162000Y242527D01*
Y242500D01*
X165500D01*
Y246000D01*
D02*
G37*
G36*
X182000Y243500D02*
X178500D01*
Y240000D01*
X178527D01*
X179544Y240273D01*
X180456Y240799D01*
X181201Y241544D01*
X181727Y242456D01*
X182000Y243473D01*
Y243500D01*
D02*
G37*
G36*
X177500D02*
X174000D01*
Y243473D01*
X174273Y242456D01*
X174799Y241544D01*
X175544Y240799D01*
X176456Y240273D01*
X177473Y240000D01*
X177500D01*
Y243500D01*
D02*
G37*
G36*
X124748Y243843D02*
X124657D01*
Y238342D01*
X130157D01*
Y238434D01*
X129927Y239593D01*
X129475Y240685D01*
X128818Y241667D01*
X127982Y242503D01*
X126999Y243160D01*
X125908Y243612D01*
X124748Y243843D01*
D02*
G37*
G36*
X123658D02*
X123566D01*
X122407Y243612D01*
X121315Y243160D01*
X120333Y242503D01*
X119497Y241667D01*
X118840Y240685D01*
X118388Y239593D01*
X118157Y238434D01*
Y238342D01*
X123658D01*
Y243843D01*
D02*
G37*
G36*
X586961Y244000D02*
X586039D01*
X585149Y243761D01*
X584351Y243301D01*
X583699Y242649D01*
X583239Y241851D01*
X583000Y240961D01*
Y240039D01*
X583239Y239149D01*
X583699Y238351D01*
X584351Y237699D01*
X585149Y237239D01*
X586039Y237000D01*
X586961D01*
X587851Y237239D01*
X588649Y237699D01*
X589301Y238351D01*
X589761Y239149D01*
X590000Y240039D01*
Y240961D01*
X589761Y241851D01*
X589301Y242649D01*
X588649Y243301D01*
X587851Y243761D01*
X586961Y244000D01*
D02*
G37*
G36*
X469315Y239724D02*
X469224D01*
Y234224D01*
X474724D01*
Y234315D01*
X474494Y235474D01*
X474042Y236566D01*
X473385Y237549D01*
X472549Y238385D01*
X471566Y239041D01*
X470474Y239494D01*
X469315Y239724D01*
D02*
G37*
G36*
X468224D02*
X468133D01*
X466974Y239494D01*
X465882Y239041D01*
X464900Y238385D01*
X464064Y237549D01*
X463407Y236566D01*
X462955Y235474D01*
X462724Y234315D01*
Y234224D01*
X468224D01*
Y239724D01*
D02*
G37*
G36*
X170000Y241500D02*
X162000D01*
Y241473D01*
X162273Y240456D01*
X162799Y239544D01*
X163544Y238799D01*
X164456Y238273D01*
X165473Y238000D01*
X165918D01*
X166929Y236231D01*
X167182Y235118D01*
X166738Y234351D01*
X166510Y233500D01*
X173489D01*
X173261Y234351D01*
X172801Y235149D01*
X172149Y235801D01*
X171351Y236262D01*
X170461Y236500D01*
X170185D01*
X170088Y236629D01*
X169147Y238666D01*
X169021Y239364D01*
X169201Y239544D01*
X169727Y240456D01*
X170000Y241473D01*
Y241500D01*
D02*
G37*
G36*
X130157Y237343D02*
X124657D01*
Y231842D01*
X124748D01*
X125908Y232073D01*
X126999Y232525D01*
X127982Y233182D01*
X128818Y234018D01*
X129475Y235000D01*
X129927Y236092D01*
X130157Y237252D01*
Y237343D01*
D02*
G37*
G36*
X123658D02*
X118157D01*
Y237252D01*
X118388Y236092D01*
X118840Y235000D01*
X119497Y234018D01*
X120333Y233182D01*
X121315Y232525D01*
X122407Y232073D01*
X123566Y231842D01*
X123658D01*
Y237343D01*
D02*
G37*
G36*
X173489Y232500D02*
X170500D01*
Y229510D01*
X171351Y229738D01*
X172149Y230199D01*
X172801Y230851D01*
X173261Y231649D01*
X173489Y232500D01*
D02*
G37*
G36*
X169500D02*
X166510D01*
X166738Y231649D01*
X167199Y230851D01*
X167851Y230199D01*
X168649Y229738D01*
X169500Y229510D01*
Y232500D01*
D02*
G37*
G36*
X670834Y226138D02*
X667334D01*
Y222638D01*
X667361D01*
X668378Y222911D01*
X669290Y223437D01*
X670035Y224182D01*
X670562Y225094D01*
X670834Y226111D01*
Y226138D01*
D02*
G37*
G36*
X666334D02*
X662834D01*
Y226111D01*
X663107Y225094D01*
X663633Y224182D01*
X664378Y223437D01*
X665290Y222911D01*
X666308Y222638D01*
X666334D01*
Y226138D01*
D02*
G37*
G36*
X636335Y224052D02*
X636308D01*
Y220552D01*
X639808D01*
Y220579D01*
X639536Y221596D01*
X639009Y222508D01*
X638264Y223253D01*
X637352Y223780D01*
X636335Y224052D01*
D02*
G37*
G36*
X635308D02*
X635282D01*
X634264Y223780D01*
X633352Y223253D01*
X632607Y222508D01*
X632081Y221596D01*
X631808Y220579D01*
Y220552D01*
X635308D01*
Y224052D01*
D02*
G37*
G36*
X685500Y220490D02*
X684649Y220262D01*
X683851Y219801D01*
X683199Y219149D01*
X682738Y218351D01*
X682511Y217500D01*
X685500D01*
Y220490D01*
D02*
G37*
G36*
X122527Y220000D02*
X122500D01*
Y216500D01*
X126000D01*
Y216527D01*
X125727Y217544D01*
X125201Y218456D01*
X124456Y219201D01*
X123544Y219727D01*
X122527Y220000D01*
D02*
G37*
G36*
X121500D02*
X121473D01*
X120456Y219727D01*
X119544Y219201D01*
X118799Y218456D01*
X118273Y217544D01*
X118000Y216527D01*
Y216500D01*
X121500D01*
Y220000D01*
D02*
G37*
G36*
X639808Y219552D02*
X636308D01*
Y216052D01*
X636335D01*
X637352Y216325D01*
X638264Y216851D01*
X639009Y217596D01*
X639536Y218508D01*
X639808Y219526D01*
Y219552D01*
D02*
G37*
G36*
X635308D02*
X631808D01*
Y219526D01*
X632081Y218508D01*
X632607Y217596D01*
X633352Y216851D01*
X634264Y216325D01*
X635282Y216052D01*
X635308D01*
Y219552D01*
D02*
G37*
G36*
X653906Y222991D02*
X652984D01*
X652094Y222752D01*
X651296Y222291D01*
X650644Y221640D01*
X650184Y220842D01*
X649945Y219952D01*
Y219030D01*
X650184Y218140D01*
X650644Y217342D01*
X651296Y216690D01*
X652094Y216229D01*
X652984Y215991D01*
X653906D01*
X654796Y216229D01*
X655594Y216690D01*
X656246Y217342D01*
X656707Y218140D01*
X656945Y219030D01*
Y219952D01*
X656707Y220842D01*
X656246Y221640D01*
X655594Y222291D01*
X654796Y222752D01*
X653906Y222991D01*
D02*
G37*
G36*
X685500Y216500D02*
X682511D01*
X682738Y215649D01*
X683199Y214851D01*
X683851Y214199D01*
X684649Y213738D01*
X685500Y213510D01*
Y216500D01*
D02*
G37*
G36*
X126000Y215500D02*
X122500D01*
Y212000D01*
X122527D01*
X123544Y212273D01*
X124456Y212799D01*
X125201Y213544D01*
X125727Y214456D01*
X126000Y215473D01*
Y215500D01*
D02*
G37*
G36*
X121500D02*
X118000D01*
Y215473D01*
X118273Y214456D01*
X118799Y213544D01*
X119544Y212799D01*
X120456Y212273D01*
X121473Y212000D01*
X121500D01*
Y215500D01*
D02*
G37*
G36*
X634527Y208000D02*
X634500D01*
Y204500D01*
X638000D01*
Y204527D01*
X637727Y205544D01*
X637201Y206456D01*
X636456Y207201D01*
X635544Y207727D01*
X634527Y208000D01*
D02*
G37*
G36*
X633500D02*
X633473D01*
X632456Y207727D01*
X631544Y207201D01*
X630799Y206456D01*
X630273Y205544D01*
X630000Y204527D01*
Y204500D01*
X633500D01*
Y208000D01*
D02*
G37*
G36*
X620490Y205500D02*
X617500D01*
Y202510D01*
X618351Y202738D01*
X619149Y203199D01*
X619801Y203851D01*
X620261Y204649D01*
X620490Y205500D01*
D02*
G37*
G36*
X122591Y208000D02*
X122500D01*
Y202500D01*
X128000D01*
Y202591D01*
X127769Y203750D01*
X127317Y204842D01*
X126661Y205825D01*
X125825Y206661D01*
X124842Y207317D01*
X123750Y207769D01*
X122591Y208000D01*
D02*
G37*
G36*
X121500D02*
X121409D01*
X120250Y207769D01*
X119158Y207317D01*
X118175Y206661D01*
X117340Y205825D01*
X116683Y204842D01*
X116231Y203750D01*
X116000Y202591D01*
Y202500D01*
X121500D01*
Y208000D01*
D02*
G37*
G36*
X638000Y203500D02*
X634500D01*
Y200000D01*
X634527D01*
X635544Y200273D01*
X636456Y200799D01*
X637201Y201544D01*
X637727Y202456D01*
X638000Y203473D01*
Y203500D01*
D02*
G37*
G36*
X633500D02*
X630000D01*
Y203473D01*
X630273Y202456D01*
X630799Y201544D01*
X631544Y200799D01*
X632456Y200273D01*
X633473Y200000D01*
X633500D01*
Y203500D01*
D02*
G37*
G36*
X128000Y201500D02*
X122500D01*
Y196000D01*
X122591D01*
X123750Y196231D01*
X124842Y196683D01*
X125825Y197339D01*
X126661Y198175D01*
X127317Y199158D01*
X127769Y200250D01*
X128000Y201409D01*
Y201500D01*
D02*
G37*
G36*
X121500D02*
X116000D01*
Y201409D01*
X116231Y200250D01*
X116683Y199158D01*
X117340Y198175D01*
X118175Y197339D01*
X119158Y196683D01*
X120250Y196231D01*
X121409Y196000D01*
X121500D01*
Y201500D01*
D02*
G37*
G36*
X582489Y196500D02*
X579500D01*
Y193510D01*
X580351Y193738D01*
X581149Y194199D01*
X581801Y194851D01*
X582262Y195649D01*
X582489Y196500D01*
D02*
G37*
G36*
X578500D02*
X575511D01*
X575738Y195649D01*
X576199Y194851D01*
X576851Y194199D01*
X577649Y193738D01*
X578500Y193510D01*
Y196500D01*
D02*
G37*
G36*
X681500Y196000D02*
X681473D01*
X680456Y195727D01*
X679544Y195201D01*
X678799Y194456D01*
X678273Y193544D01*
X678000Y192527D01*
Y192500D01*
X681500D01*
Y196000D01*
D02*
G37*
G36*
X647500Y195490D02*
X646649Y195262D01*
X645851Y194801D01*
X645199Y194149D01*
X644738Y193351D01*
X644511Y192500D01*
X647500D01*
Y195490D01*
D02*
G37*
G36*
X617193Y194797D02*
Y191807D01*
X620182D01*
X619954Y192658D01*
X619494Y193456D01*
X618842Y194108D01*
X618044Y194569D01*
X617193Y194797D01*
D02*
G37*
G36*
X647500Y191500D02*
X644511D01*
X644738Y190649D01*
X645199Y189851D01*
X645851Y189199D01*
X646649Y188739D01*
X647500Y188511D01*
Y191500D01*
D02*
G37*
G36*
X681500D02*
X678000D01*
Y191473D01*
X678273Y190456D01*
X678799Y189544D01*
X679544Y188799D01*
X680456Y188273D01*
X681473Y188000D01*
X681500D01*
Y191500D01*
D02*
G37*
G36*
X620182Y190807D02*
X617193D01*
Y187818D01*
X618044Y188046D01*
X618842Y188506D01*
X619494Y189158D01*
X619954Y189956D01*
X620182Y190807D01*
D02*
G37*
G36*
X199276Y187315D02*
X199185D01*
Y181815D01*
X204685D01*
Y181906D01*
X204454Y183065D01*
X204002Y184157D01*
X203345Y185140D01*
X202510Y185976D01*
X201527Y186632D01*
X200435Y187084D01*
X199276Y187315D01*
D02*
G37*
G36*
X663932Y204842D02*
X662068D01*
X660227Y204551D01*
X658454Y203975D01*
X656793Y203129D01*
X655285Y202033D01*
X653967Y200715D01*
X652871Y199207D01*
X652025Y197546D01*
X651880Y197098D01*
X649855Y195627D01*
X648500Y195504D01*
Y192000D01*
Y188511D01*
X649351Y188739D01*
X652042Y187778D01*
X652572Y187380D01*
X652871Y186793D01*
X653967Y185285D01*
X655285Y183967D01*
X656793Y182871D01*
X658454Y182025D01*
X660227Y181449D01*
X662068Y181158D01*
X663932D01*
X665773Y181449D01*
X667546Y182025D01*
X669207Y182871D01*
X670715Y183967D01*
X672033Y185285D01*
X673129Y186793D01*
X673975Y188454D01*
X674551Y190227D01*
X674843Y192068D01*
Y193932D01*
X674551Y195773D01*
X673975Y197546D01*
X673129Y199207D01*
X672033Y200715D01*
X670715Y202033D01*
X669207Y203129D01*
X667546Y203975D01*
X665773Y204551D01*
X663932Y204842D01*
D02*
G37*
G36*
X452527Y180000D02*
X452500D01*
Y176500D01*
X456000D01*
Y176527D01*
X455727Y177544D01*
X455201Y178456D01*
X454456Y179201D01*
X453544Y179727D01*
X452527Y180000D01*
D02*
G37*
G36*
X451500D02*
X451473D01*
X450456Y179727D01*
X449544Y179201D01*
X448799Y178456D01*
X448273Y177544D01*
X448000Y176527D01*
Y176500D01*
X451500D01*
Y180000D01*
D02*
G37*
G36*
X470500Y178489D02*
X469649Y178261D01*
X468851Y177801D01*
X468199Y177149D01*
X467738Y176351D01*
X467511Y175500D01*
X470500D01*
Y178489D01*
D02*
G37*
G36*
X204685Y180815D02*
X199185D01*
Y175315D01*
X199276D01*
X200435Y175546D01*
X201527Y175998D01*
X202510Y176655D01*
X203345Y177490D01*
X204002Y178473D01*
X204454Y179565D01*
X204685Y180724D01*
Y180815D01*
D02*
G37*
G36*
X456000Y175500D02*
X452500D01*
Y172000D01*
X452527D01*
X453544Y172273D01*
X454456Y172799D01*
X455201Y173544D01*
X455727Y174456D01*
X456000Y175473D01*
Y175500D01*
D02*
G37*
G36*
X451500D02*
X448000D01*
Y175473D01*
X448273Y174456D01*
X448799Y173544D01*
X449544Y172799D01*
X450456Y172273D01*
X451473Y172000D01*
X451500D01*
Y175500D01*
D02*
G37*
G36*
X170527Y174000D02*
X170500D01*
Y170500D01*
X174000D01*
Y170527D01*
X173727Y171544D01*
X173201Y172456D01*
X172456Y173201D01*
X171544Y173727D01*
X170527Y174000D01*
D02*
G37*
G36*
X169500D02*
X169473D01*
X168456Y173727D01*
X167544Y173201D01*
X166799Y172456D01*
X166273Y171544D01*
X166000Y170527D01*
Y170500D01*
X169500D01*
Y174000D01*
D02*
G37*
G36*
X152527D02*
X152500D01*
Y170500D01*
X156000D01*
Y170527D01*
X155727Y171544D01*
X155201Y172456D01*
X154456Y173201D01*
X153544Y173727D01*
X152527Y174000D01*
D02*
G37*
G36*
X151500D02*
X151473D01*
X150456Y173727D01*
X149544Y173201D01*
X148799Y172456D01*
X148273Y171544D01*
X148000Y170527D01*
Y170500D01*
X151500D01*
Y174000D01*
D02*
G37*
G36*
X664527Y172000D02*
X664500D01*
Y168500D01*
X668000D01*
Y168527D01*
X667727Y169544D01*
X667201Y170456D01*
X666456Y171201D01*
X665544Y171727D01*
X664527Y172000D01*
D02*
G37*
G36*
X663500D02*
X663473D01*
X662456Y171727D01*
X661544Y171201D01*
X660799Y170456D01*
X660273Y169544D01*
X660000Y168527D01*
Y168500D01*
X663500D01*
Y172000D01*
D02*
G37*
G36*
X138500Y171490D02*
Y168500D01*
X141490D01*
X141261Y169351D01*
X140801Y170149D01*
X140149Y170801D01*
X139351Y171262D01*
X138500Y171490D01*
D02*
G37*
G36*
X137500D02*
X136649Y171262D01*
X135851Y170801D01*
X135199Y170149D01*
X134739Y169351D01*
X134511Y168500D01*
X137500D01*
Y171490D01*
D02*
G37*
G36*
X174000Y169500D02*
X170500D01*
Y166000D01*
X170527D01*
X171544Y166273D01*
X172456Y166799D01*
X173201Y167544D01*
X173727Y168456D01*
X174000Y169473D01*
Y169500D01*
D02*
G37*
G36*
X169500D02*
X166000D01*
Y169473D01*
X166273Y168456D01*
X166799Y167544D01*
X167544Y166799D01*
X168456Y166273D01*
X169473Y166000D01*
X169500D01*
Y169500D01*
D02*
G37*
G36*
X156000D02*
X152500D01*
Y166000D01*
X152527D01*
X153544Y166273D01*
X154456Y166799D01*
X155201Y167544D01*
X155727Y168456D01*
X156000Y169473D01*
Y169500D01*
D02*
G37*
G36*
X151500D02*
X148000D01*
Y169473D01*
X148273Y168456D01*
X148799Y167544D01*
X149544Y166799D01*
X150456Y166273D01*
X151473Y166000D01*
X151500D01*
Y169500D01*
D02*
G37*
G36*
X141490Y167500D02*
X138500D01*
Y164511D01*
X139351Y164739D01*
X140149Y165199D01*
X140801Y165851D01*
X141261Y166649D01*
X141490Y167500D01*
D02*
G37*
G36*
X137500D02*
X134511D01*
X134739Y166649D01*
X135199Y165851D01*
X135851Y165199D01*
X136649Y164739D01*
X137500Y164511D01*
Y167500D01*
D02*
G37*
G36*
X681500Y168000D02*
X681473D01*
X680456Y167727D01*
X679544Y167201D01*
X678799Y166456D01*
X678273Y165544D01*
X678000Y164527D01*
Y164500D01*
X681500D01*
Y168000D01*
D02*
G37*
G36*
X668000Y167500D02*
X664500D01*
Y164000D01*
X664527D01*
X665544Y164273D01*
X666456Y164799D01*
X667201Y165544D01*
X667727Y166456D01*
X668000Y167473D01*
Y167500D01*
D02*
G37*
G36*
X663500D02*
X660000D01*
Y167473D01*
X660273Y166456D01*
X660799Y165544D01*
X661544Y164799D01*
X662456Y164273D01*
X663473Y164000D01*
X663500D01*
Y167500D01*
D02*
G37*
G36*
X438527Y166000D02*
X438500D01*
Y162500D01*
X442000D01*
Y162527D01*
X441727Y163544D01*
X441201Y164456D01*
X440456Y165201D01*
X439544Y165727D01*
X438527Y166000D01*
D02*
G37*
G36*
X437500D02*
X437473D01*
X436456Y165727D01*
X435544Y165201D01*
X434799Y164456D01*
X434273Y163544D01*
X434000Y162527D01*
Y162500D01*
X437500D01*
Y166000D01*
D02*
G37*
G36*
X181500Y164489D02*
X180649Y164261D01*
X179851Y163801D01*
X179199Y163149D01*
X178738Y162351D01*
X178510Y161500D01*
X181500D01*
Y164489D01*
D02*
G37*
G36*
X116527Y164000D02*
X116500D01*
Y160500D01*
X120000D01*
Y160527D01*
X119727Y161544D01*
X119201Y162456D01*
X118456Y163201D01*
X117544Y163727D01*
X116527Y164000D01*
D02*
G37*
G36*
X681500Y163500D02*
X678000D01*
Y163473D01*
X678273Y162456D01*
X678799Y161544D01*
X679544Y160799D01*
X680456Y160273D01*
X681473Y160000D01*
X681500D01*
Y163500D01*
D02*
G37*
G36*
X579500Y162000D02*
X579473D01*
X578456Y161727D01*
X577544Y161201D01*
X576799Y160456D01*
X576273Y159544D01*
X576000Y158527D01*
Y158500D01*
X579500D01*
Y162000D01*
D02*
G37*
G36*
X442000Y161500D02*
X438500D01*
Y158000D01*
X438527D01*
X439544Y158273D01*
X440456Y158799D01*
X441201Y159544D01*
X441727Y160456D01*
X442000Y161473D01*
Y161500D01*
D02*
G37*
G36*
X437500D02*
X434000D01*
Y161473D01*
X434273Y160456D01*
X434799Y159544D01*
X435544Y158799D01*
X436456Y158273D01*
X437473Y158000D01*
X437500D01*
Y161500D01*
D02*
G37*
G36*
X181500Y160500D02*
X178510D01*
X178738Y159649D01*
X179199Y158851D01*
X179851Y158199D01*
X180649Y157738D01*
X181500Y157510D01*
Y160500D01*
D02*
G37*
G36*
X514527Y160000D02*
X514500D01*
Y156500D01*
X518000D01*
Y156527D01*
X517727Y157544D01*
X517201Y158456D01*
X516456Y159201D01*
X515544Y159727D01*
X514527Y160000D01*
D02*
G37*
G36*
X513500D02*
X513473D01*
X512456Y159727D01*
X511544Y159201D01*
X510799Y158456D01*
X510273Y157544D01*
X510000Y156527D01*
Y156500D01*
X513500D01*
Y160000D01*
D02*
G37*
G36*
X120000Y159500D02*
X116500D01*
Y156000D01*
X116527D01*
X117544Y156273D01*
X118456Y156799D01*
X119201Y157544D01*
X119727Y158456D01*
X120000Y159473D01*
Y159500D01*
D02*
G37*
G36*
X579500Y157500D02*
X576000D01*
Y157473D01*
X576273Y156456D01*
X576799Y155544D01*
X577544Y154799D01*
X578456Y154273D01*
X579473Y154000D01*
X579500D01*
Y157500D01*
D02*
G37*
G36*
X518000Y155500D02*
X514500D01*
Y152000D01*
X514527D01*
X515544Y152273D01*
X516456Y152799D01*
X517201Y153544D01*
X517727Y154456D01*
X518000Y155473D01*
Y155500D01*
D02*
G37*
G36*
X513500D02*
X510000D01*
Y155473D01*
X510273Y154456D01*
X510799Y153544D01*
X511544Y152799D01*
X512456Y152273D01*
X513473Y152000D01*
X513500D01*
Y155500D01*
D02*
G37*
G36*
X202527Y154000D02*
X202500D01*
Y150500D01*
X206000D01*
Y150527D01*
X205727Y151544D01*
X205201Y152456D01*
X204456Y153201D01*
X203544Y153727D01*
X202527Y154000D01*
D02*
G37*
G36*
X201500D02*
X201473D01*
X200456Y153727D01*
X199544Y153201D01*
X198799Y152456D01*
X198273Y151544D01*
X198000Y150527D01*
Y150500D01*
X201500D01*
Y154000D01*
D02*
G37*
G36*
X206000Y149500D02*
X202500D01*
Y146000D01*
X202527D01*
X203544Y146273D01*
X204456Y146799D01*
X205201Y147544D01*
X205727Y148456D01*
X206000Y149473D01*
Y149500D01*
D02*
G37*
G36*
X201500D02*
X198000D01*
Y149473D01*
X198273Y148456D01*
X198799Y147544D01*
X199544Y146799D01*
X200456Y146273D01*
X201473Y146000D01*
X201500D01*
Y149500D01*
D02*
G37*
G36*
X160500Y147490D02*
Y144500D01*
X163489D01*
X163261Y145351D01*
X162801Y146149D01*
X162149Y146801D01*
X161351Y147262D01*
X160500Y147490D01*
D02*
G37*
G36*
X159500D02*
X158649Y147262D01*
X157851Y146801D01*
X157199Y146149D01*
X156738Y145351D01*
X156510Y144500D01*
X159500D01*
Y147490D01*
D02*
G37*
G36*
X681500Y146000D02*
X681473D01*
X680456Y145727D01*
X679544Y145201D01*
X678799Y144456D01*
X678273Y143544D01*
X678000Y142527D01*
Y142500D01*
X681500D01*
Y146000D01*
D02*
G37*
G36*
X440527D02*
X440500D01*
Y142500D01*
X444000D01*
Y142527D01*
X443727Y143544D01*
X443201Y144456D01*
X442456Y145201D01*
X441544Y145727D01*
X440527Y146000D01*
D02*
G37*
G36*
X439500D02*
X439473D01*
X438456Y145727D01*
X437544Y145201D01*
X436799Y144456D01*
X436273Y143544D01*
X436000Y142527D01*
Y142500D01*
X439500D01*
Y146000D01*
D02*
G37*
G36*
X163489Y143500D02*
X160500D01*
Y140510D01*
X161351Y140738D01*
X162149Y141199D01*
X162801Y141851D01*
X163261Y142649D01*
X163489Y143500D01*
D02*
G37*
G36*
X159500D02*
X156510D01*
X156738Y142649D01*
X157199Y141851D01*
X157851Y141199D01*
X158649Y140738D01*
X159500Y140510D01*
Y143500D01*
D02*
G37*
G36*
X681500Y141500D02*
X678000D01*
Y141473D01*
X678273Y140456D01*
X678799Y139544D01*
X679544Y138799D01*
X680456Y138273D01*
X681473Y138000D01*
X681500D01*
Y141500D01*
D02*
G37*
G36*
X444000D02*
X440500D01*
Y138000D01*
X440527D01*
X441544Y138273D01*
X442456Y138799D01*
X443201Y139544D01*
X443727Y140456D01*
X444000Y141473D01*
Y141500D01*
D02*
G37*
G36*
X439500D02*
X436000D01*
Y141473D01*
X436273Y140456D01*
X436799Y139544D01*
X437544Y138799D01*
X438456Y138273D01*
X439473Y138000D01*
X439500D01*
Y141500D01*
D02*
G37*
G36*
X580527Y140000D02*
X580500D01*
Y136500D01*
X584000D01*
Y136527D01*
X583727Y137544D01*
X583201Y138456D01*
X582456Y139201D01*
X581544Y139727D01*
X580527Y140000D01*
D02*
G37*
G36*
X579500D02*
X579473D01*
X578456Y139727D01*
X577544Y139201D01*
X576799Y138456D01*
X576273Y137544D01*
X576000Y136527D01*
Y136500D01*
X579500D01*
Y140000D01*
D02*
G37*
G36*
X506527Y138000D02*
X506500D01*
Y134500D01*
X510000D01*
Y134527D01*
X509727Y135544D01*
X509201Y136456D01*
X508456Y137201D01*
X507544Y137727D01*
X506527Y138000D01*
D02*
G37*
G36*
X505500D02*
X505473D01*
X504456Y137727D01*
X503544Y137201D01*
X502799Y136456D01*
X502273Y135544D01*
X502000Y134527D01*
Y134500D01*
X505500D01*
Y138000D01*
D02*
G37*
G36*
X202527D02*
X202500D01*
Y134500D01*
X206000D01*
Y134527D01*
X205727Y135544D01*
X205201Y136456D01*
X204456Y137201D01*
X203544Y137727D01*
X202527Y138000D01*
D02*
G37*
G36*
X201500D02*
X201473D01*
X200456Y137727D01*
X199544Y137201D01*
X198799Y136456D01*
X198273Y135544D01*
X198000Y134527D01*
Y134500D01*
X201500D01*
Y138000D01*
D02*
G37*
G36*
X584000Y135500D02*
X580500D01*
Y132000D01*
X580527D01*
X581544Y132273D01*
X582456Y132799D01*
X583201Y133544D01*
X583727Y134456D01*
X584000Y135473D01*
Y135500D01*
D02*
G37*
G36*
X579500D02*
X576000D01*
Y135473D01*
X576273Y134456D01*
X576799Y133544D01*
X577544Y132799D01*
X578456Y132273D01*
X579473Y132000D01*
X579500D01*
Y135500D01*
D02*
G37*
G36*
X510000Y133500D02*
X506500D01*
Y130000D01*
X506527D01*
X507544Y130273D01*
X508456Y130799D01*
X509201Y131544D01*
X509727Y132456D01*
X510000Y133473D01*
Y133500D01*
D02*
G37*
G36*
X505500D02*
X502000D01*
Y133473D01*
X502273Y132456D01*
X502799Y131544D01*
X503544Y130799D01*
X504456Y130273D01*
X505473Y130000D01*
X505500D01*
Y133500D01*
D02*
G37*
G36*
X206000D02*
X202500D01*
Y130000D01*
X202527D01*
X203544Y130273D01*
X204456Y130799D01*
X205201Y131544D01*
X205727Y132456D01*
X206000Y133473D01*
Y133500D01*
D02*
G37*
G36*
X201500D02*
X198000D01*
Y133473D01*
X198273Y132456D01*
X198799Y131544D01*
X199544Y130799D01*
X200456Y130273D01*
X201473Y130000D01*
X201500D01*
Y133500D01*
D02*
G37*
G36*
X167500Y131490D02*
Y128500D01*
X170490D01*
X170262Y129351D01*
X169801Y130149D01*
X169149Y130801D01*
X168351Y131262D01*
X167500Y131490D01*
D02*
G37*
G36*
X166500D02*
X165649Y131262D01*
X164851Y130801D01*
X164199Y130149D01*
X163739Y129351D01*
X163511Y128500D01*
X166500D01*
Y131490D01*
D02*
G37*
G36*
X549445Y170122D02*
X546602D01*
X543784Y169751D01*
X541038Y169015D01*
X538412Y167928D01*
X535950Y166506D01*
X533695Y164776D01*
X531685Y162766D01*
X529954Y160510D01*
X528533Y158049D01*
X527445Y155422D01*
X526710Y152677D01*
X526339Y149858D01*
Y147016D01*
X526710Y144197D01*
X527445Y141452D01*
X528533Y138825D01*
X529954Y136364D01*
X531685Y134108D01*
X533695Y132098D01*
X535950Y130368D01*
X538412Y128947D01*
X541038Y127859D01*
X543784Y127123D01*
X546602Y126752D01*
X549445D01*
X552263Y127123D01*
X555009Y127859D01*
X557635Y128947D01*
X560097Y130368D01*
X562352Y132098D01*
X564362Y134108D01*
X566093Y136364D01*
X567514Y138825D01*
X568602Y141452D01*
X569338Y144197D01*
X569709Y147016D01*
Y149858D01*
X569338Y152677D01*
X568602Y155422D01*
X567514Y158049D01*
X566093Y160510D01*
X564362Y162766D01*
X562352Y164776D01*
X560097Y166506D01*
X557635Y167928D01*
X555009Y169015D01*
X552263Y169751D01*
X549445Y170122D01*
D02*
G37*
G36*
X242358D02*
X239516D01*
X236697Y169751D01*
X233952Y169015D01*
X231325Y167928D01*
X228864Y166506D01*
X226608Y164776D01*
X224598Y162766D01*
X222868Y160510D01*
X221447Y158049D01*
X220359Y155422D01*
X219623Y152677D01*
X219252Y149858D01*
Y147016D01*
X219623Y144197D01*
X220359Y141452D01*
X221447Y138825D01*
X222868Y136364D01*
X224598Y134108D01*
X226608Y132098D01*
X228864Y130368D01*
X231325Y128947D01*
X233952Y127859D01*
X236697Y127123D01*
X239516Y126752D01*
X242358D01*
X245177Y127123D01*
X247922Y127859D01*
X250549Y128947D01*
X253010Y130368D01*
X255266Y132098D01*
X257276Y134108D01*
X259006Y136364D01*
X260427Y138825D01*
X261515Y141452D01*
X262251Y144197D01*
X262622Y147016D01*
Y149858D01*
X262251Y152677D01*
X261515Y155422D01*
X260427Y158049D01*
X259006Y160510D01*
X257276Y162766D01*
X255266Y164776D01*
X253010Y166506D01*
X250549Y167928D01*
X247922Y169015D01*
X245177Y169751D01*
X242358Y170122D01*
D02*
G37*
G36*
X170490Y127500D02*
X163511D01*
X163739Y126649D01*
X164199Y125851D01*
X164851Y125199D01*
X164905Y125168D01*
X165200Y124017D01*
Y122983D01*
X164905Y121832D01*
X164851Y121801D01*
X164199Y121149D01*
X163739Y120351D01*
X163511Y119500D01*
X170490D01*
X170262Y120351D01*
X169801Y121149D01*
X169149Y121801D01*
X169095Y121832D01*
X168800Y122983D01*
Y124017D01*
X169095Y125168D01*
X169149Y125199D01*
X169801Y125851D01*
X170262Y126649D01*
X170490Y127500D01*
D02*
G37*
G36*
X654527Y120000D02*
X654500D01*
Y116500D01*
X658000D01*
Y116527D01*
X657727Y117544D01*
X657201Y118456D01*
X656456Y119201D01*
X655544Y119727D01*
X654527Y120000D01*
D02*
G37*
G36*
X653500D02*
X653473D01*
X652456Y119727D01*
X651544Y119201D01*
X650799Y118456D01*
X650273Y117544D01*
X650000Y116527D01*
Y116500D01*
X653500D01*
Y120000D01*
D02*
G37*
G36*
X630527D02*
X630500D01*
Y116500D01*
X634000D01*
Y116527D01*
X633727Y117544D01*
X633201Y118456D01*
X632456Y119201D01*
X631544Y119727D01*
X630527Y120000D01*
D02*
G37*
G36*
X629500D02*
X629473D01*
X628456Y119727D01*
X627544Y119201D01*
X626799Y118456D01*
X626273Y117544D01*
X626000Y116527D01*
Y116500D01*
X629500D01*
Y120000D01*
D02*
G37*
G36*
X604527D02*
X604500D01*
Y116500D01*
X608000D01*
Y116527D01*
X607727Y117544D01*
X607201Y118456D01*
X606456Y119201D01*
X605544Y119727D01*
X604527Y120000D01*
D02*
G37*
G36*
X603500D02*
X603473D01*
X602456Y119727D01*
X601544Y119201D01*
X600799Y118456D01*
X600273Y117544D01*
X600000Y116527D01*
Y116500D01*
X603500D01*
Y120000D01*
D02*
G37*
G36*
X580527D02*
X580500D01*
Y116500D01*
X584000D01*
Y116527D01*
X583727Y117544D01*
X583201Y118456D01*
X582456Y119201D01*
X581544Y119727D01*
X580527Y120000D01*
D02*
G37*
G36*
X579500D02*
X579473D01*
X578456Y119727D01*
X577544Y119201D01*
X576799Y118456D01*
X576273Y117544D01*
X576000Y116527D01*
Y116500D01*
X579500D01*
Y120000D01*
D02*
G37*
G36*
X556527D02*
X556500D01*
Y116500D01*
X560000D01*
Y116527D01*
X559727Y117544D01*
X559201Y118456D01*
X558456Y119201D01*
X557544Y119727D01*
X556527Y120000D01*
D02*
G37*
G36*
X555500D02*
X555473D01*
X554456Y119727D01*
X553544Y119201D01*
X552799Y118456D01*
X552273Y117544D01*
X552000Y116527D01*
Y116500D01*
X555500D01*
Y120000D01*
D02*
G37*
G36*
X528527D02*
X528500D01*
Y116500D01*
X532000D01*
Y116527D01*
X531727Y117544D01*
X531201Y118456D01*
X530456Y119201D01*
X529544Y119727D01*
X528527Y120000D01*
D02*
G37*
G36*
X527500D02*
X527473D01*
X526456Y119727D01*
X525544Y119201D01*
X524799Y118456D01*
X524273Y117544D01*
X524000Y116527D01*
Y116500D01*
X527500D01*
Y120000D01*
D02*
G37*
G36*
X502527D02*
X502500D01*
Y116500D01*
X506000D01*
Y116527D01*
X505727Y117544D01*
X505201Y118456D01*
X504456Y119201D01*
X503544Y119727D01*
X502527Y120000D01*
D02*
G37*
G36*
X501500D02*
X501473D01*
X500456Y119727D01*
X499544Y119201D01*
X498799Y118456D01*
X498273Y117544D01*
X498000Y116527D01*
Y116500D01*
X501500D01*
Y120000D01*
D02*
G37*
G36*
X478527D02*
X478500D01*
Y116500D01*
X482000D01*
Y116527D01*
X481727Y117544D01*
X481201Y118456D01*
X480456Y119201D01*
X479544Y119727D01*
X478527Y120000D01*
D02*
G37*
G36*
X477500D02*
X477473D01*
X476456Y119727D01*
X475544Y119201D01*
X474799Y118456D01*
X474273Y117544D01*
X474000Y116527D01*
Y116500D01*
X477500D01*
Y120000D01*
D02*
G37*
G36*
X452527D02*
X452500D01*
Y116500D01*
X456000D01*
Y116527D01*
X455727Y117544D01*
X455201Y118456D01*
X454456Y119201D01*
X453544Y119727D01*
X452527Y120000D01*
D02*
G37*
G36*
X451500D02*
X451473D01*
X450456Y119727D01*
X449544Y119201D01*
X448799Y118456D01*
X448273Y117544D01*
X448000Y116527D01*
Y116500D01*
X451500D01*
Y120000D01*
D02*
G37*
G36*
X424527D02*
X424500D01*
Y116500D01*
X428000D01*
Y116527D01*
X427727Y117544D01*
X427201Y118456D01*
X426456Y119201D01*
X425544Y119727D01*
X424527Y120000D01*
D02*
G37*
G36*
X423500D02*
X423473D01*
X422456Y119727D01*
X421544Y119201D01*
X420799Y118456D01*
X420273Y117544D01*
X420000Y116527D01*
Y116500D01*
X423500D01*
Y120000D01*
D02*
G37*
G36*
X398527D02*
X398500D01*
Y116500D01*
X402000D01*
Y116527D01*
X401727Y117544D01*
X401201Y118456D01*
X400456Y119201D01*
X399544Y119727D01*
X398527Y120000D01*
D02*
G37*
G36*
X397500D02*
X397473D01*
X396456Y119727D01*
X395544Y119201D01*
X394799Y118456D01*
X394273Y117544D01*
X394000Y116527D01*
Y116500D01*
X397500D01*
Y120000D01*
D02*
G37*
G36*
X370527D02*
X370500D01*
Y116500D01*
X374000D01*
Y116527D01*
X373727Y117544D01*
X373201Y118456D01*
X372456Y119201D01*
X371544Y119727D01*
X370527Y120000D01*
D02*
G37*
G36*
X369500D02*
X369473D01*
X368456Y119727D01*
X367544Y119201D01*
X366799Y118456D01*
X366273Y117544D01*
X366000Y116527D01*
Y116500D01*
X369500D01*
Y120000D01*
D02*
G37*
G36*
X342527D02*
X342500D01*
Y116500D01*
X346000D01*
Y116527D01*
X345727Y117544D01*
X345201Y118456D01*
X344456Y119201D01*
X343544Y119727D01*
X342527Y120000D01*
D02*
G37*
G36*
X341500D02*
X341473D01*
X340456Y119727D01*
X339544Y119201D01*
X338799Y118456D01*
X338273Y117544D01*
X338000Y116527D01*
Y116500D01*
X341500D01*
Y120000D01*
D02*
G37*
G36*
X314527D02*
X314500D01*
Y116500D01*
X318000D01*
Y116527D01*
X317727Y117544D01*
X317201Y118456D01*
X316456Y119201D01*
X315544Y119727D01*
X314527Y120000D01*
D02*
G37*
G36*
X313500D02*
X313473D01*
X312456Y119727D01*
X311544Y119201D01*
X310799Y118456D01*
X310273Y117544D01*
X310000Y116527D01*
Y116500D01*
X313500D01*
Y120000D01*
D02*
G37*
G36*
X286527D02*
X286500D01*
Y116500D01*
X290000D01*
Y116527D01*
X289727Y117544D01*
X289201Y118456D01*
X288456Y119201D01*
X287544Y119727D01*
X286527Y120000D01*
D02*
G37*
G36*
X285500D02*
X285473D01*
X284456Y119727D01*
X283544Y119201D01*
X282799Y118456D01*
X282273Y117544D01*
X282000Y116527D01*
Y116500D01*
X285500D01*
Y120000D01*
D02*
G37*
G36*
X260527D02*
X260500D01*
Y116500D01*
X264000D01*
Y116527D01*
X263727Y117544D01*
X263201Y118456D01*
X262456Y119201D01*
X261544Y119727D01*
X260527Y120000D01*
D02*
G37*
G36*
X259500D02*
X259473D01*
X258456Y119727D01*
X257544Y119201D01*
X256799Y118456D01*
X256273Y117544D01*
X256000Y116527D01*
Y116500D01*
X259500D01*
Y120000D01*
D02*
G37*
G36*
X238527D02*
X238500D01*
Y116500D01*
X242000D01*
Y116527D01*
X241727Y117544D01*
X241201Y118456D01*
X240456Y119201D01*
X239544Y119727D01*
X238527Y120000D01*
D02*
G37*
G36*
X237500D02*
X237473D01*
X236456Y119727D01*
X235544Y119201D01*
X234799Y118456D01*
X234273Y117544D01*
X234000Y116527D01*
Y116500D01*
X237500D01*
Y120000D01*
D02*
G37*
G36*
X218527D02*
X218500D01*
Y116500D01*
X222000D01*
Y116527D01*
X221727Y117544D01*
X221201Y118456D01*
X220456Y119201D01*
X219544Y119727D01*
X218527Y120000D01*
D02*
G37*
G36*
X217500D02*
X217473D01*
X216456Y119727D01*
X215544Y119201D01*
X214799Y118456D01*
X214273Y117544D01*
X214000Y116527D01*
Y116500D01*
X217500D01*
Y120000D01*
D02*
G37*
G36*
X170490Y118500D02*
X167500D01*
Y115510D01*
X168351Y115738D01*
X169149Y116199D01*
X169801Y116851D01*
X170262Y117649D01*
X170490Y118500D01*
D02*
G37*
G36*
X166500D02*
X163511D01*
X163739Y117649D01*
X164199Y116851D01*
X164851Y116199D01*
X165649Y115738D01*
X166500Y115510D01*
Y118500D01*
D02*
G37*
G36*
X658000Y115500D02*
X654500D01*
Y112000D01*
X654527D01*
X655544Y112273D01*
X656456Y112799D01*
X657201Y113544D01*
X657727Y114456D01*
X658000Y115473D01*
Y115500D01*
D02*
G37*
G36*
X653500D02*
X650000D01*
Y115473D01*
X650273Y114456D01*
X650799Y113544D01*
X651544Y112799D01*
X652456Y112273D01*
X653473Y112000D01*
X653500D01*
Y115500D01*
D02*
G37*
G36*
X634000D02*
X630500D01*
Y112000D01*
X630527D01*
X631544Y112273D01*
X632456Y112799D01*
X633201Y113544D01*
X633727Y114456D01*
X634000Y115473D01*
Y115500D01*
D02*
G37*
G36*
X629500D02*
X626000D01*
Y115473D01*
X626273Y114456D01*
X626799Y113544D01*
X627544Y112799D01*
X628456Y112273D01*
X629473Y112000D01*
X629500D01*
Y115500D01*
D02*
G37*
G36*
X608000D02*
X604500D01*
Y112000D01*
X604527D01*
X605544Y112273D01*
X606456Y112799D01*
X607201Y113544D01*
X607727Y114456D01*
X608000Y115473D01*
Y115500D01*
D02*
G37*
G36*
X603500D02*
X600000D01*
Y115473D01*
X600273Y114456D01*
X600799Y113544D01*
X601544Y112799D01*
X602456Y112273D01*
X603473Y112000D01*
X603500D01*
Y115500D01*
D02*
G37*
G36*
X584000D02*
X580500D01*
Y112000D01*
X580527D01*
X581544Y112273D01*
X582456Y112799D01*
X583201Y113544D01*
X583727Y114456D01*
X584000Y115473D01*
Y115500D01*
D02*
G37*
G36*
X579500D02*
X576000D01*
Y115473D01*
X576273Y114456D01*
X576799Y113544D01*
X577544Y112799D01*
X578456Y112273D01*
X579473Y112000D01*
X579500D01*
Y115500D01*
D02*
G37*
G36*
X560000D02*
X556500D01*
Y112000D01*
X556527D01*
X557544Y112273D01*
X558456Y112799D01*
X559201Y113544D01*
X559727Y114456D01*
X560000Y115473D01*
Y115500D01*
D02*
G37*
G36*
X555500D02*
X552000D01*
Y115473D01*
X552273Y114456D01*
X552799Y113544D01*
X553544Y112799D01*
X554456Y112273D01*
X555473Y112000D01*
X555500D01*
Y115500D01*
D02*
G37*
G36*
X532000D02*
X528500D01*
Y112000D01*
X528527D01*
X529544Y112273D01*
X530456Y112799D01*
X531201Y113544D01*
X531727Y114456D01*
X532000Y115473D01*
Y115500D01*
D02*
G37*
G36*
X527500D02*
X524000D01*
Y115473D01*
X524273Y114456D01*
X524799Y113544D01*
X525544Y112799D01*
X526456Y112273D01*
X527473Y112000D01*
X527500D01*
Y115500D01*
D02*
G37*
G36*
X506000D02*
X502500D01*
Y112000D01*
X502527D01*
X503544Y112273D01*
X504456Y112799D01*
X505201Y113544D01*
X505727Y114456D01*
X506000Y115473D01*
Y115500D01*
D02*
G37*
G36*
X501500D02*
X498000D01*
Y115473D01*
X498273Y114456D01*
X498799Y113544D01*
X499544Y112799D01*
X500456Y112273D01*
X501473Y112000D01*
X501500D01*
Y115500D01*
D02*
G37*
G36*
X482000D02*
X478500D01*
Y112000D01*
X478527D01*
X479544Y112273D01*
X480456Y112799D01*
X481201Y113544D01*
X481727Y114456D01*
X482000Y115473D01*
Y115500D01*
D02*
G37*
G36*
X477500D02*
X474000D01*
Y115473D01*
X474273Y114456D01*
X474799Y113544D01*
X475544Y112799D01*
X476456Y112273D01*
X477473Y112000D01*
X477500D01*
Y115500D01*
D02*
G37*
G36*
X456000D02*
X452500D01*
Y112000D01*
X452527D01*
X453544Y112273D01*
X454456Y112799D01*
X455201Y113544D01*
X455727Y114456D01*
X456000Y115473D01*
Y115500D01*
D02*
G37*
G36*
X451500D02*
X448000D01*
Y115473D01*
X448273Y114456D01*
X448799Y113544D01*
X449544Y112799D01*
X450456Y112273D01*
X451473Y112000D01*
X451500D01*
Y115500D01*
D02*
G37*
G36*
X428000D02*
X424500D01*
Y112000D01*
X424527D01*
X425544Y112273D01*
X426456Y112799D01*
X427201Y113544D01*
X427727Y114456D01*
X428000Y115473D01*
Y115500D01*
D02*
G37*
G36*
X423500D02*
X420000D01*
Y115473D01*
X420273Y114456D01*
X420799Y113544D01*
X421544Y112799D01*
X422456Y112273D01*
X423473Y112000D01*
X423500D01*
Y115500D01*
D02*
G37*
G36*
X402000D02*
X398500D01*
Y112000D01*
X398527D01*
X399544Y112273D01*
X400456Y112799D01*
X401201Y113544D01*
X401727Y114456D01*
X402000Y115473D01*
Y115500D01*
D02*
G37*
G36*
X397500D02*
X394000D01*
Y115473D01*
X394273Y114456D01*
X394799Y113544D01*
X395544Y112799D01*
X396456Y112273D01*
X397473Y112000D01*
X397500D01*
Y115500D01*
D02*
G37*
G36*
X374000D02*
X370500D01*
Y112000D01*
X370527D01*
X371544Y112273D01*
X372456Y112799D01*
X373201Y113544D01*
X373727Y114456D01*
X374000Y115473D01*
Y115500D01*
D02*
G37*
G36*
X369500D02*
X366000D01*
Y115473D01*
X366273Y114456D01*
X366799Y113544D01*
X367544Y112799D01*
X368456Y112273D01*
X369473Y112000D01*
X369500D01*
Y115500D01*
D02*
G37*
G36*
X346000D02*
X342500D01*
Y112000D01*
X342527D01*
X343544Y112273D01*
X344456Y112799D01*
X345201Y113544D01*
X345727Y114456D01*
X346000Y115473D01*
Y115500D01*
D02*
G37*
G36*
X341500D02*
X338000D01*
Y115473D01*
X338273Y114456D01*
X338799Y113544D01*
X339544Y112799D01*
X340456Y112273D01*
X341473Y112000D01*
X341500D01*
Y115500D01*
D02*
G37*
G36*
X318000D02*
X314500D01*
Y112000D01*
X314527D01*
X315544Y112273D01*
X316456Y112799D01*
X317201Y113544D01*
X317727Y114456D01*
X318000Y115473D01*
Y115500D01*
D02*
G37*
G36*
X313500D02*
X310000D01*
Y115473D01*
X310273Y114456D01*
X310799Y113544D01*
X311544Y112799D01*
X312456Y112273D01*
X313473Y112000D01*
X313500D01*
Y115500D01*
D02*
G37*
G36*
X290000D02*
X286500D01*
Y112000D01*
X286527D01*
X287544Y112273D01*
X288456Y112799D01*
X289201Y113544D01*
X289727Y114456D01*
X290000Y115473D01*
Y115500D01*
D02*
G37*
G36*
X285500D02*
X282000D01*
Y115473D01*
X282273Y114456D01*
X282799Y113544D01*
X283544Y112799D01*
X284456Y112273D01*
X285473Y112000D01*
X285500D01*
Y115500D01*
D02*
G37*
G36*
X264000D02*
X260500D01*
Y112000D01*
X260527D01*
X261544Y112273D01*
X262456Y112799D01*
X263201Y113544D01*
X263727Y114456D01*
X264000Y115473D01*
Y115500D01*
D02*
G37*
G36*
X259500D02*
X256000D01*
Y115473D01*
X256273Y114456D01*
X256799Y113544D01*
X257544Y112799D01*
X258456Y112273D01*
X259473Y112000D01*
X259500D01*
Y115500D01*
D02*
G37*
G36*
X242000D02*
X238500D01*
Y112000D01*
X238527D01*
X239544Y112273D01*
X240456Y112799D01*
X241201Y113544D01*
X241727Y114456D01*
X242000Y115473D01*
Y115500D01*
D02*
G37*
G36*
X237500D02*
X234000D01*
Y115473D01*
X234273Y114456D01*
X234799Y113544D01*
X235544Y112799D01*
X236456Y112273D01*
X237473Y112000D01*
X237500D01*
Y115500D01*
D02*
G37*
G36*
X222000D02*
X218500D01*
Y112000D01*
X218527D01*
X219544Y112273D01*
X220456Y112799D01*
X221201Y113544D01*
X221727Y114456D01*
X222000Y115473D01*
Y115500D01*
D02*
G37*
G36*
X217500D02*
X214000D01*
Y115473D01*
X214273Y114456D01*
X214799Y113544D01*
X215544Y112799D01*
X216456Y112273D01*
X217473Y112000D01*
X217500D01*
Y115500D01*
D02*
G37*
G36*
X623748Y364588D02*
Y361599D01*
X626737D01*
X626510Y362450D01*
X626049Y363248D01*
X625397Y363900D01*
X624599Y364360D01*
X623748Y364588D01*
D02*
G37*
G36*
X626737Y360599D02*
X623748D01*
Y357609D01*
X624599Y357837D01*
X625397Y358298D01*
X626049Y358950D01*
X626510Y359748D01*
X626737Y360599D01*
D02*
G37*
G36*
X562500Y327489D02*
Y324500D01*
X565489D01*
X565262Y325351D01*
X564801Y326149D01*
X564149Y326801D01*
X563351Y327261D01*
X562500Y327489D01*
D02*
G37*
G36*
X569500Y311490D02*
Y308500D01*
X572490D01*
X572261Y309351D01*
X571801Y310149D01*
X571149Y310801D01*
X570351Y311262D01*
X569500Y311490D01*
D02*
G37*
G36*
X522500Y264490D02*
Y261500D01*
X525490D01*
X525261Y262351D01*
X524801Y263149D01*
X524149Y263801D01*
X523351Y264262D01*
X522500Y264490D01*
D02*
G37*
G36*
X521500D02*
X520649Y264262D01*
X519851Y263801D01*
X519199Y263149D01*
X518739Y262351D01*
X518510Y261500D01*
X521500D01*
Y264490D01*
D02*
G37*
G36*
X525490Y260500D02*
X522500D01*
Y257510D01*
X523351Y257738D01*
X524149Y258199D01*
X524801Y258851D01*
X525261Y259649D01*
X525490Y260500D01*
D02*
G37*
G36*
X521500D02*
X518510D01*
X518739Y259649D01*
X519199Y258851D01*
X519851Y258199D01*
X520649Y257738D01*
X521500Y257510D01*
Y260500D01*
D02*
G37*
G36*
X603500Y254990D02*
Y252000D01*
X606490D01*
X606261Y252851D01*
X605801Y253649D01*
X605149Y254301D01*
X604351Y254762D01*
X603500Y254990D01*
D02*
G37*
G36*
X602500D02*
X601649Y254762D01*
X600851Y254301D01*
X600199Y253649D01*
X599739Y252851D01*
X599510Y252000D01*
X602500D01*
Y254990D01*
D02*
G37*
G36*
X606490Y251000D02*
X603500D01*
Y248010D01*
X604351Y248238D01*
X605149Y248699D01*
X605801Y249351D01*
X606261Y250149D01*
X606490Y251000D01*
D02*
G37*
G36*
X602500D02*
X599510D01*
X599739Y250149D01*
X600199Y249351D01*
X600851Y248699D01*
X601649Y248238D01*
X602500Y248010D01*
Y251000D01*
D02*
G37*
G36*
X212591Y230000D02*
X212500D01*
Y224500D01*
X218000D01*
Y224591D01*
X217769Y225750D01*
X217317Y226842D01*
X216660Y227825D01*
X215825Y228660D01*
X214842Y229317D01*
X213750Y229769D01*
X212591Y230000D01*
D02*
G37*
G36*
X218000Y223500D02*
X212500D01*
Y218000D01*
X212591D01*
X213750Y218231D01*
X214842Y218683D01*
X215825Y219339D01*
X216660Y220175D01*
X217317Y221158D01*
X217769Y222250D01*
X218000Y223409D01*
Y223500D01*
D02*
G37*
G36*
X605328Y216317D02*
Y213328D01*
X608317D01*
X608089Y214179D01*
X607628Y214977D01*
X606977Y215628D01*
X606179Y216089D01*
X605328Y216317D01*
D02*
G37*
G36*
X604328D02*
X603477Y216089D01*
X602679Y215628D01*
X602027Y214977D01*
X601566Y214179D01*
X601338Y213328D01*
X604328D01*
Y216317D01*
D02*
G37*
G36*
X608317Y212328D02*
X605328D01*
Y209338D01*
X606179Y209566D01*
X606977Y210027D01*
X607628Y210679D01*
X608089Y211477D01*
X608317Y212328D01*
D02*
G37*
G36*
X604328D02*
X601338D01*
X601566Y211477D01*
X602027Y210679D01*
X602679Y210027D01*
X603477Y209566D01*
X604328Y209338D01*
Y212328D01*
D02*
G37*
G36*
X488500Y175489D02*
X487649Y175261D01*
X486851Y174801D01*
X486199Y174149D01*
X485766Y173399D01*
X485500Y173358D01*
X485234Y173399D01*
X484801Y174149D01*
X484149Y174801D01*
X483351Y175261D01*
X482500Y175489D01*
Y172000D01*
Y168510D01*
X483351Y168738D01*
X484149Y169199D01*
X484801Y169851D01*
X485234Y170601D01*
X485500Y170642D01*
X485766Y170601D01*
X486199Y169851D01*
X486851Y169199D01*
X487649Y168738D01*
X488500Y168510D01*
Y172000D01*
Y175489D01*
D02*
G37*
G36*
X489500D02*
Y172500D01*
X492489D01*
X492262Y173351D01*
X491801Y174149D01*
X491149Y174801D01*
X490351Y175261D01*
X489500Y175489D01*
D02*
G37*
G36*
X492489Y171500D02*
X489500D01*
Y168510D01*
X490351Y168738D01*
X491149Y169199D01*
X491801Y169851D01*
X492262Y170649D01*
X492489Y171500D01*
D02*
G37*
G36*
X467662Y161328D02*
X464672D01*
Y158338D01*
X465523Y158566D01*
X466321Y159027D01*
X466973Y159679D01*
X467434Y160477D01*
X467662Y161328D01*
D02*
G37*
G36*
X463672D02*
X460683D01*
X460911Y160477D01*
X461372Y159679D01*
X462023Y159027D01*
X462821Y158566D01*
X463672Y158338D01*
Y161328D01*
D02*
G37*
G36*
X458748Y156737D02*
Y153748D01*
X461737D01*
X461510Y154599D01*
X461049Y155397D01*
X460397Y156049D01*
X459599Y156509D01*
X458748Y156737D01*
D02*
G37*
G36*
X457748D02*
X456897Y156509D01*
X456099Y156049D01*
X455447Y155397D01*
X454986Y154599D01*
X454759Y153748D01*
X457748D01*
Y156737D01*
D02*
G37*
G36*
X461737Y152748D02*
X458748D01*
Y149759D01*
X459599Y149987D01*
X460397Y150447D01*
X461049Y151099D01*
X461510Y151897D01*
X461737Y152748D01*
D02*
G37*
G36*
X457748D02*
X454759D01*
X454986Y151897D01*
X455447Y151099D01*
X456099Y150447D01*
X456897Y149987D01*
X457748Y149759D01*
Y152748D01*
D02*
G37*
G36*
X600807Y151182D02*
Y148193D01*
X603797D01*
X603569Y149044D01*
X603108Y149842D01*
X602456Y150494D01*
X601658Y150954D01*
X600807Y151182D01*
D02*
G37*
G36*
X599807D02*
X598956Y150954D01*
X598158Y150494D01*
X597506Y149842D01*
X597046Y149044D01*
X596818Y148193D01*
X599807D01*
Y151182D01*
D02*
G37*
G36*
X603797Y147193D02*
X600807D01*
Y144203D01*
X601658Y144431D01*
X602456Y144892D01*
X603108Y145544D01*
X603569Y146342D01*
X603797Y147193D01*
D02*
G37*
G36*
X599807D02*
X596818D01*
X597046Y146342D01*
X597506Y145544D01*
X598158Y144892D01*
X598956Y144431D01*
X599807Y144203D01*
Y147193D01*
D02*
G37*
G36*
X471500Y142490D02*
Y139500D01*
X474489D01*
X474262Y140351D01*
X473801Y141149D01*
X473149Y141801D01*
X472351Y142262D01*
X471500Y142490D01*
D02*
G37*
G36*
X470500D02*
X469649Y142262D01*
X468851Y141801D01*
X468199Y141149D01*
X467738Y140351D01*
X467511Y139500D01*
X470500D01*
Y142490D01*
D02*
G37*
G36*
X474489Y138500D02*
X471500D01*
Y135511D01*
X472351Y135739D01*
X473149Y136199D01*
X473801Y136851D01*
X474262Y137649D01*
X474489Y138500D01*
D02*
G37*
G36*
X470500D02*
X467511D01*
X467738Y137649D01*
X468199Y136851D01*
X468851Y136199D01*
X469649Y135739D01*
X470500Y135511D01*
Y138500D01*
D02*
G37*
%LPD*%
D44*
X401071Y375000D02*
D03*
D45*
X384929D02*
D03*
D48*
X681000Y238000D02*
D03*
D49*
Y248000D02*
D03*
Y258000D02*
D03*
X671000Y238000D02*
D03*
Y248000D02*
D03*
Y258000D02*
D03*
D53*
X172181Y396921D02*
D03*
X193181D02*
D03*
D54*
X172181Y387079D02*
D03*
X193181D02*
D03*
D60*
X456000Y278504D02*
D03*
Y300000D02*
D03*
D61*
Y321496D02*
D03*
D62*
X603000Y244071D02*
Y251500D01*
X604828Y212828D02*
Y242243D01*
X603000Y244071D02*
X604828Y242243D01*
X203000Y340000D02*
X272000Y409000D01*
X471000D01*
X522000Y211000D02*
X603000D01*
X604828Y212828D01*
X286000Y211000D02*
X522000D01*
X212000Y224000D02*
X273000D01*
X286000Y211000D01*
X461984Y480984D02*
X471000Y471969D01*
Y409000D02*
Y471969D01*
X522000Y211000D02*
Y261000D01*
D64*
X189000Y233000D02*
X341000Y385000D01*
X189000Y158000D02*
X191000Y156000D01*
X189000Y158000D02*
Y233000D01*
X570571Y308000D02*
X591500Y287071D01*
X569000Y308000D02*
X570571D01*
X591500Y285500D02*
X603000Y274000D01*
X591500Y285500D02*
Y287071D01*
X564000Y339000D02*
X584000D01*
X511000Y392000D02*
X564000Y339000D01*
X384000Y392000D02*
X511000D01*
X593000Y323000D02*
Y330000D01*
X584000Y339000D02*
X593000Y330000D01*
X569000Y308000D02*
Y317000D01*
X562000Y324000D02*
X569000Y317000D01*
X646000Y248000D02*
X671000D01*
X603000Y244071D02*
X642071D01*
X646000Y248000D01*
X600307Y211307D02*
X601828Y212828D01*
X600307Y147693D02*
Y211307D01*
X601828Y212828D02*
X604828D01*
X605000Y143000D02*
X640000D01*
X600307Y147693D02*
X605000Y143000D01*
X640000D02*
X648000Y151000D01*
X341000Y385000D02*
X377000D01*
X503000Y377000D02*
X510828Y369172D01*
Y312828D02*
Y369172D01*
X377000Y385000D02*
X384000Y392000D01*
X489000Y172000D02*
Y208000D01*
X458248Y155903D02*
X464172Y161828D01*
X458248Y153248D02*
Y155903D01*
Y151752D02*
Y153248D01*
Y151752D02*
X471000Y139000D01*
X471828Y161828D02*
X482000Y172000D01*
X464172Y161828D02*
X471828D01*
X482000Y172000D02*
X489000D01*
D72*
X139000Y263000D02*
D03*
Y273000D02*
D03*
Y283000D02*
D03*
D74*
X240937Y455524D02*
D03*
Y148437D02*
D03*
X548024Y455524D02*
D03*
Y148437D02*
D03*
D75*
X663000Y308000D02*
D03*
Y424500D02*
D03*
X135000Y449000D02*
D03*
D76*
X663000Y333000D02*
D03*
Y449500D02*
D03*
X135000Y424000D02*
D03*
D78*
X633252Y488221D02*
D03*
X614748Y442945D02*
D03*
Y415386D02*
D03*
Y488221D02*
D03*
D79*
X627881Y177816D02*
D03*
X637881Y162816D02*
D03*
X627881Y167816D02*
D03*
X637881Y172816D02*
D03*
Y182816D02*
D03*
X627881Y187816D02*
D03*
X637881Y152816D02*
D03*
X627881Y157816D02*
D03*
D80*
X663000Y193000D02*
D03*
X663500Y148000D02*
D03*
X678576Y120076D02*
D03*
Y482281D02*
D03*
X119521Y120076D02*
D03*
Y482281D02*
D03*
D81*
X130000Y326472D02*
D03*
Y385528D02*
D03*
D82*
X252000Y416000D02*
D03*
X200000Y444000D02*
D03*
X228000Y414000D02*
D03*
X204000Y376000D02*
D03*
X160000D02*
D03*
X181485Y378056D02*
D03*
X182000Y324000D02*
D03*
X176000Y292000D02*
D03*
X166000Y242000D02*
D03*
X178000Y244000D02*
D03*
X172000Y270000D02*
D03*
X194000Y272000D02*
D03*
X220000Y288000D02*
D03*
X210000Y278000D02*
D03*
X216000Y304000D02*
D03*
Y322000D02*
D03*
X200000Y294000D02*
D03*
X184000Y282000D02*
D03*
X666834Y226638D02*
D03*
X635808Y220052D02*
D03*
X664000Y168000D02*
D03*
X634000Y204000D02*
D03*
X580000Y136000D02*
D03*
Y158000D02*
D03*
X440000Y142000D02*
D03*
X438000Y162000D02*
D03*
X452000Y176000D02*
D03*
X506000Y134000D02*
D03*
X514000Y156000D02*
D03*
X348000Y374000D02*
D03*
X322000Y354000D02*
D03*
X320000Y318000D02*
D03*
Y286000D02*
D03*
Y260000D02*
D03*
X682000Y192000D02*
D03*
Y164000D02*
D03*
Y142000D02*
D03*
X654000Y116000D02*
D03*
X630000D02*
D03*
X604000D02*
D03*
X580000D02*
D03*
X556000D02*
D03*
X528000D02*
D03*
X502000D02*
D03*
X478000D02*
D03*
X452000D02*
D03*
X424000D02*
D03*
X398000D02*
D03*
X370000D02*
D03*
X342000D02*
D03*
X314000D02*
D03*
X286000D02*
D03*
X260000D02*
D03*
X238000D02*
D03*
X218000D02*
D03*
X202000Y150000D02*
D03*
Y134000D02*
D03*
X170000Y170000D02*
D03*
X152000D02*
D03*
X116000Y160000D02*
D03*
X122000Y216000D02*
D03*
X124000Y252000D02*
D03*
X116000Y274000D02*
D03*
Y296000D02*
D03*
Y318000D02*
D03*
Y344000D02*
D03*
Y368000D02*
D03*
Y392000D02*
D03*
Y416000D02*
D03*
Y440000D02*
D03*
Y460000D02*
D03*
X138000Y480000D02*
D03*
X160000D02*
D03*
X188000D02*
D03*
X214000D02*
D03*
X258000D02*
D03*
X290000D02*
D03*
X316000D02*
D03*
X344000D02*
D03*
X372000D02*
D03*
X404000D02*
D03*
X436000D02*
D03*
X514000Y432000D02*
D03*
X484000Y428000D02*
D03*
X502000Y410000D02*
D03*
X522000Y400000D02*
D03*
X532000Y412000D02*
D03*
X544000Y426000D02*
D03*
X528000Y472000D02*
D03*
X578000Y450000D02*
D03*
X652000Y476000D02*
D03*
X642000Y448000D02*
D03*
X676000D02*
D03*
X678000Y424000D02*
D03*
X618000Y400000D02*
D03*
X652000Y398000D02*
D03*
X678000D02*
D03*
X666000Y380000D02*
D03*
X636000Y350000D02*
D03*
X616000Y344000D02*
D03*
X602000Y334000D02*
D03*
X612000Y318000D02*
D03*
X646000D02*
D03*
X678000Y328000D02*
D03*
Y308000D02*
D03*
X636000Y284000D02*
D03*
X656000Y264000D02*
D03*
X562000Y250000D02*
D03*
X534000Y272000D02*
D03*
X498000Y252000D02*
D03*
Y276000D02*
D03*
X478000Y264000D02*
D03*
X440000Y300000D02*
D03*
Y322000D02*
D03*
X470000Y340000D02*
D03*
X450000D02*
D03*
Y364000D02*
D03*
X482000D02*
D03*
X601000Y461000D02*
D03*
D83*
X575000Y277000D02*
D03*
X588500Y278000D02*
D03*
X495000Y156000D02*
D03*
X500000Y149000D02*
D03*
X606000Y298000D02*
D03*
X616998Y301000D02*
D03*
X580000Y231000D02*
D03*
X586500Y240500D02*
D03*
X574000Y249000D02*
D03*
X578500Y283000D02*
D03*
X586500Y285000D02*
D03*
X591000Y274000D02*
D03*
X586000Y270626D02*
D03*
X599000Y360000D02*
D03*
X591000Y399000D02*
D03*
X590000Y231000D02*
D03*
X546000Y349000D02*
D03*
X262893Y285107D02*
D03*
X579000Y251091D02*
D03*
X603000Y356000D02*
D03*
X542000Y323000D02*
D03*
X531000Y326000D02*
D03*
X626000Y276000D02*
D03*
X554090Y292000D02*
D03*
X590126Y267126D02*
D03*
X653445Y219491D02*
D03*
X601634Y290790D02*
D03*
X528000Y295000D02*
D03*
X599500Y395500D02*
D03*
D84*
X198685Y181315D02*
D03*
X122000Y202000D02*
D03*
X203000Y340000D02*
D03*
X212000Y224000D02*
D03*
X468724Y233724D02*
D03*
X124158Y237842D02*
D03*
X169000Y256000D02*
D03*
X197000Y313000D02*
D03*
X175000Y467000D02*
D03*
D85*
X587000Y326000D02*
D03*
X603000Y251500D02*
D03*
X579000Y197000D02*
D03*
X606000Y397000D02*
D03*
X482000Y330000D02*
D03*
X477000Y288000D02*
D03*
X167000Y119000D02*
D03*
Y128000D02*
D03*
X155000Y271000D02*
D03*
X164000Y283000D02*
D03*
X564000Y351000D02*
D03*
X594000Y346000D02*
D03*
X560000Y312000D02*
D03*
X648000Y151000D02*
D03*
X191000Y156000D02*
D03*
X182000Y161000D02*
D03*
X239000Y307000D02*
D03*
X461984Y480984D02*
D03*
X471000Y409000D02*
D03*
X503000Y377000D02*
D03*
X510828Y312828D02*
D03*
X377000Y385000D02*
D03*
X593000Y323000D02*
D03*
X623248Y361099D02*
D03*
X562000Y324000D02*
D03*
X522000Y261000D02*
D03*
X600307Y147693D02*
D03*
X604828Y212828D02*
D03*
X489000Y172000D02*
D03*
X482000D02*
D03*
X464172Y161828D02*
D03*
X458248Y153248D02*
D03*
X471000Y139000D02*
D03*
X569000Y308000D02*
D03*
X471000Y175000D02*
D03*
X495000Y144000D02*
D03*
X617000Y206000D02*
D03*
X616693Y191307D02*
D03*
X408000Y385000D02*
D03*
X602000Y306000D02*
D03*
X601000Y315000D02*
D03*
X616000Y257000D02*
D03*
X520000Y308000D02*
D03*
X523000Y320000D02*
D03*
X499000Y341000D02*
D03*
X469000Y352000D02*
D03*
X418000Y466000D02*
D03*
X576000Y375000D02*
D03*
Y367000D02*
D03*
X594134Y489134D02*
D03*
X631000Y390000D02*
D03*
X679307Y346307D02*
D03*
X642000Y297000D02*
D03*
X679307Y292693D02*
D03*
X686000Y217000D02*
D03*
X648000Y192000D02*
D03*
X160000Y144000D02*
D03*
X138000Y168000D02*
D03*
X170000Y233000D02*
D03*
X211000Y411000D02*
D03*
D86*
X603000Y251500D02*
Y274000D01*
X623248Y294248D01*
Y361099D01*
M02*
