G04*
G04 #@! TF.GenerationSoftware,Altium Limited,Altium Designer,24.6.1 (21)*
G04*
G04 Layer_Color=128*
%FSLAX25Y25*%
%MOIN*%
G70*
G04*
G04 #@! TF.SameCoordinates,65BBE5AF-797C-4DEE-A542-627196F68B12*
G04*
G04*
G04 #@! TF.FilePolarity,Positive*
G04*
G01*
G75*
%ADD15C,0.00500*%
D15*
X399398Y375000D02*
X402744D01*
X401071Y373327D02*
Y376673D01*
X383256Y375000D02*
X386602D01*
X384929Y373327D02*
Y376673D01*
X137701Y263000D02*
X140299D01*
X139000Y261701D02*
Y264299D01*
X137701Y273000D02*
X140299D01*
X139000Y271701D02*
Y274299D01*
X137701Y283000D02*
X140299D01*
X139000Y281701D02*
Y284299D01*
X678992Y238000D02*
X683008D01*
X681000Y235992D02*
Y240008D01*
X678992Y248000D02*
X683008D01*
X681000Y245992D02*
Y250008D01*
X678992Y258000D02*
X683008D01*
X681000Y255992D02*
Y260008D01*
X668992Y238000D02*
X673008D01*
X671000Y235992D02*
Y240008D01*
X668992Y248000D02*
X673008D01*
X671000Y245992D02*
Y250008D01*
X668992Y258000D02*
X673008D01*
X671000Y255992D02*
Y260008D01*
X231095Y455524D02*
X250780D01*
X240937Y445681D02*
Y465366D01*
X231095Y148437D02*
X250780D01*
X240937Y138594D02*
Y158280D01*
X538181Y455524D02*
X557866D01*
X548024Y445681D02*
Y465366D01*
X538181Y148437D02*
X557866D01*
X548024Y138594D02*
Y158280D01*
X660441Y308000D02*
X665559D01*
X663000Y305441D02*
Y310559D01*
X660441Y333000D02*
X665559D01*
X663000Y330441D02*
Y335559D01*
X660441Y424500D02*
X665559D01*
X663000Y421941D02*
Y427059D01*
X660441Y449500D02*
X665559D01*
X663000Y446941D02*
Y452059D01*
X170409Y396921D02*
X173953D01*
X172181Y395150D02*
Y398693D01*
X170409Y387079D02*
X173953D01*
X172181Y385307D02*
Y388850D01*
X631087Y488221D02*
X635417D01*
X633252Y486055D02*
Y490386D01*
X612583Y442945D02*
X616913D01*
X614748Y440779D02*
Y445110D01*
X612583Y415386D02*
X616913D01*
X614748Y413221D02*
Y417551D01*
X612583Y488221D02*
X616913D01*
X614748Y486055D02*
Y490386D01*
X191409Y396921D02*
X194953D01*
X193181Y395150D02*
Y398693D01*
X191409Y387079D02*
X194953D01*
X193181Y385307D02*
Y388850D01*
X132441Y424000D02*
X137559D01*
X135000Y421441D02*
Y426559D01*
X132441Y449000D02*
X137559D01*
X135000Y446441D02*
Y451559D01*
X625913Y177816D02*
X629849D01*
X627881Y175848D02*
Y179785D01*
X656110Y193000D02*
X669890D01*
X663000Y186110D02*
Y199890D01*
X656610Y148000D02*
X670390D01*
X663500Y141110D02*
Y154890D01*
X635913Y162816D02*
X639850D01*
X637881Y160848D02*
Y164785D01*
X625913Y167816D02*
X629849D01*
X627881Y165848D02*
Y169785D01*
X635913Y172816D02*
X639850D01*
X637881Y170848D02*
Y174785D01*
X635913Y182816D02*
X639850D01*
X637881Y180848D02*
Y184785D01*
X625913Y187816D02*
X629849D01*
X627881Y185848D02*
Y189785D01*
X635913Y152816D02*
X639850D01*
X637881Y150848D02*
Y154785D01*
X625913Y157816D02*
X629849D01*
X627881Y155848D02*
Y159785D01*
X127047Y326472D02*
X132953D01*
X130000Y323520D02*
Y329425D01*
X127047Y385528D02*
X132953D01*
X130000Y382575D02*
Y388480D01*
X452457Y278504D02*
X459543D01*
X456000Y274961D02*
Y282047D01*
X452457Y300000D02*
X459543D01*
X456000Y296457D02*
Y303543D01*
X452457Y321496D02*
X459543D01*
X456000Y317953D02*
Y325039D01*
X672277Y120076D02*
X684875D01*
X678576Y113777D02*
Y126375D01*
X672277Y482281D02*
X684875D01*
X678576Y475982D02*
Y488580D01*
X113222Y120076D02*
X125820D01*
X119521Y113777D02*
Y126375D01*
X113222Y482281D02*
X125820D01*
X119521Y475982D02*
Y488580D01*
X250250Y416000D02*
X253750D01*
X252000Y414250D02*
Y417750D01*
X198250Y444000D02*
X201750D01*
X200000Y442250D02*
Y445750D01*
X226250Y414000D02*
X229750D01*
X228000Y412250D02*
Y415750D01*
X202250Y376000D02*
X205750D01*
X204000Y374250D02*
Y377750D01*
X158250Y376000D02*
X161750D01*
X160000Y374250D02*
Y377750D01*
X179735Y378056D02*
X183235D01*
X181485Y376306D02*
Y379806D01*
X180250Y324000D02*
X183750D01*
X182000Y322250D02*
Y325750D01*
X174250Y292000D02*
X177750D01*
X176000Y290250D02*
Y293750D01*
X164250Y242000D02*
X167750D01*
X166000Y240250D02*
Y243750D01*
X176250Y244000D02*
X179750D01*
X178000Y242250D02*
Y245750D01*
X170250Y270000D02*
X173750D01*
X172000Y268250D02*
Y271750D01*
X192250Y272000D02*
X195750D01*
X194000Y270250D02*
Y273750D01*
X218250Y288000D02*
X221750D01*
X220000Y286250D02*
Y289750D01*
X208250Y278000D02*
X211750D01*
X210000Y276250D02*
Y279750D01*
X214250Y304000D02*
X217750D01*
X216000Y302250D02*
Y305750D01*
X214250Y322000D02*
X217750D01*
X216000Y320250D02*
Y323750D01*
X198250Y294000D02*
X201750D01*
X200000Y292250D02*
Y295750D01*
X182250Y282000D02*
X185750D01*
X184000Y280250D02*
Y283750D01*
X665084Y226638D02*
X668584D01*
X666834Y224888D02*
Y228388D01*
X634058Y220052D02*
X637558D01*
X635808Y218302D02*
Y221802D01*
X662250Y168000D02*
X665750D01*
X664000Y166250D02*
Y169750D01*
X632250Y204000D02*
X635750D01*
X634000Y202250D02*
Y205750D01*
X578250Y136000D02*
X581750D01*
X580000Y134250D02*
Y137750D01*
X578250Y158000D02*
X581750D01*
X580000Y156250D02*
Y159750D01*
X438250Y142000D02*
X441750D01*
X440000Y140250D02*
Y143750D01*
X436250Y162000D02*
X439750D01*
X438000Y160250D02*
Y163750D01*
X450250Y176000D02*
X453750D01*
X452000Y174250D02*
Y177750D01*
X504250Y134000D02*
X507750D01*
X506000Y132250D02*
Y135750D01*
X512250Y156000D02*
X515750D01*
X514000Y154250D02*
Y157750D01*
X346250Y374000D02*
X349750D01*
X348000Y372250D02*
Y375750D01*
X320250Y354000D02*
X323750D01*
X322000Y352250D02*
Y355750D01*
X318250Y318000D02*
X321750D01*
X320000Y316250D02*
Y319750D01*
X318250Y286000D02*
X321750D01*
X320000Y284250D02*
Y287750D01*
X318250Y260000D02*
X321750D01*
X320000Y258250D02*
Y261750D01*
X680250Y192000D02*
X683750D01*
X682000Y190250D02*
Y193750D01*
X680250Y164000D02*
X683750D01*
X682000Y162250D02*
Y165750D01*
X680250Y142000D02*
X683750D01*
X682000Y140250D02*
Y143750D01*
X652250Y116000D02*
X655750D01*
X654000Y114250D02*
Y117750D01*
X628250Y116000D02*
X631750D01*
X630000Y114250D02*
Y117750D01*
X602250Y116000D02*
X605750D01*
X604000Y114250D02*
Y117750D01*
X578250Y116000D02*
X581750D01*
X580000Y114250D02*
Y117750D01*
X554250Y116000D02*
X557750D01*
X556000Y114250D02*
Y117750D01*
X526250Y116000D02*
X529750D01*
X528000Y114250D02*
Y117750D01*
X500250Y116000D02*
X503750D01*
X502000Y114250D02*
Y117750D01*
X476250Y116000D02*
X479750D01*
X478000Y114250D02*
Y117750D01*
X450250Y116000D02*
X453750D01*
X452000Y114250D02*
Y117750D01*
X422250Y116000D02*
X425750D01*
X424000Y114250D02*
Y117750D01*
X396250Y116000D02*
X399750D01*
X398000Y114250D02*
Y117750D01*
X368250Y116000D02*
X371750D01*
X370000Y114250D02*
Y117750D01*
X340250Y116000D02*
X343750D01*
X342000Y114250D02*
Y117750D01*
X312250Y116000D02*
X315750D01*
X314000Y114250D02*
Y117750D01*
X284250Y116000D02*
X287750D01*
X286000Y114250D02*
Y117750D01*
X258250Y116000D02*
X261750D01*
X260000Y114250D02*
Y117750D01*
X236250Y116000D02*
X239750D01*
X238000Y114250D02*
Y117750D01*
X216250Y116000D02*
X219750D01*
X218000Y114250D02*
Y117750D01*
X200250Y150000D02*
X203750D01*
X202000Y148250D02*
Y151750D01*
X200250Y134000D02*
X203750D01*
X202000Y132250D02*
Y135750D01*
X168250Y170000D02*
X171750D01*
X170000Y168250D02*
Y171750D01*
X150250Y170000D02*
X153750D01*
X152000Y168250D02*
Y171750D01*
X114250Y160000D02*
X117750D01*
X116000Y158250D02*
Y161750D01*
X120250Y216000D02*
X123750D01*
X122000Y214250D02*
Y217750D01*
X122250Y252000D02*
X125750D01*
X124000Y250250D02*
Y253750D01*
X114250Y274000D02*
X117750D01*
X116000Y272250D02*
Y275750D01*
X114250Y296000D02*
X117750D01*
X116000Y294250D02*
Y297750D01*
X114250Y318000D02*
X117750D01*
X116000Y316250D02*
Y319750D01*
X114250Y344000D02*
X117750D01*
X116000Y342250D02*
Y345750D01*
X114250Y368000D02*
X117750D01*
X116000Y366250D02*
Y369750D01*
X114250Y392000D02*
X117750D01*
X116000Y390250D02*
Y393750D01*
X114250Y416000D02*
X117750D01*
X116000Y414250D02*
Y417750D01*
X114250Y440000D02*
X117750D01*
X116000Y438250D02*
Y441750D01*
X114250Y460000D02*
X117750D01*
X116000Y458250D02*
Y461750D01*
X136250Y480000D02*
X139750D01*
X138000Y478250D02*
Y481750D01*
X158250Y480000D02*
X161750D01*
X160000Y478250D02*
Y481750D01*
X186250Y480000D02*
X189750D01*
X188000Y478250D02*
Y481750D01*
X212250Y480000D02*
X215750D01*
X214000Y478250D02*
Y481750D01*
X256250Y480000D02*
X259750D01*
X258000Y478250D02*
Y481750D01*
X288250Y480000D02*
X291750D01*
X290000Y478250D02*
Y481750D01*
X314250Y480000D02*
X317750D01*
X316000Y478250D02*
Y481750D01*
X342250Y480000D02*
X345750D01*
X344000Y478250D02*
Y481750D01*
X370250Y480000D02*
X373750D01*
X372000Y478250D02*
Y481750D01*
X402250Y480000D02*
X405750D01*
X404000Y478250D02*
Y481750D01*
X434250Y480000D02*
X437750D01*
X436000Y478250D02*
Y481750D01*
X512250Y432000D02*
X515750D01*
X514000Y430250D02*
Y433750D01*
X482250Y428000D02*
X485750D01*
X484000Y426250D02*
Y429750D01*
X500250Y410000D02*
X503750D01*
X502000Y408250D02*
Y411750D01*
X520250Y400000D02*
X523750D01*
X522000Y398250D02*
Y401750D01*
X530250Y412000D02*
X533750D01*
X532000Y410250D02*
Y413750D01*
X542250Y426000D02*
X545750D01*
X544000Y424250D02*
Y427750D01*
X526250Y472000D02*
X529750D01*
X528000Y470250D02*
Y473750D01*
X576250Y450000D02*
X579750D01*
X578000Y448250D02*
Y451750D01*
X650250Y476000D02*
X653750D01*
X652000Y474250D02*
Y477750D01*
X640250Y448000D02*
X643750D01*
X642000Y446250D02*
Y449750D01*
X674250Y448000D02*
X677750D01*
X676000Y446250D02*
Y449750D01*
X676250Y424000D02*
X679750D01*
X678000Y422250D02*
Y425750D01*
X616250Y400000D02*
X619750D01*
X618000Y398250D02*
Y401750D01*
X650250Y398000D02*
X653750D01*
X652000Y396250D02*
Y399750D01*
X676250Y398000D02*
X679750D01*
X678000Y396250D02*
Y399750D01*
X664250Y380000D02*
X667750D01*
X666000Y378250D02*
Y381750D01*
X634250Y350000D02*
X637750D01*
X636000Y348250D02*
Y351750D01*
X614250Y344000D02*
X617750D01*
X616000Y342250D02*
Y345750D01*
X600250Y334000D02*
X603750D01*
X602000Y332250D02*
Y335750D01*
X610250Y318000D02*
X613750D01*
X612000Y316250D02*
Y319750D01*
X644250Y318000D02*
X647750D01*
X646000Y316250D02*
Y319750D01*
X676250Y328000D02*
X679750D01*
X678000Y326250D02*
Y329750D01*
X676250Y308000D02*
X679750D01*
X678000Y306250D02*
Y309750D01*
X634250Y284000D02*
X637750D01*
X636000Y282250D02*
Y285750D01*
X654250Y264000D02*
X657750D01*
X656000Y262250D02*
Y265750D01*
X560250Y250000D02*
X563750D01*
X562000Y248250D02*
Y251750D01*
X532250Y272000D02*
X535750D01*
X534000Y270250D02*
Y273750D01*
X496250Y252000D02*
X499750D01*
X498000Y250250D02*
Y253750D01*
X496250Y276000D02*
X499750D01*
X498000Y274250D02*
Y277750D01*
X476250Y264000D02*
X479750D01*
X478000Y262250D02*
Y265750D01*
X438250Y300000D02*
X441750D01*
X440000Y298250D02*
Y301750D01*
X438250Y322000D02*
X441750D01*
X440000Y320250D02*
Y323750D01*
X468250Y340000D02*
X471750D01*
X470000Y338250D02*
Y341750D01*
X448250Y340000D02*
X451750D01*
X450000Y338250D02*
Y341750D01*
X448250Y364000D02*
X451750D01*
X450000Y362250D02*
Y365750D01*
X480250Y364000D02*
X483750D01*
X482000Y362250D02*
Y365750D01*
X574250Y277000D02*
X575750D01*
X575000Y276250D02*
Y277750D01*
X587750Y278000D02*
X589250D01*
X588500Y277250D02*
Y278750D01*
X196185Y181315D02*
X201185D01*
X198685Y178815D02*
Y183815D01*
X585600Y326000D02*
X588400D01*
X587000Y324600D02*
Y327400D01*
X494250Y156000D02*
X495750D01*
X495000Y155250D02*
Y156750D01*
X499250Y149000D02*
X500750D01*
X500000Y148250D02*
Y149750D01*
X605250Y298000D02*
X606750D01*
X606000Y297250D02*
Y298750D01*
X616248Y301000D02*
X617748D01*
X616998Y300250D02*
Y301750D01*
X579250Y231000D02*
X580750D01*
X580000Y230250D02*
Y231750D01*
X585750Y240500D02*
X587250D01*
X586500Y239750D02*
Y241250D01*
X601600Y251500D02*
X604400D01*
X603000Y250100D02*
Y252900D01*
X573250Y249000D02*
X574750D01*
X574000Y248250D02*
Y249750D01*
X577750Y283000D02*
X579250D01*
X578500Y282250D02*
Y283750D01*
X585750Y285000D02*
X587250D01*
X586500Y284250D02*
Y285750D01*
X590250Y274000D02*
X591750D01*
X591000Y273250D02*
Y274750D01*
X585250Y270626D02*
X586750D01*
X586000Y269876D02*
Y271376D01*
X577600Y197000D02*
X580400D01*
X579000Y195600D02*
Y198400D01*
X119500Y202000D02*
X124500D01*
X122000Y199500D02*
Y204500D01*
X598250Y360000D02*
X599750D01*
X599000Y359250D02*
Y360750D01*
X604600Y397000D02*
X607400D01*
X606000Y395600D02*
Y398400D01*
X590250Y399000D02*
X591750D01*
X591000Y398250D02*
Y399750D01*
X480600Y330000D02*
X483400D01*
X482000Y328600D02*
Y331400D01*
X475600Y288000D02*
X478400D01*
X477000Y286600D02*
Y289400D01*
X589250Y231000D02*
X590750D01*
X590000Y230250D02*
Y231750D01*
X165600Y119000D02*
X168400D01*
X167000Y117600D02*
Y120400D01*
X165600Y128000D02*
X168400D01*
X167000Y126600D02*
Y129400D01*
X153600Y271000D02*
X156400D01*
X155000Y269600D02*
Y272400D01*
X162600Y283000D02*
X165400D01*
X164000Y281600D02*
Y284400D01*
X200500Y340000D02*
X205500D01*
X203000Y337500D02*
Y342500D01*
X562600Y351000D02*
X565400D01*
X564000Y349600D02*
Y352400D01*
X545250Y349000D02*
X546750D01*
X546000Y348250D02*
Y349750D01*
X592600Y346000D02*
X595400D01*
X594000Y344600D02*
Y347400D01*
X558600Y312000D02*
X561400D01*
X560000Y310600D02*
Y313400D01*
X646600Y151000D02*
X649400D01*
X648000Y149600D02*
Y152400D01*
X189600Y156000D02*
X192400D01*
X191000Y154600D02*
Y157400D01*
X180600Y161000D02*
X183400D01*
X182000Y159600D02*
Y162400D01*
X237600Y307000D02*
X240400D01*
X239000Y305600D02*
Y308400D01*
X460584Y480984D02*
X463384D01*
X461984Y479584D02*
Y482384D01*
X469600Y409000D02*
X472400D01*
X471000Y407600D02*
Y410400D01*
X501600Y377000D02*
X504400D01*
X503000Y375600D02*
Y378400D01*
X509428Y312828D02*
X512228D01*
X510828Y311428D02*
Y314228D01*
X262142Y285107D02*
X263643D01*
X262893Y284358D02*
Y285858D01*
X375600Y385000D02*
X378400D01*
X377000Y383600D02*
Y386400D01*
X591600Y323000D02*
X594400D01*
X593000Y321600D02*
Y324400D01*
X578250Y251091D02*
X579750D01*
X579000Y250341D02*
Y251840D01*
X621848Y361099D02*
X624648D01*
X623248Y359699D02*
Y362499D01*
X560600Y324000D02*
X563400D01*
X562000Y322600D02*
Y325400D01*
X520600Y261000D02*
X523400D01*
X522000Y259600D02*
Y262400D01*
X598907Y147693D02*
X601707D01*
X600307Y146293D02*
Y149093D01*
X603428Y212828D02*
X606228D01*
X604828Y211428D02*
Y214228D01*
X487600Y172000D02*
X490400D01*
X489000Y170600D02*
Y173400D01*
X480600Y172000D02*
X483400D01*
X482000Y170600D02*
Y173400D01*
X462772Y161828D02*
X465572D01*
X464172Y160428D02*
Y163228D01*
X456848Y153248D02*
X459648D01*
X458248Y151848D02*
Y154648D01*
X469600Y139000D02*
X472400D01*
X471000Y137600D02*
Y140400D01*
X567600Y308000D02*
X570400D01*
X569000Y306600D02*
Y309400D01*
X469600Y175000D02*
X472400D01*
X471000Y173600D02*
Y176400D01*
X493600Y144000D02*
X496400D01*
X495000Y142600D02*
Y145400D01*
X209500Y224000D02*
X214500D01*
X212000Y221500D02*
Y226500D01*
X615600Y206000D02*
X618400D01*
X617000Y204600D02*
Y207400D01*
X615293Y191307D02*
X618093D01*
X616693Y189907D02*
Y192707D01*
X406600Y385000D02*
X409400D01*
X408000Y383600D02*
Y386400D01*
X602250Y356000D02*
X603750D01*
X603000Y355250D02*
Y356750D01*
X541250Y323000D02*
X542750D01*
X542000Y322250D02*
Y323750D01*
X530250Y326000D02*
X531750D01*
X531000Y325250D02*
Y326750D01*
X600600Y306000D02*
X603400D01*
X602000Y304600D02*
Y307400D01*
X599600Y315000D02*
X602400D01*
X601000Y313600D02*
Y316400D01*
X614600Y257000D02*
X617400D01*
X616000Y255600D02*
Y258400D01*
X466224Y233724D02*
X471224D01*
X468724Y231224D02*
Y236224D01*
X518600Y308000D02*
X521400D01*
X520000Y306600D02*
Y309400D01*
X521600Y320000D02*
X524400D01*
X523000Y318600D02*
Y321400D01*
X497600Y341000D02*
X500400D01*
X499000Y339600D02*
Y342400D01*
X467600Y352000D02*
X470400D01*
X469000Y350600D02*
Y353400D01*
X416600Y466000D02*
X419400D01*
X418000Y464600D02*
Y467400D01*
X574600Y375000D02*
X577400D01*
X576000Y373600D02*
Y376400D01*
X574600Y367000D02*
X577400D01*
X576000Y365600D02*
Y368400D01*
X592734Y489134D02*
X595534D01*
X594134Y487734D02*
Y490534D01*
X629600Y390000D02*
X632400D01*
X631000Y388600D02*
Y391400D01*
X677907Y346307D02*
X680707D01*
X679307Y344907D02*
Y347707D01*
X640600Y297000D02*
X643400D01*
X642000Y295600D02*
Y298400D01*
X677907Y292693D02*
X680707D01*
X679307Y291293D02*
Y294093D01*
X684600Y217000D02*
X687400D01*
X686000Y215600D02*
Y218400D01*
X646600Y192000D02*
X649400D01*
X648000Y190600D02*
Y193400D01*
X158600Y144000D02*
X161400D01*
X160000Y142600D02*
Y145400D01*
X136600Y168000D02*
X139400D01*
X138000Y166600D02*
Y169400D01*
X121658Y237842D02*
X126657D01*
X124158Y235343D02*
Y240342D01*
X168600Y233000D02*
X171400D01*
X170000Y231600D02*
Y234400D01*
X166500Y256000D02*
X171500D01*
X169000Y253500D02*
Y258500D01*
X194500Y313000D02*
X199500D01*
X197000Y310500D02*
Y315500D01*
X209600Y411000D02*
X212400D01*
X211000Y409600D02*
Y412400D01*
X172500Y467000D02*
X177500D01*
X175000Y464500D02*
Y469500D01*
X625250Y276000D02*
X626750D01*
X626000Y275250D02*
Y276750D01*
X553340Y292000D02*
X554841D01*
X554090Y291250D02*
Y292750D01*
X589376Y267126D02*
X590876D01*
X590126Y266376D02*
Y267876D01*
X652695Y219491D02*
X654195D01*
X653445Y218741D02*
Y220241D01*
X600884Y290790D02*
X602384D01*
X601634Y290039D02*
Y291540D01*
X527250Y295000D02*
X528750D01*
X528000Y294250D02*
Y295750D01*
X598750Y395500D02*
X600250D01*
X599500Y394750D02*
Y396250D01*
Y461000D02*
X602500D01*
X601000Y459500D02*
Y462500D01*
M02*
