M48
;Layer_Color=9474304
;FILE_FORMAT=2:4
INCH,TZ
;TYPE=PLATED
T01F00S00C0.0150
T02F00S00C0.0260
T03F00S00C0.0280
T04F00S00C0.0300
T05F00S00C0.0335
T06F00S00C0.0350
T07F00S00C0.0354
T08F00S00C0.0394
T09F00S00C0.0402
T10F00S00C0.0433
T11F00S00C0.0500
T12F00S00C0.0512
T13F00S00C0.0591
T14F00S00C0.0709
T15F00S00C0.1260
T16F00S00C0.1378
T17F00S00C0.1969
%
T01
X50000Y14900
X49500Y15600
X65345Y21949
X62600Y27600
X61700Y30100
X60600Y29800
X60163Y29079
X58650Y28500
X58850Y27800
X59100Y27400
X59013Y26713
X58600Y27063
X57500Y27700
X57850Y28300
X57900Y25109
X57400Y24900
X58650Y24050
X59000Y23100
X58000
X55409Y29200
X52800Y29500
X26289Y28511
X53100Y32600
X54200Y32300
X54600Y34900
X59900Y36000
X60300Y35600
X59950Y39550
X59100Y39900
T02
X13900Y26300
Y27300
Y28300
T03
X16700Y11900
Y12800
X16000Y14400
X19100Y15600
X45825Y15325
X47100Y13900
X49500Y14400
X60031Y14769
X64800Y15100
Y19200
X68600Y21700
X67931Y29269
X64200Y29700
X60200Y30600
X56900Y30800
X56000Y31200
X52000Y30800
X52200Y26100
X47700Y28800
X47100Y17500
X48200Y17200
X48900
X57900Y19700
X60483Y21283
X61700Y20600
X61669Y19131
X61600Y25700
X60300Y25150
X46417Y16183
X18200Y16100
X17000Y23300
X16400Y28300
X23900Y30700
X15500Y27100
X13800Y16800
X21100Y41100
X37700Y38500
X40800
X41800Y46600
X47100Y40900
X46900Y35200
X48200Y33000
X49900Y34100
X50300Y37700
X51083Y31283
X52300Y32000
X56200Y32400
X58700Y32600
X59300Y32300
X60100Y31500
X59400Y34600
X56400Y35100
X57600Y36700
Y37500
X60600Y39700
X62325Y36110
X63100Y39000
X67931Y34631
X59413Y48913
X46198Y48098
T04
X60100Y46100
T05
X38493Y37500
X40107
T06
X21800Y11600
X23800
X26000
X28600
X20200Y13400
Y15000
X31400Y11600
X34200
X37000
X39800
X42400
X45200
X44000Y14200
X47800Y11600
X50200
X50600Y13400
X51400Y15600
X52800Y11600
X55600
X58000
Y13600
X60400Y11600
X63000
X65400
X68200Y14200
Y16400
X66400Y16800
X68200Y19200
X66683Y22664
X63581Y22005
X63400Y20400
X63600Y28400
X65600Y26400
X67800Y30800
X56200Y25000
X53400Y27200
X49800Y27600
Y25200
X47800Y26400
X58000Y15800
X43800Y16200
X45200Y17600
X44000Y30000
X32000Y28600
Y26000
X22000Y28800
X21000Y27800
X19400Y27200
X18400Y28200
X17600Y29200
X17200Y27000
X17800Y24400
X16600Y24200
X17000Y17000
X20000Y29400
X21600Y30400
X11600Y29600
Y27400
X12400Y25200
X12200Y21600
X11600Y16000
X15200Y17000
X11600Y31800
Y34400
Y36800
Y39200
Y41600
Y44000
Y46000
X20000Y44400
X22800Y41400
X25200Y41600
X20400Y37600
X18148Y37806
X16000Y37600
X18200Y32400
X21600Y32200
X32000Y31800
X32200Y35400
X34800Y37400
X45000Y36400
Y34000
X44000Y32200
X47000Y34000
X48200Y36400
X48400Y42800
X51400Y43200
X50200Y41000
X52200Y40000
X53200Y41200
X54400Y42600
X57800Y45000
X61800Y40000
X61600Y34400
X60200Y33400
X61200Y31800
X64600
X63600Y35000
X66600Y38000
X67800Y39800
Y42400
X67600Y44800
X64200
X65200Y39800
X67800Y32800
X65200Y47600
X52800Y47200
X43600Y48000
X40400
X37200
X34400
X31600
X29000
X25800
X21400
X18800
X16000
X13800
T07
X17218Y38708
Y39692
X19318
Y38708
T08
X63788Y15282
Y16282
X63788Y17282
Y18282
X62788Y17782
Y16782
X62788Y15782
X62788Y18782
T09
X67100Y23800
X68100
Y24800
Y25800
X67100
Y24800
T10
X61475Y41539
Y44294
X63325Y48822
X61475
T11
X46872Y23372
X21200Y22400
X19869Y18132
X16900Y25600
X12416Y23784
X12200Y20200
X19700Y31300
X20300Y34000
X17500Y46700
T12
X66300Y30800
X13500Y42400
Y44900
X66300Y44950
Y42450
Y33300
T13
X13000Y32647
Y38553
T14
X45600Y27850
Y30000
Y32150
T15
X11952Y12008
X67858
Y48228
X11952
T16
X66350Y14800
X66300Y19300
T17
X24094Y14844
X54802
X24094Y45552
X54802
M30
