G04*
G04 #@! TF.GenerationSoftware,Altium Limited,Altium Designer,24.6.1 (21)*
G04*
G04 Layer_Color=8388736*
%FSLAX25Y25*%
%MOIN*%
G70*
G04*
G04 #@! TF.SameCoordinates,65BBE5AF-797C-4DEE-A542-627196F68B12*
G04*
G04*
G04 #@! TF.FilePolarity,Negative*
G04*
G01*
G75*
%ADD17R,0.12598X0.06299*%
%ADD18R,0.08661X0.09843*%
%ADD19R,0.09752X0.02367*%
G04:AMPARAMS|DCode=20|XSize=97.52mil|YSize=23.67mil|CornerRadius=11.84mil|HoleSize=0mil|Usage=FLASHONLY|Rotation=0.000|XOffset=0mil|YOffset=0mil|HoleType=Round|Shape=RoundedRectangle|*
%AMROUNDEDRECTD20*
21,1,0.09752,0.00000,0,0,0.0*
21,1,0.07385,0.02367,0,0,0.0*
1,1,0.02367,0.03693,0.00000*
1,1,0.02367,-0.03693,0.00000*
1,1,0.02367,-0.03693,0.00000*
1,1,0.02367,0.03693,0.00000*
%
%ADD20ROUNDEDRECTD20*%
%ADD21R,0.08465X0.12795*%
%ADD22R,0.08465X0.03740*%
%ADD24R,0.02087X0.07795*%
%ADD25R,0.08583X0.06378*%
%ADD29R,0.06378X0.08583*%
%ADD30R,0.05733X0.05136*%
%ADD31R,0.05136X0.05733*%
%ADD35R,0.15748X0.06299*%
%ADD36R,0.06299X0.15748*%
%ADD37R,0.05524X0.05524*%
%ADD38R,0.06115X0.04147*%
%ADD39R,0.04147X0.06115*%
%ADD40R,0.06115X0.05131*%
%ADD41R,0.05524X0.05524*%
%ADD42R,0.05131X0.07296*%
G04:AMPARAMS|DCode=43|XSize=31.62mil|YSize=65.09mil|CornerRadius=6.01mil|HoleSize=0mil|Usage=FLASHONLY|Rotation=180.000|XOffset=0mil|YOffset=0mil|HoleType=Round|Shape=RoundedRectangle|*
%AMROUNDEDRECTD43*
21,1,0.03162,0.05307,0,0,180.0*
21,1,0.01961,0.06509,0,0,180.0*
1,1,0.01202,-0.00980,0.02653*
1,1,0.01202,0.00980,0.02653*
1,1,0.01202,0.00980,-0.02653*
1,1,0.01202,-0.00980,-0.02653*
%
%ADD43ROUNDEDRECTD43*%
%ADD44C,0.05315*%
%ADD45R,0.05315X0.05315*%
%ADD46C,0.05398*%
%ADD47R,0.05398X0.05398*%
%ADD48R,0.06181X0.06181*%
%ADD49C,0.06181*%
%ADD50C,0.40170*%
%ADD51R,0.07887X0.07887*%
%ADD52C,0.07887*%
%ADD53R,0.05512X0.05512*%
%ADD54C,0.05512*%
%ADD55R,0.07296X0.07296*%
%ADD56C,0.07296*%
%ADD57C,0.06706*%
%ADD58C,0.20485*%
%ADD59C,0.09658*%
%ADD60C,0.10827*%
%ADD61R,0.10827X0.10827*%
D17*
X143842Y228000D02*
D03*
X124158D02*
D03*
X199843Y256000D02*
D03*
X180157D02*
D03*
X179000Y191000D02*
D03*
X198685D02*
D03*
X166000Y313000D02*
D03*
X185685D02*
D03*
D18*
X165000Y339748D02*
D03*
Y358252D02*
D03*
X184000Y339748D02*
D03*
Y358252D02*
D03*
D19*
X151000Y159000D02*
D03*
D20*
Y154000D02*
D03*
Y149000D02*
D03*
Y144000D02*
D03*
X170000D02*
D03*
Y149000D02*
D03*
Y154000D02*
D03*
Y159000D02*
D03*
D21*
X202417Y224000D02*
D03*
D22*
X179583Y214945D02*
D03*
Y224000D02*
D03*
Y233055D02*
D03*
D24*
X595000Y224705D02*
D03*
X590000D02*
D03*
X585000D02*
D03*
X580000D02*
D03*
X585000Y205295D02*
D03*
X590000D02*
D03*
X595000D02*
D03*
X580000D02*
D03*
D25*
X609000Y191307D02*
D03*
Y174693D02*
D03*
Y164307D02*
D03*
Y147693D02*
D03*
D29*
X662693Y358000D02*
D03*
X679307D02*
D03*
X662693Y282000D02*
D03*
X679307D02*
D03*
D30*
X155000Y289172D02*
D03*
Y282828D02*
D03*
Y257828D02*
D03*
Y264172D02*
D03*
D31*
X625172Y390000D02*
D03*
X618828D02*
D03*
X597172Y406000D02*
D03*
X590828D02*
D03*
X604828Y206000D02*
D03*
X611172D02*
D03*
D35*
X146205Y191000D02*
D03*
X121795D02*
D03*
D36*
X175000Y425795D02*
D03*
Y450205D02*
D03*
D37*
X172866Y119000D02*
D03*
X181134D02*
D03*
X160134Y128000D02*
D03*
X151866D02*
D03*
X671732Y217000D02*
D03*
X680000D02*
D03*
X160268Y119000D02*
D03*
X152000D02*
D03*
X172866Y128000D02*
D03*
X181134D02*
D03*
D38*
X601000Y474248D02*
D03*
Y467752D02*
D03*
X600000Y422248D02*
D03*
Y415752D02*
D03*
X588000Y422248D02*
D03*
Y415752D02*
D03*
X138000Y150248D02*
D03*
Y143752D02*
D03*
X202579Y422748D02*
D03*
Y416252D02*
D03*
D39*
X623248Y375000D02*
D03*
X616752D02*
D03*
X139752Y119000D02*
D03*
X146248D02*
D03*
X629752Y297000D02*
D03*
X636248D02*
D03*
X580752Y375000D02*
D03*
X587248D02*
D03*
X636248Y333000D02*
D03*
X629752D02*
D03*
X623248Y367000D02*
D03*
X616752D02*
D03*
X193248Y119000D02*
D03*
X186752D02*
D03*
X193248Y128000D02*
D03*
X186752D02*
D03*
X139752D02*
D03*
X146248D02*
D03*
X658618Y217000D02*
D03*
X665114D02*
D03*
X580752Y367000D02*
D03*
X587248D02*
D03*
X629752Y306000D02*
D03*
X636248D02*
D03*
D40*
X182000Y154756D02*
D03*
Y149244D02*
D03*
X138000Y161756D02*
D03*
Y156244D02*
D03*
D41*
X211000Y417866D02*
D03*
Y426134D02*
D03*
X601000Y489134D02*
D03*
Y480866D02*
D03*
D42*
X588390Y433000D02*
D03*
X599610D02*
D03*
D43*
X604500Y388728D02*
D03*
X609500D02*
D03*
X599500D02*
D03*
X594500D02*
D03*
X609500Y367272D02*
D03*
X604500D02*
D03*
X599500D02*
D03*
X594500D02*
D03*
D44*
X401071Y375000D02*
D03*
D45*
X384929D02*
D03*
D46*
X139000Y263000D02*
D03*
Y273000D02*
D03*
D47*
Y283000D02*
D03*
D48*
X681000Y238000D02*
D03*
D49*
Y248000D02*
D03*
Y258000D02*
D03*
X671000Y238000D02*
D03*
Y248000D02*
D03*
Y258000D02*
D03*
D50*
X240937Y455524D02*
D03*
Y148437D02*
D03*
X548024Y455524D02*
D03*
Y148437D02*
D03*
D51*
X663000Y308000D02*
D03*
Y424500D02*
D03*
X135000Y449000D02*
D03*
D52*
X663000Y333000D02*
D03*
Y449500D02*
D03*
X135000Y424000D02*
D03*
D53*
X172181Y396921D02*
D03*
X193181D02*
D03*
D54*
X172181Y387079D02*
D03*
X193181D02*
D03*
D55*
X633252Y488221D02*
D03*
D56*
X614748Y442945D02*
D03*
Y415386D02*
D03*
Y488221D02*
D03*
D57*
X627881Y177816D02*
D03*
X637881Y162816D02*
D03*
X627881Y167816D02*
D03*
X637881Y172816D02*
D03*
Y182816D02*
D03*
X627881Y187816D02*
D03*
X637881Y152816D02*
D03*
X627881Y157816D02*
D03*
D58*
X663000Y193000D02*
D03*
X663500Y148000D02*
D03*
X678576Y120076D02*
D03*
Y482281D02*
D03*
X119521Y120076D02*
D03*
Y482281D02*
D03*
D59*
X130000Y326472D02*
D03*
Y385528D02*
D03*
D60*
X456000Y278504D02*
D03*
Y300000D02*
D03*
D61*
Y321496D02*
D03*
M02*
