G04*
G04 #@! TF.GenerationSoftware,Altium Limited,Altium Designer,24.6.1 (21)*
G04*
G04 Layer_Color=0*
%FSLAX25Y25*%
%MOIN*%
G70*
G04*
G04 #@! TF.SameCoordinates,65BBE5AF-797C-4DEE-A542-627196F68B12*
G04*
G04*
G04 #@! TF.FilePolarity,Positive*
G04*
G01*
G75*
%ADD114C,0.00394*%
D114*
X134000Y226031D02*
Y229969D01*
X132032Y228000D02*
X135968D01*
X165000Y347031D02*
Y350969D01*
X163031Y349000D02*
X166969D01*
X158532Y151500D02*
X162469D01*
X160500Y149531D02*
Y153469D01*
X191000Y222031D02*
Y225969D01*
X189032Y224000D02*
X192968D01*
X587500Y213032D02*
Y216968D01*
X585532Y215000D02*
X589468D01*
X184000Y347031D02*
Y350969D01*
X182032Y349000D02*
X185968D01*
X607031Y183000D02*
X610968D01*
X609000Y181032D02*
Y184968D01*
X676000Y246031D02*
Y249969D01*
X674031Y248000D02*
X677969D01*
X190000Y254031D02*
Y257968D01*
X188031Y256000D02*
X191969D01*
X171000Y390032D02*
Y393969D01*
X169032Y392000D02*
X172968D01*
X609000Y154032D02*
Y157968D01*
X607031Y156000D02*
X610968D01*
X669031Y358000D02*
X672968D01*
X671000Y356031D02*
Y359968D01*
X188842Y189032D02*
Y192968D01*
X186874Y191000D02*
X190811D01*
X155000Y284032D02*
Y287968D01*
X153032Y286000D02*
X156968D01*
X622000Y388032D02*
Y391968D01*
X620031Y390000D02*
X623969D01*
X669031Y282000D02*
X672968D01*
X671000Y280031D02*
Y283968D01*
X592031Y406000D02*
X595968D01*
X594000Y404032D02*
Y407969D01*
X155000Y259032D02*
Y262968D01*
X153032Y261000D02*
X156968D01*
X192000Y390032D02*
Y393969D01*
X190032Y392000D02*
X193968D01*
X134000Y189032D02*
Y192968D01*
X132032Y191000D02*
X135968D01*
X173031Y438000D02*
X176969D01*
X175000Y436031D02*
Y439968D01*
X606032Y206000D02*
X609969D01*
X608000Y204031D02*
Y207968D01*
X175842Y311032D02*
Y314968D01*
X173874Y313000D02*
X177811D01*
M02*
