G04*
G04 #@! TF.GenerationSoftware,Altium Limited,Altium Designer,24.6.1 (21)*
G04*
G04 Layer_Color=16711935*
%FSLAX25Y25*%
%MOIN*%
G70*
G04*
G04 #@! TF.SameCoordinates,65BBE5AF-797C-4DEE-A542-627196F68B12*
G04*
G04*
G04 #@! TF.FilePolarity,Positive*
G04*
G01*
G75*
%ADD12C,0.01000*%
%ADD113C,0.04724*%
G36*
X478737Y151201D02*
X478424D01*
Y151561D01*
X478737D01*
Y151201D01*
D02*
G37*
G36*
X477352Y150888D02*
X477432Y150875D01*
X477505Y150855D01*
X477568Y150835D01*
X477622Y150812D01*
X477642Y150802D01*
X477658Y150792D01*
X477672Y150782D01*
X477682Y150778D01*
X477688Y150772D01*
X477692D01*
X477755Y150722D01*
X477811Y150665D01*
X477858Y150608D01*
X477898Y150552D01*
X477928Y150502D01*
X477941Y150482D01*
X477951Y150462D01*
X477958Y150445D01*
X477965Y150435D01*
X477968Y150429D01*
Y150425D01*
X478001Y150339D01*
X478025Y150255D01*
X478041Y150172D01*
X478051Y150096D01*
X478058Y150062D01*
Y150032D01*
X478061Y150006D01*
X478065Y149982D01*
Y149962D01*
Y149949D01*
Y149939D01*
Y149936D01*
X478061Y149866D01*
X478055Y149796D01*
X478045Y149733D01*
X478031Y149669D01*
X478015Y149609D01*
X477998Y149556D01*
X477978Y149506D01*
X477958Y149460D01*
X477941Y149420D01*
X477921Y149380D01*
X477905Y149350D01*
X477888Y149323D01*
X477875Y149300D01*
X477865Y149286D01*
X477858Y149276D01*
X477855Y149273D01*
X477815Y149226D01*
X477768Y149183D01*
X477722Y149146D01*
X477675Y149117D01*
X477625Y149090D01*
X477575Y149067D01*
X477525Y149050D01*
X477479Y149033D01*
X477435Y149023D01*
X477395Y149013D01*
X477359Y149010D01*
X477325Y149003D01*
X477299D01*
X477279Y149000D01*
X477262D01*
X477206Y149003D01*
X477152Y149010D01*
X477102Y149023D01*
X477052Y149037D01*
X476966Y149077D01*
X476926Y149100D01*
X476889Y149123D01*
X476859Y149143D01*
X476829Y149167D01*
X476806Y149187D01*
X476786Y149206D01*
X476769Y149220D01*
X476759Y149233D01*
X476753Y149240D01*
X476749Y149243D01*
Y149190D01*
Y149140D01*
Y149093D01*
X476753Y149053D01*
Y149017D01*
X476756Y148983D01*
Y148953D01*
X476759Y148930D01*
X476763Y148907D01*
Y148890D01*
X476769Y148863D01*
X476773Y148847D01*
Y148844D01*
X476789Y148787D01*
X476816Y148740D01*
X476839Y148697D01*
X476866Y148664D01*
X476893Y148637D01*
X476912Y148617D01*
X476926Y148604D01*
X476932Y148600D01*
X476982Y148570D01*
X477036Y148547D01*
X477092Y148534D01*
X477145Y148521D01*
X477196Y148514D01*
X477232Y148511D01*
X477269D01*
X477342Y148514D01*
X477405Y148524D01*
X477459Y148540D01*
X477505Y148557D01*
X477542Y148570D01*
X477568Y148587D01*
X477582Y148597D01*
X477588Y148600D01*
X477618Y148627D01*
X477642Y148660D01*
X477662Y148694D01*
X477675Y148730D01*
X477685Y148760D01*
X477692Y148784D01*
X477695Y148800D01*
Y148807D01*
X478001Y148850D01*
Y148797D01*
X477995Y148744D01*
X477985Y148697D01*
X477975Y148654D01*
X477958Y148614D01*
X477941Y148577D01*
X477925Y148544D01*
X477905Y148514D01*
X477888Y148487D01*
X477868Y148464D01*
X477851Y148444D01*
X477835Y148427D01*
X477825Y148417D01*
X477815Y148407D01*
X477808Y148404D01*
X477805Y148401D01*
X477765Y148374D01*
X477722Y148351D01*
X477635Y148314D01*
X477545Y148287D01*
X477459Y148271D01*
X477419Y148264D01*
X477385Y148257D01*
X477352Y148254D01*
X477322D01*
X477302Y148251D01*
X477269D01*
X477169Y148254D01*
X477076Y148267D01*
X476996Y148284D01*
X476929Y148304D01*
X476899Y148314D01*
X476872Y148324D01*
X476853Y148334D01*
X476832Y148341D01*
X476819Y148347D01*
X476809Y148354D01*
X476802Y148357D01*
X476799D01*
X476733Y148401D01*
X476673Y148447D01*
X476626Y148494D01*
X476586Y148540D01*
X476556Y148580D01*
X476536Y148614D01*
X476530Y148627D01*
X476523Y148637D01*
X476519Y148640D01*
Y148644D01*
X476503Y148680D01*
X476489Y148720D01*
X476476Y148767D01*
X476466Y148813D01*
X476453Y148917D01*
X476440Y149017D01*
X476436Y149063D01*
X476433Y149107D01*
Y149146D01*
X476430Y149183D01*
Y149213D01*
Y149233D01*
Y149250D01*
Y149253D01*
Y150855D01*
X476719D01*
Y150625D01*
X476759Y150672D01*
X476802Y150715D01*
X476849Y150752D01*
X476893Y150782D01*
X476939Y150808D01*
X476986Y150828D01*
X477029Y150848D01*
X477069Y150862D01*
X477109Y150872D01*
X477145Y150881D01*
X477179Y150888D01*
X477206Y150891D01*
X477229D01*
X477249Y150895D01*
X477262D01*
X477352Y150888D01*
D02*
G37*
G36*
X473269Y150891D02*
X473349Y150885D01*
X473423Y150875D01*
X473483Y150862D01*
X473536Y150848D01*
X473556Y150845D01*
X473572Y150838D01*
X473586Y150835D01*
X473596Y150831D01*
X473602Y150828D01*
X473606D01*
X473669Y150802D01*
X473726Y150772D01*
X473772Y150742D01*
X473812Y150712D01*
X473842Y150682D01*
X473866Y150662D01*
X473879Y150648D01*
X473882Y150642D01*
X473915Y150595D01*
X473945Y150542D01*
X473969Y150488D01*
X473985Y150439D01*
X474002Y150395D01*
X474012Y150359D01*
X474015Y150345D01*
Y150335D01*
X474019Y150329D01*
Y150325D01*
X473712Y150282D01*
X473692Y150349D01*
X473666Y150409D01*
X473642Y150455D01*
X473616Y150492D01*
X473596Y150522D01*
X473576Y150542D01*
X473562Y150552D01*
X473559Y150555D01*
X473516Y150582D01*
X473463Y150602D01*
X473409Y150615D01*
X473353Y150625D01*
X473306Y150632D01*
X473266Y150635D01*
X473229D01*
X473146Y150632D01*
X473073Y150618D01*
X473013Y150602D01*
X472960Y150582D01*
X472920Y150562D01*
X472893Y150545D01*
X472877Y150532D01*
X472870Y150529D01*
X472840Y150495D01*
X472817Y150452D01*
X472803Y150409D01*
X472790Y150362D01*
X472783Y150322D01*
X472780Y150285D01*
Y150275D01*
Y150265D01*
Y150259D01*
Y150255D01*
Y150249D01*
Y150235D01*
Y150209D01*
X472783Y150196D01*
Y150186D01*
Y150179D01*
Y150175D01*
X472820Y150165D01*
X472860Y150152D01*
X472946Y150132D01*
X473040Y150112D01*
X473130Y150096D01*
X473173Y150089D01*
X473213Y150082D01*
X473249Y150079D01*
X473279Y150076D01*
X473306Y150069D01*
X473326D01*
X473339Y150066D01*
X473343D01*
X473409Y150056D01*
X473466Y150049D01*
X473513Y150042D01*
X473553Y150032D01*
X473582Y150029D01*
X473606Y150022D01*
X473619Y150019D01*
X473622D01*
X473669Y150006D01*
X473712Y149989D01*
X473749Y149972D01*
X473782Y149956D01*
X473809Y149939D01*
X473832Y149926D01*
X473845Y149919D01*
X473849Y149916D01*
X473885Y149889D01*
X473915Y149859D01*
X473945Y149829D01*
X473969Y149802D01*
X473985Y149776D01*
X474002Y149756D01*
X474009Y149743D01*
X474012Y149736D01*
X474032Y149693D01*
X474045Y149649D01*
X474059Y149606D01*
X474065Y149569D01*
X474069Y149536D01*
X474072Y149510D01*
Y149493D01*
Y149486D01*
X474069Y149443D01*
X474065Y149403D01*
X474045Y149330D01*
X474019Y149266D01*
X473989Y149210D01*
X473959Y149167D01*
X473935Y149133D01*
X473915Y149113D01*
X473912Y149110D01*
X473909Y149107D01*
X473876Y149080D01*
X473842Y149060D01*
X473766Y149023D01*
X473689Y148997D01*
X473612Y148980D01*
X473546Y148967D01*
X473516Y148963D01*
X473489D01*
X473469Y148960D01*
X473439D01*
X473373Y148963D01*
X473309Y148970D01*
X473249Y148980D01*
X473200Y148990D01*
X473156Y149000D01*
X473123Y149010D01*
X473113Y149013D01*
X473103Y149017D01*
X473100Y149020D01*
X473096D01*
X473036Y149047D01*
X472973Y149080D01*
X472916Y149117D01*
X472866Y149150D01*
X472820Y149183D01*
X472787Y149210D01*
X472773Y149220D01*
X472763Y149226D01*
X472760Y149233D01*
X472757D01*
X472750Y149183D01*
X472740Y149140D01*
X472733Y149100D01*
X472720Y149067D01*
X472713Y149037D01*
X472703Y149017D01*
X472700Y149003D01*
X472697Y149000D01*
X472367D01*
X472387Y149040D01*
X472404Y149080D01*
X472417Y149117D01*
X472430Y149153D01*
X472437Y149180D01*
X472444Y149203D01*
X472447Y149216D01*
Y149223D01*
X472450Y149250D01*
X472454Y149280D01*
Y149316D01*
X472457Y149360D01*
X472460Y149450D01*
Y149543D01*
X472464Y149589D01*
Y149633D01*
Y149673D01*
Y149706D01*
Y149736D01*
Y149756D01*
Y149773D01*
Y149776D01*
Y150196D01*
Y150269D01*
X472467Y150329D01*
X472470Y150379D01*
Y150419D01*
X472473Y150449D01*
X472477Y150469D01*
X472480Y150482D01*
Y150485D01*
X472494Y150532D01*
X472507Y150572D01*
X472523Y150608D01*
X472540Y150638D01*
X472557Y150662D01*
X472570Y150682D01*
X472577Y150692D01*
X472580Y150695D01*
X472610Y150725D01*
X472643Y150755D01*
X472680Y150778D01*
X472717Y150798D01*
X472750Y150815D01*
X472777Y150828D01*
X472793Y150835D01*
X472797Y150838D01*
X472800D01*
X472860Y150858D01*
X472920Y150872D01*
X472986Y150881D01*
X473046Y150888D01*
X473100Y150891D01*
X473123Y150895D01*
X473183D01*
X473269Y150891D01*
D02*
G37*
G36*
X471924Y151311D02*
Y150855D01*
X472157D01*
Y150612D01*
X471924D01*
Y149543D01*
Y149493D01*
X471921Y149446D01*
Y149403D01*
X471917Y149366D01*
X471914Y149330D01*
X471911Y149300D01*
X471907Y149273D01*
X471904Y149250D01*
X471898Y149213D01*
X471894Y149190D01*
X471887Y149173D01*
Y149170D01*
X471871Y149140D01*
X471851Y149113D01*
X471828Y149087D01*
X471804Y149067D01*
X471784Y149050D01*
X471771Y149040D01*
X471758Y149033D01*
X471754Y149030D01*
X471718Y149013D01*
X471674Y149000D01*
X471631Y148990D01*
X471588Y148983D01*
X471551Y148980D01*
X471518Y148977D01*
X471491D01*
X471408Y148980D01*
X471368Y148987D01*
X471331Y148990D01*
X471298Y148997D01*
X471275Y149000D01*
X471258Y149003D01*
X471251D01*
X471295Y149280D01*
X471325Y149276D01*
X471351Y149273D01*
X471378D01*
X471398Y149270D01*
X471435D01*
X471481Y149273D01*
X471515Y149280D01*
X471528Y149283D01*
X471538Y149286D01*
X471541Y149290D01*
X471545D01*
X471568Y149310D01*
X471584Y149330D01*
X471594Y149343D01*
X471598Y149350D01*
X471601Y149370D01*
X471604Y149393D01*
X471608Y149423D01*
Y149453D01*
X471611Y149479D01*
Y149503D01*
Y149520D01*
Y149526D01*
Y150612D01*
X471295D01*
Y150855D01*
X471611D01*
Y151501D01*
X471924Y151311D01*
D02*
G37*
G36*
X481827Y150891D02*
X481894Y150885D01*
X481957Y150872D01*
X482017Y150855D01*
X482071Y150835D01*
X482124Y150812D01*
X482170Y150788D01*
X482214Y150765D01*
X482250Y150742D01*
X482284Y150718D01*
X482314Y150695D01*
X482337Y150675D01*
X482357Y150658D01*
X482370Y150645D01*
X482377Y150638D01*
X482380Y150635D01*
X482424Y150585D01*
X482460Y150532D01*
X482490Y150472D01*
X482520Y150412D01*
X482544Y150352D01*
X482560Y150292D01*
X482577Y150232D01*
X482590Y150175D01*
X482600Y150122D01*
X482607Y150072D01*
X482613Y150026D01*
X482617Y149986D01*
Y149956D01*
X482620Y149929D01*
Y149916D01*
Y149909D01*
X482617Y149826D01*
X482610Y149749D01*
X482597Y149679D01*
X482583Y149609D01*
X482567Y149549D01*
X482547Y149489D01*
X482523Y149440D01*
X482500Y149390D01*
X482480Y149350D01*
X482457Y149313D01*
X482437Y149283D01*
X482420Y149256D01*
X482407Y149236D01*
X482394Y149223D01*
X482387Y149213D01*
X482384Y149210D01*
X482337Y149167D01*
X482287Y149127D01*
X482234Y149093D01*
X482181Y149067D01*
X482127Y149040D01*
X482074Y149020D01*
X482021Y149003D01*
X481971Y148990D01*
X481924Y148980D01*
X481878Y148973D01*
X481838Y148967D01*
X481804Y148963D01*
X481778D01*
X481754Y148960D01*
X481738D01*
X481678Y148963D01*
X481621Y148967D01*
X481518Y148983D01*
X481471Y148997D01*
X481428Y149010D01*
X481388Y149023D01*
X481351Y149040D01*
X481318Y149053D01*
X481291Y149067D01*
X481265Y149080D01*
X481245Y149093D01*
X481228Y149103D01*
X481218Y149110D01*
X481212Y149117D01*
X481208D01*
X481138Y149180D01*
X481078Y149253D01*
X481028Y149326D01*
X480988Y149396D01*
X480962Y149460D01*
X480948Y149489D01*
X480942Y149513D01*
X480932Y149533D01*
X480928Y149546D01*
X480925Y149556D01*
Y149559D01*
X481251Y149603D01*
X481278Y149533D01*
X481311Y149473D01*
X481345Y149420D01*
X481375Y149380D01*
X481401Y149350D01*
X481425Y149326D01*
X481438Y149313D01*
X481445Y149310D01*
X481491Y149280D01*
X481541Y149256D01*
X481591Y149243D01*
X481634Y149230D01*
X481678Y149223D01*
X481708Y149220D01*
X481738D01*
X481781Y149223D01*
X481821Y149226D01*
X481897Y149246D01*
X481964Y149270D01*
X482021Y149300D01*
X482064Y149330D01*
X482101Y149356D01*
X482111Y149366D01*
X482121Y149373D01*
X482124Y149376D01*
X482127Y149380D01*
X482154Y149413D01*
X482177Y149446D01*
X482217Y149520D01*
X482247Y149596D01*
X482270Y149673D01*
X482284Y149739D01*
X482287Y149769D01*
X482290Y149796D01*
X482294Y149816D01*
X482297Y149832D01*
Y149843D01*
Y149846D01*
X480915D01*
X480912Y149882D01*
Y149909D01*
Y149922D01*
Y149929D01*
X480915Y150012D01*
X480922Y150092D01*
X480935Y150165D01*
X480948Y150235D01*
X480965Y150299D01*
X480985Y150355D01*
X481008Y150409D01*
X481028Y150459D01*
X481052Y150502D01*
X481075Y150539D01*
X481095Y150568D01*
X481112Y150595D01*
X481125Y150615D01*
X481138Y150628D01*
X481145Y150638D01*
X481148Y150642D01*
X481195Y150685D01*
X481241Y150725D01*
X481291Y150758D01*
X481345Y150788D01*
X481395Y150812D01*
X481445Y150831D01*
X481495Y150852D01*
X481541Y150865D01*
X481584Y150875D01*
X481628Y150881D01*
X481664Y150888D01*
X481694Y150891D01*
X481721Y150895D01*
X481758D01*
X481827Y150891D01*
D02*
G37*
G36*
X486000Y149000D02*
X485640D01*
Y149360D01*
X486000D01*
Y149000D01*
D02*
G37*
G36*
X485058D02*
X484135D01*
X484052Y149003D01*
X483972Y149007D01*
X483902Y149013D01*
X483842Y149023D01*
X483792Y149030D01*
X483772Y149033D01*
X483756Y149037D01*
X483742Y149040D01*
X483732D01*
X483729Y149043D01*
X483726D01*
X483662Y149060D01*
X483602Y149080D01*
X483549Y149103D01*
X483506Y149123D01*
X483469Y149140D01*
X483443Y149156D01*
X483426Y149167D01*
X483419Y149170D01*
X483373Y149206D01*
X483326Y149243D01*
X483286Y149283D01*
X483253Y149320D01*
X483223Y149353D01*
X483203Y149380D01*
X483186Y149396D01*
X483183Y149403D01*
X483146Y149460D01*
X483110Y149523D01*
X483080Y149586D01*
X483056Y149646D01*
X483036Y149696D01*
X483030Y149719D01*
X483023Y149739D01*
X483016Y149753D01*
X483013Y149766D01*
X483010Y149773D01*
Y149776D01*
X482986Y149863D01*
X482970Y149952D01*
X482956Y150039D01*
X482950Y150119D01*
X482946Y150155D01*
X482943Y150189D01*
Y150219D01*
X482940Y150242D01*
Y150265D01*
Y150279D01*
Y150289D01*
Y150292D01*
X482943Y150415D01*
X482956Y150532D01*
X482963Y150585D01*
X482973Y150635D01*
X482983Y150682D01*
X482990Y150725D01*
X483000Y150765D01*
X483010Y150798D01*
X483020Y150828D01*
X483026Y150855D01*
X483033Y150875D01*
X483040Y150888D01*
X483043Y150898D01*
Y150901D01*
X483083Y150998D01*
X483133Y151081D01*
X483183Y151158D01*
X483233Y151221D01*
X483256Y151248D01*
X483276Y151271D01*
X483296Y151291D01*
X483313Y151308D01*
X483326Y151321D01*
X483336Y151331D01*
X483343Y151334D01*
X483346Y151338D01*
X483406Y151384D01*
X483469Y151424D01*
X483532Y151454D01*
X483592Y151481D01*
X483642Y151497D01*
X483666Y151504D01*
X483686Y151511D01*
X483699Y151514D01*
X483712Y151517D01*
X483719Y151521D01*
X483722D01*
X483785Y151534D01*
X483859Y151544D01*
X483935Y151551D01*
X484009Y151557D01*
X484072D01*
X484102Y151561D01*
X485058D01*
Y149000D01*
D02*
G37*
G36*
X478737D02*
X478424D01*
Y150855D01*
X478737D01*
Y149000D01*
D02*
G37*
G36*
X475154Y150891D02*
X475221Y150881D01*
X475281Y150868D01*
X475337Y150848D01*
X475391Y150825D01*
X475437Y150798D01*
X475481Y150772D01*
X475521Y150742D01*
X475557Y150712D01*
X475587Y150685D01*
X475610Y150658D01*
X475634Y150635D01*
X475650Y150618D01*
X475660Y150602D01*
X475667Y150592D01*
X475670Y150588D01*
Y150855D01*
X475953D01*
Y149000D01*
X475640D01*
Y150009D01*
X475637Y150072D01*
X475634Y150132D01*
X475627Y150186D01*
X475617Y150235D01*
X475607Y150279D01*
X475594Y150319D01*
X475580Y150352D01*
X475567Y150385D01*
X475554Y150412D01*
X475544Y150432D01*
X475530Y150452D01*
X475521Y150465D01*
X475511Y150478D01*
X475504Y150485D01*
X475497Y150492D01*
X475441Y150535D01*
X475381Y150568D01*
X475321Y150592D01*
X475267Y150605D01*
X475221Y150615D01*
X475181Y150618D01*
X475168Y150622D01*
X475147D01*
X475104Y150618D01*
X475061Y150612D01*
X475024Y150602D01*
X474994Y150592D01*
X474968Y150582D01*
X474948Y150572D01*
X474934Y150565D01*
X474931Y150562D01*
X474898Y150539D01*
X474871Y150515D01*
X474848Y150488D01*
X474831Y150465D01*
X474818Y150442D01*
X474808Y150425D01*
X474801Y150412D01*
Y150409D01*
X474788Y150369D01*
X474778Y150325D01*
X474771Y150279D01*
X474765Y150232D01*
Y150192D01*
X474761Y150155D01*
Y150142D01*
Y150136D01*
Y150129D01*
Y150126D01*
Y149000D01*
X474448D01*
Y150139D01*
Y150215D01*
X474452Y150279D01*
X474455Y150329D01*
X474458Y150372D01*
X474462Y150402D01*
X474465Y150425D01*
X474468Y150439D01*
Y150442D01*
X474481Y150492D01*
X474495Y150535D01*
X474511Y150575D01*
X474525Y150608D01*
X474542Y150638D01*
X474555Y150658D01*
X474561Y150672D01*
X474565Y150675D01*
X474595Y150708D01*
X474628Y150742D01*
X474661Y150768D01*
X474695Y150788D01*
X474728Y150808D01*
X474751Y150821D01*
X474768Y150828D01*
X474775Y150831D01*
X474828Y150852D01*
X474881Y150868D01*
X474934Y150878D01*
X474981Y150888D01*
X475024Y150891D01*
X475054Y150895D01*
X475084D01*
X475154Y150891D01*
D02*
G37*
G36*
X468358D02*
X468394Y150885D01*
X468431Y150875D01*
X468461Y150865D01*
X468484Y150852D01*
X468504Y150841D01*
X468517Y150835D01*
X468521Y150831D01*
X468554Y150802D01*
X468591Y150765D01*
X468624Y150722D01*
X468654Y150675D01*
X468677Y150635D01*
X468701Y150602D01*
X468707Y150588D01*
X468714Y150578D01*
X468717Y150572D01*
Y150855D01*
X469000D01*
Y149000D01*
X468687D01*
Y149966D01*
X468684Y150039D01*
X468681Y150109D01*
X468671Y150169D01*
X468661Y150225D01*
X468654Y150269D01*
X468644Y150302D01*
X468641Y150315D01*
Y150325D01*
X468637Y150329D01*
Y150332D01*
X468621Y150372D01*
X468604Y150405D01*
X468584Y150435D01*
X468564Y150459D01*
X468547Y150478D01*
X468534Y150495D01*
X468524Y150502D01*
X468521Y150505D01*
X468488Y150525D01*
X468458Y150542D01*
X468424Y150552D01*
X468398Y150562D01*
X468371Y150565D01*
X468351Y150568D01*
X468334D01*
X468291Y150565D01*
X468248Y150558D01*
X468208Y150549D01*
X468175Y150535D01*
X468145Y150522D01*
X468121Y150512D01*
X468108Y150505D01*
X468101Y150502D01*
X467991Y150792D01*
X468055Y150825D01*
X468111Y150852D01*
X468168Y150868D01*
X468218Y150881D01*
X468258Y150888D01*
X468291Y150895D01*
X468318D01*
X468358Y150891D01*
D02*
G37*
G36*
X480019Y150888D02*
X480066Y150881D01*
X480106Y150875D01*
X480142Y150868D01*
X480166Y150862D01*
X480183Y150858D01*
X480189Y150855D01*
X480232Y150841D01*
X480272Y150825D01*
X480309Y150812D01*
X480336Y150795D01*
X480359Y150785D01*
X480376Y150775D01*
X480386Y150768D01*
X480389Y150765D01*
X480422Y150738D01*
X480452Y150708D01*
X480479Y150678D01*
X480502Y150652D01*
X480519Y150625D01*
X480532Y150605D01*
X480539Y150592D01*
X480542Y150588D01*
X480562Y150549D01*
X480575Y150508D01*
X480585Y150469D01*
X480592Y150435D01*
X480595Y150402D01*
X480599Y150379D01*
Y150365D01*
Y150359D01*
X480595Y150309D01*
X480589Y150262D01*
X480579Y150219D01*
X480565Y150182D01*
X480552Y150152D01*
X480542Y150129D01*
X480536Y150116D01*
X480532Y150109D01*
X480502Y150069D01*
X480472Y150036D01*
X480436Y150006D01*
X480406Y149982D01*
X480376Y149962D01*
X480352Y149949D01*
X480336Y149939D01*
X480329Y149936D01*
X480302Y149922D01*
X480269Y149912D01*
X480236Y149899D01*
X480199Y149886D01*
X480119Y149859D01*
X480039Y149836D01*
X479966Y149816D01*
X479933Y149806D01*
X479906Y149799D01*
X479883Y149793D01*
X479866Y149786D01*
X479853Y149783D01*
X479849D01*
X479803Y149773D01*
X479763Y149759D01*
X479723Y149749D01*
X479690Y149739D01*
X479660Y149729D01*
X479633Y149723D01*
X479613Y149716D01*
X479593Y149706D01*
X479560Y149696D01*
X479540Y149686D01*
X479530Y149683D01*
X479527Y149679D01*
X479496Y149653D01*
X479473Y149626D01*
X479457Y149599D01*
X479443Y149573D01*
X479437Y149549D01*
X479433Y149530D01*
Y149516D01*
Y149513D01*
X479437Y149469D01*
X479450Y149430D01*
X479466Y149396D01*
X479487Y149366D01*
X479506Y149340D01*
X479523Y149323D01*
X479536Y149310D01*
X479540Y149306D01*
X479583Y149276D01*
X479636Y149256D01*
X479690Y149240D01*
X479740Y149230D01*
X479789Y149223D01*
X479826Y149220D01*
X479863D01*
X479939Y149223D01*
X480006Y149236D01*
X480063Y149250D01*
X480113Y149270D01*
X480149Y149286D01*
X480176Y149303D01*
X480193Y149313D01*
X480199Y149316D01*
X480239Y149356D01*
X480272Y149403D01*
X480296Y149450D01*
X480316Y149496D01*
X480329Y149539D01*
X480336Y149573D01*
X480339Y149586D01*
X480342Y149596D01*
Y149599D01*
Y149603D01*
X480652Y149553D01*
X480642Y149499D01*
X480629Y149450D01*
X480612Y149403D01*
X480592Y149360D01*
X480575Y149320D01*
X480555Y149283D01*
X480532Y149250D01*
X480512Y149220D01*
X480492Y149193D01*
X480476Y149170D01*
X480459Y149150D01*
X480442Y149133D01*
X480429Y149123D01*
X480419Y149113D01*
X480416Y149110D01*
X480412Y149107D01*
X480376Y149080D01*
X480332Y149060D01*
X480246Y149023D01*
X480153Y148997D01*
X480066Y148980D01*
X480023Y148973D01*
X479983Y148967D01*
X479949Y148963D01*
X479919D01*
X479893Y148960D01*
X479859D01*
X479780Y148963D01*
X479706Y148970D01*
X479640Y148983D01*
X479583Y148997D01*
X479536Y149010D01*
X479500Y149023D01*
X479487Y149027D01*
X479476Y149030D01*
X479473Y149033D01*
X479470D01*
X479410Y149063D01*
X479357Y149100D01*
X479310Y149133D01*
X479270Y149170D01*
X479243Y149200D01*
X479220Y149223D01*
X479207Y149240D01*
X479204Y149246D01*
X479174Y149300D01*
X479150Y149353D01*
X479134Y149403D01*
X479120Y149450D01*
X479114Y149489D01*
X479110Y149520D01*
Y149539D01*
Y149543D01*
Y149546D01*
X479114Y149603D01*
X479123Y149656D01*
X479134Y149699D01*
X479147Y149739D01*
X479164Y149769D01*
X479174Y149793D01*
X479183Y149809D01*
X479187Y149812D01*
X479217Y149853D01*
X479253Y149886D01*
X479287Y149912D01*
X479320Y149936D01*
X479350Y149956D01*
X479373Y149969D01*
X479390Y149976D01*
X479397Y149979D01*
X479423Y149989D01*
X479453Y150002D01*
X479523Y150026D01*
X479600Y150049D01*
X479676Y150072D01*
X479746Y150092D01*
X479780Y150099D01*
X479806Y150109D01*
X479826Y150116D01*
X479846Y150119D01*
X479856Y150122D01*
X479859D01*
X479899Y150132D01*
X479936Y150145D01*
X479969Y150152D01*
X479999Y150162D01*
X480026Y150169D01*
X480049Y150175D01*
X480086Y150186D01*
X480113Y150192D01*
X480129Y150199D01*
X480136Y150202D01*
X480139D01*
X480166Y150215D01*
X480193Y150229D01*
X480212Y150242D01*
X480229Y150255D01*
X480242Y150269D01*
X480252Y150279D01*
X480256Y150282D01*
X480259Y150285D01*
X480272Y150305D01*
X480279Y150325D01*
X480292Y150359D01*
Y150375D01*
X480296Y150385D01*
Y150392D01*
Y150395D01*
X480292Y150432D01*
X480282Y150462D01*
X480266Y150492D01*
X480249Y150515D01*
X480236Y150535D01*
X480219Y150549D01*
X480209Y150558D01*
X480206Y150562D01*
X480166Y150585D01*
X480119Y150605D01*
X480066Y150618D01*
X480016Y150625D01*
X479969Y150632D01*
X479933Y150635D01*
X479896D01*
X479830Y150632D01*
X479773Y150622D01*
X479723Y150608D01*
X479683Y150595D01*
X479650Y150578D01*
X479630Y150565D01*
X479613Y150555D01*
X479610Y150552D01*
X479576Y150519D01*
X479550Y150485D01*
X479527Y150449D01*
X479510Y150412D01*
X479500Y150382D01*
X479493Y150355D01*
X479487Y150339D01*
Y150332D01*
X479180Y150375D01*
X479193Y150439D01*
X479210Y150495D01*
X479227Y150542D01*
X479247Y150582D01*
X479263Y150615D01*
X479277Y150638D01*
X479287Y150655D01*
X479290Y150658D01*
X479323Y150698D01*
X479363Y150732D01*
X479403Y150762D01*
X479443Y150785D01*
X479480Y150805D01*
X479510Y150821D01*
X479530Y150828D01*
X479533Y150831D01*
X479536D01*
X479600Y150852D01*
X479663Y150868D01*
X479730Y150878D01*
X479786Y150888D01*
X479840Y150891D01*
X479859D01*
X479880Y150895D01*
X479969D01*
X480019Y150888D01*
D02*
G37*
G36*
X470299Y150891D02*
X470359Y150885D01*
X470416Y150875D01*
X470472Y150862D01*
X470522Y150848D01*
X470572Y150828D01*
X470615Y150812D01*
X470655Y150792D01*
X470692Y150772D01*
X470725Y150755D01*
X470752Y150735D01*
X470775Y150722D01*
X470795Y150708D01*
X470809Y150698D01*
X470815Y150692D01*
X470819Y150688D01*
X470868Y150638D01*
X470912Y150585D01*
X470948Y150525D01*
X470982Y150465D01*
X471008Y150402D01*
X471032Y150339D01*
X471052Y150275D01*
X471065Y150212D01*
X471078Y150155D01*
X471085Y150102D01*
X471092Y150052D01*
X471098Y150009D01*
Y149976D01*
X471102Y149949D01*
Y149932D01*
Y149926D01*
X471098Y149839D01*
X471092Y149759D01*
X471078Y149686D01*
X471065Y149616D01*
X471045Y149549D01*
X471025Y149493D01*
X471005Y149440D01*
X470982Y149390D01*
X470958Y149346D01*
X470938Y149310D01*
X470918Y149280D01*
X470898Y149253D01*
X470885Y149233D01*
X470872Y149220D01*
X470865Y149210D01*
X470862Y149206D01*
X470815Y149163D01*
X470765Y149127D01*
X470715Y149093D01*
X470662Y149063D01*
X470609Y149040D01*
X470559Y149020D01*
X470509Y149003D01*
X470459Y148990D01*
X470412Y148980D01*
X470369Y148973D01*
X470332Y148967D01*
X470299Y148963D01*
X470272D01*
X470252Y148960D01*
X470236D01*
X470146Y148963D01*
X470063Y148977D01*
X469986Y148997D01*
X469923Y149017D01*
X469866Y149037D01*
X469843Y149047D01*
X469826Y149057D01*
X469809Y149063D01*
X469800Y149070D01*
X469793Y149073D01*
X469790D01*
X469716Y149120D01*
X469653Y149170D01*
X469600Y149223D01*
X469557Y149273D01*
X469520Y149320D01*
X469496Y149356D01*
X469487Y149370D01*
X469480Y149380D01*
X469477Y149386D01*
Y149390D01*
X469457Y149430D01*
X469440Y149473D01*
X469413Y149566D01*
X469393Y149659D01*
X469380Y149749D01*
X469377Y149789D01*
X469373Y149829D01*
X469370Y149863D01*
X469367Y149892D01*
Y149919D01*
Y149936D01*
Y149949D01*
Y149952D01*
X469370Y150032D01*
X469377Y150109D01*
X469390Y150179D01*
X469403Y150245D01*
X469423Y150309D01*
X469443Y150365D01*
X469467Y150415D01*
X469487Y150462D01*
X469510Y150502D01*
X469533Y150539D01*
X469553Y150572D01*
X469573Y150595D01*
X469586Y150615D01*
X469600Y150632D01*
X469606Y150638D01*
X469610Y150642D01*
X469656Y150685D01*
X469706Y150725D01*
X469756Y150758D01*
X469809Y150788D01*
X469863Y150812D01*
X469916Y150831D01*
X469966Y150852D01*
X470013Y150865D01*
X470059Y150875D01*
X470103Y150881D01*
X470139Y150888D01*
X470173Y150891D01*
X470199Y150895D01*
X470236D01*
X470299Y150891D01*
D02*
G37*
G36*
X600722Y376626D02*
X600732Y376619D01*
X600746Y376606D01*
X600766Y376586D01*
X600792Y376566D01*
X600826Y376539D01*
X600862Y376509D01*
X600902Y376476D01*
X600949Y376439D01*
X601002Y376403D01*
X601059Y376363D01*
X601122Y376320D01*
X601185Y376276D01*
X601258Y376233D01*
X601332Y376190D01*
X601412Y376143D01*
X601415Y376140D01*
X601432Y376133D01*
X601455Y376120D01*
X601485Y376103D01*
X601525Y376083D01*
X601571Y376063D01*
X601625Y376037D01*
X601685Y376010D01*
X601748Y375980D01*
X601818Y375950D01*
X601891Y375920D01*
X601968Y375890D01*
X602128Y375830D01*
X602297Y375777D01*
X602301D01*
X602311Y375773D01*
X602331Y375767D01*
X602354Y375760D01*
X602384Y375753D01*
X602421Y375743D01*
X602460Y375737D01*
X602507Y375727D01*
X602557Y375717D01*
X602610Y375704D01*
X602670Y375693D01*
X602730Y375687D01*
X602860Y375670D01*
X603000Y375657D01*
Y375334D01*
X602997D01*
X602987D01*
X602970D01*
X602947Y375337D01*
X602917D01*
X602883Y375341D01*
X602844Y375344D01*
X602797Y375350D01*
X602747Y375357D01*
X602690Y375364D01*
X602630Y375374D01*
X602567Y375384D01*
X602500Y375397D01*
X602427Y375414D01*
X602354Y375430D01*
X602274Y375450D01*
X602267D01*
X602254Y375457D01*
X602231Y375464D01*
X602201Y375470D01*
X602161Y375484D01*
X602118Y375497D01*
X602068Y375514D01*
X602011Y375534D01*
X601948Y375554D01*
X601885Y375580D01*
X601745Y375634D01*
X601598Y375700D01*
X601448Y375773D01*
X601445Y375777D01*
X601432Y375783D01*
X601408Y375793D01*
X601382Y375810D01*
X601348Y375830D01*
X601308Y375853D01*
X601262Y375880D01*
X601215Y375910D01*
X601109Y375976D01*
X600995Y376053D01*
X600882Y376140D01*
X600776Y376226D01*
Y374974D01*
X600472D01*
Y376629D01*
X600719D01*
X600722Y376626D01*
D02*
G37*
G36*
X602018Y374511D02*
X602054D01*
X602098Y374508D01*
X602141Y374505D01*
X602241Y374491D01*
X602344Y374478D01*
X602444Y374455D01*
X602491Y374441D01*
X602534Y374425D01*
X602537D01*
X602544Y374421D01*
X602557Y374415D01*
X602570Y374408D01*
X602590Y374398D01*
X602614Y374385D01*
X602664Y374352D01*
X602724Y374308D01*
X602784Y374255D01*
X602847Y374188D01*
X602877Y374148D01*
X602903Y374108D01*
Y374105D01*
X602910Y374098D01*
X602917Y374085D01*
X602927Y374068D01*
X602937Y374045D01*
X602947Y374019D01*
X602960Y373985D01*
X602973Y373949D01*
X602987Y373909D01*
X603000Y373862D01*
X603010Y373815D01*
X603020Y373762D01*
X603030Y373706D01*
X603037Y373645D01*
X603040Y373579D01*
X603043Y373512D01*
Y373479D01*
X603040Y373452D01*
Y373422D01*
X603037Y373386D01*
X603033Y373346D01*
X603027Y373303D01*
X603013Y373209D01*
X602990Y373113D01*
X602960Y373013D01*
X602920Y372923D01*
Y372920D01*
X602913Y372913D01*
X602907Y372900D01*
X602897Y372886D01*
X602870Y372846D01*
X602830Y372796D01*
X602780Y372743D01*
X602717Y372690D01*
X602647Y372640D01*
X602564Y372597D01*
X602560D01*
X602554Y372593D01*
X602540Y372587D01*
X602521Y372583D01*
X602497Y372573D01*
X602467Y372567D01*
X602434Y372557D01*
X602394Y372550D01*
X602351Y372540D01*
X602304Y372530D01*
X602251Y372523D01*
X602194Y372517D01*
X602131Y372510D01*
X602064Y372503D01*
X601994Y372500D01*
X601921D01*
X600439D01*
Y372840D01*
X601918D01*
X601921D01*
X601931D01*
X601951D01*
X601971D01*
X602001Y372843D01*
X602031D01*
X602068Y372846D01*
X602104D01*
X602184Y372853D01*
X602267Y372866D01*
X602344Y372880D01*
X602377Y372890D01*
X602411Y372900D01*
X602414D01*
X602417Y372903D01*
X602437Y372913D01*
X602464Y372926D01*
X602500Y372950D01*
X602537Y372979D01*
X602580Y373016D01*
X602617Y373059D01*
X602654Y373113D01*
Y373116D01*
X602657Y373119D01*
X602667Y373139D01*
X602680Y373173D01*
X602694Y373216D01*
X602710Y373269D01*
X602724Y373333D01*
X602734Y373402D01*
X602737Y373482D01*
Y373519D01*
X602734Y373542D01*
X602730Y373572D01*
X602727Y373609D01*
X602724Y373649D01*
X602717Y373689D01*
X602697Y373775D01*
X602667Y373865D01*
X602647Y373905D01*
X602624Y373945D01*
X602600Y373982D01*
X602570Y374015D01*
X602567Y374019D01*
X602560Y374022D01*
X602551Y374028D01*
X602537Y374042D01*
X602517Y374052D01*
X602491Y374065D01*
X602460Y374082D01*
X602424Y374095D01*
X602384Y374112D01*
X602337Y374125D01*
X602284Y374138D01*
X602224Y374152D01*
X602157Y374162D01*
X602084Y374168D01*
X602004Y374172D01*
X601918Y374175D01*
X600439D01*
Y374515D01*
X601921D01*
X601924D01*
X601938D01*
X601958D01*
X601984D01*
X602018Y374511D01*
D02*
G37*
G36*
X493165Y326780D02*
X493232Y326777D01*
X493292Y326770D01*
X493349Y326760D01*
X493402Y326750D01*
X493449Y326740D01*
X493495Y326727D01*
X493535Y326713D01*
X493572Y326700D01*
X493605Y326687D01*
X493632Y326677D01*
X493655Y326667D01*
X493672Y326657D01*
X493685Y326650D01*
X493692Y326644D01*
X493695D01*
X493735Y326617D01*
X493775Y326587D01*
X493842Y326524D01*
X493895Y326464D01*
X493938Y326404D01*
X493971Y326354D01*
X493985Y326331D01*
X493995Y326311D01*
X494001Y326297D01*
X494008Y326284D01*
X494011Y326277D01*
Y326274D01*
X494028Y326231D01*
X494041Y326184D01*
X494065Y326084D01*
X494078Y325981D01*
X494091Y325881D01*
X494095Y325838D01*
X494098Y325794D01*
Y325758D01*
X494101Y325725D01*
Y325698D01*
Y325678D01*
Y325665D01*
Y325661D01*
Y324179D01*
X493762D01*
Y325658D01*
X493758Y325745D01*
X493755Y325824D01*
X493748Y325898D01*
X493738Y325964D01*
X493725Y326024D01*
X493712Y326078D01*
X493698Y326124D01*
X493682Y326164D01*
X493668Y326201D01*
X493652Y326231D01*
X493638Y326257D01*
X493628Y326277D01*
X493615Y326291D01*
X493608Y326301D01*
X493605Y326307D01*
X493602Y326311D01*
X493569Y326341D01*
X493532Y326364D01*
X493492Y326387D01*
X493452Y326407D01*
X493362Y326437D01*
X493275Y326457D01*
X493235Y326464D01*
X493195Y326467D01*
X493159Y326470D01*
X493129Y326474D01*
X493106Y326477D01*
X493069D01*
X492989Y326474D01*
X492919Y326464D01*
X492856Y326450D01*
X492803Y326434D01*
X492759Y326420D01*
X492726Y326407D01*
X492706Y326397D01*
X492703Y326394D01*
X492699D01*
X492646Y326357D01*
X492603Y326321D01*
X492566Y326277D01*
X492536Y326241D01*
X492513Y326204D01*
X492499Y326177D01*
X492489Y326157D01*
X492486Y326154D01*
Y326151D01*
X492476Y326117D01*
X492466Y326084D01*
X492453Y326008D01*
X492440Y325924D01*
X492433Y325844D01*
Y325808D01*
X492430Y325771D01*
Y325741D01*
X492426Y325711D01*
Y325691D01*
Y325671D01*
Y325661D01*
Y325658D01*
Y324179D01*
X492087D01*
Y325661D01*
Y325734D01*
X492090Y325804D01*
X492097Y325871D01*
X492103Y325934D01*
X492110Y325991D01*
X492117Y326044D01*
X492127Y326091D01*
X492137Y326134D01*
X492143Y326174D01*
X492153Y326207D01*
X492160Y326237D01*
X492170Y326261D01*
X492173Y326281D01*
X492180Y326294D01*
X492183Y326301D01*
Y326304D01*
X492227Y326387D01*
X492276Y326457D01*
X492330Y326520D01*
X492383Y326570D01*
X492433Y326610D01*
X492473Y326637D01*
X492486Y326647D01*
X492499Y326654D01*
X492506Y326660D01*
X492510D01*
X492599Y326700D01*
X492699Y326730D01*
X492796Y326753D01*
X492889Y326767D01*
X492932Y326774D01*
X492972Y326777D01*
X493009Y326780D01*
X493039D01*
X493066Y326783D01*
X493099D01*
X493165Y326780D01*
D02*
G37*
G36*
X495450D02*
X495513Y326774D01*
X495576Y326764D01*
X495633Y326747D01*
X495690Y326730D01*
X495740Y326713D01*
X495783Y326694D01*
X495826Y326670D01*
X495863Y326650D01*
X495896Y326630D01*
X495923Y326614D01*
X495946Y326594D01*
X495966Y326580D01*
X495979Y326570D01*
X495986Y326564D01*
X495989Y326560D01*
X496029Y326517D01*
X496066Y326474D01*
X496096Y326427D01*
X496126Y326380D01*
X496146Y326334D01*
X496166Y326287D01*
X496182Y326244D01*
X496193Y326201D01*
X496203Y326161D01*
X496209Y326127D01*
X496216Y326094D01*
X496219Y326064D01*
X496222Y326041D01*
Y326024D01*
Y326014D01*
Y326011D01*
X496216Y325924D01*
X496203Y325844D01*
X496182Y325775D01*
X496163Y325714D01*
X496139Y325668D01*
X496129Y325648D01*
X496119Y325631D01*
X496109Y325618D01*
X496106Y325608D01*
X496099Y325605D01*
Y325601D01*
X496049Y325541D01*
X495993Y325491D01*
X495933Y325448D01*
X495873Y325415D01*
X495820Y325388D01*
X495800Y325378D01*
X495780Y325368D01*
X495763Y325361D01*
X495750Y325358D01*
X495743Y325355D01*
X495740D01*
X495806Y325325D01*
X495863Y325292D01*
X495913Y325258D01*
X495953Y325225D01*
X495983Y325195D01*
X496006Y325172D01*
X496019Y325158D01*
X496023Y325152D01*
X496056Y325098D01*
X496079Y325045D01*
X496096Y324995D01*
X496106Y324945D01*
X496116Y324902D01*
X496119Y324869D01*
Y324855D01*
Y324845D01*
Y324842D01*
Y324839D01*
X496116Y324789D01*
X496109Y324739D01*
X496099Y324692D01*
X496086Y324646D01*
X496053Y324566D01*
X496016Y324496D01*
X495996Y324469D01*
X495979Y324443D01*
X495959Y324419D01*
X495946Y324399D01*
X495933Y324386D01*
X495923Y324376D01*
X495916Y324369D01*
X495913Y324366D01*
X495873Y324333D01*
X495833Y324299D01*
X495786Y324276D01*
X495743Y324253D01*
X495696Y324233D01*
X495653Y324216D01*
X495567Y324193D01*
X495527Y324186D01*
X495490Y324179D01*
X495457Y324176D01*
X495430Y324173D01*
X495407Y324169D01*
X495373D01*
X495313Y324173D01*
X495253Y324176D01*
X495200Y324186D01*
X495150Y324199D01*
X495104Y324213D01*
X495057Y324229D01*
X495017Y324249D01*
X494984Y324266D01*
X494950Y324283D01*
X494920Y324303D01*
X494897Y324319D01*
X494877Y324333D01*
X494861Y324346D01*
X494850Y324353D01*
X494844Y324359D01*
X494840Y324362D01*
X494804Y324399D01*
X494774Y324436D01*
X494747Y324476D01*
X494724Y324516D01*
X494707Y324556D01*
X494691Y324596D01*
X494667Y324669D01*
X494651Y324732D01*
X494647Y324762D01*
X494644Y324785D01*
X494641Y324805D01*
Y324819D01*
Y324829D01*
Y324832D01*
X494644Y324899D01*
X494654Y324959D01*
X494671Y325012D01*
X494687Y325059D01*
X494704Y325095D01*
X494721Y325125D01*
X494731Y325142D01*
X494734Y325148D01*
X494774Y325195D01*
X494817Y325238D01*
X494867Y325272D01*
X494914Y325302D01*
X494957Y325325D01*
X494990Y325342D01*
X495004Y325348D01*
X495014Y325352D01*
X495020Y325355D01*
X495024D01*
X494940Y325381D01*
X494871Y325415D01*
X494807Y325455D01*
X494757Y325491D01*
X494717Y325528D01*
X494687Y325558D01*
X494671Y325578D01*
X494664Y325581D01*
Y325585D01*
X494621Y325651D01*
X494591Y325721D01*
X494567Y325788D01*
X494554Y325854D01*
X494544Y325914D01*
X494541Y325938D01*
Y325958D01*
X494537Y325978D01*
Y325991D01*
Y325998D01*
Y326001D01*
X494541Y326061D01*
X494548Y326121D01*
X494558Y326177D01*
X494574Y326231D01*
X494591Y326281D01*
X494611Y326327D01*
X494631Y326367D01*
X494654Y326407D01*
X494674Y326441D01*
X494694Y326470D01*
X494714Y326497D01*
X494731Y326520D01*
X494747Y326537D01*
X494757Y326550D01*
X494764Y326557D01*
X494767Y326560D01*
X494814Y326600D01*
X494861Y326634D01*
X494910Y326664D01*
X494960Y326690D01*
X495014Y326710D01*
X495064Y326730D01*
X495160Y326757D01*
X495207Y326764D01*
X495247Y326770D01*
X495283Y326777D01*
X495317Y326780D01*
X495343Y326783D01*
X495380D01*
X495450Y326780D01*
D02*
G37*
G36*
X368272Y299644D02*
X368305Y299641D01*
X368345Y299637D01*
X368389Y299631D01*
X368435Y299624D01*
X368535Y299601D01*
X368588Y299584D01*
X368645Y299564D01*
X368698Y299541D01*
X368752Y299517D01*
X368805Y299484D01*
X368855Y299451D01*
X368858Y299448D01*
X368865Y299441D01*
X368881Y299431D01*
X368898Y299414D01*
X368918Y299394D01*
X368945Y299371D01*
X368971Y299341D01*
X369001Y299308D01*
X369031Y299271D01*
X369061Y299231D01*
X369091Y299184D01*
X369121Y299138D01*
X369151Y299085D01*
X369178Y299028D01*
X369204Y298965D01*
X369224Y298901D01*
X368891Y298821D01*
Y298825D01*
X368888Y298835D01*
X368881Y298848D01*
X368875Y298868D01*
X368865Y298891D01*
X368855Y298918D01*
X368825Y298978D01*
X368788Y299045D01*
X368745Y299111D01*
X368692Y299174D01*
X368662Y299201D01*
X368632Y299228D01*
X368628D01*
X368625Y299234D01*
X368615Y299241D01*
X368602Y299248D01*
X368585Y299258D01*
X368565Y299268D01*
X368515Y299294D01*
X368452Y299318D01*
X368379Y299338D01*
X368295Y299351D01*
X368202Y299358D01*
X368172D01*
X368152Y299354D01*
X368129D01*
X368099Y299351D01*
X368066Y299344D01*
X368029Y299341D01*
X367952Y299324D01*
X367869Y299298D01*
X367786Y299261D01*
X367746Y299241D01*
X367706Y299214D01*
X367703D01*
X367696Y299208D01*
X367686Y299201D01*
X367673Y299188D01*
X367639Y299158D01*
X367599Y299115D01*
X367553Y299061D01*
X367506Y298995D01*
X367463Y298921D01*
X367430Y298835D01*
Y298832D01*
X367426Y298825D01*
X367423Y298812D01*
X367416Y298795D01*
X367410Y298772D01*
X367403Y298745D01*
X367396Y298715D01*
X367390Y298685D01*
X367376Y298608D01*
X367363Y298525D01*
X367353Y298435D01*
X367350Y298342D01*
Y298339D01*
Y298329D01*
Y298312D01*
Y298289D01*
X367353Y298259D01*
X367356Y298225D01*
Y298189D01*
X367363Y298149D01*
X367373Y298059D01*
X367390Y297966D01*
X367413Y297866D01*
X367443Y297773D01*
Y297769D01*
X367446Y297763D01*
X367453Y297749D01*
X367463Y297733D01*
X367473Y297713D01*
X367483Y297689D01*
X367516Y297636D01*
X367559Y297576D01*
X367609Y297516D01*
X367669Y297460D01*
X367739Y297410D01*
X367743D01*
X367749Y297403D01*
X367759Y297400D01*
X367776Y297390D01*
X367793Y297383D01*
X367816Y297373D01*
X367869Y297350D01*
X367936Y297326D01*
X368009Y297310D01*
X368089Y297296D01*
X368176Y297290D01*
X368202D01*
X368222Y297293D01*
X368249Y297296D01*
X368275Y297300D01*
X368309Y297303D01*
X368342Y297310D01*
X368419Y297330D01*
X368498Y297360D01*
X368542Y297376D01*
X368582Y297400D01*
X368622Y297423D01*
X368658Y297453D01*
X368662Y297456D01*
X368668Y297460D01*
X368678Y297469D01*
X368692Y297483D01*
X368705Y297499D01*
X368725Y297523D01*
X368745Y297546D01*
X368765Y297576D01*
X368788Y297606D01*
X368811Y297643D01*
X368831Y297683D01*
X368855Y297726D01*
X368875Y297776D01*
X368895Y297826D01*
X368911Y297879D01*
X368928Y297939D01*
X369268Y297852D01*
Y297849D01*
X369261Y297836D01*
X369254Y297813D01*
X369248Y297782D01*
X369234Y297749D01*
X369218Y297709D01*
X369201Y297666D01*
X369178Y297616D01*
X369155Y297566D01*
X369125Y297513D01*
X369095Y297463D01*
X369058Y297410D01*
X369021Y297356D01*
X368978Y297306D01*
X368931Y297260D01*
X368881Y297216D01*
X368878Y297213D01*
X368868Y297206D01*
X368855Y297197D01*
X368831Y297183D01*
X368805Y297166D01*
X368772Y297147D01*
X368735Y297130D01*
X368695Y297110D01*
X368645Y297087D01*
X368595Y297070D01*
X368538Y297050D01*
X368478Y297033D01*
X368415Y297020D01*
X368349Y297010D01*
X368279Y297003D01*
X368205Y297000D01*
X368165D01*
X368135Y297003D01*
X368102Y297007D01*
X368059Y297010D01*
X368016Y297013D01*
X367966Y297020D01*
X367859Y297040D01*
X367746Y297070D01*
X367689Y297090D01*
X367633Y297113D01*
X367579Y297136D01*
X367530Y297166D01*
X367526Y297170D01*
X367519Y297173D01*
X367506Y297183D01*
X367486Y297200D01*
X367466Y297216D01*
X367440Y297236D01*
X367413Y297263D01*
X367383Y297293D01*
X367350Y297323D01*
X367320Y297360D01*
X367286Y297400D01*
X367253Y297446D01*
X367220Y297493D01*
X367190Y297543D01*
X367160Y297599D01*
X367133Y297656D01*
Y297659D01*
X367126Y297669D01*
X367120Y297689D01*
X367113Y297713D01*
X367103Y297743D01*
X367090Y297776D01*
X367080Y297816D01*
X367067Y297863D01*
X367053Y297912D01*
X367043Y297966D01*
X367030Y298022D01*
X367020Y298079D01*
X367007Y298209D01*
X367000Y298342D01*
Y298345D01*
Y298359D01*
Y298382D01*
X367003Y298409D01*
Y298445D01*
X367007Y298485D01*
X367013Y298529D01*
X367020Y298578D01*
X367027Y298632D01*
X367037Y298688D01*
X367063Y298805D01*
X367100Y298921D01*
X367123Y298981D01*
X367150Y299038D01*
X367153Y299041D01*
X367157Y299051D01*
X367166Y299068D01*
X367180Y299088D01*
X367193Y299111D01*
X367213Y299141D01*
X367236Y299171D01*
X367263Y299208D01*
X367323Y299281D01*
X367400Y299354D01*
X367486Y299428D01*
X367536Y299461D01*
X367586Y299491D01*
X367589Y299494D01*
X367599Y299498D01*
X367616Y299504D01*
X367636Y299514D01*
X367663Y299528D01*
X367693Y299541D01*
X367729Y299554D01*
X367769Y299571D01*
X367816Y299584D01*
X367863Y299597D01*
X367969Y299624D01*
X368086Y299641D01*
X368145Y299647D01*
X368245D01*
X368272Y299644D01*
D02*
G37*
G36*
X379251Y298122D02*
Y298119D01*
Y298106D01*
Y298086D01*
Y298059D01*
X379248Y298026D01*
Y297989D01*
X379244Y297946D01*
X379241Y297902D01*
X379228Y297802D01*
X379214Y297699D01*
X379191Y297599D01*
X379178Y297553D01*
X379161Y297510D01*
Y297506D01*
X379158Y297499D01*
X379151Y297486D01*
X379145Y297473D01*
X379134Y297453D01*
X379121Y297430D01*
X379088Y297380D01*
X379045Y297320D01*
X378991Y297260D01*
X378925Y297197D01*
X378885Y297166D01*
X378845Y297140D01*
X378841D01*
X378835Y297133D01*
X378821Y297127D01*
X378805Y297117D01*
X378782Y297107D01*
X378755Y297097D01*
X378722Y297083D01*
X378685Y297070D01*
X378645Y297057D01*
X378598Y297043D01*
X378552Y297033D01*
X378499Y297023D01*
X378442Y297013D01*
X378382Y297007D01*
X378315Y297003D01*
X378249Y297000D01*
X378215D01*
X378189Y297003D01*
X378159D01*
X378122Y297007D01*
X378082Y297010D01*
X378039Y297017D01*
X377946Y297030D01*
X377849Y297053D01*
X377749Y297083D01*
X377659Y297123D01*
X377656D01*
X377649Y297130D01*
X377636Y297136D01*
X377623Y297147D01*
X377583Y297173D01*
X377533Y297213D01*
X377480Y297263D01*
X377426Y297326D01*
X377376Y297396D01*
X377333Y297480D01*
Y297483D01*
X377330Y297490D01*
X377323Y297503D01*
X377320Y297523D01*
X377310Y297546D01*
X377303Y297576D01*
X377293Y297609D01*
X377286Y297649D01*
X377276Y297693D01*
X377266Y297739D01*
X377260Y297793D01*
X377253Y297849D01*
X377246Y297912D01*
X377240Y297979D01*
X377236Y298049D01*
Y298122D01*
Y299604D01*
X377576D01*
Y298126D01*
Y298122D01*
Y298112D01*
Y298092D01*
Y298072D01*
X377579Y298042D01*
Y298012D01*
X377583Y297976D01*
Y297939D01*
X377589Y297859D01*
X377603Y297776D01*
X377616Y297699D01*
X377626Y297666D01*
X377636Y297633D01*
Y297629D01*
X377639Y297626D01*
X377649Y297606D01*
X377663Y297579D01*
X377686Y297543D01*
X377716Y297506D01*
X377753Y297463D01*
X377796Y297426D01*
X377849Y297390D01*
X377853D01*
X377856Y297386D01*
X377876Y297376D01*
X377909Y297363D01*
X377952Y297350D01*
X378006Y297333D01*
X378069Y297320D01*
X378139Y297310D01*
X378219Y297306D01*
X378255D01*
X378279Y297310D01*
X378309Y297313D01*
X378345Y297316D01*
X378385Y297320D01*
X378425Y297326D01*
X378512Y297346D01*
X378602Y297376D01*
X378642Y297396D01*
X378682Y297420D01*
X378718Y297443D01*
X378752Y297473D01*
X378755Y297476D01*
X378758Y297483D01*
X378765Y297493D01*
X378778Y297506D01*
X378788Y297526D01*
X378801Y297553D01*
X378818Y297583D01*
X378832Y297619D01*
X378848Y297659D01*
X378861Y297706D01*
X378875Y297759D01*
X378888Y297819D01*
X378898Y297886D01*
X378905Y297959D01*
X378908Y298039D01*
X378911Y298126D01*
Y299604D01*
X379251D01*
Y298122D01*
D02*
G37*
G36*
X371702D02*
Y298119D01*
Y298106D01*
Y298086D01*
Y298059D01*
X371699Y298026D01*
Y297989D01*
X371695Y297946D01*
X371692Y297902D01*
X371679Y297802D01*
X371665Y297699D01*
X371642Y297599D01*
X371629Y297553D01*
X371612Y297510D01*
Y297506D01*
X371609Y297499D01*
X371602Y297486D01*
X371595Y297473D01*
X371585Y297453D01*
X371572Y297430D01*
X371539Y297380D01*
X371496Y297320D01*
X371442Y297260D01*
X371376Y297197D01*
X371336Y297166D01*
X371296Y297140D01*
X371292D01*
X371286Y297133D01*
X371272Y297127D01*
X371256Y297117D01*
X371232Y297107D01*
X371206Y297097D01*
X371172Y297083D01*
X371136Y297070D01*
X371096Y297057D01*
X371049Y297043D01*
X371003Y297033D01*
X370949Y297023D01*
X370893Y297013D01*
X370833Y297007D01*
X370766Y297003D01*
X370700Y297000D01*
X370666D01*
X370640Y297003D01*
X370610D01*
X370573Y297007D01*
X370533Y297010D01*
X370490Y297017D01*
X370397Y297030D01*
X370300Y297053D01*
X370200Y297083D01*
X370110Y297123D01*
X370107D01*
X370100Y297130D01*
X370087Y297136D01*
X370074Y297147D01*
X370034Y297173D01*
X369984Y297213D01*
X369930Y297263D01*
X369877Y297326D01*
X369827Y297396D01*
X369784Y297480D01*
Y297483D01*
X369780Y297490D01*
X369774Y297503D01*
X369771Y297523D01*
X369761Y297546D01*
X369754Y297576D01*
X369744Y297609D01*
X369737Y297649D01*
X369727Y297693D01*
X369717Y297739D01*
X369711Y297793D01*
X369704Y297849D01*
X369697Y297912D01*
X369691Y297979D01*
X369687Y298049D01*
Y298122D01*
Y299604D01*
X370027D01*
Y298126D01*
Y298122D01*
Y298112D01*
Y298092D01*
Y298072D01*
X370030Y298042D01*
Y298012D01*
X370034Y297976D01*
Y297939D01*
X370040Y297859D01*
X370054Y297776D01*
X370067Y297699D01*
X370077Y297666D01*
X370087Y297633D01*
Y297629D01*
X370090Y297626D01*
X370100Y297606D01*
X370113Y297579D01*
X370137Y297543D01*
X370167Y297506D01*
X370203Y297463D01*
X370247Y297426D01*
X370300Y297390D01*
X370303D01*
X370307Y297386D01*
X370327Y297376D01*
X370360Y297363D01*
X370403Y297350D01*
X370457Y297333D01*
X370520Y297320D01*
X370590Y297310D01*
X370670Y297306D01*
X370706D01*
X370730Y297310D01*
X370760Y297313D01*
X370796Y297316D01*
X370836Y297320D01*
X370876Y297326D01*
X370963Y297346D01*
X371053Y297376D01*
X371093Y297396D01*
X371132Y297420D01*
X371169Y297443D01*
X371202Y297473D01*
X371206Y297476D01*
X371209Y297483D01*
X371216Y297493D01*
X371229Y297506D01*
X371239Y297526D01*
X371252Y297553D01*
X371269Y297583D01*
X371282Y297619D01*
X371299Y297659D01*
X371312Y297706D01*
X371326Y297759D01*
X371339Y297819D01*
X371349Y297886D01*
X371356Y297959D01*
X371359Y298039D01*
X371362Y298126D01*
Y299604D01*
X371702D01*
Y298122D01*
D02*
G37*
G36*
X381649Y299301D02*
X380806D01*
Y297043D01*
X380467D01*
Y299301D01*
X379624D01*
Y299604D01*
X381649D01*
Y299301D01*
D02*
G37*
G36*
X374100D02*
X373257D01*
Y297043D01*
X372917D01*
Y299301D01*
X372075D01*
Y299604D01*
X374100D01*
Y299301D01*
D02*
G37*
G36*
X375635Y299644D02*
X375665Y299641D01*
X375701Y299637D01*
X375741Y299634D01*
X375788Y299627D01*
X375884Y299607D01*
X375991Y299577D01*
X376048Y299557D01*
X376101Y299534D01*
X376157Y299507D01*
X376211Y299478D01*
X376214Y299474D01*
X376224Y299471D01*
X376237Y299461D01*
X376257Y299448D01*
X376281Y299428D01*
X376311Y299408D01*
X376341Y299384D01*
X376374Y299354D01*
X376407Y299324D01*
X376444Y299288D01*
X376481Y299248D01*
X376517Y299208D01*
X376550Y299161D01*
X376584Y299111D01*
X376647Y299005D01*
X376650Y299001D01*
X376654Y298991D01*
X376660Y298975D01*
X376670Y298951D01*
X376680Y298921D01*
X376694Y298888D01*
X376707Y298848D01*
X376724Y298805D01*
X376737Y298758D01*
X376750Y298705D01*
X376764Y298648D01*
X376774Y298588D01*
X376790Y298459D01*
X376797Y298389D01*
Y298319D01*
Y298315D01*
Y298302D01*
Y298282D01*
X376794Y298252D01*
Y298219D01*
X376790Y298179D01*
X376783Y298135D01*
X376777Y298086D01*
X376767Y298032D01*
X376757Y297976D01*
X376730Y297859D01*
X376690Y297739D01*
X376664Y297679D01*
X376637Y297619D01*
X376634Y297616D01*
X376630Y297606D01*
X376620Y297589D01*
X376607Y297569D01*
X376590Y297543D01*
X376574Y297513D01*
X376550Y297483D01*
X376524Y297446D01*
X376494Y297410D01*
X376461Y297373D01*
X376384Y297296D01*
X376294Y297220D01*
X376244Y297186D01*
X376191Y297157D01*
X376187D01*
X376178Y297150D01*
X376161Y297143D01*
X376141Y297133D01*
X376114Y297120D01*
X376084Y297107D01*
X376048Y297093D01*
X376008Y297080D01*
X375961Y297063D01*
X375914Y297050D01*
X375808Y297023D01*
X375695Y297007D01*
X375635Y297003D01*
X375571Y297000D01*
X375535D01*
X375512Y297003D01*
X375478Y297007D01*
X375442Y297010D01*
X375402Y297013D01*
X375355Y297023D01*
X375255Y297043D01*
X375145Y297073D01*
X375089Y297093D01*
X375035Y297117D01*
X374979Y297143D01*
X374925Y297173D01*
X374922Y297177D01*
X374912Y297180D01*
X374899Y297190D01*
X374879Y297206D01*
X374855Y297223D01*
X374829Y297243D01*
X374799Y297270D01*
X374766Y297296D01*
X374732Y297330D01*
X374696Y297366D01*
X374659Y297406D01*
X374626Y297446D01*
X374556Y297543D01*
X374496Y297649D01*
Y297653D01*
X374489Y297663D01*
X374482Y297679D01*
X374472Y297703D01*
X374463Y297729D01*
X374449Y297763D01*
X374436Y297802D01*
X374423Y297843D01*
X374409Y297889D01*
X374396Y297939D01*
X374373Y298046D01*
X374356Y298165D01*
X374353Y298225D01*
X374349Y298289D01*
Y298292D01*
Y298295D01*
Y298305D01*
Y298315D01*
X374353Y298349D01*
X374356Y298395D01*
X374359Y298448D01*
X374366Y298509D01*
X374379Y298578D01*
X374393Y298652D01*
X374409Y298732D01*
X374433Y298812D01*
X374459Y298895D01*
X374493Y298978D01*
X374533Y299058D01*
X374576Y299138D01*
X374629Y299214D01*
X374689Y299284D01*
X374692Y299288D01*
X374706Y299301D01*
X374726Y299318D01*
X374752Y299341D01*
X374785Y299368D01*
X374826Y299401D01*
X374875Y299431D01*
X374929Y299467D01*
X374989Y299501D01*
X375055Y299534D01*
X375129Y299564D01*
X375208Y299591D01*
X375292Y299614D01*
X375382Y299631D01*
X375475Y299644D01*
X375575Y299647D01*
X375608D01*
X375635Y299644D01*
D02*
G37*
%LPC*%
G36*
X477259Y150635D02*
X477239D01*
X477199Y150632D01*
X477162Y150628D01*
X477092Y150608D01*
X477029Y150582D01*
X476976Y150549D01*
X476936Y150515D01*
X476902Y150488D01*
X476883Y150469D01*
X476876Y150465D01*
Y150462D01*
X476849Y150429D01*
X476826Y150389D01*
X476786Y150309D01*
X476759Y150222D01*
X476743Y150142D01*
X476736Y150102D01*
X476729Y150066D01*
X476726Y150032D01*
Y150006D01*
X476723Y149982D01*
Y149966D01*
Y149952D01*
Y149949D01*
Y149886D01*
X476729Y149826D01*
X476736Y149769D01*
X476746Y149716D01*
X476756Y149669D01*
X476769Y149626D01*
X476783Y149589D01*
X476796Y149553D01*
X476809Y149523D01*
X476823Y149496D01*
X476836Y149476D01*
X476846Y149460D01*
X476856Y149443D01*
X476862Y149433D01*
X476866Y149430D01*
X476869Y149426D01*
X476896Y149396D01*
X476926Y149373D01*
X476956Y149350D01*
X476989Y149330D01*
X477049Y149300D01*
X477106Y149280D01*
X477155Y149270D01*
X477179Y149266D01*
X477196Y149263D01*
X477212Y149260D01*
X477232D01*
X477272Y149263D01*
X477312Y149266D01*
X477382Y149286D01*
X477445Y149313D01*
X477498Y149343D01*
X477542Y149373D01*
X477572Y149400D01*
X477592Y149420D01*
X477595Y149423D01*
X477598Y149426D01*
X477625Y149460D01*
X477645Y149496D01*
X477682Y149579D01*
X477705Y149669D01*
X477725Y149756D01*
X477728Y149796D01*
X477735Y149836D01*
X477738Y149869D01*
Y149899D01*
X477742Y149926D01*
Y149942D01*
Y149956D01*
Y149959D01*
X477738Y150019D01*
X477735Y150076D01*
X477728Y150129D01*
X477718Y150179D01*
X477708Y150222D01*
X477695Y150265D01*
X477682Y150302D01*
X477668Y150335D01*
X477655Y150365D01*
X477642Y150392D01*
X477628Y150412D01*
X477618Y150432D01*
X477608Y150445D01*
X477602Y150455D01*
X477595Y150459D01*
Y150462D01*
X477568Y150492D01*
X477538Y150519D01*
X477508Y150542D01*
X477479Y150562D01*
X477419Y150592D01*
X477362Y150615D01*
X477312Y150625D01*
X477272Y150632D01*
X477259Y150635D01*
D02*
G37*
G36*
X472787Y149929D02*
X472783D01*
Y149812D01*
X472787Y149739D01*
X472790Y149676D01*
X472800Y149623D01*
X472807Y149579D01*
X472817Y149543D01*
X472826Y149520D01*
X472830Y149506D01*
X472833Y149499D01*
X472860Y149450D01*
X472893Y149410D01*
X472930Y149370D01*
X472963Y149340D01*
X472993Y149316D01*
X473020Y149296D01*
X473036Y149286D01*
X473040Y149283D01*
X473043D01*
X473096Y149256D01*
X473153Y149240D01*
X473206Y149226D01*
X473256Y149216D01*
X473299Y149210D01*
X473333Y149206D01*
X473363D01*
X473426Y149210D01*
X473483Y149220D01*
X473532Y149233D01*
X473572Y149250D01*
X473602Y149263D01*
X473626Y149276D01*
X473639Y149286D01*
X473642Y149290D01*
X473672Y149323D01*
X473696Y149356D01*
X473712Y149393D01*
X473722Y149423D01*
X473729Y149453D01*
X473736Y149476D01*
Y149489D01*
Y149496D01*
X473732Y149526D01*
X473729Y149556D01*
X473722Y149579D01*
X473712Y149603D01*
X473706Y149619D01*
X473699Y149636D01*
X473696Y149643D01*
X473692Y149646D01*
X473676Y149669D01*
X473656Y149689D01*
X473616Y149723D01*
X473596Y149733D01*
X473582Y149739D01*
X473572Y149746D01*
X473569D01*
X473536Y149759D01*
X473492Y149773D01*
X473446Y149783D01*
X473403Y149793D01*
X473363Y149799D01*
X473326Y149806D01*
X473313D01*
X473306Y149809D01*
X473296D01*
X473233Y149819D01*
X473176Y149829D01*
X473123Y149839D01*
X473073Y149849D01*
X473026Y149859D01*
X472983Y149869D01*
X472946Y149879D01*
X472913Y149889D01*
X472883Y149896D01*
X472857Y149906D01*
X472833Y149912D01*
X472817Y149919D01*
X472800Y149922D01*
X472790Y149926D01*
X472787Y149929D01*
D02*
G37*
G36*
X481774Y150635D02*
X481754D01*
X481711Y150632D01*
X481668Y150628D01*
X481591Y150605D01*
X481525Y150578D01*
X481468Y150545D01*
X481425Y150508D01*
X481391Y150482D01*
X481381Y150469D01*
X481371Y150459D01*
X481365Y150455D01*
Y150452D01*
X481331Y150405D01*
X481305Y150349D01*
X481285Y150292D01*
X481268Y150235D01*
X481258Y150186D01*
X481251Y150162D01*
Y150142D01*
X481248Y150129D01*
X481245Y150116D01*
Y150109D01*
Y150106D01*
X482280D01*
X482270Y150192D01*
X482250Y150265D01*
X482224Y150332D01*
X482194Y150389D01*
X482167Y150432D01*
X482144Y150462D01*
X482127Y150482D01*
X482121Y150488D01*
X482091Y150515D01*
X482061Y150539D01*
X482001Y150572D01*
X481937Y150598D01*
X481881Y150618D01*
X481831Y150628D01*
X481808Y150632D01*
X481791D01*
X481774Y150635D01*
D02*
G37*
G36*
X484718Y151258D02*
X484125D01*
X484075Y151254D01*
X484029D01*
X483985Y151251D01*
X483945Y151244D01*
X483909Y151241D01*
X483876Y151238D01*
X483849Y151231D01*
X483822Y151228D01*
X483802Y151221D01*
X483782Y151218D01*
X483769Y151215D01*
X483756Y151211D01*
X483749Y151208D01*
X483742Y151205D01*
X483709Y151188D01*
X483676Y151171D01*
X483612Y151128D01*
X483559Y151081D01*
X483512Y151031D01*
X483476Y150988D01*
X483446Y150951D01*
X483436Y150935D01*
X483429Y150925D01*
X483423Y150918D01*
Y150915D01*
X483399Y150872D01*
X483379Y150825D01*
X483346Y150728D01*
X483323Y150625D01*
X483306Y150525D01*
X483299Y150478D01*
X483296Y150435D01*
X483293Y150399D01*
Y150365D01*
X483289Y150339D01*
Y150315D01*
Y150302D01*
Y150299D01*
X483293Y150196D01*
X483299Y150099D01*
X483313Y150016D01*
X483319Y149979D01*
X483323Y149942D01*
X483329Y149912D01*
X483336Y149886D01*
X483343Y149863D01*
X483349Y149843D01*
X483353Y149826D01*
X483356Y149816D01*
X483359Y149809D01*
Y149806D01*
X483386Y149733D01*
X483416Y149669D01*
X483446Y149613D01*
X483476Y149566D01*
X483506Y149530D01*
X483526Y149503D01*
X483539Y149486D01*
X483546Y149479D01*
X483579Y149450D01*
X483619Y149423D01*
X483656Y149403D01*
X483692Y149383D01*
X483726Y149370D01*
X483752Y149360D01*
X483769Y149353D01*
X483772Y149350D01*
X483776D01*
X483832Y149333D01*
X483899Y149323D01*
X483965Y149313D01*
X484029Y149310D01*
X484085Y149306D01*
X484109Y149303D01*
X484718D01*
Y151258D01*
D02*
G37*
G36*
X470259Y150635D02*
X470236D01*
X470192Y150632D01*
X470153Y150628D01*
X470076Y150608D01*
X470009Y150578D01*
X469953Y150545D01*
X469909Y150512D01*
X469873Y150482D01*
X469863Y150472D01*
X469853Y150462D01*
X469849Y150459D01*
X469846Y150455D01*
X469819Y150422D01*
X469793Y150382D01*
X469756Y150299D01*
X469726Y150212D01*
X469710Y150129D01*
X469703Y150089D01*
X469696Y150052D01*
X469693Y150022D01*
Y149992D01*
X469690Y149969D01*
Y149952D01*
Y149939D01*
Y149936D01*
Y149869D01*
X469696Y149809D01*
X469703Y149753D01*
X469713Y149699D01*
X469726Y149649D01*
X469740Y149606D01*
X469753Y149566D01*
X469766Y149530D01*
X469783Y149499D01*
X469796Y149473D01*
X469809Y149450D01*
X469823Y149430D01*
X469833Y149416D01*
X469839Y149406D01*
X469843Y149400D01*
X469846Y149396D01*
X469876Y149366D01*
X469906Y149340D01*
X469939Y149313D01*
X469973Y149293D01*
X470039Y149263D01*
X470099Y149243D01*
X470153Y149230D01*
X470176Y149226D01*
X470196Y149223D01*
X470213Y149220D01*
X470236D01*
X470279Y149223D01*
X470319Y149226D01*
X470396Y149246D01*
X470462Y149276D01*
X470519Y149310D01*
X470562Y149340D01*
X470599Y149370D01*
X470609Y149380D01*
X470619Y149390D01*
X470622Y149393D01*
X470625Y149396D01*
X470652Y149433D01*
X470675Y149469D01*
X470715Y149553D01*
X470742Y149643D01*
X470759Y149726D01*
X470765Y149766D01*
X470772Y149806D01*
X470775Y149839D01*
Y149869D01*
X470779Y149892D01*
Y149909D01*
Y149922D01*
Y149926D01*
X470775Y149989D01*
X470772Y150052D01*
X470765Y150109D01*
X470755Y150159D01*
X470742Y150209D01*
X470729Y150252D01*
X470715Y150292D01*
X470702Y150325D01*
X470689Y150359D01*
X470675Y150385D01*
X470662Y150405D01*
X470649Y150425D01*
X470639Y150439D01*
X470632Y150452D01*
X470625Y150455D01*
Y150459D01*
X470595Y150488D01*
X470562Y150519D01*
X470532Y150542D01*
X470499Y150562D01*
X470432Y150592D01*
X470372Y150612D01*
X470319Y150625D01*
X470296Y150628D01*
X470276Y150632D01*
X470259Y150635D01*
D02*
G37*
G36*
X495403Y326524D02*
X495380D01*
X495327Y326520D01*
X495277Y326514D01*
X495233Y326504D01*
X495190Y326490D01*
X495157Y326477D01*
X495134Y326467D01*
X495117Y326460D01*
X495110Y326457D01*
X495067Y326427D01*
X495027Y326397D01*
X494994Y326364D01*
X494967Y326334D01*
X494947Y326307D01*
X494934Y326284D01*
X494924Y326271D01*
X494920Y326264D01*
X494901Y326217D01*
X494887Y326171D01*
X494874Y326124D01*
X494867Y326084D01*
X494864Y326051D01*
X494861Y326024D01*
Y326008D01*
Y326001D01*
X494864Y325961D01*
X494867Y325921D01*
X494884Y325851D01*
X494907Y325788D01*
X494934Y325734D01*
X494957Y325691D01*
X494980Y325661D01*
X494997Y325641D01*
X495004Y325635D01*
X495030Y325608D01*
X495060Y325585D01*
X495120Y325551D01*
X495184Y325525D01*
X495240Y325505D01*
X495293Y325495D01*
X495313Y325491D01*
X495333D01*
X495350Y325488D01*
X495413D01*
X495453Y325495D01*
X495527Y325511D01*
X495590Y325535D01*
X495646Y325561D01*
X495690Y325591D01*
X495723Y325615D01*
X495743Y325631D01*
X495750Y325635D01*
Y325638D01*
X495776Y325665D01*
X495800Y325694D01*
X495836Y325758D01*
X495863Y325821D01*
X495880Y325881D01*
X495893Y325934D01*
X495896Y325958D01*
Y325974D01*
X495899Y325991D01*
Y326004D01*
Y326011D01*
Y326014D01*
Y326054D01*
X495893Y326094D01*
X495876Y326164D01*
X495853Y326227D01*
X495826Y326281D01*
X495800Y326324D01*
X495776Y326354D01*
X495760Y326374D01*
X495756Y326377D01*
X495753Y326380D01*
X495726Y326407D01*
X495696Y326427D01*
X495633Y326464D01*
X495570Y326487D01*
X495513Y326507D01*
X495460Y326517D01*
X495437Y326520D01*
X495417D01*
X495403Y326524D01*
D02*
G37*
G36*
X495400Y325232D02*
X495383D01*
X495317Y325228D01*
X495257Y325215D01*
X495203Y325195D01*
X495160Y325175D01*
X495124Y325155D01*
X495097Y325135D01*
X495084Y325122D01*
X495077Y325118D01*
X495040Y325072D01*
X495010Y325022D01*
X494990Y324972D01*
X494977Y324925D01*
X494970Y324885D01*
X494967Y324852D01*
X494964Y324839D01*
Y324829D01*
Y324825D01*
Y324822D01*
X494970Y324765D01*
X494984Y324712D01*
X495000Y324666D01*
X495024Y324622D01*
X495044Y324592D01*
X495064Y324566D01*
X495077Y324552D01*
X495080Y324546D01*
X495127Y324506D01*
X495177Y324479D01*
X495227Y324459D01*
X495273Y324443D01*
X495317Y324436D01*
X495350Y324432D01*
X495363Y324429D01*
X495380D01*
X495443Y324436D01*
X495500Y324449D01*
X495550Y324466D01*
X495593Y324489D01*
X495630Y324512D01*
X495656Y324529D01*
X495670Y324542D01*
X495676Y324549D01*
X495716Y324596D01*
X495746Y324642D01*
X495766Y324692D01*
X495783Y324739D01*
X495790Y324779D01*
X495793Y324809D01*
X495796Y324822D01*
Y324832D01*
Y324835D01*
Y324839D01*
X495793Y324899D01*
X495780Y324952D01*
X495760Y325002D01*
X495740Y325042D01*
X495716Y325075D01*
X495700Y325098D01*
X495686Y325112D01*
X495680Y325118D01*
X495633Y325155D01*
X495583Y325185D01*
X495533Y325205D01*
X495486Y325218D01*
X495447Y325225D01*
X495413Y325228D01*
X495400Y325232D01*
D02*
G37*
G36*
X375575Y299354D02*
X375541D01*
X375515Y299351D01*
X375485Y299348D01*
X375448Y299341D01*
X375408Y299334D01*
X375362Y299324D01*
X375315Y299311D01*
X375265Y299294D01*
X375215Y299274D01*
X375162Y299248D01*
X375109Y299221D01*
X375055Y299188D01*
X375005Y299148D01*
X374955Y299105D01*
X374952Y299101D01*
X374945Y299095D01*
X374932Y299078D01*
X374915Y299058D01*
X374895Y299031D01*
X374875Y298995D01*
X374852Y298955D01*
X374829Y298908D01*
X374802Y298855D01*
X374779Y298795D01*
X374759Y298728D01*
X374739Y298655D01*
X374722Y298572D01*
X374709Y298482D01*
X374702Y298385D01*
X374699Y298282D01*
Y298275D01*
Y298262D01*
X374702Y298239D01*
Y298205D01*
X374706Y298165D01*
X374712Y298122D01*
X374719Y298072D01*
X374729Y298019D01*
X374742Y297959D01*
X374759Y297899D01*
X374779Y297839D01*
X374802Y297779D01*
X374832Y297719D01*
X374866Y297659D01*
X374902Y297606D01*
X374945Y297553D01*
X374949Y297549D01*
X374955Y297543D01*
X374972Y297530D01*
X374992Y297513D01*
X375015Y297493D01*
X375045Y297469D01*
X375079Y297446D01*
X375118Y297423D01*
X375159Y297396D01*
X375208Y297373D01*
X375258Y297350D01*
X375315Y297330D01*
X375372Y297313D01*
X375435Y297300D01*
X375498Y297293D01*
X375568Y297290D01*
X375585D01*
X375605Y297293D01*
X375631D01*
X375665Y297296D01*
X375701Y297303D01*
X375745Y297313D01*
X375791Y297323D01*
X375838Y297336D01*
X375891Y297356D01*
X375941Y297376D01*
X375994Y297403D01*
X376048Y297433D01*
X376101Y297469D01*
X376151Y297510D01*
X376198Y297556D01*
X376201Y297559D01*
X376207Y297569D01*
X376221Y297583D01*
X376237Y297606D01*
X376254Y297633D01*
X376277Y297666D01*
X376301Y297706D01*
X376324Y297753D01*
X376347Y297802D01*
X376367Y297863D01*
X376391Y297922D01*
X376407Y297992D01*
X376424Y298066D01*
X376437Y298146D01*
X376444Y298229D01*
X376447Y298319D01*
Y298322D01*
Y298332D01*
Y298349D01*
Y298372D01*
X376444Y298399D01*
X376441Y298429D01*
X376437Y298465D01*
X376434Y298505D01*
X376421Y298588D01*
X376404Y298682D01*
X376377Y298775D01*
X376341Y298865D01*
Y298868D01*
X376337Y298875D01*
X376331Y298888D01*
X376321Y298905D01*
X376311Y298921D01*
X376297Y298945D01*
X376261Y298998D01*
X376217Y299055D01*
X376164Y299115D01*
X376104Y299171D01*
X376031Y299224D01*
X376028D01*
X376021Y299231D01*
X376011Y299238D01*
X375994Y299244D01*
X375978Y299254D01*
X375954Y299264D01*
X375928Y299278D01*
X375898Y299291D01*
X375831Y299314D01*
X375755Y299334D01*
X375668Y299348D01*
X375575Y299354D01*
D02*
G37*
%LPD*%
D12*
X338520Y251898D02*
G03*
X344417Y246000I5898J0D01*
G01*
X346620Y358449D02*
G03*
X338520Y350349I0J-8100D01*
G01*
X424000Y246000D02*
G03*
X431000Y253000I0J7000D01*
G01*
Y352000D02*
G03*
X425000Y358000I-6000J0D01*
G01*
X346620Y358449D02*
X425000Y358000D01*
X338520Y251898D02*
Y350349D01*
X431000Y253000D02*
Y352000D01*
X344417Y246000D02*
X424000D01*
D113*
X103773Y114171D02*
G03*
X113615Y104328I9843J0D01*
G01*
X684481D02*
G03*
X694324Y114171I0J9843D01*
G01*
Y488186D02*
G03*
X684481Y498029I-9843J0D01*
G01*
X113615D02*
G03*
X103773Y488186I0J-9843D01*
G01*
X113615Y104328D02*
X684481D01*
X694324Y114171D02*
Y488186D01*
X113615Y498029D02*
X684481D01*
X103773Y114171D02*
Y488186D01*
M02*
