%FSLAX23Y23*%
%MOIN*%
%SFA1B1*%

%IPPOS*%
%ADD13C,0.007870*%
%ADD114C,0.003940*%
%ADD115C,0.001970*%
%LNpcb1-1*%
%LPD*%
G54D13*
X1168Y2136D02*
Y2423D01*
Y2136D02*
X1511D01*
Y2423*
X1168D02*
X1511D01*
X1568Y3344D02*
Y3635D01*
X1731*
Y3344D02*
Y3635D01*
X1568Y3344D02*
X1731D01*
X1441Y1631D02*
X1768D01*
Y1398D02*
Y1631D01*
X1441Y1398D02*
X1768D01*
X1441D02*
Y1631D01*
X1749Y2104D02*
Y2375D01*
Y2104D02*
X2070D01*
Y2375*
X1749D02*
X2070D01*
X5983Y2010D02*
Y2289D01*
X5766Y2010D02*
X5983D01*
X5766D02*
Y2289D01*
X5983*
X1758Y3344D02*
Y3635D01*
X1921*
Y3344D02*
Y3635D01*
X1758Y3344D02*
X1921D01*
X6008Y1948D02*
X6171D01*
X6008Y1711D02*
Y1948D01*
Y1711D02*
X6171D01*
Y1948*
X6652Y2316D02*
Y2643D01*
X6867*
Y2316D02*
Y2643D01*
X6652Y2316D02*
X6867D01*
X1728Y2416D02*
Y2703D01*
Y2416D02*
X2071D01*
Y2703*
X1728D02*
X2071D01*
X1788Y3768D02*
Y4071D01*
X1631Y3768D02*
X1788D01*
X1631D02*
Y4071D01*
X1788*
X6171Y1441D02*
Y1678D01*
X6008Y1441D02*
X6171D01*
X6008D02*
Y1678D01*
X6171*
X6591Y3661D02*
X6828D01*
Y3498D02*
Y3661D01*
X6591Y3498D02*
X6828D01*
X6591D02*
Y3661D01*
X2059Y1766D02*
Y2053D01*
X1717D02*
X2059D01*
X1717Y1766D02*
Y2053D01*
Y1766D02*
X2059D01*
X1588Y2792D02*
Y2927D01*
X1511Y2792D02*
X1588D01*
X1511D02*
Y2927D01*
X1588*
X6287Y3861D02*
Y3938D01*
X6152D02*
X6287D01*
X6152Y3861D02*
Y3938D01*
Y3861D02*
X6287D01*
X6591Y2901D02*
X6828D01*
Y2738D02*
Y2901D01*
X6591Y2738D02*
X6828D01*
X6591D02*
Y2901D01*
X5872Y4021D02*
X6007D01*
X5872D02*
Y4098D01*
X6007*
Y4021D02*
Y4098D01*
X1511Y2542D02*
Y2677D01*
X1588*
Y2542D02*
Y2677D01*
X1511Y2542D02*
X1588D01*
X1998Y3768D02*
Y4071D01*
X1841Y3768D02*
X1998D01*
X1841D02*
Y4071D01*
X1998*
X1129Y1732D02*
Y2087D01*
Y1732D02*
X1550D01*
Y2087*
X1129D02*
X1550D01*
X1572Y4590D02*
X1927D01*
X1572Y4169D02*
Y4590D01*
Y4169D02*
X1927D01*
Y4590*
X6012Y2098D02*
X6147D01*
Y2021D02*
Y2098D01*
X6012Y2021D02*
X6147D01*
X6012D02*
Y2098D01*
X1929Y2986D02*
Y3273D01*
X1587D02*
X1929D01*
X1587Y2986D02*
Y3273D01*
Y2986D02*
X1929D01*
G54D114*
X1770Y1180D02*
Y1199D01*
X1760Y1190D02*
X1779D01*
X1560Y1270D02*
Y1289D01*
X1550Y1280D02*
X1569D01*
X6758Y2160D02*
Y2179D01*
X6748Y2170D02*
X6768D01*
X6010Y4690D02*
Y4729D01*
X5990Y4710D02*
X6029D01*
X5980Y4190D02*
X6019D01*
X6000Y4170D02*
Y4209D01*
X6180Y3750D02*
X6219D01*
X6200Y3730D02*
Y3769D01*
X5860Y4190D02*
X5899D01*
X5880Y4170D02*
Y4209D01*
X1430Y1170D02*
Y1209D01*
X1410Y1190D02*
X1449D01*
X6610Y3205D02*
X6649D01*
X6630Y3185D02*
Y3224D01*
X6610Y4370D02*
X6649D01*
X6630Y4350D02*
Y4389D01*
X1820Y1500D02*
Y1539D01*
X1800Y1520D02*
X1839D01*
X1380Y1570D02*
Y1609D01*
X1360Y1590D02*
X1399D01*
X1561Y1180D02*
Y1199D01*
X1551Y1190D02*
X1571D01*
X1770Y1270D02*
Y1289D01*
X1760Y1280D02*
X1779D01*
X6330Y2950D02*
Y2989D01*
X6310Y2970D02*
X6349D01*
X5820Y3750D02*
X5859D01*
X5840Y3730D02*
Y3769D01*
X1360Y1470D02*
X1399D01*
X1380Y1450D02*
Y1489D01*
X2110Y4210D02*
Y4229D01*
X2100Y4220D02*
X2119D01*
X6330Y3310D02*
Y3349D01*
X6310Y3330D02*
X6349D01*
X6180Y3670D02*
X6219D01*
X6200Y3650D02*
Y3689D01*
X1900Y1170D02*
Y1209D01*
X1880Y1190D02*
X1919D01*
X1900Y1260D02*
Y1299D01*
X1880Y1280D02*
X1919D01*
X5940Y4310D02*
Y4349D01*
X5920Y4330D02*
X5959D01*
X1430Y1260D02*
Y1299D01*
X1410Y1280D02*
X1449D01*
X6010Y4840D02*
Y4859D01*
X6000Y4850D02*
X6019D01*
X6618Y2150D02*
Y2189D01*
X6598Y2170D02*
X6638D01*
X5820Y3670D02*
X5859D01*
X5840Y3650D02*
Y3689D01*
X6330Y3040D02*
Y3079D01*
X6310Y3060D02*
X6349D01*
X2025Y4175D02*
Y4214D01*
X2006Y4195D02*
X2045D01*
X1350Y4345D02*
Y4384D01*
X1330Y4365D02*
X1369D01*
X6000Y3780D02*
X6039D01*
X6020Y3760D02*
Y3799D01*
G54D115*
X1115Y2490D02*
X1482D01*
X1115D02*
Y2970D01*
X1482*
Y2490D02*
Y2970D01*
X1701Y1162D02*
Y1217D01*
X1838*
Y1162D02*
Y1217D01*
X1701Y1162D02*
X1838D01*
X1628Y1252D02*
Y1307D01*
X1491Y1252D02*
X1628D01*
X1491D02*
Y1307D01*
X1628*
X6827Y2142D02*
Y2197D01*
X6689Y2142D02*
X6827D01*
X6689D02*
Y2197D01*
X6827*
X5976Y4763D02*
X6043D01*
X5976Y4656D02*
X6043D01*
Y4763*
X5976Y4656D02*
Y4763D01*
X6033Y4136D02*
Y4243D01*
X5966Y4136D02*
Y4243D01*
X6033*
X5966Y4136D02*
X6033D01*
X6146Y3716D02*
Y3783D01*
X6253Y3716D02*
Y3783D01*
X6146D02*
X6253D01*
X6146Y3716D02*
X6253D01*
X5913Y4136D02*
Y4243D01*
X5846Y4136D02*
Y4243D01*
X5913*
X5846Y4136D02*
X5913D01*
X1376Y1223D02*
X1483D01*
X1376Y1156D02*
X1483D01*
X1376D02*
Y1223D01*
X1483Y1156D02*
Y1223D01*
X6444Y2928D02*
Y3458D01*
Y2928D02*
X6944D01*
Y3458*
X6444D02*
X6944D01*
X6444Y4093D02*
Y4623D01*
Y4093D02*
X6944D01*
Y4623*
X6444D02*
X6944D01*
X1786Y1573D02*
X1853D01*
X1786Y1466D02*
X1853D01*
Y1573*
X1786Y1466D02*
Y1573D01*
X1346Y1643D02*
X1413D01*
X1346Y1536D02*
X1413D01*
Y1643*
X1346Y1536D02*
Y1643D01*
X1630Y1162D02*
Y1217D01*
X1492Y1162D02*
X1630D01*
X1492D02*
Y1217D01*
X1630*
X1701Y1252D02*
Y1307D01*
X1838*
Y1252D02*
Y1307D01*
X1701Y1252D02*
X1838D01*
X6276Y2936D02*
X6383D01*
X6276Y3003D02*
X6383D01*
Y2936D02*
Y3003D01*
X6276Y2936D02*
Y3003D01*
X5786Y3716D02*
Y3783D01*
X5893Y3716D02*
Y3783D01*
X5786D02*
X5893D01*
X5786Y3716D02*
X5893D01*
X1413Y1416D02*
Y1523D01*
X1346Y1416D02*
Y1523D01*
X1413*
X1346Y1416D02*
X1413D01*
X2137Y4151D02*
Y4288D01*
X2082D02*
X2137D01*
X2082Y4151D02*
Y4288D01*
Y4151D02*
X2137D01*
X6276Y3296D02*
X6383D01*
X6276Y3363D02*
X6383D01*
Y3296D02*
Y3363D01*
X6276Y3296D02*
Y3363D01*
X6146Y3636D02*
Y3703D01*
X6253Y3636D02*
Y3703D01*
X6146D02*
X6253D01*
X6146Y3636D02*
X6253D01*
X1846Y1156D02*
X1953D01*
X1846Y1223D02*
X1953D01*
Y1156D02*
Y1223D01*
X1846Y1156D02*
Y1223D01*
Y1246D02*
X1953D01*
X1846Y1313D02*
X1953D01*
Y1246D02*
Y1313D01*
X1846Y1246D02*
Y1313D01*
X5851Y4373D02*
X6028D01*
X5851Y4286D02*
X6028D01*
X5851D02*
Y4373D01*
X6028Y4286D02*
Y4373D01*
X1376Y1313D02*
X1483D01*
X1376Y1246D02*
X1483D01*
X1376D02*
Y1313D01*
X1483Y1246D02*
Y1313D01*
X5982Y4781D02*
Y4918D01*
Y4781D02*
X6037D01*
Y4918*
X5982D02*
X6037D01*
X6565Y2203D02*
X6671D01*
X6565Y2136D02*
X6671D01*
X6565D02*
Y2203D01*
X6671Y2136D02*
Y2203D01*
X6387Y4106D02*
Y4933D01*
X6092Y4106D02*
X6387D01*
X6092D02*
Y4933D01*
X6387*
X5786Y3636D02*
Y3703D01*
X5893Y3636D02*
Y3703D01*
X5786D02*
X5893D01*
X5786Y3636D02*
X5893D01*
X6276Y3093D02*
X6383D01*
X6276Y3026D02*
X6383D01*
X6276D02*
Y3093D01*
X6383Y3026D02*
Y3093D01*
X1992Y4248D02*
X2059D01*
X1992Y4141D02*
X2059D01*
Y4248*
X1992Y4141D02*
Y4248D01*
X1035Y4111D02*
X1535D01*
X1035D02*
Y4641D01*
X1535*
Y4111D02*
Y4641D01*
X6128Y3634D02*
Y3925D01*
X5911Y3634D02*
Y3925D01*
X6128*
X5911Y3634D02*
X6128D01*
X1107Y4048D02*
X1492D01*
X1107Y3071D02*
Y4048D01*
Y3071D02*
X1492D01*
Y4048*
X1300Y3540D02*
Y3579D01*
X1280Y3560D02*
X1319D01*
M02*