%FSLAX23Y23*%
%MOIN*%
%SFA1B1*%

%IPPOS*%
%ADD13C,0.007870*%
%LNpcb1-1*%
%LPD*%
G36*
X1352Y2306D02*
X1353Y2306D01*
X1353Y2306*
X1353Y2306*
X1354Y2306*
X1355Y2306*
X1355Y2305*
X1356Y2305*
X1356Y2305*
X1357Y2305*
X1358Y2304*
X1358Y2304*
X1358Y2304*
X1358Y2304*
X1358Y2304*
X1358Y2304*
X1359Y2303*
X1359Y2303*
X1359Y2303*
X1360Y2303*
X1360Y2302*
X1360Y2302*
X1360Y2301*
X1361Y2301*
X1361Y2300*
X1361Y2300*
X1362Y2299*
X1362Y2299*
X1358Y2298*
Y2298*
X1358Y2298*
X1358Y2298*
X1358Y2298*
X1358Y2298*
X1358Y2299*
X1358Y2299*
X1357Y2300*
X1357Y2301*
X1356Y2301*
X1356Y2302*
X1356Y2302*
X1356*
X1356Y2302*
X1356Y2302*
X1356Y2302*
X1355Y2302*
X1355Y2302*
X1355Y2302*
X1354Y2303*
X1353Y2303*
X1352Y2303*
X1352Y2303*
X1351*
X1351Y2303*
X1351*
X1350Y2303*
X1350Y2303*
X1350Y2303*
X1349Y2303*
X1348Y2302*
X1347Y2302*
X1347Y2302*
X1347Y2302*
X1347*
X1346Y2302*
X1346Y2302*
X1346Y2301*
X1346Y2301*
X1345Y2301*
X1345Y2300*
X1345Y2299*
X1344Y2299*
X1344Y2298*
Y2298*
X1344Y2298*
X1344Y2298*
X1344Y2297*
X1344Y2297*
X1344Y2297*
X1343Y2297*
X1343Y2296*
X1343Y2296*
X1343Y2295*
X1343Y2294*
X1343Y2293*
Y2293*
Y2293*
Y2293*
Y2292*
X1343Y2292*
X1343Y2292*
Y2291*
X1343Y2291*
X1343Y2290*
X1343Y2289*
X1344Y2288*
X1344Y2287*
Y2287*
X1344Y2287*
X1344Y2287*
X1344Y2287*
X1344Y2287*
X1344Y2286*
X1345Y2286*
X1345Y2285*
X1346Y2285*
X1346Y2284*
X1347Y2284*
X1347*
X1347Y2284*
X1347Y2283*
X1347Y2283*
X1347Y2283*
X1348Y2283*
X1348Y2283*
X1349Y2283*
X1350Y2283*
X1350Y2282*
X1351Y2282*
X1352*
X1352Y2282*
X1352Y2282*
X1352Y2283*
X1353Y2283*
X1353Y2283*
X1354Y2283*
X1354Y2283*
X1355Y2283*
X1355Y2283*
X1356Y2284*
X1356Y2284*
X1356Y2284*
X1356Y2284*
X1356Y2284*
X1356Y2284*
X1357Y2284*
X1357Y2285*
X1357Y2285*
X1357Y2285*
X1357Y2286*
X1358Y2286*
X1358Y2286*
X1358Y2287*
X1358Y2287*
X1358Y2288*
X1359Y2288*
X1359Y2289*
X1362Y2288*
Y2288*
X1362Y2288*
X1362Y2288*
X1362Y2287*
X1362Y2287*
X1362Y2287*
X1362Y2286*
X1361Y2286*
X1361Y2285*
X1361Y2285*
X1360Y2284*
X1360Y2284*
X1360Y2283*
X1359Y2283*
X1359Y2282*
X1358Y2282*
X1358Y2282*
X1358Y2282*
X1358Y2281*
X1358Y2281*
X1358Y2281*
X1357Y2281*
X1357Y2281*
X1356Y2281*
X1356Y2280*
X1355Y2280*
X1355Y2280*
X1354Y2280*
X1354Y2280*
X1353Y2280*
X1352Y2280*
X1352Y2280*
X1351*
X1351Y2280*
X1351Y2280*
X1350Y2280*
X1350Y2280*
X1349Y2280*
X1348Y2280*
X1347Y2280*
X1346Y2280*
X1346Y2281*
X1345Y2281*
X1345Y2281*
X1345Y2281*
X1345Y2281*
X1345Y2281*
X1344Y2282*
X1344Y2282*
X1344Y2282*
X1344Y2282*
X1343Y2282*
X1343Y2283*
X1343Y2283*
X1342Y2283*
X1342Y2284*
X1342Y2284*
X1341Y2285*
X1341Y2285*
X1341Y2286*
Y2286*
X1341Y2286*
X1341Y2286*
X1341Y2287*
X1341Y2287*
X1340Y2287*
X1340Y2288*
X1340Y2288*
X1340Y2289*
X1340Y2289*
X1340Y2290*
X1340Y2290*
X1340Y2292*
X1340Y2293*
Y2293*
Y2293*
Y2293*
X1340Y2294*
Y2294*
X1340Y2294*
X1340Y2295*
X1340Y2295*
X1340Y2296*
X1340Y2296*
X1340Y2298*
X1341Y2299*
X1341Y2299*
X1341Y2300*
X1341Y2300*
X1341Y2300*
X1341Y2300*
X1341Y2300*
X1341Y2301*
X1342Y2301*
X1342Y2301*
X1342Y2302*
X1343Y2302*
X1343Y2303*
X1344Y2304*
X1345Y2304*
X1345Y2304*
X1345Y2304*
X1345Y2304*
X1346Y2305*
X1346Y2305*
X1346Y2305*
X1346Y2305*
X1347Y2305*
X1347Y2305*
X1348Y2305*
X1348Y2305*
X1349Y2306*
X1350Y2306*
X1351Y2306*
X1352*
X1352Y2306*
G37*
G36*
X1381Y2302D02*
X1371D01*
X1369Y2295*
X1369Y2295*
X1369Y2295*
X1369Y2295*
X1370Y2296*
X1370Y2296*
X1370Y2296*
X1370Y2296*
X1371Y2296*
X1371Y2296*
X1372Y2297*
X1373Y2297*
X1374Y2297*
X1374Y2297*
X1374*
X1375Y2297*
X1375Y2297*
X1375Y2297*
X1376Y2297*
X1376Y2297*
X1376Y2297*
X1377Y2296*
X1377Y2296*
X1378Y2296*
X1378Y2296*
X1379Y2295*
X1379Y2295*
X1380Y2295*
X1380Y2295*
X1380Y2294*
X1380Y2294*
X1380Y2294*
X1380Y2294*
X1380Y2294*
X1381Y2293*
X1381Y2293*
X1381Y2293*
X1381Y2292*
X1381Y2292*
X1382Y2291*
X1382Y2290*
X1382Y2290*
X1382Y2289*
X1382Y2289*
Y2289*
Y2288*
Y2288*
X1382Y2288*
X1382Y2288*
X1382Y2287*
X1382Y2287*
X1382Y2287*
X1382Y2286*
X1381Y2285*
X1381Y2285*
X1381Y2284*
X1381Y2284*
X1380Y2283*
X1380Y2283*
X1380Y2283*
X1380Y2282*
X1380Y2282*
X1380Y2282*
X1379Y2282*
X1379Y2282*
X1379Y2281*
X1378Y2281*
X1378Y2281*
X1377Y2280*
X1377Y2280*
X1376Y2280*
X1375Y2280*
X1375Y2280*
X1374Y2280*
X1373Y2280*
X1373*
X1373Y2280*
X1372Y2280*
X1372Y2280*
X1372Y2280*
X1371Y2280*
X1370Y2280*
X1370Y2280*
X1369Y2280*
X1369Y2281*
X1368Y2281*
X1368Y2281*
X1368Y2281*
X1368Y2281*
X1367Y2282*
X1367Y2282*
X1367Y2282*
X1367Y2282*
X1367Y2282*
X1367Y2283*
X1366Y2283*
X1366Y2283*
X1366Y2284*
X1366Y2284*
X1366Y2284*
X1365Y2285*
X1365Y2285*
X1365Y2286*
X1365Y2287*
X1368Y2287*
Y2287*
X1368Y2287*
Y2287*
X1368Y2286*
X1369Y2286*
X1369Y2286*
X1369Y2286*
X1369Y2285*
X1369Y2284*
X1370Y2284*
X1370Y2283*
X1370Y2283*
X1370Y2283*
X1371Y2283*
X1371Y2283*
X1371Y2282*
X1372Y2282*
X1373Y2282*
X1373Y2282*
X1374*
X1374Y2282*
X1374Y2282*
X1374Y2282*
X1375Y2282*
X1375Y2283*
X1376Y2283*
X1376Y2283*
X1377Y2283*
X1377Y2283*
X1377Y2284*
X1377Y2284*
X1377Y2284*
X1377Y2284*
X1377Y2284*
X1378Y2284*
X1378Y2284*
X1378Y2285*
X1378Y2285*
X1378Y2286*
X1378Y2286*
X1379Y2287*
X1379Y2288*
Y2288*
Y2288*
Y2288*
Y2289*
X1379Y2289*
Y2289*
X1379Y2289*
X1378Y2290*
X1378Y2291*
X1378Y2291*
X1378Y2292*
X1377Y2292*
X1377Y2293*
Y2293*
X1377Y2293*
X1377Y2293*
X1377Y2293*
X1377Y2293*
X1376Y2293*
X1376Y2294*
X1375Y2294*
X1374Y2294*
X1374Y2294*
X1373*
X1373Y2294*
X1372Y2294*
X1372Y2294*
X1371Y2294*
X1371Y2294*
X1370Y2293*
X1370Y2293*
X1370Y2293*
X1370Y2293*
X1370Y2293*
X1370Y2293*
X1369Y2292*
X1369Y2292*
X1369Y2292*
X1366Y2292*
X1368Y2305*
X1381*
Y2302*
G37*
G36*
X1642Y3531D02*
X1642Y3531D01*
X1643Y3531*
X1643Y3531*
X1643Y3531*
X1644Y3530*
X1644Y3530*
X1645Y3530*
X1645Y3530*
X1646Y3529*
X1646Y3529*
X1647Y3529*
X1647Y3528*
X1647Y3528*
X1647Y3528*
X1647Y3528*
X1648Y3528*
X1648Y3528*
X1648Y3527*
X1648Y3527*
X1648Y3527*
X1649Y3526*
X1649Y3526*
X1649Y3525*
X1649Y3525*
X1649Y3524*
X1649Y3524*
X1649Y3523*
X1650Y3522*
Y3522*
X1649Y3522*
X1649Y3521*
X1649Y3521*
X1649Y3521*
X1649Y3520*
X1649Y3519*
X1649Y3519*
X1649Y3518*
X1648Y3518*
X1648Y3517*
X1648Y3517*
X1648Y3517*
X1647Y3517*
X1647Y3517*
X1647Y3516*
X1647Y3516*
X1647Y3516*
X1647Y3516*
X1646Y3516*
X1646Y3515*
X1646Y3515*
X1645Y3515*
X1645Y3515*
X1644Y3515*
X1644Y3514*
X1643Y3514*
X1643Y3514*
X1642Y3514*
X1642Y3517*
X1642*
X1642Y3517*
X1642Y3517*
X1642Y3517*
X1643Y3517*
X1643Y3517*
X1643Y3518*
X1644Y3518*
X1645Y3518*
X1645Y3519*
X1646Y3519*
X1646Y3519*
X1646Y3519*
X1646Y3519*
X1646Y3520*
X1646Y3520*
X1647Y3520*
X1647Y3521*
X1647Y3522*
X1647Y3522*
Y3522*
X1647Y3523*
Y3523*
X1647Y3523*
X1647Y3524*
X1647Y3524*
X1646Y3525*
X1646Y3525*
X1646Y3526*
X1645Y3526*
X1645Y3526*
X1645Y3526*
X1645Y3526*
X1645Y3526*
X1645Y3526*
X1644Y3527*
X1644Y3527*
X1643Y3527*
X1642Y3527*
X1642Y3528*
X1642*
X1642*
X1641*
X1641*
X1641Y3527*
X1641*
X1641Y3527*
X1640Y3527*
X1640Y3527*
X1639Y3527*
X1639Y3527*
X1638Y3526*
X1638Y3526*
X1638Y3526*
X1638Y3526*
X1638Y3526*
X1637Y3525*
X1637Y3525*
X1637Y3524*
X1637Y3523*
X1637Y3522*
Y3522*
X1637Y3522*
X1637Y3522*
X1637Y3521*
X1637Y3521*
X1637Y3520*
X1634Y3521*
Y3521*
X1634Y3521*
X1634Y3521*
Y3521*
X1634Y3521*
X1634Y3522*
X1634Y3522*
X1634Y3523*
X1634Y3523*
X1634Y3524*
X1633Y3525*
Y3525*
X1633Y3525*
X1633Y3525*
X1633Y3525*
X1632Y3526*
X1632Y3526*
X1631Y3526*
X1631Y3526*
X1630Y3526*
X1630Y3526*
X1630*
X1630*
X1630Y3526*
X1629Y3526*
X1629Y3526*
X1629Y3526*
X1628Y3526*
X1628Y3526*
X1627Y3525*
X1627Y3525*
X1627Y3525*
X1627Y3525*
X1627Y3524*
X1626Y3524*
X1626Y3523*
X1626Y3523*
X1626Y3522*
Y3522*
X1626Y3522*
X1626Y3521*
X1626Y3521*
X1626Y3521*
X1626Y3520*
X1627Y3520*
X1627Y3519*
X1627Y3519*
X1627Y3519*
X1628Y3519*
X1628Y3518*
X1628Y3518*
X1629Y3518*
X1630Y3518*
X1631Y3518*
X1630Y3514*
X1630*
X1630Y3514*
X1630Y3514*
X1629Y3515*
X1629Y3515*
X1629Y3515*
X1629Y3515*
X1628Y3515*
X1627Y3515*
X1627Y3516*
X1626Y3516*
X1625Y3517*
X1625Y3517*
X1625Y3517*
X1625Y3517*
X1625Y3517*
X1625Y3517*
X1625Y3518*
X1625Y3518*
X1624Y3518*
X1624Y3518*
X1624Y3519*
X1624Y3519*
X1624Y3520*
X1623Y3521*
X1623Y3522*
X1623Y3522*
Y3522*
X1623Y3523*
Y3523*
X1623Y3523*
X1624Y3524*
X1624Y3525*
X1624Y3525*
X1624Y3526*
Y3526*
X1624Y3526*
X1624Y3526*
X1624Y3526*
X1625Y3527*
X1625Y3527*
X1625Y3527*
X1626Y3528*
X1626Y3528*
X1627Y3529*
X1627*
X1627Y3529*
X1627Y3529*
X1627Y3529*
X1628Y3529*
X1628Y3529*
X1629Y3529*
X1629Y3530*
X1630Y3530*
X1630*
X1630*
X1630*
X1631Y3530*
X1631Y3529*
X1631Y3529*
X1632Y3529*
X1633Y3529*
X1633Y3529*
X1633Y3529*
X1633Y3528*
X1634Y3528*
X1634Y3528*
X1634Y3528*
X1635Y3527*
X1635Y3527*
X1635Y3526*
Y3526*
X1635Y3526*
X1635Y3526*
X1635Y3526*
X1635Y3527*
X1635Y3527*
X1636Y3527*
X1636Y3528*
X1636Y3528*
X1637Y3529*
X1637Y3530*
X1637*
X1637Y3530*
X1638Y3530*
X1638Y3530*
X1638Y3530*
X1638Y3530*
X1639Y3530*
X1639Y3530*
X1640Y3531*
X1641Y3531*
X1642Y3531*
X1642*
X1642*
X1642*
X1642Y3531*
G37*
G36*
X1637Y3511D02*
X1637D01*
X1638Y3511*
X1638Y3511*
X1639Y3511*
X1640Y3510*
X1640Y3510*
X1641Y3510*
X1641*
X1641Y3510*
X1642Y3510*
X1642Y3510*
X1642Y3510*
X1642Y3510*
X1643Y3510*
X1643Y3509*
X1644Y3509*
X1644Y3509*
X1645Y3508*
X1645Y3508*
X1645Y3508*
X1646Y3508*
X1646Y3508*
X1646Y3507*
X1647Y3507*
X1647Y3506*
X1647Y3506*
X1647Y3506*
X1648Y3506*
X1648Y3505*
X1648Y3505*
X1648Y3505*
X1648Y3504*
X1648Y3503*
X1649Y3503*
Y3503*
X1649Y3503*
Y3503*
X1649Y3503*
X1649Y3502*
X1649Y3502*
X1649Y3502*
X1649Y3501*
X1649Y3500*
X1649Y3500*
X1649Y3499*
Y3490*
X1623*
Y3499*
X1623Y3499*
Y3500*
X1624Y3501*
X1624Y3501*
X1624Y3502*
X1624Y3503*
Y3503*
X1624Y3503*
X1624Y3503*
X1624Y3503*
X1624Y3503*
X1624Y3504*
X1624Y3504*
X1625Y3505*
X1625Y3505*
X1625Y3506*
X1626Y3507*
X1626Y3507*
X1626Y3507*
X1626Y3507*
X1626Y3507*
X1626Y3507*
X1626Y3507*
X1627Y3508*
X1627Y3508*
X1627Y3508*
X1628Y3509*
X1629Y3509*
X1630Y3510*
X1630*
X1630Y3510*
X1630Y3510*
X1631Y3510*
X1631Y3510*
X1631Y3510*
X1631Y3510*
X1632Y3510*
X1632Y3510*
X1633Y3510*
X1633Y3510*
X1634Y3511*
X1635Y3511*
X1636Y3511*
X1636*
X1636*
X1636*
X1637*
X1637Y3511*
G37*
G36*
X1638Y1541D02*
X1638D01*
X1638Y1541*
X1639Y1540*
X1640Y1540*
X1640Y1540*
X1641Y1540*
X1641*
X1641Y1540*
X1641Y1540*
X1641Y1540*
X1641Y1539*
X1642Y1539*
X1642Y1539*
X1643Y1538*
X1643Y1538*
X1644Y1537*
Y1537*
X1644Y1537*
X1644Y1537*
X1644Y1537*
X1644Y1536*
X1644Y1536*
X1644Y1535*
X1644Y1535*
X1645Y1534*
Y1534*
Y1534*
Y1534*
X1644Y1533*
X1644Y1533*
X1644Y1533*
X1644Y1532*
X1644Y1531*
X1644Y1531*
X1644Y1531*
X1643Y1531*
X1643Y1530*
X1643Y1530*
X1643Y1530*
X1642Y1529*
X1642Y1529*
X1641Y1529*
X1641*
X1641Y1529*
X1641Y1529*
X1641Y1529*
X1642Y1529*
X1642Y1529*
X1642Y1528*
X1643Y1528*
X1643Y1528*
X1644Y1527*
X1645Y1527*
Y1527*
X1645Y1527*
X1645Y1526*
X1645Y1526*
X1645Y1526*
X1645Y1526*
X1645Y1525*
X1645Y1525*
X1646Y1524*
X1646Y1523*
X1646Y1522*
Y1522*
Y1522*
Y1522*
X1646Y1522*
X1646Y1522*
X1646Y1521*
X1646Y1521*
X1645Y1521*
X1645Y1520*
X1645Y1520*
X1645Y1519*
X1645Y1519*
X1644Y1518*
X1644Y1518*
X1644Y1517*
X1643Y1517*
X1643Y1517*
X1643Y1517*
X1643Y1517*
X1643Y1516*
X1643Y1516*
X1642Y1516*
X1642Y1516*
X1642Y1516*
X1641Y1515*
X1641Y1515*
X1640Y1515*
X1640Y1515*
X1639Y1515*
X1639Y1515*
X1638Y1515*
X1637Y1515*
X1637*
X1637Y1515*
X1636Y1515*
X1636Y1515*
X1636Y1515*
X1635Y1515*
X1634Y1515*
X1634Y1515*
X1633Y1515*
X1633Y1516*
X1632Y1516*
X1632Y1516*
X1632Y1517*
X1632Y1517*
X1631Y1517*
X1631Y1517*
X1631Y1517*
X1631Y1517*
X1631Y1517*
X1631Y1518*
X1630Y1518*
X1630Y1518*
X1630Y1519*
X1630Y1519*
X1630Y1520*
X1629Y1520*
X1629Y1521*
X1629Y1521*
X1629Y1522*
X1632Y1522*
Y1522*
X1632Y1522*
X1632Y1522*
X1632Y1522*
X1632Y1521*
X1632Y1521*
X1633Y1521*
X1633Y1520*
X1633Y1519*
X1634Y1519*
X1634Y1519*
X1634Y1518*
X1634Y1518*
X1634Y1518*
X1634Y1518*
X1635Y1518*
X1635Y1517*
X1636Y1517*
X1637Y1517*
X1637Y1517*
X1637*
X1638Y1517*
X1638*
X1638Y1517*
X1638Y1517*
X1639Y1517*
X1640Y1518*
X1640Y1518*
X1641Y1518*
X1641Y1519*
X1641Y1519*
X1641Y1519*
X1641Y1519*
X1641Y1519*
X1641Y1519*
X1642Y1520*
X1642Y1520*
X1642Y1521*
X1642Y1522*
X1642Y1522*
Y1522*
Y1522*
Y1523*
Y1523*
X1642Y1523*
Y1523*
X1642Y1523*
X1642Y1524*
X1642Y1524*
X1642Y1525*
X1642Y1525*
X1641Y1526*
X1641Y1526*
X1641Y1526*
X1641Y1526*
X1640Y1526*
X1640Y1527*
X1640Y1527*
X1639Y1527*
X1638Y1527*
X1637Y1527*
X1637*
X1637Y1527*
X1637Y1527*
X1636Y1527*
X1636Y1527*
X1635Y1527*
X1636Y1530*
X1636*
X1636Y1530*
X1636Y1530*
X1636*
X1636Y1530*
X1637Y1530*
X1637Y1530*
X1638Y1530*
X1638Y1530*
X1639Y1530*
X1640Y1531*
X1640*
X1640Y1531*
X1640Y1531*
X1640Y1531*
X1641Y1532*
X1641Y1532*
X1641Y1533*
X1641Y1533*
X1641Y1534*
X1641Y1534*
Y1534*
Y1534*
X1641Y1534*
X1641Y1535*
X1641Y1535*
X1641Y1535*
X1641Y1536*
X1641Y1536*
X1640Y1537*
X1640Y1537*
X1640Y1537*
X1640Y1537*
X1639Y1537*
X1639Y1538*
X1638Y1538*
X1638Y1538*
X1637Y1538*
X1637*
X1637Y1538*
X1636Y1538*
X1636Y1538*
X1636Y1538*
X1635Y1538*
X1635Y1537*
X1634Y1537*
X1634Y1537*
X1634Y1537*
X1634Y1536*
X1633Y1536*
X1633Y1536*
X1633Y1535*
X1633Y1534*
X1632Y1533*
X1629Y1534*
Y1534*
X1629Y1534*
X1629Y1534*
X1629Y1535*
X1630Y1535*
X1630Y1535*
X1630Y1535*
X1630Y1536*
X1630Y1537*
X1631Y1537*
X1631Y1538*
X1632Y1539*
X1632Y1539*
X1632Y1539*
X1632Y1539*
X1632Y1539*
X1632Y1539*
X1633Y1539*
X1633Y1539*
X1633Y1540*
X1633Y1540*
X1634Y1540*
X1634Y1540*
X1635Y1540*
X1636Y1541*
X1636Y1541*
X1637Y1541*
X1637*
X1638Y1541*
G37*
G36*
X1625Y1526D02*
Y1526D01*
Y1526*
Y1525*
Y1525*
X1625Y1525*
Y1524*
X1625Y1524*
X1625Y1524*
X1624Y1523*
X1624Y1521*
X1624Y1520*
X1624Y1520*
X1624Y1520*
Y1520*
X1624Y1519*
X1624Y1519*
X1624Y1519*
X1623Y1519*
X1623Y1519*
X1623Y1518*
X1623Y1518*
X1622Y1517*
X1621Y1516*
X1621Y1516*
X1621Y1516*
X1621*
X1620Y1516*
X1620Y1516*
X1620Y1516*
X1620Y1516*
X1620Y1515*
X1619Y1515*
X1619Y1515*
X1619Y1515*
X1618Y1515*
X1618Y1515*
X1617Y1515*
X1617Y1515*
X1616Y1515*
X1615Y1515*
X1615Y1515*
X1614*
X1614Y1515*
X1614*
X1613Y1515*
X1613Y1515*
X1613Y1515*
X1612Y1515*
X1611Y1515*
X1610Y1515*
X1609Y1516*
X1609*
X1609Y1516*
X1609Y1516*
X1608Y1516*
X1608Y1516*
X1607Y1517*
X1607Y1517*
X1606Y1518*
X1606Y1518*
X1605Y1519*
Y1519*
X1605Y1519*
X1605Y1520*
X1605Y1520*
X1605Y1520*
X1605Y1520*
X1605Y1521*
X1605Y1521*
X1605Y1521*
X1605Y1522*
X1605Y1522*
X1605Y1523*
X1605Y1524*
X1605Y1524*
X1605Y1525*
Y1526*
Y1541*
X1608*
Y1526*
Y1526*
Y1526*
Y1525*
Y1525*
X1608Y1525*
Y1525*
X1608Y1524*
Y1524*
X1608Y1523*
X1608Y1522*
X1608Y1521*
X1608Y1521*
X1609Y1521*
Y1521*
X1609Y1521*
X1609Y1521*
X1609Y1520*
X1609Y1520*
X1609Y1520*
X1610Y1519*
X1610Y1519*
X1611Y1518*
X1611*
X1611Y1518*
X1611Y1518*
X1611Y1518*
X1612Y1518*
X1612Y1518*
X1613Y1518*
X1614Y1518*
X1614Y1518*
X1615*
X1615Y1518*
X1615Y1518*
X1616Y1518*
X1616Y1518*
X1616Y1518*
X1617Y1518*
X1618Y1518*
X1619Y1518*
X1619Y1519*
X1619Y1519*
X1620Y1519*
X1620Y1519*
X1620Y1519*
X1620Y1519*
X1620Y1520*
X1620Y1520*
X1620Y1520*
X1620Y1520*
X1620Y1521*
X1621Y1521*
X1621Y1522*
X1621Y1522*
X1621Y1523*
X1621Y1523*
X1621Y1524*
X1621Y1525*
X1621Y1526*
Y1541*
X1625*
Y1526*
G37*
G36*
X1930Y2251D02*
Y2251D01*
Y2251*
Y2250*
Y2250*
X1930Y2250*
Y2249*
X1930Y2249*
X1930Y2249*
X1929Y2248*
X1929Y2246*
X1929Y2245*
X1929Y2245*
X1929Y2245*
Y2245*
X1929Y2244*
X1929Y2244*
X1929Y2244*
X1928Y2244*
X1928Y2244*
X1928Y2243*
X1928Y2243*
X1927Y2242*
X1926Y2241*
X1926Y2241*
X1926Y2241*
X1926*
X1925Y2241*
X1925Y2241*
X1925Y2241*
X1925Y2241*
X1925Y2240*
X1924Y2240*
X1924Y2240*
X1924Y2240*
X1923Y2240*
X1923Y2240*
X1922Y2240*
X1922Y2240*
X1921Y2240*
X1920Y2240*
X1920Y2240*
X1919*
X1919Y2240*
X1919*
X1918Y2240*
X1918Y2240*
X1918Y2240*
X1917Y2240*
X1916Y2240*
X1915Y2240*
X1914Y2241*
X1914*
X1914Y2241*
X1914Y2241*
X1913Y2241*
X1913Y2241*
X1912Y2242*
X1912Y2242*
X1911Y2243*
X1911Y2243*
X1910Y2244*
Y2244*
X1910Y2244*
X1910Y2245*
X1910Y2245*
X1910Y2245*
X1910Y2245*
X1910Y2246*
X1910Y2246*
X1910Y2246*
X1910Y2247*
X1910Y2247*
X1910Y2248*
X1910Y2249*
X1910Y2249*
X1910Y2250*
Y2251*
Y2266*
X1913*
Y2251*
Y2251*
Y2251*
Y2250*
Y2250*
X1913Y2250*
Y2250*
X1913Y2249*
Y2249*
X1913Y2248*
X1913Y2247*
X1913Y2246*
X1913Y2246*
X1914Y2246*
Y2246*
X1914Y2246*
X1914Y2246*
X1914Y2245*
X1914Y2245*
X1914Y2245*
X1915Y2244*
X1915Y2244*
X1916Y2243*
X1916*
X1916Y2243*
X1916Y2243*
X1916Y2243*
X1917Y2243*
X1917Y2243*
X1918Y2243*
X1919Y2243*
X1919Y2243*
X1920*
X1920Y2243*
X1920Y2243*
X1921Y2243*
X1921Y2243*
X1921Y2243*
X1922Y2243*
X1923Y2243*
X1924Y2243*
X1924Y2244*
X1924Y2244*
X1925Y2244*
X1925Y2244*
X1925Y2244*
X1925Y2244*
X1925Y2245*
X1925Y2245*
X1925Y2245*
X1925Y2245*
X1925Y2246*
X1926Y2246*
X1926Y2247*
X1926Y2247*
X1926Y2248*
X1926Y2248*
X1926Y2249*
X1926Y2250*
X1926Y2251*
Y2266*
X1930*
Y2251*
G37*
G36*
X1947Y2249D02*
X1951D01*
Y2246*
X1947*
Y2240*
X1944*
Y2246*
X1933*
Y2249*
X1945Y2266*
X1947*
Y2249*
G37*
G36*
X5901Y2146D02*
X5886D01*
X5886*
X5886*
X5885*
X5885*
X5885Y2146*
X5885*
X5884Y2146*
X5884*
X5883Y2146*
X5882Y2146*
X5881Y2146*
X5881Y2146*
X5881Y2146*
X5881*
X5881Y2145*
X5881Y2145*
X5880Y2145*
X5880Y2145*
X5880Y2145*
X5879Y2144*
X5879Y2144*
X5878Y2143*
Y2143*
X5878Y2143*
X5878Y2143*
X5878Y2143*
X5878Y2142*
X5878Y2142*
X5878Y2141*
X5878Y2140*
X5878Y2140*
Y2139*
X5878Y2139*
X5878Y2139*
X5878Y2138*
X5878Y2138*
X5878Y2138*
X5878Y2137*
X5878Y2136*
X5878Y2135*
X5879Y2135*
X5879Y2135*
X5879Y2134*
X5879Y2134*
X5879Y2134*
X5879Y2134*
X5880Y2134*
X5880Y2134*
X5880Y2134*
X5880Y2134*
X5881Y2134*
X5881Y2133*
X5882Y2133*
X5882Y2133*
X5883Y2133*
X5883Y2133*
X5884Y2133*
X5885Y2133*
X5886Y2133*
X5901*
Y2129*
X5886*
X5886*
X5886*
X5885*
X5885*
X5885Y2129*
X5884*
X5884Y2129*
X5884Y2129*
X5883Y2130*
X5881Y2130*
X5880Y2130*
X5880Y2130*
X5880Y2130*
X5880*
X5879Y2130*
X5879Y2130*
X5879Y2130*
X5879Y2131*
X5879Y2131*
X5878Y2131*
X5878Y2131*
X5877Y2132*
X5876Y2133*
X5876Y2133*
X5876Y2133*
Y2133*
X5876Y2134*
X5876Y2134*
X5876Y2134*
X5876Y2134*
X5875Y2134*
X5875Y2135*
X5875Y2135*
X5875Y2135*
X5875Y2136*
X5875Y2136*
X5875Y2137*
X5875Y2137*
X5875Y2138*
X5875Y2139*
X5875Y2139*
Y2140*
X5875Y2140*
Y2140*
X5875Y2141*
X5875Y2141*
X5875Y2141*
X5875Y2142*
X5875Y2143*
X5875Y2144*
X5876Y2145*
Y2145*
X5876Y2145*
X5876Y2146*
X5876Y2146*
X5876Y2146*
X5877Y2147*
X5877Y2147*
X5878Y2148*
X5878Y2148*
X5879Y2149*
X5879*
X5879Y2149*
X5880Y2149*
X5880Y2149*
X5880Y2149*
X5880Y2149*
X5881Y2149*
X5881Y2149*
X5881Y2149*
X5882Y2149*
X5882Y2149*
X5883Y2149*
X5884Y2149*
X5884Y2149*
X5885Y2150*
X5886*
X5901*
Y2146*
G37*
G36*
X5894Y2123D02*
X5894Y2122D01*
X5894Y2122*
X5894Y2122*
X5895Y2122*
X5895Y2122*
X5895Y2121*
X5895Y2120*
X5896Y2120*
X5897Y2119*
X5897Y2118*
X5897Y2118*
X5897Y2118*
X5897Y2118*
X5898Y2118*
X5898Y2117*
X5898Y2117*
X5899Y2116*
X5899Y2116*
X5900Y2116*
X5901Y2115*
Y2113*
X5875*
Y2116*
X5895*
X5895Y2116*
X5895Y2116*
X5895Y2117*
X5894Y2117*
X5894Y2118*
X5894Y2118*
X5893Y2119*
X5893Y2119*
Y2119*
X5893Y2119*
X5893Y2119*
X5893Y2120*
X5892Y2120*
X5892Y2120*
X5892Y2121*
X5892Y2121*
X5891Y2122*
X5891Y2123*
X5894*
Y2123*
G37*
G36*
X1833Y3527D02*
X1840D01*
Y3524*
X1833*
Y3513*
X1830*
X1814Y3525*
Y3527*
X1830*
Y3531*
X1833*
Y3527*
G37*
G36*
X1827Y3511D02*
X1828D01*
X1828Y3511*
X1828Y3511*
X1829Y3511*
X1830Y3510*
X1831Y3510*
X1832Y3510*
X1832*
X1832Y3510*
X1832Y3510*
X1832Y3510*
X1832Y3510*
X1833Y3510*
X1833Y3510*
X1834Y3509*
X1834Y3509*
X1835Y3509*
X1835Y3508*
X1836Y3508*
X1836Y3508*
X1836Y3508*
X1836Y3508*
X1837Y3507*
X1837Y3507*
X1837Y3506*
X1838Y3506*
X1838Y3506*
X1838Y3506*
X1838Y3505*
X1838Y3505*
X1838Y3505*
X1839Y3504*
X1839Y3503*
X1839Y3503*
Y3503*
X1839Y3503*
Y3503*
X1839Y3503*
X1839Y3502*
X1839Y3502*
X1839Y3502*
X1839Y3501*
X1839Y3500*
X1839Y3500*
X1840Y3499*
Y3490*
X1814*
Y3499*
X1814Y3499*
Y3500*
X1814Y3501*
X1814Y3501*
X1814Y3502*
X1814Y3503*
Y3503*
X1814Y3503*
X1814Y3503*
X1814Y3503*
X1814Y3503*
X1815Y3504*
X1815Y3504*
X1815Y3505*
X1815Y3505*
X1816Y3506*
X1816Y3507*
X1816Y3507*
X1816Y3507*
X1816Y3507*
X1816Y3507*
X1817Y3507*
X1817Y3507*
X1817Y3508*
X1817Y3508*
X1818Y3508*
X1819Y3509*
X1820Y3509*
X1820Y3510*
X1821*
X1821Y3510*
X1821Y3510*
X1821Y3510*
X1821Y3510*
X1822Y3510*
X1822Y3510*
X1822Y3510*
X1823Y3510*
X1823Y3510*
X1824Y3510*
X1824Y3511*
X1825Y3511*
X1827Y3511*
X1827*
X1827*
X1827*
X1827*
X1827Y3511*
G37*
G36*
X6115Y1820D02*
X6115Y1820D01*
Y1819*
X6115Y1818*
X6115Y1818*
X6115Y1817*
X6115Y1816*
Y1816*
X6115Y1816*
X6115Y1816*
X6115Y1816*
X6115Y1816*
X6114Y1815*
X6114Y1815*
X6114Y1814*
X6114Y1814*
X6113Y1813*
X6113Y1812*
X6113Y1812*
X6113Y1812*
X6113Y1812*
X6113Y1812*
X6112Y1812*
X6112Y1812*
X6112Y1811*
X6112Y1811*
X6111Y1811*
X6110Y1810*
X6109Y1810*
X6109Y1809*
X6108*
X6108Y1809*
X6108Y1809*
X6108Y1809*
X6108Y1809*
X6107Y1809*
X6107Y1809*
X6107Y1809*
X6106Y1809*
X6106Y1809*
X6105Y1809*
X6105Y1808*
X6104Y1808*
X6102Y1808*
X6102*
X6102*
X6102*
X6102*
X6102Y1808*
X6101*
X6101Y1808*
X6101Y1808*
X6100Y1808*
X6099Y1809*
X6098Y1809*
X6097Y1809*
X6097*
X6097Y1809*
X6097Y1809*
X6097Y1809*
X6097Y1809*
X6096Y1809*
X6096Y1809*
X6095Y1810*
X6095Y1810*
X6094Y1810*
X6094Y1811*
X6093Y1811*
X6093Y1811*
X6093Y1811*
X6093Y1811*
X6092Y1812*
X6092Y1812*
X6092Y1813*
X6091Y1813*
X6091Y1813*
X6091Y1813*
X6091Y1814*
X6091Y1814*
X6091Y1814*
X6090Y1815*
X6090Y1816*
X6090Y1816*
Y1816*
X6090Y1816*
Y1816*
X6090Y1816*
X6090Y1817*
X6090Y1817*
X6090Y1817*
X6090Y1818*
X6090Y1819*
X6090Y1819*
X6090Y1820*
Y1830*
X6115*
Y1820*
G37*
G36*
X6090Y1805D02*
X6091Y1805D01*
X6091Y1805*
X6091Y1805*
X6092Y1805*
X6092*
X6092Y1805*
X6092Y1805*
X6092Y1805*
X6092Y1805*
X6093Y1805*
X6093Y1804*
X6094Y1804*
X6094Y1803*
X6095Y1803*
X6095Y1803*
X6095Y1803*
X6095Y1803*
X6095Y1803*
X6096Y1802*
X6096Y1802*
X6097Y1801*
X6097Y1801*
X6098Y1800*
X6099Y1799*
X6099Y1799*
X6099Y1799*
X6099Y1798*
X6100Y1798*
X6100Y1798*
X6100Y1797*
X6101Y1797*
X6101Y1797*
X6102Y1796*
X6103Y1795*
X6103Y1794*
X6104Y1794*
X6104Y1794*
X6104Y1793*
X6104Y1793*
X6104Y1793*
X6105Y1793*
X6105Y1793*
X6105Y1793*
X6105Y1793*
X6106Y1792*
X6106Y1792*
X6107Y1792*
X6108Y1792*
X6108Y1792*
X6108*
X6108*
X6108*
X6108*
X6108Y1792*
X6109Y1792*
X6109Y1792*
X6110Y1792*
X6110Y1792*
X6111Y1793*
X6111Y1793*
X6111Y1793*
X6112Y1793*
X6112Y1794*
X6112Y1794*
X6112Y1795*
X6112Y1795*
X6113Y1796*
X6113Y1797*
Y1797*
X6113Y1797*
Y1797*
X6113Y1797*
X6112Y1798*
X6112Y1798*
X6112Y1799*
X6112Y1800*
X6111Y1800*
X6111Y1800*
X6111Y1800*
X6111Y1801*
X6110Y1801*
X6110Y1801*
X6109Y1801*
X6108Y1802*
X6107Y1802*
X6108Y1805*
X6108*
X6108Y1805*
X6108*
X6108Y1805*
X6109Y1805*
X6109Y1805*
X6109Y1804*
X6110Y1804*
X6111Y1804*
X6111Y1804*
X6112Y1804*
X6112Y1803*
X6113Y1803*
X6113Y1803*
X6113Y1802*
X6113Y1802*
X6113Y1802*
X6113Y1802*
X6114Y1802*
X6114Y1802*
X6114Y1801*
X6114Y1801*
X6114Y1801*
X6114Y1800*
X6115Y1800*
X6115Y1799*
X6115Y1799*
X6115Y1798*
X6115Y1798*
X6115Y1797*
X6115Y1797*
Y1796*
X6115Y1796*
X6115Y1796*
X6115Y1795*
X6115Y1795*
X6115Y1794*
X6115Y1793*
X6115Y1793*
X6114Y1792*
X6114Y1792*
X6114Y1792*
X6114Y1791*
X6113Y1791*
X6113Y1791*
X6113Y1791*
X6113Y1790*
X6113Y1790*
X6113Y1790*
X6112Y1790*
X6112Y1790*
X6112Y1790*
X6111Y1789*
X6111Y1789*
X6110Y1789*
X6110Y1789*
X6109Y1789*
X6109Y1789*
X6108Y1788*
X6108*
X6108*
X6108Y1789*
X6107Y1789*
X6107Y1789*
X6106Y1789*
X6106Y1789*
X6105Y1789*
X6105Y1789*
X6105Y1789*
X6104Y1789*
X6104Y1790*
X6104Y1790*
X6103Y1790*
X6103Y1791*
X6102Y1791*
X6102*
X6102Y1791*
X6102Y1791*
X6102Y1791*
X6101Y1792*
X6101Y1792*
X6101Y1792*
X6101Y1792*
X6100Y1793*
X6100Y1793*
X6100Y1793*
X6099Y1794*
X6099Y1794*
X6098Y1795*
X6098Y1795*
X6097Y1796*
X6097Y1796*
X6097Y1796*
X6097Y1796*
X6097Y1797*
X6097Y1797*
X6097Y1797*
X6096Y1798*
X6096Y1798*
X6095Y1799*
X6095Y1799*
X6095Y1799*
X6094Y1800*
X6094Y1800*
X6094Y1800*
X6094Y1800*
X6094Y1800*
X6094Y1800*
X6093Y1800*
X6093Y1801*
X6093Y1801*
Y1788*
X6090*
Y1805*
X6090*
X6090*
X6090*
X6090Y1805*
G37*
G36*
X6753Y2511D02*
X6759D01*
Y2508*
X6753*
Y2497*
X6750*
X6733Y2508*
Y2511*
X6750*
Y2515*
X6753*
Y2511*
G37*
G36*
X6752Y2494D02*
X6752D01*
X6752Y2494*
X6753Y2493*
X6754Y2493*
X6754Y2493*
X6755Y2493*
X6756Y2493*
X6756Y2493*
X6756*
X6756Y2493*
X6756Y2493*
X6756Y2493*
X6757Y2492*
X6757Y2492*
X6757Y2492*
X6758Y2491*
X6758Y2491*
X6759Y2490*
Y2490*
X6759Y2490*
X6759Y2490*
X6759Y2490*
X6759Y2490*
X6759Y2489*
X6759Y2489*
X6759Y2488*
X6759Y2487*
X6760Y2486*
Y2486*
X6759Y2486*
X6759Y2486*
X6759Y2485*
X6759Y2485*
X6759Y2484*
X6759Y2484*
X6759Y2483*
X6759Y2483*
X6758Y2482*
X6758Y2482*
X6758Y2482*
X6758Y2481*
X6758Y2481*
X6757Y2481*
X6757Y2481*
X6757Y2481*
X6757Y2481*
X6757Y2481*
X6756Y2480*
X6756Y2480*
X6756Y2480*
X6755Y2480*
X6755Y2480*
X6754Y2480*
X6754Y2480*
X6753Y2480*
X6753Y2480*
X6752*
X6751Y2483*
X6751*
X6752*
X6752*
X6752Y2483*
X6752Y2483*
X6752Y2483*
X6753Y2483*
X6754Y2483*
X6754Y2483*
X6755Y2483*
X6755Y2483*
X6755Y2484*
X6755Y2484*
X6756Y2484*
X6756Y2484*
X6756Y2484*
X6756Y2485*
X6756Y2485*
X6756Y2486*
X6756Y2486*
Y2487*
X6756Y2487*
X6756Y2487*
X6756Y2487*
X6756Y2488*
X6756Y2488*
X6756Y2489*
X6756Y2489*
X6756Y2489*
X6756Y2489*
X6755Y2489*
X6755Y2489*
X6755Y2489*
X6755Y2490*
X6754Y2490*
X6754Y2490*
X6754Y2490*
X6754Y2490*
X6754Y2490*
X6753Y2490*
X6753Y2490*
X6752Y2490*
X6751*
X6733*
Y2494*
X6751*
X6751*
X6751*
X6751*
X6751*
X6752Y2494*
G37*
G36*
X1912Y2586D02*
X1913Y2586D01*
X1913Y2586*
X1913Y2586*
X1914Y2586*
X1915Y2586*
X1915Y2585*
X1916Y2585*
X1916Y2585*
X1917Y2585*
X1918Y2584*
X1918Y2584*
X1918Y2584*
X1918Y2584*
X1918Y2584*
X1918Y2584*
X1919Y2583*
X1919Y2583*
X1919Y2583*
X1920Y2583*
X1920Y2582*
X1920Y2582*
X1920Y2581*
X1921Y2581*
X1921Y2580*
X1921Y2580*
X1922Y2579*
X1922Y2579*
X1918Y2578*
Y2578*
X1918Y2578*
X1918Y2578*
X1918Y2578*
X1918Y2578*
X1918Y2579*
X1918Y2579*
X1917Y2580*
X1917Y2581*
X1916Y2581*
X1916Y2582*
X1916Y2582*
X1916*
X1916Y2582*
X1916Y2582*
X1916Y2582*
X1915Y2582*
X1915Y2582*
X1915Y2582*
X1914Y2583*
X1913Y2583*
X1912Y2583*
X1912Y2583*
X1911*
X1911Y2583*
X1911*
X1910Y2583*
X1910Y2583*
X1910Y2583*
X1909Y2583*
X1908Y2582*
X1907Y2582*
X1907Y2582*
X1907Y2582*
X1907*
X1906Y2582*
X1906Y2582*
X1906Y2581*
X1906Y2581*
X1905Y2581*
X1905Y2580*
X1905Y2579*
X1904Y2579*
X1904Y2578*
Y2578*
X1904Y2578*
X1904Y2578*
X1904Y2577*
X1904Y2577*
X1904Y2577*
X1903Y2577*
X1903Y2576*
X1903Y2576*
X1903Y2575*
X1903Y2574*
X1903Y2573*
Y2573*
Y2573*
Y2573*
Y2572*
X1903Y2572*
X1903Y2572*
Y2571*
X1903Y2571*
X1903Y2570*
X1903Y2569*
X1904Y2568*
X1904Y2567*
Y2567*
X1904Y2567*
X1904Y2567*
X1904Y2567*
X1904Y2567*
X1904Y2566*
X1905Y2566*
X1905Y2565*
X1906Y2565*
X1906Y2564*
X1907Y2564*
X1907*
X1907Y2564*
X1907Y2563*
X1907Y2563*
X1907Y2563*
X1908Y2563*
X1908Y2563*
X1909Y2563*
X1910Y2563*
X1910Y2562*
X1911Y2562*
X1912*
X1912Y2562*
X1912Y2562*
X1912Y2563*
X1913Y2563*
X1913Y2563*
X1914Y2563*
X1914Y2563*
X1915Y2563*
X1915Y2563*
X1916Y2564*
X1916Y2564*
X1916Y2564*
X1916Y2564*
X1916Y2564*
X1916Y2564*
X1917Y2564*
X1917Y2565*
X1917Y2565*
X1917Y2565*
X1917Y2566*
X1918Y2566*
X1918Y2566*
X1918Y2567*
X1918Y2567*
X1918Y2568*
X1919Y2568*
X1919Y2569*
X1922Y2568*
Y2568*
X1922Y2568*
X1922Y2568*
X1922Y2567*
X1922Y2567*
X1922Y2567*
X1922Y2566*
X1921Y2566*
X1921Y2565*
X1921Y2565*
X1920Y2564*
X1920Y2564*
X1920Y2563*
X1919Y2563*
X1919Y2562*
X1918Y2562*
X1918Y2562*
X1918Y2562*
X1918Y2561*
X1918Y2561*
X1918Y2561*
X1917Y2561*
X1917Y2561*
X1916Y2561*
X1916Y2560*
X1915Y2560*
X1915Y2560*
X1914Y2560*
X1914Y2560*
X1913Y2560*
X1912Y2560*
X1912Y2560*
X1911*
X1911Y2560*
X1911Y2560*
X1910Y2560*
X1910Y2560*
X1909Y2560*
X1908Y2560*
X1907Y2560*
X1906Y2560*
X1906Y2561*
X1905Y2561*
X1905Y2561*
X1905Y2561*
X1905Y2561*
X1905Y2561*
X1904Y2562*
X1904Y2562*
X1904Y2562*
X1904Y2562*
X1903Y2562*
X1903Y2563*
X1903Y2563*
X1902Y2563*
X1902Y2564*
X1902Y2564*
X1901Y2565*
X1901Y2565*
X1901Y2566*
Y2566*
X1901Y2566*
X1901Y2566*
X1901Y2567*
X1901Y2567*
X1900Y2567*
X1900Y2568*
X1900Y2568*
X1900Y2569*
X1900Y2569*
X1900Y2570*
X1900Y2570*
X1900Y2572*
X1900Y2573*
Y2573*
Y2573*
Y2573*
X1900Y2574*
Y2574*
X1900Y2574*
X1900Y2575*
X1900Y2575*
X1900Y2576*
X1900Y2576*
X1900Y2578*
X1901Y2579*
X1901Y2579*
X1901Y2580*
X1901Y2580*
X1901Y2580*
X1901Y2580*
X1901Y2580*
X1901Y2581*
X1902Y2581*
X1902Y2581*
X1902Y2582*
X1903Y2582*
X1904Y2583*
X1904Y2584*
X1905Y2584*
X1905Y2584*
X1905Y2584*
X1905Y2584*
X1906Y2585*
X1906Y2585*
X1906Y2585*
X1906Y2585*
X1907Y2585*
X1907Y2585*
X1908Y2585*
X1908Y2585*
X1909Y2586*
X1910Y2586*
X1911Y2586*
X1912*
X1912Y2586*
G37*
G36*
X1957Y2560D02*
X1954D01*
Y2580*
X1954Y2580*
X1953Y2580*
X1953Y2580*
X1953Y2579*
X1952Y2579*
X1952Y2579*
X1951Y2578*
X1951Y2578*
X1951*
X1951Y2578*
X1950Y2578*
X1950Y2578*
X1950Y2577*
X1950Y2577*
X1949Y2577*
X1948Y2577*
X1948Y2576*
X1947Y2576*
Y2579*
X1947*
X1947Y2579*
X1948Y2579*
X1948Y2579*
X1948Y2580*
X1948Y2580*
X1949Y2580*
X1950Y2580*
X1950Y2581*
X1951Y2582*
X1952Y2582*
X1952Y2582*
X1952Y2582*
X1952Y2582*
X1952Y2583*
X1953Y2583*
X1953Y2583*
X1953Y2584*
X1954Y2584*
X1954Y2585*
X1955Y2586*
X1957*
Y2560*
G37*
G36*
X1937D02*
X1934D01*
Y2580*
X1934Y2580*
X1934Y2580*
X1933Y2580*
X1933Y2579*
X1933Y2579*
X1932Y2579*
X1931Y2578*
X1931Y2578*
X1931*
X1931Y2578*
X1931Y2578*
X1930Y2578*
X1930Y2577*
X1930Y2577*
X1929Y2577*
X1929Y2577*
X1928Y2576*
X1927Y2576*
Y2579*
X1928*
X1928Y2579*
X1928Y2579*
X1928Y2579*
X1928Y2580*
X1928Y2580*
X1929Y2580*
X1930Y2580*
X1931Y2581*
X1931Y2582*
X1932Y2582*
X1932Y2582*
X1932Y2582*
X1932Y2582*
X1932Y2583*
X1933Y2583*
X1933Y2583*
X1934Y2584*
X1934Y2584*
X1935Y2585*
X1935Y2586*
X1937*
Y2560*
G37*
G36*
X1718Y3916D02*
X1718D01*
X1717*
X1717*
X1717Y3916*
X1717Y3916*
X1717Y3916*
X1716Y3916*
X1715Y3916*
X1715Y3916*
X1714Y3916*
X1714Y3916*
X1714Y3915*
X1714Y3915*
X1713Y3915*
X1713Y3915*
X1713Y3915*
X1713Y3914*
X1713Y3914*
X1713Y3913*
X1713Y3913*
Y3912*
X1713Y3912*
X1713Y3912*
X1713Y3912*
X1713Y3911*
X1713Y3911*
X1713Y3910*
X1713Y3910*
X1713Y3910*
X1713Y3910*
X1714Y3910*
X1714Y3910*
X1714Y3910*
X1714Y3909*
X1715Y3909*
X1715Y3909*
X1715Y3909*
X1715Y3909*
X1715Y3909*
X1716Y3909*
X1716Y3909*
X1717Y3909*
X1718*
X1736*
Y3905*
X1718*
X1718*
X1718*
X1718*
X1718*
X1717Y3905*
X1717*
X1717Y3905*
X1716Y3906*
X1715Y3906*
X1715Y3906*
X1714Y3906*
X1713Y3906*
X1713Y3906*
X1713*
X1713Y3906*
X1713Y3906*
X1713Y3906*
X1713Y3907*
X1712Y3907*
X1712Y3907*
X1711Y3908*
X1711Y3908*
X1710Y3909*
Y3909*
X1710Y3909*
X1710Y3909*
X1710Y3909*
X1710Y3909*
X1710Y3910*
X1710Y3910*
X1710Y3911*
X1710Y3912*
X1710Y3913*
Y3913*
X1710Y3913*
X1710Y3913*
X1710Y3914*
X1710Y3914*
X1710Y3915*
X1710Y3915*
X1710Y3916*
X1710Y3916*
X1711Y3917*
X1711Y3917*
X1711Y3917*
X1711Y3918*
X1711Y3918*
X1712Y3918*
X1712Y3918*
X1712Y3918*
X1712Y3918*
X1712Y3918*
X1713Y3919*
X1713Y3919*
X1713Y3919*
X1714Y3919*
X1714Y3919*
X1715Y3919*
X1715Y3919*
X1716Y3919*
X1716Y3920*
X1717*
X1718Y3916*
G37*
G36*
X1717Y3898D02*
X1717D01*
X1717Y3898*
X1717Y3898*
X1717Y3898*
X1716Y3898*
X1716Y3898*
X1716Y3898*
X1715Y3897*
X1714Y3897*
X1714Y3897*
X1713Y3896*
X1713Y3896*
X1713Y3896*
X1713Y3896*
X1713Y3896*
X1713Y3895*
X1712Y3895*
X1712Y3894*
X1712Y3894*
X1712Y3893*
Y3893*
X1712Y3893*
Y3892*
X1712Y3892*
X1712Y3892*
X1712Y3891*
X1713Y3891*
X1713Y3890*
X1713Y3890*
X1714Y3889*
X1714Y3889*
X1714Y3889*
X1714Y3889*
X1714Y3889*
X1714Y3889*
X1715Y3889*
X1715Y3888*
X1716Y3888*
X1717Y3888*
X1717Y3888*
X1717*
X1717*
X1718*
X1718*
X1718Y3888*
X1718*
X1718Y3888*
X1719Y3888*
X1719Y3888*
X1720Y3888*
X1720Y3889*
X1721Y3889*
X1721Y3889*
X1721Y3889*
X1721Y3889*
X1721Y3890*
X1722Y3890*
X1722Y3891*
X1722Y3891*
X1722Y3892*
X1722Y3893*
Y3893*
X1722Y3893*
X1722Y3894*
X1722Y3894*
X1722Y3895*
X1722Y3895*
X1725Y3895*
Y3895*
X1725Y3894*
X1725Y3894*
Y3894*
X1725Y3894*
X1725Y3893*
X1725Y3893*
X1725Y3892*
X1725Y3892*
X1725Y3891*
X1726Y3891*
Y3891*
X1726Y3890*
X1726Y3890*
X1726Y3890*
X1727Y3890*
X1727Y3889*
X1728Y3889*
X1728Y3889*
X1729Y3889*
X1729Y3889*
X1729*
X1729*
X1729Y3889*
X1730Y3889*
X1730Y3889*
X1730Y3889*
X1731Y3889*
X1731Y3890*
X1732Y3890*
X1732Y3890*
X1732Y3890*
X1732Y3891*
X1732Y3891*
X1733Y3891*
X1733Y3892*
X1733Y3892*
X1733Y3893*
Y3893*
X1733Y3893*
X1733Y3894*
X1733Y3894*
X1733Y3895*
X1733Y3895*
X1732Y3896*
X1732Y3896*
X1732Y3896*
X1732Y3896*
X1731Y3897*
X1731Y3897*
X1731Y3897*
X1730Y3897*
X1729Y3898*
X1728Y3898*
X1729Y3901*
X1729*
X1729Y3901*
X1729Y3901*
X1730Y3901*
X1730Y3901*
X1730Y3901*
X1730Y3900*
X1731Y3900*
X1732Y3900*
X1732Y3900*
X1733Y3899*
X1734Y3899*
X1734Y3898*
X1734Y3898*
X1734Y3898*
X1734Y3898*
X1734Y3898*
X1734Y3898*
X1734Y3897*
X1735Y3897*
X1735Y3897*
X1735Y3896*
X1735Y3896*
X1735Y3895*
X1736Y3894*
X1736Y3894*
X1736Y3893*
Y3893*
X1736Y3893*
Y3892*
X1736Y3892*
X1735Y3891*
X1735Y3891*
X1735Y3890*
X1735Y3889*
Y3889*
X1735Y3889*
X1735Y3889*
X1735Y3889*
X1734Y3889*
X1734Y3888*
X1734Y3888*
X1733Y3887*
X1733Y3887*
X1732Y3887*
X1732*
X1732Y3887*
X1732Y3886*
X1732Y3886*
X1731Y3886*
X1731Y3886*
X1730Y3886*
X1730Y3886*
X1729Y3886*
X1729*
X1729*
X1729*
X1728Y3886*
X1728Y3886*
X1728Y3886*
X1727Y3886*
X1726Y3886*
X1726Y3887*
X1726Y3887*
X1726Y3887*
X1725Y3887*
X1725Y3887*
X1725Y3888*
X1724Y3888*
X1724Y3889*
X1724Y3889*
Y3889*
X1724Y3889*
X1724Y3889*
X1724Y3889*
X1724Y3889*
X1724Y3888*
X1723Y3888*
X1723Y3887*
X1723Y3887*
X1722Y3886*
X1722Y3886*
X1722*
X1722Y3886*
X1721Y3886*
X1721Y3885*
X1721Y3885*
X1721Y3885*
X1720Y3885*
X1720Y3885*
X1719Y3885*
X1718Y3884*
X1717Y3884*
X1717*
X1717*
X1717*
X1717Y3884*
X1717Y3884*
X1716Y3885*
X1716Y3885*
X1716Y3885*
X1715Y3885*
X1715Y3885*
X1714Y3885*
X1714Y3885*
X1713Y3886*
X1713Y3886*
X1712Y3886*
X1712Y3887*
X1712Y3887*
X1712Y3887*
X1712Y3887*
X1711Y3887*
X1711Y3888*
X1711Y3888*
X1711Y3888*
X1711Y3889*
X1710Y3889*
X1710Y3889*
X1710Y3890*
X1710Y3891*
X1710Y3891*
X1710Y3892*
X1710Y3892*
X1710Y3893*
Y3893*
X1710Y3894*
X1710Y3894*
X1710Y3894*
X1710Y3895*
X1710Y3895*
X1710Y3896*
X1710Y3896*
X1710Y3897*
X1711Y3897*
X1711Y3898*
X1711Y3898*
X1712Y3899*
X1712Y3899*
X1712Y3899*
X1712Y3899*
X1712Y3899*
X1712Y3899*
X1712Y3899*
X1713Y3900*
X1713Y3900*
X1713Y3900*
X1714Y3900*
X1714Y3900*
X1715Y3901*
X1715Y3901*
X1716Y3901*
X1716Y3901*
X1717Y3901*
X1717Y3898*
G37*
G36*
X6115Y1550D02*
X6115Y1550D01*
Y1549*
X6115Y1548*
X6115Y1548*
X6115Y1547*
X6115Y1546*
Y1546*
X6115Y1546*
X6115Y1546*
X6115Y1546*
X6115Y1546*
X6114Y1545*
X6114Y1545*
X6114Y1544*
X6114Y1544*
X6113Y1543*
X6113Y1542*
X6113Y1542*
X6113Y1542*
X6113Y1542*
X6113Y1542*
X6112Y1542*
X6112Y1542*
X6112Y1541*
X6112Y1541*
X6111Y1541*
X6110Y1540*
X6109Y1540*
X6109Y1539*
X6108*
X6108Y1539*
X6108Y1539*
X6108Y1539*
X6108Y1539*
X6107Y1539*
X6107Y1539*
X6107Y1539*
X6106Y1539*
X6106Y1539*
X6105Y1539*
X6105Y1538*
X6104Y1538*
X6102Y1538*
X6102*
X6102*
X6102*
X6102*
X6102Y1538*
X6101*
X6101Y1538*
X6101Y1538*
X6100Y1538*
X6099Y1539*
X6098Y1539*
X6097Y1539*
X6097*
X6097Y1539*
X6097Y1539*
X6097Y1539*
X6097Y1539*
X6096Y1539*
X6096Y1539*
X6095Y1540*
X6095Y1540*
X6094Y1540*
X6094Y1541*
X6093Y1541*
X6093Y1541*
X6093Y1541*
X6093Y1541*
X6092Y1542*
X6092Y1542*
X6092Y1543*
X6091Y1543*
X6091Y1543*
X6091Y1543*
X6091Y1544*
X6091Y1544*
X6091Y1544*
X6090Y1545*
X6090Y1546*
X6090Y1546*
Y1546*
X6090Y1546*
Y1546*
X6090Y1546*
X6090Y1547*
X6090Y1547*
X6090Y1547*
X6090Y1548*
X6090Y1549*
X6090Y1549*
X6090Y1550*
Y1560*
X6115*
Y1550*
G37*
G36*
X6109Y1532D02*
X6109Y1532D01*
X6109Y1532*
X6109Y1532*
X6109Y1532*
X6109Y1532*
X6110Y1531*
X6110Y1530*
X6111Y1529*
X6111Y1529*
X6112Y1528*
X6112Y1528*
X6112Y1528*
X6112Y1528*
X6112Y1528*
X6112Y1527*
X6113Y1527*
X6113Y1526*
X6114Y1526*
X6115Y1526*
X6115Y1525*
Y1523*
X6090*
Y1526*
X6110*
X6109Y1526*
X6109Y1526*
X6109Y1527*
X6109Y1527*
X6109Y1527*
X6108Y1528*
X6108Y1529*
X6107Y1529*
Y1529*
X6107Y1529*
X6107Y1529*
X6107Y1530*
X6107Y1530*
X6107Y1530*
X6106Y1531*
X6106Y1531*
X6106Y1532*
X6106Y1533*
X6109*
Y1532*
G37*
G36*
X6744Y3606D02*
X6744Y3606D01*
X6744Y3606*
X6745Y3606*
X6745Y3605*
X6746Y3605*
X6746Y3605*
X6747Y3605*
X6747Y3605*
X6748Y3604*
X6748Y3604*
X6748Y3604*
X6748Y3604*
X6748Y3604*
X6748Y3604*
X6749Y3603*
X6749Y3603*
X6749Y3603*
X6749Y3603*
X6749Y3602*
X6749Y3602*
X6750Y3602*
X6750Y3601*
X6750Y3600*
X6750Y3600*
X6750Y3599*
X6747Y3599*
Y3599*
X6747Y3599*
Y3599*
X6747Y3599*
X6747Y3600*
X6747Y3600*
X6747Y3601*
X6747Y3601*
X6746Y3601*
X6746Y3602*
X6746Y3602*
X6746Y3602*
X6746Y3602*
X6745Y3602*
X6745Y3603*
X6744Y3603*
X6744Y3603*
X6743Y3603*
X6743*
X6742Y3603*
X6742Y3603*
X6742Y3603*
X6741Y3603*
X6741Y3602*
X6740Y3602*
X6740Y3602*
X6740Y3602*
X6740Y3602*
X6739Y3601*
X6739Y3601*
X6739Y3600*
X6738Y3600*
X6738Y3599*
Y3599*
X6738Y3599*
X6738Y3599*
X6738Y3599*
X6738Y3598*
X6738Y3598*
X6738Y3598*
X6737Y3598*
X6737Y3597*
X6737Y3597*
X6737Y3596*
X6737Y3596*
X6737Y3595*
X6737Y3594*
X6737Y3594*
Y3593*
X6737Y3593*
X6737Y3593*
X6737Y3594*
X6738Y3594*
X6738Y3595*
X6739Y3595*
X6739Y3595*
X6740Y3596*
X6740*
X6740Y3596*
X6740Y3596*
X6740Y3596*
X6740Y3596*
X6741Y3596*
X6741Y3596*
X6742Y3596*
X6743Y3597*
X6743Y3597*
X6744*
X6744Y3597*
X6744Y3596*
X6744Y3596*
X6745Y3596*
X6745Y3596*
X6746Y3596*
X6746Y3596*
X6746Y3596*
X6747Y3596*
X6747Y3595*
X6748Y3595*
X6748Y3595*
X6749Y3594*
X6749Y3594*
X6749Y3594*
X6749Y3594*
X6749Y3594*
X6749Y3594*
X6749Y3593*
X6749Y3593*
X6750Y3593*
X6750Y3592*
X6750Y3592*
X6750Y3591*
X6750Y3591*
X6751Y3590*
X6751Y3590*
X6751Y3589*
X6751Y3588*
Y3588*
Y3588*
Y3588*
Y3588*
X6751Y3588*
X6751Y3587*
X6751Y3587*
X6751Y3586*
X6750Y3585*
X6750Y3585*
X6750Y3584*
Y3584*
X6750Y3584*
X6750Y3584*
X6750Y3583*
X6749Y3583*
X6749Y3583*
X6749Y3582*
X6748Y3582*
X6748Y3581*
X6747Y3581*
X6747*
X6747Y3581*
X6747Y3581*
X6747Y3580*
X6746Y3580*
X6746Y3580*
X6746Y3580*
X6745Y3580*
X6744Y3580*
X6744Y3580*
X6743Y3580*
X6743*
X6742Y3580*
X6742*
X6742Y3580*
X6741Y3580*
X6741Y3580*
X6741Y3580*
X6740Y3580*
X6740Y3580*
X6739Y3580*
X6738Y3581*
X6738Y3581*
X6737Y3581*
X6737Y3582*
X6736Y3582*
X6736Y3582*
X6736Y3583*
X6736Y3583*
X6736Y3583*
X6736Y3583*
X6736Y3584*
X6735Y3584*
X6735Y3585*
X6735Y3585*
X6735Y3586*
X6734Y3587*
X6734Y3588*
X6734Y3589*
X6734Y3590*
X6734Y3591*
X6734Y3592*
Y3592*
Y3592*
Y3592*
Y3592*
Y3592*
X6734Y3593*
Y3593*
X6734Y3594*
X6734Y3594*
X6734Y3595*
X6734Y3596*
X6734Y3597*
X6735Y3598*
X6735Y3599*
X6735Y3600*
X6735Y3600*
X6736Y3601*
X6736Y3602*
X6737Y3603*
X6737Y3603*
X6737Y3603*
X6737Y3603*
X6737Y3603*
X6737Y3603*
X6738Y3604*
X6738Y3604*
X6738Y3604*
X6739Y3604*
X6739Y3605*
X6740Y3605*
X6740Y3605*
X6741Y3605*
X6742Y3606*
X6742Y3606*
X6743Y3606*
X6743*
X6744Y3606*
G37*
G36*
X6719Y3606D02*
X6720D01*
X6721Y3605*
X6721Y3605*
X6722Y3605*
X6723Y3605*
X6723*
X6723Y3605*
X6723Y3605*
X6723Y3605*
X6723Y3605*
X6724Y3605*
X6724Y3605*
X6725Y3604*
X6725Y3604*
X6726Y3604*
X6727Y3603*
X6727Y3603*
X6727Y3603*
X6727Y3603*
X6727Y3603*
X6727Y3603*
X6727Y3603*
X6728Y3602*
X6728Y3602*
X6728Y3602*
X6729Y3601*
X6729Y3600*
X6730Y3599*
Y3599*
X6730Y3599*
X6730Y3599*
X6730Y3598*
X6730Y3598*
X6730Y3598*
X6730Y3598*
X6730Y3597*
X6730Y3597*
X6730Y3596*
X6730Y3596*
X6731Y3595*
X6731Y3594*
X6731Y3593*
Y3593*
Y3593*
Y3593*
Y3592*
X6731Y3592*
Y3592*
X6731Y3591*
X6731Y3591*
X6731Y3590*
X6730Y3589*
X6730Y3589*
X6730Y3588*
Y3588*
X6730Y3588*
X6730Y3587*
X6730Y3587*
X6730Y3587*
X6730Y3587*
X6730Y3586*
X6729Y3586*
X6729Y3585*
X6729Y3585*
X6728Y3584*
X6728Y3584*
X6728Y3584*
X6728Y3583*
X6728Y3583*
X6727Y3583*
X6727Y3582*
X6726Y3582*
X6726Y3582*
X6726Y3582*
X6726Y3582*
X6725Y3581*
X6725Y3581*
X6725Y3581*
X6724Y3581*
X6723Y3581*
X6723Y3580*
X6723*
X6723Y3580*
X6723*
X6723Y3580*
X6722Y3580*
X6722Y3580*
X6722Y3580*
X6721Y3580*
X6720Y3580*
X6720Y3580*
X6719Y3580*
X6710*
Y3606*
X6719*
X6719Y3606*
G37*
G36*
X1877Y1909D02*
X1877Y1909D01*
X1877Y1909*
X1878Y1909*
X1878Y1909*
X1879Y1909*
X1880Y1909*
X1881Y1909*
X1882Y1908*
X1882Y1908*
X1883Y1908*
X1883Y1908*
X1883Y1908*
X1883Y1908*
X1883Y1908*
X1883Y1907*
X1884Y1907*
X1884Y1907*
X1884Y1907*
X1884Y1906*
X1885Y1906*
X1885Y1906*
X1885Y1905*
X1886Y1905*
X1886Y1904*
X1886Y1904*
X1887Y1903*
Y1903*
X1887Y1903*
X1887Y1903*
X1887Y1902*
X1887Y1902*
X1887Y1902*
X1887Y1901*
X1887Y1901*
X1887Y1900*
X1887Y1900*
X1888Y1899*
X1888Y1899*
X1888Y1897*
X1888Y1896*
Y1896*
Y1896*
Y1896*
X1888Y1895*
Y1895*
X1888Y1895*
X1888Y1894*
X1888Y1894*
X1888Y1893*
X1888Y1893*
X1887Y1891*
X1887Y1890*
X1887Y1890*
X1886Y1889*
X1886Y1889*
X1886Y1889*
X1886Y1889*
X1886Y1889*
X1886Y1888*
X1886Y1888*
X1886Y1888*
X1885Y1887*
X1885Y1887*
X1884Y1886*
X1883Y1885*
X1883Y1885*
X1882Y1885*
X1882Y1885*
X1882Y1885*
X1882Y1884*
X1882Y1884*
X1881Y1884*
X1881Y1884*
X1881Y1884*
X1880Y1884*
X1880Y1884*
X1879Y1884*
X1878Y1883*
X1877Y1883*
X1876Y1883*
X1875*
X1875Y1883*
X1875Y1883*
X1874Y1883*
X1874Y1883*
X1874Y1883*
X1873Y1883*
X1872Y1884*
X1871Y1884*
X1871Y1884*
X1870Y1884*
X1870Y1885*
X1869Y1885*
X1869Y1885*
X1869Y1885*
X1869Y1885*
X1869Y1885*
X1869Y1886*
X1868Y1886*
X1868Y1886*
X1868Y1886*
X1868Y1887*
X1867Y1887*
X1867Y1888*
X1867Y1888*
X1866Y1889*
X1866Y1889*
X1866Y1890*
X1866Y1890*
X1869Y1891*
Y1891*
X1869Y1891*
X1869Y1891*
X1869Y1891*
X1869Y1891*
X1869Y1890*
X1870Y1890*
X1870Y1889*
X1870Y1888*
X1871Y1888*
X1871Y1887*
X1872Y1887*
X1872*
X1872Y1887*
X1872Y1887*
X1872Y1887*
X1872Y1887*
X1872Y1887*
X1873Y1887*
X1873Y1886*
X1874Y1886*
X1875Y1886*
X1876Y1886*
X1876*
X1876Y1886*
X1877*
X1877Y1886*
X1877Y1886*
X1878Y1886*
X1878Y1886*
X1879Y1887*
X1880Y1887*
X1880Y1887*
X1881Y1887*
X1881*
X1881Y1887*
X1881Y1887*
X1881Y1888*
X1882Y1888*
X1882Y1888*
X1882Y1889*
X1883Y1890*
X1883Y1890*
X1884Y1891*
Y1891*
X1884Y1891*
X1884Y1891*
X1884Y1892*
X1884Y1892*
X1884Y1892*
X1884Y1892*
X1884Y1893*
X1884Y1893*
X1884Y1894*
X1884Y1895*
X1884Y1896*
Y1896*
Y1896*
Y1896*
Y1897*
X1884Y1897*
X1884Y1897*
Y1898*
X1884Y1898*
X1884Y1899*
X1884Y1900*
X1884Y1901*
X1884Y1902*
Y1902*
X1883Y1902*
X1883Y1902*
X1883Y1902*
X1883Y1902*
X1883Y1903*
X1883Y1903*
X1882Y1904*
X1882Y1904*
X1881Y1905*
X1881Y1905*
X1881*
X1880Y1905*
X1880Y1906*
X1880Y1906*
X1880Y1906*
X1880Y1906*
X1879Y1906*
X1879Y1906*
X1878Y1906*
X1877Y1907*
X1876Y1907*
X1876*
X1876Y1907*
X1875Y1907*
X1875Y1907*
X1875Y1906*
X1875Y1906*
X1874Y1906*
X1873Y1906*
X1873Y1906*
X1872Y1906*
X1872Y1905*
X1871Y1905*
X1871Y1905*
X1871Y1905*
X1871Y1905*
X1871Y1905*
X1871Y1905*
X1871Y1904*
X1870Y1904*
X1870Y1904*
X1870Y1903*
X1870Y1903*
X1870Y1903*
X1869Y1902*
X1869Y1902*
X1869Y1901*
X1869Y1901*
X1869Y1900*
X1865Y1901*
Y1901*
X1865Y1901*
X1865Y1901*
X1865Y1902*
X1866Y1902*
X1866Y1902*
X1866Y1903*
X1866Y1903*
X1866Y1904*
X1867Y1904*
X1867Y1905*
X1867Y1905*
X1868Y1906*
X1868Y1906*
X1869Y1907*
X1869Y1907*
X1869Y1907*
X1869Y1907*
X1869Y1908*
X1870Y1908*
X1870Y1908*
X1870Y1908*
X1871Y1908*
X1871Y1908*
X1871Y1909*
X1872Y1909*
X1873Y1909*
X1873Y1909*
X1874Y1909*
X1874Y1909*
X1875Y1909*
X1876Y1910*
X1876*
X1877Y1909*
G37*
G36*
X1854Y1889D02*
X1854Y1889D01*
X1854Y1889*
X1854Y1889*
X1854Y1890*
X1855Y1890*
X1855Y1890*
X1856Y1891*
X1857Y1891*
X1857*
X1857Y1891*
X1857Y1891*
X1857Y1891*
X1857Y1892*
X1858Y1892*
X1858Y1892*
X1859Y1892*
X1859Y1893*
X1860Y1893*
Y1890*
X1860*
X1860Y1890*
X1860Y1890*
X1860Y1890*
X1859Y1889*
X1859Y1889*
X1858Y1889*
X1858Y1889*
X1857Y1888*
X1856Y1887*
X1855Y1887*
X1855Y1887*
X1855Y1887*
X1855Y1887*
X1855Y1886*
X1855Y1886*
X1854Y1886*
X1854Y1885*
X1853Y1885*
X1853Y1884*
X1853Y1883*
X1851*
Y1909*
X1854*
Y1889*
G37*
G36*
X1835Y1909D02*
X1835D01*
X1835Y1909*
X1835Y1909*
X1836Y1909*
X1836Y1909*
X1837Y1909*
X1837Y1909*
X1838Y1909*
X1838Y1908*
X1839Y1908*
X1839Y1908*
X1840Y1907*
X1840Y1907*
X1840Y1907*
X1840Y1907*
X1840Y1907*
X1840Y1906*
X1841Y1906*
X1841Y1905*
X1841Y1905*
X1841Y1904*
X1841Y1904*
X1842Y1903*
X1842Y1902*
X1842Y1901*
X1842Y1900*
X1842Y1899*
X1842Y1898*
X1842Y1896*
Y1896*
Y1896*
Y1896*
Y1896*
X1842Y1895*
X1842Y1895*
Y1894*
X1842Y1894*
X1842Y1893*
X1842Y1891*
X1842Y1890*
X1842Y1890*
X1842Y1889*
Y1889*
X1842Y1889*
X1841Y1889*
X1841Y1889*
X1841Y1888*
X1841Y1888*
X1841Y1888*
X1840Y1887*
X1840Y1886*
X1839Y1885*
X1839Y1885*
X1839Y1885*
X1839Y1885*
X1839Y1885*
X1838Y1885*
X1838Y1885*
X1838Y1884*
X1838Y1884*
X1838Y1884*
X1837Y1884*
X1836Y1884*
X1835Y1883*
X1835Y1883*
X1834*
X1834Y1883*
X1833*
X1833Y1883*
X1832Y1884*
X1832Y1884*
X1831Y1884*
X1831Y1884*
X1830*
X1830Y1884*
X1830Y1884*
X1830Y1885*
X1830Y1885*
X1829Y1885*
X1829Y1886*
X1828Y1886*
X1828Y1887*
Y1887*
X1828Y1887*
X1828Y1887*
X1828Y1887*
X1828Y1887*
X1827Y1888*
X1827Y1888*
X1827Y1889*
X1827Y1890*
X1826Y1890*
Y1890*
X1826Y1891*
X1826Y1891*
X1826Y1891*
X1826Y1891*
X1826Y1891*
X1826Y1892*
X1826Y1892*
X1826Y1892*
X1826Y1893*
X1826Y1893*
X1826Y1894*
X1826Y1894*
X1826Y1895*
X1826Y1896*
Y1896*
Y1897*
Y1897*
Y1897*
Y1897*
X1826Y1898*
Y1898*
X1826Y1899*
X1826Y1899*
X1826Y1900*
X1826Y1901*
X1826Y1903*
X1827Y1903*
X1827Y1904*
Y1904*
X1827Y1904*
X1827Y1904*
X1827Y1904*
X1827Y1904*
X1827Y1905*
X1827Y1905*
X1828Y1906*
X1828Y1907*
X1829Y1907*
X1830Y1908*
X1830*
X1830Y1908*
X1830Y1908*
X1830Y1908*
X1830Y1908*
X1830Y1908*
X1830Y1909*
X1831Y1909*
X1831Y1909*
X1832Y1909*
X1833Y1909*
X1834Y1909*
X1834Y1910*
X1834*
X1835Y1909*
G37*
G36*
X1564Y2859D02*
X1564D01*
X1564Y2859*
X1565Y2859*
X1565Y2859*
X1566Y2859*
X1566Y2859*
X1568Y2859*
X1569Y2859*
X1569Y2858*
X1570Y2858*
X1570Y2858*
X1570Y2858*
X1570Y2858*
X1570Y2858*
X1571Y2858*
X1571Y2857*
X1571Y2857*
X1572Y2857*
X1572Y2856*
X1573Y2856*
X1574Y2855*
X1574Y2854*
X1574Y2854*
X1574Y2854*
X1574Y2854*
X1575Y2853*
X1575Y2853*
X1575Y2853*
X1575Y2853*
X1575Y2852*
X1575Y2852*
X1575Y2851*
X1575Y2851*
X1576Y2850*
X1576Y2849*
X1576Y2848*
Y2847*
X1576Y2847*
X1576Y2846*
X1576Y2846*
X1576Y2846*
X1576Y2845*
X1576Y2844*
X1575Y2844*
X1575Y2843*
X1575Y2843*
X1575Y2842*
X1574Y2841*
X1574Y2841*
X1574Y2841*
X1574Y2841*
X1574Y2841*
X1574Y2841*
X1573Y2840*
X1573Y2840*
X1573Y2840*
X1573Y2839*
X1572Y2839*
X1572Y2839*
X1571Y2839*
X1571Y2838*
X1570Y2838*
X1570Y2838*
X1569Y2837*
X1569Y2837*
X1568Y2841*
X1568*
X1568Y2841*
X1568Y2841*
X1568Y2841*
X1568Y2841*
X1569Y2841*
X1569Y2841*
X1570Y2842*
X1571Y2842*
X1571Y2843*
X1572Y2843*
X1572Y2843*
Y2843*
X1572Y2843*
X1572Y2843*
X1572Y2843*
X1572Y2844*
X1572Y2844*
X1572Y2844*
X1573Y2845*
X1573Y2846*
X1573Y2847*
X1573Y2847*
Y2848*
X1573Y2848*
Y2848*
X1573Y2849*
X1573Y2849*
X1573Y2849*
X1573Y2850*
X1572Y2851*
X1572Y2852*
X1572Y2852*
X1572Y2852*
Y2852*
X1572Y2853*
X1572Y2853*
X1571Y2853*
X1571Y2853*
X1571Y2854*
X1570Y2854*
X1569Y2854*
X1569Y2855*
X1568Y2855*
X1568*
X1568Y2855*
X1568Y2855*
X1567Y2855*
X1567Y2855*
X1567Y2855*
X1567Y2856*
X1566Y2856*
X1566Y2856*
X1565Y2856*
X1564Y2856*
X1563Y2856*
X1563*
X1563*
X1563*
X1562*
X1562Y2856*
X1562Y2856*
X1561*
X1561Y2856*
X1560Y2856*
X1559Y2856*
X1558Y2855*
X1557Y2855*
X1557*
X1557Y2855*
X1557Y2855*
X1557Y2855*
X1557Y2855*
X1556Y2855*
X1556Y2854*
X1555Y2854*
X1555Y2853*
X1554Y2853*
X1554Y2852*
Y2852*
X1554Y2852*
X1554Y2852*
X1553Y2852*
X1553Y2852*
X1553Y2851*
X1553Y2851*
X1553Y2850*
X1553Y2849*
X1552Y2849*
X1552Y2848*
Y2847*
X1552Y2847*
X1552Y2847*
X1553Y2847*
X1553Y2846*
X1553Y2846*
X1553Y2845*
X1553Y2845*
X1553Y2844*
X1554Y2844*
X1554Y2843*
X1554Y2843*
X1554Y2843*
X1554Y2843*
X1554Y2843*
X1554Y2843*
X1554Y2842*
X1555Y2842*
X1555Y2842*
X1555Y2842*
X1556Y2842*
X1556Y2841*
X1556Y2841*
X1557Y2841*
X1557Y2841*
X1558Y2841*
X1558Y2840*
X1559Y2840*
X1558Y2837*
X1558*
X1558Y2837*
X1558Y2837*
X1557Y2837*
X1557Y2837*
X1557Y2837*
X1556Y2837*
X1556Y2838*
X1555Y2838*
X1555Y2838*
X1554Y2839*
X1554Y2839*
X1553Y2839*
X1553Y2840*
X1552Y2840*
X1552Y2841*
X1552Y2841*
X1552Y2841*
X1551Y2841*
X1551Y2841*
X1551Y2841*
X1551Y2842*
X1551Y2842*
X1551Y2843*
X1550Y2843*
X1550Y2844*
X1550Y2844*
X1550Y2845*
X1550Y2845*
X1550Y2846*
X1550Y2847*
X1550Y2847*
Y2848*
X1550Y2848*
X1550Y2848*
X1550Y2849*
X1550Y2849*
X1550Y2850*
X1550Y2851*
X1550Y2852*
X1550Y2853*
X1551Y2853*
X1551Y2854*
X1551Y2854*
X1551Y2854*
X1551Y2854*
X1551Y2854*
X1552Y2855*
X1552Y2855*
X1552Y2855*
X1552Y2855*
X1552Y2856*
X1553Y2856*
X1553Y2856*
X1554Y2857*
X1554Y2857*
X1554Y2857*
X1555Y2858*
X1555Y2858*
X1556Y2858*
X1556*
X1556Y2858*
X1556Y2858*
X1557Y2858*
X1557Y2858*
X1557Y2859*
X1558Y2859*
X1558Y2859*
X1559Y2859*
X1559Y2859*
X1560Y2859*
X1560Y2859*
X1562Y2859*
X1563Y2860*
X1563*
X1563*
X1563*
X1564Y2859*
G37*
G36*
X1563Y2834D02*
X1563D01*
X1564Y2834*
X1564Y2834*
X1565Y2834*
X1566Y2834*
X1567Y2834*
X1568Y2833*
X1569Y2833*
X1570Y2833*
X1570Y2833*
X1571Y2832*
X1572Y2832*
X1573Y2831*
X1573Y2831*
X1573Y2831*
X1573Y2831*
X1573Y2831*
X1573Y2831*
X1574Y2830*
X1574Y2830*
X1574Y2830*
X1574Y2829*
X1575Y2829*
X1575Y2828*
X1575Y2828*
X1575Y2827*
X1576Y2826*
X1576Y2826*
X1576Y2825*
Y2825*
X1576Y2824*
X1576Y2824*
X1576Y2824*
X1576Y2824*
X1575Y2823*
X1575Y2822*
X1575Y2822*
X1575Y2821*
X1575Y2821*
X1574Y2820*
X1574Y2820*
X1574Y2820*
X1574Y2820*
X1574Y2820*
X1574Y2820*
X1573Y2819*
X1573Y2819*
X1573Y2819*
X1573Y2819*
X1572Y2819*
X1572Y2819*
X1572Y2818*
X1571Y2818*
X1570Y2818*
X1570Y2818*
X1569Y2818*
X1569Y2821*
X1569*
X1569Y2821*
X1569*
X1569Y2821*
X1570Y2821*
X1570Y2821*
X1571Y2821*
X1571Y2821*
X1571Y2822*
X1572Y2822*
X1572Y2822*
X1572Y2822*
X1572Y2822*
X1572Y2823*
X1573Y2823*
X1573Y2824*
X1573Y2824*
X1573Y2825*
Y2825*
X1573Y2826*
X1573Y2826*
X1573Y2826*
X1573Y2827*
X1572Y2827*
X1572Y2828*
X1572Y2828*
X1572Y2828*
X1572Y2828*
X1571Y2829*
X1571Y2829*
X1570Y2829*
X1570Y2830*
X1569Y2830*
X1569*
X1569Y2830*
X1569Y2830*
X1569Y2830*
X1568Y2830*
X1568Y2830*
X1568Y2830*
X1568Y2831*
X1567Y2831*
X1567Y2831*
X1566Y2831*
X1566Y2831*
X1565Y2831*
X1564Y2831*
X1564Y2831*
X1563*
X1563Y2831*
X1563Y2831*
X1564Y2831*
X1564Y2830*
X1565Y2830*
X1565Y2829*
X1565Y2829*
X1566Y2828*
Y2828*
X1566Y2828*
X1566Y2828*
X1566Y2828*
X1566Y2828*
X1566Y2827*
X1566Y2827*
X1566Y2826*
X1567Y2825*
X1567Y2825*
Y2824*
X1567Y2824*
X1566Y2824*
X1566Y2824*
X1566Y2823*
X1566Y2823*
X1566Y2823*
X1566Y2822*
X1566Y2822*
X1566Y2821*
X1565Y2821*
X1565Y2820*
X1565Y2820*
X1564Y2819*
X1564Y2819*
X1564Y2819*
X1564Y2819*
X1564Y2819*
X1564Y2819*
X1563Y2819*
X1563Y2819*
X1563Y2818*
X1562Y2818*
X1562Y2818*
X1561Y2818*
X1561Y2818*
X1560Y2817*
X1560Y2817*
X1559Y2817*
X1558Y2817*
X1558*
X1558*
X1558*
X1558*
X1558Y2817*
X1557Y2817*
X1557Y2817*
X1556Y2817*
X1555Y2818*
X1555Y2818*
X1554Y2818*
X1554*
X1554Y2818*
X1554Y2818*
X1553Y2818*
X1553Y2819*
X1553Y2819*
X1552Y2819*
X1552Y2820*
X1551Y2820*
X1551Y2821*
Y2821*
X1551Y2821*
X1551Y2821*
X1550Y2821*
X1550Y2822*
X1550Y2822*
X1550Y2822*
X1550Y2823*
X1550Y2824*
X1550Y2824*
X1550Y2825*
Y2825*
X1550Y2826*
Y2826*
X1550Y2826*
X1550Y2827*
X1550Y2827*
X1550Y2827*
X1550Y2828*
X1550Y2829*
X1550Y2829*
X1551Y2830*
X1551Y2830*
X1551Y2831*
X1552Y2831*
X1552Y2832*
X1552Y2832*
X1553Y2832*
X1553Y2832*
X1553Y2832*
X1553Y2832*
X1554Y2832*
X1554Y2833*
X1555Y2833*
X1555Y2833*
X1556Y2833*
X1557Y2834*
X1558Y2834*
X1559Y2834*
X1560Y2834*
X1561Y2834*
X1562Y2834*
X1562*
X1562*
X1562*
X1562*
X1562*
X1563Y2834*
G37*
G36*
X6208Y3899D02*
X6208Y3899D01*
X6209Y3899*
X6209Y3899*
X6210Y3899*
X6211Y3899*
X6212Y3899*
X6213Y3899*
X6213Y3898*
X6214Y3898*
X6214Y3898*
X6214Y3898*
X6214Y3898*
X6214Y3898*
X6215Y3898*
X6215Y3897*
X6215Y3897*
X6215Y3897*
X6216Y3897*
X6216Y3896*
X6216Y3896*
X6217Y3896*
X6217Y3895*
X6217Y3895*
X6218Y3894*
X6218Y3894*
X6218Y3893*
Y3893*
X6218Y3893*
X6218Y3893*
X6218Y3892*
X6218Y3892*
X6219Y3892*
X6219Y3891*
X6219Y3891*
X6219Y3890*
X6219Y3890*
X6219Y3889*
X6219Y3889*
X6219Y3887*
X6220Y3886*
Y3886*
Y3886*
Y3886*
X6219Y3885*
Y3885*
X6219Y3885*
X6219Y3884*
X6219Y3884*
X6219Y3883*
X6219Y3883*
X6219Y3881*
X6219Y3880*
X6218Y3880*
X6218Y3879*
X6218Y3879*
X6218Y3879*
X6218Y3879*
X6218Y3879*
X6218Y3878*
X6217Y3878*
X6217Y3878*
X6217Y3877*
X6216Y3877*
X6216Y3876*
X6215Y3875*
X6214Y3875*
X6214Y3875*
X6214Y3875*
X6214Y3875*
X6213Y3874*
X6213Y3874*
X6213Y3874*
X6213Y3874*
X6212Y3874*
X6212Y3874*
X6211Y3874*
X6211Y3874*
X6210Y3873*
X6209Y3873*
X6208Y3873*
X6207*
X6207Y3873*
X6206Y3873*
X6206Y3873*
X6206Y3873*
X6205Y3873*
X6204Y3873*
X6204Y3874*
X6203Y3874*
X6203Y3874*
X6202Y3874*
X6201Y3875*
X6201Y3875*
X6201Y3875*
X6201Y3875*
X6201Y3875*
X6201Y3875*
X6200Y3876*
X6200Y3876*
X6200Y3876*
X6199Y3876*
X6199Y3877*
X6199Y3877*
X6199Y3878*
X6198Y3878*
X6198Y3879*
X6198Y3879*
X6197Y3880*
X6197Y3880*
X6201Y3881*
Y3881*
X6201Y3881*
X6201Y3881*
X6201Y3881*
X6201Y3881*
X6201Y3880*
X6201Y3880*
X6202Y3879*
X6202Y3878*
X6203Y3878*
X6203Y3877*
X6203Y3877*
X6203*
X6203Y3877*
X6203Y3877*
X6203Y3877*
X6204Y3877*
X6204Y3877*
X6204Y3877*
X6205Y3876*
X6206Y3876*
X6207Y3876*
X6207Y3876*
X6208*
X6208Y3876*
X6208*
X6209Y3876*
X6209Y3876*
X6209Y3876*
X6210Y3876*
X6211Y3877*
X6212Y3877*
X6212Y3877*
X6212Y3877*
X6212*
X6213Y3877*
X6213Y3877*
X6213Y3878*
X6213Y3878*
X6214Y3878*
X6214Y3879*
X6214Y3880*
X6215Y3880*
X6215Y3881*
Y3881*
X6215Y3881*
X6215Y3881*
X6215Y3882*
X6215Y3882*
X6215Y3882*
X6216Y3882*
X6216Y3883*
X6216Y3883*
X6216Y3884*
X6216Y3885*
X6216Y3886*
Y3886*
Y3886*
Y3886*
Y3887*
X6216Y3887*
X6216Y3887*
Y3888*
X6216Y3888*
X6216Y3889*
X6216Y3890*
X6215Y3891*
X6215Y3892*
Y3892*
X6215Y3892*
X6215Y3892*
X6215Y3892*
X6215Y3892*
X6215Y3893*
X6214Y3893*
X6214Y3894*
X6213Y3894*
X6213Y3895*
X6212Y3895*
X6212*
X6212Y3895*
X6212Y3896*
X6212Y3896*
X6212Y3896*
X6211Y3896*
X6211Y3896*
X6210Y3896*
X6209Y3896*
X6209Y3897*
X6208Y3897*
X6207*
X6207Y3897*
X6207Y3897*
X6207Y3897*
X6206Y3896*
X6206Y3896*
X6205Y3896*
X6205Y3896*
X6204Y3896*
X6204Y3896*
X6203Y3895*
X6203Y3895*
X6203Y3895*
X6203Y3895*
X6203Y3895*
X6203Y3895*
X6202Y3895*
X6202Y3894*
X6202Y3894*
X6202Y3894*
X6202Y3893*
X6201Y3893*
X6201Y3893*
X6201Y3892*
X6201Y3892*
X6201Y3891*
X6200Y3891*
X6200Y3890*
X6197Y3891*
Y3891*
X6197Y3891*
X6197Y3891*
X6197Y3892*
X6197Y3892*
X6197Y3892*
X6197Y3893*
X6198Y3893*
X6198Y3894*
X6198Y3894*
X6199Y3895*
X6199Y3895*
X6199Y3896*
X6200Y3896*
X6200Y3897*
X6201Y3897*
X6201Y3897*
X6201Y3897*
X6201Y3898*
X6201Y3898*
X6201Y3898*
X6202Y3898*
X6202Y3898*
X6203Y3898*
X6203Y3899*
X6204Y3899*
X6204Y3899*
X6205Y3899*
X6205Y3899*
X6206Y3899*
X6207Y3899*
X6207Y3900*
X6208*
X6208Y3899*
G37*
G36*
X6194Y3899D02*
Y3899D01*
Y3899*
X6194Y3898*
X6194Y3898*
X6194Y3898*
X6194Y3897*
X6194Y3897*
Y3897*
X6194Y3897*
X6194Y3897*
X6194Y3897*
X6194Y3896*
X6194Y3896*
X6193Y3895*
X6193Y3895*
X6192Y3894*
X6192Y3894*
X6192Y3893*
X6192Y3893*
X6192Y3893*
X6192Y3893*
X6191Y3893*
X6191Y3892*
X6190Y3892*
X6190Y3891*
X6189Y3890*
X6188Y3890*
X6188Y3890*
X6188Y3889*
X6187Y3889*
X6187Y3889*
X6187Y3889*
X6186Y3888*
X6186Y3888*
X6186Y3888*
X6185Y3887*
X6184Y3886*
X6183Y3885*
X6183Y3885*
X6183Y3885*
X6182Y3884*
X6182Y3884*
X6182Y3884*
X6182Y3884*
X6182Y3884*
X6182Y3884*
X6182Y3883*
X6181Y3883*
X6181Y3882*
X6181Y3882*
X6181Y3881*
X6181Y3881*
Y3880*
Y3880*
Y3880*
Y3880*
X6181Y3880*
X6181Y3880*
X6181Y3879*
X6181Y3879*
X6181Y3878*
X6182Y3878*
X6182Y3877*
X6182Y3877*
X6182Y3877*
X6183Y3877*
X6183Y3877*
X6184Y3876*
X6184Y3876*
X6185Y3876*
X6186Y3876*
X6186*
X6186Y3876*
X6186*
X6186Y3876*
X6187Y3876*
X6187Y3876*
X6188Y3877*
X6189Y3877*
X6189Y3877*
X6189Y3877*
X6189Y3878*
X6190Y3878*
X6190Y3878*
X6190Y3879*
X6190Y3879*
X6191Y3880*
X6191Y3881*
X6194Y3881*
Y3881*
X6194Y3881*
Y3880*
X6194Y3880*
X6194Y3880*
X6194Y3880*
X6193Y3879*
X6193Y3879*
X6193Y3878*
X6193Y3877*
X6193Y3877*
X6192Y3876*
X6192Y3876*
X6192Y3876*
X6191Y3875*
X6191Y3875*
X6191Y3875*
X6191Y3875*
X6191Y3875*
X6191Y3875*
X6190Y3875*
X6190Y3874*
X6190Y3874*
X6189Y3874*
X6189Y3874*
X6188Y3874*
X6188Y3874*
X6187Y3874*
X6187Y3873*
X6186Y3873*
X6186Y3873*
X6185*
X6185Y3873*
X6185Y3873*
X6184Y3873*
X6184Y3874*
X6183Y3874*
X6182Y3874*
X6182Y3874*
X6181Y3874*
X6181Y3874*
X6181Y3875*
X6180Y3875*
X6180Y3875*
X6180Y3875*
X6180Y3876*
X6179Y3876*
X6179Y3876*
X6179Y3876*
X6179Y3876*
X6179Y3876*
X6179Y3877*
X6178Y3877*
X6178Y3878*
X6178Y3878*
X6178Y3879*
X6178Y3879*
X6178Y3880*
X6177Y3880*
Y3881*
Y3881*
X6178Y3881*
X6178Y3881*
X6178Y3882*
X6178Y3882*
X6178Y3883*
X6178Y3884*
X6178Y3884*
X6178Y3884*
X6178Y3884*
X6179Y3884*
X6179Y3885*
X6179Y3885*
X6180Y3886*
X6180Y3887*
Y3887*
X6180Y3887*
X6180Y3887*
X6180Y3887*
X6181Y3887*
X6181Y3887*
X6181Y3888*
X6181Y3888*
X6182Y3888*
X6182Y3888*
X6182Y3889*
X6183Y3889*
X6183Y3890*
X6184Y3890*
X6184Y3891*
X6185Y3891*
X6185Y3891*
X6185Y3891*
X6185Y3891*
X6186Y3892*
X6186Y3892*
X6186Y3892*
X6187Y3892*
X6187Y3893*
X6188Y3894*
X6188Y3894*
X6188Y3894*
X6189Y3894*
X6189Y3894*
X6189Y3894*
X6189Y3895*
X6189Y3895*
X6189Y3895*
X6189Y3895*
X6190Y3895*
X6190Y3896*
X6177*
Y3899*
X6194*
Y3899*
G37*
G36*
X6165Y3879D02*
X6165Y3879D01*
X6166Y3879*
X6166Y3879*
X6166Y3880*
X6167Y3880*
X6167Y3880*
X6168Y3881*
X6168Y3881*
X6168*
X6168Y3881*
X6169Y3881*
X6169Y3881*
X6169Y3882*
X6169Y3882*
X6170Y3882*
X6171Y3882*
X6171Y3883*
X6172Y3883*
Y3880*
X6172*
X6172Y3880*
X6171Y3880*
X6171Y3880*
X6171Y3879*
X6171Y3879*
X6170Y3879*
X6169Y3879*
X6169Y3878*
X6168Y3877*
X6167Y3877*
X6167Y3877*
X6167Y3877*
X6167Y3877*
X6167Y3876*
X6166Y3876*
X6166Y3876*
X6166Y3875*
X6165Y3875*
X6165Y3874*
X6164Y3873*
X6162*
Y3899*
X6165*
Y3879*
G37*
G36*
X6750Y2842D02*
X6740D01*
X6738Y2835*
X6738Y2835*
X6738Y2835*
X6738Y2835*
X6739Y2836*
X6739Y2836*
X6739Y2836*
X6739Y2836*
X6740Y2836*
X6740Y2836*
X6741Y2837*
X6742Y2837*
X6743Y2837*
X6743Y2837*
X6743*
X6744Y2837*
X6744Y2837*
X6744Y2837*
X6745Y2837*
X6745Y2837*
X6745Y2837*
X6746Y2836*
X6746Y2836*
X6747Y2836*
X6747Y2836*
X6748Y2835*
X6748Y2835*
X6749Y2835*
X6749Y2835*
X6749Y2834*
X6749Y2834*
X6749Y2834*
X6749Y2834*
X6749Y2834*
X6750Y2833*
X6750Y2833*
X6750Y2833*
X6750Y2832*
X6750Y2832*
X6751Y2831*
X6751Y2830*
X6751Y2830*
X6751Y2829*
X6751Y2829*
Y2829*
Y2828*
Y2828*
X6751Y2828*
X6751Y2828*
X6751Y2827*
X6751Y2827*
X6751Y2827*
X6751Y2826*
X6750Y2825*
X6750Y2825*
X6750Y2824*
X6750Y2824*
X6749Y2823*
X6749Y2823*
X6749Y2823*
X6749Y2822*
X6749Y2822*
X6749Y2822*
X6748Y2822*
X6748Y2822*
X6748Y2821*
X6747Y2821*
X6747Y2821*
X6746Y2820*
X6746Y2820*
X6745Y2820*
X6744Y2820*
X6744Y2820*
X6743Y2820*
X6742Y2820*
X6742*
X6742Y2820*
X6741Y2820*
X6741Y2820*
X6741Y2820*
X6740Y2820*
X6739Y2820*
X6739Y2820*
X6738Y2820*
X6738Y2821*
X6737Y2821*
X6737Y2821*
X6737Y2821*
X6737Y2821*
X6736Y2822*
X6736Y2822*
X6736Y2822*
X6736Y2822*
X6736Y2822*
X6736Y2823*
X6735Y2823*
X6735Y2823*
X6735Y2824*
X6735Y2824*
X6735Y2824*
X6734Y2825*
X6734Y2825*
X6734Y2826*
X6734Y2827*
X6737Y2827*
Y2827*
X6737Y2827*
Y2827*
X6737Y2826*
X6738Y2826*
X6738Y2826*
X6738Y2826*
X6738Y2825*
X6738Y2824*
X6739Y2824*
X6739Y2823*
X6739Y2823*
X6739Y2823*
X6740Y2823*
X6740Y2823*
X6740Y2822*
X6741Y2822*
X6742Y2822*
X6742Y2822*
X6743*
X6743Y2822*
X6743Y2822*
X6743Y2822*
X6744Y2822*
X6744Y2823*
X6745Y2823*
X6745Y2823*
X6746Y2823*
X6746Y2824*
X6746Y2824*
X6746Y2824*
X6746Y2824*
X6746Y2824*
X6746Y2824*
X6747Y2824*
X6747Y2824*
X6747Y2825*
X6747Y2825*
X6747Y2826*
X6747Y2826*
X6748Y2827*
X6748Y2828*
Y2828*
Y2828*
Y2828*
Y2829*
X6748Y2829*
Y2829*
X6748Y2829*
X6747Y2830*
X6747Y2831*
X6747Y2831*
X6747Y2832*
X6746Y2832*
X6746Y2833*
Y2833*
X6746Y2833*
X6746Y2833*
X6746Y2833*
X6746Y2833*
X6745Y2833*
X6745Y2834*
X6744Y2834*
X6743Y2834*
X6743Y2834*
X6742*
X6742Y2834*
X6741Y2834*
X6741Y2834*
X6740Y2834*
X6740Y2834*
X6739Y2833*
X6739Y2833*
X6739Y2833*
X6739Y2833*
X6739Y2833*
X6739Y2833*
X6738Y2832*
X6738Y2832*
X6738Y2832*
X6735Y2832*
X6737Y2845*
X6750*
Y2842*
G37*
G36*
X6719Y2846D02*
X6720D01*
X6721Y2845*
X6721Y2845*
X6722Y2845*
X6723Y2845*
X6723*
X6723Y2845*
X6723Y2845*
X6723Y2845*
X6723Y2845*
X6724Y2845*
X6724Y2845*
X6725Y2844*
X6725Y2844*
X6726Y2844*
X6727Y2843*
X6727Y2843*
X6727Y2843*
X6727Y2843*
X6727Y2843*
X6727Y2843*
X6727Y2843*
X6728Y2842*
X6728Y2842*
X6728Y2842*
X6729Y2841*
X6729Y2840*
X6730Y2839*
Y2839*
X6730Y2839*
X6730Y2839*
X6730Y2838*
X6730Y2838*
X6730Y2838*
X6730Y2838*
X6730Y2837*
X6730Y2837*
X6730Y2836*
X6730Y2836*
X6731Y2835*
X6731Y2834*
X6731Y2833*
Y2833*
Y2833*
Y2833*
Y2832*
X6731Y2832*
Y2832*
X6731Y2831*
X6731Y2831*
X6731Y2830*
X6730Y2829*
X6730Y2829*
X6730Y2828*
Y2828*
X6730Y2828*
X6730Y2827*
X6730Y2827*
X6730Y2827*
X6730Y2827*
X6730Y2826*
X6729Y2826*
X6729Y2825*
X6729Y2825*
X6728Y2824*
X6728Y2824*
X6728Y2824*
X6728Y2823*
X6728Y2823*
X6727Y2823*
X6727Y2822*
X6726Y2822*
X6726Y2822*
X6726Y2822*
X6726Y2822*
X6725Y2821*
X6725Y2821*
X6725Y2821*
X6724Y2821*
X6723Y2821*
X6723Y2820*
X6723*
X6723Y2820*
X6723*
X6723Y2820*
X6722Y2820*
X6722Y2820*
X6722Y2820*
X6721Y2820*
X6720Y2820*
X6720Y2820*
X6719Y2820*
X6710*
Y2846*
X6719*
X6719Y2846*
G37*
G36*
X5928Y4059D02*
X5928Y4059D01*
X5929Y4059*
X5929Y4059*
X5930Y4059*
X5931Y4059*
X5932Y4059*
X5933Y4059*
X5933Y4058*
X5934Y4058*
X5934Y4058*
X5934Y4058*
X5934Y4058*
X5934Y4058*
X5935Y4058*
X5935Y4057*
X5935Y4057*
X5935Y4057*
X5936Y4057*
X5936Y4056*
X5936Y4056*
X5937Y4056*
X5937Y4055*
X5937Y4055*
X5938Y4054*
X5938Y4054*
X5938Y4053*
Y4053*
X5938Y4053*
X5938Y4053*
X5938Y4052*
X5938Y4052*
X5939Y4052*
X5939Y4051*
X5939Y4051*
X5939Y4050*
X5939Y4050*
X5939Y4049*
X5939Y4049*
X5939Y4047*
X5940Y4046*
Y4046*
Y4046*
Y4046*
X5939Y4045*
Y4045*
X5939Y4045*
X5939Y4044*
X5939Y4044*
X5939Y4043*
X5939Y4043*
X5939Y4041*
X5939Y4040*
X5938Y4040*
X5938Y4039*
X5938Y4039*
X5938Y4039*
X5938Y4039*
X5938Y4039*
X5938Y4038*
X5937Y4038*
X5937Y4038*
X5937Y4037*
X5936Y4037*
X5936Y4036*
X5935Y4035*
X5934Y4035*
X5934Y4035*
X5934Y4035*
X5934Y4035*
X5933Y4034*
X5933Y4034*
X5933Y4034*
X5933Y4034*
X5932Y4034*
X5932Y4034*
X5931Y4034*
X5931Y4034*
X5930Y4033*
X5929Y4033*
X5928Y4033*
X5927*
X5927Y4033*
X5926Y4033*
X5926Y4033*
X5926Y4033*
X5925Y4033*
X5924Y4033*
X5924Y4034*
X5923Y4034*
X5923Y4034*
X5922Y4034*
X5921Y4035*
X5921Y4035*
X5921Y4035*
X5921Y4035*
X5921Y4035*
X5921Y4035*
X5920Y4036*
X5920Y4036*
X5920Y4036*
X5919Y4036*
X5919Y4037*
X5919Y4037*
X5919Y4038*
X5918Y4038*
X5918Y4039*
X5918Y4039*
X5917Y4040*
X5917Y4040*
X5921Y4041*
Y4041*
X5921Y4041*
X5921Y4041*
X5921Y4041*
X5921Y4041*
X5921Y4040*
X5921Y4040*
X5922Y4039*
X5922Y4038*
X5923Y4038*
X5923Y4037*
X5923Y4037*
X5923*
X5923Y4037*
X5923Y4037*
X5923Y4037*
X5924Y4037*
X5924Y4037*
X5924Y4037*
X5925Y4036*
X5926Y4036*
X5927Y4036*
X5927Y4036*
X5928*
X5928Y4036*
X5928*
X5929Y4036*
X5929Y4036*
X5929Y4036*
X5930Y4036*
X5931Y4037*
X5932Y4037*
X5932Y4037*
X5932Y4037*
X5932*
X5933Y4037*
X5933Y4037*
X5933Y4038*
X5933Y4038*
X5934Y4038*
X5934Y4039*
X5934Y4040*
X5935Y4040*
X5935Y4041*
Y4041*
X5935Y4041*
X5935Y4041*
X5935Y4042*
X5935Y4042*
X5935Y4042*
X5936Y4042*
X5936Y4043*
X5936Y4043*
X5936Y4044*
X5936Y4045*
X5936Y4046*
Y4046*
Y4046*
Y4046*
Y4047*
X5936Y4047*
X5936Y4047*
Y4048*
X5936Y4048*
X5936Y4049*
X5936Y4050*
X5935Y4051*
X5935Y4052*
Y4052*
X5935Y4052*
X5935Y4052*
X5935Y4052*
X5935Y4052*
X5935Y4053*
X5934Y4053*
X5934Y4054*
X5933Y4054*
X5933Y4055*
X5932Y4055*
X5932*
X5932Y4055*
X5932Y4056*
X5932Y4056*
X5932Y4056*
X5931Y4056*
X5931Y4056*
X5930Y4056*
X5929Y4056*
X5929Y4057*
X5928Y4057*
X5927*
X5927Y4057*
X5927Y4057*
X5927Y4057*
X5926Y4056*
X5926Y4056*
X5925Y4056*
X5925Y4056*
X5924Y4056*
X5924Y4056*
X5923Y4055*
X5923Y4055*
X5923Y4055*
X5923Y4055*
X5923Y4055*
X5923Y4055*
X5922Y4055*
X5922Y4054*
X5922Y4054*
X5922Y4054*
X5922Y4053*
X5921Y4053*
X5921Y4053*
X5921Y4052*
X5921Y4052*
X5921Y4051*
X5920Y4051*
X5920Y4050*
X5917Y4051*
Y4051*
X5917Y4051*
X5917Y4051*
X5917Y4052*
X5917Y4052*
X5917Y4052*
X5917Y4053*
X5918Y4053*
X5918Y4054*
X5918Y4054*
X5919Y4055*
X5919Y4055*
X5919Y4056*
X5920Y4056*
X5920Y4057*
X5921Y4057*
X5921Y4057*
X5921Y4057*
X5921Y4058*
X5921Y4058*
X5921Y4058*
X5922Y4058*
X5922Y4058*
X5923Y4058*
X5923Y4059*
X5924Y4059*
X5924Y4059*
X5925Y4059*
X5925Y4059*
X5926Y4059*
X5927Y4059*
X5927Y4060*
X5928*
X5928Y4059*
G37*
G36*
X5914Y4059D02*
Y4059D01*
Y4059*
X5914Y4058*
X5914Y4058*
X5914Y4058*
X5914Y4057*
X5914Y4057*
Y4057*
X5914Y4057*
X5914Y4057*
X5914Y4057*
X5914Y4056*
X5914Y4056*
X5913Y4055*
X5913Y4055*
X5912Y4054*
X5912Y4054*
X5912Y4053*
X5912Y4053*
X5912Y4053*
X5912Y4053*
X5911Y4053*
X5911Y4052*
X5910Y4052*
X5910Y4051*
X5909Y4050*
X5908Y4050*
X5908Y4050*
X5908Y4049*
X5907Y4049*
X5907Y4049*
X5907Y4049*
X5906Y4048*
X5906Y4048*
X5906Y4048*
X5905Y4047*
X5904Y4046*
X5903Y4045*
X5903Y4045*
X5903Y4045*
X5902Y4044*
X5902Y4044*
X5902Y4044*
X5902Y4044*
X5902Y4044*
X5902Y4044*
X5902Y4043*
X5901Y4043*
X5901Y4042*
X5901Y4042*
X5901Y4041*
X5901Y4041*
Y4040*
Y4040*
Y4040*
Y4040*
X5901Y4040*
X5901Y4040*
X5901Y4039*
X5901Y4039*
X5901Y4038*
X5902Y4038*
X5902Y4037*
X5902Y4037*
X5902Y4037*
X5903Y4037*
X5903Y4037*
X5904Y4036*
X5904Y4036*
X5905Y4036*
X5906Y4036*
X5906*
X5906Y4036*
X5906*
X5906Y4036*
X5907Y4036*
X5907Y4036*
X5908Y4037*
X5909Y4037*
X5909Y4037*
X5909Y4037*
X5909Y4038*
X5910Y4038*
X5910Y4038*
X5910Y4039*
X5910Y4039*
X5911Y4040*
X5911Y4041*
X5914Y4041*
Y4041*
X5914Y4041*
Y4040*
X5914Y4040*
X5914Y4040*
X5914Y4040*
X5913Y4039*
X5913Y4039*
X5913Y4038*
X5913Y4037*
X5913Y4037*
X5912Y4036*
X5912Y4036*
X5912Y4036*
X5911Y4035*
X5911Y4035*
X5911Y4035*
X5911Y4035*
X5911Y4035*
X5911Y4035*
X5910Y4035*
X5910Y4034*
X5910Y4034*
X5909Y4034*
X5909Y4034*
X5908Y4034*
X5908Y4034*
X5907Y4034*
X5907Y4033*
X5906Y4033*
X5906Y4033*
X5905*
X5905Y4033*
X5905Y4033*
X5904Y4033*
X5904Y4034*
X5903Y4034*
X5902Y4034*
X5902Y4034*
X5901Y4034*
X5901Y4034*
X5901Y4035*
X5900Y4035*
X5900Y4035*
X5900Y4035*
X5900Y4036*
X5899Y4036*
X5899Y4036*
X5899Y4036*
X5899Y4036*
X5899Y4036*
X5899Y4037*
X5898Y4037*
X5898Y4038*
X5898Y4038*
X5898Y4039*
X5898Y4039*
X5898Y4040*
X5897Y4040*
Y4041*
Y4041*
X5898Y4041*
X5898Y4041*
X5898Y4042*
X5898Y4042*
X5898Y4043*
X5898Y4044*
X5898Y4044*
X5898Y4044*
X5898Y4044*
X5899Y4044*
X5899Y4045*
X5899Y4045*
X5900Y4046*
X5900Y4047*
Y4047*
X5900Y4047*
X5900Y4047*
X5900Y4047*
X5901Y4047*
X5901Y4047*
X5901Y4048*
X5901Y4048*
X5902Y4048*
X5902Y4048*
X5902Y4049*
X5903Y4049*
X5903Y4050*
X5904Y4050*
X5904Y4051*
X5905Y4051*
X5905Y4051*
X5905Y4051*
X5905Y4051*
X5906Y4052*
X5906Y4052*
X5906Y4052*
X5907Y4052*
X5907Y4053*
X5908Y4054*
X5908Y4054*
X5908Y4054*
X5909Y4054*
X5909Y4054*
X5909Y4054*
X5909Y4055*
X5909Y4055*
X5909Y4055*
X5909Y4055*
X5910Y4055*
X5910Y4056*
X5897*
Y4059*
X5914*
Y4059*
G37*
G36*
X5886Y4059D02*
X5886D01*
X5887Y4059*
X5887Y4059*
X5887Y4059*
X5888Y4059*
X5888Y4059*
X5889Y4059*
X5889Y4059*
X5890Y4058*
X5890Y4058*
X5891Y4058*
X5891Y4057*
X5892Y4057*
X5892Y4057*
X5892Y4057*
X5892Y4057*
X5892Y4056*
X5892Y4056*
X5892Y4055*
X5893Y4055*
X5893Y4054*
X5893Y4054*
X5893Y4053*
X5893Y4052*
X5894Y4051*
X5894Y4050*
X5894Y4049*
X5894Y4048*
X5894Y4046*
Y4046*
Y4046*
Y4046*
Y4046*
X5894Y4045*
X5894Y4045*
Y4044*
X5894Y4044*
X5894Y4043*
X5894Y4041*
X5893Y4040*
X5893Y4040*
X5893Y4039*
Y4039*
X5893Y4039*
X5893Y4039*
X5893Y4039*
X5893Y4038*
X5893Y4038*
X5892Y4038*
X5892Y4037*
X5892Y4036*
X5891Y4035*
X5890Y4035*
X5890Y4035*
X5890Y4035*
X5890Y4035*
X5890Y4035*
X5890Y4035*
X5890Y4034*
X5889Y4034*
X5889Y4034*
X5888Y4034*
X5888Y4034*
X5887Y4033*
X5886Y4033*
X5885*
X5885Y4033*
X5885*
X5884Y4033*
X5884Y4034*
X5883Y4034*
X5883Y4034*
X5882Y4034*
X5882*
X5882Y4034*
X5882Y4034*
X5882Y4035*
X5881Y4035*
X5881Y4035*
X5880Y4036*
X5880Y4036*
X5880Y4037*
Y4037*
X5879Y4037*
X5879Y4037*
X5879Y4037*
X5879Y4037*
X5879Y4038*
X5879Y4038*
X5878Y4039*
X5878Y4040*
X5878Y4040*
Y4040*
X5878Y4041*
X5878Y4041*
X5878Y4041*
X5878Y4041*
X5878Y4041*
X5878Y4042*
X5878Y4042*
X5878Y4042*
X5878Y4043*
X5878Y4043*
X5877Y4044*
X5877Y4044*
X5877Y4045*
X5877Y4046*
Y4046*
Y4047*
Y4047*
Y4047*
Y4047*
X5877Y4048*
Y4048*
X5877Y4049*
X5877Y4049*
X5878Y4050*
X5878Y4051*
X5878Y4053*
X5878Y4053*
X5878Y4054*
Y4054*
X5878Y4054*
X5878Y4054*
X5878Y4054*
X5879Y4054*
X5879Y4055*
X5879Y4055*
X5879Y4056*
X5880Y4057*
X5880Y4057*
X5881Y4058*
X5881*
X5881Y4058*
X5881Y4058*
X5881Y4058*
X5882Y4058*
X5882Y4058*
X5882Y4059*
X5882Y4059*
X5883Y4059*
X5884Y4059*
X5885Y4059*
X5885Y4059*
X5886Y4060*
X5886*
X5886Y4059*
G37*
G36*
X1526Y2652D02*
X1526Y2652D01*
X1527Y2652*
X1527Y2651*
X1527Y2651*
X1527Y2651*
X1528Y2651*
X1528Y2650*
X1529Y2650*
X1529Y2650*
X1530Y2649*
X1530Y2649*
X1531Y2648*
X1532Y2648*
X1532Y2647*
X1533Y2647*
X1533Y2647*
X1533Y2647*
X1534Y2647*
X1534Y2647*
X1534Y2646*
X1535Y2646*
X1535Y2646*
X1536Y2646*
X1537Y2645*
X1537Y2645*
X1538Y2645*
X1539Y2644*
X1540Y2644*
X1542Y2643*
X1542*
X1542Y2643*
X1542Y2643*
X1543Y2643*
X1543Y2643*
X1543Y2643*
X1544Y2643*
X1544Y2643*
X1545Y2643*
X1545Y2643*
X1546Y2642*
X1546Y2642*
X1548Y2642*
X1549Y2642*
Y2639*
X1549*
X1549*
X1549*
X1549Y2639*
X1548*
X1548Y2639*
X1548Y2639*
X1547Y2639*
X1547Y2639*
X1546Y2639*
X1545Y2639*
X1545Y2639*
X1544Y2640*
X1543Y2640*
X1543Y2640*
X1542Y2640*
X1542*
X1542Y2640*
X1541Y2640*
X1541Y2640*
X1541Y2640*
X1540Y2641*
X1540Y2641*
X1539Y2641*
X1539Y2641*
X1538Y2641*
X1537Y2642*
X1535Y2643*
X1534Y2643*
X1534Y2643*
X1533Y2643*
X1533Y2643*
X1533Y2644*
X1533Y2644*
X1532Y2644*
X1532Y2644*
X1531Y2645*
X1530Y2645*
X1529Y2646*
X1528Y2647*
X1527Y2648*
Y2635*
X1524*
Y2652*
X1526*
X1526Y2652*
G37*
G36*
X1541Y2632D02*
X1541Y2632D01*
X1542Y2632*
X1542Y2632*
X1542Y2632*
X1543Y2632*
X1543Y2631*
X1544Y2631*
X1544Y2631*
X1545Y2630*
X1545Y2630*
X1546Y2630*
X1546Y2629*
X1547Y2629*
X1547Y2628*
X1547Y2628*
X1547Y2628*
X1548Y2628*
X1548Y2628*
X1548Y2628*
X1548Y2627*
X1548Y2627*
X1548Y2626*
X1549Y2626*
X1549Y2625*
X1549Y2625*
X1549Y2624*
X1549Y2624*
X1549Y2623*
X1549Y2622*
X1550Y2622*
Y2621*
X1549Y2621*
X1549Y2621*
X1549Y2620*
X1549Y2620*
X1549Y2619*
X1549Y2618*
X1549Y2617*
X1549Y2616*
X1548Y2616*
X1548Y2615*
X1548Y2615*
X1548Y2615*
X1548Y2615*
X1548Y2615*
X1548Y2614*
X1547Y2614*
X1547Y2614*
X1547Y2614*
X1547Y2613*
X1546Y2613*
X1546Y2613*
X1546Y2612*
X1545Y2612*
X1545Y2612*
X1544Y2611*
X1544Y2611*
X1543Y2611*
X1543*
X1543Y2611*
X1543Y2611*
X1542Y2611*
X1542Y2611*
X1542Y2610*
X1541Y2610*
X1541Y2610*
X1540Y2610*
X1540Y2610*
X1539Y2610*
X1539Y2610*
X1537Y2610*
X1536Y2610*
X1536*
X1536*
X1536*
X1535Y2610*
X1535*
X1535Y2610*
X1534Y2610*
X1534Y2610*
X1533Y2610*
X1533Y2610*
X1531Y2610*
X1530Y2611*
X1530Y2611*
X1529Y2611*
X1529Y2611*
X1529Y2611*
X1529Y2611*
X1529Y2611*
X1528Y2611*
X1528Y2612*
X1528Y2612*
X1527Y2612*
X1527Y2613*
X1526Y2614*
X1525Y2614*
X1525Y2615*
X1525Y2615*
X1525Y2615*
X1525Y2615*
X1524Y2616*
X1524Y2616*
X1524Y2616*
X1524Y2616*
X1524Y2617*
X1524Y2617*
X1524Y2618*
X1524Y2618*
X1523Y2619*
X1523Y2620*
X1523Y2621*
Y2622*
X1523Y2622*
X1523Y2623*
X1523Y2623*
X1523Y2623*
X1523Y2624*
X1523Y2625*
X1524Y2625*
X1524Y2626*
X1524Y2626*
X1524Y2627*
X1525Y2628*
X1525Y2628*
X1525Y2628*
X1525Y2628*
X1525Y2628*
X1525Y2628*
X1526Y2629*
X1526Y2629*
X1526Y2629*
X1526Y2630*
X1527Y2630*
X1527Y2630*
X1528Y2630*
X1528Y2631*
X1529Y2631*
X1529Y2631*
X1530Y2632*
X1530Y2632*
X1531Y2628*
X1531*
X1531Y2628*
X1531Y2628*
X1531Y2628*
X1531Y2628*
X1530Y2628*
X1530Y2628*
X1529Y2627*
X1528Y2627*
X1528Y2626*
X1527Y2626*
X1527Y2626*
Y2626*
X1527Y2626*
X1527Y2626*
X1527Y2626*
X1527Y2625*
X1527Y2625*
X1527Y2625*
X1526Y2624*
X1526Y2623*
X1526Y2622*
X1526Y2622*
Y2621*
X1526Y2621*
Y2621*
X1526Y2620*
X1526Y2620*
X1526Y2620*
X1526Y2619*
X1527Y2618*
X1527Y2617*
X1527Y2617*
X1527Y2617*
Y2617*
X1527Y2616*
X1527Y2616*
X1528Y2616*
X1528Y2616*
X1528Y2615*
X1529Y2615*
X1530Y2615*
X1530Y2614*
X1531Y2614*
X1531*
X1531Y2614*
X1531Y2614*
X1532Y2614*
X1532Y2614*
X1532Y2614*
X1532Y2613*
X1533Y2613*
X1533Y2613*
X1534Y2613*
X1535Y2613*
X1536Y2613*
X1536*
X1536*
X1536*
X1537*
X1537Y2613*
X1537Y2613*
X1538*
X1538Y2613*
X1539Y2613*
X1540Y2613*
X1541Y2614*
X1542Y2614*
X1542*
X1542Y2614*
X1542Y2614*
X1542Y2614*
X1542Y2614*
X1543Y2614*
X1543Y2615*
X1544Y2615*
X1544Y2616*
X1545Y2616*
X1545Y2617*
Y2617*
X1545Y2617*
X1546Y2617*
X1546Y2617*
X1546Y2617*
X1546Y2618*
X1546Y2618*
X1546Y2619*
X1546Y2620*
X1547Y2620*
X1547Y2621*
Y2622*
X1547Y2622*
X1547Y2622*
X1547Y2622*
X1546Y2623*
X1546Y2623*
X1546Y2624*
X1546Y2624*
X1546Y2625*
X1546Y2625*
X1545Y2626*
X1545Y2626*
X1545Y2626*
X1545Y2626*
X1545Y2626*
X1545Y2626*
X1545Y2627*
X1544Y2627*
X1544Y2627*
X1544Y2627*
X1543Y2627*
X1543Y2628*
X1543Y2628*
X1542Y2628*
X1542Y2628*
X1541Y2628*
X1541Y2629*
X1540Y2629*
X1541Y2632*
X1541*
X1541Y2632*
G37*
G36*
X1928Y3916D02*
X1928D01*
X1927*
X1927*
X1927Y3916*
X1927Y3916*
X1927Y3916*
X1926Y3916*
X1925Y3916*
X1925Y3916*
X1924Y3916*
X1924Y3916*
X1924Y3915*
X1924Y3915*
X1923Y3915*
X1923Y3915*
X1923Y3915*
X1923Y3914*
X1923Y3914*
X1923Y3913*
X1923Y3913*
Y3912*
X1923Y3912*
X1923Y3912*
X1923Y3912*
X1923Y3911*
X1923Y3911*
X1923Y3910*
X1923Y3910*
X1923Y3910*
X1923Y3910*
X1924Y3910*
X1924Y3910*
X1924Y3910*
X1924Y3909*
X1925Y3909*
X1925Y3909*
X1925Y3909*
X1925Y3909*
X1925Y3909*
X1926Y3909*
X1926Y3909*
X1927Y3909*
X1928*
X1946*
Y3905*
X1928*
X1928*
X1928*
X1928*
X1928*
X1927Y3905*
X1927*
X1927Y3905*
X1926Y3906*
X1925Y3906*
X1925Y3906*
X1924Y3906*
X1923Y3906*
X1923Y3906*
X1923*
X1923Y3906*
X1923Y3906*
X1923Y3906*
X1923Y3907*
X1922Y3907*
X1922Y3907*
X1921Y3908*
X1921Y3908*
X1920Y3909*
Y3909*
X1920Y3909*
X1920Y3909*
X1920Y3909*
X1920Y3909*
X1920Y3910*
X1920Y3910*
X1920Y3911*
X1920Y3912*
X1920Y3913*
Y3913*
X1920Y3913*
X1920Y3913*
X1920Y3914*
X1920Y3914*
X1920Y3915*
X1920Y3915*
X1920Y3916*
X1920Y3916*
X1921Y3917*
X1921Y3917*
X1921Y3917*
X1921Y3918*
X1921Y3918*
X1922Y3918*
X1922Y3918*
X1922Y3918*
X1922Y3918*
X1922Y3918*
X1923Y3919*
X1923Y3919*
X1923Y3919*
X1924Y3919*
X1924Y3919*
X1925Y3919*
X1925Y3919*
X1926Y3919*
X1926Y3920*
X1927*
X1928Y3916*
G37*
G36*
X1921Y3902D02*
X1921Y3902D01*
X1921Y3901*
X1922Y3901*
X1922Y3901*
X1922*
X1922Y3901*
X1922Y3901*
X1922Y3901*
X1923Y3901*
X1923Y3901*
X1924Y3900*
X1924Y3900*
X1925Y3900*
X1925Y3899*
X1926Y3899*
X1926Y3899*
X1926Y3899*
X1926Y3899*
X1926Y3899*
X1927Y3898*
X1927Y3898*
X1928Y3897*
X1929Y3896*
X1929Y3895*
X1929Y3895*
X1930Y3895*
X1930Y3895*
X1930Y3894*
X1930Y3894*
X1931Y3894*
X1931Y3893*
X1931Y3893*
X1932Y3892*
X1933Y3891*
X1934Y3891*
X1934Y3890*
X1934Y3890*
X1935Y3889*
X1935Y3889*
X1935Y3889*
X1935Y3889*
X1935Y3889*
X1935Y3889*
X1936Y3889*
X1936Y3889*
X1937Y3888*
X1937Y3888*
X1938Y3888*
X1938Y3888*
X1939*
X1939*
X1939*
X1939*
X1939Y3888*
X1939Y3888*
X1940Y3888*
X1940Y3888*
X1941Y3889*
X1941Y3889*
X1942Y3889*
X1942Y3889*
X1942Y3890*
X1942Y3890*
X1942Y3890*
X1943Y3891*
X1943Y3891*
X1943Y3892*
X1943Y3893*
Y3893*
X1943Y3893*
Y3893*
X1943Y3894*
X1943Y3894*
X1943Y3895*
X1942Y3895*
X1942Y3896*
X1942Y3896*
X1942Y3896*
X1941Y3897*
X1941Y3897*
X1941Y3897*
X1940Y3897*
X1940Y3898*
X1939Y3898*
X1938Y3898*
X1938Y3901*
X1938*
X1938Y3901*
X1939*
X1939Y3901*
X1939Y3901*
X1939Y3901*
X1940Y3901*
X1940Y3901*
X1941Y3900*
X1942Y3900*
X1942Y3900*
X1943Y3900*
X1943Y3899*
X1943Y3899*
X1944Y3899*
X1944Y3899*
X1944Y3898*
X1944Y3898*
X1944Y3898*
X1944Y3898*
X1944Y3898*
X1945Y3897*
X1945Y3897*
X1945Y3897*
X1945Y3896*
X1945Y3896*
X1945Y3895*
X1945Y3895*
X1946Y3894*
X1946Y3893*
X1946Y3893*
Y3892*
X1946Y3892*
X1946Y3892*
X1946Y3891*
X1945Y3891*
X1945Y3891*
X1945Y3890*
X1945Y3889*
X1945Y3889*
X1945Y3888*
X1944Y3888*
X1944Y3887*
X1944Y3887*
X1944Y3887*
X1943Y3887*
X1943Y3887*
X1943Y3887*
X1943Y3886*
X1943Y3886*
X1943Y3886*
X1942Y3886*
X1942Y3886*
X1941Y3885*
X1941Y3885*
X1940Y3885*
X1940Y3885*
X1939Y3885*
X1939Y3885*
X1938*
X1938*
X1938Y3885*
X1938Y3885*
X1937Y3885*
X1937Y3885*
X1936Y3885*
X1935Y3885*
X1935Y3885*
X1935Y3885*
X1935Y3886*
X1935Y3886*
X1934Y3886*
X1934Y3887*
X1933Y3887*
X1932Y3887*
X1932*
X1932Y3888*
X1932Y3888*
X1932Y3888*
X1932Y3888*
X1932Y3888*
X1931Y3888*
X1931Y3889*
X1931Y3889*
X1931Y3889*
X1930Y3890*
X1930Y3890*
X1929Y3891*
X1929Y3891*
X1928Y3892*
X1928Y3892*
X1928Y3892*
X1928Y3892*
X1928Y3893*
X1927Y3893*
X1927Y3893*
X1927Y3893*
X1927Y3894*
X1926Y3894*
X1925Y3895*
X1925Y3895*
X1925Y3896*
X1925Y3896*
X1925Y3896*
X1925Y3896*
X1924Y3896*
X1924Y3896*
X1924Y3896*
X1924Y3897*
X1924Y3897*
X1923Y3897*
Y3885*
X1920*
Y3902*
X1920*
X1920*
X1920*
X1921Y3902*
G37*
G36*
X1352Y1936D02*
X1353Y1936D01*
X1353Y1936*
X1353Y1936*
X1354Y1936*
X1355Y1936*
X1355Y1935*
X1356Y1935*
X1356Y1935*
X1357Y1935*
X1358Y1934*
X1358Y1934*
X1358Y1934*
X1358Y1934*
X1358Y1934*
X1358Y1934*
X1359Y1933*
X1359Y1933*
X1359Y1933*
X1360Y1933*
X1360Y1932*
X1360Y1932*
X1360Y1931*
X1361Y1931*
X1361Y1930*
X1361Y1930*
X1362Y1929*
X1362Y1929*
X1358Y1928*
Y1928*
X1358Y1928*
X1358Y1928*
X1358Y1928*
X1358Y1928*
X1358Y1929*
X1358Y1929*
X1357Y1930*
X1357Y1931*
X1356Y1931*
X1356Y1932*
X1356Y1932*
X1356*
X1356Y1932*
X1356Y1932*
X1356Y1932*
X1355Y1932*
X1355Y1932*
X1355Y1932*
X1354Y1933*
X1353Y1933*
X1352Y1933*
X1352Y1933*
X1351*
X1351Y1933*
X1351*
X1350Y1933*
X1350Y1933*
X1350Y1933*
X1349Y1933*
X1348Y1932*
X1347Y1932*
X1347Y1932*
X1347Y1932*
X1347*
X1346Y1932*
X1346Y1932*
X1346Y1931*
X1346Y1931*
X1345Y1931*
X1345Y1930*
X1345Y1929*
X1344Y1929*
X1344Y1928*
Y1928*
X1344Y1928*
X1344Y1928*
X1344Y1927*
X1344Y1927*
X1344Y1927*
X1343Y1927*
X1343Y1926*
X1343Y1926*
X1343Y1925*
X1343Y1924*
X1343Y1923*
Y1923*
Y1923*
Y1923*
Y1922*
X1343Y1922*
X1343Y1922*
Y1921*
X1343Y1921*
X1343Y1920*
X1343Y1919*
X1344Y1918*
X1344Y1917*
Y1917*
X1344Y1917*
X1344Y1917*
X1344Y1917*
X1344Y1917*
X1344Y1916*
X1345Y1916*
X1345Y1915*
X1346Y1915*
X1346Y1914*
X1347Y1914*
X1347*
X1347Y1914*
X1347Y1914*
X1347Y1913*
X1347Y1913*
X1348Y1913*
X1348Y1913*
X1349Y1913*
X1350Y1913*
X1350Y1912*
X1351Y1912*
X1352*
X1352Y1912*
X1352Y1912*
X1352Y1913*
X1353Y1913*
X1353Y1913*
X1354Y1913*
X1354Y1913*
X1355Y1913*
X1355Y1914*
X1356Y1914*
X1356Y1914*
X1356Y1914*
X1356Y1914*
X1356Y1914*
X1356Y1914*
X1357Y1914*
X1357Y1915*
X1357Y1915*
X1357Y1915*
X1357Y1916*
X1358Y1916*
X1358Y1916*
X1358Y1917*
X1358Y1917*
X1358Y1918*
X1359Y1918*
X1359Y1919*
X1362Y1918*
Y1918*
X1362Y1918*
X1362Y1918*
X1362Y1917*
X1362Y1917*
X1362Y1917*
X1362Y1916*
X1361Y1916*
X1361Y1915*
X1361Y1915*
X1360Y1914*
X1360Y1914*
X1360Y1913*
X1359Y1913*
X1359Y1912*
X1358Y1912*
X1358Y1912*
X1358Y1912*
X1358Y1911*
X1358Y1911*
X1358Y1911*
X1357Y1911*
X1357Y1911*
X1356Y1911*
X1356Y1910*
X1355Y1910*
X1355Y1910*
X1354Y1910*
X1354Y1910*
X1353Y1910*
X1352Y1910*
X1352Y1910*
X1351*
X1351Y1910*
X1351Y1910*
X1350Y1910*
X1350Y1910*
X1349Y1910*
X1348Y1910*
X1347Y1910*
X1346Y1910*
X1346Y1911*
X1345Y1911*
X1345Y1911*
X1345Y1911*
X1345Y1911*
X1345Y1911*
X1344Y1912*
X1344Y1912*
X1344Y1912*
X1344Y1912*
X1343Y1912*
X1343Y1913*
X1343Y1913*
X1342Y1914*
X1342Y1914*
X1342Y1914*
X1341Y1915*
X1341Y1915*
X1341Y1916*
Y1916*
X1341Y1916*
X1341Y1916*
X1341Y1917*
X1341Y1917*
X1340Y1917*
X1340Y1918*
X1340Y1918*
X1340Y1919*
X1340Y1919*
X1340Y1920*
X1340Y1920*
X1340Y1922*
X1340Y1923*
Y1923*
Y1923*
Y1923*
X1340Y1924*
Y1924*
X1340Y1924*
X1340Y1925*
X1340Y1925*
X1340Y1926*
X1340Y1926*
X1340Y1928*
X1341Y1929*
X1341Y1929*
X1341Y1930*
X1341Y1930*
X1341Y1930*
X1341Y1930*
X1341Y1930*
X1341Y1931*
X1342Y1931*
X1342Y1931*
X1342Y1932*
X1343Y1932*
X1343Y1933*
X1344Y1934*
X1345Y1934*
X1345Y1934*
X1345Y1934*
X1345Y1934*
X1346Y1935*
X1346Y1935*
X1346Y1935*
X1346Y1935*
X1347Y1935*
X1347Y1935*
X1348Y1935*
X1348Y1935*
X1349Y1936*
X1350Y1936*
X1351Y1936*
X1352*
X1352Y1936*
G37*
G36*
X1378Y1919D02*
X1382D01*
Y1916*
X1378*
Y1910*
X1375*
Y1916*
X1364*
Y1919*
X1376Y1936*
X1378*
Y1919*
G37*
G36*
X1764Y4379D02*
X1764D01*
X1764Y4379*
X1765Y4379*
X1765Y4379*
X1766Y4379*
X1766Y4379*
X1768Y4379*
X1769Y4379*
X1769Y4378*
X1770Y4378*
X1770Y4378*
X1770Y4378*
X1770Y4378*
X1770Y4378*
X1771Y4378*
X1771Y4377*
X1771Y4377*
X1772Y4377*
X1772Y4376*
X1773Y4376*
X1774Y4375*
X1774Y4374*
X1774Y4374*
X1774Y4374*
X1774Y4374*
X1775Y4373*
X1775Y4373*
X1775Y4373*
X1775Y4373*
X1775Y4372*
X1775Y4372*
X1775Y4371*
X1775Y4371*
X1776Y4370*
X1776Y4369*
X1776Y4368*
Y4367*
X1776Y4367*
X1776Y4366*
X1776Y4366*
X1776Y4366*
X1776Y4365*
X1776Y4364*
X1775Y4364*
X1775Y4363*
X1775Y4363*
X1775Y4362*
X1774Y4361*
X1774Y4361*
X1774Y4361*
X1774Y4361*
X1774Y4361*
X1774Y4361*
X1773Y4360*
X1773Y4360*
X1773Y4360*
X1773Y4359*
X1772Y4359*
X1772Y4359*
X1771Y4359*
X1771Y4358*
X1770Y4358*
X1770Y4358*
X1769Y4357*
X1769Y4357*
X1768Y4361*
X1768*
X1768Y4361*
X1768Y4361*
X1768Y4361*
X1768Y4361*
X1769Y4361*
X1769Y4361*
X1770Y4362*
X1771Y4362*
X1771Y4363*
X1772Y4363*
X1772Y4363*
Y4363*
X1772Y4363*
X1772Y4363*
X1772Y4363*
X1772Y4364*
X1772Y4364*
X1772Y4364*
X1773Y4365*
X1773Y4366*
X1773Y4367*
X1773Y4367*
Y4368*
X1773Y4368*
Y4368*
X1773Y4369*
X1773Y4369*
X1773Y4369*
X1773Y4370*
X1772Y4371*
X1772Y4372*
X1772Y4372*
X1772Y4372*
Y4372*
X1772Y4373*
X1772Y4373*
X1771Y4373*
X1771Y4373*
X1771Y4374*
X1770Y4374*
X1769Y4374*
X1769Y4375*
X1768Y4375*
X1768*
X1768Y4375*
X1768Y4375*
X1767Y4375*
X1767Y4375*
X1767Y4375*
X1767Y4376*
X1766Y4376*
X1766Y4376*
X1765Y4376*
X1764Y4376*
X1763Y4376*
X1763*
X1763*
X1763*
X1762*
X1762Y4376*
X1762Y4376*
X1761*
X1761Y4376*
X1760Y4376*
X1759Y4376*
X1758Y4375*
X1757Y4375*
X1757*
X1757Y4375*
X1757Y4375*
X1757Y4375*
X1757Y4375*
X1756Y4375*
X1756Y4374*
X1755Y4374*
X1755Y4373*
X1754Y4373*
X1754Y4372*
Y4372*
X1754Y4372*
X1753Y4372*
X1753Y4372*
X1753Y4372*
X1753Y4371*
X1753Y4371*
X1753Y4370*
X1753Y4369*
X1752Y4369*
X1752Y4368*
Y4367*
X1752Y4367*
X1752Y4367*
X1753Y4367*
X1753Y4366*
X1753Y4366*
X1753Y4365*
X1753Y4365*
X1753Y4364*
X1753Y4364*
X1754Y4363*
X1754Y4363*
X1754Y4363*
X1754Y4363*
X1754Y4363*
X1754Y4363*
X1754Y4362*
X1755Y4362*
X1755Y4362*
X1755Y4362*
X1756Y4362*
X1756Y4361*
X1756Y4361*
X1757Y4361*
X1757Y4361*
X1758Y4361*
X1758Y4360*
X1759Y4360*
X1758Y4357*
X1758*
X1758Y4357*
X1758Y4357*
X1757Y4357*
X1757Y4357*
X1757Y4357*
X1756Y4357*
X1756Y4358*
X1755Y4358*
X1755Y4358*
X1754Y4359*
X1754Y4359*
X1753Y4359*
X1753Y4360*
X1752Y4360*
X1752Y4361*
X1752Y4361*
X1752Y4361*
X1751Y4361*
X1751Y4361*
X1751Y4361*
X1751Y4362*
X1751Y4362*
X1751Y4363*
X1750Y4363*
X1750Y4364*
X1750Y4364*
X1750Y4365*
X1750Y4365*
X1750Y4366*
X1750Y4367*
X1750Y4367*
Y4368*
X1750Y4368*
X1750Y4368*
X1750Y4369*
X1750Y4369*
X1750Y4370*
X1750Y4371*
X1750Y4372*
X1750Y4373*
X1751Y4373*
X1751Y4374*
X1751Y4374*
X1751Y4374*
X1751Y4374*
X1751Y4374*
X1752Y4375*
X1752Y4375*
X1752Y4375*
X1752Y4375*
X1752Y4376*
X1753Y4376*
X1753Y4376*
X1753Y4377*
X1754Y4377*
X1754Y4377*
X1755Y4378*
X1755Y4378*
X1756Y4378*
X1756*
X1756Y4378*
X1756Y4378*
X1757Y4378*
X1757Y4378*
X1757Y4379*
X1758Y4379*
X1758Y4379*
X1759Y4379*
X1759Y4379*
X1760Y4379*
X1760Y4379*
X1762Y4379*
X1763Y4380*
X1763*
X1763*
X1763*
X1764Y4379*
G37*
G36*
X1751Y4354D02*
X1751Y4354D01*
X1751Y4354*
X1752Y4354*
X1752Y4354*
X1752*
X1752Y4354*
X1752Y4354*
X1752Y4354*
X1753Y4354*
X1753Y4354*
X1754Y4353*
X1754Y4353*
X1755Y4352*
X1755Y4352*
X1756Y4352*
X1756Y4352*
X1756Y4352*
X1756Y4352*
X1756Y4351*
X1757Y4351*
X1757Y4350*
X1758Y4350*
X1759Y4349*
X1759Y4348*
X1759Y4348*
X1760Y4348*
X1760Y4347*
X1760Y4347*
X1760Y4347*
X1761Y4346*
X1761Y4346*
X1761Y4346*
X1762Y4345*
X1763Y4344*
X1764Y4343*
X1764Y4343*
X1764Y4343*
X1765Y4342*
X1765Y4342*
X1765Y4342*
X1765Y4342*
X1765Y4342*
X1765Y4342*
X1766Y4342*
X1766Y4341*
X1767Y4341*
X1767Y4341*
X1768Y4341*
X1768Y4341*
X1769*
X1769*
X1769*
X1769*
X1769Y4341*
X1769Y4341*
X1770Y4341*
X1770Y4341*
X1771Y4341*
X1771Y4342*
X1772Y4342*
X1772Y4342*
X1772Y4342*
X1772Y4343*
X1772Y4343*
X1773Y4344*
X1773Y4344*
X1773Y4345*
X1773Y4346*
Y4346*
X1773Y4346*
Y4346*
X1773Y4346*
X1773Y4347*
X1773Y4347*
X1772Y4348*
X1772Y4349*
X1772Y4349*
X1772Y4349*
X1771Y4349*
X1771Y4350*
X1771Y4350*
X1770Y4350*
X1770Y4350*
X1769Y4351*
X1768Y4351*
X1768Y4354*
X1768*
X1768Y4354*
X1769*
X1769Y4354*
X1769Y4354*
X1769Y4354*
X1770Y4353*
X1770Y4353*
X1771Y4353*
X1772Y4353*
X1772Y4353*
X1773Y4352*
X1773Y4352*
X1773Y4352*
X1774Y4351*
X1774Y4351*
X1774Y4351*
X1774Y4351*
X1774Y4351*
X1774Y4351*
X1774Y4350*
X1775Y4350*
X1775Y4350*
X1775Y4349*
X1775Y4349*
X1775Y4348*
X1775Y4348*
X1775Y4347*
X1776Y4347*
X1776Y4346*
X1776Y4346*
Y4345*
X1776Y4345*
X1776Y4345*
X1776Y4344*
X1775Y4344*
X1775Y4343*
X1775Y4342*
X1775Y4342*
X1775Y4341*
X1775Y4341*
X1774Y4341*
X1774Y4340*
X1774Y4340*
X1774Y4340*
X1773Y4340*
X1773Y4339*
X1773Y4339*
X1773Y4339*
X1773Y4339*
X1773Y4339*
X1772Y4339*
X1772Y4338*
X1771Y4338*
X1771Y4338*
X1770Y4338*
X1770Y4338*
X1769Y4338*
X1769Y4337*
X1768*
X1768*
X1768Y4338*
X1768Y4338*
X1767Y4338*
X1767Y4338*
X1766Y4338*
X1765Y4338*
X1765Y4338*
X1765Y4338*
X1765Y4338*
X1765Y4339*
X1764Y4339*
X1764Y4339*
X1763Y4340*
X1762Y4340*
X1762*
X1762Y4340*
X1762Y4340*
X1762Y4340*
X1762Y4341*
X1762Y4341*
X1761Y4341*
X1761Y4341*
X1761Y4342*
X1761Y4342*
X1760Y4342*
X1760Y4343*
X1759Y4343*
X1759Y4344*
X1758Y4344*
X1758Y4345*
X1758Y4345*
X1758Y4345*
X1758Y4345*
X1757Y4346*
X1757Y4346*
X1757Y4346*
X1757Y4347*
X1756Y4347*
X1755Y4348*
X1755Y4348*
X1755Y4348*
X1755Y4349*
X1755Y4349*
X1755Y4349*
X1754Y4349*
X1754Y4349*
X1754Y4349*
X1754Y4349*
X1754Y4350*
X1753Y4350*
Y4337*
X1750*
Y4354*
X1750*
X1750*
X1750*
X1751Y4354*
G37*
G36*
X6092Y2086D02*
X6093Y2086D01*
X6093Y2086*
X6093Y2086*
X6094Y2086*
X6095Y2086*
X6095Y2085*
X6096Y2085*
X6096Y2085*
X6097Y2085*
X6098Y2084*
X6098Y2084*
X6098Y2084*
X6098Y2084*
X6098Y2084*
X6098Y2084*
X6099Y2083*
X6099Y2083*
X6099Y2083*
X6100Y2083*
X6100Y2082*
X6100Y2082*
X6100Y2081*
X6101Y2081*
X6101Y2080*
X6101Y2080*
X6102Y2079*
X6102Y2079*
X6098Y2078*
Y2078*
X6098Y2078*
X6098Y2078*
X6098Y2078*
X6098Y2078*
X6098Y2079*
X6098Y2079*
X6097Y2080*
X6097Y2081*
X6096Y2081*
X6096Y2082*
X6096Y2082*
X6096*
X6096Y2082*
X6096Y2082*
X6096Y2082*
X6095Y2082*
X6095Y2082*
X6095Y2082*
X6094Y2083*
X6093Y2083*
X6092Y2083*
X6092Y2083*
X6091*
X6091Y2083*
X6091*
X6090Y2083*
X6090Y2083*
X6090Y2083*
X6089Y2083*
X6088Y2082*
X6087Y2082*
X6087Y2082*
X6087Y2082*
X6087*
X6086Y2082*
X6086Y2082*
X6086Y2081*
X6086Y2081*
X6085Y2081*
X6085Y2080*
X6085Y2079*
X6084Y2079*
X6084Y2078*
Y2078*
X6084Y2078*
X6084Y2078*
X6084Y2077*
X6084Y2077*
X6084Y2077*
X6083Y2077*
X6083Y2076*
X6083Y2076*
X6083Y2075*
X6083Y2074*
X6083Y2073*
Y2073*
Y2073*
Y2073*
Y2072*
X6083Y2072*
X6083Y2072*
Y2071*
X6083Y2071*
X6083Y2070*
X6083Y2069*
X6084Y2068*
X6084Y2067*
Y2067*
X6084Y2067*
X6084Y2067*
X6084Y2067*
X6084Y2067*
X6084Y2066*
X6085Y2066*
X6085Y2065*
X6086Y2065*
X6086Y2064*
X6087Y2064*
X6087*
X6087Y2064*
X6087Y2063*
X6087Y2063*
X6087Y2063*
X6088Y2063*
X6088Y2063*
X6089Y2063*
X6090Y2063*
X6090Y2062*
X6091Y2062*
X6092*
X6092Y2062*
X6092Y2062*
X6092Y2063*
X6093Y2063*
X6093Y2063*
X6094Y2063*
X6094Y2063*
X6095Y2063*
X6095Y2063*
X6096Y2064*
X6096Y2064*
X6096Y2064*
X6096Y2064*
X6096Y2064*
X6096Y2064*
X6097Y2064*
X6097Y2065*
X6097Y2065*
X6097Y2065*
X6097Y2066*
X6098Y2066*
X6098Y2066*
X6098Y2067*
X6098Y2067*
X6098Y2068*
X6099Y2068*
X6099Y2069*
X6102Y2068*
Y2068*
X6102Y2068*
X6102Y2068*
X6102Y2067*
X6102Y2067*
X6102Y2067*
X6102Y2066*
X6101Y2066*
X6101Y2065*
X6101Y2065*
X6100Y2064*
X6100Y2064*
X6100Y2063*
X6099Y2063*
X6099Y2062*
X6098Y2062*
X6098Y2062*
X6098Y2062*
X6098Y2061*
X6098Y2061*
X6098Y2061*
X6097Y2061*
X6097Y2061*
X6096Y2061*
X6096Y2060*
X6095Y2060*
X6095Y2060*
X6094Y2060*
X6094Y2060*
X6093Y2060*
X6092Y2060*
X6092Y2060*
X6091*
X6091Y2060*
X6091Y2060*
X6090Y2060*
X6090Y2060*
X6089Y2060*
X6088Y2060*
X6087Y2060*
X6086Y2060*
X6086Y2061*
X6085Y2061*
X6085Y2061*
X6085Y2061*
X6085Y2061*
X6085Y2061*
X6084Y2062*
X6084Y2062*
X6084Y2062*
X6084Y2062*
X6083Y2062*
X6083Y2063*
X6083Y2063*
X6082Y2063*
X6082Y2064*
X6082Y2064*
X6081Y2065*
X6081Y2065*
X6081Y2066*
Y2066*
X6081Y2066*
X6081Y2066*
X6081Y2067*
X6081Y2067*
X6080Y2067*
X6080Y2068*
X6080Y2068*
X6080Y2069*
X6080Y2069*
X6080Y2070*
X6080Y2070*
X6080Y2072*
X6080Y2073*
Y2073*
Y2073*
Y2073*
X6080Y2074*
Y2074*
X6080Y2074*
X6080Y2075*
X6080Y2075*
X6080Y2076*
X6080Y2076*
X6080Y2078*
X6081Y2079*
X6081Y2079*
X6081Y2080*
X6081Y2080*
X6081Y2080*
X6081Y2080*
X6081Y2080*
X6081Y2081*
X6082Y2081*
X6082Y2081*
X6082Y2082*
X6083Y2082*
X6083Y2083*
X6084Y2084*
X6085Y2084*
X6085Y2084*
X6085Y2084*
X6085Y2084*
X6086Y2085*
X6086Y2085*
X6086Y2085*
X6086Y2085*
X6087Y2085*
X6087Y2085*
X6088Y2085*
X6088Y2085*
X6089Y2086*
X6090Y2086*
X6091Y2086*
X6092*
X6092Y2086*
G37*
G36*
X6117Y2060D02*
X6114D01*
Y2080*
X6114Y2080*
X6114Y2080*
X6113Y2080*
X6113Y2079*
X6113Y2079*
X6112Y2079*
X6111Y2078*
X6111Y2078*
X6111*
X6111Y2078*
X6111Y2078*
X6110Y2078*
X6110Y2077*
X6110Y2077*
X6109Y2077*
X6109Y2077*
X6108Y2076*
X6107Y2076*
Y2079*
X6108*
X6108Y2079*
X6108Y2079*
X6108Y2079*
X6108Y2080*
X6108Y2080*
X6109Y2080*
X6110Y2080*
X6111Y2081*
X6111Y2082*
X6112Y2082*
X6112Y2082*
X6112Y2082*
X6112Y2082*
X6112Y2083*
X6113Y2083*
X6113Y2083*
X6114Y2084*
X6114Y2084*
X6115Y2085*
X6115Y2086*
X6117*
Y2060*
G37*
G36*
X1725Y3129D02*
X1725Y3129D01*
X1725Y3129*
X1726Y3129*
X1726Y3129*
X1727Y3129*
X1728Y3129*
X1728Y3129*
X1728Y3128*
X1729Y3128*
X1729Y3128*
X1730Y3128*
X1730Y3127*
X1730Y3127*
X1730Y3127*
X1730Y3127*
X1730Y3127*
X1731Y3127*
X1731Y3126*
X1731Y3126*
X1731Y3126*
X1731Y3125*
X1732Y3125*
X1732Y3124*
X1732Y3124*
X1732Y3123*
X1732Y3123*
X1732Y3122*
X1729Y3122*
Y3122*
X1729Y3122*
X1729Y3122*
X1729Y3122*
X1729Y3123*
X1729Y3123*
X1729Y3123*
X1729Y3124*
X1728Y3125*
X1728Y3125*
X1728Y3126*
X1727Y3126*
X1727Y3126*
X1727Y3126*
X1727Y3126*
X1727Y3126*
X1726Y3127*
X1726Y3127*
X1725Y3127*
X1724Y3127*
X1724*
X1724Y3127*
X1724*
X1723Y3127*
X1723Y3127*
X1722Y3127*
X1722Y3126*
X1721Y3126*
X1721Y3126*
X1720Y3125*
X1720Y3125*
X1720Y3125*
X1720Y3125*
X1720Y3125*
X1720Y3125*
X1720Y3124*
X1719Y3124*
X1719Y3123*
X1719Y3122*
X1719Y3122*
Y3122*
Y3122*
Y3121*
Y3121*
X1719Y3121*
Y3121*
X1719Y3121*
X1719Y3120*
X1719Y3120*
X1720Y3119*
X1720Y3119*
X1720Y3118*
X1720Y3118*
X1720Y3118*
X1721Y3118*
X1721Y3118*
X1721Y3117*
X1722Y3117*
X1722Y3117*
X1723Y3117*
X1724Y3117*
X1724*
X1725Y3117*
X1725Y3117*
X1725Y3117*
X1726Y3117*
X1726Y3117*
X1726Y3114*
X1726*
X1726Y3114*
X1725Y3114*
X1725*
X1725Y3114*
X1725Y3114*
X1724Y3114*
X1724Y3114*
X1723Y3114*
X1722Y3114*
X1722Y3113*
X1722*
X1722Y3113*
X1721Y3113*
X1721Y3113*
X1721Y3112*
X1721Y3112*
X1720Y3111*
X1720Y3111*
X1720Y3110*
X1720Y3110*
Y3110*
Y3110*
X1720Y3110*
X1720Y3109*
X1720Y3109*
X1720Y3109*
X1721Y3108*
X1721Y3108*
X1721Y3107*
X1721Y3107*
X1721Y3107*
X1722Y3107*
X1722Y3107*
X1723Y3106*
X1723Y3106*
X1724Y3106*
X1724Y3106*
X1724*
X1725Y3106*
X1725Y3106*
X1725Y3106*
X1726Y3106*
X1726Y3106*
X1727Y3107*
X1727Y3107*
X1727Y3107*
X1728Y3107*
X1728Y3108*
X1728Y3108*
X1728Y3108*
X1729Y3109*
X1729Y3110*
X1729Y3111*
X1732Y3110*
Y3110*
X1732Y3110*
X1732Y3110*
X1732Y3109*
X1732Y3109*
X1732Y3109*
X1732Y3109*
X1732Y3108*
X1731Y3107*
X1731Y3107*
X1730Y3106*
X1730Y3105*
X1729Y3105*
X1729Y3105*
X1729Y3105*
X1729Y3105*
X1729Y3105*
X1729Y3105*
X1729Y3105*
X1728Y3104*
X1728Y3104*
X1728Y3104*
X1727Y3104*
X1726Y3104*
X1725Y3103*
X1725Y3103*
X1724Y3103*
X1724*
X1724Y3103*
X1724*
X1723Y3103*
X1723Y3104*
X1722Y3104*
X1721Y3104*
X1721Y3104*
X1721*
X1720Y3104*
X1720Y3104*
X1720Y3104*
X1720Y3105*
X1720Y3105*
X1719Y3105*
X1719Y3106*
X1718Y3106*
X1718Y3107*
Y3107*
X1718Y3107*
X1718Y3107*
X1718Y3107*
X1717Y3108*
X1717Y3108*
X1717Y3109*
X1717Y3109*
X1717Y3110*
Y3110*
Y3110*
Y3110*
X1717Y3111*
X1717Y3111*
X1717Y3111*
X1717Y3112*
X1717Y3113*
X1718Y3113*
X1718Y3113*
X1718Y3113*
X1718Y3114*
X1718Y3114*
X1719Y3114*
X1719Y3115*
X1720Y3115*
X1720Y3115*
X1720*
X1720Y3115*
X1720Y3115*
X1720Y3115*
X1720Y3115*
X1720Y3115*
X1719Y3116*
X1719Y3116*
X1718Y3116*
X1717Y3117*
X1717Y3117*
Y3117*
X1717Y3117*
X1717Y3118*
X1717Y3118*
X1717Y3118*
X1716Y3118*
X1716Y3119*
X1716Y3119*
X1716Y3120*
X1716Y3121*
X1716Y3122*
Y3122*
Y3122*
Y3122*
X1716Y3122*
X1716Y3122*
X1716Y3123*
X1716Y3123*
X1716Y3123*
X1716Y3124*
X1716Y3124*
X1716Y3125*
X1717Y3125*
X1717Y3126*
X1717Y3126*
X1718Y3127*
X1718Y3127*
X1718Y3127*
X1718Y3127*
X1718Y3127*
X1719Y3128*
X1719Y3128*
X1719Y3128*
X1719Y3128*
X1720Y3128*
X1720Y3129*
X1721Y3129*
X1721Y3129*
X1722Y3129*
X1722Y3129*
X1723Y3129*
X1724Y3129*
X1724Y3130*
X1725*
X1725Y3129*
G37*
G36*
X1747D02*
X1747Y3129D01*
X1747Y3129*
X1748Y3129*
X1748Y3129*
X1749Y3129*
X1750Y3129*
X1751Y3129*
X1752Y3128*
X1752Y3128*
X1753Y3128*
X1753Y3128*
X1753Y3128*
X1753Y3128*
X1753Y3128*
X1753Y3127*
X1754Y3127*
X1754Y3127*
X1754Y3127*
X1754Y3126*
X1755Y3126*
X1755Y3126*
X1755Y3125*
X1756Y3125*
X1756Y3124*
X1756Y3124*
X1757Y3123*
Y3123*
X1757Y3123*
X1757Y3123*
X1757Y3122*
X1757Y3122*
X1757Y3122*
X1757Y3121*
X1757Y3121*
X1757Y3120*
X1757Y3120*
X1758Y3119*
X1758Y3119*
X1758Y3117*
X1758Y3116*
Y3116*
Y3116*
Y3116*
X1758Y3115*
Y3115*
X1758Y3115*
X1758Y3114*
X1758Y3114*
X1758Y3113*
X1758Y3113*
X1757Y3111*
X1757Y3110*
X1757Y3110*
X1756Y3109*
X1756Y3109*
X1756Y3109*
X1756Y3109*
X1756Y3109*
X1756Y3108*
X1756Y3108*
X1756Y3108*
X1755Y3107*
X1755Y3107*
X1754Y3106*
X1753Y3105*
X1753Y3105*
X1752Y3105*
X1752Y3105*
X1752Y3105*
X1752Y3104*
X1752Y3104*
X1751Y3104*
X1751Y3104*
X1751Y3104*
X1750Y3104*
X1750Y3104*
X1749Y3104*
X1748Y3103*
X1747Y3103*
X1746Y3103*
X1745*
X1745Y3103*
X1745Y3103*
X1744Y3103*
X1744Y3103*
X1744Y3103*
X1743Y3103*
X1742Y3104*
X1741Y3104*
X1741Y3104*
X1740Y3104*
X1740Y3105*
X1739Y3105*
X1739Y3105*
X1739Y3105*
X1739Y3105*
X1739Y3105*
X1739Y3106*
X1738Y3106*
X1738Y3106*
X1738Y3106*
X1738Y3107*
X1737Y3107*
X1737Y3108*
X1737Y3108*
X1736Y3109*
X1736Y3109*
X1736Y3110*
X1736Y3110*
X1739Y3111*
Y3111*
X1739Y3111*
X1739Y3111*
X1739Y3111*
X1739Y3111*
X1739Y3110*
X1740Y3110*
X1740Y3109*
X1740Y3108*
X1741Y3108*
X1741Y3107*
X1742Y3107*
X1742*
X1742Y3107*
X1742Y3107*
X1742Y3107*
X1742Y3107*
X1742Y3107*
X1743Y3107*
X1743Y3106*
X1744Y3106*
X1745Y3106*
X1746Y3106*
X1746*
X1746Y3106*
X1747*
X1747Y3106*
X1747Y3106*
X1748Y3106*
X1748Y3106*
X1749Y3107*
X1750Y3107*
X1750Y3107*
X1751Y3107*
X1751*
X1751Y3107*
X1751Y3107*
X1751Y3108*
X1752Y3108*
X1752Y3108*
X1752Y3109*
X1753Y3110*
X1753Y3110*
X1754Y3111*
Y3111*
X1754Y3111*
X1754Y3111*
X1754Y3112*
X1754Y3112*
X1754Y3112*
X1754Y3112*
X1754Y3113*
X1754Y3113*
X1754Y3114*
X1754Y3115*
X1754Y3116*
Y3116*
Y3116*
Y3116*
Y3117*
X1754Y3117*
X1754Y3117*
Y3118*
X1754Y3118*
X1754Y3119*
X1754Y3120*
X1754Y3121*
X1754Y3122*
Y3122*
X1753Y3122*
X1753Y3122*
X1753Y3122*
X1753Y3122*
X1753Y3123*
X1753Y3123*
X1752Y3124*
X1752Y3124*
X1751Y3125*
X1751Y3125*
X1751*
X1750Y3125*
X1750Y3126*
X1750Y3126*
X1750Y3126*
X1750Y3126*
X1749Y3126*
X1749Y3126*
X1748Y3126*
X1747Y3127*
X1746Y3127*
X1746*
X1746Y3127*
X1745Y3127*
X1745Y3127*
X1745Y3126*
X1745Y3126*
X1744Y3126*
X1743Y3126*
X1743Y3126*
X1742Y3126*
X1742Y3125*
X1741Y3125*
X1741Y3125*
X1741Y3125*
X1741Y3125*
X1741Y3125*
X1741Y3125*
X1741Y3124*
X1740Y3124*
X1740Y3124*
X1740Y3123*
X1740Y3123*
X1740Y3123*
X1739Y3122*
X1739Y3122*
X1739Y3121*
X1739Y3121*
X1739Y3120*
X1735Y3121*
Y3121*
X1735Y3121*
X1735Y3121*
X1735Y3122*
X1736Y3122*
X1736Y3122*
X1736Y3123*
X1736Y3123*
X1736Y3124*
X1737Y3124*
X1737Y3125*
X1737Y3125*
X1738Y3126*
X1738Y3126*
X1739Y3127*
X1739Y3127*
X1739Y3127*
X1739Y3127*
X1739Y3128*
X1740Y3128*
X1740Y3128*
X1740Y3128*
X1741Y3128*
X1741Y3128*
X1741Y3129*
X1742Y3129*
X1743Y3129*
X1743Y3129*
X1744Y3129*
X1744Y3129*
X1745Y3129*
X1746Y3130*
X1746*
X1747Y3129*
G37*
%LNpcb1-2*%
%LPC*%
G36*
X1636Y3507D02*
X1636D01*
X1636*
X1636*
X1635Y3507*
X1635*
X1635Y3507*
X1634Y3507*
X1634Y3507*
X1633Y3507*
X1632Y3507*
X1631Y3506*
X1630Y3506*
X1630Y3506*
X1630*
X1630Y3506*
X1630Y3506*
X1630Y3506*
X1629Y3505*
X1629Y3505*
X1628Y3504*
X1628Y3504*
X1627Y3503*
X1627Y3503*
X1627Y3503*
X1627Y3503*
X1627Y3503*
X1627Y3502*
X1627Y3502*
X1627Y3502*
X1627Y3502*
X1627Y3502*
X1627Y3501*
X1627Y3501*
X1627Y3501*
X1627Y3500*
X1627Y3500*
Y3499*
X1626Y3499*
Y3493*
X1646*
Y3499*
X1646Y3499*
X1646Y3500*
X1646Y3500*
X1646Y3501*
X1646Y3502*
X1646Y3502*
Y3502*
X1646Y3502*
X1645Y3503*
X1645Y3503*
X1645Y3503*
X1645Y3504*
X1645Y3504*
X1645Y3504*
X1644Y3505*
X1644Y3505*
X1644Y3505*
X1644Y3505*
X1643Y3505*
X1643Y3506*
X1642Y3506*
X1642Y3506*
X1641Y3506*
X1641*
X1641Y3507*
X1641Y3507*
X1641Y3507*
X1640Y3507*
X1640Y3507*
X1640Y3507*
X1640Y3507*
X1639Y3507*
X1639Y3507*
X1638Y3507*
X1637Y3507*
X1636Y3507*
G37*
G36*
X1944Y2261D02*
X1936Y2249D01*
X1944*
Y2261*
G37*
G36*
X1830Y3524D02*
X1819D01*
X1830Y3516*
Y3524*
G37*
G36*
X1827Y3507D02*
X1826D01*
X1826*
X1826*
X1826Y3507*
X1826*
X1825Y3507*
X1825Y3507*
X1824Y3507*
X1823Y3507*
X1822Y3507*
X1821Y3506*
X1821Y3506*
X1820Y3506*
X1820*
X1820Y3506*
X1820Y3506*
X1820Y3506*
X1820Y3505*
X1819Y3505*
X1819Y3504*
X1818Y3504*
X1818Y3503*
X1818Y3503*
X1817Y3503*
X1817Y3503*
X1817Y3503*
X1817Y3502*
X1817Y3502*
X1817Y3502*
X1817Y3502*
X1817Y3502*
X1817Y3501*
X1817Y3501*
X1817Y3501*
X1817Y3500*
X1817Y3500*
Y3499*
X1817Y3499*
Y3493*
X1836*
Y3499*
X1836Y3499*
X1836Y3500*
X1836Y3500*
X1836Y3501*
X1836Y3502*
X1836Y3502*
Y3502*
X1836Y3502*
X1836Y3503*
X1836Y3503*
X1836Y3503*
X1835Y3504*
X1835Y3504*
X1835Y3504*
X1835Y3505*
X1835Y3505*
X1834Y3505*
X1834Y3505*
X1834Y3505*
X1833Y3506*
X1833Y3506*
X1832Y3506*
X1831Y3506*
X1831*
X1831Y3507*
X1831Y3507*
X1831Y3507*
X1831Y3507*
X1831Y3507*
X1830Y3507*
X1830Y3507*
X1830Y3507*
X1829Y3507*
X1829Y3507*
X1828Y3507*
X1827Y3507*
G37*
G36*
X6112Y1826D02*
X6093D01*
Y1820*
X6093Y1820*
X6093Y1819*
X6093Y1819*
X6093Y1818*
X6093Y1817*
X6093Y1817*
Y1817*
X6093Y1817*
X6093Y1816*
X6093Y1816*
X6093Y1816*
X6094Y1815*
X6094Y1815*
X6094Y1815*
X6094Y1814*
X6094Y1814*
X6095Y1814*
X6095Y1814*
X6095Y1814*
X6096Y1813*
X6096Y1813*
X6097Y1813*
X6098Y1813*
X6098*
X6098Y1812*
X6098Y1812*
X6098Y1812*
X6098Y1812*
X6098Y1812*
X6099Y1812*
X6099Y1812*
X6099Y1812*
X6100Y1812*
X6100Y1812*
X6101Y1812*
X6102Y1812*
X6103*
X6103*
X6103*
X6103Y1812*
X6103*
X6104Y1812*
X6104Y1812*
X6105Y1812*
X6106Y1812*
X6107Y1812*
X6108Y1813*
X6108Y1813*
X6109Y1813*
X6109*
X6109Y1813*
X6109Y1813*
X6109Y1813*
X6109Y1814*
X6110Y1814*
X6110Y1815*
X6111Y1815*
X6111Y1816*
X6111Y1816*
X6112Y1816*
X6112Y1816*
X6112Y1816*
X6112Y1817*
X6112Y1817*
X6112Y1817*
X6112Y1817*
X6112Y1817*
X6112Y1818*
X6112Y1818*
X6112Y1818*
X6112Y1819*
X6112Y1819*
Y1820*
X6112Y1820*
Y1826*
G37*
G36*
X6750Y2508D02*
X6738D01*
X6750Y2500*
Y2508*
G37*
G36*
X6112Y1556D02*
X6093D01*
Y1550*
X6093Y1550*
X6093Y1549*
X6093Y1549*
X6093Y1548*
X6093Y1547*
X6093Y1547*
Y1547*
X6093Y1547*
X6093Y1546*
X6093Y1546*
X6093Y1546*
X6094Y1545*
X6094Y1545*
X6094Y1545*
X6094Y1544*
X6094Y1544*
X6095Y1544*
X6095Y1544*
X6095Y1544*
X6096Y1543*
X6096Y1543*
X6097Y1543*
X6098Y1543*
X6098*
X6098Y1542*
X6098Y1542*
X6098Y1542*
X6098Y1542*
X6098Y1542*
X6099Y1542*
X6099Y1542*
X6099Y1542*
X6100Y1542*
X6100Y1542*
X6101Y1542*
X6102Y1542*
X6103*
X6103*
X6103*
X6103Y1542*
X6103*
X6104Y1542*
X6104Y1542*
X6105Y1542*
X6106Y1542*
X6107Y1542*
X6108Y1543*
X6108Y1543*
X6109Y1543*
X6109*
X6109Y1543*
X6109Y1543*
X6109Y1543*
X6109Y1544*
X6110Y1544*
X6110Y1545*
X6111Y1545*
X6111Y1546*
X6111Y1546*
X6112Y1546*
X6112Y1546*
X6112Y1546*
X6112Y1547*
X6112Y1547*
X6112Y1547*
X6112Y1547*
X6112Y1547*
X6112Y1548*
X6112Y1548*
X6112Y1548*
X6112Y1549*
X6112Y1549*
Y1550*
X6112Y1550*
Y1556*
G37*
G36*
X6743Y3594D02*
X6742D01*
X6742Y3594*
X6742*
X6742Y3594*
X6741Y3594*
X6741Y3593*
X6740Y3593*
X6740Y3593*
X6739Y3593*
X6739Y3592*
Y3592*
X6739Y3592*
X6739Y3592*
X6739Y3592*
X6739Y3592*
X6738Y3591*
X6738Y3591*
X6738Y3590*
X6738Y3589*
X6738Y3589*
X6738Y3588*
Y3588*
Y3588*
Y3588*
X6738Y3588*
X6738Y3587*
X6738Y3587*
X6738Y3586*
X6738Y3586*
X6738Y3585*
X6738Y3585*
X6738Y3585*
X6739Y3585*
X6739Y3584*
X6739Y3584*
X6739Y3584*
X6740Y3583*
X6740Y3583*
X6740Y3583*
X6740Y3583*
X6741Y3583*
X6741Y3583*
X6741Y3582*
X6742Y3582*
X6742Y3582*
X6743Y3582*
X6743*
X6743Y3582*
X6743Y3582*
X6744Y3582*
X6744Y3583*
X6745Y3583*
X6746Y3583*
X6746Y3583*
X6746Y3584*
X6746Y3584*
X6746Y3584*
X6746Y3584*
X6746Y3584*
X6747Y3584*
X6747Y3584*
X6747Y3585*
X6747Y3585*
X6747Y3585*
X6747Y3586*
X6748Y3587*
X6748Y3588*
Y3588*
Y3588*
Y3588*
Y3588*
X6748Y3588*
Y3589*
X6748Y3589*
X6747Y3590*
X6747Y3590*
X6747Y3591*
X6747Y3592*
X6746Y3592*
X6746Y3592*
Y3592*
X6746Y3592*
X6746Y3592*
X6746Y3593*
X6745Y3593*
X6745Y3593*
X6744Y3594*
X6743Y3594*
X6743Y3594*
G37*
G36*
X6719Y3603D02*
X6713D01*
Y3583*
X6719*
X6719Y3583*
X6720Y3583*
X6720Y3583*
X6721Y3583*
X6722Y3583*
X6722Y3583*
X6722*
X6722Y3583*
X6723Y3584*
X6723Y3584*
X6723Y3584*
X6724Y3584*
X6724Y3584*
X6724Y3584*
X6725Y3585*
X6725Y3585*
X6725Y3585*
X6725Y3585*
X6725Y3586*
X6726Y3586*
X6726Y3587*
X6726Y3587*
X6726Y3588*
Y3588*
X6727Y3588*
X6727Y3588*
X6727Y3588*
X6727Y3589*
X6727Y3589*
X6727Y3589*
X6727Y3589*
X6727Y3590*
X6727Y3590*
X6727Y3591*
X6727Y3592*
X6727Y3593*
Y3593*
Y3593*
Y3593*
X6727Y3594*
Y3594*
X6727Y3594*
X6727Y3595*
X6727Y3595*
X6727Y3596*
X6727Y3597*
X6726Y3598*
X6726Y3599*
X6726Y3599*
Y3599*
X6726Y3599*
X6726Y3599*
X6726Y3599*
X6725Y3600*
X6725Y3600*
X6724Y3601*
X6724Y3601*
X6723Y3602*
X6723Y3602*
X6723Y3602*
X6723Y3602*
X6723Y3602*
X6722Y3602*
X6722Y3602*
X6722Y3602*
X6722Y3602*
X6722Y3602*
X6721Y3602*
X6721Y3602*
X6721Y3602*
X6720Y3602*
X6720Y3602*
X6719*
X6719Y3603*
G37*
G36*
X1834Y1907D02*
X1834D01*
X1834Y1907*
X1834Y1907*
X1833Y1907*
X1833Y1907*
X1832Y1906*
X1832Y1906*
X1832Y1906*
X1831Y1906*
X1831Y1906*
X1831Y1905*
X1831Y1905*
X1830Y1905*
X1830Y1905*
X1830Y1905*
X1830Y1904*
X1830Y1904*
X1830Y1904*
X1830Y1903*
X1830Y1903*
X1830Y1902*
X1829Y1902*
X1829Y1901*
X1829Y1900*
X1829Y1900*
X1829Y1899*
X1829Y1898*
Y1896*
Y1896*
Y1896*
Y1896*
Y1896*
X1829Y1895*
Y1895*
X1829Y1894*
X1829Y1894*
X1829Y1893*
X1829Y1892*
X1830Y1891*
X1830Y1890*
X1830Y1890*
X1830Y1889*
X1830Y1888*
X1831Y1888*
Y1888*
X1831Y1888*
X1831Y1888*
X1831Y1888*
X1831Y1887*
X1832Y1887*
X1832Y1887*
X1833Y1886*
X1833Y1886*
X1833Y1886*
X1834Y1886*
X1834Y1886*
X1834*
X1835Y1886*
X1835Y1886*
X1835Y1886*
X1836Y1886*
X1837Y1887*
X1837Y1887*
X1837Y1887*
X1837Y1887*
X1838Y1888*
X1838Y1888*
X1838Y1888*
X1838Y1888*
X1838Y1888*
X1838Y1889*
X1838Y1889*
X1838Y1889*
X1838Y1890*
X1839Y1890*
X1839Y1891*
X1839Y1892*
X1839Y1892*
X1839Y1893*
X1839Y1894*
X1839Y1895*
X1839Y1896*
Y1896*
Y1897*
Y1897*
Y1897*
X1839Y1897*
Y1898*
X1839Y1899*
X1839Y1899*
X1839Y1900*
X1839Y1901*
X1839Y1902*
X1839Y1903*
X1838Y1903*
X1838Y1904*
X1838Y1904*
X1838Y1905*
X1838Y1905*
X1838Y1905*
X1838Y1905*
X1838Y1905*
X1837Y1906*
X1837Y1906*
X1836Y1906*
X1836Y1907*
X1835Y1907*
X1835Y1907*
X1835Y1907*
X1834Y1907*
G37*
G36*
X1558Y2830D02*
X1558D01*
X1558*
X1558*
X1558Y2830*
X1557Y2830*
X1557Y2830*
X1556Y2830*
X1556Y2830*
X1555Y2830*
X1555Y2830*
X1555Y2830*
X1555Y2830*
X1554Y2829*
X1554Y2829*
X1554Y2829*
X1553Y2828*
X1553Y2828*
X1553Y2828*
X1553Y2828*
X1553Y2827*
X1553Y2827*
X1552Y2827*
X1552Y2826*
X1552Y2826*
X1552Y2825*
Y2825*
X1552Y2825*
X1552Y2825*
X1552Y2824*
X1553Y2824*
X1553Y2823*
X1553Y2822*
X1553Y2822*
X1554Y2822*
X1554Y2822*
X1554Y2822*
X1554Y2822*
X1554Y2822*
X1554Y2822*
X1554Y2821*
X1555Y2821*
X1555Y2821*
X1555Y2821*
X1556Y2821*
X1557Y2820*
X1558Y2820*
X1558*
X1558*
X1558*
X1558*
X1558Y2820*
X1559*
X1559Y2820*
X1560Y2821*
X1560Y2821*
X1561Y2821*
X1562Y2821*
X1562Y2822*
X1562Y2822*
X1562*
X1562Y2822*
X1562Y2822*
X1563Y2822*
X1563Y2823*
X1563Y2823*
X1564Y2824*
X1564Y2825*
X1564Y2825*
Y2826*
X1564Y2826*
Y2826*
X1564Y2826*
X1564Y2827*
X1563Y2827*
X1563Y2828*
X1563Y2828*
X1563Y2829*
X1562Y2829*
X1562*
X1562Y2829*
X1562Y2829*
X1562Y2829*
X1562Y2829*
X1561Y2830*
X1561Y2830*
X1560Y2830*
X1559Y2830*
X1559Y2830*
X1558Y2830*
G37*
G36*
X6719Y2843D02*
X6713D01*
Y2823*
X6719*
X6719Y2823*
X6720Y2823*
X6720Y2823*
X6721Y2823*
X6722Y2823*
X6722Y2823*
X6722*
X6722Y2823*
X6723Y2824*
X6723Y2824*
X6723Y2824*
X6724Y2824*
X6724Y2824*
X6724Y2824*
X6725Y2825*
X6725Y2825*
X6725Y2825*
X6725Y2825*
X6725Y2826*
X6726Y2826*
X6726Y2827*
X6726Y2827*
X6726Y2828*
Y2828*
X6727Y2828*
X6727Y2828*
X6727Y2828*
X6727Y2829*
X6727Y2829*
X6727Y2829*
X6727Y2829*
X6727Y2830*
X6727Y2830*
X6727Y2831*
X6727Y2832*
X6727Y2833*
Y2833*
Y2833*
Y2833*
X6727Y2834*
Y2834*
X6727Y2834*
X6727Y2835*
X6727Y2835*
X6727Y2836*
X6727Y2837*
X6726Y2838*
X6726Y2839*
X6726Y2839*
Y2839*
X6726Y2839*
X6726Y2839*
X6726Y2839*
X6725Y2840*
X6725Y2840*
X6724Y2841*
X6724Y2841*
X6723Y2842*
X6723Y2842*
X6723Y2842*
X6723Y2842*
X6723Y2842*
X6722Y2842*
X6722Y2842*
X6722Y2842*
X6722Y2842*
X6722Y2842*
X6721Y2842*
X6721Y2842*
X6721Y2842*
X6720Y2842*
X6720Y2842*
X6719*
X6719Y2843*
G37*
G36*
X5886Y4057D02*
X5886D01*
X5885Y4057*
X5885Y4057*
X5885Y4057*
X5884Y4057*
X5884Y4056*
X5884Y4056*
X5883Y4056*
X5883Y4056*
X5883Y4056*
X5882Y4055*
X5882Y4055*
X5882Y4055*
X5882Y4055*
X5882Y4055*
X5882Y4054*
X5882Y4054*
X5882Y4054*
X5881Y4053*
X5881Y4053*
X5881Y4052*
X5881Y4052*
X5881Y4051*
X5881Y4050*
X5881Y4050*
X5881Y4049*
X5881Y4048*
Y4046*
Y4046*
Y4046*
Y4046*
Y4046*
X5881Y4045*
Y4045*
X5881Y4044*
X5881Y4044*
X5881Y4043*
X5881Y4042*
X5881Y4041*
X5881Y4040*
X5881Y4040*
X5882Y4039*
X5882Y4038*
X5882Y4038*
Y4038*
X5882Y4038*
X5882Y4038*
X5882Y4038*
X5883Y4037*
X5883Y4037*
X5884Y4037*
X5884Y4036*
X5885Y4036*
X5885Y4036*
X5885Y4036*
X5886Y4036*
X5886*
X5886Y4036*
X5887Y4036*
X5887Y4036*
X5888Y4036*
X5888Y4037*
X5888Y4037*
X5889Y4037*
X5889Y4037*
X5889Y4038*
X5889Y4038*
X5889Y4038*
X5889Y4038*
X5889Y4038*
X5890Y4039*
X5890Y4039*
X5890Y4039*
X5890Y4040*
X5890Y4040*
X5890Y4041*
X5890Y4042*
X5891Y4042*
X5891Y4043*
X5891Y4044*
X5891Y4045*
X5891Y4046*
Y4046*
Y4047*
Y4047*
Y4047*
X5891Y4047*
Y4048*
X5891Y4049*
X5891Y4049*
X5891Y4050*
X5890Y4051*
X5890Y4052*
X5890Y4053*
X5890Y4053*
X5890Y4054*
X5890Y4054*
X5889Y4055*
X5889Y4055*
X5889Y4055*
X5889Y4055*
X5889Y4055*
X5889Y4056*
X5888Y4056*
X5888Y4056*
X5887Y4057*
X5887Y4057*
X5886Y4057*
X5886Y4057*
X5886Y4057*
G37*
G36*
X1375Y1931D02*
X1367Y1919D01*
X1375*
Y1931*
G37*
%LNpcb1-3*%
%LPD*%
G54D13*
X1168Y2136D02*
Y2423D01*
Y2136D02*
X1511D01*
Y2423*
X1168D02*
X1511D01*
X1568Y3344D02*
Y3635D01*
X1731*
Y3344D02*
Y3635D01*
X1568Y3344D02*
X1731D01*
X1441Y1631D02*
X1768D01*
Y1398D02*
Y1631D01*
X1441Y1398D02*
X1768D01*
X1441D02*
Y1631D01*
X1749Y2104D02*
Y2375D01*
Y2104D02*
X2070D01*
Y2375*
X1749D02*
X2070D01*
X5983Y2010D02*
Y2289D01*
X5766Y2010D02*
X5983D01*
X5766D02*
Y2289D01*
X5983*
X1758Y3344D02*
Y3635D01*
X1921*
Y3344D02*
Y3635D01*
X1758Y3344D02*
X1921D01*
X6008Y1948D02*
X6171D01*
X6008Y1711D02*
Y1948D01*
Y1711D02*
X6171D01*
Y1948*
X6652Y2316D02*
Y2643D01*
X6867*
Y2316D02*
Y2643D01*
X6652Y2316D02*
X6867D01*
X1728Y2416D02*
Y2703D01*
Y2416D02*
X2071D01*
Y2703*
X1728D02*
X2071D01*
X1788Y3768D02*
Y4071D01*
X1631Y3768D02*
X1788D01*
X1631D02*
Y4071D01*
X1788*
X6171Y1441D02*
Y1678D01*
X6008Y1441D02*
X6171D01*
X6008D02*
Y1678D01*
X6171*
X6591Y3661D02*
X6828D01*
Y3498D02*
Y3661D01*
X6591Y3498D02*
X6828D01*
X6591D02*
Y3661D01*
X2059Y1766D02*
Y2053D01*
X1717D02*
X2059D01*
X1717Y1766D02*
Y2053D01*
Y1766D02*
X2059D01*
X1588Y2792D02*
Y2927D01*
X1511Y2792D02*
X1588D01*
X1511D02*
Y2927D01*
X1588*
X6287Y3861D02*
Y3938D01*
X6152D02*
X6287D01*
X6152Y3861D02*
Y3938D01*
Y3861D02*
X6287D01*
X6591Y2901D02*
X6828D01*
Y2738D02*
Y2901D01*
X6591Y2738D02*
X6828D01*
X6591D02*
Y2901D01*
X5872Y4021D02*
X6007D01*
X5872D02*
Y4098D01*
X6007*
Y4021D02*
Y4098D01*
X1511Y2542D02*
Y2677D01*
X1588*
Y2542D02*
Y2677D01*
X1511Y2542D02*
X1588D01*
X1998Y3768D02*
Y4071D01*
X1841Y3768D02*
X1998D01*
X1841D02*
Y4071D01*
X1998*
X1129Y1732D02*
Y2087D01*
Y1732D02*
X1550D01*
Y2087*
X1129D02*
X1550D01*
X1572Y4590D02*
X1927D01*
X1572Y4169D02*
Y4590D01*
Y4169D02*
X1927D01*
Y4590*
X6012Y2098D02*
X6147D01*
Y2021D02*
Y2098D01*
X6012Y2021D02*
X6147D01*
X6012D02*
Y2098D01*
X1929Y2986D02*
Y3273D01*
X1587D02*
X1929D01*
X1587Y2986D02*
Y3273D01*
Y2986D02*
X1929D01*
M02*