%FSLAX23Y23*%
%MOIN*%
%SFA1B1*%

%IPPOS*%
%AMD103*
4,1,8,-0.026600,0.006900,-0.026600,-0.006900,-0.020700,-0.012900,0.020700,-0.012900,0.026600,-0.006900,0.026600,0.006900,0.020700,0.012900,-0.020700,0.012900,-0.026600,0.006900,0.0*
1,1,0.011900,-0.020700,0.006900*
1,1,0.011900,-0.020700,-0.006900*
1,1,0.011900,0.020700,-0.006900*
1,1,0.011900,0.020700,0.006900*
%
%AMD110*
4,1,8,0.023700,-0.009800,0.023700,0.009800,0.017700,0.015800,-0.017700,0.015800,-0.023700,0.009800,-0.023700,-0.009800,-0.017700,-0.015800,0.017700,-0.015800,0.023700,-0.009800,0.0*
1,1,0.012020,0.017700,-0.009800*
1,1,0.012020,0.017700,0.009800*
1,1,0.012020,-0.017700,0.009800*
1,1,0.012020,-0.017700,-0.009800*
%
%ADD25R,0.085830X0.063780*%
%ADD30R,0.057330X0.051360*%
%ADD31R,0.051360X0.057330*%
%ADD38R,0.061150X0.041470*%
%ADD39R,0.041470X0.061150*%
%ADD44C,0.053150*%
%ADD45R,0.053150X0.053150*%
%ADD46C,0.053980*%
%ADD47R,0.053980X0.053980*%
%ADD48R,0.061810X0.061810*%
%ADD49C,0.061810*%
%ADD50C,0.401700*%
%ADD51R,0.078870X0.078870*%
%ADD52C,0.078870*%
%ADD53R,0.055120X0.055120*%
%ADD54C,0.055120*%
%ADD55R,0.072960X0.072960*%
%ADD56C,0.072960*%
%ADD57C,0.067060*%
%ADD58C,0.204850*%
%ADD59C,0.096580*%
%ADD60C,0.108270*%
%ADD61R,0.108270X0.108270*%
%ADD92R,0.037650X0.047490*%
%ADD93R,0.098430X0.086610*%
%ADD96R,0.145670X0.096460*%
%ADD100R,0.059060X0.066930*%
G04~CAMADD=103~8~0.0~0.0~257.2~532.8~59.5~0.0~15~0.0~0.0~0.0~0.0~0~0.0~0.0~0.0~0.0~0~0.0~0.0~0.0~90.0~534.0~257.0*
%ADD103D103*%
%ADD104R,0.159580X0.045400*%
%ADD105R,0.338710X0.405640*%
%ADD106R,0.045400X0.159580*%
%ADD107R,0.405640X0.338710*%
%ADD108R,0.039500X0.043430*%
%ADD109R,0.043430X0.039500*%
G04~CAMADD=110~8~0.0~0.0~316.2~473.7~60.1~0.0~15~0.0~0.0~0.0~0.0~0~0.0~0.0~0.0~0.0~0~0.0~0.0~0.0~270.0~474.0~316.0*
%ADD110D110*%
%ADD111O,0.031620X0.084770*%
%ADD112O,0.084770X0.031620*%
%LNpcb1-1*%
%LPD*%
G54D25*
X5220Y2843D03*
Y2676D03*
G54D30*
X5200Y3021D03*
Y2958D03*
X4710Y1681D03*
Y1618D03*
X5620Y3451D03*
Y3388D03*
G54D31*
X4931Y3410D03*
X4868D03*
X4933Y3120D03*
X4870D03*
X5171Y3200D03*
X5108D03*
X5598Y3010D03*
X5661D03*
X5888Y3150D03*
X5951D03*
X4021Y3850D03*
X3958D03*
G54D38*
X6480Y1557D03*
Y1622D03*
X5770Y3122D03*
Y3057D03*
X4650Y1532D03*
Y1467D03*
X4970Y2957D03*
Y3022D03*
X4890Y1662D03*
Y1597D03*
X4240Y4662D03*
Y4597D03*
X2610Y3077D03*
Y3142D03*
X6480Y1862D03*
Y1797D03*
X4820Y1662D03*
Y1597D03*
X4470Y4730D03*
Y4665D03*
X4770Y3067D03*
Y3132D03*
X6480Y1742D03*
Y1677D03*
X4470Y4602D03*
Y4537D03*
G54D39*
X4737Y3520D03*
X4802D03*
X2517Y3330D03*
X2582D03*
X4777Y1390D03*
X4842D03*
X4870Y3520D03*
X4934D03*
X4352Y4500D03*
X4287D03*
X2447Y3070D03*
X2512D03*
X5697Y3460D03*
X5762D03*
X5882D03*
X5817D03*
X4707Y3220D03*
X4772D03*
X5112Y2950D03*
X5047D03*
X3817Y3850D03*
X3882D03*
X2377Y3330D03*
X2442D03*
G54D44*
X4010Y3750D03*
G54D45*
X3849Y3750D03*
G54D46*
X1390Y2630D03*
Y2730D03*
G54D47*
X1390Y2830D03*
G54D48*
X6810Y2380D03*
G54D49*
X6810Y2480D03*
Y2580D03*
X6710Y2380D03*
Y2480D03*
Y2580D03*
G54D50*
X2409Y4555D03*
Y1484D03*
X5480Y4555D03*
Y1484D03*
G54D51*
X6630Y3080D03*
Y4245D03*
X1350Y4490D03*
G54D52*
X6630Y3330D03*
Y4495D03*
X1350Y4240D03*
G54D53*
X1721Y3969D03*
X1931D03*
G54D54*
X1721Y3870D03*
X1931D03*
G54D55*
X6332Y4882D03*
G54D56*
X6147Y4429D03*
Y4153D03*
Y4882D03*
G54D57*
X6278Y1778D03*
X6378Y1628D03*
X6278Y1678D03*
X6378Y1728D03*
Y1828D03*
X6278Y1878D03*
X6378Y1528D03*
X6278Y1578D03*
G54D58*
X6630Y1930D03*
X6635Y1480D03*
X6785Y1200D03*
Y4822D03*
X1195Y1200D03*
Y4822D03*
G54D59*
X1300Y3264D03*
Y3855D03*
G54D60*
X4560Y2785D03*
Y3000D03*
G54D61*
X4560Y3214D03*
G54D92*
X6110Y2570D03*
X6029D03*
X5589Y2930D03*
X5670D03*
X5889Y3060D03*
X5970D03*
G54D93*
X6147Y4740D03*
X6332D03*
G54D96*
X4550Y2337D03*
Y2540D03*
G54D100*
X5803Y3260D03*
X5716Y3360D03*
Y3260D03*
X5803Y3360D03*
G54D103*
X4721Y1461D03*
Y1487D03*
Y1512D03*
X4888Y1487D03*
Y1512D03*
Y1538D03*
X4721D03*
X4888Y1461D03*
G54D104*
X4619Y4740D03*
Y4540D03*
G54D105*
X5011Y4640D03*
G54D106*
X2380Y3490D03*
X2580D03*
G54D107*
X2480Y3881D03*
G54D108*
X2445Y3150D03*
X2520D03*
X2482Y3228D03*
G54D109*
X4310Y4667D03*
Y4592D03*
X4389Y4630D03*
G54D110*
X4891Y3257D03*
X5000Y3220D03*
Y3294D03*
X4891D03*
Y3220D03*
G54D111*
X5865Y2916D03*
X5739D03*
X5960Y2583D03*
X5771Y2916D03*
X5802D03*
X5834D03*
X5897D03*
X5928D03*
X5960D03*
X5928Y2583D03*
X5897D03*
X5865D03*
X5834D03*
X5802D03*
X5771D03*
X5739D03*
G54D112*
X6016Y2639D03*
X5683Y2860D03*
X6016D03*
Y2828D03*
Y2797D03*
Y2765D03*
Y2734D03*
Y2702D03*
Y2671D03*
X5683Y2639D03*
Y2671D03*
Y2702D03*
Y2734D03*
Y2765D03*
Y2797D03*
Y2828D03*
M02*