%FSLAX23Y23*%
%MOIN*%
%SFA1B1*%

%IPPOS*%
%ADD13C,0.007870*%
%LNpcb1-1*%
%LPD*%
G36*
X4018Y3757D02*
X4019Y3757D01*
X4020Y3757*
X4020Y3756*
X4021Y3756*
X4021Y3756*
X4021Y3756*
X4021Y3756*
X4021Y3756*
X4021Y3756*
X4021Y3756*
X4022*
X4022Y3755*
X4023Y3755*
X4023Y3754*
X4024Y3754*
X4024Y3754*
X4024Y3753*
X4024Y3753*
X4024Y3753*
X4024Y3753*
Y3753*
X4024Y3753*
X4025Y3752*
X4025Y3752*
X4025Y3751*
X4025Y3750*
X4025Y3749*
X4025Y3749*
X4025Y3748*
Y3748*
X4025Y3748*
Y3747*
Y3747*
Y3747*
Y3747*
Y3731*
X4022*
Y3733*
X4022Y3733*
X4021Y3732*
X4021Y3732*
X4021Y3732*
X4020Y3731*
X4020Y3731*
X4019Y3731*
X4019Y3731*
X4018Y3731*
X4018Y3731*
X4018Y3731*
X4017Y3731*
X4017*
X4017Y3730*
X4017*
X4016Y3731*
X4015Y3731*
X4014Y3731*
X4014Y3731*
X4013Y3731*
X4013Y3731*
X4013Y3732*
X4013Y3732*
X4013Y3732*
X4013Y3732*
X4013*
X4012Y3732*
X4011Y3733*
X4011Y3733*
X4011Y3734*
X4010Y3734*
X4010Y3735*
X4010Y3735*
X4010Y3735*
X4010Y3735*
X4010Y3735*
Y3735*
X4009Y3736*
X4009Y3737*
X4009Y3738*
X4009Y3738*
X4009Y3739*
Y3739*
X4009Y3739*
X4009Y3740*
Y3740*
Y3740*
Y3740*
Y3740*
X4009Y3741*
X4009Y3741*
X4009Y3742*
X4009Y3743*
X4009Y3743*
X4010Y3744*
X4010Y3744*
X4010Y3745*
X4010Y3745*
X4010Y3746*
X4010Y3746*
X4011Y3746*
X4011Y3746*
X4011Y3747*
X4011Y3747*
X4011Y3747*
X4011Y3747*
X4012Y3748*
X4012Y3748*
X4013Y3748*
X4013Y3749*
X4014Y3749*
X4014Y3749*
X4015Y3749*
X4015Y3749*
X4016Y3749*
X4016Y3749*
X4016Y3749*
X4017*
X4017Y3749*
X4017*
X4017Y3749*
X4018Y3749*
X4018Y3749*
X4019Y3749*
X4020Y3749*
X4020Y3748*
X4021Y3748*
X4021Y3748*
X4021Y3748*
X4021Y3748*
X4022Y3747*
X4022Y3747*
X4022Y3747*
X4022Y3747*
X4022Y3747*
Y3748*
Y3748*
Y3748*
X4022Y3749*
Y3749*
X4022Y3750*
Y3750*
X4022Y3750*
X4022Y3750*
Y3751*
X4022Y3751*
X4022Y3751*
Y3751*
X4022Y3752*
X4021Y3752*
X4021Y3752*
X4021Y3753*
X4021Y3753*
X4020Y3753*
X4020Y3753*
X4020Y3753*
X4020Y3754*
X4019Y3754*
X4019Y3754*
X4018Y3754*
X4018Y3754*
X4017Y3754*
X4017*
X4016Y3754*
X4015Y3754*
X4015Y3754*
X4014Y3754*
X4014Y3754*
X4014Y3754*
X4014Y3753*
X4014Y3753*
X4013Y3753*
X4013Y3753*
X4013Y3752*
X4013Y3752*
X4013Y3752*
X4013Y3752*
X4013Y3751*
Y3751*
X4009Y3751*
Y3751*
X4010Y3752*
X4010Y3752*
X4010Y3753*
X4010Y3753*
X4010Y3754*
X4010Y3754*
X4010Y3754*
X4011Y3755*
X4011Y3755*
X4011Y3755*
X4011Y3755*
X4011Y3755*
X4011Y3755*
X4011Y3755*
X4011Y3755*
X4012Y3756*
X4012Y3756*
X4013Y3756*
X4014Y3757*
X4015Y3757*
X4015Y3757*
X4016Y3757*
X4016Y3757*
X4016*
X4016Y3757*
X4017*
X4018Y3757*
G37*
G36*
X4075Y3750D02*
X4076Y3750D01*
X4076Y3750*
X4077Y3749*
X4077Y3749*
X4077Y3749*
X4077*
X4077Y3747*
X4076Y3747*
X4076Y3747*
X4076*
X4076Y3747*
X4075*
X4075Y3747*
X4074Y3747*
X4074Y3747*
X4074Y3747*
X4074Y3747*
X4074*
X4074Y3746*
X4074Y3746*
X4074Y3746*
X4074Y3746*
X4073Y3746*
X4073Y3745*
X4073Y3745*
Y3745*
X4073Y3745*
Y3744*
Y3744*
Y3744*
Y3733*
X4077*
Y3731*
X4073*
Y3724*
X4070Y3726*
Y3731*
X4068*
Y3733*
X4070*
Y3744*
Y3744*
X4070Y3745*
Y3745*
X4070Y3746*
X4070Y3746*
X4070Y3746*
X4070Y3747*
X4070Y3747*
X4071Y3747*
X4071Y3748*
X4071Y3748*
Y3748*
X4071Y3748*
X4071Y3748*
X4071Y3749*
X4071Y3749*
X4072Y3749*
X4072Y3749*
X4072Y3749*
X4072Y3749*
X4072Y3749*
X4073Y3749*
X4073Y3750*
X4074Y3750*
X4074Y3750*
X4074Y3750*
X4075*
X4075Y3750*
G37*
G36*
X3933Y3746D02*
X3930D01*
Y3749*
X3933*
Y3746*
G37*
G36*
X3973Y3750D02*
X3973Y3750D01*
X3974Y3750*
X3975Y3749*
X3975Y3749*
X3976Y3749*
X3976Y3749*
X3976Y3749*
X3977Y3749*
X3977Y3749*
X3977Y3748*
X3977Y3748*
X3977Y3748*
X3977Y3748*
X3977*
X3978Y3748*
X3979Y3747*
X3979Y3746*
X3980Y3745*
X3980Y3745*
X3980Y3745*
X3980Y3744*
X3980Y3744*
X3980Y3744*
X3980Y3744*
Y3744*
X3977Y3743*
X3977Y3744*
X3976Y3745*
X3976Y3745*
X3976Y3746*
X3975Y3746*
X3975Y3746*
X3975Y3746*
X3975Y3746*
X3975Y3747*
X3974Y3747*
X3974Y3747*
X3973Y3747*
X3973Y3747*
X3972Y3747*
X3972*
X3972Y3747*
X3971Y3747*
X3971Y3747*
X3970Y3747*
X3969Y3746*
X3969Y3746*
X3968Y3746*
X3968Y3746*
X3968Y3746*
X3968Y3746*
X3968Y3746*
X3968Y3745*
X3968Y3745*
X3967Y3744*
X3967Y3743*
X3967Y3743*
X3967Y3742*
X3967Y3742*
X3967Y3741*
X3967Y3741*
X3967Y3741*
Y3741*
Y3741*
X3980*
X3980Y3741*
Y3740*
Y3740*
Y3740*
X3980Y3739*
X3980Y3739*
X3980Y3738*
X3980Y3737*
X3980Y3736*
X3980Y3736*
X3979Y3735*
X3979Y3735*
X3979Y3734*
X3979Y3734*
X3979Y3734*
X3978Y3733*
X3978Y3733*
X3978Y3733*
X3978Y3733*
X3978Y3733*
X3978Y3733*
X3977Y3732*
X3977Y3732*
X3976Y3732*
X3976Y3731*
X3975Y3731*
X3975Y3731*
X3974Y3731*
X3974Y3731*
X3973Y3731*
X3973Y3731*
X3973Y3731*
X3972Y3730*
X3972*
X3971Y3731*
X3971Y3731*
X3970Y3731*
X3969Y3731*
X3969Y3731*
X3968Y3731*
X3968Y3732*
X3967Y3732*
X3967Y3732*
X3967Y3732*
X3966Y3732*
X3966Y3733*
X3966Y3733*
X3966Y3733*
X3966Y3733*
X3966Y3733*
X3965Y3734*
X3965Y3734*
X3965Y3735*
X3964Y3735*
X3964Y3736*
X3964Y3737*
X3964Y3737*
X3964Y3738*
X3964Y3738*
X3963Y3739*
X3963Y3739*
X3963Y3740*
Y3740*
X3963Y3740*
Y3740*
Y3740*
X3963Y3741*
X3963Y3742*
X3964Y3743*
X3964Y3743*
X3964Y3744*
X3964Y3745*
X3964Y3745*
X3965Y3746*
X3965Y3746*
X3965Y3746*
X3965Y3747*
X3965Y3747*
X3965Y3747*
X3966Y3747*
X3966Y3747*
X3966Y3747*
X3966Y3748*
X3967Y3748*
X3967Y3748*
X3968Y3749*
X3968Y3749*
X3969Y3749*
X3969Y3749*
X3970Y3750*
X3970Y3750*
X3971Y3750*
X3971Y3750*
X3971Y3750*
X3972*
X3972Y3750*
X3972*
X3973Y3750*
G37*
G36*
X4045Y3738D02*
Y3737D01*
X4045Y3737*
X4045Y3736*
X4045Y3736*
X4045Y3735*
X4045Y3735*
X4045Y3735*
Y3735*
X4045Y3735*
X4045Y3734*
X4044Y3734*
X4044Y3733*
X4044Y3733*
X4044Y3733*
X4044Y3733*
X4044Y3733*
X4044Y3732*
X4043Y3732*
X4043Y3732*
X4043Y3732*
X4042Y3731*
X4042Y3731*
X4042Y3731*
X4042Y3731*
X4041Y3731*
X4041Y3731*
X4040Y3731*
X4040Y3731*
X4039Y3731*
X4039Y3730*
X4039*
X4038Y3731*
X4037Y3731*
X4037Y3731*
X4036Y3731*
X4036Y3731*
X4035Y3731*
X4035Y3732*
X4034Y3732*
X4034Y3732*
X4034Y3733*
X4033Y3733*
X4033Y3733*
X4033Y3733*
X4033Y3733*
X4033Y3734*
X4033Y3734*
Y3731*
X4030*
Y3749*
X4033*
Y3739*
X4033Y3739*
X4033Y3738*
X4033Y3738*
X4033Y3737*
X4033Y3737*
X4034Y3736*
X4034Y3736*
X4034Y3736*
X4034Y3735*
X4034Y3735*
X4034Y3735*
X4034Y3735*
X4034Y3735*
X4034Y3735*
X4035Y3735*
X4035Y3734*
X4036Y3734*
X4036Y3734*
X4037Y3733*
X4037Y3733*
X4038Y3733*
X4038Y3733*
X4038*
X4038Y3733*
X4039Y3733*
X4039Y3733*
X4040Y3734*
X4040Y3734*
X4040Y3734*
X4040Y3734*
X4040Y3734*
X4041Y3734*
X4041Y3734*
X4041Y3735*
X4041Y3735*
X4041Y3735*
X4041Y3735*
X4041Y3735*
Y3735*
X4042Y3736*
X4042Y3736*
X4042Y3737*
X4042Y3737*
Y3738*
X4042Y3738*
Y3738*
Y3738*
Y3738*
Y3738*
Y3749*
X4045*
Y3738*
G37*
G36*
X4056Y3750D02*
X4056Y3750D01*
X4057Y3750*
X4058Y3750*
X4058Y3749*
X4058Y3749*
X4058Y3749*
X4058Y3749*
X4059Y3749*
X4059*
X4059Y3749*
X4060Y3749*
X4060Y3748*
X4061Y3748*
X4061Y3748*
X4062Y3747*
X4062Y3747*
X4062Y3747*
X4062Y3747*
X4062*
X4062Y3748*
X4062Y3748*
X4062Y3748*
X4062Y3749*
X4062Y3749*
X4062Y3749*
X4063Y3749*
X4063Y3749*
X4066*
X4066Y3749*
X4065Y3749*
X4065Y3748*
X4065Y3748*
X4065Y3748*
X4065Y3747*
X4065Y3747*
Y3747*
X4065Y3747*
X4065Y3747*
Y3746*
X4065Y3746*
X4065Y3745*
Y3744*
X4065Y3744*
Y3743*
Y3743*
Y3742*
Y3742*
Y3742*
Y3742*
Y3742*
Y3737*
Y3737*
X4065Y3736*
X4065Y3736*
Y3735*
X4065Y3735*
X4065Y3735*
X4065Y3735*
Y3735*
X4065Y3734*
X4064Y3734*
X4064Y3733*
X4064Y3733*
X4064Y3733*
X4064Y3733*
X4064Y3733*
X4064Y3732*
X4063Y3732*
X4063Y3732*
X4063Y3732*
X4062Y3731*
X4062Y3731*
X4062Y3731*
X4062Y3731*
X4062Y3731*
X4062*
X4061Y3731*
X4060Y3731*
X4060Y3731*
X4059Y3731*
X4059Y3731*
X4058Y3730*
X4058*
X4057Y3731*
X4056Y3731*
X4055Y3731*
X4055Y3731*
X4054Y3731*
X4054Y3731*
X4054Y3731*
X4054Y3731*
X4054Y3731*
X4053Y3731*
X4053*
X4053Y3731*
X4052Y3732*
X4052Y3732*
X4051Y3732*
X4051Y3733*
X4051Y3733*
X4051Y3733*
X4051Y3733*
X4050Y3733*
X4050Y3734*
X4050Y3735*
X4050Y3735*
X4049Y3735*
X4049Y3736*
X4049Y3736*
Y3736*
X4049Y3736*
Y3736*
X4052Y3737*
X4053Y3736*
X4053Y3735*
X4053Y3735*
X4053Y3735*
X4054Y3734*
X4054Y3734*
X4054Y3734*
X4054Y3734*
X4054Y3734*
X4055Y3733*
X4055Y3733*
X4056Y3733*
X4056Y3733*
X4057Y3733*
X4057*
X4058Y3733*
X4059Y3733*
X4059Y3733*
X4060Y3734*
X4060Y3734*
X4061Y3734*
X4061Y3734*
X4061Y3734*
X4061Y3734*
X4061Y3735*
X4061Y3735*
X4062Y3736*
X4062Y3736*
X4062Y3737*
Y3737*
Y3737*
Y3737*
Y3737*
Y3737*
Y3737*
Y3737*
X4062Y3737*
Y3738*
Y3738*
Y3738*
X4061Y3738*
X4061Y3738*
X4060Y3738*
X4059Y3738*
X4058Y3738*
X4058Y3739*
X4057Y3739*
X4057Y3739*
X4057Y3739*
X4056Y3739*
X4056*
X4056Y3739*
X4056*
X4055Y3739*
X4055Y3739*
X4054Y3739*
X4054Y3739*
X4054Y3739*
X4053Y3739*
X4053Y3739*
X4053*
X4053Y3739*
X4052Y3740*
X4052Y3740*
X4052Y3740*
X4051Y3740*
X4051Y3740*
X4051Y3740*
X4051Y3740*
X4051Y3741*
X4050Y3741*
X4050Y3741*
X4050Y3741*
X4050Y3742*
X4049Y3742*
X4049Y3742*
X4049Y3742*
X4049Y3742*
X4049Y3743*
X4049Y3743*
X4049Y3744*
X4049Y3744*
X4049Y3744*
Y3744*
Y3745*
X4049Y3745*
X4049Y3745*
X4049Y3746*
X4049Y3747*
X4050Y3747*
X4050Y3748*
X4050Y3748*
X4050Y3748*
X4050Y3748*
X4050Y3748*
X4051Y3749*
X4051Y3749*
X4052Y3749*
X4053Y3749*
X4053Y3750*
X4054Y3750*
X4054Y3750*
X4055*
X4055Y3750*
X4055*
X4056Y3750*
G37*
G36*
X4005Y3731D02*
X4002D01*
Y3749*
X4005*
Y3731*
G37*
G36*
X4103Y3740D02*
X4103Y3739D01*
X4103Y3738*
X4103Y3738*
X4103Y3737*
X4103Y3737*
X4103Y3736*
X4103Y3736*
Y3736*
X4103Y3736*
Y3736*
X4103Y3736*
X4103Y3735*
X4104Y3735*
X4104Y3735*
X4104Y3735*
X4104Y3734*
X4104Y3734*
X4104Y3734*
X4105Y3734*
X4105Y3734*
X4105Y3734*
X4106Y3734*
X4106Y3734*
X4106Y3734*
X4106*
X4107Y3734*
X4107Y3734*
X4107Y3734*
X4108Y3734*
X4108Y3734*
X4108Y3734*
X4108Y3734*
X4108Y3734*
X4110Y3732*
X4109Y3731*
X4108Y3731*
X4108Y3731*
X4107Y3731*
X4107Y3731*
X4107Y3730*
X4106*
X4106Y3731*
X4106Y3731*
X4105Y3731*
X4105Y3731*
X4105Y3731*
X4104Y3731*
X4104Y3731*
X4104Y3731*
X4104Y3731*
X4104Y3732*
X4103Y3732*
X4103Y3733*
X4103Y3733*
X4102Y3733*
X4102Y3734*
X4102Y3734*
X4102Y3734*
Y3731*
X4100*
Y3749*
X4103*
Y3740*
G37*
G36*
X4088Y3750D02*
X4089Y3750D01*
X4090Y3749*
X4090Y3749*
X4091Y3749*
X4091Y3749*
X4091Y3749*
X4091Y3749*
X4092Y3749*
X4092Y3749*
X4092*
X4092Y3748*
X4093Y3748*
X4094Y3747*
X4094Y3747*
X4094Y3746*
X4095Y3746*
X4095Y3746*
X4095Y3746*
X4095Y3746*
Y3746*
X4095Y3745*
X4095Y3745*
X4095Y3744*
X4096Y3743*
X4096Y3742*
X4096Y3742*
X4096Y3741*
X4096Y3741*
X4096Y3740*
Y3740*
Y3740*
Y3740*
Y3740*
X4096Y3739*
X4096Y3738*
X4096Y3738*
X4095Y3737*
X4095Y3736*
X4095Y3736*
X4095Y3735*
X4095Y3735*
X4094Y3734*
X4094Y3734*
X4094Y3734*
X4094Y3733*
X4094Y3733*
X4094Y3733*
X4093Y3733*
X4093Y3733*
X4093Y3733*
X4092Y3732*
X4092Y3732*
X4091Y3732*
X4091Y3731*
X4090Y3731*
X4090Y3731*
X4089Y3731*
X4089Y3731*
X4088Y3731*
X4088Y3731*
X4088Y3731*
X4088Y3730*
X4087*
X4087Y3731*
X4086Y3731*
X4085Y3731*
X4085Y3731*
X4084Y3731*
X4084Y3731*
X4083Y3731*
X4083Y3732*
X4083Y3732*
X4082Y3732*
X4082Y3732*
X4082Y3732*
X4082Y3732*
X4081Y3732*
X4081Y3733*
X4081Y3733*
X4081Y3733*
X4080Y3734*
X4080Y3734*
X4080Y3735*
X4079Y3735*
X4079Y3736*
X4079Y3737*
X4079Y3737*
X4079Y3738*
X4079Y3738*
X4079Y3739*
X4079Y3739*
Y3740*
X4078Y3740*
Y3740*
Y3740*
X4079Y3741*
X4079Y3742*
X4079Y3743*
X4079Y3743*
X4079Y3744*
X4079Y3744*
X4079Y3745*
X4080Y3746*
X4080Y3746*
X4080Y3746*
X4080Y3747*
X4081Y3747*
X4081Y3747*
X4081Y3747*
X4081Y3747*
X4081Y3747*
X4081Y3748*
X4082Y3748*
X4082Y3748*
X4083Y3749*
X4083Y3749*
X4084Y3749*
X4084Y3749*
X4085Y3750*
X4085Y3750*
X4086Y3750*
X4086Y3750*
X4087Y3750*
X4087*
X4087Y3750*
X4087*
X4088Y3750*
G37*
G36*
X3992D02*
X3992Y3750D01*
X3993Y3750*
X3994Y3749*
X3994Y3749*
X3995Y3749*
X3995Y3749*
X3995Y3749*
X3995Y3749*
X3995*
X3995Y3749*
X3996Y3748*
X3996Y3748*
X3997Y3748*
X3997Y3747*
X3997Y3747*
X3997Y3747*
X3997Y3747*
X3998Y3746*
X3998Y3746*
X3998Y3745*
X3998Y3745*
X3998Y3745*
X3998Y3744*
Y3744*
Y3744*
Y3744*
X3998Y3743*
X3998Y3743*
X3998Y3742*
X3998Y3742*
X3998Y3742*
X3998Y3741*
X3998Y3741*
X3998Y3741*
X3997Y3741*
X3997Y3741*
X3997Y3740*
X3996Y3740*
X3996Y3740*
X3996Y3740*
X3996Y3740*
X3996Y3740*
X3995Y3740*
X3995Y3739*
X3994Y3739*
X3994Y3739*
X3993Y3739*
X3992Y3739*
X3992Y3738*
X3991Y3738*
X3991Y3738*
X3991Y3738*
X3991Y3738*
X3991*
X3991Y3738*
X3990Y3738*
X3990Y3738*
X3990Y3738*
X3989Y3738*
X3989Y3738*
X3989Y3738*
X3988Y3738*
X3988Y3737*
X3988Y3737*
X3988*
X3988Y3737*
X3988Y3737*
X3987Y3737*
X3987Y3737*
X3987Y3737*
X3987Y3737*
X3987Y3737*
X3987Y3737*
X3987Y3736*
X3987Y3736*
X3987Y3736*
Y3736*
X3987Y3736*
Y3736*
Y3735*
X3987Y3735*
X3987Y3735*
X3987Y3735*
X3987Y3734*
X3987Y3734*
X3987Y3734*
X3987Y3734*
X3987Y3734*
X3988Y3734*
X3988Y3733*
X3989Y3733*
X3989Y3733*
X3990Y3733*
X3990Y3733*
X3991*
X3991Y3733*
X3992Y3733*
X3992Y3733*
X3993Y3733*
X3993Y3734*
X3993Y3734*
X3993Y3734*
X3993Y3734*
X3994Y3734*
X3994Y3735*
X3994Y3735*
X3994Y3735*
X3995Y3736*
X3995Y3736*
X3995Y3736*
Y3736*
X3998Y3736*
X3998Y3735*
X3997Y3734*
X3997Y3734*
X3997Y3734*
X3997Y3733*
X3997Y3733*
X3997Y3733*
X3997Y3733*
X3996Y3732*
X3996Y3732*
X3995Y3732*
X3995Y3732*
X3995Y3731*
X3994Y3731*
X3994Y3731*
X3994Y3731*
X3994*
X3994Y3731*
X3993Y3731*
X3992Y3731*
X3992Y3731*
X3991Y3731*
X3991*
X3991Y3730*
X3990*
X3989Y3731*
X3989Y3731*
X3988Y3731*
X3988Y3731*
X3988Y3731*
X3988Y3731*
X3988Y3731*
X3987Y3731*
X3987Y3731*
X3986Y3731*
X3986Y3731*
X3986Y3732*
X3986Y3732*
X3986Y3732*
X3986Y3732*
X3985Y3732*
X3985Y3732*
X3985Y3733*
X3984Y3733*
X3984Y3733*
X3984Y3733*
X3984Y3734*
X3984Y3734*
X3984Y3734*
X3984Y3734*
X3984Y3735*
X3984Y3735*
X3984Y3735*
X3984Y3736*
Y3736*
Y3736*
X3984Y3736*
X3984Y3737*
X3984Y3737*
X3984Y3738*
X3984Y3738*
X3984Y3738*
X3984Y3738*
X3984Y3738*
X3984Y3739*
X3985Y3739*
X3985Y3739*
X3985Y3740*
X3986Y3740*
X3986Y3740*
X3986Y3740*
X3986Y3740*
X3986Y3740*
X3987Y3740*
X3987Y3740*
X3988Y3741*
X3988Y3741*
X3989Y3741*
X3990Y3741*
X3990Y3741*
X3990Y3741*
X3991Y3741*
X3991Y3742*
X3991Y3742*
X3991*
X3991Y3742*
X3992Y3742*
X3992Y3742*
X3993Y3742*
X3993Y3742*
X3993Y3742*
X3993Y3742*
X3994Y3742*
X3994Y3742*
X3994Y3743*
X3994Y3743*
X3994Y3743*
X3995Y3743*
X3995Y3743*
X3995Y3743*
X3995Y3744*
X3995Y3744*
X3995Y3744*
Y3744*
Y3744*
X3995Y3745*
X3995Y3745*
X3995Y3745*
X3995Y3746*
X3994Y3746*
X3994Y3746*
X3994Y3746*
X3994Y3746*
X3994Y3747*
X3993Y3747*
X3993Y3747*
X3992Y3747*
X3992Y3747*
X3991Y3747*
X3991*
X3990Y3747*
X3989Y3747*
X3989Y3747*
X3988Y3747*
X3988Y3747*
X3988Y3746*
X3988Y3746*
X3988Y3746*
X3987Y3746*
X3987Y3745*
X3987Y3745*
X3986Y3744*
X3986Y3744*
X3986Y3744*
X3986Y3744*
X3986Y3743*
Y3743*
Y3743*
X3983Y3744*
X3983Y3744*
X3983Y3745*
X3983Y3745*
X3984Y3746*
X3984Y3746*
X3984Y3747*
X3984Y3747*
X3984Y3747*
X3985Y3747*
X3985Y3748*
X3985Y3748*
X3985Y3748*
X3985Y3748*
X3985Y3748*
X3985Y3748*
X3985Y3748*
X3986Y3749*
X3986Y3749*
X3987Y3749*
X3988Y3749*
X3989Y3750*
X3989Y3750*
X3990Y3750*
X3990Y3750*
X3990*
X3991Y3750*
X3991*
X3992Y3750*
G37*
G36*
X4005Y3724D02*
X4002D01*
Y3727*
X4005*
Y3724*
G37*
G36*
X3949Y3749D02*
X3950Y3749D01*
X3950Y3749*
X3951Y3749*
X3952Y3749*
X3952Y3749*
X3952Y3749*
X3952Y3749*
X3952*
X3952Y3749*
X3952*
X3953Y3749*
X3953Y3749*
X3954Y3748*
X3954Y3748*
X3955Y3748*
X3955Y3748*
X3955Y3748*
X3955Y3748*
X3956Y3747*
X3956Y3747*
X3957Y3747*
X3957Y3746*
X3957Y3746*
X3957Y3746*
X3958Y3745*
X3958Y3745*
X3958Y3745*
X3958Y3744*
X3959Y3744*
X3959Y3743*
X3959Y3742*
X3959Y3742*
X3959Y3742*
X3959Y3742*
X3959Y3742*
X3959Y3742*
Y3742*
X3960Y3741*
X3960Y3740*
X3960Y3739*
X3960Y3738*
X3960Y3738*
X3960Y3738*
Y3737*
X3960Y3737*
Y3737*
Y3737*
Y3737*
Y3737*
X3960Y3735*
X3960Y3734*
X3960Y3734*
X3960Y3733*
X3960Y3733*
X3960Y3732*
X3960Y3732*
X3959Y3731*
X3959Y3731*
X3959Y3731*
X3959Y3731*
X3959Y3731*
X3959Y3730*
Y3730*
X3959Y3729*
X3958Y3729*
X3958Y3728*
X3957Y3727*
X3957Y3727*
X3957Y3727*
X3957Y3727*
X3956Y3726*
X3956Y3726*
X3956Y3726*
X3956Y3726*
X3956Y3726*
X3955Y3726*
X3955Y3725*
X3954Y3725*
X3954Y3725*
X3953Y3724*
X3953Y3724*
X3953Y3724*
X3953Y3724*
X3952Y3724*
X3952Y3724*
X3952*
X3952Y3724*
X3951Y3724*
X3950Y3724*
X3949Y3724*
X3949*
X3948Y3724*
X3939*
Y3749*
X3948*
X3949Y3749*
G37*
G36*
X5209Y3052D02*
X5210Y3052D01*
X5210Y3052*
X5211Y3052*
X5212Y3051*
X5212Y3051*
X5213Y3051*
X5213Y3051*
X5213Y3051*
X5214Y3050*
X5214Y3050*
X5214Y3050*
X5214Y3050*
X5214Y3050*
X5215Y3050*
X5215Y3050*
X5215Y3049*
X5215Y3049*
X5216Y3048*
X5216Y3048*
X5216Y3047*
X5216Y3047*
X5217Y3046*
X5217Y3046*
X5217Y3045*
X5217Y3045*
X5217Y3045*
X5217Y3045*
X5217Y3044*
Y3044*
X5217Y3043*
X5217Y3043*
X5217Y3042*
X5216Y3041*
X5216Y3041*
X5216Y3040*
X5216Y3040*
X5216Y3040*
X5216Y3040*
X5215Y3039*
X5215Y3039*
X5215Y3039*
X5215Y3039*
X5222Y3040*
Y3051*
X5225*
Y3038*
X5212Y3036*
X5212Y3038*
X5212Y3039*
X5212Y3039*
X5213Y3039*
X5213Y3040*
X5213Y3040*
X5213Y3040*
X5213Y3040*
X5213Y3040*
X5214Y3041*
X5214Y3041*
X5214Y3042*
X5214Y3042*
X5214Y3043*
X5214Y3043*
Y3044*
X5214Y3044*
X5214Y3045*
X5214Y3045*
X5213Y3046*
X5213Y3046*
X5213Y3047*
X5213Y3047*
X5213Y3047*
X5213Y3047*
X5213*
X5212Y3047*
X5212Y3048*
X5211Y3048*
X5211Y3048*
X5210Y3048*
X5209Y3049*
X5209Y3049*
X5209*
X5209Y3049*
X5208*
X5208*
X5208*
X5208*
X5207Y3049*
X5206Y3048*
X5206Y3048*
X5205Y3048*
X5205Y3048*
X5204Y3048*
X5204Y3047*
X5204Y3047*
X5204Y3047*
X5204Y3047*
X5204Y3047*
X5204Y3047*
X5204Y3047*
X5203Y3046*
X5203Y3046*
X5203Y3046*
X5203Y3045*
X5202Y3044*
X5202Y3044*
X5202Y3044*
X5202Y3044*
X5202Y3043*
Y3043*
X5202Y3042*
X5202Y3042*
X5202Y3041*
X5203Y3041*
X5203Y3040*
X5203Y3040*
X5203Y3040*
X5203Y3040*
X5204Y3039*
X5204Y3039*
X5205Y3039*
X5206Y3039*
X5206Y3038*
X5206Y3038*
X5206Y3038*
X5207Y3038*
X5207*
X5207Y3038*
X5207*
X5207Y3035*
X5206Y3035*
X5205Y3035*
X5205Y3035*
X5204Y3035*
X5204Y3036*
X5204Y3036*
X5203Y3036*
X5203Y3036*
X5203Y3037*
X5202Y3037*
X5202Y3037*
X5202Y3037*
X5202Y3037*
X5202Y3037*
X5201Y3037*
X5201Y3037*
X5201Y3038*
X5201Y3038*
X5201Y3039*
X5200Y3039*
X5200Y3040*
X5200Y3040*
X5200Y3041*
X5200Y3042*
X5200Y3042*
X5200Y3042*
X5200Y3043*
X5200Y3043*
Y3043*
X5200Y3044*
X5200Y3045*
X5200Y3045*
X5200Y3046*
X5200Y3047*
X5200Y3047*
X5201Y3048*
X5201Y3048*
X5201Y3049*
X5202Y3049*
X5202Y3049*
X5202Y3049*
X5202Y3050*
X5202Y3050*
X5203Y3050*
X5203Y3050*
X5203Y3050*
X5204Y3051*
X5204Y3051*
X5205Y3051*
X5205Y3051*
X5206Y3051*
X5207Y3052*
X5207Y3052*
X5207Y3052*
X5208Y3052*
X5208Y3052*
X5208Y3052*
X5208*
X5209*
X5209*
X5209Y3052*
G37*
G36*
X5203Y3019D02*
X5204Y3019D01*
X5204Y3020*
X5204Y3020*
X5204Y3020*
X5204Y3020*
X5205Y3020*
X5205Y3020*
X5205Y3020*
X5205Y3021*
X5205Y3021*
X5205Y3021*
X5206Y3022*
X5207Y3022*
X5207Y3023*
X5207Y3023*
X5207Y3023*
X5208Y3024*
X5208Y3024*
X5208Y3024*
X5208Y3024*
X5208Y3025*
X5209Y3025*
X5209Y3026*
X5210Y3026*
X5210Y3027*
X5211Y3027*
X5211Y3027*
X5211Y3028*
X5211Y3028*
X5212Y3028*
X5212Y3028*
X5212Y3029*
X5212Y3029*
X5212Y3029*
X5212Y3029*
X5212*
X5213Y3029*
X5214Y3030*
X5214Y3030*
X5215Y3030*
X5215Y3031*
X5215Y3031*
X5215Y3031*
X5215Y3031*
X5216Y3031*
X5217Y3031*
X5217Y3031*
X5218Y3031*
X5218Y3031*
X5218Y3032*
X5218*
X5219*
X5219Y3031*
X5220Y3031*
X5220Y3031*
X5221Y3031*
X5221Y3031*
X5222Y3031*
X5222Y3030*
X5223Y3030*
X5223Y3030*
X5223Y3030*
X5223Y3030*
X5223Y3030*
X5223Y3029*
X5224Y3029*
X5224Y3029*
X5224Y3029*
X5224Y3028*
X5225Y3028*
X5225Y3028*
X5225Y3027*
X5225Y3027*
X5225Y3026*
X5225Y3025*
X5226Y3025*
X5226Y3024*
X5226Y3024*
X5226Y3024*
Y3024*
X5226Y3023*
X5226Y3022*
X5225Y3022*
X5225Y3021*
X5225Y3021*
X5225Y3020*
X5225Y3020*
X5225Y3019*
X5225Y3019*
X5224Y3019*
X5224Y3018*
X5224Y3018*
X5224Y3018*
X5224Y3018*
X5224Y3018*
X5224Y3018*
X5223Y3017*
X5223Y3017*
X5223Y3017*
X5222Y3016*
X5222Y3016*
X5221Y3016*
X5220Y3016*
X5220Y3016*
X5219Y3015*
X5219Y3015*
X5219Y3015*
X5219Y3015*
X5218*
X5218Y3015*
X5218*
X5218Y3018*
X5219Y3019*
X5220Y3019*
X5220Y3019*
X5221Y3019*
X5221Y3019*
X5221Y3020*
X5222Y3020*
X5222Y3020*
X5222Y3020*
X5222Y3021*
X5223Y3022*
X5223Y3022*
X5223Y3023*
X5223Y3023*
Y3023*
X5223Y3023*
Y3023*
X5223Y3024*
X5223Y3025*
X5223Y3026*
X5222Y3026*
X5222Y3026*
X5222Y3027*
X5222Y3027*
X5222Y3027*
X5221Y3027*
X5221Y3028*
X5220Y3028*
X5220Y3028*
X5219Y3028*
X5219Y3028*
X5219Y3028*
X5219*
X5219*
X5219*
X5218*
X5218Y3028*
X5217Y3028*
X5217Y3028*
X5216Y3028*
X5216Y3027*
X5215Y3027*
X5215Y3027*
X5215Y3027*
X5215Y3027*
X5215Y3027*
X5215Y3027*
X5214Y3027*
X5214Y3026*
X5214Y3026*
X5213Y3025*
X5212Y3024*
X5211Y3023*
X5211Y3023*
X5211Y3023*
X5210Y3022*
X5210Y3022*
X5210Y3022*
X5210Y3021*
X5209Y3021*
X5209Y3021*
X5209Y3020*
X5208Y3019*
X5207Y3019*
X5207Y3018*
X5206Y3018*
X5206Y3017*
X5206Y3017*
X5206Y3017*
X5206Y3017*
X5205Y3017*
X5205Y3017*
X5204Y3016*
X5204Y3016*
X5203Y3015*
X5203Y3015*
X5202Y3015*
X5202Y3015*
X5202Y3015*
X5202Y3015*
X5202*
X5202Y3015*
X5201Y3015*
X5201Y3015*
X5201Y3015*
X5200Y3015*
X5200*
X5200*
X5200*
Y3032*
X5203*
Y3019*
G37*
G36*
X5209Y3009D02*
X5208Y3009D01*
X5208Y3008*
X5207Y3008*
X5207Y3008*
X5206Y3008*
X5206Y3008*
X5206Y3007*
X5205Y3007*
X5205Y3007*
X5205Y3007*
X5204Y3007*
X5204Y3006*
X5204Y3006*
X5204Y3006*
X5204Y3006*
X5204Y3006*
X5204Y3006*
X5204Y3005*
X5203Y3005*
X5203Y3004*
X5203Y3004*
X5203Y3003*
X5203Y3003*
X5203Y3002*
X5202Y3002*
X5202Y3002*
X5202Y3002*
Y3001*
X5202Y3000*
X5203Y3000*
X5203Y2999*
X5203Y2998*
X5203Y2998*
X5203Y2997*
X5203Y2997*
X5204Y2997*
X5204Y2997*
X5204Y2997*
Y2997*
X5204Y2996*
X5205Y2996*
X5205Y2995*
X5206Y2995*
X5206Y2994*
X5207Y2994*
X5207Y2994*
X5207Y2994*
X5207Y2994*
X5207Y2994*
X5207*
X5208Y2994*
X5209Y2993*
X5210Y2993*
X5211Y2993*
X5211Y2993*
X5212*
X5212Y2993*
X5212Y2993*
X5213*
X5213*
X5213*
X5213*
X5214Y2993*
X5215Y2993*
X5216Y2993*
X5216Y2993*
X5217Y2993*
X5217Y2994*
X5217Y2994*
X5217Y2994*
X5218Y2994*
X5218Y2994*
X5218Y2994*
X5218*
X5219Y2994*
X5219Y2995*
X5220Y2995*
X5221Y2995*
X5221Y2996*
X5221Y2996*
X5222Y2996*
X5222Y2996*
X5222Y2997*
Y2997*
X5222Y2997*
X5222Y2997*
X5222Y2998*
X5223Y2999*
X5223Y3000*
X5223Y3000*
X5223Y3000*
X5223Y3001*
Y3001*
X5223Y3001*
Y3002*
X5223Y3002*
X5223Y3003*
X5223Y3004*
X5222Y3005*
X5222Y3005*
X5222Y3005*
X5222Y3006*
X5222Y3006*
X5222Y3006*
X5222Y3006*
Y3006*
X5222Y3006*
X5221Y3006*
X5221Y3007*
X5220Y3007*
X5219Y3008*
X5219Y3008*
X5218Y3008*
X5218Y3008*
X5218Y3008*
X5218Y3008*
X5218Y3008*
X5218*
X5219Y3012*
X5219Y3012*
X5220Y3011*
X5220Y3011*
X5221Y3011*
X5221Y3010*
X5222Y3010*
X5222Y3010*
X5223Y3010*
X5223Y3009*
X5223Y3009*
X5223Y3009*
X5224Y3008*
X5224Y3008*
X5224Y3008*
X5224Y3008*
X5224Y3008*
X5224Y3008*
X5225Y3007*
X5225Y3006*
X5225Y3006*
X5225Y3005*
X5226Y3005*
X5226Y3004*
X5226Y3003*
X5226Y3003*
X5226Y3003*
X5226Y3002*
X5226Y3002*
Y3001*
X5226Y3000*
X5226Y2999*
X5225Y2998*
X5225Y2998*
X5225Y2997*
X5225Y2997*
X5225Y2996*
X5225Y2996*
X5225Y2996*
X5225Y2996*
X5224Y2995*
X5224Y2995*
X5224Y2995*
X5224Y2995*
X5224Y2994*
X5223Y2993*
X5222Y2993*
X5222Y2992*
X5221Y2992*
X5221Y2992*
X5221Y2991*
X5220Y2991*
X5220Y2991*
X5220Y2991*
X5220Y2991*
X5220Y2991*
X5219Y2991*
X5219Y2991*
X5218Y2990*
X5216Y2990*
X5216Y2990*
X5215Y2990*
X5215Y2990*
X5214Y2990*
X5214Y2990*
X5214*
X5213Y2990*
X5213*
X5213*
X5213*
X5212Y2990*
X5210Y2990*
X5210Y2990*
X5209Y2990*
X5209Y2990*
X5208Y2990*
X5208Y2990*
X5207Y2990*
X5207Y2991*
X5207Y2991*
X5206Y2991*
X5206Y2991*
X5206Y2991*
X5206*
X5205Y2991*
X5205Y2991*
X5204Y2992*
X5204Y2992*
X5204Y2992*
X5203Y2993*
X5203Y2993*
X5202Y2993*
X5202Y2994*
X5202Y2994*
X5202Y2994*
X5202Y2994*
X5201Y2995*
X5201Y2995*
X5201Y2995*
X5201Y2995*
X5201Y2995*
X5201Y2996*
X5200Y2996*
X5200Y2997*
X5200Y2998*
X5200Y2999*
X5200Y3000*
X5200Y3000*
X5200Y3001*
X5200Y3001*
X5200Y3001*
Y3002*
X5200Y3002*
X5200Y3003*
X5200Y3004*
X5200Y3004*
X5200Y3005*
X5200Y3005*
X5200Y3006*
X5201Y3006*
X5201Y3007*
X5201Y3007*
X5201Y3008*
X5201Y3008*
X5201Y3008*
X5202Y3008*
X5202Y3008*
X5202Y3008*
X5202Y3009*
X5203Y3009*
X5203Y3010*
X5204Y3010*
X5204Y3010*
X5205Y3011*
X5205Y3011*
X5206Y3011*
X5206Y3012*
X5207Y3012*
X5207Y3012*
X5207Y3012*
X5208Y3012*
X5208Y3012*
X5208Y3012*
X5208*
X5209Y3009*
G37*
G36*
X4912Y3409D02*
X4913Y3409D01*
X4914Y3409*
X4914Y3409*
X4915Y3409*
X4915Y3409*
X4916Y3409*
X4916Y3408*
X4917Y3408*
X4917Y3408*
X4918Y3408*
X4918Y3408*
X4918Y3408*
X4918Y3407*
X4918Y3407*
X4918Y3407*
X4919Y3407*
X4919Y3406*
X4920Y3406*
X4920Y3405*
X4920Y3405*
X4921Y3404*
X4921Y3404*
X4921Y3403*
X4922Y3403*
X4922Y3402*
X4922Y3402*
X4922Y3402*
X4922Y3401*
X4922Y3401*
X4922Y3401*
Y3401*
X4919Y3400*
X4919Y3401*
X4918Y3401*
X4918Y3402*
X4918Y3402*
X4918Y3403*
X4918Y3403*
X4917Y3403*
X4917Y3404*
X4917Y3404*
X4917Y3404*
X4917Y3405*
X4916Y3405*
X4916Y3405*
X4916Y3405*
X4916Y3405*
X4916Y3405*
X4916Y3405*
X4915Y3406*
X4915Y3406*
X4914Y3406*
X4914Y3406*
X4913Y3406*
X4913Y3406*
X4912Y3407*
X4912Y3407*
X4912Y3407*
X4912Y3407*
X4911*
X4910Y3407*
X4910Y3406*
X4909Y3406*
X4908Y3406*
X4908Y3406*
X4907Y3406*
X4907Y3406*
X4907Y3406*
X4907Y3405*
X4907Y3405*
X4907*
X4906Y3405*
X4906Y3404*
X4905Y3404*
X4905Y3403*
X4904Y3403*
X4904Y3402*
X4904Y3402*
X4904Y3402*
X4904Y3402*
X4904Y3402*
Y3402*
X4904Y3401*
X4903Y3400*
X4903Y3399*
X4903Y3398*
X4903Y3398*
Y3397*
X4903Y3397*
X4903Y3397*
Y3396*
Y3396*
Y3396*
Y3396*
X4903Y3395*
X4903Y3394*
X4903Y3393*
X4903Y3393*
X4903Y3392*
X4904Y3392*
X4904Y3392*
X4904Y3392*
X4904Y3391*
X4904Y3391*
X4904Y3391*
Y3391*
X4904Y3390*
X4905Y3390*
X4905Y3389*
X4905Y3388*
X4906Y3388*
X4906Y3388*
X4906Y3387*
X4906Y3387*
X4907Y3387*
X4907*
X4907Y3387*
X4907Y3387*
X4908Y3387*
X4909Y3386*
X4910Y3386*
X4910Y3386*
X4910Y3386*
X4911Y3386*
X4911*
X4911Y3386*
X4912*
X4912Y3386*
X4913Y3386*
X4914Y3386*
X4915Y3387*
X4915Y3387*
X4915Y3387*
X4916Y3387*
X4916Y3387*
X4916Y3387*
X4916Y3387*
X4916*
X4916Y3387*
X4916Y3388*
X4917Y3388*
X4917Y3389*
X4918Y3390*
X4918Y3390*
X4918Y3391*
X4918Y3391*
X4918Y3391*
X4918Y3391*
X4918Y3391*
Y3391*
X4922Y3390*
X4922Y3390*
X4921Y3389*
X4921Y3389*
X4921Y3388*
X4920Y3388*
X4920Y3387*
X4920Y3387*
X4920Y3386*
X4919Y3386*
X4919Y3386*
X4919Y3386*
X4918Y3385*
X4918Y3385*
X4918Y3385*
X4918Y3385*
X4918Y3385*
X4918Y3385*
X4917Y3384*
X4916Y3384*
X4916Y3384*
X4915Y3384*
X4915Y3383*
X4914Y3383*
X4913Y3383*
X4913Y3383*
X4913Y3383*
X4912Y3383*
X4912Y3383*
X4911*
X4910Y3383*
X4909Y3383*
X4908Y3384*
X4908Y3384*
X4907Y3384*
X4907Y3384*
X4906Y3384*
X4906Y3384*
X4906Y3384*
X4906Y3384*
X4905Y3385*
X4905Y3385*
X4905Y3385*
X4905Y3385*
X4904Y3385*
X4904Y3386*
X4903Y3387*
X4902Y3387*
X4902Y3388*
X4902Y3388*
X4901Y3388*
X4901Y3389*
X4901Y3389*
X4901Y3389*
X4901Y3389*
X4901Y3389*
X4901Y3390*
X4901Y3390*
X4900Y3391*
X4900Y3393*
X4900Y3393*
X4900Y3394*
X4900Y3394*
X4900Y3395*
X4900Y3395*
Y3395*
X4900Y3396*
Y3396*
Y3396*
Y3396*
X4900Y3397*
X4900Y3399*
X4900Y3399*
X4900Y3400*
X4900Y3400*
X4900Y3401*
X4900Y3401*
X4900Y3402*
X4901Y3402*
X4901Y3402*
X4901Y3403*
X4901Y3403*
X4901Y3403*
Y3403*
X4901Y3404*
X4901Y3404*
X4902Y3405*
X4902Y3405*
X4902Y3406*
X4903Y3406*
X4903Y3406*
X4903Y3407*
X4904Y3407*
X4904Y3407*
X4904Y3407*
X4904Y3408*
X4905Y3408*
X4905Y3408*
X4905Y3408*
X4905Y3408*
X4905Y3408*
X4906Y3408*
X4906Y3409*
X4907Y3409*
X4908Y3409*
X4909Y3409*
X4910Y3409*
X4910Y3409*
X4911Y3409*
X4911Y3409*
X4911Y3410*
X4912*
X4912Y3409*
G37*
G36*
X4942Y3406D02*
X4929D01*
X4929Y3405*
X4930Y3405*
X4930Y3405*
X4930Y3405*
X4930Y3405*
X4930Y3404*
X4930Y3404*
X4930Y3404*
X4931Y3404*
X4931Y3404*
X4931Y3404*
X4932Y3403*
X4932Y3402*
X4933Y3402*
X4933Y3402*
X4933Y3402*
X4934Y3401*
X4934Y3401*
X4934Y3401*
X4934Y3401*
X4935Y3401*
X4935Y3400*
X4936Y3400*
X4936Y3399*
X4937Y3399*
X4937Y3398*
X4937Y3398*
X4938Y3398*
X4938Y3398*
X4938Y3397*
X4938Y3397*
X4939Y3397*
X4939Y3397*
X4939Y3397*
X4939Y3397*
Y3397*
X4939Y3396*
X4940Y3395*
X4940Y3395*
X4940Y3394*
X4941Y3394*
X4941Y3394*
X4941Y3394*
X4941Y3394*
X4941Y3393*
X4941Y3392*
X4941Y3392*
X4941Y3391*
X4941Y3391*
X4942Y3391*
Y3391*
Y3390*
X4941Y3390*
X4941Y3389*
X4941Y3389*
X4941Y3388*
X4941Y3388*
X4941Y3387*
X4940Y3387*
X4940Y3386*
X4940Y3386*
X4940Y3386*
X4940Y3386*
X4940Y3386*
X4939Y3386*
X4939Y3385*
X4939Y3385*
X4939Y3385*
X4938Y3385*
X4938Y3384*
X4938Y3384*
X4937Y3384*
X4937Y3384*
X4936Y3384*
X4935Y3384*
X4935Y3383*
X4934Y3383*
X4934Y3383*
X4934Y3383*
X4934*
X4933Y3383*
X4932Y3383*
X4932Y3384*
X4931Y3384*
X4931Y3384*
X4930Y3384*
X4930Y3384*
X4929Y3384*
X4929Y3384*
X4929Y3385*
X4928Y3385*
X4928Y3385*
X4928Y3385*
X4928Y3385*
X4928Y3385*
X4928Y3385*
X4927Y3386*
X4927Y3386*
X4927Y3386*
X4926Y3387*
X4926Y3387*
X4926Y3388*
X4926Y3389*
X4926Y3389*
X4925Y3390*
X4925Y3390*
X4925Y3390*
X4925Y3390*
Y3391*
X4925Y3391*
Y3391*
X4928Y3391*
X4929Y3390*
X4929Y3389*
X4929Y3389*
X4929Y3388*
X4929Y3388*
X4930Y3388*
X4930Y3387*
X4930Y3387*
X4930Y3387*
X4931Y3387*
X4932Y3386*
X4932Y3386*
X4933Y3386*
X4933Y3386*
X4933*
X4933Y3386*
X4933*
X4934Y3386*
X4935Y3386*
X4936Y3386*
X4936Y3387*
X4936Y3387*
X4937Y3387*
X4937Y3387*
X4937Y3387*
X4937Y3388*
X4938Y3388*
X4938Y3389*
X4938Y3389*
X4938Y3390*
X4938Y3390*
X4938Y3390*
Y3390*
Y3390*
Y3390*
Y3391*
X4938Y3391*
X4938Y3392*
X4938Y3392*
X4938Y3393*
X4937Y3393*
X4937Y3394*
X4937Y3394*
X4937Y3394*
X4937Y3394*
X4937Y3394*
X4937Y3394*
X4937Y3395*
X4936Y3395*
X4936Y3395*
X4935Y3396*
X4934Y3397*
X4933Y3398*
X4933Y3398*
X4933Y3398*
X4932Y3399*
X4932Y3399*
X4932Y3399*
X4931Y3399*
X4931Y3400*
X4931Y3400*
X4930Y3400*
X4929Y3401*
X4929Y3402*
X4928Y3402*
X4928Y3403*
X4927Y3403*
X4927Y3403*
X4927Y3403*
X4927Y3403*
X4927Y3404*
X4927Y3404*
X4926Y3405*
X4926Y3405*
X4925Y3406*
X4925Y3406*
X4925Y3407*
X4925Y3407*
X4925Y3407*
X4925Y3407*
Y3407*
X4925Y3407*
X4925Y3408*
X4925Y3408*
X4925Y3408*
X4925Y3409*
Y3409*
Y3409*
Y3409*
X4942*
Y3406*
G37*
G36*
X4958Y3403D02*
X4962D01*
Y3400*
X4958*
Y3383*
X4956*
X4944Y3400*
Y3403*
X4955*
Y3409*
X4958*
Y3403*
G37*
G36*
X6082Y2569D02*
X6083Y2569D01*
X6084Y2569*
X6084Y2569*
X6085Y2569*
X6085Y2569*
X6086Y2569*
X6086Y2568*
X6087Y2568*
X6087Y2568*
X6088Y2568*
X6088Y2568*
X6088Y2568*
X6088Y2567*
X6088Y2567*
X6088Y2567*
X6089Y2567*
X6089Y2566*
X6090Y2566*
X6090Y2565*
X6090Y2565*
X6091Y2564*
X6091Y2564*
X6091Y2563*
X6092Y2563*
X6092Y2562*
X6092Y2562*
X6092Y2562*
X6092Y2561*
X6092Y2561*
X6092Y2561*
Y2561*
X6089Y2560*
X6089Y2561*
X6088Y2561*
X6088Y2562*
X6088Y2562*
X6088Y2563*
X6088Y2563*
X6087Y2563*
X6087Y2564*
X6087Y2564*
X6087Y2564*
X6087Y2565*
X6086Y2565*
X6086Y2565*
X6086Y2565*
X6086Y2565*
X6086Y2565*
X6086Y2565*
X6085Y2566*
X6085Y2566*
X6084Y2566*
X6084Y2566*
X6083Y2566*
X6083Y2566*
X6082Y2567*
X6082Y2567*
X6082Y2567*
X6082Y2567*
X6081*
X6080Y2567*
X6080Y2566*
X6079Y2566*
X6078Y2566*
X6078Y2566*
X6077Y2566*
X6077Y2566*
X6077Y2566*
X6077Y2565*
X6077Y2565*
X6077*
X6076Y2565*
X6076Y2564*
X6075Y2564*
X6075Y2563*
X6074Y2563*
X6074Y2562*
X6074Y2562*
X6074Y2562*
X6074Y2562*
X6074Y2562*
Y2562*
X6074Y2561*
X6073Y2560*
X6073Y2559*
X6073Y2558*
X6073Y2558*
Y2557*
X6073Y2557*
X6073Y2557*
Y2556*
Y2556*
Y2556*
Y2556*
X6073Y2555*
X6073Y2554*
X6073Y2553*
X6073Y2553*
X6073Y2552*
X6074Y2552*
X6074Y2552*
X6074Y2552*
X6074Y2551*
X6074Y2551*
X6074Y2551*
Y2551*
X6074Y2550*
X6075Y2550*
X6075Y2549*
X6075Y2548*
X6076Y2548*
X6076Y2548*
X6076Y2547*
X6076Y2547*
X6077Y2547*
X6077*
X6077Y2547*
X6077Y2547*
X6078Y2547*
X6079Y2546*
X6080Y2546*
X6080Y2546*
X6080Y2546*
X6081Y2546*
X6081*
X6081Y2546*
X6082*
X6082Y2546*
X6083Y2546*
X6084Y2546*
X6085Y2547*
X6085Y2547*
X6085Y2547*
X6086Y2547*
X6086Y2547*
X6086Y2547*
X6086Y2547*
X6086*
X6086Y2547*
X6086Y2548*
X6087Y2548*
X6087Y2549*
X6088Y2550*
X6088Y2550*
X6088Y2551*
X6088Y2551*
X6088Y2551*
X6088Y2551*
X6088Y2551*
Y2551*
X6092Y2550*
X6092Y2550*
X6091Y2549*
X6091Y2549*
X6091Y2548*
X6090Y2548*
X6090Y2547*
X6090Y2547*
X6090Y2546*
X6089Y2546*
X6089Y2546*
X6089Y2546*
X6088Y2545*
X6088Y2545*
X6088Y2545*
X6088Y2545*
X6088Y2545*
X6088Y2545*
X6087Y2544*
X6086Y2544*
X6086Y2544*
X6085Y2544*
X6085Y2543*
X6084Y2543*
X6083Y2543*
X6083Y2543*
X6083Y2543*
X6082Y2543*
X6082Y2543*
X6081*
X6080Y2543*
X6079Y2543*
X6078Y2544*
X6078Y2544*
X6077Y2544*
X6077Y2544*
X6076Y2544*
X6076Y2544*
X6076Y2544*
X6076Y2544*
X6075Y2545*
X6075Y2545*
X6075Y2545*
X6075Y2545*
X6074Y2545*
X6074Y2546*
X6073Y2547*
X6072Y2547*
X6072Y2548*
X6072Y2548*
X6071Y2548*
X6071Y2549*
X6071Y2549*
X6071Y2549*
X6071Y2549*
X6071Y2549*
X6071Y2550*
X6071Y2550*
X6070Y2551*
X6070Y2553*
X6070Y2553*
X6070Y2554*
X6070Y2554*
X6070Y2555*
X6070Y2555*
Y2555*
X6070Y2556*
Y2556*
Y2556*
Y2556*
X6070Y2557*
X6070Y2559*
X6070Y2559*
X6070Y2560*
X6070Y2560*
X6070Y2561*
X6070Y2561*
X6070Y2562*
X6071Y2562*
X6071Y2562*
X6071Y2563*
X6071Y2563*
X6071Y2563*
Y2563*
X6071Y2564*
X6071Y2564*
X6072Y2565*
X6072Y2565*
X6072Y2566*
X6073Y2566*
X6073Y2566*
X6073Y2567*
X6074Y2567*
X6074Y2567*
X6074Y2567*
X6074Y2568*
X6075Y2568*
X6075Y2568*
X6075Y2568*
X6075Y2568*
X6075Y2568*
X6076Y2568*
X6076Y2569*
X6077Y2569*
X6078Y2569*
X6079Y2569*
X6080Y2569*
X6080Y2569*
X6081Y2569*
X6081Y2569*
X6081Y2570*
X6082*
X6082Y2569*
G37*
G36*
X6123D02*
X6124Y2569D01*
X6125Y2569*
X6125Y2569*
X6126Y2569*
X6126Y2569*
X6127Y2568*
X6127Y2568*
X6127Y2568*
X6127Y2568*
X6127Y2568*
X6127Y2568*
X6128*
X6128Y2567*
X6129Y2567*
X6129Y2566*
X6130Y2565*
X6130Y2565*
X6130Y2564*
X6131Y2564*
X6131Y2564*
X6131Y2564*
X6131Y2564*
Y2564*
X6131Y2563*
X6131Y2562*
X6131Y2561*
X6132Y2560*
X6132Y2559*
X6132Y2559*
X6132Y2558*
X6132Y2557*
X6132Y2557*
X6132Y2557*
Y2556*
Y2556*
Y2556*
Y2556*
Y2555*
X6132Y2554*
X6132Y2553*
X6132Y2553*
X6132Y2552*
X6131Y2551*
X6131Y2551*
X6131Y2550*
X6131Y2550*
X6131Y2550*
X6131Y2549*
X6131Y2549*
X6131Y2549*
X6131Y2549*
X6131Y2549*
Y2549*
X6130Y2548*
X6130Y2547*
X6129Y2546*
X6129Y2546*
X6128Y2545*
X6128Y2545*
X6128Y2545*
X6128Y2545*
X6128Y2545*
X6128*
X6127Y2544*
X6126Y2544*
X6125Y2544*
X6124Y2544*
X6124Y2543*
X6124Y2543*
X6123*
X6123Y2543*
X6123*
X6122Y2543*
X6122Y2543*
X6121Y2544*
X6121Y2544*
X6120Y2544*
X6120Y2544*
X6119Y2544*
X6119Y2545*
X6118Y2545*
X6118Y2545*
X6118Y2545*
X6118Y2545*
X6117Y2546*
X6117Y2546*
X6117Y2546*
X6117Y2546*
X6117Y2546*
X6116Y2547*
X6116Y2547*
X6116Y2548*
X6116Y2548*
X6116Y2549*
X6115Y2550*
X6115Y2550*
X6115Y2551*
X6115Y2551*
X6115Y2551*
X6115Y2552*
Y2552*
Y2552*
Y2552*
X6115Y2553*
X6115Y2553*
X6115Y2554*
X6115Y2555*
X6115Y2555*
X6116Y2556*
X6116Y2556*
X6116Y2556*
X6116Y2557*
X6116Y2557*
X6117Y2557*
X6117Y2558*
X6117Y2558*
X6117Y2558*
X6117Y2558*
X6117Y2558*
X6118Y2558*
X6118Y2559*
X6118Y2559*
X6119Y2559*
X6119Y2560*
X6120Y2560*
X6120Y2560*
X6121Y2560*
X6121Y2560*
X6121Y2560*
X6122Y2560*
X6122Y2560*
X6122Y2560*
X6123*
X6123Y2560*
X6124Y2560*
X6124Y2560*
X6125Y2560*
X6125Y2560*
X6126Y2560*
X6126Y2560*
X6126Y2559*
X6126Y2559*
X6126*
X6127Y2559*
X6127Y2559*
X6128Y2558*
X6128Y2558*
X6128Y2558*
X6128Y2557*
X6129Y2557*
X6129Y2557*
Y2557*
Y2557*
Y2558*
Y2558*
X6129Y2558*
X6129Y2559*
X6129Y2560*
X6128Y2560*
X6128Y2561*
X6128Y2561*
X6128Y2561*
X6128Y2561*
Y2561*
X6128Y2561*
Y2562*
X6128Y2562*
X6128Y2563*
X6128Y2563*
X6127Y2564*
X6127Y2564*
X6127Y2564*
X6127Y2564*
X6127Y2565*
X6127Y2565*
X6126Y2565*
X6126Y2566*
X6126Y2566*
X6126Y2566*
X6125Y2566*
X6125Y2566*
X6125Y2566*
X6125Y2566*
X6124Y2567*
X6124Y2567*
X6124Y2567*
X6123Y2567*
X6123Y2567*
X6123*
X6122Y2567*
X6122Y2567*
X6121Y2567*
X6121Y2566*
X6120Y2566*
X6120Y2566*
X6120Y2566*
X6120Y2566*
X6120Y2566*
X6119Y2565*
X6119Y2565*
X6119Y2564*
X6119Y2564*
X6119Y2563*
X6118Y2563*
Y2563*
X6118Y2563*
Y2563*
X6115Y2563*
X6116Y2564*
X6116Y2564*
X6116Y2565*
X6116Y2565*
X6116Y2566*
X6116Y2566*
X6116Y2566*
X6117Y2567*
X6117Y2567*
X6117Y2567*
X6117Y2567*
X6117Y2568*
X6118Y2568*
X6118Y2568*
X6118Y2568*
X6118Y2568*
X6118Y2568*
X6118Y2568*
X6119Y2569*
X6119Y2569*
X6120Y2569*
X6121Y2569*
X6121Y2569*
X6122Y2569*
X6122Y2569*
X6122Y2569*
X6122Y2570*
X6123*
X6123Y2569*
G37*
G36*
X6107Y2543D02*
X6105D01*
X6105Y2544*
X6104Y2545*
X6104Y2545*
X6103Y2546*
X6103Y2546*
X6102Y2546*
X6102Y2547*
X6102Y2547*
X6102Y2547*
X6102Y2547*
X6101Y2547*
X6101Y2548*
X6100Y2549*
X6099Y2549*
X6098Y2549*
X6098Y2549*
X6098Y2550*
X6098Y2550*
X6098Y2550*
X6098Y2550*
X6097*
Y2553*
X6098Y2553*
X6099Y2552*
X6099Y2552*
X6100Y2552*
X6100Y2552*
X6100Y2551*
X6101Y2551*
X6101Y2551*
X6101Y2551*
X6101*
X6101Y2551*
X6102Y2550*
X6103Y2550*
X6103Y2550*
X6103Y2549*
X6104Y2549*
X6104Y2549*
X6104Y2549*
Y2569*
X6107*
Y2543*
G37*
G36*
X4914Y3119D02*
X4915Y3119D01*
X4915Y3119*
X4916Y3119*
X4917Y3119*
X4917Y3119*
X4918Y3119*
X4918Y3118*
X4919Y3118*
X4919Y3118*
X4919Y3118*
X4920Y3118*
X4920Y3118*
X4920Y3117*
X4920Y3117*
X4920Y3117*
X4921Y3117*
X4921Y3116*
X4921Y3116*
X4922Y3115*
X4922Y3115*
X4922Y3114*
X4923Y3114*
X4923Y3113*
X4923Y3113*
X4923Y3112*
X4924Y3112*
X4924Y3112*
X4924Y3111*
X4924Y3111*
X4924Y3111*
Y3111*
X4921Y3110*
X4920Y3111*
X4920Y3111*
X4920Y3112*
X4920Y3112*
X4920Y3113*
X4919Y3113*
X4919Y3113*
X4919Y3114*
X4919Y3114*
X4918Y3114*
X4918Y3115*
X4918Y3115*
X4918Y3115*
X4918Y3115*
X4918Y3115*
X4918Y3115*
X4917Y3115*
X4917Y3116*
X4917Y3116*
X4916Y3116*
X4915Y3116*
X4915Y3116*
X4914Y3116*
X4914Y3117*
X4914Y3117*
X4913Y3117*
X4913Y3117*
X4913*
X4912Y3117*
X4911Y3116*
X4911Y3116*
X4910Y3116*
X4909Y3116*
X4909Y3116*
X4909Y3116*
X4909Y3116*
X4909Y3115*
X4909Y3115*
X4909*
X4908Y3115*
X4907Y3114*
X4907Y3114*
X4906Y3113*
X4906Y3113*
X4906Y3112*
X4906Y3112*
X4906Y3112*
X4906Y3112*
X4906Y3112*
Y3112*
X4905Y3111*
X4905Y3110*
X4905Y3109*
X4905Y3108*
X4905Y3108*
Y3107*
X4905Y3107*
X4905Y3107*
Y3106*
Y3106*
Y3106*
Y3106*
X4905Y3105*
X4905Y3104*
X4905Y3103*
X4905Y3103*
X4905Y3102*
X4905Y3102*
X4905Y3102*
X4905Y3102*
X4905Y3101*
X4905Y3101*
X4906Y3101*
Y3101*
X4906Y3100*
X4906Y3100*
X4907Y3099*
X4907Y3098*
X4908Y3098*
X4908Y3098*
X4908Y3097*
X4908Y3097*
X4908Y3097*
X4908*
X4909Y3097*
X4909Y3097*
X4910Y3097*
X4911Y3096*
X4912Y3096*
X4912Y3096*
X4912Y3096*
X4913Y3096*
X4913*
X4913Y3096*
X4913*
X4914Y3096*
X4915Y3096*
X4916Y3096*
X4916Y3097*
X4917Y3097*
X4917Y3097*
X4917Y3097*
X4917Y3097*
X4917Y3097*
X4918Y3097*
X4918*
X4918Y3097*
X4918Y3098*
X4919Y3098*
X4919Y3099*
X4919Y3100*
X4920Y3100*
X4920Y3101*
X4920Y3101*
X4920Y3101*
X4920Y3101*
X4920Y3101*
Y3101*
X4923Y3100*
X4923Y3100*
X4923Y3099*
X4923Y3099*
X4922Y3098*
X4922Y3098*
X4922Y3097*
X4922Y3097*
X4921Y3096*
X4921Y3096*
X4921Y3096*
X4920Y3096*
X4920Y3095*
X4920Y3095*
X4920Y3095*
X4920Y3095*
X4920Y3095*
X4919Y3095*
X4919Y3094*
X4918Y3094*
X4918Y3094*
X4917Y3094*
X4917Y3093*
X4916Y3093*
X4915Y3093*
X4915Y3093*
X4914Y3093*
X4914Y3093*
X4914Y3093*
X4913*
X4912Y3093*
X4911Y3093*
X4910Y3094*
X4909Y3094*
X4909Y3094*
X4909Y3094*
X4908Y3094*
X4908Y3094*
X4908Y3094*
X4907Y3094*
X4907Y3095*
X4907Y3095*
X4907Y3095*
X4907Y3095*
X4906Y3095*
X4905Y3096*
X4904Y3097*
X4904Y3097*
X4904Y3098*
X4903Y3098*
X4903Y3098*
X4903Y3099*
X4903Y3099*
X4903Y3099*
X4903Y3099*
X4903Y3099*
X4902Y3100*
X4902Y3100*
X4902Y3101*
X4902Y3103*
X4901Y3103*
X4901Y3104*
X4901Y3104*
X4901Y3105*
X4901Y3105*
Y3105*
X4901Y3106*
Y3106*
Y3106*
Y3106*
X4901Y3107*
X4901Y3109*
X4902Y3109*
X4902Y3110*
X4902Y3110*
X4902Y3111*
X4902Y3111*
X4902Y3112*
X4902Y3112*
X4902Y3112*
X4902Y3113*
X4902Y3113*
X4903Y3113*
Y3113*
X4903Y3114*
X4903Y3114*
X4903Y3115*
X4904Y3115*
X4904Y3116*
X4904Y3116*
X4905Y3116*
X4905Y3117*
X4905Y3117*
X4906Y3117*
X4906Y3117*
X4906Y3118*
X4906Y3118*
X4906Y3118*
X4906Y3118*
X4907Y3118*
X4907Y3118*
X4908Y3118*
X4908Y3119*
X4909Y3119*
X4910Y3119*
X4911Y3119*
X4911Y3119*
X4912Y3119*
X4912Y3119*
X4913Y3119*
X4913Y3120*
X4913*
X4914Y3119*
G37*
G36*
X4956D02*
X4956Y3119D01*
X4957Y3119*
X4957Y3119*
X4958Y3119*
X4958Y3119*
X4959Y3119*
X4959Y3118*
X4960Y3118*
X4960Y3118*
X4960Y3118*
X4961Y3118*
X4961Y3117*
X4961Y3117*
X4961Y3117*
X4961Y3117*
X4961Y3117*
X4962Y3116*
X4962Y3116*
X4962Y3115*
X4963Y3115*
X4963Y3114*
X4963Y3114*
X4963Y3113*
X4963Y3113*
X4963Y3113*
X4963Y3112*
X4963Y3112*
X4963Y3112*
Y3112*
Y3112*
Y3112*
X4963Y3111*
X4963Y3110*
X4963Y3109*
X4963Y3109*
X4963Y3108*
X4962Y3108*
X4962Y3108*
X4962Y3108*
X4962Y3107*
X4962Y3107*
Y3107*
X4962Y3107*
X4961Y3106*
X4961Y3106*
X4960Y3106*
X4959Y3105*
X4959Y3105*
X4959Y3105*
X4959Y3105*
X4959Y3105*
X4959Y3105*
X4959*
X4959Y3105*
X4960Y3105*
X4960Y3104*
X4961Y3104*
X4961Y3104*
X4961Y3103*
X4961Y3103*
X4961Y3103*
X4962Y3103*
X4962Y3102*
X4962Y3101*
X4962Y3101*
X4962Y3101*
X4962Y3100*
Y3100*
Y3100*
Y3100*
X4962Y3099*
X4962Y3099*
X4962Y3098*
X4962Y3098*
X4962Y3097*
X4961Y3097*
X4961Y3097*
X4961Y3097*
Y3097*
X4961Y3096*
X4960Y3096*
X4960Y3095*
X4960Y3095*
X4959Y3095*
X4959Y3094*
X4959Y3094*
X4959Y3094*
X4959Y3094*
X4959*
X4958Y3094*
X4957Y3094*
X4957Y3094*
X4956Y3093*
X4955Y3093*
X4955*
X4955Y3093*
X4955*
X4954Y3093*
X4954Y3093*
X4953Y3094*
X4952Y3094*
X4951Y3094*
X4951Y3094*
X4951Y3094*
X4950Y3095*
X4950Y3095*
X4950Y3095*
X4950Y3095*
X4950Y3095*
X4950Y3095*
X4950Y3095*
X4949Y3095*
X4949Y3096*
X4948Y3097*
X4948Y3097*
X4948Y3098*
X4947Y3099*
X4947Y3099*
X4947Y3099*
X4947Y3099*
X4947Y3100*
X4947Y3100*
X4947Y3100*
Y3100*
X4950Y3101*
X4950Y3100*
X4950Y3099*
X4951Y3098*
X4951Y3098*
X4951Y3098*
X4951Y3097*
X4952Y3097*
X4952Y3097*
X4952Y3097*
X4953Y3096*
X4953Y3096*
X4954Y3096*
X4954Y3096*
X4954Y3096*
X4955Y3096*
X4955*
X4955Y3096*
X4956Y3096*
X4957Y3096*
X4957Y3097*
X4957Y3097*
X4958Y3097*
X4958Y3097*
X4958Y3097*
X4958Y3098*
X4958Y3098*
X4959Y3099*
X4959Y3099*
X4959Y3099*
X4959Y3100*
X4959Y3100*
Y3100*
Y3100*
X4959Y3100*
X4959Y3101*
X4959Y3101*
X4958Y3102*
X4958Y3102*
X4958Y3103*
X4958Y3103*
X4957Y3103*
X4957Y3103*
X4957*
X4957Y3104*
X4956Y3104*
X4955Y3104*
X4955Y3104*
X4954Y3104*
X4954Y3104*
X4954Y3104*
X4954*
X4953Y3104*
X4953Y3104*
X4953*
X4953Y3107*
X4953Y3107*
X4954Y3107*
X4954Y3107*
X4954Y3107*
X4955Y3107*
X4955*
X4956Y3107*
X4957Y3107*
X4957Y3107*
X4958Y3107*
X4958Y3108*
X4958Y3108*
X4959Y3108*
X4959Y3108*
X4959Y3108*
X4959Y3109*
X4960Y3109*
X4960Y3110*
X4960Y3110*
X4960Y3111*
X4960Y3111*
Y3111*
X4960Y3111*
Y3111*
Y3112*
Y3112*
Y3112*
X4960Y3112*
X4960Y3113*
X4960Y3114*
X4959Y3114*
X4959Y3115*
X4959Y3115*
X4959Y3115*
X4959Y3115*
X4959Y3115*
X4959Y3115*
X4958Y3116*
X4958Y3116*
X4957Y3116*
X4957Y3117*
X4956Y3117*
X4956Y3117*
X4955Y3117*
X4955*
X4955Y3117*
X4955*
X4954Y3117*
X4954Y3117*
X4953Y3117*
X4953Y3116*
X4952Y3116*
X4952Y3116*
X4952Y3116*
X4952Y3116*
X4951Y3116*
X4951Y3115*
X4951Y3115*
X4950Y3114*
X4950Y3113*
X4950Y3113*
X4950Y3113*
X4950Y3112*
X4950Y3112*
X4950Y3112*
X4950Y3112*
Y3112*
X4947Y3112*
X4947Y3113*
X4947Y3113*
X4947Y3114*
X4947Y3114*
X4947Y3115*
X4948Y3115*
X4948Y3116*
X4948Y3116*
X4948Y3116*
X4948Y3117*
X4949Y3117*
X4949Y3117*
X4949Y3117*
X4949Y3117*
X4949Y3117*
X4949Y3118*
X4950Y3118*
X4950Y3118*
X4951Y3118*
X4951Y3119*
X4952Y3119*
X4952Y3119*
X4953Y3119*
X4953Y3119*
X4954Y3119*
X4954Y3119*
X4954Y3119*
X4954Y3120*
X4955*
X4956Y3119*
G37*
G36*
X4943Y3116D02*
X4931D01*
X4931Y3115*
X4931Y3115*
X4932Y3115*
X4932Y3115*
X4932Y3115*
X4932Y3114*
X4932Y3114*
X4932Y3114*
X4932Y3114*
X4933Y3114*
X4933Y3114*
X4934Y3113*
X4934Y3112*
X4935Y3112*
X4935Y3112*
X4935Y3112*
X4935Y3111*
X4936Y3111*
X4936Y3111*
X4936Y3111*
X4936Y3111*
X4937Y3110*
X4937Y3110*
X4938Y3109*
X4938Y3109*
X4939Y3108*
X4939Y3108*
X4939Y3108*
X4940Y3108*
X4940Y3107*
X4940Y3107*
X4940Y3107*
X4940Y3107*
X4940Y3107*
X4941Y3107*
Y3107*
X4941Y3106*
X4941Y3105*
X4942Y3105*
X4942Y3104*
X4942Y3104*
X4942Y3104*
X4943Y3104*
X4943Y3104*
X4943Y3103*
X4943Y3102*
X4943Y3102*
X4943Y3101*
X4943Y3101*
X4943Y3101*
Y3101*
Y3100*
X4943Y3100*
X4943Y3099*
X4943Y3099*
X4943Y3098*
X4943Y3098*
X4942Y3097*
X4942Y3097*
X4942Y3096*
X4942Y3096*
X4942Y3096*
X4941Y3096*
X4941Y3096*
X4941Y3096*
X4941Y3095*
X4941Y3095*
X4941Y3095*
X4940Y3095*
X4940Y3094*
X4939Y3094*
X4939Y3094*
X4938Y3094*
X4937Y3094*
X4937Y3094*
X4937Y3093*
X4936Y3093*
X4936Y3093*
X4936Y3093*
X4935*
X4935Y3093*
X4934Y3093*
X4933Y3094*
X4933Y3094*
X4932Y3094*
X4932Y3094*
X4931Y3094*
X4931Y3094*
X4931Y3094*
X4930Y3095*
X4930Y3095*
X4930Y3095*
X4930Y3095*
X4930Y3095*
X4929Y3095*
X4929Y3095*
X4929Y3096*
X4929Y3096*
X4928Y3096*
X4928Y3097*
X4928Y3097*
X4928Y3098*
X4927Y3099*
X4927Y3099*
X4927Y3100*
X4927Y3100*
X4927Y3100*
X4927Y3100*
Y3101*
X4927Y3101*
Y3101*
X4930Y3101*
X4930Y3100*
X4930Y3099*
X4931Y3099*
X4931Y3098*
X4931Y3098*
X4931Y3098*
X4931Y3097*
X4932Y3097*
X4932Y3097*
X4933Y3097*
X4933Y3096*
X4934Y3096*
X4934Y3096*
X4935Y3096*
X4935*
X4935Y3096*
X4935*
X4936Y3096*
X4937Y3096*
X4937Y3096*
X4938Y3097*
X4938Y3097*
X4938Y3097*
X4939Y3097*
X4939Y3097*
X4939Y3098*
X4939Y3098*
X4940Y3099*
X4940Y3099*
X4940Y3100*
X4940Y3100*
X4940Y3100*
Y3100*
Y3100*
Y3100*
Y3101*
X4940Y3101*
X4940Y3102*
X4940Y3102*
X4939Y3103*
X4939Y3103*
X4939Y3104*
X4939Y3104*
X4939Y3104*
X4939Y3104*
X4939Y3104*
X4939Y3104*
X4938Y3105*
X4938Y3105*
X4937Y3105*
X4937Y3106*
X4936Y3107*
X4935Y3108*
X4935Y3108*
X4934Y3108*
X4934Y3109*
X4934Y3109*
X4933Y3109*
X4933Y3109*
X4933Y3110*
X4933Y3110*
X4932Y3110*
X4931Y3111*
X4930Y3112*
X4930Y3112*
X4929Y3113*
X4929Y3113*
X4929Y3113*
X4929Y3113*
X4929Y3113*
X4929Y3114*
X4928Y3114*
X4928Y3115*
X4928Y3115*
X4927Y3116*
X4927Y3116*
X4927Y3117*
X4927Y3117*
X4927Y3117*
X4927Y3117*
Y3117*
X4927Y3117*
X4926Y3118*
X4926Y3118*
X4926Y3118*
X4926Y3119*
Y3119*
Y3119*
Y3119*
X4943*
Y3116*
G37*
G36*
X5152Y3199D02*
X5153Y3199D01*
X5154Y3199*
X5154Y3199*
X5155Y3199*
X5155Y3199*
X5156Y3199*
X5156Y3198*
X5157Y3198*
X5157Y3198*
X5158Y3198*
X5158Y3198*
X5158Y3198*
X5158Y3197*
X5158Y3197*
X5158Y3197*
X5159Y3197*
X5159Y3196*
X5160Y3196*
X5160Y3195*
X5160Y3195*
X5161Y3194*
X5161Y3194*
X5161Y3193*
X5162Y3193*
X5162Y3192*
X5162Y3192*
X5162Y3192*
X5162Y3191*
X5162Y3191*
X5162Y3191*
Y3191*
X5159Y3190*
X5159Y3191*
X5158Y3191*
X5158Y3192*
X5158Y3192*
X5158Y3193*
X5158Y3193*
X5157Y3193*
X5157Y3194*
X5157Y3194*
X5157Y3194*
X5157Y3195*
X5156Y3195*
X5156Y3195*
X5156Y3195*
X5156Y3195*
X5156Y3195*
X5156Y3195*
X5155Y3196*
X5155Y3196*
X5154Y3196*
X5154Y3196*
X5153Y3196*
X5153Y3196*
X5152Y3197*
X5152Y3197*
X5152Y3197*
X5152Y3197*
X5151*
X5150Y3197*
X5150Y3196*
X5149Y3196*
X5148Y3196*
X5148Y3196*
X5147Y3196*
X5147Y3196*
X5147Y3196*
X5147Y3195*
X5147Y3195*
X5147*
X5146Y3195*
X5146Y3194*
X5145Y3194*
X5145Y3193*
X5144Y3193*
X5144Y3192*
X5144Y3192*
X5144Y3192*
X5144Y3192*
X5144Y3192*
Y3192*
X5144Y3191*
X5143Y3190*
X5143Y3189*
X5143Y3188*
X5143Y3188*
Y3187*
X5143Y3187*
X5143Y3187*
Y3186*
Y3186*
Y3186*
Y3186*
X5143Y3185*
X5143Y3184*
X5143Y3183*
X5143Y3183*
X5143Y3182*
X5144Y3182*
X5144Y3182*
X5144Y3182*
X5144Y3181*
X5144Y3181*
X5144Y3181*
Y3181*
X5144Y3180*
X5145Y3180*
X5145Y3179*
X5145Y3178*
X5146Y3178*
X5146Y3178*
X5146Y3177*
X5146Y3177*
X5147Y3177*
X5147*
X5147Y3177*
X5147Y3177*
X5148Y3177*
X5149Y3176*
X5150Y3176*
X5150Y3176*
X5150Y3176*
X5151Y3176*
X5151*
X5151Y3176*
X5152*
X5152Y3176*
X5153Y3176*
X5154Y3176*
X5155Y3177*
X5155Y3177*
X5155Y3177*
X5156Y3177*
X5156Y3177*
X5156Y3177*
X5156Y3177*
X5156*
X5156Y3177*
X5156Y3178*
X5157Y3178*
X5157Y3179*
X5158Y3180*
X5158Y3180*
X5158Y3181*
X5158Y3181*
X5158Y3181*
X5158Y3181*
X5158Y3181*
Y3181*
X5162Y3180*
X5162Y3180*
X5161Y3179*
X5161Y3179*
X5161Y3178*
X5160Y3178*
X5160Y3177*
X5160Y3177*
X5160Y3176*
X5159Y3176*
X5159Y3176*
X5159Y3176*
X5158Y3175*
X5158Y3175*
X5158Y3175*
X5158Y3175*
X5158Y3175*
X5158Y3175*
X5157Y3174*
X5156Y3174*
X5156Y3174*
X5155Y3174*
X5155Y3173*
X5154Y3173*
X5153Y3173*
X5153Y3173*
X5153Y3173*
X5152Y3173*
X5152Y3173*
X5151*
X5150Y3173*
X5149Y3173*
X5148Y3174*
X5148Y3174*
X5147Y3174*
X5147Y3174*
X5146Y3174*
X5146Y3174*
X5146Y3174*
X5146Y3174*
X5145Y3175*
X5145Y3175*
X5145Y3175*
X5145Y3175*
X5144Y3175*
X5143Y3176*
X5143Y3177*
X5142Y3177*
X5142Y3178*
X5142Y3178*
X5141Y3178*
X5141Y3179*
X5141Y3179*
X5141Y3179*
X5141Y3179*
X5141Y3179*
X5141Y3180*
X5141Y3180*
X5140Y3181*
X5140Y3183*
X5140Y3183*
X5140Y3184*
X5140Y3184*
X5140Y3185*
X5140Y3185*
Y3185*
X5140Y3186*
Y3186*
Y3186*
Y3186*
X5140Y3187*
X5140Y3189*
X5140Y3189*
X5140Y3190*
X5140Y3190*
X5140Y3191*
X5140Y3191*
X5140Y3192*
X5141Y3192*
X5141Y3192*
X5141Y3193*
X5141Y3193*
X5141Y3193*
Y3193*
X5141Y3194*
X5141Y3194*
X5142Y3195*
X5142Y3195*
X5142Y3196*
X5143Y3196*
X5143Y3196*
X5143Y3197*
X5144Y3197*
X5144Y3197*
X5144Y3197*
X5144Y3198*
X5145Y3198*
X5145Y3198*
X5145Y3198*
X5145Y3198*
X5145Y3198*
X5146Y3198*
X5146Y3199*
X5147Y3199*
X5148Y3199*
X5149Y3199*
X5150Y3199*
X5150Y3199*
X5151Y3199*
X5151Y3199*
X5151Y3200*
X5152*
X5152Y3199*
G37*
G36*
X5201Y3196D02*
X5189D01*
X5189Y3195*
X5190Y3195*
X5190Y3195*
X5190Y3195*
X5190Y3195*
X5190Y3194*
X5190Y3194*
X5190Y3194*
X5191Y3194*
X5191Y3194*
X5191Y3194*
X5192Y3193*
X5192Y3192*
X5193Y3192*
X5193Y3192*
X5193Y3192*
X5194Y3191*
X5194Y3191*
X5194Y3191*
X5194Y3191*
X5194Y3191*
X5195Y3190*
X5196Y3190*
X5196Y3189*
X5196Y3189*
X5197Y3188*
X5197Y3188*
X5198Y3188*
X5198Y3188*
X5198Y3187*
X5198Y3187*
X5198Y3187*
X5199Y3187*
X5199Y3187*
X5199Y3187*
Y3187*
X5199Y3186*
X5200Y3185*
X5200Y3185*
X5200Y3184*
X5201Y3184*
X5201Y3184*
X5201Y3184*
X5201Y3184*
X5201Y3183*
X5201Y3182*
X5201Y3182*
X5201Y3181*
X5201Y3181*
X5201Y3181*
Y3181*
Y3180*
X5201Y3180*
X5201Y3179*
X5201Y3179*
X5201Y3178*
X5201Y3178*
X5201Y3177*
X5200Y3177*
X5200Y3176*
X5200Y3176*
X5200Y3176*
X5200Y3176*
X5199Y3176*
X5199Y3176*
X5199Y3175*
X5199Y3175*
X5199Y3175*
X5198Y3175*
X5198Y3174*
X5197Y3174*
X5197Y3174*
X5196Y3174*
X5196Y3174*
X5195Y3174*
X5195Y3173*
X5194Y3173*
X5194Y3173*
X5194Y3173*
X5193*
X5193Y3173*
X5192Y3173*
X5191Y3174*
X5191Y3174*
X5190Y3174*
X5190Y3174*
X5190Y3174*
X5189Y3174*
X5189Y3174*
X5188Y3175*
X5188Y3175*
X5188Y3175*
X5188Y3175*
X5188Y3175*
X5188Y3175*
X5188Y3175*
X5187Y3176*
X5187Y3176*
X5187Y3176*
X5186Y3177*
X5186Y3177*
X5186Y3178*
X5186Y3179*
X5185Y3179*
X5185Y3180*
X5185Y3180*
X5185Y3180*
X5185Y3180*
Y3181*
X5185Y3181*
Y3181*
X5188Y3181*
X5188Y3180*
X5189Y3179*
X5189Y3179*
X5189Y3178*
X5189Y3178*
X5189Y3178*
X5190Y3177*
X5190Y3177*
X5190Y3177*
X5191Y3177*
X5191Y3176*
X5192Y3176*
X5193Y3176*
X5193Y3176*
X5193*
X5193Y3176*
X5193*
X5194Y3176*
X5195Y3176*
X5195Y3176*
X5196Y3177*
X5196Y3177*
X5197Y3177*
X5197Y3177*
X5197Y3177*
X5197Y3178*
X5198Y3178*
X5198Y3179*
X5198Y3179*
X5198Y3180*
X5198Y3180*
X5198Y3180*
Y3180*
Y3180*
Y3180*
Y3181*
X5198Y3181*
X5198Y3182*
X5198Y3182*
X5197Y3183*
X5197Y3183*
X5197Y3184*
X5197Y3184*
X5197Y3184*
X5197Y3184*
X5197Y3184*
X5197Y3184*
X5196Y3185*
X5196Y3185*
X5196Y3185*
X5195Y3186*
X5194Y3187*
X5193Y3188*
X5193Y3188*
X5192Y3188*
X5192Y3189*
X5192Y3189*
X5191Y3189*
X5191Y3189*
X5191Y3190*
X5191Y3190*
X5190Y3190*
X5189Y3191*
X5189Y3192*
X5188Y3192*
X5188Y3193*
X5187Y3193*
X5187Y3193*
X5187Y3193*
X5187Y3193*
X5187Y3194*
X5186Y3194*
X5186Y3195*
X5186Y3195*
X5185Y3196*
X5185Y3196*
X5185Y3197*
X5185Y3197*
X5185Y3197*
X5185Y3197*
Y3197*
X5185Y3197*
X5185Y3198*
X5185Y3198*
X5185Y3198*
X5184Y3199*
Y3199*
Y3199*
Y3199*
X5201*
Y3196*
G37*
G36*
X5182D02*
X5169D01*
X5169Y3195*
X5170Y3195*
X5170Y3195*
X5170Y3195*
X5170Y3195*
X5170Y3194*
X5170Y3194*
X5170Y3194*
X5171Y3194*
X5171Y3194*
X5171Y3194*
X5172Y3193*
X5172Y3192*
X5173Y3192*
X5173Y3192*
X5173Y3192*
X5174Y3191*
X5174Y3191*
X5174Y3191*
X5174Y3191*
X5175Y3191*
X5175Y3190*
X5176Y3190*
X5176Y3189*
X5177Y3189*
X5177Y3188*
X5177Y3188*
X5178Y3188*
X5178Y3188*
X5178Y3187*
X5178Y3187*
X5179Y3187*
X5179Y3187*
X5179Y3187*
X5179Y3187*
Y3187*
X5179Y3186*
X5180Y3185*
X5180Y3185*
X5180Y3184*
X5181Y3184*
X5181Y3184*
X5181Y3184*
X5181Y3184*
X5181Y3183*
X5181Y3182*
X5181Y3182*
X5181Y3181*
X5181Y3181*
X5182Y3181*
Y3181*
Y3180*
X5181Y3180*
X5181Y3179*
X5181Y3179*
X5181Y3178*
X5181Y3178*
X5181Y3177*
X5180Y3177*
X5180Y3176*
X5180Y3176*
X5180Y3176*
X5180Y3176*
X5180Y3176*
X5179Y3176*
X5179Y3175*
X5179Y3175*
X5179Y3175*
X5178Y3175*
X5178Y3174*
X5178Y3174*
X5177Y3174*
X5177Y3174*
X5176Y3174*
X5175Y3174*
X5175Y3173*
X5174Y3173*
X5174Y3173*
X5174Y3173*
X5174*
X5173Y3173*
X5172Y3173*
X5172Y3174*
X5171Y3174*
X5171Y3174*
X5170Y3174*
X5170Y3174*
X5169Y3174*
X5169Y3174*
X5169Y3175*
X5168Y3175*
X5168Y3175*
X5168Y3175*
X5168Y3175*
X5168Y3175*
X5168Y3175*
X5167Y3176*
X5167Y3176*
X5167Y3176*
X5166Y3177*
X5166Y3177*
X5166Y3178*
X5166Y3179*
X5166Y3179*
X5165Y3180*
X5165Y3180*
X5165Y3180*
X5165Y3180*
Y3181*
X5165Y3181*
Y3181*
X5168Y3181*
X5169Y3180*
X5169Y3179*
X5169Y3179*
X5169Y3178*
X5169Y3178*
X5170Y3178*
X5170Y3177*
X5170Y3177*
X5170Y3177*
X5171Y3177*
X5172Y3176*
X5172Y3176*
X5173Y3176*
X5173Y3176*
X5173*
X5173Y3176*
X5173*
X5174Y3176*
X5175Y3176*
X5176Y3176*
X5176Y3177*
X5176Y3177*
X5177Y3177*
X5177Y3177*
X5177Y3177*
X5177Y3178*
X5178Y3178*
X5178Y3179*
X5178Y3179*
X5178Y3180*
X5178Y3180*
X5178Y3180*
Y3180*
Y3180*
Y3180*
Y3181*
X5178Y3181*
X5178Y3182*
X5178Y3182*
X5178Y3183*
X5177Y3183*
X5177Y3184*
X5177Y3184*
X5177Y3184*
X5177Y3184*
X5177Y3184*
X5177Y3184*
X5177Y3185*
X5176Y3185*
X5176Y3185*
X5175Y3186*
X5174Y3187*
X5173Y3188*
X5173Y3188*
X5173Y3188*
X5172Y3189*
X5172Y3189*
X5172Y3189*
X5171Y3189*
X5171Y3190*
X5171Y3190*
X5170Y3190*
X5169Y3191*
X5169Y3192*
X5168Y3192*
X5168Y3193*
X5167Y3193*
X5167Y3193*
X5167Y3193*
X5167Y3193*
X5167Y3194*
X5167Y3194*
X5166Y3195*
X5166Y3195*
X5165Y3196*
X5165Y3196*
X5165Y3197*
X5165Y3197*
X5165Y3197*
X5165Y3197*
Y3197*
X5165Y3197*
X5165Y3198*
X5165Y3198*
X5165Y3198*
X5165Y3199*
Y3199*
Y3199*
Y3199*
X5182*
Y3196*
G37*
G36*
X6240Y4740D02*
X6230D01*
X6229Y4740*
X6229Y4740*
X6228Y4740*
X6227Y4740*
X6227Y4740*
X6227Y4740*
X6226Y4740*
X6226Y4740*
X6226*
X6226Y4740*
X6226*
X6226Y4740*
X6225Y4740*
X6224Y4741*
X6224Y4741*
X6224Y4741*
X6223Y4741*
X6223Y4741*
X6223Y4741*
X6223Y4742*
X6222Y4742*
X6222Y4742*
X6221Y4743*
X6221Y4743*
X6221Y4743*
X6221Y4743*
X6221Y4744*
X6220Y4744*
X6220Y4745*
X6220Y4745*
X6219Y4746*
X6219Y4746*
X6219Y4747*
X6219Y4747*
X6219Y4747*
X6219Y4747*
X6219Y4747*
Y4747*
X6219Y4748*
X6219Y4749*
X6218Y4750*
X6218Y4751*
X6218Y4751*
X6218Y4751*
Y4752*
X6218Y4752*
Y4752*
Y4752*
Y4752*
Y4752*
X6218Y4754*
X6218Y4755*
X6219Y4755*
X6219Y4756*
X6219Y4756*
X6219Y4757*
X6219Y4757*
X6219Y4757*
X6219Y4758*
X6219Y4758*
X6219Y4758*
X6219Y4758*
X6219Y4758*
Y4759*
X6220Y4759*
X6220Y4760*
X6221Y4761*
X6221Y4762*
X6221Y4762*
X6222Y4762*
X6222Y4762*
X6222Y4763*
X6222Y4763*
X6222Y4763*
X6222Y4763*
X6222Y4763*
X6223Y4763*
X6224Y4764*
X6224Y4764*
X6225Y4764*
X6225Y4764*
X6226Y4765*
X6226Y4765*
X6226Y4765*
X6226Y4765*
X6226Y4765*
X6226*
X6227Y4765*
X6228Y4765*
X6228Y4765*
X6229Y4765*
X6230*
X6230Y4765*
X6240*
Y4740*
G37*
G36*
X6215Y4762D02*
X6202D01*
X6203Y4761*
X6204Y4760*
X6205Y4758*
X6205Y4757*
X6206Y4757*
X6206Y4756*
X6206Y4756*
X6206Y4756*
X6207Y4755*
X6207Y4755*
X6207Y4755*
X6207Y4755*
X6207Y4754*
X6208Y4752*
X6209Y4751*
X6209Y4750*
X6209Y4749*
X6209Y4749*
X6210Y4748*
X6210Y4748*
X6210Y4747*
X6210Y4747*
X6210Y4747*
X6210Y4747*
Y4747*
X6210Y4746*
X6210Y4745*
X6211Y4744*
X6211Y4744*
X6211Y4743*
X6211Y4743*
X6211Y4742*
X6211Y4742*
X6211Y4741*
X6211Y4741*
X6211Y4740*
Y4740*
X6211Y4740*
Y4740*
Y4740*
Y4740*
X6208*
X6208Y4741*
X6208Y4742*
X6208Y4743*
X6207Y4743*
X6207Y4744*
X6207Y4744*
X6207Y4745*
X6207Y4745*
X6207Y4746*
X6207Y4746*
X6207Y4746*
X6207Y4746*
X6207Y4746*
Y4747*
X6206Y4748*
X6206Y4750*
X6205Y4751*
X6205Y4751*
X6205Y4752*
X6204Y4753*
X6204Y4753*
X6204Y4754*
X6204Y4754*
X6203Y4755*
X6203Y4755*
X6203Y4755*
X6203Y4755*
X6203Y4755*
X6203Y4756*
X6202Y4757*
X6202Y4758*
X6201Y4758*
X6201Y4759*
X6200Y4759*
X6200Y4760*
X6200Y4760*
X6199Y4761*
X6199Y4761*
X6199Y4762*
X6199Y4762*
X6198Y4762*
X6198Y4762*
X6198Y4762*
X6198Y4762*
Y4765*
X6215*
Y4762*
G37*
G36*
X5220Y2750D02*
X5219Y2749D01*
X5219Y2749*
X5219Y2748*
X5219Y2747*
X5219Y2747*
X5219Y2747*
X5219Y2746*
X5219Y2746*
Y2746*
X5219Y2746*
Y2746*
X5219Y2746*
X5219Y2745*
X5218Y2744*
X5218Y2744*
X5218Y2744*
X5218Y2743*
X5218Y2743*
X5218Y2743*
X5217Y2743*
X5217Y2742*
X5217Y2742*
X5216Y2741*
X5216Y2741*
X5216Y2741*
X5216Y2741*
X5215Y2741*
X5215Y2740*
X5214Y2740*
X5214Y2740*
X5213Y2739*
X5213Y2739*
X5212Y2739*
X5212Y2739*
X5212Y2739*
X5212Y2739*
X5212Y2739*
X5212*
X5211Y2739*
X5210Y2739*
X5209Y2738*
X5208Y2738*
X5208Y2738*
X5208Y2738*
X5207*
X5207Y2738*
X5207*
X5207*
X5207*
X5207*
X5205Y2738*
X5204Y2738*
X5204Y2739*
X5203Y2739*
X5203Y2739*
X5202Y2739*
X5202Y2739*
X5202Y2739*
X5201Y2739*
X5201Y2739*
X5201Y2739*
X5201Y2739*
X5201Y2739*
X5200*
X5200Y2740*
X5199Y2740*
X5198Y2741*
X5197Y2741*
X5197Y2741*
X5197Y2742*
X5197Y2742*
X5196Y2742*
X5196Y2742*
X5196Y2742*
X5196Y2742*
X5196Y2742*
X5196Y2743*
X5195Y2744*
X5195Y2744*
X5195Y2745*
X5195Y2745*
X5194Y2746*
X5194Y2746*
X5194Y2746*
X5194Y2746*
X5194Y2746*
Y2746*
X5194Y2747*
X5194Y2748*
X5194Y2748*
X5194Y2749*
Y2750*
X5194Y2750*
Y2760*
X5220*
Y2750*
G37*
G36*
Y2725D02*
X5216D01*
Y2729*
X5220*
Y2725*
G37*
G36*
X5201Y2732D02*
X5200Y2731D01*
X5200Y2731*
X5199Y2731*
X5198Y2731*
X5198Y2730*
X5198Y2730*
X5197Y2730*
X5197Y2730*
X5197Y2729*
X5197Y2729*
X5196Y2728*
X5196Y2728*
X5196Y2727*
X5196Y2727*
X5196Y2727*
Y2727*
X5196Y2726*
X5196Y2725*
X5196Y2724*
X5197Y2724*
X5197Y2724*
X5197Y2723*
X5197Y2723*
X5197Y2723*
X5197*
X5198Y2723*
X5198Y2723*
X5199Y2722*
X5199Y2722*
X5200Y2722*
X5200Y2722*
X5200Y2722*
X5201Y2722*
X5201*
X5201*
X5201*
X5201Y2722*
X5201Y2722*
X5202Y2722*
X5202Y2722*
X5202Y2722*
X5202Y2722*
X5203Y2722*
X5203Y2722*
X5203Y2722*
X5203Y2723*
X5204Y2723*
X5204Y2723*
X5204Y2724*
X5205Y2724*
X5205Y2724*
X5205Y2724*
X5205Y2724*
X5205Y2725*
X5206Y2725*
X5206Y2726*
X5206Y2726*
X5207Y2726*
X5207Y2726*
X5207Y2726*
X5207Y2726*
X5207Y2727*
X5208Y2727*
X5208Y2727*
X5208Y2727*
X5209Y2728*
X5209Y2728*
X5209Y2728*
X5209Y2728*
X5210Y2728*
X5210Y2728*
X5211Y2728*
X5211Y2728*
X5212Y2728*
X5212Y2728*
X5212*
X5212*
X5212*
X5212*
X5213*
X5213Y2728*
X5213*
X5213*
X5213*
X5213*
Y2725*
X5213Y2725*
X5212Y2725*
X5212Y2725*
X5211Y2725*
X5211Y2725*
X5211Y2725*
X5211Y2725*
X5210*
X5210Y2725*
X5210Y2725*
X5209Y2725*
X5209Y2724*
X5209Y2724*
X5209Y2724*
X5209Y2724*
X5209Y2724*
X5208Y2724*
X5208Y2723*
X5208Y2723*
X5207Y2723*
X5207Y2722*
X5207Y2722*
X5207Y2722*
X5207Y2722*
X5206Y2721*
X5206Y2721*
X5205Y2720*
X5205Y2720*
X5204Y2720*
X5204Y2719*
X5204Y2719*
X5204Y2719*
X5203Y2719*
X5202Y2719*
X5202Y2719*
X5201Y2718*
X5201Y2718*
X5201Y2718*
X5201*
X5201*
X5200*
X5200*
X5200Y2718*
X5199Y2718*
X5199Y2719*
X5198Y2719*
X5198Y2719*
X5197Y2719*
X5197Y2719*
X5197Y2720*
X5196Y2720*
X5196Y2720*
X5196Y2720*
X5196Y2720*
X5196Y2720*
X5196Y2721*
X5196Y2721*
X5195Y2721*
X5195Y2721*
X5195Y2722*
X5194Y2722*
X5194Y2723*
X5194Y2723*
X5194Y2724*
X5194Y2725*
X5194Y2725*
X5194Y2726*
X5193Y2726*
X5193Y2726*
Y2727*
X5193Y2727*
X5194Y2728*
X5194Y2728*
X5194Y2729*
X5194Y2729*
X5194Y2730*
X5194Y2730*
X5194Y2731*
X5195Y2731*
X5195Y2731*
X5195Y2732*
X5195Y2732*
X5195Y2732*
X5195Y2732*
X5195Y2732*
X5195Y2732*
X5196Y2733*
X5196Y2733*
X5197Y2733*
X5197Y2734*
X5198Y2734*
X5199Y2734*
X5199Y2734*
X5200Y2735*
X5200Y2735*
X5200Y2735*
X5201Y2735*
X5201Y2735*
X5201Y2735*
X5201*
X5201Y2732*
G37*
G36*
X4559Y2496D02*
X4575D01*
Y2493*
X4559Y2481*
X4556*
Y2493*
X4550*
Y2496*
X4556*
Y2499*
X4559*
Y2496*
G37*
G36*
Y2476D02*
X4575D01*
Y2473*
X4559Y2462*
X4556*
Y2473*
X4550*
Y2476*
X4556*
Y2479*
X4559*
Y2476*
G37*
G36*
X4556Y2456D02*
X4557Y2456D01*
X4558Y2455*
X4558Y2455*
X4559Y2454*
X4559Y2454*
X4560Y2454*
X4560Y2453*
X4560Y2453*
Y2453*
X4560Y2453*
X4560Y2453*
X4561Y2452*
X4561Y2452*
X4561Y2452*
X4561Y2451*
X4561Y2451*
X4561Y2452*
X4561Y2453*
X4562Y2453*
X4562Y2454*
X4562Y2454*
X4562Y2455*
X4562Y2455*
X4562Y2456*
X4563Y2456*
X4563Y2456*
X4563Y2456*
X4563Y2457*
X4563Y2457*
X4563Y2457*
X4563Y2457*
X4563Y2457*
X4564Y2457*
X4564Y2457*
X4565Y2458*
X4565Y2458*
X4566Y2458*
X4566Y2458*
X4567Y2459*
X4567Y2459*
X4568Y2459*
X4568Y2459*
X4568*
X4568*
X4568*
X4569Y2459*
X4570Y2458*
X4570Y2458*
X4571Y2458*
X4571Y2458*
X4572Y2458*
X4572Y2458*
X4572Y2458*
X4572Y2458*
X4572*
X4573Y2457*
X4573Y2457*
X4574Y2456*
X4574Y2456*
X4574Y2455*
X4574Y2455*
X4574Y2455*
X4574Y2455*
X4574Y2455*
Y2455*
X4575Y2454*
X4575Y2454*
X4575Y2453*
X4575Y2452*
X4575Y2451*
X4575Y2451*
X4575Y2451*
Y2450*
X4575Y2450*
Y2438*
X4550*
Y2442*
X4561*
Y2446*
X4561Y2446*
Y2447*
X4561Y2447*
X4561Y2447*
Y2447*
X4561Y2447*
Y2447*
X4561Y2448*
X4560Y2448*
X4560Y2448*
X4560Y2449*
X4560Y2449*
X4560Y2449*
X4560Y2449*
X4560Y2449*
X4560Y2449*
X4559Y2450*
X4559Y2450*
X4559Y2450*
X4558Y2450*
X4558Y2451*
X4558Y2451*
X4558Y2451*
X4557Y2451*
X4557Y2452*
X4556Y2452*
X4556Y2453*
X4555Y2453*
X4555Y2453*
X4555Y2453*
X4555Y2453*
X4555Y2453*
X4555*
X4550Y2456*
Y2461*
X4556Y2456*
G37*
G36*
X5749Y3300D02*
X5760D01*
Y3296*
X5749*
X5734Y3286*
Y3290*
X5741Y3295*
X5742Y3296*
X5743Y3296*
X5744Y3297*
X5745Y3297*
X5745Y3297*
X5745Y3297*
X5745Y3297*
X5746Y3298*
X5746Y3298*
X5746Y3298*
X5746Y3298*
X5746*
X5745Y3298*
X5744Y3299*
X5744Y3299*
X5743Y3300*
X5742Y3300*
X5742Y3300*
X5742Y3300*
X5742Y3300*
X5742Y3300*
X5742Y3300*
X5742Y3300*
X5734Y3305*
Y3310*
X5749Y3300*
G37*
G36*
X5743Y3281D02*
X5743Y3281D01*
X5743Y3280*
X5742Y3280*
X5742Y3279*
X5742Y3279*
X5742Y3279*
X5742Y3279*
X5742Y3279*
Y3279*
X5741Y3278*
X5741Y3277*
X5740Y3277*
X5740Y3276*
X5740Y3276*
X5740Y3276*
X5740Y3276*
X5739Y3276*
X5760*
Y3272*
X5734*
Y3274*
X5734Y3275*
X5735Y3275*
X5736Y3276*
X5736Y3276*
X5737Y3277*
X5737Y3277*
X5737Y3277*
X5737Y3277*
X5737Y3277*
X5737Y3277*
X5738Y3278*
X5738Y3279*
X5739Y3280*
X5739Y3280*
X5740Y3281*
X5740Y3281*
X5740Y3281*
X5740Y3282*
X5740Y3282*
X5740Y3282*
Y3282*
X5743*
X5743Y3281*
G37*
G36*
X4522Y3006D02*
X4519Y3006D01*
X4519Y3006*
X4518Y3006*
X4518Y3007*
X4518Y3007*
X4517Y3007*
X4517Y3007*
X4517Y3008*
X4517Y3008*
X4517Y3008*
X4516Y3008*
X4516Y3008*
X4515Y3008*
X4515Y3008*
X4514Y3008*
X4514*
X4513Y3008*
X4513Y3008*
X4512Y3008*
X4511Y3008*
X4511Y3007*
X4511Y3007*
X4510Y3007*
X4510Y3007*
X4510Y3007*
Y3007*
X4510Y3006*
X4510Y3006*
X4509Y3005*
X4509Y3005*
X4509Y3004*
X4509Y3003*
X4509Y3003*
Y3003*
X4509Y3003*
Y3003*
Y3002*
Y3002*
Y3002*
X4509Y3001*
X4509Y3001*
X4509Y3000*
X4510Y2999*
X4510Y2999*
X4510Y2999*
X4510Y2998*
X4510Y2998*
X4510Y2998*
X4510Y2998*
X4510Y2998*
X4510Y2998*
X4511Y2998*
X4511Y2997*
X4511Y2997*
X4512Y2997*
X4512Y2997*
X4513Y2996*
X4513Y2996*
X4514Y2996*
X4514Y2996*
X4514Y2996*
X4514*
X4515Y2996*
X4515Y2996*
X4516Y2997*
X4517Y2997*
X4517Y2997*
X4517Y2997*
X4517Y2997*
X4517Y2997*
X4518Y2998*
X4518Y2998*
X4519Y2999*
X4519Y3000*
X4519Y3000*
X4519Y3000*
X4519Y3001*
X4519Y3001*
Y3001*
X4519Y3001*
Y3001*
X4522Y3001*
X4522Y3000*
X4522Y3000*
X4522Y2999*
X4522Y2999*
X4522Y2998*
X4521Y2998*
X4521Y2997*
X4521Y2997*
X4521Y2997*
X4521Y2996*
X4520Y2996*
X4520Y2996*
X4520Y2996*
X4520Y2996*
X4520Y2996*
X4520Y2996*
X4519Y2995*
X4519Y2995*
X4519Y2995*
X4518Y2994*
X4518Y2994*
X4517Y2994*
X4516Y2994*
X4516Y2994*
X4515Y2994*
X4515Y2994*
X4515Y2994*
X4515Y2994*
X4514*
X4513Y2994*
X4513Y2994*
X4512Y2994*
X4511Y2994*
X4511Y2994*
X4510Y2995*
X4510Y2995*
X4509Y2995*
X4509Y2995*
X4508Y2996*
X4508Y2996*
X4508Y2996*
X4508Y2996*
X4508Y2997*
X4507Y2997*
X4507Y2997*
X4507Y2997*
X4507Y2998*
X4507Y2998*
X4506Y2999*
X4506Y2999*
X4506Y3000*
X4506Y3001*
X4506Y3001*
X4506Y3001*
X4505Y3002*
X4505Y3002*
X4505Y3002*
Y3003*
Y3003*
Y3003*
X4505Y3003*
X4506Y3004*
X4506Y3005*
X4506Y3005*
X4506Y3006*
X4506Y3006*
X4506Y3007*
X4507Y3007*
X4507Y3007*
X4507Y3008*
X4507Y3008*
X4507Y3008*
X4508Y3008*
X4508Y3009*
X4508Y3009*
X4508Y3009*
X4508Y3009*
X4509Y3009*
X4509Y3010*
X4510Y3010*
X4510Y3010*
X4511Y3010*
X4511Y3011*
X4511Y3011*
X4512Y3011*
X4512Y3011*
X4513Y3011*
X4513Y3011*
X4513Y3011*
X4513*
X4514Y3011*
X4514Y3011*
X4515Y3011*
X4516Y3011*
X4517Y3010*
X4517Y3010*
X4517Y3010*
X4518Y3010*
X4518Y3010*
X4518Y3010*
X4518Y3009*
X4518Y3009*
X4518Y3009*
X4517Y3016*
X4507*
Y3019*
X4519*
X4522Y3006*
G37*
G36*
X4539Y3020D02*
X4539Y3020D01*
X4540Y3020*
X4541Y3020*
X4541Y3020*
X4542Y3019*
X4542Y3019*
X4543Y3019*
X4543Y3019*
X4543Y3019*
X4544Y3019*
X4544Y3019*
X4544Y3019*
X4544Y3019*
X4544Y3018*
X4545Y3018*
X4545Y3018*
X4546Y3017*
X4547Y3016*
X4547Y3015*
X4548Y3015*
X4548Y3015*
X4548Y3014*
X4548Y3014*
X4548Y3014*
X4549Y3014*
X4549Y3014*
X4549Y3014*
X4549Y3013*
X4549Y3013*
X4550Y3011*
X4550Y3010*
X4550Y3010*
X4550Y3009*
X4550Y3009*
X4550Y3008*
X4550Y3008*
Y3007*
X4550Y3007*
Y3007*
Y3007*
Y3007*
X4550Y3006*
X4550Y3005*
X4550Y3004*
X4550Y3004*
X4550Y3003*
X4550Y3002*
X4549Y3002*
X4549Y3002*
X4549Y3001*
X4549Y3001*
X4549Y3001*
X4549Y3000*
X4549Y3000*
X4549Y3000*
Y3000*
X4548Y2999*
X4548Y2998*
X4547Y2998*
X4547Y2998*
X4547Y2997*
X4546Y2997*
X4546Y2996*
X4546Y2996*
X4545Y2996*
X4545Y2996*
X4545Y2996*
X4545Y2995*
X4544Y2995*
X4544Y2995*
X4544Y2995*
X4544Y2995*
X4543Y2995*
X4543Y2995*
X4542Y2994*
X4541Y2994*
X4540Y2994*
X4540Y2994*
X4539Y2994*
X4539Y2994*
X4539Y2994*
X4538Y2994*
X4538*
X4537Y2994*
X4537Y2994*
X4536Y2994*
X4535Y2994*
X4534Y2994*
X4534Y2994*
X4534Y2994*
X4533Y2995*
X4533Y2995*
X4532Y2995*
X4532Y2995*
X4532Y2995*
X4532Y2995*
X4532Y2995*
X4532*
X4531Y2994*
X4530Y2994*
X4529Y2993*
X4528Y2993*
X4528Y2993*
X4527Y2993*
X4527Y2992*
X4527Y2992*
X4526Y2992*
X4526Y2992*
X4526Y2992*
X4526*
X4525Y2994*
X4526Y2995*
X4527Y2995*
X4527Y2995*
X4528Y2996*
X4529Y2996*
X4529Y2996*
X4529Y2997*
X4529Y2997*
X4529Y2997*
X4530Y2997*
X4530Y2997*
X4529Y2998*
X4528Y2998*
X4528Y2999*
X4527Y3000*
X4527Y3000*
X4527Y3001*
X4527Y3001*
X4527Y3001*
X4527Y3001*
X4527Y3001*
Y3001*
X4526Y3002*
X4526Y3003*
X4526Y3004*
X4526Y3005*
X4526Y3005*
X4526Y3006*
Y3006*
X4526Y3006*
Y3007*
Y3007*
Y3007*
Y3007*
Y3008*
X4526Y3008*
X4526Y3010*
X4526Y3010*
X4526Y3011*
X4526Y3011*
X4526Y3012*
X4527Y3012*
X4527Y3013*
X4527Y3013*
X4527Y3013*
X4527Y3013*
X4527Y3014*
X4527Y3014*
X4527Y3014*
X4528Y3015*
X4528Y3015*
X4528Y3016*
X4529Y3016*
X4529Y3017*
X4530Y3017*
X4530Y3017*
X4530Y3017*
X4531Y3018*
X4531Y3018*
X4531Y3018*
X4531Y3018*
X4531Y3018*
X4532Y3018*
X4532Y3018*
X4532Y3019*
X4533Y3019*
X4533Y3019*
X4534Y3019*
X4535Y3020*
X4536Y3020*
X4536Y3020*
X4537Y3020*
X4537Y3020*
X4537Y3020*
X4538Y3020*
X4538*
X4539Y3020*
G37*
G36*
X5595Y2955D02*
X5595Y2954D01*
X5595Y2954*
X5596Y2953*
X5596Y2953*
X5597Y2953*
X5597Y2952*
X5597Y2952*
X5597Y2952*
X5597Y2952*
X5598Y2952*
X5598Y2951*
X5599Y2950*
X5600Y2950*
X5601Y2950*
X5601Y2950*
X5601Y2949*
X5601Y2949*
X5601Y2949*
X5601Y2949*
X5602*
Y2946*
X5601Y2946*
X5600Y2947*
X5600Y2947*
X5599Y2947*
X5599Y2947*
X5599Y2948*
X5598Y2948*
X5598Y2948*
X5598Y2948*
X5598*
X5598Y2948*
X5597Y2949*
X5596Y2949*
X5596Y2949*
X5596Y2950*
X5595Y2950*
X5595Y2950*
X5595Y2950*
Y2930*
X5592*
Y2956*
X5594*
X5595Y2955*
G37*
G36*
X5619Y2956D02*
X5620Y2956D01*
X5621Y2955*
X5621Y2955*
X5622Y2955*
X5622Y2955*
X5623Y2955*
X5623Y2955*
X5623Y2955*
X5623Y2955*
X5624Y2954*
X5624Y2954*
X5624Y2954*
X5624Y2954*
X5625Y2954*
X5626Y2953*
X5626Y2952*
X5627Y2952*
X5627Y2951*
X5627Y2951*
X5628Y2951*
X5628Y2950*
X5628Y2950*
X5628Y2950*
X5628Y2950*
X5628Y2950*
X5628Y2949*
X5629Y2949*
X5629Y2948*
X5629Y2946*
X5629Y2946*
X5629Y2945*
X5629Y2945*
X5629Y2944*
X5629Y2944*
Y2944*
X5630Y2943*
Y2943*
Y2943*
Y2943*
X5629Y2942*
X5629Y2940*
X5629Y2940*
X5629Y2939*
X5629Y2939*
X5629Y2938*
X5629Y2938*
X5629Y2937*
X5628Y2937*
X5628Y2937*
X5628Y2936*
X5628Y2936*
X5628Y2936*
Y2936*
X5628Y2935*
X5628Y2935*
X5627Y2934*
X5627Y2934*
X5627Y2934*
X5626Y2933*
X5626Y2933*
X5626Y2932*
X5625Y2932*
X5625Y2932*
X5625Y2932*
X5625Y2932*
X5624Y2931*
X5624Y2931*
X5624Y2931*
X5624Y2931*
X5624Y2931*
X5623Y2931*
X5623Y2930*
X5622Y2930*
X5621Y2930*
X5620Y2930*
X5619Y2930*
X5619Y2930*
X5618Y2930*
X5618Y2930*
X5618Y2930*
X5617*
X5617Y2930*
X5616Y2930*
X5615Y2930*
X5615Y2930*
X5614Y2930*
X5614Y2930*
X5613Y2930*
X5613Y2931*
X5612Y2931*
X5612Y2931*
X5611Y2931*
X5611Y2931*
X5611Y2931*
X5611Y2932*
X5611Y2932*
X5611Y2932*
X5610Y2932*
X5610Y2933*
X5609Y2933*
X5609Y2934*
X5609Y2934*
X5608Y2935*
X5608Y2935*
X5608Y2936*
X5607Y2936*
X5607Y2937*
X5607Y2937*
X5607Y2937*
X5607Y2938*
X5607Y2938*
X5607Y2938*
Y2938*
X5610Y2939*
X5610Y2938*
X5611Y2938*
X5611Y2937*
X5611Y2937*
X5611Y2936*
X5611Y2936*
X5612Y2936*
X5612Y2935*
X5612Y2935*
X5612Y2935*
X5612Y2934*
X5613Y2934*
X5613Y2934*
X5613Y2934*
X5613Y2934*
X5613Y2934*
X5613Y2934*
X5614Y2934*
X5614Y2933*
X5615Y2933*
X5615Y2933*
X5616Y2933*
X5616Y2933*
X5617Y2933*
X5617Y2932*
X5617Y2932*
X5617Y2932*
X5618*
X5619Y2932*
X5619Y2933*
X5620Y2933*
X5621Y2933*
X5621Y2933*
X5622Y2933*
X5622Y2933*
X5622Y2934*
X5622Y2934*
X5622Y2934*
X5622*
X5623Y2934*
X5623Y2935*
X5624Y2935*
X5624Y2936*
X5625Y2936*
X5625Y2937*
X5625Y2937*
X5625Y2937*
X5625Y2937*
X5625Y2937*
Y2937*
X5625Y2938*
X5626Y2939*
X5626Y2940*
X5626Y2941*
X5626Y2941*
Y2942*
X5626Y2942*
X5626Y2942*
Y2943*
Y2943*
Y2943*
Y2943*
X5626Y2944*
X5626Y2945*
X5626Y2946*
X5626Y2946*
X5626Y2947*
X5625Y2947*
X5625Y2947*
X5625Y2947*
X5625Y2948*
X5625Y2948*
X5625Y2948*
Y2948*
X5625Y2949*
X5624Y2949*
X5624Y2950*
X5624Y2951*
X5623Y2951*
X5623Y2951*
X5623Y2952*
X5623Y2952*
X5622Y2952*
X5622*
X5622Y2952*
X5622Y2952*
X5621Y2952*
X5620Y2953*
X5619Y2953*
X5619Y2953*
X5619Y2953*
X5618Y2953*
X5618*
X5618Y2953*
X5617*
X5617Y2953*
X5616Y2953*
X5615Y2953*
X5614Y2952*
X5614Y2952*
X5614Y2952*
X5613Y2952*
X5613Y2952*
X5613Y2952*
X5613Y2952*
X5613*
X5613Y2952*
X5613Y2951*
X5612Y2951*
X5612Y2950*
X5611Y2949*
X5611Y2949*
X5611Y2948*
X5611Y2948*
X5611Y2948*
X5611Y2948*
X5611Y2948*
Y2948*
X5607Y2949*
X5607Y2949*
X5608Y2950*
X5608Y2950*
X5608Y2951*
X5609Y2951*
X5609Y2952*
X5609Y2952*
X5609Y2953*
X5610Y2953*
X5610Y2953*
X5610Y2953*
X5611Y2954*
X5611Y2954*
X5611Y2954*
X5611Y2954*
X5611Y2954*
X5611Y2954*
X5612Y2955*
X5613Y2955*
X5613Y2955*
X5614Y2955*
X5614Y2956*
X5615Y2956*
X5616Y2956*
X5616Y2956*
X5616Y2956*
X5617Y2956*
X5617Y2956*
X5618*
X5619Y2956*
G37*
G36*
X5576Y2956D02*
X5577Y2956D01*
X5577Y2955*
X5578Y2955*
X5578Y2955*
X5579Y2955*
X5579Y2955*
X5580Y2955*
X5580Y2955*
X5580Y2954*
X5580Y2954*
X5581Y2954*
X5581Y2954*
X5581Y2954*
X5581Y2954*
X5581Y2954*
X5581Y2953*
X5582Y2953*
X5582Y2953*
X5582Y2952*
X5582Y2952*
X5583Y2951*
X5583Y2951*
X5583Y2950*
X5583Y2950*
X5583Y2949*
X5583Y2949*
Y2949*
Y2949*
Y2949*
X5583Y2948*
X5583Y2948*
X5583Y2947*
X5583Y2947*
X5582Y2946*
X5582Y2946*
X5582Y2946*
X5582Y2946*
X5582Y2945*
X5581Y2945*
X5581Y2945*
X5580Y2944*
X5580Y2944*
X5580Y2944*
X5579Y2944*
X5579Y2944*
X5579Y2944*
X5579*
X5580Y2944*
X5581Y2943*
X5581Y2943*
X5582Y2942*
X5582Y2942*
X5583Y2942*
X5583Y2942*
X5583Y2942*
Y2941*
X5583Y2941*
X5584Y2940*
X5584Y2939*
X5584Y2939*
X5584Y2938*
X5584Y2938*
Y2938*
X5584Y2938*
Y2937*
Y2937*
Y2937*
X5584Y2937*
X5584Y2936*
X5584Y2936*
X5584Y2935*
X5584Y2935*
X5583Y2934*
X5583Y2934*
X5583Y2933*
X5583Y2933*
X5583Y2933*
X5582Y2932*
X5582Y2932*
X5582Y2932*
X5582Y2932*
X5582Y2932*
X5582Y2932*
X5581Y2931*
X5581Y2931*
X5580Y2931*
X5580Y2930*
X5579Y2930*
X5579Y2930*
X5578Y2930*
X5577Y2930*
X5577Y2930*
X5577Y2930*
X5576Y2930*
X5576Y2930*
X5576*
X5575Y2930*
X5574Y2930*
X5574Y2930*
X5573Y2930*
X5573Y2930*
X5572Y2930*
X5572Y2930*
X5571Y2931*
X5571Y2931*
X5570Y2931*
X5570Y2931*
X5570Y2931*
X5570Y2932*
X5570Y2932*
X5570Y2932*
X5570Y2932*
X5569Y2932*
X5569Y2933*
X5568Y2933*
X5568Y2934*
X5568Y2934*
X5568Y2934*
X5568Y2935*
X5568Y2935*
X5567Y2936*
X5567Y2936*
X5567Y2936*
X5567Y2937*
X5567Y2937*
Y2937*
Y2937*
Y2937*
X5567Y2938*
X5567Y2939*
X5568Y2940*
X5568Y2940*
X5568Y2941*
X5568Y2941*
X5568Y2941*
X5568Y2941*
X5568Y2941*
X5568Y2941*
Y2941*
X5569Y2942*
X5570Y2942*
X5570Y2943*
X5571Y2943*
X5571Y2943*
X5571Y2944*
X5572Y2944*
X5572Y2944*
X5572Y2944*
X5572Y2944*
X5572*
X5571Y2944*
X5571Y2944*
X5570Y2945*
X5570Y2945*
X5570Y2945*
X5569Y2946*
X5569Y2946*
X5569Y2946*
X5569Y2946*
X5569Y2947*
X5568Y2947*
X5568Y2948*
X5568Y2948*
X5568Y2949*
Y2949*
Y2949*
Y2949*
Y2949*
X5568Y2949*
X5568Y2950*
X5568Y2950*
X5569Y2951*
X5569Y2952*
X5569Y2952*
X5569Y2953*
X5570Y2953*
X5570Y2953*
X5570Y2953*
X5570Y2953*
X5570Y2954*
X5570Y2954*
X5570Y2954*
X5571Y2954*
X5571Y2954*
X5572Y2955*
X5572Y2955*
X5572Y2955*
X5573Y2955*
X5574Y2955*
X5574Y2955*
X5575Y2956*
X5575Y2956*
X5575Y2956*
X5575Y2956*
X5576*
X5576Y2956*
G37*
G36*
X5595Y3035D02*
X5595Y3034D01*
X5595Y3034*
X5596Y3033*
X5596Y3033*
X5597Y3033*
X5597Y3032*
X5597Y3032*
X5597Y3032*
X5597Y3032*
X5598Y3032*
X5598Y3031*
X5599Y3030*
X5600Y3030*
X5601Y3030*
X5601Y3030*
X5601Y3029*
X5601Y3029*
X5601Y3029*
X5601Y3029*
X5602*
Y3026*
X5601Y3026*
X5600Y3027*
X5600Y3027*
X5599Y3027*
X5599Y3027*
X5599Y3028*
X5598Y3028*
X5598Y3028*
X5598Y3028*
X5598*
X5598Y3028*
X5597Y3029*
X5596Y3029*
X5596Y3029*
X5596Y3030*
X5595Y3030*
X5595Y3030*
X5595Y3030*
Y3010*
X5592*
Y3036*
X5594*
X5595Y3035*
G37*
G36*
X5619Y3036D02*
X5620Y3036D01*
X5621Y3035*
X5621Y3035*
X5622Y3035*
X5622Y3035*
X5623Y3035*
X5623Y3035*
X5623Y3035*
X5623Y3035*
X5624Y3034*
X5624Y3034*
X5624Y3034*
X5624Y3034*
X5625Y3034*
X5626Y3033*
X5626Y3032*
X5627Y3032*
X5627Y3031*
X5627Y3031*
X5628Y3031*
X5628Y3030*
X5628Y3030*
X5628Y3030*
X5628Y3030*
X5628Y3030*
X5628Y3029*
X5629Y3029*
X5629Y3028*
X5629Y3026*
X5629Y3026*
X5629Y3025*
X5629Y3025*
X5629Y3024*
X5629Y3024*
Y3024*
X5630Y3023*
Y3023*
Y3023*
Y3023*
X5629Y3022*
X5629Y3020*
X5629Y3020*
X5629Y3019*
X5629Y3019*
X5629Y3018*
X5629Y3018*
X5629Y3017*
X5628Y3017*
X5628Y3017*
X5628Y3016*
X5628Y3016*
X5628Y3016*
Y3016*
X5628Y3015*
X5628Y3015*
X5627Y3014*
X5627Y3014*
X5627Y3013*
X5626Y3013*
X5626Y3013*
X5626Y3012*
X5625Y3012*
X5625Y3012*
X5625Y3012*
X5625Y3012*
X5624Y3011*
X5624Y3011*
X5624Y3011*
X5624Y3011*
X5624Y3011*
X5623Y3011*
X5623Y3010*
X5622Y3010*
X5621Y3010*
X5620Y3010*
X5619Y3010*
X5619Y3010*
X5618Y3010*
X5618Y3010*
X5618Y3010*
X5617*
X5617Y3010*
X5616Y3010*
X5615Y3010*
X5615Y3010*
X5614Y3010*
X5614Y3010*
X5613Y3010*
X5613Y3011*
X5612Y3011*
X5612Y3011*
X5611Y3011*
X5611Y3011*
X5611Y3011*
X5611Y3012*
X5611Y3012*
X5611Y3012*
X5610Y3012*
X5610Y3013*
X5609Y3013*
X5609Y3014*
X5609Y3014*
X5608Y3015*
X5608Y3015*
X5608Y3016*
X5607Y3016*
X5607Y3017*
X5607Y3017*
X5607Y3017*
X5607Y3018*
X5607Y3018*
X5607Y3018*
Y3018*
X5610Y3019*
X5610Y3018*
X5611Y3018*
X5611Y3017*
X5611Y3017*
X5611Y3016*
X5611Y3016*
X5612Y3016*
X5612Y3015*
X5612Y3015*
X5612Y3015*
X5612Y3014*
X5613Y3014*
X5613Y3014*
X5613Y3014*
X5613Y3014*
X5613Y3014*
X5613Y3014*
X5614Y3013*
X5614Y3013*
X5615Y3013*
X5615Y3013*
X5616Y3013*
X5616Y3013*
X5617Y3013*
X5617Y3012*
X5617Y3012*
X5617Y3012*
X5618*
X5619Y3012*
X5619Y3013*
X5620Y3013*
X5621Y3013*
X5621Y3013*
X5622Y3013*
X5622Y3013*
X5622Y3013*
X5622Y3014*
X5622Y3014*
X5622*
X5623Y3014*
X5623Y3015*
X5624Y3015*
X5624Y3016*
X5625Y3016*
X5625Y3017*
X5625Y3017*
X5625Y3017*
X5625Y3017*
X5625Y3017*
Y3017*
X5625Y3018*
X5626Y3019*
X5626Y3020*
X5626Y3021*
X5626Y3021*
Y3022*
X5626Y3022*
X5626Y3022*
Y3023*
Y3023*
Y3023*
Y3023*
X5626Y3024*
X5626Y3025*
X5626Y3026*
X5626Y3026*
X5626Y3027*
X5625Y3027*
X5625Y3027*
X5625Y3027*
X5625Y3028*
X5625Y3028*
X5625Y3028*
Y3028*
X5625Y3029*
X5624Y3029*
X5624Y3030*
X5624Y3031*
X5623Y3031*
X5623Y3031*
X5623Y3032*
X5623Y3032*
X5622Y3032*
X5622*
X5622Y3032*
X5622Y3032*
X5621Y3032*
X5620Y3033*
X5619Y3033*
X5619Y3033*
X5619Y3033*
X5618Y3033*
X5618*
X5618Y3033*
X5617*
X5617Y3033*
X5616Y3033*
X5615Y3033*
X5614Y3032*
X5614Y3032*
X5614Y3032*
X5613Y3032*
X5613Y3032*
X5613Y3032*
X5613Y3032*
X5613*
X5613Y3032*
X5613Y3031*
X5612Y3031*
X5612Y3030*
X5611Y3029*
X5611Y3029*
X5611Y3028*
X5611Y3028*
X5611Y3028*
X5611Y3028*
X5611Y3028*
Y3028*
X5607Y3029*
X5607Y3029*
X5608Y3030*
X5608Y3030*
X5608Y3031*
X5609Y3031*
X5609Y3032*
X5609Y3032*
X5609Y3033*
X5610Y3033*
X5610Y3033*
X5610Y3033*
X5611Y3034*
X5611Y3034*
X5611Y3034*
X5611Y3034*
X5611Y3034*
X5611Y3034*
X5612Y3035*
X5613Y3035*
X5613Y3035*
X5614Y3035*
X5614Y3036*
X5615Y3036*
X5616Y3036*
X5616Y3036*
X5616Y3036*
X5617Y3036*
X5617Y3036*
X5618*
X5619Y3036*
G37*
G36*
X5584Y3032D02*
X5571D01*
X5572Y3031*
X5573Y3030*
X5574Y3029*
X5574Y3028*
X5575Y3027*
X5575Y3027*
X5575Y3026*
X5575Y3026*
X5576Y3026*
X5576Y3026*
X5576Y3025*
X5576Y3025*
X5577Y3024*
X5577Y3022*
X5578Y3021*
X5578Y3020*
X5578Y3020*
X5578Y3019*
X5579Y3019*
X5579Y3018*
X5579Y3018*
X5579Y3018*
X5579Y3017*
X5579Y3017*
Y3017*
X5579Y3016*
X5579Y3016*
X5580Y3015*
X5580Y3014*
X5580Y3014*
X5580Y3013*
X5580Y3012*
X5580Y3012*
X5580Y3012*
X5580Y3011*
X5580Y3011*
Y3010*
X5580Y3010*
Y3010*
Y3010*
Y3010*
X5577*
X5577Y3011*
X5577Y3013*
X5577Y3013*
X5577Y3014*
X5576Y3014*
X5576Y3015*
X5576Y3015*
X5576Y3016*
X5576Y3016*
X5576Y3016*
X5576Y3017*
X5576Y3017*
X5576Y3017*
Y3017*
X5575Y3019*
X5575Y3020*
X5574Y3021*
X5574Y3022*
X5574Y3022*
X5573Y3023*
X5573Y3024*
X5573Y3024*
X5573Y3025*
X5573Y3025*
X5572Y3025*
X5572Y3026*
X5572Y3026*
X5572Y3026*
X5572Y3027*
X5571Y3027*
X5571Y3028*
X5570Y3029*
X5570Y3029*
X5570Y3030*
X5569Y3030*
X5569Y3031*
X5568Y3031*
X5568Y3032*
X5568Y3032*
X5568Y3032*
X5568Y3032*
X5567Y3033*
X5567Y3033*
X5567Y3033*
Y3035*
X5584*
Y3032*
G37*
G36*
X5942Y3059D02*
X5943Y3059D01*
X5944Y3059*
X5944Y3059*
X5945Y3059*
X5945Y3059*
X5946Y3059*
X5946Y3058*
X5947Y3058*
X5947Y3058*
X5948Y3058*
X5948Y3058*
X5948Y3058*
X5948Y3057*
X5948Y3057*
X5948Y3057*
X5949Y3057*
X5949Y3056*
X5950Y3056*
X5950Y3055*
X5950Y3055*
X5951Y3054*
X5951Y3054*
X5951Y3053*
X5952Y3053*
X5952Y3052*
X5952Y3052*
X5952Y3052*
X5952Y3051*
X5952Y3051*
X5952Y3051*
Y3051*
X5949Y3050*
X5949Y3051*
X5948Y3051*
X5948Y3052*
X5948Y3052*
X5948Y3053*
X5948Y3053*
X5947Y3053*
X5947Y3054*
X5947Y3054*
X5947Y3054*
X5947Y3055*
X5946Y3055*
X5946Y3055*
X5946Y3055*
X5946Y3055*
X5946Y3055*
X5946Y3055*
X5945Y3056*
X5945Y3056*
X5944Y3056*
X5944Y3056*
X5943Y3056*
X5943Y3056*
X5942Y3057*
X5942Y3057*
X5942Y3057*
X5942Y3057*
X5941*
X5940Y3057*
X5940Y3056*
X5939Y3056*
X5938Y3056*
X5938Y3056*
X5937Y3056*
X5937Y3056*
X5937Y3056*
X5937Y3055*
X5937Y3055*
X5937*
X5936Y3055*
X5936Y3054*
X5935Y3054*
X5935Y3053*
X5934Y3053*
X5934Y3052*
X5934Y3052*
X5934Y3052*
X5934Y3052*
X5934Y3052*
Y3052*
X5934Y3051*
X5933Y3050*
X5933Y3049*
X5933Y3048*
X5933Y3048*
Y3047*
X5933Y3047*
X5933Y3047*
Y3046*
Y3046*
Y3046*
Y3046*
X5933Y3045*
X5933Y3044*
X5933Y3043*
X5933Y3043*
X5933Y3042*
X5934Y3042*
X5934Y3042*
X5934Y3042*
X5934Y3041*
X5934Y3041*
X5934Y3041*
Y3041*
X5934Y3040*
X5935Y3040*
X5935Y3039*
X5935Y3038*
X5936Y3038*
X5936Y3038*
X5936Y3037*
X5936Y3037*
X5937Y3037*
X5937*
X5937Y3037*
X5937Y3037*
X5938Y3037*
X5939Y3036*
X5940Y3036*
X5940Y3036*
X5940Y3036*
X5941Y3036*
X5941*
X5941Y3036*
X5942*
X5942Y3036*
X5943Y3036*
X5944Y3036*
X5945Y3037*
X5945Y3037*
X5945Y3037*
X5946Y3037*
X5946Y3037*
X5946Y3037*
X5946Y3037*
X5946*
X5946Y3037*
X5946Y3038*
X5947Y3038*
X5947Y3039*
X5948Y3040*
X5948Y3040*
X5948Y3041*
X5948Y3041*
X5948Y3041*
X5948Y3041*
X5948Y3041*
Y3041*
X5952Y3040*
X5952Y3040*
X5951Y3039*
X5951Y3039*
X5951Y3038*
X5950Y3038*
X5950Y3037*
X5950Y3037*
X5950Y3036*
X5949Y3036*
X5949Y3036*
X5949Y3036*
X5948Y3035*
X5948Y3035*
X5948Y3035*
X5948Y3035*
X5948Y3035*
X5948Y3035*
X5947Y3034*
X5946Y3034*
X5946Y3034*
X5945Y3034*
X5945Y3033*
X5944Y3033*
X5943Y3033*
X5943Y3033*
X5943Y3033*
X5942Y3033*
X5942Y3033*
X5941*
X5940Y3033*
X5939Y3033*
X5938Y3034*
X5938Y3034*
X5937Y3034*
X5937Y3034*
X5936Y3034*
X5936Y3034*
X5936Y3034*
X5936Y3034*
X5935Y3035*
X5935Y3035*
X5935Y3035*
X5935Y3035*
X5934Y3035*
X5933Y3036*
X5933Y3037*
X5932Y3037*
X5932Y3038*
X5932Y3038*
X5931Y3038*
X5931Y3039*
X5931Y3039*
X5931Y3039*
X5931Y3039*
X5931Y3039*
X5931Y3040*
X5931Y3040*
X5930Y3041*
X5930Y3043*
X5930Y3043*
X5930Y3044*
X5930Y3044*
X5930Y3045*
X5930Y3045*
Y3045*
X5930Y3046*
Y3046*
Y3046*
Y3046*
X5930Y3047*
X5930Y3049*
X5930Y3049*
X5930Y3050*
X5930Y3050*
X5930Y3051*
X5930Y3051*
X5930Y3052*
X5931Y3052*
X5931Y3052*
X5931Y3053*
X5931Y3053*
X5931Y3053*
Y3053*
X5931Y3054*
X5931Y3054*
X5932Y3055*
X5932Y3055*
X5932Y3056*
X5933Y3056*
X5933Y3056*
X5933Y3057*
X5934Y3057*
X5934Y3057*
X5934Y3057*
X5934Y3058*
X5935Y3058*
X5935Y3058*
X5935Y3058*
X5935Y3058*
X5935Y3058*
X5936Y3058*
X5936Y3059*
X5937Y3059*
X5938Y3059*
X5939Y3059*
X5940Y3059*
X5940Y3059*
X5941Y3059*
X5941Y3059*
X5941Y3060*
X5942*
X5942Y3059*
G37*
G36*
X5985D02*
X5985Y3059D01*
X5986Y3059*
X5987Y3059*
X5987Y3059*
X5987Y3059*
X5987Y3059*
X5988Y3059*
X5988Y3058*
X5988Y3058*
X5988*
X5988Y3058*
X5989Y3057*
X5989Y3057*
X5990Y3056*
X5990Y3056*
X5990Y3056*
X5991Y3055*
X5991Y3055*
X5991Y3055*
Y3055*
X5991Y3054*
X5991Y3054*
X5991Y3053*
X5992Y3052*
X5992Y3052*
X5992Y3051*
X5992Y3051*
Y3051*
Y3051*
Y3051*
Y3051*
X5992Y3050*
X5992Y3049*
X5992Y3049*
X5991Y3048*
X5991Y3048*
X5991Y3047*
X5991Y3047*
X5991Y3046*
X5990Y3046*
X5990Y3046*
X5990Y3045*
X5990Y3045*
X5990Y3045*
X5990Y3045*
X5990Y3045*
X5989Y3045*
X5989Y3044*
X5989Y3044*
X5988Y3044*
X5988Y3043*
X5987Y3043*
X5987Y3043*
X5986Y3043*
X5986Y3043*
X5986Y3043*
X5985Y3043*
X5985Y3043*
X5985Y3042*
X5984Y3042*
X5984*
X5983Y3042*
X5983Y3043*
X5982Y3043*
X5982Y3043*
X5981Y3043*
X5981Y3043*
X5981Y3043*
X5981Y3043*
X5981Y3043*
X5981*
X5980Y3044*
X5980Y3044*
X5979Y3044*
X5979Y3045*
X5978Y3045*
X5978Y3046*
X5978Y3046*
X5978Y3046*
Y3045*
X5978Y3045*
X5978Y3044*
X5978Y3043*
X5978Y3043*
X5978Y3042*
X5978Y3042*
X5978Y3041*
X5978Y3041*
X5979Y3041*
X5979Y3041*
X5979Y3040*
X5979Y3040*
X5979Y3040*
X5979Y3040*
Y3040*
X5979Y3039*
X5980Y3039*
X5980Y3038*
X5980Y3038*
X5981Y3037*
X5981Y3037*
X5981Y3037*
X5981Y3037*
X5982Y3037*
X5982Y3036*
X5982Y3036*
X5983Y3036*
X5983Y3036*
X5984Y3036*
X5984*
X5984Y3036*
X5985Y3036*
X5986Y3036*
X5986Y3037*
X5986Y3037*
X5987Y3037*
X5987Y3037*
X5987Y3037*
X5987Y3038*
X5987Y3038*
X5988Y3038*
X5988Y3039*
X5988Y3039*
X5988Y3040*
X5988Y3040*
Y3040*
X5988Y3040*
Y3040*
X5991Y3040*
X5991Y3039*
X5991Y3039*
X5991Y3038*
X5991Y3037*
X5990Y3037*
X5990Y3037*
X5990Y3036*
X5990Y3036*
X5990Y3036*
X5989Y3036*
X5989Y3035*
X5989Y3035*
X5989Y3035*
X5989Y3035*
X5989Y3035*
X5989Y3035*
X5988Y3034*
X5988Y3034*
X5987Y3034*
X5987Y3034*
X5986Y3034*
X5985Y3033*
X5985Y3033*
X5985Y3033*
X5984Y3033*
X5984Y3033*
X5984*
X5983Y3033*
X5983Y3033*
X5982Y3034*
X5981Y3034*
X5981Y3034*
X5980Y3034*
X5980Y3035*
X5979Y3035*
X5979Y3035*
X5978Y3035*
X5978Y3036*
X5978Y3036*
X5978Y3036*
X5978Y3036*
X5978Y3036*
X5978Y3036*
X5977Y3037*
X5977Y3038*
X5976Y3039*
X5976Y3039*
X5976Y3040*
X5975Y3041*
X5975Y3042*
X5975Y3043*
X5975Y3044*
X5975Y3045*
X5975Y3045*
X5975Y3046*
Y3046*
X5975Y3047*
Y3047*
Y3047*
Y3047*
Y3047*
Y3047*
X5975Y3048*
X5975Y3049*
X5975Y3050*
X5975Y3051*
X5975Y3052*
X5976Y3053*
X5976Y3054*
X5976Y3054*
X5976Y3055*
X5976Y3055*
X5977Y3056*
X5977Y3056*
X5977Y3056*
X5977Y3057*
X5977Y3057*
X5977Y3057*
X5978Y3057*
X5978Y3058*
X5979Y3058*
X5979Y3058*
X5980Y3059*
X5980Y3059*
X5981Y3059*
X5981Y3059*
X5982Y3059*
X5982Y3059*
X5983Y3059*
X5983Y3059*
X5983*
X5984Y3060*
X5984*
X5985Y3059*
G37*
G36*
X5967Y3033D02*
X5965D01*
X5965Y3034*
X5964Y3035*
X5964Y3035*
X5963Y3036*
X5963Y3036*
X5962Y3036*
X5962Y3037*
X5962Y3037*
X5962Y3037*
X5962Y3037*
X5961Y3037*
X5961Y3038*
X5960Y3039*
X5959Y3039*
X5958Y3039*
X5958Y3039*
X5958Y3040*
X5958Y3040*
X5958Y3040*
X5958Y3040*
X5957*
Y3043*
X5958Y3043*
X5959Y3042*
X5959Y3042*
X5960Y3042*
X5960Y3042*
X5960Y3041*
X5961Y3041*
X5961Y3041*
X5961Y3041*
X5961*
X5961Y3041*
X5962Y3040*
X5963Y3040*
X5963Y3040*
X5963Y3039*
X5964Y3039*
X5964Y3039*
X5964Y3039*
Y3059*
X5967*
Y3033*
G37*
G36*
X5932Y3149D02*
X5933Y3149D01*
X5934Y3149*
X5934Y3149*
X5935Y3149*
X5935Y3149*
X5936Y3149*
X5936Y3148*
X5937Y3148*
X5937Y3148*
X5938Y3148*
X5938Y3148*
X5938Y3148*
X5938Y3147*
X5938Y3147*
X5938Y3147*
X5939Y3147*
X5939Y3146*
X5940Y3146*
X5940Y3145*
X5940Y3145*
X5941Y3144*
X5941Y3144*
X5941Y3143*
X5942Y3143*
X5942Y3142*
X5942Y3142*
X5942Y3142*
X5942Y3141*
X5942Y3141*
X5942Y3141*
Y3141*
X5939Y3140*
X5939Y3141*
X5938Y3141*
X5938Y3142*
X5938Y3142*
X5938Y3143*
X5938Y3143*
X5937Y3143*
X5937Y3144*
X5937Y3144*
X5937Y3144*
X5937Y3145*
X5936Y3145*
X5936Y3145*
X5936Y3145*
X5936Y3145*
X5936Y3145*
X5936Y3145*
X5935Y3146*
X5935Y3146*
X5934Y3146*
X5934Y3146*
X5933Y3146*
X5933Y3146*
X5932Y3147*
X5932Y3147*
X5932Y3147*
X5932Y3147*
X5931*
X5930Y3147*
X5930Y3146*
X5929Y3146*
X5928Y3146*
X5928Y3146*
X5927Y3146*
X5927Y3146*
X5927Y3146*
X5927Y3145*
X5927Y3145*
X5927*
X5926Y3145*
X5926Y3144*
X5925Y3144*
X5925Y3143*
X5924Y3143*
X5924Y3142*
X5924Y3142*
X5924Y3142*
X5924Y3142*
X5924Y3142*
Y3142*
X5924Y3141*
X5923Y3140*
X5923Y3139*
X5923Y3138*
X5923Y3138*
Y3137*
X5923Y3137*
X5923Y3137*
Y3136*
Y3136*
Y3136*
Y3136*
X5923Y3135*
X5923Y3134*
X5923Y3133*
X5923Y3133*
X5923Y3132*
X5924Y3132*
X5924Y3132*
X5924Y3132*
X5924Y3131*
X5924Y3131*
X5924Y3131*
Y3131*
X5924Y3130*
X5925Y3130*
X5925Y3129*
X5925Y3128*
X5926Y3128*
X5926Y3128*
X5926Y3127*
X5926Y3127*
X5927Y3127*
X5927*
X5927Y3127*
X5927Y3127*
X5928Y3127*
X5929Y3126*
X5930Y3126*
X5930Y3126*
X5930Y3126*
X5931Y3126*
X5931*
X5931Y3126*
X5932*
X5932Y3126*
X5933Y3126*
X5934Y3126*
X5935Y3127*
X5935Y3127*
X5935Y3127*
X5936Y3127*
X5936Y3127*
X5936Y3127*
X5936Y3127*
X5936*
X5936Y3127*
X5936Y3128*
X5937Y3128*
X5937Y3129*
X5938Y3130*
X5938Y3130*
X5938Y3131*
X5938Y3131*
X5938Y3131*
X5938Y3131*
X5938Y3131*
Y3131*
X5942Y3130*
X5942Y3130*
X5941Y3129*
X5941Y3129*
X5941Y3128*
X5940Y3128*
X5940Y3127*
X5940Y3127*
X5940Y3126*
X5939Y3126*
X5939Y3126*
X5939Y3126*
X5938Y3125*
X5938Y3125*
X5938Y3125*
X5938Y3125*
X5938Y3125*
X5938Y3125*
X5937Y3124*
X5936Y3124*
X5936Y3124*
X5935Y3124*
X5935Y3123*
X5934Y3123*
X5933Y3123*
X5933Y3123*
X5933Y3123*
X5932Y3123*
X5932Y3123*
X5931*
X5930Y3123*
X5929Y3123*
X5928Y3124*
X5928Y3124*
X5927Y3124*
X5927Y3124*
X5926Y3124*
X5926Y3124*
X5926Y3124*
X5926Y3124*
X5925Y3125*
X5925Y3125*
X5925Y3125*
X5925Y3125*
X5924Y3125*
X5924Y3126*
X5923Y3127*
X5922Y3127*
X5922Y3128*
X5922Y3128*
X5921Y3128*
X5921Y3129*
X5921Y3129*
X5921Y3129*
X5921Y3129*
X5921Y3129*
X5921Y3130*
X5921Y3130*
X5920Y3131*
X5920Y3133*
X5920Y3133*
X5920Y3134*
X5920Y3134*
X5920Y3135*
X5920Y3135*
Y3135*
X5920Y3136*
Y3136*
Y3136*
Y3136*
X5920Y3137*
X5920Y3139*
X5920Y3139*
X5920Y3140*
X5920Y3140*
X5920Y3141*
X5920Y3141*
X5920Y3142*
X5921Y3142*
X5921Y3142*
X5921Y3143*
X5921Y3143*
X5921Y3143*
Y3143*
X5921Y3144*
X5921Y3144*
X5922Y3145*
X5922Y3145*
X5922Y3146*
X5923Y3146*
X5923Y3146*
X5923Y3147*
X5924Y3147*
X5924Y3147*
X5924Y3147*
X5924Y3148*
X5925Y3148*
X5925Y3148*
X5925Y3148*
X5925Y3148*
X5925Y3148*
X5926Y3148*
X5926Y3149*
X5927Y3149*
X5928Y3149*
X5929Y3149*
X5930Y3149*
X5930Y3149*
X5931Y3149*
X5931Y3149*
X5931Y3150*
X5932*
X5932Y3149*
G37*
G36*
X5974D02*
X5975Y3149D01*
X5975Y3149*
X5976Y3149*
X5977Y3149*
X5977Y3149*
X5978Y3148*
X5978Y3148*
X5979Y3148*
X5979Y3147*
X5979Y3147*
X5979Y3147*
X5980Y3147*
X5980Y3147*
X5980Y3146*
X5980Y3146*
X5980Y3146*
X5981Y3145*
X5981Y3145*
X5981Y3144*
X5981Y3144*
X5981Y3143*
X5982Y3142*
X5982Y3142*
X5982Y3142*
X5982Y3141*
X5982Y3141*
X5982Y3141*
Y3141*
Y3140*
Y3140*
X5982Y3140*
X5982Y3139*
X5982Y3139*
X5982Y3138*
X5981Y3137*
X5981Y3137*
X5981Y3136*
X5981Y3136*
X5981Y3136*
X5980Y3135*
X5980Y3135*
X5980Y3135*
X5980Y3135*
X5980Y3135*
X5980Y3134*
X5980Y3134*
X5979Y3134*
X5979Y3134*
X5978Y3133*
X5978Y3133*
X5977Y3133*
X5977Y3133*
X5976Y3132*
X5976Y3132*
X5975Y3132*
X5975Y3132*
X5975Y3132*
X5975Y3132*
X5974Y3132*
X5974*
X5973Y3132*
X5973Y3132*
X5972Y3132*
X5971Y3133*
X5971Y3133*
X5970Y3133*
X5970Y3133*
X5970Y3133*
X5970Y3133*
X5969Y3134*
X5969Y3134*
X5969Y3134*
X5969Y3134*
X5970Y3127*
X5981*
Y3124*
X5968*
X5966Y3137*
X5968Y3137*
X5969Y3137*
X5969Y3137*
X5969Y3136*
X5970Y3136*
X5970Y3136*
X5970Y3136*
X5970Y3136*
X5970Y3136*
X5971Y3135*
X5971Y3135*
X5972Y3135*
X5972Y3135*
X5973Y3135*
X5973Y3135*
X5974*
X5974Y3135*
X5975Y3135*
X5975Y3135*
X5976Y3136*
X5976Y3136*
X5977Y3136*
X5977Y3136*
X5977Y3136*
X5977Y3136*
Y3136*
X5977Y3137*
X5978Y3137*
X5978Y3138*
X5978Y3138*
X5978Y3139*
X5979Y3140*
X5979Y3140*
Y3140*
X5979Y3140*
Y3141*
Y3141*
Y3141*
Y3141*
X5979Y3142*
X5978Y3143*
X5978Y3143*
X5978Y3144*
X5978Y3144*
X5978Y3145*
X5977Y3145*
X5977Y3145*
X5977Y3145*
X5977Y3145*
X5977Y3145*
X5977Y3145*
X5977Y3146*
X5976Y3146*
X5976Y3146*
X5976Y3146*
X5975Y3147*
X5974Y3147*
X5974Y3147*
X5974Y3147*
X5974Y3147*
X5973Y3147*
X5973*
X5972Y3147*
X5972Y3147*
X5971Y3147*
X5971Y3146*
X5970Y3146*
X5970Y3146*
X5970Y3146*
X5970Y3146*
X5969Y3145*
X5969Y3145*
X5969Y3144*
X5969Y3143*
X5968Y3143*
X5968Y3143*
X5968Y3143*
X5968Y3142*
Y3142*
X5968Y3142*
Y3142*
X5965Y3142*
X5965Y3143*
X5965Y3144*
X5965Y3144*
X5965Y3145*
X5966Y3145*
X5966Y3145*
X5966Y3146*
X5966Y3146*
X5967Y3147*
X5967Y3147*
X5967Y3147*
X5967Y3147*
X5967Y3147*
X5967Y3147*
X5967Y3148*
X5967Y3148*
X5968Y3148*
X5968Y3148*
X5969Y3148*
X5969Y3149*
X5970Y3149*
X5970Y3149*
X5971Y3149*
X5972Y3149*
X5972Y3149*
X5972Y3149*
X5973Y3149*
X5973Y3150*
X5973*
X5974Y3149*
G37*
G36*
X5957Y3123D02*
X5955D01*
X5955Y3124*
X5954Y3125*
X5954Y3125*
X5953Y3126*
X5953Y3126*
X5952Y3126*
X5952Y3127*
X5952Y3127*
X5952Y3127*
X5952Y3127*
X5951Y3127*
X5951Y3128*
X5950Y3129*
X5949Y3129*
X5948Y3129*
X5948Y3129*
X5948Y3130*
X5948Y3130*
X5948Y3130*
X5948Y3130*
X5947*
Y3133*
X5948Y3133*
X5949Y3132*
X5949Y3132*
X5950Y3132*
X5950Y3132*
X5950Y3131*
X5951Y3131*
X5951Y3131*
X5951Y3131*
X5951*
X5951Y3131*
X5952Y3130*
X5953Y3130*
X5953Y3130*
X5953Y3129*
X5954Y3129*
X5954Y3129*
X5954Y3129*
Y3149*
X5957*
Y3123*
G37*
G36*
X4002Y3849D02*
X4003Y3849D01*
X4004Y3849*
X4004Y3849*
X4005Y3849*
X4005Y3849*
X4006Y3849*
X4006Y3848*
X4007Y3848*
X4007Y3848*
X4008Y3848*
X4008Y3848*
X4008Y3848*
X4008Y3847*
X4008Y3847*
X4008Y3847*
X4009Y3847*
X4009Y3846*
X4010Y3846*
X4010Y3845*
X4010Y3845*
X4011Y3844*
X4011Y3844*
X4011Y3843*
X4012Y3843*
X4012Y3842*
X4012Y3842*
X4012Y3842*
X4012Y3841*
X4012Y3841*
X4012Y3841*
Y3841*
X4009Y3840*
X4009Y3841*
X4008Y3841*
X4008Y3842*
X4008Y3842*
X4008Y3843*
X4008Y3843*
X4007Y3843*
X4007Y3844*
X4007Y3844*
X4007Y3844*
X4007Y3845*
X4006Y3845*
X4006Y3845*
X4006Y3845*
X4006Y3845*
X4006Y3845*
X4006Y3845*
X4005Y3846*
X4005Y3846*
X4004Y3846*
X4004Y3846*
X4003Y3846*
X4003Y3846*
X4002Y3847*
X4002Y3847*
X4002Y3847*
X4002Y3847*
X4001*
X4000Y3847*
X4000Y3846*
X3999Y3846*
X3998Y3846*
X3998Y3846*
X3997Y3846*
X3997Y3846*
X3997Y3846*
X3997Y3845*
X3997Y3845*
X3997*
X3996Y3845*
X3996Y3844*
X3995Y3844*
X3995Y3843*
X3994Y3843*
X3994Y3842*
X3994Y3842*
X3994Y3842*
X3994Y3842*
X3994Y3842*
Y3842*
X3994Y3841*
X3993Y3840*
X3993Y3839*
X3993Y3838*
X3993Y3838*
Y3837*
X3993Y3837*
X3993Y3837*
Y3836*
Y3836*
Y3836*
Y3836*
X3993Y3835*
X3993Y3834*
X3993Y3833*
X3993Y3833*
X3993Y3832*
X3994Y3832*
X3994Y3832*
X3994Y3832*
X3994Y3831*
X3994Y3831*
X3994Y3831*
Y3831*
X3994Y3830*
X3995Y3830*
X3995Y3829*
X3995Y3828*
X3996Y3828*
X3996Y3828*
X3996Y3827*
X3996Y3827*
X3997Y3827*
X3997*
X3997Y3827*
X3997Y3827*
X3998Y3827*
X3999Y3826*
X4000Y3826*
X4000Y3826*
X4000Y3826*
X4001Y3826*
X4001*
X4001Y3826*
X4002*
X4002Y3826*
X4003Y3826*
X4004Y3826*
X4005Y3827*
X4005Y3827*
X4005Y3827*
X4006Y3827*
X4006Y3827*
X4006Y3827*
X4006Y3827*
X4006*
X4006Y3827*
X4006Y3828*
X4007Y3828*
X4007Y3829*
X4008Y3830*
X4008Y3830*
X4008Y3831*
X4008Y3831*
X4008Y3831*
X4008Y3831*
X4008Y3831*
Y3831*
X4012Y3830*
X4012Y3830*
X4011Y3829*
X4011Y3829*
X4011Y3828*
X4010Y3828*
X4010Y3827*
X4010Y3827*
X4010Y3826*
X4009Y3826*
X4009Y3826*
X4009Y3826*
X4008Y3825*
X4008Y3825*
X4008Y3825*
X4008Y3825*
X4008Y3825*
X4008Y3825*
X4007Y3824*
X4006Y3824*
X4006Y3824*
X4005Y3824*
X4005Y3823*
X4004Y3823*
X4003Y3823*
X4003Y3823*
X4003Y3823*
X4002Y3823*
X4002Y3823*
X4001*
X4000Y3823*
X3999Y3823*
X3998Y3824*
X3998Y3824*
X3997Y3824*
X3997Y3824*
X3996Y3824*
X3996Y3824*
X3996Y3824*
X3996Y3824*
X3995Y3825*
X3995Y3825*
X3995Y3825*
X3995Y3825*
X3994Y3825*
X3993Y3826*
X3993Y3827*
X3992Y3827*
X3992Y3828*
X3992Y3828*
X3991Y3828*
X3991Y3829*
X3991Y3829*
X3991Y3829*
X3991Y3829*
X3991Y3829*
X3991Y3830*
X3991Y3830*
X3990Y3831*
X3990Y3833*
X3990Y3833*
X3990Y3834*
X3990Y3834*
X3990Y3835*
X3990Y3835*
Y3835*
X3990Y3836*
Y3836*
Y3836*
Y3836*
X3990Y3837*
X3990Y3839*
X3990Y3839*
X3990Y3840*
X3990Y3840*
X3990Y3841*
X3990Y3841*
X3990Y3842*
X3991Y3842*
X3991Y3842*
X3991Y3843*
X3991Y3843*
X3991Y3843*
Y3843*
X3991Y3844*
X3991Y3844*
X3992Y3845*
X3992Y3845*
X3992Y3846*
X3993Y3846*
X3993Y3846*
X3993Y3847*
X3994Y3847*
X3994Y3847*
X3994Y3847*
X3994Y3848*
X3995Y3848*
X3995Y3848*
X3995Y3848*
X3995Y3848*
X3995Y3848*
X3996Y3848*
X3996Y3849*
X3997Y3849*
X3998Y3849*
X3999Y3849*
X4000Y3849*
X4000Y3849*
X4001Y3849*
X4001Y3849*
X4001Y3850*
X4002*
X4002Y3849*
G37*
G36*
X4027Y3823D02*
X4025D01*
X4025Y3824*
X4024Y3825*
X4024Y3825*
X4023Y3826*
X4023Y3826*
X4022Y3826*
X4022Y3827*
X4022Y3827*
X4022Y3827*
X4022Y3827*
X4021Y3827*
X4021Y3828*
X4020Y3829*
X4019Y3829*
X4018Y3829*
X4018Y3829*
X4018Y3830*
X4018Y3830*
X4018Y3830*
X4018Y3830*
X4017*
Y3833*
X4018Y3833*
X4019Y3832*
X4019Y3832*
X4020Y3832*
X4020Y3832*
X4020Y3831*
X4021Y3831*
X4021Y3831*
X4021Y3831*
X4021*
X4021Y3831*
X4022Y3830*
X4023Y3830*
X4023Y3830*
X4023Y3829*
X4024Y3829*
X4024Y3829*
X4024Y3829*
Y3849*
X4027*
Y3823*
G37*
G36*
X4048Y3843D02*
X4052D01*
Y3840*
X4048*
Y3823*
X4046*
X4034Y3840*
Y3843*
X4045*
Y3849*
X4048*
Y3843*
G37*
G36*
X4718Y1712D02*
X4719Y1712D01*
X4720Y1711*
X4720Y1711*
X4721Y1711*
X4721Y1711*
X4721Y1711*
X4721Y1711*
X4722Y1711*
X4722Y1710*
X4722*
X4722Y1710*
X4723Y1709*
X4723Y1709*
X4723Y1708*
X4724Y1708*
X4724Y1707*
X4724Y1707*
X4724Y1707*
X4724Y1707*
X4724Y1707*
Y1707*
X4724Y1708*
X4724Y1708*
X4725Y1709*
X4725Y1709*
X4725Y1709*
X4726Y1709*
X4726Y1710*
X4726Y1710*
X4726Y1710*
X4727Y1710*
X4728Y1710*
X4728Y1710*
X4728Y1710*
X4729Y1710*
X4729*
X4729*
X4729*
X4730Y1710*
X4730Y1710*
X4731Y1710*
X4731Y1710*
X4732Y1710*
X4732Y1710*
X4732Y1710*
X4732Y1709*
X4732*
X4733Y1709*
X4733Y1709*
X4734Y1708*
X4734Y1708*
X4734Y1707*
X4735Y1707*
X4735Y1707*
X4735Y1707*
X4735Y1707*
Y1707*
X4735Y1706*
X4735Y1705*
X4735Y1705*
X4736Y1704*
X4736Y1704*
Y1703*
X4736Y1703*
Y1703*
X4736Y1702*
X4736Y1702*
X4735Y1701*
X4735Y1700*
X4735Y1700*
X4735Y1699*
X4735Y1699*
X4734Y1699*
X4734Y1698*
X4734Y1698*
X4734Y1698*
X4734Y1698*
X4734Y1698*
X4734Y1698*
X4734Y1697*
X4733Y1697*
X4732Y1697*
X4732Y1696*
X4731Y1696*
X4730Y1696*
X4730Y1696*
X4730Y1695*
X4730Y1695*
X4729Y1695*
X4729Y1695*
X4729Y1695*
X4729*
X4728Y1698*
X4729Y1699*
X4730Y1699*
X4731Y1699*
X4731Y1699*
X4731Y1700*
X4732Y1700*
X4732Y1700*
X4732Y1700*
X4732Y1700*
X4733Y1701*
X4733Y1701*
X4733Y1702*
X4733Y1702*
X4733Y1703*
X4733Y1703*
Y1703*
X4733Y1704*
X4733Y1704*
X4733Y1705*
X4732Y1705*
X4732Y1706*
X4732Y1706*
X4732Y1706*
X4732Y1706*
X4731Y1706*
X4731Y1707*
X4730Y1707*
X4730Y1707*
X4730Y1707*
X4729Y1707*
X4729Y1707*
X4729*
X4729*
X4729Y1707*
X4728Y1707*
X4728Y1707*
X4727Y1707*
X4727Y1706*
X4726Y1706*
X4726Y1706*
X4726Y1706*
X4726Y1706*
Y1706*
X4725Y1705*
X4725Y1704*
X4725Y1704*
X4725Y1703*
X4725Y1703*
X4725Y1702*
X4725Y1702*
Y1702*
X4725Y1702*
X4725Y1702*
Y1701*
X4722Y1701*
X4722Y1702*
X4722Y1702*
X4722Y1702*
X4722Y1703*
X4722Y1703*
Y1703*
X4722Y1704*
X4722Y1705*
X4722Y1705*
X4722Y1706*
X4721Y1706*
X4721Y1707*
X4721Y1707*
X4721Y1707*
X4721Y1707*
X4720Y1707*
X4720Y1708*
X4719Y1708*
X4719Y1708*
X4718Y1708*
X4718Y1708*
X4718*
X4718Y1708*
X4718*
X4717*
X4717*
X4717*
X4717Y1708*
X4716Y1708*
X4715Y1708*
X4715Y1708*
X4714Y1707*
X4714Y1707*
X4714Y1707*
X4714Y1707*
X4714Y1707*
X4714Y1707*
X4713Y1707*
X4713Y1706*
X4713Y1706*
X4712Y1705*
X4712Y1704*
X4712Y1704*
X4712Y1704*
Y1703*
X4712Y1703*
Y1703*
X4712Y1702*
X4712Y1702*
X4712Y1701*
X4713Y1701*
X4713Y1700*
X4713Y1700*
X4713Y1700*
X4713Y1700*
X4713Y1700*
X4714Y1699*
X4714Y1699*
X4715Y1699*
X4716Y1699*
X4716Y1698*
X4716Y1698*
X4717Y1698*
X4717Y1698*
X4717Y1698*
X4717Y1698*
X4717*
X4717Y1695*
X4716Y1695*
X4716Y1695*
X4715Y1695*
X4715Y1695*
X4714Y1696*
X4714Y1696*
X4713Y1696*
X4713Y1696*
X4713Y1697*
X4712Y1697*
X4712Y1697*
X4712Y1697*
X4712Y1697*
X4712Y1697*
X4712Y1697*
X4712Y1697*
X4711Y1698*
X4711Y1698*
X4711Y1699*
X4710Y1699*
X4710Y1700*
X4710Y1700*
X4710Y1701*
X4710Y1702*
X4710Y1702*
X4710Y1702*
X4710Y1703*
X4710Y1703*
Y1703*
X4710Y1704*
X4710Y1704*
X4710Y1705*
X4710Y1706*
X4710Y1706*
X4710Y1707*
X4710Y1707*
X4711Y1708*
X4711Y1708*
X4711Y1708*
X4711Y1709*
X4711Y1709*
X4712Y1709*
X4712Y1709*
X4712Y1709*
X4712Y1709*
X4712Y1710*
X4713Y1710*
X4713Y1710*
X4714Y1711*
X4714Y1711*
X4715Y1711*
X4715Y1711*
X4716Y1711*
X4716Y1712*
X4716Y1712*
X4717Y1712*
X4717Y1712*
X4717Y1712*
X4717*
X4717*
X4717*
X4718Y1712*
G37*
G36*
X4736Y1685D02*
X4735Y1685D01*
X4734Y1684*
X4734Y1684*
X4733Y1683*
X4733Y1683*
X4733Y1682*
X4732Y1682*
X4732Y1682*
X4732Y1682*
X4732Y1682*
X4732Y1681*
X4731Y1681*
X4730Y1680*
X4730Y1679*
X4730Y1678*
X4730Y1678*
X4729Y1678*
X4729Y1678*
X4729Y1678*
X4729Y1678*
Y1677*
X4726*
X4726Y1678*
X4727Y1679*
X4727Y1679*
X4727Y1680*
X4727Y1680*
X4728Y1680*
X4728Y1681*
X4728Y1681*
X4728Y1681*
Y1681*
X4728Y1681*
X4729Y1682*
X4729Y1683*
X4729Y1683*
X4730Y1683*
X4730Y1684*
X4730Y1684*
X4730Y1684*
X4710*
Y1687*
X4736*
Y1685*
G37*
G36*
X4719Y1669D02*
X4718Y1669D01*
X4718Y1668*
X4717Y1668*
X4717Y1668*
X4716Y1668*
X4716Y1668*
X4716Y1667*
X4715Y1667*
X4715Y1667*
X4715Y1667*
X4714Y1667*
X4714Y1666*
X4714Y1666*
X4714Y1666*
X4714Y1666*
X4714Y1666*
X4714Y1666*
X4713Y1665*
X4713Y1665*
X4713Y1664*
X4713Y1664*
X4713Y1663*
X4713Y1663*
X4713Y1662*
X4712Y1662*
X4712Y1662*
X4712Y1662*
Y1661*
X4712Y1660*
X4713Y1660*
X4713Y1659*
X4713Y1658*
X4713Y1658*
X4713Y1657*
X4713Y1657*
X4713Y1657*
X4714Y1657*
X4714Y1657*
Y1657*
X4714Y1656*
X4715Y1656*
X4715Y1655*
X4716Y1655*
X4716Y1654*
X4717Y1654*
X4717Y1654*
X4717Y1654*
X4717Y1654*
X4717Y1654*
X4717*
X4718Y1654*
X4719Y1653*
X4720Y1653*
X4721Y1653*
X4721Y1653*
X4722*
X4722Y1653*
X4722Y1653*
X4723*
X4723*
X4723*
X4723*
X4724Y1653*
X4725Y1653*
X4726Y1653*
X4726Y1653*
X4727Y1653*
X4727Y1654*
X4727Y1654*
X4727Y1654*
X4728Y1654*
X4728Y1654*
X4728Y1654*
X4728*
X4729Y1654*
X4729Y1655*
X4730Y1655*
X4731Y1655*
X4731Y1656*
X4731Y1656*
X4732Y1656*
X4732Y1656*
X4732Y1657*
Y1657*
X4732Y1657*
X4732Y1657*
X4732Y1658*
X4733Y1659*
X4733Y1660*
X4733Y1660*
X4733Y1660*
X4733Y1661*
Y1661*
X4733Y1661*
Y1662*
X4733Y1662*
X4733Y1663*
X4733Y1664*
X4732Y1665*
X4732Y1665*
X4732Y1665*
X4732Y1666*
X4732Y1666*
X4732Y1666*
X4732Y1666*
Y1666*
X4732Y1666*
X4731Y1666*
X4731Y1667*
X4730Y1667*
X4729Y1668*
X4729Y1668*
X4728Y1668*
X4728Y1668*
X4728Y1668*
X4728Y1668*
X4728Y1668*
X4728*
X4729Y1672*
X4729Y1672*
X4730Y1671*
X4730Y1671*
X4731Y1671*
X4731Y1670*
X4732Y1670*
X4732Y1670*
X4733Y1670*
X4733Y1669*
X4733Y1669*
X4733Y1669*
X4734Y1668*
X4734Y1668*
X4734Y1668*
X4734Y1668*
X4734Y1668*
X4734Y1668*
X4735Y1667*
X4735Y1666*
X4735Y1666*
X4735Y1665*
X4736Y1665*
X4736Y1664*
X4736Y1663*
X4736Y1663*
X4736Y1663*
X4736Y1662*
X4736Y1662*
Y1661*
X4736Y1660*
X4736Y1659*
X4735Y1658*
X4735Y1658*
X4735Y1657*
X4735Y1657*
X4735Y1656*
X4735Y1656*
X4735Y1656*
X4735Y1656*
X4734Y1655*
X4734Y1655*
X4734Y1655*
X4734Y1655*
X4734Y1654*
X4733Y1654*
X4732Y1653*
X4732Y1652*
X4731Y1652*
X4731Y1652*
X4731Y1651*
X4730Y1651*
X4730Y1651*
X4730Y1651*
X4730Y1651*
X4730Y1651*
X4729Y1651*
X4729Y1651*
X4728Y1650*
X4726Y1650*
X4726Y1650*
X4725Y1650*
X4725Y1650*
X4724Y1650*
X4724Y1650*
X4724*
X4723Y1650*
X4723*
X4723*
X4723*
X4722Y1650*
X4720Y1650*
X4720Y1650*
X4719Y1650*
X4719Y1650*
X4718Y1650*
X4718Y1650*
X4717Y1650*
X4717Y1651*
X4717Y1651*
X4716Y1651*
X4716Y1651*
X4716Y1651*
X4716*
X4715Y1651*
X4715Y1651*
X4714Y1652*
X4714Y1652*
X4713Y1652*
X4713Y1653*
X4713Y1653*
X4712Y1653*
X4712Y1654*
X4712Y1654*
X4712Y1654*
X4712Y1654*
X4711Y1655*
X4711Y1655*
X4711Y1655*
X4711Y1655*
X4711Y1655*
X4711Y1656*
X4710Y1656*
X4710Y1657*
X4710Y1658*
X4710Y1659*
X4710Y1660*
X4710Y1660*
X4710Y1661*
X4710Y1661*
X4710Y1661*
Y1662*
X4710Y1662*
X4710Y1663*
X4710Y1664*
X4710Y1664*
X4710Y1665*
X4710Y1665*
X4710Y1666*
X4711Y1666*
X4711Y1667*
X4711Y1667*
X4711Y1668*
X4711Y1668*
X4711Y1668*
X4712Y1668*
X4712Y1668*
X4712Y1668*
X4712Y1669*
X4713Y1669*
X4713Y1670*
X4714Y1670*
X4714Y1670*
X4715Y1671*
X4715Y1671*
X4716Y1671*
X4716Y1672*
X4717Y1672*
X4717Y1672*
X4717Y1672*
X4718Y1672*
X4718Y1672*
X4718Y1672*
X4718*
X4719Y1669*
G37*
G36*
X5623Y3469D02*
X5624Y3469D01*
X5624Y3470*
X5624Y3470*
X5624Y3470*
X5624Y3470*
X5625Y3470*
X5625Y3470*
X5625Y3470*
X5625Y3471*
X5625Y3471*
X5625Y3471*
X5626Y3472*
X5627Y3472*
X5627Y3473*
X5627Y3473*
X5627Y3473*
X5628Y3474*
X5628Y3474*
X5628Y3474*
X5628Y3474*
X5628Y3474*
X5629Y3475*
X5629Y3476*
X5630Y3476*
X5630Y3476*
X5631Y3477*
X5631Y3477*
X5631Y3478*
X5631Y3478*
X5632Y3478*
X5632Y3478*
X5632Y3478*
X5632Y3479*
X5632Y3479*
X5632Y3479*
X5632*
X5633Y3479*
X5634Y3480*
X5634Y3480*
X5635Y3480*
X5635Y3481*
X5635Y3481*
X5635Y3481*
X5635Y3481*
X5636Y3481*
X5637Y3481*
X5637Y3481*
X5638Y3481*
X5638Y3481*
X5638Y3481*
X5638*
X5639*
X5639Y3481*
X5640Y3481*
X5640Y3481*
X5641Y3481*
X5641Y3481*
X5642Y3481*
X5642Y3480*
X5643Y3480*
X5643Y3480*
X5643Y3480*
X5643Y3480*
X5643Y3479*
X5643Y3479*
X5644Y3479*
X5644Y3479*
X5644Y3479*
X5644Y3478*
X5645Y3478*
X5645Y3477*
X5645Y3477*
X5645Y3476*
X5645Y3476*
X5645Y3475*
X5646Y3475*
X5646Y3474*
X5646Y3474*
X5646Y3474*
Y3473*
X5646Y3473*
X5646Y3472*
X5645Y3471*
X5645Y3471*
X5645Y3470*
X5645Y3470*
X5645Y3470*
X5645Y3469*
X5645Y3469*
X5644Y3468*
X5644Y3468*
X5644Y3468*
X5644Y3468*
X5644Y3468*
X5644Y3468*
X5644Y3468*
X5643Y3467*
X5643Y3467*
X5643Y3467*
X5642Y3466*
X5642Y3466*
X5641Y3466*
X5640Y3466*
X5640Y3465*
X5639Y3465*
X5639Y3465*
X5639Y3465*
X5639Y3465*
X5638*
X5638Y3465*
X5638*
X5638Y3468*
X5639Y3468*
X5640Y3469*
X5640Y3469*
X5641Y3469*
X5641Y3469*
X5641Y3469*
X5642Y3470*
X5642Y3470*
X5642Y3470*
X5642Y3471*
X5643Y3471*
X5643Y3472*
X5643Y3473*
X5643Y3473*
Y3473*
X5643Y3473*
Y3473*
X5643Y3474*
X5643Y3475*
X5643Y3475*
X5642Y3476*
X5642Y3476*
X5642Y3477*
X5642Y3477*
X5642Y3477*
X5641Y3477*
X5641Y3478*
X5640Y3478*
X5640Y3478*
X5639Y3478*
X5639Y3478*
X5639Y3478*
X5639*
X5639*
X5639*
X5638*
X5638Y3478*
X5637Y3478*
X5637Y3478*
X5636Y3477*
X5636Y3477*
X5635Y3477*
X5635Y3477*
X5635Y3477*
X5635Y3477*
X5635Y3477*
X5635Y3477*
X5634Y3476*
X5634Y3476*
X5634Y3476*
X5633Y3475*
X5632Y3474*
X5631Y3473*
X5631Y3473*
X5631Y3472*
X5630Y3472*
X5630Y3472*
X5630Y3471*
X5630Y3471*
X5629Y3471*
X5629Y3471*
X5629Y3470*
X5628Y3469*
X5627Y3469*
X5627Y3468*
X5626Y3468*
X5626Y3467*
X5626Y3467*
X5626Y3467*
X5626Y3467*
X5625Y3467*
X5625Y3466*
X5624Y3466*
X5624Y3466*
X5623Y3465*
X5623Y3465*
X5622Y3465*
X5622Y3465*
X5622Y3465*
X5622Y3465*
X5622*
X5622Y3465*
X5621Y3465*
X5621Y3465*
X5621Y3465*
X5620Y3464*
X5620*
X5620*
X5620*
Y3481*
X5623*
Y3469*
G37*
G36*
X5646Y3455D02*
X5645Y3455D01*
X5644Y3454*
X5644Y3454*
X5643Y3453*
X5643Y3453*
X5643Y3452*
X5642Y3452*
X5642Y3452*
X5642Y3452*
X5642Y3452*
X5642Y3451*
X5641Y3451*
X5640Y3450*
X5640Y3449*
X5640Y3448*
X5640Y3448*
X5639Y3448*
X5639Y3448*
X5639Y3448*
X5639Y3448*
Y3447*
X5636*
X5636Y3448*
X5637Y3449*
X5637Y3449*
X5637Y3450*
X5637Y3450*
X5638Y3450*
X5638Y3451*
X5638Y3451*
X5638Y3451*
Y3451*
X5638Y3451*
X5639Y3452*
X5639Y3453*
X5639Y3453*
X5640Y3453*
X5640Y3454*
X5640Y3454*
X5640Y3454*
X5620*
Y3457*
X5646*
Y3455*
G37*
G36*
X5629Y3439D02*
X5628Y3439D01*
X5628Y3438*
X5627Y3438*
X5627Y3438*
X5626Y3438*
X5626Y3438*
X5626Y3437*
X5625Y3437*
X5625Y3437*
X5625Y3437*
X5624Y3437*
X5624Y3436*
X5624Y3436*
X5624Y3436*
X5624Y3436*
X5624Y3436*
X5624Y3436*
X5623Y3435*
X5623Y3435*
X5623Y3434*
X5623Y3434*
X5623Y3433*
X5623Y3433*
X5623Y3432*
X5622Y3432*
X5622Y3432*
X5622Y3432*
Y3431*
X5622Y3430*
X5623Y3430*
X5623Y3429*
X5623Y3428*
X5623Y3428*
X5623Y3427*
X5623Y3427*
X5623Y3427*
X5624Y3427*
X5624Y3427*
Y3427*
X5624Y3426*
X5625Y3426*
X5625Y3425*
X5626Y3425*
X5626Y3424*
X5627Y3424*
X5627Y3424*
X5627Y3424*
X5627Y3424*
X5627Y3424*
X5627*
X5628Y3424*
X5629Y3423*
X5630Y3423*
X5631Y3423*
X5631Y3423*
X5632*
X5632Y3423*
X5632Y3423*
X5633*
X5633*
X5633*
X5633*
X5634Y3423*
X5635Y3423*
X5636Y3423*
X5636Y3423*
X5637Y3423*
X5637Y3424*
X5637Y3424*
X5637Y3424*
X5638Y3424*
X5638Y3424*
X5638Y3424*
X5638*
X5639Y3424*
X5639Y3425*
X5640Y3425*
X5641Y3425*
X5641Y3426*
X5641Y3426*
X5642Y3426*
X5642Y3426*
X5642Y3427*
Y3427*
X5642Y3427*
X5642Y3427*
X5642Y3428*
X5643Y3429*
X5643Y3430*
X5643Y3430*
X5643Y3430*
X5643Y3431*
Y3431*
X5643Y3431*
Y3432*
X5643Y3432*
X5643Y3433*
X5643Y3434*
X5642Y3435*
X5642Y3435*
X5642Y3435*
X5642Y3436*
X5642Y3436*
X5642Y3436*
X5642Y3436*
Y3436*
X5642Y3436*
X5641Y3436*
X5641Y3437*
X5640Y3437*
X5639Y3438*
X5639Y3438*
X5638Y3438*
X5638Y3438*
X5638Y3438*
X5638Y3438*
X5638Y3438*
X5638*
X5639Y3442*
X5639Y3442*
X5640Y3441*
X5640Y3441*
X5641Y3441*
X5641Y3440*
X5642Y3440*
X5642Y3440*
X5643Y3440*
X5643Y3439*
X5643Y3439*
X5643Y3439*
X5644Y3438*
X5644Y3438*
X5644Y3438*
X5644Y3438*
X5644Y3438*
X5644Y3438*
X5645Y3437*
X5645Y3436*
X5645Y3436*
X5645Y3435*
X5646Y3435*
X5646Y3434*
X5646Y3433*
X5646Y3433*
X5646Y3433*
X5646Y3432*
X5646Y3432*
Y3431*
X5646Y3430*
X5646Y3429*
X5645Y3428*
X5645Y3428*
X5645Y3427*
X5645Y3427*
X5645Y3426*
X5645Y3426*
X5645Y3426*
X5645Y3426*
X5644Y3425*
X5644Y3425*
X5644Y3425*
X5644Y3425*
X5644Y3424*
X5643Y3424*
X5642Y3423*
X5642Y3422*
X5641Y3422*
X5641Y3422*
X5641Y3421*
X5640Y3421*
X5640Y3421*
X5640Y3421*
X5640Y3421*
X5640Y3421*
X5639Y3421*
X5639Y3421*
X5638Y3420*
X5636Y3420*
X5636Y3420*
X5635Y3420*
X5635Y3420*
X5634Y3420*
X5634Y3420*
X5634*
X5633Y3420*
X5633*
X5633*
X5633*
X5632Y3420*
X5630Y3420*
X5630Y3420*
X5629Y3420*
X5629Y3420*
X5628Y3420*
X5628Y3420*
X5627Y3420*
X5627Y3421*
X5627Y3421*
X5626Y3421*
X5626Y3421*
X5626Y3421*
X5626*
X5625Y3421*
X5625Y3421*
X5624Y3422*
X5624Y3422*
X5623Y3422*
X5623Y3423*
X5623Y3423*
X5622Y3423*
X5622Y3424*
X5622Y3424*
X5622Y3424*
X5622Y3424*
X5621Y3425*
X5621Y3425*
X5621Y3425*
X5621Y3425*
X5621Y3425*
X5621Y3426*
X5620Y3426*
X5620Y3427*
X5620Y3428*
X5620Y3429*
X5620Y3430*
X5620Y3430*
X5620Y3431*
X5620Y3431*
X5620Y3431*
Y3432*
X5620Y3432*
X5620Y3433*
X5620Y3434*
X5620Y3434*
X5620Y3435*
X5620Y3435*
X5620Y3436*
X5621Y3436*
X5621Y3437*
X5621Y3437*
X5621Y3438*
X5621Y3438*
X5621Y3438*
X5622Y3438*
X5622Y3438*
X5622Y3438*
X5622Y3439*
X5623Y3439*
X5623Y3440*
X5624Y3440*
X5624Y3440*
X5625Y3441*
X5625Y3441*
X5626Y3441*
X5626Y3442*
X5627Y3442*
X5627Y3442*
X5627Y3442*
X5628Y3442*
X5628Y3442*
X5628Y3442*
X5628*
X5629Y3439*
G37*
%LNpcb1-2*%
%LPC*%
G36*
X4017Y3747D02*
X4017D01*
X4017Y3747*
X4016Y3747*
X4016Y3747*
X4015Y3746*
X4015Y3746*
X4014Y3746*
X4014Y3745*
X4014Y3745*
X4014Y3745*
X4014Y3745*
X4013Y3745*
X4013Y3744*
X4013Y3744*
X4012Y3743*
X4012Y3742*
X4012Y3741*
X4012Y3741*
X4012Y3741*
Y3740*
X4012Y3740*
Y3740*
Y3740*
Y3740*
X4012Y3739*
X4012Y3739*
X4012Y3738*
X4012Y3738*
X4012Y3737*
X4013Y3737*
X4013Y3736*
X4013Y3736*
X4013Y3736*
X4013Y3736*
X4013Y3735*
X4013Y3735*
X4013Y3735*
X4013Y3735*
X4014Y3735*
Y3735*
X4014Y3735*
X4014Y3734*
X4014Y3734*
X4015Y3734*
X4015Y3734*
X4016Y3733*
X4016Y3733*
X4017Y3733*
X4017Y3733*
X4017*
X4018Y3733*
X4018Y3733*
X4019Y3733*
X4019Y3734*
X4020Y3734*
X4020Y3734*
X4020Y3735*
X4021Y3735*
X4021Y3735*
Y3735*
X4021Y3735*
X4021Y3736*
X4022Y3736*
X4022Y3737*
X4022Y3738*
X4022Y3738*
X4022Y3739*
X4022Y3739*
Y3739*
X4022Y3740*
Y3740*
Y3740*
Y3740*
Y3741*
X4022Y3741*
X4022Y3742*
X4022Y3742*
X4022Y3743*
X4022Y3743*
X4022Y3744*
X4022Y3744*
X4021Y3744*
X4021Y3744*
X4021Y3745*
X4021Y3745*
X4021Y3745*
X4021Y3745*
X4021Y3745*
X4021Y3745*
X4021Y3745*
X4020Y3746*
X4020Y3746*
X4020Y3746*
X4019Y3746*
X4018Y3747*
X4018Y3747*
X4018Y3747*
X4018Y3747*
X4017Y3747*
G37*
G36*
X3977Y3738D02*
X3967D01*
X3967Y3738*
X3967Y3737*
X3967Y3736*
X3968Y3736*
X3968Y3735*
X3968Y3735*
X3968Y3735*
X3968Y3735*
X3969Y3734*
X3969Y3734*
X3969Y3734*
X3970Y3733*
X3971Y3733*
X3971Y3733*
X3971Y3733*
X3972*
X3972Y3733*
X3972*
X3972Y3733*
X3973Y3733*
X3974Y3733*
X3974Y3734*
X3975Y3734*
X3975Y3734*
X3976Y3735*
X3976Y3735*
X3976Y3735*
X3976Y3735*
Y3735*
X3976Y3735*
X3976Y3736*
X3977Y3737*
X3977Y3737*
X3977Y3738*
X3977Y3738*
Y3738*
X3977Y3738*
X3977Y3738*
Y3738*
Y3738*
G37*
G36*
X4056Y3747D02*
X4056D01*
X4055Y3747*
X4055Y3747*
X4054Y3747*
X4054Y3747*
X4053Y3747*
X4053Y3747*
X4053Y3747*
X4053Y3747*
X4053Y3746*
X4053Y3746*
X4052Y3745*
X4052Y3745*
X4052Y3745*
X4052Y3745*
Y3745*
Y3744*
X4052Y3744*
X4052Y3744*
X4052Y3744*
X4052Y3743*
X4052Y3743*
X4053Y3743*
X4053Y3743*
X4053Y3743*
X4053Y3743*
X4053Y3743*
X4053Y3742*
X4054Y3742*
X4054Y3742*
X4054Y3742*
X4054*
X4054Y3742*
X4055Y3742*
X4055Y3742*
X4055Y3741*
X4056Y3741*
X4056Y3741*
X4056*
X4056Y3741*
X4057*
X4057Y3741*
X4058Y3741*
X4058Y3741*
X4059Y3741*
X4059Y3741*
X4060Y3741*
X4060Y3741*
X4060Y3741*
X4061Y3740*
X4061Y3740*
X4061Y3740*
X4061Y3740*
X4062Y3740*
X4062Y3740*
X4062Y3740*
X4062*
Y3741*
X4062Y3742*
X4062Y3743*
X4062Y3743*
X4061Y3744*
X4061Y3744*
X4061Y3744*
X4061Y3744*
X4061Y3744*
X4061Y3745*
X4061Y3745*
X4060Y3746*
X4060Y3746*
X4060Y3746*
X4059Y3746*
X4059Y3747*
X4059Y3747*
X4059*
X4059Y3747*
X4058Y3747*
X4057Y3747*
X4057Y3747*
X4057Y3747*
X4056Y3747*
G37*
G36*
X4087Y3747D02*
X4087D01*
X4087Y3747*
X4086Y3747*
X4086Y3747*
X4085Y3747*
X4084Y3746*
X4084Y3746*
X4084Y3746*
X4083Y3746*
X4083Y3746*
X4083Y3745*
X4083Y3745*
X4083Y3745*
X4083Y3745*
X4082Y3744*
X4082Y3743*
X4082Y3742*
X4082Y3742*
X4082Y3741*
X4082Y3741*
Y3741*
X4082Y3740*
Y3740*
Y3740*
Y3740*
X4082Y3740*
X4082Y3739*
X4082Y3738*
X4082Y3738*
X4082Y3737*
X4082Y3737*
X4082Y3737*
X4082Y3736*
X4083Y3736*
X4083Y3736*
X4083Y3735*
X4083Y3735*
X4083Y3735*
X4083Y3735*
X4083Y3735*
Y3735*
X4084Y3735*
X4084Y3734*
X4084Y3734*
X4085Y3734*
X4085Y3734*
X4086Y3733*
X4086Y3733*
X4087Y3733*
X4087Y3733*
X4087Y3733*
X4087*
X4088Y3733*
X4088Y3733*
X4089Y3733*
X4089Y3734*
X4090Y3734*
X4090Y3734*
X4091Y3735*
X4091Y3735*
X4091Y3735*
X4091Y3735*
X4091Y3735*
X4091Y3735*
X4092Y3736*
X4092Y3736*
X4092Y3737*
X4092Y3738*
X4092Y3739*
X4093Y3739*
X4093Y3739*
Y3740*
X4093Y3740*
Y3740*
Y3740*
Y3740*
Y3741*
X4093Y3741*
X4092Y3742*
X4092Y3742*
X4092Y3743*
X4092Y3743*
X4092Y3744*
X4092Y3744*
X4092Y3744*
X4092Y3745*
X4091Y3745*
X4091Y3745*
X4091Y3745*
X4091Y3745*
X4091Y3745*
X4091Y3745*
X4091Y3746*
X4090Y3746*
X4090Y3746*
X4090Y3746*
X4089Y3747*
X4089Y3747*
X4088Y3747*
X4088Y3747*
X4088Y3747*
X4087Y3747*
G37*
G36*
X3948Y3746D02*
X3942D01*
Y3727*
X3948*
X3949Y3727*
X3949*
X3950Y3727*
X3950Y3727*
X3950Y3727*
X3951Y3727*
X3951Y3727*
X3951Y3727*
X3951Y3727*
X3952Y3727*
X3952Y3727*
X3952Y3727*
X3952Y3727*
X3952Y3727*
X3952Y3728*
X3953Y3728*
X3953Y3728*
X3954Y3729*
X3954Y3729*
X3955Y3730*
X3955Y3730*
X3955Y3730*
X3955Y3730*
X3955Y3730*
Y3730*
X3956Y3731*
X3956Y3731*
X3956Y3732*
X3956Y3733*
X3956Y3734*
X3957Y3735*
X3957Y3735*
X3957Y3735*
Y3736*
X3957Y3736*
Y3736*
Y3736*
Y3736*
X3957Y3737*
X3957Y3738*
X3956Y3739*
X3956Y3740*
X3956Y3740*
X3956Y3740*
X3956Y3741*
X3956Y3741*
X3956Y3741*
X3956Y3741*
X3956Y3741*
X3956Y3741*
Y3741*
X3956Y3742*
X3955Y3743*
X3955Y3743*
X3955Y3744*
X3954Y3744*
X3954Y3744*
X3954Y3745*
X3954Y3745*
X3954Y3745*
X3953Y3745*
X3953Y3745*
X3953Y3746*
X3952Y3746*
X3952Y3746*
X3952Y3746*
X3952Y3746*
X3952*
X3951Y3746*
X3951Y3746*
X3950Y3746*
X3949Y3746*
X3949Y3746*
X3948Y3746*
G37*
G36*
X4955Y3400D02*
X4947D01*
X4955Y3388*
Y3400*
G37*
G36*
X6123Y2558D02*
X6123D01*
X6123Y2558*
X6122Y2558*
X6122Y2557*
X6121Y2557*
X6121Y2557*
X6120Y2557*
X6120Y2556*
X6120Y2556*
X6120Y2556*
X6120*
X6119Y2556*
X6119Y2556*
X6119Y2555*
X6119Y2554*
X6118Y2554*
X6118Y2553*
X6118Y2553*
Y2553*
X6118Y2552*
Y2552*
Y2552*
Y2552*
X6118Y2552*
X6118Y2551*
X6118Y2550*
X6119Y2550*
X6119Y2549*
X6119Y2549*
X6119Y2548*
X6119Y2548*
X6119Y2548*
X6120Y2548*
X6120Y2548*
X6120Y2548*
Y2548*
X6120Y2547*
X6120Y2547*
X6121Y2547*
X6121Y2547*
X6122Y2546*
X6122Y2546*
X6123Y2546*
X6123Y2546*
X6123Y2546*
X6123Y2546*
X6123*
X6124Y2546*
X6124Y2546*
X6125Y2546*
X6125Y2546*
X6126Y2547*
X6126Y2547*
X6127Y2547*
X6127Y2547*
X6127Y2548*
Y2548*
X6127Y2548*
X6127Y2548*
X6128Y2549*
X6128Y2550*
X6128Y2550*
X6128Y2551*
X6128Y2551*
Y2551*
X6128Y2552*
Y2552*
Y2552*
Y2552*
Y2552*
X6128Y2553*
X6128Y2554*
X6128Y2554*
X6128Y2555*
X6127Y2555*
X6127Y2556*
X6127Y2556*
X6127Y2556*
X6127Y2556*
X6127Y2556*
X6127Y2556*
X6127Y2556*
X6126Y2557*
X6126Y2557*
X6125Y2557*
X6125Y2557*
X6124Y2558*
X6124Y2558*
X6124*
X6123Y2558*
G37*
G36*
X6236Y4762D02*
X6230D01*
X6230Y4762*
X6229*
X6229Y4762*
X6228Y4762*
X6228Y4762*
X6228Y4762*
X6227Y4762*
X6227Y4762*
X6227Y4762*
X6227Y4762*
X6227Y4762*
X6226Y4762*
X6226Y4762*
X6226Y4762*
X6226Y4761*
X6226Y4761*
X6225Y4761*
X6225Y4760*
X6224Y4760*
X6224Y4759*
X6223Y4759*
X6223Y4759*
X6223Y4759*
X6223Y4759*
Y4759*
X6223Y4758*
X6223Y4758*
X6222Y4757*
X6222Y4756*
X6222Y4755*
X6222Y4754*
X6222Y4754*
X6222Y4753*
Y4753*
X6222Y4753*
Y4753*
Y4753*
Y4752*
X6222Y4751*
X6222Y4750*
X6222Y4750*
X6222Y4749*
X6222Y4749*
X6222Y4749*
X6222Y4748*
X6222Y4748*
X6222Y4748*
X6222Y4748*
X6222Y4748*
X6223Y4748*
Y4748*
X6223Y4747*
X6223Y4746*
X6223Y4746*
X6224Y4745*
X6224Y4745*
X6224Y4745*
X6224Y4744*
X6224Y4744*
X6225Y4744*
X6225Y4744*
X6225Y4744*
X6226Y4743*
X6226Y4743*
X6226Y4743*
X6227Y4743*
X6227Y4743*
X6227*
X6227Y4743*
X6228Y4743*
X6229Y4743*
X6229Y4743*
X6230Y4743*
X6230Y4743*
X6236*
Y4762*
G37*
G36*
X5216Y2756D02*
X5197D01*
Y2750*
X5197Y2750*
Y2749*
X5197Y2749*
X5197Y2748*
X5197Y2748*
X5197Y2748*
X5197Y2747*
X5197Y2747*
X5197Y2747*
X5197Y2747*
X5197Y2747*
X5197Y2746*
X5197Y2746*
X5197Y2746*
X5198Y2746*
X5198Y2746*
X5198Y2745*
X5199Y2745*
X5199Y2744*
X5200Y2744*
X5200Y2743*
X5200Y2743*
X5200Y2743*
X5200Y2743*
X5200*
X5201Y2743*
X5201Y2743*
X5202Y2742*
X5203Y2742*
X5204Y2742*
X5205Y2742*
X5205Y2742*
X5206Y2742*
X5206*
X5206Y2742*
X5206*
X5206*
X5207*
X5208Y2742*
X5209Y2742*
X5209Y2742*
X5210Y2742*
X5210Y2742*
X5210Y2742*
X5211Y2742*
X5211Y2742*
X5211Y2742*
X5211Y2742*
X5211Y2742*
X5211Y2743*
X5211*
X5212Y2743*
X5213Y2743*
X5213Y2743*
X5214Y2744*
X5214Y2744*
X5214Y2744*
X5215Y2744*
X5215Y2744*
X5215Y2745*
X5215Y2745*
X5215Y2745*
X5216Y2746*
X5216Y2746*
X5216Y2746*
X5216Y2747*
X5216Y2747*
Y2747*
X5216Y2747*
X5216Y2748*
X5216Y2749*
X5216Y2749*
X5216Y2750*
X5216Y2750*
Y2756*
G37*
G36*
X4570Y2493D02*
X4559D01*
Y2485*
X4570Y2493*
G37*
G36*
Y2473D02*
X4559D01*
Y2465*
X4570Y2473*
G37*
G36*
X4568Y2455D02*
X4568D01*
X4568*
X4568*
X4568Y2455*
X4567Y2455*
X4567Y2455*
X4566Y2455*
X4566Y2455*
X4566Y2455*
X4566Y2454*
X4566Y2454*
X4565Y2454*
X4565Y2454*
X4565Y2453*
X4565Y2453*
X4564Y2453*
X4564Y2453*
X4564Y2452*
X4564Y2452*
X4564Y2452*
X4564Y2451*
X4564Y2451*
X4564Y2450*
X4564Y2450*
X4564Y2449*
Y2442*
X4572*
Y2450*
X4572Y2451*
X4572Y2451*
X4572Y2451*
X4572Y2452*
X4572Y2452*
X4572Y2452*
X4572Y2453*
X4571Y2453*
X4571Y2454*
X4571Y2454*
X4571Y2454*
X4571Y2454*
X4570Y2455*
X4570Y2455*
X4569Y2455*
X4569Y2455*
X4568Y2455*
X4568Y2455*
G37*
G36*
X4538Y3017D02*
X4538D01*
X4537Y3017*
X4536Y3017*
X4535Y3017*
X4535Y3017*
X4534Y3016*
X4534Y3016*
X4534Y3016*
X4534Y3016*
X4534Y3016*
X4533Y3016*
X4533Y3016*
X4533*
X4533Y3015*
X4532Y3015*
X4531Y3014*
X4531Y3014*
X4531Y3013*
X4531Y3013*
X4530Y3013*
X4530Y3013*
X4530Y3012*
X4530Y3012*
Y3012*
X4530Y3011*
X4530Y3010*
X4529Y3010*
X4529Y3009*
X4529Y3008*
X4529Y3008*
X4529Y3008*
X4529Y3007*
Y3007*
Y3007*
Y3007*
Y3007*
X4529Y3006*
X4529Y3005*
X4529Y3004*
X4530Y3003*
X4530Y3003*
X4530Y3002*
X4530Y3001*
X4531Y3001*
X4531Y3000*
X4531Y3000*
X4531Y2999*
X4532Y2999*
X4532Y2999*
X4532Y2999*
X4532Y2999*
X4532Y2999*
X4533Y2999*
X4534Y3000*
X4535Y3000*
X4535Y3000*
X4536Y3001*
X4536Y3001*
X4536Y3001*
X4537Y3001*
X4537Y3001*
X4537Y3001*
X4537Y3001*
X4537*
X4538Y2999*
X4537Y2998*
X4537Y2998*
X4536Y2998*
X4536Y2998*
X4535Y2998*
X4535Y2997*
X4535Y2997*
X4535Y2997*
X4534*
X4535Y2997*
X4536Y2997*
X4536Y2997*
X4537Y2997*
X4537Y2997*
X4538Y2997*
X4538*
X4539Y2997*
X4539Y2997*
X4540Y2997*
X4540Y2997*
X4541Y2997*
X4542Y2997*
X4542Y2998*
X4542Y2998*
X4543Y2998*
X4543Y2998*
X4543Y2999*
X4544Y2999*
X4544Y2999*
X4544Y2999*
X4544Y2999*
X4544Y2999*
X4545Y3000*
X4545Y3000*
X4545Y3001*
X4546Y3002*
X4546Y3002*
X4546Y3003*
X4546Y3003*
X4546Y3004*
X4546Y3005*
X4547Y3005*
X4547Y3006*
X4547Y3006*
Y3006*
X4547Y3007*
Y3007*
Y3007*
X4547Y3008*
X4547Y3009*
X4546Y3009*
X4546Y3010*
X4546Y3011*
X4546Y3012*
X4546Y3012*
X4545Y3013*
X4545Y3013*
X4545Y3013*
X4545Y3014*
X4545Y3014*
X4544Y3014*
X4544Y3014*
X4544Y3015*
X4544Y3015*
X4544Y3015*
X4543Y3015*
X4543Y3016*
X4542Y3016*
X4542Y3016*
X4541Y3017*
X4541Y3017*
X4540Y3017*
X4540Y3017*
X4539Y3017*
X4539Y3017*
X4539Y3017*
X4538Y3017*
G37*
G36*
X5576Y2953D02*
X5576D01*
X5575Y2953*
X5574Y2953*
X5574Y2953*
X5574Y2952*
X5573Y2952*
X5573Y2952*
X5573Y2952*
X5573Y2952*
X5572Y2951*
X5572Y2951*
X5572Y2950*
X5572Y2950*
X5572Y2950*
X5572Y2949*
X5571Y2949*
Y2949*
Y2949*
Y2949*
X5572Y2948*
X5572Y2948*
X5572Y2947*
X5572Y2947*
X5572Y2947*
X5572Y2946*
X5573Y2946*
X5573Y2946*
X5573Y2946*
X5574Y2945*
X5574Y2945*
X5575Y2945*
X5575Y2945*
X5575Y2945*
X5575Y2945*
X5576*
X5576Y2945*
X5577Y2945*
X5577Y2945*
X5578Y2946*
X5578Y2946*
X5578Y2946*
X5579Y2946*
X5579Y2946*
X5579Y2947*
X5579Y2947*
X5580Y2948*
X5580Y2948*
X5580Y2948*
X5580Y2949*
X5580Y2949*
Y2949*
Y2949*
Y2949*
X5580Y2950*
X5580Y2950*
X5579Y2951*
X5579Y2951*
X5579Y2951*
X5579Y2952*
X5579Y2952*
X5579Y2952*
X5578Y2952*
X5578Y2953*
X5577Y2953*
X5577Y2953*
X5576Y2953*
X5576Y2953*
X5576Y2953*
G37*
G36*
X5576Y2942D02*
X5575D01*
X5575Y2942*
X5574Y2942*
X5574Y2942*
X5573Y2942*
X5573Y2941*
X5572Y2941*
X5572Y2941*
X5572Y2941*
Y2941*
X5572Y2941*
X5571Y2940*
X5571Y2940*
X5571Y2939*
X5571Y2939*
X5571Y2938*
X5570Y2938*
Y2938*
X5570Y2937*
Y2937*
Y2937*
Y2937*
Y2937*
X5571Y2936*
X5571Y2936*
X5571Y2935*
X5571Y2935*
X5571Y2934*
X5572Y2934*
X5572Y2934*
X5572Y2934*
X5572Y2934*
X5572Y2933*
X5572Y2933*
X5573Y2933*
X5574Y2932*
X5574Y2932*
X5575Y2932*
X5575Y2932*
X5575*
X5575Y2932*
X5576*
X5576Y2932*
X5577Y2932*
X5577Y2932*
X5578Y2932*
X5578Y2933*
X5578Y2933*
X5578Y2933*
X5578Y2933*
X5579Y2933*
X5579Y2933*
X5580Y2934*
X5580Y2934*
X5580Y2934*
X5580Y2934*
X5580Y2935*
X5580Y2935*
X5580Y2935*
X5581Y2936*
X5581Y2936*
X5581Y2936*
X5581Y2937*
X5581Y2937*
Y2937*
Y2937*
X5581Y2938*
X5581Y2938*
X5581Y2939*
X5580Y2939*
X5580Y2940*
X5580Y2940*
X5580Y2941*
X5579Y2941*
X5579Y2941*
X5579Y2941*
X5579Y2941*
X5578Y2942*
X5578Y2942*
X5577Y2942*
X5577Y2942*
X5576Y2942*
X5576*
X5576Y2942*
G37*
G36*
X5984Y3057D02*
X5984D01*
X5983Y3057*
X5983Y3057*
X5982Y3057*
X5982Y3057*
X5981Y3056*
X5981Y3056*
X5981Y3056*
X5981Y3056*
X5981Y3056*
X5980Y3055*
X5980Y3055*
X5980Y3055*
X5979Y3054*
X5979Y3054*
X5979Y3054*
X5979Y3054*
X5979Y3053*
X5979Y3053*
X5979Y3052*
X5979Y3052*
X5978Y3051*
X5978Y3051*
Y3051*
Y3051*
Y3051*
X5978Y3050*
X5978Y3050*
X5979Y3049*
X5979Y3048*
X5979Y3048*
X5979Y3047*
X5980Y3047*
X5980Y3047*
X5980Y3047*
X5980Y3047*
Y3047*
X5980Y3046*
X5980Y3046*
X5981Y3046*
X5982Y3046*
X5982Y3045*
X5983Y3045*
X5983Y3045*
X5983*
X5983Y3045*
X5984*
X5984Y3045*
X5985Y3045*
X5986Y3046*
X5986Y3046*
X5986Y3046*
X5987Y3047*
X5987Y3047*
X5987Y3047*
Y3047*
X5987Y3047*
X5988Y3047*
X5988Y3048*
X5988Y3049*
X5988Y3049*
X5988Y3050*
X5988Y3050*
Y3051*
X5988Y3051*
Y3051*
Y3051*
Y3051*
Y3051*
X5988Y3052*
X5988Y3053*
X5988Y3054*
X5988Y3054*
X5988Y3054*
X5988Y3055*
X5987Y3055*
X5987Y3055*
X5987Y3055*
X5987Y3055*
X5987Y3055*
X5987Y3055*
X5987Y3056*
X5986Y3056*
X5986Y3056*
X5985Y3057*
X5985Y3057*
X5984Y3057*
X5984Y3057*
X5984Y3057*
G37*
G36*
X4045Y3840D02*
X4037D01*
X4045Y3828*
Y3840*
G37*
%LNpcb1-3*%
%LPD*%
G54D13*
X3754Y3657D02*
X4105D01*
Y3842*
X3754D02*
X4105D01*
X3754Y3657D02*
Y3842D01*
X5161Y2922D02*
X5238D01*
X5161D02*
Y3057D01*
X5238*
Y2922D02*
Y3057D01*
X4832Y3371D02*
Y3448D01*
X4967*
Y3371D02*
Y3448D01*
X4832Y3371D02*
X4967D01*
X5991Y2526D02*
Y2613D01*
X6148*
Y2526D02*
Y2613D01*
X5991Y2526D02*
X6148D01*
X4834Y3081D02*
Y3158D01*
X4968*
Y3081D02*
Y3158D01*
X4834Y3081D02*
X4968D01*
X5072Y3161D02*
Y3238D01*
X5207*
Y3161D02*
Y3238D01*
X5072Y3161D02*
X5207D01*
X6385Y4658D02*
Y4821D01*
X6094Y4658D02*
X6385D01*
X6094D02*
Y4821D01*
X6385*
X5138Y2641D02*
Y2878D01*
Y2641D02*
X5301D01*
Y2878*
X5138D02*
X5301D01*
X4473Y2285D02*
X4626D01*
X4473D02*
Y2592D01*
X4626*
Y2285D02*
Y2592D01*
X5683Y3416D02*
X5836D01*
Y3203D02*
Y3416D01*
X5683Y3203D02*
X5836D01*
X5683D02*
Y3416D01*
X4659Y2683D02*
Y3316D01*
X4442Y2683D02*
X4659D01*
X4442D02*
Y3316D01*
X4659*
X5708Y2886D02*
Y2973D01*
X5551Y2886D02*
X5708D01*
X5551D02*
Y2973D01*
X5708*
X5697Y2971D02*
Y3048D01*
X5562Y2971D02*
X5697D01*
X5562D02*
Y3048D01*
X5697*
X5851Y3016D02*
Y3103D01*
X6008*
Y3016D02*
Y3103D01*
X5851Y3016D02*
X6008D01*
X5852Y3111D02*
Y3188D01*
X5987*
Y3111D02*
Y3188D01*
X5852Y3111D02*
X5987D01*
X3922Y3811D02*
Y3888D01*
X4057*
Y3811D02*
Y3888D01*
X3922Y3811D02*
X4057D01*
X4671Y1582D02*
X4748D01*
X4671D02*
Y1717D01*
X4748*
Y1582D02*
Y1717D01*
X5581Y3352D02*
X5658D01*
X5581D02*
Y3487D01*
X5658*
Y3352D02*
Y3487D01*
M02*