%FSLAX23Y23*%
%MOIN*%
%SFA1B1*%

%IPPOS*%
%AMD87*
4,1,8,-0.022600,0.006900,-0.022600,-0.006900,-0.020700,-0.008900,0.020700,-0.008900,0.022600,-0.006900,0.022600,0.006900,0.020700,0.008900,-0.020700,0.008900,-0.022600,0.006900,0.0*
1,1,0.003900,-0.020700,0.006900*
1,1,0.003900,-0.020700,-0.006900*
1,1,0.003900,0.020700,-0.006900*
1,1,0.003900,0.020700,0.006900*
%
%AMD97*
4,1,8,0.019700,-0.009800,0.019700,0.009800,0.017700,0.011800,-0.017700,0.011800,-0.019700,0.009800,-0.019700,-0.009800,-0.017700,-0.011800,0.017700,-0.011800,0.019700,-0.009800,0.0*
1,1,0.004020,0.017700,-0.009800*
1,1,0.004020,0.017700,0.009800*
1,1,0.004020,-0.017700,0.009800*
1,1,0.004020,-0.017700,-0.009800*
%
%ADD25R,0.085830X0.063780*%
%ADD26R,0.053150X0.033470*%
%ADD27R,0.033470X0.053150*%
%ADD30R,0.057330X0.051360*%
%ADD31R,0.051360X0.057330*%
G04~CAMADD=87~8~0.0~0.0~177.2~452.8~19.5~0.0~15~0.0~0.0~0.0~0.0~0~0.0~0.0~0.0~0.0~0~0.0~0.0~0.0~90.0~454.0~177.0*
%ADD87D87*%
%ADD88R,0.151580X0.037400*%
%ADD89R,0.330710X0.397640*%
%ADD90R,0.037400X0.151580*%
%ADD91R,0.397640X0.330710*%
%ADD92R,0.037650X0.047490*%
%ADD93R,0.098430X0.086610*%
%ADD94R,0.031500X0.035430*%
%ADD95R,0.035430X0.031500*%
%ADD96R,0.145670X0.096460*%
G04~CAMADD=97~8~0.0~0.0~236.2~393.7~20.1~0.0~15~0.0~0.0~0.0~0.0~0~0.0~0.0~0.0~0.0~0~0.0~0.0~0.0~270.0~394.0~237.0*
%ADD97D97*%
%ADD98O,0.023620X0.076770*%
%ADD99O,0.076770X0.023620*%
%ADD100R,0.059060X0.066930*%
%LNpcb1-1*%
%LPD*%
G54D25*
X5220Y2843D03*
Y2676D03*
G54D26*
X6480Y1557D03*
Y1622D03*
X5770Y3122D03*
Y3057D03*
X4650Y1532D03*
Y1467D03*
X4970Y2957D03*
Y3022D03*
X4890Y1662D03*
Y1597D03*
X4240Y4662D03*
Y4597D03*
X2610Y3077D03*
Y3142D03*
X6480Y1862D03*
Y1797D03*
X4820Y1662D03*
Y1597D03*
X4470Y4730D03*
Y4665D03*
X4770Y3067D03*
Y3132D03*
X6480Y1742D03*
Y1677D03*
X4470Y4602D03*
Y4537D03*
G54D27*
X4737Y3520D03*
X4802D03*
X2517Y3330D03*
X2582D03*
X4777Y1390D03*
X4842D03*
X4870Y3520D03*
X4934D03*
X4352Y4500D03*
X4287D03*
X2447Y3070D03*
X2512D03*
X5697Y3460D03*
X5762D03*
X5882D03*
X5817D03*
X4707Y3220D03*
X4772D03*
X5112Y2950D03*
X5047D03*
X3817Y3850D03*
X3882D03*
X2377Y3330D03*
X2442D03*
G54D30*
X5200Y3021D03*
Y2958D03*
X4710Y1681D03*
Y1618D03*
X5620Y3451D03*
Y3388D03*
G54D31*
X4931Y3410D03*
X4868D03*
X4933Y3120D03*
X4870D03*
X5171Y3200D03*
X5108D03*
X5598Y3010D03*
X5661D03*
X5888Y3150D03*
X5951D03*
X4021Y3850D03*
X3958D03*
G54D87*
X4721Y1461D03*
Y1487D03*
Y1512D03*
X4888Y1487D03*
Y1512D03*
Y1538D03*
X4721D03*
X4888Y1461D03*
G54D88*
X4619Y4740D03*
Y4540D03*
G54D89*
X5011Y4640D03*
G54D90*
X2380Y3490D03*
X2580D03*
G54D91*
X2480Y3881D03*
G54D92*
X6110Y2570D03*
X6029D03*
X5589Y2930D03*
X5670D03*
X5889Y3060D03*
X5970D03*
G54D93*
X6147Y4740D03*
X6332D03*
G54D94*
X2445Y3150D03*
X2520D03*
X2482Y3228D03*
G54D95*
X4310Y4667D03*
Y4592D03*
X4389Y4630D03*
G54D96*
X4550Y2337D03*
Y2540D03*
G54D97*
X4891Y3257D03*
X5000Y3220D03*
Y3294D03*
X4891D03*
Y3220D03*
G54D98*
X5865Y2916D03*
X5739D03*
X5960Y2583D03*
X5771Y2916D03*
X5802D03*
X5834D03*
X5897D03*
X5928D03*
X5960D03*
X5928Y2583D03*
X5897D03*
X5865D03*
X5834D03*
X5802D03*
X5771D03*
X5739D03*
G54D99*
X6016Y2639D03*
X5683Y2860D03*
X6016D03*
Y2828D03*
Y2797D03*
Y2765D03*
Y2734D03*
Y2702D03*
Y2671D03*
X5683Y2639D03*
Y2671D03*
Y2702D03*
Y2734D03*
Y2765D03*
Y2797D03*
Y2828D03*
G54D100*
X5803Y3260D03*
X5716Y3360D03*
Y3260D03*
X5803Y3360D03*
M02*