%FSLAX23Y23*%
%MOIN*%
%SFA1B1*%

%IPPOS*%
%ADD44C,0.053150*%
%ADD45R,0.053150X0.053150*%
%ADD48R,0.061810X0.061810*%
%ADD49C,0.061810*%
%ADD53R,0.055120X0.055120*%
%ADD54C,0.055120*%
%ADD60C,0.108270*%
%ADD61R,0.108270X0.108270*%
%ADD62C,0.100000*%
%ADD64C,0.050000*%
%ADD72C,0.045980*%
%ADD74C,0.393700*%
%ADD75R,0.070870X0.070870*%
%ADD76C,0.070870*%
%ADD78C,0.064960*%
%ADD79C,0.059060*%
%ADD80C,0.196850*%
%ADD81C,0.088580*%
%ADD82C,0.060000*%
%ADD83C,0.030000*%
%ADD84C,0.100000*%
%ADD85C,0.050000*%
%ADD86C,0.075000*%
%LNpcb1-1*%
%LPD*%
G36*
X6685Y4913D02*
X6691Y4894D01*
X6684Y4884*
X6676Y4868*
X6670Y4850*
X6667Y4832*
Y4813*
X6670Y4795*
X6676Y4777*
X6684Y4760*
X6695Y4745*
X6708Y4732*
X6723Y4721*
X6740Y4713*
X6758Y4707*
X6776Y4704*
X6795*
X6813Y4707*
X6831Y4713*
X6847Y4721*
X6848Y4721*
X6878Y4706*
Y2623*
X6858Y2614*
X6848Y2613*
X6841Y2620*
X6829Y2627*
X6816Y2630*
X6803*
X6790Y2627*
X6778Y2620*
X6772Y2614*
X6762Y2611*
X6736Y2611*
X6735Y2612*
X6725Y2618*
X6715Y2620*
X6715*
Y2580*
X6710*
Y2575*
X6669*
Y2574*
X6670Y2570*
X6661Y2551*
X6651Y2540*
X6217*
X6212Y2543*
X6195Y2565*
X6160*
Y2570*
X6155*
Y2604*
X6146Y2602*
X6138Y2598*
X6131Y2591*
X6130Y2588*
X6111Y2589*
X6100Y2593*
Y2697*
X6311Y2908*
X6316Y2914*
X6319Y2922*
X6320Y2930*
Y3442*
X6332Y3452*
X6350Y3461*
X6354Y3460*
X6355*
Y3500*
Y3540*
X6354*
X6350Y3538*
X6332Y3547*
X6320Y3557*
Y3640*
X6319Y3647*
X6316Y3655*
X6311Y3661*
X6291Y3681*
X6285Y3686*
X6277Y3689*
X6270Y3690*
X6210*
X6202Y3689*
X6194Y3686*
X6188Y3681*
X6178Y3671*
X6173Y3665*
X6170Y3657*
X6169Y3650*
Y3633*
X6169Y3632*
X6169Y3630*
X6170Y3628*
X6170Y3625*
X6171Y3624*
X6171Y3622*
X6172Y3620*
X6173Y3618*
X6174Y3617*
X6175Y3616*
X6174Y3610*
Y3604*
X6173Y3603*
X6172Y3601*
X6171Y3599*
X6171Y3597*
X6170Y3596*
X6170Y3593*
X6169Y3591*
X6169Y3589*
X6169Y3588*
Y3483*
X6165Y3480*
X6165*
Y3440*
Y3400*
X6165*
X6169Y3396*
Y3229*
X6156Y3220*
X6139Y3214*
X6135Y3217*
X6125Y3220*
X6125*
Y3180*
Y3140*
X6125*
X6135Y3142*
X6139Y3145*
X6156Y3139*
X6169Y3130*
Y3045*
X6165*
X6156Y3042*
X6148Y3038*
X6141Y3031*
X6137Y3023*
X6134Y3014*
Y3005*
X6137Y2996*
X6121Y2971*
X6114Y2974*
X6093Y2991*
X6092Y2993*
X6088Y3001*
X6081Y3008*
X6073Y3012*
X6066Y3014*
X6058Y3024*
X6051Y3041*
X6050Y3043*
X6052Y3046*
X6054Y3055*
X5985*
X5987Y3046*
X5991Y3038*
X5998Y3031*
X6006Y3027*
X6013Y3025*
X6021Y3015*
X6028Y2998*
X6029Y2996*
X6027Y2993*
X6025Y2984*
Y2975*
X6026Y2971*
X6025Y2969*
X6017Y2953*
X6008Y2941*
X6002Y2940*
X5994Y2935*
X5988Y2929*
X5960Y2941*
X5850Y3052*
Y3120*
X5849Y3127*
X5846Y3135*
X5841Y3141*
X5671Y3311*
X5667Y3314*
X5667Y3317*
X5684Y3344*
X5821*
X5846Y3319*
X5846Y3318*
X5848Y3288*
X5841Y3281*
X5837Y3273*
X5835Y3265*
X5870*
Y3260*
X5875*
Y3224*
X5886Y3218*
X5886Y3216*
X5888Y3212*
X5889Y3210*
X5890Y3207*
X5892Y3204*
X5893Y3202*
X5896Y3200*
X5897Y3197*
X5900Y3196*
X5902Y3193*
X5904Y3192*
X5907Y3190*
X5910Y3189*
X5912Y3188*
X5915Y3187*
X5918Y3186*
X5921Y3185*
X5924Y3185*
X5927*
X5930Y3184*
X5932Y3185*
X5935*
X5938Y3185*
X5941Y3186*
X5944Y3187*
X5947Y3188*
X5949Y3189*
X5952Y3190*
X5955Y3192*
X5957Y3193*
X5959Y3196*
X5962Y3197*
X5963Y3200*
X5966Y3202*
X5967Y3204*
X5969Y3207*
X5970Y3210*
X5971Y3212*
X5972Y3215*
X5973Y3218*
X5974Y3221*
X5975Y3224*
Y3227*
X5975Y3230*
Y3286*
X5979Y3290*
X6003Y3302*
X6004Y3302*
X6014Y3300*
X6015*
Y3340*
Y3380*
X6014*
X6004Y3377*
X5995Y3372*
X5987Y3364*
X5982Y3355*
X5982Y3354*
X5959Y3344*
X5950Y3344*
X5872Y3422*
X5862Y3429*
X5851Y3433*
X5840Y3435*
X5672*
X5658Y3451*
X5661Y3481*
X5668Y3488*
X5672Y3496*
X5674Y3505*
X5640*
Y3510*
X5635*
Y3544*
X5626Y3542*
X5618Y3538*
X5611Y3531*
X5609Y3527*
X5590Y3520*
X5577Y3517*
X5576Y3517*
X5142Y3952*
X5132Y3959*
X5121Y3963*
X5110Y3965*
X3840*
X3828Y3963*
X3817Y3959*
X3807Y3952*
X3807*
X3751Y3895*
X3410*
X3398Y3893*
X3387Y3889*
X3377Y3882*
X1857Y2362*
X1850Y2352*
X1846Y2341*
X1844Y2330*
Y1669*
X1844Y1668*
X1825Y1645*
Y1610*
Y1574*
X1839Y1570*
X1850Y1557*
X1857Y1547*
X1877Y1527*
X1880Y1526*
X1882Y1523*
X1884Y1522*
X1887Y1520*
X1890Y1519*
X1892Y1518*
X1895Y1517*
X1898Y1516*
X1901Y1515*
X1904Y1515*
X1907*
X1910Y1514*
X1912Y1515*
X1915*
X1918Y1515*
X1921Y1516*
X1924Y1517*
X1927Y1518*
X1929Y1519*
X1932Y1520*
X1935Y1522*
X1937Y1523*
X1939Y1526*
X1942Y1527*
X1943Y1530*
X1946Y1532*
X1947Y1534*
X1949Y1537*
X1950Y1540*
X1951Y1542*
X1952Y1545*
X1953Y1548*
X1954Y1551*
X1955Y1554*
Y1557*
X1955Y1560*
X1955Y1562*
Y1565*
X1954Y1568*
X1953Y1571*
X1952Y1574*
X1951Y1577*
X1950Y1579*
X1949Y1582*
X1947Y1585*
X1946Y1587*
X1943Y1589*
X1942Y1592*
X1935Y1598*
Y1739*
X1945Y1748*
X1965Y1757*
X1969Y1755*
X1980Y1753*
X1981*
Y1813*
Y1873*
X1980*
X1969Y1870*
X1965Y1869*
X1945Y1878*
X1935Y1887*
Y2311*
X3151Y3526*
X3166Y3525*
X3185Y3519*
X3187Y3515*
X3195Y3507*
X3204Y3502*
X3214Y3500*
X3215*
Y3540*
X3220*
Y3545*
X3260*
Y3545*
X3257Y3555*
X3252Y3564*
X3244Y3572*
X3240Y3574*
X3234Y3593*
X3233Y3608*
X3426Y3802*
X3444Y3800*
X3451Y3781*
X3452Y3769*
X3447Y3764*
X3442Y3755*
X3440Y3745*
Y3745*
X3520*
Y3745*
X3517Y3755*
X3512Y3764*
X3504Y3772*
X3500Y3774*
X3500Y3790*
X3505Y3804*
X3770*
X3772Y3805*
X3775*
X3778Y3805*
X3781Y3806*
X3784Y3807*
X3787Y3808*
X3789Y3809*
X3792Y3810*
X3795Y3812*
X3797Y3813*
X3799Y3816*
X3802Y3817*
X3858Y3874*
X4020*
X4021Y3874*
X4044Y3855*
X4115*
X4138Y3874*
X4139Y3874*
X5091*
X5439Y3526*
X5438Y3518*
X5431Y3511*
X5427Y3503*
X5425Y3494*
Y3485*
X5427Y3476*
X5431Y3468*
X5438Y3461*
X5446Y3457*
X5455Y3455*
X5464*
X5473Y3457*
X5481Y3461*
X5488Y3468*
X5496Y3469*
X5607Y3357*
X5617Y3350*
X5621Y3348*
X5612Y3320*
X5590*
X5582Y3319*
X5574Y3316*
X5568Y3311*
X5548Y3291*
X5543Y3285*
X5540Y3277*
X5539Y3270*
Y3250*
X5540Y3242*
X5543Y3234*
X5548Y3228*
X5558Y3218*
X5560Y3217*
X5561Y3215*
X5563Y3215*
X5564Y3213*
X5566Y3213*
X5568Y3212*
X5578Y3208*
X5582Y3204*
X5590Y3192*
X5592Y3188*
X5593Y3186*
X5593Y3184*
X5594Y3184*
X5594Y3179*
X5589Y3160*
X5583Y3151*
X5578Y3148*
X5571Y3141*
X5567Y3133*
X5565Y3125*
X5600*
Y3120*
X5605*
Y3085*
X5613Y3087*
X5623Y3087*
X5633Y3083*
X5645Y3074*
X5645Y3071*
X5646Y3068*
X5647Y3065*
X5648Y3062*
X5649Y3060*
X5650Y3057*
X5652Y3054*
X5653Y3052*
X5656Y3050*
X5657Y3047*
X5660Y3046*
X5662Y3043*
X5664Y3042*
X5667Y3040*
X5670Y3039*
X5672Y3038*
X5675Y3037*
X5677Y3036*
X5677Y3035*
X5678Y3033*
X5678Y3031*
X5679Y3030*
X5680Y3028*
X5681Y3026*
X5682Y3024*
X5684Y3023*
X5685Y3022*
X5814Y2893*
X5814Y2892*
X5814Y2888*
X5809Y2881*
X5792Y2864*
X5789Y2865*
X5780*
X5771Y2862*
X5763Y2858*
X5756Y2851*
X5752Y2843*
X5750Y2834*
Y2825*
X5746Y2811*
X5736Y2802*
X5728Y2798*
X5721Y2791*
X5717Y2783*
X5715Y2774*
Y2765*
X5717Y2756*
X5721Y2748*
X5728Y2741*
X5736Y2737*
X5745Y2735*
X5754*
X5763Y2737*
X5771Y2741*
X5778Y2748*
X5782Y2756*
X5785Y2765*
Y2774*
X5788Y2788*
X5798Y2797*
X5806Y2801*
X5813Y2808*
X5814Y2810*
X5824Y2814*
X5844Y2802*
X5845Y2801*
X5851Y2790*
X5850Y2784*
Y2775*
X5851Y2769*
X5852Y2765*
X5848Y2746*
X5838Y2734*
X5838Y2734*
X5831Y2727*
X5827Y2719*
X5825Y2710*
Y2701*
X5827Y2692*
X5831Y2684*
X5838Y2678*
X5846Y2673*
X5855Y2671*
X5864*
X5868Y2657*
X5873Y2649*
X5879Y2643*
X5887Y2638*
X5896Y2636*
X5905*
X5909Y2637*
X5928Y2628*
X5939Y2619*
Y2360*
X5938Y2358*
X5923Y2349*
X5909Y2343*
X5904Y2345*
X5895*
X5886Y2342*
X5878Y2338*
X5871Y2331*
X5867Y2323*
X5865Y2314*
Y2305*
X5855Y2303*
X5835Y2314*
X5832Y2323*
X5828Y2331*
X5821Y2338*
X5813Y2342*
X5804Y2345*
X5795*
X5786Y2342*
X5778Y2338*
X5771Y2331*
X5767Y2323*
X5765Y2314*
Y2305*
X5746Y2280*
X5724Y2278*
X5351Y2651*
X5353Y2667*
X5359Y2685*
X5364Y2687*
X5372Y2695*
X5377Y2704*
X5380Y2714*
Y2715*
X5340*
Y2720*
X5335*
Y2760*
X5334*
X5324Y2757*
X5315Y2752*
X5307Y2744*
X5302Y2735*
X5301Y2731*
X5300Y2728*
X5295Y2720*
X5284Y2709*
X5271Y2705*
X5175*
X5174Y2705*
X5173Y2705*
X5170Y2704*
X5167Y2704*
X5166Y2703*
X5165Y2703*
X5162Y2702*
X5159Y2701*
X5159Y2700*
X5158Y2700*
X5155Y2698*
X5153Y2696*
X5152Y2695*
X5152Y2694*
X5035Y2561*
X5004Y2552*
X4995Y2557*
X4985Y2560*
X4985*
Y2520*
X4980*
Y2515*
X4940*
Y2514*
X4942Y2504*
X4947Y2495*
X4955Y2487*
X4945Y2459*
X4780Y2270*
X4747*
X4735Y2295*
X4734Y2300*
X4740Y2308*
X4744Y2319*
X4747Y2331*
Y2332*
X4627*
Y2331*
X4629Y2319*
X4634Y2308*
X4639Y2300*
X4638Y2295*
X4626Y2270*
X4469*
X4367Y2344*
X4366Y2345*
X4365Y2346*
X4362Y2347*
X4360Y2348*
X4359Y2348*
X4357Y2349*
X4355Y2349*
X4353Y2350*
X4351Y2350*
X4350Y2350*
X2100*
X2092Y2349*
X2084Y2346*
X2078Y2341*
X2038Y2301*
X2033Y2295*
X2030Y2287*
X2029Y2280*
Y2265*
X2029Y2264*
X2029Y2263*
X2030Y2260*
X2030Y2257*
X2031Y2256*
X2031Y2255*
X2032Y2252*
X2033Y2249*
X2037Y2240*
X2033Y2230*
X2032Y2227*
X2031Y2224*
X2031Y2223*
X2030Y2222*
X2030Y2219*
X2029Y2216*
X2029Y2215*
X2029Y2215*
Y2030*
X2030Y2022*
X2033Y2014*
X2038Y2008*
X2178Y1868*
X2184Y1863*
X2192Y1860*
X2200Y1859*
X4779*
Y1778*
X4769Y1769*
X4766Y1769*
X4738Y1771*
X4731Y1778*
X4723Y1782*
X4715Y1784*
Y1750*
X4710*
Y1745*
X4675*
X4677Y1736*
X4681Y1728*
X4688Y1721*
X4684Y1692*
X4675Y1680*
X4666*
X4663Y1679*
X4661Y1679*
X4659Y1679*
X4658Y1679*
X4656Y1678*
X4653Y1677*
X4652Y1676*
X4651Y1676*
X4649Y1674*
X4646Y1673*
X4645Y1672*
X4644Y1671*
X4630Y1665*
X4617Y1663*
X4615Y1663*
X4613Y1664*
X4611Y1664*
X4609Y1665*
X4607*
X4605Y1665*
X4603Y1665*
X4601*
X4599Y1664*
X4597Y1664*
X4595Y1663*
X4593Y1663*
X4592Y1662*
X4590Y1661*
X4588Y1660*
X4587Y1659*
X4585Y1658*
X4584Y1656*
X4518Y1591*
X4513Y1585*
X4510Y1577*
X4509Y1570*
Y1500*
X4510Y1492*
X4513Y1484*
X4518Y1478*
X4668Y1328*
X4674Y1323*
X4682Y1320*
X4690Y1319*
X4750*
X4757Y1320*
X4765Y1323*
X4771Y1328*
X4881Y1438*
X4886Y1444*
X4887Y1447*
X4915Y1435*
Y1435*
X4917Y1426*
X4921Y1418*
X4928Y1411*
X4936Y1407*
X4945Y1405*
Y1440*
X4955*
Y1405*
X4963Y1407*
X4971Y1411*
X4978Y1418*
X4982Y1426*
X4983Y1429*
X4987Y1437*
X5002Y1452*
X5010Y1456*
X5013Y1457*
X5021Y1461*
X5028Y1468*
X5032Y1476*
X5035Y1485*
Y1494*
X5032Y1503*
X5028Y1511*
X5021Y1518*
X5013Y1522*
X5004Y1525*
X4993Y1535*
X4988Y1543*
X4984Y1553*
X4985Y1555*
Y1564*
X4982Y1573*
X4978Y1581*
X4971Y1588*
X4965Y1613*
X4965Y1623*
X5372Y2029*
X5766*
X5770Y2018*
X5771Y1999*
X5768Y1998*
X5761Y1991*
X5757Y1983*
X5755Y1975*
X5824*
X5822Y1983*
X5818Y1991*
X5817Y1992*
X5821Y2014*
X5826Y2023*
X5841Y2025*
X5869Y1997*
Y1602*
X5839Y1592*
X5837Y1595*
X5834Y1599*
X5832Y1604*
X5824Y1612*
X5815Y1617*
X5805Y1620*
X5805*
Y1580*
Y1540*
X5805*
X5815Y1542*
X5824Y1547*
X5832Y1555*
X5837Y1564*
X5839Y1567*
X5869Y1557*
Y1490*
X5870Y1482*
X5873Y1474*
X5878Y1468*
X6008Y1338*
X6014Y1333*
X6022Y1330*
X6030Y1329*
X6420*
X6427Y1330*
X6435Y1333*
X6441Y1338*
X6508Y1405*
X6544Y1402*
X6557Y1389*
X6572Y1378*
X6589Y1370*
X6607Y1364*
X6625Y1361*
X6644*
X6662Y1364*
X6680Y1370*
X6697Y1378*
X6712Y1389*
X6725Y1402*
X6736Y1417*
X6744Y1434*
X6750Y1452*
X6753Y1470*
Y1489*
X6750Y1507*
X6744Y1525*
X6736Y1542*
X6725Y1557*
X6712Y1570*
X6697Y1581*
X6680Y1589*
X6662Y1595*
X6644Y1598*
X6625*
X6607Y1595*
X6589Y1589*
X6572Y1581*
X6557Y1570*
X6544Y1557*
X6541Y1552*
X6535Y1549*
X6525Y1547*
X6511Y1546*
X6506Y1547*
X6503Y1548*
X6502Y1549*
X6499Y1550*
X6497Y1551*
X6494Y1552*
X6491Y1553*
X6488Y1554*
X6485Y1555*
X6482*
X6480Y1555*
X6477Y1555*
X6474*
X6471Y1554*
X6468Y1553*
X6465Y1552*
X6462Y1551*
X6460Y1550*
X6457Y1549*
X6454Y1547*
X6443Y1547*
X6433Y1548*
X6428Y1550*
X6421Y1553*
X6418Y1558*
X6418Y1558*
X6412Y1578*
X6418Y1597*
X6418Y1597*
X6424Y1609*
X6428Y1621*
Y1634*
X6424Y1647*
X6418Y1658*
X6418Y1658*
X6412Y1678*
X6418Y1697*
X6418Y1697*
X6424Y1709*
X6428Y1721*
Y1734*
X6424Y1747*
X6418Y1758*
X6418Y1758*
X6412Y1778*
X6418Y1797*
X6418Y1797*
X6424Y1809*
X6428Y1821*
Y1834*
X6424Y1847*
X6418Y1858*
X6409Y1867*
X6397Y1874*
X6385Y1877*
X6372*
X6359Y1874*
X6358Y1873*
X6336Y1881*
X6332Y1884*
X6327Y1889*
X6324Y1897*
X6318Y1908*
X6309Y1917*
X6297Y1924*
X6285Y1927*
X6272*
X6259Y1924*
X6248Y1917*
X6239Y1908*
X6232Y1897*
X6229Y1884*
Y1871*
X6232Y1859*
X6239Y1847*
X6246Y1840*
X6248Y1837*
X6249Y1832*
X6250Y1806*
X6249Y1804*
X6247Y1802*
X6241Y1793*
X6239Y1783*
Y1783*
X6278*
Y1773*
X6239*
Y1772*
X6241Y1762*
X6247Y1753*
X6249Y1751*
X6250Y1750*
X6249Y1724*
X6248Y1719*
X6246Y1716*
X6239Y1708*
X6232Y1697*
X6229Y1684*
Y1671*
X6232Y1659*
X6239Y1647*
X6239Y1647*
X6245Y1628*
X6239Y1608*
X6239Y1608*
X6232Y1597*
X6229Y1584*
Y1571*
X6232Y1559*
X6239Y1547*
X6248Y1538*
X6259Y1532*
X6272Y1528*
X6285*
X6297Y1532*
X6305Y1518*
X6286Y1490*
X6202*
X6110Y1582*
Y1881*
X6134Y1889*
X6140Y1890*
X6145Y1885*
X6153Y1880*
X6161Y1878*
Y1913*
Y1947*
X6153Y1945*
X6145Y1941*
X6140Y1935*
X6134Y1936*
X6110Y1944*
Y2036*
X6121Y2040*
X6140Y2041*
X6141Y2038*
X6148Y2031*
X6156Y2027*
X6165Y2025*
Y2060*
X6170*
Y2065*
X6204*
X6202Y2073*
X6198Y2081*
X6191Y2088*
X6186Y2091*
X6182Y2097*
X6176Y2120*
X6176Y2124*
X6432Y2380*
X6437Y2380*
X6445Y2383*
X6451Y2388*
X6482Y2419*
X6639*
X6646Y2413*
X6659Y2389*
X6659Y2386*
Y2373*
X6662Y2360*
X6669Y2348*
X6675Y2342*
X6673Y2318*
X6660Y2305*
X6652Y2303*
X6643Y2298*
X6636Y2290*
X6631Y2281*
X6628Y2271*
Y2271*
X6708*
Y2271*
X6705Y2281*
X6700Y2290*
X6697Y2295*
X6695Y2300*
X6703Y2318*
X6714Y2328*
X6716Y2329*
X6718Y2329*
X6729Y2332*
X6759Y2329*
X6848*
X6860*
X6878Y2306*
Y2232*
X6865Y2205*
Y2170*
Y2134*
X6878Y2107*
Y1958*
X6863Y1950*
X6848Y1948*
X6844Y1952*
X6835Y1957*
X6825Y1960*
X6825*
Y1920*
Y1880*
X6825*
X6835Y1882*
X6844Y1887*
X6848Y1891*
X6863Y1889*
X6878Y1881*
Y1678*
X6863Y1670*
X6848Y1668*
X6844Y1672*
X6835Y1677*
X6825Y1680*
X6825*
Y1640*
Y1600*
X6825*
X6835Y1602*
X6844Y1607*
X6848Y1611*
X6863Y1609*
X6878Y1601*
Y1458*
X6863Y1450*
X6848Y1448*
X6844Y1452*
X6835Y1457*
X6825Y1460*
X6825*
Y1420*
Y1380*
X6825*
X6835Y1382*
X6844Y1387*
X6848Y1391*
X6863Y1389*
X6878Y1381*
Y1316*
X6848Y1301*
X6847Y1302*
X6831Y1310*
X6813Y1316*
X6795Y1319*
X6776*
X6758Y1316*
X6740Y1310*
X6723Y1302*
X6708Y1291*
X6695Y1277*
X6684Y1262*
X6676Y1246*
X6670Y1228*
X6667Y1210*
Y1191*
X6670Y1173*
X6676Y1155*
X6684Y1138*
X6695Y1123*
X6703Y1115*
X6697Y1095*
X6691Y1085*
X1289*
X1283Y1095*
X1277Y1115*
X1285Y1123*
X1296Y1138*
X1304Y1155*
X1310Y1173*
X1313Y1191*
Y1210*
X1310Y1228*
X1304Y1246*
X1296Y1262*
X1285Y1277*
X1272Y1291*
X1257Y1302*
X1240Y1310*
X1222Y1316*
X1204Y1319*
X1185*
X1167Y1316*
X1149Y1310*
X1133Y1302*
X1120Y1293*
X1109Y1295*
X1090Y1306*
Y1577*
X1120Y1586*
X1122Y1584*
X1125Y1580*
X1127Y1575*
X1135Y1567*
X1144Y1562*
X1154Y1560*
X1155*
Y1600*
Y1640*
X1154*
X1144Y1637*
X1135Y1632*
X1127Y1624*
X1122Y1615*
X1120Y1613*
X1090Y1622*
Y2717*
X1120Y2726*
X1122Y2724*
X1125Y2720*
X1127Y2715*
X1135Y2707*
X1144Y2702*
X1154Y2700*
X1155*
Y2740*
Y2780*
X1154*
X1144Y2777*
X1135Y2772*
X1127Y2764*
X1122Y2755*
X1120Y2753*
X1090Y2762*
Y2937*
X1120Y2946*
X1122Y2944*
X1125Y2940*
X1127Y2935*
X1135Y2927*
X1144Y2922*
X1154Y2920*
X1155*
Y2960*
Y3000*
X1154*
X1144Y2997*
X1135Y2992*
X1127Y2984*
X1122Y2975*
X1120Y2973*
X1090Y2982*
Y3157*
X1120Y3166*
X1122Y3164*
X1125Y3160*
X1127Y3155*
X1135Y3147*
X1144Y3142*
X1154Y3140*
X1155*
Y3180*
Y3220*
X1154*
X1144Y3217*
X1135Y3212*
X1127Y3204*
X1122Y3195*
X1120Y3193*
X1090Y3202*
Y3417*
X1120Y3426*
X1122Y3424*
X1125Y3420*
X1127Y3415*
X1135Y3407*
X1144Y3402*
X1154Y3400*
X1155*
Y3440*
Y3480*
X1154*
X1144Y3477*
X1135Y3472*
X1127Y3464*
X1122Y3455*
X1120Y3453*
X1090Y3462*
Y3657*
X1120Y3666*
X1122Y3664*
X1125Y3660*
X1127Y3655*
X1135Y3647*
X1144Y3642*
X1154Y3640*
X1155*
Y3680*
Y3720*
X1154*
X1144Y3717*
X1135Y3712*
X1127Y3704*
X1122Y3695*
X1120Y3693*
X1090Y3702*
Y3897*
X1120Y3906*
X1122Y3904*
X1125Y3900*
X1127Y3895*
X1135Y3887*
X1144Y3882*
X1154Y3880*
X1155*
Y3920*
Y3960*
X1154*
X1144Y3957*
X1135Y3952*
X1127Y3944*
X1122Y3935*
X1120Y3933*
X1090Y3942*
Y4137*
X1120Y4146*
X1122Y4144*
X1125Y4140*
X1127Y4135*
X1135Y4127*
X1144Y4122*
X1154Y4120*
X1155*
Y4160*
Y4200*
X1154*
X1144Y4197*
X1135Y4192*
X1127Y4184*
X1122Y4175*
X1120Y4173*
X1090Y4182*
Y4377*
X1120Y4386*
X1122Y4384*
X1125Y4380*
X1127Y4375*
X1135Y4367*
X1144Y4362*
X1154Y4360*
X1155*
Y4400*
Y4440*
X1154*
X1144Y4437*
X1135Y4432*
X1127Y4424*
X1122Y4415*
X1120Y4413*
X1090Y4422*
Y4577*
X1120Y4586*
X1122Y4584*
X1125Y4580*
X1127Y4575*
X1135Y4567*
X1144Y4562*
X1154Y4560*
X1155*
Y4600*
Y4640*
X1154*
X1144Y4637*
X1135Y4632*
X1127Y4624*
X1122Y4615*
X1120Y4613*
X1090Y4622*
Y4717*
X1109Y4727*
X1120Y4730*
X1133Y4721*
X1149Y4713*
X1167Y4707*
X1185Y4704*
X1204*
X1222Y4707*
X1240Y4713*
X1257Y4721*
X1272Y4732*
X1285Y4745*
X1296Y4760*
X1304Y4777*
X1309Y4792*
X1310Y4795*
X1340Y4794*
X1342Y4784*
X1347Y4775*
X1355Y4767*
X1364Y4762*
X1374Y4760*
X1375*
Y4800*
Y4840*
X1374*
X1364Y4837*
X1355Y4832*
X1347Y4824*
X1342Y4815*
X1313Y4822*
Y4825*
Y4832*
X1310Y4850*
X1304Y4868*
X1296Y4884*
X1289Y4894*
X1295Y4913*
X1303Y4924*
X5885*
X5892Y4918*
X5906Y4896*
X5976*
X5990Y4918*
X5997Y4924*
X6088*
X6099Y4910*
X6106Y4894*
X6105Y4887*
Y4887*
X6147*
Y4882*
Y4887*
X6189*
Y4887*
X6188Y4894*
X6195Y4910*
X6205Y4924*
X6261*
X6269Y4916*
X6281Y4894*
X6280Y4889*
Y4875*
X6283Y4861*
X6290Y4849*
X6300Y4840*
X6312Y4833*
X6325Y4829*
X6339*
X6352Y4833*
X6364Y4840*
X6374Y4849*
X6381Y4861*
X6385Y4875*
Y4889*
X6383Y4894*
X6395Y4916*
X6403Y4924*
X6677*
X6685Y4913*
G37*
G36*
X6290Y3640D02*
Y2930D01*
X6070Y2710*
Y2560*
X6120Y2510*
X6675*
X6677Y2505*
X6677Y2505*
X6671Y2495*
X6669Y2485*
Y2485*
X6710*
Y2475*
X6669*
Y2474*
X6671Y2464*
X6677Y2454*
X6677Y2454*
X6675Y2450*
X6470*
X6430Y2410*
X6420*
X6080Y2070*
Y1570*
X6190Y1460*
X6390*
X6440Y1510*
X6445Y1507*
Y1505*
X6447Y1496*
X6451Y1488*
X6458Y1481*
X6466Y1477*
X6475Y1475*
Y1510*
X6485*
Y1475*
X6493Y1477*
X6501Y1481*
X6505Y1485*
X6510Y1483*
Y1450*
X6420Y1360*
X6030*
X5900Y1490*
Y2010*
X5850Y2060*
X5360*
X4860Y1560*
Y1460*
X4750Y1350*
X4690*
X4540Y1500*
Y1570*
X4605Y1635*
X4609Y1632*
X4609Y1631*
X4606Y1623*
X4676*
X4674Y1631*
X4669Y1639*
X4664Y1645*
X4666Y1650*
X4710*
X4780Y1720*
X4785Y1717*
Y1715*
X4787Y1706*
X4791Y1698*
X4798Y1691*
X4806Y1687*
X4815Y1685*
Y1720*
Y1754*
X4813Y1754*
X4810Y1757*
Y1890*
X2200*
X2060Y2030*
Y2215*
X2065Y2215*
X2066Y2211*
X2073Y2201*
X2081Y2193*
X2091Y2186*
X2102Y2182*
X2114Y2180*
X2115*
Y2240*
Y2300*
X2114*
X2102Y2297*
X2091Y2293*
X2081Y2286*
X2073Y2278*
X2066Y2268*
X2065Y2264*
X2060Y2265*
Y2280*
X2100Y2320*
X4350*
X4460Y2240*
X4793*
X4998Y2473*
X4999Y2473*
X5010Y2479*
X5020Y2489*
X5026Y2500*
X5028Y2507*
X5175Y2675*
X5285*
X5720Y2240*
X5930*
X5970Y2280*
Y2780*
X5900Y2850*
Y2854*
X5897Y2863*
X5893Y2871*
X5886Y2878*
X5878Y2882*
X5869Y2885*
X5865*
X5706Y3043*
X5707Y3049*
X5711Y3051*
X5718Y3058*
X5722Y3066*
X5724Y3075*
X5690*
Y3080*
X5685*
Y3114*
X5676Y3112*
X5668Y3108*
X5665Y3104*
X5660Y3106*
Y3160*
X5620Y3200*
X5622Y3205*
X5624*
X5633Y3207*
X5641Y3211*
X5648Y3218*
X5652Y3226*
X5654Y3235*
X5620*
Y3240*
X5615*
Y3274*
X5606Y3272*
X5598Y3268*
X5591Y3261*
X5587Y3253*
X5585Y3244*
Y3242*
X5580Y3240*
X5570Y3250*
Y3270*
X5590Y3290*
X5650*
X5820Y3120*
Y3040*
X5990Y2870*
X6080*
X6200Y2990*
Y2992*
X6202Y2996*
X6204Y3005*
Y3014*
X6202Y3023*
X6200Y3028*
Y3409*
X6200Y3409*
X6206Y3420*
X6210Y3433*
Y3446*
X6206Y3459*
X6200Y3470*
X6200Y3470*
Y3588*
X6205Y3588*
X6210Y3582*
X6218Y3578*
X6227Y3576*
Y3610*
Y3645*
X6218Y3643*
X6210Y3639*
X6205Y3633*
X6200Y3633*
Y3650*
X6210Y3660*
X6270*
X6290Y3640*
G37*
%LNpcb1-2*%
%LPC*%
G36*
X5976Y4886D02*
X5946D01*
Y4856*
X5954Y4858*
X5962Y4863*
X5969Y4869*
X5973Y4877*
X5976Y4886*
G37*
G36*
X5936D02*
X5906D01*
X5908Y4877*
X5913Y4869*
X5919Y4863*
X5927Y4858*
X5936Y4856*
Y4886*
G37*
G36*
X6189Y4877D02*
X6152D01*
Y4839*
X6153*
X6163Y4842*
X6173Y4848*
X6181Y4856*
X6187Y4865*
X6189Y4876*
Y4877*
G37*
G36*
X6142D02*
X6105D01*
Y4876*
X6107Y4865*
X6113Y4856*
X6121Y4848*
X6131Y4842*
X6141Y4839*
X6142*
Y4877*
G37*
G36*
X4365Y4840D02*
X4365D01*
Y4805*
X4400*
Y4805*
X4397Y4815*
X4392Y4824*
X4384Y4832*
X4375Y4837*
X4365Y4840*
G37*
G36*
X4355D02*
X4354D01*
X4344Y4837*
X4335Y4832*
X4327Y4824*
X4322Y4815*
X4320Y4805*
Y4805*
X4355*
Y4840*
G37*
G36*
X4045D02*
X4045D01*
Y4805*
X4080*
Y4805*
X4077Y4815*
X4072Y4824*
X4064Y4832*
X4055Y4837*
X4045Y4840*
G37*
G36*
X4035D02*
X4034D01*
X4024Y4837*
X4015Y4832*
X4007Y4824*
X4002Y4815*
X4000Y4805*
Y4805*
X4035*
Y4840*
G37*
G36*
X3725D02*
X3725D01*
Y4805*
X3760*
Y4805*
X3757Y4815*
X3752Y4824*
X3744Y4832*
X3735Y4837*
X3725Y4840*
G37*
G36*
X3715D02*
X3714D01*
X3704Y4837*
X3695Y4832*
X3687Y4824*
X3682Y4815*
X3680Y4805*
Y4805*
X3715*
Y4840*
G37*
G36*
X3445D02*
X3445D01*
Y4805*
X3480*
Y4805*
X3477Y4815*
X3472Y4824*
X3464Y4832*
X3455Y4837*
X3445Y4840*
G37*
G36*
X3435D02*
X3434D01*
X3424Y4837*
X3415Y4832*
X3407Y4824*
X3402Y4815*
X3400Y4805*
Y4805*
X3435*
Y4840*
G37*
G36*
X3165D02*
X3165D01*
Y4805*
X3200*
Y4805*
X3197Y4815*
X3192Y4824*
X3184Y4832*
X3175Y4837*
X3165Y4840*
G37*
G36*
X3155D02*
X3154D01*
X3144Y4837*
X3135Y4832*
X3127Y4824*
X3122Y4815*
X3120Y4805*
Y4805*
X3155*
Y4840*
G37*
G36*
X2905D02*
X2905D01*
Y4805*
X2940*
Y4805*
X2937Y4815*
X2932Y4824*
X2924Y4832*
X2915Y4837*
X2905Y4840*
G37*
G36*
X2895D02*
X2894D01*
X2884Y4837*
X2875Y4832*
X2867Y4824*
X2862Y4815*
X2860Y4805*
Y4805*
X2895*
Y4840*
G37*
G36*
X2585D02*
X2585D01*
Y4805*
X2620*
Y4805*
X2617Y4815*
X2612Y4824*
X2604Y4832*
X2595Y4837*
X2585Y4840*
G37*
G36*
X2575D02*
X2574D01*
X2564Y4837*
X2555Y4832*
X2547Y4824*
X2542Y4815*
X2540Y4805*
Y4805*
X2575*
Y4840*
G37*
G36*
X2145D02*
X2145D01*
Y4805*
X2180*
Y4805*
X2177Y4815*
X2172Y4824*
X2164Y4832*
X2155Y4837*
X2145Y4840*
G37*
G36*
X2135D02*
X2134D01*
X2124Y4837*
X2115Y4832*
X2107Y4824*
X2102Y4815*
X2100Y4805*
Y4805*
X2135*
Y4840*
G37*
G36*
X1885D02*
X1885D01*
Y4805*
X1920*
Y4805*
X1917Y4815*
X1912Y4824*
X1904Y4832*
X1895Y4837*
X1885Y4840*
G37*
G36*
X1875D02*
X1874D01*
X1864Y4837*
X1855Y4832*
X1847Y4824*
X1842Y4815*
X1840Y4805*
Y4805*
X1875*
Y4840*
G37*
G36*
X1605D02*
X1605D01*
Y4805*
X1640*
Y4805*
X1637Y4815*
X1632Y4824*
X1624Y4832*
X1615Y4837*
X1605Y4840*
G37*
G36*
X1595D02*
X1594D01*
X1584Y4837*
X1575Y4832*
X1567Y4824*
X1562Y4815*
X1560Y4805*
Y4805*
X1595*
Y4840*
G37*
G36*
X1385D02*
X1385D01*
Y4805*
X1420*
Y4805*
X1417Y4815*
X1412Y4824*
X1404Y4832*
X1395Y4837*
X1385Y4840*
G37*
G36*
X6525Y4800D02*
X6525D01*
Y4765*
X6560*
Y4765*
X6557Y4775*
X6552Y4784*
X6544Y4792*
X6535Y4797*
X6525Y4800*
G37*
G36*
X6515D02*
X6514D01*
X6504Y4797*
X6495Y4792*
X6487Y4784*
X6482Y4775*
X6480Y4765*
Y4765*
X6515*
Y4800*
G37*
G36*
X4400Y4795D02*
X4365D01*
Y4760*
X4365*
X4375Y4762*
X4384Y4767*
X4392Y4775*
X4397Y4784*
X4400Y4794*
Y4795*
G37*
G36*
X4355D02*
X4320D01*
Y4794*
X4322Y4784*
X4327Y4775*
X4335Y4767*
X4344Y4762*
X4354Y4760*
X4355*
Y4795*
G37*
G36*
X4080D02*
X4045D01*
Y4760*
X4045*
X4055Y4762*
X4064Y4767*
X4072Y4775*
X4077Y4784*
X4080Y4794*
Y4795*
G37*
G36*
X4035D02*
X4000D01*
Y4794*
X4002Y4784*
X4007Y4775*
X4015Y4767*
X4024Y4762*
X4034Y4760*
X4035*
Y4795*
G37*
G36*
X3760D02*
X3725D01*
Y4760*
X3725*
X3735Y4762*
X3744Y4767*
X3752Y4775*
X3757Y4784*
X3760Y4794*
Y4795*
G37*
G36*
X3715D02*
X3680D01*
Y4794*
X3682Y4784*
X3687Y4775*
X3695Y4767*
X3704Y4762*
X3714Y4760*
X3715*
Y4795*
G37*
G36*
X3480D02*
X3445D01*
Y4760*
X3445*
X3455Y4762*
X3464Y4767*
X3472Y4775*
X3477Y4784*
X3480Y4794*
Y4795*
G37*
G36*
X3435D02*
X3400D01*
Y4794*
X3402Y4784*
X3407Y4775*
X3415Y4767*
X3424Y4762*
X3434Y4760*
X3435*
Y4795*
G37*
G36*
X3200D02*
X3165D01*
Y4760*
X3165*
X3175Y4762*
X3184Y4767*
X3192Y4775*
X3197Y4784*
X3200Y4794*
Y4795*
G37*
G36*
X3155D02*
X3120D01*
Y4794*
X3122Y4784*
X3127Y4775*
X3135Y4767*
X3144Y4762*
X3154Y4760*
X3155*
Y4795*
G37*
G36*
X2940D02*
X2905D01*
Y4760*
X2905*
X2915Y4762*
X2924Y4767*
X2932Y4775*
X2937Y4784*
X2940Y4794*
Y4795*
G37*
G36*
X2895D02*
X2860D01*
Y4794*
X2862Y4784*
X2867Y4775*
X2875Y4767*
X2884Y4762*
X2894Y4760*
X2895*
Y4795*
G37*
G36*
X2620D02*
X2585D01*
Y4760*
X2585*
X2595Y4762*
X2604Y4767*
X2612Y4775*
X2617Y4784*
X2620Y4794*
Y4795*
G37*
G36*
X2575D02*
X2540D01*
Y4794*
X2542Y4784*
X2547Y4775*
X2555Y4767*
X2564Y4762*
X2574Y4760*
X2575*
Y4795*
G37*
G36*
X2180D02*
X2145D01*
Y4760*
X2145*
X2155Y4762*
X2164Y4767*
X2172Y4775*
X2177Y4784*
X2180Y4794*
Y4795*
G37*
G36*
X2135D02*
X2100D01*
Y4794*
X2102Y4784*
X2107Y4775*
X2115Y4767*
X2124Y4762*
X2134Y4760*
X2135*
Y4795*
G37*
G36*
X1920D02*
X1885D01*
Y4760*
X1885*
X1895Y4762*
X1904Y4767*
X1912Y4775*
X1917Y4784*
X1920Y4794*
Y4795*
G37*
G36*
X1875D02*
X1840D01*
Y4794*
X1842Y4784*
X1847Y4775*
X1855Y4767*
X1864Y4762*
X1874Y4760*
X1875*
Y4795*
G37*
G36*
X1640D02*
X1605D01*
Y4760*
X1605*
X1615Y4762*
X1624Y4767*
X1632Y4775*
X1637Y4784*
X1640Y4794*
Y4795*
G37*
G36*
X1595D02*
X1560D01*
Y4794*
X1562Y4784*
X1567Y4775*
X1575Y4767*
X1584Y4762*
X1594Y4760*
X1595*
Y4795*
G37*
G36*
X1420D02*
X1385D01*
Y4760*
X1385*
X1395Y4762*
X1404Y4767*
X1412Y4775*
X1417Y4784*
X1420Y4794*
Y4795*
G37*
G36*
X5494Y4772D02*
X5466D01*
X5437Y4768*
X5410Y4761*
X5384Y4750*
X5359Y4735*
X5348Y4727*
X5346Y4727*
X5322Y4734*
X5317Y4736*
X5315Y4739*
X5312Y4744*
X5304Y4752*
X5295Y4757*
X5285Y4760*
X5285*
Y4720*
X5280*
Y4715*
X5240*
Y4714*
X5242Y4704*
X5247Y4695*
X5255Y4687*
X5264Y4682*
X5268Y4681*
X5281Y4661*
X5285Y4651*
X5274Y4625*
X5267Y4597*
X5263Y4569*
Y4541*
X5267Y4512*
X5274Y4485*
X5285Y4459*
X5299Y4434*
X5316Y4411*
X5336Y4391*
X5359Y4374*
X5384Y4360*
X5410Y4349*
X5437Y4342*
X5466Y4338*
X5494*
X5522Y4342*
X5550Y4349*
X5576Y4360*
X5600Y4374*
X5623Y4391*
X5643Y4411*
X5660Y4434*
X5675Y4459*
X5686Y4485*
X5693Y4512*
X5697Y4541*
Y4569*
X5693Y4597*
X5686Y4625*
X5675Y4651*
X5660Y4675*
X5643Y4698*
X5623Y4718*
X5600Y4735*
X5576Y4750*
X5550Y4761*
X5522Y4768*
X5494Y4772*
G37*
G36*
X5275Y4760D02*
X5274D01*
X5264Y4757*
X5255Y4752*
X5247Y4744*
X5242Y4735*
X5240Y4725*
Y4725*
X5275*
Y4760*
G37*
G36*
X6560Y4755D02*
X6525D01*
Y4720*
X6525*
X6535Y4722*
X6544Y4727*
X6552Y4735*
X6557Y4744*
X6560Y4754*
Y4755*
G37*
G36*
X6515D02*
X6480D01*
Y4754*
X6482Y4744*
X6487Y4735*
X6495Y4727*
X6504Y4722*
X6514Y4720*
X6515*
Y4755*
G37*
G36*
X1755Y4730D02*
X1755D01*
Y4675*
X1810*
Y4675*
X1807Y4687*
X1803Y4698*
X1796Y4708*
X1788Y4716*
X1778Y4723*
X1767Y4727*
X1755Y4730*
G37*
G36*
X1745D02*
X1744D01*
X1732Y4727*
X1721Y4723*
X1711Y4716*
X1703Y4708*
X1696Y4698*
X1692Y4687*
X1690Y4675*
Y4675*
X1745*
Y4730*
G37*
G36*
X4185Y4694D02*
Y4665D01*
X4214*
X4212Y4673*
X4208Y4681*
X4201Y4688*
X4193Y4692*
X4185Y4694*
G37*
G36*
X4175D02*
X4166Y4692D01*
X4158Y4688*
X4151Y4681*
X4147Y4673*
X4145Y4665*
X4175*
Y4694*
G37*
G36*
X4214Y4655D02*
X4185D01*
Y4625*
X4193Y4627*
X4201Y4631*
X4208Y4638*
X4212Y4646*
X4214Y4655*
G37*
G36*
X4175D02*
X4145D01*
X4147Y4646*
X4151Y4638*
X4158Y4631*
X4166Y4627*
X4175Y4625*
Y4655*
G37*
G36*
X1810Y4665D02*
X1755D01*
Y4610*
X1755*
X1767Y4612*
X1778Y4616*
X1788Y4623*
X1796Y4631*
X1803Y4641*
X1807Y4652*
X1810Y4664*
Y4665*
G37*
G36*
X1745D02*
X1690D01*
Y4664*
X1692Y4652*
X1696Y4641*
X1703Y4631*
X1711Y4623*
X1721Y4616*
X1732Y4612*
X1744Y4610*
X1745*
Y4665*
G37*
G36*
X1165Y4640D02*
X1165D01*
Y4605*
X1200*
Y4605*
X1197Y4615*
X1192Y4624*
X1184Y4632*
X1175Y4637*
X1165Y4640*
G37*
G36*
X6016Y4660D02*
X6003D01*
X5990Y4656*
X5979Y4650*
X5969Y4640*
X5963Y4629*
X5960Y4616*
Y4603*
X5963Y4590*
X5969Y4579*
X5979Y4569*
X5990Y4563*
X6003Y4560*
X6016*
X6029Y4563*
X6040Y4569*
X6050Y4579*
X6056Y4590*
X6060Y4603*
Y4616*
X6056Y4629*
X6050Y4640*
X6040Y4650*
X6029Y4656*
X6016Y4660*
G37*
G36*
X1200Y4595D02*
X1165D01*
Y4560*
X1165*
X1175Y4562*
X1184Y4567*
X1192Y4575*
X1197Y4584*
X1200Y4594*
Y4595*
G37*
G36*
X5785Y4540D02*
X5785D01*
Y4505*
X5820*
Y4505*
X5817Y4515*
X5812Y4524*
X5804Y4532*
X5795Y4537*
X5785Y4540*
G37*
G36*
X5775D02*
X5774D01*
X5764Y4537*
X5755Y4532*
X5747Y4524*
X5742Y4515*
X5740Y4505*
Y4505*
X5775*
Y4540*
G37*
G36*
X6635Y4540D02*
X6635D01*
Y4500*
X6675*
Y4500*
X6672Y4512*
X6666Y4522*
X6657Y4531*
X6647Y4537*
X6635Y4540*
G37*
G36*
X6625D02*
X6624D01*
X6612Y4537*
X6602Y4531*
X6593Y4522*
X6587Y4512*
X6584Y4500*
Y4500*
X6625*
Y4540*
G37*
G36*
X1395Y4535D02*
X1355D01*
Y4495*
X1395*
Y4535*
G37*
G36*
X1345D02*
X1304D01*
Y4495*
X1345*
Y4535*
G37*
G36*
X6765Y4520D02*
X6765D01*
Y4485*
X6800*
Y4485*
X6797Y4495*
X6792Y4504*
X6784Y4512*
X6775Y4517*
X6765Y4520*
G37*
G36*
X6755D02*
X6754D01*
X6744Y4517*
X6735Y4512*
X6727Y4504*
X6722Y4495*
X6720Y4485*
Y4485*
X6755*
Y4520*
G37*
G36*
X6425D02*
X6425D01*
Y4485*
X6460*
Y4485*
X6457Y4495*
X6452Y4504*
X6444Y4512*
X6435Y4517*
X6425Y4520*
G37*
G36*
X6415D02*
X6414D01*
X6404Y4517*
X6395Y4512*
X6387Y4504*
X6382Y4495*
X6380Y4485*
Y4485*
X6415*
Y4520*
G37*
G36*
X5820Y4495D02*
X5785D01*
Y4460*
X5785*
X5795Y4462*
X5804Y4467*
X5812Y4475*
X5817Y4484*
X5820Y4494*
Y4495*
G37*
G36*
X5775D02*
X5740D01*
Y4494*
X5742Y4484*
X5747Y4475*
X5755Y4467*
X5764Y4462*
X5774Y4460*
X5775*
Y4495*
G37*
G36*
X6675Y4490D02*
X6635D01*
Y4449*
X6635*
X6647Y4452*
X6657Y4458*
X6666Y4467*
X6672Y4477*
X6675Y4489*
Y4490*
G37*
G36*
X6625D02*
X6584D01*
Y4489*
X6587Y4477*
X6593Y4467*
X6602Y4458*
X6612Y4452*
X6624Y4449*
X6625*
Y4490*
G37*
G36*
X2005Y4480D02*
X2005D01*
Y4445*
X2040*
Y4445*
X2037Y4455*
X2032Y4464*
X2024Y4472*
X2015Y4477*
X2005Y4480*
G37*
G36*
X1995D02*
X1994D01*
X1984Y4477*
X1975Y4472*
X1967Y4464*
X1962Y4455*
X1960Y4445*
Y4445*
X1995*
Y4480*
G37*
G36*
X1395Y4485D02*
X1355D01*
Y4444*
X1395*
Y4485*
G37*
G36*
X1345D02*
X1304D01*
Y4444*
X1345*
Y4485*
G37*
G36*
X6800Y4475D02*
X6765D01*
Y4440*
X6765*
X6775Y4442*
X6784Y4447*
X6792Y4455*
X6797Y4464*
X6800Y4474*
Y4475*
G37*
G36*
X6755D02*
X6720D01*
Y4474*
X6722Y4464*
X6727Y4455*
X6735Y4447*
X6744Y4442*
X6754Y4440*
X6755*
Y4475*
G37*
G36*
X6460D02*
X6425D01*
Y4440*
X6425*
X6435Y4442*
X6444Y4447*
X6452Y4455*
X6457Y4464*
X6460Y4474*
Y4475*
G37*
G36*
X6415D02*
X6380D01*
Y4474*
X6382Y4464*
X6387Y4455*
X6395Y4447*
X6404Y4442*
X6414Y4440*
X6415*
Y4475*
G37*
G36*
X1165Y4440D02*
X1165D01*
Y4405*
X1200*
Y4405*
X1197Y4415*
X1192Y4424*
X1184Y4432*
X1175Y4437*
X1165Y4440*
G37*
G36*
X2040Y4435D02*
X2005D01*
Y4400*
X2005*
X2015Y4402*
X2024Y4407*
X2032Y4415*
X2037Y4424*
X2040Y4434*
Y4435*
G37*
G36*
X1995D02*
X1960D01*
Y4434*
X1962Y4424*
X1967Y4415*
X1975Y4407*
X1984Y4402*
X1994Y4400*
X1995*
Y4435*
G37*
G36*
X6154Y4481D02*
X6140D01*
X6127Y4478*
X6115Y4471*
X6105Y4461*
X6098Y4449*
X6095Y4436*
Y4422*
X6098Y4409*
X6105Y4397*
X6115Y4387*
X6127Y4380*
X6140Y4376*
X6154*
X6167Y4380*
X6179Y4387*
X6189Y4397*
X6196Y4409*
X6199Y4422*
Y4436*
X6196Y4449*
X6189Y4461*
X6179Y4471*
X6167Y4478*
X6154Y4481*
G37*
G36*
X1200Y4395D02*
X1165D01*
Y4360*
X1165*
X1175Y4362*
X1184Y4367*
X1192Y4375*
X1197Y4384*
X1200Y4394*
Y4395*
G37*
G36*
X2423Y4772D02*
X2395D01*
X2366Y4768*
X2339Y4761*
X2313Y4750*
X2288Y4735*
X2266Y4718*
X2245Y4698*
X2228Y4675*
X2214Y4651*
X2203Y4625*
X2196Y4597*
X2192Y4569*
Y4541*
X2196Y4512*
X2203Y4485*
X2214Y4459*
X2228Y4434*
X2245Y4411*
X2266Y4391*
X2288Y4374*
X2313Y4360*
X2339Y4349*
X2366Y4342*
X2395Y4338*
X2423*
X2451Y4342*
X2479Y4349*
X2505Y4360*
X2530Y4374*
X2552Y4391*
X2572Y4411*
X2590Y4434*
X2604Y4459*
X2615Y4485*
X2622Y4512*
X2626Y4541*
Y4569*
X2622Y4597*
X2615Y4625*
X2604Y4651*
X2590Y4675*
X2572Y4698*
X2552Y4718*
X2530Y4735*
X2505Y4750*
X2479Y4761*
X2451Y4768*
X2423Y4772*
G37*
G36*
X5145Y4360D02*
X5145D01*
Y4325*
X5180*
Y4325*
X5177Y4335*
X5172Y4344*
X5164Y4352*
X5155Y4357*
X5145Y4360*
G37*
G36*
X5135D02*
X5134D01*
X5124Y4357*
X5115Y4352*
X5107Y4344*
X5102Y4335*
X5100Y4325*
Y4325*
X5135*
Y4360*
G37*
G36*
X4845Y4320D02*
X4845D01*
Y4285*
X4880*
Y4285*
X4877Y4295*
X4872Y4304*
X4864Y4312*
X4855Y4317*
X4845Y4320*
G37*
G36*
X5180Y4315D02*
X5145D01*
Y4280*
X5145*
X5155Y4282*
X5164Y4287*
X5172Y4295*
X5177Y4304*
X5180Y4314*
Y4315*
G37*
G36*
X5135D02*
X5100D01*
Y4314*
X5102Y4304*
X5107Y4295*
X5115Y4287*
X5124Y4282*
X5134Y4280*
X5135*
Y4315*
G37*
G36*
X5445Y4300D02*
X5445D01*
Y4265*
X5480*
Y4265*
X5477Y4275*
X5472Y4284*
X5464Y4292*
X5455Y4297*
X5445Y4300*
G37*
G36*
X5435D02*
X5434D01*
X5424Y4297*
X5415Y4292*
X5407Y4284*
X5402Y4275*
X5400Y4265*
Y4265*
X5435*
Y4300*
G37*
G36*
X6785Y4280D02*
X6785D01*
Y4245*
X6820*
Y4245*
X6817Y4255*
X6812Y4264*
X6804Y4272*
X6795Y4277*
X6785Y4280*
G37*
G36*
X6775D02*
X6774D01*
X6764Y4277*
X6755Y4272*
X6747Y4264*
X6742Y4255*
X6740Y4245*
Y4245*
X6775*
Y4280*
G37*
G36*
X4880Y4275D02*
X4845D01*
Y4240*
X4845*
X4855Y4242*
X4864Y4247*
X4872Y4255*
X4877Y4264*
X4880Y4274*
Y4275*
G37*
G36*
X4619Y4880D02*
X4606Y4878D01*
X4592Y4874*
X4580Y4868*
X4570Y4859*
X4561Y4848*
X4554Y4836*
X4550Y4823*
X4549Y4809*
X4550Y4796*
X4554Y4782*
X4561Y4770*
X4570Y4760*
X4639Y4690*
Y4160*
X2720*
X2706Y4158*
X2693Y4154*
X2680Y4148*
X2670Y4139*
X1980Y3449*
X1978Y3447*
X1975Y3444*
X1973Y3441*
X1971Y3439*
X1969Y3436*
X1967Y3433*
X1966Y3429*
X1965Y3426*
X1964Y3423*
X1962Y3420*
X1962Y3417*
X1961Y3413*
X1960Y3410*
X1960Y3406*
Y3403*
X1959Y3400*
X1960Y3396*
Y3393*
X1960Y3389*
X1961Y3386*
X1962Y3382*
X1962Y3379*
X1964Y3376*
X1965Y3373*
X1966Y3370*
X1967Y3366*
X1969Y3363*
X1971Y3360*
X1973Y3358*
X1975Y3355*
X1978Y3352*
X1980Y3350*
X1982Y3348*
X1985Y3345*
X1988Y3343*
X1990Y3341*
X1993Y3339*
X1996Y3337*
X2000Y3336*
X2003Y3335*
X2006Y3334*
X2009Y3332*
X2012Y3332*
X2016Y3331*
X2019Y3330*
X2023Y3330*
X2026*
X2030Y3329*
X2033Y3330*
X2036*
X2040Y3330*
X2043Y3331*
X2047Y3332*
X2050Y3332*
X2053Y3334*
X2056Y3335*
X2059Y3336*
X2063Y3337*
X2066Y3339*
X2069Y3341*
X2071Y3343*
X2074Y3345*
X2077Y3348*
X2079Y3350*
X2749Y4019*
X4710*
X4723Y4021*
X4736Y4025*
X4749Y4031*
X4759Y4040*
X4768Y4050*
X4774Y4063*
X4778Y4076*
X4780Y4090*
Y4243*
X4800Y4251*
X4810Y4253*
X4815Y4247*
X4824Y4242*
X4834Y4240*
X4835*
Y4280*
Y4320*
X4834*
X4824Y4317*
X4815Y4312*
X4810Y4306*
X4800Y4308*
X4780Y4316*
Y4719*
Y4719*
X4778Y4733*
X4774Y4746*
X4768Y4758*
X4759Y4769*
X4669Y4859*
X4658Y4868*
X4646Y4874*
X4633Y4878*
X4619Y4880*
G37*
G36*
X5480Y4255D02*
X5445D01*
Y4220*
X5445*
X5455Y4222*
X5464Y4227*
X5472Y4235*
X5477Y4244*
X5480Y4254*
Y4255*
G37*
G36*
X5435D02*
X5400D01*
Y4254*
X5402Y4244*
X5407Y4235*
X5415Y4227*
X5424Y4222*
X5434Y4220*
X5435*
Y4255*
G37*
G36*
X6820Y4235D02*
X6785D01*
Y4200*
X6785*
X6795Y4202*
X6804Y4207*
X6812Y4215*
X6817Y4224*
X6820Y4234*
Y4235*
G37*
G36*
X6775D02*
X6740D01*
Y4234*
X6742Y4224*
X6747Y4215*
X6755Y4207*
X6764Y4202*
X6774Y4200*
X6775*
Y4235*
G37*
G36*
X6685Y4300D02*
X6574D01*
Y4189*
X6685*
Y4300*
G37*
G36*
X1357Y4295D02*
X1342D01*
X1328Y4291*
X1315Y4284*
X1305Y4274*
X1298Y4261*
X1294Y4247*
Y4232*
X1298Y4218*
X1305Y4205*
X1315Y4195*
X1328Y4188*
X1342Y4184*
X1357*
X1371Y4188*
X1384Y4195*
X1394Y4205*
X1401Y4218*
X1405Y4232*
Y4247*
X1401Y4261*
X1394Y4274*
X1384Y4284*
X1371Y4291*
X1357Y4295*
G37*
G36*
X2525Y4200D02*
X2525D01*
Y4165*
X2560*
Y4165*
X2557Y4175*
X2552Y4184*
X2544Y4192*
X2535Y4197*
X2525Y4200*
G37*
G36*
X2515D02*
X2514D01*
X2504Y4197*
X2495Y4192*
X2487Y4184*
X2482Y4175*
X2480Y4165*
Y4165*
X2515*
Y4200*
G37*
G36*
X1165D02*
X1165D01*
Y4165*
X1200*
Y4165*
X1197Y4175*
X1192Y4184*
X1184Y4192*
X1175Y4197*
X1165Y4200*
G37*
G36*
X2285Y4180D02*
X2285D01*
Y4145*
X2320*
Y4145*
X2317Y4155*
X2312Y4164*
X2304Y4172*
X2295Y4177*
X2285Y4180*
G37*
G36*
X2275D02*
X2274D01*
X2264Y4177*
X2255Y4172*
X2247Y4164*
X2242Y4155*
X2240Y4145*
Y4145*
X2275*
Y4180*
G37*
G36*
X5325Y4160D02*
X5325D01*
Y4125*
X5360*
Y4125*
X5357Y4135*
X5352Y4144*
X5344Y4152*
X5335Y4157*
X5325Y4160*
G37*
G36*
X5315D02*
X5314D01*
X5304Y4157*
X5295Y4152*
X5287Y4144*
X5282Y4135*
X5280Y4125*
Y4125*
X5315*
Y4160*
G37*
G36*
X2560Y4155D02*
X2525D01*
Y4120*
X2525*
X2535Y4122*
X2544Y4127*
X2552Y4135*
X2557Y4144*
X2560Y4154*
Y4155*
G37*
G36*
X2515D02*
X2480D01*
Y4154*
X2482Y4144*
X2487Y4135*
X2495Y4127*
X2504Y4122*
X2514Y4120*
X2515*
Y4155*
G37*
G36*
X1200D02*
X1165D01*
Y4120*
X1165*
X1175Y4122*
X1184Y4127*
X1192Y4135*
X1197Y4144*
X1200Y4154*
Y4155*
G37*
G36*
X2115Y4144D02*
Y4115D01*
X2144*
X2142Y4123*
X2138Y4131*
X2131Y4138*
X2123Y4142*
X2115Y4144*
G37*
G36*
X2105D02*
X2096Y4142D01*
X2088Y4138*
X2081Y4131*
X2077Y4123*
X2075Y4115*
X2105*
Y4144*
G37*
G36*
X5025Y4140D02*
X5025D01*
Y4105*
X5060*
Y4105*
X5057Y4115*
X5052Y4124*
X5044Y4132*
X5035Y4137*
X5025Y4140*
G37*
G36*
X5015D02*
X5014D01*
X5004Y4137*
X4995Y4132*
X4987Y4124*
X4982Y4115*
X4980Y4105*
Y4105*
X5015*
Y4140*
G37*
G36*
X6154Y4206D02*
X6140D01*
X6127Y4202*
X6115Y4195*
X6105Y4186*
X6098Y4174*
X6095Y4160*
Y4146*
X6098Y4133*
X6105Y4121*
X6115Y4111*
X6127Y4104*
X6140Y4101*
X6154*
X6167Y4104*
X6179Y4111*
X6189Y4121*
X6196Y4133*
X6199Y4146*
Y4160*
X6196Y4174*
X6189Y4186*
X6179Y4195*
X6167Y4202*
X6154Y4206*
G37*
G36*
X2320Y4135D02*
X2285D01*
Y4100*
X2285*
X2295Y4102*
X2304Y4107*
X2312Y4115*
X2317Y4124*
X2320Y4134*
Y4135*
G37*
G36*
X2275D02*
X2240D01*
Y4134*
X2242Y4124*
X2247Y4115*
X2255Y4107*
X2264Y4102*
X2274Y4100*
X2275*
Y4135*
G37*
G36*
X5360Y4115D02*
X5325D01*
Y4080*
X5325*
X5335Y4082*
X5344Y4087*
X5352Y4095*
X5357Y4104*
X5360Y4114*
Y4115*
G37*
G36*
X5315D02*
X5280D01*
Y4114*
X5282Y4104*
X5287Y4095*
X5295Y4087*
X5304Y4082*
X5314Y4080*
X5315*
Y4115*
G37*
G36*
X2144Y4105D02*
X2115D01*
Y4075*
X2123Y4077*
X2131Y4081*
X2138Y4088*
X2142Y4096*
X2144Y4105*
G37*
G36*
X2105D02*
X2075D01*
X2077Y4096*
X2081Y4088*
X2088Y4081*
X2096Y4077*
X2105Y4075*
Y4105*
G37*
G36*
X5060Y4095D02*
X5025D01*
Y4060*
X5025*
X5035Y4062*
X5044Y4067*
X5052Y4075*
X5057Y4084*
X5060Y4094*
Y4095*
G37*
G36*
X5015D02*
X4980D01*
Y4094*
X4982Y4084*
X4987Y4075*
X4995Y4067*
X5004Y4062*
X5014Y4060*
X5015*
Y4095*
G37*
G36*
X6185Y4040D02*
X6185D01*
Y4005*
X6220*
Y4005*
X6217Y4015*
X6212Y4024*
X6204Y4032*
X6195Y4037*
X6185Y4040*
G37*
G36*
X6175D02*
X6174D01*
X6164Y4037*
X6155Y4032*
X6147Y4024*
X6142Y4015*
X6140Y4005*
Y4005*
X6175*
Y4040*
G37*
G36*
X5225D02*
X5225D01*
Y4005*
X5260*
Y4005*
X5257Y4015*
X5252Y4024*
X5244Y4032*
X5235Y4037*
X5225Y4040*
G37*
G36*
X5215D02*
X5214D01*
X5204Y4037*
X5195Y4032*
X5187Y4024*
X5182Y4015*
X5180Y4005*
Y4005*
X5215*
Y4040*
G37*
G36*
X6785Y4020D02*
X6785D01*
Y3985*
X6820*
Y3985*
X6817Y3995*
X6812Y4004*
X6804Y4012*
X6795Y4017*
X6785Y4020*
G37*
G36*
X6775D02*
X6774D01*
X6764Y4017*
X6755Y4012*
X6747Y4004*
X6742Y3995*
X6740Y3985*
Y3985*
X6775*
Y4020*
G37*
G36*
X6525D02*
X6525D01*
Y3985*
X6560*
Y3985*
X6557Y3995*
X6552Y4004*
X6544Y4012*
X6535Y4017*
X6525Y4020*
G37*
G36*
X6515D02*
X6514D01*
X6504Y4017*
X6495Y4012*
X6487Y4004*
X6482Y3995*
X6480Y3985*
Y3985*
X6515*
Y4020*
G37*
G36*
X6065Y4004D02*
Y3975D01*
X6094*
X6092Y3983*
X6088Y3991*
X6081Y3998*
X6073Y4002*
X6065Y4004*
G37*
G36*
X6220Y3995D02*
X6185D01*
Y3960*
X6185*
X6195Y3962*
X6204Y3967*
X6212Y3975*
X6217Y3984*
X6220Y3994*
Y3995*
G37*
G36*
X6175D02*
X6140D01*
Y3994*
X6142Y3984*
X6147Y3975*
X6155Y3967*
X6164Y3962*
X6174Y3960*
X6175*
Y3995*
G37*
G36*
X5260D02*
X5225D01*
Y3960*
X5225*
X5235Y3962*
X5244Y3967*
X5252Y3975*
X5257Y3984*
X5260Y3994*
Y3995*
G37*
G36*
X5215D02*
X5180D01*
Y3994*
X5182Y3984*
X5187Y3975*
X5195Y3967*
X5204Y3962*
X5214Y3960*
X5215*
Y3995*
G37*
G36*
X6820Y3975D02*
X6785D01*
Y3940*
X6785*
X6795Y3942*
X6804Y3947*
X6812Y3955*
X6817Y3964*
X6820Y3974*
Y3975*
G37*
G36*
X6775D02*
X6740D01*
Y3974*
X6742Y3964*
X6747Y3955*
X6755Y3947*
X6764Y3942*
X6774Y3940*
X6775*
Y3975*
G37*
G36*
X6560D02*
X6525D01*
Y3940*
X6525*
X6535Y3942*
X6544Y3947*
X6552Y3955*
X6557Y3964*
X6560Y3974*
Y3975*
G37*
G36*
X6515D02*
X6480D01*
Y3974*
X6482Y3964*
X6487Y3955*
X6495Y3947*
X6504Y3942*
X6514Y3940*
X6515*
Y3975*
G37*
G36*
X6094Y3965D02*
X6065D01*
Y3935*
X6073Y3937*
X6081Y3941*
X6088Y3948*
X6092Y3956*
X6094Y3965*
G37*
G36*
X5914Y4025D02*
X5905D01*
X5896Y4022*
X5888Y4018*
X5881Y4011*
X5877Y4003*
X5875Y3994*
Y3985*
X5877Y3976*
X5881Y3968*
X5888Y3961*
X5896Y3957*
X5905Y3955*
X5914*
X5923Y3957*
X5930Y3961*
X5935Y3960*
X5955Y3952*
X5960Y3949*
X5962Y3941*
X5966Y3933*
X5973Y3926*
X5981Y3922*
X5990Y3920*
X5999*
X6008Y3922*
X6016Y3926*
X6023Y3933*
X6034Y3939*
X6046Y3937*
X6055Y3935*
Y3970*
Y4004*
X6046Y4002*
X6038Y3998*
X6031Y3991*
X6020Y3985*
X6008Y3987*
X5999Y3990*
X5990*
X5981Y3987*
X5974Y3983*
X5969Y3984*
X5949Y3992*
X5944Y3995*
X5942Y4003*
X5938Y4011*
X5931Y4018*
X5923Y4022*
X5914Y4025*
G37*
G36*
X1165Y3960D02*
X1165D01*
Y3925*
X1200*
Y3925*
X1197Y3935*
X1192Y3944*
X1184Y3952*
X1175Y3957*
X1165Y3960*
G37*
G36*
X6315Y3934D02*
Y3905D01*
X6344*
X6342Y3913*
X6338Y3921*
X6331Y3928*
X6323Y3932*
X6315Y3934*
G37*
G36*
X6305D02*
X6296Y3932D01*
X6288Y3928*
X6281Y3921*
X6277Y3913*
X6275Y3905*
X6305*
Y3934*
G37*
G36*
X1200Y3915D02*
X1165D01*
Y3880*
X1165*
X1175Y3882*
X1184Y3887*
X1192Y3895*
X1197Y3904*
X1200Y3914*
Y3915*
G37*
G36*
X1979Y4016D02*
X1884D01*
Y3921*
X1887*
X1897Y3901*
X1900Y3891*
X1896Y3885*
X1894Y3875*
X1931*
X1969*
X1966Y3885*
X1963Y3891*
X1965Y3901*
X1976Y3921*
X1979*
Y4016*
G37*
G36*
X1769D02*
X1674D01*
Y3921*
X1677*
X1687Y3901*
X1690Y3891*
X1686Y3885*
X1684Y3875*
X1721*
X1759*
X1756Y3885*
X1753Y3891*
X1755Y3901*
X1766Y3921*
X1769*
Y4016*
G37*
G36*
X6344Y3895D02*
X6315D01*
Y3865*
X6323Y3867*
X6331Y3871*
X6338Y3878*
X6342Y3886*
X6344Y3895*
G37*
G36*
X6305D02*
X6275D01*
X6277Y3886*
X6281Y3878*
X6288Y3871*
X6296Y3867*
X6305Y3865*
Y3895*
G37*
G36*
X1969Y3865D02*
X1936D01*
Y3833*
X1946Y3835*
X1954Y3840*
X1961Y3847*
X1966Y3856*
X1969Y3865*
G37*
G36*
X1759D02*
X1726D01*
Y3833*
X1736Y3835*
X1744Y3840*
X1751Y3847*
X1756Y3856*
X1759Y3865*
G37*
G36*
X1926D02*
X1894D01*
X1896Y3856*
X1901Y3847*
X1908Y3840*
X1917Y3835*
X1926Y3833*
Y3865*
G37*
G36*
X1716D02*
X1684D01*
X1686Y3856*
X1691Y3847*
X1698Y3840*
X1707Y3835*
X1716Y3833*
Y3865*
G37*
G36*
X4114Y3845D02*
X4085D01*
Y3815*
X4093Y3817*
X4101Y3821*
X4108Y3828*
X4112Y3836*
X4114Y3845*
G37*
G36*
X4075D02*
X4045D01*
X4047Y3836*
X4051Y3828*
X4058Y3821*
X4066Y3817*
X4075Y3815*
Y3845*
G37*
G36*
X6665Y3840D02*
X6665D01*
Y3805*
X6700*
Y3805*
X6697Y3815*
X6692Y3824*
X6684Y3832*
X6675Y3837*
X6665Y3840*
G37*
G36*
X6655D02*
X6654D01*
X6644Y3837*
X6635Y3832*
X6627Y3824*
X6622Y3815*
X6620Y3805*
Y3805*
X6655*
Y3840*
G37*
G36*
X1306Y3919D02*
X1293D01*
X1281Y3917*
X1269Y3912*
X1259Y3905*
X1250Y3896*
X1243Y3885*
X1238Y3874*
X1235Y3861*
Y3848*
X1238Y3836*
X1243Y3824*
X1250Y3814*
X1259Y3805*
X1269Y3798*
X1281Y3793*
X1293Y3790*
X1306*
X1318Y3793*
X1330Y3798*
X1340Y3805*
X1349Y3814*
X1356Y3824*
X1361Y3836*
X1364Y3848*
Y3861*
X1361Y3874*
X1356Y3885*
X1349Y3896*
X1340Y3905*
X1330Y3912*
X1318Y3917*
X1306Y3919*
G37*
G36*
X1820Y3820D02*
X1819D01*
Y3785*
X1854*
Y3785*
X1852Y3796*
X1846Y3805*
X1839Y3812*
X1830Y3817*
X1820Y3820*
G37*
G36*
X1809D02*
X1809D01*
X1799Y3817*
X1790Y3812*
X1782Y3805*
X1777Y3796*
X1774Y3785*
Y3785*
X1809*
Y3820*
G37*
G36*
X2045Y3800D02*
X2045D01*
Y3765*
X2080*
Y3765*
X2077Y3775*
X2072Y3784*
X2064Y3792*
X2055Y3797*
X2045Y3800*
G37*
G36*
X2035D02*
X2034D01*
X2024Y3797*
X2015Y3792*
X2007Y3784*
X2002Y3775*
X2000Y3765*
Y3765*
X2035*
Y3800*
G37*
G36*
X1605D02*
X1605D01*
Y3765*
X1640*
Y3765*
X1637Y3775*
X1632Y3784*
X1624Y3792*
X1615Y3797*
X1605Y3800*
G37*
G36*
X1595D02*
X1594D01*
X1584Y3797*
X1575Y3792*
X1567Y3784*
X1562Y3775*
X1560Y3765*
Y3765*
X1595*
Y3800*
G37*
G36*
X6700Y3795D02*
X6665D01*
Y3760*
X6665*
X6675Y3762*
X6684Y3767*
X6692Y3775*
X6697Y3784*
X6700Y3794*
Y3795*
G37*
G36*
X6655D02*
X6620D01*
Y3794*
X6622Y3784*
X6627Y3775*
X6635Y3767*
X6644Y3762*
X6654Y3760*
X6655*
Y3795*
G37*
G36*
X5765Y3784D02*
Y3755D01*
X5794*
X5794Y3755*
X5792Y3763*
X5788Y3771*
X5781Y3778*
X5773Y3782*
X5765Y3784*
G37*
G36*
X5755D02*
X5746Y3782D01*
X5738Y3778*
X5731Y3771*
X5727Y3763*
X5725Y3755*
X5725Y3755*
X5755*
Y3784*
G37*
G36*
X3885Y3786D02*
X3854D01*
Y3755*
X3885*
Y3786*
G37*
G36*
X3844D02*
X3812D01*
Y3755*
X3844*
Y3786*
G37*
G36*
X1854Y3775D02*
X1819D01*
Y3740*
X1820*
X1830Y3743*
X1839Y3748*
X1846Y3756*
X1852Y3765*
X1854Y3775*
Y3775*
G37*
G36*
X1809D02*
X1774D01*
Y3775*
X1777Y3765*
X1782Y3756*
X1790Y3748*
X1799Y3743*
X1809Y3740*
X1809*
Y3775*
G37*
G36*
X2080Y3755D02*
X2045D01*
Y3720*
X2045*
X2055Y3722*
X2064Y3727*
X2072Y3735*
X2077Y3744*
X2080Y3754*
Y3755*
G37*
G36*
X2035D02*
X2000D01*
Y3754*
X2002Y3744*
X2007Y3735*
X2015Y3727*
X2024Y3722*
X2034Y3720*
X2035*
Y3755*
G37*
G36*
X1640D02*
X1605D01*
Y3720*
X1605*
X1615Y3722*
X1624Y3727*
X1632Y3735*
X1637Y3744*
X1640Y3754*
Y3755*
G37*
G36*
X1595D02*
X1560D01*
Y3754*
X1562Y3744*
X1567Y3735*
X1575Y3727*
X1584Y3722*
X1594Y3720*
X1595*
Y3755*
G37*
G36*
X3885Y3745D02*
X3854D01*
Y3713*
X3885*
Y3745*
G37*
G36*
X3844D02*
X3812D01*
Y3713*
X3844*
Y3745*
G37*
G36*
X4016Y3796D02*
X4004D01*
X3992Y3793*
X3982Y3787*
X3973Y3778*
X3967Y3767*
X3964Y3756*
Y3743*
X3967Y3732*
X3973Y3721*
X3982Y3712*
X3992Y3706*
X4004Y3703*
X4016*
X4028Y3706*
X4039Y3712*
X4047Y3721*
X4054Y3732*
X4057Y3743*
Y3756*
X4054Y3767*
X4047Y3778*
X4039Y3787*
X4028Y3793*
X4016Y3796*
G37*
G36*
X3520Y3735D02*
X3485D01*
Y3700*
X3485*
X3495Y3702*
X3504Y3707*
X3512Y3715*
X3517Y3724*
X3520Y3734*
Y3735*
G37*
G36*
X3475D02*
X3440D01*
Y3734*
X3442Y3724*
X3447Y3715*
X3455Y3707*
X3464Y3702*
X3474Y3700*
X3475*
Y3735*
G37*
G36*
X1165Y3720D02*
X1165D01*
Y3685*
X1200*
Y3685*
X1197Y3695*
X1192Y3704*
X1184Y3712*
X1175Y3717*
X1165Y3720*
G37*
G36*
X5794Y3745D02*
X5725D01*
X5727Y3736*
X5731Y3728*
X5732Y3728*
X5733Y3710*
X5732Y3691*
X5731Y3691*
X5727Y3683*
X5725Y3675*
X5794*
X5792Y3683*
X5788Y3691*
X5787Y3691*
X5786Y3710*
X5787Y3728*
X5788Y3728*
X5792Y3736*
X5794Y3745*
G37*
G36*
X4825Y3680D02*
X4825D01*
Y3645*
X4860*
Y3645*
X4857Y3655*
X4852Y3664*
X4844Y3672*
X4835Y3677*
X4825Y3680*
G37*
G36*
X4815D02*
X4814D01*
X4804Y3677*
X4795Y3672*
X4787Y3664*
X4782Y3655*
X4780Y3645*
Y3645*
X4815*
Y3680*
G37*
G36*
X4505D02*
X4505D01*
Y3645*
X4540*
Y3645*
X4537Y3655*
X4532Y3664*
X4524Y3672*
X4515Y3677*
X4505Y3680*
G37*
G36*
X4495D02*
X4494D01*
X4484Y3677*
X4475Y3672*
X4467Y3664*
X4462Y3655*
X4460Y3645*
Y3645*
X4495*
Y3680*
G37*
G36*
X1200Y3675D02*
X1165D01*
Y3640*
X1165*
X1175Y3642*
X1184Y3647*
X1192Y3655*
X1197Y3664*
X1200Y3674*
Y3675*
G37*
G36*
X5794Y3665D02*
X5765D01*
Y3635*
X5773Y3637*
X5781Y3641*
X5788Y3648*
X5792Y3656*
X5794Y3664*
X5794Y3665*
G37*
G36*
X5755D02*
X5725D01*
X5725Y3664*
X5727Y3656*
X5731Y3648*
X5738Y3641*
X5746Y3637*
X5755Y3635*
Y3665*
G37*
G36*
X4860Y3635D02*
X4825D01*
Y3600*
X4825*
X4835Y3602*
X4844Y3607*
X4852Y3615*
X4857Y3624*
X4860Y3634*
Y3635*
G37*
G36*
X4815D02*
X4780D01*
Y3634*
X4782Y3624*
X4787Y3615*
X4795Y3607*
X4804Y3602*
X4814Y3600*
X4815*
Y3635*
G37*
G36*
X4540D02*
X4505D01*
Y3600*
X4505*
X4515Y3602*
X4524Y3607*
X4532Y3615*
X4537Y3624*
X4540Y3634*
Y3635*
G37*
G36*
X4495D02*
X4460D01*
Y3634*
X4462Y3624*
X4467Y3615*
X4475Y3607*
X4484Y3602*
X4494Y3600*
X4495*
Y3635*
G37*
G36*
X5994D02*
X5985D01*
X5976Y3632*
X5968Y3628*
X5961Y3621*
X5957Y3613*
X5955Y3604*
Y3595*
X5957Y3586*
X5961Y3578*
X5968Y3571*
X5976Y3567*
X5985Y3565*
X5995Y3555*
X5997Y3546*
X6001Y3538*
X6008Y3531*
X6016Y3527*
X6025Y3525*
X6034*
X6043Y3527*
X6051Y3531*
X6058Y3538*
X6062Y3546*
X6065Y3555*
Y3564*
X6062Y3573*
X6058Y3581*
X6051Y3588*
X6043Y3592*
X6034Y3595*
X6025Y3604*
X6022Y3613*
X6018Y3621*
X6011Y3628*
X6003Y3632*
X5994Y3635*
G37*
G36*
X4695Y3554D02*
Y3525D01*
X4724*
X4722Y3533*
X4718Y3541*
X4711Y3548*
X4703Y3552*
X4695Y3554*
G37*
G36*
X4685D02*
X4676Y3552D01*
X4668Y3548*
X4661Y3541*
X4657Y3533*
X4655Y3525*
X4685*
Y3554*
G37*
G36*
X5645Y3544D02*
Y3515D01*
X5674*
X5672Y3523*
X5668Y3531*
X5661Y3538*
X5653Y3542*
X5645Y3544*
G37*
G36*
X6365Y3540D02*
X6365D01*
Y3505*
X6400*
Y3505*
X6397Y3515*
X6392Y3524*
X6384Y3532*
X6375Y3537*
X6365Y3540*
G37*
G36*
X3260Y3535D02*
X3225D01*
Y3500*
X3225*
X3235Y3502*
X3244Y3507*
X3252Y3515*
X3257Y3524*
X3260Y3534*
Y3535*
G37*
G36*
X4724Y3515D02*
X4695D01*
Y3485*
X4703Y3487*
X4711Y3491*
X4718Y3498*
X4722Y3506*
X4724Y3515*
G37*
G36*
X4685D02*
X4655D01*
X4657Y3506*
X4661Y3498*
X4668Y3491*
X4676Y3487*
X4685Y3485*
Y3515*
G37*
G36*
X6798Y3497D02*
Y3468D01*
X6827*
X6825Y3476*
X6821Y3484*
X6814Y3491*
X6806Y3495*
X6798Y3497*
G37*
G36*
X6788D02*
X6779Y3495D01*
X6771Y3491*
X6765Y3484*
X6760Y3476*
X6758Y3468*
X6788*
Y3497*
G37*
G36*
X5945Y3494D02*
Y3465D01*
X5974*
X5972Y3473*
X5968Y3481*
X5961Y3488*
X5953Y3492*
X5945Y3494*
G37*
G36*
X5935D02*
X5926Y3492D01*
X5918Y3488*
X5911Y3481*
X5907Y3473*
X5905Y3465*
X5935*
Y3494*
G37*
G36*
X6400Y3495D02*
X6365D01*
Y3460*
X6365*
X6375Y3462*
X6384Y3467*
X6392Y3475*
X6397Y3484*
X6400Y3494*
Y3495*
G37*
G36*
X6155Y3480D02*
X6154D01*
X6144Y3477*
X6135Y3472*
X6127Y3464*
X6122Y3455*
X6120Y3445*
Y3445*
X6155*
Y3480*
G37*
G36*
X1165D02*
X1165D01*
Y3445*
X1200*
Y3445*
X1197Y3455*
X1192Y3464*
X1184Y3472*
X1175Y3477*
X1165Y3480*
G37*
G36*
X6827Y3458D02*
X6798D01*
Y3428*
X6806Y3430*
X6814Y3435*
X6821Y3441*
X6825Y3449*
X6827Y3458*
G37*
G36*
X6788D02*
X6758D01*
X6760Y3449*
X6765Y3441*
X6771Y3435*
X6779Y3430*
X6788Y3428*
Y3458*
G37*
G36*
X5974Y3455D02*
X5945D01*
Y3425*
X5953Y3427*
X5961Y3431*
X5968Y3438*
X5972Y3446*
X5974Y3455*
G37*
G36*
X5935D02*
X5905D01*
X5907Y3446*
X5911Y3438*
X5918Y3431*
X5926Y3427*
X5935Y3425*
Y3455*
G37*
G36*
X4995Y3444D02*
Y3415D01*
X5024*
X5022Y3423*
X5018Y3431*
X5011Y3438*
X5003Y3442*
X4995Y3444*
G37*
G36*
X4985D02*
X4976Y3442D01*
X4968Y3438*
X4961Y3431*
X4957Y3423*
X4955Y3415*
X4985*
Y3444*
G37*
G36*
X4705Y3440D02*
X4705D01*
Y3405*
X4740*
Y3405*
X4737Y3415*
X4732Y3424*
X4724Y3432*
X4715Y3437*
X4705Y3440*
G37*
G36*
X4695D02*
X4694D01*
X4684Y3437*
X4675Y3432*
X4667Y3424*
X4662Y3415*
X4660Y3405*
Y3405*
X4695*
Y3440*
G37*
G36*
X4505D02*
X4505D01*
Y3405*
X4540*
Y3405*
X4537Y3415*
X4532Y3424*
X4524Y3432*
X4515Y3437*
X4505Y3440*
G37*
G36*
X4495D02*
X4494D01*
X4484Y3437*
X4475Y3432*
X4467Y3424*
X4462Y3415*
X4460Y3405*
Y3405*
X4495*
Y3440*
G37*
G36*
X6155Y3435D02*
X6120D01*
Y3434*
X6122Y3424*
X6127Y3415*
X6135Y3407*
X6144Y3402*
X6154Y3400*
X6155*
Y3435*
G37*
G36*
X1200D02*
X1165D01*
Y3400*
X1165*
X1175Y3402*
X1184Y3407*
X1192Y3415*
X1197Y3424*
X1200Y3434*
Y3435*
G37*
G36*
X5024Y3405D02*
X4995D01*
Y3375*
X5003Y3377*
X5011Y3381*
X5018Y3388*
X5022Y3396*
X5024Y3405*
G37*
G36*
X4985D02*
X4955D01*
X4957Y3396*
X4961Y3388*
X4968Y3381*
X4976Y3377*
X4985Y3375*
Y3405*
G37*
G36*
X4740Y3395D02*
X4705D01*
Y3360*
X4705*
X4715Y3362*
X4724Y3367*
X4732Y3375*
X4737Y3384*
X4740Y3394*
Y3395*
G37*
G36*
X4695D02*
X4660D01*
Y3394*
X4662Y3384*
X4667Y3375*
X4675Y3367*
X4684Y3362*
X4694Y3360*
X4695*
Y3395*
G37*
G36*
X4540D02*
X4505D01*
Y3360*
X4505*
X4515Y3362*
X4524Y3367*
X4532Y3375*
X4537Y3384*
X4540Y3394*
Y3395*
G37*
G36*
X4495D02*
X4460D01*
Y3394*
X4462Y3384*
X4467Y3375*
X4475Y3367*
X4484Y3362*
X4494Y3360*
X4495*
Y3395*
G37*
G36*
X6025Y3380D02*
X6025D01*
Y3345*
X6060*
Y3345*
X6057Y3355*
X6052Y3364*
X6044Y3372*
X6035Y3377*
X6025Y3380*
G37*
G36*
X4825Y3334D02*
Y3305D01*
X4854*
X4852Y3313*
X4848Y3321*
X4841Y3328*
X4833Y3332*
X4825Y3334*
G37*
G36*
X4815D02*
X4806Y3332D01*
X4798Y3328*
X4791Y3321*
X4787Y3313*
X4785Y3305*
X4815*
Y3334*
G37*
G36*
X6060Y3335D02*
X6025D01*
Y3300*
X6025*
X6035Y3302*
X6044Y3307*
X6052Y3315*
X6057Y3324*
X6060Y3334*
Y3335*
G37*
G36*
X6785Y3320D02*
X6785D01*
Y3285*
X6820*
Y3285*
X6817Y3295*
X6812Y3304*
X6804Y3312*
X6795Y3317*
X6785Y3320*
G37*
G36*
X6775D02*
X6774D01*
X6764Y3317*
X6755Y3312*
X6747Y3304*
X6742Y3295*
X6740Y3285*
Y3285*
X6775*
Y3320*
G37*
G36*
X6637Y3385D02*
X6622D01*
X6608Y3381*
X6595Y3374*
X6585Y3364*
X6578Y3351*
X6574Y3337*
Y3322*
X6578Y3308*
X6585Y3295*
X6595Y3285*
X6608Y3278*
X6622Y3274*
X6637*
X6651Y3278*
X6664Y3285*
X6674Y3295*
X6681Y3308*
X6685Y3322*
Y3337*
X6681Y3351*
X6674Y3364*
X6664Y3374*
X6651Y3381*
X6637Y3385*
G37*
G36*
X4854Y3295D02*
X4825D01*
Y3265*
X4833Y3267*
X4841Y3271*
X4848Y3278*
X4852Y3286*
X4854Y3295*
G37*
G36*
X4815D02*
X4785D01*
X4787Y3286*
X4791Y3278*
X4798Y3271*
X4806Y3267*
X4815Y3265*
Y3295*
G37*
G36*
X1825Y3280D02*
X1825D01*
Y3245*
X1860*
Y3245*
X1857Y3255*
X1852Y3264*
X1844Y3272*
X1835Y3277*
X1825Y3280*
G37*
G36*
X1815D02*
X1814D01*
X1804Y3277*
X1795Y3272*
X1787Y3264*
X1782Y3255*
X1780Y3245*
Y3245*
X1815*
Y3280*
G37*
G36*
X6820Y3275D02*
X6785D01*
Y3240*
X6785*
X6795Y3242*
X6804Y3247*
X6812Y3255*
X6817Y3264*
X6820Y3274*
Y3275*
G37*
G36*
X6775D02*
X6740D01*
Y3274*
X6742Y3264*
X6747Y3255*
X6755Y3247*
X6764Y3242*
X6774Y3240*
X6775*
Y3275*
G37*
G36*
X5865Y3255D02*
X5835D01*
X5837Y3246*
X5841Y3238*
X5848Y3231*
X5856Y3227*
X5865Y3225*
Y3255*
G37*
G36*
X5314Y3295D02*
X5305D01*
X5296Y3292*
X5288Y3288*
X5281Y3281*
X5277Y3273*
X5275Y3264*
Y3255*
X5277Y3246*
X5281Y3238*
X5288Y3231*
X5296Y3227*
X5305Y3225*
X5314*
X5323Y3227*
X5331Y3231*
X5338Y3238*
X5342Y3246*
X5345Y3255*
Y3264*
X5342Y3273*
X5338Y3281*
X5331Y3288*
X5323Y3292*
X5314Y3295*
G37*
G36*
X4405Y3260D02*
X4405D01*
Y3225*
X4440*
Y3225*
X4437Y3235*
X4432Y3244*
X4424Y3252*
X4415Y3257*
X4405Y3260*
G37*
G36*
X2165D02*
X2165D01*
Y3225*
X2200*
Y3225*
X2197Y3235*
X2192Y3244*
X2184Y3252*
X2175Y3257*
X2165Y3260*
G37*
G36*
X2155D02*
X2154D01*
X2144Y3257*
X2135Y3252*
X2127Y3244*
X2122Y3235*
X2120Y3225*
Y3225*
X2155*
Y3260*
G37*
G36*
X5235Y3234D02*
Y3205D01*
X5264*
X5262Y3213*
X5258Y3221*
X5251Y3228*
X5243Y3232*
X5235Y3234*
G37*
G36*
X5225D02*
X5216Y3232D01*
X5208Y3228*
X5201Y3221*
X5197Y3213*
X5195Y3205*
X5225*
Y3234*
G37*
G36*
X1306Y3329D02*
X1293D01*
X1281Y3326*
X1269Y3321*
X1259Y3314*
X1250Y3305*
X1243Y3295*
X1238Y3283*
X1235Y3271*
Y3258*
X1238Y3245*
X1243Y3234*
X1250Y3223*
X1259Y3214*
X1269Y3207*
X1281Y3202*
X1293Y3200*
X1306*
X1318Y3202*
X1330Y3207*
X1340Y3214*
X1349Y3223*
X1356Y3234*
X1361Y3245*
X1364Y3258*
Y3271*
X1361Y3283*
X1356Y3295*
X1349Y3305*
X1340Y3314*
X1330Y3321*
X1318Y3326*
X1306Y3329*
G37*
G36*
X1860Y3235D02*
X1825D01*
Y3200*
X1825*
X1835Y3202*
X1844Y3207*
X1852Y3215*
X1857Y3224*
X1860Y3234*
Y3235*
G37*
G36*
X1815D02*
X1780D01*
Y3234*
X1782Y3224*
X1787Y3215*
X1795Y3207*
X1804Y3202*
X1814Y3200*
X1815*
Y3235*
G37*
G36*
X5424Y3265D02*
X5415D01*
X5406Y3262*
X5398Y3258*
X5391Y3251*
X5387Y3243*
X5385Y3234*
Y3225*
X5387Y3216*
X5391Y3208*
X5398Y3201*
X5406Y3197*
X5415Y3195*
X5424*
X5433Y3197*
X5441Y3201*
X5448Y3208*
X5452Y3216*
X5455Y3225*
Y3234*
X5452Y3243*
X5448Y3251*
X5441Y3258*
X5433Y3262*
X5424Y3265*
G37*
G36*
X6465Y3220D02*
X6465D01*
Y3185*
X6500*
Y3185*
X6497Y3195*
X6492Y3204*
X6484Y3212*
X6475Y3217*
X6465Y3220*
G37*
G36*
X6455D02*
X6454D01*
X6444Y3217*
X6435Y3212*
X6427Y3204*
X6422Y3195*
X6420Y3185*
Y3185*
X6455*
Y3220*
G37*
G36*
X6115D02*
X6114D01*
X6104Y3217*
X6095Y3212*
X6087Y3204*
X6082Y3195*
X6080Y3185*
Y3185*
X6115*
Y3220*
G37*
G36*
X3205D02*
X3205D01*
Y3185*
X3240*
Y3185*
X3237Y3195*
X3232Y3204*
X3224Y3212*
X3215Y3217*
X3205Y3220*
G37*
G36*
X3195D02*
X3194D01*
X3184Y3217*
X3175Y3212*
X3167Y3204*
X3162Y3195*
X3160Y3185*
Y3185*
X3195*
Y3220*
G37*
G36*
X1165D02*
X1165D01*
Y3185*
X1200*
Y3185*
X1197Y3195*
X1192Y3204*
X1184Y3212*
X1175Y3217*
X1165Y3220*
G37*
G36*
X4440Y3215D02*
X4405D01*
Y3180*
X4405*
X4415Y3182*
X4424Y3187*
X4432Y3195*
X4437Y3204*
X4440Y3214*
Y3215*
G37*
G36*
X4255Y3610D02*
X4250D01*
X3444*
X3439*
X3436Y3609*
X3433Y3609*
X3422Y3607*
X3419Y3606*
X3416Y3605*
X3406Y3601*
X3404Y3600*
X3401Y3598*
X3392Y3592*
X3389Y3590*
X3387Y3588*
X3379Y3580*
X3377Y3578*
X3375Y3576*
X3369Y3567*
X3368Y3564*
X3366Y3561*
X3362Y3551*
X3361Y3548*
X3360Y3545*
X3358Y3535*
X3358Y3534*
X3358Y3533*
X3357Y3532*
X3356Y3529*
X3355Y3527*
X3355Y3526*
X3355Y3524*
X3355Y3522*
X3354Y3519*
Y2519*
Y2513*
X3355Y2510*
X3355Y2507*
X3357Y2496*
X3358Y2493*
X3359Y2490*
X3364Y2479*
X3365Y2477*
X3366Y2474*
X3373Y2464*
X3375Y2462*
X3377Y2460*
X3385Y2451*
X3387Y2450*
X3390Y2448*
X3399Y2441*
X3402Y2440*
X3405Y2438*
X3415Y2434*
X3418Y2433*
X3421Y2432*
X3433Y2430*
X3436Y2430*
X3439Y2429*
X3444*
X4240*
X4246*
X4249Y2430*
X4252Y2430*
X4266Y2433*
X4269Y2433*
X4272Y2434*
X4284Y2440*
X4287Y2441*
X4289Y2442*
X4301Y2450*
X4303Y2452*
X4306Y2454*
X4315Y2463*
X4317Y2466*
X4319Y2468*
X4327Y2480*
X4328Y2482*
X4329Y2485*
X4335Y2498*
X4336Y2500*
X4336Y2503*
X4339Y2517*
X4339Y2520*
X4340Y2523*
Y2530*
Y2963*
X4360Y2972*
X4370Y2973*
X4375Y2967*
X4384Y2962*
X4394Y2960*
X4395*
Y3000*
Y3040*
X4394*
X4384Y3037*
X4375Y3032*
X4370Y3026*
X4360Y3027*
X4340Y3036*
Y3183*
X4360Y3192*
X4370Y3193*
X4375Y3187*
X4384Y3182*
X4394Y3180*
X4395*
Y3220*
Y3260*
X4394*
X4384Y3257*
X4375Y3252*
X4370Y3246*
X4360Y3247*
X4340Y3256*
Y3520*
Y3525*
X4339Y3528*
X4339Y3531*
X4337Y3543*
X4336Y3546*
X4335Y3549*
X4331Y3560*
X4329Y3562*
X4328Y3565*
X4321Y3575*
X4319Y3577*
X4318Y3579*
X4309Y3588*
X4307Y3589*
X4305Y3591*
X4295Y3598*
X4292Y3599*
X4290Y3601*
X4279Y3605*
X4276Y3606*
X4273Y3607*
X4261Y3609*
X4258Y3609*
X4255Y3610*
G37*
G36*
X2200Y3215D02*
X2165D01*
Y3180*
X2165*
X2175Y3182*
X2184Y3187*
X2192Y3195*
X2197Y3204*
X2200Y3214*
Y3215*
G37*
G36*
X2155D02*
X2120D01*
Y3214*
X2122Y3204*
X2127Y3195*
X2135Y3187*
X2144Y3182*
X2154Y3180*
X2155*
Y3215*
G37*
G36*
X5264Y3195D02*
X5235D01*
Y3165*
X5243Y3167*
X5251Y3171*
X5258Y3178*
X5262Y3186*
X5264Y3195*
G37*
G36*
X5225D02*
X5195D01*
X5197Y3186*
X5201Y3178*
X5208Y3171*
X5216Y3167*
X5225Y3165*
Y3195*
G37*
G36*
X6015Y3184D02*
Y3155D01*
X6044*
X6042Y3163*
X6038Y3171*
X6031Y3178*
X6023Y3182*
X6015Y3184*
G37*
G36*
X6005D02*
X5996Y3182D01*
X5988Y3178*
X5981Y3171*
X5977Y3163*
X5975Y3155*
X6005*
Y3184*
G37*
G36*
X4634Y3289D02*
X4485D01*
Y3140*
X4634*
Y3289*
G37*
G36*
X6500Y3175D02*
X6465D01*
Y3140*
X6465*
X6475Y3142*
X6484Y3147*
X6492Y3155*
X6497Y3164*
X6500Y3174*
Y3175*
G37*
G36*
X6455D02*
X6420D01*
Y3174*
X6422Y3164*
X6427Y3155*
X6435Y3147*
X6444Y3142*
X6454Y3140*
X6455*
Y3175*
G37*
G36*
X6115D02*
X6080D01*
Y3174*
X6082Y3164*
X6087Y3155*
X6095Y3147*
X6104Y3142*
X6114Y3140*
X6115*
Y3175*
G37*
G36*
X3240D02*
X3205D01*
Y3140*
X3205*
X3215Y3142*
X3224Y3147*
X3232Y3155*
X3237Y3164*
X3240Y3174*
Y3175*
G37*
G36*
X3195D02*
X3160D01*
Y3174*
X3162Y3164*
X3167Y3155*
X3175Y3147*
X3184Y3142*
X3194Y3140*
X3195*
Y3175*
G37*
G36*
X1200D02*
X1165D01*
Y3140*
X1165*
X1175Y3142*
X1184Y3147*
X1192Y3155*
X1197Y3164*
X1200Y3174*
Y3175*
G37*
G36*
X1975Y3190D02*
X1975D01*
Y3135*
X2030*
Y3135*
X2027Y3147*
X2023Y3158*
X2016Y3168*
X2008Y3176*
X1998Y3183*
X1987Y3187*
X1975Y3190*
G37*
G36*
X1965D02*
X1964D01*
X1952Y3187*
X1941Y3183*
X1931Y3176*
X1923Y3168*
X1916Y3158*
X1912Y3147*
X1910Y3135*
Y3135*
X1965*
Y3190*
G37*
G36*
X5595Y3115D02*
X5565D01*
X5567Y3106*
X5571Y3098*
X5578Y3091*
X5586Y3087*
X5595Y3085*
Y3115*
G37*
G36*
X6785Y3120D02*
X6785D01*
Y3085*
X6820*
Y3085*
X6817Y3095*
X6812Y3104*
X6804Y3112*
X6795Y3117*
X6785Y3120*
G37*
G36*
X6775D02*
X6774D01*
X6764Y3117*
X6755Y3112*
X6747Y3104*
X6742Y3095*
X6740Y3085*
Y3085*
X6775*
Y3120*
G37*
G36*
X5205Y3114D02*
Y3085D01*
X5234*
X5232Y3093*
X5228Y3101*
X5221Y3108*
X5213Y3112*
X5205Y3114*
G37*
G36*
X2395Y3104D02*
Y3075D01*
X2424*
X2422Y3083*
X2418Y3091*
X2411Y3098*
X2403Y3102*
X2395Y3104*
G37*
G36*
X2385D02*
X2376Y3102D01*
X2368Y3098*
X2361Y3091*
X2357Y3083*
X2355Y3075*
X2385*
Y3104*
G37*
G36*
X2030Y3125D02*
X1975D01*
Y3070*
X1975*
X1987Y3072*
X1998Y3076*
X2008Y3083*
X2016Y3091*
X2023Y3101*
X2027Y3112*
X2030Y3124*
Y3125*
G37*
G36*
X1965D02*
X1910D01*
Y3124*
X1912Y3112*
X1916Y3101*
X1923Y3091*
X1931Y3083*
X1941Y3076*
X1952Y3072*
X1964Y3070*
X1965*
Y3125*
G37*
G36*
X6044Y3145D02*
X5975D01*
X5977Y3136*
X5981Y3128*
X5988Y3121*
X5993Y3118*
X5996Y3104*
X5996Y3086*
X5991Y3081*
X5987Y3073*
X5985Y3065*
X6054*
X6052Y3073*
X6048Y3081*
X6041Y3088*
X6036Y3091*
X6033Y3105*
X6033Y3123*
X6038Y3128*
X6042Y3136*
X6044Y3145*
G37*
G36*
X5234Y3075D02*
X5205D01*
Y3045*
X5213Y3047*
X5221Y3051*
X5228Y3058*
X5232Y3066*
X5234Y3075*
G37*
G36*
X5030Y3815D02*
X5027Y3815D01*
X5024*
X5021Y3814*
X5018Y3813*
X5015Y3812*
X5012Y3811*
X5010Y3810*
X5007Y3809*
X5004Y3807*
X5002Y3806*
X5000Y3803*
X4997Y3802*
X4996Y3799*
X4993Y3797*
X4992Y3795*
X4990Y3792*
X4989Y3789*
X4988Y3787*
X4987Y3784*
X4986Y3781*
X4985Y3778*
X4985Y3775*
Y3772*
X4984Y3770*
X4985Y3767*
Y3764*
X4985Y3761*
X4986Y3758*
X4987Y3755*
X4988Y3752*
X4989Y3750*
X4990Y3747*
X4992Y3744*
X4993Y3742*
X4996Y3740*
X4997Y3737*
X5062Y3672*
Y3128*
X5063Y3125*
Y3122*
X5064Y3119*
X5064Y3116*
X5065Y3113*
X5066Y3110*
X5067Y3108*
X5068Y3105*
X5070Y3103*
X5072Y3100*
X5074Y3098*
X5076Y3096*
X5078Y3094*
X5080Y3092*
X5083Y3090*
X5085Y3088*
X5088Y3087*
X5090Y3086*
X5093Y3085*
X5096Y3084*
X5099Y3084*
X5102Y3083*
X5105*
X5108Y3082*
X5111Y3083*
X5114*
X5117Y3084*
X5120Y3084*
X5122Y3085*
X5125Y3086*
X5128Y3087*
X5130Y3088*
X5133Y3090*
X5135Y3092*
X5136Y3092*
X5144Y3092*
X5148Y3090*
X5164Y3079*
X5165Y3078*
Y3075*
X5167Y3066*
X5171Y3058*
X5178Y3051*
X5186Y3047*
X5195Y3045*
Y3080*
Y3114*
X5186Y3112*
X5179Y3108*
X5177Y3109*
X5172Y3111*
X5164Y3116*
X5153Y3125*
Y3125*
X5153Y3128*
Y3691*
X5152Y3703*
X5147Y3714*
X5140Y3723*
X5062Y3802*
X5059Y3803*
X5057Y3806*
X5055Y3807*
X5052Y3809*
X5049Y3810*
X5047Y3811*
X5044Y3812*
X5041Y3813*
X5038Y3814*
X5035Y3815*
X5032*
X5030Y3815*
G37*
G36*
X2165Y3080D02*
X2165D01*
Y3045*
X2200*
Y3045*
X2197Y3055*
X2192Y3064*
X2184Y3072*
X2175Y3077*
X2165Y3080*
G37*
G36*
X2155D02*
X2154D01*
X2144Y3077*
X2135Y3072*
X2127Y3064*
X2122Y3055*
X2120Y3045*
Y3045*
X2155*
Y3080*
G37*
G36*
X6820Y3075D02*
X6785D01*
Y3040*
X6785*
X6795Y3042*
X6804Y3047*
X6812Y3055*
X6817Y3064*
X6820Y3074*
Y3075*
G37*
G36*
X6775D02*
X6740D01*
Y3074*
X6742Y3064*
X6747Y3055*
X6755Y3047*
X6764Y3042*
X6774Y3040*
X6775*
Y3075*
G37*
G36*
X2424Y3065D02*
X2395D01*
Y3035*
X2403Y3037*
X2411Y3041*
X2418Y3048*
X2422Y3056*
X2424Y3065*
G37*
G36*
X2385D02*
X2355D01*
X2357Y3056*
X2361Y3048*
X2368Y3041*
X2376Y3037*
X2385Y3035*
Y3065*
G37*
G36*
X6685Y3135D02*
X6574D01*
Y3024*
X6685*
Y3135*
G37*
G36*
X4405Y3040D02*
X4405D01*
Y3005*
X4440*
Y3005*
X4437Y3015*
X4432Y3024*
X4424Y3032*
X4415Y3037*
X4405Y3040*
G37*
G36*
X2200Y3035D02*
X2165D01*
Y3000*
X2165*
X2175Y3002*
X2184Y3007*
X2192Y3015*
X2197Y3024*
X2200Y3034*
Y3035*
G37*
G36*
X2155D02*
X2120D01*
Y3034*
X2122Y3024*
X2127Y3015*
X2135Y3007*
X2144Y3002*
X2154Y3000*
X2155*
Y3035*
G37*
G36*
X6425Y3004D02*
Y2975D01*
X6454*
X6452Y2983*
X6448Y2991*
X6441Y2998*
X6433Y3002*
X6425Y3004*
G37*
G36*
X6415D02*
X6406Y3002D01*
X6398Y2998*
X6391Y2991*
X6387Y2983*
X6385Y2975*
X6415*
Y3004*
G37*
G36*
X1165Y3000D02*
X1165D01*
Y2965*
X1200*
Y2965*
X1197Y2975*
X1192Y2984*
X1184Y2992*
X1175Y2997*
X1165Y3000*
G37*
G36*
X4440Y2995D02*
X4405D01*
Y2960*
X4405*
X4415Y2962*
X4424Y2967*
X4432Y2975*
X4437Y2984*
X4440Y2994*
Y2995*
G37*
G36*
X2005Y2980D02*
X2005D01*
Y2945*
X2040*
Y2945*
X2037Y2955*
X2032Y2964*
X2024Y2972*
X2015Y2977*
X2005Y2980*
G37*
G36*
X1995D02*
X1994D01*
X1984Y2977*
X1975Y2972*
X1967Y2964*
X1962Y2955*
X1960Y2945*
Y2945*
X1995*
Y2980*
G37*
G36*
X6454Y2965D02*
X6425D01*
Y2935*
X6433Y2937*
X6441Y2941*
X6448Y2948*
X6452Y2956*
X6454Y2965*
G37*
G36*
X6415D02*
X6385D01*
X6387Y2956*
X6391Y2948*
X6398Y2941*
X6406Y2937*
X6415Y2935*
Y2965*
G37*
G36*
X6798Y2961D02*
Y2931D01*
X6827*
X6825Y2940*
X6821Y2948*
X6814Y2954*
X6806Y2959*
X6798Y2961*
G37*
G36*
X6788D02*
X6779Y2959D01*
X6771Y2954*
X6765Y2948*
X6760Y2940*
X6758Y2931*
X6788*
Y2961*
G37*
G36*
X4567Y3074D02*
X4552D01*
X4538Y3071*
X4524Y3065*
X4512Y3057*
X4502Y3047*
X4494Y3035*
X4488Y3021*
X4485Y3007*
Y2992*
X4488Y2978*
X4494Y2964*
X4502Y2952*
X4512Y2942*
X4524Y2934*
X4538Y2928*
X4552Y2925*
X4567*
X4581Y2928*
X4595Y2934*
X4607Y2942*
X4617Y2952*
X4625Y2964*
X4631Y2978*
X4634Y2992*
Y3007*
X4631Y3021*
X4625Y3035*
X4617Y3047*
X4607Y3057*
X4595Y3065*
X4581Y3071*
X4567Y3074*
G37*
G36*
X1765Y2960D02*
X1765D01*
Y2925*
X1800*
Y2925*
X1797Y2935*
X1792Y2944*
X1784Y2952*
X1775Y2957*
X1765Y2960*
G37*
G36*
X1755D02*
X1754D01*
X1744Y2957*
X1735Y2952*
X1727Y2944*
X1722Y2935*
X1720Y2925*
Y2925*
X1755*
Y2960*
G37*
G36*
X1200Y2955D02*
X1165D01*
Y2920*
X1165*
X1175Y2922*
X1184Y2927*
X1192Y2935*
X1197Y2944*
X1200Y2954*
Y2955*
G37*
G36*
X5284Y2985D02*
X5275D01*
X5266Y2982*
X5258Y2978*
X5251Y2971*
X5247Y2963*
X5245Y2954*
Y2945*
X5247Y2936*
X5251Y2928*
X5258Y2921*
X5266Y2917*
X5275Y2915*
X5284*
X5293Y2917*
X5301Y2921*
X5308Y2928*
X5312Y2936*
X5315Y2945*
Y2954*
X5312Y2963*
X5308Y2971*
X5301Y2978*
X5293Y2982*
X5284Y2985*
G37*
G36*
X2040Y2935D02*
X2005D01*
Y2900*
X2005*
X2015Y2902*
X2024Y2907*
X2032Y2915*
X2037Y2924*
X2040Y2934*
Y2935*
G37*
G36*
X1995D02*
X1960D01*
Y2934*
X1962Y2924*
X1967Y2915*
X1975Y2907*
X1984Y2902*
X1994Y2900*
X1995*
Y2935*
G37*
G36*
X6827Y2921D02*
X6798D01*
Y2892*
X6806Y2894*
X6814Y2898*
X6821Y2905*
X6825Y2913*
X6827Y2921*
G37*
G36*
X6788D02*
X6758D01*
X6760Y2913*
X6765Y2905*
X6771Y2898*
X6779Y2894*
X6788Y2892*
Y2921*
G37*
G36*
X5545Y2955D02*
X5536D01*
X5527Y2952*
X5519Y2948*
X5512Y2941*
X5508Y2933*
X5505Y2924*
Y2915*
X5508Y2906*
X5512Y2898*
X5519Y2891*
X5527Y2887*
X5536Y2885*
X5545*
X5554Y2887*
X5562Y2891*
X5568Y2898*
X5573Y2906*
X5575Y2915*
Y2924*
X5573Y2933*
X5568Y2941*
X5562Y2948*
X5554Y2952*
X5545Y2955*
G37*
G36*
X4775Y2914D02*
Y2885D01*
X4804*
X4802Y2893*
X4798Y2901*
X4791Y2908*
X4783Y2912*
X4775Y2914*
G37*
G36*
X4765D02*
X4756Y2912D01*
X4748Y2908*
X4741Y2901*
X4737Y2893*
X4735Y2885*
X4765*
Y2914*
G37*
G36*
X2205Y2920D02*
X2205D01*
Y2885*
X2240*
Y2885*
X2237Y2895*
X2232Y2904*
X2224Y2912*
X2215Y2917*
X2205Y2920*
G37*
G36*
X2195D02*
X2194D01*
X2184Y2917*
X2175Y2912*
X2167Y2904*
X2162Y2895*
X2160Y2885*
Y2885*
X2195*
Y2920*
G37*
G36*
X1800Y2915D02*
X1765D01*
Y2880*
X1765*
X1775Y2882*
X1784Y2887*
X1792Y2895*
X1797Y2904*
X1800Y2914*
Y2915*
G37*
G36*
X1755D02*
X1720D01*
Y2914*
X1722Y2904*
X1727Y2895*
X1735Y2887*
X1744Y2882*
X1754Y2880*
X1755*
Y2915*
G37*
G36*
X3205Y2900D02*
X3205D01*
Y2865*
X3240*
Y2865*
X3237Y2875*
X3232Y2884*
X3224Y2892*
X3215Y2897*
X3205Y2900*
G37*
G36*
X3195D02*
X3194D01*
X3184Y2897*
X3175Y2892*
X3167Y2884*
X3162Y2875*
X3160Y2865*
Y2865*
X3195*
Y2900*
G37*
G36*
X4804Y2875D02*
X4775D01*
Y2845*
X4783Y2847*
X4791Y2851*
X4798Y2858*
X4802Y2866*
X4804Y2875*
G37*
G36*
X4765D02*
X4735D01*
X4737Y2866*
X4741Y2858*
X4748Y2851*
X4756Y2847*
X4765Y2845*
Y2875*
G37*
G36*
X6365Y2880D02*
X6365D01*
Y2845*
X6400*
Y2845*
X6397Y2855*
X6392Y2864*
X6384Y2872*
X6375Y2877*
X6365Y2880*
G37*
G36*
X6355D02*
X6354D01*
X6344Y2877*
X6335Y2872*
X6327Y2864*
X6322Y2855*
X6320Y2845*
Y2845*
X6355*
Y2880*
G37*
G36*
X2240Y2875D02*
X2205D01*
Y2840*
X2205*
X2215Y2842*
X2224Y2847*
X2232Y2855*
X2237Y2864*
X2240Y2874*
Y2875*
G37*
G36*
X2195D02*
X2160D01*
Y2874*
X2162Y2864*
X2167Y2855*
X2175Y2847*
X2184Y2842*
X2194Y2840*
X2195*
Y2875*
G37*
G36*
X1645Y2864D02*
Y2835D01*
X1674*
X1672Y2843*
X1668Y2851*
X1661Y2858*
X1653Y2862*
X1645Y2864*
G37*
G36*
X1635D02*
X1626Y2862D01*
X1618Y2858*
X1611Y2851*
X1607Y2843*
X1605Y2835*
X1635*
Y2864*
G37*
G36*
X1845Y2860D02*
X1845D01*
Y2825*
X1880*
Y2825*
X1877Y2835*
X1872Y2844*
X1864Y2852*
X1855Y2857*
X1845Y2860*
G37*
G36*
X1835D02*
X1834D01*
X1824Y2857*
X1815Y2852*
X1807Y2844*
X1802Y2835*
X1800Y2825*
Y2825*
X1835*
Y2860*
G37*
G36*
X3240Y2855D02*
X3205D01*
Y2820*
X3205*
X3215Y2822*
X3224Y2827*
X3232Y2835*
X3237Y2844*
X3240Y2854*
Y2855*
G37*
G36*
X3195D02*
X3160D01*
Y2854*
X3162Y2844*
X3167Y2835*
X3175Y2827*
X3184Y2822*
X3194Y2820*
X3195*
Y2855*
G37*
G36*
X2633Y2886D02*
X2624D01*
X2615Y2883*
X2607Y2879*
X2600Y2872*
X2596Y2864*
X2593Y2855*
Y2846*
X2596Y2837*
X2600Y2829*
X2607Y2823*
X2615Y2818*
X2624Y2816*
X2633*
X2642Y2818*
X2650Y2823*
X2656Y2829*
X2661Y2837*
X2663Y2846*
Y2855*
X2661Y2864*
X2656Y2872*
X2650Y2879*
X2642Y2883*
X2633Y2886*
G37*
G36*
X6400Y2835D02*
X6365D01*
Y2800*
X6365*
X6375Y2802*
X6384Y2807*
X6392Y2815*
X6397Y2824*
X6400Y2834*
Y2835*
G37*
G36*
X6355D02*
X6320D01*
Y2834*
X6322Y2824*
X6327Y2815*
X6335Y2807*
X6344Y2802*
X6354Y2800*
X6355*
Y2835*
G37*
G36*
X1674Y2825D02*
X1645D01*
Y2795*
X1653Y2797*
X1661Y2801*
X1668Y2808*
X1672Y2816*
X1674Y2825*
G37*
G36*
X1635D02*
X1605D01*
X1607Y2816*
X1611Y2808*
X1618Y2801*
X1626Y2797*
X1635Y2795*
Y2825*
G37*
G36*
X2105Y2820D02*
X2105D01*
Y2785*
X2140*
Y2785*
X2137Y2795*
X2132Y2804*
X2124Y2812*
X2115Y2817*
X2105Y2820*
G37*
G36*
X2095D02*
X2094D01*
X2084Y2817*
X2075Y2812*
X2067Y2804*
X2062Y2795*
X2060Y2785*
Y2785*
X2095*
Y2820*
G37*
G36*
X1880Y2815D02*
X1845D01*
Y2780*
X1845*
X1855Y2782*
X1864Y2787*
X1872Y2795*
X1877Y2804*
X1880Y2814*
Y2815*
G37*
G36*
X1835D02*
X1800D01*
Y2814*
X1802Y2804*
X1807Y2795*
X1815Y2787*
X1824Y2782*
X1834Y2780*
X1835*
Y2815*
G37*
G36*
X4985Y2800D02*
X4985D01*
Y2765*
X5020*
Y2765*
X5017Y2775*
X5012Y2784*
X5004Y2792*
X4995Y2797*
X4985Y2800*
G37*
G36*
X4975D02*
X4974D01*
X4964Y2797*
X4955Y2792*
X4947Y2784*
X4942Y2775*
X4940Y2765*
Y2765*
X4975*
Y2800*
G37*
G36*
X1165Y2780D02*
X1165D01*
Y2745*
X1200*
Y2745*
X1197Y2755*
X1192Y2764*
X1184Y2772*
X1175Y2777*
X1165Y2780*
G37*
G36*
X2140Y2775D02*
X2105D01*
Y2740*
X2105*
X2115Y2742*
X2124Y2747*
X2132Y2755*
X2137Y2764*
X2140Y2774*
Y2775*
G37*
G36*
X2095D02*
X2060D01*
Y2774*
X2062Y2764*
X2067Y2755*
X2075Y2747*
X2084Y2742*
X2094Y2740*
X2095*
Y2775*
G37*
G36*
X1395Y2872D02*
X1384D01*
X1373Y2870*
X1363Y2864*
X1355Y2856*
X1349Y2846*
X1347Y2835*
Y2824*
X1349Y2813*
X1355Y2803*
X1357Y2801*
X1374Y2778*
Y2766*
X1368Y2757*
X1363Y2750*
X1359Y2742*
X1357Y2735*
X1390*
X1422*
X1420Y2742*
X1416Y2750*
X1411Y2757*
X1405Y2766*
Y2778*
X1422Y2801*
X1424Y2803*
X1430Y2813*
X1432Y2824*
Y2835*
X1430Y2846*
X1424Y2856*
X1416Y2864*
X1406Y2870*
X1395Y2872*
G37*
G36*
X6264Y2795D02*
X6255D01*
X6246Y2792*
X6238Y2788*
X6231Y2781*
X6227Y2773*
X6225Y2764*
Y2755*
X6227Y2746*
X6231Y2738*
X6238Y2731*
X6246Y2727*
X6255Y2725*
X6264*
X6273Y2727*
X6281Y2731*
X6288Y2738*
X6292Y2746*
X6295Y2755*
Y2764*
X6292Y2773*
X6288Y2781*
X6281Y2788*
X6273Y2792*
X6264Y2795*
G37*
G36*
X5345Y2760D02*
X5345D01*
Y2725*
X5380*
Y2725*
X5377Y2735*
X5372Y2744*
X5364Y2752*
X5355Y2757*
X5345Y2760*
G37*
G36*
X1945D02*
X1945D01*
Y2725*
X1980*
Y2725*
X1977Y2735*
X1972Y2744*
X1964Y2752*
X1955Y2757*
X1945Y2760*
G37*
G36*
X1935D02*
X1934D01*
X1924Y2757*
X1915Y2752*
X1907Y2744*
X1902Y2735*
X1900Y2725*
Y2725*
X1935*
Y2760*
G37*
G36*
X5020Y2755D02*
X4985D01*
Y2720*
X4985*
X4995Y2722*
X5004Y2727*
X5012Y2735*
X5017Y2744*
X5020Y2754*
Y2755*
G37*
G36*
X4975D02*
X4940D01*
Y2754*
X4942Y2744*
X4947Y2735*
X4955Y2727*
X4964Y2722*
X4974Y2720*
X4975*
Y2755*
G37*
G36*
X1555Y2744D02*
Y2715D01*
X1584*
X1582Y2723*
X1578Y2731*
X1571Y2738*
X1563Y2742*
X1555Y2744*
G37*
G36*
X1545D02*
X1536Y2742D01*
X1528Y2738*
X1521Y2731*
X1517Y2723*
X1515Y2715*
X1545*
Y2744*
G37*
G36*
X4567Y2859D02*
X4552D01*
X4538Y2856*
X4524Y2850*
X4512Y2842*
X4502Y2832*
X4494Y2820*
X4488Y2806*
X4485Y2792*
Y2777*
X4488Y2763*
X4494Y2749*
X4502Y2737*
X4512Y2727*
X4524Y2719*
X4538Y2713*
X4552Y2710*
X4567*
X4581Y2713*
X4595Y2719*
X4607Y2727*
X4617Y2737*
X4625Y2749*
X4631Y2763*
X4634Y2777*
Y2792*
X4631Y2806*
X4625Y2820*
X4617Y2832*
X4607Y2842*
X4595Y2850*
X4581Y2856*
X4567Y2859*
G37*
G36*
X1725Y2740D02*
X1725D01*
Y2705*
X1760*
Y2705*
X1757Y2715*
X1752Y2724*
X1744Y2732*
X1735Y2737*
X1725Y2740*
G37*
G36*
X1715D02*
X1714D01*
X1704Y2737*
X1695Y2732*
X1687Y2724*
X1682Y2715*
X1680Y2705*
Y2705*
X1715*
Y2740*
G37*
G36*
X1200Y2735D02*
X1165D01*
Y2700*
X1165*
X1175Y2702*
X1184Y2707*
X1192Y2715*
X1197Y2724*
X1200Y2734*
Y2735*
G37*
G36*
X1980Y2715D02*
X1945D01*
Y2680*
X1945*
X1955Y2682*
X1964Y2687*
X1972Y2695*
X1977Y2704*
X1980Y2714*
Y2715*
G37*
G36*
X1935D02*
X1900D01*
Y2714*
X1902Y2704*
X1907Y2695*
X1915Y2687*
X1924Y2682*
X1934Y2680*
X1935*
Y2715*
G37*
G36*
X1584Y2705D02*
X1555D01*
Y2675*
X1563Y2677*
X1571Y2681*
X1578Y2688*
X1582Y2696*
X1584Y2705*
G37*
G36*
X1545D02*
X1515D01*
X1517Y2696*
X1521Y2688*
X1528Y2681*
X1536Y2677*
X1545Y2675*
Y2705*
G37*
G36*
X1760Y2695D02*
X1725D01*
Y2660*
X1725*
X1735Y2662*
X1744Y2667*
X1752Y2675*
X1757Y2684*
X1760Y2694*
Y2695*
G37*
G36*
X1715D02*
X1680D01*
Y2694*
X1682Y2684*
X1687Y2675*
X1695Y2667*
X1704Y2662*
X1714Y2660*
X1715*
Y2695*
G37*
G36*
X6565Y2680D02*
X6565D01*
Y2645*
X6600*
Y2645*
X6597Y2655*
X6592Y2664*
X6584Y2672*
X6575Y2677*
X6565Y2680*
G37*
G36*
X6555D02*
X6554D01*
X6544Y2677*
X6535Y2672*
X6527Y2664*
X6522Y2655*
X6520Y2645*
Y2645*
X6555*
Y2680*
G37*
G36*
X4785D02*
X4785D01*
Y2645*
X4820*
Y2645*
X4817Y2655*
X4812Y2664*
X4804Y2672*
X4795Y2677*
X4785Y2680*
G37*
G36*
X4775D02*
X4774D01*
X4764Y2677*
X4755Y2672*
X4747Y2664*
X4742Y2655*
X4740Y2645*
Y2645*
X4775*
Y2680*
G37*
G36*
X3205Y2640D02*
X3205D01*
Y2605*
X3240*
Y2605*
X3237Y2615*
X3232Y2624*
X3224Y2632*
X3215Y2637*
X3205Y2640*
G37*
G36*
X3195D02*
X3194D01*
X3184Y2637*
X3175Y2632*
X3167Y2624*
X3162Y2615*
X3160Y2605*
Y2605*
X3195*
Y2640*
G37*
G36*
X6600Y2635D02*
X6565D01*
Y2600*
X6565*
X6575Y2602*
X6584Y2607*
X6592Y2615*
X6597Y2624*
X6600Y2634*
Y2635*
G37*
G36*
X6555D02*
X6520D01*
Y2634*
X6522Y2624*
X6527Y2615*
X6535Y2607*
X6544Y2602*
X6554Y2600*
X6555*
Y2635*
G37*
G36*
X4820D02*
X4785D01*
Y2600*
X4785*
X4795Y2602*
X4804Y2607*
X4812Y2615*
X4817Y2624*
X4820Y2634*
Y2635*
G37*
G36*
X4775D02*
X4740D01*
Y2634*
X4742Y2624*
X4747Y2615*
X4755Y2607*
X4764Y2602*
X4774Y2600*
X4775*
Y2635*
G37*
G36*
X1422Y2725D02*
X1390D01*
X1357*
X1359Y2717*
X1363Y2709*
X1368Y2702*
X1374Y2693*
Y2681*
X1357Y2658*
X1355Y2656*
X1349Y2646*
X1347Y2635*
Y2624*
X1349Y2613*
X1355Y2603*
X1363Y2595*
X1373Y2589*
X1384Y2587*
X1395*
X1406Y2589*
X1416Y2595*
X1424Y2603*
X1430Y2613*
X1432Y2624*
Y2635*
X1430Y2646*
X1424Y2656*
X1422Y2658*
X1405Y2681*
Y2693*
X1411Y2702*
X1416Y2709*
X1420Y2717*
X1422Y2725*
G37*
G36*
X6705Y2620D02*
X6704D01*
X6694Y2618*
X6684Y2612*
X6677Y2605*
X6671Y2595*
X6669Y2585*
Y2585*
X6705*
Y2620*
G37*
G36*
X6165Y2604D02*
Y2575D01*
X6194*
X6192Y2583*
X6188Y2591*
X6181Y2598*
X6173Y2602*
X6165Y2604*
G37*
G36*
X1695Y2620D02*
X1695D01*
Y2565*
X1750*
Y2565*
X1747Y2577*
X1743Y2588*
X1736Y2598*
X1728Y2606*
X1718Y2613*
X1707Y2617*
X1695Y2620*
G37*
G36*
X1685D02*
X1684D01*
X1672Y2617*
X1661Y2613*
X1651Y2606*
X1643Y2598*
X1636Y2588*
X1632Y2577*
X1630Y2565*
Y2565*
X1685*
Y2620*
G37*
G36*
X3240Y2595D02*
X3205D01*
Y2560*
X3205*
X3215Y2562*
X3224Y2567*
X3232Y2575*
X3237Y2584*
X3240Y2594*
Y2595*
G37*
G36*
X3195D02*
X3160D01*
Y2594*
X3162Y2584*
X3167Y2575*
X3175Y2567*
X3184Y2562*
X3194Y2560*
X3195*
Y2595*
G37*
G36*
X4975Y2560D02*
X4974D01*
X4964Y2557*
X4955Y2552*
X4947Y2544*
X4942Y2535*
X4940Y2525*
Y2525*
X4975*
Y2560*
G37*
G36*
X1245D02*
X1245D01*
Y2525*
X1280*
Y2525*
X1277Y2535*
X1272Y2544*
X1264Y2552*
X1255Y2557*
X1245Y2560*
G37*
G36*
X1235D02*
X1234D01*
X1224Y2557*
X1215Y2552*
X1207Y2544*
X1202Y2535*
X1200Y2525*
Y2525*
X1235*
Y2560*
G37*
G36*
X5794Y2545D02*
X5785D01*
X5776Y2543*
X5768Y2538*
X5761Y2532*
X5753Y2522*
X5744Y2525*
X5735*
X5726Y2522*
X5718Y2518*
X5711Y2511*
X5707Y2503*
X5705Y2494*
Y2485*
X5707Y2476*
X5711Y2468*
X5718Y2461*
X5726Y2457*
X5735Y2455*
X5744*
X5753Y2457*
X5761Y2461*
X5768Y2468*
X5776Y2478*
X5785Y2475*
X5794*
X5803Y2478*
X5811Y2482*
X5818Y2489*
X5822Y2497*
X5825Y2506*
Y2515*
X5822Y2524*
X5818Y2532*
X5811Y2538*
X5803Y2543*
X5794Y2545*
G37*
G36*
X5625Y2540D02*
X5625D01*
Y2505*
X5660*
Y2505*
X5657Y2515*
X5652Y2524*
X5644Y2532*
X5635Y2537*
X5625Y2540*
G37*
G36*
X5615D02*
X5614D01*
X5604Y2537*
X5595Y2532*
X5587Y2524*
X5582Y2515*
X5580Y2505*
Y2505*
X5615*
Y2540*
G37*
G36*
X1750Y2555D02*
X1695D01*
Y2500*
X1695*
X1707Y2502*
X1718Y2506*
X1728Y2513*
X1736Y2521*
X1743Y2531*
X1747Y2542*
X1750Y2554*
Y2555*
G37*
G36*
X1685D02*
X1630D01*
Y2554*
X1632Y2542*
X1636Y2531*
X1643Y2521*
X1651Y2513*
X1661Y2506*
X1672Y2502*
X1684Y2500*
X1685*
Y2555*
G37*
G36*
X1280Y2515D02*
X1245D01*
Y2480*
X1245*
X1255Y2482*
X1264Y2487*
X1272Y2495*
X1277Y2504*
X1280Y2514*
Y2515*
G37*
G36*
X1235D02*
X1200D01*
Y2514*
X1202Y2504*
X1207Y2495*
X1215Y2487*
X1224Y2482*
X1234Y2480*
X1235*
Y2515*
G37*
G36*
X5660Y2495D02*
X5625D01*
Y2460*
X5625*
X5635Y2462*
X5644Y2467*
X5652Y2475*
X5657Y2484*
X5660Y2494*
Y2495*
G37*
G36*
X5615D02*
X5580D01*
Y2494*
X5582Y2484*
X5587Y2475*
X5595Y2467*
X5604Y2462*
X5614Y2460*
X5615*
Y2495*
G37*
G36*
X1785Y2480D02*
X1785D01*
Y2445*
X1820*
Y2445*
X1817Y2455*
X1812Y2464*
X1804Y2472*
X1795Y2477*
X1785Y2480*
G37*
G36*
X1775D02*
X1774D01*
X1764Y2477*
X1755Y2472*
X1747Y2464*
X1742Y2455*
X1740Y2445*
Y2445*
X1775*
Y2480*
G37*
G36*
X1665Y2460D02*
X1665D01*
Y2425*
X1700*
Y2425*
X1697Y2435*
X1692Y2444*
X1684Y2452*
X1675Y2457*
X1665Y2460*
G37*
G36*
X1655D02*
X1654D01*
X1644Y2457*
X1635Y2452*
X1627Y2444*
X1622Y2435*
X1620Y2425*
Y2425*
X1655*
Y2460*
G37*
G36*
X1820Y2435D02*
X1785D01*
Y2400*
X1785*
X1795Y2402*
X1804Y2407*
X1812Y2415*
X1817Y2424*
X1820Y2434*
Y2435*
G37*
G36*
X1775D02*
X1740D01*
Y2434*
X1742Y2424*
X1747Y2415*
X1755Y2407*
X1764Y2402*
X1774Y2400*
X1775*
Y2435*
G37*
G36*
X1247Y2438D02*
X1246D01*
Y2383*
X1301*
Y2384*
X1299Y2395*
X1294Y2406*
X1288Y2416*
X1279Y2425*
X1269Y2431*
X1259Y2436*
X1247Y2438*
G37*
G36*
X1236D02*
X1235D01*
X1224Y2436*
X1213Y2431*
X1203Y2425*
X1194Y2416*
X1188Y2406*
X1183Y2395*
X1181Y2384*
Y2383*
X1236*
Y2438*
G37*
G36*
X5869Y2440D02*
X5860D01*
X5851Y2437*
X5843Y2433*
X5836Y2426*
X5832Y2418*
X5830Y2409*
Y2400*
X5832Y2391*
X5836Y2383*
X5843Y2376*
X5851Y2372*
X5860Y2370*
X5869*
X5878Y2372*
X5886Y2376*
X5893Y2383*
X5897Y2391*
X5900Y2400*
Y2409*
X5897Y2418*
X5893Y2426*
X5886Y2433*
X5878Y2437*
X5869Y2440*
G37*
G36*
X4693Y2397D02*
X4692D01*
Y2342*
X4747*
Y2343*
X4744Y2354*
X4740Y2365*
X4733Y2375*
X4725Y2383*
X4715Y2390*
X4704Y2394*
X4693Y2397*
G37*
G36*
X4682D02*
X4681D01*
X4669Y2394*
X4658Y2390*
X4649Y2383*
X4640Y2375*
X4634Y2365*
X4629Y2354*
X4627Y2343*
Y2342*
X4682*
Y2397*
G37*
G36*
X1700Y2415D02*
X1620D01*
Y2414*
X1622Y2404*
X1627Y2395*
X1635Y2387*
X1644Y2382*
X1654Y2380*
X1659*
X1669Y2362*
X1671Y2351*
X1667Y2343*
X1665Y2335*
X1734*
X1732Y2343*
X1728Y2351*
X1721Y2358*
X1713Y2362*
X1704Y2365*
X1701*
X1700Y2366*
X1691Y2386*
X1690Y2393*
X1692Y2395*
X1697Y2404*
X1700Y2414*
Y2415*
G37*
G36*
X1301Y2373D02*
X1246D01*
Y2318*
X1247*
X1259Y2320*
X1269Y2325*
X1279Y2331*
X1288Y2340*
X1294Y2350*
X1299Y2360*
X1301Y2372*
Y2373*
G37*
G36*
X1236D02*
X1181D01*
Y2372*
X1183Y2360*
X1188Y2350*
X1194Y2340*
X1203Y2331*
X1213Y2325*
X1224Y2320*
X1235Y2318*
X1236*
Y2373*
G37*
G36*
X1734Y2325D02*
X1705D01*
Y2295*
X1713Y2297*
X1721Y2301*
X1728Y2308*
X1732Y2316*
X1734Y2325*
G37*
G36*
X1695D02*
X1665D01*
X1667Y2316*
X1671Y2308*
X1678Y2301*
X1686Y2297*
X1695Y2295*
Y2325*
G37*
G36*
X6708Y2261D02*
X6673D01*
Y2226*
X6673*
X6683Y2229*
X6692Y2234*
X6700Y2241*
X6705Y2250*
X6708Y2261*
Y2261*
G37*
G36*
X6663D02*
X6628D01*
Y2261*
X6631Y2250*
X6636Y2241*
X6643Y2234*
X6652Y2229*
X6663Y2226*
X6663*
Y2261*
G37*
G36*
X6363Y2240D02*
X6363D01*
Y2205*
X6398*
Y2205*
X6395Y2215*
X6390Y2225*
X6382Y2232*
X6373Y2237*
X6363Y2240*
G37*
G36*
X6353D02*
X6352D01*
X6342Y2237*
X6333Y2232*
X6326Y2225*
X6320Y2215*
X6318Y2205*
Y2205*
X6353*
Y2240*
G37*
G36*
X6855Y2204D02*
X6846Y2202D01*
X6838Y2198*
X6831Y2191*
X6827Y2183*
X6825Y2175*
X6855*
Y2204*
G37*
G36*
X1225Y2200D02*
X1225D01*
Y2165*
X1260*
Y2165*
X1257Y2175*
X1252Y2184*
X1244Y2192*
X1235Y2197*
X1225Y2200*
G37*
G36*
X1215D02*
X1214D01*
X1204Y2197*
X1195Y2192*
X1187Y2184*
X1182Y2175*
X1180Y2165*
Y2165*
X1215*
Y2200*
G37*
G36*
X6398Y2195D02*
X6363D01*
Y2160*
X6363*
X6373Y2163*
X6382Y2168*
X6390Y2175*
X6395Y2185*
X6398Y2195*
Y2195*
G37*
G36*
X6353D02*
X6318D01*
Y2195*
X6320Y2185*
X6326Y2175*
X6333Y2168*
X6342Y2163*
X6352Y2160*
X6353*
Y2195*
G37*
G36*
X6539Y2229D02*
X6529D01*
X6520Y2227*
X6512Y2222*
X6506Y2216*
X6501Y2208*
X6499Y2199*
Y2190*
X6501Y2181*
X6506Y2173*
X6512Y2166*
X6520Y2162*
X6529Y2159*
X6539*
X6547Y2162*
X6555Y2166*
X6562Y2173*
X6567Y2181*
X6569Y2190*
Y2199*
X6567Y2208*
X6562Y2216*
X6555Y2222*
X6547Y2227*
X6539Y2229*
G37*
G36*
X6855Y2165D02*
X6825D01*
X6827Y2156*
X6831Y2148*
X6838Y2141*
X6846Y2137*
X6855Y2135*
Y2165*
G37*
G36*
X1260Y2155D02*
X1225D01*
Y2120*
X1225*
X1235Y2122*
X1244Y2127*
X1252Y2135*
X1257Y2144*
X1260Y2154*
Y2155*
G37*
G36*
X1215D02*
X1180D01*
Y2154*
X1182Y2144*
X1187Y2135*
X1195Y2127*
X1204Y2122*
X1214Y2120*
X1215*
Y2155*
G37*
G36*
X6345Y2080D02*
X6345D01*
Y2045*
X6380*
Y2045*
X6377Y2055*
X6372Y2064*
X6364Y2072*
X6355Y2077*
X6345Y2080*
G37*
G36*
X6335D02*
X6334D01*
X6324Y2077*
X6315Y2072*
X6307Y2064*
X6302Y2055*
X6300Y2045*
Y2045*
X6335*
Y2080*
G37*
G36*
X6204Y2055D02*
X6175D01*
Y2025*
X6183Y2027*
X6191Y2031*
X6198Y2038*
X6202Y2046*
X6204Y2055*
G37*
G36*
X1225Y2080D02*
X1225D01*
Y2025*
X1280*
Y2025*
X1277Y2037*
X1273Y2048*
X1266Y2058*
X1258Y2066*
X1248Y2073*
X1237Y2077*
X1225Y2080*
G37*
G36*
X1215D02*
X1214D01*
X1202Y2077*
X1191Y2073*
X1181Y2066*
X1173Y2058*
X1166Y2048*
X1162Y2037*
X1160Y2025*
Y2025*
X1215*
Y2080*
G37*
G36*
X6380Y2035D02*
X6345D01*
Y2000*
X6345*
X6355Y2002*
X6364Y2007*
X6372Y2015*
X6377Y2024*
X6380Y2034*
Y2035*
G37*
G36*
X6335D02*
X6300D01*
Y2034*
X6302Y2024*
X6307Y2015*
X6315Y2007*
X6324Y2002*
X6334Y2000*
X6335*
Y2035*
G37*
G36*
X1280Y2015D02*
X1225D01*
Y1960*
X1225*
X1237Y1962*
X1248Y1966*
X1258Y1973*
X1266Y1981*
X1273Y1991*
X1277Y2002*
X1280Y2014*
Y2015*
G37*
G36*
X1215D02*
X1160D01*
Y2014*
X1162Y2002*
X1166Y1991*
X1173Y1981*
X1181Y1973*
X1191Y1966*
X1202Y1962*
X1214Y1960*
X1215*
Y2015*
G37*
G36*
X5824Y1965D02*
X5795D01*
Y1935*
X5803Y1937*
X5811Y1941*
X5818Y1948*
X5822Y1956*
X5824Y1965*
G37*
G36*
X5785D02*
X5755D01*
X5757Y1956*
X5761Y1948*
X5768Y1941*
X5776Y1937*
X5785Y1935*
Y1965*
G37*
G36*
X6815Y1960D02*
X6814D01*
X6804Y1957*
X6795Y1952*
X6787Y1944*
X6782Y1935*
X6780Y1925*
Y1925*
X6815*
Y1960*
G37*
G36*
X6475Y1954D02*
X6466Y1952D01*
X6458Y1948*
X6451Y1941*
X6447Y1933*
X6445Y1925*
X6475*
Y1954*
G37*
G36*
X6171Y1947D02*
Y1918D01*
X6201*
X6199Y1926*
X6194Y1934*
X6188Y1941*
X6180Y1945*
X6171Y1947*
G37*
G36*
X6475Y1915D02*
X6445D01*
X6447Y1906*
X6451Y1898*
X6458Y1891*
X6466Y1887*
X6475Y1885*
Y1915*
G37*
G36*
X6815D02*
X6780D01*
Y1914*
X6782Y1904*
X6787Y1895*
X6795Y1887*
X6804Y1882*
X6814Y1880*
X6815*
Y1915*
G37*
G36*
X6201Y1908D02*
X6171D01*
Y1878*
X6180Y1880*
X6188Y1885*
X6194Y1891*
X6199Y1899*
X6201Y1908*
G37*
G36*
X1992Y1873D02*
X1991D01*
Y1818*
X2046*
Y1819*
X2044Y1830*
X2040Y1841*
X2033Y1851*
X2025Y1859*
X2015Y1866*
X2004Y1870*
X1992Y1873*
G37*
G36*
X6639Y2048D02*
X6620D01*
X6602Y2045*
X6584Y2039*
X6567Y2031*
X6552Y2020*
X6539Y2007*
X6528Y1992*
X6520Y1975*
X6518Y1970*
X6498Y1956*
X6485Y1955*
Y1920*
Y1885*
X6493Y1887*
X6520Y1877*
X6525Y1873*
X6528Y1867*
X6539Y1852*
X6552Y1839*
X6567Y1828*
X6584Y1820*
X6602Y1814*
X6620Y1811*
X6639*
X6657Y1814*
X6675Y1820*
X6692Y1828*
X6707Y1839*
X6720Y1852*
X6731Y1867*
X6739Y1884*
X6745Y1902*
X6748Y1920*
Y1939*
X6745Y1957*
X6739Y1975*
X6731Y1992*
X6720Y2007*
X6707Y2020*
X6692Y2031*
X6675Y2039*
X6657Y2045*
X6639Y2048*
G37*
G36*
X4525Y1800D02*
X4525D01*
Y1765*
X4560*
Y1765*
X4557Y1775*
X4552Y1784*
X4544Y1792*
X4535Y1797*
X4525Y1800*
G37*
G36*
X4515D02*
X4514D01*
X4504Y1797*
X4495Y1792*
X4487Y1784*
X4482Y1775*
X4480Y1765*
Y1765*
X4515*
Y1800*
G37*
G36*
X4705Y1784D02*
X4696Y1782D01*
X4688Y1778*
X4681Y1771*
X4677Y1763*
X4675Y1755*
X4705*
Y1784*
G37*
G36*
X2046Y1808D02*
X1991D01*
Y1753*
X1992*
X2004Y1755*
X2015Y1759*
X2025Y1766*
X2033Y1774*
X2040Y1784*
X2044Y1795*
X2046Y1807*
Y1808*
G37*
G36*
X4560Y1755D02*
X4525D01*
Y1720*
X4525*
X4535Y1722*
X4544Y1727*
X4552Y1735*
X4557Y1744*
X4560Y1754*
Y1755*
G37*
G36*
X4515D02*
X4480D01*
Y1754*
X4482Y1744*
X4487Y1735*
X4495Y1727*
X4504Y1722*
X4514Y1720*
X4515*
Y1755*
G37*
G36*
X1705Y1740D02*
X1705D01*
Y1705*
X1740*
Y1705*
X1737Y1715*
X1732Y1724*
X1724Y1732*
X1715Y1737*
X1705Y1740*
G37*
G36*
X1695D02*
X1694D01*
X1684Y1737*
X1675Y1732*
X1667Y1724*
X1662Y1715*
X1660Y1705*
Y1705*
X1695*
Y1740*
G37*
G36*
X1525D02*
X1525D01*
Y1705*
X1560*
Y1705*
X1557Y1715*
X1552Y1724*
X1544Y1732*
X1535Y1737*
X1525Y1740*
G37*
G36*
X1515D02*
X1514D01*
X1504Y1737*
X1495Y1732*
X1487Y1724*
X1482Y1715*
X1480Y1705*
Y1705*
X1515*
Y1740*
G37*
G36*
X6645Y1720D02*
X6645D01*
Y1685*
X6680*
Y1685*
X6677Y1695*
X6672Y1704*
X6664Y1712*
X6655Y1717*
X6645Y1720*
G37*
G36*
X6635D02*
X6634D01*
X6624Y1717*
X6615Y1712*
X6607Y1704*
X6602Y1695*
X6600Y1685*
Y1685*
X6635*
Y1720*
G37*
G36*
X1385Y1714D02*
Y1685D01*
X1414*
X1412Y1693*
X1408Y1701*
X1401Y1708*
X1393Y1712*
X1385Y1714*
G37*
G36*
X1375D02*
X1366Y1712D01*
X1358Y1708*
X1351Y1701*
X1347Y1693*
X1345Y1685*
X1375*
Y1714*
G37*
G36*
X1740Y1695D02*
X1705D01*
Y1660*
X1705*
X1715Y1662*
X1724Y1667*
X1732Y1675*
X1737Y1684*
X1740Y1694*
Y1695*
G37*
G36*
X1695D02*
X1660D01*
Y1694*
X1662Y1684*
X1667Y1675*
X1675Y1667*
X1684Y1662*
X1694Y1660*
X1695*
Y1695*
G37*
G36*
X1560D02*
X1525D01*
Y1660*
X1525*
X1535Y1662*
X1544Y1667*
X1552Y1675*
X1557Y1684*
X1560Y1694*
Y1695*
G37*
G36*
X1515D02*
X1480D01*
Y1694*
X1482Y1684*
X1487Y1675*
X1495Y1667*
X1504Y1662*
X1514Y1660*
X1515*
Y1695*
G37*
G36*
X1414Y1675D02*
X1385D01*
Y1645*
X1393Y1647*
X1401Y1651*
X1408Y1658*
X1412Y1666*
X1414Y1675*
G37*
G36*
X1375D02*
X1345D01*
X1347Y1666*
X1351Y1658*
X1358Y1651*
X1366Y1647*
X1375Y1645*
Y1675*
G37*
G36*
X6815Y1680D02*
X6814D01*
X6804Y1677*
X6795Y1672*
X6787Y1664*
X6782Y1655*
X6780Y1645*
Y1645*
X6815*
Y1680*
G37*
G36*
X6680Y1675D02*
X6645D01*
Y1640*
X6645*
X6655Y1642*
X6664Y1647*
X6672Y1655*
X6677Y1664*
X6680Y1674*
Y1675*
G37*
G36*
X6635D02*
X6600D01*
Y1674*
X6602Y1664*
X6607Y1655*
X6615Y1647*
X6624Y1642*
X6634Y1640*
X6635*
Y1675*
G37*
G36*
X4385Y1660D02*
X4385D01*
Y1625*
X4420*
Y1625*
X4417Y1635*
X4412Y1644*
X4404Y1652*
X4395Y1657*
X4385Y1660*
G37*
G36*
X4375D02*
X4374D01*
X4364Y1657*
X4355Y1652*
X4347Y1644*
X4342Y1635*
X4340Y1625*
Y1625*
X4375*
Y1660*
G37*
G36*
X1815Y1644D02*
X1806Y1642D01*
X1798Y1638*
X1791Y1631*
X1787Y1623*
X1785Y1615*
X1815*
Y1644*
G37*
G36*
X1165Y1640D02*
X1165D01*
Y1605*
X1200*
Y1605*
X1197Y1615*
X1192Y1624*
X1184Y1632*
X1175Y1637*
X1165Y1640*
G37*
G36*
X6815Y1635D02*
X6780D01*
Y1634*
X6782Y1624*
X6787Y1615*
X6795Y1607*
X6804Y1602*
X6814Y1600*
X6815*
Y1635*
G37*
G36*
X5795Y1620D02*
X5794D01*
X5784Y1617*
X5775Y1612*
X5767Y1604*
X5762Y1595*
X5760Y1585*
Y1585*
X5795*
Y1620*
G37*
G36*
X4420Y1615D02*
X4385D01*
Y1580*
X4385*
X4395Y1582*
X4404Y1587*
X4412Y1595*
X4417Y1604*
X4420Y1614*
Y1615*
G37*
G36*
X4375D02*
X4340D01*
Y1614*
X4342Y1604*
X4347Y1595*
X4355Y1587*
X4364Y1582*
X4374Y1580*
X4375*
Y1615*
G37*
G36*
X1815Y1605D02*
X1785D01*
X1787Y1596*
X1791Y1588*
X1798Y1581*
X1806Y1577*
X1815Y1575*
Y1605*
G37*
G36*
X5145Y1600D02*
X5145D01*
Y1565*
X5180*
Y1565*
X5177Y1575*
X5172Y1584*
X5164Y1592*
X5155Y1597*
X5145Y1600*
G37*
G36*
X5135D02*
X5134D01*
X5124Y1597*
X5115Y1592*
X5107Y1584*
X5102Y1575*
X5100Y1565*
Y1565*
X5135*
Y1600*
G37*
G36*
X1200Y1595D02*
X1165D01*
Y1560*
X1165*
X1175Y1562*
X1184Y1567*
X1192Y1575*
X1197Y1584*
X1200Y1594*
Y1595*
G37*
G36*
X5795Y1575D02*
X5760D01*
Y1574*
X5762Y1564*
X5767Y1555*
X5775Y1547*
X5784Y1542*
X5794Y1540*
X5795*
Y1575*
G37*
G36*
X5180Y1555D02*
X5145D01*
Y1520*
X5145*
X5155Y1522*
X5164Y1527*
X5172Y1535*
X5177Y1544*
X5180Y1554*
Y1555*
G37*
G36*
X5135D02*
X5100D01*
Y1554*
X5102Y1544*
X5107Y1535*
X5115Y1527*
X5124Y1522*
X5134Y1520*
X5135*
Y1555*
G37*
G36*
X2025Y1540D02*
X2025D01*
Y1505*
X2060*
Y1505*
X2057Y1515*
X2052Y1524*
X2044Y1532*
X2035Y1537*
X2025Y1540*
G37*
G36*
X2015D02*
X2014D01*
X2004Y1537*
X1995Y1532*
X1987Y1524*
X1982Y1515*
X1980Y1505*
Y1505*
X2015*
Y1540*
G37*
G36*
X2060Y1495D02*
X2025D01*
Y1460*
X2025*
X2035Y1462*
X2044Y1467*
X2052Y1475*
X2057Y1484*
X2060Y1494*
Y1495*
G37*
G36*
X2015D02*
X1980D01*
Y1494*
X1982Y1484*
X1987Y1475*
X1995Y1467*
X2004Y1462*
X2014Y1460*
X2015*
Y1495*
G37*
G36*
X1605Y1474D02*
Y1445D01*
X1634*
X1632Y1453*
X1628Y1461*
X1621Y1468*
X1613Y1472*
X1605Y1474*
G37*
G36*
X1595D02*
X1586Y1472D01*
X1578Y1468*
X1571Y1461*
X1567Y1453*
X1565Y1445*
X1595*
Y1474*
G37*
G36*
X6815Y1460D02*
X6814D01*
X6804Y1457*
X6795Y1452*
X6787Y1444*
X6782Y1435*
X6780Y1425*
Y1425*
X6815*
Y1460*
G37*
G36*
X4405D02*
X4405D01*
Y1425*
X4440*
Y1425*
X4437Y1435*
X4432Y1444*
X4424Y1452*
X4415Y1457*
X4405Y1460*
G37*
G36*
X4395D02*
X4394D01*
X4384Y1457*
X4375Y1452*
X4367Y1444*
X4362Y1435*
X4360Y1425*
Y1425*
X4395*
Y1460*
G37*
G36*
X1634Y1435D02*
X1605D01*
Y1405*
X1613Y1407*
X1621Y1411*
X1628Y1418*
X1632Y1426*
X1634Y1435*
G37*
G36*
X1595D02*
X1565D01*
X1567Y1426*
X1571Y1418*
X1578Y1411*
X1586Y1407*
X1595Y1405*
Y1435*
G37*
G36*
X6815Y1415D02*
X6780D01*
Y1414*
X6782Y1404*
X6787Y1395*
X6795Y1387*
X6804Y1382*
X6814Y1380*
X6815*
Y1415*
G37*
G36*
X4440D02*
X4405D01*
Y1380*
X4405*
X4415Y1382*
X4424Y1387*
X4432Y1395*
X4437Y1404*
X4440Y1414*
Y1415*
G37*
G36*
X4395D02*
X4360D01*
Y1414*
X4362Y1404*
X4367Y1395*
X4375Y1387*
X4384Y1382*
X4394Y1380*
X4395*
Y1415*
G37*
G36*
X5805Y1400D02*
X5805D01*
Y1365*
X5840*
Y1365*
X5837Y1375*
X5832Y1384*
X5824Y1392*
X5815Y1397*
X5805Y1400*
G37*
G36*
X5795D02*
X5794D01*
X5784Y1397*
X5775Y1392*
X5767Y1384*
X5762Y1375*
X5760Y1365*
Y1365*
X5795*
Y1400*
G37*
G36*
X5065Y1380D02*
X5065D01*
Y1345*
X5100*
Y1345*
X5097Y1355*
X5092Y1364*
X5084Y1372*
X5075Y1377*
X5065Y1380*
G37*
G36*
X5055D02*
X5054D01*
X5044Y1377*
X5035Y1372*
X5027Y1364*
X5022Y1355*
X5020Y1345*
Y1345*
X5055*
Y1380*
G37*
G36*
X2025D02*
X2025D01*
Y1345*
X2060*
Y1345*
X2057Y1355*
X2052Y1364*
X2044Y1372*
X2035Y1377*
X2025Y1380*
G37*
G36*
X2015D02*
X2014D01*
X2004Y1377*
X1995Y1372*
X1987Y1364*
X1982Y1355*
X1980Y1345*
Y1345*
X2015*
Y1380*
G37*
G36*
X5840Y1355D02*
X5805D01*
Y1320*
X5805*
X5815Y1322*
X5824Y1327*
X5832Y1335*
X5837Y1344*
X5840Y1354*
Y1355*
G37*
G36*
X5795D02*
X5760D01*
Y1354*
X5762Y1344*
X5767Y1335*
X5775Y1327*
X5784Y1322*
X5794Y1320*
X5795*
Y1355*
G37*
G36*
X5100Y1335D02*
X5065D01*
Y1300*
X5065*
X5075Y1302*
X5084Y1307*
X5092Y1315*
X5097Y1324*
X5100Y1334*
Y1335*
G37*
G36*
X5055D02*
X5020D01*
Y1334*
X5022Y1324*
X5027Y1315*
X5035Y1307*
X5044Y1302*
X5054Y1300*
X5055*
Y1335*
G37*
G36*
X2060D02*
X2025D01*
Y1300*
X2025*
X2035Y1302*
X2044Y1307*
X2052Y1315*
X2057Y1324*
X2060Y1334*
Y1335*
G37*
G36*
X2015D02*
X1980D01*
Y1334*
X1982Y1324*
X1987Y1315*
X1995Y1307*
X2004Y1302*
X2014Y1300*
X2015*
Y1335*
G37*
G36*
X1675Y1314D02*
Y1285D01*
X1704*
X1702Y1293*
X1698Y1301*
X1691Y1308*
X1683Y1312*
X1675Y1314*
G37*
G36*
X1665D02*
X1656Y1312D01*
X1648Y1308*
X1641Y1301*
X1637Y1293*
X1635Y1285*
X1665*
Y1314*
G37*
G36*
X5494Y1701D02*
X5466D01*
X5437Y1697*
X5410Y1690*
X5384Y1679*
X5359Y1665*
X5336Y1647*
X5316Y1627*
X5299Y1605*
X5285Y1580*
X5274Y1554*
X5267Y1526*
X5263Y1498*
Y1470*
X5267Y1441*
X5274Y1414*
X5285Y1388*
X5299Y1363*
X5316Y1341*
X5336Y1320*
X5359Y1303*
X5384Y1289*
X5410Y1278*
X5437Y1271*
X5466Y1267*
X5494*
X5522Y1271*
X5550Y1278*
X5576Y1289*
X5600Y1303*
X5623Y1320*
X5643Y1341*
X5660Y1363*
X5675Y1388*
X5686Y1414*
X5693Y1441*
X5697Y1470*
Y1498*
X5693Y1526*
X5686Y1554*
X5675Y1580*
X5660Y1605*
X5643Y1627*
X5623Y1647*
X5600Y1665*
X5576Y1679*
X5550Y1690*
X5522Y1697*
X5494Y1701*
G37*
G36*
X2423D02*
X2395D01*
X2366Y1697*
X2339Y1690*
X2313Y1679*
X2288Y1665*
X2266Y1647*
X2245Y1627*
X2228Y1605*
X2214Y1580*
X2203Y1554*
X2196Y1526*
X2192Y1498*
Y1470*
X2196Y1441*
X2203Y1414*
X2214Y1388*
X2228Y1363*
X2245Y1341*
X2266Y1320*
X2288Y1303*
X2313Y1289*
X2339Y1278*
X2366Y1271*
X2395Y1267*
X2423*
X2451Y1271*
X2479Y1278*
X2505Y1289*
X2530Y1303*
X2552Y1320*
X2572Y1341*
X2590Y1363*
X2604Y1388*
X2615Y1414*
X2622Y1441*
X2626Y1470*
Y1498*
X2622Y1526*
X2615Y1554*
X2604Y1580*
X2590Y1605*
X2572Y1627*
X2552Y1647*
X2530Y1665*
X2505Y1679*
X2479Y1690*
X2451Y1697*
X2423Y1701*
G37*
G36*
X1704Y1275D02*
X1635D01*
X1637Y1266*
X1641Y1258*
X1648Y1251*
X1649Y1251*
X1652Y1240*
Y1229*
X1649Y1218*
X1648Y1218*
X1641Y1211*
X1637Y1203*
X1635Y1195*
X1704*
X1702Y1203*
X1698Y1211*
X1691Y1218*
X1690Y1218*
X1688Y1229*
Y1240*
X1690Y1251*
X1691Y1251*
X1698Y1258*
X1702Y1266*
X1704Y1275*
G37*
G36*
X6545Y1200D02*
X6545D01*
Y1165*
X6580*
Y1165*
X6577Y1175*
X6572Y1184*
X6564Y1192*
X6555Y1197*
X6545Y1200*
G37*
G36*
X6535D02*
X6534D01*
X6524Y1197*
X6515Y1192*
X6507Y1184*
X6502Y1175*
X6500Y1165*
Y1165*
X6535*
Y1200*
G37*
G36*
X6305D02*
X6305D01*
Y1165*
X6340*
Y1165*
X6337Y1175*
X6332Y1184*
X6324Y1192*
X6315Y1197*
X6305Y1200*
G37*
G36*
X6295D02*
X6294D01*
X6284Y1197*
X6275Y1192*
X6267Y1184*
X6262Y1175*
X6260Y1165*
Y1165*
X6295*
Y1200*
G37*
G36*
X6045D02*
X6045D01*
Y1165*
X6080*
Y1165*
X6077Y1175*
X6072Y1184*
X6064Y1192*
X6055Y1197*
X6045Y1200*
G37*
G36*
X6035D02*
X6034D01*
X6024Y1197*
X6015Y1192*
X6007Y1184*
X6002Y1175*
X6000Y1165*
Y1165*
X6035*
Y1200*
G37*
G36*
X5805D02*
X5805D01*
Y1165*
X5840*
Y1165*
X5837Y1175*
X5832Y1184*
X5824Y1192*
X5815Y1197*
X5805Y1200*
G37*
G36*
X5795D02*
X5794D01*
X5784Y1197*
X5775Y1192*
X5767Y1184*
X5762Y1175*
X5760Y1165*
Y1165*
X5795*
Y1200*
G37*
G36*
X5565D02*
X5565D01*
Y1165*
X5600*
Y1165*
X5597Y1175*
X5592Y1184*
X5584Y1192*
X5575Y1197*
X5565Y1200*
G37*
G36*
X5555D02*
X5554D01*
X5544Y1197*
X5535Y1192*
X5527Y1184*
X5522Y1175*
X5520Y1165*
Y1165*
X5555*
Y1200*
G37*
G36*
X5285D02*
X5285D01*
Y1165*
X5320*
Y1165*
X5317Y1175*
X5312Y1184*
X5304Y1192*
X5295Y1197*
X5285Y1200*
G37*
G36*
X5275D02*
X5274D01*
X5264Y1197*
X5255Y1192*
X5247Y1184*
X5242Y1175*
X5240Y1165*
Y1165*
X5275*
Y1200*
G37*
G36*
X5025D02*
X5025D01*
Y1165*
X5060*
Y1165*
X5057Y1175*
X5052Y1184*
X5044Y1192*
X5035Y1197*
X5025Y1200*
G37*
G36*
X5015D02*
X5014D01*
X5004Y1197*
X4995Y1192*
X4987Y1184*
X4982Y1175*
X4980Y1165*
Y1165*
X5015*
Y1200*
G37*
G36*
X4785D02*
X4785D01*
Y1165*
X4820*
Y1165*
X4817Y1175*
X4812Y1184*
X4804Y1192*
X4795Y1197*
X4785Y1200*
G37*
G36*
X4775D02*
X4774D01*
X4764Y1197*
X4755Y1192*
X4747Y1184*
X4742Y1175*
X4740Y1165*
Y1165*
X4775*
Y1200*
G37*
G36*
X4525D02*
X4525D01*
Y1165*
X4560*
Y1165*
X4557Y1175*
X4552Y1184*
X4544Y1192*
X4535Y1197*
X4525Y1200*
G37*
G36*
X4515D02*
X4514D01*
X4504Y1197*
X4495Y1192*
X4487Y1184*
X4482Y1175*
X4480Y1165*
Y1165*
X4515*
Y1200*
G37*
G36*
X4245D02*
X4245D01*
Y1165*
X4280*
Y1165*
X4277Y1175*
X4272Y1184*
X4264Y1192*
X4255Y1197*
X4245Y1200*
G37*
G36*
X4235D02*
X4234D01*
X4224Y1197*
X4215Y1192*
X4207Y1184*
X4202Y1175*
X4200Y1165*
Y1165*
X4235*
Y1200*
G37*
G36*
X3985D02*
X3985D01*
Y1165*
X4020*
Y1165*
X4017Y1175*
X4012Y1184*
X4004Y1192*
X3995Y1197*
X3985Y1200*
G37*
G36*
X3975D02*
X3974D01*
X3964Y1197*
X3955Y1192*
X3947Y1184*
X3942Y1175*
X3940Y1165*
Y1165*
X3975*
Y1200*
G37*
G36*
X3705D02*
X3705D01*
Y1165*
X3740*
Y1165*
X3737Y1175*
X3732Y1184*
X3724Y1192*
X3715Y1197*
X3705Y1200*
G37*
G36*
X3695D02*
X3694D01*
X3684Y1197*
X3675Y1192*
X3667Y1184*
X3662Y1175*
X3660Y1165*
Y1165*
X3695*
Y1200*
G37*
G36*
X3425D02*
X3425D01*
Y1165*
X3460*
Y1165*
X3457Y1175*
X3452Y1184*
X3444Y1192*
X3435Y1197*
X3425Y1200*
G37*
G36*
X3415D02*
X3414D01*
X3404Y1197*
X3395Y1192*
X3387Y1184*
X3382Y1175*
X3380Y1165*
Y1165*
X3415*
Y1200*
G37*
G36*
X3145D02*
X3145D01*
Y1165*
X3180*
Y1165*
X3177Y1175*
X3172Y1184*
X3164Y1192*
X3155Y1197*
X3145Y1200*
G37*
G36*
X3135D02*
X3134D01*
X3124Y1197*
X3115Y1192*
X3107Y1184*
X3102Y1175*
X3100Y1165*
Y1165*
X3135*
Y1200*
G37*
G36*
X2865D02*
X2865D01*
Y1165*
X2900*
Y1165*
X2897Y1175*
X2892Y1184*
X2884Y1192*
X2875Y1197*
X2865Y1200*
G37*
G36*
X2855D02*
X2854D01*
X2844Y1197*
X2835Y1192*
X2827Y1184*
X2822Y1175*
X2820Y1165*
Y1165*
X2855*
Y1200*
G37*
G36*
X2605D02*
X2605D01*
Y1165*
X2640*
Y1165*
X2637Y1175*
X2632Y1184*
X2624Y1192*
X2615Y1197*
X2605Y1200*
G37*
G36*
X2595D02*
X2594D01*
X2584Y1197*
X2575Y1192*
X2567Y1184*
X2562Y1175*
X2560Y1165*
Y1165*
X2595*
Y1200*
G37*
G36*
X2385D02*
X2385D01*
Y1165*
X2420*
Y1165*
X2417Y1175*
X2412Y1184*
X2404Y1192*
X2395Y1197*
X2385Y1200*
G37*
G36*
X2375D02*
X2374D01*
X2364Y1197*
X2355Y1192*
X2347Y1184*
X2342Y1175*
X2340Y1165*
Y1165*
X2375*
Y1200*
G37*
G36*
X2185D02*
X2185D01*
Y1165*
X2220*
Y1165*
X2217Y1175*
X2212Y1184*
X2204Y1192*
X2195Y1197*
X2185Y1200*
G37*
G36*
X2175D02*
X2174D01*
X2164Y1197*
X2155Y1192*
X2147Y1184*
X2142Y1175*
X2140Y1165*
Y1165*
X2175*
Y1200*
G37*
G36*
X1704Y1185D02*
X1675D01*
Y1155*
X1683Y1157*
X1691Y1161*
X1698Y1168*
X1702Y1176*
X1704Y1185*
G37*
G36*
X1665D02*
X1635D01*
X1637Y1176*
X1641Y1168*
X1648Y1161*
X1656Y1157*
X1665Y1155*
Y1185*
G37*
G36*
X6580Y1155D02*
X6545D01*
Y1120*
X6545*
X6555Y1122*
X6564Y1127*
X6572Y1135*
X6577Y1144*
X6580Y1154*
Y1155*
G37*
G36*
X6535D02*
X6500D01*
Y1154*
X6502Y1144*
X6507Y1135*
X6515Y1127*
X6524Y1122*
X6534Y1120*
X6535*
Y1155*
G37*
G36*
X6340D02*
X6305D01*
Y1120*
X6305*
X6315Y1122*
X6324Y1127*
X6332Y1135*
X6337Y1144*
X6340Y1154*
Y1155*
G37*
G36*
X6295D02*
X6260D01*
Y1154*
X6262Y1144*
X6267Y1135*
X6275Y1127*
X6284Y1122*
X6294Y1120*
X6295*
Y1155*
G37*
G36*
X6080D02*
X6045D01*
Y1120*
X6045*
X6055Y1122*
X6064Y1127*
X6072Y1135*
X6077Y1144*
X6080Y1154*
Y1155*
G37*
G36*
X6035D02*
X6000D01*
Y1154*
X6002Y1144*
X6007Y1135*
X6015Y1127*
X6024Y1122*
X6034Y1120*
X6035*
Y1155*
G37*
G36*
X5840D02*
X5805D01*
Y1120*
X5805*
X5815Y1122*
X5824Y1127*
X5832Y1135*
X5837Y1144*
X5840Y1154*
Y1155*
G37*
G36*
X5795D02*
X5760D01*
Y1154*
X5762Y1144*
X5767Y1135*
X5775Y1127*
X5784Y1122*
X5794Y1120*
X5795*
Y1155*
G37*
G36*
X5600D02*
X5565D01*
Y1120*
X5565*
X5575Y1122*
X5584Y1127*
X5592Y1135*
X5597Y1144*
X5600Y1154*
Y1155*
G37*
G36*
X5555D02*
X5520D01*
Y1154*
X5522Y1144*
X5527Y1135*
X5535Y1127*
X5544Y1122*
X5554Y1120*
X5555*
Y1155*
G37*
G36*
X5320D02*
X5285D01*
Y1120*
X5285*
X5295Y1122*
X5304Y1127*
X5312Y1135*
X5317Y1144*
X5320Y1154*
Y1155*
G37*
G36*
X5275D02*
X5240D01*
Y1154*
X5242Y1144*
X5247Y1135*
X5255Y1127*
X5264Y1122*
X5274Y1120*
X5275*
Y1155*
G37*
G36*
X5060D02*
X5025D01*
Y1120*
X5025*
X5035Y1122*
X5044Y1127*
X5052Y1135*
X5057Y1144*
X5060Y1154*
Y1155*
G37*
G36*
X5015D02*
X4980D01*
Y1154*
X4982Y1144*
X4987Y1135*
X4995Y1127*
X5004Y1122*
X5014Y1120*
X5015*
Y1155*
G37*
G36*
X4820D02*
X4785D01*
Y1120*
X4785*
X4795Y1122*
X4804Y1127*
X4812Y1135*
X4817Y1144*
X4820Y1154*
Y1155*
G37*
G36*
X4775D02*
X4740D01*
Y1154*
X4742Y1144*
X4747Y1135*
X4755Y1127*
X4764Y1122*
X4774Y1120*
X4775*
Y1155*
G37*
G36*
X4560D02*
X4525D01*
Y1120*
X4525*
X4535Y1122*
X4544Y1127*
X4552Y1135*
X4557Y1144*
X4560Y1154*
Y1155*
G37*
G36*
X4515D02*
X4480D01*
Y1154*
X4482Y1144*
X4487Y1135*
X4495Y1127*
X4504Y1122*
X4514Y1120*
X4515*
Y1155*
G37*
G36*
X4280D02*
X4245D01*
Y1120*
X4245*
X4255Y1122*
X4264Y1127*
X4272Y1135*
X4277Y1144*
X4280Y1154*
Y1155*
G37*
G36*
X4235D02*
X4200D01*
Y1154*
X4202Y1144*
X4207Y1135*
X4215Y1127*
X4224Y1122*
X4234Y1120*
X4235*
Y1155*
G37*
G36*
X4020D02*
X3985D01*
Y1120*
X3985*
X3995Y1122*
X4004Y1127*
X4012Y1135*
X4017Y1144*
X4020Y1154*
Y1155*
G37*
G36*
X3975D02*
X3940D01*
Y1154*
X3942Y1144*
X3947Y1135*
X3955Y1127*
X3964Y1122*
X3974Y1120*
X3975*
Y1155*
G37*
G36*
X3740D02*
X3705D01*
Y1120*
X3705*
X3715Y1122*
X3724Y1127*
X3732Y1135*
X3737Y1144*
X3740Y1154*
Y1155*
G37*
G36*
X3695D02*
X3660D01*
Y1154*
X3662Y1144*
X3667Y1135*
X3675Y1127*
X3684Y1122*
X3694Y1120*
X3695*
Y1155*
G37*
G36*
X3460D02*
X3425D01*
Y1120*
X3425*
X3435Y1122*
X3444Y1127*
X3452Y1135*
X3457Y1144*
X3460Y1154*
Y1155*
G37*
G36*
X3415D02*
X3380D01*
Y1154*
X3382Y1144*
X3387Y1135*
X3395Y1127*
X3404Y1122*
X3414Y1120*
X3415*
Y1155*
G37*
G36*
X3180D02*
X3145D01*
Y1120*
X3145*
X3155Y1122*
X3164Y1127*
X3172Y1135*
X3177Y1144*
X3180Y1154*
Y1155*
G37*
G36*
X3135D02*
X3100D01*
Y1154*
X3102Y1144*
X3107Y1135*
X3115Y1127*
X3124Y1122*
X3134Y1120*
X3135*
Y1155*
G37*
G36*
X2900D02*
X2865D01*
Y1120*
X2865*
X2875Y1122*
X2884Y1127*
X2892Y1135*
X2897Y1144*
X2900Y1154*
Y1155*
G37*
G36*
X2855D02*
X2820D01*
Y1154*
X2822Y1144*
X2827Y1135*
X2835Y1127*
X2844Y1122*
X2854Y1120*
X2855*
Y1155*
G37*
G36*
X2640D02*
X2605D01*
Y1120*
X2605*
X2615Y1122*
X2624Y1127*
X2632Y1135*
X2637Y1144*
X2640Y1154*
Y1155*
G37*
G36*
X2595D02*
X2560D01*
Y1154*
X2562Y1144*
X2567Y1135*
X2575Y1127*
X2584Y1122*
X2594Y1120*
X2595*
Y1155*
G37*
G36*
X2420D02*
X2385D01*
Y1120*
X2385*
X2395Y1122*
X2404Y1127*
X2412Y1135*
X2417Y1144*
X2420Y1154*
Y1155*
G37*
G36*
X2375D02*
X2340D01*
Y1154*
X2342Y1144*
X2347Y1135*
X2355Y1127*
X2364Y1122*
X2374Y1120*
X2375*
Y1155*
G37*
G36*
X2220D02*
X2185D01*
Y1120*
X2185*
X2195Y1122*
X2204Y1127*
X2212Y1135*
X2217Y1144*
X2220Y1154*
Y1155*
G37*
G36*
X2175D02*
X2140D01*
Y1154*
X2142Y1144*
X2147Y1135*
X2155Y1127*
X2164Y1122*
X2174Y1120*
X2175*
Y1155*
G37*
G36*
X6237Y3645D02*
Y3615D01*
X6267*
X6265Y3624*
X6260Y3632*
X6253Y3639*
X6245Y3643*
X6237Y3645*
G37*
G36*
X6267Y3605D02*
X6237D01*
Y3576*
X6245Y3578*
X6253Y3582*
X6260Y3589*
X6265Y3597*
X6267Y3605*
G37*
G36*
X5625Y3274D02*
Y3245D01*
X5654*
X5652Y3253*
X5648Y3261*
X5641Y3268*
X5633Y3272*
X5625Y3274*
G37*
G36*
X5695Y3114D02*
Y3085D01*
X5724*
X5722Y3093*
X5718Y3101*
X5711Y3108*
X5703Y3112*
X5695Y3114*
G37*
G36*
X5225Y2644D02*
Y2615D01*
X5254*
X5252Y2623*
X5248Y2631*
X5241Y2638*
X5233Y2642*
X5225Y2644*
G37*
G36*
X5215D02*
X5206Y2642D01*
X5198Y2638*
X5191Y2631*
X5187Y2623*
X5185Y2615*
X5215*
Y2644*
G37*
G36*
X5254Y2605D02*
X5225D01*
Y2575*
X5233Y2577*
X5241Y2581*
X5248Y2588*
X5252Y2596*
X5254Y2605*
G37*
G36*
X5215D02*
X5185D01*
X5187Y2596*
X5191Y2588*
X5198Y2581*
X5206Y2577*
X5215Y2575*
Y2605*
G37*
G36*
X6035Y2549D02*
Y2520D01*
X6064*
X6062Y2528*
X6058Y2536*
X6051Y2543*
X6043Y2547*
X6035Y2549*
G37*
G36*
X6025D02*
X6016Y2547D01*
X6008Y2543*
X6001Y2536*
X5997Y2528*
X5995Y2520*
X6025*
Y2549*
G37*
G36*
X6064Y2510D02*
X6035D01*
Y2480*
X6043Y2482*
X6051Y2486*
X6058Y2493*
X6062Y2501*
X6064Y2510*
G37*
G36*
X6025D02*
X5995D01*
X5997Y2501*
X6001Y2493*
X6008Y2486*
X6016Y2482*
X6025Y2480*
Y2510*
G37*
G36*
X2125Y2300D02*
X2125D01*
Y2245*
X2180*
Y2245*
X2177Y2257*
X2173Y2268*
X2166Y2278*
X2158Y2286*
X2148Y2293*
X2137Y2297*
X2125Y2300*
G37*
G36*
X2180Y2235D02*
X2125D01*
Y2180*
X2125*
X2137Y2182*
X2148Y2186*
X2158Y2193*
X2166Y2201*
X2173Y2211*
X2177Y2222*
X2180Y2234*
Y2235*
G37*
G36*
X6053Y2163D02*
Y2133D01*
X6083*
X6080Y2141*
X6076Y2149*
X6069Y2156*
X6061Y2160*
X6053Y2163*
G37*
G36*
X6043D02*
X6034Y2160D01*
X6026Y2156*
X6020Y2149*
X6015Y2141*
X6013Y2133*
X6043*
Y2163*
G37*
G36*
X6083Y2123D02*
X6053D01*
Y2093*
X6061Y2095*
X6069Y2100*
X6076Y2106*
X6080Y2114*
X6083Y2123*
G37*
G36*
X6043D02*
X6013D01*
X6015Y2114*
X6020Y2106*
X6026Y2100*
X6034Y2095*
X6043Y2093*
Y2123*
G37*
G36*
X4885Y1754D02*
X4876Y1752D01*
X4868Y1748*
X4861Y1741*
X4857Y1733*
X4855Y1733*
X4852Y1733*
X4848Y1741*
X4841Y1748*
X4833Y1752*
X4825Y1754*
Y1720*
Y1685*
X4833Y1687*
X4841Y1691*
X4848Y1698*
X4852Y1706*
X4855Y1706*
X4857Y1706*
X4861Y1698*
X4868Y1691*
X4876Y1687*
X4885Y1685*
Y1720*
Y1754*
G37*
G36*
X4895D02*
Y1725D01*
X4924*
X4922Y1733*
X4918Y1741*
X4911Y1748*
X4903Y1752*
X4895Y1754*
G37*
G36*
X4924Y1715D02*
X4895D01*
Y1685*
X4903Y1687*
X4911Y1691*
X4918Y1698*
X4922Y1706*
X4924Y1715*
G37*
G36*
X4676Y1613D02*
X4646D01*
Y1583*
X4655Y1585*
X4663Y1590*
X4669Y1596*
X4674Y1604*
X4676Y1613*
G37*
G36*
X4636D02*
X4606D01*
X4609Y1604*
X4613Y1596*
X4620Y1590*
X4628Y1585*
X4636Y1583*
Y1613*
G37*
G36*
X4587Y1567D02*
Y1537D01*
X4617*
X4615Y1545*
X4610Y1553*
X4603Y1560*
X4595Y1565*
X4587Y1567*
G37*
G36*
X4577D02*
X4568Y1565D01*
X4560Y1560*
X4554Y1553*
X4549Y1545*
X4547Y1537*
X4577*
Y1567*
G37*
G36*
X4617Y1527D02*
X4587D01*
Y1497*
X4595Y1499*
X4603Y1504*
X4610Y1510*
X4615Y1518*
X4617Y1527*
G37*
G36*
X4577D02*
X4547D01*
X4549Y1518*
X4554Y1510*
X4560Y1504*
X4568Y1499*
X4577Y1497*
Y1527*
G37*
G36*
X6008Y1511D02*
Y1481D01*
X6037*
X6035Y1490*
X6031Y1498*
X6024Y1504*
X6016Y1509*
X6008Y1511*
G37*
G36*
X5998D02*
X5989Y1509D01*
X5981Y1504*
X5975Y1498*
X5970Y1490*
X5968Y1481*
X5998*
Y1511*
G37*
G36*
X6037Y1471D02*
X6008D01*
Y1442*
X6016Y1444*
X6024Y1448*
X6031Y1455*
X6035Y1463*
X6037Y1471*
G37*
G36*
X5998D02*
X5968D01*
X5970Y1463*
X5975Y1455*
X5981Y1448*
X5989Y1444*
X5998Y1442*
Y1471*
G37*
G36*
X4715Y1424D02*
Y1395D01*
X4744*
X4742Y1403*
X4738Y1411*
X4731Y1418*
X4723Y1422*
X4715Y1424*
G37*
G36*
X4705D02*
X4696Y1422D01*
X4688Y1418*
X4681Y1411*
X4677Y1403*
X4675Y1395*
X4705*
Y1424*
G37*
G36*
X4744Y1385D02*
X4715D01*
Y1355*
X4723Y1357*
X4731Y1361*
X4738Y1368*
X4742Y1376*
X4744Y1385*
G37*
G36*
X4705D02*
X4675D01*
X4677Y1376*
X4681Y1368*
X4688Y1361*
X4696Y1357*
X4705Y1355*
Y1385*
G37*
%LNpcb1-3*%
%LPD*%
G54D44*
X4010Y3750D03*
G54D45*
X3849Y3750D03*
G54D48*
X6810Y2380D03*
G54D49*
X6810Y2480D03*
Y2580D03*
X6710Y2380D03*
Y2480D03*
Y2580D03*
G54D53*
X1721Y3969D03*
X1931D03*
G54D54*
X1721Y3870D03*
X1931D03*
G54D60*
X4560Y2785D03*
Y3000D03*
G54D61*
X4560Y3214D03*
G54D62*
X6030Y2440D02*
Y2515D01*
X6048Y2128D02*
Y2422D01*
X6030Y2440D02*
X6048Y2422D01*
X2030Y3400D02*
X2720Y4090D01*
X4710*
X5220Y2110D02*
X6030D01*
X6048Y2128*
X2860Y2110D02*
X5220D01*
X2120Y2240D02*
X2730D01*
X2860Y2110*
X4619Y4809D02*
X4710Y4719D01*
Y4090D02*
Y4719D01*
X5220Y2110D02*
Y2610D01*
G54D64*
X1890Y2330D02*
X3410Y3850D01*
X1890Y1580D02*
X1910Y1560D01*
X1890Y1580D02*
Y2330D01*
X5705Y3080D02*
X5915Y2870D01*
X5690Y3080D02*
X5705D01*
X5915Y2855D02*
X6030Y2740D01*
X5915Y2855D02*
Y2870D01*
X5640Y3390D02*
X5840D01*
X5110Y3920D02*
X5640Y3390D01*
X3840Y3920D02*
X5110D01*
X5930Y3230D02*
Y3300D01*
X5840Y3390D02*
X5930Y3300D01*
X5690Y3080D02*
Y3170D01*
X5620Y3240D02*
X5690Y3170D01*
X6460Y2480D02*
X6710D01*
X6030Y2440D02*
X6420D01*
X6460Y2480*
X6003Y2113D02*
X6018Y2128D01*
X6003Y1476D02*
Y2113D01*
X6018Y2128D02*
X6048D01*
X6050Y1430D02*
X6400D01*
X6003Y1476D02*
X6050Y1430D01*
X6400D02*
X6480Y1510D01*
X3410Y3850D02*
X3770D01*
X5030Y3770D02*
X5108Y3691D01*
Y3128D02*
Y3691D01*
X3770Y3850D02*
X3840Y3920D01*
X4890Y1720D02*
Y2080D01*
X4582Y1559D02*
X4641Y1618D01*
X4582Y1532D02*
Y1559D01*
Y1517D02*
Y1532D01*
Y1517D02*
X4710Y1390D01*
X4718Y1618D02*
X4820Y1720D01*
X4641Y1618D02*
X4718D01*
X4820Y1720D02*
X4890D01*
G54D72*
X1390Y2630D03*
Y2730D03*
Y2830D03*
G54D74*
X2409Y4555D03*
Y1484D03*
X5480Y4555D03*
Y1484D03*
G54D75*
X6630Y3080D03*
Y4245D03*
X1350Y4490D03*
G54D76*
X6630Y3330D03*
Y4495D03*
X1350Y4240D03*
G54D78*
X6332Y4882D03*
X6147Y4429D03*
Y4153D03*
Y4882D03*
G54D79*
X6278Y1778D03*
X6378Y1628D03*
X6278Y1678D03*
X6378Y1728D03*
Y1828D03*
X6278Y1878D03*
X6378Y1528D03*
X6278Y1578D03*
G54D80*
X6630Y1930D03*
X6635Y1480D03*
X6785Y1200D03*
Y4822D03*
X1195Y1200D03*
Y4822D03*
G54D81*
X1300Y3264D03*
Y3855D03*
G54D82*
X2520Y4160D03*
X2000Y4440D03*
X2280Y4140D03*
X2040Y3760D03*
X1600D03*
X1814Y3780D03*
X1820Y3240D03*
X1760Y2920D03*
X1660Y2420D03*
X1780Y2440D03*
X1720Y2700D03*
X1940Y2720D03*
X2200Y2880D03*
X2100Y2780D03*
X2160Y3040D03*
Y3220D03*
X2000Y2940D03*
X1840Y2820D03*
X6668Y2266D03*
X6358Y2200D03*
X6640Y1680D03*
X6340Y2040D03*
X5800Y1360D03*
Y1580D03*
X4400Y1420D03*
X4380Y1620D03*
X4520Y1760D03*
X5060Y1340D03*
X5140Y1560D03*
X3480Y3740D03*
X3220Y3540D03*
X3200Y3180D03*
Y2860D03*
Y2600D03*
X6820Y1920D03*
Y1640D03*
Y1420D03*
X6540Y1160D03*
X6300D03*
X6040D03*
X5800D03*
X5560D03*
X5280D03*
X5020D03*
X4780D03*
X4520D03*
X4240D03*
X3980D03*
X3700D03*
X3420D03*
X3140D03*
X2860D03*
X2600D03*
X2380D03*
X2180D03*
X2020Y1500D03*
Y1340D03*
X1700Y1700D03*
X1520D03*
X1160Y1600D03*
X1220Y2160D03*
X1240Y2520D03*
X1160Y2740D03*
Y2960D03*
Y3180D03*
Y3440D03*
Y3680D03*
Y3920D03*
Y4160D03*
Y4400D03*
Y4600D03*
X1380Y4800D03*
X1600D03*
X1880D03*
X2140D03*
X2580D03*
X2900D03*
X3160D03*
X3440D03*
X3720D03*
X4040D03*
X4360D03*
X5140Y4320D03*
X4840Y4280D03*
X5020Y4100D03*
X5220Y4000D03*
X5320Y4120D03*
X5440Y4260D03*
X5280Y4720D03*
X5780Y4500D03*
X6520Y4760D03*
X6420Y4480D03*
X6760D03*
X6780Y4240D03*
X6180Y4000D03*
X6520Y3980D03*
X6780D03*
X6660Y3800D03*
X6360Y3500D03*
X6160Y3440D03*
X6020Y3340D03*
X6120Y3180D03*
X6460D03*
X6780Y3280D03*
Y3080D03*
X6360Y2840D03*
X6560Y2640D03*
X5620Y2500D03*
X5340Y2720D03*
X4980Y2520D03*
Y2760D03*
X4780Y2640D03*
X4400Y3000D03*
Y3220D03*
X4700Y3400D03*
X4500D03*
Y3640D03*
X4820D03*
X6010Y4610D03*
G54D83*
X5750Y2770D03*
X5885Y2780D03*
X4950Y1560D03*
X5000Y1490D03*
X6060Y2980D03*
X6169Y3010D03*
X5800Y2310D03*
X5865Y2405D03*
X5740Y2490D03*
X5785Y2830D03*
X5865Y2850D03*
X5910Y2740D03*
X5860Y2706D03*
X5990Y3600D03*
X5910Y3990D03*
X5900Y2310D03*
X5460Y3490D03*
X2628Y2851D03*
X5790Y2510D03*
X6030Y3560D03*
X5420Y3230D03*
X5310Y3260D03*
X6260Y2760D03*
X5540Y2920D03*
X5901Y2671D03*
X6534Y2194D03*
X6016Y2907D03*
X5280Y2950D03*
X5995Y3955D03*
G54D84*
X1986Y1813D03*
X1220Y2020D03*
X2030Y3400D03*
X2120Y2240D03*
X4687Y2337D03*
X1241Y2378D03*
X1690Y2560D03*
X1970Y3130D03*
X1750Y4670D03*
G54D85*
X5870Y3260D03*
X6030Y2515D03*
X5790Y1970D03*
X6060Y3970D03*
X4820Y3300D03*
X4770Y2880D03*
X1670Y1190D03*
Y1280D03*
X1550Y2710D03*
X1640Y2830D03*
X5640Y3510D03*
X5940Y3460D03*
X5600Y3120D03*
X6480Y1510D03*
X1910Y1560D03*
X1820Y1610D03*
X2390Y3070D03*
X4619Y4809D03*
X4710Y4090D03*
X5030Y3770D03*
X5108Y3128D03*
X3770Y3850D03*
X5930Y3230D03*
X6232Y3610D03*
X5620Y3240D03*
X5220Y2610D03*
X6003Y1476D03*
X6048Y2128D03*
X4890Y1720D03*
X4820D03*
X4641Y1618D03*
X4582Y1532D03*
X4710Y1390D03*
X5690Y3080D03*
X4710Y1750D03*
X4950Y1440D03*
X6170Y2060D03*
X6166Y1913D03*
X4080Y3850D03*
X6020Y3060D03*
X6010Y3150D03*
X6160Y2570D03*
X5200Y3080D03*
X5230Y3200D03*
X4990Y3410D03*
X4690Y3520D03*
X4180Y4660D03*
X5760Y3750D03*
Y3670D03*
X5941Y4891D03*
X6310Y3900D03*
X6793Y3463D03*
X6420Y2970D03*
X6793Y2926D03*
X6860Y2170D03*
X6480Y1920D03*
X1600Y1440D03*
X1380Y1680D03*
X1700Y2330D03*
X2110Y4110D03*
G54D86*
X6030Y2515D02*
Y2740D01*
X6232Y2942*
Y3610*
M02*