%FSLAX23Y23*%
%MOIN*%
%SFA1B1*%

%IPPOS*%
%ADD13C,0.007870*%
%ADD15C,0.005000*%
%ADD114C,0.003940*%
%LNpcb1-1*%
%LPD*%
G54D13*
X6336Y4954D02*
D01*
D01*
G75*
G03X6328I-3J0D01*
G74*G01*
D01*
G75*
G03X6336I3J0D01*
G74*G01*
X1206Y2146D02*
Y2413D01*
Y2146D02*
X1473D01*
Y2413*
X1206D02*
X1473D01*
X1572Y3396D02*
Y3583D01*
X1727*
Y3396D02*
Y3583D01*
X1572Y3396D02*
X1727D01*
X1528Y1611D02*
X1681D01*
Y1418D02*
Y1611D01*
X1528Y1418D02*
X1681D01*
X1528D02*
Y1611D01*
X1837Y2108D02*
Y2371D01*
Y2108D02*
X1982D01*
Y2371*
X1837D02*
X1982D01*
X5973Y2071D02*
Y2228D01*
X5776Y2071D02*
X5973D01*
X5776D02*
Y2228D01*
X5973*
X1762Y3396D02*
Y3583D01*
X1917*
Y3396D02*
Y3583D01*
X1762Y3396D02*
X1917D01*
X6012Y1920D02*
X6167D01*
X6012Y1739D02*
Y1920D01*
Y1739D02*
X6167D01*
Y1920*
X6656Y2320D02*
Y2639D01*
X6863*
Y2320D02*
Y2639D01*
X6656Y2320D02*
X6863D01*
X1766Y2426D02*
Y2693D01*
Y2426D02*
X2033D01*
Y2693*
X1766D02*
X2033D01*
X1784Y3772D02*
Y4067D01*
X1635Y3772D02*
X1784D01*
X1635D02*
Y4067D01*
X1784*
X6167Y1469D02*
Y1650D01*
X6012Y1469D02*
X6167D01*
X6012D02*
Y1650D01*
X6167*
X6619Y3657D02*
X6800D01*
Y3502D02*
Y3657D01*
X6619Y3502D02*
X6800D01*
X6619D02*
Y3657D01*
X2022Y1776D02*
Y2043D01*
X1754D02*
X2022D01*
X1754Y1776D02*
Y2043D01*
Y1776D02*
X2022D01*
X1574Y2820D02*
Y2899D01*
X1525Y2820D02*
X1574D01*
X1525D02*
Y2899D01*
X1574*
X6259Y3875D02*
Y3924D01*
X6180D02*
X6259D01*
X6180Y3875D02*
Y3924D01*
Y3875D02*
X6259D01*
X6619Y2897D02*
X6800D01*
Y2742D02*
Y2897D01*
X6619Y2742D02*
X6800D01*
X6619D02*
Y2897D01*
X5900Y4035D02*
X5979D01*
X5900D02*
Y4084D01*
X5979*
Y4035D02*
Y4084D01*
X1525Y2570D02*
Y2649D01*
X1574*
Y2570D02*
Y2649D01*
X1525Y2570D02*
X1574D01*
X1994Y3772D02*
Y4067D01*
X1845Y3772D02*
X1994D01*
X1845D02*
Y4067D01*
X1994*
X1172Y1742D02*
Y2077D01*
Y1742D02*
X1507D01*
Y2077*
X1172D02*
X1507D01*
X1582Y4547D02*
X1917D01*
X1582Y4212D02*
Y4547D01*
Y4212D02*
X1917D01*
Y4547*
X6040Y2084D02*
X6119D01*
Y2035D02*
Y2084D01*
X6040Y2035D02*
X6119D01*
X6040D02*
Y2084D01*
X1892Y2996D02*
Y3263D01*
X1624D02*
X1892D01*
X1624Y2996D02*
Y3263D01*
Y2996D02*
X1892D01*
G54D15*
X1473Y2495D02*
Y2965D01*
X1120Y2495D02*
X1473D01*
X1120D02*
Y2965D01*
X1473*
X6377Y4116D02*
Y4923D01*
X6102Y4116D02*
X6377D01*
X6102D02*
Y4923D01*
X6377*
G54D114*
X5976Y3736D02*
D01*
D01*
G75*
G03X5937I-19J0D01*
G74*G01*
D01*
G75*
G03X5976I19J0D01*
G74*G01*
X1730Y1165D02*
Y1214D01*
X1809*
Y1165D02*
Y1214D01*
X1779Y1165D02*
X1809D01*
X1730D02*
X1809D01*
X1599Y1255D02*
Y1304D01*
X1520Y1255D02*
X1599D01*
X1520D02*
Y1304D01*
X1550*
X1520D02*
X1599D01*
X6798Y2145D02*
Y2194D01*
X6719Y2145D02*
X6798D01*
X6719D02*
Y2194D01*
X6748*
X6719D02*
X6798D01*
X5981Y4753D02*
X6038D01*
X5981Y4666D02*
X6038D01*
Y4753*
X5981Y4666D02*
Y4753D01*
X6028Y4146D02*
Y4233D01*
X5971Y4146D02*
Y4233D01*
X6028*
X5971Y4146D02*
X6028D01*
X6156Y3721D02*
Y3778D01*
X6243Y3721D02*
Y3778D01*
X6156D02*
X6243D01*
X6156Y3721D02*
X6243D01*
X5908Y4146D02*
Y4233D01*
X5851Y4146D02*
Y4233D01*
X5908*
X5851Y4146D02*
X5908D01*
X1386Y1218D02*
X1473D01*
X1386Y1161D02*
X1473D01*
X1386D02*
Y1218D01*
X1473Y1161D02*
Y1218D01*
X6448Y2955D02*
X6941D01*
X6448D02*
Y3455D01*
X6941Y2955D02*
Y3455D01*
X6448D02*
X6941D01*
X6448Y4120D02*
X6941D01*
X6448D02*
Y4620D01*
X6941Y4120D02*
Y4620D01*
X6448D02*
X6941D01*
X1791Y1563D02*
X1848D01*
X1791Y1476D02*
X1848D01*
Y1563*
X1791Y1476D02*
Y1563D01*
X1351Y1633D02*
X1408D01*
X1351Y1546D02*
X1408D01*
Y1633*
X1351Y1546D02*
Y1633D01*
X1600Y1165D02*
Y1214D01*
X1521Y1165D02*
X1600D01*
X1521D02*
Y1214D01*
X1551*
X1521D02*
X1600D01*
X1730Y1255D02*
Y1304D01*
X1809*
Y1255D02*
Y1304D01*
X1779Y1255D02*
X1809D01*
X1730D02*
X1809D01*
X6286Y2941D02*
X6373D01*
X6286Y2998D02*
X6373D01*
Y2941D02*
Y2998D01*
X6286Y2941D02*
Y2998D01*
X5796Y3721D02*
Y3778D01*
X5883Y3721D02*
Y3778D01*
X5796D02*
X5883D01*
X5796Y3721D02*
X5883D01*
X1408Y1426D02*
Y1513D01*
X1351Y1426D02*
Y1513D01*
X1408*
X1351Y1426D02*
X1408D01*
X2134Y4180D02*
Y4259D01*
Y4229D02*
Y4259D01*
X2085D02*
X2134D01*
X2085Y4180D02*
Y4259D01*
Y4180D02*
X2134D01*
X6286Y3301D02*
X6373D01*
X6286Y3358D02*
X6373D01*
Y3301D02*
Y3358D01*
X6286Y3301D02*
Y3358D01*
X6156Y3641D02*
Y3698D01*
X6243Y3641D02*
Y3698D01*
X6156D02*
X6243D01*
X6156Y3641D02*
X6243D01*
X1856Y1161D02*
X1943D01*
X1856Y1218D02*
X1943D01*
Y1161D02*
Y1218D01*
X1856Y1161D02*
Y1218D01*
Y1251D02*
X1943D01*
X1856Y1308D02*
X1943D01*
Y1251D02*
Y1308D01*
X1856Y1251D02*
Y1308D01*
X5876Y4362D02*
X6003D01*
X5876Y4297D02*
X6003D01*
X5876D02*
Y4362D01*
X6003Y4297D02*
Y4362D01*
X1386Y1308D02*
X1473D01*
X1386Y1251D02*
X1473D01*
X1386D02*
Y1308D01*
X1473Y1251D02*
Y1308D01*
X5985Y4810D02*
Y4889D01*
Y4810D02*
Y4840D01*
Y4810D02*
X6034D01*
Y4889*
X5985D02*
X6034D01*
X6575Y2198D02*
X6661D01*
X6575Y2141D02*
X6661D01*
X6575D02*
Y2198D01*
X6661Y2141D02*
Y2198D01*
X5796Y3641D02*
Y3698D01*
X5883Y3641D02*
Y3698D01*
X5796D02*
X5883D01*
X5796Y3641D02*
X5883D01*
X6286Y3088D02*
X6373D01*
X6286Y3031D02*
X6373D01*
X6286D02*
Y3088D01*
X6373Y3031D02*
Y3088D01*
X1997Y4238D02*
X2054D01*
X1997Y4151D02*
X2054D01*
Y4238*
X1997Y4151D02*
Y4238D01*
X1038Y4115D02*
X1531D01*
X1038D02*
Y4615D01*
X1531Y4115D02*
Y4615D01*
X1038D02*
X1531D01*
X6118Y3701D02*
Y3858D01*
X5921Y3701D02*
Y3858D01*
X6118*
X5921Y3701D02*
X6118D01*
X1114Y4040D02*
X1485D01*
Y3079D02*
Y4040D01*
X1114Y3079D02*
X1485D01*
X1114D02*
Y4040D01*
M02*