%FSLAX23Y23*%
%MOIN*%
%SFA1B1*%

%IPPOS*%
%AMD20*
4,1,8,0.036900,0.011800,-0.036900,0.011800,-0.048800,0.000000,-0.048800,0.000000,-0.036900,-0.011800,0.036900,-0.011800,0.048800,0.000000,0.048800,0.000000,0.036900,0.011800,0.0*
1,1,0.023680,0.036900,0.000000*
1,1,0.023680,-0.036900,0.000000*
1,1,0.023680,-0.036900,0.000000*
1,1,0.023680,0.036900,0.000000*
%
%AMD34*
4,1,8,-0.009800,-0.028500,0.009800,-0.028500,0.011800,-0.026500,0.011800,0.026500,0.009800,0.028500,-0.009800,0.028500,-0.011800,0.026500,-0.011800,-0.026500,-0.009800,-0.028500,0.0*
1,1,0.004020,-0.009800,-0.026500*
1,1,0.004020,0.009800,-0.026500*
1,1,0.004020,0.009800,0.026500*
1,1,0.004020,-0.009800,0.026500*
%
%ADD12C,0.010000*%
%ADD17R,0.125980X0.062990*%
%ADD18R,0.086610X0.098430*%
%ADD19R,0.097520X0.023670*%
G04~CAMADD=20~8~0.0~0.0~975.2~236.7~118.4~0.0~15~0.0~0.0~0.0~0.0~0~0.0~0.0~0.0~0.0~0~0.0~0.0~0.0~0.0~975.2~236.7*
%ADD20D20*%
%ADD21R,0.084650X0.127950*%
%ADD22R,0.084650X0.037400*%
%ADD23R,0.047240X0.047240*%
%ADD24R,0.020870X0.077950*%
%ADD25R,0.085830X0.063780*%
%ADD26R,0.053150X0.033470*%
%ADD27R,0.033470X0.053150*%
%ADD28R,0.053150X0.043310*%
%ADD29R,0.063780X0.085830*%
%ADD30R,0.057330X0.051360*%
%ADD31R,0.051360X0.057330*%
%ADD32R,0.047240X0.047240*%
%ADD33R,0.043310X0.064960*%
G04~CAMADD=34~8~0.0~0.0~236.2~570.9~20.1~0.0~15~0.0~0.0~0.0~0.0~0~0.0~0.0~0.0~0.0~0~0.0~0.0~0.0~180.0~236.0~570.0*
%ADD34D34*%
%ADD35R,0.157480X0.062990*%
%ADD36R,0.062990X0.157480*%
%ADD44C,0.053150*%
%ADD45R,0.053150X0.053150*%
%ADD48R,0.061810X0.061810*%
%ADD49C,0.061810*%
%ADD53R,0.055120X0.055120*%
%ADD54C,0.055120*%
%ADD60C,0.108270*%
%ADD61R,0.108270X0.108270*%
%ADD62C,0.100000*%
%ADD63C,0.015000*%
%ADD64C,0.050000*%
%ADD65C,0.020000*%
%ADD66C,0.035000*%
%ADD67C,0.030000*%
%ADD68C,0.045000*%
%ADD69C,0.040000*%
%ADD70C,0.034000*%
%ADD71C,0.060000*%
%ADD72C,0.045980*%
%ADD73R,0.045980X0.045980*%
%ADD74C,0.393700*%
%ADD75R,0.070870X0.070870*%
%ADD76C,0.070870*%
%ADD77R,0.064960X0.064960*%
%ADD78C,0.064960*%
%ADD79C,0.059060*%
%ADD80C,0.196850*%
%ADD81C,0.088580*%
%ADD82C,0.060000*%
%ADD83C,0.030000*%
%ADD84C,0.100000*%
%ADD85C,0.050000*%
%LNpcb1-1*%
%LPD*%
G36*
X6685Y4913D02*
X6691Y4894D01*
X6684Y4884*
X6676Y4868*
X6670Y4850*
X6667Y4832*
Y4813*
X6670Y4795*
X6676Y4777*
X6684Y4760*
X6695Y4745*
X6708Y4732*
X6723Y4721*
X6740Y4713*
X6758Y4707*
X6776Y4704*
X6795*
X6813Y4707*
X6831Y4713*
X6847Y4721*
X6848Y4721*
X6878Y4706*
Y2642*
X6848Y2622*
X6840Y2624*
X6835Y2626*
X6833Y2629*
X6831Y2632*
X6831Y2632*
X6831Y2632*
X6828Y2634*
X6825Y2637*
X6824Y2637*
X6824Y2637*
X6821Y2638*
X6817Y2640*
X6817Y2640*
X6817Y2640*
X6813Y2640*
X6809Y2641*
X6806Y2641*
X6800Y2641*
X6798Y2641*
X6797Y2642*
X6797Y2642*
X6796Y2642*
X6793Y2644*
X6792Y2644*
X6791Y2645*
X6789Y2646*
X6786Y2647*
X6785Y2647*
X6784Y2647*
X6781Y2648*
X6778Y2648*
X6777Y2648*
X6702Y2723*
X6694Y2729*
X6688Y2730*
X6678Y2757*
X6686Y2783*
X6691Y2793*
X6695Y2806*
X6697Y2820*
Y3060*
X6698Y3066*
X6700Y3080*
X6698Y3093*
X6694Y3106*
X6688Y3119*
X6685Y3122*
Y3135*
X6672*
X6669Y3138*
X6656Y3144*
X6643Y3148*
X6630Y3150*
X6616Y3148*
X6603Y3144*
X6590Y3138*
X6587Y3135*
X6574*
Y3123*
X6568Y3116*
X6564Y3107*
X6558Y3107*
X6555Y3107*
X6551Y3106*
X6551Y3106*
X6551Y3106*
X6547Y3105*
X6544Y3103*
X6544Y3103*
X6543Y3103*
X6541Y3101*
X6538Y3098*
X6538Y3098*
X6537Y3098*
X6537Y3097*
X6436*
X6435Y3098*
X6435Y3098*
X6435Y3098*
X6432Y3101*
X6429Y3103*
X6429Y3103*
X6429Y3103*
X6425Y3105*
X6422Y3106*
X6422Y3106*
X6421Y3106*
X6418Y3107*
X6414Y3107*
X6408Y3107*
X6399Y3108*
X6398Y3109*
X6395Y3111*
X6394Y3112*
X6394Y3112*
X6391Y3113*
X6388Y3115*
X6387Y3115*
X6386Y3115*
X6383Y3116*
X6380Y3116*
X6379Y3116*
X6379Y3116*
X6376Y3116*
X6373Y3116*
X6372Y3115*
X6371Y3115*
X6368Y3114*
X6365Y3113*
X6364Y3113*
X6363Y3112*
X6361Y3110*
X6358Y3109*
X6358Y3108*
X6357Y3107*
X6356Y3106*
X6271*
X6258Y3135*
X6318Y3196*
X6323Y3202*
X6326Y3209*
X6327Y3217*
Y3261*
X6328Y3261*
X6328Y3261*
X6328Y3262*
X6330Y3264*
X6333Y3267*
X6337Y3270*
X6348Y3274*
X6358Y3276*
X6364Y3276*
X6367Y3275*
X6368Y3275*
X6371Y3274*
X6372Y3274*
X6373Y3273*
X6376Y3273*
X6379Y3273*
X6379Y3273*
X6380Y3273*
X6383Y3273*
X6386Y3274*
X6387Y3274*
X6388Y3274*
X6391Y3276*
X6394Y3277*
X6394Y3277*
X6395Y3278*
X6398Y3280*
X6399Y3281*
X6408Y3282*
X6414Y3282*
X6418Y3282*
X6421Y3283*
X6422Y3283*
X6422Y3283*
X6425Y3284*
X6429Y3286*
X6429Y3286*
X6429Y3286*
X6432Y3288*
X6433Y3289*
X6448Y3290*
X6464Y3289*
X6464Y3288*
X6467Y3286*
X6467Y3286*
X6468Y3286*
X6471Y3284*
X6474Y3283*
X6475Y3283*
X6475Y3283*
X6478Y3282*
X6482Y3282*
X6516Y3281*
X6542Y3279*
X6553Y3278*
X6561Y3276*
X6568Y3274*
X6572Y3273*
X6573Y3272*
X6576Y3270*
X6577Y3269*
X6579Y3268*
X6581Y3267*
X6582Y3266*
X6584Y3266*
X6586Y3265*
X6588Y3265*
X6590Y3264*
X6592Y3264*
X6594Y3264*
X6596Y3264*
X6598Y3264*
X6600Y3265*
X6602Y3265*
X6603Y3265*
X6616Y3261*
X6630Y3259*
X6643Y3261*
X6656Y3265*
X6669Y3271*
X6679Y3280*
X6688Y3290*
X6694Y3303*
X6698Y3316*
X6700Y3330*
X6698Y3343*
X6697Y3349*
Y3580*
X6695Y3593*
X6691Y3606*
X6685Y3619*
X6678Y3627*
Y3642*
X6657*
X6653Y3644*
X6640Y3648*
X6626Y3650*
X6613Y3648*
X6600Y3644*
X6596Y3642*
X6575*
Y3627*
X6568Y3619*
X6561Y3606*
X6557Y3593*
X6556Y3580*
Y3382*
X6553Y3382*
X6499Y3377*
X6482Y3377*
X6479Y3377*
X6475Y3376*
X6475Y3376*
X6475Y3376*
X6471Y3375*
X6468Y3373*
X6467Y3373*
X6467Y3373*
X6464Y3371*
X6464Y3370*
X6448Y3369*
X6433Y3370*
X6432Y3371*
X6429Y3373*
X6429Y3373*
X6429Y3373*
X6425Y3375*
X6422Y3376*
X6422Y3376*
X6421Y3376*
X6418Y3377*
X6414Y3377*
X6408Y3377*
X6399Y3378*
X6398Y3379*
X6395Y3381*
X6394Y3382*
X6394Y3382*
X6391Y3383*
X6388Y3385*
X6387Y3385*
X6386Y3385*
X6383Y3386*
X6380Y3386*
X6379Y3386*
X6379Y3386*
X6376Y3386*
X6373Y3386*
X6372Y3385*
X6371Y3385*
X6368Y3384*
X6365Y3383*
X6364Y3383*
X6363Y3382*
X6361Y3380*
X6358Y3379*
X6358Y3378*
X6357Y3377*
X6356Y3376*
X6260*
Y3325*
X6259Y3324*
X6258Y3323*
X6257Y3322*
X6256Y3320*
X6254Y3318*
X6254Y3317*
X6253Y3315*
X6252Y3313*
X6251Y3311*
X6251Y3309*
X6251Y3308*
X6250Y3305*
X6250Y3303*
X6250Y3301*
X6250Y3300*
X6251Y3298*
X6251Y3295*
X6252Y3294*
X6252Y3292*
X6253Y3290*
X6254Y3288*
X6255Y3287*
X6256Y3285*
X6257Y3284*
X6257Y3283*
X6257Y3279*
X6258Y3275*
X6258Y3275*
X6258Y3275*
X6259Y3271*
X6261Y3268*
X6261Y3268*
X6261Y3267*
X6263Y3265*
X6266Y3262*
X6266Y3261*
X6266Y3261*
X6267Y3261*
Y3230*
X6178Y3141*
X6154Y3159*
X6156Y3163*
X6157Y3164*
X6157Y3167*
X6160Y3174*
Y3175*
X6125*
Y3140*
X6125*
X6132Y3141*
X6135Y3142*
X6136Y3143*
X6140Y3145*
X6158Y3121*
X6083Y3046*
X6064Y3052*
X6055Y3060*
Y3064*
X6052Y3073*
X6048Y3081*
X6041Y3088*
X6036Y3091*
X6033Y3105*
X6033Y3123*
X6038Y3128*
X6042Y3136*
X6044Y3145*
X5975*
X5977Y3136*
X5981Y3128*
X5988Y3121*
X5993Y3118*
X5996Y3104*
X5996Y3086*
X5991Y3081*
X5987Y3073*
X5985Y3065*
X6020*
Y3055*
X5985*
X5987Y3046*
X5961Y3031*
X5511Y3481*
X5511Y3482*
X5511Y3482*
X5511Y3482*
X5511Y3486*
X5510Y3490*
X5510Y3490*
Y3490*
X5509Y3494*
X5507Y3497*
X5507Y3497*
X5507Y3497*
X5505Y3501*
X5502Y3504*
X5501Y3505*
X5499Y3508*
X5498Y3508*
X5498Y3508*
X5496Y3511*
X5495Y3511*
X5495Y3512*
X5492Y3514*
X5490Y3516*
X5489Y3516*
X5488Y3516*
X5485Y3517*
X5482Y3519*
X5480Y3522*
X5476Y3530*
X5474Y3541*
X5475Y3553*
X5701Y3778*
X5727Y3763*
X5725Y3755*
X5725Y3755*
X5755*
Y3784*
X5746Y3782*
X5731Y3808*
X5791Y3868*
X5796Y3874*
X5799Y3882*
X5800Y3890*
Y4084*
X5800Y4085*
X5800Y4085*
X5830Y4100*
X5833Y4098*
X5833Y4097*
X5833Y4097*
X5834Y4094*
X5836Y4090*
X5836Y4090*
X5836Y4090*
X5838Y4087*
X5841Y4084*
X5841Y4084*
X5841Y4084*
X5842Y4083*
X5843Y4078*
X5847Y4069*
X5853Y4061*
X5862Y4052*
Y4011*
X5872*
Y3991*
X5874Y3982*
X5877Y3974*
X5883Y3966*
X5885Y3965*
X5888Y3961*
X5896Y3957*
X5905Y3955*
X5914*
X5914Y3954*
Y3922*
X5914Y3922*
X5912Y3913*
Y3860*
X5914Y3852*
X5919Y3844*
X5926Y3840*
X5935Y3838*
X5954*
X5963Y3840*
X5970Y3844*
X5976Y3840*
X5985Y3838*
X6004*
X6013Y3840*
X6020Y3844*
X6030Y3849*
X6035Y3848*
X6040*
Y3887*
X6050*
Y3848*
X6054*
X6059Y3849*
X6069Y3844*
X6076Y3840*
X6085Y3838*
X6098*
X6098Y3838*
X6101Y3837*
X6103Y3837*
X6105Y3837*
X6106Y3837*
X6109Y3837*
X6111Y3837*
X6112Y3837*
X6114Y3838*
X6114Y3838*
X6129Y3830*
X6139Y3823*
X6139Y3823*
X6139Y3819*
X6130Y3796*
X6105Y3780*
X6060*
X6052Y3779*
X6044Y3776*
X6041Y3773*
X6020Y3758*
X5998Y3773*
X5995Y3776*
X5987Y3779*
X5980Y3780*
X5931*
X5931Y3780*
X5930Y3781*
X5930Y3781*
X5927Y3783*
X5924Y3785*
X5924Y3785*
X5924Y3786*
X5920Y3787*
X5917Y3789*
X5917Y3789*
X5916Y3789*
X5913Y3789*
X5911Y3789*
X5910Y3791*
X5909Y3792*
X5909Y3792*
Y3796*
X5898Y3798*
X5896Y3799*
X5895Y3799*
X5893Y3799*
X5891Y3799*
X5889Y3800*
X5889*
X5887Y3800*
X5885Y3800*
X5885*
X5883Y3799*
X5881Y3799*
X5879Y3798*
X5878Y3798*
X5876Y3797*
X5874Y3796*
X5835*
X5812Y3787*
Y3750*
X5802*
Y3786*
X5780*
X5765Y3785*
Y3750*
X5760*
Y3745*
X5725*
X5727Y3736*
X5731Y3728*
X5732Y3728*
X5733Y3710*
X5732Y3691*
X5731Y3691*
X5727Y3683*
X5725Y3675*
X5760*
Y3665*
X5725*
X5725Y3664*
X5727Y3656*
X5731Y3648*
X5738Y3641*
X5746Y3637*
X5751Y3635*
X5755Y3635*
X5780Y3633*
X5802*
Y3670*
X5812*
Y3632*
X5835Y3623*
X5860*
X5881*
X5883Y3623*
X5885Y3622*
X5885*
X5887Y3622*
X5889Y3622*
X5909Y3623*
X5931Y3622*
X5941Y3614*
X5948Y3608*
X5950Y3605*
X5950Y3605*
X5954Y3597*
X5955Y3595*
Y3595*
X5957Y3586*
X5961Y3578*
X5968Y3571*
X5976Y3567*
X5982Y3565*
X5983Y3565*
X5985Y3563*
X5986Y3562*
X5986Y3562*
X5989Y3561*
X5992Y3560*
X5993Y3560*
X5994Y3559*
X5995Y3559*
Y3555*
X5997Y3546*
X6001Y3538*
X6008Y3531*
X6016Y3527*
X6025Y3525*
X6034*
X6043Y3527*
X6047Y3529*
X6050*
X6057Y3530*
X6065Y3533*
X6071Y3538*
X6116Y3583*
X6121Y3589*
X6124Y3597*
X6125Y3603*
X6131Y3609*
X6149Y3621*
X6154Y3622*
X6156Y3623*
X6158Y3623*
X6182*
X6187Y3616*
Y3605*
X6190Y3593*
X6196Y3583*
X6204Y3574*
X6215Y3569*
X6226Y3565*
X6238*
X6249Y3569*
X6260Y3574*
X6268Y3583*
X6274Y3593*
X6277Y3605*
Y3616*
X6274Y3628*
X6270Y3635*
Y3670*
Y3750*
Y3797*
X6269Y3807*
X6265Y3816*
X6259Y3824*
X6258Y3825*
X6267Y3854*
X6287Y3861*
X6305Y3864*
Y3900*
X6310*
Y3905*
X6344*
X6342Y3913*
X6338Y3921*
X6331Y3928*
X6323Y3932*
X6315Y3934*
X6314Y3935*
X6287Y3938*
Y3938*
X6256*
Y3900*
X6246*
Y3938*
X6233*
Y3948*
X6227*
X6217Y3965*
X6213Y3978*
X6217Y3984*
X6220Y3994*
Y3995*
X6140*
Y3994*
X6142Y3984*
X6146Y3978*
X6142Y3948*
X6116Y3937*
X6097Y3957*
X6095Y3965*
X6060*
Y3970*
X6055*
Y4004*
X6046Y4002*
X6042Y4000*
X6025Y4011*
X6017Y4019*
Y4052*
X6026Y4061*
X6032Y4069*
X6036Y4078*
X6037Y4083*
X6038Y4084*
X6038Y4084*
X6038Y4084*
X6041Y4087*
X6043Y4090*
X6043Y4090*
X6043Y4090*
X6043Y4091*
X6049Y4095*
X6051Y4096*
X6064Y4099*
X6069Y4100*
X6077Y4099*
X6098Y4078*
X6104Y4073*
X6112Y4070*
X6120Y4069*
X6174*
X6174Y4040*
X6164Y4037*
X6155Y4032*
X6147Y4024*
X6142Y4015*
X6140Y4005*
Y4005*
X6220*
Y4005*
X6217Y4015*
X6212Y4024*
X6204Y4032*
X6195Y4037*
X6185Y4040*
X6185Y4069*
X6660*
X6667Y4070*
X6675Y4073*
X6681Y4078*
X6721Y4118*
X6726Y4124*
X6729Y4132*
X6730Y4140*
Y4190*
X6743Y4199*
X6760Y4205*
X6764Y4202*
X6774Y4200*
X6775*
Y4240*
Y4280*
X6774*
X6764Y4277*
X6760Y4274*
X6743Y4280*
X6730Y4289*
Y4290*
X6729Y4297*
X6726Y4305*
X6721Y4311*
X6691Y4341*
X6685Y4346*
X6677Y4349*
X6670Y4350*
X6250*
X6226Y4364*
X6220Y4370*
X6220Y4370*
Y4408*
X6219Y4415*
X6216Y4423*
X6211Y4429*
X6205Y4434*
X6199Y4436*
X6196Y4449*
X6189Y4461*
X6179Y4471*
X6167Y4478*
X6154Y4481*
X6150*
X6148Y4485*
X6144Y4491*
X6137Y4496*
X6130Y4499*
X6122Y4500*
X6050*
X6042Y4499*
X6034Y4496*
X6028Y4491*
X5950Y4412*
X5941Y4421*
X5935Y4426*
X5927Y4429*
X5920Y4430*
X5802*
X5792Y4460*
X5795Y4462*
X5799Y4465*
X5804Y4467*
X5812Y4475*
X5817Y4484*
X5820Y4494*
Y4495*
X5740*
Y4494*
X5742Y4484*
X5747Y4475*
X5755Y4467*
X5763Y4463*
X5764Y4458*
X5762Y4431*
X5761Y4428*
X5754Y4426*
X5748Y4421*
X5104Y3777*
X5097Y3776*
X5082Y3780*
X5072Y3786*
X5071Y3787*
X5066Y3797*
X5057Y3806*
X5047Y3811*
X5035Y3815*
X5024*
X5012Y3811*
X5002Y3806*
X4993Y3797*
X4988Y3787*
X4985Y3775*
Y3764*
X4988Y3752*
X4993Y3742*
X5002Y3733*
X5012Y3728*
X5024Y3725*
X5035*
X5047Y3728*
X5057Y3733*
X5059Y3736*
X5085Y3728*
X5089Y3725*
Y3482*
X5047Y3440*
X5018Y3431*
X5011Y3438*
X5003Y3442*
X4995Y3444*
Y3410*
X4990*
Y3405*
X4955*
X4957Y3396*
X4961Y3388*
X4961Y3360*
X4959Y3352*
X4878Y3271*
X4852Y3286*
X4852Y3287*
X4854Y3295*
X4825*
Y3265*
X4832Y3267*
X4833Y3267*
X4837Y3260*
X4848Y3241*
X4707Y3100*
X4520*
X4512Y3099*
X4504Y3096*
X4498Y3091*
X4468Y3061*
X4463Y3055*
X4460Y3047*
X4459Y3040*
Y3036*
X4439Y3027*
X4429Y3026*
X4424Y3032*
X4415Y3037*
X4405Y3040*
X4405*
Y3000*
Y2960*
X4405*
X4415Y2962*
X4424Y2967*
X4429Y2973*
X4439Y2972*
X4459Y2963*
Y2960*
X4460Y2952*
X4463Y2944*
X4468Y2938*
X4498Y2908*
X4504Y2903*
X4512Y2900*
X4520Y2899*
X4708*
X4734Y2885*
X4805*
X4817Y2900*
X4825Y2903*
X4831Y2908*
X5034Y3112*
X5048Y3111*
X5069Y3104*
X5072Y3100*
X5080Y3092*
X5090Y3086*
X5102Y3083*
X5114*
X5125Y3086*
X5135Y3092*
X5136Y3092*
X5151Y3088*
X5165Y3078*
Y3075*
X5167Y3066*
X5171Y3058*
X5178Y3051*
X5186Y3047*
X5195Y3045*
Y3080*
Y3114*
X5186Y3112*
X5180Y3109*
X5167Y3114*
X5164Y3116*
X5153Y3125*
Y3134*
X5150Y3145*
X5144Y3155*
X5135Y3164*
X5131Y3166*
X5124Y3188*
X5124Y3201*
X5396Y3474*
X5408Y3475*
X5420Y3473*
X5430Y3467*
X5431Y3466*
X5431Y3465*
X5432Y3462*
X5433Y3459*
X5434Y3459*
X5434Y3458*
X5436Y3456*
X5438Y3453*
X5439Y3453*
X5439Y3452*
X5446Y3446*
X5449Y3444*
X5452Y3442*
X5452Y3442*
X5453Y3441*
X5456Y3440*
X5459Y3439*
X5460Y3439*
X5460Y3439*
X5464Y3438*
X5467Y3438*
X5467Y3438*
X5468Y3438*
X5595Y3311*
X5597Y3305*
X5592Y3276*
X5583Y3267*
X5578Y3257*
X5575Y3245*
Y3234*
X5578Y3222*
X5583Y3212*
X5592Y3203*
X5602Y3198*
X5614Y3195*
X5625*
X5637Y3198*
X5647Y3203*
X5656Y3212*
X5685Y3217*
X5691Y3215*
X5976Y2930*
X5976Y2928*
Y2926*
X5975Y2922*
X5975Y2921*
X5975Y2921*
X5975Y2918*
X5975Y2917*
X5975Y2917*
X5976Y2914*
X5976Y2910*
X5976Y2910*
X5976Y2909*
X5978Y2906*
X5979Y2903*
X5978Y2899*
X5974Y2890*
X5968Y2882*
X5959Y2875*
X5910*
X5910Y2875*
X5909Y2875*
X5909Y2876*
X5906Y2878*
X5904Y2880*
X5903Y2880*
X5903Y2881*
X5900Y2882*
X5897Y2883*
X5896Y2884*
X5895Y2884*
X5893Y2884*
X5890Y2886*
X5890Y2886*
X5890Y2887*
X5886Y2888*
X5883Y2889*
X5883Y2889*
X5882Y2889*
X5879Y2890*
X5875Y2890*
X5875Y2890*
X5875Y2890*
X5871Y2890*
X5867Y2889*
X5867Y2889*
X5867Y2889*
X5863Y2888*
X5860Y2886*
X5860Y2886*
X5859Y2886*
X5857Y2884*
X5851Y2882*
X5843Y2878*
X5836Y2871*
X5833Y2871*
X5754Y2949*
X5748Y2954*
X5742Y2956*
X5735Y2957*
X5731*
X5684Y3005*
X5695Y3035*
X5707Y3038*
X5717Y3043*
X5726Y3052*
X5731Y3062*
X5735Y3074*
Y3085*
X5731Y3097*
X5726Y3107*
X5717Y3116*
X5707Y3121*
X5695Y3125*
X5684*
X5672Y3121*
X5665Y3117*
X5651Y3120*
X5633Y3129*
X5632Y3133*
X5628Y3141*
X5621Y3148*
X5613Y3152*
X5605Y3154*
Y3120*
X5595*
Y3154*
X5586Y3152*
X5578Y3148*
X5571Y3141*
X5541Y3147*
X5471Y3218*
X5471Y3218*
X5471Y3219*
X5471Y3219*
X5470Y3223*
X5470Y3226*
X5470Y3227*
X5470Y3227*
X5468Y3230*
X5467Y3233*
X5467Y3234*
X5467Y3234*
X5465Y3237*
X5463Y3239*
X5463Y3239*
X5462Y3242*
X5461Y3244*
X5460Y3245*
X5460Y3246*
X5458Y3248*
X5456Y3251*
X5455Y3251*
X5455Y3252*
X5452Y3254*
X5450Y3256*
X5449Y3256*
X5448Y3256*
X5445Y3257*
X5442Y3259*
X5441Y3259*
X5441Y3259*
X5438Y3259*
X5433Y3262*
X5424Y3265*
X5415*
X5406Y3262*
X5398Y3258*
X5391Y3251*
X5389Y3251*
X5360Y3256*
X5360Y3257*
X5360Y3257*
X5358Y3260*
X5357Y3263*
X5357Y3264*
X5357Y3264*
X5355Y3267*
X5353Y3269*
Y3269*
X5352Y3272*
X5351Y3274*
X5350Y3275*
X5350Y3276*
X5348Y3278*
X5346Y3281*
X5345Y3281*
X5345Y3282*
X5342Y3284*
X5340Y3286*
X5339Y3286*
X5338Y3286*
X5335Y3287*
X5332Y3289*
X5331Y3289*
X5331Y3289*
X5328Y3289*
X5323Y3292*
X5314Y3295*
X5305*
X5296Y3292*
X5288Y3288*
X5281Y3281*
X5277Y3273*
X5275Y3264*
Y3255*
X5276Y3248*
X5277Y3246*
Y3246*
X5254Y3226*
X5251Y3228*
X5247Y3230*
X5243Y3232*
X5235Y3234*
Y3205*
X5265*
X5265Y3206*
X5283Y3219*
X5289Y3221*
X5292Y3220*
X5295Y3218*
X5297Y3217*
X5300Y3216*
X5300Y3216*
X5302Y3215*
X5305Y3212*
X5305Y3212*
X5305Y3212*
X5309Y3211*
X5312Y3209*
X5312Y3209*
X5312Y3209*
X5316Y3209*
X5320Y3208*
X5320Y3208*
X5320Y3208*
X5321Y3209*
X5545Y2984*
X5538Y2962*
X5533Y2954*
X5527Y2952*
X5519Y2948*
X5512Y2941*
X5508Y2933*
X5505Y2924*
Y2915*
X5508Y2906*
X5511Y2901*
X5511Y2897*
X5511Y2897*
X5511Y2897*
X5513Y2893*
X5514Y2890*
X5514Y2890*
X5514Y2889*
X5517Y2887*
X5519Y2884*
X5519Y2883*
X5519Y2883*
X5522Y2881*
X5525Y2879*
X5525Y2879*
X5525Y2878*
X5529Y2877*
X5532Y2875*
X5532Y2875*
X5533Y2875*
X5536Y2875*
X5538Y2873*
X5539Y2873*
X5539Y2873*
X5542Y2872*
X5545Y2870*
X5546Y2870*
X5547Y2870*
X5550Y2870*
X5553Y2869*
X5554Y2869*
X5554Y2869*
X5554Y2869*
X5629Y2795*
X5617Y2767*
X5501*
X5315Y2954*
Y2954*
X5312Y2963*
X5308Y2971*
X5301Y2978*
X5293Y2982*
X5284Y2985*
X5275*
X5266Y2982*
X5258Y2978*
X5251Y2971*
X5247Y2963*
X5245Y2954*
Y2945*
X5247Y2936*
X5251Y2928*
X5258Y2921*
X5266Y2917*
X5275Y2915*
X5275*
X5470Y2720*
X5476Y2715*
X5482Y2713*
X5490Y2712*
X5537*
X5549Y2682*
X5107Y2240*
X3282*
X2680Y2842*
X2680Y2843*
Y2843*
Y2843*
X2680Y2847*
X2679Y2851*
X2679Y2851*
X2679Y2851*
X2678Y2855*
X2676Y2858*
X2676Y2858*
X2676Y2859*
X2674Y2862*
X2671Y2865*
X2670Y2866*
X2667Y2869*
X2667Y2869*
X2667Y2870*
X2665Y2872*
X2664Y2872*
X2664Y2873*
X2661Y2875*
X2659Y2877*
X2658Y2877*
X2657Y2877*
X2654Y2878*
X2651Y2880*
X2651Y2880*
X2650Y2880*
X2647Y2880*
X2642Y2883*
X2633Y2886*
X2624*
X2615Y2883*
X2607Y2879*
X2600Y2872*
X2596Y2864*
X2593Y2855*
Y2846*
X2596Y2837*
X2599Y2832*
X2599Y2831*
X2599Y2828*
X2600Y2827*
X2600Y2826*
X2601Y2823*
X2602Y2820*
X2603Y2820*
X2603Y2819*
X2605Y2817*
X2607Y2814*
X2608Y2814*
X2608Y2813*
X2615Y2807*
X2618Y2805*
X2620Y2803*
X2621Y2803*
X2622Y2802*
X2625Y2801*
X2628Y2800*
X2629Y2800*
X2629Y2800*
X2632Y2799*
X2636Y2799*
X2636Y2799*
X2637Y2799*
X3248Y2188*
X3254Y2183*
X3262Y2180*
X3270Y2179*
X5120*
X5127Y2180*
X5135Y2183*
X5141Y2188*
X5593Y2641*
X5883*
X5887Y2638*
X5896Y2636*
X5905*
X5914Y2638*
X5922Y2643*
X5929Y2649*
X5933Y2657*
X5936Y2666*
Y2675*
X5939Y2680*
X6502*
X6512Y2667*
X6521Y2650*
X6520Y2645*
Y2645*
X6600*
Y2645*
X6598Y2650*
X6607Y2667*
X6617Y2680*
X6673*
X6703Y2650*
X6703Y2644*
X6694Y2618*
X6684Y2612*
X6677Y2605*
X6671Y2595*
X6669Y2585*
Y2585*
X6710*
Y2575*
X6669*
Y2574*
X6647Y2552*
X6645Y2551*
X6225*
X6222Y2550*
X6208Y2558*
X6206Y2559*
X6195Y2571*
Y2574*
X6192Y2583*
X6188Y2591*
X6181Y2598*
X6173Y2602*
X6165Y2604*
Y2570*
X6160*
Y2565*
X6125*
X6127Y2556*
X6131Y2548*
X6138Y2541*
X6146Y2537*
X6152Y2507*
X6152Y2506*
X6148Y2499*
X6144Y2495*
X6102*
X6075Y2509*
Y2520*
X6071Y2532*
X6066Y2542*
X6057Y2551*
X6047Y2556*
X6035Y2560*
X6024*
X6012Y2556*
X6002Y2551*
X5993Y2542*
X5988Y2532*
X5985Y2520*
Y2509*
X5957Y2495*
X5869*
X5840Y2498*
X5839Y2501*
X5839Y2504*
X5839Y2505*
X5839Y2505*
X5837Y2509*
X5836Y2512*
X5836Y2512*
X5836Y2513*
X5834Y2515*
X5834Y2518*
X5834Y2518*
X5834Y2519*
X5832Y2522*
X5831Y2525*
X5830Y2526*
X5830Y2526*
X5828Y2529*
X5826Y2532*
X5826Y2532*
X5825Y2532*
X5822Y2534*
X5820Y2536*
X5819Y2537*
X5819Y2537*
X5816Y2538*
X5812Y2539*
X5812Y2540*
X5812Y2540*
X5808Y2540*
X5803Y2543*
X5794Y2545*
X5785*
X5776Y2543*
X5768Y2538*
X5761Y2532*
X5757Y2524*
X5744Y2525*
X5735*
X5726Y2522*
X5718Y2518*
X5711Y2511*
X5707Y2503*
X5705Y2494*
Y2485*
X5707Y2476*
X5710Y2471*
X5710Y2467*
X5710Y2467*
X5710Y2467*
X5712Y2463*
X5713Y2460*
X5713Y2460*
X5713Y2459*
X5716Y2457*
X5718Y2454*
X5718Y2453*
X5718Y2453*
X5721Y2451*
X5724Y2449*
X5724Y2449*
X5725Y2448*
X5728Y2447*
X5731Y2445*
X5731Y2445*
X5732Y2445*
X5735Y2445*
X5737Y2443*
X5738Y2443*
X5738Y2443*
X5741Y2442*
X5745Y2440*
X5745Y2440*
X5746Y2440*
X5749Y2440*
X5752Y2439*
X5753Y2439*
X5754Y2439*
X5754*
X5766Y2426*
X5775Y2421*
X5785Y2419*
X5801*
X5830Y2409*
Y2400*
X5832Y2391*
X5835Y2386*
X5835Y2385*
X5835Y2382*
X5836Y2381*
X5836Y2380*
X5837Y2377*
X5838Y2374*
X5839Y2374*
X5839Y2373*
X5841Y2371*
X5843Y2368*
X5844Y2368*
X5844Y2367*
X5851Y2361*
X5853Y2337*
X5852Y2336*
X5848Y2334*
X5824Y2334*
X5821Y2338*
X5813Y2342*
X5804Y2345*
X5795*
X5786Y2342*
X5778Y2338*
X5771Y2331*
X5770Y2328*
X5768Y2327*
X5768Y2327*
X5768Y2327*
X5766Y2324*
X5763Y2321*
X5763Y2321*
X5763Y2321*
X5762Y2317*
X5760Y2313*
X5760Y2313*
X5760Y2313*
X5760Y2309*
X5759Y2306*
X5759Y2303*
X5759Y2302*
X5759Y2299*
X5759Y2298*
X5759Y2297*
X5759Y2290*
X5759Y2287*
X5759Y2287*
X5759Y2286*
X5759Y2286*
X5759Y2285*
X5759Y2282*
X5759Y2280*
X5760Y2280*
X5760Y2278*
X5760Y2278*
X5760Y2278*
X5761Y2274*
X5762Y2274*
X5762Y2273*
X5762Y2273*
X5763Y2271*
X5763Y2271*
X5763Y2270*
X5765Y2267*
X5766Y2266*
X5766Y2266*
X5766Y2266*
X5767Y2265*
X5768Y2264*
X5768Y2264*
X5769Y2263*
Y2188*
X5980*
Y2306*
Y2306*
X5980Y2320*
X5979Y2327*
X5976Y2335*
X5971Y2341*
X5926Y2386*
X5945Y2409*
X5950Y2406*
X5960Y2404*
X6632*
X6659Y2386*
Y2373*
X6662Y2360*
X6669Y2348*
X6678Y2339*
X6690Y2332*
X6681Y2304*
X6673Y2306*
X6673*
Y2271*
X6708*
Y2271*
X6705Y2281*
X6700Y2290*
X6692Y2298*
X6683Y2303*
X6692Y2332*
X6703Y2329*
X6716*
X6729Y2332*
X6759Y2329*
X6848*
X6860*
X6878Y2306*
Y2232*
X6865Y2205*
Y2170*
Y2134*
X6878Y2107*
Y1958*
X6863Y1950*
X6848Y1948*
X6844Y1952*
X6835Y1957*
X6825Y1960*
X6825*
Y1920*
Y1880*
X6825*
X6835Y1882*
X6844Y1887*
X6848Y1891*
X6863Y1889*
X6878Y1881*
Y1678*
X6863Y1670*
X6848Y1668*
X6844Y1672*
X6835Y1677*
X6825Y1680*
X6825*
Y1640*
Y1600*
X6825*
X6835Y1602*
X6844Y1607*
X6848Y1611*
X6863Y1609*
X6878Y1601*
Y1458*
X6863Y1450*
X6848Y1448*
X6844Y1452*
X6835Y1457*
X6825Y1460*
X6825*
Y1420*
Y1380*
X6825*
X6835Y1382*
X6844Y1387*
X6848Y1391*
X6863Y1389*
X6878Y1381*
Y1316*
X6848Y1301*
X6847Y1302*
X6831Y1310*
X6813Y1316*
X6795Y1319*
X6776*
X6758Y1316*
X6740Y1310*
X6723Y1302*
X6708Y1291*
X6695Y1277*
X6684Y1262*
X6676Y1246*
X6670Y1228*
X6667Y1210*
Y1191*
X6670Y1173*
X6676Y1155*
X6684Y1138*
X6695Y1123*
X6703Y1115*
X6697Y1095*
X6691Y1085*
X1289*
X1283Y1095*
X1277Y1115*
X1285Y1123*
X1296Y1138*
X1304Y1155*
X1310Y1173*
X1312Y1184*
X1325Y1198*
X1327Y1199*
X1343Y1203*
X1349Y1199*
X1350Y1198*
X1352Y1194*
X1353Y1192*
X1354Y1190*
X1355Y1189*
X1356Y1187*
X1357Y1185*
X1359Y1183*
X1360Y1183*
X1360Y1182*
Y1143*
X1444*
X1447Y1141*
X1447Y1141*
X1447Y1141*
X1450Y1139*
X1454Y1138*
X1454Y1138*
X1454Y1138*
X1458Y1137*
X1462Y1137*
X1464Y1137*
X1464Y1137*
X1464Y1136*
X1467Y1135*
X1471Y1134*
X1471Y1134*
X1471Y1134*
X1475Y1133*
X1479Y1133*
X1479Y1133*
X1479Y1133*
X1483Y1133*
X1486Y1134*
X1487Y1134*
X1487Y1134*
X1490Y1135*
X1513Y1137*
X1520Y1137*
X1523Y1137*
X1527Y1138*
X1527Y1138*
X1527Y1138*
X1531Y1139*
X1535Y1141*
X1535Y1141*
X1535Y1141*
X1538Y1143*
X1541Y1146*
X1541Y1146*
X1541Y1146*
X1541Y1146*
X1563*
X1589Y1156*
X1597*
Y1190*
X1607*
Y1156*
X1636*
X1665Y1155*
Y1190*
X1675*
Y1155*
X1695Y1156*
X1723*
Y1190*
X1733*
Y1156*
X1741*
X1767Y1146*
X1789*
X1789Y1146*
X1789Y1146*
X1792Y1143*
X1795Y1141*
X1796Y1141*
X1796Y1141*
X1799Y1139*
X1802Y1138*
X1803Y1138*
X1803Y1138*
X1807Y1137*
X1810Y1137*
X1829Y1136*
X1831Y1136*
X1834Y1136*
X1835Y1136*
X1835Y1136*
X1838Y1136*
X1838Y1136*
X1841Y1134*
X1842Y1134*
X1843Y1134*
X1846Y1133*
X1849Y1133*
X1850Y1133*
X1850Y1133*
X1854Y1133*
X1857Y1134*
X1858Y1134*
X1858Y1134*
X1861Y1135*
X1865Y1136*
X1865Y1137*
X1865Y1137*
X1868Y1137*
X1871Y1137*
X1875Y1138*
X1875Y1138*
X1876Y1138*
X1879Y1139*
X1882Y1141*
X1883Y1141*
X1883Y1141*
X1885Y1143*
X1969*
Y1156*
X1970Y1157*
X1974Y1158*
X1974Y1159*
X1974Y1159*
X1977Y1161*
X1980Y1163*
X1980Y1163*
X1981Y1164*
X1981Y1164*
X2000*
X2009Y1166*
X2018Y1171*
X2148Y1301*
X2153Y1310*
X2155Y1320*
Y1990*
X2153Y1999*
X2148Y2008*
X2059Y2096*
X2060Y2122*
X2061Y2133*
X2063Y2144*
X2066Y2153*
X2066Y2156*
X2086*
Y2158*
X2110Y2159*
X2120Y2159*
X2123Y2160*
X2127Y2160*
X2127Y2160*
X2127Y2160*
X2131Y2162*
X2135Y2163*
X2135Y2163*
X2135Y2163*
X2138Y2166*
X2141Y2168*
X2141Y2168*
X2141Y2168*
X2143Y2171*
X2146Y2174*
X2146Y2175*
X2149Y2176*
X2153Y2177*
X2156Y2179*
X2159Y2181*
X2161Y2183*
X2164Y2185*
X2167Y2188*
X2169Y2190*
X2171Y2192*
X2174Y2195*
X2176Y2198*
X2178Y2200*
X2180Y2203*
X2182Y2206*
X2183Y2210*
X2184Y2213*
X2185Y2216*
X2187Y2219*
X2187Y2222*
X2188Y2226*
X2189Y2229*
X2190Y2233*
Y2236*
X2190Y2240*
X2190Y2243*
Y2246*
X2189Y2250*
X2188Y2253*
X2187Y2257*
X2187Y2260*
X2185Y2263*
X2184Y2266*
X2183Y2269*
X2182Y2273*
X2180Y2276*
X2178Y2279*
X2176Y2281*
X2174Y2284*
X2171Y2287*
X2169Y2289*
X2167Y2291*
X2164Y2294*
X2161Y2296*
X2159Y2298*
X2156Y2300*
X2153Y2302*
X2149Y2303*
X2146Y2304*
X2146Y2305*
X2143Y2308*
X2141Y2311*
X2141Y2311*
X2141Y2311*
X2138Y2313*
X2135Y2315*
X2135Y2316*
X2135Y2316*
X2131Y2317*
X2128Y2319*
X2128Y2319*
X2127Y2319*
X2124Y2319*
X2120Y2320*
X2086Y2320*
X2086Y2320*
Y2323*
X2068*
Y2406*
X2069Y2407*
X2069Y2407*
X2069Y2407*
X2072Y2410*
X2074Y2413*
X2074Y2413*
X2074Y2413*
X2076Y2417*
X2077Y2420*
X2077Y2420*
X2077Y2420*
X2078Y2424*
X2078Y2428*
X2078Y2447*
X2079Y2477*
X2081Y2499*
X2082Y2506*
X2082Y2507*
X2083Y2508*
X2085Y2510*
X2086Y2511*
X2087Y2513*
X2088Y2515*
X2089Y2516*
X2089Y2518*
X2090Y2520*
X2090Y2522*
X2091Y2524*
X2091Y2526*
X2091Y2528*
X2091Y2530*
X2091Y2532*
X2090Y2534*
X2090Y2536*
X2089Y2538*
X2089Y2540*
X2088Y2541*
X2087Y2543*
X2086Y2545*
X2085Y2546*
X2083Y2548*
X2082Y2550*
X2081Y2551*
Y2611*
X2046*
X2037Y2618*
X2025Y2624*
X2012Y2628*
X1998Y2630*
X1984Y2628*
X1971Y2624*
X1959Y2618*
X1950Y2611*
X1915*
Y2551*
X1914Y2550*
X1912Y2548*
X1911Y2546*
X1910Y2545*
X1909Y2543*
X1908Y2541*
X1907Y2540*
X1907Y2538*
X1906Y2536*
X1906Y2534*
X1905Y2532*
X1905Y2530*
X1905Y2528*
X1905Y2526*
X1905Y2524*
X1906Y2522*
X1906Y2520*
X1907Y2518*
X1907Y2516*
X1908Y2515*
X1909Y2513*
X1910Y2511*
X1911Y2510*
X1912Y2508*
X1913Y2507*
X1918Y2446*
X1918Y2428*
X1918Y2424*
X1919Y2420*
X1919Y2420*
X1919Y2420*
X1920Y2417*
X1922Y2413*
X1922Y2413*
X1922Y2413*
X1924Y2410*
X1927Y2407*
X1927Y2407*
X1927Y2407*
X1928Y2406*
Y2290*
X1893Y2287*
X1876Y2287*
X1874Y2286*
X1872Y2287*
X1872*
X1855Y2297*
X1848Y2312*
Y2325*
X1795*
Y2330*
X1790*
Y2359*
X1758*
X1743*
X1714Y2361*
X1713Y2362*
X1704Y2365*
X1701*
X1700Y2366*
X1691Y2386*
X1690Y2393*
X1692Y2395*
X1697Y2404*
X1700Y2414*
Y2415*
X1660*
Y2420*
X1655*
Y2460*
X1654*
X1644Y2457*
X1640Y2454*
X1623Y2460*
X1610Y2469*
Y2518*
X1621Y2524*
X1640Y2526*
X1643Y2521*
X1651Y2513*
X1661Y2506*
X1672Y2502*
X1684Y2500*
X1685*
Y2560*
Y2620*
X1684*
X1672Y2617*
X1661Y2613*
X1651Y2606*
X1643Y2598*
X1642Y2597*
X1615Y2587*
X1604Y2587*
X1600Y2589*
X1598Y2594*
Y2623*
X1588*
Y2636*
X1550*
Y2646*
X1588*
Y2677*
X1585Y2705*
X1514*
X1511Y2677*
Y2659*
X1506Y2644*
X1474Y2638*
X1448Y2664*
X1446Y2665*
X1445Y2666*
X1443Y2667*
X1442Y2669*
X1440Y2669*
X1438Y2670*
X1436Y2671*
X1434Y2672*
X1432Y2672*
X1431Y2672*
X1429Y2673*
X1426Y2673*
X1423Y2676*
X1410Y2703*
X1416Y2709*
X1420Y2717*
X1422Y2725*
X1390*
Y2735*
X1422*
X1420Y2742*
X1416Y2750*
X1410Y2756*
X1409Y2757*
X1415Y2787*
X1432*
Y2808*
X1433Y2808*
X1435Y2808*
X1437Y2809*
X1439Y2809*
X1440Y2810*
X1442Y2811*
X1444Y2812*
X1446Y2813*
X1447Y2815*
X1449Y2816*
X1473Y2840*
X1481Y2842*
X1511Y2819*
Y2792*
X1545*
Y2828*
X1555*
Y2792*
X1587*
X1588*
X1618Y2801*
X1626Y2797*
X1635Y2795*
Y2830*
X1640*
Y2835*
X1674*
X1672Y2843*
X1668Y2851*
X1661Y2858*
X1656Y2861*
X1652Y2867*
X1646Y2890*
X1646Y2894*
X1692Y2940*
X1718Y2925*
X1719Y2925*
X1755*
Y2960*
X1754Y2961*
X1739Y2987*
X1741Y2988*
X1746Y2994*
X1749Y3002*
X1750Y3010*
Y3088*
X1749Y3096*
X1746Y3103*
X1742Y3107*
Y3152*
X1746Y3156*
X1749Y3163*
X1750Y3171*
Y3234*
X1780Y3234*
X1782Y3224*
X1787Y3215*
X1795Y3207*
X1802Y3203*
X1804Y3202*
X1804Y3202*
X1809Y3201*
X1805Y3171*
X1783*
Y3135*
X1851*
Y3171*
X1834*
X1830Y3201*
X1835Y3202*
X1835Y3202*
X1837Y3203*
X1844Y3207*
X1852Y3215*
X1857Y3224*
X1860Y3234*
Y3235*
X1820*
Y3245*
X1860*
Y3245*
X1857Y3255*
X1852Y3264*
X1844Y3272*
X1835Y3277*
X1832Y3278*
X1820Y3304*
X1820Y3307*
X1832Y3327*
X1840*
X1851Y3328*
X1872*
X1878Y3323*
X1885Y3320*
X1893Y3319*
X1988*
X1990Y3320*
X1992*
X1993Y3320*
X1995Y3320*
X1997Y3321*
X1999Y3322*
X2001Y3323*
X2003Y3323*
X2004Y3325*
X2006Y3325*
X2007Y3327*
X2009Y3328*
X2010Y3329*
X2030*
X2033Y3330*
X2036*
X2040Y3330*
X2043Y3331*
X2047Y3332*
X2050Y3332*
X2053Y3334*
X2056Y3335*
X2059Y3336*
X2063Y3337*
X2066Y3339*
X2069Y3341*
X2071Y3343*
X2074Y3345*
X2077Y3348*
X2079Y3350*
X2081Y3352*
X2084Y3355*
X2086Y3358*
X2088Y3360*
X2090Y3363*
X2092Y3366*
X2093Y3370*
X2094Y3373*
X2095Y3376*
X2097Y3379*
X2097Y3382*
X2098Y3386*
X2099Y3389*
X2100Y3393*
Y3396*
X2100Y3400*
X2100Y3403*
Y3406*
X2099Y3410*
X2098Y3413*
X2097Y3417*
X2097Y3420*
X2095Y3423*
X2094Y3426*
X2093Y3429*
X2092Y3433*
X2090Y3436*
X2088Y3439*
X2086Y3441*
X2084Y3444*
X2081Y3447*
X2079Y3449*
X2077Y3451*
X2074Y3454*
X2071Y3456*
X2069Y3458*
X2066Y3460*
X2063Y3462*
X2059Y3463*
X2056Y3464*
X2053Y3465*
X2050Y3467*
X2047Y3467*
X2043Y3468*
X2040Y3469*
X2036Y3470*
X2033*
X2030Y3470*
X2010*
X2009Y3471*
X2007Y3472*
X2006Y3474*
X2004Y3475*
X2003Y3476*
X2001Y3476*
X1999Y3477*
X1997Y3478*
X1995Y3479*
X1993Y3479*
X1992Y3480*
X1990*
X1988Y3480*
X1893*
X1885Y3479*
X1878Y3476*
X1871Y3471*
X1871Y3470*
X1842*
X1828Y3468*
X1824Y3467*
X1810*
X1808Y3471*
X1801Y3476*
X1794Y3479*
X1786Y3480*
X1703*
X1695Y3479*
X1688Y3476*
X1681Y3471*
X1679Y3467*
X1650*
X1638Y3466*
X1621*
X1618Y3471*
X1611Y3476*
X1604Y3479*
X1596Y3480*
X1590*
X1582Y3479*
X1574Y3476*
X1568Y3471*
X1400Y3303*
X1370Y3315*
Y3450*
X1431Y3512*
X1840*
X1851Y3513*
X1903*
Y3552*
X1904Y3555*
X1908Y3568*
X1910Y3582*
X1908Y3596*
X1904Y3609*
X1903Y3612*
Y3651*
X1851*
X1840Y3652*
X1402*
X1388Y3651*
X1375Y3647*
X1363Y3641*
X1352Y3632*
X1250Y3529*
X1241Y3519*
X1235Y3506*
X1231Y3493*
X1229Y3480*
Y3446*
X1200Y3445*
X1197Y3455*
X1192Y3464*
X1184Y3472*
X1175Y3477*
X1165Y3480*
X1165*
Y3440*
Y3400*
X1165*
X1175Y3402*
X1184Y3407*
X1192Y3415*
X1197Y3424*
X1200Y3434*
X1229Y3433*
Y3264*
X1231Y3251*
X1235Y3237*
X1241Y3225*
X1250Y3214*
X1260Y3206*
X1273Y3199*
X1286Y3195*
X1300Y3194*
X1313Y3195*
X1326Y3199*
X1339Y3206*
X1349Y3214*
X1379Y3204*
Y2922*
X1346Y2889*
X1345Y2887*
X1343Y2886*
X1342Y2884*
X1341Y2882*
X1340Y2880*
X1339Y2879*
X1339Y2877*
X1338Y2875*
X1338Y2873*
X1337Y2871*
Y2869*
X1337Y2867*
X1337Y2865*
Y2863*
X1338Y2861*
X1338Y2859*
X1339Y2857*
X1339Y2856*
X1341Y2851*
X1342Y2849*
X1343Y2847*
X1344Y2846*
X1345Y2844*
X1339Y2816*
X1118Y2594*
X1090Y2606*
Y2717*
X1120Y2726*
X1122Y2724*
X1125Y2720*
X1127Y2715*
X1135Y2707*
X1144Y2702*
X1154Y2700*
X1155*
Y2740*
Y2780*
X1154*
X1144Y2777*
X1135Y2772*
X1127Y2764*
X1122Y2755*
X1120Y2753*
X1090Y2762*
Y2937*
X1120Y2946*
X1122Y2944*
X1125Y2940*
X1127Y2935*
X1135Y2927*
X1144Y2922*
X1154Y2920*
X1155*
Y2960*
Y3000*
X1154*
X1144Y2997*
X1135Y2992*
X1127Y2984*
X1122Y2975*
X1120Y2973*
X1090Y2982*
Y3157*
X1120Y3166*
X1122Y3164*
X1125Y3160*
X1127Y3155*
X1135Y3147*
X1144Y3142*
X1154Y3140*
X1155*
Y3180*
Y3220*
X1154*
X1144Y3217*
X1135Y3212*
X1127Y3204*
X1122Y3195*
X1120Y3193*
X1090Y3202*
Y3432*
X1120Y3434*
X1122Y3424*
X1127Y3415*
X1135Y3407*
X1144Y3402*
X1154Y3400*
X1155*
Y3440*
Y3480*
X1154*
X1144Y3477*
X1135Y3472*
X1127Y3464*
X1122Y3455*
X1120Y3445*
X1090Y3447*
Y3657*
X1120Y3666*
X1122Y3664*
X1125Y3660*
X1127Y3655*
X1135Y3647*
X1144Y3642*
X1154Y3640*
X1155*
Y3680*
Y3720*
X1154*
X1144Y3717*
X1135Y3712*
X1127Y3704*
X1122Y3695*
X1120Y3693*
X1090Y3702*
Y3912*
X1120Y3914*
X1122Y3904*
X1127Y3895*
X1135Y3887*
X1144Y3882*
X1154Y3880*
X1155*
Y3920*
Y3960*
X1154*
X1144Y3957*
X1135Y3952*
X1127Y3944*
X1122Y3935*
X1120Y3925*
X1090Y3927*
Y4152*
X1120Y4154*
X1122Y4144*
X1127Y4135*
X1135Y4127*
X1144Y4122*
X1154Y4120*
X1155*
Y4160*
Y4200*
X1154*
X1144Y4197*
X1135Y4192*
X1127Y4184*
X1122Y4175*
X1120Y4165*
X1090Y4167*
Y4377*
X1120Y4386*
X1122Y4384*
X1125Y4380*
X1127Y4375*
X1135Y4367*
X1144Y4362*
X1154Y4360*
X1155*
Y4400*
Y4440*
X1154*
X1144Y4437*
X1135Y4432*
X1127Y4424*
X1122Y4415*
X1120Y4413*
X1090Y4422*
Y4577*
X1120Y4586*
X1122Y4584*
X1125Y4580*
X1127Y4575*
X1135Y4567*
X1144Y4562*
X1154Y4560*
X1155*
Y4600*
Y4640*
X1154*
X1144Y4637*
X1135Y4632*
X1127Y4624*
X1122Y4615*
X1120Y4613*
X1090Y4622*
Y4717*
X1109Y4727*
X1120Y4730*
X1133Y4721*
X1149Y4713*
X1167Y4707*
X1185Y4704*
X1204*
X1222Y4707*
X1240Y4713*
X1257Y4721*
X1272Y4732*
X1285Y4745*
X1296Y4760*
X1304Y4777*
X1309Y4792*
X1310Y4795*
X1340Y4794*
X1342Y4784*
X1347Y4775*
X1355Y4767*
X1364Y4762*
X1374Y4760*
X1375*
Y4800*
Y4840*
X1374*
X1364Y4837*
X1355Y4832*
X1347Y4824*
X1342Y4815*
X1313Y4822*
Y4825*
Y4832*
X1310Y4850*
X1304Y4868*
X1296Y4884*
X1289Y4894*
X1295Y4913*
X1303Y4924*
X5885*
X5892Y4918*
X5906Y4896*
X5941*
Y4886*
X5906*
X5908Y4877*
X5913Y4869*
X5919Y4863*
X5927Y4858*
X5936Y4856*
X5938*
X5947Y4855*
X5963Y4835*
X5965Y4806*
X5964Y4805*
X5963Y4804*
X5961Y4802*
X5960Y4800*
X5959Y4799*
X5959Y4798*
X5958Y4795*
X5957Y4792*
X5957Y4791*
X5956Y4790*
X5956Y4787*
X5956Y4785*
X5956Y4783*
X5956Y4782*
X5956Y4780*
X5957Y4777*
X5957Y4776*
X5957Y4775*
X5957Y4775*
X5957Y4774*
X5956Y4772*
X5955Y4770*
X5955Y4768*
X5954Y4766*
X5954Y4764*
X5953Y4762*
X5953Y4760*
X5953Y4759*
X5953Y4757*
X5953Y4754*
X5954Y4753*
X5954Y4751*
X5955Y4749*
X5955Y4747*
X5956Y4745*
X5957Y4743*
X5958Y4742*
X5959Y4740*
X5961Y4739*
X5962Y4737*
X5963Y4736*
Y4705*
Y4683*
X5962Y4682*
X5961Y4680*
X5959Y4679*
X5958Y4677*
X5957Y4676*
X5956Y4674*
X5955Y4672*
X5955Y4670*
X5954Y4668*
X5954Y4666*
X5953Y4665*
X5953Y4662*
X5953Y4660*
X5953Y4659*
X5953Y4657*
X5954Y4655*
X5954Y4653*
X5955Y4651*
X5955Y4649*
X5956Y4647*
X5957Y4645*
X5958Y4644*
X5959Y4642*
X5960Y4641*
X5959Y4639*
X5959Y4638*
X5959Y4637*
X5959Y4634*
X5958Y4631*
X5958Y4630*
X5958Y4629*
X5959Y4626*
X5959Y4623*
X5960Y4622*
X5960Y4621*
X5961Y4620*
X5960Y4616*
Y4603*
X5963Y4590*
X5969Y4579*
X5979Y4569*
X5990Y4563*
X6003Y4560*
X6016*
X6029Y4563*
X6040Y4569*
X6050Y4579*
X6056Y4590*
X6060Y4603*
Y4616*
X6058Y4620*
X6059Y4621*
X6059Y4622*
X6060Y4623*
X6060Y4626*
X6061Y4629*
X6061Y4630*
X6061Y4631*
X6060Y4634*
X6060Y4637*
X6060Y4638*
X6060Y4639*
X6059Y4641*
X6060Y4642*
X6061Y4644*
X6062Y4645*
X6063Y4647*
X6064Y4649*
X6064Y4651*
X6065Y4653*
X6065Y4655*
X6066Y4657*
X6066Y4659*
X6066Y4660*
X6066Y4662*
X6066Y4665*
X6065Y4666*
X6065Y4668*
X6064Y4670*
X6064Y4672*
X6063Y4674*
X6062Y4676*
X6061Y4677*
X6060Y4679*
X6059Y4680*
X6057Y4682*
X6056Y4683*
Y4705*
Y4736*
X6057Y4737*
X6059Y4739*
X6060Y4740*
X6061Y4742*
X6062Y4743*
X6063Y4745*
X6064Y4747*
X6064Y4749*
X6065Y4751*
X6065Y4753*
X6066Y4754*
X6066Y4757*
X6066Y4759*
X6066Y4760*
X6066Y4762*
X6065Y4764*
X6065Y4766*
X6064Y4768*
X6064Y4770*
X6063Y4772*
X6062Y4774*
X6062Y4775*
X6062Y4775*
X6062Y4776*
X6062Y4777*
X6063Y4780*
X6063Y4782*
X6063Y4783*
X6063Y4785*
X6063Y4787*
X6063Y4790*
X6062Y4791*
X6062Y4792*
X6061Y4795*
X6060Y4798*
X6060Y4799*
X6059Y4800*
X6058Y4802*
X6056Y4804*
X6055Y4805*
X6054Y4806*
X6053Y4807*
Y4852*
X6043Y4878*
Y4886*
X6010*
Y4896*
X6043*
Y4924*
X6088*
X6099Y4910*
X6106Y4894*
X6105Y4887*
Y4887*
X6147*
X6189*
Y4887*
X6188Y4894*
X6195Y4910*
X6205Y4924*
X6280*
Y4829*
X6385*
Y4924*
X6677*
X6685Y4913*
G37*
G36*
X6025Y4785D02*
X6033D01*
X6031Y4784*
X6030Y4783*
X6029Y4782*
X6028Y4780*
X6027Y4777*
X6026Y4774*
X6026Y4773*
X6026Y4769*
X6027Y4766*
X6029Y4763*
X6030Y4761*
X6032Y4760*
X6034Y4759*
X6036Y4759*
X6025*
X6025Y4755*
X5995*
X5994Y4759*
X5983*
X5985Y4759*
X5987Y4760*
X5989Y4761*
X5990Y4763*
X5992Y4766*
X5993Y4769*
X5993Y4773*
X5993Y4774*
X5992Y4777*
X5991Y4780*
X5990Y4782*
X5989Y4783*
X5988Y4784*
X5986Y4785*
X5994*
X5995Y4789*
X6025*
X6025Y4785*
G37*
G36*
X6034Y4660D02*
X6032Y4659D01*
X6030Y4658*
X6029Y4656*
X6027Y4653*
X6026Y4650*
X6026Y4646*
X6025Y4643*
X6025Y4642*
X6026Y4640*
X6027Y4637*
X6027Y4635*
X6028Y4634*
X6029Y4632*
X6031Y4631*
X6025*
X6025Y4630*
X5995*
X5994Y4631*
X5989*
X5990Y4632*
X5991Y4634*
X5992Y4635*
X5992Y4637*
X5993Y4640*
X5994Y4642*
X5994Y4643*
X5993Y4646*
X5993Y4650*
X5992Y4653*
X5990Y4656*
X5989Y4658*
X5987Y4659*
X5985Y4660*
X5983Y4660*
X6036*
X6034Y4660*
G37*
G36*
X5940Y4380D02*
Y4240D01*
X5921Y4221*
X5916Y4223*
Y4249*
X5885*
Y4222*
X5880*
Y4217*
X5843*
Y4210*
X5810*
X5770Y4170*
Y3890*
X4810Y2930*
X4520*
X4490Y2960*
Y3040*
X4520Y3070*
X4720*
X5120Y3470*
Y3750*
X5770Y4400*
X5920*
X5940Y4380*
G37*
G36*
X6124Y4465D02*
X6121Y4463D01*
X6113Y4455*
X6107Y4445*
X6105Y4435*
Y4434*
X6147*
Y4429*
X6152*
Y4386*
X6153*
X6163Y4389*
X6173Y4395*
X6181Y4403*
X6185Y4409*
X6190Y4408*
Y4330*
X6070Y4210*
X6036*
Y4217*
X6000*
Y4222*
X5995*
Y4249*
X5970*
Y4287*
X5991*
Y4330*
X5996*
X5991*
Y4372*
X5970*
Y4380*
X5970Y4381*
Y4390*
X6050Y4470*
X6122*
X6124Y4465*
G37*
G36*
X6024Y4140D02*
X6023Y4139D01*
X6021Y4137*
X6020Y4135*
X6019Y4132*
X6018Y4128*
X6018Y4123*
X6017Y4112*
X6017Y4105*
X5982*
X5982Y4112*
X5981Y4128*
X5980Y4132*
X5979Y4135*
X5978Y4137*
X5976Y4139*
X5975Y4140*
X5973Y4140*
X6026*
X6024Y4140*
G37*
G36*
X5904D02*
X5903Y4139D01*
X5901Y4137*
X5900Y4135*
X5899Y4132*
X5898Y4128*
X5898Y4123*
X5897Y4112*
X5897Y4105*
X5862*
X5862Y4112*
X5861Y4128*
X5860Y4132*
X5859Y4135*
X5858Y4137*
X5856Y4139*
X5855Y4140*
X5853Y4140*
X5906*
X5904Y4140*
G37*
G36*
X6700Y4290D02*
Y4140D01*
X6660Y4100*
X6120*
X6090Y4130*
Y4170*
X6140Y4210*
X6170Y4240*
X6250Y4320*
X6670*
X6700Y4290*
G37*
G36*
X6191Y3896D02*
X6190Y3895D01*
X6188Y3893*
X6188Y3892*
X6187Y3890*
X6186Y3889*
X6186Y3888*
X6185Y3887*
X6185Y3886*
X6185Y3886*
X6189Y3882*
X6186Y3882*
X6180Y3882*
X6179Y3882*
X6179Y3882*
X6178Y3883*
X6178Y3883*
X6179Y3883*
X6172Y3890*
X6171Y3890*
X6171Y3890*
X6171Y3890*
X6170Y3891*
X6170Y3892*
X6170Y3893*
X6170Y3896*
X6170Y3900*
X6174Y3897*
X6175Y3897*
X6176Y3897*
X6177Y3898*
X6178Y3898*
X6179Y3899*
X6180Y3899*
X6181Y3900*
X6183Y3902*
X6184Y3903*
X6191Y3896*
G37*
G36*
X6162Y3871D02*
X6162Y3872D01*
X6161Y3873*
X6160Y3874*
X6159Y3875*
X6157Y3875*
X6155Y3876*
X6152Y3876*
X6149Y3877*
X6142Y3877*
Y3897*
X6146Y3897*
X6149Y3897*
X6152Y3898*
X6155Y3898*
X6157Y3899*
X6159Y3900*
X6161Y3902*
X6162Y3903*
X6162Y3905*
X6162Y3907*
X6162Y3871*
G37*
G36*
X6106Y3905D02*
X6107Y3903D01*
X6108Y3902*
X6109Y3900*
X6111Y3899*
X6113Y3898*
X6116Y3898*
X6119Y3897*
X6123Y3897*
X6126Y3897*
Y3877*
X6123Y3877*
X6119Y3876*
X6116Y3876*
X6113Y3875*
X6111Y3874*
X6109Y3873*
X6108Y3872*
X6107Y3870*
X6106Y3869*
X6106Y3867*
Y3907*
X6106Y3905*
G37*
G36*
X6151Y3730D02*
X6150Y3731D01*
X6150Y3733*
X6149Y3735*
X6147Y3736*
X6146Y3737*
X6143Y3738*
X6141Y3739*
X6138Y3739*
X6134Y3739*
X6130Y3740*
Y3760*
X6134Y3760*
X6138Y3760*
X6141Y3760*
X6143Y3761*
X6146Y3762*
X6147Y3763*
X6149Y3764*
X6150Y3766*
X6150Y3768*
X6151Y3770*
Y3730*
G37*
G36*
X5889Y3768D02*
X5889Y3766D01*
X5890Y3764*
X5892Y3763*
X5894Y3762*
X5896Y3761*
X5898Y3760*
X5901Y3760*
X5905Y3760*
X5909Y3760*
Y3740*
X5905Y3739*
X5901Y3739*
X5898Y3739*
X5896Y3738*
X5894Y3737*
X5892Y3736*
X5890Y3735*
X5889Y3733*
X5889Y3731*
X5889Y3730*
Y3770*
X5889Y3768*
G37*
G36*
X6151Y3652D02*
X6150Y3654D01*
X6150Y3656*
X6149Y3657*
X6147Y3659*
X6146Y3660*
X6143Y3661*
X6141Y3661*
X6138Y3662*
X6134Y3662*
X6130Y3662*
Y3682*
X6134Y3682*
X6138Y3683*
X6141Y3683*
X6143Y3684*
X6146Y3685*
X6147Y3686*
X6149Y3687*
X6150Y3689*
X6150Y3690*
X6151Y3692*
Y3652*
G37*
G36*
X6106Y3690D02*
X6107Y3689D01*
X6108Y3687*
X6109Y3686*
X6111Y3685*
X6113Y3684*
X6116Y3683*
X6119Y3683*
X6123Y3682*
X6126Y3682*
Y3662*
X6123Y3662*
X6119Y3662*
X6116Y3661*
X6113Y3661*
X6111Y3660*
X6109Y3659*
X6108Y3657*
X6107Y3656*
X6106Y3654*
X6106Y3652*
Y3692*
X6106Y3690*
G37*
G36*
X5933Y3652D02*
X5933Y3654D01*
X5932Y3656*
X5931Y3657*
X5930Y3659*
X5928Y3660*
X5926Y3661*
X5923Y3661*
X5920Y3662*
X5916Y3662*
X5913Y3662*
Y3682*
X5916Y3682*
X5920Y3683*
X5923Y3683*
X5926Y3684*
X5928Y3685*
X5930Y3686*
X5931Y3687*
X5932Y3689*
X5933Y3690*
X5933Y3692*
Y3652*
G37*
G36*
X5889Y3690D02*
X5889Y3689D01*
X5890Y3687*
X5892Y3686*
X5894Y3685*
X5896Y3684*
X5898Y3683*
X5901Y3683*
X5905Y3682*
X5909Y3682*
Y3662*
X5905Y3662*
X5901Y3662*
X5898Y3661*
X5896Y3661*
X5894Y3660*
X5892Y3659*
X5890Y3657*
X5889Y3656*
X5889Y3654*
X5889Y3652*
Y3692*
X5889Y3690*
G37*
G36*
X6000Y3610D02*
X6001Y3610D01*
X6001Y3610*
X6003Y3610*
X6008Y3610*
X6010*
Y3590*
X6000Y3589*
Y3610*
X6000Y3610*
G37*
G36*
X5475Y3489D02*
X5475Y3489D01*
X5475Y3488*
X5476Y3487*
X5480Y3484*
X5481Y3482*
X5467Y3468*
X5460Y3475*
X5475Y3489*
X5475Y3489*
G37*
G36*
X1990Y3445D02*
X1983Y3438D01*
X1976Y3428*
X1972Y3417*
X1970Y3405*
Y3405*
X2030*
Y3395*
X1970*
Y3394*
X1972Y3382*
X1976Y3371*
X1983Y3361*
X1990Y3355*
X1988Y3350*
X1893*
Y3392*
X1840*
X1786*
Y3338*
X1791*
X1793Y3333*
X1720Y3260*
Y3171*
X1665*
Y3130*
Y3088*
X1720*
Y3010*
X1593Y2883*
X1588Y2885*
Y2886*
X1550*
X1511*
Y2880*
X1470*
X1427Y2837*
X1422Y2839*
Y2862*
X1395*
Y2830*
X1385*
Y2862*
X1369*
X1367Y2867*
X1410Y2910*
Y3270*
X1590Y3450*
X1596*
Y3402*
X1650*
X1703*
Y3450*
X1786*
Y3402*
X1840*
X1893*
Y3450*
X1988*
X1990Y3445*
G37*
G36*
X6594Y3349D02*
X6596Y3350D01*
X6599Y3351*
X6601Y3352*
X6603Y3353*
X6604Y3354*
Y3305*
X6603Y3306*
X6601Y3307*
X6599Y3308*
X6596Y3309*
X6594Y3310*
Y3294*
X6590Y3298*
X6584Y3301*
X6577Y3303*
X6568Y3306*
X6557Y3308*
X6545Y3309*
X6517Y3311*
X6483Y3312*
Y3347*
X6501Y3347*
X6557Y3351*
X6568Y3353*
X6577Y3356*
X6584Y3358*
X6590Y3361*
X6594Y3365*
Y3349*
G37*
G36*
X6379Y3354D02*
X6380Y3353D01*
X6382Y3351*
X6384Y3350*
X6387Y3349*
X6391Y3348*
X6396Y3348*
X6407Y3347*
X6414Y3347*
Y3312*
X6407Y3312*
X6391Y3311*
X6387Y3310*
X6384Y3309*
X6382Y3308*
X6380Y3306*
X6379Y3305*
X6379Y3303*
Y3356*
X6379Y3354*
G37*
G36*
X6312Y3303D02*
X6311Y3302D01*
X6310Y3301*
X6309Y3300*
X6309Y3298*
X6308Y3296*
X6308Y3293*
X6307Y3290*
X6307Y3283*
X6287*
X6287Y3287*
X6286Y3293*
X6286Y3296*
X6285Y3298*
X6285Y3300*
X6284Y3301*
X6283Y3302*
X6282Y3303*
X6280Y3303*
X6314*
X6312Y3303*
G37*
G36*
X5325Y3258D02*
X5325Y3258D01*
X5325Y3257*
X5325Y3256*
X5326Y3255*
X5327Y3254*
X5327Y3253*
X5328Y3252*
X5330Y3249*
X5320Y3239*
X5319Y3240*
X5316Y3242*
X5315Y3242*
X5314Y3243*
X5313Y3244*
X5312Y3244*
X5311Y3244*
X5311Y3244*
X5310Y3245*
X5325Y3259*
X5325Y3258*
G37*
G36*
X5435Y3228D02*
X5435Y3228D01*
X5435Y3227*
X5435Y3226*
X5436Y3225*
X5437Y3224*
X5437Y3223*
X5438Y3222*
X5440Y3219*
X5430Y3209*
X5429Y3210*
X5426Y3212*
X5425Y3212*
X5424Y3213*
X5423Y3214*
X5422Y3214*
X5421Y3214*
X5421Y3214*
X5420Y3215*
X5435Y3229*
X5435Y3228*
G37*
G36*
X6633Y3076D02*
X6632Y3075D01*
X6631Y3074*
X6631Y3073*
X6630Y3071*
X6629Y3069*
X6629Y3067*
X6628Y3063*
X6627Y3057*
X6607Y3077*
X6610Y3077*
X6617Y3079*
X6619Y3079*
X6621Y3080*
X6623Y3081*
X6624Y3081*
X6625Y3082*
X6626Y3083*
X6633Y3076*
G37*
G36*
X6594Y3044D02*
X6559Y3042D01*
Y3077*
X6566Y3077*
X6572Y3078*
X6577Y3079*
X6582Y3080*
X6586Y3081*
X6589Y3083*
X6591Y3086*
X6593Y3088*
X6594Y3091*
X6594Y3095*
X6594Y3044*
G37*
G36*
X6379Y3084D02*
X6380Y3083D01*
X6382Y3081*
X6384Y3080*
X6387Y3079*
X6391Y3078*
X6396Y3078*
X6407Y3077*
X6414Y3077*
Y3042*
X6407Y3042*
X6391Y3041*
X6387Y3040*
X6384Y3039*
X6382Y3038*
X6380Y3036*
X6379Y3035*
X6379Y3033*
Y3086*
X6379Y3084*
G37*
G36*
X6081Y2987D02*
X6075Y2980D01*
X6060Y2995*
X6060Y2995*
X6060Y2995*
X6061Y2995*
X6062Y2996*
X6065Y3000*
X6067Y3001*
X6081Y2987*
G37*
G36*
X6315Y3010D02*
X6280Y2970D01*
X6279Y2974*
X6278Y2978*
X6276Y2981*
X6274Y2984*
X6271Y2986*
X6267Y2988*
X6262Y2990*
X6257Y2991*
X6251Y2992*
X6245Y2992*
Y3027*
X6251Y3027*
X6257Y3028*
X6262Y3030*
X6267Y3032*
X6271Y3035*
X6274Y3039*
X6276Y3043*
X6278Y3048*
X6279Y3053*
X6280Y3060*
X6315Y3010*
G37*
G36*
X6538Y3021D02*
X6539Y3020D01*
X6539Y3019*
X6542Y3018*
X6544Y3016*
X6545Y3015*
X6546Y3015*
X6549Y3014*
X6551Y3013*
X6552Y3013*
X6553Y3012*
X6556Y3012*
Y2820*
X6557Y2806*
X6561Y2793*
X6566Y2783*
X6575Y2757*
X6560Y2731*
X6318*
X6313Y2734*
X6295Y2755*
Y2764*
X6292Y2773*
X6289Y2778*
X6289Y2782*
X6289Y2782*
X6289Y2782*
X6287Y2786*
X6286Y2789*
X6286Y2789*
X6286Y2790*
X6283Y2792*
X6281Y2795*
X6281Y2796*
X6281Y2796*
X6278Y2798*
X6275Y2800*
X6275Y2800*
X6274Y2801*
X6271Y2802*
X6268Y2804*
X6268Y2804*
X6267Y2804*
X6264Y2804*
X6262Y2806*
X6261Y2806*
X6261Y2806*
X6258Y2807*
X6255Y2809*
X6254Y2809*
X6253Y2809*
X6250Y2809*
X6247Y2810*
X6246Y2810*
X6245Y2810*
X6245*
X6188Y2868*
X6179Y2873*
X6170Y2875*
X6072*
X6064Y2882*
X6057Y2891*
X6055Y2894*
X6053Y2904*
X6054Y2907*
X6056Y2910*
X6056Y2911*
X6056Y2912*
X6056Y2915*
X6057Y2918*
X6063Y2940*
X6075Y2947*
X6081Y2950*
X6082Y2950*
X6083Y2951*
X6084Y2951*
X6087Y2952*
X6090Y2953*
X6090Y2954*
X6091Y2954*
X6093Y2956*
X6096Y2958*
X6096Y2959*
X6097Y2959*
X6103Y2966*
X6105Y2969*
X6107Y2972*
X6107Y2972*
X6108Y2973*
X6109Y2976*
X6110Y2978*
X6124Y2985*
X6128Y2985*
X6143Y2983*
X6151Y2977*
X6160Y2973*
X6169Y2972*
X6222*
X6222Y2971*
X6223Y2971*
X6223Y2971*
X6226Y2969*
X6229Y2966*
X6229Y2966*
X6229Y2966*
X6233Y2964*
X6236Y2963*
X6236Y2963*
X6237Y2963*
X6240Y2962*
X6244Y2962*
X6249Y2962*
X6251Y2961*
X6251Y2960*
X6251Y2960*
X6251Y2959*
X6253Y2956*
X6254Y2953*
X6255Y2952*
X6255Y2952*
X6257Y2950*
X6260Y2947*
X6260Y2947*
X6260Y2946*
X6260Y2946*
Y2923*
X6334*
X6335Y2933*
X6357*
Y2970*
X6367*
Y2933*
X6389*
X6415Y2934*
Y2970*
X6420*
Y2975*
X6454*
X6452Y2983*
X6448Y2991*
X6447Y2992*
X6453Y3016*
X6457Y3022*
X6537*
X6538Y3021*
G37*
G36*
X6026Y2918D02*
X6005D01*
X6005Y2918*
X6006Y2919*
X6006Y2919*
X6006Y2921*
X6006Y2926*
X6006Y2928*
X6026*
X6026Y2918*
G37*
G36*
X5555Y2918D02*
X5556Y2916D01*
X5556Y2915*
X5556Y2914*
X5557Y2912*
X5557Y2911*
X5558Y2910*
X5559Y2909*
X5559Y2908*
X5560Y2907*
X5553Y2900*
X5552Y2901*
X5551Y2901*
X5550Y2902*
X5549Y2903*
X5548Y2903*
X5546Y2904*
X5545Y2904*
X5544Y2904*
X5542Y2904*
X5541Y2905*
X5555Y2919*
X5555Y2918*
G37*
G36*
X5876Y2859D02*
X5877Y2858D01*
X5879Y2857*
X5880Y2856*
X5881Y2856*
X5882Y2855*
X5884Y2855*
X5885Y2855*
X5886Y2855*
X5888Y2855*
Y2845*
X5886Y2844*
X5885Y2844*
X5884Y2844*
X5882Y2844*
X5881Y2843*
X5880Y2843*
X5879Y2842*
X5877Y2841*
X5876Y2840*
X5875Y2839*
Y2860*
X5876Y2859*
G37*
G36*
X2643Y2850D02*
X2644Y2850D01*
X2644Y2850*
X2645Y2848*
X2649Y2845*
X2650Y2843*
X2636Y2829*
X2629Y2836*
X2643Y2850*
X2643Y2850*
G37*
G36*
X5774Y2819D02*
X5773Y2820D01*
X5772Y2820*
X5772Y2821*
X5771Y2821*
X5770Y2821*
X5768Y2822*
X5767Y2822*
X5766Y2822*
X5763Y2822*
Y2837*
X5764Y2837*
X5767Y2837*
X5768Y2837*
X5770Y2838*
X5771Y2838*
X5772Y2838*
X5772Y2839*
X5773Y2839*
X5774Y2840*
Y2819*
G37*
G36*
X6248Y2778D02*
X6249Y2778D01*
X6250Y2777*
X6251Y2776*
X6252Y2776*
X6254Y2775*
X6255Y2775*
X6256Y2775*
X6258Y2775*
X6259Y2775*
X6245Y2760*
X6244Y2761*
X6244Y2763*
X6244Y2764*
X6244Y2765*
X6243Y2767*
X6243Y2768*
X6242Y2769*
X6241Y2770*
X6241Y2771*
X6240Y2772*
X6247Y2779*
X6248Y2778*
G37*
G36*
X1470Y2600D02*
X1501D01*
Y2596*
X1511*
Y2583*
X1550*
Y2578*
X1555*
Y2542*
X1580*
Y2260*
X1680Y2160*
X1743*
Y2154*
X1795*
Y2149*
X1800*
Y2120*
X1848*
Y2145*
X1852Y2147*
X1860Y2140*
Y1951*
X1795*
Y1910*
Y1868*
X1860*
Y1850*
X1840Y1830*
X1430*
X1300Y1700*
Y1620*
X1333Y1586*
Y1575*
X1343*
Y1567*
X1380*
Y1557*
X1343*
Y1530*
Y1529*
Y1507*
X1380*
Y1497*
X1343*
Y1490*
X1290*
X1240Y1540*
Y1760*
X1368Y1888*
X1373Y1886*
Y1868*
X1457*
Y1910*
Y1951*
X1375*
X1373*
X1370Y1955*
Y2238*
X1433*
Y2280*
Y2321*
X1370*
Y2440*
X1350Y2460*
Y2639*
X1353Y2642*
X1354Y2642*
X1357Y2637*
X1357Y2635*
X1390*
X1422*
X1422Y2637*
X1425Y2642*
X1426Y2643*
X1470Y2600*
G37*
G36*
X6780Y2616D02*
X6782Y2615D01*
X6784Y2614*
X6787Y2613*
X6790Y2612*
X6793Y2611*
X6797Y2611*
X6805Y2610*
X6809Y2610*
X6779Y2580*
X6779Y2584*
X6778Y2592*
X6778Y2596*
X6777Y2599*
X6776Y2602*
X6775Y2605*
X6774Y2607*
X6773Y2609*
X6771Y2611*
X6778Y2618*
X6780Y2616*
G37*
G36*
X5805Y2509D02*
X5805Y2507D01*
X5805Y2506*
X5805Y2505*
X5806Y2503*
X5806Y2502*
X5807Y2501*
X5808Y2500*
X5808Y2499*
X5809Y2498*
X5802Y2491*
X5801Y2491*
X5800Y2492*
X5799Y2493*
X5798Y2494*
X5797Y2494*
X5795Y2495*
X5794Y2495*
X5793Y2495*
X5791Y2495*
X5790Y2495*
X5805Y2510*
X5805Y2509*
G37*
G36*
X6780Y2516D02*
X6782Y2515D01*
X6784Y2514*
X6787Y2513*
X6790Y2512*
X6793Y2511*
X6797Y2511*
X6805Y2510*
X6809Y2510*
X6779Y2480*
X6779Y2484*
X6778Y2492*
X6778Y2496*
X6777Y2499*
X6776Y2502*
X6775Y2505*
X6774Y2507*
X6773Y2509*
X6771Y2511*
X6778Y2518*
X6780Y2516*
G37*
G36*
X5755Y2488D02*
X5755Y2486D01*
X5755Y2485*
X5755Y2484*
X5756Y2482*
X5756Y2481*
X5757Y2480*
X5758Y2479*
X5758Y2478*
X5759Y2477*
X5752Y2470*
X5751Y2471*
X5750Y2471*
X5749Y2472*
X5748Y2473*
X5747Y2473*
X5745Y2474*
X5744Y2474*
X5743Y2474*
X5741Y2474*
X5740Y2475*
X5755Y2489*
X5755Y2488*
G37*
G36*
X2058Y2527D02*
X2056Y2524D01*
X2054Y2519*
X2053Y2512*
X2051Y2503*
X2049Y2479*
X2048Y2447*
X2048Y2428*
X1948*
X1948Y2447*
X1943Y2512*
X1942Y2519*
X1940Y2524*
X1938Y2527*
X1935Y2528*
X2061*
X2058Y2527*
G37*
G36*
X6781Y2415D02*
X6784Y2412D01*
X6786Y2411*
X6788Y2410*
X6789Y2410*
X6790Y2409*
X6791Y2409*
X6792Y2410*
X6793Y2410*
X6779Y2396*
X6779Y2397*
X6780Y2398*
X6780Y2399*
X6779Y2400*
X6779Y2401*
X6778Y2403*
X6777Y2405*
X6775Y2406*
X6772Y2410*
X6779Y2417*
X6781Y2415*
G37*
G36*
X5880Y2404D02*
X5880Y2404D01*
X5880Y2403*
X5881Y2402*
X5885Y2399*
X5886Y2397*
X5872Y2383*
X5865Y2390*
X5880Y2404*
X5880Y2404*
G37*
G36*
X1341Y2728D02*
X1358Y2720D01*
X1359Y2717*
X1363Y2709*
X1358Y2681*
X1355Y2676*
X1352Y2673*
X1351Y2672*
X1349Y2672*
X1348Y2672*
X1347Y2672*
X1344Y2671*
X1344Y2671*
X1343Y2671*
X1342Y2670*
X1340Y2670*
X1339Y2669*
X1337Y2668*
X1337Y2668*
X1337Y2667*
X1335Y2666*
X1334Y2665*
X1333Y2665*
X1329Y2661*
X1329Y2661*
X1328Y2660*
X1326Y2658*
X1324Y2655*
X1324Y2655*
X1323Y2654*
X1322Y2651*
X1321Y2648*
X1321Y2647*
X1320Y2647*
X1320Y2643*
X1319Y2640*
X1319Y2640*
X1319Y2639*
Y2460*
X1320Y2452*
X1323Y2444*
X1328Y2438*
X1339Y2427*
Y2333*
X1314Y2321*
X1310*
X1309Y2322*
X1294Y2350*
X1299Y2360*
X1301Y2372*
Y2373*
X1181*
Y2372*
X1183Y2360*
X1188Y2350*
X1173Y2322*
X1172Y2321*
X1168*
Y2285*
X1241*
Y2280*
X1246*
Y2238*
X1309*
X1314*
X1339Y2226*
Y1955*
X1340Y1951*
X1340Y1948*
X1340Y1948*
X1340Y1947*
X1342Y1944*
X1343Y1941*
X1344Y1938*
X1347Y1923*
X1347Y1923*
X1339Y1916*
X1336Y1914*
X1306Y1931*
Y1951*
X1277*
X1266Y1981*
X1266Y1981*
X1273Y1991*
X1277Y2002*
X1280Y2014*
Y2015*
X1160*
Y2014*
X1162Y2002*
X1166Y1991*
X1173Y1981*
X1173Y1981*
X1162Y1951*
X1129*
X1125Y1979*
Y2529*
X1327Y2730*
X1341Y2728*
G37*
G36*
X5810Y2299D02*
X5810D01*
X5810Y2299*
X5810Y2298*
X5810Y2298*
X5810Y2296*
X5810Y2285*
X5789*
X5789Y2286*
X5789Y2286*
X5789Y2290*
Y2291*
X5789Y2299*
X5789*
X5790Y2305*
X5810*
X5810Y2299*
G37*
G36*
X1988Y2205D02*
X2018D01*
X2018Y2210*
X2017Y2214*
X2016Y2218*
X2015Y2221*
X2014Y2224*
X2013Y2226*
X2012Y2227*
X2036*
X2034Y2226*
X2033Y2224*
X2032Y2221*
X2031Y2218*
X2030Y2214*
X2030Y2210*
X2029Y2205*
X2060*
X2054Y2198*
X2049Y2190*
X2044Y2181*
X2040Y2172*
X2036Y2161*
X2034Y2150*
X2031Y2138*
X2030Y2124*
X2029Y2095*
X2019*
X2018Y2110*
X2016Y2138*
X2014Y2150*
X2011Y2161*
X2007Y2172*
X2003Y2181*
X1999Y2190*
X1994Y2198*
X1988Y2204*
X1984Y2208*
X1982Y2209*
Y2206*
X1981Y2209*
X1981Y2209*
X1978Y2211*
X1971Y2213*
X1962Y2216*
X1951Y2218*
X1939Y2220*
X1911Y2222*
X1877Y2223*
Y2257*
X1895Y2257*
X1951Y2261*
X1962Y2263*
X1971Y2266*
X1978Y2268*
X1981Y2270*
X1981Y2270*
X1982Y2274*
Y2270*
X1984Y2271*
X1988Y2275*
Y2205*
G37*
G36*
X5889Y2227D02*
X5889Y2228D01*
X5888Y2230*
X5887Y2232*
X5886Y2233*
X5884Y2234*
X5882Y2235*
X5879Y2236*
X5876Y2236*
X5874Y2236*
X5873Y2236*
X5870Y2236*
X5867Y2235*
X5865Y2234*
X5863Y2233*
X5862Y2232*
X5861Y2230*
X5860Y2228*
X5860Y2227*
Y2267*
X5860Y2265*
X5861Y2263*
X5862Y2261*
X5863Y2260*
X5865Y2259*
X5867Y2258*
X5870Y2257*
X5873Y2257*
X5874Y2257*
X5876Y2257*
X5879Y2257*
X5882Y2258*
X5884Y2259*
X5886Y2260*
X5887Y2261*
X5888Y2263*
X5889Y2265*
X5889Y2267*
Y2227*
G37*
G36*
X2004Y2267D02*
X2006Y2265D01*
X2008Y2263*
X2011Y2262*
X2013Y2260*
X2015Y2259*
X2018Y2258*
X2020Y2257*
X2023Y2257*
X2026Y2256*
X2007Y2238*
X2006Y2240*
X2006Y2243*
X2005Y2245*
X2004Y2248*
X2003Y2250*
X2002Y2253*
X2000Y2255*
X1998Y2257*
X1996Y2260*
X1994Y2262*
X2001Y2269*
X2004Y2267*
G37*
G36*
X1838Y2258D02*
X1839Y2258D01*
X1841Y2257*
X1843Y2257*
X1859Y2257*
X1872Y2257*
Y2223*
X1838Y2221*
Y2258*
X1838Y2258*
G37*
G36*
X1644Y2382D02*
X1654Y2380D01*
X1659*
X1669Y2362*
X1671Y2351*
X1667Y2343*
X1665Y2335*
X1700*
Y2330*
X1705*
Y2295*
X1710Y2296*
X1722Y2287*
X1733Y2274*
Y2216*
Y2201*
X1708Y2190*
X1692*
X1610Y2272*
Y2370*
X1623Y2379*
X1640Y2385*
X1644Y2382*
G37*
G36*
X2066Y2292D02*
X2068Y2292D01*
X2071Y2291*
X2074Y2291*
X2085Y2290*
X2120Y2290*
Y2190*
X2109Y2189*
X2066Y2187*
X2066Y2186*
Y2293*
X2066Y2292*
G37*
G36*
X1909Y2192D02*
X1936Y2189D01*
X1946Y2188*
X1955Y2186*
X1959Y2185*
X1960Y2184*
X1961Y2183*
Y2156*
X1981*
X1982Y2153*
X1984Y2144*
X1986Y2134*
X1988Y2109*
X1988Y2095*
X1989Y2091*
X1989Y2088*
X1990Y2087*
X1990Y2087*
X1991Y2084*
X1992Y2080*
X1993Y2080*
X1993Y2080*
X1995Y2077*
X1997Y2074*
X1998Y2074*
X1998Y2073*
X2001Y2071*
X2004Y2069*
X2004Y2069*
X2004Y2069*
X2007Y2067*
X2011Y2066*
X2011Y2066*
X2011Y2066*
X2015Y2066*
X2018Y2065*
X2104Y1979*
Y1330*
X2082Y1308*
X2057Y1324*
X2060Y1334*
Y1335*
X2025*
Y1300*
X2025*
X2035Y1302*
X2051Y1277*
X2005Y1231*
X2001Y1228*
X1996Y1226*
X1978Y1231*
X1969Y1237*
Y1291*
X1972Y1295*
X1980Y1299*
X1983Y1300*
X1992Y1303*
X2002Y1303*
X2004Y1302*
X2014Y1300*
X2015*
Y1340*
Y1380*
X2014*
X2004Y1377*
X1995Y1372*
X1987Y1364*
X1982Y1355*
X1974Y1349*
X1971Y1348*
X1962Y1345*
X1950Y1345*
X1872Y1423*
X1870Y1433*
X1887Y1459*
X1890*
X1897Y1460*
X1905Y1463*
X1911Y1468*
X1931Y1488*
X1936Y1494*
X1937Y1497*
X1937Y1498*
X1940Y1500*
X1941Y1500*
X1941Y1500*
X1943Y1503*
X1945Y1506*
X1945Y1506*
X1946Y1506*
X1947Y1510*
X1948Y1513*
X1949Y1513*
X1949Y1514*
X1949Y1517*
X1950Y1521*
X1950Y1522*
X1951Y1524*
X1953Y1527*
X1953Y1527*
X1954Y1527*
X1955Y1531*
X1956Y1534*
X1956Y1534*
X1956Y1535*
X1957Y1538*
X1957Y1542*
X1957Y1542*
X1957Y1543*
X1957Y1546*
X1956Y1549*
X1956Y1550*
X1956Y1550*
X1955Y1554*
X1955Y1554*
Y1565*
X1951Y1577*
X1946Y1587*
X1937Y1596*
X1927Y1601*
X1915Y1605*
X1904*
X1892Y1601*
X1883Y1596*
X1869Y1600*
X1855Y1611*
Y1614*
X1852Y1623*
X1848Y1631*
X1841Y1638*
X1833Y1642*
X1825Y1644*
Y1610*
X1815*
Y1644*
X1806Y1642*
X1798Y1638*
X1791Y1631*
X1787Y1623*
X1774Y1618*
X1761Y1615*
X1755Y1615*
X1752Y1617*
X1745Y1621*
X1736Y1622*
X1663*
X1654Y1621*
X1647Y1617*
X1640Y1612*
X1635Y1606*
X1632Y1598*
X1630Y1590*
X1632Y1581*
X1635Y1573*
X1639Y1565*
X1635Y1556*
X1632Y1548*
X1630Y1540*
X1632Y1531*
X1635Y1523*
X1639Y1515*
X1635Y1506*
X1632Y1498*
X1606Y1484*
X1586Y1487*
X1577Y1498*
X1574Y1506*
X1570Y1515*
X1574Y1523*
X1576Y1528*
X1577Y1531*
X1579Y1540*
X1578Y1558*
Y1621*
X1441*
X1433Y1626*
X1416Y1649*
X1415Y1675*
X1380*
Y1685*
X1414*
X1412Y1693*
X1408Y1701*
X1401Y1708*
X1396Y1711*
X1392Y1717*
X1386Y1740*
X1386Y1744*
X1442Y1799*
X1840*
X1847Y1800*
X1855Y1803*
X1861Y1808*
X1881Y1828*
X1886Y1834*
X1910Y1847*
X1916Y1849*
X1920Y1849*
X1930Y1843*
X1932Y1838*
X1929Y1830*
X1926Y1819*
Y1818*
X2046*
Y1819*
X2044Y1830*
X2041Y1838*
X2045Y1849*
X2057Y1868*
X2059*
Y1905*
X1986*
Y1910*
X1981*
Y1951*
X1920*
X1913*
X1890Y1966*
Y2140*
X1889Y2143*
X1889Y2147*
X1886Y2155*
X1881Y2161*
X1880Y2162*
X1886Y2185*
X1892Y2192*
X1892Y2192*
X1909Y2192*
G37*
G36*
X1222Y1868D02*
X1266D01*
X1277Y1840*
X1218Y1781*
X1213Y1775*
X1210Y1767*
X1209Y1760*
Y1649*
X1196Y1640*
X1179Y1634*
X1175Y1637*
X1165Y1640*
X1165*
Y1600*
Y1560*
X1165*
X1175Y1562*
X1179Y1565*
X1196Y1559*
X1209Y1550*
Y1540*
X1210Y1532*
X1213Y1524*
X1218Y1518*
X1244Y1492*
Y1433*
X1214Y1421*
X1125Y1510*
Y1539*
X1130Y1545*
X1154Y1560*
X1155*
Y1600*
Y1640*
X1154*
X1130Y1654*
X1125Y1660*
Y1840*
X1129Y1868*
X1212*
Y1910*
X1222*
Y1868*
G37*
G36*
X1926Y1540D02*
X1924Y1538D01*
X1923Y1537*
X1922Y1535*
X1921Y1533*
X1921Y1531*
X1920Y1529*
X1920Y1526*
X1920Y1524*
X1920Y1522*
X1900*
X1899Y1524*
X1899Y1526*
X1899Y1529*
X1898Y1531*
X1898Y1533*
X1897Y1535*
X1896Y1537*
X1895Y1538*
X1893Y1540*
X1892Y1542*
X1927*
X1926Y1540*
G37*
G36*
X1740Y1501D02*
X1742Y1500D01*
X1743Y1500*
X1747Y1500*
X1759Y1500*
X1763Y1500*
Y1480*
X1759Y1479*
X1740Y1478*
X1739Y1478*
Y1501*
X1740Y1501*
G37*
G36*
X1826Y1482D02*
X1826Y1481D01*
X1826Y1480*
X1825Y1478*
X1825Y1474*
X1825Y1470*
X1830*
X1829Y1470*
X1828Y1470*
X1827Y1470*
X1826Y1469*
X1826Y1468*
X1825Y1467*
X1825Y1466*
X1825Y1464*
X1825Y1462*
X1825Y1460*
X1815*
X1814Y1462*
X1814Y1464*
X1814Y1466*
X1814Y1467*
X1813Y1468*
X1813Y1469*
X1812Y1470*
X1811Y1470*
X1810Y1470*
X1810Y1470*
X1814*
X1813Y1480*
X1813Y1481*
X1813Y1482*
X1812Y1482*
X1827*
X1826Y1482*
G37*
G36*
X1391Y1429D02*
X1390Y1430D01*
X1389Y1430*
X1388Y1431*
X1387Y1431*
X1386Y1431*
X1385Y1432*
X1384Y1432*
X1382Y1432*
X1380Y1432*
Y1442*
X1381Y1442*
X1384Y1442*
X1385Y1443*
X1386Y1443*
X1387Y1443*
X1388Y1443*
X1389Y1444*
X1390Y1444*
X1391Y1445*
Y1429*
G37*
G36*
X1605Y1405D02*
X1613Y1407D01*
X1621Y1411*
X1635Y1415*
X1647Y1412*
X1654Y1408*
X1663Y1407*
X1736*
X1745Y1408*
X1752Y1412*
X1759Y1417*
X1764Y1423*
X1765Y1426*
X1768Y1428*
X1778Y1430*
X1797Y1428*
X1801Y1421*
X1857Y1366*
X1857Y1365*
X1853Y1349*
X1848Y1340*
X1845Y1336*
X1843Y1335*
X1842Y1335*
X1841Y1335*
X1839Y1334*
X1817Y1332*
X1811Y1332*
X1807Y1332*
X1803Y1331*
X1803Y1331*
X1803Y1331*
X1799Y1330*
X1796Y1328*
X1796Y1328*
X1796Y1328*
X1793Y1326*
X1789Y1323*
X1789Y1323*
X1789Y1323*
X1789Y1323*
X1767*
X1741Y1313*
X1733*
Y1280*
X1723*
Y1313*
X1695*
X1675Y1314*
Y1280*
X1665*
Y1314*
X1664Y1314*
X1634Y1313*
X1617*
X1606*
Y1280*
X1596*
Y1313*
X1588*
X1562Y1323*
X1540*
X1540Y1323*
X1540Y1323*
X1537Y1326*
X1534Y1328*
X1534Y1328*
X1533Y1328*
X1530Y1330*
X1527Y1331*
X1526Y1331*
X1526Y1331*
X1522Y1332*
X1519Y1332*
X1500Y1333*
X1498Y1333*
X1495Y1333*
X1494Y1333*
X1494Y1333*
X1491Y1333*
X1491Y1333*
X1488Y1335*
X1487Y1335*
X1486Y1335*
X1483Y1336*
X1480Y1336*
X1479Y1336*
X1479Y1336*
X1475Y1336*
X1472Y1335*
X1471Y1335*
X1471Y1335*
X1468Y1334*
X1464Y1333*
X1464Y1332*
X1464Y1332*
X1461Y1332*
X1458Y1332*
X1454Y1331*
X1454Y1331*
X1453Y1331*
X1450Y1330*
X1447Y1328*
X1446Y1328*
X1446Y1328*
X1444Y1326*
X1420*
X1418Y1327*
X1417Y1329*
X1415Y1330*
X1414Y1331*
X1412Y1332*
X1410Y1333*
X1409Y1334*
X1407Y1334*
X1405Y1335*
X1403Y1335*
X1402Y1336*
X1401Y1338*
X1399Y1338*
X1398Y1340*
X1396Y1340*
X1394Y1341*
X1392Y1342*
X1390Y1342*
X1388Y1343*
X1386Y1343*
X1384Y1343*
X1383Y1343*
X1382Y1343*
X1368Y1357*
X1373Y1393*
X1383Y1400*
X1386Y1399*
X1389Y1399*
X1390Y1399*
X1391Y1399*
X1394Y1399*
X1397Y1399*
X1398Y1400*
X1399Y1400*
X1400Y1400*
X1426*
Y1419*
X1441Y1424*
X1457Y1424*
X1464Y1419*
X1473Y1417*
X1505*
Y1440*
X1515*
Y1417*
X1546*
X1555Y1419*
X1569Y1418*
X1578Y1411*
X1586Y1407*
X1595Y1405*
Y1440*
X1605*
Y1405*
G37*
G36*
X1937Y1314D02*
X1937Y1312D01*
X1937Y1311*
X1938Y1309*
X1938Y1308*
X1939Y1307*
X1939Y1307*
X1940Y1306*
X1941Y1306*
X1942Y1306*
X1922*
X1923Y1306*
X1924Y1306*
X1925Y1307*
X1925Y1307*
X1926Y1308*
X1926Y1309*
X1927Y1311*
X1927Y1312*
X1927Y1314*
X1927Y1316*
X1937*
X1937Y1314*
G37*
G36*
X1385Y1311D02*
X1389Y1308D01*
X1390Y1307*
X1392Y1306*
X1393Y1306*
X1394Y1305*
X1395Y1305*
X1396Y1305*
X1397Y1306*
X1381Y1294*
X1381Y1295*
X1382Y1296*
X1382Y1297*
X1381Y1298*
X1381Y1299*
X1380Y1301*
X1379Y1303*
X1377Y1304*
X1373Y1309*
X1383Y1313*
X1385Y1311*
G37*
G36*
X1850Y1302D02*
X1867Y1302D01*
Y1257*
X1850Y1256*
Y1253*
X1850Y1254*
X1849Y1254*
X1847Y1255*
X1844Y1256*
X1841Y1256*
X1839Y1256*
X1834Y1256*
Y1256*
X1831Y1257*
X1811Y1257*
Y1302*
X1818Y1302*
X1847Y1304*
X1849Y1305*
X1850Y1305*
X1850Y1306*
Y1302*
G37*
G36*
X1479Y1305D02*
X1480Y1305D01*
X1482Y1304*
X1485Y1303*
X1488Y1303*
X1490Y1303*
X1495Y1303*
Y1303*
X1498Y1302*
X1518Y1302*
Y1257*
X1511Y1257*
X1482Y1255*
X1480Y1254*
X1479Y1254*
X1479Y1253*
Y1257*
X1462Y1257*
Y1302*
X1479Y1303*
Y1306*
X1479Y1305*
G37*
G36*
X1385Y1221D02*
X1389Y1218D01*
X1390Y1217*
X1392Y1216*
X1393Y1216*
X1394Y1215*
X1395Y1215*
X1396Y1215*
X1397Y1216*
X1381Y1204*
X1381Y1205*
X1382Y1206*
X1382Y1207*
X1381Y1208*
X1381Y1209*
X1380Y1211*
X1379Y1213*
X1377Y1214*
X1373Y1219*
X1383Y1223*
X1385Y1221*
G37*
G36*
X1949Y1199D02*
X1949Y1198D01*
X1949Y1197*
X1950Y1196*
X1951Y1196*
X1952Y1195*
X1953Y1195*
X1955Y1195*
X1957Y1195*
X1959Y1195*
Y1185*
X1957Y1184*
X1955Y1184*
X1953Y1184*
X1952Y1184*
X1951Y1183*
X1950Y1183*
X1949Y1182*
X1949Y1181*
X1949Y1180*
X1949Y1180*
Y1200*
X1949Y1199*
G37*
G36*
X1850Y1212D02*
X1867Y1212D01*
Y1167*
X1850Y1166*
Y1163*
X1850Y1164*
X1849Y1164*
X1847Y1165*
X1844Y1166*
X1841Y1166*
X1839Y1166*
X1834Y1166*
Y1166*
X1831Y1167*
X1811Y1167*
Y1212*
X1818Y1212*
X1847Y1214*
X1849Y1215*
X1850Y1215*
X1850Y1216*
Y1212*
G37*
G36*
X1479Y1215D02*
X1480Y1215D01*
X1482Y1214*
X1485Y1213*
X1489Y1213*
X1491Y1213*
X1496Y1213*
Y1213*
X1499Y1212*
X1520Y1212*
Y1167*
X1512Y1167*
X1482Y1165*
X1480Y1164*
X1479Y1164*
X1479Y1163*
Y1167*
X1462Y1167*
Y1212*
X1479Y1212*
Y1216*
X1479Y1215*
G37*
%LNpcb1-2*%
%LPC*%
G36*
X6189Y4877D02*
X6152D01*
Y4839*
X6153*
X6163Y4842*
X6173Y4848*
X6181Y4856*
X6187Y4865*
X6189Y4876*
Y4877*
G37*
G36*
X6142D02*
X6105D01*
Y4876*
X6107Y4865*
X6113Y4856*
X6121Y4848*
X6131Y4842*
X6141Y4839*
X6142*
Y4877*
G37*
G36*
X4365Y4840D02*
X4365D01*
Y4805*
X4400*
Y4805*
X4397Y4815*
X4392Y4824*
X4384Y4832*
X4375Y4837*
X4365Y4840*
G37*
G36*
X4355D02*
X4354D01*
X4344Y4837*
X4335Y4832*
X4327Y4824*
X4322Y4815*
X4320Y4805*
Y4805*
X4355*
Y4840*
G37*
G36*
X4045D02*
X4045D01*
Y4805*
X4080*
Y4805*
X4077Y4815*
X4072Y4824*
X4064Y4832*
X4055Y4837*
X4045Y4840*
G37*
G36*
X4035D02*
X4034D01*
X4024Y4837*
X4015Y4832*
X4007Y4824*
X4002Y4815*
X4000Y4805*
Y4805*
X4035*
Y4840*
G37*
G36*
X3725D02*
X3725D01*
Y4805*
X3760*
Y4805*
X3757Y4815*
X3752Y4824*
X3744Y4832*
X3735Y4837*
X3725Y4840*
G37*
G36*
X3715D02*
X3714D01*
X3704Y4837*
X3695Y4832*
X3687Y4824*
X3682Y4815*
X3680Y4805*
Y4805*
X3715*
Y4840*
G37*
G36*
X3445D02*
X3445D01*
Y4805*
X3480*
Y4805*
X3477Y4815*
X3472Y4824*
X3464Y4832*
X3455Y4837*
X3445Y4840*
G37*
G36*
X3435D02*
X3434D01*
X3424Y4837*
X3415Y4832*
X3407Y4824*
X3402Y4815*
X3400Y4805*
Y4805*
X3435*
Y4840*
G37*
G36*
X3165D02*
X3165D01*
Y4805*
X3200*
Y4805*
X3197Y4815*
X3192Y4824*
X3184Y4832*
X3175Y4837*
X3165Y4840*
G37*
G36*
X3155D02*
X3154D01*
X3144Y4837*
X3135Y4832*
X3127Y4824*
X3122Y4815*
X3120Y4805*
Y4805*
X3155*
Y4840*
G37*
G36*
X2905D02*
X2905D01*
Y4805*
X2940*
Y4805*
X2937Y4815*
X2932Y4824*
X2924Y4832*
X2915Y4837*
X2905Y4840*
G37*
G36*
X2895D02*
X2894D01*
X2884Y4837*
X2875Y4832*
X2867Y4824*
X2862Y4815*
X2860Y4805*
Y4805*
X2895*
Y4840*
G37*
G36*
X2585D02*
X2585D01*
Y4805*
X2620*
Y4805*
X2617Y4815*
X2612Y4824*
X2604Y4832*
X2595Y4837*
X2585Y4840*
G37*
G36*
X2575D02*
X2574D01*
X2564Y4837*
X2555Y4832*
X2547Y4824*
X2542Y4815*
X2540Y4805*
Y4805*
X2575*
Y4840*
G37*
G36*
X2145D02*
X2145D01*
Y4805*
X2180*
Y4805*
X2177Y4815*
X2172Y4824*
X2164Y4832*
X2155Y4837*
X2145Y4840*
G37*
G36*
X2135D02*
X2134D01*
X2124Y4837*
X2115Y4832*
X2107Y4824*
X2102Y4815*
X2100Y4805*
Y4805*
X2135*
Y4840*
G37*
G36*
X1885D02*
X1885D01*
Y4805*
X1920*
Y4805*
X1917Y4815*
X1912Y4824*
X1904Y4832*
X1895Y4837*
X1885Y4840*
G37*
G36*
X1875D02*
X1874D01*
X1864Y4837*
X1855Y4832*
X1847Y4824*
X1842Y4815*
X1840Y4805*
Y4805*
X1875*
Y4840*
G37*
G36*
X1605D02*
X1605D01*
Y4805*
X1640*
Y4805*
X1637Y4815*
X1632Y4824*
X1624Y4832*
X1615Y4837*
X1605Y4840*
G37*
G36*
X1595D02*
X1594D01*
X1584Y4837*
X1575Y4832*
X1567Y4824*
X1562Y4815*
X1560Y4805*
Y4805*
X1595*
Y4840*
G37*
G36*
X1385D02*
X1385D01*
Y4805*
X1420*
Y4805*
X1417Y4815*
X1412Y4824*
X1404Y4832*
X1395Y4837*
X1385Y4840*
G37*
G36*
X6525Y4800D02*
X6525D01*
Y4765*
X6560*
Y4765*
X6557Y4775*
X6552Y4784*
X6544Y4792*
X6535Y4797*
X6525Y4800*
G37*
G36*
X6515D02*
X6514D01*
X6504Y4797*
X6495Y4792*
X6487Y4784*
X6482Y4775*
X6480Y4765*
Y4765*
X6515*
Y4800*
G37*
G36*
X4625Y4854D02*
X4613D01*
X4602Y4851*
X4592Y4845*
X4583Y4837*
X4577Y4827*
X4574Y4815*
Y4803*
X4577Y4792*
X4583Y4782*
X4592Y4773*
X4602Y4767*
X4613Y4764*
X4625*
X4637Y4767*
X4647Y4773*
X4655Y4782*
X4661Y4792*
X4664Y4803*
Y4815*
X4661Y4827*
X4655Y4837*
X4647Y4845*
X4637Y4851*
X4625Y4854*
G37*
G36*
X4400Y4795D02*
X4365D01*
Y4760*
X4365*
X4375Y4762*
X4384Y4767*
X4392Y4775*
X4397Y4784*
X4400Y4794*
Y4795*
G37*
G36*
X4355D02*
X4320D01*
Y4794*
X4322Y4784*
X4327Y4775*
X4335Y4767*
X4344Y4762*
X4354Y4760*
X4355*
Y4795*
G37*
G36*
X4080D02*
X4045D01*
Y4760*
X4045*
X4055Y4762*
X4064Y4767*
X4072Y4775*
X4077Y4784*
X4080Y4794*
Y4795*
G37*
G36*
X4035D02*
X4000D01*
Y4794*
X4002Y4784*
X4007Y4775*
X4015Y4767*
X4024Y4762*
X4034Y4760*
X4035*
Y4795*
G37*
G36*
X3760D02*
X3725D01*
Y4760*
X3725*
X3735Y4762*
X3744Y4767*
X3752Y4775*
X3757Y4784*
X3760Y4794*
Y4795*
G37*
G36*
X3715D02*
X3680D01*
Y4794*
X3682Y4784*
X3687Y4775*
X3695Y4767*
X3704Y4762*
X3714Y4760*
X3715*
Y4795*
G37*
G36*
X3480D02*
X3445D01*
Y4760*
X3445*
X3455Y4762*
X3464Y4767*
X3472Y4775*
X3477Y4784*
X3480Y4794*
Y4795*
G37*
G36*
X3435D02*
X3400D01*
Y4794*
X3402Y4784*
X3407Y4775*
X3415Y4767*
X3424Y4762*
X3434Y4760*
X3435*
Y4795*
G37*
G36*
X3200D02*
X3165D01*
Y4760*
X3165*
X3175Y4762*
X3184Y4767*
X3192Y4775*
X3197Y4784*
X3200Y4794*
Y4795*
G37*
G36*
X3155D02*
X3120D01*
Y4794*
X3122Y4784*
X3127Y4775*
X3135Y4767*
X3144Y4762*
X3154Y4760*
X3155*
Y4795*
G37*
G36*
X2940D02*
X2905D01*
Y4760*
X2905*
X2915Y4762*
X2924Y4767*
X2932Y4775*
X2937Y4784*
X2940Y4794*
Y4795*
G37*
G36*
X2895D02*
X2860D01*
Y4794*
X2862Y4784*
X2867Y4775*
X2875Y4767*
X2884Y4762*
X2894Y4760*
X2895*
Y4795*
G37*
G36*
X2620D02*
X2585D01*
Y4760*
X2585*
X2595Y4762*
X2604Y4767*
X2612Y4775*
X2617Y4784*
X2620Y4794*
Y4795*
G37*
G36*
X2575D02*
X2540D01*
Y4794*
X2542Y4784*
X2547Y4775*
X2555Y4767*
X2564Y4762*
X2574Y4760*
X2575*
Y4795*
G37*
G36*
X2180D02*
X2145D01*
Y4760*
X2145*
X2155Y4762*
X2164Y4767*
X2172Y4775*
X2177Y4784*
X2180Y4794*
Y4795*
G37*
G36*
X2135D02*
X2100D01*
Y4794*
X2102Y4784*
X2107Y4775*
X2115Y4767*
X2124Y4762*
X2134Y4760*
X2135*
Y4795*
G37*
G36*
X1920D02*
X1885D01*
Y4760*
X1885*
X1895Y4762*
X1904Y4767*
X1912Y4775*
X1917Y4784*
X1920Y4794*
Y4795*
G37*
G36*
X1875D02*
X1840D01*
Y4794*
X1842Y4784*
X1847Y4775*
X1855Y4767*
X1864Y4762*
X1874Y4760*
X1875*
Y4795*
G37*
G36*
X1640D02*
X1605D01*
Y4760*
X1605*
X1615Y4762*
X1624Y4767*
X1632Y4775*
X1637Y4784*
X1640Y4794*
Y4795*
G37*
G36*
X1595D02*
X1560D01*
Y4794*
X1562Y4784*
X1567Y4775*
X1575Y4767*
X1584Y4762*
X1594Y4760*
X1595*
Y4795*
G37*
G36*
X1420D02*
X1385D01*
Y4760*
X1385*
X1395Y4762*
X1404Y4767*
X1412Y4775*
X1417Y4784*
X1420Y4794*
Y4795*
G37*
G36*
X5494Y4772D02*
X5466D01*
X5437Y4768*
X5410Y4761*
X5384Y4750*
X5359Y4735*
X5348Y4727*
X5346Y4727*
X5322Y4734*
X5317Y4736*
X5315Y4739*
X5312Y4744*
X5304Y4752*
X5295Y4757*
X5285Y4760*
X5285*
Y4720*
X5280*
Y4715*
X5240*
Y4714*
X5242Y4704*
X5247Y4695*
X5255Y4687*
X5264Y4682*
X5268Y4681*
X5281Y4661*
X5285Y4651*
X5274Y4625*
X5267Y4597*
X5263Y4569*
Y4541*
X5267Y4512*
X5274Y4485*
X5285Y4459*
X5299Y4434*
X5316Y4411*
X5336Y4391*
X5359Y4374*
X5384Y4360*
X5410Y4349*
X5437Y4342*
X5466Y4338*
X5494*
X5522Y4342*
X5550Y4349*
X5576Y4360*
X5600Y4374*
X5623Y4391*
X5643Y4411*
X5660Y4434*
X5675Y4459*
X5686Y4485*
X5693Y4512*
X5697Y4541*
Y4569*
X5693Y4597*
X5686Y4625*
X5675Y4651*
X5660Y4675*
X5643Y4698*
X5623Y4718*
X5600Y4735*
X5576Y4750*
X5550Y4761*
X5522Y4768*
X5494Y4772*
G37*
G36*
X5275Y4760D02*
X5274D01*
X5264Y4757*
X5255Y4752*
X5247Y4744*
X5242Y4735*
X5240Y4725*
Y4725*
X5275*
Y4760*
G37*
G36*
X6560Y4755D02*
X6525D01*
Y4720*
X6525*
X6535Y4722*
X6544Y4727*
X6552Y4735*
X6557Y4744*
X6560Y4754*
Y4755*
G37*
G36*
X6515D02*
X6480D01*
Y4754*
X6482Y4744*
X6487Y4735*
X6495Y4727*
X6504Y4722*
X6514Y4720*
X6515*
Y4755*
G37*
G36*
X1755Y4730D02*
X1755D01*
Y4675*
X1810*
Y4675*
X1807Y4687*
X1803Y4698*
X1796Y4708*
X1788Y4716*
X1778Y4723*
X1767Y4727*
X1755Y4730*
G37*
G36*
X1745D02*
X1744D01*
X1732Y4727*
X1721Y4723*
X1711Y4716*
X1703Y4708*
X1696Y4698*
X1692Y4687*
X1690Y4675*
Y4675*
X1745*
Y4730*
G37*
G36*
X4185Y4694D02*
Y4665D01*
X4214*
X4212Y4673*
X4208Y4681*
X4201Y4688*
X4193Y4692*
X4185Y4694*
G37*
G36*
X4175D02*
X4166Y4692D01*
X4158Y4688*
X4151Y4681*
X4147Y4673*
X4145Y4665*
X4175*
Y4694*
G37*
G36*
X4214Y4655D02*
X4185D01*
Y4625*
X4193Y4627*
X4201Y4631*
X4208Y4638*
X4212Y4646*
X4214Y4655*
G37*
G36*
X4175D02*
X4145D01*
X4147Y4646*
X4151Y4638*
X4158Y4631*
X4166Y4627*
X4175Y4625*
Y4655*
G37*
G36*
X1165Y4640D02*
X1165D01*
Y4605*
X1200*
Y4605*
X1197Y4615*
X1192Y4624*
X1184Y4632*
X1175Y4637*
X1165Y4640*
G37*
G36*
X1810Y4665D02*
X1690D01*
Y4664*
X1692Y4652*
X1696Y4641*
X1703Y4631*
X1711Y4623*
X1715Y4620*
X1715Y4618*
X1708Y4590*
Y4507*
X1750*
X1791*
Y4590*
X1784Y4618*
X1784Y4620*
X1788Y4623*
X1796Y4631*
X1803Y4641*
X1807Y4652*
X1810Y4664*
Y4665*
G37*
G36*
X1200Y4595D02*
X1165D01*
Y4560*
X1165*
X1175Y4562*
X1184Y4567*
X1192Y4575*
X1197Y4584*
X1200Y4594*
Y4595*
G37*
G36*
X5785Y4540D02*
X5785D01*
Y4505*
X5820*
Y4505*
X5817Y4515*
X5812Y4524*
X5804Y4532*
X5795Y4537*
X5785Y4540*
G37*
G36*
X5775D02*
X5774D01*
X5764Y4537*
X5755Y4532*
X5747Y4524*
X5742Y4515*
X5740Y4505*
Y4505*
X5775*
Y4540*
G37*
G36*
X6635Y4540D02*
X6635D01*
Y4500*
X6675*
Y4500*
X6672Y4512*
X6666Y4522*
X6657Y4531*
X6647Y4537*
X6635Y4540*
G37*
G36*
X6625D02*
X6624D01*
X6612Y4537*
X6602Y4531*
X6593Y4522*
X6587Y4512*
X6584Y4500*
Y4500*
X6625*
Y4540*
G37*
G36*
X1395Y4535D02*
X1355D01*
Y4495*
X1395*
Y4535*
G37*
G36*
X1345D02*
X1304D01*
Y4495*
X1345*
Y4535*
G37*
G36*
X6765Y4520D02*
X6765D01*
Y4485*
X6800*
Y4485*
X6797Y4495*
X6792Y4504*
X6784Y4512*
X6775Y4517*
X6765Y4520*
G37*
G36*
X6755D02*
X6754D01*
X6744Y4517*
X6735Y4512*
X6727Y4504*
X6722Y4495*
X6720Y4485*
Y4485*
X6755*
Y4520*
G37*
G36*
X6425D02*
X6425D01*
Y4485*
X6460*
Y4485*
X6457Y4495*
X6452Y4504*
X6444Y4512*
X6435Y4517*
X6425Y4520*
G37*
G36*
X6415D02*
X6414D01*
X6404Y4517*
X6395Y4512*
X6387Y4504*
X6382Y4495*
X6380Y4485*
Y4485*
X6415*
Y4520*
G37*
G36*
X6675Y4490D02*
X6635D01*
Y4449*
X6635*
X6647Y4452*
X6657Y4458*
X6666Y4467*
X6672Y4477*
X6675Y4489*
Y4490*
G37*
G36*
X6625D02*
X6584D01*
Y4489*
X6587Y4477*
X6593Y4467*
X6602Y4458*
X6612Y4452*
X6624Y4449*
X6625*
Y4490*
G37*
G36*
X2005Y4480D02*
X2005D01*
Y4445*
X2040*
Y4445*
X2037Y4455*
X2032Y4464*
X2024Y4472*
X2015Y4477*
X2005Y4480*
G37*
G36*
X1995D02*
X1994D01*
X1984Y4477*
X1975Y4472*
X1967Y4464*
X1962Y4455*
X1960Y4445*
Y4445*
X1995*
Y4480*
G37*
G36*
X1395Y4485D02*
X1355D01*
Y4444*
X1395*
Y4485*
G37*
G36*
X1345D02*
X1304D01*
Y4444*
X1345*
Y4485*
G37*
G36*
X6800Y4475D02*
X6765D01*
Y4440*
X6765*
X6775Y4442*
X6784Y4447*
X6792Y4455*
X6797Y4464*
X6800Y4474*
Y4475*
G37*
G36*
X6755D02*
X6720D01*
Y4474*
X6722Y4464*
X6727Y4455*
X6735Y4447*
X6744Y4442*
X6754Y4440*
X6755*
Y4475*
G37*
G36*
X6460D02*
X6425D01*
Y4440*
X6425*
X6435Y4442*
X6444Y4447*
X6452Y4455*
X6457Y4464*
X6460Y4474*
Y4475*
G37*
G36*
X6415D02*
X6380D01*
Y4474*
X6382Y4464*
X6387Y4455*
X6395Y4447*
X6404Y4442*
X6414Y4440*
X6415*
Y4475*
G37*
G36*
X1791Y4497D02*
X1755D01*
Y4413*
X1791*
Y4497*
G37*
G36*
X1745D02*
X1708D01*
Y4413*
X1745*
Y4497*
G37*
G36*
X1165Y4440D02*
X1165D01*
Y4405*
X1200*
Y4405*
X1197Y4415*
X1192Y4424*
X1184Y4432*
X1175Y4437*
X1165Y4440*
G37*
G36*
X2040Y4435D02*
X2005D01*
Y4400*
X2005*
X2015Y4402*
X2024Y4407*
X2032Y4415*
X2037Y4424*
X2040Y4434*
Y4435*
G37*
G36*
X1995D02*
X1960D01*
Y4434*
X1962Y4424*
X1967Y4415*
X1975Y4407*
X1984Y4402*
X1994Y4400*
X1995*
Y4435*
G37*
G36*
X1200Y4395D02*
X1165D01*
Y4360*
X1165*
X1175Y4362*
X1184Y4367*
X1192Y4375*
X1197Y4384*
X1200Y4394*
Y4395*
G37*
G36*
X1810Y4370D02*
X1791D01*
X1783Y4369*
X1776Y4366*
X1770Y4361*
X1766Y4356*
X1733*
X1729Y4361*
X1723Y4366*
X1716Y4369*
X1708Y4370*
X1290*
X1282Y4369*
X1274Y4366*
X1268Y4361*
X1208Y4301*
X1203Y4295*
X1200Y4287*
X1199Y4280*
Y4217*
X1187Y4207*
X1169Y4198*
X1165Y4200*
X1165*
Y4160*
Y4120*
X1165*
X1169Y4121*
X1187Y4112*
X1199Y4102*
Y3977*
X1187Y3967*
X1169Y3958*
X1165Y3960*
X1165*
Y3920*
Y3880*
X1165*
X1169Y3881*
X1187Y3872*
X1199Y3862*
Y3840*
X1200Y3832*
X1203Y3824*
X1208Y3818*
X1248Y3778*
X1254Y3773*
X1262Y3770*
X1270Y3769*
X1275*
X1278Y3770*
X1281Y3770*
X1282Y3770*
X1283Y3770*
X1286Y3771*
X1288Y3772*
X1289Y3773*
X1290Y3773*
X1299Y3777*
X1300*
X1309Y3773*
X1310Y3773*
X1311Y3772*
X1313Y3771*
X1316Y3770*
X1317Y3770*
X1318Y3770*
X1321Y3770*
X1324Y3769*
X1330*
X1337Y3770*
X1345Y3773*
X1351Y3778*
X1713Y4140*
X1716Y4140*
X1723Y4143*
X1729Y4148*
X1734Y4154*
X1735Y4157*
X1764*
X1765Y4154*
X1770Y4148*
X1776Y4143*
X1783Y4140*
X1791Y4139*
X1810*
X1817Y4140*
X1825Y4143*
X1831Y4148*
X1836Y4154*
X1839Y4162*
X1840Y4170*
Y4340*
X1839Y4347*
X1836Y4355*
X1831Y4361*
X1825Y4366*
X1817Y4369*
X1810Y4370*
G37*
G36*
X2423Y4772D02*
X2395D01*
X2366Y4768*
X2339Y4761*
X2313Y4750*
X2288Y4735*
X2266Y4718*
X2245Y4698*
X2228Y4675*
X2214Y4651*
X2203Y4625*
X2196Y4597*
X2192Y4569*
Y4541*
X2196Y4512*
X2203Y4485*
X2214Y4459*
X2228Y4434*
X2245Y4411*
X2266Y4391*
X2288Y4374*
X2313Y4360*
X2339Y4349*
X2366Y4342*
X2395Y4338*
X2423*
X2451Y4342*
X2479Y4349*
X2505Y4360*
X2530Y4374*
X2552Y4391*
X2572Y4411*
X2590Y4434*
X2604Y4459*
X2615Y4485*
X2622Y4512*
X2626Y4541*
Y4569*
X2622Y4597*
X2615Y4625*
X2604Y4651*
X2590Y4675*
X2572Y4698*
X2552Y4718*
X2530Y4735*
X2505Y4750*
X2479Y4761*
X2451Y4768*
X2423Y4772*
G37*
G36*
X5145Y4360D02*
X5145D01*
Y4325*
X5180*
Y4325*
X5177Y4335*
X5172Y4344*
X5164Y4352*
X5155Y4357*
X5145Y4360*
G37*
G36*
X5135D02*
X5134D01*
X5124Y4357*
X5115Y4352*
X5107Y4344*
X5102Y4335*
X5100Y4325*
Y4325*
X5135*
Y4360*
G37*
G36*
X2086Y4315D02*
X2085Y4314D01*
X2083Y4314*
X2081Y4314*
X2078Y4314*
X2077Y4313*
X2075Y4313*
X2073Y4312*
X2071Y4311*
X2070Y4310*
X2068Y4309*
X2067Y4307*
X2065Y4306*
X2063Y4306*
X2059Y4306*
X2055Y4306*
X2051Y4305*
X2051Y4305*
X2051Y4305*
X2047Y4303*
X2044Y4302*
X2044Y4302*
X2044Y4302*
X2041Y4299*
X2038Y4297*
X2038Y4297*
X2037Y4297*
X2035Y4294*
X2034Y4294*
X2034Y4294*
X2033Y4294*
X2030Y4292*
X2027Y4291*
X2026Y4291*
X2026Y4290*
X2023Y4288*
X2021Y4286*
X2016Y4282*
X2009Y4275*
X2006Y4274*
X2004Y4273*
X2001Y4273*
X2000Y4273*
X1999Y4273*
X1997Y4271*
X1994Y4271*
X1993Y4270*
X1992Y4269*
X1990Y4268*
X1987Y4266*
X1987Y4265*
X1986Y4265*
X1985Y4264*
X1979*
X1977Y4245*
X1977Y4245*
X1977Y4243*
X1978Y4240*
X1978Y4238*
X1978Y4236*
X1978Y4235*
X1979Y4234*
Y4201*
X1978Y4200*
X1976Y4198*
X1975Y4197*
X1975Y4197*
X1973Y4194*
X1971Y4192*
X1971Y4191*
X1971Y4190*
X1970Y4187*
X1969Y4185*
X1969Y4184*
X1968Y4183*
X1959Y4174*
X1956Y4170*
X1955Y4169*
X1954Y4168*
X1953Y4166*
X1951Y4164*
X1951Y4162*
X1950Y4161*
X1949Y4159*
X1948Y4156*
X1948Y4155*
X1948Y4154*
X1948Y4151*
X1947Y4149*
X1948Y4147*
X1906Y4106*
X1901Y4099*
X1897Y4090*
X1896Y4081*
Y4061*
X1895Y4060*
X1895Y4060*
X1895Y4060*
X1893Y4057*
X1890Y4054*
X1890Y4054*
X1890Y4054*
X1889Y4050*
X1887Y4047*
X1887Y4047*
X1887Y4047*
X1887Y4043*
X1886Y4039*
X1886Y4026*
X1852Y4024*
X1849Y4023*
X1846Y4023*
X1845Y4023*
X1845Y4023*
X1842Y4021*
X1839Y4020*
X1826Y4017*
X1814Y4020*
X1814Y4020*
X1814Y4020*
X1810Y4021*
X1807Y4023*
X1807Y4023*
X1807Y4023*
X1803Y4023*
X1799Y4024*
X1781Y4024*
X1759Y4025*
X1758Y4025*
X1757Y4025*
X1756Y4025*
X1755Y4026*
X1752Y4026*
X1749Y4026*
X1748Y4026*
X1748Y4026*
X1744Y4026*
X1741Y4025*
X1740Y4025*
X1740Y4025*
X1737Y4024*
X1734Y4022*
X1733Y4022*
X1733Y4022*
X1730Y4020*
X1727Y4018*
X1727Y4017*
X1727Y4017*
X1726Y4016*
X1674*
Y3921*
X1677*
X1687Y3901*
X1690Y3891*
X1686Y3885*
X1684Y3875*
X1721*
X1759*
X1757Y3881*
X1759Y3889*
X1771Y3910*
X1774Y3912*
X1800Y3913*
X1803Y3914*
X1807Y3914*
X1807Y3915*
X1808Y3915*
X1811Y3916*
X1814Y3918*
X1826Y3921*
X1839Y3918*
X1839Y3918*
X1839Y3918*
X1842Y3916*
X1846Y3915*
X1846Y3915*
X1846Y3914*
X1850Y3914*
X1854Y3913*
X1871Y3913*
X1879Y3913*
X1883Y3910*
X1896Y3886*
X1896Y3882*
X1894Y3875*
X1931*
X1969*
X1966Y3885*
X1963Y3891*
X1965Y3901*
X1976Y3921*
X1979*
Y3974*
X1980Y3975*
X1981Y3976*
X1983Y3978*
X1984Y3980*
X1985Y3981*
X1986Y3983*
X1987Y3985*
X1987Y3987*
X1988Y3988*
X1988Y3990*
X1989Y3992*
X1989Y3994*
X1989Y3996*
X1989Y3998*
X1989Y4000*
X1988Y4002*
X1988Y4004*
X1987Y4006*
X1987Y4008*
X1986Y4010*
X1985Y4011*
X1984Y4013*
X1983Y4015*
X1981Y4016*
X1980Y4018*
X1979Y4019*
X1978Y4020*
X1977Y4040*
X1976Y4043*
X1976Y4047*
X1975Y4047*
X1975Y4048*
X1974Y4051*
X1973Y4054*
X1972Y4054*
X1972Y4055*
X1970Y4058*
X1968Y4060*
X1985Y4085*
X1994Y4094*
X1994Y4094*
X1996Y4094*
X1998Y4094*
X2000Y4095*
X2002Y4095*
X2004Y4095*
X2006Y4096*
X2008Y4097*
X2010Y4097*
X2011Y4099*
X2013Y4100*
X2014Y4101*
X2016Y4102*
X2027Y4112*
X2030Y4115*
X2032Y4116*
X2032Y4116*
X2035Y4116*
X2037Y4115*
X2039Y4115*
X2040Y4115*
X2043Y4116*
X2045Y4116*
X2046Y4117*
X2054Y4114*
X2064Y4110*
X2069Y4106*
X2076Y4099*
X2076Y4099*
X2077Y4096*
X2081Y4088*
X2088Y4081*
X2096Y4077*
X2105Y4075*
Y4110*
X2110*
Y4115*
X2144*
X2144Y4115*
X2143Y4145*
Y4162*
Y4173*
X2110*
Y4183*
X2143*
Y4212*
X2153Y4217*
Y4304*
X2108*
X2107Y4306*
X2106Y4307*
X2105Y4308*
X2103Y4309*
X2101Y4311*
X2100Y4311*
X2099Y4312*
X2096Y4313*
X2094Y4314*
X2092Y4314*
X2091Y4314*
X2088Y4314*
X2086Y4315*
G37*
G36*
X4845Y4320D02*
X4845D01*
Y4285*
X4880*
Y4285*
X4877Y4295*
X4872Y4304*
X4864Y4312*
X4855Y4317*
X4845Y4320*
G37*
G36*
X4835D02*
X4834D01*
X4824Y4317*
X4815Y4312*
X4807Y4304*
X4802Y4295*
X4800Y4285*
Y4285*
X4835*
Y4320*
G37*
G36*
X5180Y4315D02*
X5145D01*
Y4280*
X5145*
X5155Y4282*
X5164Y4287*
X5172Y4295*
X5177Y4304*
X5180Y4314*
Y4315*
G37*
G36*
X5135D02*
X5100D01*
Y4314*
X5102Y4304*
X5107Y4295*
X5115Y4287*
X5124Y4282*
X5134Y4280*
X5135*
Y4315*
G37*
G36*
X5445Y4300D02*
X5445D01*
Y4265*
X5480*
Y4265*
X5477Y4275*
X5472Y4284*
X5464Y4292*
X5455Y4297*
X5445Y4300*
G37*
G36*
X5435D02*
X5434D01*
X5424Y4297*
X5415Y4292*
X5407Y4284*
X5402Y4275*
X5400Y4265*
Y4265*
X5435*
Y4300*
G37*
G36*
X6785Y4280D02*
X6785D01*
Y4245*
X6820*
Y4245*
X6817Y4255*
X6812Y4264*
X6804Y4272*
X6795Y4277*
X6785Y4280*
G37*
G36*
X4880Y4275D02*
X4845D01*
Y4240*
X4845*
X4855Y4242*
X4864Y4247*
X4872Y4255*
X4877Y4264*
X4880Y4274*
Y4275*
G37*
G36*
X4835D02*
X4800D01*
Y4274*
X4802Y4264*
X4807Y4255*
X4815Y4247*
X4824Y4242*
X4834Y4240*
X4835*
Y4275*
G37*
G36*
X5480Y4255D02*
X5445D01*
Y4220*
X5445*
X5455Y4222*
X5464Y4227*
X5472Y4235*
X5477Y4244*
X5480Y4254*
Y4255*
G37*
G36*
X5435D02*
X5400D01*
Y4254*
X5402Y4244*
X5407Y4235*
X5415Y4227*
X5424Y4222*
X5434Y4220*
X5435*
Y4255*
G37*
G36*
X6820Y4235D02*
X6785D01*
Y4200*
X6785*
X6795Y4202*
X6804Y4207*
X6812Y4215*
X6817Y4224*
X6820Y4234*
Y4235*
G37*
G36*
X2525Y4200D02*
X2525D01*
Y4165*
X2560*
Y4165*
X2557Y4175*
X2552Y4184*
X2544Y4192*
X2535Y4197*
X2525Y4200*
G37*
G36*
X2515D02*
X2514D01*
X2504Y4197*
X2495Y4192*
X2487Y4184*
X2482Y4175*
X2480Y4165*
Y4165*
X2515*
Y4200*
G37*
G36*
X2285Y4180D02*
X2285D01*
Y4145*
X2320*
Y4145*
X2317Y4155*
X2312Y4164*
X2304Y4172*
X2295Y4177*
X2285Y4180*
G37*
G36*
X2275D02*
X2274D01*
X2264Y4177*
X2255Y4172*
X2247Y4164*
X2242Y4155*
X2240Y4145*
Y4145*
X2275*
Y4180*
G37*
G36*
X5325Y4160D02*
X5325D01*
Y4125*
X5360*
Y4125*
X5357Y4135*
X5352Y4144*
X5344Y4152*
X5335Y4157*
X5325Y4160*
G37*
G36*
X5315D02*
X5314D01*
X5304Y4157*
X5295Y4152*
X5287Y4144*
X5282Y4135*
X5280Y4125*
Y4125*
X5315*
Y4160*
G37*
G36*
X2560Y4155D02*
X2525D01*
Y4120*
X2525*
X2535Y4122*
X2544Y4127*
X2552Y4135*
X2557Y4144*
X2560Y4154*
Y4155*
G37*
G36*
X2515D02*
X2480D01*
Y4154*
X2482Y4144*
X2487Y4135*
X2495Y4127*
X2504Y4122*
X2514Y4120*
X2515*
Y4155*
G37*
G36*
X5025Y4140D02*
X5025D01*
Y4105*
X5060*
Y4105*
X5057Y4115*
X5052Y4124*
X5044Y4132*
X5035Y4137*
X5025Y4140*
G37*
G36*
X5015D02*
X5014D01*
X5004Y4137*
X4995Y4132*
X4987Y4124*
X4982Y4115*
X4980Y4105*
Y4105*
X5015*
Y4140*
G37*
G36*
X2320Y4135D02*
X2285D01*
Y4100*
X2285*
X2295Y4102*
X2304Y4107*
X2312Y4115*
X2317Y4124*
X2320Y4134*
Y4135*
G37*
G36*
X2275D02*
X2240D01*
Y4134*
X2242Y4124*
X2247Y4115*
X2255Y4107*
X2264Y4102*
X2274Y4100*
X2275*
Y4135*
G37*
G36*
X5360Y4115D02*
X5325D01*
Y4080*
X5325*
X5335Y4082*
X5344Y4087*
X5352Y4095*
X5357Y4104*
X5360Y4114*
Y4115*
G37*
G36*
X5315D02*
X5280D01*
Y4114*
X5282Y4104*
X5287Y4095*
X5295Y4087*
X5304Y4082*
X5314Y4080*
X5315*
Y4115*
G37*
G36*
X2144Y4105D02*
X2115D01*
Y4075*
X2123Y4077*
X2131Y4081*
X2138Y4088*
X2142Y4096*
X2144Y4105*
G37*
G36*
X5060Y4095D02*
X5025D01*
Y4060*
X5025*
X5035Y4062*
X5044Y4067*
X5052Y4075*
X5057Y4084*
X5060Y4094*
Y4095*
G37*
G36*
X5015D02*
X4980D01*
Y4094*
X4982Y4084*
X4987Y4075*
X4995Y4067*
X5004Y4062*
X5014Y4060*
X5015*
Y4095*
G37*
G36*
X4715Y4135D02*
X4704D01*
X4692Y4131*
X4682Y4126*
X4673Y4117*
X4668Y4107*
X4665Y4095*
Y4084*
X4668Y4072*
X4673Y4062*
X4682Y4053*
X4692Y4048*
X4704Y4045*
X4715*
X4727Y4048*
X4737Y4053*
X4746Y4062*
X4751Y4072*
X4755Y4084*
Y4095*
X4751Y4107*
X4746Y4117*
X4737Y4126*
X4727Y4131*
X4715Y4135*
G37*
G36*
X5225Y4040D02*
X5225D01*
Y4005*
X5260*
Y4005*
X5257Y4015*
X5252Y4024*
X5244Y4032*
X5235Y4037*
X5225Y4040*
G37*
G36*
X5215D02*
X5214D01*
X5204Y4037*
X5195Y4032*
X5187Y4024*
X5182Y4015*
X5180Y4005*
Y4005*
X5215*
Y4040*
G37*
G36*
X6785Y4020D02*
X6785D01*
Y3985*
X6820*
Y3985*
X6817Y3995*
X6812Y4004*
X6804Y4012*
X6795Y4017*
X6785Y4020*
G37*
G36*
X6775D02*
X6774D01*
X6764Y4017*
X6755Y4012*
X6747Y4004*
X6742Y3995*
X6740Y3985*
Y3985*
X6775*
Y4020*
G37*
G36*
X6525D02*
X6525D01*
Y3985*
X6560*
Y3985*
X6557Y3995*
X6552Y4004*
X6544Y4012*
X6535Y4017*
X6525Y4020*
G37*
G36*
X6515D02*
X6514D01*
X6504Y4017*
X6495Y4012*
X6487Y4004*
X6482Y3995*
X6480Y3985*
Y3985*
X6515*
Y4020*
G37*
G36*
X6065Y4004D02*
Y3975D01*
X6094*
X6092Y3983*
X6088Y3991*
X6081Y3998*
X6073Y4002*
X6065Y4004*
G37*
G36*
X5260Y3995D02*
X5225D01*
Y3960*
X5225*
X5235Y3962*
X5244Y3967*
X5252Y3975*
X5257Y3984*
X5260Y3994*
Y3995*
G37*
G36*
X5215D02*
X5180D01*
Y3994*
X5182Y3984*
X5187Y3975*
X5195Y3967*
X5204Y3962*
X5214Y3960*
X5215*
Y3995*
G37*
G36*
X6820Y3975D02*
X6785D01*
Y3940*
X6785*
X6795Y3942*
X6804Y3947*
X6812Y3955*
X6817Y3964*
X6820Y3974*
Y3975*
G37*
G36*
X6775D02*
X6740D01*
Y3974*
X6742Y3964*
X6747Y3955*
X6755Y3947*
X6764Y3942*
X6774Y3940*
X6775*
Y3975*
G37*
G36*
X6560D02*
X6525D01*
Y3940*
X6525*
X6535Y3942*
X6544Y3947*
X6552Y3955*
X6557Y3964*
X6560Y3974*
Y3975*
G37*
G36*
X6515D02*
X6480D01*
Y3974*
X6482Y3964*
X6487Y3955*
X6495Y3947*
X6504Y3942*
X6514Y3940*
X6515*
Y3975*
G37*
G36*
X6344Y3895D02*
X6315D01*
Y3865*
X6323Y3867*
X6331Y3871*
X6338Y3878*
X6342Y3886*
X6344Y3895*
G37*
G36*
X4085Y3884D02*
Y3855D01*
X4114*
X4112Y3863*
X4108Y3871*
X4101Y3878*
X4093Y3882*
X4085Y3884*
G37*
G36*
X4075D02*
X4066Y3882D01*
X4058Y3878*
X4051Y3871*
X4047Y3863*
X4045Y3855*
X4075*
Y3884*
G37*
G36*
X1969Y3865D02*
X1936D01*
Y3833*
X1946Y3835*
X1954Y3840*
X1961Y3847*
X1966Y3856*
X1969Y3865*
G37*
G36*
X1759D02*
X1726D01*
Y3833*
X1736Y3835*
X1744Y3840*
X1751Y3847*
X1756Y3856*
X1759Y3865*
G37*
G36*
X1926D02*
X1894D01*
X1896Y3856*
X1901Y3847*
X1908Y3840*
X1917Y3835*
X1926Y3833*
Y3865*
G37*
G36*
X1716D02*
X1684D01*
X1686Y3856*
X1691Y3847*
X1698Y3840*
X1707Y3835*
X1716Y3833*
Y3865*
G37*
G36*
X4114Y3845D02*
X4085D01*
Y3815*
X4093Y3817*
X4101Y3821*
X4108Y3828*
X4112Y3836*
X4114Y3845*
G37*
G36*
X4075D02*
X4045D01*
X4047Y3836*
X4051Y3828*
X4058Y3821*
X4066Y3817*
X4075Y3815*
Y3845*
G37*
G36*
X6665Y3840D02*
X6665D01*
Y3805*
X6700*
Y3805*
X6697Y3815*
X6692Y3824*
X6684Y3832*
X6675Y3837*
X6665Y3840*
G37*
G36*
X6655D02*
X6654D01*
X6644Y3837*
X6635Y3832*
X6627Y3824*
X6622Y3815*
X6620Y3805*
Y3805*
X6655*
Y3840*
G37*
G36*
X3775Y3895D02*
X3764D01*
X3752Y3891*
X3742Y3886*
X3733Y3877*
X3728Y3867*
X3725Y3855*
Y3844*
X3728Y3832*
X3733Y3822*
X3742Y3813*
X3752Y3808*
X3764Y3805*
X3775*
X3787Y3808*
X3797Y3813*
X3806Y3822*
X3811Y3832*
X3815Y3844*
Y3855*
X3811Y3867*
X3806Y3877*
X3797Y3886*
X3787Y3891*
X3775Y3895*
G37*
G36*
X1820Y3820D02*
X1819D01*
Y3785*
X1854*
Y3785*
X1852Y3796*
X1846Y3805*
X1839Y3812*
X1830Y3817*
X1820Y3820*
G37*
G36*
X1809D02*
X1809D01*
X1799Y3817*
X1790Y3812*
X1782Y3805*
X1777Y3796*
X1774Y3785*
Y3785*
X1809*
Y3820*
G37*
G36*
X2045Y3800D02*
X2045D01*
Y3765*
X2080*
Y3765*
X2077Y3775*
X2072Y3784*
X2064Y3792*
X2055Y3797*
X2045Y3800*
G37*
G36*
X2035D02*
X2034D01*
X2024Y3797*
X2015Y3792*
X2007Y3784*
X2002Y3775*
X2000Y3765*
Y3765*
X2035*
Y3800*
G37*
G36*
X1605D02*
X1605D01*
Y3765*
X1640*
Y3765*
X1637Y3775*
X1632Y3784*
X1624Y3792*
X1615Y3797*
X1605Y3800*
G37*
G36*
X1595D02*
X1594D01*
X1584Y3797*
X1575Y3792*
X1567Y3784*
X1562Y3775*
X1560Y3765*
Y3765*
X1595*
Y3800*
G37*
G36*
X6700Y3795D02*
X6665D01*
Y3760*
X6665*
X6675Y3762*
X6684Y3767*
X6692Y3775*
X6697Y3784*
X6700Y3794*
Y3795*
G37*
G36*
X6655D02*
X6620D01*
Y3794*
X6622Y3784*
X6627Y3775*
X6635Y3767*
X6644Y3762*
X6654Y3760*
X6655*
Y3795*
G37*
G36*
X3885Y3786D02*
X3854D01*
Y3755*
X3885*
Y3786*
G37*
G36*
X3844D02*
X3812D01*
Y3755*
X3844*
Y3786*
G37*
G36*
X3485Y3780D02*
X3485D01*
Y3745*
X3520*
Y3745*
X3517Y3755*
X3512Y3764*
X3504Y3772*
X3495Y3777*
X3485Y3780*
G37*
G36*
X3475D02*
X3474D01*
X3464Y3777*
X3455Y3772*
X3447Y3764*
X3442Y3755*
X3440Y3745*
Y3745*
X3475*
Y3780*
G37*
G36*
X1854Y3775D02*
X1819D01*
Y3740*
X1820*
X1830Y3743*
X1839Y3748*
X1846Y3756*
X1852Y3765*
X1854Y3775*
Y3775*
G37*
G36*
X1809D02*
X1774D01*
Y3775*
X1777Y3765*
X1782Y3756*
X1790Y3748*
X1799Y3743*
X1809Y3740*
X1809*
Y3775*
G37*
G36*
X2080Y3755D02*
X2045D01*
Y3720*
X2045*
X2055Y3722*
X2064Y3727*
X2072Y3735*
X2077Y3744*
X2080Y3754*
Y3755*
G37*
G36*
X2035D02*
X2000D01*
Y3754*
X2002Y3744*
X2007Y3735*
X2015Y3727*
X2024Y3722*
X2034Y3720*
X2035*
Y3755*
G37*
G36*
X1640D02*
X1605D01*
Y3720*
X1605*
X1615Y3722*
X1624Y3727*
X1632Y3735*
X1637Y3744*
X1640Y3754*
Y3755*
G37*
G36*
X1595D02*
X1560D01*
Y3754*
X1562Y3744*
X1567Y3735*
X1575Y3727*
X1584Y3722*
X1594Y3720*
X1595*
Y3755*
G37*
G36*
X3885Y3745D02*
X3854D01*
Y3713*
X3885*
Y3745*
G37*
G36*
X3844D02*
X3812D01*
Y3713*
X3844*
Y3745*
G37*
G36*
X4016Y3796D02*
X4004D01*
X3992Y3793*
X3982Y3787*
X3973Y3778*
X3967Y3767*
X3964Y3756*
Y3743*
X3967Y3732*
X3973Y3721*
X3982Y3712*
X3992Y3706*
X4004Y3703*
X4016*
X4028Y3706*
X4039Y3712*
X4047Y3721*
X4054Y3732*
X4057Y3743*
Y3756*
X4054Y3767*
X4047Y3778*
X4039Y3787*
X4028Y3793*
X4016Y3796*
G37*
G36*
X3520Y3735D02*
X3485D01*
Y3700*
X3485*
X3495Y3702*
X3504Y3707*
X3512Y3715*
X3517Y3724*
X3520Y3734*
Y3735*
G37*
G36*
X3475D02*
X3440D01*
Y3734*
X3442Y3724*
X3447Y3715*
X3455Y3707*
X3464Y3702*
X3474Y3700*
X3475*
Y3735*
G37*
G36*
X1165Y3720D02*
X1165D01*
Y3685*
X1200*
Y3685*
X1197Y3695*
X1192Y3704*
X1184Y3712*
X1175Y3717*
X1165Y3720*
G37*
G36*
X4825Y3680D02*
X4825D01*
Y3645*
X4860*
Y3645*
X4857Y3655*
X4852Y3664*
X4844Y3672*
X4835Y3677*
X4825Y3680*
G37*
G36*
X4815D02*
X4814D01*
X4804Y3677*
X4795Y3672*
X4787Y3664*
X4782Y3655*
X4780Y3645*
Y3645*
X4815*
Y3680*
G37*
G36*
X4505D02*
X4505D01*
Y3645*
X4540*
Y3645*
X4537Y3655*
X4532Y3664*
X4524Y3672*
X4515Y3677*
X4505Y3680*
G37*
G36*
X4495D02*
X4494D01*
X4484Y3677*
X4475Y3672*
X4467Y3664*
X4462Y3655*
X4460Y3645*
Y3645*
X4495*
Y3680*
G37*
G36*
X1200Y3675D02*
X1165D01*
Y3640*
X1165*
X1175Y3642*
X1184Y3647*
X1192Y3655*
X1197Y3664*
X1200Y3674*
Y3675*
G37*
G36*
X4860Y3635D02*
X4825D01*
Y3600*
X4825*
X4835Y3602*
X4844Y3607*
X4852Y3615*
X4857Y3624*
X4860Y3634*
Y3635*
G37*
G36*
X4815D02*
X4780D01*
Y3634*
X4782Y3624*
X4787Y3615*
X4795Y3607*
X4804Y3602*
X4814Y3600*
X4815*
Y3635*
G37*
G36*
X4540D02*
X4505D01*
Y3600*
X4505*
X4515Y3602*
X4524Y3607*
X4532Y3615*
X4537Y3624*
X4540Y3634*
Y3635*
G37*
G36*
X4495D02*
X4460D01*
Y3634*
X4462Y3624*
X4467Y3615*
X4475Y3607*
X4484Y3602*
X4494Y3600*
X4495*
Y3635*
G37*
G36*
X6834Y3632D02*
X6798D01*
Y3585*
X6834*
Y3632*
G37*
G36*
X6788D02*
X6751D01*
Y3585*
X6788*
Y3632*
G37*
G36*
X3225Y3580D02*
X3225D01*
Y3545*
X3260*
Y3545*
X3257Y3555*
X3252Y3564*
X3244Y3572*
X3235Y3577*
X3225Y3580*
G37*
G36*
X3215D02*
X3214D01*
X3204Y3577*
X3195Y3572*
X3187Y3564*
X3182Y3555*
X3180Y3545*
Y3545*
X3215*
Y3580*
G37*
G36*
X4695Y3554D02*
Y3525D01*
X4724*
X4722Y3533*
X4718Y3541*
X4711Y3548*
X4703Y3552*
X4695Y3554*
G37*
G36*
X4685D02*
X4676Y3552D01*
X4668Y3548*
X4661Y3541*
X4657Y3533*
X4655Y3525*
X4685*
Y3554*
G37*
G36*
X5645Y3544D02*
Y3515D01*
X5674*
X5672Y3523*
X5668Y3531*
X5661Y3538*
X5653Y3542*
X5645Y3544*
G37*
G36*
X5635D02*
X5626Y3542D01*
X5618Y3538*
X5611Y3531*
X5607Y3523*
X5605Y3515*
X5635*
Y3544*
G37*
G36*
X6365Y3540D02*
X6365D01*
Y3505*
X6400*
Y3505*
X6397Y3515*
X6392Y3524*
X6384Y3532*
X6375Y3537*
X6365Y3540*
G37*
G36*
X6355D02*
X6354D01*
X6344Y3537*
X6335Y3532*
X6327Y3524*
X6322Y3515*
X6320Y3505*
Y3505*
X6355*
Y3540*
G37*
G36*
X3260Y3535D02*
X3225D01*
Y3500*
X3225*
X3235Y3502*
X3244Y3507*
X3252Y3515*
X3257Y3524*
X3260Y3534*
Y3535*
G37*
G36*
X3215D02*
X3180D01*
Y3534*
X3182Y3524*
X3187Y3515*
X3195Y3507*
X3204Y3502*
X3214Y3500*
X3215*
Y3535*
G37*
G36*
X4724Y3515D02*
X4695D01*
Y3485*
X4703Y3487*
X4711Y3491*
X4718Y3498*
X4722Y3506*
X4724Y3515*
G37*
G36*
X4685D02*
X4655D01*
X4657Y3506*
X4661Y3498*
X4668Y3491*
X4676Y3487*
X4685Y3485*
Y3515*
G37*
G36*
X5674Y3505D02*
X5645D01*
Y3475*
X5653Y3477*
X5661Y3481*
X5668Y3488*
X5672Y3496*
X5674Y3505*
G37*
G36*
X5635D02*
X5605D01*
X5607Y3496*
X5611Y3488*
X5618Y3481*
X5626Y3477*
X5635Y3475*
Y3505*
G37*
G36*
X6834Y3575D02*
X6751D01*
Y3527*
X6770*
X6780Y3497*
X6779Y3495*
X6771Y3491*
X6771Y3490*
X6765Y3484*
X6760Y3476*
X6758Y3468*
X6827*
X6825Y3476*
X6821Y3484*
X6815Y3490*
X6814Y3491*
X6806Y3495*
X6805Y3497*
X6815Y3527*
X6834*
Y3575*
G37*
G36*
X5945Y3494D02*
Y3465D01*
X5974*
X5972Y3473*
X5968Y3481*
X5961Y3488*
X5953Y3492*
X5945Y3494*
G37*
G36*
X5935D02*
X5926Y3492D01*
X5918Y3488*
X5911Y3481*
X5907Y3473*
X5905Y3465*
X5935*
Y3494*
G37*
G36*
X6400Y3495D02*
X6365D01*
Y3460*
X6365*
X6375Y3462*
X6384Y3467*
X6392Y3475*
X6397Y3484*
X6400Y3494*
Y3495*
G37*
G36*
X6355D02*
X6320D01*
Y3494*
X6322Y3484*
X6327Y3475*
X6335Y3467*
X6344Y3462*
X6354Y3460*
X6355*
Y3495*
G37*
G36*
X6165Y3480D02*
X6165D01*
Y3445*
X6200*
Y3445*
X6197Y3455*
X6192Y3464*
X6184Y3472*
X6175Y3477*
X6165Y3480*
G37*
G36*
X6155D02*
X6154D01*
X6144Y3477*
X6135Y3472*
X6127Y3464*
X6122Y3455*
X6120Y3445*
Y3445*
X6155*
Y3480*
G37*
G36*
X6827Y3458D02*
X6798D01*
Y3428*
X6806Y3430*
X6814Y3435*
X6821Y3441*
X6825Y3449*
X6827Y3458*
G37*
G36*
X6788D02*
X6758D01*
X6760Y3449*
X6765Y3441*
X6771Y3435*
X6779Y3430*
X6788Y3428*
Y3458*
G37*
G36*
X5974Y3455D02*
X5945D01*
Y3425*
X5953Y3427*
X5961Y3431*
X5968Y3438*
X5972Y3446*
X5974Y3455*
G37*
G36*
X5935D02*
X5905D01*
X5907Y3446*
X5911Y3438*
X5918Y3431*
X5926Y3427*
X5935Y3425*
Y3455*
G37*
G36*
X4985Y3444D02*
X4976Y3442D01*
X4968Y3438*
X4961Y3431*
X4957Y3423*
X4955Y3415*
X4985*
Y3444*
G37*
G36*
X4705Y3440D02*
X4705D01*
Y3405*
X4740*
Y3405*
X4737Y3415*
X4732Y3424*
X4724Y3432*
X4715Y3437*
X4705Y3440*
G37*
G36*
X4695D02*
X4694D01*
X4684Y3437*
X4675Y3432*
X4667Y3424*
X4662Y3415*
X4660Y3405*
Y3405*
X4695*
Y3440*
G37*
G36*
X4505D02*
X4505D01*
Y3405*
X4540*
Y3405*
X4537Y3415*
X4532Y3424*
X4524Y3432*
X4515Y3437*
X4505Y3440*
G37*
G36*
X4495D02*
X4494D01*
X4484Y3437*
X4475Y3432*
X4467Y3424*
X4462Y3415*
X4460Y3405*
Y3405*
X4495*
Y3440*
G37*
G36*
X6200Y3435D02*
X6165D01*
Y3400*
X6165*
X6175Y3402*
X6184Y3407*
X6192Y3415*
X6197Y3424*
X6200Y3434*
Y3435*
G37*
G36*
X6155D02*
X6120D01*
Y3434*
X6122Y3424*
X6127Y3415*
X6135Y3407*
X6144Y3402*
X6154Y3400*
X6155*
Y3435*
G37*
G36*
X4740Y3395D02*
X4705D01*
Y3360*
X4705*
X4715Y3362*
X4724Y3367*
X4732Y3375*
X4737Y3384*
X4740Y3394*
Y3395*
G37*
G36*
X4695D02*
X4660D01*
Y3394*
X4662Y3384*
X4667Y3375*
X4675Y3367*
X4684Y3362*
X4694Y3360*
X4695*
Y3395*
G37*
G36*
X4540D02*
X4505D01*
Y3360*
X4505*
X4515Y3362*
X4524Y3367*
X4532Y3375*
X4537Y3384*
X4540Y3394*
Y3395*
G37*
G36*
X4495D02*
X4460D01*
Y3394*
X4462Y3384*
X4467Y3375*
X4475Y3367*
X4484Y3362*
X4494Y3360*
X4495*
Y3395*
G37*
G36*
X6025Y3380D02*
X6025D01*
Y3345*
X6060*
Y3345*
X6057Y3355*
X6052Y3364*
X6044Y3372*
X6035Y3377*
X6025Y3380*
G37*
G36*
X6015D02*
X6014D01*
X6004Y3377*
X5995Y3372*
X5987Y3364*
X5982Y3355*
X5980Y3345*
Y3345*
X6015*
Y3380*
G37*
G36*
X4825Y3334D02*
Y3305D01*
X4854*
X4852Y3313*
X4848Y3321*
X4841Y3328*
X4833Y3332*
X4825Y3334*
G37*
G36*
X4815D02*
X4806Y3332D01*
X4798Y3328*
X4791Y3321*
X4787Y3313*
X4785Y3305*
X4815*
Y3334*
G37*
G36*
X6060Y3335D02*
X6025D01*
Y3300*
X6025*
X6035Y3302*
X6044Y3307*
X6052Y3315*
X6057Y3324*
X6060Y3334*
Y3335*
G37*
G36*
X6015D02*
X5980D01*
Y3334*
X5982Y3324*
X5987Y3315*
X5995Y3307*
X6004Y3302*
X6014Y3300*
X6015*
Y3335*
G37*
G36*
X6785Y3320D02*
X6785D01*
Y3285*
X6820*
Y3285*
X6817Y3295*
X6812Y3304*
X6804Y3312*
X6795Y3317*
X6785Y3320*
G37*
G36*
X6775D02*
X6774D01*
X6764Y3317*
X6755Y3312*
X6747Y3304*
X6742Y3295*
X6740Y3285*
Y3285*
X6775*
Y3320*
G37*
G36*
X4815Y3295D02*
X4785D01*
X4787Y3286*
X4791Y3278*
X4798Y3271*
X4806Y3267*
X4815Y3265*
Y3295*
G37*
G36*
X5865Y3294D02*
X5856Y3292D01*
X5848Y3288*
X5841Y3281*
X5837Y3273*
X5835Y3265*
X5865*
Y3294*
G37*
G36*
X6820Y3275D02*
X6785D01*
Y3240*
X6785*
X6795Y3242*
X6804Y3247*
X6812Y3255*
X6817Y3264*
X6820Y3274*
Y3275*
G37*
G36*
X6775D02*
X6740D01*
Y3274*
X6742Y3264*
X6747Y3255*
X6755Y3247*
X6764Y3242*
X6774Y3240*
X6775*
Y3275*
G37*
G36*
X5865Y3255D02*
X5835D01*
X5837Y3246*
X5841Y3238*
X5848Y3231*
X5856Y3227*
X5865Y3225*
Y3255*
G37*
G36*
X4405Y3260D02*
X4405D01*
Y3225*
X4440*
Y3225*
X4437Y3235*
X4432Y3244*
X4424Y3252*
X4415Y3257*
X4405Y3260*
G37*
G36*
X2165D02*
X2165D01*
Y3225*
X2200*
Y3225*
X2197Y3235*
X2192Y3244*
X2184Y3252*
X2175Y3257*
X2165Y3260*
G37*
G36*
X2155D02*
X2154D01*
X2144Y3257*
X2135Y3252*
X2127Y3244*
X2122Y3235*
X2120Y3225*
Y3225*
X2155*
Y3260*
G37*
G36*
X5225Y3234D02*
X5216Y3232D01*
X5208Y3228*
X5201Y3221*
X5197Y3213*
X5195Y3205*
X5225*
Y3234*
G37*
G36*
X6465Y3220D02*
X6465D01*
Y3185*
X6500*
Y3185*
X6497Y3195*
X6492Y3204*
X6484Y3212*
X6475Y3217*
X6465Y3220*
G37*
G36*
X6455D02*
X6454D01*
X6444Y3217*
X6435Y3212*
X6427Y3204*
X6422Y3195*
X6420Y3185*
Y3185*
X6455*
Y3220*
G37*
G36*
X6125D02*
X6125D01*
Y3185*
X6160*
Y3185*
X6157Y3195*
X6152Y3204*
X6144Y3212*
X6135Y3217*
X6125Y3220*
G37*
G36*
X6115D02*
X6114D01*
X6104Y3217*
X6095Y3212*
X6087Y3204*
X6082Y3195*
X6080Y3185*
Y3185*
X6115*
Y3220*
G37*
G36*
X5875Y3294D02*
Y3260D01*
Y3224*
X5884Y3224*
X5888Y3212*
X5893Y3202*
X5902Y3193*
X5912Y3188*
X5924Y3185*
X5935*
X5947Y3188*
X5957Y3193*
X5966Y3202*
X5971Y3212*
X5975Y3224*
Y3235*
X5971Y3247*
X5966Y3257*
X5957Y3266*
X5947Y3271*
X5935Y3275*
X5924*
X5909Y3273*
X5898Y3281*
X5891Y3288*
X5883Y3292*
X5875Y3294*
G37*
G36*
X3205Y3220D02*
X3205D01*
Y3185*
X3240*
Y3185*
X3237Y3195*
X3232Y3204*
X3224Y3212*
X3215Y3217*
X3205Y3220*
G37*
G36*
X3195D02*
X3194D01*
X3184Y3217*
X3175Y3212*
X3167Y3204*
X3162Y3195*
X3160Y3185*
Y3185*
X3195*
Y3220*
G37*
G36*
X1165D02*
X1165D01*
Y3185*
X1200*
Y3185*
X1197Y3195*
X1192Y3204*
X1184Y3212*
X1175Y3217*
X1165Y3220*
G37*
G36*
X4440Y3215D02*
X4405D01*
Y3180*
X4405*
X4415Y3182*
X4424Y3187*
X4432Y3195*
X4437Y3204*
X4440Y3214*
Y3215*
G37*
G36*
X4255Y3610D02*
X4250D01*
X3444*
X3439*
X3436Y3609*
X3433Y3609*
X3422Y3607*
X3419Y3606*
X3416Y3605*
X3406Y3601*
X3404Y3600*
X3401Y3598*
X3392Y3592*
X3389Y3590*
X3387Y3588*
X3379Y3580*
X3377Y3578*
X3375Y3576*
X3369Y3567*
X3368Y3564*
X3366Y3561*
X3362Y3551*
X3361Y3548*
X3360Y3545*
X3358Y3535*
X3358Y3534*
X3358Y3533*
X3357Y3532*
X3356Y3529*
X3355Y3527*
X3355Y3526*
X3355Y3524*
X3355Y3522*
X3354Y3519*
Y2519*
Y2513*
X3355Y2510*
X3355Y2507*
X3357Y2496*
X3358Y2493*
X3359Y2490*
X3364Y2479*
X3365Y2477*
X3366Y2474*
X3373Y2464*
X3375Y2462*
X3377Y2460*
X3385Y2451*
X3387Y2450*
X3390Y2448*
X3399Y2441*
X3402Y2440*
X3405Y2438*
X3415Y2434*
X3418Y2433*
X3421Y2432*
X3433Y2430*
X3436Y2430*
X3439Y2429*
X3444*
X4240*
X4246*
X4249Y2430*
X4252Y2430*
X4266Y2433*
X4269Y2433*
X4272Y2434*
X4284Y2440*
X4287Y2441*
X4289Y2442*
X4301Y2450*
X4303Y2452*
X4306Y2454*
X4315Y2463*
X4317Y2466*
X4319Y2468*
X4327Y2480*
X4328Y2482*
X4329Y2485*
X4335Y2498*
X4336Y2500*
X4336Y2503*
X4339Y2517*
X4339Y2520*
X4340Y2523*
Y2530*
Y2963*
X4360Y2972*
X4370Y2973*
X4375Y2967*
X4384Y2962*
X4394Y2960*
X4395*
Y3000*
Y3040*
X4394*
X4384Y3037*
X4375Y3032*
X4370Y3026*
X4360Y3027*
X4340Y3036*
Y3183*
X4360Y3192*
X4370Y3193*
X4375Y3187*
X4384Y3182*
X4394Y3180*
X4395*
Y3220*
Y3260*
X4394*
X4384Y3257*
X4375Y3252*
X4370Y3246*
X4360Y3247*
X4340Y3256*
Y3520*
Y3525*
X4339Y3528*
X4339Y3531*
X4337Y3543*
X4336Y3546*
X4335Y3549*
X4331Y3560*
X4329Y3562*
X4328Y3565*
X4321Y3575*
X4319Y3577*
X4318Y3579*
X4309Y3588*
X4307Y3589*
X4305Y3591*
X4295Y3598*
X4292Y3599*
X4290Y3601*
X4279Y3605*
X4276Y3606*
X4273Y3607*
X4261Y3609*
X4258Y3609*
X4255Y3610*
G37*
G36*
X2200Y3215D02*
X2165D01*
Y3180*
X2165*
X2175Y3182*
X2184Y3187*
X2192Y3195*
X2197Y3204*
X2200Y3214*
Y3215*
G37*
G36*
X2155D02*
X2120D01*
Y3214*
X2122Y3204*
X2127Y3195*
X2135Y3187*
X2144Y3182*
X2154Y3180*
X2155*
Y3215*
G37*
G36*
X5264Y3195D02*
X5235D01*
Y3165*
X5243Y3167*
X5251Y3171*
X5258Y3178*
X5262Y3186*
X5264Y3195*
G37*
G36*
X5225D02*
X5195D01*
X5197Y3186*
X5201Y3178*
X5208Y3171*
X5216Y3167*
X5225Y3165*
Y3195*
G37*
G36*
X6015Y3184D02*
Y3155D01*
X6044*
X6042Y3163*
X6038Y3171*
X6031Y3178*
X6023Y3182*
X6015Y3184*
G37*
G36*
X6005D02*
X5996Y3182D01*
X5988Y3178*
X5981Y3171*
X5977Y3163*
X5975Y3155*
X6005*
Y3184*
G37*
G36*
X4634Y3289D02*
X4485D01*
Y3140*
X4634*
Y3289*
G37*
G36*
X6500Y3175D02*
X6465D01*
Y3140*
X6465*
X6475Y3142*
X6484Y3147*
X6492Y3155*
X6497Y3164*
X6500Y3174*
Y3175*
G37*
G36*
X6455D02*
X6420D01*
Y3174*
X6422Y3164*
X6427Y3155*
X6435Y3147*
X6444Y3142*
X6454Y3140*
X6455*
Y3175*
G37*
G36*
X6115D02*
X6080D01*
Y3174*
X6082Y3164*
X6087Y3155*
X6095Y3147*
X6104Y3142*
X6114Y3140*
X6115*
Y3175*
G37*
G36*
X3240D02*
X3205D01*
Y3140*
X3205*
X3215Y3142*
X3224Y3147*
X3232Y3155*
X3237Y3164*
X3240Y3174*
Y3175*
G37*
G36*
X3195D02*
X3160D01*
Y3174*
X3162Y3164*
X3167Y3155*
X3175Y3147*
X3184Y3142*
X3194Y3140*
X3195*
Y3175*
G37*
G36*
X1200D02*
X1165D01*
Y3140*
X1165*
X1175Y3142*
X1184Y3147*
X1192Y3155*
X1197Y3164*
X1200Y3174*
Y3175*
G37*
G36*
X1975Y3190D02*
X1975D01*
Y3135*
X2030*
Y3135*
X2027Y3147*
X2023Y3158*
X2016Y3168*
X2008Y3176*
X1998Y3183*
X1987Y3187*
X1975Y3190*
G37*
G36*
X1851Y3125D02*
X1783D01*
Y3088*
X1851*
Y3125*
G37*
G36*
X6785Y3120D02*
X6785D01*
Y3085*
X6820*
Y3085*
X6817Y3095*
X6812Y3104*
X6804Y3112*
X6795Y3117*
X6785Y3120*
G37*
G36*
X6775D02*
X6774D01*
X6764Y3117*
X6755Y3112*
X6747Y3104*
X6742Y3095*
X6740Y3085*
Y3085*
X6775*
Y3120*
G37*
G36*
X5205Y3114D02*
Y3085D01*
X5234*
X5232Y3093*
X5228Y3101*
X5221Y3108*
X5213Y3112*
X5205Y3114*
G37*
G36*
X2395Y3104D02*
Y3075D01*
X2424*
X2422Y3083*
X2418Y3091*
X2411Y3098*
X2403Y3102*
X2395Y3104*
G37*
G36*
X2385D02*
X2376Y3102D01*
X2368Y3098*
X2361Y3091*
X2357Y3083*
X2355Y3075*
X2385*
Y3104*
G37*
G36*
X2030Y3125D02*
X1975D01*
Y3070*
X1975*
X1987Y3072*
X1998Y3076*
X2008Y3083*
X2016Y3091*
X2023Y3101*
X2027Y3112*
X2030Y3124*
Y3125*
G37*
G36*
X1965Y3190D02*
X1964D01*
X1952Y3187*
X1941Y3183*
X1931Y3176*
X1926Y3171*
X1861*
Y3130*
Y3088*
X1926*
X1931Y3083*
X1941Y3076*
X1952Y3072*
X1964Y3070*
X1965*
Y3130*
Y3190*
G37*
G36*
X5234Y3075D02*
X5205D01*
Y3045*
X5213Y3047*
X5221Y3051*
X5228Y3058*
X5232Y3066*
X5234Y3075*
G37*
G36*
X2165Y3080D02*
X2165D01*
Y3045*
X2200*
Y3045*
X2197Y3055*
X2192Y3064*
X2184Y3072*
X2175Y3077*
X2165Y3080*
G37*
G36*
X2155D02*
X2154D01*
X2144Y3077*
X2135Y3072*
X2127Y3064*
X2122Y3055*
X2120Y3045*
Y3045*
X2155*
Y3080*
G37*
G36*
X6820Y3075D02*
X6785D01*
Y3040*
X6785*
X6795Y3042*
X6804Y3047*
X6812Y3055*
X6817Y3064*
X6820Y3074*
Y3075*
G37*
G36*
X6775D02*
X6740D01*
Y3074*
X6742Y3064*
X6747Y3055*
X6755Y3047*
X6764Y3042*
X6774Y3040*
X6775*
Y3075*
G37*
G36*
X2424Y3065D02*
X2395D01*
Y3035*
X2403Y3037*
X2411Y3041*
X2418Y3048*
X2422Y3056*
X2424Y3065*
G37*
G36*
X2385D02*
X2355D01*
X2357Y3056*
X2361Y3048*
X2368Y3041*
X2376Y3037*
X2385Y3035*
Y3065*
G37*
G36*
X2200Y3035D02*
X2165D01*
Y3000*
X2165*
X2175Y3002*
X2184Y3007*
X2192Y3015*
X2197Y3024*
X2200Y3034*
Y3035*
G37*
G36*
X2155D02*
X2120D01*
Y3034*
X2122Y3024*
X2127Y3015*
X2135Y3007*
X2144Y3002*
X2154Y3000*
X2155*
Y3035*
G37*
G36*
X1165Y3000D02*
X1165D01*
Y2965*
X1200*
Y2965*
X1197Y2975*
X1192Y2984*
X1184Y2992*
X1175Y2997*
X1165Y3000*
G37*
G36*
X2005Y2980D02*
X2005D01*
Y2945*
X2040*
Y2945*
X2037Y2955*
X2032Y2964*
X2024Y2972*
X2015Y2977*
X2005Y2980*
G37*
G36*
X1995D02*
X1994D01*
X1984Y2977*
X1975Y2972*
X1967Y2964*
X1962Y2955*
X1960Y2945*
Y2945*
X1995*
Y2980*
G37*
G36*
X6798Y2961D02*
Y2931D01*
X6827*
X6825Y2940*
X6821Y2948*
X6814Y2954*
X6806Y2959*
X6798Y2961*
G37*
G36*
X6788D02*
X6779Y2959D01*
X6771Y2954*
X6765Y2948*
X6760Y2940*
X6758Y2931*
X6788*
Y2961*
G37*
G36*
X1765Y2960D02*
X1765D01*
Y2925*
X1800*
Y2925*
X1797Y2935*
X1792Y2944*
X1784Y2952*
X1775Y2957*
X1765Y2960*
G37*
G36*
X1200Y2955D02*
X1165D01*
Y2920*
X1165*
X1175Y2922*
X1184Y2927*
X1192Y2935*
X1197Y2944*
X1200Y2954*
Y2955*
G37*
G36*
X2040Y2935D02*
X2005D01*
Y2900*
X2005*
X2015Y2902*
X2024Y2907*
X2032Y2915*
X2037Y2924*
X2040Y2934*
Y2935*
G37*
G36*
X1995D02*
X1960D01*
Y2934*
X1962Y2924*
X1967Y2915*
X1975Y2907*
X1984Y2902*
X1994Y2900*
X1995*
Y2935*
G37*
G36*
X2205Y2920D02*
X2205D01*
Y2885*
X2240*
Y2885*
X2237Y2895*
X2232Y2904*
X2224Y2912*
X2215Y2917*
X2205Y2920*
G37*
G36*
X2195D02*
X2194D01*
X2184Y2917*
X2175Y2912*
X2167Y2904*
X2162Y2895*
X2160Y2885*
Y2885*
X2195*
Y2920*
G37*
G36*
X1800Y2915D02*
X1765D01*
Y2880*
X1765*
X1775Y2882*
X1784Y2887*
X1792Y2895*
X1797Y2904*
X1800Y2914*
Y2915*
G37*
G36*
X1755D02*
X1720D01*
Y2914*
X1722Y2904*
X1727Y2895*
X1735Y2887*
X1744Y2882*
X1754Y2880*
X1755*
Y2915*
G37*
G36*
X3205Y2900D02*
X3205D01*
Y2865*
X3240*
Y2865*
X3237Y2875*
X3232Y2884*
X3224Y2892*
X3215Y2897*
X3205Y2900*
G37*
G36*
X3195D02*
X3194D01*
X3184Y2897*
X3175Y2892*
X3167Y2884*
X3162Y2875*
X3160Y2865*
Y2865*
X3195*
Y2900*
G37*
G36*
X4804Y2875D02*
X4775D01*
Y2845*
X4783Y2847*
X4791Y2851*
X4798Y2858*
X4802Y2866*
X4804Y2875*
G37*
G36*
X4765D02*
X4735D01*
X4737Y2866*
X4741Y2858*
X4748Y2851*
X4756Y2847*
X4765Y2845*
Y2875*
G37*
G36*
X2240D02*
X2205D01*
Y2840*
X2205*
X2215Y2842*
X2224Y2847*
X2232Y2855*
X2237Y2864*
X2240Y2874*
Y2875*
G37*
G36*
X2195D02*
X2160D01*
Y2874*
X2162Y2864*
X2167Y2855*
X2175Y2847*
X2184Y2842*
X2194Y2840*
X2195*
Y2875*
G37*
G36*
X6827Y2921D02*
X6758D01*
X6760Y2913*
X6765Y2905*
X6767Y2902*
X6764Y2886*
X6756Y2872*
X6751*
Y2825*
X6834*
Y2872*
X6829*
X6821Y2886*
X6818Y2902*
X6821Y2905*
X6825Y2913*
X6827Y2921*
G37*
G36*
X1845Y2860D02*
X1845D01*
Y2825*
X1880*
Y2825*
X1877Y2835*
X1872Y2844*
X1864Y2852*
X1855Y2857*
X1845Y2860*
G37*
G36*
X1835D02*
X1834D01*
X1824Y2857*
X1815Y2852*
X1807Y2844*
X1802Y2835*
X1800Y2825*
Y2825*
X1835*
Y2860*
G37*
G36*
X3240Y2855D02*
X3205D01*
Y2820*
X3205*
X3215Y2822*
X3224Y2827*
X3232Y2835*
X3237Y2844*
X3240Y2854*
Y2855*
G37*
G36*
X3195D02*
X3160D01*
Y2854*
X3162Y2844*
X3167Y2835*
X3175Y2827*
X3184Y2822*
X3194Y2820*
X3195*
Y2855*
G37*
G36*
X1674Y2825D02*
X1645D01*
Y2795*
X1653Y2797*
X1661Y2801*
X1668Y2808*
X1672Y2816*
X1674Y2825*
G37*
G36*
X2105Y2820D02*
X2105D01*
Y2785*
X2140*
Y2785*
X2137Y2795*
X2132Y2804*
X2124Y2812*
X2115Y2817*
X2105Y2820*
G37*
G36*
X2095D02*
X2094D01*
X2084Y2817*
X2075Y2812*
X2067Y2804*
X2062Y2795*
X2060Y2785*
Y2785*
X2095*
Y2820*
G37*
G36*
X1880Y2815D02*
X1845D01*
Y2780*
X1845*
X1855Y2782*
X1864Y2787*
X1872Y2795*
X1877Y2804*
X1880Y2814*
Y2815*
G37*
G36*
X1835D02*
X1800D01*
Y2814*
X1802Y2804*
X1807Y2795*
X1815Y2787*
X1824Y2782*
X1834Y2780*
X1835*
Y2815*
G37*
G36*
X6834D02*
X6798D01*
Y2767*
X6834*
Y2815*
G37*
G36*
X6788D02*
X6751D01*
Y2767*
X6788*
Y2815*
G37*
G36*
X4985Y2800D02*
X4985D01*
Y2765*
X5020*
Y2765*
X5017Y2775*
X5012Y2784*
X5004Y2792*
X4995Y2797*
X4985Y2800*
G37*
G36*
X4975D02*
X4974D01*
X4964Y2797*
X4955Y2792*
X4947Y2784*
X4942Y2775*
X4940Y2765*
Y2765*
X4975*
Y2800*
G37*
G36*
X1165Y2780D02*
X1165D01*
Y2745*
X1200*
Y2745*
X1197Y2755*
X1192Y2764*
X1184Y2772*
X1175Y2777*
X1165Y2780*
G37*
G36*
X2140Y2775D02*
X2105D01*
Y2740*
X2105*
X2115Y2742*
X2124Y2747*
X2132Y2755*
X2137Y2764*
X2140Y2774*
Y2775*
G37*
G36*
X2095D02*
X2060D01*
Y2774*
X2062Y2764*
X2067Y2755*
X2075Y2747*
X2084Y2742*
X2094Y2740*
X2095*
Y2775*
G37*
G36*
X5345Y2760D02*
X5345D01*
Y2725*
X5380*
Y2725*
X5377Y2735*
X5372Y2744*
X5364Y2752*
X5355Y2757*
X5345Y2760*
G37*
G36*
X5335D02*
X5334D01*
X5324Y2757*
X5315Y2752*
X5307Y2744*
X5302Y2735*
X5300Y2725*
Y2725*
X5335*
Y2760*
G37*
G36*
X1945D02*
X1945D01*
Y2725*
X1980*
Y2725*
X1977Y2735*
X1972Y2744*
X1964Y2752*
X1955Y2757*
X1945Y2760*
G37*
G36*
X1935D02*
X1934D01*
X1924Y2757*
X1915Y2752*
X1907Y2744*
X1902Y2735*
X1900Y2725*
Y2725*
X1935*
Y2760*
G37*
G36*
X5020Y2755D02*
X4985D01*
Y2720*
X4985*
X4995Y2722*
X5004Y2727*
X5012Y2735*
X5017Y2744*
X5020Y2754*
Y2755*
G37*
G36*
X4975D02*
X4940D01*
Y2754*
X4942Y2744*
X4947Y2735*
X4955Y2727*
X4964Y2722*
X4974Y2720*
X4975*
Y2755*
G37*
G36*
X1555Y2744D02*
Y2715D01*
X1584*
X1582Y2723*
X1578Y2731*
X1571Y2738*
X1563Y2742*
X1555Y2744*
G37*
G36*
X1545D02*
X1536Y2742D01*
X1528Y2738*
X1521Y2731*
X1517Y2723*
X1515Y2715*
X1545*
Y2744*
G37*
G36*
X4567Y2859D02*
X4552D01*
X4538Y2856*
X4524Y2850*
X4512Y2842*
X4502Y2832*
X4494Y2820*
X4488Y2806*
X4485Y2792*
Y2777*
X4488Y2763*
X4494Y2749*
X4502Y2737*
X4512Y2727*
X4524Y2719*
X4538Y2713*
X4552Y2710*
X4567*
X4581Y2713*
X4595Y2719*
X4607Y2727*
X4617Y2737*
X4625Y2749*
X4631Y2763*
X4634Y2777*
Y2792*
X4631Y2806*
X4625Y2820*
X4617Y2832*
X4607Y2842*
X4595Y2850*
X4581Y2856*
X4567Y2859*
G37*
G36*
X1725Y2740D02*
X1725D01*
Y2705*
X1760*
Y2705*
X1757Y2715*
X1752Y2724*
X1744Y2732*
X1735Y2737*
X1725Y2740*
G37*
G36*
X1715D02*
X1714D01*
X1704Y2737*
X1695Y2732*
X1687Y2724*
X1682Y2715*
X1680Y2705*
Y2705*
X1715*
Y2740*
G37*
G36*
X1200Y2735D02*
X1165D01*
Y2700*
X1165*
X1175Y2702*
X1184Y2707*
X1192Y2715*
X1197Y2724*
X1200Y2734*
Y2735*
G37*
G36*
X5380Y2715D02*
X5345D01*
Y2680*
X5345*
X5355Y2682*
X5364Y2687*
X5372Y2695*
X5377Y2704*
X5380Y2714*
Y2715*
G37*
G36*
X5335D02*
X5300D01*
Y2714*
X5302Y2704*
X5307Y2695*
X5315Y2687*
X5324Y2682*
X5334Y2680*
X5335*
Y2715*
G37*
G36*
X1980D02*
X1945D01*
Y2680*
X1945*
X1955Y2682*
X1964Y2687*
X1972Y2695*
X1977Y2704*
X1980Y2714*
Y2715*
G37*
G36*
X1935D02*
X1900D01*
Y2714*
X1902Y2704*
X1907Y2695*
X1915Y2687*
X1924Y2682*
X1934Y2680*
X1935*
Y2715*
G37*
G36*
X1760Y2695D02*
X1725D01*
Y2660*
X1725*
X1735Y2662*
X1744Y2667*
X1752Y2675*
X1757Y2684*
X1760Y2694*
Y2695*
G37*
G36*
X1715D02*
X1680D01*
Y2694*
X1682Y2684*
X1687Y2675*
X1695Y2667*
X1704Y2662*
X1714Y2660*
X1715*
Y2695*
G37*
G36*
X4785Y2680D02*
X4785D01*
Y2645*
X4820*
Y2645*
X4817Y2655*
X4812Y2664*
X4804Y2672*
X4795Y2677*
X4785Y2680*
G37*
G36*
X4775D02*
X4774D01*
X4764Y2677*
X4755Y2672*
X4747Y2664*
X4742Y2655*
X4740Y2645*
Y2645*
X4775*
Y2680*
G37*
G36*
X3205Y2640D02*
X3205D01*
Y2605*
X3240*
Y2605*
X3237Y2615*
X3232Y2624*
X3224Y2632*
X3215Y2637*
X3205Y2640*
G37*
G36*
X3195D02*
X3194D01*
X3184Y2637*
X3175Y2632*
X3167Y2624*
X3162Y2615*
X3160Y2605*
Y2605*
X3195*
Y2640*
G37*
G36*
X6600Y2635D02*
X6565D01*
Y2600*
X6565*
X6575Y2602*
X6584Y2607*
X6592Y2615*
X6597Y2624*
X6600Y2634*
Y2635*
G37*
G36*
X6555D02*
X6520D01*
Y2634*
X6522Y2624*
X6527Y2615*
X6535Y2607*
X6544Y2602*
X6554Y2600*
X6555*
Y2635*
G37*
G36*
X4820D02*
X4785D01*
Y2600*
X4785*
X4795Y2602*
X4804Y2607*
X4812Y2615*
X4817Y2624*
X4820Y2634*
Y2635*
G37*
G36*
X4775D02*
X4740D01*
Y2634*
X4742Y2624*
X4747Y2615*
X4755Y2607*
X4764Y2602*
X4774Y2600*
X4775*
Y2635*
G37*
G36*
X6155Y2604D02*
X6146Y2602D01*
X6138Y2598*
X6131Y2591*
X6127Y2583*
X6125Y2575*
X6155*
Y2604*
G37*
G36*
X5225Y2655D02*
X5214D01*
X5202Y2651*
X5192Y2646*
X5183Y2637*
X5178Y2627*
X5175Y2615*
Y2604*
X5178Y2592*
X5183Y2582*
X5192Y2573*
X5202Y2568*
X5214Y2565*
X5225*
X5237Y2568*
X5247Y2573*
X5256Y2582*
X5261Y2592*
X5265Y2604*
Y2615*
X5261Y2627*
X5256Y2637*
X5247Y2646*
X5237Y2651*
X5225Y2655*
G37*
G36*
X1874Y2601D02*
X1806D01*
Y2565*
X1874*
Y2601*
G37*
G36*
X3240Y2595D02*
X3205D01*
Y2560*
X3205*
X3215Y2562*
X3224Y2567*
X3232Y2575*
X3237Y2584*
X3240Y2594*
Y2595*
G37*
G36*
X3195D02*
X3160D01*
Y2594*
X3162Y2584*
X3167Y2575*
X3175Y2567*
X3184Y2562*
X3194Y2560*
X3195*
Y2595*
G37*
G36*
X4985Y2560D02*
X4985D01*
Y2525*
X5020*
Y2525*
X5017Y2535*
X5012Y2544*
X5004Y2552*
X4995Y2557*
X4985Y2560*
G37*
G36*
X4975D02*
X4974D01*
X4964Y2557*
X4955Y2552*
X4947Y2544*
X4942Y2535*
X4940Y2525*
Y2525*
X4975*
Y2560*
G37*
G36*
X1874Y2555D02*
X1806D01*
Y2518*
X1874*
Y2555*
G37*
G36*
X5625Y2540D02*
X5625D01*
Y2505*
X5660*
Y2505*
X5657Y2515*
X5652Y2524*
X5644Y2532*
X5635Y2537*
X5625Y2540*
G37*
G36*
X5615D02*
X5614D01*
X5604Y2537*
X5595Y2532*
X5587Y2524*
X5582Y2515*
X5580Y2505*
Y2505*
X5615*
Y2540*
G37*
G36*
X1695Y2620D02*
X1695D01*
Y2560*
Y2500*
X1695*
X1707Y2502*
X1718Y2506*
X1728Y2513*
X1733Y2518*
X1796*
Y2560*
Y2601*
X1733*
X1728Y2606*
X1718Y2613*
X1707Y2617*
X1695Y2620*
G37*
G36*
X5020Y2515D02*
X4985D01*
Y2480*
X4985*
X4995Y2482*
X5004Y2487*
X5012Y2495*
X5017Y2504*
X5020Y2514*
Y2515*
G37*
G36*
X4975D02*
X4940D01*
Y2514*
X4942Y2504*
X4947Y2495*
X4955Y2487*
X4964Y2482*
X4974Y2480*
X4975*
Y2515*
G37*
G36*
X5660Y2495D02*
X5625D01*
Y2460*
X5625*
X5635Y2462*
X5644Y2467*
X5652Y2475*
X5657Y2484*
X5660Y2494*
Y2495*
G37*
G36*
X5615D02*
X5580D01*
Y2494*
X5582Y2484*
X5587Y2475*
X5595Y2467*
X5604Y2462*
X5614Y2460*
X5615*
Y2495*
G37*
G36*
X1785Y2480D02*
X1785D01*
Y2445*
X1820*
Y2445*
X1817Y2455*
X1812Y2464*
X1804Y2472*
X1795Y2477*
X1785Y2480*
G37*
G36*
X1775D02*
X1774D01*
X1764Y2477*
X1755Y2472*
X1747Y2464*
X1742Y2455*
X1740Y2445*
Y2445*
X1775*
Y2480*
G37*
G36*
X1665Y2460D02*
X1665D01*
Y2425*
X1700*
Y2425*
X1697Y2435*
X1692Y2444*
X1684Y2452*
X1675Y2457*
X1665Y2460*
G37*
G36*
X1820Y2435D02*
X1785D01*
Y2400*
X1785*
X1795Y2402*
X1804Y2407*
X1812Y2415*
X1817Y2424*
X1820Y2434*
Y2435*
G37*
G36*
X1775D02*
X1740D01*
Y2434*
X1742Y2424*
X1747Y2415*
X1755Y2407*
X1764Y2402*
X1774Y2400*
X1775*
Y2435*
G37*
G36*
X4693Y2397D02*
X4692D01*
Y2342*
X4747*
Y2343*
X4744Y2354*
X4740Y2365*
X4733Y2375*
X4725Y2383*
X4715Y2390*
X4704Y2394*
X4693Y2397*
G37*
G36*
X4682D02*
X4681D01*
X4669Y2394*
X4658Y2390*
X4649Y2383*
X4640Y2375*
X4634Y2365*
X4629Y2354*
X4627Y2343*
Y2342*
X4682*
Y2397*
G37*
G36*
X1800Y2359D02*
Y2335D01*
X1848*
Y2359*
X1800*
G37*
G36*
X4747Y2332D02*
X4692D01*
Y2277*
X4693*
X4704Y2279*
X4715Y2284*
X4725Y2290*
X4733Y2299*
X4740Y2308*
X4744Y2319*
X4747Y2331*
Y2332*
G37*
G36*
X4682D02*
X4627D01*
Y2331*
X4629Y2319*
X4634Y2308*
X4640Y2299*
X4649Y2290*
X4658Y2284*
X4669Y2279*
X4681Y2277*
X4682*
Y2332*
G37*
G36*
X6663Y2306D02*
X6663D01*
X6652Y2303*
X6643Y2298*
X6636Y2290*
X6631Y2281*
X6628Y2271*
Y2271*
X6663*
Y2306*
G37*
G36*
X6708Y2261D02*
X6628D01*
Y2261*
X6631Y2250*
X6633Y2246*
X6627Y2229*
X6619Y2216*
X6562*
X6559Y2219*
X6557Y2221*
X6555Y2222*
X6553Y2224*
X6552Y2225*
X6549Y2226*
X6547Y2227*
X6545Y2228*
X6543Y2229*
X6541Y2229*
X6539Y2229*
X6536*
X6534Y2230*
X6532Y2229*
X6529*
X6527Y2229*
X6525Y2229*
X6523Y2228*
X6520Y2227*
X6518Y2226*
X6516Y2225*
X6514Y2224*
X6512Y2222*
X6511Y2221*
X6509Y2219*
X6508Y2218*
X6506Y2216*
X6505Y2214*
X6503Y2212*
X6502Y2210*
X6501Y2208*
X6501Y2206*
X6500Y2204*
X6500Y2201*
X6499Y2199*
Y2197*
X6499Y2194*
X6499Y2192*
Y2190*
X6500Y2188*
X6500Y2185*
X6501Y2183*
X6501Y2181*
X6502Y2179*
X6503Y2177*
X6505Y2175*
X6506Y2173*
X6508Y2171*
X6509Y2169*
X6534Y2145*
X6541Y2139*
X6549Y2136*
Y2123*
X6645*
X6646Y2122*
X6647Y2121*
X6649Y2119*
X6650Y2118*
X6652Y2117*
X6654Y2116*
X6656Y2115*
X6658Y2115*
X6659Y2114*
X6661Y2114*
X6663Y2113*
X6665Y2113*
X6667Y2113*
X6669Y2113*
X6671Y2113*
X6673Y2114*
X6675Y2114*
X6677Y2115*
X6679Y2115*
X6680Y2116*
X6682Y2117*
X6683Y2117*
X6683Y2117*
X6684Y2117*
X6685Y2117*
X6688Y2116*
X6691Y2116*
X6692Y2116*
X6693Y2116*
X6696Y2116*
X6699Y2116*
X6700Y2117*
X6701Y2117*
X6704Y2118*
X6706Y2119*
X6707Y2119*
X6708Y2120*
X6711Y2121*
X6713Y2123*
X6714Y2124*
X6715Y2125*
X6716Y2126*
X6760*
X6786Y2136*
X6795*
Y2170*
Y2203*
X6786*
X6760Y2213*
X6740*
X6716*
X6715Y2214*
X6713Y2217*
X6707Y2228*
X6705Y2238*
X6705Y2244*
X6705Y2246*
X6705Y2252*
X6708Y2261*
Y2261*
G37*
G36*
X6363Y2240D02*
X6363D01*
Y2205*
X6398*
Y2205*
X6395Y2215*
X6390Y2225*
X6382Y2232*
X6373Y2237*
X6363Y2240*
G37*
G36*
X6353D02*
X6352D01*
X6342Y2237*
X6333Y2232*
X6326Y2225*
X6320Y2215*
X6318Y2205*
Y2205*
X6353*
Y2240*
G37*
G36*
X6855Y2204D02*
X6833Y2203D01*
X6805*
Y2170*
Y2136*
X6833*
X6855Y2135*
Y2170*
Y2204*
G37*
G36*
X6398Y2195D02*
X6363D01*
Y2160*
X6363*
X6373Y2163*
X6382Y2168*
X6390Y2175*
X6395Y2185*
X6398Y2195*
Y2195*
G37*
G36*
X6353D02*
X6318D01*
Y2195*
X6320Y2185*
X6326Y2175*
X6333Y2168*
X6342Y2163*
X6352Y2160*
X6353*
Y2195*
G37*
G36*
X5795Y2101D02*
X5779D01*
Y2057*
X5795*
Y2101*
G37*
G36*
X6345Y2080D02*
X6345D01*
Y2045*
X6380*
Y2045*
X6377Y2055*
X6372Y2064*
X6364Y2072*
X6355Y2077*
X6345Y2080*
G37*
G36*
X6335D02*
X6334D01*
X6324Y2077*
X6315Y2072*
X6307Y2064*
X6302Y2055*
X6300Y2045*
Y2045*
X6335*
Y2080*
G37*
G36*
X6204Y2055D02*
X6175D01*
Y2025*
X6183Y2027*
X6191Y2031*
X6198Y2038*
X6202Y2046*
X6204Y2055*
G37*
G36*
X6147Y2098D02*
Y2098D01*
X6116*
Y2060*
Y2021*
X6147*
X6165Y2024*
Y2060*
X6170*
Y2065*
X6204*
X6202Y2073*
X6198Y2081*
X6191Y2088*
X6183Y2092*
X6175Y2094*
X6174Y2095*
X6147Y2098*
G37*
G36*
X6048Y2173D02*
X6045Y2173D01*
X6042*
X6039Y2172*
X6036Y2172*
X6033Y2170*
X6030Y2170*
X6028Y2168*
X6025Y2167*
X6023Y2165*
X6020Y2164*
X6018Y2162*
X6016Y2160*
X6014Y2158*
X6012Y2155*
X6010Y2153*
X6008Y2150*
X6007Y2148*
X6006Y2145*
X6005Y2142*
X6004Y2140*
X6004Y2137*
X6003Y2134*
Y2131*
X6003Y2129*
X5980Y2111*
X5819*
Y2101*
X5805*
Y2052*
X5800*
Y2047*
X5779*
Y2003*
X5777Y2003*
X5776Y2002*
X5768Y1998*
X5768*
X5761Y1991*
X5757Y1983*
X5755Y1975*
X5790*
Y1970*
X5795*
Y1934*
X5816Y1917*
X5819Y1912*
Y1830*
X5820Y1822*
X5823Y1814*
X5828Y1808*
X6007Y1629*
X6007Y1628*
X6007Y1628*
X6007Y1627*
X6009Y1624*
X6010Y1621*
X6010Y1620*
X6010Y1620*
X6012Y1617*
X6014Y1614*
X6015Y1614*
X6015Y1614*
X6018Y1612*
X6021Y1609*
X6021Y1609*
X6021Y1609*
X6025Y1608*
X6027Y1607*
Y1591*
X6152*
Y1609*
X6154Y1610*
X6157Y1611*
X6158Y1612*
X6158Y1612*
X6161Y1614*
X6164Y1616*
X6164Y1616*
X6164Y1617*
X6164Y1617*
X6173*
X6182Y1619*
X6191Y1625*
X6203Y1637*
X6226Y1630*
X6233Y1599*
X6232Y1597*
X6229Y1584*
Y1571*
X6232Y1559*
X6239Y1547*
X6248Y1538*
X6259Y1532*
X6272Y1528*
X6285*
X6297Y1532*
X6299Y1532*
X6321Y1524*
X6325Y1522*
X6330Y1517*
X6332Y1509*
X6339Y1497*
X6348Y1488*
X6359Y1482*
X6372Y1478*
X6385*
X6397Y1482*
X6408Y1487*
X6409Y1488*
X6413Y1489*
X6440Y1484*
X6443Y1482*
X6443Y1482*
X6452Y1473*
X6462Y1468*
X6474Y1465*
X6485*
X6487Y1465*
X6511Y1455*
X6521Y1447*
X6525Y1434*
X6533Y1417*
X6544Y1402*
X6557Y1389*
X6572Y1378*
X6589Y1370*
X6607Y1364*
X6625Y1361*
X6644*
X6662Y1364*
X6680Y1370*
X6697Y1378*
X6712Y1389*
X6725Y1402*
X6736Y1417*
X6744Y1434*
X6750Y1452*
X6753Y1470*
Y1489*
X6750Y1507*
X6744Y1525*
X6736Y1542*
X6725Y1557*
X6712Y1570*
X6697Y1581*
X6680Y1589*
X6662Y1595*
X6644Y1598*
X6625*
X6607Y1595*
X6589Y1589*
X6572Y1581*
X6557Y1570*
X6544Y1557*
X6541Y1552*
X6538Y1550*
X6511Y1546*
X6503Y1548*
X6497Y1551*
X6485Y1555*
X6474*
X6462Y1551*
X6455Y1548*
X6445Y1547*
X6427Y1552*
X6413Y1581*
X6418Y1597*
X6418Y1597*
X6424Y1609*
X6428Y1621*
Y1634*
X6424Y1647*
X6418Y1658*
X6418Y1658*
X6412Y1678*
X6418Y1697*
X6418Y1697*
X6424Y1709*
X6428Y1721*
Y1734*
X6424Y1747*
X6418Y1758*
X6418Y1758*
X6412Y1778*
X6418Y1797*
X6418Y1797*
X6424Y1809*
X6428Y1821*
Y1834*
X6424Y1847*
X6418Y1858*
X6409Y1867*
X6397Y1874*
X6385Y1877*
X6372*
X6359Y1874*
X6358Y1873*
X6336Y1881*
X6332Y1884*
X6327Y1889*
X6324Y1897*
X6318Y1908*
X6309Y1917*
X6297Y1924*
X6285Y1927*
X6272*
X6259Y1924*
X6248Y1917*
X6239Y1908*
X6232Y1897*
X6229Y1884*
Y1871*
X6232Y1859*
X6239Y1847*
X6246Y1840*
X6248Y1837*
X6249Y1832*
X6250Y1806*
X6249Y1804*
X6247Y1802*
X6241Y1793*
X6239Y1783*
Y1783*
X6278*
Y1773*
X6239*
Y1772*
X6214Y1753*
X6192*
X6181Y1764*
X6172Y1770*
X6165Y1771*
X6164Y1772*
X6164Y1773*
X6164Y1773*
X6161Y1775*
X6158Y1777*
X6158Y1777*
X6157Y1778*
X6154Y1779*
X6152Y1780*
Y1798*
X6027*
X6004Y1817*
X5930Y1892*
Y1993*
X5980*
X6002Y2011*
X6018Y2010*
X6018*
X6022Y2009*
X6024Y2009*
X6026Y2009*
X6028Y2010*
X6030Y2010*
X6032Y2011*
X6093*
Y2021*
X6106*
Y2060*
Y2098*
X6093*
Y2108*
X6093*
Y2128*
X6093Y2131*
Y2134*
X6092Y2137*
X6092Y2140*
X6090Y2142*
X6090Y2145*
X6088Y2148*
X6087Y2150*
X6085Y2153*
X6084Y2155*
X6082Y2158*
X6080Y2160*
X6078Y2162*
X6075Y2164*
X6073Y2165*
X6070Y2167*
X6068Y2168*
X6065Y2170*
X6062Y2170*
X6060Y2172*
X6057Y2172*
X6054Y2173*
X6051*
X6048Y2173*
G37*
G36*
X6380Y2035D02*
X6345D01*
Y2000*
X6345*
X6355Y2002*
X6364Y2007*
X6372Y2015*
X6377Y2024*
X6380Y2034*
Y2035*
G37*
G36*
X6335D02*
X6300D01*
Y2034*
X6302Y2024*
X6307Y2015*
X6315Y2007*
X6324Y2002*
X6334Y2000*
X6335*
Y2035*
G37*
G36*
X5785Y1965D02*
X5755D01*
X5757Y1956*
X5761Y1948*
X5768Y1941*
X5776Y1937*
X5785Y1935*
Y1965*
G37*
G36*
X6815Y1960D02*
X6814D01*
X6804Y1957*
X6795Y1952*
X6787Y1944*
X6782Y1935*
X6780Y1925*
Y1925*
X6815*
Y1960*
G37*
G36*
X6475Y1954D02*
X6466Y1952D01*
X6458Y1948*
X6451Y1941*
X6447Y1933*
X6445Y1925*
X6475*
Y1954*
G37*
G36*
X6085Y1954D02*
X6037D01*
Y1918*
X6085*
Y1954*
G37*
G36*
X6475Y1915D02*
X6445D01*
X6447Y1906*
X6451Y1898*
X6458Y1891*
X6466Y1887*
X6475Y1885*
Y1915*
G37*
G36*
X6815D02*
X6780D01*
Y1914*
X6782Y1904*
X6787Y1895*
X6795Y1887*
X6804Y1882*
X6814Y1880*
X6815*
Y1915*
G37*
G36*
X6201Y1908D02*
X6171D01*
Y1878*
X6180Y1880*
X6188Y1885*
X6194Y1891*
X6199Y1899*
X6201Y1908*
G37*
G36*
X6085D02*
X6037D01*
Y1871*
X6085*
Y1908*
G37*
G36*
X6142Y1954D02*
D01*
X6095*
Y1913*
Y1871*
X6142*
X6161Y1877*
Y1913*
X6166*
Y1918*
X6201*
X6199Y1926*
X6194Y1934*
X6188Y1941*
X6180Y1945*
X6171Y1948*
X6170*
X6142Y1954*
G37*
G36*
X6639Y2048D02*
X6620D01*
X6602Y2045*
X6584Y2039*
X6567Y2031*
X6552Y2020*
X6539Y2007*
X6528Y1992*
X6520Y1975*
X6518Y1970*
X6498Y1956*
X6485Y1955*
Y1920*
Y1885*
X6493Y1887*
X6520Y1877*
X6525Y1873*
X6528Y1867*
X6539Y1852*
X6552Y1839*
X6567Y1828*
X6584Y1820*
X6602Y1814*
X6620Y1811*
X6639*
X6657Y1814*
X6675Y1820*
X6692Y1828*
X6707Y1839*
X6720Y1852*
X6731Y1867*
X6739Y1884*
X6745Y1902*
X6748Y1920*
Y1939*
X6745Y1957*
X6739Y1975*
X6731Y1992*
X6720Y2007*
X6707Y2020*
X6692Y2031*
X6675Y2039*
X6657Y2045*
X6639Y2048*
G37*
G36*
X4525Y1800D02*
X4525D01*
Y1765*
X4560*
Y1765*
X4557Y1775*
X4552Y1784*
X4544Y1792*
X4535Y1797*
X4525Y1800*
G37*
G36*
X4515D02*
X4514D01*
X4504Y1797*
X4495Y1792*
X4487Y1784*
X4482Y1775*
X4480Y1765*
Y1765*
X4515*
Y1800*
G37*
G36*
X4715Y1784D02*
Y1755D01*
X4744*
X4742Y1763*
X4738Y1771*
X4731Y1778*
X4723Y1782*
X4715Y1784*
G37*
G36*
X4705D02*
X4696Y1782D01*
X4688Y1778*
X4681Y1771*
X4677Y1763*
X4675Y1755*
X4705*
Y1784*
G37*
G36*
X4895Y1765D02*
X4884D01*
X4872Y1761*
X4862Y1756*
X4855Y1748*
X4847Y1756*
X4837Y1761*
X4825Y1765*
X4814*
X4802Y1761*
X4792Y1756*
X4783Y1747*
X4778Y1737*
X4775Y1725*
Y1714*
X4778Y1702*
X4783Y1692*
X4792Y1683*
X4802Y1678*
X4814Y1675*
X4825*
X4837Y1678*
X4847Y1683*
X4855Y1691*
X4862Y1683*
X4872Y1678*
X4884Y1675*
X4895*
X4907Y1678*
X4917Y1683*
X4926Y1692*
X4931Y1702*
X4935Y1714*
Y1725*
X4931Y1737*
X4926Y1747*
X4917Y1756*
X4907Y1761*
X4895Y1765*
G37*
G36*
X4560Y1755D02*
X4525D01*
Y1720*
X4525*
X4535Y1722*
X4544Y1727*
X4552Y1735*
X4557Y1744*
X4560Y1754*
Y1755*
G37*
G36*
X4515D02*
X4480D01*
Y1754*
X4482Y1744*
X4487Y1735*
X4495Y1727*
X4504Y1722*
X4514Y1720*
X4515*
Y1755*
G37*
G36*
X4744Y1745D02*
X4715D01*
Y1715*
X4723Y1717*
X4731Y1721*
X4738Y1728*
X4742Y1736*
X4744Y1745*
G37*
G36*
X4705D02*
X4675D01*
X4677Y1736*
X4681Y1728*
X4688Y1721*
X4696Y1717*
X4705Y1715*
Y1745*
G37*
G36*
X6645Y1720D02*
X6645D01*
Y1685*
X6680*
Y1685*
X6677Y1695*
X6672Y1704*
X6664Y1712*
X6655Y1717*
X6645Y1720*
G37*
G36*
X6635D02*
X6634D01*
X6624Y1717*
X6615Y1712*
X6607Y1704*
X6602Y1695*
X6600Y1685*
Y1685*
X6635*
Y1720*
G37*
G36*
X6815Y1680D02*
X6814D01*
X6804Y1677*
X6795Y1672*
X6787Y1664*
X6782Y1655*
X6780Y1645*
Y1645*
X6815*
Y1680*
G37*
G36*
X6680Y1675D02*
X6645D01*
Y1640*
X6645*
X6655Y1642*
X6664Y1647*
X6672Y1655*
X6677Y1664*
X6680Y1674*
Y1675*
G37*
G36*
X6635D02*
X6600D01*
Y1674*
X6602Y1664*
X6607Y1655*
X6615Y1647*
X6624Y1642*
X6634Y1640*
X6635*
Y1675*
G37*
G36*
X4385Y1660D02*
X4385D01*
Y1625*
X4420*
Y1625*
X4417Y1635*
X4412Y1644*
X4404Y1652*
X4395Y1657*
X4385Y1660*
G37*
G36*
X4375D02*
X4374D01*
X4364Y1657*
X4355Y1652*
X4347Y1644*
X4342Y1635*
X4340Y1625*
Y1625*
X4375*
Y1660*
G37*
G36*
X6815Y1635D02*
X6780D01*
Y1634*
X6782Y1624*
X6787Y1615*
X6795Y1607*
X6804Y1602*
X6814Y1600*
X6815*
Y1635*
G37*
G36*
X5805Y1620D02*
X5805D01*
Y1585*
X5840*
Y1585*
X5837Y1595*
X5832Y1604*
X5824Y1612*
X5815Y1617*
X5805Y1620*
G37*
G36*
X5795D02*
X5794D01*
X5784Y1617*
X5775Y1612*
X5767Y1604*
X5762Y1595*
X5760Y1585*
Y1585*
X5795*
Y1620*
G37*
G36*
X4420Y1615D02*
X4385D01*
Y1580*
X4385*
X4395Y1582*
X4404Y1587*
X4412Y1595*
X4417Y1604*
X4420Y1614*
Y1615*
G37*
G36*
X4375D02*
X4340D01*
Y1614*
X4342Y1604*
X4347Y1595*
X4355Y1587*
X4364Y1582*
X4374Y1580*
X4375*
Y1615*
G37*
G36*
X5145Y1600D02*
X5145D01*
Y1565*
X5180*
Y1565*
X5177Y1575*
X5172Y1584*
X5164Y1592*
X5155Y1597*
X5145Y1600*
G37*
G36*
X5135D02*
X5134D01*
X5124Y1597*
X5115Y1592*
X5107Y1584*
X5102Y1575*
X5100Y1565*
Y1565*
X5135*
Y1600*
G37*
G36*
X5840Y1575D02*
X5805D01*
Y1540*
X5805*
X5815Y1542*
X5824Y1547*
X5832Y1555*
X5837Y1564*
X5840Y1574*
Y1575*
G37*
G36*
X5795D02*
X5760D01*
Y1574*
X5762Y1564*
X5767Y1555*
X5775Y1547*
X5784Y1542*
X5794Y1540*
X5795*
Y1575*
G37*
G36*
X6047Y1537D02*
X6044Y1536D01*
X6042Y1536*
X6040Y1536*
X6039Y1536*
X6037Y1535*
X6034Y1534*
X6033Y1533*
X6032Y1533*
X6030Y1531*
X6028Y1530*
X6027Y1529*
X6025Y1528*
X6024Y1526*
X6022Y1524*
X6022Y1524*
X6020Y1524*
X6019Y1524*
X6017Y1524*
X6015Y1523*
X6013Y1523*
X6011Y1522*
X6009Y1522*
X6008Y1521*
X5997*
X5985Y1518*
X5975Y1512*
X5967Y1504*
X5961Y1494*
X5958Y1482*
Y1471*
X5961Y1459*
X5967Y1449*
X5975Y1440*
X5985Y1435*
X5997Y1431*
X6008*
X6009Y1431*
X6011Y1430*
X6013Y1430*
X6015Y1429*
X6017Y1429*
X6019Y1429*
X6020Y1429*
X6022Y1429*
X6022Y1429*
X6024Y1427*
X6025Y1425*
X6027Y1424*
X6028Y1423*
X6030Y1422*
X6032Y1420*
X6033Y1420*
X6034Y1419*
X6037Y1418*
X6039Y1417*
X6040Y1417*
X6042Y1417*
X6044Y1416*
X6047Y1416*
X6048Y1416*
X6050Y1416*
X6052Y1417*
X6055Y1417*
X6056Y1418*
X6058Y1418*
X6060Y1419*
X6062Y1420*
X6063Y1421*
X6065Y1422*
X6066Y1424*
X6067Y1425*
X6152*
Y1528*
X6067*
X6066Y1529*
X6065Y1531*
X6063Y1532*
X6062Y1533*
X6060Y1534*
X6058Y1535*
X6056Y1535*
X6055Y1536*
X6052Y1536*
X6050Y1537*
X6048Y1536*
X6047Y1537*
G37*
G36*
X5180Y1555D02*
X5145D01*
Y1520*
X5145*
X5155Y1522*
X5164Y1527*
X5172Y1535*
X5177Y1544*
X5180Y1554*
Y1555*
G37*
G36*
X5135D02*
X5100D01*
Y1554*
X5102Y1544*
X5107Y1535*
X5115Y1527*
X5124Y1522*
X5134Y1520*
X5135*
Y1555*
G37*
G36*
X4647Y1663D02*
X4635D01*
X4624Y1660*
X4614Y1654*
X4605Y1645*
X4599Y1635*
X4596Y1624*
Y1612*
X4598Y1605*
X4595Y1596*
X4593Y1593*
X4578Y1577*
X4576*
X4565Y1574*
X4554Y1568*
X4546Y1560*
X4540Y1549*
X4537Y1538*
Y1526*
X4540Y1515*
X4546Y1504*
X4554Y1496*
X4565Y1490*
X4576Y1487*
X4588*
X4599Y1490*
X4610Y1496*
X4618Y1504*
X4624Y1515*
X4627Y1526*
Y1538*
X4625Y1544*
X4628Y1553*
X4631Y1557*
X4645Y1573*
X4647*
X4659Y1576*
X4669Y1582*
X4677Y1590*
X4683Y1600*
X4686Y1612*
Y1624*
X4683Y1635*
X4677Y1645*
X4669Y1654*
X4659Y1660*
X4647Y1663*
G37*
G36*
X6815Y1460D02*
X6814D01*
X6804Y1457*
X6795Y1452*
X6787Y1444*
X6782Y1435*
X6780Y1425*
Y1425*
X6815*
Y1460*
G37*
G36*
X4405D02*
X4405D01*
Y1425*
X4440*
Y1425*
X4437Y1435*
X4432Y1444*
X4424Y1452*
X4415Y1457*
X4405Y1460*
G37*
G36*
X4395D02*
X4394D01*
X4384Y1457*
X4375Y1452*
X4367Y1444*
X4362Y1435*
X4360Y1425*
Y1425*
X4395*
Y1460*
G37*
G36*
X4954Y1595D02*
X4945D01*
X4936Y1592*
X4928Y1588*
X4921Y1581*
X4917Y1573*
X4915Y1564*
Y1555*
X4917Y1546*
X4921Y1538*
X4922Y1537*
X4923Y1532*
X4925Y1526*
X4930Y1520*
X4945Y1505*
X4945Y1488*
X4945Y1486*
X4938Y1475*
X4928Y1468*
X4928Y1468*
X4921Y1461*
X4917Y1453*
X4915Y1445*
X4950*
Y1440*
X4955*
Y1405*
X4963Y1407*
X4971Y1411*
X4978Y1418*
X4982Y1426*
X4985Y1435*
X4991Y1448*
X5004Y1455*
X5013Y1457*
X5021Y1461*
X5028Y1468*
X5032Y1476*
X5035Y1485*
Y1494*
X5032Y1503*
X5029Y1508*
X5029Y1511*
X5029Y1511*
X5029Y1512*
X5027Y1515*
X5026Y1518*
X5026Y1519*
X5026Y1520*
X5024Y1522*
X5022Y1525*
X5021Y1525*
X5021Y1526*
X5018Y1528*
X5016Y1530*
X5015Y1530*
X5014Y1531*
X5012Y1532*
X5009Y1533*
X5009Y1533*
X5007Y1534*
X5004Y1537*
X5004Y1537*
X5004Y1537*
X5000Y1538*
X4997Y1540*
X4987Y1552*
X4985Y1564*
X4982Y1573*
X4978Y1581*
X4971Y1588*
X4963Y1592*
X4954Y1595*
G37*
G36*
X4945Y1435D02*
X4915D01*
X4917Y1426*
X4921Y1418*
X4928Y1411*
X4936Y1407*
X4945Y1405*
Y1435*
G37*
G36*
X6815Y1415D02*
X6780D01*
Y1414*
X6782Y1404*
X6787Y1395*
X6795Y1387*
X6804Y1382*
X6814Y1380*
X6815*
Y1415*
G37*
G36*
X4440D02*
X4405D01*
Y1380*
X4405*
X4415Y1382*
X4424Y1387*
X4432Y1395*
X4437Y1404*
X4440Y1414*
Y1415*
G37*
G36*
X4395D02*
X4360D01*
Y1414*
X4362Y1404*
X4367Y1395*
X4375Y1387*
X4384Y1382*
X4394Y1380*
X4395*
Y1415*
G37*
G36*
X5805Y1400D02*
X5805D01*
Y1365*
X5840*
Y1365*
X5837Y1375*
X5832Y1384*
X5824Y1392*
X5815Y1397*
X5805Y1400*
G37*
G36*
X5795D02*
X5794D01*
X5784Y1397*
X5775Y1392*
X5767Y1384*
X5762Y1375*
X5760Y1365*
Y1365*
X5795*
Y1400*
G37*
G36*
X5065Y1380D02*
X5065D01*
Y1345*
X5100*
Y1345*
X5097Y1355*
X5092Y1364*
X5084Y1372*
X5075Y1377*
X5065Y1380*
G37*
G36*
X5055D02*
X5054D01*
X5044Y1377*
X5035Y1372*
X5027Y1364*
X5022Y1355*
X5020Y1345*
Y1345*
X5055*
Y1380*
G37*
G36*
X4715Y1435D02*
X4704D01*
X4692Y1431*
X4682Y1426*
X4673Y1417*
X4668Y1407*
X4665Y1395*
Y1384*
X4668Y1372*
X4673Y1362*
X4682Y1353*
X4692Y1348*
X4704Y1345*
X4715*
X4727Y1348*
X4737Y1353*
X4746Y1362*
X4751Y1372*
X4755Y1384*
Y1395*
X4751Y1407*
X4746Y1417*
X4737Y1426*
X4727Y1431*
X4715Y1435*
G37*
G36*
X5840Y1355D02*
X5805D01*
Y1320*
X5805*
X5815Y1322*
X5824Y1327*
X5832Y1335*
X5837Y1344*
X5840Y1354*
Y1355*
G37*
G36*
X5795D02*
X5760D01*
Y1354*
X5762Y1344*
X5767Y1335*
X5775Y1327*
X5784Y1322*
X5794Y1320*
X5795*
Y1355*
G37*
G36*
X5100Y1335D02*
X5065D01*
Y1300*
X5065*
X5075Y1302*
X5084Y1307*
X5092Y1315*
X5097Y1324*
X5100Y1334*
Y1335*
G37*
G36*
X5055D02*
X5020D01*
Y1334*
X5022Y1324*
X5027Y1315*
X5035Y1307*
X5044Y1302*
X5054Y1300*
X5055*
Y1335*
G37*
G36*
X5494Y1701D02*
X5466D01*
X5437Y1697*
X5410Y1690*
X5384Y1679*
X5359Y1665*
X5336Y1647*
X5316Y1627*
X5299Y1605*
X5285Y1580*
X5274Y1554*
X5267Y1526*
X5263Y1498*
Y1470*
X5267Y1441*
X5274Y1414*
X5285Y1388*
X5299Y1363*
X5316Y1341*
X5336Y1320*
X5359Y1303*
X5384Y1289*
X5410Y1278*
X5437Y1271*
X5466Y1267*
X5494*
X5522Y1271*
X5550Y1278*
X5576Y1289*
X5600Y1303*
X5623Y1320*
X5643Y1341*
X5660Y1363*
X5675Y1388*
X5686Y1414*
X5693Y1441*
X5697Y1470*
Y1498*
X5693Y1526*
X5686Y1554*
X5675Y1580*
X5660Y1605*
X5643Y1627*
X5623Y1647*
X5600Y1665*
X5576Y1679*
X5550Y1690*
X5522Y1697*
X5494Y1701*
G37*
G36*
X2423D02*
X2395D01*
X2366Y1697*
X2339Y1690*
X2313Y1679*
X2288Y1665*
X2266Y1647*
X2245Y1627*
X2228Y1605*
X2214Y1580*
X2203Y1554*
X2196Y1526*
X2192Y1498*
Y1470*
X2196Y1441*
X2203Y1414*
X2214Y1388*
X2228Y1363*
X2245Y1341*
X2266Y1320*
X2288Y1303*
X2313Y1289*
X2339Y1278*
X2366Y1271*
X2395Y1267*
X2423*
X2451Y1271*
X2479Y1278*
X2505Y1289*
X2530Y1303*
X2552Y1320*
X2572Y1341*
X2590Y1363*
X2604Y1388*
X2615Y1414*
X2622Y1441*
X2626Y1470*
Y1498*
X2622Y1526*
X2615Y1554*
X2604Y1580*
X2590Y1605*
X2572Y1627*
X2552Y1647*
X2530Y1665*
X2505Y1679*
X2479Y1690*
X2451Y1697*
X2423Y1701*
G37*
G36*
X6545Y1200D02*
X6545D01*
Y1165*
X6580*
Y1165*
X6577Y1175*
X6572Y1184*
X6564Y1192*
X6555Y1197*
X6545Y1200*
G37*
G36*
X6535D02*
X6534D01*
X6524Y1197*
X6515Y1192*
X6507Y1184*
X6502Y1175*
X6500Y1165*
Y1165*
X6535*
Y1200*
G37*
G36*
X6305D02*
X6305D01*
Y1165*
X6340*
Y1165*
X6337Y1175*
X6332Y1184*
X6324Y1192*
X6315Y1197*
X6305Y1200*
G37*
G36*
X6295D02*
X6294D01*
X6284Y1197*
X6275Y1192*
X6267Y1184*
X6262Y1175*
X6260Y1165*
Y1165*
X6295*
Y1200*
G37*
G36*
X6045D02*
X6045D01*
Y1165*
X6080*
Y1165*
X6077Y1175*
X6072Y1184*
X6064Y1192*
X6055Y1197*
X6045Y1200*
G37*
G36*
X6035D02*
X6034D01*
X6024Y1197*
X6015Y1192*
X6007Y1184*
X6002Y1175*
X6000Y1165*
Y1165*
X6035*
Y1200*
G37*
G36*
X5805D02*
X5805D01*
Y1165*
X5840*
Y1165*
X5837Y1175*
X5832Y1184*
X5824Y1192*
X5815Y1197*
X5805Y1200*
G37*
G36*
X5795D02*
X5794D01*
X5784Y1197*
X5775Y1192*
X5767Y1184*
X5762Y1175*
X5760Y1165*
Y1165*
X5795*
Y1200*
G37*
G36*
X5565D02*
X5565D01*
Y1165*
X5600*
Y1165*
X5597Y1175*
X5592Y1184*
X5584Y1192*
X5575Y1197*
X5565Y1200*
G37*
G36*
X5555D02*
X5554D01*
X5544Y1197*
X5535Y1192*
X5527Y1184*
X5522Y1175*
X5520Y1165*
Y1165*
X5555*
Y1200*
G37*
G36*
X5285D02*
X5285D01*
Y1165*
X5320*
Y1165*
X5317Y1175*
X5312Y1184*
X5304Y1192*
X5295Y1197*
X5285Y1200*
G37*
G36*
X5275D02*
X5274D01*
X5264Y1197*
X5255Y1192*
X5247Y1184*
X5242Y1175*
X5240Y1165*
Y1165*
X5275*
Y1200*
G37*
G36*
X5025D02*
X5025D01*
Y1165*
X5060*
Y1165*
X5057Y1175*
X5052Y1184*
X5044Y1192*
X5035Y1197*
X5025Y1200*
G37*
G36*
X5015D02*
X5014D01*
X5004Y1197*
X4995Y1192*
X4987Y1184*
X4982Y1175*
X4980Y1165*
Y1165*
X5015*
Y1200*
G37*
G36*
X4785D02*
X4785D01*
Y1165*
X4820*
Y1165*
X4817Y1175*
X4812Y1184*
X4804Y1192*
X4795Y1197*
X4785Y1200*
G37*
G36*
X4775D02*
X4774D01*
X4764Y1197*
X4755Y1192*
X4747Y1184*
X4742Y1175*
X4740Y1165*
Y1165*
X4775*
Y1200*
G37*
G36*
X4525D02*
X4525D01*
Y1165*
X4560*
Y1165*
X4557Y1175*
X4552Y1184*
X4544Y1192*
X4535Y1197*
X4525Y1200*
G37*
G36*
X4515D02*
X4514D01*
X4504Y1197*
X4495Y1192*
X4487Y1184*
X4482Y1175*
X4480Y1165*
Y1165*
X4515*
Y1200*
G37*
G36*
X4245D02*
X4245D01*
Y1165*
X4280*
Y1165*
X4277Y1175*
X4272Y1184*
X4264Y1192*
X4255Y1197*
X4245Y1200*
G37*
G36*
X4235D02*
X4234D01*
X4224Y1197*
X4215Y1192*
X4207Y1184*
X4202Y1175*
X4200Y1165*
Y1165*
X4235*
Y1200*
G37*
G36*
X3985D02*
X3985D01*
Y1165*
X4020*
Y1165*
X4017Y1175*
X4012Y1184*
X4004Y1192*
X3995Y1197*
X3985Y1200*
G37*
G36*
X3975D02*
X3974D01*
X3964Y1197*
X3955Y1192*
X3947Y1184*
X3942Y1175*
X3940Y1165*
Y1165*
X3975*
Y1200*
G37*
G36*
X3705D02*
X3705D01*
Y1165*
X3740*
Y1165*
X3737Y1175*
X3732Y1184*
X3724Y1192*
X3715Y1197*
X3705Y1200*
G37*
G36*
X3695D02*
X3694D01*
X3684Y1197*
X3675Y1192*
X3667Y1184*
X3662Y1175*
X3660Y1165*
Y1165*
X3695*
Y1200*
G37*
G36*
X3425D02*
X3425D01*
Y1165*
X3460*
Y1165*
X3457Y1175*
X3452Y1184*
X3444Y1192*
X3435Y1197*
X3425Y1200*
G37*
G36*
X3415D02*
X3414D01*
X3404Y1197*
X3395Y1192*
X3387Y1184*
X3382Y1175*
X3380Y1165*
Y1165*
X3415*
Y1200*
G37*
G36*
X3145D02*
X3145D01*
Y1165*
X3180*
Y1165*
X3177Y1175*
X3172Y1184*
X3164Y1192*
X3155Y1197*
X3145Y1200*
G37*
G36*
X3135D02*
X3134D01*
X3124Y1197*
X3115Y1192*
X3107Y1184*
X3102Y1175*
X3100Y1165*
Y1165*
X3135*
Y1200*
G37*
G36*
X2865D02*
X2865D01*
Y1165*
X2900*
Y1165*
X2897Y1175*
X2892Y1184*
X2884Y1192*
X2875Y1197*
X2865Y1200*
G37*
G36*
X2855D02*
X2854D01*
X2844Y1197*
X2835Y1192*
X2827Y1184*
X2822Y1175*
X2820Y1165*
Y1165*
X2855*
Y1200*
G37*
G36*
X2605D02*
X2605D01*
Y1165*
X2640*
Y1165*
X2637Y1175*
X2632Y1184*
X2624Y1192*
X2615Y1197*
X2605Y1200*
G37*
G36*
X2595D02*
X2594D01*
X2584Y1197*
X2575Y1192*
X2567Y1184*
X2562Y1175*
X2560Y1165*
Y1165*
X2595*
Y1200*
G37*
G36*
X2385D02*
X2385D01*
Y1165*
X2420*
Y1165*
X2417Y1175*
X2412Y1184*
X2404Y1192*
X2395Y1197*
X2385Y1200*
G37*
G36*
X2375D02*
X2374D01*
X2364Y1197*
X2355Y1192*
X2347Y1184*
X2342Y1175*
X2340Y1165*
Y1165*
X2375*
Y1200*
G37*
G36*
X2185D02*
X2185D01*
Y1165*
X2220*
Y1165*
X2217Y1175*
X2212Y1184*
X2204Y1192*
X2195Y1197*
X2185Y1200*
G37*
G36*
X2175D02*
X2174D01*
X2164Y1197*
X2155Y1192*
X2147Y1184*
X2142Y1175*
X2140Y1165*
Y1165*
X2175*
Y1200*
G37*
G36*
X6580Y1155D02*
X6545D01*
Y1120*
X6545*
X6555Y1122*
X6564Y1127*
X6572Y1135*
X6577Y1144*
X6580Y1154*
Y1155*
G37*
G36*
X6535D02*
X6500D01*
Y1154*
X6502Y1144*
X6507Y1135*
X6515Y1127*
X6524Y1122*
X6534Y1120*
X6535*
Y1155*
G37*
G36*
X6340D02*
X6305D01*
Y1120*
X6305*
X6315Y1122*
X6324Y1127*
X6332Y1135*
X6337Y1144*
X6340Y1154*
Y1155*
G37*
G36*
X6295D02*
X6260D01*
Y1154*
X6262Y1144*
X6267Y1135*
X6275Y1127*
X6284Y1122*
X6294Y1120*
X6295*
Y1155*
G37*
G36*
X6080D02*
X6045D01*
Y1120*
X6045*
X6055Y1122*
X6064Y1127*
X6072Y1135*
X6077Y1144*
X6080Y1154*
Y1155*
G37*
G36*
X6035D02*
X6000D01*
Y1154*
X6002Y1144*
X6007Y1135*
X6015Y1127*
X6024Y1122*
X6034Y1120*
X6035*
Y1155*
G37*
G36*
X5840D02*
X5805D01*
Y1120*
X5805*
X5815Y1122*
X5824Y1127*
X5832Y1135*
X5837Y1144*
X5840Y1154*
Y1155*
G37*
G36*
X5795D02*
X5760D01*
Y1154*
X5762Y1144*
X5767Y1135*
X5775Y1127*
X5784Y1122*
X5794Y1120*
X5795*
Y1155*
G37*
G36*
X5600D02*
X5565D01*
Y1120*
X5565*
X5575Y1122*
X5584Y1127*
X5592Y1135*
X5597Y1144*
X5600Y1154*
Y1155*
G37*
G36*
X5555D02*
X5520D01*
Y1154*
X5522Y1144*
X5527Y1135*
X5535Y1127*
X5544Y1122*
X5554Y1120*
X5555*
Y1155*
G37*
G36*
X5320D02*
X5285D01*
Y1120*
X5285*
X5295Y1122*
X5304Y1127*
X5312Y1135*
X5317Y1144*
X5320Y1154*
Y1155*
G37*
G36*
X5275D02*
X5240D01*
Y1154*
X5242Y1144*
X5247Y1135*
X5255Y1127*
X5264Y1122*
X5274Y1120*
X5275*
Y1155*
G37*
G36*
X5060D02*
X5025D01*
Y1120*
X5025*
X5035Y1122*
X5044Y1127*
X5052Y1135*
X5057Y1144*
X5060Y1154*
Y1155*
G37*
G36*
X5015D02*
X4980D01*
Y1154*
X4982Y1144*
X4987Y1135*
X4995Y1127*
X5004Y1122*
X5014Y1120*
X5015*
Y1155*
G37*
G36*
X4820D02*
X4785D01*
Y1120*
X4785*
X4795Y1122*
X4804Y1127*
X4812Y1135*
X4817Y1144*
X4820Y1154*
Y1155*
G37*
G36*
X4775D02*
X4740D01*
Y1154*
X4742Y1144*
X4747Y1135*
X4755Y1127*
X4764Y1122*
X4774Y1120*
X4775*
Y1155*
G37*
G36*
X4560D02*
X4525D01*
Y1120*
X4525*
X4535Y1122*
X4544Y1127*
X4552Y1135*
X4557Y1144*
X4560Y1154*
Y1155*
G37*
G36*
X4515D02*
X4480D01*
Y1154*
X4482Y1144*
X4487Y1135*
X4495Y1127*
X4504Y1122*
X4514Y1120*
X4515*
Y1155*
G37*
G36*
X4280D02*
X4245D01*
Y1120*
X4245*
X4255Y1122*
X4264Y1127*
X4272Y1135*
X4277Y1144*
X4280Y1154*
Y1155*
G37*
G36*
X4235D02*
X4200D01*
Y1154*
X4202Y1144*
X4207Y1135*
X4215Y1127*
X4224Y1122*
X4234Y1120*
X4235*
Y1155*
G37*
G36*
X4020D02*
X3985D01*
Y1120*
X3985*
X3995Y1122*
X4004Y1127*
X4012Y1135*
X4017Y1144*
X4020Y1154*
Y1155*
G37*
G36*
X3975D02*
X3940D01*
Y1154*
X3942Y1144*
X3947Y1135*
X3955Y1127*
X3964Y1122*
X3974Y1120*
X3975*
Y1155*
G37*
G36*
X3740D02*
X3705D01*
Y1120*
X3705*
X3715Y1122*
X3724Y1127*
X3732Y1135*
X3737Y1144*
X3740Y1154*
Y1155*
G37*
G36*
X3695D02*
X3660D01*
Y1154*
X3662Y1144*
X3667Y1135*
X3675Y1127*
X3684Y1122*
X3694Y1120*
X3695*
Y1155*
G37*
G36*
X3460D02*
X3425D01*
Y1120*
X3425*
X3435Y1122*
X3444Y1127*
X3452Y1135*
X3457Y1144*
X3460Y1154*
Y1155*
G37*
G36*
X3415D02*
X3380D01*
Y1154*
X3382Y1144*
X3387Y1135*
X3395Y1127*
X3404Y1122*
X3414Y1120*
X3415*
Y1155*
G37*
G36*
X3180D02*
X3145D01*
Y1120*
X3145*
X3155Y1122*
X3164Y1127*
X3172Y1135*
X3177Y1144*
X3180Y1154*
Y1155*
G37*
G36*
X3135D02*
X3100D01*
Y1154*
X3102Y1144*
X3107Y1135*
X3115Y1127*
X3124Y1122*
X3134Y1120*
X3135*
Y1155*
G37*
G36*
X2900D02*
X2865D01*
Y1120*
X2865*
X2875Y1122*
X2884Y1127*
X2892Y1135*
X2897Y1144*
X2900Y1154*
Y1155*
G37*
G36*
X2855D02*
X2820D01*
Y1154*
X2822Y1144*
X2827Y1135*
X2835Y1127*
X2844Y1122*
X2854Y1120*
X2855*
Y1155*
G37*
G36*
X2640D02*
X2605D01*
Y1120*
X2605*
X2615Y1122*
X2624Y1127*
X2632Y1135*
X2637Y1144*
X2640Y1154*
Y1155*
G37*
G36*
X2595D02*
X2560D01*
Y1154*
X2562Y1144*
X2567Y1135*
X2575Y1127*
X2584Y1122*
X2594Y1120*
X2595*
Y1155*
G37*
G36*
X2420D02*
X2385D01*
Y1120*
X2385*
X2395Y1122*
X2404Y1127*
X2412Y1135*
X2417Y1144*
X2420Y1154*
Y1155*
G37*
G36*
X2375D02*
X2340D01*
Y1154*
X2342Y1144*
X2347Y1135*
X2355Y1127*
X2364Y1122*
X2374Y1120*
X2375*
Y1155*
G37*
G36*
X2220D02*
X2185D01*
Y1120*
X2185*
X2195Y1122*
X2204Y1127*
X2212Y1135*
X2217Y1144*
X2220Y1154*
Y1155*
G37*
G36*
X2175D02*
X2140D01*
Y1154*
X2142Y1144*
X2147Y1135*
X2155Y1127*
X2164Y1122*
X2174Y1120*
X2175*
Y1155*
G37*
%LNpcb1-3*%
%LPD*%
G36*
X1810Y4170D02*
X1791D01*
Y4252*
X1750*
X1708*
Y4170*
X1700*
X1330Y3800*
X1324*
X1324Y3800*
X1325Y3807*
X1333Y3811*
X1343Y3821*
X1350Y3834*
X1354Y3848*
Y3850*
X1300*
X1245*
Y3848*
X1249Y3834*
X1256Y3821*
X1266Y3811*
X1274Y3807*
X1275Y3800*
X1275Y3800*
X1270*
X1230Y3840*
Y4280*
X1290Y4340*
X1708*
Y4262*
X1750*
X1791*
Y4340*
X1810*
Y4170*
G37*
%LNpcb1-4*%
%LPC*%
G36*
X1355Y4285D02*
X1355D01*
Y4245*
X1395*
Y4245*
X1392Y4257*
X1386Y4267*
X1377Y4276*
X1367Y4282*
X1355Y4285*
G37*
G36*
X1345D02*
X1344D01*
X1332Y4282*
X1322Y4276*
X1313Y4267*
X1307Y4257*
X1304Y4245*
Y4245*
X1345*
Y4285*
G37*
G36*
X1395Y4235D02*
X1355D01*
Y4194*
X1355*
X1367Y4197*
X1377Y4203*
X1386Y4212*
X1392Y4222*
X1395Y4234*
Y4235*
G37*
G36*
X1345D02*
X1304D01*
Y4234*
X1307Y4222*
X1313Y4212*
X1322Y4203*
X1332Y4197*
X1344Y4194*
X1345*
Y4235*
G37*
G36*
X1307Y3909D02*
X1305D01*
Y3860*
X1354*
Y3862*
X1350Y3876*
X1343Y3888*
X1333Y3898*
X1320Y3905*
X1307Y3909*
G37*
G36*
X1295D02*
X1292D01*
X1279Y3905*
X1266Y3898*
X1256Y3888*
X1249Y3876*
X1245Y3862*
Y3860*
X1295*
Y3909*
G37*
%LNpcb1-5*%
%LPD*%
G36*
X2086Y4237D02*
X2086Y4239D01*
X2085Y4240*
X2084Y4242*
X2082Y4243*
X2079Y4244*
X2076Y4244*
X2073Y4245*
X2069Y4246*
X2065Y4246*
X2065Y4245*
X2054Y4232*
X2052Y4229*
X2050Y4226*
X2050Y4224*
X2050Y4222*
X2050Y4220*
X2052Y4219*
X2007Y4243*
X2009Y4243*
X2012Y4243*
X2014Y4243*
X2017Y4245*
X2020Y4246*
X2024Y4249*
X2028Y4252*
X2037Y4260*
X2042Y4265*
X2059Y4256*
Y4276*
X2064Y4276*
X2073Y4277*
X2076Y4277*
X2079Y4278*
X2082Y4279*
X2084Y4280*
X2085Y4281*
X2086Y4283*
X2086Y4284*
Y4237*
G37*
G36*
X2038Y4146D02*
X2035Y4147D01*
X2032Y4148*
X2029Y4148*
X2026Y4147*
X2022Y4145*
X2017Y4143*
X2012Y4139*
X2007Y4135*
X1995Y4124*
X1978Y4149*
X1982Y4153*
X1991Y4164*
X1994Y4167*
X1995Y4170*
X1997Y4172*
X1998Y4175*
X1999Y4177*
X1999Y4179*
X2038Y4146*
G37*
G36*
X1948Y4009D02*
X1948Y4007D01*
X1949Y4004*
X1951Y4001*
X1952Y3999*
X1954Y3997*
X1956Y3996*
X1959Y3996*
X1949*
X1949Y3986*
X1914*
X1914Y3987*
X1915Y3989*
X1915Y3992*
X1915Y3996*
X1904*
Y3941*
X1903Y3942*
X1902Y3942*
X1899Y3943*
X1896Y3943*
X1872Y3944*
X1854Y3944*
Y3994*
X1904Y3996*
X1906Y3996*
X1908Y3997*
X1910Y3999*
X1912Y4001*
X1913Y4004*
X1914Y4007*
X1915Y4011*
X1916Y4015*
X1916Y4017*
X1916Y4039*
X1946*
X1948Y4009*
G37*
G36*
X1749Y3996D02*
X1751Y3995D01*
X1753Y3995*
X1757Y3995*
X1781Y3994*
X1799Y3994*
Y3944*
X1749Y3941*
Y3996*
X1749Y3996*
G37*
G36*
X6668Y2194D02*
X6668Y2192D01*
X6670Y2190*
X6672Y2189*
X6675Y2187*
X6678Y2186*
X6681Y2186*
X6683Y2186*
X6686Y2187*
X6689Y2188*
X6691Y2189*
X6692Y2190*
X6693Y2191*
X6693Y2193*
Y2185*
X6697Y2185*
Y2155*
X6693Y2154*
Y2146*
X6693Y2148*
X6692Y2149*
X6691Y2150*
X6689Y2151*
X6686Y2152*
X6683Y2153*
X6681Y2153*
X6678Y2153*
X6675Y2152*
X6672Y2150*
X6670Y2149*
X6668Y2147*
X6668Y2145*
X6667Y2143*
Y2154*
X6663Y2155*
Y2185*
X6667Y2185*
Y2196*
X6668Y2194*
G37*
G36*
X6022Y2073D02*
X6025Y2074D01*
X6028Y2076*
X6030Y2077*
Y2042*
X6028Y2043*
X6025Y2045*
X6022Y2046*
Y2040*
X6022Y2041*
X6022Y2043*
X6021Y2045*
X6019Y2046*
X6018Y2047*
X6018Y2047*
X6012Y2048*
X6000Y2049*
X5984Y2049*
X5979Y2049*
X5976Y2049*
X5973Y2049*
X5970Y2049*
X5967Y2048*
X5965Y2047*
X5963Y2046*
X5962Y2045*
X5961Y2043*
X5960Y2041*
X5960Y2040*
Y2080*
X5960Y2078*
X5961Y2076*
X5962Y2074*
X5963Y2073*
X5965Y2072*
X5967Y2071*
X5970Y2070*
X5973Y2070*
X5976Y2070*
X5979Y2070*
X5984Y2070*
X6012Y2071*
X6018Y2072*
X6018Y2072*
X6019Y2073*
X6021Y2074*
X6022Y2076*
X6022Y2078*
X6022Y2080*
Y2073*
G37*
G36*
X6097Y1753D02*
X6098Y1753D01*
X6099Y1752*
X6101Y1752*
X6105Y1752*
X6114Y1751*
X6118Y1751*
Y1741*
X6114Y1741*
X6099Y1740*
X6098Y1740*
X6097Y1740*
X6097Y1739*
Y1754*
X6097Y1753*
G37*
G36*
X6132Y1755D02*
X6133Y1755D01*
X6133Y1754*
X6134Y1753*
X6135Y1753*
X6136Y1752*
X6137Y1752*
X6139Y1752*
X6140Y1751*
X6142Y1751*
Y1741*
X6140Y1741*
X6139Y1741*
X6137Y1741*
X6136Y1741*
X6135Y1740*
X6134Y1740*
X6133Y1739*
X6133Y1738*
X6132Y1737*
X6132Y1736*
Y1756*
X6132Y1755*
G37*
G36*
X6047Y1732D02*
X6047Y1733D01*
X6046Y1734*
X6045Y1734*
X6044Y1735*
X6043Y1735*
X6042Y1736*
X6040Y1736*
X6038Y1736*
X6033Y1736*
Y1756*
X6035Y1756*
X6040Y1757*
X6042Y1757*
X6043Y1757*
X6044Y1758*
X6045Y1758*
X6046Y1759*
X6047Y1760*
X6047Y1761*
Y1732*
G37*
G36*
X6357Y1707D02*
X6354Y1710D01*
X6348Y1715*
X6346Y1717*
X6343Y1719*
X6341Y1720*
X6338Y1721*
X6336Y1722*
X6334Y1723*
X6331Y1723*
Y1733*
X6334Y1733*
X6336Y1733*
X6338Y1734*
X6341Y1735*
X6343Y1737*
X6346Y1738*
X6348Y1740*
X6354Y1745*
X6357Y1748*
Y1707*
G37*
G36*
X6257Y1657D02*
X6254Y1660D01*
X6248Y1665*
X6246Y1667*
X6243Y1669*
X6241Y1670*
X6238Y1671*
X6236Y1672*
X6234Y1673*
X6231Y1673*
Y1683*
X6234Y1683*
X6236Y1683*
X6238Y1684*
X6241Y1685*
X6243Y1687*
X6246Y1688*
X6248Y1690*
X6254Y1695*
X6257Y1698*
Y1657*
G37*
G36*
X6095Y1648D02*
X6096Y1648D01*
X6097Y1648*
X6110Y1648*
Y1638*
X6095Y1637*
Y1648*
X6095Y1648*
G37*
G36*
X6132Y1652D02*
X6133Y1651D01*
X6133Y1650*
X6134Y1649*
X6135Y1649*
X6136Y1648*
X6137Y1648*
X6139Y1648*
X6140Y1648*
X6142Y1648*
Y1638*
X6140Y1638*
X6139Y1637*
X6137Y1637*
X6136Y1637*
X6135Y1636*
X6134Y1636*
X6133Y1635*
X6133Y1634*
X6132Y1634*
X6132Y1633*
Y1653*
X6132Y1652*
G37*
G36*
X6047Y1632D02*
X6047Y1633D01*
X6046Y1633*
X6046Y1634*
X6045Y1634*
X6044Y1634*
X6043Y1635*
X6042Y1635*
X6040Y1635*
X6036Y1635*
Y1650*
X6038Y1650*
X6042Y1650*
X6043Y1651*
X6044Y1651*
X6045Y1651*
X6046Y1651*
X6046Y1652*
X6047Y1652*
X6047Y1653*
Y1632*
G37*
G36*
Y1446D02*
X6046Y1449D01*
X6046Y1452*
X6044Y1454*
X6042Y1456*
X6039Y1458*
X6036Y1459*
X6032Y1460*
X6028Y1461*
X6027Y1461*
X6026Y1461*
X6024Y1461*
X6023Y1460*
X6022Y1460*
X6021Y1459*
X6020Y1459*
Y1461*
X6017Y1461*
Y1491*
X6020Y1492*
Y1494*
X6021Y1493*
X6022Y1493*
X6023Y1493*
X6024Y1492*
X6026Y1492*
X6027Y1492*
X6028Y1492*
X6032Y1493*
X6036Y1494*
X6039Y1495*
X6042Y1497*
X6044Y1499*
X6046Y1501*
X6046Y1504*
X6047Y1506*
Y1446*
G37*
G36*
X4990Y1509D02*
X4993Y1507D01*
X4994Y1507*
X4995Y1506*
X4996Y1505*
X4997Y1505*
X4998Y1505*
X4998Y1505*
X4999Y1505*
X4985Y1490*
X4984Y1491*
X4984Y1491*
X4984Y1492*
X4984Y1493*
X4983Y1494*
X4982Y1495*
X4982Y1496*
X4981Y1497*
X4979Y1500*
X4989Y1510*
X4990Y1509*
G37*
%LNpcb1-6*%
%LPC*%
G36*
X5915Y4372D02*
X5888D01*
Y4335*
X5915*
Y4372*
G37*
G36*
X5878D02*
X5852D01*
Y4335*
X5878*
Y4372*
G37*
G36*
X5915Y4325D02*
X5888D01*
Y4287*
X5915*
Y4325*
G37*
G36*
X5878D02*
X5852D01*
Y4287*
X5878*
Y4325*
G37*
G36*
X5875Y4249D02*
X5843D01*
Y4227*
X5875*
Y4249*
G37*
G36*
X4566Y3064D02*
X4565D01*
Y3005*
X4624*
Y3006*
X4621Y3018*
X4616Y3030*
X4609Y3040*
X4600Y3049*
X4590Y3056*
X4578Y3061*
X4566Y3064*
G37*
G36*
X4555D02*
X4553D01*
X4541Y3061*
X4529Y3056*
X4519Y3049*
X4510Y3040*
X4503Y3030*
X4498Y3018*
X4495Y3006*
Y3005*
X4555*
Y3064*
G37*
G36*
X4624Y2995D02*
X4565D01*
Y2935*
X4566*
X4578Y2938*
X4590Y2943*
X4600Y2950*
X4609Y2959*
X4616Y2969*
X4621Y2981*
X4624Y2993*
Y2995*
G37*
G36*
X4555D02*
X4495D01*
Y2993*
X4498Y2981*
X4503Y2969*
X4510Y2959*
X4519Y2950*
X4529Y2943*
X4541Y2938*
X4553Y2935*
X4555*
Y2995*
G37*
G36*
X6142Y4424D02*
X6105D01*
Y4423*
X6107Y4413*
X6113Y4403*
X6121Y4395*
X6131Y4389*
X6141Y4386*
X6142*
Y4424*
G37*
G36*
X6027Y4372D02*
X6001D01*
Y4335*
X6027*
Y4372*
G37*
G36*
Y4325D02*
X6001D01*
Y4287*
X6027*
Y4325*
G37*
G36*
X6036Y4249D02*
X6005D01*
Y4227*
X6036*
Y4249*
G37*
G36*
X6675Y4290D02*
X6635D01*
Y4250*
X6675*
Y4290*
G37*
G36*
X6625D02*
X6584D01*
Y4250*
X6625*
Y4290*
G37*
G36*
X6675Y4240D02*
X6635D01*
Y4199*
X6675*
Y4240*
G37*
G36*
X6625D02*
X6584D01*
Y4199*
X6625*
Y4240*
G37*
G36*
X6153Y4196D02*
X6152D01*
Y4158*
X6189*
Y4159*
X6187Y4170*
X6181Y4179*
X6173Y4187*
X6163Y4193*
X6153Y4196*
G37*
G36*
X6142D02*
X6141D01*
X6131Y4193*
X6121Y4187*
X6113Y4179*
X6107Y4170*
X6105Y4159*
Y4158*
X6142*
Y4196*
G37*
G36*
X6189Y4148D02*
X6152D01*
Y4111*
X6153*
X6163Y4114*
X6173Y4119*
X6181Y4127*
X6187Y4137*
X6189Y4148*
Y4148*
G37*
G36*
X6142D02*
X6105D01*
Y4148*
X6107Y4137*
X6113Y4127*
X6121Y4119*
X6131Y4114*
X6141Y4111*
X6142*
Y4148*
G37*
G36*
X1703Y3392D02*
X1655D01*
Y3338*
X1703*
Y3392*
G37*
G36*
X1645D02*
X1596D01*
Y3338*
X1645*
Y3392*
G37*
G36*
X1655Y3171D02*
X1587D01*
Y3135*
X1655*
Y3171*
G37*
G36*
Y3125D02*
X1587D01*
Y3088*
X1655*
Y3125*
G37*
G36*
X1588Y2927D02*
X1555D01*
Y2896*
X1588*
Y2927*
G37*
G36*
X1545D02*
X1511D01*
Y2896*
X1545*
Y2927*
G37*
G36*
X6454Y2965D02*
X6425D01*
Y2935*
X6433Y2937*
X6441Y2941*
X6448Y2948*
X6452Y2956*
X6454Y2965*
G37*
G36*
X6365Y2880D02*
X6365D01*
Y2845*
X6400*
Y2845*
X6397Y2855*
X6392Y2864*
X6384Y2872*
X6375Y2877*
X6365Y2880*
G37*
G36*
X6355D02*
X6354D01*
X6344Y2877*
X6335Y2872*
X6327Y2864*
X6322Y2855*
X6320Y2845*
Y2845*
X6355*
Y2880*
G37*
G36*
X6400Y2835D02*
X6365D01*
Y2800*
X6365*
X6375Y2802*
X6384Y2807*
X6392Y2815*
X6397Y2824*
X6400Y2834*
Y2835*
G37*
G36*
X6355D02*
X6320D01*
Y2834*
X6322Y2824*
X6327Y2815*
X6335Y2807*
X6344Y2802*
X6354Y2800*
X6355*
Y2835*
G37*
G36*
X1422Y2625D02*
X1395D01*
Y2597*
X1402Y2599*
X1410Y2603*
X1416Y2609*
X1420Y2617*
X1422Y2625*
G37*
G36*
X1385D02*
X1357D01*
X1359Y2617*
X1363Y2609*
X1369Y2603*
X1377Y2599*
X1385Y2597*
Y2625*
G37*
G36*
X1545Y2573D02*
X1511D01*
Y2542*
X1545*
Y2573*
G37*
G36*
X1511Y2321D02*
X1443D01*
Y2285*
X1511*
Y2321*
G37*
G36*
Y2275D02*
X1443D01*
Y2238*
X1511*
Y2275*
G37*
G36*
X1790Y2144D02*
X1743D01*
Y2120*
X1790*
Y2144*
G37*
G36*
X1467Y1951D02*
Y1915D01*
X1550*
Y1951*
X1467*
G37*
G36*
X1785D02*
X1717D01*
Y1915*
X1785*
Y1951*
G37*
G36*
Y1905D02*
X1717D01*
Y1868*
X1785*
Y1905*
G37*
G36*
X1550D02*
X1467D01*
Y1868*
X1550*
Y1905*
G37*
G36*
X1245Y2560D02*
X1245D01*
Y2525*
X1280*
Y2525*
X1277Y2535*
X1272Y2544*
X1264Y2552*
X1255Y2557*
X1245Y2560*
G37*
G36*
X1235D02*
X1234D01*
X1224Y2557*
X1215Y2552*
X1207Y2544*
X1202Y2535*
X1200Y2525*
Y2525*
X1235*
Y2560*
G37*
G36*
X1280Y2515D02*
X1245D01*
Y2480*
X1245*
X1255Y2482*
X1264Y2487*
X1272Y2495*
X1277Y2504*
X1280Y2514*
Y2515*
G37*
G36*
X1235D02*
X1200D01*
Y2514*
X1202Y2504*
X1207Y2495*
X1215Y2487*
X1224Y2482*
X1234Y2480*
X1235*
Y2515*
G37*
G36*
X1247Y2438D02*
X1246D01*
Y2383*
X1301*
Y2384*
X1299Y2395*
X1294Y2406*
X1288Y2416*
X1279Y2425*
X1269Y2431*
X1259Y2436*
X1247Y2438*
G37*
G36*
X1236D02*
X1235D01*
X1224Y2436*
X1213Y2431*
X1203Y2425*
X1194Y2416*
X1188Y2406*
X1183Y2395*
X1181Y2384*
Y2383*
X1236*
Y2438*
G37*
G36*
Y2275D02*
X1168D01*
Y2238*
X1236*
Y2275*
G37*
G36*
X1225Y2200D02*
X1225D01*
Y2165*
X1260*
Y2165*
X1257Y2175*
X1252Y2184*
X1244Y2192*
X1235Y2197*
X1225Y2200*
G37*
G36*
X1215D02*
X1214D01*
X1204Y2197*
X1195Y2192*
X1187Y2184*
X1182Y2175*
X1180Y2165*
Y2165*
X1215*
Y2200*
G37*
G36*
X1260Y2155D02*
X1225D01*
Y2120*
X1225*
X1235Y2122*
X1244Y2127*
X1252Y2135*
X1257Y2144*
X1260Y2154*
Y2155*
G37*
G36*
X1215D02*
X1180D01*
Y2154*
X1182Y2144*
X1187Y2135*
X1195Y2127*
X1204Y2122*
X1214Y2120*
X1215*
Y2155*
G37*
G36*
X1225Y2080D02*
X1225D01*
Y2025*
X1280*
Y2025*
X1277Y2037*
X1273Y2048*
X1266Y2058*
X1258Y2066*
X1248Y2073*
X1237Y2077*
X1225Y2080*
G37*
G36*
X1215D02*
X1214D01*
X1202Y2077*
X1191Y2073*
X1181Y2066*
X1173Y2058*
X1166Y2048*
X1162Y2037*
X1160Y2025*
Y2025*
X1215*
Y2080*
G37*
G36*
X1695Y2325D02*
X1665D01*
X1667Y2316*
X1671Y2308*
X1678Y2301*
X1686Y2297*
X1695Y2295*
Y2325*
G37*
G36*
X1991Y1951D02*
Y1915D01*
X2059*
Y1951*
X1991*
G37*
G36*
X2046Y1808D02*
X1991D01*
Y1753*
X1992*
X2004Y1755*
X2015Y1759*
X2025Y1766*
X2033Y1774*
X2040Y1784*
X2044Y1795*
X2046Y1807*
Y1808*
G37*
G36*
X1981D02*
X1926D01*
Y1807*
X1929Y1795*
X1933Y1784*
X1940Y1774*
X1948Y1766*
X1958Y1759*
X1969Y1755*
X1980Y1753*
X1981*
Y1808*
G37*
G36*
X1705Y1740D02*
X1705D01*
Y1705*
X1740*
Y1705*
X1737Y1715*
X1732Y1724*
X1724Y1732*
X1715Y1737*
X1705Y1740*
G37*
G36*
X1695D02*
X1694D01*
X1684Y1737*
X1675Y1732*
X1667Y1724*
X1662Y1715*
X1660Y1705*
Y1705*
X1695*
Y1740*
G37*
G36*
X1525D02*
X1525D01*
Y1705*
X1560*
Y1705*
X1557Y1715*
X1552Y1724*
X1544Y1732*
X1535Y1737*
X1525Y1740*
G37*
G36*
X1515D02*
X1514D01*
X1504Y1737*
X1495Y1732*
X1487Y1724*
X1482Y1715*
X1480Y1705*
Y1705*
X1515*
Y1740*
G37*
G36*
X1740Y1695D02*
X1705D01*
Y1660*
X1705*
X1715Y1662*
X1724Y1667*
X1732Y1675*
X1737Y1684*
X1740Y1694*
Y1695*
G37*
G36*
X1695D02*
X1660D01*
Y1694*
X1662Y1684*
X1667Y1675*
X1675Y1667*
X1684Y1662*
X1694Y1660*
X1695*
Y1695*
G37*
G36*
X1560D02*
X1525D01*
Y1660*
X1525*
X1535Y1662*
X1544Y1667*
X1552Y1675*
X1557Y1684*
X1560Y1694*
Y1695*
G37*
G36*
X1515D02*
X1480D01*
Y1694*
X1482Y1684*
X1487Y1675*
X1495Y1667*
X1504Y1662*
X1514Y1660*
X1515*
Y1695*
G37*
G36*
X2025Y1540D02*
X2025D01*
Y1505*
X2060*
Y1505*
X2057Y1515*
X2052Y1524*
X2044Y1532*
X2035Y1537*
X2025Y1540*
G37*
G36*
X2015D02*
X2014D01*
X2004Y1537*
X1995Y1532*
X1987Y1524*
X1982Y1515*
X1980Y1505*
Y1505*
X2015*
Y1540*
G37*
G36*
X2060Y1495D02*
X2025D01*
Y1460*
X2025*
X2035Y1462*
X2044Y1467*
X2052Y1475*
X2057Y1484*
X2060Y1494*
Y1495*
G37*
G36*
X2015D02*
X1980D01*
Y1494*
X1982Y1484*
X1987Y1475*
X1995Y1467*
X2004Y1462*
X2014Y1460*
X2015*
Y1495*
G37*
G36*
X2025Y1380D02*
X2025D01*
Y1345*
X2060*
Y1345*
X2057Y1355*
X2052Y1364*
X2044Y1372*
X2035Y1377*
X2025Y1380*
G37*
%LNpcb1-7*%
%LPD*%
G54D12*
X5690Y2770D02*
X5750D01*
X5785Y2445D02*
X5945D01*
X5960Y2430D02*
X6760D01*
X5945Y2445D02*
X5960Y2430D01*
X6225Y2525D02*
X6729D01*
X6170Y2470D02*
X6225Y2525D01*
X5830Y2470D02*
X6170D01*
X5740Y2490D02*
X5785Y2445D01*
X6760Y2430D02*
X6810Y2380D01*
X5790Y2510D02*
X5830Y2470D01*
X5540Y2920D02*
X5690Y2770D01*
X5865Y2850D02*
X6170D01*
X6260Y2760*
X5860Y2705D02*
X6684D01*
X6810Y2580*
X1820Y1440D02*
Y1490D01*
Y1440D02*
X1932Y1327D01*
Y1280D02*
Y1327D01*
X6610Y3060D02*
X6630Y3080D01*
X6175Y3887D02*
X6188Y3900D01*
X5908Y3991D02*
X5910Y3990D01*
X2024Y2095D02*
Y2240D01*
Y2095D02*
X2130Y1990D01*
Y1320D02*
Y1990D01*
X2120Y2240D02*
X2130Y2230D01*
X2000Y1190D02*
X2130Y1320D01*
X1100Y1500D02*
Y2540D01*
X1397Y1190D02*
Y1202D01*
X1100Y1500D02*
X1397Y1202D01*
X1270Y1420D02*
Y1562D01*
X1397Y1280D02*
Y1292D01*
X1270Y1420D02*
X1397Y1292D01*
X1380Y1437D02*
X1397D01*
X1440Y1910D02*
X1462D01*
X1100Y2540D02*
X1390Y2830D01*
X1638Y2828D02*
X1640Y2830D01*
X1857Y3380D02*
X1877Y3400D01*
X2012Y4162D02*
X2025D01*
X1840Y3397D02*
X1857Y3380D01*
X6729Y2525D02*
X6764D01*
X1270Y1562D02*
X1270Y1562D01*
X1700Y2330D02*
X1700Y2330D01*
X6090Y3667D02*
X6095Y3672D01*
X6764Y2525D02*
X6810Y2480D01*
X5950Y2052D02*
X5957Y2060D01*
X6090Y1643D02*
X6173D01*
X6208Y1678*
X6278*
X6090Y1746D02*
X6163D01*
X6181Y1728*
X6378*
X5872Y3670D02*
X5875Y3672D01*
X6164D02*
X6167Y3670D01*
X5880Y4222D02*
X5883Y4226D01*
Y4330*
X5996D02*
X6000Y4326D01*
X1932Y1190D02*
X2000D01*
X1998Y2265D02*
X2024Y2240D01*
X1790Y2143D02*
X1795Y2149D01*
X1438Y1933D02*
X1462Y1910D01*
G54D17*
X1438Y2280D03*
X1241D03*
X1998Y2560D03*
X1801D03*
X1790Y1910D03*
X1986D03*
X1660Y3130D03*
X1856D03*
G54D18*
X1650Y3397D03*
Y3582D03*
X1840Y3397D03*
Y3582D03*
G54D19*
X1510Y1590D03*
G54D20*
X1510Y1540D03*
Y1490D03*
Y1440D03*
X1700D03*
Y1490D03*
Y1540D03*
Y1590D03*
G54D21*
X2024Y2240D03*
G54D22*
X1795Y2149D03*
Y2240D03*
Y2330D03*
G54D23*
X1728Y1190D03*
X1811D03*
X1601Y1280D03*
X1518D03*
X6717Y2170D03*
X6800D03*
X1602Y1190D03*
X1520D03*
X1728Y1280D03*
X1811D03*
G54D24*
X5950Y2247D03*
X5900D03*
X5850D03*
X5800D03*
X5850Y2052D03*
X5900D03*
X5950D03*
X5800D03*
G54D25*
X6090Y1913D03*
Y1746D03*
Y1643D03*
Y1476D03*
G54D26*
X6010Y4742D03*
Y4677D03*
X6000Y4222D03*
Y4157D03*
X5880Y4222D03*
Y4157D03*
X1380Y1502D03*
Y1437D03*
X2025Y4227D03*
Y4162D03*
G54D27*
X6232Y3750D03*
X6167D03*
X1397Y1190D03*
X1462D03*
X6297Y2970D03*
X6362D03*
X5807Y3750D03*
X5872D03*
X6362Y3330D03*
X6297D03*
X6232Y3670D03*
X6167D03*
X1932Y1190D03*
X1867D03*
X1932Y1280D03*
X1867D03*
X1397D03*
X1462D03*
X6586Y2170D03*
X6651D03*
X5807Y3670D03*
X5872D03*
X6297Y3060D03*
X6362D03*
G54D28*
X1820Y1547D03*
Y1492D03*
X1380Y1617D03*
Y1562D03*
G54D29*
X6626Y3580D03*
X6793D03*
X6626Y2820D03*
X6793D03*
G54D30*
X1550Y2891D03*
Y2828D03*
Y2578D03*
Y2641D03*
G54D31*
X6251Y3900D03*
X6188D03*
X5971Y4060D03*
X5908D03*
X6048Y2060D03*
X6111D03*
G54D32*
X2110Y4178D03*
Y4261D03*
X6010Y4891D03*
Y4808D03*
G54D33*
X5883Y4330D03*
X5996D03*
G54D34*
X6045Y3887D03*
X6095D03*
X5995D03*
X5945D03*
X6095Y3672D03*
X6045D03*
X5995D03*
X5945D03*
G54D35*
X1462Y1910D03*
X1217D03*
G54D36*
X1750Y4257D03*
Y4502D03*
G54D44*
X4010Y3750D03*
G54D45*
X3849Y3750D03*
G54D48*
X6810Y2380D03*
G54D49*
X6810Y2480D03*
Y2580D03*
X6710Y2380D03*
Y2480D03*
Y2580D03*
G54D53*
X1721Y3969D03*
X1931D03*
G54D54*
X1721Y3870D03*
X1931D03*
G54D60*
X4560Y2785D03*
Y3000D03*
G54D61*
X4560Y3214D03*
G54D62*
X1732Y4240D02*
X1750Y4257D01*
X1986Y1813D02*
Y1910D01*
X1217Y2017D02*
X1220Y2020D01*
X1217Y1910D02*
Y2017D01*
X5430Y3960D02*
X5800Y4330D01*
X5430Y3680D02*
Y3960D01*
X4750Y3000D02*
X5430Y3680D01*
X4560Y3000D02*
X4750D01*
X5800Y4330D02*
X5883D01*
X2024Y2240D02*
X2120D01*
X1842Y3400D02*
X2030D01*
X6793Y3463D02*
Y3580D01*
Y2820D02*
Y2926D01*
X1241Y2280D02*
Y2378D01*
X1690Y2560D02*
X1801D01*
X1856Y3130D02*
X1970D01*
X1750Y4502D02*
Y4670D01*
X6538Y4153D02*
X6630Y4245D01*
X6147Y4153D02*
X6538D01*
X6626Y2820D02*
Y3076D01*
X6630Y3080*
X6626Y3333D02*
X6630Y3330D01*
X6626Y3333D02*
Y3580D01*
X1998Y2265D02*
Y2560D01*
X1650Y3140D02*
X1660Y3130D01*
X1650Y3140D02*
Y3397D01*
X1840*
X1300Y3264D02*
Y3480D01*
X1402Y3582*
X1650*
X1840*
X1300Y3855D02*
X1350Y3905D01*
Y4240*
X1732*
G54D63*
X5280Y2950D02*
X5490Y2740D01*
X5870Y2794D02*
X5885Y2780D01*
X5490Y2740D02*
X5910D01*
X5735Y2930D02*
X5870Y2794D01*
X4950Y1540D02*
Y1560D01*
Y1540D02*
X5000Y1490D01*
X5720Y2930D02*
X5735D01*
X5420Y3230D02*
X5720Y2930D01*
X5740Y2830D02*
X5785D01*
X6036Y1643D02*
X6090D01*
X5310Y3260D02*
X5740Y2830D01*
G54D64*
X1450Y2245D02*
X1468D01*
X1495Y2181D02*
Y2218D01*
X1450Y1922D02*
Y2155D01*
X1468Y2245D02*
X1495Y2218D01*
X1468Y2155D02*
X1495Y2181D01*
X1450Y2155D02*
X1468D01*
X1450Y2245D02*
Y2268D01*
X1438Y2280D02*
X1450Y2268D01*
Y1922D02*
X1462Y1910D01*
X1550Y2480D02*
Y2578D01*
X1438Y2368D02*
X1550Y2480D01*
X1438Y2280D02*
Y2368D01*
X1550Y2641D02*
Y2710D01*
Y2828D02*
X1638D01*
X6048Y2060D02*
Y2128D01*
X6111Y2060D02*
X6170D01*
X6090Y1913D02*
X6166D01*
X6251Y3900D02*
X6310D01*
X1721Y3969D02*
X1931D01*
X1790Y1910D02*
Y2143D01*
X1441Y2578D02*
X1550D01*
X1390Y2630D02*
X1441Y2578D01*
X1660Y3001D02*
Y3130D01*
X1550Y2891D02*
X1660Y3001D01*
G54D65*
X6100Y3020D02*
X6297Y3217D01*
Y3330*
X6060Y2980D02*
X6100Y3020D01*
X5800Y2247D02*
Y2310D01*
X5865Y2405D02*
X5950Y2320D01*
Y2247D02*
Y2320D01*
X5790Y1970D02*
X5800Y1980D01*
Y2052*
X6045Y3630D02*
Y3672D01*
X6015Y3600D02*
X6045Y3630D01*
X5990Y3600D02*
X6015D01*
X6095Y3605D02*
Y3672D01*
X6050Y3560D02*
X6095Y3605D01*
Y3887D02*
X6175D01*
X6045Y3955D02*
X6060Y3970D01*
X6045Y3887D02*
Y3955D01*
X5971Y3991D02*
Y4060D01*
X5945Y3965D02*
X5971Y3991D01*
X5945Y3887D02*
Y3965D01*
X5900Y2247D02*
Y2310D01*
X1450Y1490D02*
X1510D01*
X1397Y1437D02*
X1450Y1490D01*
X5120Y2210D02*
X5581Y2671D01*
X3270Y2210D02*
X5120D01*
X5581Y2671D02*
X5901D01*
X5460Y3490D02*
X6016Y2933D01*
Y2907D02*
Y2933D01*
X2628Y2851D02*
X3270Y2210D01*
X1820Y1490D02*
X1890D01*
X1700D02*
X1820D01*
X1890D02*
X1910Y1510D01*
Y1560*
X5850Y1830D02*
X6036Y1643D01*
X6030Y3560D02*
X6050D01*
X1510Y1440D02*
X1600D01*
X5850Y2247D02*
X5900D01*
X5957Y2060D02*
X6048D01*
X5900Y1880D02*
X6033Y1746D01*
X6090*
X5900Y1880D02*
Y2052D01*
X5850Y1830D02*
Y2052D01*
X5875Y3672D02*
X5945D01*
X5872Y3750D02*
X5980D01*
X5995Y3735*
Y3672D02*
Y3735D01*
X6095Y3672D02*
X6164D01*
X6060Y3750D02*
X6167D01*
X6045Y3735D02*
X6060Y3750D01*
X6045Y3672D02*
Y3735D01*
X5995Y3887D02*
Y3955D01*
X1450Y1540D02*
X1510D01*
X1380Y1562D02*
X1427D01*
X1450Y1540*
G54D66*
X6297Y2970D02*
Y3010D01*
Y3060*
X6169Y3010D02*
X6297D01*
X6362Y3060D02*
X6610D01*
X6232Y3610D02*
Y3670D01*
X5760Y3750D02*
X5807D01*
X5760Y3670D02*
X5807D01*
X6362Y2970D02*
X6420D01*
X1380Y1502D02*
Y1562D01*
Y1617D02*
Y1680D01*
X1700Y2330D02*
X1795D01*
X6362Y3330D02*
X6630D01*
X6232Y3670D02*
Y3750D01*
X6188Y3841D02*
Y3900D01*
Y3841D02*
X6232Y3797D01*
Y3750D02*
Y3797D01*
X5880Y4088D02*
X5908Y4060D01*
X5880Y4088D02*
Y4157D01*
X5971Y4060D02*
X6000Y4088D01*
Y4157*
Y4222D02*
Y4326D01*
G54D67*
X5908Y3991D02*
Y4060D01*
X2059Y4261D02*
X2110D01*
X2025Y4227D02*
X2059Y4261D01*
X1931Y3969D02*
Y4081D01*
X2012Y4162*
X6003Y1476D02*
X6090D01*
X6651Y2170D02*
X6717D01*
X6559D02*
X6586D01*
X6534Y2194D02*
X6559Y2170D01*
X6010Y4610D02*
Y4677D01*
Y4742D02*
Y4808D01*
G54D68*
X5996Y4330D02*
X6095Y4429D01*
X6147*
X1602Y1190D02*
X1728D01*
X1601Y1280D02*
X1728D01*
X1270Y1562D02*
Y1740D01*
X1440Y1910*
X1820Y1547D02*
Y1610D01*
X6800Y2170D02*
X6860D01*
X2110Y4110D02*
Y4178D01*
X1811Y1280D02*
X1867D01*
X1811Y1190D02*
X1867D01*
X1462D02*
X1520D01*
X1462Y1280D02*
X1518D01*
X1451Y2891D02*
X1550D01*
X1390Y2830D02*
X1451Y2891D01*
G54D69*
X5941Y4891D02*
X6010D01*
X1270Y1562D02*
X1380D01*
G54D70*
X1795Y2240D02*
X2024D01*
G54D71*
X1462Y1910D02*
X1790D01*
G54D72*
X1390Y2630D03*
Y2730D03*
G54D73*
X1390Y2830D03*
G54D74*
X2409Y4555D03*
Y1484D03*
X5480Y4555D03*
Y1484D03*
G54D75*
X6630Y3080D03*
Y4245D03*
X1350Y4490D03*
G54D76*
X6630Y3330D03*
Y4495D03*
X1350Y4240D03*
G54D77*
X6332Y4882D03*
G54D78*
X6147Y4429D03*
Y4153D03*
Y4882D03*
G54D79*
X6278Y1778D03*
X6378Y1628D03*
X6278Y1678D03*
X6378Y1728D03*
Y1828D03*
X6278Y1878D03*
X6378Y1528D03*
X6278Y1578D03*
G54D80*
X6630Y1930D03*
X6635Y1480D03*
X6785Y1200D03*
Y4822D03*
X1195Y1200D03*
Y4822D03*
G54D81*
X1300Y3264D03*
Y3855D03*
G54D82*
X2520Y4160D03*
X2000Y4440D03*
X2280Y4140D03*
X2040Y3760D03*
X1600D03*
X1814Y3780D03*
X1820Y3240D03*
X1760Y2920D03*
X1660Y2420D03*
X1780Y2440D03*
X1720Y2700D03*
X1940Y2720D03*
X2200Y2880D03*
X2100Y2780D03*
X2160Y3040D03*
Y3220D03*
X2000Y2940D03*
X1840Y2820D03*
X6668Y2266D03*
X6358Y2200D03*
X6640Y1680D03*
X6340Y2040D03*
X5800Y1360D03*
Y1580D03*
X4400Y1420D03*
X4380Y1620D03*
X4520Y1760D03*
X5060Y1340D03*
X5140Y1560D03*
X3480Y3740D03*
X3220Y3540D03*
X3200Y3180D03*
Y2860D03*
Y2600D03*
X6820Y1920D03*
Y1640D03*
Y1420D03*
X6540Y1160D03*
X6300D03*
X6040D03*
X5800D03*
X5560D03*
X5280D03*
X5020D03*
X4780D03*
X4520D03*
X4240D03*
X3980D03*
X3700D03*
X3420D03*
X3140D03*
X2860D03*
X2600D03*
X2380D03*
X2180D03*
X2020Y1500D03*
Y1340D03*
X1700Y1700D03*
X1520D03*
X1160Y1600D03*
X1220Y2160D03*
X1240Y2520D03*
X1160Y2740D03*
Y2960D03*
Y3180D03*
Y3440D03*
Y3680D03*
Y3920D03*
Y4160D03*
Y4400D03*
Y4600D03*
X1380Y4800D03*
X1600D03*
X1880D03*
X2140D03*
X2580D03*
X2900D03*
X3160D03*
X3440D03*
X3720D03*
X4040D03*
X4360D03*
X5140Y4320D03*
X4840Y4280D03*
X5020Y4100D03*
X5220Y4000D03*
X5320Y4120D03*
X5440Y4260D03*
X5280Y4720D03*
X5780Y4500D03*
X6520Y4760D03*
X6420Y4480D03*
X6760D03*
X6780Y4240D03*
X6180Y4000D03*
X6520Y3980D03*
X6780D03*
X6660Y3800D03*
X6360Y3500D03*
X6160Y3440D03*
X6020Y3340D03*
X6120Y3180D03*
X6460D03*
X6780Y3280D03*
Y3080D03*
X6360Y2840D03*
X6560Y2640D03*
X5620Y2500D03*
X5340Y2720D03*
X4980Y2520D03*
Y2760D03*
X4780Y2640D03*
X4400Y3000D03*
Y3220D03*
X4700Y3400D03*
X4500D03*
Y3640D03*
X4820D03*
X6010Y4610D03*
G54D83*
X5750Y2770D03*
X5885Y2780D03*
X4950Y1560D03*
X5000Y1490D03*
X6060Y2980D03*
X6169Y3010D03*
X5800Y2310D03*
X5865Y2405D03*
X5740Y2490D03*
X5785Y2830D03*
X5865Y2850D03*
X5910Y2740D03*
X5860Y2706D03*
X5990Y3600D03*
X5910Y3990D03*
X5900Y2310D03*
X5460Y3490D03*
X2628Y2851D03*
X5790Y2510D03*
X6030Y3560D03*
X5420Y3230D03*
X5310Y3260D03*
X6260Y2760D03*
X5540Y2920D03*
X5901Y2671D03*
X6534Y2194D03*
X6016Y2907D03*
X5280Y2950D03*
X5995Y3955D03*
G54D84*
X1986Y1813D03*
X1220Y2020D03*
X2030Y3400D03*
X2120Y2240D03*
X4687Y2337D03*
X1241Y2378D03*
X1690Y2560D03*
X1970Y3130D03*
X1750Y4670D03*
G54D85*
X5870Y3260D03*
X6030Y2515D03*
X5790Y1970D03*
X6060Y3970D03*
X4820Y3300D03*
X4770Y2880D03*
X1670Y1190D03*
Y1280D03*
X1550Y2710D03*
X1640Y2830D03*
X5640Y3510D03*
X5940Y3460D03*
X5600Y3120D03*
X6480Y1510D03*
X1910Y1560D03*
X1820Y1610D03*
X2390Y3070D03*
X4619Y4809D03*
X4710Y4090D03*
X5030Y3770D03*
X5108Y3128D03*
X3770Y3850D03*
X5930Y3230D03*
X6232Y3610D03*
X5620Y3240D03*
X5220Y2610D03*
X6003Y1476D03*
X6048Y2128D03*
X4890Y1720D03*
X4820D03*
X4641Y1618D03*
X4582Y1532D03*
X4710Y1390D03*
X5690Y3080D03*
X4710Y1750D03*
X4950Y1440D03*
X6170Y2060D03*
X6166Y1913D03*
X4080Y3850D03*
X6020Y3060D03*
X6010Y3150D03*
X6160Y2570D03*
X5200Y3080D03*
X5230Y3200D03*
X4990Y3410D03*
X4690Y3520D03*
X4180Y4660D03*
X5760Y3750D03*
Y3670D03*
X5941Y4891D03*
X6310Y3900D03*
X6793Y3463D03*
X6420Y2970D03*
X6793Y2926D03*
X6860Y2170D03*
X6480Y1920D03*
X1600Y1440D03*
X1380Y1680D03*
X1700Y2330D03*
X2110Y4110D03*
M02*