%FSLAX23Y23*%
%MOIN*%
%SFA1B1*%

%IPPOS*%
%ADD15C,0.005000*%
%ADD116C,0.006670*%
%ADD117C,0.004000*%
%LNpcb1-1*%
%LPD*%
G54D15*
X1370Y2630D02*
X1390Y2650D01*
X1410Y2630*
X1390Y2610*
X1370Y2630*
Y2730D02*
X1390Y2750D01*
X1410Y2730*
X1390Y2710*
X1370Y2730*
Y2830D02*
X1390Y2850D01*
X1410Y2830*
X1390Y2810*
X1370Y2830*
X6790Y2360D02*
Y2400D01*
X6830*
Y2360*
X6790*
Y2460D02*
Y2500D01*
X6830*
Y2460*
X6790*
Y2560D02*
Y2600D01*
X6830*
Y2560*
X6790*
X6690Y2360D02*
Y2400D01*
X6730*
Y2360*
X6690*
Y2460D02*
Y2500D01*
X6730*
Y2460*
X6690*
Y2560D02*
Y2600D01*
X6730*
Y2560*
X6690*
X2409Y4535D02*
X2419Y4545D01*
X2429*
X2419Y4555*
X2429Y4565*
X2419*
X2409Y4575*
X2399Y4565*
X2389*
X2399Y4555*
X2389Y4545*
X2399*
X2409Y4535*
Y4543D02*
X2415Y4549D01*
X2421*
X2415Y4555*
X2421Y4561*
X2415*
X2409Y4567*
X2403Y4561*
X2397*
X2403Y4555*
X2397Y4549*
X2403*
X2409Y4543*
Y1464D02*
X2419Y1474D01*
X2429*
X2419Y1484*
X2429Y1494*
X2419*
X2409Y1504*
X2399Y1494*
X2389*
X2399Y1484*
X2389Y1474*
X2399*
X2409Y1464*
Y1472D02*
X2415Y1478D01*
X2421*
X2415Y1484*
X2421Y1490*
X2415*
X2409Y1496*
X2403Y1490*
X2397*
X2403Y1484*
X2397Y1478*
X2403*
X2409Y1472*
X5480Y4535D02*
X5490Y4545D01*
X5500*
X5490Y4555*
X5500Y4565*
X5490*
X5480Y4575*
X5470Y4565*
X5460*
X5470Y4555*
X5460Y4545*
X5470*
X5480Y4535*
Y4543D02*
X5486Y4549D01*
X5492*
X5486Y4555*
X5492Y4561*
X5486*
X5480Y4567*
X5474Y4561*
X5468*
X5474Y4555*
X5468Y4549*
X5474*
X5480Y4543*
Y1464D02*
X5490Y1474D01*
X5500*
X5490Y1484*
X5500Y1494*
X5490*
X5480Y1504*
X5470Y1494*
X5460*
X5470Y1484*
X5460Y1474*
X5470*
X5480Y1464*
Y1472D02*
X5486Y1478D01*
X5492*
X5486Y1484*
X5492Y1490*
X5486*
X5480Y1496*
X5474Y1490*
X5468*
X5474Y1484*
X5468Y1478*
X5474*
X5480Y1472*
X6610Y3060D02*
X6620D01*
X6630Y3070*
X6640Y3060*
X6650*
Y3070*
X6640Y3080*
X6650Y3090*
Y3100*
X6640*
X6630Y3090*
X6620Y3100*
X6610*
Y3090*
X6620Y3080*
X6610Y3070*
Y3060*
Y3310D02*
X6620D01*
X6630Y3320*
X6640Y3310*
X6650*
Y3320*
X6640Y3330*
X6650Y3340*
Y3350*
X6640*
X6630Y3340*
X6620Y3350*
X6610*
Y3340*
X6620Y3330*
X6610Y3320*
Y3310*
Y4225D02*
X6620D01*
X6630Y4235*
X6640Y4225*
X6650*
Y4235*
X6640Y4245*
X6650Y4255*
Y4265*
X6640*
X6630Y4255*
X6620Y4265*
X6610*
Y4255*
X6620Y4245*
X6610Y4235*
Y4225*
Y4475D02*
X6620D01*
X6630Y4485*
X6640Y4475*
X6650*
Y4485*
X6640Y4495*
X6650Y4505*
Y4515*
X6640*
X6630Y4505*
X6620Y4515*
X6610*
Y4505*
X6620Y4495*
X6610Y4485*
Y4475*
X6312Y4862D02*
Y4902D01*
X6352*
Y4862*
X6312*
X6320Y4870D02*
Y4894D01*
X6344*
Y4870*
X6320*
X6127Y4409D02*
Y4449D01*
X6167*
Y4409*
X6127*
X6135Y4417D02*
Y4441D01*
X6159*
Y4417*
X6135*
X6127Y4133D02*
Y4173D01*
X6167*
Y4133*
X6127*
X6135Y4141D02*
Y4165D01*
X6159*
Y4141*
X6135*
X6127Y4862D02*
Y4902D01*
X6167*
Y4862*
X6127*
X6135Y4870D02*
Y4894D01*
X6159*
Y4870*
X6135*
X1330Y4220D02*
X1340D01*
X1350Y4230*
X1360Y4220*
X1370*
Y4230*
X1360Y4240*
X1370Y4250*
Y4260*
X1360*
X1350Y4250*
X1340Y4260*
X1330*
Y4250*
X1340Y4240*
X1330Y4230*
Y4220*
Y4470D02*
X1340D01*
X1350Y4480*
X1360Y4470*
X1370*
Y4480*
X1360Y4490*
X1370Y4500*
Y4510*
X1360*
X1350Y4500*
X1340Y4510*
X1330*
Y4500*
X1340Y4490*
X1330Y4480*
Y4470*
X6278Y1758D02*
X6258Y1798D01*
X6298*
X6278Y1758*
X6630Y1910D02*
X6640Y1920D01*
X6650*
X6640Y1930*
X6650Y1940*
X6640*
X6630Y1950*
X6620Y1940*
X6610*
X6620Y1930*
X6610Y1920*
X6620*
X6630Y1910*
X6635Y1460D02*
X6645Y1470D01*
X6655*
X6645Y1480*
X6655Y1490*
X6645*
X6635Y1500*
X6625Y1490*
X6615*
X6625Y1480*
X6615Y1470*
X6625*
X6635Y1460*
X6378Y1608D02*
X6358Y1648D01*
X6398*
X6378Y1608*
X6278Y1658D02*
X6258Y1698D01*
X6298*
X6278Y1658*
X6378Y1708D02*
X6358Y1748D01*
X6398*
X6378Y1708*
Y1808D02*
X6358Y1848D01*
X6398*
X6378Y1808*
X6278Y1858D02*
X6258Y1898D01*
X6298*
X6278Y1858*
X6378Y1508D02*
X6358Y1548D01*
X6398*
X6378Y1508*
X6278Y1558D02*
X6258Y1598D01*
X6298*
X6278Y1558*
X1290Y3254D02*
Y3244D01*
X1310*
Y3254*
X1320*
Y3274*
X1310*
Y3284*
X1290*
Y3274*
X1280*
Y3254*
X1290*
Y3845D02*
Y3835D01*
X1310*
Y3845*
X1320*
Y3865*
X1310*
Y3875*
X1290*
Y3865*
X1280*
Y3845*
X1290*
X4560Y2765D02*
X4540Y2805D01*
X4580*
X4560Y2765*
Y2773D02*
X4548Y2797D01*
X4572*
X4560Y2773*
Y2980D02*
X4540Y3020D01*
X4580*
X4560Y2980*
Y2988D02*
X4548Y3012D01*
X4572*
X4560Y2988*
Y3194D02*
X4540Y3234D01*
X4580*
X4560Y3194*
Y3202D02*
X4548Y3226D01*
X4572*
X4560Y3202*
X6765Y1180D02*
X6775Y1200D01*
X6765Y1220*
X6785Y1210*
X6805Y1220*
X6795Y1200*
X6805Y1180*
X6785Y1190*
X6765Y1180*
Y4802D02*
X6775Y4822D01*
X6765Y4842*
X6785Y4832*
X6805Y4842*
X6795Y4822*
X6805Y4802*
X6785Y4812*
X6765Y4802*
X1175Y1180D02*
X1185Y1200D01*
X1175Y1220*
X1195Y1210*
X1215Y1220*
X1205Y1200*
X1215Y1180*
X1195Y1190*
X1175Y1180*
Y4802D02*
X1185Y4822D01*
X1175Y4842*
X1195Y4832*
X1215Y4842*
X1205Y4822*
X1215Y4802*
X1195Y4812*
X1175Y4802*
X2510Y4150D02*
Y4140D01*
X2530*
Y4150*
X2540*
Y4170*
X2530*
Y4180*
X2510*
Y4170*
X2500*
Y4150*
X2510*
X2514Y4154D02*
Y4148D01*
X2526*
Y4154*
X2532*
Y4166*
X2526*
Y4172*
X2514*
Y4166*
X2508*
Y4154*
X2514*
X1990Y4430D02*
Y4420D01*
X2010*
Y4430*
X2020*
Y4450*
X2010*
Y4460*
X1990*
Y4450*
X1980*
Y4430*
X1990*
X1994Y4434D02*
Y4428D01*
X2006*
Y4434*
X2012*
Y4446*
X2006*
Y4452*
X1994*
Y4446*
X1988*
Y4434*
X1994*
X2270Y4130D02*
Y4120D01*
X2290*
Y4130*
X2300*
Y4150*
X2290*
Y4160*
X2270*
Y4150*
X2260*
Y4130*
X2270*
X2274Y4134D02*
Y4128D01*
X2286*
Y4134*
X2292*
Y4146*
X2286*
Y4152*
X2274*
Y4146*
X2268*
Y4134*
X2274*
X2030Y3750D02*
Y3740D01*
X2050*
Y3750*
X2060*
Y3770*
X2050*
Y3780*
X2030*
Y3770*
X2020*
Y3750*
X2030*
X2034Y3754D02*
Y3748D01*
X2046*
Y3754*
X2052*
Y3766*
X2046*
Y3772*
X2034*
Y3766*
X2028*
Y3754*
X2034*
X1590Y3750D02*
Y3740D01*
X1610*
Y3750*
X1620*
Y3770*
X1610*
Y3780*
X1590*
Y3770*
X1580*
Y3750*
X1590*
X1594Y3754D02*
Y3748D01*
X1606*
Y3754*
X1612*
Y3766*
X1606*
Y3772*
X1594*
Y3766*
X1588*
Y3754*
X1594*
X1804Y3770D02*
Y3760D01*
X1824*
Y3770*
X1834*
Y3790*
X1824*
Y3800*
X1804*
Y3790*
X1794*
Y3770*
X1804*
X1808Y3774D02*
Y3768D01*
X1820*
Y3774*
X1826*
Y3786*
X1820*
Y3792*
X1808*
Y3786*
X1802*
Y3774*
X1808*
X1810Y3230D02*
Y3220D01*
X1830*
Y3230*
X1840*
Y3250*
X1830*
Y3260*
X1810*
Y3250*
X1800*
Y3230*
X1810*
X1814Y3234D02*
Y3228D01*
X1826*
Y3234*
X1832*
Y3246*
X1826*
Y3252*
X1814*
Y3246*
X1808*
Y3234*
X1814*
X1750Y2910D02*
Y2900D01*
X1770*
Y2910*
X1780*
Y2930*
X1770*
Y2940*
X1750*
Y2930*
X1740*
Y2910*
X1750*
X1754Y2914D02*
Y2908D01*
X1766*
Y2914*
X1772*
Y2926*
X1766*
Y2932*
X1754*
Y2926*
X1748*
Y2914*
X1754*
X1650Y2410D02*
Y2400D01*
X1670*
Y2410*
X1680*
Y2430*
X1670*
Y2440*
X1650*
Y2430*
X1640*
Y2410*
X1650*
X1654Y2414D02*
Y2408D01*
X1666*
Y2414*
X1672*
Y2426*
X1666*
Y2432*
X1654*
Y2426*
X1648*
Y2414*
X1654*
X1770Y2430D02*
Y2420D01*
X1790*
Y2430*
X1800*
Y2450*
X1790*
Y2460*
X1770*
Y2450*
X1760*
Y2430*
X1770*
X1774Y2434D02*
Y2428D01*
X1786*
Y2434*
X1792*
Y2446*
X1786*
Y2452*
X1774*
Y2446*
X1768*
Y2434*
X1774*
X1710Y2690D02*
Y2680D01*
X1730*
Y2690*
X1740*
Y2710*
X1730*
Y2720*
X1710*
Y2710*
X1700*
Y2690*
X1710*
X1714Y2694D02*
Y2688D01*
X1726*
Y2694*
X1732*
Y2706*
X1726*
Y2712*
X1714*
Y2706*
X1708*
Y2694*
X1714*
X1930Y2710D02*
Y2700D01*
X1950*
Y2710*
X1960*
Y2730*
X1950*
Y2740*
X1930*
Y2730*
X1920*
Y2710*
X1930*
X1934Y2714D02*
Y2708D01*
X1946*
Y2714*
X1952*
Y2726*
X1946*
Y2732*
X1934*
Y2726*
X1928*
Y2714*
X1934*
X2190Y2870D02*
Y2860D01*
X2210*
Y2870*
X2220*
Y2890*
X2210*
Y2900*
X2190*
Y2890*
X2180*
Y2870*
X2190*
X2194Y2874D02*
Y2868D01*
X2206*
Y2874*
X2212*
Y2886*
X2206*
Y2892*
X2194*
Y2886*
X2188*
Y2874*
X2194*
X2090Y2770D02*
Y2760D01*
X2110*
Y2770*
X2120*
Y2790*
X2110*
Y2800*
X2090*
Y2790*
X2080*
Y2770*
X2090*
X2094Y2774D02*
Y2768D01*
X2106*
Y2774*
X2112*
Y2786*
X2106*
Y2792*
X2094*
Y2786*
X2088*
Y2774*
X2094*
X2150Y3030D02*
Y3020D01*
X2170*
Y3030*
X2180*
Y3050*
X2170*
Y3060*
X2150*
Y3050*
X2140*
Y3030*
X2150*
X2154Y3034D02*
Y3028D01*
X2166*
Y3034*
X2172*
Y3046*
X2166*
Y3052*
X2154*
Y3046*
X2148*
Y3034*
X2154*
X2150Y3210D02*
Y3200D01*
X2170*
Y3210*
X2180*
Y3230*
X2170*
Y3240*
X2150*
Y3230*
X2140*
Y3210*
X2150*
X2154Y3214D02*
Y3208D01*
X2166*
Y3214*
X2172*
Y3226*
X2166*
Y3232*
X2154*
Y3226*
X2148*
Y3214*
X2154*
X1990Y2930D02*
Y2920D01*
X2010*
Y2930*
X2020*
Y2950*
X2010*
Y2960*
X1990*
Y2950*
X1980*
Y2930*
X1990*
X1994Y2934D02*
Y2928D01*
X2006*
Y2934*
X2012*
Y2946*
X2006*
Y2952*
X1994*
Y2946*
X1988*
Y2934*
X1994*
X1830Y2810D02*
Y2800D01*
X1850*
Y2810*
X1860*
Y2830*
X1850*
Y2840*
X1830*
Y2830*
X1820*
Y2810*
X1830*
X1834Y2814D02*
Y2808D01*
X1846*
Y2814*
X1852*
Y2826*
X1846*
Y2832*
X1834*
Y2826*
X1828*
Y2814*
X1834*
X6658Y2256D02*
Y2246D01*
X6678*
Y2256*
X6688*
Y2276*
X6678*
Y2286*
X6658*
Y2276*
X6648*
Y2256*
X6658*
X6662Y2260D02*
Y2254D01*
X6674*
Y2260*
X6680*
Y2272*
X6674*
Y2278*
X6662*
Y2272*
X6656*
Y2260*
X6662*
X6348Y2190D02*
Y2180D01*
X6368*
Y2190*
X6378*
Y2210*
X6368*
Y2220*
X6348*
Y2210*
X6338*
Y2190*
X6348*
X6352Y2194D02*
Y2188D01*
X6364*
Y2194*
X6370*
Y2206*
X6364*
Y2212*
X6352*
Y2206*
X6346*
Y2194*
X6352*
X6630Y1670D02*
Y1660D01*
X6650*
Y1670*
X6660*
Y1690*
X6650*
Y1700*
X6630*
Y1690*
X6620*
Y1670*
X6630*
X6634Y1674D02*
Y1668D01*
X6646*
Y1674*
X6652*
Y1686*
X6646*
Y1692*
X6634*
Y1686*
X6628*
Y1674*
X6634*
X6330Y2030D02*
Y2020D01*
X6350*
Y2030*
X6360*
Y2050*
X6350*
Y2060*
X6330*
Y2050*
X6320*
Y2030*
X6330*
X6334Y2034D02*
Y2028D01*
X6346*
Y2034*
X6352*
Y2046*
X6346*
Y2052*
X6334*
Y2046*
X6328*
Y2034*
X6334*
X5790Y1350D02*
Y1340D01*
X5810*
Y1350*
X5820*
Y1370*
X5810*
Y1380*
X5790*
Y1370*
X5780*
Y1350*
X5790*
X5794Y1354D02*
Y1348D01*
X5806*
Y1354*
X5812*
Y1366*
X5806*
Y1372*
X5794*
Y1366*
X5788*
Y1354*
X5794*
X5790Y1570D02*
Y1560D01*
X5810*
Y1570*
X5820*
Y1590*
X5810*
Y1600*
X5790*
Y1590*
X5780*
Y1570*
X5790*
X5794Y1574D02*
Y1568D01*
X5806*
Y1574*
X5812*
Y1586*
X5806*
Y1592*
X5794*
Y1586*
X5788*
Y1574*
X5794*
X4390Y1410D02*
Y1400D01*
X4410*
Y1410*
X4420*
Y1430*
X4410*
Y1440*
X4390*
Y1430*
X4380*
Y1410*
X4390*
X4394Y1414D02*
Y1408D01*
X4406*
Y1414*
X4412*
Y1426*
X4406*
Y1432*
X4394*
Y1426*
X4388*
Y1414*
X4394*
X4370Y1610D02*
Y1600D01*
X4390*
Y1610*
X4400*
Y1630*
X4390*
Y1640*
X4370*
Y1630*
X4360*
Y1610*
X4370*
X4374Y1614D02*
Y1608D01*
X4386*
Y1614*
X4392*
Y1626*
X4386*
Y1632*
X4374*
Y1626*
X4368*
Y1614*
X4374*
X4510Y1750D02*
Y1740D01*
X4530*
Y1750*
X4540*
Y1770*
X4530*
Y1780*
X4510*
Y1770*
X4500*
Y1750*
X4510*
X4514Y1754D02*
Y1748D01*
X4526*
Y1754*
X4532*
Y1766*
X4526*
Y1772*
X4514*
Y1766*
X4508*
Y1754*
X4514*
X5050Y1330D02*
Y1320D01*
X5070*
Y1330*
X5080*
Y1350*
X5070*
Y1360*
X5050*
Y1350*
X5040*
Y1330*
X5050*
X5054Y1334D02*
Y1328D01*
X5066*
Y1334*
X5072*
Y1346*
X5066*
Y1352*
X5054*
Y1346*
X5048*
Y1334*
X5054*
X5130Y1550D02*
Y1540D01*
X5150*
Y1550*
X5160*
Y1570*
X5150*
Y1580*
X5130*
Y1570*
X5120*
Y1550*
X5130*
X5134Y1554D02*
Y1548D01*
X5146*
Y1554*
X5152*
Y1566*
X5146*
Y1572*
X5134*
Y1566*
X5128*
Y1554*
X5134*
X3470Y3730D02*
Y3720D01*
X3490*
Y3730*
X3500*
Y3750*
X3490*
Y3760*
X3470*
Y3750*
X3460*
Y3730*
X3470*
X3474Y3734D02*
Y3728D01*
X3486*
Y3734*
X3492*
Y3746*
X3486*
Y3752*
X3474*
Y3746*
X3468*
Y3734*
X3474*
X3210Y3530D02*
Y3520D01*
X3230*
Y3530*
X3240*
Y3550*
X3230*
Y3560*
X3210*
Y3550*
X3200*
Y3530*
X3210*
X3214Y3534D02*
Y3528D01*
X3226*
Y3534*
X3232*
Y3546*
X3226*
Y3552*
X3214*
Y3546*
X3208*
Y3534*
X3214*
X3190Y3170D02*
Y3160D01*
X3210*
Y3170*
X3220*
Y3190*
X3210*
Y3200*
X3190*
Y3190*
X3180*
Y3170*
X3190*
X3194Y3174D02*
Y3168D01*
X3206*
Y3174*
X3212*
Y3186*
X3206*
Y3192*
X3194*
Y3186*
X3188*
Y3174*
X3194*
X3190Y2850D02*
Y2840D01*
X3210*
Y2850*
X3220*
Y2870*
X3210*
Y2880*
X3190*
Y2870*
X3180*
Y2850*
X3190*
X3194Y2854D02*
Y2848D01*
X3206*
Y2854*
X3212*
Y2866*
X3206*
Y2872*
X3194*
Y2866*
X3188*
Y2854*
X3194*
X3190Y2590D02*
Y2580D01*
X3210*
Y2590*
X3220*
Y2610*
X3210*
Y2620*
X3190*
Y2610*
X3180*
Y2590*
X3190*
X3194Y2594D02*
Y2588D01*
X3206*
Y2594*
X3212*
Y2606*
X3206*
Y2612*
X3194*
Y2606*
X3188*
Y2594*
X3194*
X6810Y1910D02*
Y1900D01*
X6830*
Y1910*
X6840*
Y1930*
X6830*
Y1940*
X6810*
Y1930*
X6800*
Y1910*
X6810*
X6814Y1914D02*
Y1908D01*
X6826*
Y1914*
X6832*
Y1926*
X6826*
Y1932*
X6814*
Y1926*
X6808*
Y1914*
X6814*
X6810Y1630D02*
Y1620D01*
X6830*
Y1630*
X6840*
Y1650*
X6830*
Y1660*
X6810*
Y1650*
X6800*
Y1630*
X6810*
X6814Y1634D02*
Y1628D01*
X6826*
Y1634*
X6832*
Y1646*
X6826*
Y1652*
X6814*
Y1646*
X6808*
Y1634*
X6814*
X6810Y1410D02*
Y1400D01*
X6830*
Y1410*
X6840*
Y1430*
X6830*
Y1440*
X6810*
Y1430*
X6800*
Y1410*
X6810*
X6814Y1414D02*
Y1408D01*
X6826*
Y1414*
X6832*
Y1426*
X6826*
Y1432*
X6814*
Y1426*
X6808*
Y1414*
X6814*
X6530Y1150D02*
Y1140D01*
X6550*
Y1150*
X6560*
Y1170*
X6550*
Y1180*
X6530*
Y1170*
X6520*
Y1150*
X6530*
X6534Y1154D02*
Y1148D01*
X6546*
Y1154*
X6552*
Y1166*
X6546*
Y1172*
X6534*
Y1166*
X6528*
Y1154*
X6534*
X6290Y1150D02*
Y1140D01*
X6310*
Y1150*
X6320*
Y1170*
X6310*
Y1180*
X6290*
Y1170*
X6280*
Y1150*
X6290*
X6294Y1154D02*
Y1148D01*
X6306*
Y1154*
X6312*
Y1166*
X6306*
Y1172*
X6294*
Y1166*
X6288*
Y1154*
X6294*
X6030Y1150D02*
Y1140D01*
X6050*
Y1150*
X6060*
Y1170*
X6050*
Y1180*
X6030*
Y1170*
X6020*
Y1150*
X6030*
X6034Y1154D02*
Y1148D01*
X6046*
Y1154*
X6052*
Y1166*
X6046*
Y1172*
X6034*
Y1166*
X6028*
Y1154*
X6034*
X5790Y1150D02*
Y1140D01*
X5810*
Y1150*
X5820*
Y1170*
X5810*
Y1180*
X5790*
Y1170*
X5780*
Y1150*
X5790*
X5794Y1154D02*
Y1148D01*
X5806*
Y1154*
X5812*
Y1166*
X5806*
Y1172*
X5794*
Y1166*
X5788*
Y1154*
X5794*
X5550Y1150D02*
Y1140D01*
X5570*
Y1150*
X5580*
Y1170*
X5570*
Y1180*
X5550*
Y1170*
X5540*
Y1150*
X5550*
X5554Y1154D02*
Y1148D01*
X5566*
Y1154*
X5572*
Y1166*
X5566*
Y1172*
X5554*
Y1166*
X5548*
Y1154*
X5554*
X5270Y1150D02*
Y1140D01*
X5290*
Y1150*
X5300*
Y1170*
X5290*
Y1180*
X5270*
Y1170*
X5260*
Y1150*
X5270*
X5274Y1154D02*
Y1148D01*
X5286*
Y1154*
X5292*
Y1166*
X5286*
Y1172*
X5274*
Y1166*
X5268*
Y1154*
X5274*
X5010Y1150D02*
Y1140D01*
X5030*
Y1150*
X5040*
Y1170*
X5030*
Y1180*
X5010*
Y1170*
X5000*
Y1150*
X5010*
X5014Y1154D02*
Y1148D01*
X5026*
Y1154*
X5032*
Y1166*
X5026*
Y1172*
X5014*
Y1166*
X5008*
Y1154*
X5014*
X4770Y1150D02*
Y1140D01*
X4790*
Y1150*
X4800*
Y1170*
X4790*
Y1180*
X4770*
Y1170*
X4760*
Y1150*
X4770*
X4774Y1154D02*
Y1148D01*
X4786*
Y1154*
X4792*
Y1166*
X4786*
Y1172*
X4774*
Y1166*
X4768*
Y1154*
X4774*
X4510Y1150D02*
Y1140D01*
X4530*
Y1150*
X4540*
Y1170*
X4530*
Y1180*
X4510*
Y1170*
X4500*
Y1150*
X4510*
X4514Y1154D02*
Y1148D01*
X4526*
Y1154*
X4532*
Y1166*
X4526*
Y1172*
X4514*
Y1166*
X4508*
Y1154*
X4514*
X4230Y1150D02*
Y1140D01*
X4250*
Y1150*
X4260*
Y1170*
X4250*
Y1180*
X4230*
Y1170*
X4220*
Y1150*
X4230*
X4234Y1154D02*
Y1148D01*
X4246*
Y1154*
X4252*
Y1166*
X4246*
Y1172*
X4234*
Y1166*
X4228*
Y1154*
X4234*
X3970Y1150D02*
Y1140D01*
X3990*
Y1150*
X4000*
Y1170*
X3990*
Y1180*
X3970*
Y1170*
X3960*
Y1150*
X3970*
X3974Y1154D02*
Y1148D01*
X3986*
Y1154*
X3992*
Y1166*
X3986*
Y1172*
X3974*
Y1166*
X3968*
Y1154*
X3974*
X3690Y1150D02*
Y1140D01*
X3710*
Y1150*
X3720*
Y1170*
X3710*
Y1180*
X3690*
Y1170*
X3680*
Y1150*
X3690*
X3694Y1154D02*
Y1148D01*
X3706*
Y1154*
X3712*
Y1166*
X3706*
Y1172*
X3694*
Y1166*
X3688*
Y1154*
X3694*
X3410Y1150D02*
Y1140D01*
X3430*
Y1150*
X3440*
Y1170*
X3430*
Y1180*
X3410*
Y1170*
X3400*
Y1150*
X3410*
X3414Y1154D02*
Y1148D01*
X3426*
Y1154*
X3432*
Y1166*
X3426*
Y1172*
X3414*
Y1166*
X3408*
Y1154*
X3414*
X3130Y1150D02*
Y1140D01*
X3150*
Y1150*
X3160*
Y1170*
X3150*
Y1180*
X3130*
Y1170*
X3120*
Y1150*
X3130*
X3134Y1154D02*
Y1148D01*
X3146*
Y1154*
X3152*
Y1166*
X3146*
Y1172*
X3134*
Y1166*
X3128*
Y1154*
X3134*
X2850Y1150D02*
Y1140D01*
X2870*
Y1150*
X2880*
Y1170*
X2870*
Y1180*
X2850*
Y1170*
X2840*
Y1150*
X2850*
X2854Y1154D02*
Y1148D01*
X2866*
Y1154*
X2872*
Y1166*
X2866*
Y1172*
X2854*
Y1166*
X2848*
Y1154*
X2854*
X2590Y1150D02*
Y1140D01*
X2610*
Y1150*
X2620*
Y1170*
X2610*
Y1180*
X2590*
Y1170*
X2580*
Y1150*
X2590*
X2594Y1154D02*
Y1148D01*
X2606*
Y1154*
X2612*
Y1166*
X2606*
Y1172*
X2594*
Y1166*
X2588*
Y1154*
X2594*
X2370Y1150D02*
Y1140D01*
X2390*
Y1150*
X2400*
Y1170*
X2390*
Y1180*
X2370*
Y1170*
X2360*
Y1150*
X2370*
X2374Y1154D02*
Y1148D01*
X2386*
Y1154*
X2392*
Y1166*
X2386*
Y1172*
X2374*
Y1166*
X2368*
Y1154*
X2374*
X2170Y1150D02*
Y1140D01*
X2190*
Y1150*
X2200*
Y1170*
X2190*
Y1180*
X2170*
Y1170*
X2160*
Y1150*
X2170*
X2174Y1154D02*
Y1148D01*
X2186*
Y1154*
X2192*
Y1166*
X2186*
Y1172*
X2174*
Y1166*
X2168*
Y1154*
X2174*
X2010Y1490D02*
Y1480D01*
X2030*
Y1490*
X2040*
Y1510*
X2030*
Y1520*
X2010*
Y1510*
X2000*
Y1490*
X2010*
X2014Y1494D02*
Y1488D01*
X2026*
Y1494*
X2032*
Y1506*
X2026*
Y1512*
X2014*
Y1506*
X2008*
Y1494*
X2014*
X2010Y1330D02*
Y1320D01*
X2030*
Y1330*
X2040*
Y1350*
X2030*
Y1360*
X2010*
Y1350*
X2000*
Y1330*
X2010*
X2014Y1334D02*
Y1328D01*
X2026*
Y1334*
X2032*
Y1346*
X2026*
Y1352*
X2014*
Y1346*
X2008*
Y1334*
X2014*
X1690Y1690D02*
Y1680D01*
X1710*
Y1690*
X1720*
Y1710*
X1710*
Y1720*
X1690*
Y1710*
X1680*
Y1690*
X1690*
X1694Y1694D02*
Y1688D01*
X1706*
Y1694*
X1712*
Y1706*
X1706*
Y1712*
X1694*
Y1706*
X1688*
Y1694*
X1694*
X1510Y1690D02*
Y1680D01*
X1530*
Y1690*
X1540*
Y1710*
X1530*
Y1720*
X1510*
Y1710*
X1500*
Y1690*
X1510*
X1514Y1694D02*
Y1688D01*
X1526*
Y1694*
X1532*
Y1706*
X1526*
Y1712*
X1514*
Y1706*
X1508*
Y1694*
X1514*
X1150Y1590D02*
Y1580D01*
X1170*
Y1590*
X1180*
Y1610*
X1170*
Y1620*
X1150*
Y1610*
X1140*
Y1590*
X1150*
X1154Y1594D02*
Y1588D01*
X1166*
Y1594*
X1172*
Y1606*
X1166*
Y1612*
X1154*
Y1606*
X1148*
Y1594*
X1154*
X1210Y2150D02*
Y2140D01*
X1230*
Y2150*
X1240*
Y2170*
X1230*
Y2180*
X1210*
Y2170*
X1200*
Y2150*
X1210*
X1214Y2154D02*
Y2148D01*
X1226*
Y2154*
X1232*
Y2166*
X1226*
Y2172*
X1214*
Y2166*
X1208*
Y2154*
X1214*
X1230Y2510D02*
Y2500D01*
X1250*
Y2510*
X1260*
Y2530*
X1250*
Y2540*
X1230*
Y2530*
X1220*
Y2510*
X1230*
X1234Y2514D02*
Y2508D01*
X1246*
Y2514*
X1252*
Y2526*
X1246*
Y2532*
X1234*
Y2526*
X1228*
Y2514*
X1234*
X1150Y2730D02*
Y2720D01*
X1170*
Y2730*
X1180*
Y2750*
X1170*
Y2760*
X1150*
Y2750*
X1140*
Y2730*
X1150*
X1154Y2734D02*
Y2728D01*
X1166*
Y2734*
X1172*
Y2746*
X1166*
Y2752*
X1154*
Y2746*
X1148*
Y2734*
X1154*
X1150Y2950D02*
Y2940D01*
X1170*
Y2950*
X1180*
Y2970*
X1170*
Y2980*
X1150*
Y2970*
X1140*
Y2950*
X1150*
X1154Y2954D02*
Y2948D01*
X1166*
Y2954*
X1172*
Y2966*
X1166*
Y2972*
X1154*
Y2966*
X1148*
Y2954*
X1154*
X1150Y3170D02*
Y3160D01*
X1170*
Y3170*
X1180*
Y3190*
X1170*
Y3200*
X1150*
Y3190*
X1140*
Y3170*
X1150*
X1154Y3174D02*
Y3168D01*
X1166*
Y3174*
X1172*
Y3186*
X1166*
Y3192*
X1154*
Y3186*
X1148*
Y3174*
X1154*
X1150Y3430D02*
Y3420D01*
X1170*
Y3430*
X1180*
Y3450*
X1170*
Y3460*
X1150*
Y3450*
X1140*
Y3430*
X1150*
X1154Y3434D02*
Y3428D01*
X1166*
Y3434*
X1172*
Y3446*
X1166*
Y3452*
X1154*
Y3446*
X1148*
Y3434*
X1154*
X1150Y3670D02*
Y3660D01*
X1170*
Y3670*
X1180*
Y3690*
X1170*
Y3700*
X1150*
Y3690*
X1140*
Y3670*
X1150*
X1154Y3674D02*
Y3668D01*
X1166*
Y3674*
X1172*
Y3686*
X1166*
Y3692*
X1154*
Y3686*
X1148*
Y3674*
X1154*
X1150Y3910D02*
Y3900D01*
X1170*
Y3910*
X1180*
Y3930*
X1170*
Y3940*
X1150*
Y3930*
X1140*
Y3910*
X1150*
X1154Y3914D02*
Y3908D01*
X1166*
Y3914*
X1172*
Y3926*
X1166*
Y3932*
X1154*
Y3926*
X1148*
Y3914*
X1154*
X1150Y4150D02*
Y4140D01*
X1170*
Y4150*
X1180*
Y4170*
X1170*
Y4180*
X1150*
Y4170*
X1140*
Y4150*
X1150*
X1154Y4154D02*
Y4148D01*
X1166*
Y4154*
X1172*
Y4166*
X1166*
Y4172*
X1154*
Y4166*
X1148*
Y4154*
X1154*
X1150Y4390D02*
Y4380D01*
X1170*
Y4390*
X1180*
Y4410*
X1170*
Y4420*
X1150*
Y4410*
X1140*
Y4390*
X1150*
X1154Y4394D02*
Y4388D01*
X1166*
Y4394*
X1172*
Y4406*
X1166*
Y4412*
X1154*
Y4406*
X1148*
Y4394*
X1154*
X1150Y4590D02*
Y4580D01*
X1170*
Y4590*
X1180*
Y4610*
X1170*
Y4620*
X1150*
Y4610*
X1140*
Y4590*
X1150*
X1154Y4594D02*
Y4588D01*
X1166*
Y4594*
X1172*
Y4606*
X1166*
Y4612*
X1154*
Y4606*
X1148*
Y4594*
X1154*
X1370Y4790D02*
Y4780D01*
X1390*
Y4790*
X1400*
Y4810*
X1390*
Y4820*
X1370*
Y4810*
X1360*
Y4790*
X1370*
X1374Y4794D02*
Y4788D01*
X1386*
Y4794*
X1392*
Y4806*
X1386*
Y4812*
X1374*
Y4806*
X1368*
Y4794*
X1374*
X1590Y4790D02*
Y4780D01*
X1610*
Y4790*
X1620*
Y4810*
X1610*
Y4820*
X1590*
Y4810*
X1580*
Y4790*
X1590*
X1594Y4794D02*
Y4788D01*
X1606*
Y4794*
X1612*
Y4806*
X1606*
Y4812*
X1594*
Y4806*
X1588*
Y4794*
X1594*
X1870Y4790D02*
Y4780D01*
X1890*
Y4790*
X1900*
Y4810*
X1890*
Y4820*
X1870*
Y4810*
X1860*
Y4790*
X1870*
X1874Y4794D02*
Y4788D01*
X1886*
Y4794*
X1892*
Y4806*
X1886*
Y4812*
X1874*
Y4806*
X1868*
Y4794*
X1874*
X2130Y4790D02*
Y4780D01*
X2150*
Y4790*
X2160*
Y4810*
X2150*
Y4820*
X2130*
Y4810*
X2120*
Y4790*
X2130*
X2134Y4794D02*
Y4788D01*
X2146*
Y4794*
X2152*
Y4806*
X2146*
Y4812*
X2134*
Y4806*
X2128*
Y4794*
X2134*
X2570Y4790D02*
Y4780D01*
X2590*
Y4790*
X2600*
Y4810*
X2590*
Y4820*
X2570*
Y4810*
X2560*
Y4790*
X2570*
X2574Y4794D02*
Y4788D01*
X2586*
Y4794*
X2592*
Y4806*
X2586*
Y4812*
X2574*
Y4806*
X2568*
Y4794*
X2574*
X2890Y4790D02*
Y4780D01*
X2910*
Y4790*
X2920*
Y4810*
X2910*
Y4820*
X2890*
Y4810*
X2880*
Y4790*
X2890*
X2894Y4794D02*
Y4788D01*
X2906*
Y4794*
X2912*
Y4806*
X2906*
Y4812*
X2894*
Y4806*
X2888*
Y4794*
X2894*
X3150Y4790D02*
Y4780D01*
X3170*
Y4790*
X3180*
Y4810*
X3170*
Y4820*
X3150*
Y4810*
X3140*
Y4790*
X3150*
X3154Y4794D02*
Y4788D01*
X3166*
Y4794*
X3172*
Y4806*
X3166*
Y4812*
X3154*
Y4806*
X3148*
Y4794*
X3154*
X3430Y4790D02*
Y4780D01*
X3450*
Y4790*
X3460*
Y4810*
X3450*
Y4820*
X3430*
Y4810*
X3420*
Y4790*
X3430*
X3434Y4794D02*
Y4788D01*
X3446*
Y4794*
X3452*
Y4806*
X3446*
Y4812*
X3434*
Y4806*
X3428*
Y4794*
X3434*
X3710Y4790D02*
Y4780D01*
X3730*
Y4790*
X3740*
Y4810*
X3730*
Y4820*
X3710*
Y4810*
X3700*
Y4790*
X3710*
X3714Y4794D02*
Y4788D01*
X3726*
Y4794*
X3732*
Y4806*
X3726*
Y4812*
X3714*
Y4806*
X3708*
Y4794*
X3714*
X4030Y4790D02*
Y4780D01*
X4050*
Y4790*
X4060*
Y4810*
X4050*
Y4820*
X4030*
Y4810*
X4020*
Y4790*
X4030*
X4034Y4794D02*
Y4788D01*
X4046*
Y4794*
X4052*
Y4806*
X4046*
Y4812*
X4034*
Y4806*
X4028*
Y4794*
X4034*
X4350Y4790D02*
Y4780D01*
X4370*
Y4790*
X4380*
Y4810*
X4370*
Y4820*
X4350*
Y4810*
X4340*
Y4790*
X4350*
X4354Y4794D02*
Y4788D01*
X4366*
Y4794*
X4372*
Y4806*
X4366*
Y4812*
X4354*
Y4806*
X4348*
Y4794*
X4354*
X5130Y4310D02*
Y4300D01*
X5150*
Y4310*
X5160*
Y4330*
X5150*
Y4340*
X5130*
Y4330*
X5120*
Y4310*
X5130*
X5134Y4314D02*
Y4308D01*
X5146*
Y4314*
X5152*
Y4326*
X5146*
Y4332*
X5134*
Y4326*
X5128*
Y4314*
X5134*
X4830Y4270D02*
Y4260D01*
X4850*
Y4270*
X4860*
Y4290*
X4850*
Y4300*
X4830*
Y4290*
X4820*
Y4270*
X4830*
X4834Y4274D02*
Y4268D01*
X4846*
Y4274*
X4852*
Y4286*
X4846*
Y4292*
X4834*
Y4286*
X4828*
Y4274*
X4834*
X5010Y4090D02*
Y4080D01*
X5030*
Y4090*
X5040*
Y4110*
X5030*
Y4120*
X5010*
Y4110*
X5000*
Y4090*
X5010*
X5014Y4094D02*
Y4088D01*
X5026*
Y4094*
X5032*
Y4106*
X5026*
Y4112*
X5014*
Y4106*
X5008*
Y4094*
X5014*
X5210Y3990D02*
Y3980D01*
X5230*
Y3990*
X5240*
Y4010*
X5230*
Y4020*
X5210*
Y4010*
X5200*
Y3990*
X5210*
X5214Y3994D02*
Y3988D01*
X5226*
Y3994*
X5232*
Y4006*
X5226*
Y4012*
X5214*
Y4006*
X5208*
Y3994*
X5214*
X5310Y4110D02*
Y4100D01*
X5330*
Y4110*
X5340*
Y4130*
X5330*
Y4140*
X5310*
Y4130*
X5300*
Y4110*
X5310*
X5314Y4114D02*
Y4108D01*
X5326*
Y4114*
X5332*
Y4126*
X5326*
Y4132*
X5314*
Y4126*
X5308*
Y4114*
X5314*
X5430Y4250D02*
Y4240D01*
X5450*
Y4250*
X5460*
Y4270*
X5450*
Y4280*
X5430*
Y4270*
X5420*
Y4250*
X5430*
X5434Y4254D02*
Y4248D01*
X5446*
Y4254*
X5452*
Y4266*
X5446*
Y4272*
X5434*
Y4266*
X5428*
Y4254*
X5434*
X5270Y4710D02*
Y4700D01*
X5290*
Y4710*
X5300*
Y4730*
X5290*
Y4740*
X5270*
Y4730*
X5260*
Y4710*
X5270*
X5274Y4714D02*
Y4708D01*
X5286*
Y4714*
X5292*
Y4726*
X5286*
Y4732*
X5274*
Y4726*
X5268*
Y4714*
X5274*
X5770Y4490D02*
Y4480D01*
X5790*
Y4490*
X5800*
Y4510*
X5790*
Y4520*
X5770*
Y4510*
X5760*
Y4490*
X5770*
X5774Y4494D02*
Y4488D01*
X5786*
Y4494*
X5792*
Y4506*
X5786*
Y4512*
X5774*
Y4506*
X5768*
Y4494*
X5774*
X6510Y4750D02*
Y4740D01*
X6530*
Y4750*
X6540*
Y4770*
X6530*
Y4780*
X6510*
Y4770*
X6500*
Y4750*
X6510*
X6514Y4754D02*
Y4748D01*
X6526*
Y4754*
X6532*
Y4766*
X6526*
Y4772*
X6514*
Y4766*
X6508*
Y4754*
X6514*
X6410Y4470D02*
Y4460D01*
X6430*
Y4470*
X6440*
Y4490*
X6430*
Y4500*
X6410*
Y4490*
X6400*
Y4470*
X6410*
X6414Y4474D02*
Y4468D01*
X6426*
Y4474*
X6432*
Y4486*
X6426*
Y4492*
X6414*
Y4486*
X6408*
Y4474*
X6414*
X6750Y4470D02*
Y4460D01*
X6770*
Y4470*
X6780*
Y4490*
X6770*
Y4500*
X6750*
Y4490*
X6740*
Y4470*
X6750*
X6754Y4474D02*
Y4468D01*
X6766*
Y4474*
X6772*
Y4486*
X6766*
Y4492*
X6754*
Y4486*
X6748*
Y4474*
X6754*
X6770Y4230D02*
Y4220D01*
X6790*
Y4230*
X6800*
Y4250*
X6790*
Y4260*
X6770*
Y4250*
X6760*
Y4230*
X6770*
X6774Y4234D02*
Y4228D01*
X6786*
Y4234*
X6792*
Y4246*
X6786*
Y4252*
X6774*
Y4246*
X6768*
Y4234*
X6774*
X6170Y3990D02*
Y3980D01*
X6190*
Y3990*
X6200*
Y4010*
X6190*
Y4020*
X6170*
Y4010*
X6160*
Y3990*
X6170*
X6174Y3994D02*
Y3988D01*
X6186*
Y3994*
X6192*
Y4006*
X6186*
Y4012*
X6174*
Y4006*
X6168*
Y3994*
X6174*
X6510Y3970D02*
Y3960D01*
X6530*
Y3970*
X6540*
Y3990*
X6530*
Y4000*
X6510*
Y3990*
X6500*
Y3970*
X6510*
X6514Y3974D02*
Y3968D01*
X6526*
Y3974*
X6532*
Y3986*
X6526*
Y3992*
X6514*
Y3986*
X6508*
Y3974*
X6514*
X6770Y3970D02*
Y3960D01*
X6790*
Y3970*
X6800*
Y3990*
X6790*
Y4000*
X6770*
Y3990*
X6760*
Y3970*
X6770*
X6774Y3974D02*
Y3968D01*
X6786*
Y3974*
X6792*
Y3986*
X6786*
Y3992*
X6774*
Y3986*
X6768*
Y3974*
X6774*
X6650Y3790D02*
Y3780D01*
X6670*
Y3790*
X6680*
Y3810*
X6670*
Y3820*
X6650*
Y3810*
X6640*
Y3790*
X6650*
X6654Y3794D02*
Y3788D01*
X6666*
Y3794*
X6672*
Y3806*
X6666*
Y3812*
X6654*
Y3806*
X6648*
Y3794*
X6654*
X6350Y3490D02*
Y3480D01*
X6370*
Y3490*
X6380*
Y3510*
X6370*
Y3520*
X6350*
Y3510*
X6340*
Y3490*
X6350*
X6354Y3494D02*
Y3488D01*
X6366*
Y3494*
X6372*
Y3506*
X6366*
Y3512*
X6354*
Y3506*
X6348*
Y3494*
X6354*
X6150Y3430D02*
Y3420D01*
X6170*
Y3430*
X6180*
Y3450*
X6170*
Y3460*
X6150*
Y3450*
X6140*
Y3430*
X6150*
X6154Y3434D02*
Y3428D01*
X6166*
Y3434*
X6172*
Y3446*
X6166*
Y3452*
X6154*
Y3446*
X6148*
Y3434*
X6154*
X6010Y3330D02*
Y3320D01*
X6030*
Y3330*
X6040*
Y3350*
X6030*
Y3360*
X6010*
Y3350*
X6000*
Y3330*
X6010*
X6014Y3334D02*
Y3328D01*
X6026*
Y3334*
X6032*
Y3346*
X6026*
Y3352*
X6014*
Y3346*
X6008*
Y3334*
X6014*
X6110Y3170D02*
Y3160D01*
X6130*
Y3170*
X6140*
Y3190*
X6130*
Y3200*
X6110*
Y3190*
X6100*
Y3170*
X6110*
X6114Y3174D02*
Y3168D01*
X6126*
Y3174*
X6132*
Y3186*
X6126*
Y3192*
X6114*
Y3186*
X6108*
Y3174*
X6114*
X6450Y3170D02*
Y3160D01*
X6470*
Y3170*
X6480*
Y3190*
X6470*
Y3200*
X6450*
Y3190*
X6440*
Y3170*
X6450*
X6454Y3174D02*
Y3168D01*
X6466*
Y3174*
X6472*
Y3186*
X6466*
Y3192*
X6454*
Y3186*
X6448*
Y3174*
X6454*
X6770Y3270D02*
Y3260D01*
X6790*
Y3270*
X6800*
Y3290*
X6790*
Y3300*
X6770*
Y3290*
X6760*
Y3270*
X6770*
X6774Y3274D02*
Y3268D01*
X6786*
Y3274*
X6792*
Y3286*
X6786*
Y3292*
X6774*
Y3286*
X6768*
Y3274*
X6774*
X6770Y3070D02*
Y3060D01*
X6790*
Y3070*
X6800*
Y3090*
X6790*
Y3100*
X6770*
Y3090*
X6760*
Y3070*
X6770*
X6774Y3074D02*
Y3068D01*
X6786*
Y3074*
X6792*
Y3086*
X6786*
Y3092*
X6774*
Y3086*
X6768*
Y3074*
X6774*
X6350Y2830D02*
Y2820D01*
X6370*
Y2830*
X6380*
Y2850*
X6370*
Y2860*
X6350*
Y2850*
X6340*
Y2830*
X6350*
X6354Y2834D02*
Y2828D01*
X6366*
Y2834*
X6372*
Y2846*
X6366*
Y2852*
X6354*
Y2846*
X6348*
Y2834*
X6354*
X6550Y2630D02*
Y2620D01*
X6570*
Y2630*
X6580*
Y2650*
X6570*
Y2660*
X6550*
Y2650*
X6540*
Y2630*
X6550*
X6554Y2634D02*
Y2628D01*
X6566*
Y2634*
X6572*
Y2646*
X6566*
Y2652*
X6554*
Y2646*
X6548*
Y2634*
X6554*
X5610Y2490D02*
Y2480D01*
X5630*
Y2490*
X5640*
Y2510*
X5630*
Y2520*
X5610*
Y2510*
X5600*
Y2490*
X5610*
X5614Y2494D02*
Y2488D01*
X5626*
Y2494*
X5632*
Y2506*
X5626*
Y2512*
X5614*
Y2506*
X5608*
Y2494*
X5614*
X5330Y2710D02*
Y2700D01*
X5350*
Y2710*
X5360*
Y2730*
X5350*
Y2740*
X5330*
Y2730*
X5320*
Y2710*
X5330*
X5334Y2714D02*
Y2708D01*
X5346*
Y2714*
X5352*
Y2726*
X5346*
Y2732*
X5334*
Y2726*
X5328*
Y2714*
X5334*
X4970Y2510D02*
Y2500D01*
X4990*
Y2510*
X5000*
Y2530*
X4990*
Y2540*
X4970*
Y2530*
X4960*
Y2510*
X4970*
X4974Y2514D02*
Y2508D01*
X4986*
Y2514*
X4992*
Y2526*
X4986*
Y2532*
X4974*
Y2526*
X4968*
Y2514*
X4974*
X4970Y2750D02*
Y2740D01*
X4990*
Y2750*
X5000*
Y2770*
X4990*
Y2780*
X4970*
Y2770*
X4960*
Y2750*
X4970*
X4974Y2754D02*
Y2748D01*
X4986*
Y2754*
X4992*
Y2766*
X4986*
Y2772*
X4974*
Y2766*
X4968*
Y2754*
X4974*
X4770Y2630D02*
Y2620D01*
X4790*
Y2630*
X4800*
Y2650*
X4790*
Y2660*
X4770*
Y2650*
X4760*
Y2630*
X4770*
X4774Y2634D02*
Y2628D01*
X4786*
Y2634*
X4792*
Y2646*
X4786*
Y2652*
X4774*
Y2646*
X4768*
Y2634*
X4774*
X4390Y2990D02*
Y2980D01*
X4410*
Y2990*
X4420*
Y3010*
X4410*
Y3020*
X4390*
Y3010*
X4380*
Y2990*
X4390*
X4394Y2994D02*
Y2988D01*
X4406*
Y2994*
X4412*
Y3006*
X4406*
Y3012*
X4394*
Y3006*
X4388*
Y2994*
X4394*
X4390Y3210D02*
Y3200D01*
X4410*
Y3210*
X4420*
Y3230*
X4410*
Y3240*
X4390*
Y3230*
X4380*
Y3210*
X4390*
X4394Y3214D02*
Y3208D01*
X4406*
Y3214*
X4412*
Y3226*
X4406*
Y3232*
X4394*
Y3226*
X4388*
Y3214*
X4394*
X4690Y3390D02*
Y3380D01*
X4710*
Y3390*
X4720*
Y3410*
X4710*
Y3420*
X4690*
Y3410*
X4680*
Y3390*
X4690*
X4694Y3394D02*
Y3388D01*
X4706*
Y3394*
X4712*
Y3406*
X4706*
Y3412*
X4694*
Y3406*
X4688*
Y3394*
X4694*
X4490Y3390D02*
Y3380D01*
X4510*
Y3390*
X4520*
Y3410*
X4510*
Y3420*
X4490*
Y3410*
X4480*
Y3390*
X4490*
X4494Y3394D02*
Y3388D01*
X4506*
Y3394*
X4512*
Y3406*
X4506*
Y3412*
X4494*
Y3406*
X4488*
Y3394*
X4494*
X4490Y3630D02*
Y3620D01*
X4510*
Y3630*
X4520*
Y3650*
X4510*
Y3660*
X4490*
Y3650*
X4480*
Y3630*
X4490*
X4494Y3634D02*
Y3628D01*
X4506*
Y3634*
X4512*
Y3646*
X4506*
Y3652*
X4494*
Y3646*
X4488*
Y3634*
X4494*
X4810Y3630D02*
Y3620D01*
X4830*
Y3630*
X4840*
Y3650*
X4830*
Y3660*
X4810*
Y3650*
X4800*
Y3630*
X4810*
X4814Y3634D02*
Y3628D01*
X4826*
Y3634*
X4832*
Y3646*
X4826*
Y3652*
X4814*
Y3646*
X4808*
Y3634*
X4814*
X5750Y2819D02*
Y2770D01*
X5774*
X5783Y2778*
Y2786*
X5774Y2794*
X5750*
X5774*
X5783Y2803*
Y2811*
X5774Y2819*
X5750*
X5885Y2829D02*
Y2780D01*
X5909*
X5918Y2788*
Y2796*
X5909Y2804*
X5885*
X5909*
X5918Y2813*
Y2821*
X5909Y2829*
X5885*
X1986Y1813D02*
Y1846D01*
X2003Y1863*
X2020Y1846*
Y1813*
Y1838*
X1986*
X5850Y3240D02*
X5860D01*
X5870Y3250*
X5880Y3240*
X5890*
Y3250*
X5880Y3260*
X5890Y3270*
Y3280*
X5880*
X5870Y3270*
X5860Y3280*
X5850*
Y3270*
X5860Y3260*
X5850Y3250*
Y3240*
X5858Y3248D02*
X5864D01*
X5870Y3254*
X5876Y3248*
X5882*
Y3254*
X5876Y3260*
X5882Y3266*
Y3272*
X5876*
X5870Y3266*
X5864Y3272*
X5858*
Y3266*
X5864Y3260*
X5858Y3254*
Y3248*
X4950Y1609D02*
Y1560D01*
X4974*
X4983Y1568*
Y1576*
X4974Y1584*
X4950*
X4974*
X4983Y1593*
Y1601*
X4974Y1609*
X4950*
X5000Y1539D02*
Y1490D01*
X5024*
X5033Y1498*
Y1506*
X5024Y1514*
X5000*
X5024*
X5033Y1523*
Y1531*
X5024Y1539*
X5000*
X6060Y3029D02*
Y2980D01*
X6084*
X6093Y2988*
Y2996*
X6084Y3004*
X6060*
X6084*
X6093Y3013*
Y3021*
X6084Y3029*
X6060*
X6169Y3059D02*
Y3010D01*
X6194*
X6203Y3018*
Y3026*
X6194Y3034*
X6169*
X6194*
X6203Y3043*
Y3051*
X6194Y3059*
X6169*
X5800Y2359D02*
Y2310D01*
X5824*
X5833Y2318*
Y2326*
X5824Y2334*
X5800*
X5824*
X5833Y2343*
Y2351*
X5824Y2359*
X5800*
X5865Y2454D02*
Y2405D01*
X5889*
X5898Y2413*
Y2421*
X5889Y2429*
X5865*
X5889*
X5898Y2438*
Y2446*
X5889Y2454*
X5865*
X6010Y2495D02*
X6020D01*
X6030Y2505*
X6040Y2495*
X6050*
Y2505*
X6040Y2515*
X6050Y2525*
Y2535*
X6040*
X6030Y2525*
X6020Y2535*
X6010*
Y2525*
X6020Y2515*
X6010Y2505*
Y2495*
X6018Y2503D02*
X6024D01*
X6030Y2509*
X6036Y2503*
X6042*
Y2509*
X6036Y2515*
X6042Y2521*
Y2527*
X6036*
X6030Y2521*
X6024Y2527*
X6018*
Y2521*
X6024Y2515*
X6018Y2509*
Y2503*
X5740Y2539D02*
Y2490D01*
X5764*
X5773Y2498*
Y2506*
X5764Y2514*
X5740*
X5764*
X5773Y2523*
Y2531*
X5764Y2539*
X5740*
X5785Y2879D02*
Y2830D01*
X5809*
X5818Y2838*
Y2846*
X5809Y2854*
X5785*
X5809*
X5818Y2863*
Y2871*
X5809Y2879*
X5785*
X5865Y2899D02*
Y2850D01*
X5889*
X5898Y2858*
Y2866*
X5889Y2874*
X5865*
X5889*
X5898Y2883*
Y2891*
X5889Y2899*
X5865*
X5910Y2789D02*
Y2740D01*
X5934*
X5943Y2748*
Y2756*
X5934Y2764*
X5910*
X5934*
X5943Y2773*
Y2781*
X5934Y2789*
X5910*
X5860Y2756D02*
Y2706D01*
X5884*
X5893Y2714*
Y2722*
X5884Y2731*
X5860*
X5884*
X5893Y2739*
Y2747*
X5884Y2756*
X5860*
X5770Y1950D02*
X5780D01*
X5790Y1960*
X5800Y1950*
X5810*
Y1960*
X5800Y1970*
X5810Y1980*
Y1990*
X5800*
X5790Y1980*
X5780Y1990*
X5770*
Y1980*
X5780Y1970*
X5770Y1960*
Y1950*
X5778Y1958D02*
X5784D01*
X5790Y1964*
X5796Y1958*
X5802*
Y1964*
X5796Y1970*
X5802Y1976*
Y1982*
X5796*
X5790Y1976*
X5784Y1982*
X5778*
Y1976*
X5784Y1970*
X5778Y1964*
Y1958*
X1220Y2020D02*
Y2053D01*
X1236Y2069*
X1253Y2053*
Y2020*
Y2044*
X1220*
X5990Y3649D02*
Y3600D01*
X6014*
X6023Y3608*
Y3616*
X6014Y3624*
X5990*
X6014*
X6023Y3633*
Y3641*
X6014Y3649*
X5990*
X6040Y3950D02*
X6050D01*
X6060Y3960*
X6070Y3950*
X6080*
Y3960*
X6070Y3970*
X6080Y3980*
Y3990*
X6070*
X6060Y3980*
X6050Y3990*
X6040*
Y3980*
X6050Y3970*
X6040Y3960*
Y3950*
X6048Y3958D02*
X6054D01*
X6060Y3964*
X6066Y3958*
X6072*
Y3964*
X6066Y3970*
X6072Y3976*
Y3982*
X6066*
X6060Y3976*
X6054Y3982*
X6048*
Y3976*
X6054Y3970*
X6048Y3964*
Y3958*
X5910Y4039D02*
Y3990D01*
X5934*
X5943Y3998*
Y4006*
X5934Y4014*
X5910*
X5934*
X5943Y4023*
Y4031*
X5934Y4039*
X5910*
X4800Y3280D02*
X4810D01*
X4820Y3290*
X4830Y3280*
X4840*
Y3290*
X4830Y3300*
X4840Y3310*
Y3320*
X4830*
X4820Y3310*
X4810Y3320*
X4800*
Y3310*
X4810Y3300*
X4800Y3290*
Y3280*
X4808Y3288D02*
X4814D01*
X4820Y3294*
X4826Y3288*
X4832*
Y3294*
X4826Y3300*
X4832Y3306*
Y3312*
X4826*
X4820Y3306*
X4814Y3312*
X4808*
Y3306*
X4814Y3300*
X4808Y3294*
Y3288*
X4750Y2860D02*
X4760D01*
X4770Y2870*
X4780Y2860*
X4790*
Y2870*
X4780Y2880*
X4790Y2890*
Y2900*
X4780*
X4770Y2890*
X4760Y2900*
X4750*
Y2890*
X4760Y2880*
X4750Y2870*
Y2860*
X4758Y2868D02*
X4764D01*
X4770Y2874*
X4776Y2868*
X4782*
Y2874*
X4776Y2880*
X4782Y2886*
Y2892*
X4776*
X4770Y2886*
X4764Y2892*
X4758*
Y2886*
X4764Y2880*
X4758Y2874*
Y2868*
X5900Y2359D02*
Y2310D01*
X5924*
X5933Y2318*
Y2326*
X5924Y2334*
X5900*
X5924*
X5933Y2343*
Y2351*
X5924Y2359*
X5900*
X1650Y1170D02*
X1660D01*
X1670Y1180*
X1680Y1170*
X1690*
Y1180*
X1680Y1190*
X1690Y1200*
Y1210*
X1680*
X1670Y1200*
X1660Y1210*
X1650*
Y1200*
X1660Y1190*
X1650Y1180*
Y1170*
X1658Y1178D02*
X1664D01*
X1670Y1184*
X1676Y1178*
X1682*
Y1184*
X1676Y1190*
X1682Y1196*
Y1202*
X1676*
X1670Y1196*
X1664Y1202*
X1658*
Y1196*
X1664Y1190*
X1658Y1184*
Y1178*
X1650Y1260D02*
X1660D01*
X1670Y1270*
X1680Y1260*
X1690*
Y1270*
X1680Y1280*
X1690Y1290*
Y1300*
X1680*
X1670Y1290*
X1660Y1300*
X1650*
Y1290*
X1660Y1280*
X1650Y1270*
Y1260*
X1658Y1268D02*
X1664D01*
X1670Y1274*
X1676Y1268*
X1682*
Y1274*
X1676Y1280*
X1682Y1286*
Y1292*
X1676*
X1670Y1286*
X1664Y1292*
X1658*
Y1286*
X1664Y1280*
X1658Y1274*
Y1268*
X1530Y2690D02*
X1540D01*
X1550Y2700*
X1560Y2690*
X1570*
Y2700*
X1560Y2710*
X1570Y2720*
Y2730*
X1560*
X1550Y2720*
X1540Y2730*
X1530*
Y2720*
X1540Y2710*
X1530Y2700*
Y2690*
X1538Y2698D02*
X1544D01*
X1550Y2704*
X1556Y2698*
X1562*
Y2704*
X1556Y2710*
X1562Y2716*
Y2722*
X1556*
X1550Y2716*
X1544Y2722*
X1538*
Y2716*
X1544Y2710*
X1538Y2704*
Y2698*
X1620Y2810D02*
X1630D01*
X1640Y2820*
X1650Y2810*
X1660*
Y2820*
X1650Y2830*
X1660Y2840*
Y2850*
X1650*
X1640Y2840*
X1630Y2850*
X1620*
Y2840*
X1630Y2830*
X1620Y2820*
Y2810*
X1628Y2818D02*
X1634D01*
X1640Y2824*
X1646Y2818*
X1652*
Y2824*
X1646Y2830*
X1652Y2836*
Y2842*
X1646*
X1640Y2836*
X1634Y2842*
X1628*
Y2836*
X1634Y2830*
X1628Y2824*
Y2818*
X2030Y3400D02*
Y3433D01*
X2046Y3449*
X2063Y3433*
Y3400*
Y3424*
X2030*
X5620Y3490D02*
X5630D01*
X5640Y3500*
X5650Y3490*
X5660*
Y3500*
X5650Y3510*
X5660Y3520*
Y3530*
X5650*
X5640Y3520*
X5630Y3530*
X5620*
Y3520*
X5630Y3510*
X5620Y3500*
Y3490*
X5628Y3498D02*
X5634D01*
X5640Y3504*
X5646Y3498*
X5652*
Y3504*
X5646Y3510*
X5652Y3516*
Y3522*
X5646*
X5640Y3516*
X5634Y3522*
X5628*
Y3516*
X5634Y3510*
X5628Y3504*
Y3498*
X5460Y3539D02*
Y3490D01*
X5484*
X5493Y3498*
Y3506*
X5484Y3514*
X5460*
X5484*
X5493Y3523*
Y3531*
X5484Y3539*
X5460*
X5920Y3440D02*
X5930D01*
X5940Y3450*
X5950Y3440*
X5960*
Y3450*
X5950Y3460*
X5960Y3470*
Y3480*
X5950*
X5940Y3470*
X5930Y3480*
X5920*
Y3470*
X5930Y3460*
X5920Y3450*
Y3440*
X5928Y3448D02*
X5934D01*
X5940Y3454*
X5946Y3448*
X5952*
Y3454*
X5946Y3460*
X5952Y3466*
Y3472*
X5946*
X5940Y3466*
X5934Y3472*
X5928*
Y3466*
X5934Y3460*
X5928Y3454*
Y3448*
X5580Y3100D02*
X5590D01*
X5600Y3110*
X5610Y3100*
X5620*
Y3110*
X5610Y3120*
X5620Y3130*
Y3140*
X5610*
X5600Y3130*
X5590Y3140*
X5580*
Y3130*
X5590Y3120*
X5580Y3110*
Y3100*
X5588Y3108D02*
X5594D01*
X5600Y3114*
X5606Y3108*
X5612*
Y3114*
X5606Y3120*
X5612Y3126*
Y3132*
X5606*
X5600Y3126*
X5594Y3132*
X5588*
Y3126*
X5594Y3120*
X5588Y3114*
Y3108*
X6460Y1490D02*
X6470D01*
X6480Y1500*
X6490Y1490*
X6500*
Y1500*
X6490Y1510*
X6500Y1520*
Y1530*
X6490*
X6480Y1520*
X6470Y1530*
X6460*
Y1520*
X6470Y1510*
X6460Y1500*
Y1490*
X6468Y1498D02*
X6474D01*
X6480Y1504*
X6486Y1498*
X6492*
Y1504*
X6486Y1510*
X6492Y1516*
Y1522*
X6486*
X6480Y1516*
X6474Y1522*
X6468*
Y1516*
X6474Y1510*
X6468Y1504*
Y1498*
X1890Y1540D02*
X1900D01*
X1910Y1550*
X1920Y1540*
X1930*
Y1550*
X1920Y1560*
X1930Y1570*
Y1580*
X1920*
X1910Y1570*
X1900Y1580*
X1890*
Y1570*
X1900Y1560*
X1890Y1550*
Y1540*
X1898Y1548D02*
X1904D01*
X1910Y1554*
X1916Y1548*
X1922*
Y1554*
X1916Y1560*
X1922Y1566*
Y1572*
X1916*
X1910Y1566*
X1904Y1572*
X1898*
Y1566*
X1904Y1560*
X1898Y1554*
Y1548*
X1800Y1590D02*
X1810D01*
X1820Y1600*
X1830Y1590*
X1840*
Y1600*
X1830Y1610*
X1840Y1620*
Y1630*
X1830*
X1820Y1620*
X1810Y1630*
X1800*
Y1620*
X1810Y1610*
X1800Y1600*
Y1590*
X1808Y1598D02*
X1814D01*
X1820Y1604*
X1826Y1598*
X1832*
Y1604*
X1826Y1610*
X1832Y1616*
Y1622*
X1826*
X1820Y1616*
X1814Y1622*
X1808*
Y1616*
X1814Y1610*
X1808Y1604*
Y1598*
X2370Y3050D02*
X2380D01*
X2390Y3060*
X2400Y3050*
X2410*
Y3060*
X2400Y3070*
X2410Y3080*
Y3090*
X2400*
X2390Y3080*
X2380Y3090*
X2370*
Y3080*
X2380Y3070*
X2370Y3060*
Y3050*
X2378Y3058D02*
X2384D01*
X2390Y3064*
X2396Y3058*
X2402*
Y3064*
X2396Y3070*
X2402Y3076*
Y3082*
X2396*
X2390Y3076*
X2384Y3082*
X2378*
Y3076*
X2384Y3070*
X2378Y3064*
Y3058*
X4599Y4789D02*
X4609D01*
X4619Y4799*
X4629Y4789*
X4639*
Y4799*
X4629Y4809*
X4639Y4819*
Y4829*
X4629*
X4619Y4819*
X4609Y4829*
X4599*
Y4819*
X4609Y4809*
X4599Y4799*
Y4789*
X4607Y4797D02*
X4613D01*
X4619Y4803*
X4625Y4797*
X4631*
Y4803*
X4625Y4809*
X4631Y4815*
Y4821*
X4625*
X4619Y4815*
X4613Y4821*
X4607*
Y4815*
X4613Y4809*
X4607Y4803*
Y4797*
X4690Y4070D02*
X4700D01*
X4710Y4080*
X4720Y4070*
X4730*
Y4080*
X4720Y4090*
X4730Y4100*
Y4110*
X4720*
X4710Y4100*
X4700Y4110*
X4690*
Y4100*
X4700Y4090*
X4690Y4080*
Y4070*
X4698Y4078D02*
X4704D01*
X4710Y4084*
X4716Y4078*
X4722*
Y4084*
X4716Y4090*
X4722Y4096*
Y4102*
X4716*
X4710Y4096*
X4704Y4102*
X4698*
Y4096*
X4704Y4090*
X4698Y4084*
Y4078*
X5010Y3750D02*
X5020D01*
X5030Y3760*
X5040Y3750*
X5050*
Y3760*
X5040Y3770*
X5050Y3780*
Y3790*
X5040*
X5030Y3780*
X5020Y3790*
X5010*
Y3780*
X5020Y3770*
X5010Y3760*
Y3750*
X5018Y3758D02*
X5024D01*
X5030Y3764*
X5036Y3758*
X5042*
Y3764*
X5036Y3770*
X5042Y3776*
Y3782*
X5036*
X5030Y3776*
X5024Y3782*
X5018*
Y3776*
X5024Y3770*
X5018Y3764*
Y3758*
X5088Y3108D02*
X5098D01*
X5108Y3118*
X5118Y3108*
X5128*
Y3118*
X5118Y3128*
X5128Y3138*
Y3148*
X5118*
X5108Y3138*
X5098Y3148*
X5088*
Y3138*
X5098Y3128*
X5088Y3118*
Y3108*
X5096Y3116D02*
X5102D01*
X5108Y3122*
X5114Y3116*
X5120*
Y3122*
X5114Y3128*
X5120Y3134*
Y3140*
X5114*
X5108Y3134*
X5102Y3140*
X5096*
Y3134*
X5102Y3128*
X5096Y3122*
Y3116*
X2628Y2901D02*
Y2851D01*
X2653*
X2662Y2859*
Y2867*
X2653Y2876*
X2628*
X2653*
X2662Y2884*
Y2892*
X2653Y2901*
X2628*
X3750Y3830D02*
X3760D01*
X3770Y3840*
X3780Y3830*
X3790*
Y3840*
X3780Y3850*
X3790Y3860*
Y3870*
X3780*
X3770Y3860*
X3760Y3870*
X3750*
Y3860*
X3760Y3850*
X3750Y3840*
Y3830*
X3758Y3838D02*
X3764D01*
X3770Y3844*
X3776Y3838*
X3782*
Y3844*
X3776Y3850*
X3782Y3856*
Y3862*
X3776*
X3770Y3856*
X3764Y3862*
X3758*
Y3856*
X3764Y3850*
X3758Y3844*
Y3838*
X5910Y3210D02*
X5920D01*
X5930Y3220*
X5940Y3210*
X5950*
Y3220*
X5940Y3230*
X5950Y3240*
Y3250*
X5940*
X5930Y3240*
X5920Y3250*
X5910*
Y3240*
X5920Y3230*
X5910Y3220*
Y3210*
X5918Y3218D02*
X5924D01*
X5930Y3224*
X5936Y3218*
X5942*
Y3224*
X5936Y3230*
X5942Y3236*
Y3242*
X5936*
X5930Y3236*
X5924Y3242*
X5918*
Y3236*
X5924Y3230*
X5918Y3224*
Y3218*
X5790Y2560D02*
Y2510D01*
X5814*
X5823Y2519*
Y2527*
X5814Y2535*
X5790*
X5814*
X5823Y2544*
Y2552*
X5814Y2560*
X5790*
X6212Y3590D02*
X6222D01*
X6232Y3600*
X6242Y3590*
X6252*
Y3600*
X6242Y3610*
X6252Y3620*
Y3630*
X6242*
X6232Y3620*
X6222Y3630*
X6212*
Y3620*
X6222Y3610*
X6212Y3600*
Y3590*
X6220Y3598D02*
X6226D01*
X6232Y3604*
X6238Y3598*
X6244*
Y3604*
X6238Y3610*
X6244Y3616*
Y3622*
X6238*
X6232Y3616*
X6226Y3622*
X6220*
Y3616*
X6226Y3610*
X6220Y3604*
Y3598*
X5600Y3220D02*
X5610D01*
X5620Y3230*
X5630Y3220*
X5640*
Y3230*
X5630Y3240*
X5640Y3250*
Y3260*
X5630*
X5620Y3250*
X5610Y3260*
X5600*
Y3250*
X5610Y3240*
X5600Y3230*
Y3220*
X5608Y3228D02*
X5614D01*
X5620Y3234*
X5626Y3228*
X5632*
Y3234*
X5626Y3240*
X5632Y3246*
Y3252*
X5626*
X5620Y3246*
X5614Y3252*
X5608*
Y3246*
X5614Y3240*
X5608Y3234*
Y3228*
X5200Y2590D02*
X5210D01*
X5220Y2600*
X5230Y2590*
X5240*
Y2600*
X5230Y2610*
X5240Y2620*
Y2630*
X5230*
X5220Y2620*
X5210Y2630*
X5200*
Y2620*
X5210Y2610*
X5200Y2600*
Y2590*
X5208Y2598D02*
X5214D01*
X5220Y2604*
X5226Y2598*
X5232*
Y2604*
X5226Y2610*
X5232Y2616*
Y2622*
X5226*
X5220Y2616*
X5214Y2622*
X5208*
Y2616*
X5214Y2610*
X5208Y2604*
Y2598*
X5983Y1456D02*
X5993D01*
X6003Y1466*
X6013Y1456*
X6023*
Y1466*
X6013Y1476*
X6023Y1486*
Y1496*
X6013*
X6003Y1486*
X5993Y1496*
X5983*
Y1486*
X5993Y1476*
X5983Y1466*
Y1456*
X5991Y1464D02*
X5997D01*
X6003Y1470*
X6009Y1464*
X6015*
Y1470*
X6009Y1476*
X6015Y1482*
Y1488*
X6009*
X6003Y1482*
X5997Y1488*
X5991*
Y1482*
X5997Y1476*
X5991Y1470*
Y1464*
X6028Y2108D02*
X6038D01*
X6048Y2118*
X6058Y2108*
X6068*
Y2118*
X6058Y2128*
X6068Y2138*
Y2148*
X6058*
X6048Y2138*
X6038Y2148*
X6028*
Y2138*
X6038Y2128*
X6028Y2118*
Y2108*
X6036Y2116D02*
X6042D01*
X6048Y2122*
X6054Y2116*
X6060*
Y2122*
X6054Y2128*
X6060Y2134*
Y2140*
X6054*
X6048Y2134*
X6042Y2140*
X6036*
Y2134*
X6042Y2128*
X6036Y2122*
Y2116*
X4870Y1700D02*
X4880D01*
X4890Y1710*
X4900Y1700*
X4910*
Y1710*
X4900Y1720*
X4910Y1730*
Y1740*
X4900*
X4890Y1730*
X4880Y1740*
X4870*
Y1730*
X4880Y1720*
X4870Y1710*
Y1700*
X4878Y1708D02*
X4884D01*
X4890Y1714*
X4896Y1708*
X4902*
Y1714*
X4896Y1720*
X4902Y1726*
Y1732*
X4896*
X4890Y1726*
X4884Y1732*
X4878*
Y1726*
X4884Y1720*
X4878Y1714*
Y1708*
X4800Y1700D02*
X4810D01*
X4820Y1710*
X4830Y1700*
X4840*
Y1710*
X4830Y1720*
X4840Y1730*
Y1740*
X4830*
X4820Y1730*
X4810Y1740*
X4800*
Y1730*
X4810Y1720*
X4800Y1710*
Y1700*
X4808Y1708D02*
X4814D01*
X4820Y1714*
X4826Y1708*
X4832*
Y1714*
X4826Y1720*
X4832Y1726*
Y1732*
X4826*
X4820Y1726*
X4814Y1732*
X4808*
Y1726*
X4814Y1720*
X4808Y1714*
Y1708*
X4621Y1598D02*
X4631D01*
X4641Y1608*
X4651Y1598*
X4661*
Y1608*
X4651Y1618*
X4661Y1628*
Y1638*
X4651*
X4641Y1628*
X4631Y1638*
X4621*
Y1628*
X4631Y1618*
X4621Y1608*
Y1598*
X4629Y1606D02*
X4635D01*
X4641Y1612*
X4647Y1606*
X4653*
Y1612*
X4647Y1618*
X4653Y1624*
Y1630*
X4647*
X4641Y1624*
X4635Y1630*
X4629*
Y1624*
X4635Y1618*
X4629Y1612*
Y1606*
X4562Y1512D02*
X4572D01*
X4582Y1522*
X4592Y1512*
X4602*
Y1522*
X4592Y1532*
X4602Y1542*
Y1552*
X4592*
X4582Y1542*
X4572Y1552*
X4562*
Y1542*
X4572Y1532*
X4562Y1522*
Y1512*
X4570Y1520D02*
X4576D01*
X4582Y1526*
X4588Y1520*
X4594*
Y1526*
X4588Y1532*
X4594Y1538*
Y1544*
X4588*
X4582Y1538*
X4576Y1544*
X4570*
Y1538*
X4576Y1532*
X4570Y1526*
Y1520*
X4690Y1370D02*
X4700D01*
X4710Y1380*
X4720Y1370*
X4730*
Y1380*
X4720Y1390*
X4730Y1400*
Y1410*
X4720*
X4710Y1400*
X4700Y1410*
X4690*
Y1400*
X4700Y1390*
X4690Y1380*
Y1370*
X4698Y1378D02*
X4704D01*
X4710Y1384*
X4716Y1378*
X4722*
Y1384*
X4716Y1390*
X4722Y1396*
Y1402*
X4716*
X4710Y1396*
X4704Y1402*
X4698*
Y1396*
X4704Y1390*
X4698Y1384*
Y1378*
X5670Y3060D02*
X5680D01*
X5690Y3070*
X5700Y3060*
X5710*
Y3070*
X5700Y3080*
X5710Y3090*
Y3100*
X5700*
X5690Y3090*
X5680Y3100*
X5670*
Y3090*
X5680Y3080*
X5670Y3070*
Y3060*
X5678Y3068D02*
X5684D01*
X5690Y3074*
X5696Y3068*
X5702*
Y3074*
X5696Y3080*
X5702Y3086*
Y3092*
X5696*
X5690Y3086*
X5684Y3092*
X5678*
Y3086*
X5684Y3080*
X5678Y3074*
Y3068*
X4690Y1730D02*
X4700D01*
X4710Y1740*
X4720Y1730*
X4730*
Y1740*
X4720Y1750*
X4730Y1760*
Y1770*
X4720*
X4710Y1760*
X4700Y1770*
X4690*
Y1760*
X4700Y1750*
X4690Y1740*
Y1730*
X4698Y1738D02*
X4704D01*
X4710Y1744*
X4716Y1738*
X4722*
Y1744*
X4716Y1750*
X4722Y1756*
Y1762*
X4716*
X4710Y1756*
X4704Y1762*
X4698*
Y1756*
X4704Y1750*
X4698Y1744*
Y1738*
X4930Y1420D02*
X4940D01*
X4950Y1430*
X4960Y1420*
X4970*
Y1430*
X4960Y1440*
X4970Y1450*
Y1460*
X4960*
X4950Y1450*
X4940Y1460*
X4930*
Y1450*
X4940Y1440*
X4930Y1430*
Y1420*
X4938Y1428D02*
X4944D01*
X4950Y1434*
X4956Y1428*
X4962*
Y1434*
X4956Y1440*
X4962Y1446*
Y1452*
X4956*
X4950Y1446*
X4944Y1452*
X4938*
Y1446*
X4944Y1440*
X4938Y1434*
Y1428*
X2120Y2240D02*
Y2273D01*
X2136Y2289*
X2153Y2273*
Y2240*
Y2264*
X2120*
X6150Y2040D02*
X6160D01*
X6170Y2050*
X6180Y2040*
X6190*
Y2050*
X6180Y2060*
X6190Y2070*
Y2080*
X6180*
X6170Y2070*
X6160Y2080*
X6150*
Y2070*
X6160Y2060*
X6150Y2050*
Y2040*
X6158Y2048D02*
X6164D01*
X6170Y2054*
X6176Y2048*
X6182*
Y2054*
X6176Y2060*
X6182Y2066*
Y2072*
X6176*
X6170Y2066*
X6164Y2072*
X6158*
Y2066*
X6164Y2060*
X6158Y2054*
Y2048*
X6146Y1893D02*
X6156D01*
X6166Y1903*
X6176Y1893*
X6186*
Y1903*
X6176Y1913*
X6186Y1923*
Y1933*
X6176*
X6166Y1923*
X6156Y1933*
X6146*
Y1923*
X6156Y1913*
X6146Y1903*
Y1893*
X6154Y1901D02*
X6160D01*
X6166Y1907*
X6172Y1901*
X6178*
Y1907*
X6172Y1913*
X6178Y1919*
Y1925*
X6172*
X6166Y1919*
X6160Y1925*
X6154*
Y1919*
X6160Y1913*
X6154Y1907*
Y1901*
X4060Y3830D02*
X4070D01*
X4080Y3840*
X4090Y3830*
X4100*
Y3840*
X4090Y3850*
X4100Y3860*
Y3870*
X4090*
X4080Y3860*
X4070Y3870*
X4060*
Y3860*
X4070Y3850*
X4060Y3840*
Y3830*
X4068Y3838D02*
X4074D01*
X4080Y3844*
X4086Y3838*
X4092*
Y3844*
X4086Y3850*
X4092Y3856*
Y3862*
X4086*
X4080Y3856*
X4074Y3862*
X4068*
Y3856*
X4074Y3850*
X4068Y3844*
Y3838*
X6030Y3609D02*
Y3560D01*
X6054*
X6063Y3568*
Y3576*
X6054Y3584*
X6030*
X6054*
X6063Y3593*
Y3601*
X6054Y3609*
X6030*
X5420Y3279D02*
Y3230D01*
X5444*
X5453Y3238*
Y3246*
X5444Y3254*
X5420*
X5444*
X5453Y3263*
Y3271*
X5444Y3279*
X5420*
X5310Y3309D02*
Y3260D01*
X5334*
X5343Y3268*
Y3276*
X5334Y3284*
X5310*
X5334*
X5343Y3293*
Y3301*
X5334Y3309*
X5310*
X6000Y3040D02*
X6010D01*
X6020Y3050*
X6030Y3040*
X6040*
Y3050*
X6030Y3060*
X6040Y3070*
Y3080*
X6030*
X6020Y3070*
X6010Y3080*
X6000*
Y3070*
X6010Y3060*
X6000Y3050*
Y3040*
X6008Y3048D02*
X6014D01*
X6020Y3054*
X6026Y3048*
X6032*
Y3054*
X6026Y3060*
X6032Y3066*
Y3072*
X6026*
X6020Y3066*
X6014Y3072*
X6008*
Y3066*
X6014Y3060*
X6008Y3054*
Y3048*
X5990Y3130D02*
X6000D01*
X6010Y3140*
X6020Y3130*
X6030*
Y3140*
X6020Y3150*
X6030Y3160*
Y3170*
X6020*
X6010Y3160*
X6000Y3170*
X5990*
Y3160*
X6000Y3150*
X5990Y3140*
Y3130*
X5998Y3138D02*
X6004D01*
X6010Y3144*
X6016Y3138*
X6022*
Y3144*
X6016Y3150*
X6022Y3156*
Y3162*
X6016*
X6010Y3156*
X6004Y3162*
X5998*
Y3156*
X6004Y3150*
X5998Y3144*
Y3138*
X6140Y2550D02*
X6150D01*
X6160Y2560*
X6170Y2550*
X6180*
Y2560*
X6170Y2570*
X6180Y2580*
Y2590*
X6170*
X6160Y2580*
X6150Y2590*
X6140*
Y2580*
X6150Y2570*
X6140Y2560*
Y2550*
X6148Y2558D02*
X6154D01*
X6160Y2564*
X6166Y2558*
X6172*
Y2564*
X6166Y2570*
X6172Y2576*
Y2582*
X6166*
X6160Y2576*
X6154Y2582*
X6148*
Y2576*
X6154Y2570*
X6148Y2564*
Y2558*
X4687Y2337D02*
Y2370D01*
X4703Y2387*
X4720Y2370*
Y2337*
Y2362*
X4687*
X5180Y3060D02*
X5190D01*
X5200Y3070*
X5210Y3060*
X5220*
Y3070*
X5210Y3080*
X5220Y3090*
Y3100*
X5210*
X5200Y3090*
X5190Y3100*
X5180*
Y3090*
X5190Y3080*
X5180Y3070*
Y3060*
X5188Y3068D02*
X5194D01*
X5200Y3074*
X5206Y3068*
X5212*
Y3074*
X5206Y3080*
X5212Y3086*
Y3092*
X5206*
X5200Y3086*
X5194Y3092*
X5188*
Y3086*
X5194Y3080*
X5188Y3074*
Y3068*
X5210Y3180D02*
X5220D01*
X5230Y3190*
X5240Y3180*
X5250*
Y3190*
X5240Y3200*
X5250Y3210*
Y3220*
X5240*
X5230Y3210*
X5220Y3220*
X5210*
Y3210*
X5220Y3200*
X5210Y3190*
Y3180*
X5218Y3188D02*
X5224D01*
X5230Y3194*
X5236Y3188*
X5242*
Y3194*
X5236Y3200*
X5242Y3206*
Y3212*
X5236*
X5230Y3206*
X5224Y3212*
X5218*
Y3206*
X5224Y3200*
X5218Y3194*
Y3188*
X4970Y3390D02*
X4980D01*
X4990Y3400*
X5000Y3390*
X5010*
Y3400*
X5000Y3410*
X5010Y3420*
Y3430*
X5000*
X4990Y3420*
X4980Y3430*
X4970*
Y3420*
X4980Y3410*
X4970Y3400*
Y3390*
X4978Y3398D02*
X4984D01*
X4990Y3404*
X4996Y3398*
X5002*
Y3404*
X4996Y3410*
X5002Y3416*
Y3422*
X4996*
X4990Y3416*
X4984Y3422*
X4978*
Y3416*
X4984Y3410*
X4978Y3404*
Y3398*
X4670Y3500D02*
X4680D01*
X4690Y3510*
X4700Y3500*
X4710*
Y3510*
X4700Y3520*
X4710Y3530*
Y3540*
X4700*
X4690Y3530*
X4680Y3540*
X4670*
Y3530*
X4680Y3520*
X4670Y3510*
Y3500*
X4678Y3508D02*
X4684D01*
X4690Y3514*
X4696Y3508*
X4702*
Y3514*
X4696Y3520*
X4702Y3526*
Y3532*
X4696*
X4690Y3526*
X4684Y3532*
X4678*
Y3526*
X4684Y3520*
X4678Y3514*
Y3508*
X4160Y4640D02*
X4170D01*
X4180Y4650*
X4190Y4640*
X4200*
Y4650*
X4190Y4660*
X4200Y4670*
Y4680*
X4190*
X4180Y4670*
X4170Y4680*
X4160*
Y4670*
X4170Y4660*
X4160Y4650*
Y4640*
X4168Y4648D02*
X4174D01*
X4180Y4654*
X4186Y4648*
X4192*
Y4654*
X4186Y4660*
X4192Y4666*
Y4672*
X4186*
X4180Y4666*
X4174Y4672*
X4168*
Y4666*
X4174Y4660*
X4168Y4654*
Y4648*
X5740Y3730D02*
X5750D01*
X5760Y3740*
X5770Y3730*
X5780*
Y3740*
X5770Y3750*
X5780Y3760*
Y3770*
X5770*
X5760Y3760*
X5750Y3770*
X5740*
Y3760*
X5750Y3750*
X5740Y3740*
Y3730*
X5748Y3738D02*
X5754D01*
X5760Y3744*
X5766Y3738*
X5772*
Y3744*
X5766Y3750*
X5772Y3756*
Y3762*
X5766*
X5760Y3756*
X5754Y3762*
X5748*
Y3756*
X5754Y3750*
X5748Y3744*
Y3738*
X5740Y3650D02*
X5750D01*
X5760Y3660*
X5770Y3650*
X5780*
Y3660*
X5770Y3670*
X5780Y3680*
Y3690*
X5770*
X5760Y3680*
X5750Y3690*
X5740*
Y3680*
X5750Y3670*
X5740Y3660*
Y3650*
X5748Y3658D02*
X5754D01*
X5760Y3664*
X5766Y3658*
X5772*
Y3664*
X5766Y3670*
X5772Y3676*
Y3682*
X5766*
X5760Y3676*
X5754Y3682*
X5748*
Y3676*
X5754Y3670*
X5748Y3664*
Y3658*
X5921Y4871D02*
X5931D01*
X5941Y4881*
X5951Y4871*
X5961*
Y4881*
X5951Y4891*
X5961Y4901*
Y4911*
X5951*
X5941Y4901*
X5931Y4911*
X5921*
Y4901*
X5931Y4891*
X5921Y4881*
Y4871*
X5929Y4879D02*
X5935D01*
X5941Y4885*
X5947Y4879*
X5953*
Y4885*
X5947Y4891*
X5953Y4897*
Y4903*
X5947*
X5941Y4897*
X5935Y4903*
X5929*
Y4897*
X5935Y4891*
X5929Y4885*
Y4879*
X6290Y3880D02*
X6300D01*
X6310Y3890*
X6320Y3880*
X6330*
Y3890*
X6320Y3900*
X6330Y3910*
Y3920*
X6320*
X6310Y3910*
X6300Y3920*
X6290*
Y3910*
X6300Y3900*
X6290Y3890*
Y3880*
X6298Y3888D02*
X6304D01*
X6310Y3894*
X6316Y3888*
X6322*
Y3894*
X6316Y3900*
X6322Y3906*
Y3912*
X6316*
X6310Y3906*
X6304Y3912*
X6298*
Y3906*
X6304Y3900*
X6298Y3894*
Y3888*
X6773Y3443D02*
X6783D01*
X6793Y3453*
X6803Y3443*
X6813*
Y3453*
X6803Y3463*
X6813Y3473*
Y3483*
X6803*
X6793Y3473*
X6783Y3483*
X6773*
Y3473*
X6783Y3463*
X6773Y3453*
Y3443*
X6781Y3451D02*
X6787D01*
X6793Y3457*
X6799Y3451*
X6805*
Y3457*
X6799Y3463*
X6805Y3469*
Y3475*
X6799*
X6793Y3469*
X6787Y3475*
X6781*
Y3469*
X6787Y3463*
X6781Y3457*
Y3451*
X6400Y2950D02*
X6410D01*
X6420Y2960*
X6430Y2950*
X6440*
Y2960*
X6430Y2970*
X6440Y2980*
Y2990*
X6430*
X6420Y2980*
X6410Y2990*
X6400*
Y2980*
X6410Y2970*
X6400Y2960*
Y2950*
X6408Y2958D02*
X6414D01*
X6420Y2964*
X6426Y2958*
X6432*
Y2964*
X6426Y2970*
X6432Y2976*
Y2982*
X6426*
X6420Y2976*
X6414Y2982*
X6408*
Y2976*
X6414Y2970*
X6408Y2964*
Y2958*
X6773Y2906D02*
X6783D01*
X6793Y2916*
X6803Y2906*
X6813*
Y2916*
X6803Y2926*
X6813Y2936*
Y2946*
X6803*
X6793Y2936*
X6783Y2946*
X6773*
Y2936*
X6783Y2926*
X6773Y2916*
Y2906*
X6781Y2914D02*
X6787D01*
X6793Y2920*
X6799Y2914*
X6805*
Y2920*
X6799Y2926*
X6805Y2932*
Y2938*
X6799*
X6793Y2932*
X6787Y2938*
X6781*
Y2932*
X6787Y2926*
X6781Y2920*
Y2914*
X6840Y2150D02*
X6850D01*
X6860Y2160*
X6870Y2150*
X6880*
Y2160*
X6870Y2170*
X6880Y2180*
Y2190*
X6870*
X6860Y2180*
X6850Y2190*
X6840*
Y2180*
X6850Y2170*
X6840Y2160*
Y2150*
X6848Y2158D02*
X6854D01*
X6860Y2164*
X6866Y2158*
X6872*
Y2164*
X6866Y2170*
X6872Y2176*
Y2182*
X6866*
X6860Y2176*
X6854Y2182*
X6848*
Y2176*
X6854Y2170*
X6848Y2164*
Y2158*
X6460Y1900D02*
X6470D01*
X6480Y1910*
X6490Y1900*
X6500*
Y1910*
X6490Y1920*
X6500Y1930*
Y1940*
X6490*
X6480Y1930*
X6470Y1940*
X6460*
Y1930*
X6470Y1920*
X6460Y1910*
Y1900*
X6468Y1908D02*
X6474D01*
X6480Y1914*
X6486Y1908*
X6492*
Y1914*
X6486Y1920*
X6492Y1926*
Y1932*
X6486*
X6480Y1926*
X6474Y1932*
X6468*
Y1926*
X6474Y1920*
X6468Y1914*
Y1908*
X1580Y1420D02*
X1590D01*
X1600Y1430*
X1610Y1420*
X1620*
Y1430*
X1610Y1440*
X1620Y1450*
Y1460*
X1610*
X1600Y1450*
X1590Y1460*
X1580*
Y1450*
X1590Y1440*
X1580Y1430*
Y1420*
X1588Y1428D02*
X1594D01*
X1600Y1434*
X1606Y1428*
X1612*
Y1434*
X1606Y1440*
X1612Y1446*
Y1452*
X1606*
X1600Y1446*
X1594Y1452*
X1588*
Y1446*
X1594Y1440*
X1588Y1434*
Y1428*
X1360Y1660D02*
X1370D01*
X1380Y1670*
X1390Y1660*
X1400*
Y1670*
X1390Y1680*
X1400Y1690*
Y1700*
X1390*
X1380Y1690*
X1370Y1700*
X1360*
Y1690*
X1370Y1680*
X1360Y1670*
Y1660*
X1368Y1668D02*
X1374D01*
X1380Y1674*
X1386Y1668*
X1392*
Y1674*
X1386Y1680*
X1392Y1686*
Y1692*
X1386*
X1380Y1686*
X1374Y1692*
X1368*
Y1686*
X1374Y1680*
X1368Y1674*
Y1668*
X1241Y2378D02*
Y2411D01*
X1258Y2428*
X1274Y2411*
Y2378*
Y2403*
X1241*
X1680Y2310D02*
X1690D01*
X1700Y2320*
X1710Y2310*
X1720*
Y2320*
X1710Y2330*
X1720Y2340*
Y2350*
X1710*
X1700Y2340*
X1690Y2350*
X1680*
Y2340*
X1690Y2330*
X1680Y2320*
Y2310*
X1688Y2318D02*
X1694D01*
X1700Y2324*
X1706Y2318*
X1712*
Y2324*
X1706Y2330*
X1712Y2336*
Y2342*
X1706*
X1700Y2336*
X1694Y2342*
X1688*
Y2336*
X1694Y2330*
X1688Y2324*
Y2318*
X1690Y2560D02*
Y2593D01*
X1706Y2609*
X1723Y2593*
Y2560*
Y2584*
X1690*
X1970Y3130D02*
Y3163D01*
X1986Y3179*
X2003Y3163*
Y3130*
Y3154*
X1970*
X2090Y4090D02*
X2100D01*
X2110Y4100*
X2120Y4090*
X2130*
Y4100*
X2120Y4110*
X2130Y4120*
Y4130*
X2120*
X2110Y4120*
X2100Y4130*
X2090*
Y4120*
X2100Y4110*
X2090Y4100*
Y4090*
X2098Y4098D02*
X2104D01*
X2110Y4104*
X2116Y4098*
X2122*
Y4104*
X2116Y4110*
X2122Y4116*
Y4122*
X2116*
X2110Y4116*
X2104Y4122*
X2098*
Y4116*
X2104Y4110*
X2098Y4104*
Y4098*
X1750Y4670D02*
Y4703D01*
X1766Y4719*
X1783Y4703*
Y4670*
Y4694*
X1750*
X6260Y2809D02*
Y2760D01*
X6284*
X6293Y2768*
Y2776*
X6284Y2784*
X6260*
X6284*
X6293Y2793*
Y2801*
X6284Y2809*
X6260*
X5540Y2969D02*
Y2920D01*
X5565*
X5574Y2928*
Y2936*
X5565Y2944*
X5540*
X5565*
X5574Y2953*
Y2961*
X5565Y2969*
X5540*
X5901Y2721D02*
Y2671D01*
X5926*
X5934Y2679*
Y2687*
X5926Y2696*
X5901*
X5926*
X5934Y2704*
Y2712*
X5926Y2721*
X5901*
X6534Y2244D02*
Y2194D01*
X6559*
X6567Y2203*
Y2211*
X6559Y2219*
X6534*
X6559*
X6567Y2228*
Y2236*
X6559Y2244*
X6534*
X6016Y2957D02*
Y2907D01*
X6041*
X6049Y2916*
Y2924*
X6041Y2932*
X6016*
X6041*
X6049Y2941*
Y2949*
X6041Y2957*
X6016*
X5280Y2999D02*
Y2950D01*
X5304*
X5313Y2958*
Y2966*
X5304Y2974*
X5280*
X5304*
X5313Y2983*
Y2991*
X5304Y2999*
X5280*
X5995Y4004D02*
Y3955D01*
X6019*
X6028Y3963*
Y3971*
X6019Y3979*
X5995*
X6019*
X6028Y3988*
Y3996*
X6019Y4004*
X5995*
X5990Y4590D02*
X6000Y4610D01*
X5990Y4630*
X6010Y4620*
X6030Y4630*
X6020Y4610*
X6030Y4590*
X6010Y4600*
X5990Y4590*
X5998Y4598D02*
X6004Y4610D01*
X5998Y4622*
X6010Y4616*
X6022Y4622*
X6016Y4610*
X6022Y4598*
X6010Y4604*
X5998Y4598*
G54D116*
X4030Y3750D02*
D01*
D01*
G75*
G03X3990I-20J0D01*
G74*G01*
D01*
G75*
G03X4030I20J0D01*
G74*G01*
X3869D02*
D01*
D01*
G75*
G03X3829I-20J0D01*
G74*G01*
D01*
G75*
G03X3869I20J0D01*
G74*G01*
X1741Y3969D02*
D01*
D01*
G75*
G03X1701I-20J0D01*
G74*G01*
D01*
G75*
G03X1741I20J0D01*
G74*G01*
Y3870D02*
D01*
D01*
G75*
G03X1701I-20J0D01*
G74*G01*
D01*
G75*
G03X1741I20J0D01*
G74*G01*
X1951Y3969D02*
D01*
D01*
G75*
G03X1911I-20J0D01*
G74*G01*
D01*
G75*
G03X1951I20J0D01*
G74*G01*
Y3870D02*
D01*
D01*
G75*
G03X1911I-20J0D01*
G74*G01*
D01*
G75*
G03X1951I20J0D01*
G74*G01*
G54D117*
X1733Y3969D02*
D01*
D01*
G75*
G03X1709I-12J0D01*
G74*G01*
D01*
G75*
G03X1733I12J0D01*
G74*G01*
Y3870D02*
D01*
D01*
G75*
G03X1709I-12J0D01*
G74*G01*
D01*
G75*
G03X1733I12J0D01*
G74*G01*
X1943Y3969D02*
D01*
D01*
G75*
G03X1919I-12J0D01*
G74*G01*
D01*
G75*
G03X1943I12J0D01*
G74*G01*
Y3870D02*
D01*
D01*
G75*
G03X1919I-12J0D01*
G74*G01*
D01*
G75*
G03X1943I12J0D01*
G74*G01*
M02*