%FSLAX23Y23*%
%MOIN*%
%SFA1B1*%

%IPPOS*%
%AMD33*
4,1,8,-0.011800,0.036900,-0.011800,-0.036900,0.000000,-0.048800,0.000000,-0.048800,0.011800,-0.036900,0.011800,0.036900,0.000000,0.048800,0.000000,0.048800,-0.011800,0.036900,0.0*
1,1,0.023680,0.000000,0.036900*
1,1,0.023680,0.000000,-0.036900*
1,1,0.023680,0.000000,-0.036900*
1,1,0.023680,0.000000,0.036900*
%
%AMD44*
4,1,8,0.012100,0.007700,-0.012100,0.007700,-0.019800,0.000000,-0.019800,0.000000,-0.012100,-0.007700,0.012100,-0.007700,0.019800,0.000000,0.019800,0.000000,0.012100,0.007700,0.0*
1,1,0.015460,0.012100,0.000000*
1,1,0.015460,-0.012100,0.000000*
1,1,0.015460,-0.012100,0.000000*
1,1,0.015460,0.012100,0.000000*
%
%AMD62*
4,1,8,-0.009800,-0.023700,0.009800,-0.023700,0.015800,-0.017700,0.015800,0.017700,0.009800,0.023700,-0.009800,0.023700,-0.015800,0.017700,-0.015800,-0.017700,-0.009800,-0.023700,0.0*
1,1,0.012020,-0.009800,-0.017700*
1,1,0.012020,0.009800,-0.017700*
1,1,0.012020,0.009800,0.017700*
1,1,0.012020,-0.009800,0.017700*
%
%AMD68*
4,1,8,-0.009800,-0.032500,0.009800,-0.032500,0.015800,-0.026500,0.015800,0.026500,0.009800,0.032500,-0.009800,0.032500,-0.015800,0.026500,-0.015800,-0.026500,-0.009800,-0.032500,0.0*
1,1,0.012020,-0.009800,-0.026500*
1,1,0.012020,0.009800,-0.026500*
1,1,0.012020,0.009800,0.026500*
1,1,0.012020,-0.009800,0.026500*
%
%AMD69*
4,1,8,-0.006900,-0.026600,0.006900,-0.026600,0.012900,-0.020700,0.012900,0.020700,0.006900,0.026600,-0.006900,0.026600,-0.012900,0.020700,-0.012900,-0.020700,-0.006900,-0.026600,0.0*
1,1,0.011900,-0.006900,-0.020700*
1,1,0.011900,0.006900,-0.020700*
1,1,0.011900,0.006900,0.020700*
1,1,0.011900,-0.006900,0.020700*
%
%AMD74*
4,1,8,-0.026300,-0.012100,0.026300,-0.012100,0.032300,-0.006000,0.032300,0.006000,0.026300,0.012100,-0.026300,0.012100,-0.032300,0.006000,-0.032300,-0.006000,-0.026300,-0.012100,0.0*
1,1,0.012040,-0.026300,-0.006000*
1,1,0.012040,0.026300,-0.006000*
1,1,0.012040,0.026300,0.006000*
1,1,0.012040,-0.026300,0.006000*
%
%ADD17R,0.051360X0.057330*%
%ADD18R,0.057330X0.051360*%
%ADD19R,0.066930X0.059060*%
%ADD21R,0.157480X0.062990*%
%ADD23R,0.062990X0.125980*%
%ADD24R,0.047490X0.037650*%
%ADD25R,0.085830X0.063780*%
%ADD26R,0.086610X0.098430*%
%ADD31R,0.077950X0.020870*%
%ADD32R,0.023670X0.097520*%
G04~CAMADD=33~8~0.0~0.0~975.2~236.7~118.4~0.0~15~0.0~0.0~0.0~0.0~0~0.0~0.0~0.0~0.0~0~0.0~0.0~0.0~90.0~238.0~975.0*
%ADD33D33*%
%ADD34R,0.037400X0.084650*%
%ADD35R,0.127950X0.084650*%
%ADD40R,0.255910X0.102360*%
%ADD41R,0.255910X0.098430*%
%ADD42R,0.161420X0.078740*%
%ADD43R,0.039590X0.015450*%
G04~CAMADD=44~8~0.0~0.0~395.9~154.5~77.3~0.0~15~0.0~0.0~0.0~0.0~0~0.0~0.0~0.0~0.0~0~0.0~0.0~0.0~0.0~395.9~154.5*
%ADD44D44*%
%ADD45R,0.059060X0.094490*%
%ADD46R,0.059060X0.041340*%
%ADD47R,0.016140X0.032280*%
%ADD48C,0.143890*%
%ADD53R,0.125980X0.062990*%
%ADD54R,0.032280X0.016140*%
%ADD55R,0.078740X0.161420*%
%ADD60R,0.098430X0.086610*%
%ADD61R,0.062990X0.157480*%
G04~CAMADD=62~8~0.0~0.0~316.2~473.7~60.1~0.0~15~0.0~0.0~0.0~0.0~0~0.0~0.0~0.0~0.0~0~0.0~0.0~0.0~180.0~317.0~474.0*
%ADD62D62*%
%ADD63R,0.051310X0.061150*%
%ADD64R,0.055240X0.055240*%
%ADD65R,0.338710X0.405640*%
%ADD66R,0.159580X0.045400*%
%ADD67R,0.043430X0.039500*%
G04~CAMADD=68~8~0.0~0.0~316.2~650.9~60.1~0.0~15~0.0~0.0~0.0~0.0~0~0.0~0.0~0.0~0.0~0~0.0~0.0~0.0~180.0~316.0~650.0*
%ADD68D68*%
G04~CAMADD=69~8~0.0~0.0~257.2~532.8~59.5~0.0~15~0.0~0.0~0.0~0.0~0~0.0~0.0~0.0~0.0~0~0.0~0.0~0.0~180.0~258.0~533.0*
%ADD69D69*%
%ADD70O,0.031620X0.084770*%
%ADD71O,0.084770X0.031620*%
%ADD72R,0.051310X0.072960*%
%ADD73R,0.061150X0.041470*%
G04~CAMADD=74~8~0.0~0.0~646.9~241.4~60.2~0.0~15~0.0~0.0~0.0~0.0~0~0.0~0.0~0.0~0.0~0~0.0~0.0~0.0~180.0~648.0~242.0*
%ADD74D74*%
%ADD75R,0.126110X0.173350*%
%ADD76R,0.041470X0.061150*%
%ADD77R,0.055240X0.055240*%
%ADD78R,0.039500X0.043430*%
%ADD79R,0.045400X0.159580*%
%ADD80R,0.405640X0.338710*%
%ADD81R,0.078870X0.078870*%
%ADD82C,0.078870*%
%ADD83R,0.055120X0.055120*%
%ADD84C,0.055120*%
%ADD85R,0.061810X0.061810*%
%ADD86C,0.061810*%
%ADD87C,0.072960*%
%ADD88R,0.072960X0.072960*%
%ADD89C,0.096580*%
%ADD90C,0.067060*%
%ADD91C,0.204850*%
%ADD92R,0.053980X0.053980*%
%ADD93C,0.053980*%
%ADD94C,0.126110*%
%LNpcb1-1*%
%LPD*%
G36*
X2542Y3769D02*
X2569D01*
Y3690*
Y3610*
X2542*
Y3586*
X2517*
Y3610*
X2427*
Y3591*
X2406*
Y3788*
X2427*
Y3769*
X2517*
Y3793*
X2542*
Y3769*
G37*
G36*
X2948Y3782D02*
X2929D01*
Y3692*
X2953*
Y3667*
X2929*
Y3640*
X2770*
Y3667*
X2746*
Y3692*
X2770*
Y3782*
X2751*
Y3803*
X2948*
Y3782*
G37*
G54D17*
X3101Y4000D03*
X3038D03*
X3478Y4090D03*
X3541D03*
X3478Y4520D03*
X3541D03*
X3478Y4430D03*
X3541D03*
X3478Y4350D03*
X3541D03*
X3478Y4260D03*
X3541D03*
X3478Y4180D03*
X3541D03*
X3766Y4710D03*
X3830D03*
X2491Y3890D03*
X2428D03*
X3196Y4070D03*
X3260D03*
X5891Y2260D03*
X5828D03*
X6298Y4200D03*
X6361D03*
X6140D03*
X6203D03*
X5801Y1860D03*
X5738D03*
G54D18*
X3860Y4381D03*
Y4318D03*
X3040Y3584D03*
Y3648D03*
X2570Y3383D03*
Y3320D03*
X5690Y2188D03*
Y2251D03*
Y2531D03*
Y2468D03*
X1620Y2668D03*
Y2731D03*
Y2911D03*
Y2848D03*
G54D19*
X5810Y2446D03*
X5910Y2360D03*
X5810D03*
X5910Y2446D03*
G54D21*
X1277Y1890D03*
X1522D03*
G54D23*
X2180Y1588D03*
Y1391D03*
G54D24*
X5080Y2700D03*
Y2619D03*
X5600Y2179D03*
Y2260D03*
X5610Y2540D03*
Y2459D03*
G54D25*
X6360Y2996D03*
Y3163D03*
Y2883D03*
Y2716D03*
X6020Y1903D03*
Y1736D03*
Y1633D03*
Y1466D03*
G54D26*
X5720Y4627D03*
Y4812D03*
G54D31*
X5642Y1765D03*
Y1715D03*
Y1665D03*
Y1615D03*
X5837D03*
Y1665D03*
Y1715D03*
Y1765D03*
G54D32*
X1715Y2285D03*
G54D33*
X1765Y2285D03*
X1815D03*
X1865D03*
Y2475D03*
X1815D03*
X1765D03*
X1715D03*
G54D34*
X1940Y1624D03*
X1850D03*
X1759D03*
G54D35*
X1850Y1395D03*
G54D40*
X4753Y4490D03*
X4743Y3720D03*
G54D41*
X5246Y4490D03*
X5236Y3720D03*
G54D42*
X2621Y4160D03*
X2278D03*
X2622Y4590D03*
X2280D03*
X4441Y3600D03*
X4098D03*
X4441Y4040D03*
X4098D03*
G54D43*
X3180Y3970D03*
G54D44*
X3259Y3970D03*
G54D45*
X3150Y3710D03*
G54D46*
X3150Y3616D03*
G54D47*
X2775Y3573D03*
X2825D03*
X2875D03*
X2925D03*
G54D48*
X2850Y3721D03*
X2488Y3690D03*
G54D53*
X1936Y1890D03*
X1740D03*
X1293Y2310D03*
X1490D03*
X1661Y3330D03*
X1858D03*
G54D54*
X2636Y3615D03*
Y3665D03*
Y3715D03*
Y3765D03*
G54D55*
X4540Y2868D03*
Y3211D03*
G54D60*
X1664Y3620D03*
X1850D03*
X1667Y3820D03*
X1852D03*
G54D61*
X1800Y4250D03*
Y4494D03*
G54D62*
X3932Y4684D03*
X4007D03*
Y4575D03*
X3970D03*
X3932D03*
G54D63*
X1867Y2600D03*
X1812D03*
X1837Y2160D03*
X1782D03*
G54D64*
X1328Y1610D03*
X1411D03*
X5121Y2860D03*
X5038D03*
X1328Y1470D03*
X1411D03*
X1328Y1540D03*
X1411D03*
X1328Y1400D03*
X1411D03*
G54D65*
X3678Y1310D03*
G54D66*
X4070Y1210D03*
Y1410D03*
G54D67*
X4290Y1300D03*
X4369Y1262D03*
Y1337D03*
G54D68*
X6165Y3882D03*
X6215D03*
X6265D03*
X6315D03*
X6165Y4097D03*
X6215D03*
X6265D03*
X6315D03*
G54D69*
X2736Y3427D03*
X2711D03*
X2685D03*
X2660D03*
X2711Y3260D03*
X2685D03*
X2660D03*
X2736D03*
G54D70*
X5219Y2606D03*
X5440Y2273D03*
X5251Y2606D03*
X5440D03*
X5408D03*
X5377D03*
X5345D03*
X5314D03*
X5282D03*
X5219Y2273D03*
X5251D03*
X5282D03*
X5314D03*
X5345D03*
X5377D03*
X5408D03*
G54D71*
X5496Y2329D03*
Y2361D03*
Y2392D03*
Y2424D03*
Y2455D03*
Y2487D03*
Y2518D03*
Y2550D03*
X5163D03*
Y2518D03*
Y2487D03*
Y2455D03*
Y2424D03*
Y2392D03*
Y2361D03*
Y2329D03*
G54D72*
X3900Y3960D03*
X3787D03*
X6216Y4460D03*
X6103D03*
G54D73*
X3470Y4012D03*
Y3947D03*
X3940Y4317D03*
Y4382D03*
X4010Y4814D03*
Y4750D03*
X3860Y4567D03*
Y4632D03*
X3780Y4512D03*
Y4447D03*
X4050Y4492D03*
Y4427D03*
X3610Y4422D03*
Y4357D03*
X3380Y4007D03*
Y4072D03*
X3860Y4512D03*
Y4447D03*
X3040Y3714D03*
Y3779D03*
X4450Y1267D03*
Y1332D03*
X4540Y1267D03*
Y1332D03*
X2810Y3362D03*
Y3297D03*
X6020Y2367D03*
Y2432D03*
X6180Y1712D03*
Y1647D03*
X5590Y4852D03*
Y4787D03*
X1950Y2412D03*
Y2347D03*
X4210Y1207D03*
Y1272D03*
Y1347D03*
Y1412D03*
X6180Y1582D03*
Y1517D03*
Y1832D03*
Y1767D03*
X6210Y2782D03*
Y2717D03*
X2890Y1400D03*
Y1335D03*
X6210Y4352D03*
Y4287D03*
Y2837D03*
Y2902D03*
Y2997D03*
Y3062D03*
X6120Y4352D03*
Y4287D03*
G54D74*
X3290Y4152D03*
Y4177D03*
Y4203D03*
Y4228D03*
Y4254D03*
Y4280D03*
Y4305D03*
Y4331D03*
Y4356D03*
Y4382D03*
X3062D03*
Y4356D03*
Y4331D03*
Y4305D03*
Y4280D03*
Y4254D03*
Y4228D03*
Y4203D03*
Y4177D03*
Y4152D03*
G54D75*
X3176Y4267D03*
G54D76*
X2837Y4410D03*
X2902D03*
Y4340D03*
X2837D03*
X3124Y4440D03*
X3060D03*
X2902Y4200D03*
X2837D03*
Y4480D03*
X2902D03*
X3542Y4600D03*
X3477D03*
X5252Y2860D03*
X5187D03*
X3292Y4440D03*
X3227D03*
X1562Y1610D03*
X1497D03*
X2900Y4130D03*
X2835D03*
X3037Y4080D03*
X3102D03*
X2580Y3180D03*
X2644D03*
X2862Y3430D03*
X2797D03*
X5902Y2540D03*
X5837D03*
X2762Y3180D03*
X2697D03*
X2902Y4270D03*
X2837D03*
X5627Y2360D03*
X5692D03*
X5742Y3060D03*
X5677D03*
X1562Y1540D03*
X1497D03*
X6092Y3990D03*
X6027D03*
X1562Y1400D03*
X1497D03*
X1562Y1470D03*
X1497D03*
X6092Y3890D03*
X6027D03*
X5537Y3190D03*
X5602D03*
X5707Y3280D03*
X5772D03*
X6392Y3790D03*
X6327D03*
X5642Y3280D03*
X5577D03*
X6187Y3790D03*
X6252D03*
G54D77*
X2890Y1251D03*
Y1168D03*
X5590Y4628D03*
Y4711D03*
G54D78*
X5670Y3130D03*
X5744D03*
X5707Y3208D03*
G54D79*
X5570Y3419D03*
X5770D03*
G54D80*
X5670Y3811D03*
G54D81*
X6670Y4075D03*
X1390Y4500D03*
X6670Y2830D03*
G54D82*
X6670Y4325D03*
X1390Y4250D03*
X6670Y3080D03*
G54D83*
X3100Y1328D03*
X3311Y1329D03*
G54D84*
X3100Y1230D03*
X3311Y1230D03*
G54D85*
X5220Y1310D03*
G54D86*
X5120Y1310D03*
X5020D03*
X5220Y1210D03*
X5120D03*
X5020D03*
G54D87*
X5857Y4627D03*
X6310D03*
X6586D03*
G54D88*
X5857Y4812D03*
G54D89*
X1350Y3885D03*
Y3294D03*
G54D90*
X6313Y1758D03*
X6413Y1608D03*
X6313Y1658D03*
X6413Y1708D03*
Y1808D03*
X6313Y1858D03*
X6413Y1508D03*
X6313Y1558D03*
G54D91*
X6665Y1910D03*
X6670Y1460D03*
X1235Y4792D03*
Y1170D03*
X6825Y4792D03*
Y1170D03*
G54D92*
X1450Y2880D03*
G54D93*
X1450Y2780D03*
Y2680D03*
G54D94*
X3320Y3320D03*
X3793D03*
M02*