%FSLAX23Y23*%
%MOIN*%
%SFA1B1*%

%IPPOS*%
%ADD11C,0.007870*%
%ADD16C,0.005000*%
%ADD121C,0.003940*%
%LNpcb1-1*%
%LPD*%
G54D11*
X5789Y4812D02*
D01*
D01*
G75*
G03X5782I-3J0D01*
G74*G01*
D01*
G75*
G03X5789I3J0D01*
G74*G01*
X3350Y4135D02*
D01*
D01*
G75*
G03X3342I-3J0D01*
G74*G01*
D01*
G75*
G03X3350I3J0D01*
G74*G01*
X3030Y3975D02*
Y4024D01*
Y3975D02*
X3109D01*
Y4024*
X3030D02*
X3109D01*
X3835Y4310D02*
X3884D01*
Y4389*
X3835D02*
X3884D01*
X3835Y4310D02*
Y4389D01*
X3549Y4065D02*
Y4114D01*
X3470D02*
X3549D01*
X3470Y4065D02*
Y4114D01*
Y4065D02*
X3549D01*
Y4495D02*
Y4544D01*
X3470D02*
X3549D01*
X3470Y4495D02*
Y4544D01*
Y4495D02*
X3549D01*
Y4405D02*
Y4454D01*
X3470D02*
X3549D01*
X3470Y4405D02*
Y4454D01*
Y4405D02*
X3549D01*
Y4325D02*
Y4374D01*
X3470D02*
X3549D01*
X3470Y4325D02*
Y4374D01*
Y4325D02*
X3549D01*
Y4235D02*
Y4284D01*
X3470D02*
X3549D01*
X3470Y4235D02*
Y4284D01*
Y4235D02*
X3549D01*
Y4155D02*
Y4204D01*
X3470D02*
X3549D01*
X3470Y4155D02*
Y4204D01*
Y4155D02*
X3549D01*
X5962Y2336D02*
Y2470D01*
X5757D02*
X5962D01*
X5757Y2336D02*
Y2470D01*
Y2336D02*
X5962D01*
X1232Y2057D02*
X1567D01*
Y1722D02*
Y2057D01*
X1232Y1722D02*
X1567D01*
X1232D02*
Y2057D01*
X2313Y1356D02*
Y1623D01*
X2046Y1356D02*
X2313D01*
X2046D02*
Y1623D01*
X2313*
X5064Y2628D02*
X5095D01*
Y2691*
X5064D02*
X5095D01*
X5064Y2628D02*
Y2691D01*
X6282Y2989D02*
Y3170D01*
X6437*
Y2989D02*
Y3170D01*
X6282Y2989D02*
X6437D01*
X5642Y4813D02*
X5797D01*
X5642Y4626D02*
Y4813D01*
Y4626D02*
X5797D01*
Y4813*
X3162Y1131D02*
Y1426D01*
X3013Y1131D02*
X3162D01*
X3013D02*
Y1426D01*
X3162*
X4960Y1156D02*
X5279D01*
X4960D02*
Y1363D01*
X5279*
Y1156D02*
Y1363D01*
X5661Y1788D02*
X5818D01*
Y1591D02*
Y1788D01*
X5661Y1591D02*
X5818D01*
X5661D02*
Y1788D01*
X1693Y2303D02*
Y2456D01*
X1886*
Y2303D02*
Y2456D01*
X1693Y2303D02*
X1886D01*
X1981Y1437D02*
Y1582D01*
X1718Y1437D02*
X1981D01*
X1718D02*
Y1582D01*
X1981*
X4661Y4828D02*
X5338D01*
Y4151D02*
Y4828D01*
X4661Y4151D02*
X5338D01*
X4661D02*
Y4828D01*
X2243Y3953D02*
X2656D01*
X2243D02*
Y4366D01*
X2656*
Y3953D02*
Y4366D01*
X3758Y4734D02*
X3837D01*
Y4685D02*
Y4734D01*
X3758Y4685D02*
X3837D01*
X3758D02*
Y4734D01*
X3186Y3994D02*
X3253D01*
Y3945D02*
Y3994D01*
X3186Y3945D02*
X3253D01*
X3186D02*
Y3994D01*
X3112Y3617D02*
Y3735D01*
X3187*
Y3617D02*
Y3735D01*
X3112Y3617D02*
X3187D01*
X2751Y3767D02*
X2948D01*
Y3592D02*
Y3767D01*
X2751Y3592D02*
X2948D01*
X2751D02*
Y3767D01*
X1704Y1756D02*
X1972D01*
X1704D02*
Y2023D01*
X1972*
Y1756D02*
Y2023D01*
X2244Y4383D02*
X2657D01*
X2244D02*
Y4796D01*
X2657*
Y4383D02*
Y4796D01*
X2442Y3591D02*
Y3788D01*
X2617*
Y3591D02*
Y3788D01*
X2442Y3591D02*
X2617D01*
X4063Y3393D02*
X4476D01*
X4063D02*
Y3806D01*
X4476*
Y3393D02*
Y3806D01*
X2420Y3865D02*
X2499D01*
X2420D02*
Y3914D01*
X2499*
Y3865D02*
Y3914D01*
X3015Y3576D02*
Y3656D01*
X3064*
Y3576D02*
Y3656D01*
X3015Y3576D02*
X3064D01*
X4333Y2833D02*
Y3246D01*
X4746*
Y2833D02*
Y3246D01*
X4333Y2833D02*
X4746D01*
X4651Y4058D02*
X5328D01*
Y3381D02*
Y4058D01*
X4651Y3381D02*
X5328D01*
X4651D02*
Y4058D01*
X3188Y4094D02*
X3267D01*
Y4045D02*
Y4094D01*
X3188Y4045D02*
X3267D01*
X3188D02*
Y4094D01*
X4063Y3833D02*
X4476D01*
X4063D02*
Y4246D01*
X4476*
Y3833D02*
Y4246D01*
X3374Y1132D02*
Y1427D01*
X3225Y1132D02*
X3374D01*
X3225D02*
Y1427D01*
X3374*
X6437Y2709D02*
Y2890D01*
X6282Y2709D02*
X6437D01*
X6282D02*
Y2890D01*
X6437*
X1663Y3542D02*
X1850D01*
X1663D02*
Y3697D01*
X1850*
Y3542D02*
Y3697D01*
X1666Y3742D02*
X1853D01*
X1666D02*
Y3897D01*
X1853*
Y3742D02*
Y3897D01*
X6097Y1729D02*
Y1910D01*
X5942Y1729D02*
X6097D01*
X5942D02*
Y1910D01*
X6097*
Y1459D02*
Y1640D01*
X5942Y1459D02*
X6097D01*
X5942D02*
Y1640D01*
X6097*
X2594Y3312D02*
Y3391D01*
X2545Y3312D02*
X2594D01*
X2545D02*
Y3391D01*
X2594*
X5820Y2235D02*
X5899D01*
X5820D02*
Y2284D01*
X5899*
Y2235D02*
Y2284D01*
X5584Y2251D02*
X5615D01*
X5584Y2188D02*
Y2251D01*
Y2188D02*
X5615D01*
Y2251*
X5665Y2259D02*
X5714D01*
X5665Y2180D02*
Y2259D01*
Y2180D02*
X5714D01*
Y2259*
X5594Y2468D02*
X5625D01*
Y2531*
X5594D02*
X5625D01*
X5594Y2468D02*
Y2531D01*
X5665Y2460D02*
X5714D01*
Y2539*
X5665D02*
X5714D01*
X5665Y2460D02*
Y2539D01*
X6290Y4224D02*
X6369D01*
Y4175D02*
Y4224D01*
X6290Y4175D02*
X6369D01*
X6290D02*
Y4224D01*
X6132D02*
X6211D01*
Y4175D02*
Y4224D01*
X6132Y4175D02*
X6211D01*
X6132D02*
Y4224D01*
X1595Y2660D02*
Y2739D01*
X1644*
Y2660D02*
Y2739D01*
X1595Y2660D02*
X1644D01*
Y2840D02*
Y2919D01*
X1595Y2840D02*
X1644D01*
X1595D02*
Y2919D01*
X1644*
X1257Y2443D02*
X1525D01*
Y2176D02*
Y2443D01*
X1257Y2176D02*
X1525D01*
X1257D02*
Y2443D01*
X1626Y3463D02*
X1893D01*
Y3196D02*
Y3463D01*
X1626Y3196D02*
X1893D01*
X1626D02*
Y3463D01*
X1967Y4204D02*
Y4539D01*
X1632Y4204D02*
X1967D01*
X1632D02*
Y4539D01*
X1967*
X5730Y1835D02*
X5809D01*
X5730D02*
Y1884D01*
X5809*
Y1835D02*
Y1884D01*
G54D16*
X5816Y4857D02*
X6623D01*
Y4582D02*
Y4857D01*
X5816Y4582D02*
X6623D01*
X5816D02*
Y4857D01*
X1180Y3015D02*
X1533D01*
X1180Y2545D02*
Y3015D01*
Y2545D02*
X1533D01*
Y3015*
X3089Y4139D02*
X3263D01*
X3089Y4395D02*
X3263D01*
Y4139D02*
Y4395D01*
X3089Y4139D02*
Y4395D01*
G54D121*
X6196Y3946D02*
D01*
D01*
G75*
G03X6157I-19J0D01*
G74*G01*
D01*
G75*
G03X6196I19J0D01*
G74*G01*
X5452Y2337D02*
D01*
D01*
G75*
G03X5412I-19J0D01*
G74*G01*
D01*
G75*
G03X5452I19J0D01*
G74*G01*
X4030Y4595D02*
Y4664D01*
X3909Y4595D02*
Y4664D01*
X4030*
X3909Y4595D02*
X4030D01*
X1883Y2571D02*
Y2628D01*
X1796Y2571D02*
Y2628D01*
Y2571D02*
X1883D01*
X1796Y2628D02*
X1883D01*
X1330Y1585D02*
Y1634D01*
X1409*
Y1585D02*
Y1634D01*
X1379Y1585D02*
X1409D01*
X1330D02*
X1409D01*
X6488Y3950D02*
X6981D01*
X6488D02*
Y4450D01*
X6981Y3950D02*
Y4450D01*
X6488D02*
X6981D01*
X3558Y1510D02*
X3930D01*
X3558Y1109D02*
X3930D01*
X3558D02*
Y1510D01*
X3930Y1109D02*
Y1510D01*
X4304Y1357D02*
X4355D01*
X4304Y1242D02*
X4355D01*
X4304D02*
Y1357D01*
X4355Y1242D02*
Y1357D01*
X6141Y3911D02*
X6338D01*
X6141Y4068D02*
X6338D01*
X6141Y3911D02*
Y4068D01*
X6338Y3911D02*
Y4068D01*
X2759Y3282D02*
Y3404D01*
X2637Y3282D02*
Y3404D01*
X2759*
X2637Y3282D02*
X2759D01*
X1164Y3109D02*
Y4070D01*
Y3109D02*
X1535D01*
Y4070*
X1164D02*
X1535D01*
X5467Y2302D02*
Y2577D01*
X5192Y2302D02*
Y2577D01*
Y2302D02*
X5467D01*
X5192Y2577D02*
X5467D01*
X3779Y3927D02*
X3907D01*
X3779Y3992D02*
X3907D01*
Y3927D02*
Y3992D01*
X3779Y3927D02*
Y3992D01*
X3498Y3936D02*
Y4023D01*
X3441Y3936D02*
Y4023D01*
X3498*
X3441Y3936D02*
X3498D01*
X3911Y4306D02*
Y4393D01*
X3968Y4306D02*
Y4393D01*
X3911Y4306D02*
X3968D01*
X3911Y4393D02*
X3968D01*
X4038Y4739D02*
Y4825D01*
X3981Y4739D02*
Y4825D01*
X4038*
X3981Y4739D02*
X4038D01*
X2826Y4438D02*
X2913D01*
X2826Y4381D02*
X2913D01*
X2826D02*
Y4438D01*
X2913Y4381D02*
Y4438D01*
X2826Y4311D02*
X2913D01*
X2826Y4368D02*
X2913D01*
Y4311D02*
Y4368D01*
X2826Y4311D02*
Y4368D01*
X3831Y4556D02*
Y4643D01*
X3888Y4556D02*
Y4643D01*
X3831Y4556D02*
X3888D01*
X3831Y4643D02*
X3888D01*
X3808Y4436D02*
Y4523D01*
X3751Y4436D02*
Y4523D01*
X3808*
X3751Y4436D02*
X3808D01*
X3049Y4411D02*
X3135D01*
X3049Y4468D02*
X3135D01*
Y4411D02*
Y4468D01*
X3049Y4411D02*
Y4468D01*
X4078Y4416D02*
Y4503D01*
X4021Y4416D02*
Y4503D01*
X4078*
X4021Y4416D02*
X4078D01*
X3638Y4346D02*
Y4433D01*
X3581Y4346D02*
Y4433D01*
X3638*
X3581Y4346D02*
X3638D01*
X3351Y3996D02*
Y4083D01*
X3408Y3996D02*
Y4083D01*
X3351Y3996D02*
X3408D01*
X3351Y4083D02*
X3408D01*
X3888Y4436D02*
Y4523D01*
X3831Y4436D02*
Y4523D01*
X3888*
X3831Y4436D02*
X3888D01*
X2826Y4171D02*
X2913D01*
X2826Y4228D02*
X2913D01*
Y4171D02*
Y4228D01*
X2826Y4171D02*
Y4228D01*
Y4508D02*
X2913D01*
X2826Y4451D02*
X2913D01*
X2826D02*
Y4508D01*
X2913Y4451D02*
Y4508D01*
X3466Y4571D02*
X3553D01*
X3466Y4628D02*
X3553D01*
Y4571D02*
Y4628D01*
X3466Y4571D02*
Y4628D01*
X5176Y2831D02*
X5263D01*
X5176Y2888D02*
X5263D01*
Y2831D02*
Y2888D01*
X5176Y2831D02*
Y2888D01*
X3216Y4411D02*
X3303D01*
X3216Y4468D02*
X3303D01*
Y4411D02*
Y4468D01*
X3216Y4411D02*
Y4468D01*
X1486Y1581D02*
X1573D01*
X1486Y1638D02*
X1573D01*
Y1581D02*
Y1638D01*
X1486Y1581D02*
Y1638D01*
X2824Y4101D02*
X2910D01*
X2824Y4158D02*
X2910D01*
Y4101D02*
Y4158D01*
X2824Y4101D02*
Y4158D01*
X3011Y3703D02*
Y3789D01*
X3068Y3703D02*
Y3789D01*
X3011Y3703D02*
X3068D01*
X3011Y3789D02*
X3068D01*
X3026Y4108D02*
X3113D01*
X3026Y4051D02*
X3113D01*
X3026D02*
Y4108D01*
X3113Y4051D02*
Y4108D01*
X2569Y3208D02*
X2655D01*
X2569Y3151D02*
X2655D01*
X2569D02*
Y3208D01*
X2655Y3151D02*
Y3208D01*
X4421Y1256D02*
Y1343D01*
X4478Y1256D02*
Y1343D01*
X4421Y1256D02*
X4478D01*
X4421Y1343D02*
X4478D01*
X2786Y3401D02*
X2873D01*
X2786Y3458D02*
X2873D01*
Y3401D02*
Y3458D01*
X2786Y3401D02*
Y3458D01*
X5826Y2511D02*
X5913D01*
X5826Y2568D02*
X5913D01*
Y2511D02*
Y2568D01*
X5826Y2511D02*
Y2568D01*
X2686Y3151D02*
X2773D01*
X2686Y3208D02*
X2773D01*
Y3151D02*
Y3208D01*
X2686Y3151D02*
Y3208D01*
X4511Y1256D02*
Y1343D01*
X4568Y1256D02*
Y1343D01*
X4511Y1256D02*
X4568D01*
X4511Y1343D02*
X4568D01*
X2838Y3286D02*
Y3373D01*
X2781Y3286D02*
Y3373D01*
X2838*
X2781Y3286D02*
X2838D01*
X2826Y4241D02*
X2913D01*
X2826Y4298D02*
X2913D01*
Y4241D02*
Y4298D01*
X2826Y4241D02*
Y4298D01*
X5616Y2388D02*
X5703D01*
X5616Y2331D02*
X5703D01*
X5616D02*
Y2388D01*
X5703Y2331D02*
Y2388D01*
X5991Y2356D02*
Y2443D01*
X6048Y2356D02*
Y2443D01*
X5991Y2356D02*
X6048D01*
X5991Y2443D02*
X6048D01*
X6151Y1723D02*
X6208D01*
X6151Y1636D02*
X6208D01*
Y1723*
X6151Y1636D02*
Y1723D01*
X1078Y4625D02*
X1571D01*
Y4125D02*
Y4625D01*
X1078Y4125D02*
Y4625D01*
Y4125D02*
X1571D01*
X5040Y2835D02*
Y2884D01*
X5119*
Y2835D02*
Y2884D01*
X5089Y2835D02*
X5119D01*
X5040D02*
X5119D01*
X5753Y3031D02*
Y3088D01*
X5666Y3031D02*
Y3088D01*
Y3031D02*
X5753D01*
X5666Y3088D02*
X5753D01*
X1486Y1511D02*
X1573D01*
X1486Y1568D02*
X1573D01*
Y1511D02*
Y1568D01*
X1486Y1511D02*
Y1568D01*
X5618Y4776D02*
Y4863D01*
X5561Y4776D02*
Y4863D01*
X5618*
X5561Y4776D02*
X5618D01*
X1978Y2336D02*
Y2423D01*
X1921Y2336D02*
Y2423D01*
X1978*
X1921Y2336D02*
X1978D01*
X4181Y1196D02*
Y1283D01*
X4238Y1196D02*
Y1283D01*
X4181Y1196D02*
X4238D01*
X4181Y1283D02*
X4238D01*
Y1336D02*
Y1423D01*
X4181Y1336D02*
Y1423D01*
X4238*
X4181Y1336D02*
X4238D01*
X6151Y1593D02*
X6208D01*
X6151Y1506D02*
X6208D01*
Y1593*
X6151Y1506D02*
Y1593D01*
X2865Y1170D02*
X2914D01*
X2865D02*
Y1249D01*
X2914*
Y1219D02*
Y1249D01*
Y1170D02*
Y1249D01*
X6151Y1843D02*
X6208D01*
X6151Y1756D02*
X6208D01*
Y1843*
X6151Y1756D02*
Y1843D01*
X6016Y3961D02*
X6103D01*
X6016Y4018D02*
X6103D01*
Y3961D02*
Y4018D01*
X6016Y3961D02*
Y4018D01*
X1330Y1445D02*
Y1494D01*
X1409*
Y1445D02*
Y1494D01*
X1379Y1445D02*
X1409D01*
X1330D02*
X1409D01*
X1486Y1371D02*
X1573D01*
X1486Y1428D02*
X1573D01*
Y1371D02*
Y1428D01*
X1486Y1371D02*
Y1428D01*
X5649Y3143D02*
X5764D01*
X5649Y3194D02*
X5764D01*
X5649Y3143D02*
Y3194D01*
X5764Y3143D02*
Y3194D01*
X1486Y1441D02*
X1573D01*
X1486Y1498D02*
X1573D01*
Y1441D02*
Y1498D01*
X1486Y1441D02*
Y1498D01*
X5469Y3559D02*
X5870D01*
X5469Y3931D02*
X5870D01*
X5469Y3559D02*
Y3931D01*
X5870Y3559D02*
Y3931D01*
X1330Y1515D02*
Y1564D01*
X1409*
Y1515D02*
Y1564D01*
X1379Y1515D02*
X1409D01*
X1330D02*
X1409D01*
X5565Y4630D02*
X5614D01*
X5565D02*
Y4709D01*
X5614*
Y4679D02*
Y4709D01*
Y4630D02*
Y4709D01*
X6016Y3861D02*
X6103D01*
X6016Y3918D02*
X6103D01*
Y3861D02*
Y3918D01*
X6016Y3861D02*
Y3918D01*
X6181Y2706D02*
Y2793D01*
X6238Y2706D02*
Y2793D01*
X6181Y2706D02*
X6238D01*
X6181Y2793D02*
X6238D01*
X2918Y1324D02*
Y1410D01*
X2861Y1324D02*
Y1410D01*
X2918*
X2861Y1324D02*
X2918D01*
X5526Y3161D02*
Y3218D01*
X5613Y3161D02*
Y3218D01*
X5526D02*
X5613D01*
X5526Y3161D02*
X5613D01*
X6488Y2705D02*
X6981D01*
X6488D02*
Y3205D01*
X6981Y2705D02*
Y3205D01*
X6488D02*
X6981D01*
X6238Y4276D02*
Y4363D01*
X6181Y4276D02*
Y4363D01*
X6238*
X6181Y4276D02*
X6238D01*
X5696Y3251D02*
Y3308D01*
X5783Y3251D02*
Y3308D01*
X5696D02*
X5783D01*
X5696Y3251D02*
X5783D01*
X6316Y3761D02*
X6403D01*
X6316Y3818D02*
X6403D01*
Y3761D02*
Y3818D01*
X6316Y3761D02*
Y3818D01*
X6181Y2826D02*
Y2913D01*
X6238Y2826D02*
Y2913D01*
X6181Y2826D02*
X6238D01*
X6181Y2913D02*
X6238D01*
X6181Y2986D02*
Y3073D01*
X6238Y2986D02*
Y3073D01*
X6181Y2986D02*
X6238D01*
X6181Y3073D02*
X6238D01*
X6148Y4276D02*
Y4363D01*
X6091Y4276D02*
Y4363D01*
X6148*
X6091Y4276D02*
X6148D01*
X6096Y4427D02*
X6223D01*
X6096Y4492D02*
X6223D01*
Y4427D02*
Y4492D01*
X6096Y4427D02*
Y4492D01*
X5653Y3251D02*
Y3308D01*
X5566Y3251D02*
Y3308D01*
Y3251D02*
X5653D01*
X5566Y3308D02*
X5653D01*
X6176Y3818D02*
X6263D01*
X6176Y3761D02*
X6263D01*
X6176D02*
Y3818D01*
X6263Y3761D02*
Y3818D01*
X1330Y1375D02*
Y1424D01*
X1409*
Y1375D02*
Y1424D01*
X1379Y1375D02*
X1409D01*
X1330D02*
X1409D01*
X1853Y2131D02*
Y2188D01*
X1766Y2131D02*
Y2188D01*
Y2131D02*
X1853D01*
X1766Y2188D02*
X1853D01*
M02*