%FSLAX23Y23*%
%MOIN*%
%SFA1B1*%

%IPPOS*%
%ADD81R,0.078870X0.078870*%
%ADD82C,0.078870*%
%ADD83R,0.055120X0.055120*%
%ADD84C,0.055120*%
%ADD85R,0.061810X0.061810*%
%ADD86C,0.061810*%
%ADD87C,0.072960*%
%ADD88R,0.072960X0.072960*%
%ADD89C,0.096580*%
%ADD90C,0.067060*%
%ADD91C,0.204850*%
%ADD92R,0.053980X0.053980*%
%ADD93C,0.053980*%
%ADD94C,0.126110*%
%LNpcb1-1*%
%LPD*%
G54D81*
X6670Y4075D03*
X1390Y4500D03*
X6670Y2830D03*
G54D82*
X6670Y4325D03*
X1390Y4250D03*
X6670Y3080D03*
G54D83*
X3100Y1328D03*
X3311Y1329D03*
G54D84*
X3100Y1230D03*
X3311Y1230D03*
G54D85*
X5220Y1310D03*
G54D86*
X5120Y1310D03*
X5020D03*
X5220Y1210D03*
X5120D03*
X5020D03*
G54D87*
X5857Y4627D03*
X6310D03*
X6586D03*
G54D88*
X5857Y4812D03*
G54D89*
X1350Y3885D03*
Y3294D03*
G54D90*
X6313Y1758D03*
X6413Y1608D03*
X6313Y1658D03*
X6413Y1708D03*
Y1808D03*
X6313Y1858D03*
X6413Y1508D03*
X6313Y1558D03*
G54D91*
X6665Y1910D03*
X6670Y1460D03*
X1235Y4792D03*
Y1170D03*
X6825Y4792D03*
Y1170D03*
G54D92*
X1450Y2880D03*
G54D93*
X1450Y2780D03*
Y2680D03*
G54D94*
X3320Y3320D03*
X3793D03*
M02*