%FSLAX23Y23*%
%MOIN*%
%SFA1B1*%

%IPPOS*%
%ADD16C,0.005000*%
%ADD123C,0.006670*%
%ADD124C,0.004000*%
%LNpcb1-1*%
%LPD*%
G54D16*
X6670Y4055D02*
X6650Y4095D01*
X6690*
X6670Y4055*
Y4305D02*
X6650Y4345D01*
X6690*
X6670Y4305*
X3080Y1308D02*
X3090Y1328D01*
X3080Y1348*
X3100Y1338*
X3120Y1348*
X3110Y1328*
X3120Y1308*
X3100Y1318*
X3080Y1308*
Y1210D02*
X3090Y1230D01*
X3080Y1250*
X3100Y1240*
X3120Y1250*
X3110Y1230*
X3120Y1210*
X3100Y1220*
X3080Y1210*
X5200Y1290D02*
Y1330D01*
X5240*
Y1290*
X5200*
X5100D02*
Y1330D01*
X5140*
Y1290*
X5100*
X5000D02*
Y1330D01*
X5040*
Y1290*
X5000*
X5200Y1190D02*
Y1230D01*
X5240*
Y1190*
X5200*
X5100D02*
Y1230D01*
X5140*
Y1190*
X5100*
X5000D02*
Y1230D01*
X5040*
Y1190*
X5000*
X5857Y4607D02*
X5867Y4617D01*
X5877*
X5867Y4627*
X5877Y4637*
X5867*
X5857Y4647*
X5847Y4637*
X5837*
X5847Y4627*
X5837Y4617*
X5847*
X5857Y4607*
Y4792D02*
X5867Y4802D01*
X5877*
X5867Y4812*
X5877Y4822*
X5867*
X5857Y4832*
X5847Y4822*
X5837*
X5847Y4812*
X5837Y4802*
X5847*
X5857Y4792*
X6310Y4607D02*
X6320Y4617D01*
X6330*
X6320Y4627*
X6330Y4637*
X6320*
X6310Y4647*
X6300Y4637*
X6290*
X6300Y4627*
X6290Y4617*
X6300*
X6310Y4607*
X6586D02*
X6596Y4617D01*
X6606*
X6596Y4627*
X6606Y4637*
X6596*
X6586Y4647*
X6576Y4637*
X6566*
X6576Y4627*
X6566Y4617*
X6576*
X6586Y4607*
X6293Y1738D02*
X6303D01*
X6313Y1748*
X6323Y1738*
X6333*
Y1748*
X6323Y1758*
X6333Y1768*
Y1778*
X6323*
X6313Y1768*
X6303Y1778*
X6293*
Y1768*
X6303Y1758*
X6293Y1748*
Y1738*
X6655Y1900D02*
Y1890D01*
X6675*
Y1900*
X6685*
Y1920*
X6675*
Y1930*
X6655*
Y1920*
X6645*
Y1900*
X6655*
X6660Y1450D02*
Y1440D01*
X6680*
Y1450*
X6690*
Y1470*
X6680*
Y1480*
X6660*
Y1470*
X6650*
Y1450*
X6660*
X6393Y1588D02*
X6403D01*
X6413Y1598*
X6423Y1588*
X6433*
Y1598*
X6423Y1608*
X6433Y1618*
Y1628*
X6423*
X6413Y1618*
X6403Y1628*
X6393*
Y1618*
X6403Y1608*
X6393Y1598*
Y1588*
X6293Y1638D02*
X6303D01*
X6313Y1648*
X6323Y1638*
X6333*
Y1648*
X6323Y1658*
X6333Y1668*
Y1678*
X6323*
X6313Y1668*
X6303Y1678*
X6293*
Y1668*
X6303Y1658*
X6293Y1648*
Y1638*
X6393Y1688D02*
X6403D01*
X6413Y1698*
X6423Y1688*
X6433*
Y1698*
X6423Y1708*
X6433Y1718*
Y1728*
X6423*
X6413Y1718*
X6403Y1728*
X6393*
Y1718*
X6403Y1708*
X6393Y1698*
Y1688*
Y1788D02*
X6403D01*
X6413Y1798*
X6423Y1788*
X6433*
Y1798*
X6423Y1808*
X6433Y1818*
Y1828*
X6423*
X6413Y1818*
X6403Y1828*
X6393*
Y1818*
X6403Y1808*
X6393Y1798*
Y1788*
X6293Y1838D02*
X6303D01*
X6313Y1848*
X6323Y1838*
X6333*
Y1848*
X6323Y1858*
X6333Y1868*
Y1878*
X6323*
X6313Y1868*
X6303Y1878*
X6293*
Y1868*
X6303Y1858*
X6293Y1848*
Y1838*
X6393Y1488D02*
X6403D01*
X6413Y1498*
X6423Y1488*
X6433*
Y1498*
X6423Y1508*
X6433Y1518*
Y1528*
X6423*
X6413Y1518*
X6403Y1528*
X6393*
Y1518*
X6403Y1508*
X6393Y1498*
Y1488*
X6293Y1538D02*
X6303D01*
X6313Y1548*
X6323Y1538*
X6333*
Y1548*
X6323Y1558*
X6333Y1568*
Y1578*
X6323*
X6313Y1568*
X6303Y1578*
X6293*
Y1568*
X6303Y1558*
X6293Y1548*
Y1538*
X1430Y2880D02*
X1450Y2900D01*
X1470Y2880*
X1450Y2860*
X1430Y2880*
Y2780D02*
X1450Y2800D01*
X1470Y2780*
X1450Y2760*
X1430Y2780*
Y2680D02*
X1450Y2700D01*
X1470Y2680*
X1450Y2660*
X1430Y2680*
X1390Y4230D02*
X1370Y4270D01*
X1410*
X1390Y4230*
Y4480D02*
X1370Y4520D01*
X1410*
X1390Y4480*
X3291Y1309D02*
X3301Y1329D01*
X3291Y1349*
X3311Y1339*
X3331Y1349*
X3321Y1329*
X3331Y1309*
X3311Y1319*
X3291Y1309*
Y1210D02*
X3301Y1230D01*
X3291Y1250*
X3311Y1240*
X3331Y1250*
X3321Y1230*
X3331Y1210*
X3311Y1220*
X3291Y1210*
X6670Y2810D02*
X6650Y2850D01*
X6690*
X6670Y2810*
Y3060D02*
X6650Y3100D01*
X6690*
X6670Y3060*
X1215Y4772D02*
Y4812D01*
X1255*
Y4772*
X1215*
X1223Y4780D02*
Y4804D01*
X1247*
Y4780*
X1223*
X1215Y1150D02*
Y1190D01*
X1255*
Y1150*
X1215*
X1223Y1158D02*
Y1182D01*
X1247*
Y1158*
X1223*
X6805Y4772D02*
Y4812D01*
X6845*
Y4772*
X6805*
X6813Y4780D02*
Y4804D01*
X6837*
Y4780*
X6813*
X6805Y1150D02*
Y1190D01*
X6845*
Y1150*
X6805*
X6813Y1158D02*
Y1182D01*
X6837*
Y1158*
X6813*
X1155Y2287D02*
X1165Y2307D01*
X1155Y2327*
X1175Y2317*
X1195Y2327*
X1185Y2307*
X1195Y2287*
X1175Y2297*
X1155Y2287*
X1163Y2295D02*
X1169Y2307D01*
X1163Y2319*
X1175Y2313*
X1187Y2319*
X1181Y2307*
X1187Y2295*
X1175Y2301*
X1163Y2295*
X3130Y3535D02*
X3140Y3555D01*
X3130Y3575*
X3150Y3565*
X3170Y3575*
X3160Y3555*
X3170Y3535*
X3150Y3545*
X3130Y3535*
X3138Y3543D02*
X3144Y3555D01*
X3138Y3567*
X3150Y3561*
X3162Y3567*
X3156Y3555*
X3162Y3543*
X3150Y3549*
X3138Y3543*
X3020Y3495D02*
X3030Y3515D01*
X3020Y3535*
X3040Y3525*
X3060Y3535*
X3050Y3515*
X3060Y3495*
X3040Y3505*
X3020Y3495*
X3028Y3503D02*
X3034Y3515D01*
X3028Y3527*
X3040Y3521*
X3052Y3527*
X3046Y3515*
X3052Y3503*
X3040Y3509*
X3028Y3503*
X6340Y2615D02*
X6350Y2635D01*
X6340Y2655*
X6360Y2645*
X6380Y2655*
X6370Y2635*
X6380Y2615*
X6360Y2625*
X6340Y2615*
X6348Y2623D02*
X6354Y2635D01*
X6348Y2647*
X6360Y2641*
X6372Y2647*
X6366Y2635*
X6372Y2623*
X6360Y2629*
X6348Y2623*
X2973Y4183D02*
X2983Y4193D01*
X2993*
X2983Y4203*
X2993Y4213*
X2983*
X2973Y4223*
X2963Y4213*
X2953*
X2963Y4203*
X2953Y4193*
X2963*
X2973Y4183*
Y4191D02*
X2979Y4197D01*
X2985*
X2979Y4203*
X2985Y4209*
X2979*
X2973Y4215*
X2967Y4209*
X2961*
X2967Y4203*
X2961Y4197*
X2967*
X2973Y4191*
X2025Y1870D02*
X2035Y1890D01*
X2025Y1910*
X2045Y1900*
X2065Y1910*
X2055Y1890*
X2065Y1870*
X2045Y1880*
X2025Y1870*
X2033Y1878D02*
X2039Y1890D01*
X2033Y1902*
X2045Y1896*
X2057Y1902*
X2051Y1890*
X2057Y1878*
X2045Y1884*
X2033Y1878*
X2260Y1370D02*
X2270Y1390D01*
X2260Y1410*
X2280Y1400*
X2300Y1410*
X2290Y1390*
X2300Y1370*
X2280Y1380*
X2260Y1370*
X2268Y1378D02*
X2274Y1390D01*
X2268Y1402*
X2280Y1396*
X2292Y1402*
X2286Y1390*
X2292Y1378*
X2280Y1384*
X2268Y1378*
X1545Y1100D02*
X1555Y1120D01*
X1545Y1140*
X1565Y1130*
X1585Y1140*
X1575Y1120*
X1585Y1100*
X1565Y1110*
X1545Y1100*
X1553Y1108D02*
X1559Y1120D01*
X1553Y1132*
X1565Y1126*
X1577Y1132*
X1571Y1120*
X1577Y1108*
X1565Y1114*
X1553Y1108*
X1880Y2140D02*
X1890Y2160D01*
X1880Y2180*
X1900Y2170*
X1920Y2180*
X1910Y2160*
X1920Y2140*
X1900Y2150*
X1880Y2140*
X1888Y2148D02*
X1894Y2160D01*
X1888Y2172*
X1900Y2166*
X1912Y2172*
X1906Y2160*
X1912Y2148*
X1900Y2154*
X1888Y2148*
X1910Y2560D02*
X1920Y2580D01*
X1910Y2600*
X1930Y2590*
X1950Y2600*
X1940Y2580*
X1950Y2560*
X1930Y2570*
X1910Y2560*
X1918Y2568D02*
X1924Y2580D01*
X1918Y2592*
X1930Y2586*
X1942Y2592*
X1936Y2580*
X1942Y2568*
X1930Y2574*
X1918Y2568*
X1572Y4480D02*
X1582Y4500D01*
X1572Y4520*
X1592Y4510*
X1612Y4520*
X1602Y4500*
X1612Y4480*
X1592Y4490*
X1572Y4480*
X1580Y4488D02*
X1586Y4500D01*
X1580Y4512*
X1592Y4506*
X1604Y4512*
X1598Y4500*
X1604Y4488*
X1592Y4494*
X1580Y4488*
X4670Y1940D02*
X4680Y1960D01*
X4670Y1980*
X4690Y1970*
X4710Y1980*
X4700Y1960*
X4710Y1940*
X4690Y1950*
X4670Y1940*
X4678Y1948D02*
X4684Y1960D01*
X4678Y1972*
X4690Y1966*
X4702Y1972*
X4696Y1960*
X4702Y1948*
X4690Y1954*
X4678Y1948*
X4455Y1840D02*
X4465Y1860D01*
X4455Y1880*
X4475Y1870*
X4495Y1880*
X4485Y1860*
X4495Y1840*
X4475Y1850*
X4455Y1840*
X4463Y1848D02*
X4469Y1860D01*
X4463Y1872*
X4475Y1866*
X4487Y1872*
X4481Y1860*
X4487Y1848*
X4475Y1854*
X4463Y1848*
X4040Y1755D02*
X4050Y1775D01*
X4040Y1795*
X4060Y1785*
X4080Y1795*
X4070Y1775*
X4080Y1755*
X4060Y1765*
X4040Y1755*
X4048Y1763D02*
X4054Y1775D01*
X4048Y1787*
X4060Y1781*
X4072Y1787*
X4066Y1775*
X4072Y1763*
X4060Y1769*
X4048Y1763*
X3780Y1895D02*
X3790Y1915D01*
X3780Y1935*
X3800Y1925*
X3820Y1935*
X3810Y1915*
X3820Y1895*
X3800Y1905*
X3780Y1895*
X3788Y1903D02*
X3794Y1915D01*
X3788Y1927*
X3800Y1921*
X3812Y1927*
X3806Y1915*
X3812Y1903*
X3800Y1909*
X3788Y1903*
X3480Y1770D02*
X3490Y1790D01*
X3480Y1810*
X3500Y1800*
X3520Y1810*
X3510Y1790*
X3520Y1770*
X3500Y1780*
X3480Y1770*
X3488Y1778D02*
X3494Y1790D01*
X3488Y1802*
X3500Y1796*
X3512Y1802*
X3506Y1790*
X3512Y1778*
X3500Y1784*
X3488Y1778*
X3335Y1950D02*
X3345Y1970D01*
X3335Y1990*
X3355Y1980*
X3375Y1990*
X3365Y1970*
X3375Y1950*
X3355Y1960*
X3335Y1950*
X3343Y1958D02*
X3349Y1970D01*
X3343Y1982*
X3355Y1976*
X3367Y1982*
X3361Y1970*
X3367Y1958*
X3355Y1964*
X3343Y1958*
X3160Y1725D02*
X3170Y1745D01*
X3160Y1765*
X3180Y1755*
X3200Y1765*
X3190Y1745*
X3200Y1725*
X3180Y1735*
X3160Y1725*
X3168Y1733D02*
X3174Y1745D01*
X3168Y1757*
X3180Y1751*
X3192Y1757*
X3186Y1745*
X3192Y1733*
X3180Y1739*
X3168Y1733*
X2985Y1960D02*
X2995Y1980D01*
X2985Y2000*
X3005Y1990*
X3025Y2000*
X3015Y1980*
X3025Y1960*
X3005Y1970*
X2985Y1960*
X2993Y1968D02*
X2999Y1980D01*
X2993Y1992*
X3005Y1986*
X3017Y1992*
X3011Y1980*
X3017Y1968*
X3005Y1974*
X2993Y1968*
X2870Y2195D02*
X2880Y2215D01*
X2870Y2235*
X2890Y2225*
X2910Y2235*
X2900Y2215*
X2910Y2195*
X2890Y2205*
X2870Y2195*
X2878Y2203D02*
X2884Y2215D01*
X2878Y2227*
X2890Y2221*
X2902Y2227*
X2896Y2215*
X2902Y2203*
X2890Y2209*
X2878Y2203*
X2740Y1780D02*
X2750Y1800D01*
X2740Y1820*
X2760Y1810*
X2780Y1820*
X2770Y1800*
X2780Y1780*
X2760Y1790*
X2740Y1780*
X2748Y1788D02*
X2754Y1800D01*
X2748Y1812*
X2760Y1806*
X2772Y1812*
X2766Y1800*
X2772Y1788*
X2760Y1794*
X2748Y1788*
X2595Y1945D02*
X2605Y1965D01*
X2595Y1985*
X2615Y1975*
X2635Y1985*
X2625Y1965*
X2635Y1945*
X2615Y1955*
X2595Y1945*
X2603Y1953D02*
X2609Y1965D01*
X2603Y1977*
X2615Y1971*
X2627Y1977*
X2621Y1965*
X2627Y1953*
X2615Y1959*
X2603Y1953*
X2570Y2100D02*
X2580Y2120D01*
X2570Y2140*
X2590Y2130*
X2610Y2140*
X2600Y2120*
X2610Y2100*
X2590Y2110*
X2570Y2100*
X2578Y2108D02*
X2584Y2120D01*
X2578Y2132*
X2590Y2126*
X2602Y2132*
X2596Y2120*
X2602Y2108*
X2590Y2114*
X2578Y2108*
X2605Y2295D02*
X2615Y2315D01*
X2605Y2335*
X2625Y2325*
X2645Y2335*
X2635Y2315*
X2645Y2295*
X2625Y2305*
X2605Y2295*
X2613Y2303D02*
X2619Y2315D01*
X2613Y2327*
X2625Y2321*
X2637Y2327*
X2631Y2315*
X2637Y2303*
X2625Y2309*
X2613Y2303*
X4145Y2765D02*
X4155Y2785D01*
X4145Y2805*
X4165Y2795*
X4185Y2805*
X4175Y2785*
X4185Y2765*
X4165Y2775*
X4145Y2765*
X4153Y2773D02*
X4159Y2785D01*
X4153Y2797*
X4165Y2791*
X4177Y2797*
X4171Y2785*
X4177Y2773*
X4165Y2779*
X4153Y2773*
X4035Y2985D02*
X4045Y3005D01*
X4035Y3025*
X4055Y3015*
X4075Y3025*
X4065Y3005*
X4075Y2985*
X4055Y2995*
X4035Y2985*
X4043Y2993D02*
X4049Y3005D01*
X4043Y3017*
X4055Y3011*
X4067Y3017*
X4061Y3005*
X4067Y2993*
X4055Y2999*
X4043Y2993*
X3855Y2630D02*
X3865Y2650D01*
X3855Y2670*
X3875Y2660*
X3895Y2670*
X3885Y2650*
X3895Y2630*
X3875Y2640*
X3855Y2630*
X3863Y2638D02*
X3869Y2650D01*
X3863Y2662*
X3875Y2656*
X3887Y2662*
X3881Y2650*
X3887Y2638*
X3875Y2644*
X3863Y2638*
X3440Y2625D02*
X3450Y2645D01*
X3440Y2665*
X3460Y2655*
X3480Y2665*
X3470Y2645*
X3480Y2625*
X3460Y2635*
X3440Y2625*
X3448Y2633D02*
X3454Y2645D01*
X3448Y2657*
X3460Y2651*
X3472Y2657*
X3466Y2645*
X3472Y2633*
X3460Y2639*
X3448Y2633*
X3100Y2890D02*
X3110Y2910D01*
X3100Y2930*
X3120Y2920*
X3140Y2930*
X3130Y2910*
X3140Y2890*
X3120Y2900*
X3100Y2890*
X3108Y2898D02*
X3114Y2910D01*
X3108Y2922*
X3120Y2916*
X3132Y2922*
X3126Y2910*
X3132Y2898*
X3120Y2904*
X3108Y2898*
X3015Y3115D02*
X3025Y3135D01*
X3015Y3155*
X3035Y3145*
X3055Y3155*
X3045Y3135*
X3055Y3115*
X3035Y3125*
X3015Y3115*
X3023Y3123D02*
X3029Y3135D01*
X3023Y3147*
X3035Y3141*
X3047Y3147*
X3041Y3135*
X3047Y3123*
X3035Y3129*
X3023Y3123*
X2880Y2580D02*
X2890Y2600D01*
X2880Y2620*
X2900Y2610*
X2920Y2620*
X2910Y2600*
X2920Y2580*
X2900Y2590*
X2880Y2580*
X2888Y2588D02*
X2894Y2600D01*
X2888Y2612*
X2900Y2606*
X2912Y2612*
X2906Y2600*
X2912Y2588*
X2900Y2594*
X2888Y2588*
X2705Y2740D02*
X2715Y2760D01*
X2705Y2780*
X2725Y2770*
X2745Y2780*
X2735Y2760*
X2745Y2740*
X2725Y2750*
X2705Y2740*
X2713Y2748D02*
X2719Y2760D01*
X2713Y2772*
X2725Y2766*
X2737Y2772*
X2731Y2760*
X2737Y2748*
X2725Y2754*
X2713Y2748*
X2550Y2850D02*
X2560Y2870D01*
X2550Y2890*
X2570Y2880*
X2590Y2890*
X2580Y2870*
X2590Y2850*
X2570Y2860*
X2550Y2850*
X2558Y2858D02*
X2564Y2870D01*
X2558Y2882*
X2570Y2876*
X2582Y2882*
X2576Y2870*
X2582Y2858*
X2570Y2864*
X2558Y2858*
X4625Y2470D02*
X4635Y2490D01*
X4625Y2510*
X4645Y2500*
X4665Y2510*
X4655Y2490*
X4665Y2470*
X4645Y2480*
X4625Y2470*
X4633Y2478D02*
X4639Y2490D01*
X4633Y2502*
X4645Y2496*
X4657Y2502*
X4651Y2490*
X4657Y2478*
X4645Y2484*
X4633Y2478*
X4465Y2595D02*
X4475Y2615D01*
X4465Y2635*
X4485Y2625*
X4505Y2635*
X4495Y2615*
X4505Y2595*
X4485Y2605*
X4465Y2595*
X4473Y2603D02*
X4479Y2615D01*
X4473Y2627*
X4485Y2621*
X4497Y2627*
X4491Y2615*
X4497Y2603*
X4485Y2609*
X4473Y2603*
X4960Y3985D02*
X4970Y4005D01*
X4960Y4025*
X4980Y4015*
X5000Y4025*
X4990Y4005*
X5000Y3985*
X4980Y3995*
X4960Y3985*
X4968Y3993D02*
X4974Y4005D01*
X4968Y4017*
X4980Y4011*
X4992Y4017*
X4986Y4005*
X4992Y3993*
X4980Y3999*
X4968Y3993*
X4360Y3730D02*
X4370Y3750D01*
X4360Y3770*
X4380Y3760*
X4400Y3770*
X4390Y3750*
X4400Y3730*
X4380Y3740*
X4360Y3730*
X4368Y3738D02*
X4374Y3750D01*
X4368Y3762*
X4380Y3756*
X4392Y3762*
X4386Y3750*
X4392Y3738*
X4380Y3744*
X4368Y3738*
X4380Y4200D02*
X4390Y4220D01*
X4380Y4240*
X4400Y4230*
X4420Y4240*
X4410Y4220*
X4420Y4200*
X4400Y4210*
X4380Y4200*
X4388Y4208D02*
X4394Y4220D01*
X4388Y4232*
X4400Y4226*
X4412Y4232*
X4406Y4220*
X4412Y4208*
X4400Y4214*
X4388Y4208*
X4295Y3890D02*
X4305Y3910D01*
X4295Y3930*
X4315Y3920*
X4335Y3930*
X4325Y3910*
X4335Y3890*
X4315Y3900*
X4295Y3890*
X4303Y3898D02*
X4309Y3910D01*
X4303Y3922*
X4315Y3916*
X4327Y3922*
X4321Y3910*
X4327Y3898*
X4315Y3904*
X4303Y3898*
X4760Y3915D02*
X4770Y3935D01*
X4760Y3955*
X4780Y3945*
X4800Y3955*
X4790Y3935*
X4800Y3915*
X4780Y3925*
X4760Y3915*
X4768Y3923D02*
X4774Y3935D01*
X4768Y3947*
X4780Y3941*
X4792Y3947*
X4786Y3935*
X4792Y3923*
X4780Y3929*
X4768Y3923*
X4875Y4195D02*
X4885Y4215D01*
X4875Y4235*
X4895Y4225*
X4915Y4235*
X4905Y4215*
X4915Y4195*
X4895Y4205*
X4875Y4195*
X4883Y4203D02*
X4889Y4215D01*
X4883Y4227*
X4895Y4221*
X4907Y4227*
X4901Y4215*
X4907Y4203*
X4895Y4209*
X4883Y4203*
X4510Y3685D02*
X4520Y3705D01*
X4510Y3725*
X4530Y3715*
X4550Y3725*
X4540Y3705*
X4550Y3685*
X4530Y3695*
X4510Y3685*
X4518Y3693D02*
X4524Y3705D01*
X4518Y3717*
X4530Y3711*
X4542Y3717*
X4536Y3705*
X4542Y3693*
X4530Y3699*
X4518Y3693*
X4950Y3635D02*
X4960Y3655D01*
X4950Y3675*
X4970Y3665*
X4990Y3675*
X4980Y3655*
X4990Y3635*
X4970Y3645*
X4950Y3635*
X4958Y3643D02*
X4964Y3655D01*
X4958Y3667*
X4970Y3661*
X4982Y3667*
X4976Y3655*
X4982Y3643*
X4970Y3649*
X4958Y3643*
X4905Y3820D02*
X4915Y3840D01*
X4905Y3860*
X4925Y3850*
X4945Y3860*
X4935Y3840*
X4945Y3820*
X4925Y3830*
X4905Y3820*
X4913Y3828D02*
X4919Y3840D01*
X4913Y3852*
X4925Y3846*
X4937Y3852*
X4931Y3840*
X4937Y3828*
X4925Y3834*
X4913Y3828*
X4545Y4140D02*
X4555Y4160D01*
X4545Y4180*
X4565Y4170*
X4585Y4180*
X4575Y4160*
X4585Y4140*
X4565Y4150*
X4545Y4140*
X4553Y4148D02*
X4559Y4160D01*
X4553Y4172*
X4565Y4166*
X4577Y4172*
X4571Y4160*
X4577Y4148*
X4565Y4154*
X4553Y4148*
X2185Y2090D02*
X2195Y2110D01*
X2185Y2130*
X2205Y2120*
X2225Y2130*
X2215Y2110*
X2225Y2090*
X2205Y2100*
X2185Y2090*
X2193Y2098D02*
X2199Y2110D01*
X2193Y2122*
X2205Y2116*
X2217Y2122*
X2211Y2110*
X2217Y2098*
X2205Y2104*
X2193Y2098*
X2090Y1795D02*
X2100Y1815D01*
X2090Y1835*
X2110Y1825*
X2130Y1835*
X2120Y1815*
X2130Y1795*
X2110Y1805*
X2090Y1795*
X2098Y1803D02*
X2104Y1815D01*
X2098Y1827*
X2110Y1821*
X2122Y1827*
X2116Y1815*
X2122Y1803*
X2110Y1809*
X2098Y1803*
X2095Y1940D02*
X2105Y1960D01*
X2095Y1980*
X2115Y1970*
X2135Y1980*
X2125Y1960*
X2135Y1940*
X2115Y1950*
X2095Y1940*
X2103Y1948D02*
X2109Y1960D01*
X2103Y1972*
X2115Y1966*
X2127Y1972*
X2121Y1960*
X2127Y1948*
X2115Y1954*
X2103Y1948*
X1865Y2035D02*
X1875Y2055D01*
X1865Y2075*
X1885Y2065*
X1905Y2075*
X1895Y2055*
X1905Y2035*
X1885Y2045*
X1865Y2035*
X1873Y2043D02*
X1879Y2055D01*
X1873Y2067*
X1885Y2061*
X1897Y2067*
X1891Y2055*
X1897Y2043*
X1885Y2049*
X1873Y2043*
X2025Y2240D02*
X2035Y2260D01*
X2025Y2280*
X2045Y2270*
X2065Y2280*
X2055Y2260*
X2065Y2240*
X2045Y2250*
X2025Y2240*
X2033Y2248D02*
X2039Y2260D01*
X2033Y2272*
X2045Y2266*
X2057Y2272*
X2051Y2260*
X2057Y2248*
X2045Y2254*
X2033Y2248*
X2120Y2370D02*
X2130Y2390D01*
X2120Y2410*
X2140Y2400*
X2160Y2410*
X2150Y2390*
X2160Y2370*
X2140Y2380*
X2120Y2370*
X2128Y2378D02*
X2134Y2390D01*
X2128Y2402*
X2140Y2396*
X2152Y2402*
X2146Y2390*
X2152Y2378*
X2140Y2384*
X2128Y2378*
X2150Y2540D02*
X2160Y2560D01*
X2150Y2580*
X2170Y2570*
X2190Y2580*
X2180Y2560*
X2190Y2540*
X2170Y2550*
X2150Y2540*
X2158Y2548D02*
X2164Y2560D01*
X2158Y2572*
X2170Y2566*
X2182Y2572*
X2176Y2560*
X2182Y2548*
X2170Y2554*
X2158Y2548*
X2025Y2475D02*
X2035Y2495D01*
X2025Y2515*
X2045Y2505*
X2065Y2515*
X2055Y2495*
X2065Y2475*
X2045Y2485*
X2025Y2475*
X2033Y2483D02*
X2039Y2495D01*
X2033Y2507*
X2045Y2501*
X2057Y2507*
X2051Y2495*
X2057Y2483*
X2045Y2489*
X2033Y2483*
X2075Y4825D02*
X2085Y4845D01*
X2075Y4865*
X2095Y4855*
X2115Y4865*
X2105Y4845*
X2115Y4825*
X2095Y4835*
X2075Y4825*
X2083Y4833D02*
X2089Y4845D01*
X2083Y4857*
X2095Y4851*
X2107Y4857*
X2101Y4845*
X2107Y4833*
X2095Y4839*
X2083Y4833*
X1460Y4760D02*
X1470Y4780D01*
X1460Y4800*
X1480Y4790*
X1500Y4800*
X1490Y4780*
X1500Y4760*
X1480Y4770*
X1460Y4760*
X1468Y4768D02*
X1474Y4780D01*
X1468Y4792*
X1480Y4786*
X1492Y4792*
X1486Y4780*
X1492Y4768*
X1480Y4774*
X1468Y4768*
X1740Y4630D02*
X1750Y4650D01*
X1740Y4670*
X1760Y4660*
X1780Y4670*
X1770Y4650*
X1780Y4630*
X1760Y4640*
X1740Y4630*
X1748Y4638D02*
X1754Y4650D01*
X1748Y4662*
X1760Y4656*
X1772Y4662*
X1766Y4650*
X1772Y4638*
X1760Y4644*
X1748Y4638*
X1640Y4790D02*
X1650Y4810D01*
X1640Y4830*
X1660Y4820*
X1680Y4830*
X1670Y4810*
X1680Y4790*
X1660Y4800*
X1640Y4790*
X1648Y4798D02*
X1654Y4810D01*
X1648Y4822*
X1660Y4816*
X1672Y4822*
X1666Y4810*
X1672Y4798*
X1660Y4804*
X1648Y4798*
X1860Y4745D02*
X1870Y4765D01*
X1860Y4785*
X1880Y4775*
X1900Y4785*
X1890Y4765*
X1900Y4745*
X1880Y4755*
X1860Y4745*
X1868Y4753D02*
X1874Y4765D01*
X1868Y4777*
X1880Y4771*
X1892Y4777*
X1886Y4765*
X1892Y4753*
X1880Y4759*
X1868Y4753*
X1995Y4680D02*
X2005Y4700D01*
X1995Y4720*
X2015Y4710*
X2035Y4720*
X2025Y4700*
X2035Y4680*
X2015Y4690*
X1995Y4680*
X2003Y4688D02*
X2009Y4700D01*
X2003Y4712*
X2015Y4706*
X2027Y4712*
X2021Y4700*
X2027Y4688*
X2015Y4694*
X2003Y4688*
X1900Y4475D02*
X1910Y4495D01*
X1900Y4515*
X1920Y4505*
X1940Y4515*
X1930Y4495*
X1940Y4475*
X1920Y4485*
X1900Y4475*
X1908Y4483D02*
X1914Y4495D01*
X1908Y4507*
X1920Y4501*
X1932Y4507*
X1926Y4495*
X1932Y4483*
X1920Y4489*
X1908Y4483*
X2510Y4275D02*
X2520Y4295D01*
X2510Y4315*
X2530Y4305*
X2550Y4315*
X2540Y4295*
X2550Y4275*
X2530Y4285*
X2510Y4275*
X2518Y4283D02*
X2524Y4295D01*
X2518Y4307*
X2530Y4301*
X2542Y4307*
X2536Y4295*
X2542Y4283*
X2530Y4289*
X2518Y4283*
X2865Y3995D02*
X2875Y4015D01*
X2865Y4035*
X2885Y4025*
X2905Y4035*
X2895Y4015*
X2905Y3995*
X2885Y4005*
X2865Y3995*
X2873Y4003D02*
X2879Y4015D01*
X2873Y4027*
X2885Y4021*
X2897Y4027*
X2891Y4015*
X2897Y4003*
X2885Y4009*
X2873Y4003*
X3055Y3355D02*
X3065Y3375D01*
X3055Y3395*
X3075Y3385*
X3095Y3395*
X3085Y3375*
X3095Y3355*
X3075Y3365*
X3055Y3355*
X3063Y3363D02*
X3069Y3375D01*
X3063Y3387*
X3075Y3381*
X3087Y3387*
X3081Y3375*
X3087Y3363*
X3075Y3369*
X3063Y3363*
X3160Y3455D02*
X3170Y3475D01*
X3160Y3495*
X3180Y3485*
X3200Y3495*
X3190Y3475*
X3200Y3455*
X3180Y3465*
X3160Y3455*
X3168Y3463D02*
X3174Y3475D01*
X3168Y3487*
X3180Y3481*
X3192Y3487*
X3186Y3475*
X3192Y3463*
X3180Y3469*
X3168Y3463*
X3850Y4075D02*
X3860Y4095D01*
X3850Y4115*
X3870Y4105*
X3890Y4115*
X3880Y4095*
X3890Y4075*
X3870Y4085*
X3850Y4075*
X3858Y4083D02*
X3864Y4095D01*
X3858Y4107*
X3870Y4101*
X3882Y4107*
X3876Y4095*
X3882Y4083*
X3870Y4089*
X3858Y4083*
X3755Y4205D02*
X3765Y4225D01*
X3755Y4245*
X3775Y4235*
X3795Y4245*
X3785Y4225*
X3795Y4205*
X3775Y4215*
X3755Y4205*
X3763Y4213D02*
X3769Y4225D01*
X3763Y4237*
X3775Y4231*
X3787Y4237*
X3781Y4225*
X3787Y4213*
X3775Y4219*
X3763Y4213*
X3040Y4555D02*
X3050Y4575D01*
X3040Y4595*
X3060Y4585*
X3080Y4595*
X3070Y4575*
X3080Y4555*
X3060Y4565*
X3040Y4555*
X3048Y4563D02*
X3054Y4575D01*
X3048Y4587*
X3060Y4581*
X3072Y4587*
X3066Y4575*
X3072Y4563*
X3060Y4569*
X3048Y4563*
X2595Y4430D02*
X2605Y4450D01*
X2595Y4470*
X2615Y4460*
X2635Y4470*
X2625Y4450*
X2635Y4430*
X2615Y4440*
X2595Y4430*
X2603Y4438D02*
X2609Y4450D01*
X2603Y4462*
X2615Y4456*
X2627Y4462*
X2621Y4450*
X2627Y4438*
X2615Y4444*
X2603Y4438*
X2510Y4670D02*
X2520Y4690D01*
X2510Y4710*
X2530Y4700*
X2550Y4710*
X2540Y4690*
X2550Y4670*
X2530Y4680*
X2510Y4670*
X2518Y4678D02*
X2524Y4690D01*
X2518Y4702*
X2530Y4696*
X2542Y4702*
X2536Y4690*
X2542Y4678*
X2530Y4684*
X2518Y4678*
X2810Y4675D02*
X2820Y4695D01*
X2810Y4715*
X2830Y4705*
X2850Y4715*
X2840Y4695*
X2850Y4675*
X2830Y4685*
X2810Y4675*
X2818Y4683D02*
X2824Y4695D01*
X2818Y4707*
X2830Y4701*
X2842Y4707*
X2836Y4695*
X2842Y4683*
X2830Y4689*
X2818Y4683*
X2995Y4670D02*
X3005Y4690D01*
X2995Y4710*
X3015Y4700*
X3035Y4710*
X3025Y4690*
X3035Y4670*
X3015Y4680*
X2995Y4670*
X3003Y4678D02*
X3009Y4690D01*
X3003Y4702*
X3015Y4696*
X3027Y4702*
X3021Y4690*
X3027Y4678*
X3015Y4684*
X3003Y4678*
X3160Y4670D02*
X3170Y4690D01*
X3160Y4710*
X3180Y4700*
X3200Y4710*
X3190Y4690*
X3200Y4670*
X3180Y4680*
X3160Y4670*
X3168Y4678D02*
X3174Y4690D01*
X3168Y4702*
X3180Y4696*
X3192Y4702*
X3186Y4690*
X3192Y4678*
X3180Y4684*
X3168Y4678*
X3335Y4670D02*
X3345Y4690D01*
X3335Y4710*
X3355Y4700*
X3375Y4710*
X3365Y4690*
X3375Y4670*
X3355Y4680*
X3335Y4670*
X3343Y4678D02*
X3349Y4690D01*
X3343Y4702*
X3355Y4696*
X3367Y4702*
X3361Y4690*
X3367Y4678*
X3355Y4684*
X3343Y4678*
X3525Y4680D02*
X3535Y4700D01*
X3525Y4720*
X3545Y4710*
X3565Y4720*
X3555Y4700*
X3565Y4680*
X3545Y4690*
X3525Y4680*
X3533Y4688D02*
X3539Y4700D01*
X3533Y4712*
X3545Y4706*
X3557Y4712*
X3551Y4700*
X3557Y4688*
X3545Y4694*
X3533Y4688*
X3675Y4590D02*
X3685Y4610D01*
X3675Y4630*
X3695Y4620*
X3715Y4630*
X3705Y4610*
X3715Y4590*
X3695Y4600*
X3675Y4590*
X3683Y4598D02*
X3689Y4610D01*
X3683Y4622*
X3695Y4616*
X3707Y4622*
X3701Y4610*
X3707Y4598*
X3695Y4604*
X3683Y4598*
X3880Y4820D02*
X3890Y4840D01*
X3880Y4860*
X3900Y4850*
X3920Y4860*
X3910Y4840*
X3920Y4820*
X3900Y4830*
X3880Y4820*
X3888Y4828D02*
X3894Y4840D01*
X3888Y4852*
X3900Y4846*
X3912Y4852*
X3906Y4840*
X3912Y4828*
X3900Y4834*
X3888Y4828*
X4220Y4815D02*
X4230Y4835D01*
X4220Y4855*
X4240Y4845*
X4260Y4855*
X4250Y4835*
X4260Y4815*
X4240Y4825*
X4220Y4815*
X4228Y4823D02*
X4234Y4835D01*
X4228Y4847*
X4240Y4841*
X4252Y4847*
X4246Y4835*
X4252Y4823*
X4240Y4829*
X4228Y4823*
X4510Y4820D02*
X4520Y4840D01*
X4510Y4860*
X4530Y4850*
X4550Y4860*
X4540Y4840*
X4550Y4820*
X4530Y4830*
X4510Y4820*
X4518Y4828D02*
X4524Y4840D01*
X4518Y4852*
X4530Y4846*
X4542Y4852*
X4536Y4840*
X4542Y4828*
X4530Y4834*
X4518Y4828*
X4350Y4680D02*
X4360Y4700D01*
X4350Y4720*
X4370Y4710*
X4390Y4720*
X4380Y4700*
X4390Y4680*
X4370Y4690*
X4350Y4680*
X4358Y4688D02*
X4364Y4700D01*
X4358Y4712*
X4370Y4706*
X4382Y4712*
X4376Y4700*
X4382Y4688*
X4370Y4694*
X4358Y4688*
X4175Y4605D02*
X4185Y4625D01*
X4175Y4645*
X4195Y4635*
X4215Y4645*
X4205Y4625*
X4215Y4605*
X4195Y4615*
X4175Y4605*
X4183Y4613D02*
X4189Y4625D01*
X4183Y4637*
X4195Y4631*
X4207Y4637*
X4201Y4625*
X4207Y4613*
X4195Y4619*
X4183Y4613*
X4180Y4405D02*
X4190Y4425D01*
X4180Y4445*
X4200Y4435*
X4220Y4445*
X4210Y4425*
X4220Y4405*
X4200Y4415*
X4180Y4405*
X4188Y4413D02*
X4194Y4425D01*
X4188Y4437*
X4200Y4431*
X4212Y4437*
X4206Y4425*
X4212Y4413*
X4200Y4419*
X4188Y4413*
X4375Y4470D02*
X4385Y4490D01*
X4375Y4510*
X4395Y4500*
X4415Y4510*
X4405Y4490*
X4415Y4470*
X4395Y4480*
X4375Y4470*
X4383Y4478D02*
X4389Y4490D01*
X4383Y4502*
X4395Y4496*
X4407Y4502*
X4401Y4490*
X4407Y4478*
X4395Y4484*
X4383Y4478*
X4510Y4365D02*
X4520Y4385D01*
X4510Y4405*
X4530Y4395*
X4550Y4405*
X4540Y4385*
X4550Y4365*
X4530Y4375*
X4510Y4365*
X4518Y4373D02*
X4524Y4385D01*
X4518Y4397*
X4530Y4391*
X4542Y4397*
X4536Y4385*
X4542Y4373*
X4530Y4379*
X4518Y4373*
X4535Y4565D02*
X4545Y4585D01*
X4535Y4605*
X4555Y4595*
X4575Y4605*
X4565Y4585*
X4575Y4565*
X4555Y4575*
X4535Y4565*
X4543Y4573D02*
X4549Y4585D01*
X4543Y4597*
X4555Y4591*
X4567Y4597*
X4561Y4585*
X4567Y4573*
X4555Y4579*
X4543Y4573*
X4705Y4370D02*
X4715Y4390D01*
X4705Y4410*
X4725Y4400*
X4745Y4410*
X4735Y4390*
X4745Y4370*
X4725Y4380*
X4705Y4370*
X4713Y4378D02*
X4719Y4390D01*
X4713Y4402*
X4725Y4396*
X4737Y4402*
X4731Y4390*
X4737Y4378*
X4725Y4384*
X4713Y4378*
X4705Y4620D02*
X4715Y4640D01*
X4705Y4660*
X4725Y4650*
X4745Y4660*
X4735Y4640*
X4745Y4620*
X4725Y4630*
X4705Y4620*
X4713Y4628D02*
X4719Y4640D01*
X4713Y4652*
X4725Y4646*
X4737Y4652*
X4731Y4640*
X4737Y4628*
X4725Y4634*
X4713Y4628*
X4765Y4720D02*
X4775Y4740D01*
X4765Y4760*
X4785Y4750*
X4805Y4760*
X4795Y4740*
X4805Y4720*
X4785Y4730*
X4765Y4720*
X4773Y4728D02*
X4779Y4740D01*
X4773Y4752*
X4785Y4746*
X4797Y4752*
X4791Y4740*
X4797Y4728*
X4785Y4734*
X4773Y4728*
X5415Y4620D02*
X5425Y4640D01*
X5415Y4660*
X5435Y4650*
X5455Y4660*
X5445Y4640*
X5455Y4620*
X5435Y4630*
X5415Y4620*
X5423Y4628D02*
X5429Y4640D01*
X5423Y4652*
X5435Y4646*
X5447Y4652*
X5441Y4640*
X5447Y4628*
X5435Y4634*
X5423Y4628*
X5425Y4750D02*
X5435Y4770D01*
X5425Y4790*
X5445Y4780*
X5465Y4790*
X5455Y4770*
X5465Y4750*
X5445Y4760*
X5425Y4750*
X5433Y4758D02*
X5439Y4770D01*
X5433Y4782*
X5445Y4776*
X5457Y4782*
X5451Y4770*
X5457Y4758*
X5445Y4764*
X5433Y4758*
X6790Y4190D02*
X6800Y4210D01*
X6790Y4230*
X6810Y4220*
X6830Y4230*
X6820Y4210*
X6830Y4190*
X6810Y4200*
X6790Y4190*
X6798Y4198D02*
X6804Y4210D01*
X6798Y4222*
X6810Y4216*
X6822Y4222*
X6816Y4210*
X6822Y4198*
X6810Y4204*
X6798Y4198*
X6825Y4330D02*
X6835Y4350D01*
X6825Y4370*
X6845Y4360*
X6865Y4370*
X6855Y4350*
X6865Y4330*
X6845Y4340*
X6825Y4330*
X6833Y4338D02*
X6839Y4350D01*
X6833Y4362*
X6845Y4356*
X6857Y4362*
X6851Y4350*
X6857Y4338*
X6845Y4344*
X6833Y4338*
X6860Y4550D02*
X6870Y4570D01*
X6860Y4590*
X6880Y4580*
X6900Y4590*
X6890Y4570*
X6900Y4550*
X6880Y4560*
X6860Y4550*
X6868Y4558D02*
X6874Y4570D01*
X6868Y4582*
X6880Y4576*
X6892Y4582*
X6886Y4570*
X6892Y4558*
X6880Y4564*
X6868Y4558*
X6705Y4590D02*
X6715Y4610D01*
X6705Y4630*
X6725Y4620*
X6745Y4630*
X6735Y4610*
X6745Y4590*
X6725Y4600*
X6705Y4590*
X6713Y4598D02*
X6719Y4610D01*
X6713Y4622*
X6725Y4616*
X6737Y4622*
X6731Y4610*
X6737Y4598*
X6725Y4604*
X6713Y4598*
X5530Y4115D02*
X5540Y4135D01*
X5530Y4155*
X5550Y4145*
X5570Y4155*
X5560Y4135*
X5570Y4115*
X5550Y4125*
X5530Y4115*
X5538Y4123D02*
X5544Y4135D01*
X5538Y4147*
X5550Y4141*
X5562Y4147*
X5556Y4135*
X5562Y4123*
X5550Y4129*
X5538Y4123*
X5710Y4195D02*
X5720Y4215D01*
X5710Y4235*
X5730Y4225*
X5750Y4235*
X5740Y4215*
X5750Y4195*
X5730Y4205*
X5710Y4195*
X5718Y4203D02*
X5724Y4215D01*
X5718Y4227*
X5730Y4221*
X5742Y4227*
X5736Y4215*
X5742Y4203*
X5730Y4209*
X5718Y4203*
X6390Y4390D02*
X6400Y4410D01*
X6390Y4430*
X6410Y4420*
X6430Y4430*
X6420Y4410*
X6430Y4390*
X6410Y4400*
X6390Y4390*
X6398Y4398D02*
X6404Y4410D01*
X6398Y4422*
X6410Y4416*
X6422Y4422*
X6416Y4410*
X6422Y4398*
X6410Y4404*
X6398Y4398*
X5955Y4165D02*
X5965Y4185D01*
X5955Y4205*
X5975Y4195*
X5995Y4205*
X5985Y4185*
X5995Y4165*
X5975Y4175*
X5955Y4165*
X5963Y4173D02*
X5969Y4185D01*
X5963Y4197*
X5975Y4191*
X5987Y4197*
X5981Y4185*
X5987Y4173*
X5975Y4179*
X5963Y4173*
X5845Y4050D02*
X5855Y4070D01*
X5845Y4090*
X5865Y4080*
X5885Y4090*
X5875Y4070*
X5885Y4050*
X5865Y4060*
X5845Y4050*
X5853Y4058D02*
X5859Y4070D01*
X5853Y4082*
X5865Y4076*
X5877Y4082*
X5871Y4070*
X5877Y4058*
X5865Y4064*
X5853Y4058*
X6725Y2550D02*
X6735Y2570D01*
X6725Y2590*
X6745Y2580*
X6765Y2590*
X6755Y2570*
X6765Y2550*
X6745Y2560*
X6725Y2550*
X6733Y2558D02*
X6739Y2570D01*
X6733Y2582*
X6745Y2576*
X6757Y2582*
X6751Y2570*
X6757Y2558*
X6745Y2564*
X6733Y2558*
X6805Y2395D02*
X6815Y2415D01*
X6805Y2435*
X6825Y2425*
X6845Y2435*
X6835Y2415*
X6845Y2395*
X6825Y2405*
X6805Y2395*
X6813Y2403D02*
X6819Y2415D01*
X6813Y2427*
X6825Y2421*
X6837Y2427*
X6831Y2415*
X6837Y2403*
X6825Y2409*
X6813Y2403*
X6830Y2075D02*
X6840Y2095D01*
X6830Y2115*
X6850Y2105*
X6870Y2115*
X6860Y2095*
X6870Y2075*
X6850Y2085*
X6830Y2075*
X6838Y2083D02*
X6844Y2095D01*
X6838Y2107*
X6850Y2101*
X6862Y2107*
X6856Y2095*
X6862Y2083*
X6850Y2089*
X6838Y2083*
X6620Y2195D02*
X6630Y2215D01*
X6620Y2235*
X6640Y2225*
X6660Y2235*
X6650Y2215*
X6660Y2195*
X6640Y2205*
X6620Y2195*
X6628Y2203D02*
X6634Y2215D01*
X6628Y2227*
X6640Y2221*
X6652Y2227*
X6646Y2215*
X6652Y2203*
X6640Y2209*
X6628Y2203*
X6385Y2085D02*
X6395Y2105D01*
X6385Y2125*
X6405Y2115*
X6425Y2125*
X6415Y2105*
X6425Y2085*
X6405Y2095*
X6385Y2085*
X6393Y2093D02*
X6399Y2105D01*
X6393Y2117*
X6405Y2111*
X6417Y2117*
X6411Y2105*
X6417Y2093*
X6405Y2099*
X6393Y2093*
X6390Y2300D02*
X6400Y2320D01*
X6390Y2340*
X6410Y2330*
X6430Y2340*
X6420Y2320*
X6430Y2300*
X6410Y2310*
X6390Y2300*
X6398Y2308D02*
X6404Y2320D01*
X6398Y2332*
X6410Y2326*
X6422Y2332*
X6416Y2320*
X6422Y2308*
X6410Y2314*
X6398Y2308*
X6120Y2065D02*
X6130Y2085D01*
X6120Y2105*
X6140Y2095*
X6160Y2105*
X6150Y2085*
X6160Y2065*
X6140Y2075*
X6120Y2065*
X6128Y2073D02*
X6134Y2085D01*
X6128Y2097*
X6140Y2091*
X6152Y2097*
X6146Y2085*
X6152Y2073*
X6140Y2079*
X6128Y2073*
X6195Y2305D02*
X6205Y2325D01*
X6195Y2345*
X6215Y2335*
X6235Y2345*
X6225Y2325*
X6235Y2305*
X6215Y2315*
X6195Y2305*
X6203Y2313D02*
X6209Y2325D01*
X6203Y2337*
X6215Y2331*
X6227Y2337*
X6221Y2325*
X6227Y2313*
X6215Y2319*
X6203Y2313*
X6480Y2555D02*
X6490Y2575D01*
X6480Y2595*
X6500Y2585*
X6520Y2595*
X6510Y2575*
X6520Y2555*
X6500Y2565*
X6480Y2555*
X6488Y2563D02*
X6494Y2575D01*
X6488Y2587*
X6500Y2581*
X6512Y2587*
X6506Y2575*
X6512Y2563*
X6500Y2569*
X6488Y2563*
X6575Y2405D02*
X6585Y2425D01*
X6575Y2445*
X6595Y2435*
X6615Y2445*
X6605Y2425*
X6615Y2405*
X6595Y2415*
X6575Y2405*
X6583Y2413D02*
X6589Y2425D01*
X6583Y2437*
X6595Y2431*
X6607Y2437*
X6601Y2425*
X6607Y2413*
X6595Y2419*
X6583Y2413*
X6195Y2515D02*
X6205Y2535D01*
X6195Y2555*
X6215Y2545*
X6235Y2555*
X6225Y2535*
X6235Y2515*
X6215Y2525*
X6195Y2515*
X6203Y2523D02*
X6209Y2535D01*
X6203Y2547*
X6215Y2541*
X6227Y2547*
X6221Y2535*
X6227Y2523*
X6215Y2529*
X6203Y2523*
X6100Y2590D02*
X6110Y2610D01*
X6100Y2630*
X6120Y2620*
X6140Y2630*
X6130Y2610*
X6140Y2590*
X6120Y2600*
X6100Y2590*
X6108Y2598D02*
X6114Y2610D01*
X6108Y2622*
X6120Y2616*
X6132Y2622*
X6126Y2610*
X6132Y2598*
X6120Y2604*
X6108Y2598*
X6745Y3390D02*
X6755Y3410D01*
X6745Y3430*
X6765Y3420*
X6785Y3430*
X6775Y3410*
X6785Y3390*
X6765Y3400*
X6745Y3390*
X6753Y3398D02*
X6759Y3410D01*
X6753Y3422*
X6765Y3416*
X6777Y3422*
X6771Y3410*
X6777Y3398*
X6765Y3404*
X6753Y3398*
X6820Y3525D02*
X6830Y3545D01*
X6820Y3565*
X6840Y3555*
X6860Y3565*
X6850Y3545*
X6860Y3525*
X6840Y3535*
X6820Y3525*
X6828Y3533D02*
X6834Y3545D01*
X6828Y3557*
X6840Y3551*
X6852Y3557*
X6846Y3545*
X6852Y3533*
X6840Y3539*
X6828Y3533*
X6615Y3485D02*
X6625Y3505D01*
X6615Y3525*
X6635Y3515*
X6655Y3525*
X6645Y3505*
X6655Y3485*
X6635Y3495*
X6615Y3485*
X6623Y3493D02*
X6629Y3505D01*
X6623Y3517*
X6635Y3511*
X6647Y3517*
X6641Y3505*
X6647Y3493*
X6635Y3499*
X6623Y3493*
X6726Y3662D02*
X6736Y3682D01*
X6726Y3702*
X6746Y3692*
X6766Y3702*
X6756Y3682*
X6766Y3662*
X6746Y3672*
X6726Y3662*
X6734Y3670D02*
X6740Y3682D01*
X6734Y3694*
X6746Y3688*
X6758Y3694*
X6752Y3682*
X6758Y3670*
X6746Y3676*
X6734Y3670*
X6810Y3785D02*
X6820Y3805D01*
X6810Y3825*
X6830Y3815*
X6850Y3825*
X6840Y3805*
X6850Y3785*
X6830Y3795*
X6810Y3785*
X6818Y3793D02*
X6824Y3805D01*
X6818Y3817*
X6830Y3811*
X6842Y3817*
X6836Y3805*
X6842Y3793*
X6830Y3799*
X6818Y3793*
X6600Y3725D02*
X6610Y3745D01*
X6600Y3765*
X6620Y3755*
X6640Y3765*
X6630Y3745*
X6640Y3725*
X6620Y3735*
X6600Y3725*
X6608Y3733D02*
X6614Y3745D01*
X6608Y3757*
X6620Y3751*
X6632Y3757*
X6626Y3745*
X6632Y3733*
X6620Y3739*
X6608Y3733*
X6470Y3580D02*
X6480Y3600D01*
X6470Y3620*
X6490Y3610*
X6510Y3620*
X6500Y3600*
X6510Y3580*
X6490Y3590*
X6470Y3580*
X6478Y3588D02*
X6484Y3600D01*
X6478Y3612*
X6490Y3606*
X6502Y3612*
X6496Y3600*
X6502Y3588*
X6490Y3594*
X6478Y3588*
X6430Y3410D02*
X6440Y3430D01*
X6430Y3450*
X6450Y3440*
X6470Y3450*
X6460Y3430*
X6470Y3410*
X6450Y3420*
X6430Y3410*
X6438Y3418D02*
X6444Y3430D01*
X6438Y3442*
X6450Y3436*
X6462Y3442*
X6456Y3430*
X6462Y3418*
X6450Y3424*
X6438Y3418*
X6340Y3300D02*
X6350Y3320D01*
X6340Y3340*
X6360Y3330*
X6380Y3340*
X6370Y3320*
X6380Y3300*
X6360Y3310*
X6340Y3300*
X6348Y3308D02*
X6354Y3320D01*
X6348Y3332*
X6360Y3326*
X6372Y3332*
X6366Y3320*
X6372Y3308*
X6360Y3314*
X6348Y3308*
X6135Y3165D02*
X6145Y3185D01*
X6135Y3205*
X6155Y3195*
X6175Y3205*
X6165Y3185*
X6175Y3165*
X6155Y3175*
X6135Y3165*
X6143Y3173D02*
X6149Y3185D01*
X6143Y3197*
X6155Y3191*
X6167Y3197*
X6161Y3185*
X6167Y3173*
X6155Y3179*
X6143Y3173*
X6130Y3550D02*
X6140Y3570D01*
X6130Y3590*
X6150Y3580*
X6170Y3590*
X6160Y3570*
X6170Y3550*
X6150Y3560*
X6130Y3550*
X6138Y3558D02*
X6144Y3570D01*
X6138Y3582*
X6150Y3576*
X6162Y3582*
X6156Y3570*
X6162Y3558*
X6150Y3564*
X6138Y3558*
X6025Y3400D02*
X6035Y3420D01*
X6025Y3440*
X6045Y3430*
X6065Y3440*
X6055Y3420*
X6065Y3400*
X6045Y3410*
X6025Y3400*
X6033Y3408D02*
X6039Y3420D01*
X6033Y3432*
X6045Y3426*
X6057Y3432*
X6051Y3420*
X6057Y3408*
X6045Y3414*
X6033Y3408*
X5390Y3295D02*
X5400Y3315D01*
X5390Y3335*
X5410Y3325*
X5430Y3335*
X5420Y3315*
X5430Y3295*
X5410Y3305*
X5390Y3295*
X5398Y3303D02*
X5404Y3315D01*
X5398Y3327*
X5410Y3321*
X5422Y3327*
X5416Y3315*
X5422Y3303*
X5410Y3309*
X5398Y3303*
X5535Y2970D02*
X5545Y2990D01*
X5535Y3010*
X5555Y3000*
X5575Y3010*
X5565Y2990*
X5575Y2970*
X5555Y2980*
X5535Y2970*
X5543Y2978D02*
X5549Y2990D01*
X5543Y3002*
X5555Y2996*
X5567Y3002*
X5561Y2990*
X5567Y2978*
X5555Y2984*
X5543Y2978*
X5340Y3170D02*
X5350Y3190D01*
X5340Y3210*
X5360Y3200*
X5380Y3210*
X5370Y3190*
X5380Y3170*
X5360Y3180*
X5340Y3170*
X5348Y3178D02*
X5354Y3190D01*
X5348Y3202*
X5360Y3196*
X5372Y3202*
X5366Y3190*
X5372Y3178*
X5360Y3184*
X5348Y3178*
X5250Y3270D02*
X5260Y3290D01*
X5250Y3310*
X5270Y3300*
X5290Y3310*
X5280Y3290*
X5290Y3270*
X5270Y3280*
X5250Y3270*
X5258Y3278D02*
X5264Y3290D01*
X5258Y3302*
X5270Y3296*
X5282Y3302*
X5276Y3290*
X5282Y3278*
X5270Y3284*
X5258Y3278*
X4730Y2460D02*
X4740Y2480D01*
X4730Y2500*
X4750Y2490*
X4770Y2500*
X4760Y2480*
X4770Y2460*
X4750Y2470*
X4730Y2460*
X4738Y2468D02*
X4744Y2480D01*
X4738Y2492*
X4750Y2486*
X4762Y2492*
X4756Y2480*
X4762Y2468*
X4750Y2474*
X4738Y2468*
X4750Y2570D02*
X4760Y2590D01*
X4750Y2610*
X4770Y2600*
X4790Y2610*
X4780Y2590*
X4790Y2570*
X4770Y2580*
X4750Y2570*
X4758Y2578D02*
X4764Y2590D01*
X4758Y2602*
X4770Y2596*
X4782Y2602*
X4776Y2590*
X4782Y2578*
X4770Y2584*
X4758Y2578*
X4600Y2685D02*
X4610Y2705D01*
X4600Y2725*
X4620Y2715*
X4640Y2725*
X4630Y2705*
X4640Y2685*
X4620Y2695*
X4600Y2685*
X4608Y2693D02*
X4614Y2705D01*
X4608Y2717*
X4620Y2711*
X4632Y2717*
X4626Y2705*
X4632Y2693*
X4620Y2699*
X4608Y2693*
X4405Y2700D02*
X4415Y2720D01*
X4405Y2740*
X4425Y2730*
X4445Y2740*
X4435Y2720*
X4445Y2700*
X4425Y2710*
X4405Y2700*
X4413Y2708D02*
X4419Y2720D01*
X4413Y2732*
X4425Y2726*
X4437Y2732*
X4431Y2720*
X4437Y2708*
X4425Y2714*
X4413Y2708*
X4390Y2865D02*
X4400Y2885D01*
X4390Y2905*
X4410Y2895*
X4430Y2905*
X4420Y2885*
X4430Y2865*
X4410Y2875*
X4390Y2865*
X4398Y2873D02*
X4404Y2885D01*
X4398Y2897*
X4410Y2891*
X4422Y2897*
X4416Y2885*
X4422Y2873*
X4410Y2879*
X4398Y2873*
X4655Y2855D02*
X4665Y2875D01*
X4655Y2895*
X4675Y2885*
X4695Y2895*
X4685Y2875*
X4695Y2855*
X4675Y2865*
X4655Y2855*
X4663Y2863D02*
X4669Y2875D01*
X4663Y2887*
X4675Y2881*
X4687Y2887*
X4681Y2875*
X4687Y2863*
X4675Y2869*
X4663Y2863*
X4815Y3010D02*
X4825Y3030D01*
X4815Y3050*
X4835Y3040*
X4855Y3050*
X4845Y3030*
X4855Y3010*
X4835Y3020*
X4815Y3010*
X4823Y3018D02*
X4829Y3030D01*
X4823Y3042*
X4835Y3036*
X4847Y3042*
X4841Y3030*
X4847Y3018*
X4835Y3024*
X4823Y3018*
X4985Y3105D02*
X4995Y3125D01*
X4985Y3145*
X5005Y3135*
X5025Y3145*
X5015Y3125*
X5025Y3105*
X5005Y3115*
X4985Y3105*
X4993Y3113D02*
X4999Y3125D01*
X4993Y3137*
X5005Y3131*
X5017Y3137*
X5011Y3125*
X5017Y3113*
X5005Y3119*
X4993Y3113*
X5120Y3120D02*
X5130Y3140D01*
X5120Y3160*
X5140Y3150*
X5160Y3160*
X5150Y3140*
X5160Y3120*
X5140Y3130*
X5120Y3120*
X5128Y3128D02*
X5134Y3140D01*
X5128Y3152*
X5140Y3146*
X5152Y3152*
X5146Y3140*
X5152Y3128*
X5140Y3134*
X5128Y3128*
X5245Y3000D02*
X5255Y3020D01*
X5245Y3040*
X5265Y3030*
X5285Y3040*
X5275Y3020*
X5285Y3000*
X5265Y3010*
X5245Y3000*
X5253Y3008D02*
X5259Y3020D01*
X5253Y3032*
X5265Y3026*
X5277Y3032*
X5271Y3020*
X5277Y3008*
X5265Y3014*
X5253Y3008*
X5095Y2995D02*
X5105Y3015D01*
X5095Y3035*
X5115Y3025*
X5135Y3035*
X5125Y3015*
X5135Y2995*
X5115Y3005*
X5095Y2995*
X5103Y3003D02*
X5109Y3015D01*
X5103Y3027*
X5115Y3021*
X5127Y3027*
X5121Y3015*
X5127Y3003*
X5115Y3009*
X5103Y3003*
X4955Y2975D02*
X4965Y2995D01*
X4955Y3015*
X4975Y3005*
X4995Y3015*
X4985Y2995*
X4995Y2975*
X4975Y2985*
X4955Y2975*
X4963Y2983D02*
X4969Y2995D01*
X4963Y3007*
X4975Y3001*
X4987Y3007*
X4981Y2995*
X4987Y2983*
X4975Y2989*
X4963Y2983*
X4870Y2860D02*
X4880Y2880D01*
X4870Y2900*
X4890Y2890*
X4910Y2900*
X4900Y2880*
X4910Y2860*
X4890Y2870*
X4870Y2860*
X4878Y2868D02*
X4884Y2880D01*
X4878Y2892*
X4890Y2886*
X4902Y2892*
X4896Y2880*
X4902Y2868*
X4890Y2874*
X4878Y2868*
X4935Y2620D02*
X4945Y2640D01*
X4935Y2660*
X4955Y2650*
X4975Y2660*
X4965Y2640*
X4975Y2620*
X4955Y2630*
X4935Y2620*
X4943Y2628D02*
X4949Y2640D01*
X4943Y2652*
X4955Y2646*
X4967Y2652*
X4961Y2640*
X4967Y2628*
X4955Y2634*
X4943Y2628*
X4895Y2515D02*
X4905Y2535D01*
X4895Y2555*
X4915Y2545*
X4935Y2555*
X4925Y2535*
X4935Y2515*
X4915Y2525*
X4895Y2515*
X4903Y2523D02*
X4909Y2535D01*
X4903Y2547*
X4915Y2541*
X4927Y2547*
X4921Y2535*
X4927Y2523*
X4915Y2529*
X4903Y2523*
X4920Y1695D02*
X4930Y1715D01*
X4920Y1735*
X4940Y1725*
X4960Y1735*
X4950Y1715*
X4960Y1695*
X4940Y1705*
X4920Y1695*
X4928Y1703D02*
X4934Y1715D01*
X4928Y1727*
X4940Y1721*
X4952Y1727*
X4946Y1715*
X4952Y1703*
X4940Y1709*
X4928Y1703*
X5220Y1945D02*
X5230Y1965D01*
X5220Y1985*
X5240Y1975*
X5260Y1985*
X5250Y1965*
X5260Y1945*
X5240Y1955*
X5220Y1945*
X5228Y1953D02*
X5234Y1965D01*
X5228Y1977*
X5240Y1971*
X5252Y1977*
X5246Y1965*
X5252Y1953*
X5240Y1959*
X5228Y1953*
X5315Y1985D02*
X5325Y2005D01*
X5315Y2025*
X5335Y2015*
X5355Y2025*
X5345Y2005*
X5355Y1985*
X5335Y1995*
X5315Y1985*
X5323Y1993D02*
X5329Y2005D01*
X5323Y2017*
X5335Y2011*
X5347Y2017*
X5341Y2005*
X5347Y1993*
X5335Y1999*
X5323Y1993*
X5625Y1995D02*
X5635Y2015D01*
X5625Y2035*
X5645Y2025*
X5665Y2035*
X5655Y2015*
X5665Y1995*
X5645Y2005*
X5625Y1995*
X5633Y2003D02*
X5639Y2015D01*
X5633Y2027*
X5645Y2021*
X5657Y2027*
X5651Y2015*
X5657Y2003*
X5645Y2009*
X5633Y2003*
X5570Y1905D02*
X5580Y1925D01*
X5570Y1945*
X5590Y1935*
X5610Y1945*
X5600Y1925*
X5610Y1905*
X5590Y1915*
X5570Y1905*
X5578Y1913D02*
X5584Y1925D01*
X5578Y1937*
X5590Y1931*
X5602Y1937*
X5596Y1925*
X5602Y1913*
X5590Y1919*
X5578Y1913*
X6600Y1140D02*
X6610Y1160D01*
X6600Y1180*
X6620Y1170*
X6640Y1180*
X6630Y1160*
X6640Y1140*
X6620Y1150*
X6600Y1140*
X6608Y1148D02*
X6614Y1160D01*
X6608Y1172*
X6620Y1166*
X6632Y1172*
X6626Y1160*
X6632Y1148*
X6620Y1154*
X6608Y1148*
X6455Y1265D02*
X6465Y1285D01*
X6455Y1305*
X6475Y1295*
X6495Y1305*
X6485Y1285*
X6495Y1265*
X6475Y1275*
X6455Y1265*
X6463Y1273D02*
X6469Y1285D01*
X6463Y1297*
X6475Y1291*
X6487Y1297*
X6481Y1285*
X6487Y1273*
X6475Y1279*
X6463Y1273*
X6300Y1165D02*
X6310Y1185D01*
X6300Y1205*
X6320Y1195*
X6340Y1205*
X6330Y1185*
X6340Y1165*
X6320Y1175*
X6300Y1165*
X6308Y1173D02*
X6314Y1185D01*
X6308Y1197*
X6320Y1191*
X6332Y1197*
X6326Y1185*
X6332Y1173*
X6320Y1179*
X6308Y1173*
X6075Y1125D02*
X6085Y1145D01*
X6075Y1165*
X6095Y1155*
X6115Y1165*
X6105Y1145*
X6115Y1125*
X6095Y1135*
X6075Y1125*
X6083Y1133D02*
X6089Y1145D01*
X6083Y1157*
X6095Y1151*
X6107Y1157*
X6101Y1145*
X6107Y1133*
X6095Y1139*
X6083Y1133*
X6155Y1260D02*
X6165Y1280D01*
X6155Y1300*
X6175Y1290*
X6195Y1300*
X6185Y1280*
X6195Y1260*
X6175Y1270*
X6155Y1260*
X6163Y1268D02*
X6169Y1280D01*
X6163Y1292*
X6175Y1286*
X6187Y1292*
X6181Y1280*
X6187Y1268*
X6175Y1274*
X6163Y1268*
X5965Y1245D02*
X5975Y1265D01*
X5965Y1285*
X5985Y1275*
X6005Y1285*
X5995Y1265*
X6005Y1245*
X5985Y1255*
X5965Y1245*
X5973Y1253D02*
X5979Y1265D01*
X5973Y1277*
X5985Y1271*
X5997Y1277*
X5991Y1265*
X5997Y1253*
X5985Y1259*
X5973Y1253*
X5805Y1130D02*
X5815Y1150D01*
X5805Y1170*
X5825Y1160*
X5845Y1170*
X5835Y1150*
X5845Y1130*
X5825Y1140*
X5805Y1130*
X5813Y1138D02*
X5819Y1150D01*
X5813Y1162*
X5825Y1156*
X5837Y1162*
X5831Y1150*
X5837Y1138*
X5825Y1144*
X5813Y1138*
X5820Y1325D02*
X5830Y1345D01*
X5820Y1365*
X5840Y1355*
X5860Y1365*
X5850Y1345*
X5860Y1325*
X5840Y1335*
X5820Y1325*
X5828Y1333D02*
X5834Y1345D01*
X5828Y1357*
X5840Y1351*
X5852Y1357*
X5846Y1345*
X5852Y1333*
X5840Y1339*
X5828Y1333*
X5670Y1235D02*
X5680Y1255D01*
X5670Y1275*
X5690Y1265*
X5710Y1275*
X5700Y1255*
X5710Y1235*
X5690Y1245*
X5670Y1235*
X5678Y1243D02*
X5684Y1255D01*
X5678Y1267*
X5690Y1261*
X5702Y1267*
X5696Y1255*
X5702Y1243*
X5690Y1249*
X5678Y1243*
X5485Y1165D02*
X5495Y1185D01*
X5485Y1205*
X5505Y1195*
X5525Y1205*
X5515Y1185*
X5525Y1165*
X5505Y1175*
X5485Y1165*
X5493Y1173D02*
X5499Y1185D01*
X5493Y1197*
X5505Y1191*
X5517Y1197*
X5511Y1185*
X5517Y1173*
X5505Y1179*
X5493Y1173*
X5530Y1320D02*
X5540Y1340D01*
X5530Y1360*
X5550Y1350*
X5570Y1360*
X5560Y1340*
X5570Y1320*
X5550Y1330*
X5530Y1320*
X5538Y1328D02*
X5544Y1340D01*
X5538Y1352*
X5550Y1346*
X5562Y1352*
X5556Y1340*
X5562Y1328*
X5550Y1334*
X5538Y1328*
X4845Y1330D02*
X4855Y1350D01*
X4845Y1370*
X4865Y1360*
X4885Y1370*
X4875Y1350*
X4885Y1330*
X4865Y1340*
X4845Y1330*
X4853Y1338D02*
X4859Y1350D01*
X4853Y1362*
X4865Y1356*
X4877Y1362*
X4871Y1350*
X4877Y1338*
X4865Y1344*
X4853Y1338*
X4780Y1195D02*
X4790Y1215D01*
X4780Y1235*
X4800Y1225*
X4820Y1235*
X4810Y1215*
X4820Y1195*
X4800Y1205*
X4780Y1195*
X4788Y1203D02*
X4794Y1215D01*
X4788Y1227*
X4800Y1221*
X4812Y1227*
X4806Y1215*
X4812Y1203*
X4800Y1209*
X4788Y1203*
X4620Y1105D02*
X4630Y1125D01*
X4620Y1145*
X4640Y1135*
X4660Y1145*
X4650Y1125*
X4660Y1105*
X4640Y1115*
X4620Y1105*
X4628Y1113D02*
X4634Y1125D01*
X4628Y1137*
X4640Y1131*
X4652Y1137*
X4646Y1125*
X4652Y1113*
X4640Y1119*
X4628Y1113*
X4670Y1300D02*
X4680Y1320D01*
X4670Y1340*
X4690Y1330*
X4710Y1340*
X4700Y1320*
X4710Y1300*
X4690Y1310*
X4670Y1300*
X4678Y1308D02*
X4684Y1320D01*
X4678Y1332*
X4690Y1326*
X4702Y1332*
X4696Y1320*
X4702Y1308*
X4690Y1314*
X4678Y1308*
X4335Y1100D02*
X4345Y1120D01*
X4335Y1140*
X4355Y1130*
X4375Y1140*
X4365Y1120*
X4375Y1100*
X4355Y1110*
X4335Y1100*
X4343Y1108D02*
X4349Y1120D01*
X4343Y1132*
X4355Y1126*
X4367Y1132*
X4361Y1120*
X4367Y1108*
X4355Y1114*
X4343Y1108*
X3415Y1205D02*
X3425Y1225D01*
X3415Y1245*
X3435Y1235*
X3455Y1245*
X3445Y1225*
X3455Y1205*
X3435Y1215*
X3415Y1205*
X3423Y1213D02*
X3429Y1225D01*
X3423Y1237*
X3435Y1231*
X3447Y1237*
X3441Y1225*
X3447Y1213*
X3435Y1219*
X3423Y1213*
X2975Y1200D02*
X2985Y1220D01*
X2975Y1240*
X2995Y1230*
X3015Y1240*
X3005Y1220*
X3015Y1200*
X2995Y1210*
X2975Y1200*
X2983Y1208D02*
X2989Y1220D01*
X2983Y1232*
X2995Y1226*
X3007Y1232*
X3001Y1220*
X3007Y1208*
X2995Y1214*
X2983Y1208*
X2635Y1195D02*
X2645Y1215D01*
X2635Y1235*
X2655Y1225*
X2675Y1235*
X2665Y1215*
X2675Y1195*
X2655Y1205*
X2635Y1195*
X2643Y1203D02*
X2649Y1215D01*
X2643Y1227*
X2655Y1221*
X2667Y1227*
X2661Y1215*
X2667Y1203*
X2655Y1209*
X2643Y1203*
X2470Y1195D02*
X2480Y1215D01*
X2470Y1235*
X2490Y1225*
X2510Y1235*
X2500Y1215*
X2510Y1195*
X2490Y1205*
X2470Y1195*
X2478Y1203D02*
X2484Y1215D01*
X2478Y1227*
X2490Y1221*
X2502Y1227*
X2496Y1215*
X2502Y1203*
X2490Y1209*
X2478Y1203*
X2295Y1190D02*
X2305Y1210D01*
X2295Y1230*
X2315Y1220*
X2335Y1230*
X2325Y1210*
X2335Y1190*
X2315Y1200*
X2295Y1190*
X2303Y1198D02*
X2309Y1210D01*
X2303Y1222*
X2315Y1216*
X2327Y1222*
X2321Y1210*
X2327Y1198*
X2315Y1204*
X2303Y1198*
X2115Y1185D02*
X2125Y1205D01*
X2115Y1225*
X2135Y1215*
X2155Y1225*
X2145Y1205*
X2155Y1185*
X2135Y1195*
X2115Y1185*
X2123Y1193D02*
X2129Y1205D01*
X2123Y1217*
X2135Y1211*
X2147Y1217*
X2141Y1205*
X2147Y1193*
X2135Y1199*
X2123Y1193*
X1915Y1190D02*
X1925Y1210D01*
X1915Y1230*
X1935Y1220*
X1955Y1230*
X1945Y1210*
X1955Y1190*
X1935Y1200*
X1915Y1190*
X1923Y1198D02*
X1929Y1210D01*
X1923Y1222*
X1935Y1216*
X1947Y1222*
X1941Y1210*
X1947Y1198*
X1935Y1204*
X1923Y1198*
X1160Y1705D02*
X1170Y1725D01*
X1160Y1745*
X1180Y1735*
X1200Y1745*
X1190Y1725*
X1200Y1705*
X1180Y1715*
X1160Y1705*
X1168Y1713D02*
X1174Y1725D01*
X1168Y1737*
X1180Y1731*
X1192Y1737*
X1186Y1725*
X1192Y1713*
X1180Y1719*
X1168Y1713*
X1360Y1715D02*
X1370Y1735D01*
X1360Y1755*
X1380Y1745*
X1400Y1755*
X1390Y1735*
X1400Y1715*
X1380Y1725*
X1360Y1715*
X1368Y1723D02*
X1374Y1735D01*
X1368Y1747*
X1380Y1741*
X1392Y1747*
X1386Y1735*
X1392Y1723*
X1380Y1729*
X1368Y1723*
X1260Y1975D02*
X1270Y1995D01*
X1260Y2015*
X1280Y2005*
X1300Y2015*
X1290Y1995*
X1300Y1975*
X1280Y1985*
X1260Y1975*
X1268Y1983D02*
X1274Y1995D01*
X1268Y2007*
X1280Y2001*
X1292Y2007*
X1286Y1995*
X1292Y1983*
X1280Y1989*
X1268Y1983*
X1155Y2420D02*
X1165Y2440D01*
X1155Y2460*
X1175Y2450*
X1195Y2460*
X1185Y2440*
X1195Y2420*
X1175Y2430*
X1155Y2420*
X1163Y2428D02*
X1169Y2440D01*
X1163Y2452*
X1175Y2446*
X1187Y2452*
X1181Y2440*
X1187Y2428*
X1175Y2434*
X1163Y2428*
X1150Y2160D02*
X1160Y2180D01*
X1150Y2200*
X1170Y2190*
X1190Y2200*
X1180Y2180*
X1190Y2160*
X1170Y2170*
X1150Y2160*
X1158Y2168D02*
X1164Y2180D01*
X1158Y2192*
X1170Y2186*
X1182Y2192*
X1176Y2180*
X1182Y2168*
X1170Y2174*
X1158Y2168*
X1280Y2095D02*
X1290Y2115D01*
X1280Y2135*
X1300Y2125*
X1320Y2135*
X1310Y2115*
X1320Y2095*
X1300Y2105*
X1280Y2095*
X1288Y2103D02*
X1294Y2115D01*
X1288Y2127*
X1300Y2121*
X1312Y2127*
X1306Y2115*
X1312Y2103*
X1300Y2109*
X1288Y2103*
X1265Y2500D02*
X1275Y2520D01*
X1265Y2540*
X1285Y2530*
X1305Y2540*
X1295Y2520*
X1305Y2500*
X1285Y2510*
X1265Y2500*
X1273Y2508D02*
X1279Y2520D01*
X1273Y2532*
X1285Y2526*
X1297Y2532*
X1291Y2520*
X1297Y2508*
X1285Y2514*
X1273Y2508*
X1275Y2655D02*
X1285Y2675D01*
X1275Y2695*
X1295Y2685*
X1315Y2695*
X1305Y2675*
X1315Y2655*
X1295Y2665*
X1275Y2655*
X1283Y2663D02*
X1289Y2675D01*
X1283Y2687*
X1295Y2681*
X1307Y2687*
X1301Y2675*
X1307Y2663*
X1295Y2669*
X1283Y2663*
X1280Y2800D02*
X1290Y2820D01*
X1280Y2840*
X1300Y2830*
X1320Y2840*
X1310Y2820*
X1320Y2800*
X1300Y2810*
X1280Y2800*
X1288Y2808D02*
X1294Y2820D01*
X1288Y2832*
X1300Y2826*
X1312Y2832*
X1306Y2820*
X1312Y2808*
X1300Y2814*
X1288Y2808*
X1280Y2925D02*
X1290Y2945D01*
X1280Y2965*
X1300Y2955*
X1320Y2965*
X1310Y2945*
X1320Y2925*
X1300Y2935*
X1280Y2925*
X1288Y2933D02*
X1294Y2945D01*
X1288Y2957*
X1300Y2951*
X1312Y2957*
X1306Y2945*
X1312Y2933*
X1300Y2939*
X1288Y2933*
X1815Y2790D02*
X1825Y2810D01*
X1815Y2830*
X1835Y2820*
X1855Y2830*
X1845Y2810*
X1855Y2790*
X1835Y2800*
X1815Y2790*
X1823Y2798D02*
X1829Y2810D01*
X1823Y2822*
X1835Y2816*
X1847Y2822*
X1841Y2810*
X1847Y2798*
X1835Y2804*
X1823Y2798*
X2000Y2815D02*
X2010Y2835D01*
X2000Y2855*
X2020Y2845*
X2040Y2855*
X2030Y2835*
X2040Y2815*
X2020Y2825*
X2000Y2815*
X2008Y2823D02*
X2014Y2835D01*
X2008Y2847*
X2020Y2841*
X2032Y2847*
X2026Y2835*
X2032Y2823*
X2020Y2829*
X2008Y2823*
X2130Y2795D02*
X2140Y2815D01*
X2130Y2835*
X2150Y2825*
X2170Y2835*
X2160Y2815*
X2170Y2795*
X2150Y2805*
X2130Y2795*
X2138Y2803D02*
X2144Y2815D01*
X2138Y2827*
X2150Y2821*
X2162Y2827*
X2156Y2815*
X2162Y2803*
X2150Y2809*
X2138Y2803*
X1950Y2930D02*
X1960Y2950D01*
X1950Y2970*
X1970Y2960*
X1990Y2970*
X1980Y2950*
X1990Y2930*
X1970Y2940*
X1950Y2930*
X1958Y2938D02*
X1964Y2950D01*
X1958Y2962*
X1970Y2956*
X1982Y2962*
X1976Y2950*
X1982Y2938*
X1970Y2944*
X1958Y2938*
X2145Y2930D02*
X2155Y2950D01*
X2145Y2970*
X2165Y2960*
X2185Y2970*
X2175Y2950*
X2185Y2930*
X2165Y2940*
X2145Y2930*
X2153Y2938D02*
X2159Y2950D01*
X2153Y2962*
X2165Y2956*
X2177Y2962*
X2171Y2950*
X2177Y2938*
X2165Y2944*
X2153Y2938*
X2025Y3035D02*
X2035Y3055D01*
X2025Y3075*
X2045Y3065*
X2065Y3075*
X2055Y3055*
X2065Y3035*
X2045Y3045*
X2025Y3035*
X2033Y3043D02*
X2039Y3055D01*
X2033Y3067*
X2045Y3061*
X2057Y3067*
X2051Y3055*
X2057Y3043*
X2045Y3049*
X2033Y3043*
X2220Y3055D02*
X2230Y3075D01*
X2220Y3095*
X2240Y3085*
X2260Y3095*
X2250Y3075*
X2260Y3055*
X2240Y3065*
X2220Y3055*
X2228Y3063D02*
X2234Y3075D01*
X2228Y3087*
X2240Y3081*
X2252Y3087*
X2246Y3075*
X2252Y3063*
X2240Y3069*
X2228Y3063*
X2120Y3145D02*
X2130Y3165D01*
X2120Y3185*
X2140Y3175*
X2160Y3185*
X2150Y3165*
X2160Y3145*
X2140Y3155*
X2120Y3145*
X2128Y3153D02*
X2134Y3165D01*
X2128Y3177*
X2140Y3171*
X2152Y3177*
X2146Y3165*
X2152Y3153*
X2140Y3159*
X2128Y3153*
X2400Y3210D02*
X2410Y3230D01*
X2400Y3250*
X2420Y3240*
X2440Y3250*
X2430Y3230*
X2440Y3210*
X2420Y3220*
X2400Y3210*
X2408Y3218D02*
X2414Y3230D01*
X2408Y3242*
X2420Y3236*
X2432Y3242*
X2426Y3230*
X2432Y3218*
X2420Y3224*
X2408Y3218*
X2325Y3320D02*
X2335Y3340D01*
X2325Y3360*
X2345Y3350*
X2365Y3360*
X2355Y3340*
X2365Y3320*
X2345Y3330*
X2325Y3320*
X2333Y3328D02*
X2339Y3340D01*
X2333Y3352*
X2345Y3346*
X2357Y3352*
X2351Y3340*
X2357Y3328*
X2345Y3334*
X2333Y3328*
X2260Y3185D02*
X2270Y3205D01*
X2260Y3225*
X2280Y3215*
X2300Y3225*
X2290Y3205*
X2300Y3185*
X2280Y3195*
X2260Y3185*
X2268Y3193D02*
X2274Y3205D01*
X2268Y3217*
X2280Y3211*
X2292Y3217*
X2286Y3205*
X2292Y3193*
X2280Y3199*
X2268Y3193*
X3310Y3985D02*
X3320Y3995D01*
X3330*
X3320Y4005*
X3330Y4015*
X3320*
X3310Y4025*
X3300Y4015*
X3290*
X3300Y4005*
X3290Y3995*
X3300*
X3310Y3985*
Y3993D02*
X3316Y3999D01*
X3322*
X3316Y4005*
X3322Y4011*
X3316*
X3310Y4017*
X3304Y4011*
X3298*
X3304Y4005*
X3298Y3999*
X3304*
X3310Y3993*
X1920Y1689D02*
X1930Y1709D01*
X1920Y1729*
X1940Y1719*
X1960Y1729*
X1950Y1709*
X1960Y1689*
X1940Y1699*
X1920Y1689*
X1928Y1697D02*
X1934Y1709D01*
X1928Y1721*
X1940Y1715*
X1952Y1721*
X1946Y1709*
X1952Y1697*
X1940Y1703*
X1928Y1697*
X4655Y2365D02*
X4665Y2375D01*
X4675*
X4665Y2385*
X4675Y2395*
X4665*
X4655Y2405*
X4645Y2395*
X4635*
X4645Y2385*
X4635Y2375*
X4645*
X4655Y2365*
Y2373D02*
X4661Y2379D01*
X4667*
X4661Y2385*
X4667Y2391*
X4661*
X4655Y2397*
X4649Y2391*
X4643*
X4649Y2385*
X4643Y2379*
X4649*
X4655Y2373*
X4660Y2260D02*
X4640Y2300D01*
X4680*
X4660Y2260*
Y2268D02*
X4648Y2292D01*
X4672*
X4660Y2268*
X6120Y2765D02*
X6100Y2805D01*
X6140*
X6120Y2765*
Y2773D02*
X6108Y2797D01*
X6132*
X6120Y2773*
X6152Y3042D02*
X6132Y3082D01*
X6172*
X6152Y3042*
Y3050D02*
X6140Y3074D01*
X6164*
X6152Y3050*
X4765Y2310D02*
X4745Y2350D01*
X4785*
X4765Y2310*
Y2318D02*
X4753Y2342D01*
X4777*
X4765Y2318*
X5400Y2500D02*
X5380Y2540D01*
X5420*
X5400Y2500*
Y2508D02*
X5388Y2532D01*
X5412*
X5400Y2508*
X5432Y2467D02*
X5412Y2507D01*
X5452*
X5432Y2467*
Y2475D02*
X5420Y2499D01*
X5444*
X5432Y2475*
X5430Y2405D02*
X5440Y2415D01*
X5450*
X5440Y2425*
X5450Y2435*
X5440*
X5430Y2445*
X5420Y2435*
X5410*
X5420Y2425*
X5410Y2415*
X5420*
X5430Y2405*
Y2413D02*
X5436Y2419D01*
X5442*
X5436Y2425*
X5442Y2431*
X5436*
X5430Y2437*
X5424Y2431*
X5418*
X5424Y2425*
X5418Y2419*
X5424*
X5430Y2413*
X5440Y2200D02*
X5450Y2210D01*
X5460*
X5450Y2220*
X5460Y2230*
X5450*
X5440Y2240*
X5430Y2230*
X5420*
X5430Y2220*
X5420Y2210*
X5430*
X5440Y2200*
Y2208D02*
X5446Y2214D01*
X5452*
X5446Y2220*
X5452Y2226*
X5446*
X5440Y2232*
X5434Y2226*
X5428*
X5434Y2220*
X5428Y2214*
X5434*
X5440Y2208*
X5190Y2160D02*
X5170Y2200D01*
X5210*
X5190Y2160*
Y2168D02*
X5178Y2192D01*
X5202*
X5190Y2168*
X2973Y3927D02*
X2983Y3937D01*
X2993*
X2983Y3947*
X2993Y3957*
X2983*
X2973Y3967*
X2963Y3957*
X2953*
X2963Y3947*
X2953Y3937*
X2963*
X2973Y3927*
Y3935D02*
X2979Y3941D01*
X2985*
X2979Y3947*
X2985Y3953*
X2979*
X2973Y3959*
X2967Y3953*
X2961*
X2967Y3947*
X2961Y3941*
X2967*
X2973Y3935*
X2785Y4190D02*
Y4180D01*
X2805*
Y4190*
X2815*
Y4210*
X2805*
Y4220*
X2785*
Y4210*
X2775*
Y4190*
X2785*
X2789Y4194D02*
Y4188D01*
X2801*
Y4194*
X2807*
Y4206*
X2801*
Y4212*
X2789*
Y4206*
X2783*
Y4194*
X2789*
X3395Y4205D02*
X3405Y4215D01*
X3415*
X3405Y4225*
X3415Y4235*
X3405*
X3395Y4245*
X3385Y4235*
X3375*
X3385Y4225*
X3375Y4215*
X3385*
X3395Y4205*
Y4213D02*
X3401Y4219D01*
X3407*
X3401Y4225*
X3407Y4231*
X3401*
X3395Y4237*
X3389Y4231*
X3383*
X3389Y4225*
X3383Y4219*
X3389*
X3395Y4213*
X3160Y4430D02*
Y4420D01*
X3180*
Y4430*
X3190*
Y4450*
X3180*
Y4460*
X3160*
Y4450*
X3150*
Y4430*
X3160*
X3164Y4434D02*
Y4428D01*
X3176*
Y4434*
X3182*
Y4446*
X3176*
Y4452*
X3164*
Y4446*
X3158*
Y4434*
X3164*
X1600Y2990D02*
X1610Y3010D01*
X1600Y3030*
X1620Y3020*
X1640Y3030*
X1630Y3010*
X1640Y2990*
X1620Y3000*
X1600Y2990*
X1608Y2998D02*
X1614Y3010D01*
X1608Y3022*
X1620Y3016*
X1632Y3022*
X1626Y3010*
X1632Y2998*
X1620Y3004*
X1608Y2998*
X1668Y2711D02*
X1678Y2731D01*
X1668Y2751*
X1688Y2741*
X1708Y2751*
X1698Y2731*
X1708Y2711*
X1688Y2721*
X1668Y2711*
X1676Y2719D02*
X1682Y2731D01*
X1676Y2743*
X1688Y2737*
X1700Y2743*
X1694Y2731*
X1700Y2719*
X1688Y2725*
X1676Y2719*
X2760Y3240D02*
X2770Y3250D01*
X2780*
X2770Y3260*
X2780Y3270*
X2770*
X2760Y3280*
X2750Y3270*
X2740*
X2750Y3260*
X2740Y3250*
X2750*
X2760Y3240*
Y3248D02*
X2766Y3254D01*
X2772*
X2766Y3260*
X2772Y3266*
X2766*
X2760Y3272*
X2754Y3266*
X2748*
X2754Y3260*
X2748Y3254*
X2754*
X2760Y3248*
X6190Y2640D02*
X6200Y2660D01*
X6190Y2680*
X6210Y2670*
X6230Y2680*
X6220Y2660*
X6230Y2640*
X6210Y2650*
X6190Y2640*
X6198Y2648D02*
X6204Y2660D01*
X6198Y2672*
X6210Y2666*
X6222Y2672*
X6216Y2660*
X6222Y2648*
X6210Y2654*
X6198Y2648*
X4560Y4470D02*
X4570Y4490D01*
X4560Y4510*
X4580Y4500*
X4600Y4510*
X4590Y4490*
X4600Y4470*
X4580Y4480*
X4560Y4470*
X4568Y4478D02*
X4574Y4490D01*
X4568Y4502*
X4580Y4496*
X4592Y4502*
X4586Y4490*
X4592Y4478*
X4580Y4484*
X4568Y4478*
X6000Y1950D02*
X6010Y1970D01*
X6000Y1990*
X6020Y1980*
X6040Y1990*
X6030Y1970*
X6040Y1950*
X6020Y1960*
X6000Y1950*
X6008Y1958D02*
X6014Y1970D01*
X6008Y1982*
X6020Y1976*
X6032Y1982*
X6026Y1970*
X6032Y1958*
X6020Y1964*
X6008Y1958*
X2160Y1670D02*
X2170Y1690D01*
X2160Y1710*
X2180Y1700*
X2200Y1710*
X2190Y1690*
X2200Y1670*
X2180Y1680*
X2160Y1670*
X2168Y1678D02*
X2174Y1690D01*
X2168Y1702*
X2180Y1696*
X2192Y1702*
X2186Y1690*
X2192Y1678*
X2180Y1684*
X2168Y1678*
X1257Y1797D02*
X1267Y1817D01*
X1257Y1837*
X1277Y1827*
X1297Y1837*
X1287Y1817*
X1297Y1797*
X1277Y1807*
X1257Y1797*
X1265Y1805D02*
X1271Y1817D01*
X1265Y1829*
X1277Y1823*
X1289Y1829*
X1283Y1817*
X1289Y1805*
X1277Y1811*
X1265Y1805*
X1677Y2828D02*
X1687Y2848D01*
X1677Y2868*
X1697Y2858*
X1717Y2868*
X1707Y2848*
X1717Y2828*
X1697Y2838*
X1677Y2828*
X1685Y2836D02*
X1691Y2848D01*
X1685Y2860*
X1697Y2854*
X1709Y2860*
X1703Y2848*
X1709Y2836*
X1697Y2842*
X1685Y2836*
X1530Y3310D02*
X1540Y3330D01*
X1530Y3350*
X1550Y3340*
X1570Y3350*
X1560Y3330*
X1570Y3310*
X1550Y3320*
X1530Y3310*
X1538Y3318D02*
X1544Y3330D01*
X1538Y3342*
X1550Y3336*
X1562Y3342*
X1556Y3330*
X1562Y3318*
X1550Y3324*
X1538Y3318*
X5408Y1888D02*
X5418Y1898D01*
X5428*
X5418Y1908*
X5428Y1918*
X5418*
X5408Y1928*
X5398Y1918*
X5388*
X5398Y1908*
X5388Y1898*
X5398*
X5408Y1888*
Y1896D02*
X5414Y1902D01*
X5420*
X5414Y1908*
X5420Y1914*
X5414*
X5408Y1920*
X5402Y1914*
X5396*
X5402Y1908*
X5396Y1902*
X5402*
X5408Y1896*
X5060Y1934D02*
X5070Y1944D01*
X5080*
X5070Y1954*
X5080Y1964*
X5070*
X5060Y1974*
X5050Y1964*
X5040*
X5050Y1954*
X5040Y1944*
X5050*
X5060Y1934*
Y1942D02*
X5066Y1948D01*
X5072*
X5066Y1954*
X5072Y1960*
X5066*
X5060Y1966*
X5054Y1960*
X5048*
X5054Y1954*
X5048Y1948*
X5054*
X5060Y1942*
X5140Y1910D02*
X5150Y1920D01*
X5160*
X5150Y1930*
X5160Y1940*
X5150*
X5140Y1950*
X5130Y1940*
X5120*
X5130Y1930*
X5120Y1920*
X5130*
X5140Y1910*
Y1918D02*
X5146Y1924D01*
X5152*
X5146Y1930*
X5152Y1936*
X5146*
X5140Y1942*
X5134Y1936*
X5128*
X5134Y1930*
X5128Y1924*
X5134*
X5140Y1918*
X5250Y2150D02*
X5260Y2160D01*
X5270*
X5260Y2170*
X5270Y2180*
X5260*
X5250Y2190*
X5240Y2180*
X5230*
X5240Y2170*
X5230Y2160*
X5240*
X5250Y2150*
Y2158D02*
X5256Y2164D01*
X5262*
X5256Y2170*
X5262Y2176*
X5256*
X5250Y2182*
X5244Y2176*
X5238*
X5244Y2170*
X5238Y2164*
X5244*
X5250Y2158*
X2900Y3490D02*
X2910Y3500D01*
X2920*
X2910Y3510*
X2920Y3520*
X2910*
X2900Y3530*
X2890Y3520*
X2880*
X2890Y3510*
X2880Y3500*
X2890*
X2900Y3490*
Y3498D02*
X2906Y3504D01*
X2912*
X2906Y3510*
X2912Y3516*
X2906*
X2900Y3522*
X2894Y3516*
X2888*
X2894Y3510*
X2888Y3504*
X2894*
X2900Y3498*
X3410Y4350D02*
X3420Y4360D01*
X3430*
X3420Y4370*
X3430Y4380*
X3420*
X3410Y4390*
X3400Y4380*
X3390*
X3400Y4370*
X3390Y4360*
X3400*
X3410Y4350*
Y4358D02*
X3416Y4364D01*
X3422*
X3416Y4370*
X3422Y4376*
X3416*
X3410Y4382*
X3404Y4376*
X3398*
X3404Y4370*
X3398Y4364*
X3404*
X3410Y4358*
X3732Y4427D02*
X3742Y4437D01*
X3752*
X3742Y4447*
X3752Y4457*
X3742*
X3732Y4467*
X3722Y4457*
X3712*
X3722Y4447*
X3712Y4437*
X3722*
X3732Y4427*
Y4435D02*
X3738Y4441D01*
X3744*
X3738Y4447*
X3744Y4453*
X3738*
X3732Y4459*
X3726Y4453*
X3720*
X3726Y4447*
X3720Y4441*
X3726*
X3732Y4435*
X5335Y2110D02*
X5315Y2150D01*
X5355*
X5335Y2110*
Y2118D02*
X5323Y2142D01*
X5347*
X5335Y2118*
X4050Y4340D02*
X4030Y4380D01*
X4070*
X4050Y4340*
Y4348D02*
X4038Y4372D01*
X4062*
X4050Y4348*
X5370Y2780D02*
X5350Y2820D01*
X5390*
X5370Y2780*
Y2788D02*
X5358Y2812D01*
X5382*
X5370Y2788*
G54D123*
X1370Y3885D02*
D01*
D01*
G75*
G03X1330I-20J0D01*
G74*G01*
D01*
G75*
G03X1370I20J0D01*
G74*G01*
Y3294D02*
D01*
D01*
G75*
G03X1330I-20J0D01*
G74*G01*
D01*
G75*
G03X1370I20J0D01*
G74*G01*
X3340Y3320D02*
D01*
D01*
G75*
G03X3300I-20J0D01*
G74*G01*
D01*
G75*
G03X3340I20J0D01*
G74*G01*
X3813D02*
D01*
D01*
G75*
G03X3773I-20J0D01*
G74*G01*
D01*
G75*
G03X3813I20J0D01*
G74*G01*
X5760Y2997D02*
D01*
D01*
G75*
G03X5720I-20J0D01*
G74*G01*
D01*
G75*
G03X5760I20J0D01*
G74*G01*
X5740Y4540D02*
D01*
D01*
G75*
G03X5700I-20J0D01*
G74*G01*
D01*
G75*
G03X5740I20J0D01*
G74*G01*
X5545Y4628D02*
D01*
D01*
G75*
G03X5505I-20J0D01*
G74*G01*
D01*
G75*
G03X5545I20J0D01*
G74*G01*
X1690Y1730D02*
D01*
D01*
G75*
G03X1650I-20J0D01*
G74*G01*
D01*
G75*
G03X1690I20J0D01*
G74*G01*
X3360Y3950D02*
D01*
D01*
G75*
G03X3320I-20J0D01*
G74*G01*
D01*
G75*
G03X3360I20J0D01*
G74*G01*
X3680Y4410D02*
D01*
D01*
G75*
G03X3640I-20J0D01*
G74*G01*
D01*
G75*
G03X3680I20J0D01*
G74*G01*
X2805Y4270D02*
D01*
D01*
G75*
G03X2765I-20J0D01*
G74*G01*
D01*
G75*
G03X2805I20J0D01*
G74*G01*
X2755Y3915D02*
D01*
D01*
G75*
G03X2715I-20J0D01*
G74*G01*
D01*
G75*
G03X2755I20J0D01*
G74*G01*
X2870D02*
D01*
D01*
G75*
G03X2830I-20J0D01*
G74*G01*
D01*
G75*
G03X2870I20J0D01*
G74*G01*
X2620Y4010D02*
D01*
D01*
G75*
G03X2580I-20J0D01*
G74*G01*
D01*
G75*
G03X2620I20J0D01*
G74*G01*
X2830Y2490D02*
D01*
D01*
G75*
G03X2790I-20J0D01*
G74*G01*
D01*
G75*
G03X2830I20J0D01*
G74*G01*
X2600Y3125D02*
D01*
D01*
G75*
G03X2560I-20J0D01*
G74*G01*
D01*
G75*
G03X2600I20J0D01*
G74*G01*
X2782Y3122D02*
D01*
D01*
G75*
G03X2742I-20J0D01*
G74*G01*
D01*
G75*
G03X2782I20J0D01*
G74*G01*
X2540Y3430D02*
D01*
D01*
G75*
G03X2500I-20J0D01*
G74*G01*
D01*
G75*
G03X2540I20J0D01*
G74*G01*
X2930D02*
D01*
D01*
G75*
G03X2890I-20J0D01*
G74*G01*
D01*
G75*
G03X2930I20J0D01*
G74*G01*
X1600Y1300D02*
D01*
D01*
G75*
G03X1560I-20J0D01*
G74*G01*
D01*
G75*
G03X1600I20J0D01*
G74*G01*
X4092Y1352D02*
D01*
D01*
G75*
G03X4052I-20J0D01*
G74*G01*
D01*
G75*
G03X4092I20J0D01*
G74*G01*
X5790Y3540D02*
D01*
D01*
G75*
G03X5750I-20J0D01*
G74*G01*
D01*
G75*
G03X5790I20J0D01*
G74*G01*
X6032Y3310D02*
D01*
D01*
G75*
G03X5992I-20J0D01*
G74*G01*
D01*
G75*
G03X6032I20J0D01*
G74*G01*
X6476Y3790D02*
D01*
D01*
G75*
G03X6436I-20J0D01*
G74*G01*
D01*
G75*
G03X6476I20J0D01*
G74*G01*
X6150D02*
D01*
D01*
G75*
G03X6110I-20J0D01*
G74*G01*
D01*
G75*
G03X6150I20J0D01*
G74*G01*
X4560Y2750D02*
D01*
D01*
G75*
G03X4520I-20J0D01*
G74*G01*
D01*
G75*
G03X4560I20J0D01*
G74*G01*
X5159Y2700D02*
D01*
D01*
G75*
G03X5119I-20J0D01*
G74*G01*
D01*
G75*
G03X5159I20J0D01*
G74*G01*
X5710Y2599D02*
D01*
D01*
G75*
G03X5670I-20J0D01*
G74*G01*
D01*
G75*
G03X5710I20J0D01*
G74*G01*
X5630Y2589D02*
D01*
D01*
G75*
G03X5590I-20J0D01*
G74*G01*
D01*
G75*
G03X5630I20J0D01*
G74*G01*
X5780Y2500D02*
D01*
D01*
G75*
G03X5740I-20J0D01*
G74*G01*
D01*
G75*
G03X5780I20J0D01*
G74*G01*
X5159Y2619D02*
D01*
D01*
G75*
G03X5119I-20J0D01*
G74*G01*
D01*
G75*
G03X5159I20J0D01*
G74*G01*
X5778Y2251D02*
D01*
D01*
G75*
G03X5738I-20J0D01*
G74*G01*
D01*
G75*
G03X5778I20J0D01*
G74*G01*
X5860Y2070D02*
D01*
D01*
G75*
G03X5820I-20J0D01*
G74*G01*
D01*
G75*
G03X5860I20J0D01*
G74*G01*
Y1898D02*
D01*
D01*
G75*
G03X5820I-20J0D01*
G74*G01*
D01*
G75*
G03X5860I20J0D01*
G74*G01*
X5766Y1466D02*
D01*
D01*
G75*
G03X5726I-20J0D01*
G74*G01*
D01*
G75*
G03X5766I20J0D01*
G74*G01*
X2760Y3570D02*
D01*
D01*
G75*
G03X2720I-20J0D01*
G74*G01*
D01*
G75*
G03X2760I20J0D01*
G74*G01*
X2510Y3320D02*
D01*
D01*
G75*
G03X2470I-20J0D01*
G74*G01*
D01*
G75*
G03X2510I20J0D01*
G74*G01*
X6380Y3230D02*
D01*
D01*
G75*
G03X6340I-20J0D01*
G74*G01*
D01*
G75*
G03X6380I20J0D01*
G74*G01*
X6197Y3377D02*
D01*
D01*
G75*
G03X6157I-20J0D01*
G74*G01*
D01*
G75*
G03X6197I20J0D01*
G74*G01*
X3620Y4090D02*
D01*
D01*
G75*
G03X3580I-20J0D01*
G74*G01*
D01*
G75*
G03X3620I20J0D01*
G74*G01*
X3630Y4180D02*
D01*
D01*
G75*
G03X3590I-20J0D01*
G74*G01*
D01*
G75*
G03X3630I20J0D01*
G74*G01*
Y4260D02*
D01*
D01*
G75*
G03X3590I-20J0D01*
G74*G01*
D01*
G75*
G03X3630I20J0D01*
G74*G01*
X4030Y4850D02*
D01*
D01*
G75*
G03X3990I-20J0D01*
G74*G01*
D01*
G75*
G03X4030I20J0D01*
G74*G01*
X3727Y4710D02*
D01*
D01*
G75*
G03X3687I-20J0D01*
G74*G01*
D01*
G75*
G03X3727I20J0D01*
G74*G01*
X3990Y4530D02*
D01*
D01*
G75*
G03X3950I-20J0D01*
G74*G01*
D01*
G75*
G03X3990I20J0D01*
G74*G01*
X3747Y4512D02*
D01*
D01*
G75*
G03X3707I-20J0D01*
G74*G01*
D01*
G75*
G03X3747I20J0D01*
G74*G01*
X3600Y4600D02*
D01*
D01*
G75*
G03X3560I-20J0D01*
G74*G01*
D01*
G75*
G03X3600I20J0D01*
G74*G01*
X3610Y4520D02*
D01*
D01*
G75*
G03X3570I-20J0D01*
G74*G01*
D01*
G75*
G03X3610I20J0D01*
G74*G01*
X2580Y3890D02*
D01*
D01*
G75*
G03X2540I-20J0D01*
G74*G01*
D01*
G75*
G03X2580I20J0D01*
G74*G01*
X3223Y3913D02*
D01*
D01*
G75*
G03X3183I-20J0D01*
G74*G01*
D01*
G75*
G03X3223I20J0D01*
G74*G01*
X2810Y4340D02*
D01*
D01*
G75*
G03X2770I-20J0D01*
G74*G01*
D01*
G75*
G03X2810I20J0D01*
G74*G01*
X3247Y4507D02*
D01*
D01*
G75*
G03X3207I-20J0D01*
G74*G01*
D01*
G75*
G03X3247I20J0D01*
G74*G01*
X3230Y4140D02*
D01*
D01*
G75*
G03X3190I-20J0D01*
G74*G01*
D01*
G75*
G03X3230I20J0D01*
G74*G01*
X3808Y3851D02*
D01*
D01*
G75*
G03X3768I-20J0D01*
G74*G01*
D01*
G75*
G03X3808I20J0D01*
G74*G01*
X4590Y3600D02*
D01*
D01*
G75*
G03X4550I-20J0D01*
G74*G01*
D01*
G75*
G03X4590I20J0D01*
G74*G01*
X4930Y3720D02*
D01*
D01*
G75*
G03X4890I-20J0D01*
G74*G01*
D01*
G75*
G03X4930I20J0D01*
G74*G01*
X4580Y4040D02*
D01*
D01*
G75*
G03X4540I-20J0D01*
G74*G01*
D01*
G75*
G03X4580I20J0D01*
G74*G01*
X6318Y4258D02*
D01*
D01*
G75*
G03X6278I-20J0D01*
G74*G01*
D01*
G75*
G03X6318I20J0D01*
G74*G01*
X6285Y4045D02*
D01*
D01*
G75*
G03X6245I-20J0D01*
G74*G01*
D01*
G75*
G03X6285I20J0D01*
G74*G01*
X6000Y3890D02*
D01*
D01*
G75*
G03X5960I-20J0D01*
G74*G01*
D01*
G75*
G03X6000I20J0D01*
G74*G01*
Y3990D02*
D01*
D01*
G75*
G03X5960I-20J0D01*
G74*G01*
D01*
G75*
G03X6000I20J0D01*
G74*G01*
X5000Y2860D02*
D01*
D01*
G75*
G03X4960I-20J0D01*
G74*G01*
D01*
G75*
G03X5000I20J0D01*
G74*G01*
X5230Y2680D02*
D01*
D01*
G75*
G03X5190I-20J0D01*
G74*G01*
D01*
G75*
G03X5230I20J0D01*
G74*G01*
X5857Y2597D02*
D01*
D01*
G75*
G03X5817I-20J0D01*
G74*G01*
D01*
G75*
G03X5857I20J0D01*
G74*G01*
X5620Y2120D02*
D01*
D01*
G75*
G03X5580I-20J0D01*
G74*G01*
D01*
G75*
G03X5620I20J0D01*
G74*G01*
X5710Y2130D02*
D01*
D01*
G75*
G03X5670I-20J0D01*
G74*G01*
D01*
G75*
G03X5710I20J0D01*
G74*G01*
X5848Y2181D02*
D01*
D01*
G75*
G03X5808I-20J0D01*
G74*G01*
D01*
G75*
G03X5848I20J0D01*
G74*G01*
X6200Y1880D02*
D01*
D01*
G75*
G03X6160I-20J0D01*
G74*G01*
D01*
G75*
G03X6200I20J0D01*
G74*G01*
X5857Y1572D02*
D01*
D01*
G75*
G03X5817I-20J0D01*
G74*G01*
D01*
G75*
G03X5857I20J0D01*
G74*G01*
X5758Y1942D02*
D01*
D01*
G75*
G03X5718I-20J0D01*
G74*G01*
D01*
G75*
G03X5758I20J0D01*
G74*G01*
X4470Y1374D02*
D01*
D01*
G75*
G03X4430I-20J0D01*
G74*G01*
D01*
G75*
G03X4470I20J0D01*
G74*G01*
X4389Y1388D02*
D01*
D01*
G75*
G03X4349I-20J0D01*
G74*G01*
D01*
G75*
G03X4389I20J0D01*
G74*G01*
X2851Y1168D02*
D01*
D01*
G75*
G03X2811I-20J0D01*
G74*G01*
D01*
G75*
G03X2851I20J0D01*
G74*G01*
X1280Y1400D02*
D01*
D01*
G75*
G03X1240I-20J0D01*
G74*G01*
D01*
G75*
G03X1280I20J0D01*
G74*G01*
Y1470D02*
D01*
D01*
G75*
G03X1240I-20J0D01*
G74*G01*
D01*
G75*
G03X1280I20J0D01*
G74*G01*
Y1540D02*
D01*
D01*
G75*
G03X1240I-20J0D01*
G74*G01*
D01*
G75*
G03X1280I20J0D01*
G74*G01*
Y1610D02*
D01*
D01*
G75*
G03X1240I-20J0D01*
G74*G01*
D01*
G75*
G03X1280I20J0D01*
G74*G01*
X2641Y4238D02*
D01*
D01*
G75*
G03X2601I-20J0D01*
G74*G01*
D01*
G75*
G03X2641I20J0D01*
G74*G01*
X2857Y4547D02*
D01*
D01*
G75*
G03X2817I-20J0D01*
G74*G01*
D01*
G75*
G03X2857I20J0D01*
G74*G01*
X2642Y4677D02*
D01*
D01*
G75*
G03X2602I-20J0D01*
G74*G01*
D01*
G75*
G03X2642I20J0D01*
G74*G01*
X5690Y4040D02*
D01*
D01*
G75*
G03X5650I-20J0D01*
G74*G01*
D01*
G75*
G03X5690I20J0D01*
G74*G01*
G54D124*
X5752Y2997D02*
D01*
D01*
G75*
G03X5728I-12J0D01*
G74*G01*
D01*
G75*
G03X5752I12J0D01*
G74*G01*
X5732Y4540D02*
D01*
D01*
G75*
G03X5708I-12J0D01*
G74*G01*
D01*
G75*
G03X5732I12J0D01*
G74*G01*
X5537Y4628D02*
D01*
D01*
G75*
G03X5513I-12J0D01*
G74*G01*
D01*
G75*
G03X5537I12J0D01*
G74*G01*
X1682Y1730D02*
D01*
D01*
G75*
G03X1658I-12J0D01*
G74*G01*
D01*
G75*
G03X1682I12J0D01*
G74*G01*
X3352Y3950D02*
D01*
D01*
G75*
G03X3328I-12J0D01*
G74*G01*
D01*
G75*
G03X3352I12J0D01*
G74*G01*
X3672Y4410D02*
D01*
D01*
G75*
G03X3648I-12J0D01*
G74*G01*
D01*
G75*
G03X3672I12J0D01*
G74*G01*
X2797Y4270D02*
D01*
D01*
G75*
G03X2773I-12J0D01*
G74*G01*
D01*
G75*
G03X2797I12J0D01*
G74*G01*
X2747Y3915D02*
D01*
D01*
G75*
G03X2723I-12J0D01*
G74*G01*
D01*
G75*
G03X2747I12J0D01*
G74*G01*
X2862D02*
D01*
D01*
G75*
G03X2838I-12J0D01*
G74*G01*
D01*
G75*
G03X2862I12J0D01*
G74*G01*
X2612Y4010D02*
D01*
D01*
G75*
G03X2588I-12J0D01*
G74*G01*
D01*
G75*
G03X2612I12J0D01*
G74*G01*
X2822Y2490D02*
D01*
D01*
G75*
G03X2798I-12J0D01*
G74*G01*
D01*
G75*
G03X2822I12J0D01*
G74*G01*
X2592Y3125D02*
D01*
D01*
G75*
G03X2568I-12J0D01*
G74*G01*
D01*
G75*
G03X2592I12J0D01*
G74*G01*
X2774Y3122D02*
D01*
D01*
G75*
G03X2750I-12J0D01*
G74*G01*
D01*
G75*
G03X2774I12J0D01*
G74*G01*
X2532Y3430D02*
D01*
D01*
G75*
G03X2508I-12J0D01*
G74*G01*
D01*
G75*
G03X2532I12J0D01*
G74*G01*
X2922D02*
D01*
D01*
G75*
G03X2898I-12J0D01*
G74*G01*
D01*
G75*
G03X2922I12J0D01*
G74*G01*
X1592Y1300D02*
D01*
D01*
G75*
G03X1568I-12J0D01*
G74*G01*
D01*
G75*
G03X1592I12J0D01*
G74*G01*
X4084Y1352D02*
D01*
D01*
G75*
G03X4060I-12J0D01*
G74*G01*
D01*
G75*
G03X4084I12J0D01*
G74*G01*
X5782Y3540D02*
D01*
D01*
G75*
G03X5758I-12J0D01*
G74*G01*
D01*
G75*
G03X5782I12J0D01*
G74*G01*
X6024Y3310D02*
D01*
D01*
G75*
G03X6000I-12J0D01*
G74*G01*
D01*
G75*
G03X6024I12J0D01*
G74*G01*
X6468Y3790D02*
D01*
D01*
G75*
G03X6444I-12J0D01*
G74*G01*
D01*
G75*
G03X6468I12J0D01*
G74*G01*
X6142D02*
D01*
D01*
G75*
G03X6118I-12J0D01*
G74*G01*
D01*
G75*
G03X6142I12J0D01*
G74*G01*
X4552Y2750D02*
D01*
D01*
G75*
G03X4528I-12J0D01*
G74*G01*
D01*
G75*
G03X4552I12J0D01*
G74*G01*
X5151Y2700D02*
D01*
D01*
G75*
G03X5127I-12J0D01*
G74*G01*
D01*
G75*
G03X5151I12J0D01*
G74*G01*
X5702Y2599D02*
D01*
D01*
G75*
G03X5678I-12J0D01*
G74*G01*
D01*
G75*
G03X5702I12J0D01*
G74*G01*
X5622Y2589D02*
D01*
D01*
G75*
G03X5598I-12J0D01*
G74*G01*
D01*
G75*
G03X5622I12J0D01*
G74*G01*
X5772Y2500D02*
D01*
D01*
G75*
G03X5748I-12J0D01*
G74*G01*
D01*
G75*
G03X5772I12J0D01*
G74*G01*
X5151Y2619D02*
D01*
D01*
G75*
G03X5127I-12J0D01*
G74*G01*
D01*
G75*
G03X5151I12J0D01*
G74*G01*
X5770Y2251D02*
D01*
D01*
G75*
G03X5746I-12J0D01*
G74*G01*
D01*
G75*
G03X5770I12J0D01*
G74*G01*
X5852Y2070D02*
D01*
D01*
G75*
G03X5828I-12J0D01*
G74*G01*
D01*
G75*
G03X5852I12J0D01*
G74*G01*
Y1898D02*
D01*
D01*
G75*
G03X5828I-12J0D01*
G74*G01*
D01*
G75*
G03X5852I12J0D01*
G74*G01*
X5758Y1466D02*
D01*
D01*
G75*
G03X5734I-12J0D01*
G74*G01*
D01*
G75*
G03X5758I12J0D01*
G74*G01*
X2752Y3570D02*
D01*
D01*
G75*
G03X2728I-12J0D01*
G74*G01*
D01*
G75*
G03X2752I12J0D01*
G74*G01*
X2502Y3320D02*
D01*
D01*
G75*
G03X2478I-12J0D01*
G74*G01*
D01*
G75*
G03X2502I12J0D01*
G74*G01*
X6372Y3230D02*
D01*
D01*
G75*
G03X6348I-12J0D01*
G74*G01*
D01*
G75*
G03X6372I12J0D01*
G74*G01*
X6189Y3377D02*
D01*
D01*
G75*
G03X6165I-12J0D01*
G74*G01*
D01*
G75*
G03X6189I12J0D01*
G74*G01*
X3612Y4090D02*
D01*
D01*
G75*
G03X3588I-12J0D01*
G74*G01*
D01*
G75*
G03X3612I12J0D01*
G74*G01*
X3622Y4180D02*
D01*
D01*
G75*
G03X3598I-12J0D01*
G74*G01*
D01*
G75*
G03X3622I12J0D01*
G74*G01*
Y4260D02*
D01*
D01*
G75*
G03X3598I-12J0D01*
G74*G01*
D01*
G75*
G03X3622I12J0D01*
G74*G01*
X4022Y4850D02*
D01*
D01*
G75*
G03X3998I-12J0D01*
G74*G01*
D01*
G75*
G03X4022I12J0D01*
G74*G01*
X3719Y4710D02*
D01*
D01*
G75*
G03X3695I-12J0D01*
G74*G01*
D01*
G75*
G03X3719I12J0D01*
G74*G01*
X3982Y4530D02*
D01*
D01*
G75*
G03X3958I-12J0D01*
G74*G01*
D01*
G75*
G03X3982I12J0D01*
G74*G01*
X3739Y4512D02*
D01*
D01*
G75*
G03X3715I-12J0D01*
G74*G01*
D01*
G75*
G03X3739I12J0D01*
G74*G01*
X3592Y4600D02*
D01*
D01*
G75*
G03X3568I-12J0D01*
G74*G01*
D01*
G75*
G03X3592I12J0D01*
G74*G01*
X3602Y4520D02*
D01*
D01*
G75*
G03X3578I-12J0D01*
G74*G01*
D01*
G75*
G03X3602I12J0D01*
G74*G01*
X2572Y3890D02*
D01*
D01*
G75*
G03X2548I-12J0D01*
G74*G01*
D01*
G75*
G03X2572I12J0D01*
G74*G01*
X3215Y3913D02*
D01*
D01*
G75*
G03X3191I-12J0D01*
G74*G01*
D01*
G75*
G03X3215I12J0D01*
G74*G01*
X2802Y4340D02*
D01*
D01*
G75*
G03X2778I-12J0D01*
G74*G01*
D01*
G75*
G03X2802I12J0D01*
G74*G01*
X3239Y4507D02*
D01*
D01*
G75*
G03X3215I-12J0D01*
G74*G01*
D01*
G75*
G03X3239I12J0D01*
G74*G01*
X3222Y4140D02*
D01*
D01*
G75*
G03X3198I-12J0D01*
G74*G01*
D01*
G75*
G03X3222I12J0D01*
G74*G01*
X3800Y3851D02*
D01*
D01*
G75*
G03X3776I-12J0D01*
G74*G01*
D01*
G75*
G03X3800I12J0D01*
G74*G01*
X4582Y3600D02*
D01*
D01*
G75*
G03X4558I-12J0D01*
G74*G01*
D01*
G75*
G03X4582I12J0D01*
G74*G01*
X4922Y3720D02*
D01*
D01*
G75*
G03X4898I-12J0D01*
G74*G01*
D01*
G75*
G03X4922I12J0D01*
G74*G01*
X4572Y4040D02*
D01*
D01*
G75*
G03X4548I-12J0D01*
G74*G01*
D01*
G75*
G03X4572I12J0D01*
G74*G01*
X6310Y4258D02*
D01*
D01*
G75*
G03X6286I-12J0D01*
G74*G01*
D01*
G75*
G03X6310I12J0D01*
G74*G01*
X6277Y4045D02*
D01*
D01*
G75*
G03X6253I-12J0D01*
G74*G01*
D01*
G75*
G03X6277I12J0D01*
G74*G01*
X5992Y3890D02*
D01*
D01*
G75*
G03X5968I-12J0D01*
G74*G01*
D01*
G75*
G03X5992I12J0D01*
G74*G01*
Y3990D02*
D01*
D01*
G75*
G03X5968I-12J0D01*
G74*G01*
D01*
G75*
G03X5992I12J0D01*
G74*G01*
X4992Y2860D02*
D01*
D01*
G75*
G03X4968I-12J0D01*
G74*G01*
D01*
G75*
G03X4992I12J0D01*
G74*G01*
X5222Y2680D02*
D01*
D01*
G75*
G03X5198I-12J0D01*
G74*G01*
D01*
G75*
G03X5222I12J0D01*
G74*G01*
X5849Y2597D02*
D01*
D01*
G75*
G03X5825I-12J0D01*
G74*G01*
D01*
G75*
G03X5849I12J0D01*
G74*G01*
X5612Y2120D02*
D01*
D01*
G75*
G03X5588I-12J0D01*
G74*G01*
D01*
G75*
G03X5612I12J0D01*
G74*G01*
X5702Y2130D02*
D01*
D01*
G75*
G03X5678I-12J0D01*
G74*G01*
D01*
G75*
G03X5702I12J0D01*
G74*G01*
X5840Y2181D02*
D01*
D01*
G75*
G03X5816I-12J0D01*
G74*G01*
D01*
G75*
G03X5840I12J0D01*
G74*G01*
X6192Y1880D02*
D01*
D01*
G75*
G03X6168I-12J0D01*
G74*G01*
D01*
G75*
G03X6192I12J0D01*
G74*G01*
X5849Y1572D02*
D01*
D01*
G75*
G03X5825I-12J0D01*
G74*G01*
D01*
G75*
G03X5849I12J0D01*
G74*G01*
X5750Y1942D02*
D01*
D01*
G75*
G03X5726I-12J0D01*
G74*G01*
D01*
G75*
G03X5750I12J0D01*
G74*G01*
X4462Y1374D02*
D01*
D01*
G75*
G03X4438I-12J0D01*
G74*G01*
D01*
G75*
G03X4462I12J0D01*
G74*G01*
X4381Y1388D02*
D01*
D01*
G75*
G03X4357I-12J0D01*
G74*G01*
D01*
G75*
G03X4381I12J0D01*
G74*G01*
X2843Y1168D02*
D01*
D01*
G75*
G03X2819I-12J0D01*
G74*G01*
D01*
G75*
G03X2843I12J0D01*
G74*G01*
X1272Y1400D02*
D01*
D01*
G75*
G03X1248I-12J0D01*
G74*G01*
D01*
G75*
G03X1272I12J0D01*
G74*G01*
Y1470D02*
D01*
D01*
G75*
G03X1248I-12J0D01*
G74*G01*
D01*
G75*
G03X1272I12J0D01*
G74*G01*
Y1540D02*
D01*
D01*
G75*
G03X1248I-12J0D01*
G74*G01*
D01*
G75*
G03X1272I12J0D01*
G74*G01*
Y1610D02*
D01*
D01*
G75*
G03X1248I-12J0D01*
G74*G01*
D01*
G75*
G03X1272I12J0D01*
G74*G01*
X2633Y4238D02*
D01*
D01*
G75*
G03X2609I-12J0D01*
G74*G01*
D01*
G75*
G03X2633I12J0D01*
G74*G01*
X2849Y4547D02*
D01*
D01*
G75*
G03X2825I-12J0D01*
G74*G01*
D01*
G75*
G03X2849I12J0D01*
G74*G01*
X2634Y4677D02*
D01*
D01*
G75*
G03X2610I-12J0D01*
G74*G01*
D01*
G75*
G03X2634I12J0D01*
G74*G01*
X5682Y4040D02*
D01*
D01*
G75*
G03X5658I-12J0D01*
G74*G01*
D01*
G75*
G03X5682I12J0D01*
G74*G01*
M02*