%FSLAX23Y23*%
%MOIN*%
%SFA1B1*%

%IPPOS*%
%ADD16C,0.005000*%
%LNpcb1-1*%
%LPD*%
G54D16*
X6644Y4075D02*
X6695D01*
X6670Y4049D02*
Y4100D01*
X6644Y4325D02*
X6695D01*
X6670Y4299D02*
Y4350D01*
X3082Y1328D02*
X3117D01*
X3100Y1310D02*
Y1346D01*
X3082Y1230D02*
X3117D01*
X3100Y1212D02*
Y1247D01*
X5199Y1310D02*
X5240D01*
X5220Y1289D02*
Y1330D01*
X5099Y1310D02*
X5140D01*
X5120Y1289D02*
Y1330D01*
X4999Y1310D02*
X5040D01*
X5020Y1289D02*
Y1330D01*
X5199Y1210D02*
X5240D01*
X5220Y1189D02*
Y1230D01*
X5099Y1210D02*
X5140D01*
X5120Y1189D02*
Y1230D01*
X4999Y1210D02*
X5040D01*
X5020Y1189D02*
Y1230D01*
X5836Y4627D02*
X5879D01*
X5857Y4605D02*
Y4649D01*
X5836Y4812D02*
X5879D01*
X5857Y4790D02*
Y4834D01*
X6288Y4627D02*
X6332D01*
X6310Y4605D02*
Y4649D01*
X6564Y4627D02*
X6607D01*
X6586Y4605D02*
Y4649D01*
X1320Y3885D02*
X1379D01*
X1350Y3855D02*
Y3914D01*
X1320Y3294D02*
X1379D01*
X1350Y3265D02*
Y3324D01*
X6294Y1758D02*
X6333D01*
X6313Y1738D02*
Y1777D01*
X6596Y1910D02*
X6733D01*
X6665Y1841D02*
Y1978D01*
X6601Y1460D02*
X6738D01*
X6670Y1391D02*
Y1528D01*
X6394Y1608D02*
X6433D01*
X6413Y1588D02*
Y1627D01*
X6294Y1658D02*
X6333D01*
X6313Y1638D02*
Y1677D01*
X6394Y1708D02*
X6433D01*
X6413Y1688D02*
Y1727D01*
X6394Y1808D02*
X6433D01*
X6413Y1788D02*
Y1827D01*
X6294Y1858D02*
X6333D01*
X6313Y1838D02*
Y1877D01*
X6394Y1508D02*
X6433D01*
X6413Y1488D02*
Y1527D01*
X6294Y1558D02*
X6333D01*
X6313Y1538D02*
Y1577D01*
X1437Y2880D02*
X1462D01*
X1450Y2867D02*
Y2892D01*
X1437Y2780D02*
X1462D01*
X1450Y2767D02*
Y2792D01*
X1437Y2680D02*
X1462D01*
X1450Y2667D02*
Y2692D01*
X3291Y3320D02*
X3350D01*
X3320Y3290D02*
Y3349D01*
X3763Y3320D02*
X3822D01*
X3793Y3290D02*
Y3349D01*
X1364Y4250D02*
X1415D01*
X1390Y4224D02*
Y4275D01*
X1364Y4500D02*
X1415D01*
X1390Y4474D02*
Y4525D01*
X3294Y1329D02*
X3329D01*
X3311Y1311D02*
Y1346D01*
X3294Y1230D02*
X3329D01*
X3311Y1213D02*
Y1248D01*
X6644Y2830D02*
X6695D01*
X6670Y2804D02*
Y2855D01*
X6644Y3080D02*
X6695D01*
X6670Y3054D02*
Y3105D01*
X1172Y4792D02*
X1298D01*
X1235Y4729D02*
Y4855D01*
X1172Y1170D02*
X1298D01*
X1235Y1107D02*
Y1233D01*
X6762Y4792D02*
X6888D01*
X6825Y4729D02*
Y4855D01*
X6762Y1170D02*
X6888D01*
X6825Y1107D02*
Y1233D01*
X5728Y2997D02*
X5752D01*
X5740Y2985D02*
Y3009D01*
X1157Y2307D02*
X1192D01*
X1175Y2290D02*
Y2325D01*
X3132Y3555D02*
X3167D01*
X3150Y3537D02*
Y3572D01*
X3022Y3515D02*
X3057D01*
X3040Y3497D02*
Y3532D01*
X6342Y2635D02*
X6377D01*
X6360Y2617D02*
Y2652D01*
X5708Y4540D02*
X5731D01*
X5720Y4528D02*
Y4551D01*
X5513Y4628D02*
X5537D01*
X5525Y4616D02*
Y4640D01*
X2967Y4203D02*
X2979D01*
X2973Y4197D02*
Y4209D01*
X2027Y1890D02*
X2062D01*
X2045Y1872D02*
Y1907D01*
X2262Y1390D02*
X2297D01*
X2280Y1372D02*
Y1407D01*
X1547Y1120D02*
X1582D01*
X1565Y1102D02*
Y1137D01*
X1658Y1730D02*
X1681D01*
X1670Y1718D02*
Y1741D01*
X1882Y2160D02*
X1917D01*
X1900Y2142D02*
Y2177D01*
X1912Y2580D02*
X1947D01*
X1930Y2562D02*
Y2597D01*
X1574Y4500D02*
X1609D01*
X1592Y4482D02*
Y4517D01*
X4672Y1960D02*
X4707D01*
X4690Y1942D02*
Y1977D01*
X4457Y1860D02*
X4492D01*
X4475Y1842D02*
Y1877D01*
X4042Y1775D02*
X4077D01*
X4060Y1757D02*
Y1792D01*
X3782Y1915D02*
X3817D01*
X3800Y1897D02*
Y1932D01*
X3482Y1790D02*
X3517D01*
X3500Y1772D02*
Y1807D01*
X3337Y1970D02*
X3372D01*
X3355Y1952D02*
Y1987D01*
X3162Y1745D02*
X3197D01*
X3180Y1727D02*
Y1762D01*
X2987Y1980D02*
X3022D01*
X3005Y1962D02*
Y1997D01*
X2872Y2215D02*
X2907D01*
X2890Y2197D02*
Y2232D01*
X2742Y1800D02*
X2777D01*
X2760Y1782D02*
Y1817D01*
X2597Y1965D02*
X2632D01*
X2615Y1947D02*
Y1982D01*
X2572Y2120D02*
X2607D01*
X2590Y2102D02*
Y2137D01*
X2607Y2315D02*
X2642D01*
X2625Y2297D02*
Y2332D01*
X4147Y2785D02*
X4182D01*
X4165Y2767D02*
Y2802D01*
X4037Y3005D02*
X4072D01*
X4055Y2987D02*
Y3022D01*
X3857Y2650D02*
X3892D01*
X3875Y2632D02*
Y2667D01*
X3442Y2645D02*
X3477D01*
X3460Y2627D02*
Y2662D01*
X3102Y2910D02*
X3137D01*
X3120Y2892D02*
Y2927D01*
X3017Y3135D02*
X3052D01*
X3035Y3117D02*
Y3152D01*
X2882Y2600D02*
X2917D01*
X2900Y2582D02*
Y2617D01*
X2707Y2760D02*
X2742D01*
X2725Y2742D02*
Y2777D01*
X2552Y2870D02*
X2587D01*
X2570Y2852D02*
Y2887D01*
X4627Y2490D02*
X4662D01*
X4645Y2472D02*
Y2507D01*
X4467Y2615D02*
X4502D01*
X4485Y2597D02*
Y2632D01*
X4962Y4005D02*
X4997D01*
X4980Y3987D02*
Y4022D01*
X4362Y3750D02*
X4397D01*
X4380Y3732D02*
Y3767D01*
X4382Y4220D02*
X4417D01*
X4400Y4202D02*
Y4237D01*
X4297Y3910D02*
X4332D01*
X4315Y3892D02*
Y3927D01*
X4762Y3935D02*
X4797D01*
X4780Y3917D02*
Y3952D01*
X4877Y4215D02*
X4912D01*
X4895Y4197D02*
Y4232D01*
X4512Y3705D02*
X4547D01*
X4530Y3687D02*
Y3722D01*
X4952Y3655D02*
X4987D01*
X4970Y3637D02*
Y3672D01*
X4907Y3840D02*
X4942D01*
X4925Y3822D02*
Y3857D01*
X4547Y4160D02*
X4582D01*
X4565Y4142D02*
Y4177D01*
X2187Y2110D02*
X2222D01*
X2205Y2092D02*
Y2127D01*
X2092Y1815D02*
X2127D01*
X2110Y1797D02*
Y1832D01*
X2097Y1960D02*
X2132D01*
X2115Y1942D02*
Y1977D01*
X1867Y2055D02*
X1902D01*
X1885Y2037D02*
Y2072D01*
X2027Y2260D02*
X2062D01*
X2045Y2242D02*
Y2277D01*
X2122Y2390D02*
X2157D01*
X2140Y2372D02*
Y2407D01*
X2152Y2560D02*
X2187D01*
X2170Y2542D02*
Y2577D01*
X2027Y2495D02*
X2062D01*
X2045Y2477D02*
Y2512D01*
X2077Y4845D02*
X2112D01*
X2095Y4827D02*
Y4862D01*
X1462Y4780D02*
X1497D01*
X1480Y4762D02*
Y4797D01*
X1742Y4650D02*
X1777D01*
X1760Y4632D02*
Y4667D01*
X1642Y4810D02*
X1677D01*
X1660Y4792D02*
Y4827D01*
X1862Y4765D02*
X1897D01*
X1880Y4747D02*
Y4782D01*
X1997Y4700D02*
X2032D01*
X2015Y4682D02*
Y4717D01*
X1902Y4495D02*
X1937D01*
X1920Y4477D02*
Y4512D01*
X2512Y4295D02*
X2547D01*
X2530Y4277D02*
Y4312D01*
X2867Y4015D02*
X2902D01*
X2885Y3997D02*
Y4032D01*
X3057Y3375D02*
X3092D01*
X3075Y3357D02*
Y3392D01*
X3162Y3475D02*
X3197D01*
X3180Y3457D02*
Y3492D01*
X3852Y4095D02*
X3887D01*
X3870Y4077D02*
Y4112D01*
X3757Y4225D02*
X3792D01*
X3775Y4207D02*
Y4242D01*
X3042Y4575D02*
X3077D01*
X3060Y4557D02*
Y4592D01*
X2597Y4450D02*
X2632D01*
X2615Y4432D02*
Y4467D01*
X2512Y4690D02*
X2547D01*
X2530Y4672D02*
Y4707D01*
X2812Y4695D02*
X2847D01*
X2830Y4677D02*
Y4712D01*
X2997Y4690D02*
X3032D01*
X3015Y4672D02*
Y4707D01*
X3162Y4690D02*
X3197D01*
X3180Y4672D02*
Y4707D01*
X3337Y4690D02*
X3372D01*
X3355Y4672D02*
Y4707D01*
X3527Y4700D02*
X3562D01*
X3545Y4682D02*
Y4717D01*
X3677Y4610D02*
X3712D01*
X3695Y4592D02*
Y4627D01*
X3882Y4840D02*
X3917D01*
X3900Y4822D02*
Y4857D01*
X4222Y4835D02*
X4257D01*
X4240Y4817D02*
Y4852D01*
X4512Y4840D02*
X4547D01*
X4530Y4822D02*
Y4857D01*
X4352Y4700D02*
X4387D01*
X4370Y4682D02*
Y4717D01*
X4177Y4625D02*
X4212D01*
X4195Y4607D02*
Y4642D01*
X4182Y4425D02*
X4217D01*
X4200Y4407D02*
Y4442D01*
X4377Y4490D02*
X4412D01*
X4395Y4472D02*
Y4507D01*
X4512Y4385D02*
X4547D01*
X4530Y4367D02*
Y4402D01*
X4537Y4585D02*
X4572D01*
X4555Y4567D02*
Y4602D01*
X4707Y4390D02*
X4742D01*
X4725Y4372D02*
Y4407D01*
X4707Y4640D02*
X4742D01*
X4725Y4622D02*
Y4657D01*
X4767Y4740D02*
X4802D01*
X4785Y4722D02*
Y4757D01*
X5417Y4640D02*
X5452D01*
X5435Y4622D02*
Y4657D01*
X5427Y4770D02*
X5462D01*
X5445Y4752D02*
Y4787D01*
X6792Y4210D02*
X6827D01*
X6810Y4192D02*
Y4227D01*
X6827Y4350D02*
X6862D01*
X6845Y4332D02*
Y4367D01*
X6862Y4570D02*
X6897D01*
X6880Y4552D02*
Y4587D01*
X6707Y4610D02*
X6742D01*
X6725Y4592D02*
Y4627D01*
X5532Y4135D02*
X5567D01*
X5550Y4117D02*
Y4152D01*
X5712Y4215D02*
X5747D01*
X5730Y4197D02*
Y4232D01*
X6392Y4410D02*
X6427D01*
X6410Y4392D02*
Y4427D01*
X5957Y4185D02*
X5992D01*
X5975Y4167D02*
Y4202D01*
X5847Y4070D02*
X5882D01*
X5865Y4052D02*
Y4087D01*
X6727Y2570D02*
X6762D01*
X6745Y2552D02*
Y2587D01*
X6807Y2415D02*
X6842D01*
X6825Y2397D02*
Y2432D01*
X6832Y2095D02*
X6867D01*
X6850Y2077D02*
Y2112D01*
X6622Y2215D02*
X6657D01*
X6640Y2197D02*
Y2232D01*
X6387Y2105D02*
X6422D01*
X6405Y2087D02*
Y2122D01*
X6392Y2320D02*
X6427D01*
X6410Y2302D02*
Y2337D01*
X6122Y2085D02*
X6157D01*
X6140Y2067D02*
Y2102D01*
X6197Y2325D02*
X6232D01*
X6215Y2307D02*
Y2342D01*
X6482Y2575D02*
X6517D01*
X6500Y2557D02*
Y2592D01*
X6577Y2425D02*
X6612D01*
X6595Y2407D02*
Y2442D01*
X6197Y2535D02*
X6232D01*
X6215Y2517D02*
Y2552D01*
X6102Y2610D02*
X6137D01*
X6120Y2592D02*
Y2627D01*
X6747Y3410D02*
X6782D01*
X6765Y3392D02*
Y3427D01*
X6822Y3545D02*
X6857D01*
X6840Y3527D02*
Y3562D01*
X6617Y3505D02*
X6652D01*
X6635Y3487D02*
Y3522D01*
X6729Y3682D02*
X6764D01*
X6746Y3665D02*
Y3700D01*
X6812Y3805D02*
X6847D01*
X6830Y3787D02*
Y3822D01*
X6602Y3745D02*
X6637D01*
X6620Y3727D02*
Y3762D01*
X6472Y3600D02*
X6507D01*
X6490Y3582D02*
Y3617D01*
X6432Y3430D02*
X6467D01*
X6450Y3412D02*
Y3447D01*
X6342Y3320D02*
X6377D01*
X6360Y3302D02*
Y3337D01*
X6137Y3185D02*
X6172D01*
X6155Y3167D02*
Y3202D01*
X6132Y3570D02*
X6167D01*
X6150Y3552D02*
Y3587D01*
X6027Y3420D02*
X6062D01*
X6045Y3402D02*
Y3437D01*
X5392Y3315D02*
X5427D01*
X5410Y3297D02*
Y3332D01*
X5537Y2990D02*
X5572D01*
X5555Y2972D02*
Y3007D01*
X5342Y3190D02*
X5377D01*
X5360Y3172D02*
Y3207D01*
X5252Y3290D02*
X5287D01*
X5270Y3272D02*
Y3307D01*
X4732Y2480D02*
X4767D01*
X4750Y2462D02*
Y2497D01*
X4752Y2590D02*
X4787D01*
X4770Y2572D02*
Y2607D01*
X4602Y2705D02*
X4637D01*
X4620Y2687D02*
Y2722D01*
X4407Y2720D02*
X4442D01*
X4425Y2702D02*
Y2737D01*
X4392Y2885D02*
X4427D01*
X4410Y2867D02*
Y2902D01*
X4657Y2875D02*
X4692D01*
X4675Y2857D02*
Y2892D01*
X4817Y3030D02*
X4852D01*
X4835Y3012D02*
Y3047D01*
X4987Y3125D02*
X5022D01*
X5005Y3107D02*
Y3142D01*
X5122Y3140D02*
X5157D01*
X5140Y3122D02*
Y3157D01*
X5247Y3020D02*
X5282D01*
X5265Y3002D02*
Y3037D01*
X5097Y3015D02*
X5132D01*
X5115Y2997D02*
Y3032D01*
X4957Y2995D02*
X4992D01*
X4975Y2977D02*
Y3012D01*
X4872Y2880D02*
X4907D01*
X4890Y2862D02*
Y2897D01*
X4937Y2640D02*
X4972D01*
X4955Y2622D02*
Y2657D01*
X4897Y2535D02*
X4932D01*
X4915Y2517D02*
Y2552D01*
X4922Y1715D02*
X4957D01*
X4940Y1697D02*
Y1732D01*
X5222Y1965D02*
X5257D01*
X5240Y1947D02*
Y1982D01*
X5317Y2005D02*
X5352D01*
X5335Y1987D02*
Y2022D01*
X5627Y2015D02*
X5662D01*
X5645Y1997D02*
Y2032D01*
X5572Y1925D02*
X5607D01*
X5590Y1907D02*
Y1942D01*
X6602Y1160D02*
X6637D01*
X6620Y1142D02*
Y1177D01*
X6457Y1285D02*
X6492D01*
X6475Y1267D02*
Y1302D01*
X6302Y1185D02*
X6337D01*
X6320Y1167D02*
Y1202D01*
X6077Y1145D02*
X6112D01*
X6095Y1127D02*
Y1162D01*
X6157Y1280D02*
X6192D01*
X6175Y1262D02*
Y1297D01*
X5967Y1265D02*
X6002D01*
X5985Y1247D02*
Y1282D01*
X5807Y1150D02*
X5842D01*
X5825Y1132D02*
Y1167D01*
X5822Y1345D02*
X5857D01*
X5840Y1327D02*
Y1362D01*
X5672Y1255D02*
X5707D01*
X5690Y1237D02*
Y1272D01*
X5487Y1185D02*
X5522D01*
X5505Y1167D02*
Y1202D01*
X5532Y1340D02*
X5567D01*
X5550Y1322D02*
Y1357D01*
X4847Y1350D02*
X4882D01*
X4865Y1332D02*
Y1367D01*
X4782Y1215D02*
X4817D01*
X4800Y1197D02*
Y1232D01*
X4622Y1125D02*
X4657D01*
X4640Y1107D02*
Y1142D01*
X4672Y1320D02*
X4707D01*
X4690Y1302D02*
Y1337D01*
X4337Y1120D02*
X4372D01*
X4355Y1102D02*
Y1137D01*
X3417Y1225D02*
X3452D01*
X3435Y1207D02*
Y1242D01*
X2977Y1220D02*
X3012D01*
X2995Y1202D02*
Y1237D01*
X2637Y1215D02*
X2672D01*
X2655Y1197D02*
Y1232D01*
X2472Y1215D02*
X2507D01*
X2490Y1197D02*
Y1232D01*
X2297Y1210D02*
X2332D01*
X2315Y1192D02*
Y1227D01*
X2117Y1205D02*
X2152D01*
X2135Y1187D02*
Y1222D01*
X1917Y1210D02*
X1952D01*
X1935Y1192D02*
Y1227D01*
X1162Y1725D02*
X1197D01*
X1180Y1707D02*
Y1742D01*
X1362Y1735D02*
X1397D01*
X1380Y1717D02*
Y1752D01*
X1262Y1995D02*
X1297D01*
X1280Y1977D02*
Y2012D01*
X1157Y2440D02*
X1192D01*
X1175Y2422D02*
Y2457D01*
X1152Y2180D02*
X1187D01*
X1170Y2162D02*
Y2197D01*
X1282Y2115D02*
X1317D01*
X1300Y2097D02*
Y2132D01*
X1267Y2520D02*
X1302D01*
X1285Y2502D02*
Y2537D01*
X1277Y2675D02*
X1312D01*
X1295Y2657D02*
Y2692D01*
X1282Y2820D02*
X1317D01*
X1300Y2802D02*
Y2837D01*
X1282Y2945D02*
X1317D01*
X1300Y2927D02*
Y2962D01*
X1817Y2810D02*
X1852D01*
X1835Y2792D02*
Y2827D01*
X2002Y2835D02*
X2037D01*
X2020Y2817D02*
Y2852D01*
X2132Y2815D02*
X2167D01*
X2150Y2797D02*
Y2832D01*
X1952Y2950D02*
X1987D01*
X1970Y2932D02*
Y2967D01*
X2147Y2950D02*
X2182D01*
X2165Y2932D02*
Y2967D01*
X2027Y3055D02*
X2062D01*
X2045Y3037D02*
Y3072D01*
X2222Y3075D02*
X2257D01*
X2240Y3057D02*
Y3092D01*
X2122Y3165D02*
X2157D01*
X2140Y3147D02*
Y3182D01*
X2402Y3230D02*
X2437D01*
X2420Y3212D02*
Y3247D01*
X2327Y3340D02*
X2362D01*
X2345Y3322D02*
Y3357D01*
X2262Y3205D02*
X2297D01*
X2280Y3187D02*
Y3222D01*
X3328Y3950D02*
X3351D01*
X3340Y3938D02*
Y3961D01*
X3304Y4005D02*
X3315D01*
X3310Y3999D02*
Y4010D01*
X1923Y1709D02*
X1958D01*
X1940Y1691D02*
Y1726D01*
X4649Y2385D02*
X4660D01*
X4655Y2379D02*
Y2390D01*
X4652Y2280D02*
X4667D01*
X4660Y2272D02*
Y2287D01*
X6112Y2785D02*
X6127D01*
X6120Y2777D02*
Y2792D01*
X6144Y3062D02*
X6160D01*
X6152Y3054D02*
Y3070D01*
X4757Y2330D02*
X4772D01*
X4765Y2322D02*
Y2337D01*
X5392Y2520D02*
X5407D01*
X5400Y2512D02*
Y2527D01*
X5424Y2487D02*
X5439D01*
X5432Y2479D02*
Y2495D01*
X5424Y2425D02*
X5435D01*
X5430Y2419D02*
Y2430D01*
X5434Y2220D02*
X5445D01*
X5440Y2214D02*
Y2225D01*
X5182Y2180D02*
X5197D01*
X5190Y2172D02*
Y2187D01*
X3648Y4410D02*
X3671D01*
X3660Y4398D02*
Y4421D01*
X2773Y4270D02*
X2796D01*
X2785Y4258D02*
Y4281D01*
X2723Y3915D02*
X2746D01*
X2735Y3903D02*
Y3926D01*
X2838Y3915D02*
X2861D01*
X2850Y3903D02*
Y3926D01*
X2967Y3947D02*
X2979D01*
X2973Y3941D02*
Y3953D01*
X2785Y4200D02*
X2805D01*
X2795Y4190D02*
Y4210D01*
X3389Y4225D02*
X3400D01*
X3395Y4219D02*
Y4230D01*
X3160Y4440D02*
X3180D01*
X3170Y4430D02*
Y4450D01*
X2588Y4010D02*
X2611D01*
X2600Y3998D02*
Y4021D01*
X2798Y2490D02*
X2821D01*
X2810Y2478D02*
Y2501D01*
X2568Y3125D02*
X2591D01*
X2580Y3113D02*
Y3137D01*
X2750Y3122D02*
X2774D01*
X2762Y3110D02*
Y3134D01*
X2508Y3430D02*
X2531D01*
X2520Y3418D02*
Y3441D01*
X2898Y3430D02*
X2921D01*
X2910Y3418D02*
Y3441D01*
X1602Y3010D02*
X1637D01*
X1620Y2992D02*
Y3027D01*
X1568Y1300D02*
X1591D01*
X1580Y1288D02*
Y1311D01*
X4060Y1352D02*
X4084D01*
X4072Y1340D02*
Y1364D01*
X5758Y3540D02*
X5781D01*
X5770Y3528D02*
Y3551D01*
X6000Y3310D02*
X6024D01*
X6012Y3298D02*
Y3321D01*
X6444Y3790D02*
X6467D01*
X6456Y3778D02*
Y3801D01*
X6118Y3790D02*
X6141D01*
X6130Y3778D02*
Y3801D01*
X4528Y2750D02*
X4551D01*
X4540Y2738D02*
Y2761D01*
X5127Y2700D02*
X5151D01*
X5139Y2688D02*
Y2712D01*
X5678Y2599D02*
X5701D01*
X5690Y2587D02*
Y2610D01*
X5598Y2589D02*
X5621D01*
X5610Y2577D02*
Y2601D01*
X5748Y2500D02*
X5771D01*
X5760Y2488D02*
Y2511D01*
X5127Y2619D02*
X5151D01*
X5139Y2607D02*
Y2631D01*
X5746Y2251D02*
X5770D01*
X5758Y2239D02*
Y2263D01*
X5828Y2070D02*
X5851D01*
X5840Y2058D02*
Y2081D01*
X5828Y1898D02*
X5851D01*
X5840Y1886D02*
Y1910D01*
X5735Y1466D02*
X5758D01*
X5746Y1455D02*
Y1478D01*
X1670Y2731D02*
X1705D01*
X1688Y2714D02*
Y2749D01*
X2728Y3570D02*
X2751D01*
X2740Y3558D02*
Y3581D01*
X2754Y3260D02*
X2765D01*
X2760Y3254D02*
Y3265D01*
X2478Y3320D02*
X2501D01*
X2490Y3308D02*
Y3331D01*
X6192Y2660D02*
X6227D01*
X6210Y2642D02*
Y2677D01*
X6348Y3230D02*
X6371D01*
X6360Y3218D02*
Y3242D01*
X6165Y3377D02*
X6189D01*
X6177Y3365D02*
Y3389D01*
X3588Y4090D02*
X3611D01*
X3600Y4078D02*
Y4101D01*
X3598Y4180D02*
X3621D01*
X3610Y4168D02*
Y4191D01*
X3598Y4260D02*
X3621D01*
X3610Y4248D02*
Y4271D01*
X3998Y4850D02*
X4021D01*
X4010Y4838D02*
Y4861D01*
X3695Y4710D02*
X3719D01*
X3707Y4698D02*
Y4721D01*
X3958Y4530D02*
X3981D01*
X3970Y4518D02*
Y4541D01*
X3715Y4512D02*
X3739D01*
X3727Y4500D02*
Y4524D01*
X3568Y4600D02*
X3591D01*
X3580Y4588D02*
Y4611D01*
X3578Y4520D02*
X3601D01*
X3590Y4508D02*
Y4531D01*
X2548Y3890D02*
X2571D01*
X2560Y3878D02*
Y3901D01*
X3192Y3913D02*
X3215D01*
X3203Y3902D02*
Y3925D01*
X2778Y4340D02*
X2801D01*
X2790Y4328D02*
Y4351D01*
X3215Y4507D02*
X3239D01*
X3227Y4495D02*
Y4519D01*
X3198Y4140D02*
X3221D01*
X3210Y4128D02*
Y4151D01*
X3776Y3851D02*
X3800D01*
X3788Y3839D02*
Y3863D01*
X4558Y3600D02*
X4581D01*
X4570Y3588D02*
Y3611D01*
X4898Y3720D02*
X4921D01*
X4910Y3708D02*
Y3731D01*
X4548Y4040D02*
X4571D01*
X4560Y4028D02*
Y4051D01*
X4562Y4490D02*
X4597D01*
X4580Y4472D02*
Y4507D01*
X6286Y4258D02*
X6310D01*
X6298Y4246D02*
Y4270D01*
X6253Y4045D02*
X6276D01*
X6265Y4033D02*
Y4056D01*
X5968Y3890D02*
X5991D01*
X5980Y3878D02*
Y3901D01*
X5968Y3990D02*
X5991D01*
X5980Y3978D02*
Y4001D01*
X4968Y2860D02*
X4991D01*
X4980Y2848D02*
Y2871D01*
X5198Y2680D02*
X5221D01*
X5210Y2668D02*
Y2691D01*
X5825Y2597D02*
X5849D01*
X5837Y2585D02*
Y2609D01*
X5588Y2120D02*
X5611D01*
X5600Y2108D02*
Y2131D01*
X5678Y2130D02*
X5701D01*
X5690Y2118D02*
Y2141D01*
X5816Y2181D02*
X5840D01*
X5828Y2169D02*
Y2193D01*
X6168Y1880D02*
X6191D01*
X6180Y1868D02*
Y1891D01*
X5825Y1572D02*
X5848D01*
X5837Y1561D02*
Y1584D01*
X5726Y1942D02*
X5750D01*
X5738Y1931D02*
Y1954D01*
X6002Y1970D02*
X6037D01*
X6020Y1952D02*
Y1987D01*
X4438Y1374D02*
X4461D01*
X4450Y1362D02*
Y1385D01*
X4357Y1388D02*
X4381D01*
X4369Y1376D02*
Y1400D01*
X2819Y1168D02*
X2843D01*
X2831Y1156D02*
Y1180D01*
X2162Y1690D02*
X2197D01*
X2180Y1672D02*
Y1707D01*
X1260Y1817D02*
X1295D01*
X1277Y1800D02*
Y1835D01*
X1248Y1400D02*
X1271D01*
X1260Y1388D02*
Y1411D01*
X1248Y1470D02*
X1271D01*
X1260Y1458D02*
Y1481D01*
X1248Y1540D02*
X1271D01*
X1260Y1528D02*
Y1551D01*
X1248Y1610D02*
X1271D01*
X1260Y1598D02*
Y1621D01*
X1680Y2848D02*
X1715D01*
X1697Y2830D02*
Y2865D01*
X1532Y3330D02*
X1567D01*
X1550Y3312D02*
Y3347D01*
X2609Y4238D02*
X2633D01*
X2621Y4226D02*
Y4250D01*
X2825Y4547D02*
X2849D01*
X2837Y4535D02*
Y4559D01*
X2610Y4677D02*
X2634D01*
X2622Y4665D02*
Y4689D01*
X5402Y1908D02*
X5414D01*
X5408Y1902D02*
Y1914D01*
X5054Y1954D02*
X5065D01*
X5060Y1948D02*
Y1960D01*
X5134Y1930D02*
X5145D01*
X5140Y1924D02*
Y1935D01*
X5244Y2170D02*
X5255D01*
X5250Y2164D02*
Y2175D01*
X2894Y3510D02*
X2905D01*
X2900Y3504D02*
Y3515D01*
X3404Y4370D02*
X3415D01*
X3410Y4364D02*
Y4375D01*
X3726Y4447D02*
X3738D01*
X3732Y4441D02*
Y4453D01*
X5327Y2130D02*
X5343D01*
X5335Y2122D02*
Y2137D01*
X4042Y4360D02*
X4057D01*
X4050Y4352D02*
Y4367D01*
X5362Y2800D02*
X5377D01*
X5370Y2792D02*
Y2807D01*
X5658Y4040D02*
X5681D01*
X5670Y4028D02*
Y4051D01*
M02*