G04*
G04 #@! TF.GenerationSoftware,Altium Limited,Altium Designer,24.6.1 (21)*
G04*
G04 Layer_Color=16711935*
%FSLAX25Y25*%
%MOIN*%
G70*
G04*
G04 #@! TF.SameCoordinates,5EFEE535-70E5-4D74-9779-55D0C0DC933D*
G04*
G04*
G04 #@! TF.FilePolarity,Positive*
G04*
G01*
G75*
%ADD16C,0.00787*%
D16*
X423225Y158749D02*
Y166451D01*
X409775Y158749D02*
X423225D01*
X409775D02*
Y166451D01*
X423225D01*
X484057Y223714D02*
X492743D01*
X484057D02*
Y239486D01*
X492743D01*
Y223714D02*
Y239486D01*
X435657Y235114D02*
X444343D01*
X435657D02*
Y250886D01*
X444343D01*
Y235114D02*
Y250886D01*
X423649Y234975D02*
X431351D01*
X423649D02*
Y248425D01*
X431351D01*
Y234975D02*
Y248425D01*
X474149Y150103D02*
Y163552D01*
Y150103D02*
X481851D01*
Y163552D01*
X474149D02*
X481851D01*
X423886Y165857D02*
Y174543D01*
X408114Y165857D02*
X423886D01*
X408114D02*
Y174543D01*
X423886D01*
X455657Y235114D02*
X464343D01*
X455657D02*
Y250886D01*
X464343D01*
Y235114D02*
Y250886D01*
X445657Y235114D02*
X454343D01*
X445657D02*
Y250886D01*
X454343D01*
Y235114D02*
Y250886D01*
X482257Y164686D02*
X490943D01*
Y148914D02*
Y164686D01*
X482257Y148914D02*
X490943D01*
X482257D02*
Y164686D01*
X422186Y214557D02*
Y223243D01*
X406414Y214557D02*
X422186D01*
X406414D02*
Y223243D01*
X422186D01*
X423325Y174449D02*
Y182151D01*
X409875Y174449D02*
X423325D01*
X409875D02*
Y182151D01*
X423325D01*
M02*
