G04*
G04 #@! TF.GenerationSoftware,Altium Limited,Altium Designer,24.6.1 (21)*
G04*
G04 Layer_Color=32896*
%FSLAX25Y25*%
%MOIN*%
G70*
G04*
G04 #@! TF.SameCoordinates,5EFEE535-70E5-4D74-9779-55D0C0DC933D*
G04*
G04*
G04 #@! TF.FilePolarity,Positive*
G04*
G01*
G75*
G36*
X52039Y323957D02*
X53275Y324831D01*
Y324427D01*
X52616Y323961D01*
X52612D01*
X52609Y323954D01*
X52597Y323946D01*
X52583Y323935D01*
X52546Y323913D01*
X52501Y323880D01*
X52450Y323846D01*
X52398Y323813D01*
X52350Y323783D01*
X52305Y323758D01*
X52313Y323754D01*
X52327Y323743D01*
X52357Y323724D01*
X52394Y323698D01*
X52435Y323669D01*
X52486Y323632D01*
X52538Y323595D01*
X52594Y323550D01*
X53275Y323040D01*
Y322670D01*
X52057Y323558D01*
X50714Y322599D01*
Y323018D01*
X51624Y323665D01*
X51628Y323669D01*
X51639Y323676D01*
X51654Y323684D01*
X51673Y323698D01*
X51724Y323732D01*
X51780Y323769D01*
X51776Y323772D01*
X51761Y323783D01*
X51739Y323798D01*
X51710Y323817D01*
X51650Y323857D01*
X51624Y323876D01*
X51602Y323891D01*
X50714Y324538D01*
Y324945D01*
X52039Y323957D01*
D02*
G37*
G36*
X53275Y320550D02*
X52971D01*
Y321941D01*
X52179D01*
Y320738D01*
X51876D01*
Y321941D01*
X50714D01*
Y322281D01*
X53275D01*
Y320550D01*
D02*
G37*
G36*
X52642Y319995D02*
X52649Y319987D01*
X52653Y319972D01*
X52664Y319954D01*
X52675Y319932D01*
X52690Y319906D01*
X52727Y319843D01*
X52768Y319769D01*
X52820Y319695D01*
X52879Y319617D01*
X52942Y319539D01*
X52945Y319536D01*
X52949Y319532D01*
X52960Y319521D01*
X52971Y319506D01*
X53008Y319473D01*
X53053Y319428D01*
X53104Y319384D01*
X53164Y319336D01*
X53223Y319295D01*
X53286Y319258D01*
Y319055D01*
X50714D01*
Y319369D01*
X52716D01*
X52712Y319373D01*
X52697Y319391D01*
X52675Y319414D01*
X52649Y319451D01*
X52616Y319491D01*
X52579Y319543D01*
X52538Y319602D01*
X52498Y319669D01*
Y319673D01*
X52494Y319676D01*
X52479Y319699D01*
X52461Y319736D01*
X52438Y319780D01*
X52412Y319832D01*
X52387Y319887D01*
X52361Y319943D01*
X52338Y319998D01*
X52642D01*
Y319995D01*
D02*
G37*
M02*
