G04*
G04 #@! TF.GenerationSoftware,Altium Limited,Altium Designer,24.6.1 (21)*
G04*
G04 Layer_Color=0*
%FSLAX25Y25*%
%MOIN*%
G70*
G04*
G04 #@! TF.SameCoordinates,5EFEE535-70E5-4D74-9779-55D0C0DC933D*
G04*
G04*
G04 #@! TF.FilePolarity,Positive*
G04*
G01*
G75*
%ADD109C,0.00394*%
D109*
X215032Y75000D02*
X218969D01*
X217000Y73032D02*
Y76968D01*
X470000Y245031D02*
Y248969D01*
X468032Y247000D02*
X471969D01*
X146000Y87432D02*
Y91369D01*
X144032Y89400D02*
X147968D01*
X114000Y287032D02*
Y290968D01*
X112031Y289000D02*
X115969D01*
X99032Y332000D02*
X102969D01*
X101000Y330031D02*
Y333968D01*
X479953Y379677D02*
X483890D01*
X481921Y377709D02*
Y381646D01*
X461000Y245031D02*
Y248969D01*
X459031Y247000D02*
X462968D01*
X311677Y321000D02*
X315614D01*
X313646Y319032D02*
Y322969D01*
X485900Y328432D02*
Y332368D01*
X483931Y330400D02*
X487868D01*
X552032Y383000D02*
X555969D01*
X554000Y381031D02*
Y384968D01*
X444031Y258000D02*
X447968D01*
X446000Y256031D02*
Y259968D01*
X556000Y124031D02*
Y127969D01*
X554032Y126000D02*
X557969D01*
X278677Y321000D02*
X282614D01*
X280646Y319032D02*
Y322969D01*
X107843Y246031D02*
Y249969D01*
X105874Y248000D02*
X109811D01*
X372819Y47110D02*
Y51047D01*
X370850Y49079D02*
X374787D01*
X386032Y322000D02*
X389968D01*
X388000Y320031D02*
Y323969D01*
X91000Y287032D02*
Y290968D01*
X89031Y289000D02*
X92968D01*
X200134Y304031D02*
Y307968D01*
X198165Y306000D02*
X202102D01*
X350828Y304031D02*
Y307968D01*
X348859Y306000D02*
X352796D01*
X203858Y322000D02*
X207795D01*
X205827Y320031D02*
Y323969D01*
X275646Y303031D02*
Y306968D01*
X273677Y305000D02*
X277614D01*
X556000Y294032D02*
Y297969D01*
X554032Y296000D02*
X557969D01*
X234165Y322000D02*
X238102D01*
X236134Y320031D02*
Y323969D01*
X354031Y322000D02*
X357968D01*
X356000Y320031D02*
Y323969D01*
X106032Y216000D02*
X109968D01*
X108000Y214032D02*
Y217969D01*
X346850Y49079D02*
X350787D01*
X348819Y47110D02*
Y51047D01*
X153000Y329031D02*
Y332968D01*
X151031Y331000D02*
X154969D01*
X153000Y256031D02*
Y259968D01*
X151031Y258000D02*
X154969D01*
X292819Y46953D02*
Y50890D01*
X290850Y48921D02*
X294787D01*
X80000Y218032D02*
Y221969D01*
X78031Y220000D02*
X81968D01*
X151031Y217795D02*
X154969D01*
X153000Y215827D02*
Y219764D01*
X315850Y48921D02*
X319787D01*
X317819Y46953D02*
Y50890D01*
X80000Y234859D02*
Y238796D01*
X78031Y236828D02*
X81968D01*
X429032Y257000D02*
X432969D01*
X431000Y255031D02*
Y258968D01*
X295677Y295000D02*
X299614D01*
X297646Y293032D02*
Y296969D01*
X371000Y294032D02*
Y297969D01*
X369032Y296000D02*
X372969D01*
X150031Y294000D02*
X153969D01*
X152000Y292032D02*
Y295969D01*
X221134Y294032D02*
Y297969D01*
X219165Y296000D02*
X223102D01*
X234000Y153032D02*
Y156968D01*
X232031Y155000D02*
X235968D01*
X569031Y333000D02*
X572968D01*
X571000Y331031D02*
Y334968D01*
M02*
