G04*
G04 #@! TF.GenerationSoftware,Altium Limited,Altium Designer,24.6.1 (21)*
G04*
G04 Layer_Color=32768*
%FSLAX25Y25*%
%MOIN*%
G70*
G04*
G04 #@! TF.SameCoordinates,5EFEE535-70E5-4D74-9779-55D0C0DC933D*
G04*
G04*
G04 #@! TF.FilePolarity,Positive*
G04*
G01*
G75*
%ADD16C,0.00787*%
%ADD110C,0.00197*%
D16*
X168181Y75000D02*
G03*
X265819Y75000I48819J0D01*
G01*
D02*
G03*
X168181Y75000I-48819J0D01*
G01*
X465276Y244638D02*
Y249362D01*
Y244638D02*
X474724D01*
Y249362D01*
X465276D02*
X474724D01*
X142149Y82675D02*
Y96125D01*
X149851D01*
Y82675D02*
Y96125D01*
X142149Y82675D02*
X149851D01*
X105831Y274433D02*
Y303567D01*
X122169D01*
Y274433D02*
Y303567D01*
X105831Y274433D02*
X122169D01*
X79937Y314283D02*
X122063D01*
X79937D02*
Y349716D01*
X122063D01*
Y314283D02*
Y349716D01*
X450937Y345327D02*
X512906D01*
X450937D02*
Y414028D01*
X512906D01*
Y345327D02*
Y414028D01*
X456276Y244638D02*
Y249362D01*
Y244638D02*
X465724D01*
Y249362D01*
X456276D02*
X465724D01*
X301756Y329169D02*
X325535D01*
Y312831D02*
Y329169D01*
X301756Y312831D02*
X325535D01*
X301756D02*
Y329169D01*
X489640Y324888D02*
Y335912D01*
X482160Y324888D02*
X489640D01*
X482160D02*
Y335912D01*
X489640D01*
X537622Y372213D02*
X570378D01*
X537622D02*
Y393787D01*
X570378D01*
Y372213D02*
Y393787D01*
X442149Y264725D02*
X449851D01*
X442149Y251275D02*
Y264725D01*
Y251275D02*
X449851D01*
Y264725D01*
X559851Y119275D02*
Y132725D01*
X552149Y119275D02*
X559851D01*
X552149D02*
Y132725D01*
X559851D01*
X268756Y329169D02*
X292535D01*
Y312831D02*
Y329169D01*
X268756Y312831D02*
X292535D01*
X268756D02*
Y329169D01*
X124969Y233630D02*
Y262370D01*
X90716D02*
X124969D01*
X90716Y233630D02*
Y262370D01*
Y233630D02*
X124969D01*
X380693Y33921D02*
Y64236D01*
X364945Y33921D02*
X380693D01*
X364945D02*
Y64236D01*
X380693D01*
X376110Y330169D02*
X399890D01*
Y313831D02*
Y330169D01*
X376110Y313831D02*
X399890D01*
X376110D02*
Y330169D01*
X82831Y274433D02*
Y303567D01*
X99169D01*
Y274433D02*
Y303567D01*
X82831Y274433D02*
X99169D01*
X206859Y302149D02*
Y309851D01*
X193409D02*
X206859D01*
X193409Y302149D02*
Y309851D01*
Y302149D02*
X206859D01*
X357552D02*
Y309851D01*
X344103D02*
X357552D01*
X344103Y302149D02*
Y309851D01*
Y302149D02*
X357552D01*
X193937Y330169D02*
X217717D01*
Y313831D02*
Y330169D01*
X193937Y313831D02*
X217717D01*
X193937D02*
Y330169D01*
X282370Y301149D02*
Y308851D01*
X268921D02*
X282370D01*
X268921Y301149D02*
Y308851D01*
Y301149D02*
X282370D01*
X552149Y289275D02*
Y302725D01*
X559851D01*
Y289275D02*
Y302725D01*
X552149Y289275D02*
X559851D01*
X224244Y330169D02*
X248024D01*
Y313831D02*
Y330169D01*
X224244Y313831D02*
X248024D01*
X224244D02*
Y330169D01*
X344110D02*
X367890D01*
Y313831D02*
Y330169D01*
X344110Y313831D02*
X367890D01*
X344110D02*
Y330169D01*
X90874Y201630D02*
X125126D01*
X90874D02*
Y230370D01*
X125126D01*
Y201630D02*
Y230370D01*
X340945Y64236D02*
X356693D01*
X340945Y33921D02*
Y64236D01*
Y33921D02*
X356693D01*
Y64236D01*
X170126Y316630D02*
Y345370D01*
X135874D02*
X170126D01*
X135874Y316630D02*
Y345370D01*
Y316630D02*
X170126D01*
X135874Y243630D02*
Y272370D01*
Y243630D02*
X170126D01*
Y272370D01*
X135874D02*
X170126D01*
X300693Y33764D02*
Y64079D01*
X284945Y33764D02*
X300693D01*
X284945D02*
Y64079D01*
X300693D01*
X76149Y213275D02*
Y226725D01*
X83851D01*
Y213275D02*
Y226725D01*
X76149Y213275D02*
X83851D01*
X135284Y196732D02*
X170717D01*
Y238858D01*
X135284D02*
X170717D01*
X135284Y196732D02*
Y238858D01*
X309945Y64079D02*
X325693D01*
X309945Y33764D02*
Y64079D01*
Y33764D02*
X325693D01*
Y64079D01*
X83851Y230103D02*
Y243552D01*
X76149Y230103D02*
X83851D01*
X76149D02*
Y243552D01*
X83851D01*
X423323Y267630D02*
X438677D01*
X423323Y246370D02*
Y267630D01*
Y246370D02*
X438677D01*
Y267630D01*
X286819Y281004D02*
X308472D01*
Y308996D01*
X286819D02*
X308472D01*
X286819Y281004D02*
Y308996D01*
X360173Y282004D02*
Y309996D01*
X381827D01*
Y282004D02*
Y309996D01*
X360173Y282004D02*
X381827D01*
X138417Y277957D02*
X165583D01*
Y310043D01*
X138417D02*
X165583D01*
X138417Y277957D02*
Y310043D01*
X210307Y282004D02*
Y309996D01*
X231961D01*
Y282004D02*
Y309996D01*
X210307Y282004D02*
X231961D01*
X204246Y132106D02*
Y177894D01*
X275033D01*
Y132106D02*
Y177894D01*
X204246Y132106D02*
X275033D01*
X563291Y339732D02*
X578709D01*
Y326268D02*
Y339732D01*
X563291Y326268D02*
X578709D01*
X563291D02*
Y339732D01*
D110*
X50032Y322000D02*
X53969D01*
X52000Y320031D02*
Y323969D01*
X71291Y273181D02*
Y370819D01*
X32709Y273181D02*
X71291D01*
X32709D02*
Y370819D01*
X71291D01*
M02*
