M48
;Layer_Color=9474304
;FILE_FORMAT=2:4
INCH,TZ
;TYPE=PLATED
T01F00S00C0.0118
T02F00S00C0.0157
T03F00S00C0.0236
T04F00S00C0.0260
T05F00S00C0.0350
T06F00S00C0.0354
T07F00S00C0.0362
T08F00S00C0.0394
T09F00S00C0.0402
T10F00S00C0.0429
T11F00S00C0.0453
T12F00S00C0.0512
T13F00S00C0.0591
T14F00S00C0.0598
T15F00S00C0.0906
T16F00S00C0.1260
T17F00S00C0.1378
%
T01
X12700Y11750
X14150Y13150
X39250Y13250
X40700Y12500
X40100Y10700
X40500Y10200
X41500Y8700
X42500Y9500
X44400Y10100
Y10700
X44300Y11300
X44000Y12100
X44392Y12808
X44000Y15200
X43000Y14200
X43400Y7900
X55100Y14100
X54760Y16100
X53200Y20100
X52700Y19900
X52600Y21600
X52900Y23600
Y27700
X54321Y27427
X54900Y26350
X51500Y27400
X50400Y26300
X47700Y26700
X46700Y24100
X46540Y23360
X47120Y22300
X47410Y21550
X47750Y21560
X47790Y21210
X48003Y20726
X46630Y20990
X46826Y21186
X48280Y17920
X48800Y17350
X49800Y17646
Y17923
Y18200
X49100Y16100
X46350Y18500
X45850Y19300
X46000Y19700
X45345Y19455
X45700Y20500
X45656Y20944
X45700Y21400
X45641Y22359
X45200Y23500
X45700Y24200
X44581Y18719
X44500Y17900
X44300Y17600
X45061Y17739
X31496Y26772
X30315Y26378
X29015Y27482
X23228Y26969
X22100Y27150
X22395Y27854
X29100Y15700
X48369Y31420
X48780Y32320
X48580Y33780
X51900Y35900
T02
X47810Y16450
X48310
X49435Y22065
X49210Y22457
X46230Y23510
X44656Y23366
X44150Y23430
X43230Y23890
X42220Y23860
X41830Y22330
X42300Y22000
X42411Y17931
X42380Y17330
X37970Y26800
X37832Y28023
X16100Y27100
X15980Y36720
X48230Y34550
X48860Y34510
T03
X29601Y15220
X33800Y15150
X47795Y14828
X48670Y14820
X55000Y13000
X55080Y12270
X48200Y17520
X49310Y23010
X49200Y24000
X47383Y24115
X54300Y26800
X55060Y29930
X59335Y29815
X59395Y25555
X45190Y25500
X45490Y24700
X44500Y24870
X44600Y26670
X42083Y25016
X42190Y24490
X41170Y25470
X41020Y22370
X43445Y22065
X44459Y22289
X46428Y22288
X43500Y17750
X40780Y17840
X40730Y17020
X40780Y16277
X41950Y15720
X36890Y17020
X34640Y17570
X32800Y16920
X30470Y17420
X27760Y16500
X12700Y16010
X8583Y22317
X8566Y23366
X14294Y27506
X15070Y40170
X16000Y40160
X16876Y40156
X20093Y36390
X27762Y36417
X35200Y36390
X46790Y34370
X48000Y32800
X48330Y37260
X53500Y34400
X55000Y34030
X56764Y35056
X56500Y32520
X55280Y31010
T04
X6000Y21900
Y22900
Y23900
T05
X5000Y6250
X6750Y7000
X7100Y4350
X10350Y3300
X12800Y3500
X12150Y8600
X10600Y8500
X14600Y9950
X10550Y14300
X8000Y14700
X6250Y15000
X5650Y12950
X8300Y12700
X4650Y10350
X4900Y8650
X15450Y8600
X15350Y6350
Y4450
X16950Y3750
X18700Y5500
X20200Y4300
X22450Y4750
X21300Y6200
X22600Y8150
X23950Y9500
X24350Y12100
X26750Y12000
X27100Y10250
X27250Y8000
X27450Y5950
X26550Y3500
X24700Y4350
X30500Y3150
X30700Y12750
X19850Y11400
X17400Y12650
X15900Y12600
X16150Y14300
X17750
X17650Y9400
X16150Y10600
X35850Y12150
X38850Y10100
X39450Y8150
X39200Y5500
X39100Y3650
X36150Y3200
X33150
X47000Y3650
X49700Y3600
X56400Y3650
X57850Y4450
X58200Y5700
X59950Y6300
X59850Y8700
X57650Y8050
X57300Y10250
X55700Y8950
X54650Y7550
X56350Y6300
X54450Y10650
X53250Y9600
X51850Y11100
X53300Y12500
X52050Y14150
X50100Y14450
X50150Y12600
X48900Y13550
X59700Y14550
Y11650
X59750Y16850
X59800Y19150
X59700Y21850
X59750Y24100
X60250Y29150
X53250Y29450
X49950Y30600
X49100Y26900
X51400Y24550
X44700Y28250
X42950Y28900
X43700Y29700
X44400Y30400
X46150Y29850
X41950Y30550
X41150Y29800
X40150Y28800
X39250Y28000
X40150Y26150
X41050Y27050
X41950Y27950
X38450Y30650
X35409Y29741
X34000Y30600
X32450Y29750
X32100Y28400
X34350Y28450
X36358Y26876
X38358Y24826
X33400Y25050
X31950
X30950Y23200
X34500Y22900
X34150Y18450
X38050Y17900
X38200Y15500
X31050Y30450
X27850Y29700
X26700Y28700
X26450Y30500
X25050Y30000
X24550Y28750
X25300Y26700
X26450
X27850Y26750
X27750Y24950
X29200Y25003
X30650Y25000
X23600Y24950
X21750
X20550
X20600Y23250
X23900Y23200
X24800Y19950
X22500
X21600Y18300
X25500
X28300Y19157
X29700Y18400
X18700Y16150
X18300Y22050
X17582Y25800
X18850Y26650
X20050Y26700
X19750Y28250
X17750Y28400
X17600Y30250
X18900Y30600
X20331Y29831
X23450Y30600
X15300Y19100
X14850Y17500
X13000Y17650
X12350Y19200
X9850Y19500
X7250Y20050
X5000Y19200
X5900Y16750
X10450Y16800
X12800Y21600
X12750Y24800
X13300Y25800
X9850Y23950
X7400Y26000
X7200Y27650
X5350Y26450
X4200Y23450
Y22050
X5000Y31150
Y32800
X7800Y32000
X10350Y31700
X11100Y34600
X11950Y36150
X13350Y37950
X12000Y39800
X9200Y39600
X7100Y39100
X5550Y37500
X12500Y33200
X14300Y33950
X15050Y34350
Y35100
X17750Y35500
X17300Y33100
X18900Y32200
X24450Y33250
X26450Y32100
X32200Y33100
X34000Y32200
X39650Y33150
X41400Y33500
Y35550
X43300Y34850
X43450Y37050
X42000Y38400
X43950Y39800
X44150Y32800
X44950Y33550
X45200Y31150
X46050Y31950
X43400Y32000
X42700Y31250
X47000Y39800
X49300Y39700
X52250Y39450
X60050Y36400
X60250Y33850
X60400Y31700
T06
X29400Y4400
Y5384
X31900
Y4400
X35000Y4416
Y5400
X37400
Y4416
T07
X47700Y35413
Y36200
X48684
Y35413
T08
X20432Y34488
X21432
X22432
X23432Y34488
X22932Y35488
X23932
X21932Y35488
X20932
X28483
X29483
X30483Y35488
X29983Y34488
X28983
X27983
X30983Y34488
X31483Y35488
X36000Y35500
X37000
X38000Y35500
X39000
X38500Y34500
X37500Y34500
X36500
X35500
T09
X56800Y12100
Y13100
Y14100
Y15100
X57800
Y14100
Y13100
Y12100
Y16100
X56800
Y17100
Y18100
Y19100
Y20100
Y21100
Y22100
Y23100
Y24100
Y25100
Y26100
Y27100
Y28100
Y29100
Y30100
X57800
Y29100
Y28100
Y27100
Y26100
Y25100
Y24100
Y23100
Y22100
Y21100
Y20100
Y19100
Y18100
Y17100
Y31100
X56800
X56400Y37800
Y38800
X55400
X54400
Y37800
X55400
T10
X42000Y4500
X43000
X44000
X45000
X46000
Y5500
X45000
X44000
X43000
X42000
X50980Y5506
X51980
X52980
X53980
X54980
Y4506
X53980
X52980
X51980
X50980
T11
X18747Y7500
X24653
T12
X10050Y5000
X12550
X11592Y38084
X9092
T13
X5200Y29247
Y35153
T14
X8500Y8939
Y16813
T15
X45822Y37267
X50562
T16
X4042Y3438
X59948
X4042Y39658
X59948
T17
X19913Y38000
X24413Y38050
X27465Y38000
X31965Y38050
X34982Y38012
X39482Y38062
M30
