G04*
G04 #@! TF.GenerationSoftware,Altium Limited,Altium Designer,24.6.1 (21)*
G04*
G04 Layer_Color=16711935*
%FSLAX25Y25*%
%MOIN*%
G70*
G04*
G04 #@! TF.SameCoordinates,5EFEE535-70E5-4D74-9779-55D0C0DC933D*
G04*
G04*
G04 #@! TF.FilePolarity,Positive*
G04*
G01*
G75*
%ADD12C,0.00500*%
%ADD109C,0.00394*%
G36*
X122500Y76800D02*
X120500D01*
Y81300D01*
X122500D01*
Y76800D01*
D02*
G37*
G36*
X127500D02*
X125500D01*
Y81300D01*
X127500D01*
Y76800D01*
D02*
G37*
G36*
X132500Y76900D02*
X130500D01*
Y81400D01*
X132500D01*
Y76900D01*
D02*
G37*
G36*
X137500Y76800D02*
X135500D01*
Y81300D01*
X137500D01*
Y76800D01*
D02*
G37*
G36*
X122500Y96700D02*
X120500D01*
Y101200D01*
X122500D01*
Y96700D01*
D02*
G37*
G36*
X127500D02*
X125500D01*
Y101200D01*
X127500D01*
Y96700D01*
D02*
G37*
G36*
X132500D02*
X130500D01*
Y101200D01*
X132500D01*
Y96700D01*
D02*
G37*
G36*
X137500D02*
X135500D01*
Y101200D01*
X137500D01*
Y96700D01*
D02*
G37*
D12*
X96723Y100642D02*
G03*
X73277Y100642I-11723J43752D01*
G01*
X94153Y79945D02*
G03*
X96653Y82445I0J2500D01*
G01*
X73347D02*
G03*
X75846Y79945I2500J0D01*
G01*
X73347Y82445D02*
Y100623D01*
X75846Y79945D02*
X94153D01*
X96653Y82445D02*
Y100623D01*
X67283Y89394D02*
X71220D01*
X69252Y87425D02*
Y91362D01*
X40709Y168528D02*
X44646D01*
X33000Y252500D02*
X68315D01*
X33000Y205500D02*
Y252500D01*
Y205500D02*
X68315D01*
Y252500D01*
D109*
X484358Y223016D02*
G03*
X484358Y223016I-1969J0D01*
G01*
X285921Y77819D02*
Y115024D01*
X326079Y77819D02*
Y115024D01*
X285921Y77819D02*
X326079D01*
X285921Y115024D02*
X326079D01*
X356421Y361146D02*
Y366854D01*
X365083Y361146D02*
Y366854D01*
X356421Y361146D02*
X365083D01*
X356421Y366854D02*
X365083D01*
X362139Y169937D02*
X367061D01*
Y162063D02*
Y169937D01*
X362139Y162063D02*
X367061D01*
X362139D02*
Y165016D01*
Y162063D02*
Y169937D01*
X583000Y115252D02*
Y316748D01*
X563000D02*
X583000D01*
X563000Y115252D02*
Y316748D01*
Y115252D02*
X583000D01*
X479961Y31969D02*
Y66535D01*
X400039Y31969D02*
X479961D01*
X400039Y66535D02*
X479961D01*
X400039Y31969D02*
Y66535D01*
X88000Y18898D02*
Y68110D01*
X138000D01*
X88000Y18898D02*
X138000D01*
Y68110D01*
X567929Y342539D02*
Y347461D01*
X575803D01*
Y342539D02*
Y347461D01*
X572850Y342539D02*
X575803D01*
X567929D02*
X575803D01*
X465146Y356331D02*
X470854D01*
X465146Y347669D02*
X470854D01*
X465146D02*
Y356331D01*
X470854Y347669D02*
Y356331D01*
X320539Y168937D02*
X325461D01*
Y161063D02*
Y168937D01*
X320539Y161063D02*
X325461D01*
X320539D02*
Y164016D01*
Y161063D02*
Y168937D01*
X281315Y366854D02*
X289976D01*
X281315Y361146D02*
X289976D01*
Y366854D01*
X281315Y361146D02*
Y366854D01*
X380669Y361146D02*
Y366854D01*
X389331Y361146D02*
Y366854D01*
X380669Y361146D02*
X389331D01*
X380669Y366854D02*
X389331D01*
X217803Y361146D02*
Y366854D01*
X226465Y361146D02*
Y366854D01*
X217803Y361146D02*
X226465D01*
X217803Y366854D02*
X226465D01*
X479331Y370146D02*
Y375854D01*
X470669Y370146D02*
Y375854D01*
X479331D01*
X470669Y370146D02*
X479331D01*
X204803Y361146D02*
Y366854D01*
X213465Y361146D02*
Y366854D01*
X204803Y361146D02*
X213465D01*
X204803Y366854D02*
X213465D01*
X230555Y361146D02*
Y366854D01*
X239216Y361146D02*
Y366854D01*
X230555Y361146D02*
X239216D01*
X230555Y366854D02*
X239216D01*
X270554Y125069D02*
Y133731D01*
X264846Y125069D02*
Y133731D01*
X270554D01*
X264846Y125069D02*
X270554D01*
X293315Y366854D02*
X301976D01*
X293315Y361146D02*
X301976D01*
Y366854D01*
X293315Y361146D02*
Y366854D01*
X368669Y361146D02*
Y366854D01*
X377331Y361146D02*
Y366854D01*
X368669Y361146D02*
X377331D01*
X368669Y366854D02*
X377331D01*
X128416Y362725D02*
Y411938D01*
X78416Y362725D02*
X128416D01*
X78416Y411938D02*
X128416D01*
X78416Y362725D02*
Y411938D01*
X148339Y395437D02*
X153261D01*
Y387563D02*
Y395437D01*
X148339Y387563D02*
X153261D01*
X148339D02*
Y390516D01*
Y387563D02*
Y395437D01*
X489842Y32032D02*
Y66599D01*
X569763D01*
X489842Y32032D02*
X569763D01*
Y66599D01*
X305315Y366854D02*
X313976D01*
X305315Y361146D02*
X313976D01*
Y366854D01*
X305315Y361146D02*
Y366854D01*
X157339Y395437D02*
X162261D01*
Y387563D02*
Y395437D01*
X157339Y387563D02*
X162261D01*
X157339D02*
Y390516D01*
Y387563D02*
Y395437D01*
X166339D02*
X171261D01*
Y387563D02*
Y395437D01*
X166339Y387563D02*
X171261D01*
X166339D02*
Y390516D01*
Y387563D02*
Y395437D01*
X458220Y251079D02*
Y282575D01*
X473181D01*
Y251079D02*
Y282575D01*
X458220Y251079D02*
X473181D01*
X165946Y374169D02*
Y382831D01*
X171654Y374169D02*
Y382831D01*
X165946Y374169D02*
X171654D01*
X165946Y382831D02*
X171654D01*
X426669Y270146D02*
Y275854D01*
X435331Y270146D02*
Y275854D01*
X426669D02*
X435331D01*
X426669Y270146D02*
X435331D01*
X435669Y239146D02*
Y244854D01*
X444331Y239146D02*
Y244854D01*
X435669D02*
X444331D01*
X435669Y239146D02*
X444331D01*
X414146Y253669D02*
X419854D01*
X414146Y262331D02*
X419854D01*
X414146Y253669D02*
Y262331D01*
X419854Y253669D02*
Y262331D01*
X591154Y290569D02*
Y299231D01*
X585446Y290569D02*
Y299231D01*
X591154D01*
X585446Y290569D02*
X591154D01*
X586269Y278946D02*
X594931D01*
X586269Y284654D02*
X594931D01*
Y278946D02*
Y284654D01*
X586269Y278946D02*
Y284654D01*
X546346Y266969D02*
Y275631D01*
X552054Y266969D02*
Y275631D01*
X546346Y266969D02*
X552054D01*
X546346Y275631D02*
X552054D01*
X586269Y268846D02*
X594931D01*
X586269Y274554D02*
X594931D01*
Y268846D02*
Y274554D01*
X586269Y268846D02*
Y274554D01*
X559454Y260669D02*
Y269331D01*
X553746Y260669D02*
Y269331D01*
X559454D01*
X553746Y260669D02*
X559454D01*
X537854Y330669D02*
Y339331D01*
X532146Y330669D02*
Y339331D01*
X537854D01*
X532146Y330669D02*
X537854D01*
X586369Y258546D02*
X595031D01*
X586369Y264254D02*
X595031D01*
Y258546D02*
Y264254D01*
X586369Y258546D02*
Y264254D01*
X559854Y328669D02*
Y337331D01*
X554146Y328669D02*
Y337331D01*
X559854D01*
X554146Y328669D02*
X559854D01*
X536669Y318146D02*
X545331D01*
X536669Y323854D02*
X545331D01*
Y318146D02*
Y323854D01*
X536669Y318146D02*
Y323854D01*
X582146Y331669D02*
Y340331D01*
X587854Y331669D02*
Y340331D01*
X582146Y331669D02*
X587854D01*
X582146Y340331D02*
X587854D01*
X555854Y313669D02*
Y322331D01*
X550146Y313669D02*
Y322331D01*
X555854D01*
X550146Y313669D02*
X555854D01*
X281546Y148269D02*
Y156931D01*
X287254Y148269D02*
Y156931D01*
X281546Y148269D02*
X287254D01*
X281546Y156931D02*
X287254D01*
X491346Y333269D02*
Y341931D01*
X497054Y333269D02*
Y341931D01*
X491346Y333269D02*
X497054D01*
X491346Y341931D02*
X497054D01*
X474146Y332869D02*
Y341531D01*
X479854Y332869D02*
Y341531D01*
X474146Y332869D02*
X479854D01*
X474146Y341531D02*
X479854D01*
X430815Y226559D02*
X485933D01*
X430815Y171441D02*
X485933D01*
Y226559D01*
X430815Y171441D02*
Y226559D01*
X156946Y374169D02*
Y382831D01*
X162654Y374169D02*
Y382831D01*
X156946Y374169D02*
X162654D01*
X156946Y382831D02*
X162654D01*
X147946Y374169D02*
Y382831D01*
X153654Y374169D02*
Y382831D01*
X147946Y374169D02*
X153654D01*
X147946Y382831D02*
X153654D01*
X345269Y167146D02*
X353931D01*
X345269Y172854D02*
X353931D01*
Y167146D02*
Y172854D01*
X345269Y167146D02*
Y172854D01*
X303669Y166146D02*
X312331D01*
X303669Y171854D02*
X312331D01*
Y166146D02*
Y171854D01*
X303669Y166146D02*
Y171854D01*
X351769Y180854D02*
X360431D01*
X351769Y175146D02*
X360431D01*
X351769D02*
Y180854D01*
X360431Y175146D02*
Y180854D01*
X309969Y179854D02*
X318631D01*
X309969Y174146D02*
X318631D01*
X309969D02*
Y179854D01*
X318631Y174146D02*
Y179854D01*
X363746Y145669D02*
Y154331D01*
X369454Y145669D02*
Y154331D01*
X363746Y145669D02*
X369454D01*
X363746Y154331D02*
X369454D01*
X321146Y144669D02*
Y153331D01*
X326854Y144669D02*
Y153331D01*
X321146Y144669D02*
X326854D01*
X321146Y153331D02*
X326854D01*
X350269Y143146D02*
X358931D01*
X350269Y148854D02*
X358931D01*
Y143146D02*
Y148854D01*
X350269Y143146D02*
Y148854D01*
X307669Y143146D02*
X316331D01*
X307669Y148854D02*
X316331D01*
Y143146D02*
Y148854D01*
X307669Y143146D02*
Y148854D01*
X543441Y337748D02*
X548559D01*
X543441Y326252D02*
X548559D01*
X543441D02*
Y337748D01*
X548559Y326252D02*
Y337748D01*
X302252Y155441D02*
Y160559D01*
X313748Y155441D02*
Y160559D01*
X302252Y155441D02*
X313748D01*
X302252Y160559D02*
X313748D01*
X338921Y77835D02*
Y115039D01*
X379079Y77835D02*
Y115039D01*
X338921Y77835D02*
X379079D01*
X338921Y115039D02*
X379079D01*
X343852Y156441D02*
Y161559D01*
X355348Y156441D02*
Y161559D01*
X343852Y156441D02*
X355348D01*
X343852Y161559D02*
X355348D01*
X337269Y148854D02*
X345931D01*
X337269Y143146D02*
X345931D01*
X337269D02*
Y148854D01*
X345931Y143146D02*
Y148854D01*
X294669D02*
X303331D01*
X294669Y143146D02*
X303331D01*
X294669D02*
Y148854D01*
X303331Y143146D02*
Y148854D01*
M02*
