G04*
G04 #@! TF.GenerationSoftware,Altium Limited,Altium Designer,24.6.1 (21)*
G04*
G04 Layer_Color=8388736*
%FSLAX25Y25*%
%MOIN*%
G70*
G04*
G04 #@! TF.SameCoordinates,5EFEE535-70E5-4D74-9779-55D0C0DC933D*
G04*
G04*
G04 #@! TF.FilePolarity,Negative*
G04*
G01*
G75*
%ADD19R,0.02953X0.03543*%
%ADD20R,0.05733X0.05136*%
%ADD21R,0.08661X0.09843*%
%ADD22R,0.15748X0.06299*%
%ADD26R,0.06378X0.08583*%
%ADD27R,0.01181X0.03898*%
%ADD29R,0.12598X0.06299*%
%ADD30R,0.05136X0.05733*%
%ADD32R,0.06299X0.15748*%
%ADD33R,0.05906X0.06693*%
%ADD36R,0.02087X0.07795*%
%ADD37R,0.12795X0.08465*%
%ADD38R,0.03740X0.08465*%
%ADD42R,0.35000X0.45000*%
%ADD43R,0.15000X0.08189*%
%ADD44R,0.05260X0.02303*%
G04:AMPARAMS|DCode=45|XSize=52.6mil|YSize=23.03mil|CornerRadius=11.52mil|HoleSize=0mil|Usage=FLASHONLY|Rotation=0.000|XOffset=0mil|YOffset=0mil|HoleType=Round|Shape=RoundedRectangle|*
%AMROUNDEDRECTD45*
21,1,0.05260,0.00000,0,0,0.0*
21,1,0.02957,0.02303,0,0,0.0*
1,1,0.02303,0.01478,0.00000*
1,1,0.02303,-0.01478,0.00000*
1,1,0.02303,-0.01478,0.00000*
1,1,0.02303,0.01478,0.00000*
%
%ADD45ROUNDEDRECTD45*%
%ADD47R,0.03400X0.08800*%
%ADD48R,0.40564X0.33871*%
%ADD49R,0.04540X0.15958*%
%ADD50R,0.05524X0.05524*%
%ADD51R,0.05524X0.05524*%
%ADD52R,0.06115X0.04147*%
%ADD53R,0.08280X0.05918*%
%ADD54R,0.04147X0.06115*%
%ADD55O,0.01784X0.06902*%
%ADD56O,0.06902X0.01784*%
%ADD57R,0.04343X0.03950*%
%ADD58R,0.03950X0.04343*%
%ADD59R,0.06890X0.06890*%
%ADD60C,0.06890*%
%ADD61C,0.13780*%
%ADD62R,0.05591X0.05591*%
%ADD63C,0.05591*%
%ADD64C,0.06902*%
%ADD65R,0.06902X0.06902*%
%ADD66C,0.07099*%
%ADD67R,0.07099X0.07099*%
%ADD68R,0.06181X0.06181*%
%ADD69C,0.06181*%
%ADD70R,0.07887X0.07887*%
%ADD71C,0.07887*%
%ADD72R,0.05512X0.05512*%
%ADD73C,0.05512*%
%ADD74C,0.09776*%
%ADD75C,0.20485*%
%ADD76C,0.06706*%
%ADD77R,0.05398X0.05398*%
%ADD78C,0.05398*%
%ADD79C,0.09658*%
D19*
X472362Y247000D02*
D03*
X467638D02*
D03*
X463362D02*
D03*
X458638D02*
D03*
D20*
X146000Y86228D02*
D03*
Y92572D02*
D03*
X446000Y254828D02*
D03*
Y261172D02*
D03*
X556000Y129172D02*
D03*
Y122828D02*
D03*
Y292828D02*
D03*
Y299172D02*
D03*
X80000Y216828D02*
D03*
Y223172D02*
D03*
Y240000D02*
D03*
Y233655D02*
D03*
D21*
X114000Y279748D02*
D03*
Y298252D02*
D03*
X91000Y279748D02*
D03*
Y298252D02*
D03*
D22*
X113205Y332000D02*
D03*
X88795D02*
D03*
D26*
X305339Y321000D02*
D03*
X321953D02*
D03*
X272339D02*
D03*
X288953D02*
D03*
X379693Y322000D02*
D03*
X396307D02*
D03*
X197520D02*
D03*
X214134D02*
D03*
X227827D02*
D03*
X244441D02*
D03*
X347693D02*
D03*
X364307D02*
D03*
D27*
X487868Y333569D02*
D03*
X485900D02*
D03*
X483931D02*
D03*
Y327231D02*
D03*
X485900D02*
D03*
X487868D02*
D03*
D29*
X98000Y248000D02*
D03*
X117685D02*
D03*
X117842Y216000D02*
D03*
X98158D02*
D03*
X143157Y331000D02*
D03*
X162843D02*
D03*
Y258000D02*
D03*
X143157D02*
D03*
D30*
X196961Y306000D02*
D03*
X203306D02*
D03*
X347655D02*
D03*
X354000D02*
D03*
X272473Y305000D02*
D03*
X278818D02*
D03*
D32*
X153000Y230000D02*
D03*
Y205591D02*
D03*
D33*
X435331Y262000D02*
D03*
Y252000D02*
D03*
X426669D02*
D03*
Y262000D02*
D03*
D36*
X290146Y304705D02*
D03*
X295146D02*
D03*
X300146D02*
D03*
X305146D02*
D03*
Y285295D02*
D03*
X300146D02*
D03*
X295146D02*
D03*
X290146D02*
D03*
X363500Y286295D02*
D03*
X368500D02*
D03*
X373500D02*
D03*
X378500D02*
D03*
Y305705D02*
D03*
X373500D02*
D03*
X368500D02*
D03*
X363500D02*
D03*
X213634Y286295D02*
D03*
X218634D02*
D03*
X223634D02*
D03*
X228634D02*
D03*
Y305705D02*
D03*
X223634D02*
D03*
X218634D02*
D03*
X213634D02*
D03*
D37*
X152000Y305417D02*
D03*
D38*
X161055Y282583D02*
D03*
X152000D02*
D03*
X142945D02*
D03*
D42*
X222140Y155000D02*
D03*
D43*
X267140Y145000D02*
D03*
Y165000D02*
D03*
D44*
X566905Y336740D02*
D03*
D45*
Y329260D02*
D03*
X575095Y333000D02*
D03*
D47*
X136500Y101100D02*
D03*
Y76900D02*
D03*
X131500Y101100D02*
D03*
X126500D02*
D03*
X131500Y76900D02*
D03*
X126500D02*
D03*
X121500Y101100D02*
D03*
Y76900D02*
D03*
D48*
X306000Y89827D02*
D03*
X359000Y89842D02*
D03*
D49*
X296000Y129000D02*
D03*
X316000D02*
D03*
X349000Y129016D02*
D03*
X369000D02*
D03*
D50*
X364600Y170134D02*
D03*
Y161866D02*
D03*
X323000Y169134D02*
D03*
Y160866D02*
D03*
X150800Y395634D02*
D03*
Y387366D02*
D03*
X159800Y395634D02*
D03*
Y387366D02*
D03*
X168800Y395634D02*
D03*
Y387366D02*
D03*
D51*
X567732Y345000D02*
D03*
X576000D02*
D03*
D52*
X267700Y132648D02*
D03*
Y126152D02*
D03*
X168800Y375252D02*
D03*
Y381748D02*
D03*
X417000Y254752D02*
D03*
Y261248D02*
D03*
X588300Y298148D02*
D03*
Y291652D02*
D03*
X549200Y268052D02*
D03*
Y274548D02*
D03*
X556600Y268248D02*
D03*
Y261752D02*
D03*
X535000Y338248D02*
D03*
Y331752D02*
D03*
X557000Y336248D02*
D03*
Y329752D02*
D03*
X585000Y332752D02*
D03*
Y339248D02*
D03*
X553000Y321248D02*
D03*
Y314752D02*
D03*
X284400Y149352D02*
D03*
Y155848D02*
D03*
X494200Y334352D02*
D03*
Y340848D02*
D03*
X477000Y333952D02*
D03*
Y340448D02*
D03*
X159800Y375252D02*
D03*
Y381748D02*
D03*
X150800Y375252D02*
D03*
Y381748D02*
D03*
X366600Y146752D02*
D03*
Y153248D02*
D03*
X324000Y145752D02*
D03*
Y152248D02*
D03*
D53*
X459402Y256000D02*
D03*
X472000D02*
D03*
X459402Y277654D02*
D03*
X472000D02*
D03*
D54*
X427752Y273000D02*
D03*
X434248D02*
D03*
X436752Y242000D02*
D03*
X443248D02*
D03*
X593848Y281800D02*
D03*
X587352D02*
D03*
X593848Y271700D02*
D03*
X587352D02*
D03*
X593948Y261400D02*
D03*
X587452D02*
D03*
X544248Y321000D02*
D03*
X537752D02*
D03*
X352848Y170000D02*
D03*
X346352D02*
D03*
X311248Y169000D02*
D03*
X304752D02*
D03*
X352852Y178000D02*
D03*
X359348D02*
D03*
X311052Y177000D02*
D03*
X317548D02*
D03*
X357848Y146000D02*
D03*
X351352D02*
D03*
X315248D02*
D03*
X308752D02*
D03*
X338352D02*
D03*
X344848D02*
D03*
X295752D02*
D03*
X302248D02*
D03*
D55*
X481996Y228626D02*
D03*
X480028D02*
D03*
X478059D02*
D03*
X476090D02*
D03*
X474122D02*
D03*
X472154D02*
D03*
X470185D02*
D03*
X468217D02*
D03*
X466248D02*
D03*
X464280D02*
D03*
X462311D02*
D03*
X460343D02*
D03*
X458374D02*
D03*
X456405D02*
D03*
X454437D02*
D03*
X452468D02*
D03*
X450500D02*
D03*
X448531D02*
D03*
X446563D02*
D03*
X444594D02*
D03*
X442626D02*
D03*
X440658D02*
D03*
X438689D02*
D03*
X436721D02*
D03*
X434752D02*
D03*
Y169374D02*
D03*
X436721D02*
D03*
X438689D02*
D03*
X440658D02*
D03*
X442626D02*
D03*
X444594D02*
D03*
X446563D02*
D03*
X448531D02*
D03*
X450500D02*
D03*
X452468D02*
D03*
X454437D02*
D03*
X456405D02*
D03*
X458374D02*
D03*
X460343D02*
D03*
X462311D02*
D03*
X464280D02*
D03*
X466248D02*
D03*
X468217D02*
D03*
X470185D02*
D03*
X472154D02*
D03*
X474122D02*
D03*
X476090D02*
D03*
X478059D02*
D03*
X480028D02*
D03*
X481996D02*
D03*
D56*
X428748Y222622D02*
D03*
Y220654D02*
D03*
Y218685D02*
D03*
Y216717D02*
D03*
Y214748D02*
D03*
Y212779D02*
D03*
Y210811D02*
D03*
Y208842D02*
D03*
Y206874D02*
D03*
Y204906D02*
D03*
Y202937D02*
D03*
Y200969D02*
D03*
Y199000D02*
D03*
Y197031D02*
D03*
Y195063D02*
D03*
Y193095D02*
D03*
Y191126D02*
D03*
Y189157D02*
D03*
Y187189D02*
D03*
Y185221D02*
D03*
Y183252D02*
D03*
Y181283D02*
D03*
Y179315D02*
D03*
Y177347D02*
D03*
Y175378D02*
D03*
X488000D02*
D03*
Y177347D02*
D03*
Y179315D02*
D03*
Y181283D02*
D03*
Y183252D02*
D03*
Y185221D02*
D03*
Y187189D02*
D03*
Y189157D02*
D03*
Y191126D02*
D03*
Y193095D02*
D03*
Y195063D02*
D03*
Y197031D02*
D03*
Y199000D02*
D03*
Y200969D02*
D03*
Y202937D02*
D03*
Y204906D02*
D03*
Y206874D02*
D03*
Y208842D02*
D03*
Y210811D02*
D03*
Y212779D02*
D03*
Y214748D02*
D03*
Y216717D02*
D03*
Y218685D02*
D03*
Y220654D02*
D03*
Y222622D02*
D03*
D57*
X542063Y332000D02*
D03*
X549937Y335740D02*
D03*
Y328260D02*
D03*
D58*
X308000Y154063D02*
D03*
X304260Y161937D02*
D03*
X311740D02*
D03*
X349600Y155063D02*
D03*
X345860Y162937D02*
D03*
X353340D02*
D03*
D59*
X246528Y75000D02*
D03*
D60*
X187472D02*
D03*
D61*
X505622Y372669D02*
D03*
X458220D02*
D03*
D62*
X477000Y354126D02*
D03*
D63*
X486842D02*
D03*
Y362000D02*
D03*
X477000D02*
D03*
D64*
X568000Y121000D02*
D03*
Y131000D02*
D03*
Y141000D02*
D03*
Y151000D02*
D03*
Y161000D02*
D03*
Y171000D02*
D03*
Y181000D02*
D03*
Y191000D02*
D03*
Y201000D02*
D03*
Y211000D02*
D03*
Y221000D02*
D03*
Y231000D02*
D03*
Y241000D02*
D03*
Y251000D02*
D03*
Y261000D02*
D03*
Y271000D02*
D03*
Y281000D02*
D03*
Y291000D02*
D03*
Y301000D02*
D03*
X578000Y121000D02*
D03*
Y131000D02*
D03*
Y141000D02*
D03*
Y151000D02*
D03*
Y161000D02*
D03*
Y171000D02*
D03*
Y181000D02*
D03*
Y191000D02*
D03*
Y201000D02*
D03*
Y211000D02*
D03*
Y221000D02*
D03*
Y231000D02*
D03*
Y241000D02*
D03*
Y251000D02*
D03*
Y261000D02*
D03*
Y271000D02*
D03*
Y281000D02*
D03*
Y291000D02*
D03*
Y301000D02*
D03*
Y311000D02*
D03*
D65*
X568000D02*
D03*
D66*
X460000Y45000D02*
D03*
X450000D02*
D03*
X440000D02*
D03*
X430000D02*
D03*
X420000D02*
D03*
X450000Y55000D02*
D03*
X440000D02*
D03*
X430000D02*
D03*
X420000D02*
D03*
X509802Y55064D02*
D03*
X519802D02*
D03*
X529802D02*
D03*
X539802D02*
D03*
X509802Y45064D02*
D03*
X519802D02*
D03*
X529802D02*
D03*
X539802D02*
D03*
X549802D02*
D03*
D67*
X460000Y55000D02*
D03*
X549802Y55064D02*
D03*
D68*
X564000Y388000D02*
D03*
D69*
X554000D02*
D03*
X544000D02*
D03*
X564000Y378000D02*
D03*
X554000D02*
D03*
X544000D02*
D03*
D70*
X100500Y50000D02*
D03*
X115916Y380836D02*
D03*
D71*
X125500Y50000D02*
D03*
X90916Y380836D02*
D03*
D72*
X374000Y54000D02*
D03*
X350000D02*
D03*
X294000Y53843D02*
D03*
X319000D02*
D03*
D73*
X374000Y44157D02*
D03*
X350000D02*
D03*
X294000Y44000D02*
D03*
X319000D02*
D03*
D74*
X85000Y89394D02*
D03*
Y168134D02*
D03*
D75*
X274646Y380000D02*
D03*
X319646Y380500D02*
D03*
X394816Y380619D02*
D03*
X349816Y380119D02*
D03*
X199134Y380000D02*
D03*
X244134Y380500D02*
D03*
X599479Y34379D02*
D03*
Y396584D02*
D03*
X40424Y34379D02*
D03*
Y396584D02*
D03*
D76*
X304830Y354881D02*
D03*
X299830Y344881D02*
D03*
X294830Y354881D02*
D03*
X289829Y344881D02*
D03*
X284829Y354881D02*
D03*
X279830Y344881D02*
D03*
X314829Y354881D02*
D03*
X309829Y344881D02*
D03*
X385000Y345000D02*
D03*
X390000Y355000D02*
D03*
X355000Y345000D02*
D03*
X360000Y355000D02*
D03*
X365000Y345000D02*
D03*
X370000Y355000D02*
D03*
X375000Y345000D02*
D03*
X380000Y355000D02*
D03*
X229318Y354881D02*
D03*
X224318Y344881D02*
D03*
X219318Y354881D02*
D03*
X214318Y344881D02*
D03*
X209318Y354881D02*
D03*
X204318Y344881D02*
D03*
X239318Y354881D02*
D03*
X234318Y344881D02*
D03*
D77*
X60000Y239000D02*
D03*
D78*
Y229000D02*
D03*
Y219000D02*
D03*
D79*
X52000Y351528D02*
D03*
Y292472D02*
D03*
M02*
