G04*
G04 #@! TF.GenerationSoftware,Altium Limited,Altium Designer,24.6.1 (21)*
G04*
G04 Layer_Physical_Order=4*
G04 Layer_Color=16711680*
%FSLAX25Y25*%
%MOIN*%
G70*
G04*
G04 #@! TF.SameCoordinates,5EFEE535-70E5-4D74-9779-55D0C0DC933D*
G04*
G04*
G04 #@! TF.FilePolarity,Positive*
G04*
G01*
G75*
%ADD13C,0.01000*%
%ADD20R,0.05733X0.05136*%
%ADD30R,0.05136X0.05733*%
%ADD31R,0.05315X0.03347*%
%ADD35R,0.03347X0.05315*%
%ADD59R,0.06890X0.06890*%
%ADD60C,0.06890*%
%ADD61C,0.13780*%
%ADD62R,0.05591X0.05591*%
%ADD63C,0.05591*%
%ADD68R,0.06181X0.06181*%
%ADD69C,0.06181*%
%ADD72R,0.05512X0.05512*%
%ADD73C,0.05512*%
%ADD81C,0.00800*%
%ADD83C,0.03000*%
%ADD88C,0.06102*%
%ADD89R,0.06102X0.06102*%
%ADD90C,0.06299*%
%ADD91R,0.06299X0.06299*%
%ADD92R,0.07087X0.07087*%
%ADD93C,0.07087*%
%ADD94C,0.08976*%
%ADD95C,0.19685*%
%ADD96C,0.05906*%
%ADD97R,0.04598X0.04598*%
%ADD98C,0.04598*%
%ADD99C,0.08858*%
%ADD100C,0.06000*%
%ADD101C,0.01772*%
%ADD102C,0.03543*%
%ADD103C,0.02362*%
%ADD105R,0.04749X0.03765*%
%ADD106R,0.03765X0.04749*%
%ADD107C,0.03500*%
D13*
X454865Y247035D02*
X454900Y247000D01*
D20*
X427500Y244872D02*
D03*
Y238528D02*
D03*
X478000Y160000D02*
D03*
Y153655D02*
D03*
D30*
X413328Y162600D02*
D03*
X419672D02*
D03*
X413428Y178300D02*
D03*
X419772D02*
D03*
D31*
X468000Y355248D02*
D03*
Y348752D02*
D03*
D35*
X357504Y364000D02*
D03*
X364000D02*
D03*
X288894D02*
D03*
X282398D02*
D03*
X381752D02*
D03*
X388248D02*
D03*
X218886D02*
D03*
X225382D02*
D03*
X478248Y373000D02*
D03*
X471752D02*
D03*
X205886Y364000D02*
D03*
X212382D02*
D03*
X231638D02*
D03*
X238134D02*
D03*
X300894D02*
D03*
X294398D02*
D03*
X369752D02*
D03*
X376248D02*
D03*
X312894D02*
D03*
X306398D02*
D03*
D59*
X246528Y75000D02*
D03*
D60*
X187472D02*
D03*
D61*
X505622Y372669D02*
D03*
X458220D02*
D03*
D62*
X477000Y354126D02*
D03*
D63*
X486842D02*
D03*
Y362000D02*
D03*
X477000D02*
D03*
D68*
X564000Y388000D02*
D03*
D69*
X554000D02*
D03*
X544000D02*
D03*
X564000Y378000D02*
D03*
X554000D02*
D03*
X544000D02*
D03*
D72*
X374000Y54000D02*
D03*
X350000D02*
D03*
X294000Y53843D02*
D03*
X319000D02*
D03*
D73*
X374000Y44157D02*
D03*
X350000D02*
D03*
X294000Y44000D02*
D03*
X319000D02*
D03*
D81*
X344783Y267717D02*
X403060Y209440D01*
X314961Y267717D02*
X344783D01*
X403060Y209440D02*
X456560D01*
X399500Y205000D02*
X457000D01*
X340721Y263779D02*
X399500Y205000D01*
X303150Y263779D02*
X340721D01*
X236910Y275590D02*
X311500Y201000D01*
X226899Y275590D02*
X236910D01*
X311500Y201000D02*
X456000D01*
X221000Y271500D02*
X297951Y194549D01*
X453451D01*
X483200Y228900D02*
Y314200D01*
X526000Y216000D02*
X531000Y221000D01*
X568000D01*
X127000Y117500D02*
X141000Y131500D01*
X141500D01*
X446563Y238063D02*
X447465Y238965D01*
X450000D01*
X446563Y233663D02*
Y238063D01*
X501000Y161000D02*
X547600D01*
X479000Y167200D02*
X494800D01*
X501000Y161000D01*
X502500Y176000D02*
X564000D01*
X502043Y176457D02*
X502500Y176000D01*
X498000Y176457D02*
X502043D01*
X539000Y216000D02*
X570000D01*
X498228Y179000D02*
X502000D01*
X539000Y216000D01*
X498000Y182000D02*
Y197000D01*
Y179228D02*
X498228Y179000D01*
X477000Y233500D02*
Y253204D01*
X468000Y221000D02*
Y224500D01*
X477000Y233500D01*
X459594Y223594D02*
X466000Y230000D01*
X466000D01*
X458595Y223594D02*
X459594D01*
X470000Y234000D02*
Y262000D01*
X466000Y230000D02*
X470000Y234000D01*
X465400Y233600D02*
X467000Y235200D01*
X456405Y223594D02*
X458595D01*
X467000Y235200D02*
Y241000D01*
X392500Y129000D02*
Y132500D01*
Y129000D02*
X408500Y113000D01*
X532000Y201000D02*
X548500D01*
X558500Y191000D02*
X568000D01*
X548500Y201000D02*
X558500Y191000D01*
X434000Y72000D02*
Y79000D01*
X440000Y55000D02*
Y66000D01*
X434000Y72000D02*
X440000Y66000D01*
X415000Y60000D02*
Y87000D01*
Y60000D02*
X420000Y55000D01*
X159800Y367200D02*
X161000Y366000D01*
Y271000D02*
Y366000D01*
X483200Y314200D02*
X483686D01*
X467716Y213416D02*
X483200Y228900D01*
X481400Y229646D02*
Y316800D01*
X465916Y214162D02*
X481400Y229646D01*
X408500Y113000D02*
X443000D01*
X425000Y52000D02*
Y95000D01*
Y52000D02*
X427000Y50000D01*
X445000D01*
X454500Y100000D02*
Y169500D01*
X504500Y50000D02*
X514866D01*
X454500Y100000D02*
X504500Y50000D01*
X460000Y125000D02*
X519000Y66000D01*
X460000Y125000D02*
Y168000D01*
X466000Y131000D02*
X535000Y62000D01*
X466000Y131000D02*
Y167000D01*
X535000Y49866D02*
Y62000D01*
X445000Y179000D02*
X454500Y169500D01*
X450613Y177387D02*
X460000Y168000D01*
X445811Y187189D02*
X466000Y167000D01*
X543100Y256100D02*
X553000D01*
X482800Y179200D02*
Y195800D01*
X543100Y256100D01*
X481400Y316800D02*
X487800Y323200D01*
X498500Y270500D02*
X527000Y299000D01*
X498500Y217500D02*
Y270500D01*
X491228Y210228D02*
X498500Y217500D01*
X483000Y210228D02*
X491228D01*
X527000Y299000D02*
Y371000D01*
X480031Y207260D02*
X483000Y210228D01*
X455415Y198000D02*
X458500Y194915D01*
Y193000D02*
Y194915D01*
X463000Y185500D02*
X463500Y185000D01*
X463000Y185500D02*
Y216000D01*
X291000Y157000D02*
X352000D01*
X527000Y371000D02*
X539000Y383000D01*
X549000D01*
X554000Y388000D01*
X542000Y355000D02*
X556000Y369000D01*
X542000Y290000D02*
Y355000D01*
X529000Y277000D02*
X542000Y290000D01*
X556000Y369000D02*
X559000Y372000D01*
Y383000D02*
X564000Y388000D01*
X559000Y372000D02*
Y383000D01*
X498000Y197000D02*
X562000Y261000D01*
X488000Y195000D02*
X529000Y236000D01*
X470000Y262000D02*
X474000Y266000D01*
X477000Y253204D02*
Y267000D01*
X515000Y274000D02*
X515267Y274267D01*
X543206D01*
X504000Y263000D02*
X504500Y263500D01*
X549000D01*
X474000Y266000D02*
Y314000D01*
X519000Y359000D01*
X488000Y173500D02*
Y195000D01*
X474100Y174800D02*
Y212200D01*
X477052Y174748D02*
Y211252D01*
X293307Y271654D02*
X350394D01*
X290146Y274815D02*
X293307Y271654D01*
X223948Y278542D02*
X226899Y275590D01*
X232283Y269685D02*
X303969Y198000D01*
X408047Y214000D02*
X457000D01*
X350394Y271654D02*
X408047Y214000D01*
X299830Y362936D02*
X300894Y364000D01*
X294398D02*
X294830Y363568D01*
Y354881D02*
Y363568D01*
X299830Y344881D02*
Y362936D01*
X303969Y198000D02*
X455415D01*
X456000Y201000D02*
X460000Y197000D01*
X419435Y220000D02*
X423000D01*
X418335Y218900D02*
X419435Y220000D01*
X352000Y157000D02*
X361000Y148000D01*
X436000D01*
X440000Y152000D01*
X430000Y142000D02*
X443919Y128081D01*
X407000Y125000D02*
X436000D01*
X440000Y121000D01*
X406000Y101000D02*
X444000D01*
X405000Y102000D02*
X406000Y101000D01*
X401000Y107000D02*
X444000D01*
X445000Y50000D02*
X450000Y45000D01*
X535000Y49866D02*
X539802Y45064D01*
X525000Y49866D02*
X529802Y45064D01*
X525000Y49866D02*
Y60000D01*
X519000Y66000D02*
X525000Y60000D01*
X450000Y55000D02*
Y169000D01*
X443000Y176000D02*
X450000Y169000D01*
X423135Y173300D02*
X423800D01*
X420035Y170200D02*
X423135Y173300D01*
X420035Y162963D02*
Y170200D01*
X514866Y50000D02*
X519802Y45064D01*
X463000Y216000D02*
X468000Y221000D01*
X466300Y209900D02*
X466643Y210244D01*
X573000Y276000D02*
X578000Y281000D01*
X564000Y276000D02*
X573000D01*
X562000Y274000D02*
X564000Y276000D01*
X562000Y261000D02*
Y274000D01*
X570000Y216000D02*
X573000Y219000D01*
Y255000D01*
X578000Y260000D01*
Y261000D01*
Y271000D02*
X579000D01*
X586000Y264000D01*
Y179000D02*
Y264000D01*
X583000Y176000D02*
X586000Y179000D01*
X564000Y176000D02*
X583000D01*
X573100Y286100D02*
X578000Y291000D01*
X565000Y286100D02*
X573100D01*
X558300Y279400D02*
X565000Y286100D01*
X558300Y261400D02*
Y279400D01*
X553000Y256100D02*
X558300Y261400D01*
X467716Y212403D02*
Y213416D01*
X465974Y210913D02*
X466643Y210244D01*
X465916Y211658D02*
X465974Y211600D01*
X467716Y212403D02*
X468260Y211860D01*
X465916Y211658D02*
Y214162D01*
X465974Y210913D02*
Y211600D01*
X471175Y175025D02*
Y212575D01*
X474100Y215500D01*
Y212200D02*
X477500Y215600D01*
X477052Y211252D02*
X477900Y212100D01*
X477052Y174748D02*
X480800Y171000D01*
X474100Y174800D02*
X479900Y169000D01*
X543500D01*
X561500Y151000D01*
X471175Y175025D02*
X479000Y167200D01*
X561500Y151000D02*
X568000D01*
X480800Y171000D02*
X568000D01*
X490835Y160835D02*
X491000Y161000D01*
X478000Y160000D02*
X478100Y160100D01*
Y164500D01*
X483100Y164335D02*
Y164500D01*
Y164335D02*
X486600Y160835D01*
X527000Y199000D02*
X545000Y181000D01*
X486600Y160835D02*
X490835D01*
X545000Y181000D02*
X568000D01*
X556000Y136000D02*
X573000D01*
X551000Y141000D02*
X556000Y136000D01*
X573000D02*
X578000Y131000D01*
X482000Y345800D02*
Y357157D01*
Y345800D02*
X482300Y345500D01*
X488600Y345100D02*
Y354126D01*
X378321Y269379D02*
X379700Y268000D01*
X452000Y235000D02*
Y236965D01*
X450000Y238965D02*
X452000Y236965D01*
X457000Y241965D02*
Y242000D01*
X418300Y223300D02*
X418335Y223265D01*
Y218900D02*
Y223265D01*
X427500Y238528D02*
X427872Y238900D01*
X378321Y269379D02*
Y280229D01*
X419500Y157200D02*
X419672Y157372D01*
Y162600D01*
X420035Y162963D01*
X486842Y354126D02*
X488600D01*
X482000Y357157D02*
X486842Y362000D01*
X224318Y362936D02*
X225382Y364000D01*
X224318Y344881D02*
Y362936D01*
X218886Y355313D02*
Y364000D01*
Y355313D02*
X219318Y354881D01*
X375000Y345000D02*
Y362752D01*
X376248Y364000D01*
X364000D02*
X364248Y363752D01*
X370000Y355000D02*
Y363752D01*
X419772Y178300D02*
X420787Y179315D01*
X424115D01*
X440000Y238965D02*
X441500Y237465D01*
Y234300D02*
Y237465D01*
D83*
X488400Y227565D02*
X492100D01*
Y224567D02*
Y227565D01*
X244500Y332500D02*
X245500Y333500D01*
X241000Y364000D02*
X245500Y359500D01*
Y333500D02*
Y359500D01*
X422200Y238600D02*
X422272Y238528D01*
X427500D01*
X238134Y364000D02*
X241000D01*
X322000Y331000D02*
Y358500D01*
X312894Y364000D02*
X316500D01*
X322000Y358500D01*
X388248Y364000D02*
X392500D01*
X396500Y331500D02*
Y360000D01*
X392500Y364000D02*
X396500Y360000D01*
X488400Y235635D02*
Y236400D01*
X492000Y240000D01*
X490935Y230100D02*
X493100D01*
X488400Y227565D02*
X490935Y230100D01*
X288894Y364000D02*
X294398D01*
X300894D02*
X306398D01*
X277617Y364167D02*
X277785Y364000D01*
X282398D01*
X413242Y162686D02*
X413328Y162600D01*
X407886Y162686D02*
X413242D01*
X407800Y162772D02*
X407886Y162686D01*
X454900Y247000D02*
X454935Y247035D01*
X460000D01*
X467900Y343700D02*
X468000Y343800D01*
Y348752D01*
X457000Y241965D02*
X460000Y238965D01*
X450000Y247035D02*
X454865D01*
X446665D02*
X450000D01*
X410265Y218900D02*
Y223635D01*
X410200Y223700D02*
X410265Y223635D01*
X427872Y238900D02*
X432300D01*
X460000Y238965D02*
X462300Y236665D01*
X200934Y363900D02*
X201034Y364000D01*
X205886D01*
X352000Y363900D02*
X352100Y364000D01*
X357504D01*
X482800Y373100D02*
X483300Y372600D01*
X479200Y373100D02*
X482800D01*
X479100Y373000D02*
X479200Y373100D01*
X478248Y373000D02*
X479100D01*
X486600Y148300D02*
X486700Y148200D01*
X486600Y148300D02*
Y152765D01*
X477947Y148276D02*
Y153602D01*
X478000Y153655D01*
X407300Y170200D02*
X411965D01*
X407800Y178400D02*
X407900Y178300D01*
X413428D01*
X421900Y244900D02*
X421928Y244872D01*
X427500D01*
X443335Y247035D02*
X445000Y248700D01*
X440000Y247035D02*
X443335D01*
X445000Y248700D02*
X446665Y247035D01*
X471752Y373000D02*
Y377652D01*
X476600Y382500D02*
X495100D01*
X471752Y377652D02*
X476600Y382500D01*
X504931Y372669D02*
X505622D01*
X495100Y382500D02*
X504931Y372669D01*
X458220D02*
X458551Y373000D01*
X471752D01*
X475878Y355248D02*
X477000Y354126D01*
X468000Y355248D02*
X475878D01*
X225382Y364000D02*
X231638D01*
X212382D02*
X218886D01*
X376248D02*
X381752D01*
X364248Y363752D02*
X370000D01*
X462300Y235100D02*
Y236665D01*
D88*
X568000Y121000D02*
D03*
Y131000D02*
D03*
Y141000D02*
D03*
Y151000D02*
D03*
Y161000D02*
D03*
Y171000D02*
D03*
Y181000D02*
D03*
Y191000D02*
D03*
Y201000D02*
D03*
Y211000D02*
D03*
Y221000D02*
D03*
Y231000D02*
D03*
Y241000D02*
D03*
Y251000D02*
D03*
Y261000D02*
D03*
Y271000D02*
D03*
Y281000D02*
D03*
Y291000D02*
D03*
Y301000D02*
D03*
X578000Y121000D02*
D03*
Y131000D02*
D03*
Y141000D02*
D03*
Y151000D02*
D03*
Y161000D02*
D03*
Y171000D02*
D03*
Y181000D02*
D03*
Y191000D02*
D03*
Y201000D02*
D03*
Y211000D02*
D03*
Y221000D02*
D03*
Y231000D02*
D03*
Y241000D02*
D03*
Y251000D02*
D03*
Y261000D02*
D03*
Y271000D02*
D03*
Y281000D02*
D03*
Y291000D02*
D03*
Y301000D02*
D03*
Y311000D02*
D03*
D89*
X568000D02*
D03*
D90*
X460000Y45000D02*
D03*
X450000D02*
D03*
X440000D02*
D03*
X430000D02*
D03*
X420000D02*
D03*
X450000Y55000D02*
D03*
X440000D02*
D03*
X430000D02*
D03*
X420000D02*
D03*
X509802Y55064D02*
D03*
X519802D02*
D03*
X529802D02*
D03*
X539802D02*
D03*
X509802Y45064D02*
D03*
X519802D02*
D03*
X529802D02*
D03*
X539802D02*
D03*
X549802D02*
D03*
D91*
X460000Y55000D02*
D03*
X549802Y55064D02*
D03*
D92*
X100500Y50000D02*
D03*
X115916Y380836D02*
D03*
D93*
X125500Y50000D02*
D03*
X90916Y380836D02*
D03*
D94*
X85000Y89394D02*
D03*
Y168134D02*
D03*
D95*
X274646Y380000D02*
D03*
X319646Y380500D02*
D03*
X394816Y380619D02*
D03*
X349816Y380119D02*
D03*
X199134Y380000D02*
D03*
X244134Y380500D02*
D03*
X599479Y34379D02*
D03*
Y396584D02*
D03*
X40424Y34379D02*
D03*
Y396584D02*
D03*
D96*
X304830Y354881D02*
D03*
X299830Y344881D02*
D03*
X294830Y354881D02*
D03*
X289829Y344881D02*
D03*
X284829Y354881D02*
D03*
X279830Y344881D02*
D03*
X314829Y354881D02*
D03*
X309829Y344881D02*
D03*
X385000Y345000D02*
D03*
X390000Y355000D02*
D03*
X355000Y345000D02*
D03*
X360000Y355000D02*
D03*
X365000Y345000D02*
D03*
X370000Y355000D02*
D03*
X375000Y345000D02*
D03*
X380000Y355000D02*
D03*
X229318Y354881D02*
D03*
X224318Y344881D02*
D03*
X219318Y354881D02*
D03*
X214318Y344881D02*
D03*
X209318Y354881D02*
D03*
X204318Y344881D02*
D03*
X239318Y354881D02*
D03*
X234318Y344881D02*
D03*
D97*
X60000Y239000D02*
D03*
D98*
Y229000D02*
D03*
Y219000D02*
D03*
D99*
X52000Y351528D02*
D03*
Y292472D02*
D03*
D100*
X363581Y268761D02*
D03*
X383581Y248261D02*
D03*
X297000Y184000D02*
D03*
X532500Y294500D02*
D03*
X514000Y245500D02*
D03*
X491000Y269000D02*
D03*
X447000Y282500D02*
D03*
X461500Y298500D02*
D03*
X499500Y306000D02*
D03*
X470000Y398000D02*
D03*
X493000Y397000D02*
D03*
X522500Y394500D02*
D03*
X439500Y398000D02*
D03*
X420000Y384000D02*
D03*
X434500Y370500D02*
D03*
X414000Y355500D02*
D03*
X433000Y348500D02*
D03*
X414000Y335000D02*
D03*
X600500Y364000D02*
D03*
X602500Y338500D02*
D03*
X604000Y317000D02*
D03*
X602500Y291500D02*
D03*
X597500Y241000D02*
D03*
X597000Y218500D02*
D03*
X598000Y191500D02*
D03*
X597500Y168500D02*
D03*
X597000Y145500D02*
D03*
Y116500D02*
D03*
X598500Y87000D02*
D03*
X599500Y63000D02*
D03*
X578500Y44500D02*
D03*
X582000Y57000D02*
D03*
X576500Y80500D02*
D03*
X573000Y102500D02*
D03*
X557000Y89500D02*
D03*
X544500Y106500D02*
D03*
X533000Y125000D02*
D03*
X520500Y141500D02*
D03*
X489000Y135500D02*
D03*
X501000Y144500D02*
D03*
X501500Y126000D02*
D03*
X518500Y111000D02*
D03*
X532500Y96000D02*
D03*
X546500Y75500D02*
D03*
X563500Y63000D02*
D03*
X564000Y36500D02*
D03*
X497000Y36000D02*
D03*
X470000Y36500D02*
D03*
X305000Y31500D02*
D03*
X361500Y32000D02*
D03*
X331500D02*
D03*
X391000Y36500D02*
D03*
X392000Y55000D02*
D03*
X394500Y81500D02*
D03*
X388500Y101000D02*
D03*
X358500Y121500D02*
D03*
X307000Y127500D02*
D03*
X341500Y184500D02*
D03*
X225000Y199500D02*
D03*
X255000Y183000D02*
D03*
X283001Y191570D02*
D03*
X248000Y199500D02*
D03*
X345000Y229000D02*
D03*
X309500Y232000D02*
D03*
X239000D02*
D03*
X206000Y232500D02*
D03*
X183000Y220500D02*
D03*
X321000Y284000D02*
D03*
X343500Y284500D02*
D03*
X324500Y297500D02*
D03*
X267000Y287000D02*
D03*
X245500Y287500D02*
D03*
X250500Y300000D02*
D03*
X197500Y282500D02*
D03*
X177500Y284000D02*
D03*
X176000Y302500D02*
D03*
X177500Y355000D02*
D03*
X216000Y183000D02*
D03*
X187000Y161500D02*
D03*
X198500Y114000D02*
D03*
X243500Y121000D02*
D03*
X271000Y102500D02*
D03*
X239500Y95000D02*
D03*
X272500Y80000D02*
D03*
X274500Y59500D02*
D03*
X265500Y35000D02*
D03*
X247000Y43500D02*
D03*
X226000Y81500D02*
D03*
X224500Y47500D02*
D03*
X213000Y62000D02*
D03*
X202000Y43000D02*
D03*
X187000Y55000D02*
D03*
X161500Y106000D02*
D03*
X176500Y94000D02*
D03*
X169500Y37500D02*
D03*
X153500Y44500D02*
D03*
Y63500D02*
D03*
X128000Y35000D02*
D03*
X106000Y85000D02*
D03*
X103500Y33000D02*
D03*
X71000Y43500D02*
D03*
X67500Y70000D02*
D03*
X50000Y62500D02*
D03*
X49000Y86500D02*
D03*
X46500Y103500D02*
D03*
X83000Y127000D02*
D03*
X56500Y129500D02*
D03*
X105500Y143000D02*
D03*
X80000Y147000D02*
D03*
X62500Y150000D02*
D03*
X104500Y168000D02*
D03*
X148500Y175000D02*
D03*
X130000Y176500D02*
D03*
X123500Y192000D02*
D03*
X98500Y195000D02*
D03*
X72500Y200500D02*
D03*
X59000Y167500D02*
D03*
X50000Y192000D02*
D03*
X42000Y234500D02*
D03*
Y220500D02*
D03*
X74000Y260000D02*
D03*
X53500Y264500D02*
D03*
X72000Y276500D02*
D03*
X78000Y320000D02*
D03*
X111000Y346000D02*
D03*
X103500Y317000D02*
D03*
X50000Y311500D02*
D03*
Y328000D02*
D03*
X119500Y361500D02*
D03*
X133500Y379500D02*
D03*
X120000Y398000D02*
D03*
X92000Y396000D02*
D03*
X55500Y375000D02*
D03*
X71000Y391000D02*
D03*
X401500Y261500D02*
D03*
X410500Y270500D02*
D03*
X419500Y279500D02*
D03*
X392500Y280000D02*
D03*
X401500Y288000D02*
D03*
X334000Y250500D02*
D03*
X319500D02*
D03*
X306500Y250000D02*
D03*
X236000Y249500D02*
D03*
X253000Y267000D02*
D03*
X382000Y155000D02*
D03*
X380500Y179000D02*
D03*
X159000Y126000D02*
D03*
X174000Y126500D02*
D03*
X177500Y143000D02*
D03*
X161500D02*
D03*
X292000Y250027D02*
D03*
X277500Y249500D02*
D03*
X278500Y267500D02*
D03*
X264500Y267000D02*
D03*
X188500Y266500D02*
D03*
X205500Y249500D02*
D03*
X217500D02*
D03*
X200500Y267000D02*
D03*
X449500Y335500D02*
D03*
X460500Y319500D02*
D03*
X452000Y311500D02*
D03*
X444000Y304000D02*
D03*
X437000Y297000D02*
D03*
X429500Y289000D02*
D03*
X411500Y298000D02*
D03*
X419500Y305500D02*
D03*
X427000Y312500D02*
D03*
X434000Y320000D02*
D03*
X441500Y328000D02*
D03*
X121500Y86000D02*
D03*
X146000Y99500D02*
D03*
X150500Y351000D02*
D03*
Y343500D02*
D03*
X143000Y339500D02*
D03*
X396500Y331500D02*
D03*
X354095Y297406D02*
D03*
X340000Y306000D02*
D03*
X264500Y321000D02*
D03*
Y305000D02*
D03*
X244500Y332500D02*
D03*
X322000Y331000D02*
D03*
X384500Y306500D02*
D03*
X340000Y322000D02*
D03*
X310500Y304500D02*
D03*
X278500Y297000D02*
D03*
X267500Y120000D02*
D03*
X154500Y86000D02*
D03*
X153000Y191000D02*
D03*
X175824Y258000D02*
D03*
X128000Y216000D02*
D03*
X127500Y248000D02*
D03*
X98500Y239500D02*
D03*
X234500Y306000D02*
D03*
X203306Y298306D02*
D03*
X189000Y306000D02*
D03*
Y322000D02*
D03*
X173000Y331000D02*
D03*
X125000Y332000D02*
D03*
X133000Y258000D02*
D03*
D101*
X221000Y271500D02*
D03*
X526000Y216000D02*
D03*
X127000Y117500D02*
D03*
X141500Y131500D02*
D03*
X498000Y182000D02*
D03*
Y176457D02*
D03*
X465400Y233600D02*
D03*
X392500Y132500D02*
D03*
X483686Y314200D02*
D03*
X425000Y95000D02*
D03*
X458500Y193000D02*
D03*
X463500Y185000D02*
D03*
X291000Y157000D02*
D03*
X529000Y277000D02*
D03*
Y236000D02*
D03*
X467000Y241000D02*
D03*
X515000Y274000D02*
D03*
X504000Y263000D02*
D03*
X519000Y359000D02*
D03*
X456405Y223594D02*
D03*
X480031Y207260D02*
D03*
X303150Y263779D02*
D03*
X314961Y267717D02*
D03*
X290146Y274815D02*
D03*
X223948Y278542D02*
D03*
X232283Y269685D02*
D03*
X453451Y194549D02*
D03*
X460000Y197000D02*
D03*
X457000Y205000D02*
D03*
X456560Y209440D02*
D03*
X457000Y214000D02*
D03*
X440000Y152000D02*
D03*
X443919Y128081D02*
D03*
X430000Y142000D02*
D03*
X407000Y125000D02*
D03*
X440000Y121000D02*
D03*
X444000Y101000D02*
D03*
X405000Y102000D02*
D03*
X401000Y107000D02*
D03*
X444000D02*
D03*
X443000Y113000D02*
D03*
X415000Y87000D02*
D03*
X445811Y187189D02*
D03*
X450613Y177387D02*
D03*
X445000Y179000D02*
D03*
X443000Y176000D02*
D03*
X434000Y79000D02*
D03*
X477000Y267000D02*
D03*
X466300Y209900D02*
D03*
X468260Y211860D02*
D03*
X474100Y215500D02*
D03*
X477500Y215600D02*
D03*
X477900Y212100D02*
D03*
X471200Y223000D02*
D03*
X547600Y161000D02*
D03*
X491000D02*
D03*
X482800Y179200D02*
D03*
X527000Y199000D02*
D03*
X488000Y173500D02*
D03*
X543206Y274267D02*
D03*
X549000Y263500D02*
D03*
X498000Y179228D02*
D03*
X532000Y201000D02*
D03*
X551000Y141000D02*
D03*
X452000Y235000D02*
D03*
X457000Y242000D02*
D03*
X487800Y323200D02*
D03*
X485800Y337800D02*
D03*
D102*
X435000Y177500D02*
D03*
X535000Y344000D02*
D03*
X492000Y240000D02*
D03*
X493100Y230100D02*
D03*
X480000Y328000D02*
D03*
X85655Y233655D02*
D03*
X142945Y275055D02*
D03*
X85828Y223172D02*
D03*
X473828Y241147D02*
D03*
X277617Y364167D02*
D03*
X296008Y152202D02*
D03*
X482001Y175197D02*
D03*
X543000Y268000D02*
D03*
X550800Y122700D02*
D03*
X593352Y298148D02*
D03*
X593948Y255552D02*
D03*
X407800Y162772D02*
D03*
X277600Y165000D02*
D03*
X304700Y174200D02*
D03*
X346400Y175700D02*
D03*
X338000Y151500D02*
D03*
X368900Y170200D02*
D03*
X328000Y169200D02*
D03*
X467900Y343700D02*
D03*
X567644Y350557D02*
D03*
X550000Y340300D02*
D03*
X565000Y325200D02*
D03*
X446000Y266700D02*
D03*
X550000Y130000D02*
D03*
X454900Y247000D02*
D03*
X444594Y222895D02*
D03*
X410200Y223700D02*
D03*
X434446Y220654D02*
D03*
X419500Y157200D02*
D03*
X127000Y160100D02*
D03*
X150700Y401700D02*
D03*
X160000Y401600D02*
D03*
X168759Y401562D02*
D03*
X200934Y363900D02*
D03*
X352000D02*
D03*
X483300Y372600D02*
D03*
X552800Y310100D02*
D03*
X550600Y299300D02*
D03*
X486700Y148200D02*
D03*
X477947Y148276D02*
D03*
X407300Y170200D02*
D03*
X407800Y178400D02*
D03*
X411700Y254700D02*
D03*
X420828Y250160D02*
D03*
X421900Y244900D02*
D03*
X445000Y248700D02*
D03*
X451900Y255000D02*
D03*
X464280Y222880D02*
D03*
D103*
X494347Y220654D02*
D03*
X492100Y224567D02*
D03*
X161000Y271000D02*
D03*
X159800Y367200D02*
D03*
X423000Y220000D02*
D03*
X423800Y173300D02*
D03*
X483100Y164500D02*
D03*
X478100D02*
D03*
X482300Y345500D02*
D03*
X488600Y345100D02*
D03*
X379700Y268000D02*
D03*
X446563Y233663D02*
D03*
X418300Y223300D02*
D03*
X422200Y238600D02*
D03*
X378321Y280229D02*
D03*
X432300Y238900D02*
D03*
X462300Y235100D02*
D03*
X424115Y179315D02*
D03*
X441500Y234300D02*
D03*
D105*
X488400Y235635D02*
D03*
Y227565D02*
D03*
X440000Y247035D02*
D03*
Y238965D02*
D03*
X460000Y247035D02*
D03*
Y238965D02*
D03*
X450000Y247035D02*
D03*
Y238965D02*
D03*
X486600Y152765D02*
D03*
Y160835D02*
D03*
D106*
X411965Y170200D02*
D03*
X420035D02*
D03*
X410265Y218900D02*
D03*
X418335D02*
D03*
D107*
X440000Y238965D02*
X450000D01*
M02*
