G04*
G04 #@! TF.GenerationSoftware,Altium Limited,Altium Designer,24.6.1 (21)*
G04*
G04 Layer_Color=32768*
%FSLAX25Y25*%
%MOIN*%
G70*
G04*
G04 #@! TF.SameCoordinates,5EFEE535-70E5-4D74-9779-55D0C0DC933D*
G04*
G04*
G04 #@! TF.FilePolarity,Positive*
G04*
G01*
G75*
%ADD109C,0.00394*%
%ADD110C,0.00197*%
D109*
X304031Y104984D02*
X307968D01*
X306000Y103016D02*
Y106953D01*
X358784Y364000D02*
X362720D01*
X360752Y362032D02*
Y365968D01*
X363616Y166000D02*
X365584D01*
X364600Y165016D02*
Y166984D01*
X440000Y48031D02*
Y51968D01*
X438031Y50000D02*
X441968D01*
X113000Y48031D02*
Y51968D01*
X111031Y50000D02*
X114969D01*
X571866Y344016D02*
Y345984D01*
X570882Y345000D02*
X572850D01*
X468000Y350031D02*
Y353969D01*
X466032Y352000D02*
X469969D01*
X322016Y165000D02*
X323984D01*
X323000Y164016D02*
Y165984D01*
X285646Y362032D02*
Y365968D01*
X283677Y364000D02*
X287614D01*
X383032D02*
X386968D01*
X385000Y362032D02*
Y365968D01*
X220165Y364000D02*
X224102D01*
X222134Y362032D02*
Y365968D01*
X473032Y373000D02*
X476968D01*
X475000Y371031D02*
Y374969D01*
X207165Y364000D02*
X211102D01*
X209134Y362032D02*
Y365968D01*
X232917Y364000D02*
X236854D01*
X234886Y362032D02*
Y365968D01*
X265732Y129400D02*
X269669D01*
X267700Y127431D02*
Y131369D01*
X297646Y362032D02*
Y365968D01*
X295677Y364000D02*
X299614D01*
X371031D02*
X374969D01*
X373000Y362032D02*
Y365968D01*
X103416Y378867D02*
Y382804D01*
X101448Y380836D02*
X105385D01*
X149816Y391500D02*
X151784D01*
X150800Y390516D02*
Y392484D01*
X527834Y50064D02*
X531771D01*
X529802Y48095D02*
Y52032D01*
X309646Y362032D02*
Y365968D01*
X307677Y364000D02*
X311614D01*
X158816Y391500D02*
X160784D01*
X159800Y390516D02*
Y392484D01*
X167816Y391500D02*
X169784D01*
X168800Y390516D02*
Y392484D01*
X465701Y264858D02*
Y268795D01*
X463732Y266827D02*
X467669D01*
X166832Y378500D02*
X170768D01*
X168800Y376532D02*
Y380469D01*
X429032Y273000D02*
X432969D01*
X431000Y271031D02*
Y274969D01*
X438031Y242000D02*
X441968D01*
X440000Y240032D02*
Y243969D01*
X417000Y256031D02*
Y259968D01*
X415031Y258000D02*
X418968D01*
X586332Y294900D02*
X590269D01*
X588300Y292932D02*
Y296868D01*
X590600Y279832D02*
Y283769D01*
X588631Y281800D02*
X592568D01*
X547231Y271300D02*
X551168D01*
X549200Y269332D02*
Y273269D01*
X590600Y269731D02*
Y273669D01*
X588631Y271700D02*
X592568D01*
X554632Y265000D02*
X558568D01*
X556600Y263032D02*
Y266968D01*
X533032Y335000D02*
X536969D01*
X535000Y333032D02*
Y336968D01*
X590700Y259432D02*
Y263369D01*
X588731Y261400D02*
X592668D01*
X555031Y333000D02*
X558968D01*
X557000Y331031D02*
Y334968D01*
X541000Y319032D02*
Y322969D01*
X539032Y321000D02*
X542969D01*
X583032Y336000D02*
X586969D01*
X585000Y334032D02*
Y337968D01*
X551031Y318000D02*
X554969D01*
X553000Y316032D02*
Y319969D01*
X282432Y152600D02*
X286368D01*
X284400Y150631D02*
Y154569D01*
X492232Y337600D02*
X496169D01*
X494200Y335631D02*
Y339568D01*
X475032Y337200D02*
X478968D01*
X477000Y335231D02*
Y339169D01*
X458374Y197031D02*
Y200969D01*
X456405Y199000D02*
X460343D01*
X157832Y378500D02*
X161768D01*
X159800Y376532D02*
Y380469D01*
X148831Y378500D02*
X152769D01*
X150800Y376532D02*
Y380469D01*
X349600Y168032D02*
Y171968D01*
X347632Y170000D02*
X351569D01*
X308000Y167032D02*
Y170968D01*
X306031Y169000D02*
X309968D01*
X356100Y176031D02*
Y179969D01*
X354132Y178000D02*
X358068D01*
X314300Y175031D02*
Y178969D01*
X312332Y177000D02*
X316268D01*
X364632Y150000D02*
X368568D01*
X366600Y148031D02*
Y151969D01*
X322031Y149000D02*
X325969D01*
X324000Y147031D02*
Y150969D01*
X354600Y144032D02*
Y147968D01*
X352631Y146000D02*
X356569D01*
X312000Y144032D02*
Y147968D01*
X310032Y146000D02*
X313968D01*
X546000Y330031D02*
Y333968D01*
X544031Y332000D02*
X547968D01*
X306031Y158000D02*
X309968D01*
X308000Y156032D02*
Y159968D01*
X357031Y105000D02*
X360968D01*
X359000Y103032D02*
Y106968D01*
X347632Y159000D02*
X351569D01*
X349600Y157032D02*
Y160968D01*
X341600Y144032D02*
Y147968D01*
X339632Y146000D02*
X343568D01*
X299000Y144032D02*
Y147968D01*
X297031Y146000D02*
X300969D01*
D110*
X97756Y99907D02*
G03*
X72244Y99907I-12756J44486D01*
G01*
X72362Y82445D02*
G03*
X75846Y78961I3484J0D01*
G01*
X94153D02*
G03*
X97638Y82445I0J3484D01*
G01*
X284937Y72504D02*
Y137465D01*
X327063Y72504D02*
Y137465D01*
X284937Y72504D02*
X327063D01*
X284937Y137465D02*
X327063D01*
X355437Y360653D02*
Y367347D01*
X366067Y360653D02*
Y367347D01*
X355437Y360653D02*
X366067D01*
X355437Y367347D02*
X366067D01*
X361844Y172890D02*
X367356D01*
Y159110D02*
Y172890D01*
X361844Y159110D02*
X367356D01*
X361844D02*
Y172890D01*
X583886Y114366D02*
Y317634D01*
X562114D02*
X583886D01*
X562114Y114366D02*
Y317634D01*
Y114366D02*
X583886D01*
X399646Y31575D02*
Y66929D01*
X480354D01*
X399646Y31575D02*
X480354D01*
Y66929D01*
X85363Y68504D02*
X138394D01*
X85363Y18505D02*
Y68504D01*
Y18505D02*
X138394D01*
Y68504D01*
X564976Y342244D02*
Y347756D01*
X578756D01*
Y342244D02*
Y347756D01*
X564976Y342244D02*
X578756D01*
X464653Y357315D02*
X471347D01*
X464653Y346685D02*
X471347D01*
X464653D02*
Y357315D01*
X471347Y346685D02*
Y357315D01*
X320244Y171890D02*
X325756D01*
Y158110D02*
Y171890D01*
X320244Y158110D02*
X325756D01*
X320244D02*
Y171890D01*
X280331Y367347D02*
X290961D01*
X280331Y360653D02*
X290961D01*
Y367347D01*
X280331Y360653D02*
Y367347D01*
X72362Y82445D02*
Y99873D01*
X75846Y78961D02*
X94153D01*
X97638Y82445D02*
Y99873D01*
X379685Y360653D02*
Y367347D01*
X390315Y360653D02*
Y367347D01*
X379685Y360653D02*
X390315D01*
X379685Y367347D02*
X390315D01*
X216819Y360653D02*
Y367347D01*
X227449Y360653D02*
Y367347D01*
X216819Y360653D02*
X227449D01*
X216819Y367347D02*
X227449D01*
X480315Y369654D02*
Y376346D01*
X469685Y369654D02*
Y376346D01*
X480315D01*
X469685Y369654D02*
X480315D01*
X203819Y360653D02*
Y367347D01*
X214449Y360653D02*
Y367347D01*
X203819Y360653D02*
X214449D01*
X203819Y367347D02*
X214449D01*
X229571Y360653D02*
Y367347D01*
X240201Y360653D02*
Y367347D01*
X229571Y360653D02*
X240201D01*
X229571Y367347D02*
X240201D01*
X271046Y124085D02*
Y134715D01*
X264353Y124085D02*
Y134715D01*
X271046D01*
X264353Y124085D02*
X271046D01*
X292331Y367347D02*
X302961D01*
X292331Y360653D02*
X302961D01*
Y367347D01*
X292331Y360653D02*
Y367347D01*
X367685Y360653D02*
Y367347D01*
X378315Y360653D02*
Y367347D01*
X367685Y360653D02*
X378315D01*
X367685Y367347D02*
X378315D01*
X78023Y362332D02*
X131054D01*
Y412331D01*
X78023D02*
X131054D01*
X78023Y362332D02*
Y412331D01*
X148044Y398390D02*
X153556D01*
Y384610D02*
Y398390D01*
X148044Y384610D02*
X153556D01*
X148044D02*
Y398390D01*
X570157Y31639D02*
Y66993D01*
X489448Y31639D02*
X570157D01*
X489448Y66993D02*
X570157D01*
X489448Y31639D02*
Y66993D01*
X304331Y367347D02*
X314961D01*
X304331Y360653D02*
X314961D01*
Y367347D01*
X304331Y360653D02*
Y367347D01*
X157044Y398390D02*
X162556D01*
Y384610D02*
Y398390D01*
X157044Y384610D02*
X162556D01*
X157044D02*
Y398390D01*
X166044D02*
X171556D01*
Y384610D02*
Y398390D01*
X166044Y384610D02*
X171556D01*
X166044D02*
Y398390D01*
X455268Y250685D02*
Y282968D01*
X476134D01*
Y250685D02*
Y282968D01*
X455268Y250685D02*
X476134D01*
X165454Y373185D02*
Y383815D01*
X172146Y373185D02*
Y383815D01*
X165454Y373185D02*
X172146D01*
X165454Y383815D02*
X172146D01*
X425685Y269654D02*
Y276346D01*
X436315Y269654D02*
Y276346D01*
X425685D02*
X436315D01*
X425685Y269654D02*
X436315D01*
X434685Y238653D02*
Y245346D01*
X445315Y238653D02*
Y245346D01*
X434685D02*
X445315D01*
X434685Y238653D02*
X445315D01*
X413654Y252685D02*
X420346D01*
X413654Y263315D02*
X420346D01*
X413654Y252685D02*
Y263315D01*
X420346Y252685D02*
Y263315D01*
X591646Y289585D02*
Y300215D01*
X584953Y289585D02*
Y300215D01*
X591646D01*
X584953Y289585D02*
X591646D01*
X585285Y278453D02*
X595915D01*
X585285Y285146D02*
X595915D01*
Y278453D02*
Y285146D01*
X585285Y278453D02*
Y285146D01*
X545854Y265985D02*
Y276615D01*
X552547Y265985D02*
Y276615D01*
X545854Y265985D02*
X552547D01*
X545854Y276615D02*
X552547D01*
X585285Y268354D02*
X595915D01*
X585285Y275046D02*
X595915D01*
Y268354D02*
Y275046D01*
X585285Y268354D02*
Y275046D01*
X559946Y259685D02*
Y270315D01*
X553254Y259685D02*
Y270315D01*
X559946D01*
X553254Y259685D02*
X559946D01*
X538346Y329685D02*
Y340315D01*
X531653Y329685D02*
Y340315D01*
X538346D01*
X531653Y329685D02*
X538346D01*
X585385Y258053D02*
X596015D01*
X585385Y264746D02*
X596015D01*
Y258053D02*
Y264746D01*
X585385Y258053D02*
Y264746D01*
X560347Y327685D02*
Y338315D01*
X553653Y327685D02*
Y338315D01*
X560347D01*
X553653Y327685D02*
X560347D01*
X535685Y317653D02*
X546315D01*
X535685Y324346D02*
X546315D01*
Y317653D02*
Y324346D01*
X535685Y317653D02*
Y324346D01*
X581653Y330685D02*
Y341315D01*
X588346Y330685D02*
Y341315D01*
X581653Y330685D02*
X588346D01*
X581653Y341315D02*
X588346D01*
X556347Y312685D02*
Y323315D01*
X549653Y312685D02*
Y323315D01*
X556347D01*
X549653Y312685D02*
X556347D01*
X281053Y147285D02*
Y157915D01*
X287747Y147285D02*
Y157915D01*
X281053Y147285D02*
X287747D01*
X281053Y157915D02*
X287747D01*
X490854Y332285D02*
Y342915D01*
X497546Y332285D02*
Y342915D01*
X490854Y332285D02*
X497546D01*
X490854Y342915D02*
X497546D01*
X69299Y205000D02*
Y253000D01*
X32500D02*
X69299D01*
X32500Y205000D02*
Y253000D01*
Y205000D02*
X69299D01*
X473654Y331885D02*
Y342515D01*
X480346Y331885D02*
Y342515D01*
X473654Y331885D02*
X480346D01*
X473654Y342515D02*
X480346D01*
X425303Y232071D02*
X491445D01*
X425303Y165929D02*
X491445D01*
Y232071D01*
X425303Y165929D02*
Y232071D01*
X156454Y373185D02*
Y383815D01*
X163146Y373185D02*
Y383815D01*
X156454Y373185D02*
X163146D01*
X156454Y383815D02*
X163146D01*
X147453Y373185D02*
Y383815D01*
X154147Y373185D02*
Y383815D01*
X147453Y373185D02*
X154147D01*
X147453Y383815D02*
X154147D01*
X344285Y166654D02*
X354915D01*
X344285Y173346D02*
X354915D01*
Y166654D02*
Y173346D01*
X344285Y166654D02*
Y173346D01*
X302685Y165654D02*
X313315D01*
X302685Y172346D02*
X313315D01*
Y165654D02*
Y172346D01*
X302685Y165654D02*
Y172346D01*
X350785Y181346D02*
X361415D01*
X350785Y174653D02*
X361415D01*
X350785D02*
Y181346D01*
X361415Y174653D02*
Y181346D01*
X308985Y180347D02*
X319615D01*
X308985Y173653D02*
X319615D01*
X308985D02*
Y180347D01*
X319615Y173653D02*
Y180347D01*
X363253Y144685D02*
Y155315D01*
X369947Y144685D02*
Y155315D01*
X363253Y144685D02*
X369947D01*
X363253Y155315D02*
X369947D01*
X320654Y143685D02*
Y154315D01*
X327346Y143685D02*
Y154315D01*
X320654Y143685D02*
X327346D01*
X320654Y154315D02*
X327346D01*
X349285Y142654D02*
X359915D01*
X349285Y149346D02*
X359915D01*
Y142654D02*
Y149346D01*
X349285Y142654D02*
Y149346D01*
X306685Y142654D02*
X317315D01*
X306685Y149346D02*
X317315D01*
Y142654D02*
Y149346D01*
X306685Y142654D02*
Y149346D01*
X539898Y338142D02*
X552102D01*
X539898Y325858D02*
X552102D01*
X539898D02*
Y338142D01*
X552102Y325858D02*
Y338142D01*
X301858Y151898D02*
Y164102D01*
X314142Y151898D02*
Y164102D01*
X301858Y151898D02*
X314142D01*
X301858Y164102D02*
X314142D01*
X337937Y72520D02*
Y137480D01*
X380063Y72520D02*
Y137480D01*
X337937Y72520D02*
X380063D01*
X337937Y137480D02*
X380063D01*
X343458Y152898D02*
Y165102D01*
X355742Y152898D02*
Y165102D01*
X343458Y152898D02*
X355742D01*
X343458Y165102D02*
X355742D01*
X336285Y149346D02*
X346915D01*
X336285Y142654D02*
X346915D01*
X336285D02*
Y149346D01*
X346915Y142654D02*
Y149346D01*
X293685D02*
X304315D01*
X293685Y142654D02*
X304315D01*
X293685D02*
Y149346D01*
X304315Y142654D02*
Y149346D01*
M02*
