%FSLAX23Y23*%
%MOIN*%
%SFA1B1*%

%IPPOS*%
%ADD90R,0.055120X0.055120*%
%ADD91C,0.055120*%
%ADD92R,0.061810X0.061810*%
%ADD93C,0.061810*%
%ADD105C,0.059060*%
%ADD106C,0.196850*%
%ADD107C,0.045980*%
%ADD108R,0.045980X0.045980*%
%ADD109C,0.064960*%
%ADD110R,0.064960X0.064960*%
%ADD111C,0.118110*%
%ADD112R,0.070870X0.070870*%
%ADD113C,0.070870*%
%ADD114C,0.088580*%
%LNpcb1-1*%
%LPD*%
G54D90*
X3100Y1328D03*
X3311Y1329D03*
G54D91*
X3100Y1230D03*
X3311Y1230D03*
G54D92*
X5220Y1310D03*
G54D93*
X5120Y1310D03*
X5020D03*
X5220Y1210D03*
X5120D03*
X5020D03*
G54D105*
X6313Y1558D03*
X6413Y1508D03*
X6313Y1858D03*
X6413Y1808D03*
Y1708D03*
X6313Y1658D03*
X6413Y1608D03*
X6313Y1758D03*
G54D106*
X6670Y1460D03*
X6665Y1910D03*
X1235Y4792D03*
Y1170D03*
X6825Y4792D03*
Y1170D03*
G54D107*
X1450Y2680D03*
Y2780D03*
G54D108*
X1450Y2880D03*
G54D109*
X6586Y4627D03*
X6310D03*
X5857D03*
G54D110*
X5857Y4812D03*
G54D111*
X3793Y3320D03*
X3320D03*
G54D112*
X6670Y4075D03*
X1390Y4500D03*
X6670Y2830D03*
G54D113*
X6670Y4325D03*
X1390Y4250D03*
X6670Y3080D03*
G54D114*
X1350Y3885D03*
Y3294D03*
M02*