%FSLAX23Y23*%
%MOIN*%
%SFA1B1*%

%IPPOS*%
%ADD121C,0.003940*%
%LNpcb1-1*%
%LPD*%
G54D121*
X3070Y3980D02*
Y4019D01*
X3050Y4000D02*
X3089D01*
X3840Y4350D02*
X3879D01*
X3860Y4330D02*
Y4369D01*
X3510Y4070D02*
Y4109D01*
X3490Y4090D02*
X3529D01*
X3510Y4500D02*
Y4539D01*
X3490Y4520D02*
X3529D01*
X3510Y4410D02*
Y4449D01*
X3490Y4430D02*
X3529D01*
X3510Y4330D02*
Y4369D01*
X3490Y4350D02*
X3529D01*
X3510Y4240D02*
Y4279D01*
X3490Y4260D02*
X3529D01*
X3510Y4160D02*
Y4199D01*
X3490Y4180D02*
X3529D01*
X5860Y2383D02*
Y2422D01*
X5840Y2403D02*
X5879D01*
X1380Y1890D02*
X1419D01*
X1400Y1870D02*
Y1909D01*
X2180Y1470D02*
Y1509D01*
X2160Y1490D02*
X2199D01*
X5060Y2660D02*
X5099D01*
X5080Y2640D02*
Y2679D01*
X6360Y3060D02*
Y3099D01*
X6340Y3080D02*
X6379D01*
X5700Y4720D02*
X5739D01*
X5720Y4700D02*
Y4739D01*
X3088Y1259D02*
Y1298D01*
X3068Y1279D02*
X3107D01*
X5100Y1260D02*
X5139D01*
X5120Y1240D02*
Y1279D01*
X5720Y1690D02*
X5759D01*
X5740Y1670D02*
Y1709D01*
X1790Y2360D02*
Y2399D01*
X1770Y2380D02*
X1809D01*
X1850Y1490D02*
Y1529D01*
X1830Y1510D02*
X1869D01*
X4980Y4490D02*
X5019D01*
X5000Y4470D02*
Y4509D01*
X2430Y4160D02*
X2469D01*
X2450Y4140D02*
Y4179D01*
X3778Y4710D02*
X3817D01*
X3798Y4690D02*
Y4729D01*
X3200Y3970D02*
X3239D01*
X3220Y3950D02*
Y3989D01*
X3150Y3656D02*
Y3696D01*
X3130Y3676D02*
X3169D01*
X2830Y3680D02*
X2869D01*
X2850Y3660D02*
Y3699D01*
X1818Y1890D02*
X1858D01*
X1838Y1870D02*
Y1909D01*
X2431Y4590D02*
X2470D01*
X2451Y4570D02*
Y4609D01*
X2530Y3670D02*
Y3709D01*
X2510Y3690D02*
X2549D01*
X4250Y3600D02*
X4289D01*
X4270Y3580D02*
Y3619D01*
X2440Y3890D02*
X2479D01*
X2460Y3870D02*
Y3909D01*
X3040Y3596D02*
Y3636D01*
X3020Y3616D02*
X3059D01*
X4540Y3020D02*
Y3059D01*
X4520Y3040D02*
X4559D01*
X4970Y3720D02*
X5009D01*
X4990Y3700D02*
Y3739D01*
X3208Y4070D02*
X3247D01*
X3228Y4050D02*
Y4089D01*
X4250Y4040D02*
X4289D01*
X4270Y4020D02*
Y4059D01*
X3300Y1260D02*
Y1299D01*
X3280Y1280D02*
X3319D01*
X6360Y2780D02*
Y2819D01*
X6340Y2800D02*
X6379D01*
X1737Y3620D02*
X1777D01*
X1757Y3600D02*
Y3639D01*
X1740Y3820D02*
X1779D01*
X1760Y3800D02*
Y3839D01*
X6020Y1800D02*
Y1839D01*
X6000Y1820D02*
X6039D01*
X6020Y1530D02*
Y1569D01*
X6000Y1550D02*
X6039D01*
X2570Y3332D02*
Y3371D01*
X2550Y3351D02*
X2589D01*
X5840Y2260D02*
X5879D01*
X5860Y2240D02*
Y2279D01*
X5580Y2220D02*
X5619D01*
X5600Y2200D02*
Y2239D01*
X5670Y2220D02*
X5709D01*
X5690Y2200D02*
Y2239D01*
X5590Y2500D02*
X5629D01*
X5610Y2480D02*
Y2519D01*
X5670Y2500D02*
X5709D01*
X5690Y2480D02*
Y2519D01*
X6310Y4200D02*
X6349D01*
X6330Y4180D02*
Y4219D01*
X6152Y4200D02*
X6191D01*
X6171Y4180D02*
Y4219D01*
X1620Y2680D02*
Y2719D01*
X1600Y2700D02*
X1639D01*
X1620Y2860D02*
Y2899D01*
X1600Y2880D02*
X1639D01*
X1371Y2310D02*
X1411D01*
X1391Y2290D02*
Y2329D01*
X1740Y3330D02*
X1779D01*
X1760Y3310D02*
Y3349D01*
X1800Y4352D02*
Y4391D01*
X1780Y4372D02*
X1819D01*
X5750Y1860D02*
X5789D01*
X5770Y1840D02*
Y1879D01*
M02*