%FSLAX23Y23*%
%MOIN*%
%SFA1B1*%

%IPPOS*%
%ADD10C,0.010000*%
%ADD90R,0.055120X0.055120*%
%ADD91C,0.055120*%
%ADD92R,0.061810X0.061810*%
%ADD93C,0.061810*%
%ADD96C,0.030000*%
%ADD101C,0.008000*%
%ADD102C,0.020000*%
%ADD105C,0.059060*%
%ADD106C,0.196850*%
%ADD107C,0.045980*%
%ADD108R,0.045980X0.045980*%
%ADD109C,0.064960*%
%ADD110R,0.064960X0.064960*%
%ADD111C,0.118110*%
%ADD112R,0.070870X0.070870*%
%ADD113C,0.070870*%
%ADD114C,0.088580*%
%ADD115C,0.035430*%
%ADD116C,0.060000*%
%ADD117C,0.017720*%
%ADD118C,0.023620*%
%ADD119C,0.030000*%
%LNpcb1-1*%
%LPD*%
G36*
X5130Y1357D02*
X5130Y1354D01*
X5130Y1352*
X5131Y1349*
X5131Y1346*
X5132Y1344*
X5134Y1341*
X5135Y1339*
X5137Y1336*
X5139Y1334*
X5141Y1332*
X5098*
X5100Y1334*
X5102Y1336*
X5104Y1339*
X5105Y1341*
X5107Y1344*
X5108Y1346*
X5108Y1349*
X5109Y1352*
X5109Y1354*
X5110Y1357*
X5130*
G37*
G36*
X5230Y1360D02*
X5230Y1356D01*
X5230Y1353*
X5230Y1350*
X5231Y1347*
X5232Y1345*
X5233Y1343*
X5234Y1342*
X5236Y1341*
X5238Y1340*
X5240Y1340*
X5200*
X5201Y1340*
X5203Y1341*
X5205Y1342*
X5206Y1343*
X5207Y1345*
X5208Y1347*
X5209Y1350*
X5209Y1353*
X5209Y1356*
X5210Y1360*
X5230*
G37*
G36*
X2785Y4179D02*
X2784Y4189D01*
X2805*
X2805Y4189*
X2805Y4188*
X2805Y4188*
X2805Y4186*
X2805Y4181*
X2805Y4179*
X2785*
G37*
G36*
X3763Y3861D02*
X3765Y3861D01*
X3770Y3861*
X3771Y3861*
X3772Y3862*
X3773Y3862*
X3774Y3862*
X3775Y3863*
X3776Y3863*
Y3838*
X3775Y3839*
X3774Y3839*
X3773Y3840*
X3772Y3840*
X3771Y3840*
X3770Y3840*
X3767Y3841*
X3763Y3841*
Y3861*
G37*
G36*
X2810Y4260D02*
X2808Y4259D01*
X2803Y4259*
X2801Y4259*
X2800Y4259*
X2799Y4258*
X2798Y4258*
X2798Y4258*
X2797Y4257*
Y4282*
X2798Y4281*
X2798Y4281*
X2799Y4281*
X2800Y4280*
X2801Y4280*
X2803Y4280*
X2806Y4280*
X2810Y4280*
Y4260*
G37*
G36*
X2815Y4330D02*
X2813Y4329D01*
X2808Y4329*
X2806Y4329*
X2805Y4329*
X2804Y4328*
X2803Y4328*
X2803Y4328*
X2802Y4327*
Y4352*
X2803Y4351*
X2803Y4351*
X2804Y4351*
X2805Y4350*
X2806Y4350*
X2808Y4350*
X2811Y4350*
X2815Y4350*
Y4330*
G37*
G36*
X3190Y4430D02*
X3180Y4429D01*
Y4450*
X3180Y4450*
X3181Y4450*
X3181Y4450*
X3183Y4450*
X3188Y4450*
X3190Y4450*
Y4430*
G37*
G36*
X5890Y4758D02*
X5884Y4764D01*
X5872Y4774*
X5868Y4777*
X5863Y4780*
X5859Y4781*
X5856Y4782*
X5852*
X5850Y4781*
X5847Y4780*
X5890Y4822*
X5888Y4820*
X5887Y4817*
Y4814*
X5888Y4810*
X5890Y4806*
X5892Y4802*
X5896Y4797*
X5900Y4792*
X5911Y4780*
X5890Y4758*
G37*
G54D10*
X5070Y1260D02*
X5280D01*
X5300Y1280*
X5020Y1310D02*
X5070Y1260D01*
G54D90*
X3100Y1328D03*
X3311Y1329D03*
G54D91*
X3100Y1230D03*
X3311Y1230D03*
G54D92*
X5220Y1310D03*
G54D93*
X5120Y1310D03*
X5020D03*
X5220Y1210D03*
X5120D03*
X5020D03*
G54D96*
X1670Y1730D02*
X2430Y2490D01*
X2810*
X2696Y3913D02*
X2733D01*
X2735Y3915*
X2600Y4010D02*
X2696Y3913D01*
X2850Y3915D02*
X2851Y3913D01*
X2963*
X5139Y2700D02*
X5140Y2700D01*
X5689Y2599D02*
X5690Y2599D01*
X2963Y3913D02*
X2982D01*
X2982Y3913D02*
X3203D01*
X3227Y4507D02*
X3230Y4510D01*
X5523Y4627D02*
X5525Y4628D01*
X6298Y4258D02*
X6300Y4260D01*
X5837Y2597D02*
X5840Y2600D01*
X5857Y4812D02*
X5960Y4710D01*
Y4330D02*
Y4710D01*
X5670Y4040D02*
X5960Y4330D01*
G54D101*
X3720Y4520D02*
X3727Y4512D01*
X2963Y3913D02*
X2963Y3913D01*
X2982D02*
X2982Y3913D01*
X6260Y4040D02*
X6265Y4045D01*
G54D102*
X5335Y2520D02*
X6177Y3362D01*
X5335Y2130D02*
Y2520D01*
X6177Y3362D02*
Y3377D01*
X5706Y3031D02*
X5985Y3310D01*
X6012*
X5190Y2180D02*
Y2515D01*
X5706Y3031*
X5300Y1280D02*
Y1800D01*
X5120Y1310D02*
Y1430D01*
X5060Y1490D02*
Y1954D01*
Y1490D02*
X5120Y1430D01*
X4900Y2130D02*
X5210D01*
X5250Y2170*
X4655Y2375D02*
X4900Y2130D01*
X5285Y2080D02*
X5335Y2130D01*
X4660Y2280D02*
X4860Y2080D01*
X5285*
X5080Y2180D02*
X5190D01*
X4930Y2330D02*
X5080Y2180D01*
X4765Y2330D02*
X4930D01*
X3105Y4155D02*
X3255Y4005D01*
X3105Y4155D02*
Y4245D01*
X3343Y3851D02*
X3788D01*
X3040Y4155D02*
X3343Y3851D01*
X3040Y4155D02*
Y4200D01*
X3310Y3950D02*
X3340D01*
X3255Y4005D02*
X3310Y3950D01*
Y4005D02*
X3395Y4090D01*
Y4225*
Y4265*
X3010Y4340D02*
X3105Y4245D01*
X2970Y4270D02*
X3040Y4200D01*
X2785Y4270D02*
X2970D01*
X2973Y3947D02*
Y4203D01*
X4655Y2375D02*
Y2385D01*
X5432Y2487D02*
X5729Y2785D01*
X6120*
X5944Y3062D02*
X6152D01*
X5400Y2519D02*
X5944Y3062D01*
X5400Y2520D02*
X5400Y2519D01*
X5430Y2369D02*
Y2425D01*
Y2369D02*
X5490Y2309D01*
X2795Y3615D02*
X2900Y3510D01*
X2795Y3615D02*
Y4200D01*
X3220Y4440D02*
X3395Y4265D01*
X3170Y4440D02*
X3220D01*
X4050Y4360D02*
X5370Y3040D01*
Y2800D02*
Y3040D01*
X3487Y4447D02*
X3732D01*
X2790Y4340D02*
X3010D01*
X5490Y1830D02*
Y2309D01*
X5410Y1750D02*
X5490Y1830D01*
X5410Y1290D02*
Y1750D01*
X5330Y1210D02*
X5410Y1290D01*
X5220Y1210D02*
X5330D01*
X5300Y1800D02*
X5408Y1908D01*
X5220Y1310D02*
Y1850D01*
X5140Y1930D02*
X5220Y1850D01*
X3410Y4370D02*
X3487Y4447D01*
G54D105*
X6313Y1558D03*
X6413Y1508D03*
X6313Y1858D03*
X6413Y1808D03*
Y1708D03*
X6313Y1658D03*
X6413Y1608D03*
X6313Y1758D03*
G54D106*
X6670Y1460D03*
X6665Y1910D03*
X1235Y4792D03*
Y1170D03*
X6825Y4792D03*
Y1170D03*
G54D107*
X1450Y2680D03*
Y2780D03*
G54D108*
X1450Y2880D03*
G54D109*
X6586Y4627D03*
X6310D03*
X5857D03*
G54D110*
X5857Y4812D03*
G54D111*
X3793Y3320D03*
X3320D03*
G54D112*
X6670Y4075D03*
X1390Y4500D03*
X6670Y2830D03*
G54D113*
X6670Y4325D03*
X1390Y4250D03*
X6670Y3080D03*
G54D114*
X1350Y3885D03*
Y3294D03*
G54D115*
X5740Y2997D03*
X5720Y4540D03*
X5525Y4628D03*
X1670Y1730D03*
X3340Y3950D03*
X3660Y4410D03*
X2785Y4270D03*
X2735Y3915D03*
X2850D03*
X2600Y4010D03*
X2810Y2490D03*
X2580Y3125D03*
X2762Y3122D03*
X2520Y3430D03*
X2910D03*
X1580Y1300D03*
X4072Y1352D03*
X5770Y3540D03*
X6012Y3310D03*
X6456Y3790D03*
X6130D03*
X4540Y2750D03*
X5139Y2700D03*
X5690Y2599D03*
X5610Y2589D03*
X5760Y2500D03*
X5139Y2619D03*
X5758Y2251D03*
X5840Y2070D03*
Y1898D03*
X5746Y1466D03*
X2740Y3570D03*
X2490Y3320D03*
X6360Y3230D03*
X6177Y3377D03*
X3600Y4090D03*
X3610Y4180D03*
Y4260D03*
X4010Y4850D03*
X3707Y4710D03*
X3970Y4530D03*
X3727Y4512D03*
X3580Y4600D03*
X3590Y4520D03*
X2560Y3890D03*
X3203Y3913D03*
X2790Y4340D03*
X3227Y4507D03*
X3210Y4140D03*
X3788Y3851D03*
X4570Y3600D03*
X4910Y3720D03*
X4560Y4040D03*
X6298Y4258D03*
X6265Y4045D03*
X5980Y3890D03*
Y3990D03*
X4980Y2860D03*
X5210Y2680D03*
X5837Y2597D03*
X5600Y2120D03*
X5690Y2130D03*
X5828Y2181D03*
X6180Y1880D03*
X5837Y1572D03*
X5738Y1942D03*
X4450Y1374D03*
X4369Y1388D03*
X2831Y1168D03*
X1260Y1400D03*
Y1470D03*
Y1540D03*
Y1610D03*
X2621Y4238D03*
X2837Y4547D03*
X2622Y4677D03*
X5670Y4040D03*
G54D116*
X1175Y2307D03*
X3150Y3555D03*
X3040Y3515D03*
X6360Y2635D03*
X2045Y1890D03*
X2280Y1390D03*
X1565Y1120D03*
X1900Y2160D03*
X1930Y2580D03*
X1592Y4500D03*
X4690Y1960D03*
X4475Y1860D03*
X4060Y1775D03*
X3800Y1915D03*
X3500Y1790D03*
X3355Y1970D03*
X3180Y1745D03*
X3005Y1980D03*
X2890Y2215D03*
X2760Y1800D03*
X2615Y1965D03*
X2590Y2120D03*
X2625Y2315D03*
X4165Y2785D03*
X4055Y3005D03*
X3875Y2650D03*
X3460Y2645D03*
X3120Y2910D03*
X3035Y3135D03*
X2900Y2600D03*
X2725Y2760D03*
X2570Y2870D03*
X4645Y2490D03*
X4485Y2615D03*
X4980Y4005D03*
X4380Y3750D03*
X4400Y4220D03*
X4315Y3910D03*
X4780Y3935D03*
X4895Y4215D03*
X4530Y3705D03*
X4970Y3655D03*
X4925Y3840D03*
X4565Y4160D03*
X2205Y2110D03*
X2110Y1815D03*
X2115Y1960D03*
X1885Y2055D03*
X2045Y2260D03*
X2140Y2390D03*
X2170Y2560D03*
X2045Y2495D03*
X2095Y4845D03*
X1480Y4780D03*
X1760Y4650D03*
X1660Y4810D03*
X1880Y4765D03*
X2015Y4700D03*
X1920Y4495D03*
X2530Y4295D03*
X2885Y4015D03*
X3075Y3375D03*
X3180Y3475D03*
X3870Y4095D03*
X3775Y4225D03*
X3060Y4575D03*
X2615Y4450D03*
X2530Y4690D03*
X2830Y4695D03*
X3015Y4690D03*
X3180D03*
X3355D03*
X3545Y4700D03*
X3695Y4610D03*
X3900Y4840D03*
X4240Y4835D03*
X4530Y4840D03*
X4370Y4700D03*
X4195Y4625D03*
X4200Y4425D03*
X4395Y4490D03*
X4530Y4385D03*
X4555Y4585D03*
X4725Y4390D03*
Y4640D03*
X4785Y4740D03*
X5435Y4640D03*
X5445Y4770D03*
X6810Y4210D03*
X6845Y4350D03*
X6880Y4570D03*
X6725Y4610D03*
X5550Y4135D03*
X5730Y4215D03*
X6410Y4410D03*
X5975Y4185D03*
X5865Y4070D03*
X6745Y2570D03*
X6825Y2415D03*
X6850Y2095D03*
X6640Y2215D03*
X6405Y2105D03*
X6410Y2320D03*
X6140Y2085D03*
X6215Y2325D03*
X6500Y2575D03*
X6595Y2425D03*
X6215Y2535D03*
X6120Y2610D03*
X6765Y3410D03*
X6840Y3545D03*
X6635Y3505D03*
X6746Y3682D03*
X6830Y3805D03*
X6620Y3745D03*
X6490Y3600D03*
X6450Y3430D03*
X6360Y3320D03*
X6155Y3185D03*
X6150Y3570D03*
X6045Y3420D03*
X5410Y3315D03*
X5555Y2990D03*
X5360Y3190D03*
X5270Y3290D03*
X4750Y2480D03*
X4770Y2590D03*
X4620Y2705D03*
X4425Y2720D03*
X4410Y2885D03*
X4675Y2875D03*
X4835Y3030D03*
X5005Y3125D03*
X5140Y3140D03*
X5265Y3020D03*
X5115Y3015D03*
X4975Y2995D03*
X4890Y2880D03*
X4955Y2640D03*
X4915Y2535D03*
X4940Y1715D03*
X5240Y1965D03*
X5335Y2005D03*
X5645Y2015D03*
X5590Y1925D03*
X6620Y1160D03*
X6475Y1285D03*
X6320Y1185D03*
X6095Y1145D03*
X6175Y1280D03*
X5985Y1265D03*
X5825Y1150D03*
X5840Y1345D03*
X5690Y1255D03*
X5505Y1185D03*
X5550Y1340D03*
X4865Y1350D03*
X4800Y1215D03*
X4640Y1125D03*
X4690Y1320D03*
X4355Y1120D03*
X3435Y1225D03*
X2995Y1220D03*
X2655Y1215D03*
X2490D03*
X2315Y1210D03*
X2135Y1205D03*
X1935Y1210D03*
X1180Y1725D03*
X1380Y1735D03*
X1280Y1995D03*
X1175Y2440D03*
X1170Y2180D03*
X1300Y2115D03*
X1285Y2520D03*
X1295Y2675D03*
X1300Y2820D03*
Y2945D03*
X1835Y2810D03*
X2020Y2835D03*
X2150Y2815D03*
X1970Y2950D03*
X2165D03*
X2045Y3055D03*
X2240Y3075D03*
X2140Y3165D03*
X2420Y3230D03*
X2345Y3340D03*
X2280Y3205D03*
X1940Y1709D03*
X1620Y3010D03*
X1688Y2731D03*
X6210Y2660D03*
X4580Y4490D03*
X6020Y1970D03*
X2180Y1690D03*
X1277Y1817D03*
X1697Y2848D03*
X1550Y3330D03*
G54D117*
X2973Y4203D03*
X3310Y4005D03*
X4655Y2385D03*
X5430Y2425D03*
X5440Y2220D03*
X2973Y3947D03*
X3395Y4225D03*
X2760Y3260D03*
X5408Y1908D03*
X5060Y1954D03*
X5140Y1930D03*
X5250Y2170D03*
X2900Y3510D03*
X3410Y4370D03*
X3732Y4447D03*
G54D118*
X4660Y2280D03*
X6120Y2785D03*
X6152Y3062D03*
X4765Y2330D03*
X5400Y2520D03*
X5432Y2487D03*
X5190Y2180D03*
X5335Y2130D03*
X4050Y4360D03*
X5370Y2800D03*
G54D119*
X2795Y4200D03*
X3170Y4440D03*
M02*