%FSLAX23Y23*%
%MOIN*%
%SFA1B1*%

%IPPOS*%
%ADD59R,0.068900X0.068900*%
%ADD60C,0.068900*%
%ADD61C,0.137800*%
%ADD62R,0.055910X0.055910*%
%ADD63C,0.055910*%
%ADD68R,0.061810X0.061810*%
%ADD69C,0.061810*%
%ADD72R,0.055120X0.055120*%
%ADD73C,0.055120*%
%ADD81C,0.008000*%
%ADD83C,0.030000*%
%ADD88C,0.061020*%
%ADD89R,0.061020X0.061020*%
%ADD90C,0.062990*%
%ADD91R,0.062990X0.062990*%
%ADD92R,0.070870X0.070870*%
%ADD93C,0.070870*%
%ADD94C,0.089760*%
%ADD95C,0.196850*%
%ADD96C,0.059060*%
%ADD98C,0.045980*%
%ADD99C,0.088580*%
%ADD100C,0.060000*%
%ADD101C,0.017720*%
%ADD102C,0.035430*%
%ADD103C,0.023620*%
%ADD104C,0.012000*%
%LNpcb-1*%
%LPD*%
G36*
X5938Y4069D02*
X5932Y4067D01*
X5917Y4056*
X5904Y4042*
X5893Y4027*
X5885Y4011*
X5879Y3993*
X5876Y3975*
Y3956*
X5879Y3938*
X5885Y3920*
X5893Y3903*
X5904Y3888*
X5917Y3875*
X5932Y3864*
X5949Y3856*
X5967Y3850*
X5985Y3847*
X6004*
X6022Y3850*
X6040Y3856*
X6056Y3864*
X6071Y3875*
X6085Y3888*
X6096Y3903*
X6097Y3906*
X6102Y3905*
Y404*
X6097Y403*
X6096Y405*
X6085Y420*
X6071Y434*
X6056Y445*
X6040Y453*
X6022Y459*
X6004Y462*
X5985*
X5967Y459*
X5949Y453*
X5932Y445*
X5917Y434*
X5904Y420*
X5893Y405*
X5885Y389*
X5879Y371*
X5876Y353*
Y334*
X5879Y316*
X5885Y298*
X5893Y281*
X5904Y266*
X5917Y253*
X5932Y242*
X5935Y241*
X5934Y236*
X464*
X463Y241*
X466Y242*
X481Y253*
X494Y266*
X505Y281*
X513Y298*
X519Y316*
X522Y334*
Y353*
X519Y371*
X513Y389*
X505Y405*
X494Y420*
X481Y434*
X466Y445*
X449Y453*
X431Y459*
X413Y462*
X394*
X376Y459*
X358Y453*
X342Y445*
X327Y434*
X319Y426*
X314Y428*
Y3881*
X319Y3883*
X327Y3875*
X342Y3864*
X358Y3856*
X376Y3850*
X394Y3847*
X413*
X431Y3850*
X449Y3856*
X466Y3864*
X481Y3875*
X494Y3888*
X505Y3903*
X513Y3920*
X519Y3938*
X522Y3956*
Y3975*
X519Y3993*
X513Y4011*
X505Y4027*
X494Y4042*
X481Y4056*
X466Y4067*
X460Y4069*
X461Y4074*
X5937*
X5938Y4069*
G37*
%LNpcb-2*%
%LPC*%
G36*
X1511Y4054D02*
X1502D01*
X1492Y4052*
X1483Y4047*
X1476Y4040*
X1471Y4031*
X1469Y4021*
Y4012*
X1471Y4002*
X1476Y3993*
X1483Y3986*
X1492Y3981*
X1502Y3979*
X1511*
X1521Y3981*
X1530Y3986*
X1537Y3993*
X1542Y4002*
X1544Y4012*
Y4021*
X1542Y4031*
X1537Y4040*
X1530Y4047*
X1521Y4052*
X1511Y4054*
G37*
G36*
X1604Y4053D02*
X1595D01*
X1585Y4051*
X1576Y4046*
X1569Y4039*
X1564Y4030*
X1562Y4020*
Y4011*
X1564Y4001*
X1569Y3992*
X1576Y3985*
X1585Y3980*
X1595Y3978*
X1604*
X1614Y3980*
X1623Y3985*
X1630Y3992*
X1635Y4001*
X1637Y4011*
Y4020*
X1635Y4030*
X1630Y4039*
X1623Y4046*
X1614Y4051*
X1604Y4053*
G37*
G36*
X1692Y4053D02*
X1682D01*
X1673Y4050*
X1664Y4045*
X1657Y4038*
X1652Y4030*
X1649Y4020*
Y4010*
X1652Y4001*
X1657Y3992*
X1664Y3985*
X1673Y3980*
X1682Y3977*
X1692*
X1702Y3980*
X1710Y3985*
X1717Y3992*
X1722Y4001*
X1725Y4010*
Y4020*
X1722Y4030*
X1717Y4038*
X1710Y4045*
X1702Y4050*
X1692Y4053*
G37*
G36*
X4706Y4030D02*
X4693D01*
X4680Y4026*
X4669Y4020*
X4659Y4010*
X4653Y3999*
X4650Y3986*
Y3973*
X4653Y3960*
X4659Y3949*
X4669Y3939*
X4680Y3933*
X4693Y3930*
X4706*
X4719Y3933*
X4730Y3939*
X4740Y3949*
X4746Y3960*
X4750Y3973*
Y3986*
X4746Y3999*
X4740Y4010*
X4730Y4020*
X4719Y4026*
X4706Y4030*
G37*
G36*
X4401D02*
X4388D01*
X4375Y4026*
X4364Y4020*
X4354Y4010*
X4348Y3999*
X4345Y3986*
Y3973*
X4348Y3960*
X4354Y3949*
X4364Y3939*
X4375Y3933*
X4388Y3930*
X4401*
X4414Y3933*
X4425Y3939*
X4435Y3949*
X4441Y3960*
X4445Y3973*
Y3986*
X4441Y3999*
X4435Y4010*
X4425Y4020*
X4414Y4026*
X4401Y4030*
G37*
G36*
X1206D02*
X1193D01*
X1180Y4026*
X1169Y4020*
X1159Y4010*
X1153Y3999*
X1150Y3986*
Y3973*
X1153Y3960*
X1159Y3949*
X1169Y3939*
X1180Y3933*
X1193Y3930*
X1206*
X1219Y3933*
X1230Y3939*
X1240Y3949*
X1246Y3960*
X1250Y3973*
Y3986*
X1246Y3999*
X1240Y4010*
X1230Y4020*
X1219Y4026*
X1206Y4030*
G37*
G36*
X4936Y4020D02*
X4923D01*
X4910Y4016*
X4899Y4010*
X4889Y4000*
X4883Y3989*
X4880Y3976*
Y3963*
X4883Y3950*
X4889Y3939*
X4899Y3929*
X4910Y3923*
X4923Y3920*
X4936*
X4949Y3923*
X4960Y3929*
X4970Y3939*
X4976Y3950*
X4980Y3963*
Y3976*
X4976Y3989*
X4970Y4000*
X4960Y4010*
X4949Y4016*
X4936Y4020*
G37*
G36*
X926Y4010D02*
X913D01*
X900Y4006*
X889Y4000*
X879Y3990*
X873Y3979*
X870Y3966*
Y3953*
X873Y3940*
X879Y3929*
X889Y3919*
X900Y3913*
X913Y3910*
X926*
X939Y3913*
X950Y3919*
X960Y3929*
X966Y3940*
X970Y3953*
Y3966*
X966Y3979*
X960Y3990*
X950Y4000*
X939Y4006*
X926Y4010*
G37*
G36*
X5690Y3930D02*
X5589D01*
Y3906*
X5584Y3905*
X5580Y3911*
X5571Y3920*
X5559Y3927*
X5546Y3930*
X5533*
X5520Y3927*
X5508Y3920*
X5499Y3911*
X5492Y3899*
X5491Y3899*
X5488*
X5487Y3899*
X5480Y3911*
X5471Y3920*
X5459Y3927*
X5446Y3930*
X5433*
X5420Y3927*
X5408Y3920*
X5399Y3911*
X5392Y3899*
X5389Y3886*
Y3873*
X5392Y3860*
X5399Y3848*
X5408Y3839*
X5420Y3832*
X5420Y3831*
Y3828*
X5420Y3827*
X5408Y3820*
X5399Y3811*
X5392Y3799*
X5389Y3786*
Y3773*
X5392Y3760*
X5399Y3748*
X5408Y3739*
X5420Y3732*
X5433Y3729*
X5446*
X5459Y3732*
X5471Y3739*
X5480Y3748*
X5487Y3760*
X5490Y3773*
Y3786*
X5487Y3799*
X5480Y3811*
X5471Y3820*
X5459Y3827*
X5459Y3828*
Y3831*
X5459Y3832*
X5471Y3839*
X5480Y3848*
X5487Y3860*
X5488Y3860*
X5491*
X5492Y3860*
X5499Y3848*
X5508Y3839*
X5520Y3832*
X5533Y3829*
X5546*
X5559Y3832*
X5571Y3839*
X5580Y3848*
X5584Y3854*
X5589Y3853*
Y3829*
X5613*
X5614Y3824*
X5608Y3820*
X5599Y3811*
X5592Y3799*
X5589Y3786*
Y3773*
X5592Y3760*
X5599Y3748*
X5608Y3739*
X5620Y3732*
X5633Y3729*
X5646*
X5659Y3732*
X5671Y3739*
X5680Y3748*
X5687Y3760*
X5690Y3773*
Y3786*
X5687Y3799*
X5680Y3811*
X5671Y3820*
X5665Y3824*
X5666Y3829*
X5690*
Y3930*
G37*
G36*
X5231Y3995D02*
X5218D01*
X5205Y3991*
X5194Y3985*
X5184Y3975*
X5178Y3964*
X5175Y3951*
Y3938*
X5178Y3925*
X5184Y3914*
X5194Y3904*
X5205Y3898*
X5218Y3895*
X5231*
X5244Y3898*
X5255Y3904*
X5265Y3914*
X5271Y3925*
X5275Y3938*
Y3951*
X5271Y3964*
X5265Y3975*
X5255Y3985*
X5244Y3991*
X5231Y3995*
G37*
G36*
X716Y3960D02*
X703D01*
X690Y3956*
X679Y3950*
X669Y3940*
X663Y3929*
X660Y3916*
Y3903*
X663Y3890*
X669Y3879*
X679Y3869*
X690Y3863*
X703Y3860*
X716*
X729Y3863*
X740Y3869*
X750Y3879*
X756Y3890*
X760Y3903*
Y3916*
X756Y3929*
X750Y3940*
X740Y3950*
X729Y3956*
X716Y3960*
G37*
G36*
X4206Y3890D02*
X4193D01*
X4180Y3886*
X4169Y3880*
X4159Y3870*
X4153Y3859*
X4150Y3846*
Y3833*
X4153Y3820*
X4159Y3809*
X4169Y3799*
X4180Y3793*
X4193Y3790*
X4206*
X4219Y3793*
X4230Y3799*
X4240Y3809*
X4246Y3820*
X4250Y3833*
Y3846*
X4246Y3859*
X4240Y3870*
X4230Y3880*
X4219Y3886*
X4206Y3890*
G37*
G36*
X5545Y3820D02*
X5545D01*
Y3785*
X5580*
Y3785*
X5578Y3795*
X5572Y3805*
X5565Y3812*
X5555Y3818*
X5545Y3820*
G37*
G36*
X5535D02*
X5534D01*
X5524Y3818*
X5514Y3812*
X5507Y3805*
X5501Y3795*
X5499Y3785*
Y3785*
X5535*
Y3820*
G37*
G36*
X1214Y3863D02*
X1103D01*
Y3752*
X1214*
Y3863*
G37*
G36*
X916D02*
X901D01*
X887Y3860*
X875Y3852*
X864Y3842*
X857Y3829*
X853Y3815*
Y3801*
X857Y3786*
X864Y3774*
X875Y3764*
X887Y3756*
X901Y3752*
X916*
X930Y3756*
X943Y3764*
X953Y3774*
X960Y3786*
X964Y3801*
Y3815*
X960Y3829*
X953Y3842*
X943Y3852*
X930Y3860*
X916Y3863*
G37*
G36*
X1341Y3845D02*
X1328D01*
X1315Y3841*
X1304Y3835*
X1294Y3825*
X1288Y3814*
X1285Y3801*
Y3788*
X1288Y3775*
X1294Y3764*
X1304Y3754*
X1315Y3748*
X1328Y3745*
X1341*
X1354Y3748*
X1365Y3754*
X1375Y3764*
X1381Y3775*
X1385Y3788*
Y3801*
X1381Y3814*
X1375Y3825*
X1365Y3835*
X1354Y3841*
X1341Y3845*
G37*
G36*
X5580Y3775D02*
X5545D01*
Y3739*
X5545*
X5555Y3741*
X5565Y3747*
X5572Y3754*
X5578Y3764*
X5580Y3774*
Y3775*
G37*
G36*
X5535D02*
X5499D01*
Y3774*
X5501Y3764*
X5507Y3754*
X5514Y3747*
X5524Y3741*
X5534Y3739*
X5535*
Y3775*
G37*
G36*
X561Y3800D02*
X548D01*
X535Y3796*
X524Y3790*
X514Y3780*
X508Y3769*
X505Y3756*
Y3743*
X508Y3730*
X514Y3719*
X524Y3709*
X535Y3703*
X548Y3700*
X561*
X574Y3703*
X585Y3709*
X595Y3719*
X601Y3730*
X605Y3743*
Y3756*
X601Y3769*
X595Y3780*
X585Y3790*
X574Y3796*
X561Y3800*
G37*
G36*
X4837Y3763D02*
X4828D01*
X4818Y3761*
X4809Y3756*
X4802Y3749*
X4797Y3740*
X4795Y3730*
Y3721*
X4797Y3711*
X4802Y3702*
X4809Y3695*
X4818Y3690*
X4828Y3688*
X4837*
X4847Y3690*
X4856Y3695*
X4863Y3702*
X4868Y3711*
X4870Y3721*
Y3730*
X4868Y3740*
X4863Y3749*
X4856Y3756*
X4847Y3761*
X4837Y3763*
G37*
G36*
X3957Y3924D02*
X3938D01*
X3920Y3921*
X3902Y3915*
X3886Y3907*
X3871Y3896*
X3857Y3883*
X3846Y3868*
X3838Y3851*
X3832Y3833*
X3829Y3815*
Y3796*
X3832Y3778*
X3838Y3760*
X3846Y3744*
X3857Y3729*
X3871Y3715*
X3886Y3704*
X3902Y3696*
X3920Y3690*
X3938Y3687*
X3957*
X3975Y3690*
X3993Y3696*
X4010Y3704*
X4025Y3715*
X4038Y3729*
X4049Y3744*
X4057Y3760*
X4063Y3778*
X4066Y3796*
Y3815*
X4063Y3833*
X4057Y3851*
X4049Y3868*
X4038Y3883*
X4025Y3896*
X4010Y3907*
X3993Y3915*
X3975Y3921*
X3957Y3924*
G37*
G36*
X3205Y3923D02*
X3187D01*
X3168Y3920*
X3151Y3914*
X3134Y3906*
X3119Y3895*
X3106Y3882*
X3095Y3867*
X3086Y3850*
X3080Y3832*
X3078Y3814*
Y3795*
X3080Y3777*
X3086Y3759*
X3095Y3742*
X3106Y3727*
X3119Y3714*
X3134Y3703*
X3151Y3695*
X3168Y3689*
X3187Y3686*
X3205*
X3224Y3689*
X3241Y3695*
X3258Y3703*
X3273Y3714*
X3286Y3727*
X3297Y3742*
X3306Y3759*
X3311Y3777*
X3314Y3795*
Y3814*
X3311Y3832*
X3306Y3850*
X3297Y3867*
X3286Y3882*
X3273Y3895*
X3258Y3906*
X3241Y3914*
X3224Y3920*
X3205Y3923*
G37*
G36*
X2450D02*
X2432D01*
X2413Y3920*
X2395Y3914*
X2379Y3906*
X2364Y3895*
X2351Y3882*
X2340Y3867*
X2331Y3850*
X2325Y3832*
X2322Y3814*
Y3795*
X2325Y3777*
X2331Y3759*
X2340Y3742*
X2351Y3727*
X2364Y3714*
X2379Y3703*
X2395Y3695*
X2413Y3689*
X2432Y3686*
X2450*
X2469Y3689*
X2486Y3695*
X2503Y3703*
X2518Y3714*
X2531Y3727*
X2542Y3742*
X2551Y3759*
X2556Y3777*
X2559Y3795*
Y3814*
X2556Y3832*
X2551Y3850*
X2542Y3867*
X2531Y3882*
X2518Y3895*
X2503Y3906*
X2486Y3914*
X2469Y3920*
X2450Y3923*
G37*
G36*
X3507Y3919D02*
X3488D01*
X3470Y3916*
X3452Y3910*
X3436Y3902*
X3421Y3891*
X3407Y3878*
X3396Y3863*
X3388Y3846*
X3382Y3828*
X3379Y3810*
Y3791*
X3382Y3773*
X3388Y3755*
X3396Y3739*
X3407Y3724*
X3421Y3710*
X3436Y3699*
X3452Y3691*
X3470Y3685*
X3488Y3682*
X3507*
X3525Y3685*
X3543Y3691*
X3560Y3699*
X3575Y3710*
X3588Y3724*
X3599Y3739*
X3607Y3755*
X3613Y3773*
X3616Y3791*
Y3810*
X3613Y3828*
X3607Y3846*
X3599Y3863*
X3588Y3878*
X3575Y3891*
X3560Y3902*
X3543Y3910*
X3525Y3916*
X3507Y3919*
G37*
G36*
X2000Y3918D02*
X1982D01*
X1963Y3915*
X1945Y3909*
X1929Y3901*
X1914Y3890*
X1901Y3877*
X1890Y3862*
X1881Y3845*
X1875Y3827*
X1872Y3809*
Y3790*
X1875Y3772*
X1881Y3754*
X1890Y3737*
X1901Y3722*
X1914Y3709*
X1929Y3698*
X1945Y3690*
X1963Y3684*
X1982Y3681*
X2000*
X2019Y3684*
X2036Y3690*
X2053Y3698*
X2068Y3709*
X2081Y3722*
X2092Y3737*
X2101Y3754*
X2106Y3772*
X2109Y3790*
Y3809*
X2106Y3827*
X2101Y3845*
X2092Y3862*
X2081Y3877*
X2068Y3890*
X2053Y3901*
X2036Y3909*
X2019Y3915*
X2000Y3918*
G37*
G36*
X4351Y3755D02*
X4338D01*
X4325Y3751*
X4314Y3745*
X4304Y3735*
X4298Y3724*
X4295Y3711*
Y3698*
X4298Y3685*
X4304Y3674*
X4314Y3664*
X4325Y3658*
X4338Y3655*
X4351*
X4364Y3658*
X4375Y3664*
X4385Y3674*
X4391Y3685*
X4395Y3698*
Y3711*
X4391Y3724*
X4385Y3735*
X4375Y3745*
X4364Y3751*
X4351Y3755*
G37*
G36*
X1602Y3703D02*
X1593D01*
X1585Y3701*
X1578Y3697*
X1572Y3691*
X1568Y3684*
X1566Y3676*
Y3667*
X1568Y3659*
X1572Y3652*
X1578Y3646*
X1585Y3642*
X1593Y3640*
X1602*
X1610Y3642*
X1617Y3646*
X1623Y3652*
X1627Y3659*
X1629Y3667*
Y3676*
X1627Y3684*
X1623Y3691*
X1617Y3697*
X1610Y3701*
X1602Y3703*
G37*
G36*
X5064Y3815D02*
X5047D01*
X5030Y3812*
X5014Y3805*
X4999Y3795*
X4987Y3783*
X4977Y3768*
X4970Y3752*
X4967Y3735*
Y3717*
X4970Y3700*
X4977Y3684*
X4987Y3670*
X4999Y3657*
X5014Y3647*
X5030Y3641*
X5047Y3637*
X5064*
X5082Y3641*
X5098Y3647*
X5112Y3657*
X5125Y3670*
X5135Y3684*
X5141Y3700*
X5145Y3717*
Y3735*
X5141Y3752*
X5135Y3768*
X5125Y3783*
X5112Y3795*
X5098Y3805*
X5082Y3812*
X5064Y3815*
G37*
G36*
X4590D02*
X4573D01*
X4556Y3812*
X4540Y3805*
X4525Y3795*
X4513Y3783*
X4503Y3768*
X4496Y3752*
X4493Y3735*
Y3717*
X4496Y3700*
X4503Y3684*
X4513Y3670*
X4525Y3657*
X4540Y3647*
X4556Y3641*
X4573Y3637*
X4590*
X4608Y3641*
X4624Y3647*
X4638Y3657*
X4651Y3670*
X4660Y3684*
X4667Y3700*
X4671Y3717*
Y3735*
X4667Y3752*
X4660Y3768*
X4651Y3783*
X4638Y3795*
X4624Y3805*
X4608Y3812*
X4590Y3815*
G37*
G36*
X4874Y3667D02*
X4862D01*
X4849Y3664*
X4838Y3658*
X4830Y3649*
X4823Y3638*
X4821Y3631*
X4816*
X4814Y3638*
X4808Y3649*
X4799Y3658*
X4788Y3664*
X4776Y3667*
X4763*
X4751Y3664*
X4740Y3658*
X4731Y3649*
X4725Y3638*
X4722Y3626*
Y3613*
X4725Y3601*
X4729Y3594*
X4726Y3589*
X4722*
Y3493*
X4817*
Y3525*
X4822Y3525*
X4823Y3522*
X4830Y3511*
X4838Y3502*
X4849Y3496*
X4862Y3493*
X4874*
X4886Y3496*
X4897Y3502*
X4906Y3511*
X4913Y3522*
X4916Y3534*
Y3547*
X4913Y3559*
X4906Y3570*
X4900Y3577*
X4898Y3580*
X4900Y3584*
X4906Y3590*
X4913Y3601*
X4916Y3613*
Y3626*
X4913Y3638*
X4906Y3649*
X4897Y3658*
X4886Y3664*
X4874Y3667*
G37*
G36*
X2755Y3918D02*
X2737D01*
X2718Y3915*
X2701Y3909*
X2684Y3901*
X2669Y3890*
X2656Y3877*
X2645Y3862*
X2636Y3845*
X2630Y3827*
X2628Y3809*
Y3790*
X2630Y3772*
X2636Y3754*
X2645Y3737*
X2656Y3722*
X2669Y3709*
X2684Y3698*
X2701Y3690*
X2718Y3684*
X2737Y3681*
X2755*
X2766Y3683*
X2767Y3678*
X2761Y3676*
X2753Y3671*
X2745Y3664*
X2741Y3656*
X2738Y3646*
Y3636*
X2741Y3627*
X2745Y3618*
X2753Y3611*
X2761Y3606*
X2771Y3603*
X2781*
X2790Y3606*
X2799Y3611*
X2806Y3618*
X2811Y3627*
X2813Y3636*
Y3646*
X2811Y3656*
X2806Y3664*
X2799Y3671*
X2790Y3676*
X2781Y3679*
X2773*
X2773Y3684*
X2774Y3684*
X2791Y3690*
X2808Y3698*
X2823Y3709*
X2836Y3722*
X2847Y3737*
X2856Y3754*
X2861Y3772*
X2864Y3790*
Y3809*
X2861Y3827*
X2856Y3845*
X2847Y3862*
X2836Y3877*
X2823Y3890*
X2808Y3901*
X2791Y3909*
X2774Y3915*
X2755Y3918*
G37*
G36*
X3524Y3676D02*
X3515D01*
X3505Y3674*
X3496Y3669*
X3489Y3662*
X3484Y3653*
X3482Y3643*
Y3634*
X3484Y3624*
X3489Y3615*
X3496Y3608*
X3505Y3603*
X3515Y3601*
X3524*
X3534Y3603*
X3543Y3608*
X3550Y3615*
X3555Y3624*
X3557Y3634*
Y3643*
X3555Y3653*
X3550Y3662*
X3543Y3669*
X3534Y3674*
X3524Y3676*
G37*
G36*
X2014D02*
X2004D01*
X1994Y3674*
X1986Y3669*
X1979Y3662*
X1974Y3653*
X1971Y3643*
Y3634*
X1974Y3624*
X1979Y3615*
X1986Y3608*
X1994Y3603*
X2004Y3601*
X2014*
X2023Y3603*
X2032Y3608*
X2039Y3615*
X2044Y3624*
X2047Y3634*
Y3643*
X2044Y3653*
X2039Y3662*
X2032Y3669*
X2023Y3674*
X2014Y3676*
G37*
G36*
X6011Y3690D02*
X5998D01*
X5985Y3686*
X5974Y3680*
X5964Y3670*
X5958Y3659*
X5955Y3646*
Y3633*
X5958Y3620*
X5964Y3609*
X5974Y3599*
X5985Y3593*
X5998Y3590*
X6011*
X6024Y3593*
X6035Y3599*
X6045Y3609*
X6051Y3620*
X6055Y3633*
Y3646*
X6051Y3659*
X6045Y3670*
X6035Y3680*
X6024Y3686*
X6011Y3690*
G37*
G36*
X1201Y3665D02*
X1188D01*
X1175Y3661*
X1164Y3655*
X1154Y3645*
X1148Y3634*
X1145Y3621*
Y3608*
X1148Y3595*
X1154Y3584*
X1164Y3574*
X1175Y3568*
X1188Y3565*
X1201*
X1214Y3568*
X1225Y3574*
X1235Y3584*
X1241Y3595*
X1245Y3608*
Y3621*
X1241Y3634*
X1235Y3645*
X1225Y3655*
X1214Y3661*
X1201Y3665*
G37*
G36*
X3906Y3599D02*
X3893D01*
X3880Y3596*
X3869Y3589*
X3860Y3580*
X3853Y3569*
X3852Y3564*
X3847*
X3846Y3569*
X3839Y3580*
X3830Y3589*
X3819Y3596*
X3806Y3599*
X3793*
X3780Y3596*
X3769Y3589*
X3760Y3580*
X3753Y3569*
X3752Y3564*
X3747*
X3746Y3569*
X3739Y3580*
X3730Y3589*
X3719Y3596*
X3706Y3599*
X3693*
X3680Y3596*
X3669Y3589*
X3660Y3580*
X3653Y3569*
X3652Y3564*
X3647*
X3646Y3569*
X3639Y3580*
X3630Y3589*
X3619Y3596*
X3606Y3599*
X3593*
X3580Y3596*
X3569Y3589*
X3560Y3580*
X3553Y3569*
X3550Y3556*
Y3543*
X3553Y3530*
X3560Y3519*
X3569Y3510*
X3580Y3503*
X3593Y3500*
X3606*
X3619Y3503*
X3630Y3510*
X3639Y3519*
X3646Y3530*
X3647Y3535*
X3652*
X3653Y3530*
X3660Y3519*
X3669Y3510*
X3680Y3503*
X3693Y3500*
X3706*
X3719Y3503*
X3730Y3510*
X3739Y3519*
X3746Y3530*
X3747Y3535*
X3752*
X3753Y3530*
X3760Y3519*
X3769Y3510*
X3780Y3503*
X3793Y3500*
X3806*
X3819Y3503*
X3830Y3510*
X3839Y3519*
X3846Y3530*
X3847Y3535*
X3852*
X3853Y3530*
X3860Y3519*
X3869Y3510*
X3880Y3503*
X3893Y3500*
X3906*
X3919Y3503*
X3930Y3510*
X3939Y3519*
X3946Y3530*
X3949Y3543*
Y3556*
X3946Y3569*
X3939Y3580*
X3930Y3589*
X3919Y3596*
X3906Y3599*
G37*
G36*
X3154Y3598D02*
X3141D01*
X3129Y3594*
X3117Y3588*
X3108Y3579*
X3102Y3567*
X3100Y3563*
X3095*
X3094Y3567*
X3087Y3579*
X3078Y3588*
X3067Y3594*
X3054Y3598*
X3041*
X3029Y3594*
X3017Y3588*
X3008Y3579*
X3002Y3567*
X3000Y3563*
X2995*
X2994Y3567*
X2987Y3579*
X2978Y3588*
X2967Y3594*
X2954Y3598*
X2941*
X2929Y3594*
X2917Y3588*
X2908Y3579*
X2902Y3567*
X2900Y3563*
X2895*
X2894Y3567*
X2887Y3579*
X2878Y3588*
X2867Y3594*
X2854Y3598*
X2841*
X2829Y3594*
X2817Y3588*
X2808Y3579*
X2802Y3567*
X2798Y3555*
Y3542*
X2802Y3529*
X2808Y3518*
X2817Y3509*
X2829Y3502*
X2841Y3499*
X2854*
X2867Y3502*
X2878Y3509*
X2887Y3518*
X2894Y3529*
X2895Y3534*
X2900*
X2902Y3529*
X2908Y3518*
X2917Y3509*
X2929Y3502*
X2941Y3499*
X2954*
X2967Y3502*
X2978Y3509*
X2987Y3518*
X2994Y3529*
X2995Y3534*
X3000*
X3002Y3529*
X3008Y3518*
X3017Y3509*
X3029Y3502*
X3041Y3499*
X3054*
X3067Y3502*
X3078Y3509*
X3087Y3518*
X3094Y3529*
X3095Y3534*
X3100*
X3102Y3529*
X3108Y3518*
X3117Y3509*
X3129Y3502*
X3141Y3499*
X3154*
X3167Y3502*
X3178Y3509*
X3187Y3518*
X3194Y3529*
X3197Y3542*
Y3555*
X3194Y3567*
X3187Y3579*
X3178Y3588*
X3167Y3594*
X3154Y3598*
G37*
G36*
X2399D02*
X2386D01*
X2374Y3594*
X2362Y3588*
X2353Y3579*
X2347Y3567*
X2345Y3563*
X2340*
X2339Y3567*
X2332Y3579*
X2323Y3588*
X2312Y3594*
X2299Y3598*
X2286*
X2274Y3594*
X2262Y3588*
X2253Y3579*
X2247Y3567*
X2245Y3563*
X2240*
X2239Y3567*
X2232Y3579*
X2223Y3588*
X2212Y3594*
X2199Y3598*
X2186*
X2174Y3594*
X2162Y3588*
X2153Y3579*
X2147Y3567*
X2145Y3563*
X2140*
X2139Y3567*
X2132Y3579*
X2123Y3588*
X2112Y3594*
X2099Y3598*
X2086*
X2074Y3594*
X2062Y3588*
X2053Y3579*
X2047Y3567*
X2043Y3555*
Y3542*
X2047Y3529*
X2053Y3518*
X2062Y3509*
X2074Y3502*
X2086Y3499*
X2099*
X2112Y3502*
X2123Y3509*
X2132Y3518*
X2139Y3529*
X2140Y3534*
X2145*
X2147Y3529*
X2153Y3518*
X2162Y3509*
X2174Y3502*
X2186Y3499*
X2199*
X2212Y3502*
X2223Y3509*
X2232Y3518*
X2239Y3529*
X2240Y3534*
X2245*
X2247Y3529*
X2253Y3518*
X2262Y3509*
X2274Y3502*
X2286Y3499*
X2299*
X2312Y3502*
X2323Y3509*
X2332Y3518*
X2339Y3529*
X2340Y3534*
X2345*
X2347Y3529*
X2353Y3518*
X2362Y3509*
X2374Y3502*
X2386Y3499*
X2399*
X2412Y3502*
X2423Y3509*
X2432Y3518*
X2439Y3529*
X2442Y3542*
Y3555*
X2439Y3567*
X2432Y3579*
X2423Y3588*
X2412Y3594*
X2399Y3598*
G37*
G36*
X5193Y3618D02*
X5186D01*
X5178Y3616*
X5172Y3613*
X5166Y3607*
X5163Y3601*
X5161Y3593*
Y3586*
X5163Y3578*
X5166Y3572*
X5172Y3566*
X5178Y3563*
X5186Y3561*
X5193*
X5201Y3563*
X5207Y3566*
X5213Y3572*
X5216Y3578*
X5218Y3586*
Y3593*
X5216Y3601*
X5213Y3607*
X5207Y3613*
X5201Y3616*
X5193Y3618*
G37*
G36*
X1510Y3550D02*
X1510D01*
Y3515*
X1545*
Y3515*
X1542Y3525*
X1537Y3534*
X1529Y3542*
X1520Y3547*
X1510Y3550*
G37*
G36*
X1500D02*
X1499D01*
X1489Y3547*
X1480Y3542*
X1472Y3534*
X1467Y3525*
X1465Y3515*
Y3515*
X1500*
Y3550*
G37*
G36*
X4146Y3605D02*
X4133D01*
X4120Y3601*
X4109Y3595*
X4099Y3585*
X4093Y3574*
X4090Y3561*
Y3548*
X4093Y3535*
X4099Y3524*
X4109Y3514*
X4120Y3508*
X4133Y3505*
X4146*
X4159Y3508*
X4170Y3514*
X4180Y3524*
X4186Y3535*
X4190Y3548*
Y3561*
X4186Y3574*
X4180Y3585*
X4170Y3595*
X4159Y3601*
X4146Y3605*
G37*
G36*
X1781Y3600D02*
X1768D01*
X1755Y3596*
X1744Y3590*
X1734Y3580*
X1728Y3569*
X1725Y3556*
Y3543*
X1728Y3530*
X1734Y3519*
X1744Y3509*
X1755Y3503*
X1768Y3500*
X1781*
X1794Y3503*
X1805Y3509*
X1815Y3519*
X1821Y3530*
X1825Y3543*
Y3556*
X1821Y3569*
X1815Y3580*
X1805Y3590*
X1794Y3596*
X1781Y3600*
G37*
G36*
X5681Y3543D02*
X5671D01*
X5661Y3540*
X5653Y3535*
X5646Y3528*
X5641Y3520*
X5638Y3510*
Y3500*
X5641Y3491*
X5646Y3482*
X5653Y3475*
X5661Y3470*
X5671Y3467*
X5681*
X5691Y3470*
X5699Y3475*
X5706Y3482*
X5711Y3491*
X5714Y3500*
Y3510*
X5711Y3520*
X5706Y3528*
X5699Y3535*
X5691Y3540*
X5681Y3543*
G37*
G36*
X3856Y3499D02*
X3843D01*
X3830Y3496*
X3819Y3489*
X3810Y3480*
X3803Y3469*
X3802Y3464*
X3797*
X3796Y3469*
X3789Y3480*
X3780Y3489*
X3769Y3496*
X3756Y3499*
X3743*
X3730Y3496*
X3719Y3489*
X3710Y3480*
X3703Y3469*
X3702Y3464*
X3697*
X3696Y3469*
X3689Y3480*
X3680Y3489*
X3669Y3496*
X3656Y3499*
X3643*
X3630Y3496*
X3619Y3489*
X3610Y3480*
X3603Y3469*
X3602Y3464*
X3597*
X3596Y3469*
X3589Y3480*
X3580Y3489*
X3569Y3496*
X3556Y3499*
X3543*
X3530Y3496*
X3519Y3489*
X3510Y3480*
X3503Y3469*
X3500Y3456*
Y3443*
X3503Y3430*
X3510Y3419*
X3519Y3410*
X3530Y3403*
X3543Y3400*
X3556*
X3569Y3403*
X3580Y3410*
X3589Y3419*
X3596Y3430*
X3597Y3435*
X3602*
X3603Y3430*
X3610Y3419*
X3619Y3410*
X3630Y3403*
X3643Y3400*
X3656*
X3669Y3403*
X3680Y3410*
X3689Y3419*
X3696Y3430*
X3697Y3435*
X3702*
X3703Y3430*
X3710Y3419*
X3719Y3410*
X3730Y3403*
X3743Y3400*
X3756*
X3769Y3403*
X3780Y3410*
X3789Y3419*
X3796Y3430*
X3797Y3435*
X3802*
X3803Y3430*
X3810Y3419*
X3819Y3410*
X3830Y3403*
X3843Y3400*
X3856*
X3869Y3403*
X3880Y3410*
X3889Y3419*
X3896Y3430*
X3899Y3443*
Y3456*
X3896Y3469*
X3889Y3480*
X3880Y3489*
X3869Y3496*
X3856Y3499*
G37*
G36*
X3104Y3498D02*
X3091D01*
X3079Y3494*
X3067Y3488*
X3058Y3479*
X3052Y3467*
X3050Y3463*
X3045*
X3044Y3467*
X3037Y3479*
X3028Y3488*
X3017Y3494*
X3004Y3498*
X2991*
X2979Y3494*
X2967Y3488*
X2958Y3479*
X2952Y3467*
X2950Y3463*
X2945*
X2944Y3467*
X2937Y3479*
X2928Y3488*
X2917Y3494*
X2904Y3498*
X2891*
X2879Y3494*
X2867Y3488*
X2858Y3479*
X2852Y3467*
X2850Y3463*
X2845*
X2844Y3467*
X2837Y3479*
X2828Y3488*
X2817Y3494*
X2804Y3498*
X2791*
X2779Y3494*
X2767Y3488*
X2758Y3479*
X2752Y3467*
X2748Y3455*
Y3442*
X2752Y3429*
X2758Y3418*
X2767Y3409*
X2779Y3402*
X2791Y3399*
X2804*
X2817Y3402*
X2828Y3409*
X2837Y3418*
X2844Y3429*
X2845Y3434*
X2850*
X2852Y3429*
X2858Y3418*
X2867Y3409*
X2879Y3402*
X2891Y3399*
X2904*
X2917Y3402*
X2928Y3409*
X2937Y3418*
X2944Y3429*
X2945Y3434*
X2950*
X2952Y3429*
X2958Y3418*
X2967Y3409*
X2979Y3402*
X2991Y3399*
X3004*
X3017Y3402*
X3028Y3409*
X3037Y3418*
X3044Y3429*
X3045Y3434*
X3050*
X3052Y3429*
X3058Y3418*
X3067Y3409*
X3079Y3402*
X3091Y3399*
X3104*
X3117Y3402*
X3128Y3409*
X3137Y3418*
X3144Y3429*
X3147Y3442*
Y3455*
X3144Y3467*
X3137Y3479*
X3128Y3488*
X3117Y3494*
X3104Y3498*
G37*
G36*
X2349D02*
X2336D01*
X2324Y3494*
X2312Y3488*
X2303Y3479*
X2297Y3467*
X2295Y3463*
X2290*
X2289Y3467*
X2282Y3479*
X2273Y3488*
X2262Y3494*
X2249Y3498*
X2236*
X2224Y3494*
X2212Y3488*
X2203Y3479*
X2197Y3467*
X2195Y3463*
X2190*
X2189Y3467*
X2182Y3479*
X2173Y3488*
X2162Y3494*
X2149Y3498*
X2136*
X2124Y3494*
X2112Y3488*
X2103Y3479*
X2097Y3467*
X2095Y3463*
X2090*
X2089Y3467*
X2082Y3479*
X2073Y3488*
X2062Y3494*
X2049Y3498*
X2036*
X2024Y3494*
X2012Y3488*
X2003Y3479*
X1997Y3467*
X1993Y3455*
Y3442*
X1997Y3429*
X2003Y3418*
X2012Y3409*
X2024Y3402*
X2036Y3399*
X2049*
X2062Y3402*
X2073Y3409*
X2082Y3418*
X2089Y3429*
X2090Y3434*
X2095*
X2097Y3429*
X2103Y3418*
X2112Y3409*
X2124Y3402*
X2136Y3399*
X2149*
X2162Y3402*
X2173Y3409*
X2182Y3418*
X2189Y3429*
X2190Y3434*
X2195*
X2197Y3429*
X2203Y3418*
X2212Y3409*
X2224Y3402*
X2236Y3399*
X2249*
X2262Y3402*
X2273Y3409*
X2282Y3418*
X2289Y3429*
X2290Y3434*
X2295*
X2297Y3429*
X2303Y3418*
X2312Y3409*
X2324Y3402*
X2336Y3399*
X2349*
X2362Y3402*
X2373Y3409*
X2382Y3418*
X2389Y3429*
X2392Y3442*
Y3455*
X2389Y3467*
X2382Y3479*
X2373Y3488*
X2362Y3494*
X2349Y3498*
G37*
G36*
X526Y3579D02*
X513D01*
X501Y3577*
X489Y3572*
X479Y3565*
X470Y3556*
X463Y3545*
X458Y3534*
X455Y3521*
Y3508*
X458Y3496*
X463Y3484*
X470Y3474*
X479Y3465*
X489Y3458*
X501Y3453*
X513Y3450*
X526*
X538Y3453*
X550Y3458*
X560Y3465*
X569Y3474*
X576Y3484*
X581Y3496*
X584Y3508*
Y3521*
X581Y3534*
X576Y3545*
X569Y3556*
X560Y3565*
X550Y3572*
X538Y3577*
X526Y3579*
G37*
G36*
X1545Y3505D02*
X1465D01*
Y3504*
X1467Y3494*
X1472Y3485*
X1480Y3477*
X1484Y3475*
Y3469*
X1480Y3467*
X1472Y3459*
X1467Y3450*
X1465Y3440*
Y3440*
X1545*
Y3440*
X1542Y3450*
X1537Y3459*
X1529Y3467*
X1525Y3469*
Y3475*
X1529Y3477*
X1537Y3485*
X1542Y3494*
X1545Y3504*
Y3505*
G37*
G36*
X4336Y3535D02*
X4323D01*
X4310Y3531*
X4299Y3525*
X4289Y3515*
X4283Y3504*
X4280Y3491*
Y3478*
X4283Y3465*
X4289Y3454*
X4299Y3444*
X4310Y3438*
X4323Y3435*
X4336*
X4349Y3438*
X4360Y3444*
X4370Y3454*
X4376Y3465*
X4380Y3478*
Y3491*
X4376Y3504*
X4370Y3515*
X4360Y3525*
X4349Y3531*
X4336Y3535*
G37*
G36*
X4827Y3486D02*
X4818D01*
X4810Y3484*
X4803Y3480*
X4797Y3474*
X4793Y3467*
X4791Y3459*
Y3450*
X4793Y3442*
X4797Y3435*
X4803Y3429*
X4810Y3425*
X4818Y3423*
X4827*
X4835Y3425*
X4842Y3429*
X4848Y3435*
X4850Y3439*
X4856Y3439*
X4856Y3438*
X4860Y3431*
X4866Y3425*
X4873Y3421*
X4881Y3419*
X4890*
X4898Y3421*
X4905Y3425*
X4911Y3431*
X4915Y3438*
X4917Y3446*
Y3455*
X4915Y3463*
X4911Y3470*
X4905Y3476*
X4898Y3480*
X4890Y3482*
X4881*
X4873Y3480*
X4866Y3476*
X4860Y3470*
X4858Y3466*
X4852Y3466*
X4852Y3467*
X4848Y3474*
X4842Y3480*
X4835Y3484*
X4827Y3486*
G37*
G36*
X1116Y3510D02*
X1103D01*
X1090Y3506*
X1079Y3500*
X1069Y3490*
X1063Y3479*
X1060Y3466*
Y3453*
X1063Y3440*
X1069Y3429*
X1079Y3419*
X1090Y3413*
X1103Y3410*
X1116*
X1129Y3413*
X1140Y3419*
X1150Y3429*
X1156Y3440*
X1160Y3453*
Y3466*
X1156Y3479*
X1150Y3490*
X1140Y3500*
X1129Y3506*
X1116Y3510*
G37*
G36*
X1425Y3435D02*
X1424D01*
X1414Y3432*
X1405Y3427*
X1397Y3419*
X1392Y3410*
X1390Y3400*
Y3400*
X1425*
Y3435*
G37*
G36*
X1545Y3430D02*
X1510D01*
Y3395*
X1510*
X1520Y3397*
X1529Y3402*
X1537Y3410*
X1542Y3419*
X1545Y3429*
Y3430*
G37*
G36*
X1435Y3435D02*
X1435D01*
Y3400*
X1470*
Y3400*
X1467Y3410*
X1471Y3412*
X1472Y3410*
X1480Y3402*
X1489Y3397*
X1499Y3395*
X1500*
Y3430*
X1465*
Y3429*
X1467Y3419*
X1463Y3417*
X1462Y3419*
X1454Y3427*
X1445Y3432*
X1435Y3435*
G37*
G36*
X5504Y3440D02*
X5495D01*
X5485Y3438*
X5476Y3433*
X5469Y3426*
X5464Y3417*
X5462Y3407*
Y3398*
X5464Y3388*
X5469Y3379*
X5476Y3372*
X5485Y3367*
X5495Y3365*
X5504*
X5514Y3367*
X5523Y3372*
X5530Y3379*
X5535Y3388*
X5537Y3398*
Y3407*
X5535Y3417*
X5530Y3426*
X5523Y3433*
X5514Y3438*
X5504Y3440*
G37*
G36*
X4500Y3395D02*
X4500D01*
Y3360*
X4535*
Y3360*
X4532Y3370*
X4527Y3379*
X4519Y3387*
X4510Y3392*
X4500Y3395*
G37*
G36*
X4490D02*
X4489D01*
X4479Y3392*
X4470Y3387*
X4462Y3379*
X4457Y3370*
X4455Y3360*
Y3360*
X4490*
Y3395*
G37*
G36*
X1470Y3390D02*
X1435D01*
Y3355*
X1435*
X1445Y3357*
X1454Y3362*
X1462Y3370*
X1467Y3379*
X1470Y3389*
Y3390*
G37*
G36*
X1425D02*
X1390D01*
Y3389*
X1392Y3379*
X1397Y3370*
X1405Y3362*
X1414Y3357*
X1424Y3355*
X1425*
Y3390*
G37*
G36*
X4861Y3406D02*
X4854D01*
X4846Y3404*
X4840Y3401*
X4834Y3395*
X4831Y3389*
X4829Y3381*
Y3374*
X4831Y3366*
X4834Y3360*
X4840Y3354*
X4846Y3351*
X4854Y3349*
X4861*
X4869Y3351*
X4875Y3354*
X4881Y3360*
X4884Y3366*
X4886Y3374*
Y3381*
X4884Y3389*
X4881Y3395*
X4875Y3401*
X4869Y3404*
X4861Y3406*
G37*
G36*
X6031Y3435D02*
X6018D01*
X6005Y3431*
X5994Y3425*
X5984Y3415*
X5978Y3404*
X5975Y3391*
Y3378*
X5978Y3365*
X5984Y3354*
X5994Y3344*
X6005Y3338*
X6018Y3335*
X6031*
X6044Y3338*
X6055Y3344*
X6065Y3354*
X6071Y3365*
X6075Y3378*
Y3391*
X6071Y3404*
X6065Y3415*
X6055Y3425*
X6044Y3431*
X6031Y3435*
G37*
G36*
X2450Y3365D02*
X2450D01*
Y3330*
X2485*
Y3330*
X2482Y3340*
X2477Y3349*
X2469Y3357*
X2460Y3362*
X2450Y3365*
G37*
G36*
X2440D02*
X2439D01*
X2429Y3362*
X2420Y3357*
X2412Y3349*
X2407Y3340*
X2405Y3330*
Y3330*
X2440*
Y3365*
G37*
G36*
X5354Y3477D02*
X5345D01*
X5335Y3475*
X5326Y3470*
X5319Y3463*
X5315Y3455*
X5254Y3393*
X5200Y3340*
X4825*
X4815Y3339*
X4807Y3335*
X4800Y3329*
X4800Y3329*
X4714Y3415*
Y3423*
X4716Y3432*
Y3441*
X4714Y3451*
X4709Y3460*
X4702Y3467*
X4693Y3472*
X4683Y3474*
X4674*
X4664Y3472*
X4655Y3467*
X4648Y3460*
X4643Y3451*
X4641Y3441*
Y3432*
X4643Y3423*
X3835Y2615*
X3056*
X3055Y2617*
X3054Y2620*
X3058Y2626*
X3060Y2634*
Y2641*
X3058Y2648*
X3054Y2655*
X3049Y2660*
X3042Y2664*
X3035Y2666*
X3027*
X3020Y2664*
X3013Y2660*
X3008Y2655*
X3004Y2648*
X3002Y2641*
Y2634*
X3004Y2626*
X3008Y2620*
X3007Y2617*
X3006Y2615*
X1793*
X1788Y2620*
X1777Y2626*
X1764Y2630*
X1751*
X1738Y2626*
X1727Y2620*
X1718Y2610*
X1711Y2599*
X1708Y2586*
Y2573*
X1711Y2560*
X1718Y2549*
X1727Y2539*
X1738Y2533*
X1751Y2530*
X1764*
X1777Y2533*
X1788Y2539*
X1793Y2544*
X2911*
X2912Y2539*
X2904Y2537*
X2895Y2532*
X2887Y2524*
X2882Y2515*
X2880Y2505*
Y2505*
X2960*
Y2505*
X2957Y2515*
X2952Y2524*
X2944Y2532*
X2935Y2537*
X2927Y2539*
X2928Y2544*
X3057*
X3058Y2539*
X3049Y2537*
X3040Y2532*
X3032Y2524*
X3027Y2515*
X3025Y2505*
Y2505*
X3105*
Y2505*
X3102Y2515*
X3097Y2524*
X3089Y2532*
X3080Y2537*
X3071Y2539*
X3072Y2544*
X3173*
X3175Y2539*
X3170Y2537*
X3162Y2529*
X3157Y2520*
X3155Y2510*
Y2510*
X3235*
Y2510*
X3232Y2520*
X3227Y2529*
X3219Y2537*
X3214Y2539*
X3216Y2544*
X3318*
X3320Y2539*
X3315Y2537*
X3307Y2529*
X3302Y2520*
X3300Y2510*
Y2510*
X3380*
Y2510*
X3377Y2520*
X3372Y2529*
X3364Y2537*
X3359Y2539*
X3361Y2544*
X3850*
X3859Y2545*
X3867Y2549*
X3874Y2555*
X4675Y3355*
X4765Y3264*
X4769Y3256*
X4776Y3249*
X4785Y3244*
X4795Y3242*
X4804*
X4814Y3244*
X4823Y3249*
X4830Y3256*
X4834Y3264*
X4839Y3269*
X5215*
X5224Y3270*
X5232Y3274*
X5239Y3280*
X5279Y3319*
X5371Y3227*
X5378Y3221*
X5386Y3217*
X5396Y3216*
X5557*
Y3131*
X5553Y3129*
X5551Y3131*
X5542Y3136*
X5532Y3138*
X5523*
X5513Y3136*
X5504Y3131*
X5497Y3124*
X5492Y3115*
X5490Y3105*
Y3096*
X5492Y3086*
X5497Y3077*
X5504Y3070*
X5513Y3065*
X5523Y3063*
X5532*
X5542Y3065*
X5551Y3070*
X5553Y3072*
X5557Y3070*
Y2952*
X5558Y2942*
X5562Y2934*
X5568Y2927*
X5610Y2885*
X5617Y2879*
X5625Y2875*
X5635Y2874*
X5643*
X5648Y2869*
X5660Y2862*
X5662Y2862*
Y2857*
X5660Y2857*
X5648Y2850*
X5639Y2841*
X5632Y2829*
X5629Y2816*
Y2803*
X5632Y2790*
X5639Y2778*
X5648Y2769*
X5660Y2762*
X5662Y2762*
Y2757*
X5660Y2757*
X5648Y2750*
X5639Y2741*
X5632Y2729*
X5629Y2716*
Y2703*
X5632Y2690*
X5639Y2678*
X5648Y2669*
X5660Y2662*
X5662Y2662*
Y2657*
X5660Y2657*
X5648Y2650*
X5639Y2641*
X5632Y2629*
X5629Y2616*
Y2603*
X5632Y2590*
X5639Y2578*
X5648Y2569*
X5660Y2562*
X5662Y2562*
Y2557*
X5660Y2557*
X5648Y2550*
X5639Y2541*
X5632Y2529*
X5629Y2516*
Y2503*
X5632Y2490*
X5639Y2478*
X5648Y2469*
X5660Y2462*
X5662Y2462*
Y2457*
X5660Y2457*
X5648Y2450*
X5639Y2441*
X5632Y2429*
X5629Y2416*
Y2403*
X5632Y2390*
X5639Y2378*
X5648Y2369*
X5660Y2362*
X5662Y2362*
Y2357*
X5660Y2357*
X5648Y2350*
X5639Y2341*
X5632Y2329*
X5629Y2316*
Y2303*
X5632Y2290*
X5639Y2278*
X5648Y2269*
X5660Y2262*
X5662Y2262*
Y2257*
X5660Y2257*
X5648Y2250*
X5639Y2241*
X5632Y2229*
X5629Y2216*
Y2203*
X5632Y2190*
X5639Y2178*
X5648Y2169*
X5660Y2162*
X5662Y2162*
Y2157*
X5660Y2157*
X5648Y2150*
X5639Y2141*
X5632Y2129*
X5629Y2116*
Y2103*
X5632Y2090*
X5639Y2078*
X5648Y2069*
X5660Y2062*
X5662Y2062*
Y2057*
X5660Y2057*
X5648Y2050*
X5639Y2041*
X5632Y2029*
X5629Y2016*
Y2003*
X5632Y1990*
X5639Y1978*
X5648Y1969*
X5660Y1962*
X5662Y1962*
Y1957*
X5660Y1957*
X5648Y1950*
X5639Y1941*
X5632Y1929*
X5629Y1916*
Y1903*
X5632Y1890*
X5639Y1878*
X5648Y1869*
X5660Y1862*
X5662Y1862*
Y1857*
X5660Y1857*
X5648Y1850*
X5639Y1841*
X5632Y1829*
X5629Y1816*
Y1803*
X5632Y1790*
X5639Y1778*
X5648Y1769*
X5660Y1762*
X5662Y1762*
Y1757*
X5660Y1757*
X5648Y1750*
X5639Y1741*
X5632Y1729*
X5629Y1716*
Y1703*
X5632Y1690*
X5639Y1678*
X5648Y1669*
X5660Y1662*
X5662Y1662*
Y1657*
X5660Y1657*
X5648Y1650*
X5639Y1641*
X5632Y1629*
X5629Y1616*
Y1603*
X5632Y1590*
X5639Y1578*
X5648Y1569*
X5660Y1562*
X5662Y1562*
Y1557*
X5660Y1557*
X5648Y1550*
X5639Y1541*
X5632Y1529*
X5629Y1516*
Y1503*
X5632Y1490*
X5639Y1478*
X5648Y1469*
X5660Y1462*
X5662Y1462*
Y1457*
X5660Y1457*
X5648Y1450*
X5639Y1441*
X5632Y1429*
X5629Y1416*
Y1403*
X5632Y1390*
X5639Y1378*
X5648Y1369*
X5660Y1362*
X5673Y1359*
X5686*
X5699Y1362*
X5711Y1369*
X5720Y1378*
X5727Y1390*
X5727Y1392*
X5732*
X5732Y1390*
X5739Y1378*
X5748Y1369*
X5760Y1362*
X5762Y1362*
Y1357*
X5760Y1357*
X5748Y1350*
X5739Y1341*
X5732Y1329*
X5729Y1316*
Y1303*
X5732Y1290*
X5739Y1278*
X5748Y1269*
X5760Y1262*
X5762Y1262*
Y1257*
X5760Y1257*
X5748Y1250*
X5739Y1241*
X5732Y1229*
X5732Y1227*
X5727*
X5727Y1229*
X5720Y1241*
X5711Y1250*
X5699Y1257*
X5686Y1260*
X5673*
X5660Y1257*
X5648Y1250*
X5639Y1241*
X5632Y1229*
X5629Y1216*
Y1203*
X5632Y1190*
X5639Y1178*
X5648Y1169*
X5660Y1162*
X5673Y1159*
X5686*
X5699Y1162*
X5711Y1169*
X5720Y1178*
X5727Y1190*
X5727Y1192*
X5732*
X5732Y1190*
X5739Y1178*
X5748Y1169*
X5760Y1162*
X5773Y1159*
X5786*
X5799Y1162*
X5811Y1169*
X5820Y1178*
X5827Y1190*
X5830Y1203*
Y1216*
X5827Y1229*
X5820Y1241*
X5811Y1250*
X5799Y1257*
X5797Y1257*
Y1262*
X5799Y1262*
X5811Y1269*
X5820Y1278*
X5827Y1290*
X5830Y1303*
Y1316*
X5827Y1329*
X5820Y1341*
X5811Y1350*
X5799Y1357*
X5797Y1357*
Y1362*
X5799Y1362*
X5811Y1369*
X5820Y1378*
X5827Y1390*
X5830Y1403*
Y1416*
X5827Y1429*
X5820Y1441*
X5811Y1450*
X5799Y1457*
X5797Y1457*
Y1462*
X5799Y1462*
X5811Y1469*
X5820Y1478*
X5827Y1490*
X5830Y1503*
Y1516*
X5827Y1529*
X5820Y1541*
X5811Y1550*
X5799Y1557*
X5797Y1557*
Y1562*
X5799Y1562*
X5811Y1569*
X5820Y1578*
X5827Y1590*
X5830Y1603*
Y1616*
X5827Y1629*
X5820Y1641*
X5811Y1650*
X5799Y1657*
X5797Y1657*
Y1662*
X5799Y1662*
X5811Y1669*
X5820Y1678*
X5827Y1690*
X5830Y1703*
Y1716*
X5827Y1729*
X5820Y1741*
X5811Y1750*
X5799Y1757*
X5797Y1757*
Y1762*
X5799Y1762*
X5811Y1769*
X5820Y1778*
X5827Y1790*
X5830Y1803*
Y1816*
X5827Y1829*
X5820Y1841*
X5811Y1850*
X5799Y1857*
X5797Y1857*
Y1862*
X5799Y1862*
X5811Y1869*
X5820Y1878*
X5827Y1890*
X5830Y1903*
Y1916*
X5827Y1929*
X5820Y1941*
X5811Y1950*
X5799Y1957*
X5797Y1957*
Y1962*
X5799Y1962*
X5811Y1969*
X5820Y1978*
X5827Y1990*
X5830Y2003*
Y2016*
X5827Y2029*
X5820Y2041*
X5811Y2050*
X5799Y2057*
X5797Y2057*
Y2062*
X5799Y2062*
X5811Y2069*
X5820Y2078*
X5827Y2090*
X5830Y2103*
Y2116*
X5827Y2129*
X5820Y2141*
X5811Y2150*
X5799Y2157*
X5797Y2157*
Y2162*
X5799Y2162*
X5811Y2169*
X5820Y2178*
X5827Y2190*
X5830Y2203*
Y2216*
X5827Y2229*
X5820Y2241*
X5811Y2250*
X5799Y2257*
X5797Y2257*
Y2262*
X5799Y2262*
X5811Y2269*
X5820Y2278*
X5827Y2290*
X5830Y2303*
Y2316*
X5827Y2329*
X5820Y2341*
X5811Y2350*
X5799Y2357*
X5797Y2357*
Y2362*
X5799Y2362*
X5811Y2369*
X5820Y2378*
X5827Y2390*
X5830Y2403*
Y2416*
X5827Y2429*
X5820Y2441*
X5811Y2450*
X5799Y2457*
X5797Y2457*
Y2462*
X5799Y2462*
X5811Y2469*
X5820Y2478*
X5827Y2490*
X5830Y2503*
Y2516*
X5827Y2529*
X5820Y2541*
X5811Y2550*
X5799Y2557*
X5797Y2557*
Y2562*
X5799Y2562*
X5811Y2569*
X5820Y2578*
X5827Y2590*
X5830Y2603*
Y2616*
X5827Y2629*
X5820Y2641*
X5811Y2650*
X5799Y2657*
X5797Y2657*
Y2662*
X5799Y2662*
X5811Y2669*
X5820Y2678*
X5827Y2690*
X5830Y2703*
Y2716*
X5827Y2729*
X5820Y2741*
X5811Y2750*
X5799Y2757*
X5797Y2757*
Y2762*
X5799Y2762*
X5811Y2769*
X5820Y2778*
X5827Y2790*
X5830Y2803*
Y2816*
X5827Y2829*
X5820Y2841*
X5811Y2850*
X5799Y2857*
X5797Y2857*
Y2862*
X5799Y2862*
X5811Y2869*
X5820Y2878*
X5827Y2890*
X5830Y2903*
Y2916*
X5827Y2929*
X5820Y2941*
X5811Y2950*
X5799Y2957*
X5797Y2957*
Y2962*
X5799Y2962*
X5811Y2969*
X5820Y2978*
X5827Y2990*
X5830Y3003*
Y3016*
X5827Y3029*
X5820Y3041*
X5811Y3050*
X5799Y3057*
X5797Y3057*
Y3062*
X5799Y3062*
X5811Y3069*
X5820Y3078*
X5827Y3090*
X5830Y3103*
Y3116*
X5827Y3129*
X5820Y3141*
X5811Y3150*
X5799Y3157*
X5786Y3160*
X5773*
X5760Y3157*
X5748Y3150*
X5739Y3141*
X5735Y3133*
X5730Y3135*
Y3160*
X5629*
X5628Y3165*
Y3216*
X5636*
X5645Y3214*
X5654*
X5664Y3216*
X5673Y3221*
X5680Y3228*
X5685Y3237*
X5687Y3247*
Y3256*
X5685Y3266*
X5680Y3275*
X5673Y3282*
X5664Y3287*
X5654Y3289*
X5645*
X5636Y3287*
X5410*
X5328Y3369*
X5365Y3405*
X5373Y3409*
X5380Y3416*
X5385Y3425*
X5387Y3435*
Y3444*
X5385Y3454*
X5380Y3463*
X5373Y3470*
X5364Y3475*
X5354Y3477*
G37*
G36*
X3970Y3355D02*
X3970D01*
Y3320*
X4005*
Y3320*
X4002Y3330*
X3997Y3339*
X3989Y3347*
X3980Y3352*
X3970Y3355*
G37*
G36*
X3960D02*
X3959D01*
X3949Y3352*
X3940Y3347*
X3932Y3339*
X3927Y3330*
X3925Y3320*
Y3320*
X3960*
Y3355*
G37*
G36*
X4535Y3350D02*
X4500D01*
Y3315*
X4500*
X4510Y3317*
X4519Y3322*
X4527Y3330*
X4532Y3339*
X4535Y3349*
Y3350*
G37*
G36*
X4490D02*
X4455D01*
Y3349*
X4457Y3339*
X4462Y3330*
X4470Y3322*
X4479Y3317*
X4489Y3315*
X4490*
Y3350*
G37*
G36*
X3225D02*
X3225D01*
Y3315*
X3260*
Y3315*
X3257Y3325*
X3252Y3334*
X3244Y3342*
X3235Y3347*
X3225Y3350*
G37*
G36*
X3215D02*
X3214D01*
X3204Y3347*
X3195Y3342*
X3187Y3334*
X3182Y3325*
X3180Y3315*
Y3315*
X3215*
Y3350*
G37*
G36*
X4146Y3400D02*
X4133D01*
X4120Y3396*
X4109Y3390*
X4099Y3380*
X4093Y3369*
X4090Y3356*
Y3343*
X4093Y3330*
X4099Y3319*
X4109Y3309*
X4120Y3303*
X4133Y3300*
X4146*
X4159Y3303*
X4170Y3309*
X4180Y3319*
X4186Y3330*
X4190Y3343*
Y3356*
X4186Y3369*
X4180Y3380*
X4170Y3390*
X4159Y3396*
X4146Y3400*
G37*
G36*
X4420Y3320D02*
X4420D01*
Y3285*
X4455*
Y3285*
X4452Y3295*
X4447Y3304*
X4439Y3312*
X4430Y3317*
X4420Y3320*
G37*
G36*
X4410D02*
X4409D01*
X4399Y3317*
X4390Y3312*
X4382Y3304*
X4377Y3295*
X4375Y3285*
Y3285*
X4410*
Y3320*
G37*
G36*
X2485D02*
X2450D01*
Y3285*
X2450*
X2460Y3287*
X2469Y3292*
X2477Y3300*
X2482Y3309*
X2485Y3319*
Y3320*
G37*
G36*
X2440D02*
X2405D01*
Y3319*
X2407Y3309*
X2412Y3300*
X2420Y3292*
X2429Y3287*
X2439Y3285*
X2440*
Y3320*
G37*
G36*
X4005Y3310D02*
X3970D01*
Y3275*
X3970*
X3980Y3277*
X3989Y3282*
X3997Y3290*
X4002Y3299*
X4005Y3309*
Y3310*
G37*
G36*
X3960D02*
X3925D01*
Y3309*
X3927Y3299*
X3932Y3290*
X3940Y3282*
X3949Y3277*
X3959Y3275*
X3960*
Y3310*
G37*
G36*
X3260Y3305D02*
X3225D01*
Y3270*
X3225*
X3235Y3272*
X3244Y3277*
X3252Y3285*
X3257Y3294*
X3260Y3304*
Y3305*
G37*
G36*
X3215D02*
X3180D01*
Y3304*
X3182Y3294*
X3187Y3285*
X3195Y3277*
X3204Y3272*
X3214Y3270*
X3215*
Y3305*
G37*
G36*
X1256Y3370D02*
X1243D01*
X1230Y3366*
X1219Y3360*
X1209Y3350*
X1203Y3339*
X1200Y3326*
Y3313*
X1203Y3300*
X1209Y3289*
X1219Y3279*
X1230Y3273*
X1243Y3270*
X1256*
X1269Y3273*
X1280Y3279*
X1290Y3289*
X1296Y3300*
X1300Y3313*
Y3326*
X1296Y3339*
X1290Y3350*
X1280Y3360*
X1269Y3366*
X1256Y3370*
G37*
G36*
X1736Y3360D02*
X1723D01*
X1710Y3356*
X1699Y3350*
X1689Y3340*
X1683Y3329*
X1680Y3316*
Y3303*
X1683Y3290*
X1689Y3279*
X1699Y3269*
X1710Y3263*
X1723Y3260*
X1736*
X1749Y3263*
X1760Y3269*
X1770Y3279*
X1776Y3290*
X1780Y3303*
Y3316*
X1776Y3329*
X1770Y3340*
X1760Y3350*
X1749Y3356*
X1736Y3360*
G37*
G36*
X4455Y3275D02*
X4420D01*
Y3240*
X4420*
X4430Y3242*
X4439Y3247*
X4447Y3255*
X4452Y3264*
X4455Y3274*
Y3275*
G37*
G36*
X4410D02*
X4375D01*
Y3274*
X4377Y3264*
X4382Y3255*
X4390Y3247*
X4399Y3242*
X4409Y3240*
X4410*
Y3275*
G37*
G36*
X506Y3330D02*
X493D01*
X480Y3326*
X469Y3320*
X459Y3310*
X453Y3299*
X450Y3286*
Y3273*
X453Y3260*
X459Y3249*
X469Y3239*
X480Y3233*
X493Y3230*
X506*
X519Y3233*
X530Y3239*
X540Y3249*
X546Y3260*
X550Y3273*
Y3286*
X546Y3299*
X540Y3310*
X530Y3320*
X519Y3326*
X506Y3330*
G37*
G36*
X4345Y3240D02*
X4345D01*
Y3205*
X4380*
Y3205*
X4377Y3215*
X4372Y3224*
X4364Y3232*
X4355Y3237*
X4345Y3240*
G37*
G36*
X4335D02*
X4334D01*
X4324Y3237*
X4315Y3232*
X4307Y3224*
X4302Y3215*
X4300Y3205*
Y3205*
X4335*
Y3240*
G37*
G36*
X4881Y3260D02*
X4874D01*
X4866Y3258*
X4860Y3255*
X4854Y3249*
X4851Y3243*
X4849Y3235*
Y3228*
X4851Y3220*
X4854Y3214*
X4860Y3208*
X4866Y3205*
X4874Y3203*
X4881*
X4889Y3205*
X4895Y3208*
X4901Y3214*
X4904Y3220*
X4906Y3228*
Y3235*
X4904Y3243*
X4901Y3249*
X4895Y3255*
X4889Y3258*
X4881Y3260*
G37*
G36*
X4610Y3235D02*
X4610D01*
Y3200*
X4645*
Y3200*
X4642Y3210*
X4637Y3219*
X4629Y3227*
X4620Y3232*
X4610Y3235*
G37*
G36*
X4600D02*
X4599D01*
X4589Y3232*
X4580Y3227*
X4572Y3219*
X4567Y3210*
X4565Y3200*
Y3200*
X4600*
Y3235*
G37*
G36*
X3406Y3270D02*
X3393D01*
X3380Y3266*
X3369Y3260*
X3359Y3250*
X3353Y3239*
X3350Y3226*
Y3213*
X3353Y3200*
X3359Y3189*
X3369Y3179*
X3380Y3173*
X3393Y3170*
X3406*
X3419Y3173*
X3430Y3179*
X3440Y3189*
X3446Y3200*
X3450Y3213*
Y3226*
X3446Y3239*
X3440Y3250*
X3430Y3260*
X3419Y3266*
X3406Y3270*
G37*
G36*
X1896D02*
X1883D01*
X1870Y3266*
X1859Y3260*
X1849Y3250*
X1843Y3239*
X1840Y3226*
Y3213*
X1843Y3200*
X1849Y3189*
X1859Y3179*
X1870Y3173*
X1883Y3170*
X1896*
X1909Y3173*
X1920Y3179*
X1930Y3189*
X1936Y3200*
X1940Y3213*
Y3226*
X1936Y3239*
X1930Y3250*
X1920Y3260*
X1909Y3266*
X1896Y3270*
G37*
G36*
X4380Y3195D02*
X4345D01*
Y3160*
X4345*
X4355Y3162*
X4364Y3167*
X4372Y3175*
X4377Y3184*
X4380Y3194*
Y3195*
G37*
G36*
X4335D02*
X4300D01*
Y3194*
X4302Y3184*
X4307Y3175*
X4315Y3167*
X4324Y3162*
X4334Y3160*
X4335*
Y3195*
G37*
G36*
X2651Y3260D02*
X2638D01*
X2625Y3256*
X2614Y3250*
X2604Y3240*
X2598Y3229*
X2595Y3216*
Y3203*
X2598Y3190*
X2604Y3179*
X2614Y3169*
X2625Y3163*
X2638Y3160*
X2651*
X2664Y3163*
X2675Y3169*
X2685Y3179*
X2691Y3190*
X2695Y3203*
Y3216*
X2691Y3229*
X2685Y3240*
X2675Y3250*
X2664Y3256*
X2651Y3260*
G37*
G36*
X4645Y3190D02*
X4610D01*
Y3155*
X4610*
X4620Y3157*
X4629Y3162*
X4637Y3170*
X4642Y3179*
X4645Y3189*
Y3190*
G37*
G36*
X4600D02*
X4565D01*
Y3189*
X4567Y3179*
X4572Y3170*
X4580Y3162*
X4589Y3157*
X4599Y3155*
X4600*
Y3190*
G37*
G36*
X786Y3250D02*
X773D01*
X760Y3246*
X749Y3240*
X739Y3230*
X733Y3219*
X730Y3206*
Y3193*
X733Y3180*
X739Y3169*
X749Y3159*
X760Y3153*
X773Y3150*
X786*
X799Y3153*
X810Y3159*
X820Y3169*
X826Y3180*
X830Y3193*
Y3206*
X826Y3219*
X820Y3230*
X810Y3240*
X799Y3246*
X786Y3250*
G37*
G36*
X4275Y3165D02*
X4275D01*
Y3130*
X4310*
Y3130*
X4307Y3140*
X4302Y3149*
X4294Y3157*
X4285Y3162*
X4275Y3165*
G37*
G36*
X4265D02*
X4264D01*
X4254Y3162*
X4245Y3157*
X4237Y3149*
X4232Y3140*
X4230Y3130*
Y3130*
X4265*
Y3165*
G37*
G36*
X6046Y3220D02*
X6033D01*
X6020Y3216*
X6009Y3210*
X5999Y3200*
X5993Y3189*
X5990Y3176*
Y3163*
X5993Y3150*
X5999Y3139*
X6009Y3129*
X6020Y3123*
X6033Y3120*
X6046*
X6059Y3123*
X6070Y3129*
X6080Y3139*
X6086Y3150*
X6090Y3163*
Y3176*
X6086Y3189*
X6080Y3200*
X6070Y3210*
X6059Y3216*
X6046Y3220*
G37*
G36*
X4525Y3155D02*
X4525D01*
Y3120*
X4560*
Y3120*
X4557Y3130*
X4552Y3139*
X4544Y3147*
X4535Y3152*
X4525Y3155*
G37*
G36*
X4515D02*
X4514D01*
X4504Y3152*
X4495Y3147*
X4487Y3139*
X4482Y3130*
X4480Y3120*
Y3120*
X4515*
Y3155*
G37*
G36*
X1041Y3220D02*
X1028D01*
X1015Y3216*
X1004Y3210*
X994Y3200*
X988Y3189*
X985Y3176*
Y3163*
X988Y3150*
X994Y3139*
X1004Y3129*
X1015Y3123*
X1028Y3120*
X1041*
X1054Y3123*
X1065Y3129*
X1075Y3139*
X1081Y3150*
X1085Y3163*
Y3176*
X1081Y3189*
X1075Y3200*
X1065Y3210*
X1054Y3216*
X1041Y3220*
G37*
G36*
X4840Y3170D02*
X4833D01*
X4825Y3168*
X4819Y3165*
X4813Y3159*
X4809Y3153*
X4808Y3145*
Y3138*
X4809Y3130*
X4813Y3124*
X4819Y3118*
X4825Y3115*
X4833Y3113*
X4840*
X4848Y3115*
X4854Y3118*
X4859Y3124*
X4863Y3130*
X4865Y3138*
Y3145*
X4863Y3153*
X4859Y3159*
X4854Y3165*
X4848Y3168*
X4840Y3170*
G37*
G36*
X4310Y3120D02*
X4275D01*
Y3085*
X4275*
X4285Y3087*
X4294Y3092*
X4302Y3100*
X4307Y3109*
X4310Y3119*
Y3120*
G37*
G36*
X4265D02*
X4230D01*
Y3119*
X4232Y3109*
X4237Y3100*
X4245Y3092*
X4254Y3087*
X4264Y3085*
X4265*
Y3120*
G37*
G36*
X4560Y3110D02*
X4525D01*
Y3075*
X4525*
X4535Y3077*
X4544Y3082*
X4552Y3090*
X4557Y3099*
X4560Y3109*
Y3110*
G37*
G36*
X4515D02*
X4480D01*
Y3109*
X4482Y3099*
X4487Y3090*
X4495Y3082*
X4504Y3077*
X4514Y3075*
X4515*
Y3110*
G37*
G36*
X506Y3165D02*
X493D01*
X480Y3161*
X469Y3155*
X459Y3145*
X453Y3134*
X450Y3121*
Y3108*
X453Y3095*
X459Y3084*
X469Y3074*
X480Y3068*
X493Y3065*
X506*
X519Y3068*
X530Y3074*
X540Y3084*
X546Y3095*
X550Y3108*
Y3121*
X546Y3134*
X540Y3145*
X530Y3155*
X519Y3161*
X506Y3165*
G37*
G36*
X4200Y3095D02*
X4200D01*
Y3060*
X4235*
Y3060*
X4232Y3070*
X4227Y3079*
X4219Y3087*
X4210Y3092*
X4200Y3095*
G37*
G36*
X4190D02*
X4189D01*
X4179Y3092*
X4170Y3087*
X4162Y3079*
X4157Y3070*
X4155Y3060*
Y3060*
X4190*
Y3095*
G37*
G36*
X4445Y3080D02*
X4445D01*
Y3045*
X4480*
Y3045*
X4477Y3055*
X4472Y3064*
X4464Y3072*
X4455Y3077*
X4445Y3080*
G37*
G36*
X4435D02*
X4434D01*
X4424Y3077*
X4415Y3072*
X4407Y3064*
X4402Y3055*
X4400Y3045*
Y3045*
X4435*
Y3080*
G37*
G36*
X4235Y3050D02*
X4200D01*
Y3015*
X4200*
X4210Y3017*
X4219Y3022*
X4227Y3030*
X4232Y3039*
X4235Y3049*
Y3050*
G37*
G36*
X4190D02*
X4155D01*
Y3049*
X4157Y3039*
X4162Y3030*
X4170Y3022*
X4179Y3017*
X4189Y3015*
X4190*
Y3050*
G37*
G36*
X3851Y3115D02*
X3838D01*
X3825Y3111*
X3814Y3105*
X3804Y3095*
X3798Y3084*
X3795Y3071*
Y3058*
X3798Y3045*
X3804Y3034*
X3814Y3024*
X3825Y3018*
X3838Y3015*
X3851*
X3864Y3018*
X3875Y3024*
X3885Y3034*
X3891Y3045*
X3895Y3058*
Y3071*
X3891Y3084*
X3885Y3095*
X3875Y3105*
X3864Y3111*
X3851Y3115*
G37*
G36*
X5001Y3110D02*
X4988D01*
X4975Y3106*
X4964Y3100*
X4954Y3090*
X4948Y3079*
X4945Y3066*
Y3053*
X4948Y3040*
X4954Y3029*
X4964Y3019*
X4975Y3013*
X4988Y3010*
X5001*
X5014Y3013*
X5025Y3019*
X5035Y3029*
X5041Y3040*
X5045Y3053*
Y3066*
X5041Y3079*
X5035Y3090*
X5025Y3100*
X5014Y3106*
X5001Y3110*
G37*
G36*
X3406D02*
X3393D01*
X3380Y3106*
X3369Y3100*
X3359Y3090*
X3353Y3079*
X3350Y3066*
Y3053*
X3353Y3040*
X3359Y3029*
X3369Y3019*
X3380Y3013*
X3393Y3010*
X3406*
X3419Y3013*
X3430Y3019*
X3440Y3029*
X3446Y3040*
X3450Y3053*
Y3066*
X3446Y3079*
X3440Y3090*
X3430Y3100*
X3419Y3106*
X3406Y3110*
G37*
G36*
X2351D02*
X2338D01*
X2325Y3106*
X2314Y3100*
X2304Y3090*
X2298Y3079*
X2295Y3066*
Y3053*
X2298Y3040*
X2304Y3029*
X2314Y3019*
X2325Y3013*
X2338Y3010*
X2351*
X2364Y3013*
X2375Y3019*
X2385Y3029*
X2391Y3040*
X2395Y3053*
Y3066*
X2391Y3079*
X2385Y3090*
X2375Y3100*
X2364Y3106*
X2351Y3110*
G37*
G36*
X1896D02*
X1883D01*
X1870Y3106*
X1859Y3100*
X1849Y3090*
X1843Y3079*
X1840Y3066*
Y3053*
X1843Y3040*
X1849Y3029*
X1859Y3019*
X1870Y3013*
X1883Y3010*
X1896*
X1909Y3013*
X1920Y3019*
X1930Y3029*
X1936Y3040*
X1940Y3053*
Y3066*
X1936Y3079*
X1930Y3090*
X1920Y3100*
X1909Y3106*
X1896Y3110*
G37*
G36*
X4480Y3035D02*
X4445D01*
Y3000*
X4445*
X4455Y3002*
X4464Y3007*
X4472Y3015*
X4477Y3024*
X4480Y3034*
Y3035*
G37*
G36*
X4435D02*
X4400D01*
Y3034*
X4402Y3024*
X4407Y3015*
X4415Y3007*
X4424Y3002*
X4434Y3000*
X4435*
Y3035*
G37*
G36*
X2651Y3100D02*
X2638D01*
X2625Y3096*
X2614Y3090*
X2604Y3080*
X2598Y3069*
X2595Y3056*
Y3043*
X2598Y3030*
X2604Y3019*
X2614Y3009*
X2625Y3003*
X2638Y3000*
X2651*
X2664Y3003*
X2675Y3009*
X2685Y3019*
X2691Y3030*
X2695Y3043*
Y3056*
X2691Y3069*
X2685Y3080*
X2675Y3090*
X2664Y3096*
X2651Y3100*
G37*
G36*
X3111Y3095D02*
X3098D01*
X3085Y3091*
X3074Y3085*
X3064Y3075*
X3058Y3064*
X3055Y3051*
Y3038*
X3058Y3025*
X3064Y3014*
X3074Y3004*
X3085Y2998*
X3098Y2995*
X3111*
X3124Y2998*
X3135Y3004*
X3145Y3014*
X3151Y3025*
X3155Y3038*
Y3051*
X3151Y3064*
X3145Y3075*
X3135Y3085*
X3124Y3091*
X3111Y3095*
G37*
G36*
X2038Y3023D02*
X2038D01*
Y2988*
X2073*
Y2988*
X2070Y2998*
X2065Y3007*
X2057Y3015*
X2048Y3020*
X2038Y3023*
G37*
G36*
X2028D02*
X2027D01*
X2017Y3020*
X2008Y3015*
X2001Y3007*
X1995Y2998*
X1993Y2988*
Y2988*
X2028*
Y3023*
G37*
G36*
X5938Y3008D02*
Y2986D01*
X5960*
X5959Y2992*
X5955Y2998*
X5950Y3003*
X5944Y3007*
X5938Y3008*
G37*
G36*
X5928D02*
X5922Y3007D01*
X5916Y3003*
X5911Y2998*
X5907Y2992*
X5906Y2986*
X5928*
Y3008*
G37*
G36*
X4120Y3020D02*
X4120D01*
Y2985*
X4155*
Y2985*
X4152Y2995*
X4147Y3004*
X4139Y3012*
X4130Y3017*
X4120Y3020*
G37*
G36*
X4110D02*
X4109D01*
X4099Y3017*
X4090Y3012*
X4082Y3004*
X4077Y2995*
X4075Y2985*
Y2985*
X4110*
Y3020*
G37*
G36*
X3546Y3014D02*
X3545D01*
Y2979*
X3580*
Y2979*
X3578Y2989*
X3572Y2998*
X3565Y3006*
X3556Y3011*
X3546Y3014*
G37*
G36*
X3535D02*
X3535D01*
X3525Y3011*
X3516Y3006*
X3508Y2998*
X3503Y2989*
X3500Y2979*
Y2979*
X3535*
Y3014*
G37*
G36*
X4375Y3010D02*
X4375D01*
Y2975*
X4410*
Y2975*
X4407Y2985*
X4402Y2994*
X4394Y3002*
X4385Y3007*
X4375Y3010*
G37*
G36*
X4365D02*
X4364D01*
X4354Y3007*
X4345Y3002*
X4337Y2994*
X4332Y2985*
X4330Y2975*
Y2975*
X4365*
Y3010*
G37*
G36*
X2790D02*
X2790D01*
Y2975*
X2825*
Y2975*
X2822Y2985*
X2817Y2994*
X2809Y3002*
X2800Y3007*
X2790Y3010*
G37*
G36*
X2780D02*
X2779D01*
X2769Y3007*
X2760Y3002*
X2752Y2994*
X2747Y2985*
X2745Y2975*
Y2975*
X2780*
Y3010*
G37*
G36*
X1766Y3075D02*
X1753D01*
X1740Y3071*
X1729Y3065*
X1719Y3055*
X1713Y3044*
X1710Y3031*
Y3018*
X1713Y3005*
X1719Y2994*
X1729Y2984*
X1740Y2978*
X1753Y2975*
X1766*
X1779Y2978*
X1790Y2984*
X1800Y2994*
X1806Y3005*
X1810Y3018*
Y3031*
X1806Y3044*
X1800Y3055*
X1790Y3065*
X1779Y3071*
X1766Y3075*
G37*
G36*
X5510Y3030D02*
X5501D01*
X5491Y3028*
X5482Y3023*
X5475Y3016*
X5470Y3007*
X5468Y2997*
Y2988*
X5470Y2978*
X5475Y2969*
X5482Y2962*
X5491Y2957*
X5501Y2955*
X5510*
X5520Y2957*
X5529Y2962*
X5536Y2969*
X5541Y2978*
X5543Y2988*
Y2997*
X5541Y3007*
X5536Y3016*
X5529Y3023*
X5520Y3028*
X5510Y3030*
G37*
G36*
X5960Y2976D02*
X5938D01*
Y2954*
X5944Y2955*
X5950Y2959*
X5955Y2964*
X5959Y2970*
X5960Y2976*
G37*
G36*
X5928D02*
X5906D01*
X5907Y2970*
X5911Y2964*
X5916Y2959*
X5922Y2955*
X5928Y2954*
Y2976*
G37*
G36*
X2511Y3050D02*
X2498D01*
X2485Y3046*
X2474Y3040*
X2464Y3030*
X2458Y3019*
X2455Y3006*
Y2993*
X2458Y2980*
X2464Y2969*
X2474Y2959*
X2485Y2953*
X2498Y2950*
X2511*
X2524Y2953*
X2535Y2959*
X2545Y2969*
X2551Y2980*
X2555Y2993*
Y3006*
X2551Y3019*
X2545Y3030*
X2535Y3040*
X2524Y3046*
X2511Y3050*
G37*
G36*
X2073Y2978D02*
X2038D01*
Y2943*
X2038*
X2048Y2945*
X2057Y2951*
X2065Y2958*
X2070Y2967*
X2073Y2977*
Y2978*
G37*
G36*
X2028D02*
X1993D01*
Y2977*
X1995Y2967*
X2001Y2958*
X2008Y2951*
X2017Y2945*
X2027Y2943*
X2028*
Y2978*
G37*
G36*
X4155Y2975D02*
X4120D01*
Y2940*
X4120*
X4130Y2942*
X4139Y2947*
X4147Y2955*
X4152Y2964*
X4155Y2974*
Y2975*
G37*
G36*
X4110D02*
X4075D01*
Y2974*
X4077Y2964*
X4082Y2955*
X4090Y2947*
X4099Y2942*
X4109Y2940*
X4110*
Y2975*
G37*
G36*
X4621Y3035D02*
X4608D01*
X4595Y3031*
X4584Y3025*
X4574Y3015*
X4568Y3004*
X4565Y2991*
Y2978*
X4568Y2965*
X4574Y2954*
X4584Y2944*
X4595Y2938*
X4608Y2935*
X4621*
X4634Y2938*
X4645Y2944*
X4655Y2954*
X4661Y2965*
X4665Y2978*
Y2991*
X4661Y3004*
X4655Y3015*
X4645Y3025*
X4634Y3031*
X4621Y3035*
G37*
G36*
X3580Y2969D02*
X3545D01*
Y2934*
X3546*
X3556Y2936*
X3565Y2942*
X3572Y2949*
X3578Y2958*
X3580Y2968*
Y2969*
G37*
G36*
X3535D02*
X3500D01*
Y2968*
X3503Y2958*
X3508Y2949*
X3516Y2942*
X3525Y2936*
X3535Y2934*
X3535*
Y2969*
G37*
G36*
X4410Y2965D02*
X4375D01*
Y2930*
X4375*
X4385Y2932*
X4394Y2937*
X4402Y2945*
X4407Y2954*
X4410Y2964*
Y2965*
G37*
G36*
X4365D02*
X4330D01*
Y2964*
X4332Y2954*
X4337Y2945*
X4345Y2937*
X4354Y2932*
X4364Y2930*
X4365*
Y2965*
G37*
G36*
X2825D02*
X2790D01*
Y2930*
X2790*
X2800Y2932*
X2809Y2937*
X2817Y2945*
X2822Y2954*
X2825Y2964*
Y2965*
G37*
G36*
X2780D02*
X2745D01*
Y2964*
X2747Y2954*
X2752Y2945*
X2760Y2937*
X2769Y2932*
X2779Y2930*
X2780*
Y2965*
G37*
G36*
X3251Y3025D02*
X3238D01*
X3225Y3021*
X3214Y3015*
X3204Y3005*
X3198Y2994*
X3195Y2981*
Y2968*
X3198Y2955*
X3204Y2944*
X3214Y2934*
X3225Y2928*
X3238Y2925*
X3251*
X3264Y2928*
X3275Y2934*
X3285Y2944*
X3291Y2955*
X3295Y2968*
Y2981*
X3291Y2994*
X3285Y3005*
X3275Y3015*
X3264Y3021*
X3251Y3025*
G37*
G36*
X5331Y2995D02*
X5318D01*
X5305Y2991*
X5294Y2985*
X5284Y2975*
X5278Y2964*
X5275Y2951*
Y2938*
X5278Y2925*
X5284Y2914*
X5294Y2904*
X5305Y2898*
X5318Y2895*
X5331*
X5344Y2898*
X5355Y2904*
X5365Y2914*
X5371Y2925*
X5375Y2938*
Y2951*
X5371Y2964*
X5365Y2975*
X5355Y2985*
X5344Y2991*
X5331Y2995*
G37*
G36*
X4300Y2930D02*
X4300D01*
Y2895*
X4335*
Y2895*
X4332Y2905*
X4327Y2914*
X4319Y2922*
X4310Y2927*
X4300Y2930*
G37*
G36*
X4290D02*
X4289D01*
X4279Y2927*
X4270Y2922*
X4262Y2914*
X4257Y2905*
X4255Y2895*
Y2895*
X4290*
Y2930*
G37*
G36*
X4020Y2920D02*
X4020D01*
Y2885*
X4055*
Y2885*
X4052Y2895*
X4047Y2904*
X4039Y2912*
X4030Y2917*
X4020Y2920*
G37*
G36*
X4010D02*
X4009D01*
X3999Y2917*
X3990Y2912*
X3982Y2904*
X3977Y2895*
X3975Y2885*
Y2885*
X4010*
Y2920*
G37*
G36*
X6031Y2965D02*
X6018D01*
X6005Y2961*
X5994Y2955*
X5984Y2945*
X5978Y2934*
X5975Y2921*
Y2908*
X5978Y2895*
X5984Y2884*
X5994Y2874*
X6005Y2868*
X6018Y2865*
X6031*
X6044Y2868*
X6055Y2874*
X6065Y2884*
X6071Y2895*
X6075Y2908*
Y2921*
X6071Y2934*
X6065Y2945*
X6055Y2955*
X6044Y2961*
X6031Y2965*
G37*
G36*
X526Y2989D02*
X513D01*
X501Y2986*
X489Y2981*
X479Y2974*
X470Y2965*
X463Y2955*
X458Y2943*
X455Y2931*
Y2918*
X458Y2905*
X463Y2894*
X470Y2883*
X479Y2874*
X489Y2867*
X501Y2862*
X513Y2860*
X526*
X538Y2862*
X550Y2867*
X560Y2874*
X569Y2883*
X576Y2894*
X581Y2905*
X584Y2918*
Y2931*
X581Y2943*
X576Y2955*
X569Y2965*
X560Y2974*
X550Y2981*
X538Y2986*
X526Y2989*
G37*
G36*
X4335Y2885D02*
X4300D01*
Y2850*
X4300*
X4310Y2852*
X4319Y2857*
X4327Y2865*
X4332Y2874*
X4335Y2884*
Y2885*
G37*
G36*
X4290D02*
X4255D01*
Y2884*
X4257Y2874*
X4262Y2865*
X4270Y2857*
X4279Y2852*
X4289Y2850*
X4290*
Y2885*
G37*
G36*
X4055Y2875D02*
X4020D01*
Y2840*
X4020*
X4030Y2842*
X4039Y2847*
X4047Y2855*
X4052Y2864*
X4055Y2874*
Y2875*
G37*
G36*
X4010D02*
X3975D01*
Y2874*
X3977Y2864*
X3982Y2855*
X3990Y2847*
X3999Y2842*
X4009Y2840*
X4010*
Y2875*
G37*
G36*
X2461Y2925D02*
X2448D01*
X2435Y2921*
X2424Y2915*
X2414Y2905*
X2408Y2894*
X2405Y2881*
Y2868*
X2408Y2855*
X2414Y2844*
X2424Y2834*
X2435Y2828*
X2448Y2825*
X2461*
X2474Y2828*
X2485Y2834*
X2495Y2844*
X2501Y2855*
X2505Y2868*
Y2881*
X2501Y2894*
X2495Y2905*
X2485Y2915*
X2474Y2921*
X2461Y2925*
G37*
G36*
X2676Y2920D02*
X2663D01*
X2650Y2916*
X2639Y2910*
X2629Y2900*
X2623Y2889*
X2620Y2876*
Y2863*
X2623Y2850*
X2629Y2839*
X2639Y2829*
X2650Y2823*
X2663Y2820*
X2676*
X2689Y2823*
X2700Y2829*
X2710Y2839*
X2716Y2850*
X2720Y2863*
Y2876*
X2716Y2889*
X2710Y2900*
X2700Y2910*
X2689Y2916*
X2676Y2920*
G37*
G36*
X3930Y2840D02*
X3930D01*
Y2805*
X3965*
Y2805*
X3962Y2815*
X3957Y2824*
X3949Y2832*
X3940Y2837*
X3930Y2840*
G37*
G36*
X3920D02*
X3919D01*
X3909Y2837*
X3900Y2832*
X3892Y2824*
X3887Y2815*
X3885Y2805*
Y2805*
X3920*
Y2840*
G37*
G36*
X4200Y2835D02*
X4200D01*
Y2800*
X4235*
Y2800*
X4232Y2810*
X4227Y2819*
X4219Y2827*
X4210Y2832*
X4200Y2835*
G37*
G36*
X4190D02*
X4189D01*
X4179Y2832*
X4170Y2827*
X4162Y2819*
X4157Y2810*
X4155Y2800*
Y2800*
X4190*
Y2835*
G37*
G36*
X3441Y2895D02*
X3428D01*
X3415Y2891*
X3404Y2885*
X3394Y2875*
X3388Y2864*
X3385Y2851*
Y2838*
X3388Y2825*
X3394Y2814*
X3404Y2804*
X3415Y2798*
X3428Y2795*
X3441*
X3454Y2798*
X3465Y2804*
X3475Y2814*
X3481Y2825*
X3485Y2838*
Y2851*
X3481Y2864*
X3475Y2875*
X3465Y2885*
X3454Y2891*
X3441Y2895*
G37*
G36*
X3216Y2890D02*
X3203D01*
X3190Y2886*
X3179Y2880*
X3169Y2870*
X3163Y2859*
X3160Y2846*
Y2833*
X3163Y2820*
X3169Y2809*
X3179Y2799*
X3190Y2793*
X3203Y2790*
X3216*
X3229Y2793*
X3240Y2799*
X3250Y2809*
X3256Y2820*
X3260Y2833*
Y2846*
X3256Y2859*
X3250Y2870*
X3240Y2880*
X3229Y2886*
X3216Y2890*
G37*
G36*
X1781D02*
X1768D01*
X1755Y2886*
X1744Y2880*
X1734Y2870*
X1728Y2859*
X1725Y2846*
Y2833*
X1728Y2820*
X1734Y2809*
X1744Y2799*
X1755Y2793*
X1768Y2790*
X1781*
X1794Y2793*
X1805Y2799*
X1815Y2809*
X1821Y2820*
X1825Y2833*
Y2846*
X1821Y2859*
X1815Y2870*
X1805Y2880*
X1794Y2886*
X1781Y2890*
G37*
G36*
X4476Y2875D02*
X4463D01*
X4450Y2871*
X4439Y2865*
X4429Y2855*
X4423Y2844*
X4420Y2831*
Y2818*
X4423Y2805*
X4429Y2794*
X4439Y2784*
X4450Y2778*
X4463Y2775*
X4476*
X4489Y2778*
X4500Y2784*
X4510Y2794*
X4516Y2805*
X4520Y2818*
Y2831*
X4516Y2844*
X4510Y2855*
X4500Y2865*
X4489Y2871*
X4476Y2875*
G37*
G36*
X1981D02*
X1968D01*
X1955Y2871*
X1944Y2865*
X1934Y2855*
X1928Y2844*
X1925Y2831*
Y2818*
X1928Y2805*
X1934Y2794*
X1944Y2784*
X1955Y2778*
X1968Y2775*
X1981*
X1994Y2778*
X2005Y2784*
X2015Y2794*
X2021Y2805*
X2025Y2818*
Y2831*
X2021Y2844*
X2015Y2855*
X2005Y2865*
X1994Y2871*
X1981Y2875*
G37*
G36*
X3787Y2834D02*
X3779D01*
X3770Y2831*
X3763Y2827*
X3757Y2821*
X3753Y2814*
X3751Y2806*
Y2798*
X3753Y2790*
X3757Y2782*
X3763Y2776*
X3770Y2772*
X3779Y2770*
X3787*
X3795Y2772*
X3802Y2776*
X3808Y2782*
X3812Y2790*
X3815Y2798*
Y2806*
X3812Y2814*
X3808Y2821*
X3802Y2827*
X3795Y2831*
X3787Y2834*
G37*
G36*
X3965Y2795D02*
X3930D01*
Y2760*
X3930*
X3940Y2762*
X3949Y2767*
X3957Y2775*
X3962Y2784*
X3965Y2794*
Y2795*
G37*
G36*
X3920D02*
X3885D01*
Y2794*
X3887Y2784*
X3892Y2775*
X3900Y2767*
X3909Y2762*
X3919Y2760*
X3920*
Y2795*
G37*
G36*
X2243Y2814D02*
X2235D01*
X2228Y2812*
X2221Y2808*
X2216Y2803*
X2212Y2796*
X2210Y2789*
Y2781*
X2212Y2774*
X2216Y2767*
X2221Y2762*
X2228Y2758*
X2235Y2756*
X2243*
X2250Y2758*
X2257Y2762*
X2262Y2767*
X2266Y2774*
X2268Y2781*
Y2789*
X2266Y2796*
X2262Y2803*
X2257Y2808*
X2250Y2812*
X2243Y2814*
G37*
G36*
X4235Y2790D02*
X4200D01*
Y2755*
X4200*
X4210Y2757*
X4219Y2762*
X4227Y2770*
X4232Y2779*
X4235Y2789*
Y2790*
G37*
G36*
X4190D02*
X4155D01*
Y2789*
X4157Y2779*
X4162Y2770*
X4170Y2762*
X4179Y2757*
X4189Y2755*
X4190*
Y2790*
G37*
G36*
X5293Y2798D02*
X5286D01*
X5278Y2796*
X5272Y2793*
X5266Y2787*
X5263Y2781*
X5261Y2773*
Y2766*
X5263Y2758*
X5266Y2752*
X5272Y2746*
X5278Y2743*
X5286Y2741*
X5293*
X5301Y2743*
X5307Y2746*
X5313Y2752*
X5316Y2758*
X5318Y2766*
Y2773*
X5316Y2781*
X5313Y2787*
X5307Y2793*
X5301Y2796*
X5293Y2798*
G37*
G36*
X2905Y2777D02*
X2897D01*
X2890Y2775*
X2883Y2771*
X2878Y2765*
X2874Y2759*
X2872Y2751*
Y2744*
X2874Y2737*
X2878Y2730*
X2883Y2725*
X2890Y2721*
X2897Y2719*
X2905*
X2912Y2721*
X2919Y2725*
X2924Y2730*
X2928Y2737*
X2930Y2744*
Y2751*
X2928Y2759*
X2924Y2765*
X2919Y2771*
X2912Y2775*
X2905Y2777*
G37*
G36*
X726Y2815D02*
X713D01*
X700Y2811*
X689Y2805*
X679Y2795*
X673Y2784*
X670Y2771*
Y2758*
X673Y2745*
X679Y2734*
X689Y2724*
X700Y2718*
X713Y2715*
X726*
X739Y2718*
X750Y2724*
X760Y2734*
X766Y2745*
X770Y2758*
Y2771*
X766Y2784*
X760Y2795*
X750Y2805*
X739Y2811*
X726Y2815*
G37*
G36*
X5435Y2771D02*
X5428D01*
X5420Y2769*
X5414Y2765*
X5408Y2760*
X5405Y2753*
X5403Y2746*
Y2738*
X5405Y2731*
X5408Y2724*
X5414Y2719*
X5420Y2715*
X5428Y2713*
X5435*
X5443Y2715*
X5449Y2719*
X5455Y2724*
X5458Y2731*
X5460Y2738*
Y2746*
X5458Y2753*
X5455Y2760*
X5449Y2765*
X5443Y2769*
X5435Y2771*
G37*
G36*
X1434Y2788D02*
X1424D01*
X1414Y2785*
X1406Y2780*
X1399Y2773*
X1394Y2765*
X1391Y2755*
Y2745*
X1394Y2735*
X1399Y2727*
X1406Y2720*
X1414Y2715*
X1424Y2712*
X1434*
X1444Y2715*
X1452Y2720*
X1459Y2727*
X1464Y2735*
X1467Y2745*
Y2755*
X1464Y2765*
X1459Y2773*
X1452Y2780*
X1444Y2785*
X1434Y2788*
G37*
G36*
X5153Y2768D02*
X5146D01*
X5138Y2766*
X5132Y2763*
X5126Y2757*
X5123Y2751*
X5121Y2743*
Y2736*
X5123Y2728*
X5126Y2722*
X5132Y2716*
X5138Y2713*
X5146Y2711*
X5153*
X5161Y2713*
X5167Y2716*
X5173Y2722*
X5176Y2728*
X5178Y2736*
Y2743*
X5176Y2751*
X5173Y2757*
X5167Y2763*
X5161Y2766*
X5153Y2768*
G37*
G36*
X4110Y2745D02*
X4110D01*
Y2710*
X4145*
Y2710*
X4142Y2720*
X4137Y2729*
X4129Y2737*
X4120Y2742*
X4110Y2745*
G37*
G36*
X4100D02*
X4099D01*
X4089Y2742*
X4080Y2737*
X4072Y2729*
X4067Y2720*
X4065Y2710*
Y2710*
X4100*
Y2745*
G37*
G36*
X3641Y2727D02*
X3640D01*
Y2692*
X3675*
Y2692*
X3673Y2703*
X3667Y2712*
X3660Y2719*
X3651Y2724*
X3641Y2727*
G37*
G36*
X3630D02*
X3630D01*
X3620Y2724*
X3611Y2719*
X3603Y2712*
X3598Y2703*
X3595Y2692*
Y2692*
X3630*
Y2727*
G37*
G36*
X2213Y2743D02*
X2206D01*
X2198Y2741*
X2192Y2738*
X2186Y2732*
X2183Y2726*
X2181Y2718*
Y2711*
X2183Y2703*
X2186Y2697*
X2192Y2691*
X2198Y2688*
X2206Y2686*
X2213*
X2221Y2688*
X2227Y2691*
X2233Y2697*
X2236Y2703*
X2238Y2711*
Y2718*
X2236Y2726*
X2233Y2732*
X2227Y2738*
X2221Y2741*
X2213Y2743*
G37*
G36*
X5435Y2707D02*
Y2685D01*
X5457*
X5455Y2690*
X5452Y2697*
X5447Y2702*
X5440Y2705*
X5435Y2707*
G37*
G36*
X5425D02*
X5419Y2705D01*
X5412Y2702*
X5407Y2697*
X5404Y2690*
X5402Y2685*
X5425*
Y2707*
G37*
G36*
X2790Y2715D02*
X2790D01*
Y2680*
X2825*
Y2680*
X2822Y2690*
X2817Y2699*
X2809Y2707*
X2800Y2712*
X2790Y2715*
G37*
G36*
X2780D02*
X2779D01*
X2769Y2712*
X2760Y2707*
X2752Y2699*
X2747Y2690*
X2745Y2680*
Y2680*
X2780*
Y2715*
G37*
G36*
X1614Y2741D02*
X1605D01*
X1597Y2739*
X1590Y2735*
X1584Y2729*
X1580Y2722*
X1578Y2714*
Y2705*
X1580Y2697*
X1584Y2690*
X1590Y2684*
X1597Y2680*
X1605Y2678*
X1614*
X1622Y2680*
X1629Y2684*
X1635Y2690*
X1639Y2697*
X1641Y2705*
Y2714*
X1639Y2722*
X1635Y2729*
X1629Y2735*
X1622Y2739*
X1614Y2741*
G37*
G36*
X2650Y2710D02*
X2650D01*
Y2675*
X2685*
Y2675*
X2682Y2685*
X2677Y2694*
X2669Y2702*
X2660Y2707*
X2650Y2710*
G37*
G36*
X2640D02*
X2639D01*
X2629Y2707*
X2620Y2702*
X2612Y2694*
X2607Y2685*
X2605Y2675*
Y2675*
X2640*
Y2710*
G37*
G36*
X2535D02*
X2535D01*
Y2675*
X2570*
Y2675*
X2567Y2685*
X2562Y2694*
X2554Y2702*
X2545Y2707*
X2535Y2710*
G37*
G36*
X2525D02*
X2524D01*
X2514Y2707*
X2505Y2702*
X2497Y2694*
X2492Y2685*
X2490Y2675*
Y2675*
X2525*
Y2710*
G37*
G36*
X2010D02*
X2010D01*
Y2675*
X2045*
Y2675*
X2042Y2685*
X2037Y2694*
X2029Y2702*
X2020Y2707*
X2010Y2710*
G37*
G36*
X2000D02*
X1999D01*
X1989Y2707*
X1980Y2702*
X1972Y2694*
X1967Y2685*
X1965Y2675*
Y2675*
X2000*
Y2710*
G37*
G36*
X4465Y2694D02*
Y2672D01*
X4487*
X4485Y2677*
X4482Y2684*
X4477Y2689*
X4470Y2692*
X4465Y2694*
G37*
G36*
X4455D02*
X4449Y2692D01*
X4442Y2689*
X4437Y2684*
X4434Y2677*
X4432Y2672*
X4455*
Y2694*
G37*
G36*
X1890Y2705D02*
X1890D01*
Y2670*
X1925*
Y2670*
X1922Y2680*
X1917Y2689*
X1909Y2697*
X1900Y2702*
X1890Y2705*
G37*
G36*
X1880D02*
X1879D01*
X1869Y2702*
X1860Y2697*
X1852Y2689*
X1847Y2680*
X1845Y2670*
Y2670*
X1880*
Y2705*
G37*
G36*
X2326Y2725D02*
X2319D01*
X2311Y2723*
X2305Y2719*
X2299Y2714*
X2295Y2707*
X2293Y2700*
Y2693*
X2295Y2685*
X2299Y2679*
X2305Y2673*
X2311Y2669*
X2319Y2667*
X2326*
X2333Y2669*
X2340Y2673*
X2345Y2679*
X2349Y2685*
X2351Y2693*
Y2700*
X2349Y2707*
X2345Y2714*
X2340Y2719*
X2333Y2723*
X2326Y2725*
G37*
G36*
X4145Y2700D02*
X4110D01*
Y2665*
X4110*
X4120Y2667*
X4129Y2672*
X4137Y2680*
X4142Y2689*
X4145Y2699*
Y2700*
G37*
G36*
X4100D02*
X4065D01*
Y2699*
X4067Y2689*
X4072Y2680*
X4080Y2672*
X4089Y2667*
X4099Y2665*
X4100*
Y2700*
G37*
G36*
X5457Y2675D02*
X5435D01*
Y2652*
X5440Y2654*
X5447Y2657*
X5452Y2662*
X5455Y2669*
X5457Y2675*
G37*
G36*
X5425D02*
X5402D01*
X5404Y2669*
X5407Y2662*
X5412Y2657*
X5419Y2654*
X5425Y2652*
Y2675*
G37*
G36*
X3153Y2706D02*
X3145D01*
X3138Y2704*
X3131Y2700*
X3126Y2694*
X3122Y2688*
X3120Y2680*
Y2673*
X3122Y2666*
X3126Y2659*
X3131Y2654*
X3138Y2650*
X3145Y2648*
X3153*
X3160Y2650*
X3167Y2654*
X3172Y2659*
X3176Y2666*
X3178Y2673*
Y2680*
X3176Y2688*
X3172Y2694*
X3167Y2700*
X3160Y2704*
X3153Y2706*
G37*
G36*
X3801Y2711D02*
X3792D01*
X3784Y2709*
X3777Y2705*
X3771Y2699*
X3767Y2692*
X3765Y2684*
Y2675*
X3767Y2667*
X3771Y2660*
X3777Y2654*
X3784Y2650*
X3792Y2648*
X3801*
X3809Y2650*
X3816Y2654*
X3822Y2660*
X3826Y2667*
X3828Y2675*
Y2684*
X3826Y2692*
X3822Y2699*
X3816Y2705*
X3809Y2709*
X3801Y2711*
G37*
G36*
X3675Y2682D02*
X3640D01*
Y2647*
X3641*
X3651Y2650*
X3660Y2655*
X3667Y2663*
X3673Y2672*
X3675Y2682*
Y2682*
G37*
G36*
X3630D02*
X3595D01*
Y2682*
X3598Y2672*
X3603Y2663*
X3611Y2655*
X3620Y2650*
X3630Y2647*
X3630*
Y2682*
G37*
G36*
X4773Y2698D02*
X4766D01*
X4758Y2696*
X4752Y2693*
X4746Y2687*
X4743Y2681*
X4741Y2673*
Y2666*
X4743Y2658*
X4746Y2652*
X4752Y2646*
X4758Y2643*
X4766Y2641*
X4773*
X4781Y2643*
X4787Y2646*
X4793Y2652*
X4796Y2658*
X4798Y2666*
Y2673*
X4796Y2681*
X4793Y2687*
X4787Y2693*
X4781Y2696*
X4773Y2698*
G37*
G36*
X4916Y2740D02*
X4903D01*
X4890Y2736*
X4879Y2730*
X4869Y2720*
X4863Y2709*
X4860Y2696*
Y2683*
X4863Y2670*
X4869Y2659*
X4879Y2649*
X4890Y2643*
X4903Y2640*
X4916*
X4929Y2643*
X4940Y2649*
X4950Y2659*
X4956Y2670*
X4960Y2683*
Y2696*
X4956Y2709*
X4950Y2720*
X4940Y2730*
X4929Y2736*
X4916Y2740*
G37*
G36*
X4487Y2662D02*
X4465D01*
Y2639*
X4470Y2641*
X4477Y2644*
X4482Y2649*
X4485Y2656*
X4487Y2662*
G37*
G36*
X4455D02*
X4432D01*
X4434Y2656*
X4437Y2649*
X4442Y2644*
X4449Y2641*
X4455Y2639*
Y2662*
G37*
G36*
X2825Y2670D02*
X2790D01*
Y2635*
X2790*
X2800Y2637*
X2809Y2642*
X2817Y2650*
X2822Y2659*
X2825Y2669*
Y2670*
G37*
G36*
X2780D02*
X2745D01*
Y2669*
X2747Y2659*
X2752Y2650*
X2760Y2642*
X2769Y2637*
X2779Y2635*
X2780*
Y2670*
G37*
G36*
X2685Y2665D02*
X2650D01*
Y2630*
X2650*
X2660Y2632*
X2669Y2637*
X2677Y2645*
X2682Y2654*
X2685Y2664*
Y2665*
G37*
G36*
X2640D02*
X2605D01*
Y2664*
X2607Y2654*
X2612Y2645*
X2620Y2637*
X2629Y2632*
X2639Y2630*
X2640*
Y2665*
G37*
G36*
X2570D02*
X2535D01*
Y2630*
X2535*
X2545Y2632*
X2554Y2637*
X2562Y2645*
X2567Y2654*
X2570Y2664*
Y2665*
G37*
G36*
X2525D02*
X2490D01*
Y2664*
X2492Y2654*
X2497Y2645*
X2505Y2637*
X2514Y2632*
X2524Y2630*
X2525*
Y2665*
G37*
G36*
X2045D02*
X2010D01*
Y2630*
X2010*
X2020Y2632*
X2029Y2637*
X2037Y2645*
X2042Y2654*
X2045Y2664*
Y2665*
G37*
G36*
X2000D02*
X1965D01*
Y2664*
X1967Y2654*
X1972Y2645*
X1980Y2637*
X1989Y2632*
X1999Y2630*
X2000*
Y2665*
G37*
G36*
X1925Y2660D02*
X1890D01*
Y2625*
X1890*
X1900Y2627*
X1909Y2632*
X1917Y2640*
X1922Y2649*
X1925Y2659*
Y2660*
G37*
G36*
X1880D02*
X1845D01*
Y2659*
X1847Y2649*
X1852Y2640*
X1860Y2632*
X1869Y2627*
X1879Y2625*
X1880*
Y2660*
G37*
G36*
X4020Y2655D02*
X4020D01*
Y2620*
X4055*
Y2620*
X4052Y2630*
X4047Y2639*
X4039Y2647*
X4030Y2652*
X4020Y2655*
G37*
G36*
X4010D02*
X4009D01*
X3999Y2652*
X3990Y2647*
X3982Y2639*
X3977Y2630*
X3975Y2620*
Y2620*
X4010*
Y2655*
G37*
G36*
X5493Y2663D02*
X5486D01*
X5478Y2661*
X5472Y2658*
X5466Y2652*
X5463Y2646*
X5461Y2638*
Y2631*
X5463Y2623*
X5466Y2617*
X5472Y2611*
X5478Y2608*
X5486Y2606*
X5493*
X5501Y2608*
X5507Y2611*
X5513Y2617*
X5516Y2623*
X5518Y2631*
Y2638*
X5516Y2646*
X5513Y2652*
X5507Y2658*
X5501Y2661*
X5493Y2663*
G37*
G36*
X5043Y2658D02*
X5036D01*
X5028Y2656*
X5022Y2653*
X5016Y2647*
X5013Y2641*
X5011Y2633*
Y2626*
X5013Y2618*
X5016Y2612*
X5022Y2606*
X5028Y2603*
X5036Y2601*
X5043*
X5051Y2603*
X5057Y2606*
X5063Y2612*
X5066Y2618*
X5068Y2626*
Y2633*
X5066Y2641*
X5063Y2647*
X5057Y2653*
X5051Y2656*
X5043Y2658*
G37*
G36*
X541Y2695D02*
X528D01*
X515Y2691*
X504Y2685*
X494Y2675*
X488Y2664*
X485Y2651*
Y2638*
X488Y2625*
X494Y2614*
X504Y2604*
X515Y2598*
X528Y2595*
X541*
X554Y2598*
X565Y2604*
X575Y2614*
X581Y2625*
X585Y2638*
Y2651*
X581Y2664*
X575Y2675*
X565Y2685*
X554Y2691*
X541Y2695*
G37*
G36*
X4055Y2610D02*
X4020D01*
Y2575*
X4020*
X4030Y2577*
X4039Y2582*
X4047Y2590*
X4052Y2599*
X4055Y2609*
Y2610*
G37*
G36*
X4010D02*
X3975D01*
Y2609*
X3977Y2599*
X3982Y2590*
X3990Y2582*
X3999Y2577*
X4009Y2575*
X4010*
Y2610*
G37*
G36*
X5944Y2582D02*
Y2560D01*
X5966*
X5965Y2566*
X5961Y2572*
X5956Y2577*
X5950Y2581*
X5944Y2582*
G37*
G36*
X5934D02*
X5928Y2581D01*
X5922Y2577*
X5917Y2572*
X5913Y2566*
X5912Y2560*
X5934*
Y2582*
G37*
G36*
X746Y2650D02*
X733D01*
X720Y2646*
X709Y2640*
X699Y2630*
X693Y2619*
X690Y2606*
Y2593*
X693Y2580*
X699Y2569*
X709Y2559*
X720Y2553*
X733Y2550*
X746*
X759Y2553*
X770Y2559*
X780Y2569*
X786Y2580*
X790Y2593*
Y2606*
X786Y2619*
X780Y2630*
X770Y2640*
X759Y2646*
X746Y2650*
G37*
G36*
X1336Y2630D02*
X1323D01*
X1310Y2626*
X1299Y2620*
X1289Y2610*
X1283Y2599*
X1280Y2586*
Y2573*
X1283Y2560*
X1289Y2549*
X1299Y2539*
X1310Y2533*
X1323Y2530*
X1336*
X1349Y2533*
X1360Y2539*
X1370Y2549*
X1376Y2560*
X1380Y2573*
Y2586*
X1376Y2599*
X1370Y2610*
X1360Y2620*
X1349Y2626*
X1336Y2630*
G37*
G36*
X5966Y2550D02*
X5944D01*
Y2528*
X5950Y2529*
X5956Y2533*
X5961Y2538*
X5965Y2544*
X5966Y2550*
G37*
G36*
X5934D02*
X5912D01*
X5913Y2544*
X5917Y2538*
X5922Y2533*
X5928Y2529*
X5934Y2528*
Y2550*
G37*
G36*
X4523Y2587D02*
X4514D01*
X4504Y2585*
X4495Y2580*
X4488Y2573*
X4483Y2564*
X4481Y2554*
Y2545*
X4483Y2535*
X4488Y2526*
X4495Y2519*
X4504Y2514*
X4514Y2512*
X4523*
X4533Y2514*
X4542Y2519*
X4549Y2526*
X4554Y2535*
X4556Y2545*
Y2554*
X4554Y2564*
X4549Y2573*
X4542Y2580*
X4533Y2585*
X4523Y2587*
G37*
G36*
X4121Y2584D02*
X4112D01*
X4102Y2582*
X4093Y2577*
X4086Y2570*
X4081Y2561*
X4079Y2551*
Y2542*
X4081Y2532*
X4086Y2523*
X4093Y2516*
X4102Y2511*
X4112Y2509*
X4121*
X4131Y2511*
X4140Y2516*
X4147Y2523*
X4152Y2532*
X4154Y2542*
Y2551*
X4152Y2561*
X4147Y2570*
X4140Y2577*
X4131Y2582*
X4121Y2584*
G37*
G36*
X2780Y2535D02*
X2780D01*
Y2500*
X2815*
Y2500*
X2812Y2510*
X2807Y2519*
X2799Y2527*
X2790Y2532*
X2780Y2535*
G37*
G36*
X2770D02*
X2769D01*
X2759Y2532*
X2750Y2527*
X2742Y2519*
X2737Y2510*
X2735Y2500*
Y2500*
X2770*
Y2535*
G37*
G36*
X2365D02*
X2365D01*
Y2500*
X2400*
Y2500*
X2397Y2510*
X2392Y2519*
X2384Y2527*
X2375Y2532*
X2365Y2535*
G37*
G36*
X2355D02*
X2354D01*
X2344Y2532*
X2335Y2527*
X2327Y2519*
X2322Y2510*
X2320Y2500*
Y2500*
X2355*
Y2535*
G37*
G36*
X2180D02*
X2180D01*
Y2500*
X2215*
Y2500*
X2212Y2510*
X2207Y2519*
X2199Y2527*
X2190Y2532*
X2180Y2535*
G37*
G36*
X2170D02*
X2169D01*
X2159Y2532*
X2150Y2527*
X2142Y2519*
X2137Y2510*
X2135Y2500*
Y2500*
X2170*
Y2535*
G37*
G36*
X2060D02*
X2060D01*
Y2500*
X2095*
Y2500*
X2092Y2510*
X2087Y2519*
X2079Y2527*
X2070Y2532*
X2060Y2535*
G37*
G36*
X2050D02*
X2049D01*
X2039Y2532*
X2030Y2527*
X2022Y2519*
X2017Y2510*
X2015Y2500*
Y2500*
X2050*
Y2535*
G37*
G36*
X3841Y2522D02*
X3840D01*
Y2487*
X3875*
Y2487*
X3873Y2498*
X3867Y2507*
X3860Y2514*
X3851Y2519*
X3841Y2522*
G37*
G36*
X3830D02*
X3830D01*
X3820Y2519*
X3811Y2514*
X3803Y2507*
X3798Y2498*
X3795Y2487*
Y2487*
X3830*
Y2522*
G37*
G36*
X3380Y2500D02*
X3345D01*
Y2465*
X3345*
X3355Y2467*
X3364Y2472*
X3372Y2480*
X3377Y2489*
X3380Y2499*
Y2500*
G37*
G36*
X3335D02*
X3300D01*
Y2499*
X3302Y2489*
X3307Y2480*
X3315Y2472*
X3324Y2467*
X3334Y2465*
X3335*
Y2500*
G37*
G36*
X3235D02*
X3200D01*
Y2465*
X3200*
X3210Y2467*
X3219Y2472*
X3227Y2480*
X3232Y2489*
X3235Y2499*
Y2500*
G37*
G36*
X3190D02*
X3155D01*
Y2499*
X3157Y2489*
X3162Y2480*
X3170Y2472*
X3179Y2467*
X3189Y2465*
X3190*
Y2500*
G37*
G36*
X2960Y2495D02*
X2925D01*
Y2460*
X2925*
X2935Y2462*
X2944Y2468*
X2952Y2475*
X2957Y2484*
X2960Y2495*
Y2495*
G37*
G36*
X2915D02*
X2880D01*
Y2495*
X2882Y2484*
X2887Y2475*
X2895Y2468*
X2904Y2462*
X2914Y2460*
X2915*
Y2495*
G37*
G36*
X3105Y2495D02*
X3070D01*
Y2460*
X3070*
X3080Y2462*
X3089Y2467*
X3097Y2475*
X3102Y2484*
X3105Y2494*
Y2495*
G37*
G36*
X3060D02*
X3025D01*
Y2494*
X3027Y2484*
X3032Y2475*
X3040Y2467*
X3049Y2462*
X3059Y2460*
X3060*
Y2495*
G37*
G36*
X2815Y2490D02*
X2780D01*
Y2455*
X2780*
X2790Y2457*
X2799Y2462*
X2807Y2470*
X2812Y2479*
X2815Y2489*
Y2490*
G37*
G36*
X2770D02*
X2735D01*
Y2489*
X2737Y2479*
X2742Y2470*
X2750Y2462*
X2759Y2457*
X2769Y2455*
X2770*
Y2490*
G37*
G36*
X2400D02*
X2365D01*
Y2455*
X2365*
X2375Y2457*
X2384Y2462*
X2392Y2470*
X2397Y2479*
X2400Y2489*
Y2490*
G37*
G36*
X2355D02*
X2320D01*
Y2489*
X2322Y2479*
X2327Y2470*
X2335Y2462*
X2344Y2457*
X2354Y2455*
X2355*
Y2490*
G37*
G36*
X2215D02*
X2180D01*
Y2455*
X2180*
X2190Y2457*
X2199Y2462*
X2207Y2470*
X2212Y2479*
X2215Y2489*
Y2490*
G37*
G36*
X2170D02*
X2135D01*
Y2489*
X2137Y2479*
X2142Y2470*
X2150Y2462*
X2159Y2457*
X2169Y2455*
X2170*
Y2490*
G37*
G36*
X2095D02*
X2060D01*
Y2455*
X2060*
X2070Y2457*
X2079Y2462*
X2087Y2470*
X2092Y2479*
X2095Y2489*
Y2490*
G37*
G36*
X2050D02*
X2015D01*
Y2489*
X2017Y2479*
X2022Y2470*
X2030Y2462*
X2039Y2457*
X2049Y2455*
X2050*
Y2490*
G37*
G36*
X4454Y2524D02*
X4445D01*
X4435Y2522*
X4426Y2517*
X4419Y2510*
X4414Y2501*
X4412Y2491*
Y2482*
X4414Y2472*
X4419Y2463*
X4426Y2456*
X4435Y2451*
X4445Y2449*
X4454*
X4464Y2451*
X4473Y2456*
X4480Y2463*
X4485Y2472*
X4487Y2482*
Y2491*
X4485Y2501*
X4480Y2510*
X4473Y2517*
X4464Y2522*
X4454Y2524*
G37*
G36*
X3875Y2477D02*
X3840D01*
Y2442*
X3841*
X3851Y2445*
X3860Y2450*
X3867Y2458*
X3873Y2467*
X3875Y2477*
Y2477*
G37*
G36*
X3830D02*
X3795D01*
Y2477*
X3798Y2467*
X3803Y2458*
X3811Y2450*
X3820Y2445*
X3830Y2442*
X3830*
Y2477*
G37*
G36*
X1281Y2530D02*
X1268D01*
X1255Y2526*
X1244Y2520*
X1234Y2510*
X1228Y2499*
X1225Y2486*
Y2473*
X1228Y2460*
X1234Y2449*
X1244Y2439*
X1255Y2433*
X1268Y2430*
X1281*
X1294Y2433*
X1305Y2439*
X1315Y2449*
X1321Y2460*
X1325Y2473*
Y2486*
X1321Y2499*
X1315Y2510*
X1305Y2520*
X1294Y2526*
X1281Y2530*
G37*
G36*
X4553Y2507D02*
X4544D01*
X4534Y2505*
X4525Y2500*
X4518Y2493*
X4513Y2484*
X4511Y2474*
Y2465*
X4513Y2455*
X4518Y2446*
X4525Y2439*
X4534Y2434*
X4544Y2432*
X4549*
X4552Y2427*
X4551Y2425*
X4588*
X4585Y2430*
X4580Y2435*
X4576Y2437*
X4575Y2443*
X4579Y2446*
X4584Y2455*
X4586Y2465*
Y2474*
X4584Y2484*
X4579Y2493*
X4572Y2500*
X4563Y2505*
X4553Y2507*
G37*
G36*
X4743Y2449D02*
X4733D01*
X4723Y2446*
X4715Y2441*
X4708Y2434*
X4703Y2426*
X4701Y2421*
X4697Y2421*
X4696Y2421*
X4693Y2427*
X4687Y2433*
X4681Y2436*
X4673Y2438*
X4666*
X4658Y2436*
X4652Y2433*
X4646Y2427*
X4643Y2421*
X4641Y2413*
Y2406*
X4643Y2398*
X4646Y2392*
X4652Y2386*
X4658Y2383*
X4666Y2381*
X4673*
X4681Y2383*
X4687Y2386*
X4693Y2392*
X4696Y2398*
X4697Y2399*
X4702*
X4703Y2396*
X4708Y2388*
X4715Y2381*
X4723Y2376*
X4733Y2373*
X4743*
X4752Y2376*
X4761Y2381*
X4768Y2388*
X4773Y2396*
X4776Y2406*
Y2416*
X4773Y2426*
X4768Y2434*
X4761Y2441*
X4752Y2446*
X4743Y2449*
G37*
G36*
X5146Y2505D02*
X5133D01*
X5120Y2501*
X5109Y2495*
X5099Y2485*
X5093Y2474*
X5090Y2461*
Y2448*
X5093Y2435*
X5099Y2424*
X5109Y2414*
X5120Y2408*
X5133Y2405*
X5146*
X5159Y2408*
X5170Y2414*
X5180Y2424*
X5186Y2435*
X5190Y2448*
Y2461*
X5186Y2474*
X5180Y2485*
X5170Y2495*
X5159Y2501*
X5146Y2505*
G37*
G36*
X4588Y2415D02*
X4575D01*
Y2401*
X4580Y2404*
X4585Y2409*
X4588Y2415*
G37*
G36*
X4565D02*
X4551D01*
X4554Y2409*
X4559Y2404*
X4565Y2401*
Y2415*
G37*
G36*
X4328Y2410D02*
Y2394D01*
X4344*
X4341Y2401*
X4335Y2407*
X4328Y2410*
G37*
G36*
X4318D02*
X4310Y2407D01*
X4304Y2401*
X4301Y2394*
X4318*
Y2410*
G37*
G36*
X4213Y2539D02*
X4203D01*
X4193Y2536*
X4185Y2531*
X4178Y2524*
X4173Y2516*
X4170Y2506*
Y2496*
X4173Y2487*
X4178Y2478*
X4185Y2471*
X4187Y2470*
X4183Y2463*
X4181Y2453*
Y2444*
X4183Y2434*
X4188Y2425*
X4195Y2418*
X4204Y2413*
X4213Y2411*
X4214Y2409*
X4214Y2406*
X4209Y2404*
X4203Y2398*
X4200Y2391*
X4243*
X4240Y2398*
X4234Y2404*
X4227Y2407*
X4228Y2412*
X4233Y2413*
X4242Y2418*
X4249Y2425*
X4254Y2434*
X4256Y2444*
Y2453*
X4254Y2463*
X4249Y2472*
X4242Y2479*
X4239Y2480*
X4243Y2487*
X4246Y2496*
Y2506*
X4243Y2516*
X4238Y2524*
X4231Y2531*
X4222Y2536*
X4213Y2539*
G37*
G36*
X4344Y2384D02*
X4328D01*
Y2367*
X4335Y2370*
X4341Y2376*
X4344Y2384*
G37*
G36*
X4318D02*
X4301D01*
X4304Y2376*
X4310Y2370*
X4318Y2367*
Y2384*
G37*
G36*
X4243Y2381D02*
X4227D01*
Y2364*
X4234Y2367*
X4240Y2373*
X4243Y2381*
G37*
G36*
X4217D02*
X4200D01*
X4203Y2373*
X4209Y2367*
X4217Y2364*
Y2381*
G37*
G36*
X4924Y2437D02*
X4915D01*
X4905Y2435*
X4896Y2430*
X4889Y2423*
X4884Y2414*
X4882Y2404*
Y2395*
X4884Y2385*
X4889Y2376*
X4896Y2369*
X4905Y2364*
X4915Y2362*
X4924*
X4934Y2364*
X4943Y2369*
X4950Y2376*
X4955Y2385*
X4957Y2395*
Y2404*
X4955Y2414*
X4950Y2423*
X4943Y2430*
X4934Y2435*
X4924Y2437*
G37*
G36*
X5981Y2460D02*
X5968D01*
X5955Y2456*
X5944Y2450*
X5934Y2440*
X5928Y2429*
X5925Y2416*
Y2403*
X5928Y2390*
X5934Y2379*
X5944Y2369*
X5955Y2363*
X5968Y2360*
X5981*
X5994Y2363*
X6005Y2369*
X6015Y2379*
X6021Y2390*
X6025Y2403*
Y2416*
X6021Y2429*
X6015Y2440*
X6005Y2450*
X5994Y2456*
X5981Y2460*
G37*
G36*
X4618Y2372D02*
X4610Y2369D01*
X4604Y2363*
X4601Y2356*
X4618*
Y2372*
G37*
G36*
X4525Y2368D02*
Y2355D01*
X4538*
X4535Y2360*
X4530Y2365*
X4525Y2368*
G37*
G36*
X4515D02*
X4509Y2365D01*
X4504Y2360*
X4501Y2355*
X4515*
Y2368*
G37*
G36*
X4420Y2364D02*
Y2348D01*
X4436*
X4433Y2355*
X4427Y2361*
X4420Y2364*
G37*
G36*
X4410D02*
X4402Y2361D01*
X4396Y2355*
X4393Y2348*
X4410*
Y2364*
G37*
G36*
X605Y2432D02*
X594D01*
X583Y2430*
X573Y2424*
X565Y2416*
X559Y2406*
X557Y2395*
Y2384*
X559Y2373*
X565Y2363*
X573Y2355*
X583Y2349*
X594Y2347*
X605*
X616Y2349*
X626Y2355*
X634Y2363*
X640Y2373*
X642Y2384*
Y2395*
X640Y2406*
X634Y2416*
X626Y2424*
X616Y2430*
X605Y2432*
G37*
G36*
X4470Y2358D02*
Y2341D01*
X4487*
X4484Y2348*
X4477Y2355*
X4470Y2358*
G37*
G36*
X4460D02*
X4453Y2355D01*
X4447Y2348*
X4444Y2341*
X4460*
Y2358*
G37*
G36*
X4538Y2345D02*
X4525D01*
Y2331*
X4530Y2334*
X4535Y2339*
X4538Y2345*
G37*
G36*
X4515D02*
X4501D01*
X4504Y2339*
X4509Y2334*
X4515Y2331*
Y2345*
G37*
G36*
X5293Y2388D02*
X5286D01*
X5278Y2386*
X5272Y2383*
X5266Y2377*
X5263Y2371*
X5261Y2363*
Y2356*
X5263Y2348*
X5266Y2342*
X5272Y2336*
X5278Y2333*
X5286Y2331*
X5293*
X5301Y2333*
X5307Y2336*
X5313Y2342*
X5316Y2348*
X5318Y2356*
Y2363*
X5316Y2371*
X5313Y2377*
X5307Y2383*
X5301Y2386*
X5293Y2388*
G37*
G36*
X4436Y2338D02*
X4420D01*
Y2321*
X4427Y2324*
X4433Y2330*
X4436Y2338*
G37*
G36*
X4410D02*
X4393D01*
X4396Y2330*
X4402Y2324*
X4410Y2321*
Y2338*
G37*
G36*
X4487Y2331D02*
X4470D01*
Y2315*
X4477Y2318*
X4484Y2324*
X4487Y2331*
G37*
G36*
X4460D02*
X4444D01*
X4447Y2324*
X4453Y2318*
X4460Y2315*
Y2331*
G37*
G36*
X4628Y2372D02*
Y2351D01*
X4623*
Y2346*
X4601*
X4604Y2338*
X4610Y2332*
X4618Y2329*
X4625*
X4627Y2324*
X4630Y2318*
X4636Y2312*
X4642Y2309*
X4650Y2307*
X4657*
X4665Y2309*
X4671Y2312*
X4677Y2318*
X4680Y2324*
X4682Y2332*
Y2339*
X4680Y2347*
X4677Y2353*
X4671Y2359*
X4665Y2362*
X4657Y2364*
X4650*
X4642Y2362*
X4641Y2363*
X4635Y2369*
X4628Y2372*
G37*
G36*
X4936Y2328D02*
Y2306D01*
X4958*
X4956Y2311*
X4953Y2318*
X4948Y2323*
X4941Y2326*
X4936Y2328*
G37*
G36*
X4926D02*
X4920Y2326D01*
X4913Y2323*
X4908Y2318*
X4905Y2311*
X4903Y2306*
X4926*
Y2328*
G37*
G36*
X861Y2374D02*
X851D01*
X842Y2371*
X833Y2366*
X826Y2359*
X821Y2351*
X818Y2341*
Y2331*
X821Y2322*
X826Y2313*
X833Y2306*
X842Y2301*
X851Y2298*
X861*
X871Y2301*
X879Y2306*
X886Y2313*
X891Y2322*
X894Y2331*
Y2341*
X891Y2351*
X886Y2359*
X879Y2366*
X871Y2371*
X861Y2374*
G37*
G36*
X426Y2395D02*
X413D01*
X400Y2391*
X389Y2385*
X379Y2375*
X373Y2364*
X370Y2351*
Y2338*
X373Y2325*
X379Y2314*
X389Y2304*
X400Y2298*
X413Y2295*
X426*
X439Y2298*
X450Y2304*
X460Y2314*
X466Y2325*
X470Y2338*
Y2351*
X466Y2364*
X460Y2375*
X450Y2385*
X439Y2391*
X426Y2395*
G37*
G36*
X2066Y2375D02*
X2053D01*
X2040Y2371*
X2029Y2365*
X2019Y2355*
X2013Y2344*
X2010Y2331*
Y2318*
X2013Y2305*
X2019Y2294*
X2029Y2284*
X2040Y2278*
X2053Y2275*
X2066*
X2079Y2278*
X2090Y2284*
X2100Y2294*
X2106Y2305*
X2110Y2318*
Y2331*
X2106Y2344*
X2100Y2355*
X2090Y2365*
X2079Y2371*
X2066Y2375*
G37*
G36*
X4958Y2296D02*
X4936D01*
Y2273*
X4941Y2275*
X4948Y2278*
X4953Y2283*
X4956Y2290*
X4958Y2296*
G37*
G36*
X4926D02*
X4903D01*
X4905Y2290*
X4908Y2283*
X4913Y2278*
X4920Y2275*
X4926Y2273*
Y2296*
G37*
G36*
X3101Y2370D02*
X3088D01*
X3075Y2366*
X3064Y2360*
X3054Y2350*
X3048Y2339*
X3045Y2326*
Y2313*
X3048Y2300*
X3054Y2289*
X3064Y2279*
X3075Y2273*
X3088Y2270*
X3101*
X3114Y2273*
X3125Y2279*
X3135Y2289*
X3141Y2300*
X3145Y2313*
Y2326*
X3141Y2339*
X3135Y2350*
X3125Y2360*
X3114Y2366*
X3101Y2370*
G37*
G36*
X2396D02*
X2383D01*
X2370Y2366*
X2359Y2360*
X2349Y2350*
X2343Y2339*
X2340Y2326*
Y2313*
X2343Y2300*
X2349Y2289*
X2359Y2279*
X2370Y2273*
X2383Y2270*
X2396*
X2409Y2273*
X2420Y2279*
X2430Y2289*
X2436Y2300*
X2440Y2313*
Y2326*
X2436Y2339*
X2430Y2350*
X2420Y2360*
X2409Y2366*
X2396Y2370*
G37*
G36*
X4926Y2267D02*
Y2250D01*
X4942*
X4939Y2258*
X4933Y2264*
X4926Y2267*
G37*
G36*
X4916D02*
X4908Y2264D01*
X4902Y2258*
X4899Y2250*
X4916*
Y2267*
G37*
G36*
X605Y2332D02*
X594D01*
X583Y2330*
X573Y2324*
X565Y2316*
X559Y2306*
X557Y2295*
Y2284*
X559Y2273*
X565Y2263*
X573Y2255*
X583Y2249*
X594Y2247*
X605*
X616Y2249*
X626Y2255*
X634Y2263*
X640Y2273*
X642Y2284*
Y2295*
X640Y2306*
X634Y2316*
X626Y2324*
X616Y2330*
X605Y2332*
G37*
G36*
X3456Y2340D02*
X3443D01*
X3430Y2336*
X3419Y2330*
X3409Y2320*
X3403Y2309*
X3400Y2296*
Y2283*
X3403Y2270*
X3409Y2259*
X3419Y2249*
X3430Y2243*
X3443Y2240*
X3456*
X3469Y2243*
X3480Y2249*
X3490Y2259*
X3496Y2270*
X3500Y2283*
Y2296*
X3496Y2309*
X3490Y2320*
X3480Y2330*
X3469Y2336*
X3456Y2340*
G37*
G36*
X4188Y2254D02*
Y2238D01*
X4204*
X4201Y2245*
X4195Y2251*
X4188Y2254*
G37*
G36*
X4178D02*
X4170Y2251D01*
X4164Y2245*
X4161Y2238*
X4178*
Y2254*
G37*
G36*
X4204Y2228D02*
X4188D01*
Y2211*
X4195Y2214*
X4201Y2220*
X4204Y2228*
G37*
G36*
X4178D02*
X4161D01*
X4164Y2220*
X4170Y2214*
X4178Y2211*
Y2228*
G37*
G36*
X4567Y2264D02*
X4560D01*
X4552Y2262*
X4546Y2259*
X4540Y2253*
X4537Y2247*
X4535Y2239*
Y2232*
X4537Y2224*
X4540Y2218*
X4546Y2212*
X4552Y2209*
X4560Y2207*
X4567*
X4575Y2209*
X4581Y2212*
X4587Y2218*
X4590Y2224*
X4592Y2232*
Y2239*
X4590Y2247*
X4587Y2253*
X4581Y2259*
X4575Y2262*
X4567Y2264*
G37*
G36*
X4235Y2221D02*
Y2205D01*
X4251*
X4248Y2212*
X4242Y2218*
X4235Y2221*
G37*
G36*
X4225D02*
X4217Y2218D01*
X4211Y2212*
X4208Y2205*
X4225*
Y2221*
G37*
G36*
X4106Y2274D02*
X4097D01*
X4087Y2272*
X4078Y2267*
X4071Y2260*
X4066Y2251*
X4064Y2241*
Y2232*
X4066Y2222*
X4071Y2213*
X4078Y2206*
X4087Y2201*
X4097Y2199*
X4106*
X4116Y2201*
X4125Y2206*
X4132Y2213*
X4137Y2222*
X4139Y2232*
Y2241*
X4137Y2251*
X4132Y2260*
X4125Y2267*
X4116Y2272*
X4106Y2274*
G37*
G36*
X863Y2269D02*
X853D01*
X843Y2266*
X835Y2261*
X828Y2254*
X823Y2246*
X820Y2236*
Y2226*
X823Y2217*
X828Y2208*
X835Y2201*
X843Y2196*
X853Y2194*
X863*
X872Y2196*
X881Y2201*
X888Y2208*
X893Y2217*
X895Y2226*
Y2236*
X893Y2246*
X888Y2254*
X881Y2261*
X872Y2266*
X863Y2269*
G37*
G36*
X4778Y2184D02*
X4771D01*
X4763Y2182*
X4757Y2179*
X4757Y2178*
X4752Y2181*
X4744Y2183*
X4737*
X4729Y2181*
X4723Y2178*
X4717Y2172*
X4714Y2166*
X4712Y2158*
Y2151*
X4714Y2143*
X4717Y2137*
X4723Y2131*
X4729Y2128*
X4737Y2126*
X4744*
X4745Y2126*
X4750Y2122*
Y2117*
X4752Y2109*
X4755Y2103*
X4761Y2097*
X4767Y2094*
X4772Y2092*
X4775Y2088*
X4775Y2087*
X4773Y2083*
X4771Y2076*
Y2068*
X4773Y2061*
X4777Y2054*
X4782Y2049*
X4789Y2045*
X4796Y2043*
X4804*
X4811Y2045*
X4818Y2049*
X4823Y2054*
X4827Y2061*
X4829Y2068*
Y2076*
X4827Y2083*
X4823Y2090*
X4818Y2095*
X4811Y2099*
X4806Y2100*
X4803Y2105*
X4803Y2106*
X4805Y2109*
X4807Y2117*
Y2124*
X4805Y2132*
X4802Y2138*
X4799Y2141*
X4801Y2144*
X4803Y2152*
Y2159*
X4801Y2167*
X4798Y2173*
X4792Y2179*
X4786Y2182*
X4778Y2184*
G37*
G36*
X4251Y2195D02*
X4235D01*
Y2178*
X4242Y2181*
X4248Y2187*
X4251Y2195*
G37*
G36*
X4225D02*
X4208D01*
X4211Y2187*
X4217Y2181*
X4225Y2178*
Y2195*
G37*
G36*
X4943Y2240D02*
X4899D01*
X4902Y2233*
X4908Y2227*
X4912Y2225*
X4914Y2219*
X4913Y2218*
X4911Y2210*
Y2202*
X4913Y2194*
X4918Y2187*
X4923Y2181*
X4931Y2176*
X4939Y2174*
X4947*
X4955Y2176*
X4963Y2181*
X4968Y2187*
X4973Y2194*
X4975Y2202*
Y2210*
X4973Y2218*
X4968Y2226*
X4963Y2231*
X4955Y2236*
X4947Y2238*
X4944*
X4943Y2240*
G37*
G36*
X4349Y2244D02*
X4339D01*
X4329Y2241*
X4321Y2236*
X4314Y2229*
X4309Y2221*
X4306Y2211*
Y2201*
X4309Y2191*
X4314Y2183*
X4321Y2176*
X4329Y2171*
X4339Y2168*
X4349*
X4359Y2171*
X4367Y2176*
X4374Y2183*
X4379Y2191*
X4382Y2201*
Y2211*
X4379Y2221*
X4374Y2229*
X4367Y2236*
X4359Y2241*
X4349Y2244*
G37*
G36*
X1836Y2255D02*
X1823D01*
X1810Y2251*
X1799Y2245*
X1789Y2235*
X1783Y2224*
X1780Y2211*
Y2198*
X1783Y2185*
X1789Y2174*
X1799Y2164*
X1810Y2158*
X1823Y2155*
X1836*
X1849Y2158*
X1860Y2164*
X1870Y2174*
X1876Y2185*
X1880Y2198*
Y2211*
X1876Y2224*
X1870Y2235*
X1860Y2245*
X1849Y2251*
X1836Y2255*
G37*
G36*
X426D02*
X413D01*
X400Y2251*
X389Y2245*
X379Y2235*
X373Y2224*
X370Y2211*
Y2198*
X373Y2185*
X379Y2174*
X389Y2164*
X400Y2158*
X413Y2155*
X426*
X439Y2158*
X450Y2164*
X460Y2174*
X466Y2185*
X470Y2198*
Y2211*
X466Y2224*
X460Y2235*
X450Y2245*
X439Y2251*
X426Y2255*
G37*
G36*
X4450Y2266D02*
X4440D01*
X4431Y2264*
X4422Y2259*
X4415Y2252*
X4410Y2243*
X4408Y2233*
Y2223*
X4410Y2214*
X4415Y2205*
X4422Y2198*
X4430Y2194*
X4431Y2189*
X4229Y1986*
X4110*
Y1986*
X4103Y1985*
X4096Y1982*
X4091Y1978*
X3489Y1376*
X1190*
X1183Y1375*
X1176Y1372*
X1171Y1368*
X831Y1028*
X827Y1023*
X824Y1016*
X823Y1010*
X823*
Y953*
X819Y951*
X808Y944*
X799Y935*
X792Y924*
X787Y912*
X785Y900*
Y887*
X787Y875*
X792Y863*
X799Y852*
X808Y843*
X819Y836*
X831Y831*
X843Y829*
X856*
X868Y831*
X880Y836*
X891Y843*
X900Y852*
X907Y863*
X912Y875*
X914Y887*
Y900*
X912Y912*
X907Y924*
X900Y935*
X891Y944*
X880Y951*
X876Y953*
Y999*
X1200Y1323*
X1383*
X1386Y1319*
X1386Y1318*
Y1311*
X1388Y1303*
X1391Y1297*
X1397Y1291*
X1403Y1288*
X1411Y1286*
X1418*
X1426Y1288*
X1432Y1291*
X1438Y1297*
X1441Y1303*
X1443Y1311*
Y1318*
X1443Y1319*
X1446Y1323*
X3044*
X3045Y1318*
X3039Y1315*
X3029Y1305*
X3023Y1294*
X3020Y1281*
Y1268*
X3023Y1255*
X3029Y1244*
X3039Y1234*
X3050Y1228*
X3063Y1225*
X3076*
X3089Y1228*
X3100Y1234*
X3110Y1244*
X3116Y1255*
X3120Y1268*
Y1281*
X3116Y1294*
X3110Y1305*
X3100Y1315*
X3094Y1318*
X3095Y1323*
X3500*
X3506Y1324*
X3513Y1327*
X3518Y1331*
X4120Y1933*
X4240*
Y1933*
X4246Y1934*
X4253Y1937*
X4258Y1941*
X4465Y2148*
X4538*
X4541Y2144*
X4541Y2143*
Y2136*
X4543Y2128*
X4546Y2122*
X4548Y2118*
X4547Y2117*
X4542Y2112*
X4538Y2105*
X4536Y2098*
Y2090*
X4538Y2083*
X4542Y2076*
X4547Y2071*
X4546Y2066*
X4543Y2061*
X4541Y2053*
Y2046*
X4543Y2038*
X4546Y2032*
X4552Y2026*
X4558Y2023*
X4566Y2021*
X4573*
X4581Y2023*
X4587Y2026*
X4593Y2032*
X4596Y2038*
X4598Y2046*
Y2053*
X4596Y2061*
X4593Y2067*
X4587Y2073*
X4589Y2077*
X4592Y2083*
X4594Y2090*
Y2098*
X4592Y2105*
X4588Y2111*
X4587Y2115*
X4587Y2116*
X4593Y2122*
X4596Y2128*
X4598Y2136*
Y2143*
X4598Y2144*
X4601Y2148*
X4657*
X4663Y2149*
X4670Y2152*
X4675Y2156*
X4721Y2202*
X4723Y2203*
X4729Y2206*
X4735Y2212*
X4738Y2218*
X4740Y2226*
Y2233*
X4738Y2241*
X4735Y2247*
X4729Y2253*
X4723Y2256*
X4715Y2258*
X4708*
X4700Y2256*
X4694Y2253*
X4688Y2247*
X4685Y2241*
X4684Y2239*
X4683Y2238*
X4678Y2240*
X4677Y2243*
X4672Y2251*
X4665Y2258*
X4657Y2263*
X4647Y2266*
X4637*
X4628Y2263*
X4619Y2258*
X4612Y2251*
X4607Y2243*
X4605Y2233*
Y2223*
X4607Y2214*
X4612Y2206*
X4610Y2201*
X4478*
X4477Y2203*
X4476Y2206*
X4481Y2214*
X4483Y2223*
Y2233*
X4481Y2243*
X4476Y2252*
X4469Y2259*
X4460Y2264*
X4450Y2266*
G37*
G36*
X605Y2232D02*
X594D01*
X583Y2230*
X573Y2224*
X565Y2216*
X559Y2206*
X557Y2195*
Y2184*
X559Y2173*
X565Y2163*
X573Y2155*
X583Y2149*
X594Y2147*
X605*
X616Y2149*
X626Y2155*
X634Y2163*
X640Y2173*
X642Y2184*
Y2195*
X640Y2206*
X634Y2216*
X626Y2224*
X616Y2230*
X605Y2232*
G37*
G36*
X5976Y2235D02*
X5963D01*
X5950Y2231*
X5939Y2225*
X5929Y2215*
X5923Y2204*
X5920Y2191*
Y2178*
X5923Y2165*
X5929Y2154*
X5939Y2144*
X5950Y2138*
X5963Y2135*
X5976*
X5989Y2138*
X6000Y2144*
X6010Y2154*
X6016Y2165*
X6020Y2178*
Y2191*
X6016Y2204*
X6010Y2215*
X6000Y2225*
X5989Y2231*
X5976Y2235*
G37*
G36*
X5263Y2188D02*
X5256D01*
X5248Y2186*
X5242Y2183*
X5236Y2177*
X5233Y2171*
X5231Y2163*
Y2156*
X5233Y2148*
X5236Y2142*
X5242Y2136*
X5248Y2133*
X5256Y2131*
X5263*
X5271Y2133*
X5277Y2136*
X5283Y2142*
X5286Y2148*
X5288Y2156*
Y2163*
X5286Y2171*
X5283Y2177*
X5277Y2183*
X5271Y2186*
X5263Y2188*
G37*
G36*
X1286Y2210D02*
X1273D01*
X1260Y2206*
X1249Y2200*
X1239Y2190*
X1233Y2179*
X1230Y2166*
Y2153*
X1233Y2140*
X1239Y2129*
X1249Y2119*
X1260Y2113*
X1273Y2110*
X1286*
X1299Y2113*
X1310Y2119*
X1320Y2129*
X1326Y2140*
X1330Y2153*
Y2166*
X1326Y2179*
X1320Y2190*
X1310Y2200*
X1299Y2206*
X1286Y2210*
G37*
G36*
X4686Y2147D02*
X4678D01*
X4671Y2145*
X4664Y2141*
X4659Y2136*
X4655Y2129*
X4654Y2126*
X4651Y2125*
X4645Y2122*
X4639Y2116*
X4636Y2110*
X4634Y2102*
Y2095*
X4636Y2087*
X4639Y2081*
X4645Y2075*
X4651Y2072*
X4659Y2070*
X4666*
X4674Y2072*
X4680Y2075*
X4686Y2081*
X4689Y2087*
X4690Y2090*
X4693Y2091*
X4700Y2095*
X4705Y2100*
X4709Y2107*
X4711Y2114*
Y2122*
X4709Y2129*
X4705Y2136*
X4700Y2141*
X4693Y2145*
X4686Y2147*
G37*
G36*
X5323Y2038D02*
X5316D01*
X5308Y2036*
X5302Y2033*
X5296Y2027*
X5293Y2021*
X5291Y2016*
X5290Y2015*
X5286Y2013*
X5286Y2013*
X5281Y2016*
X5273Y2018*
X5266*
X5258Y2016*
X5252Y2013*
X5246Y2007*
X5243Y2001*
X5241Y1993*
Y1986*
X5243Y1978*
X5246Y1972*
X5252Y1966*
X5258Y1963*
X5266Y1961*
X5273*
X5281Y1963*
X5287Y1966*
X5293Y1972*
X5296Y1978*
X5298Y1983*
X5299Y1984*
X5303Y1986*
X5303Y1986*
X5308Y1983*
X5316Y1981*
X5323*
X5331Y1983*
X5337Y1986*
X5343Y1992*
X5346Y1998*
X5348Y2006*
Y2013*
X5346Y2021*
X5343Y2027*
X5337Y2033*
X5331Y2036*
X5323Y2038*
G37*
G36*
X731Y2055D02*
X718D01*
X705Y2051*
X694Y2045*
X684Y2035*
X678Y2024*
X675Y2011*
Y1998*
X678Y1985*
X684Y1974*
X694Y1964*
X705Y1958*
X718Y1955*
X731*
X744Y1958*
X755Y1964*
X765Y1974*
X771Y1985*
X775Y1998*
Y2011*
X771Y2024*
X765Y2035*
X755Y2045*
X744Y2051*
X731Y2055*
G37*
G36*
X4603Y1998D02*
X4596D01*
X4588Y1996*
X4582Y1993*
X4576Y1987*
X4573Y1981*
X4571Y1973*
Y1966*
X4573Y1958*
X4570Y1954*
X4567Y1953*
X4567Y1953*
X4561Y1954*
X4561Y1956*
X4557Y1963*
X4552Y1968*
X4545Y1972*
X4538Y1974*
X4530*
X4523Y1972*
X4516Y1968*
X4511Y1963*
X4507Y1956*
X4505Y1949*
Y1941*
X4507Y1934*
X4511Y1927*
X4516Y1922*
X4523Y1918*
X4530Y1916*
X4538*
X4545Y1918*
X4552Y1922*
X4552Y1922*
X4557Y1920*
X4558Y1918*
X4561Y1912*
X4567Y1906*
X4573Y1903*
X4581Y1901*
X4588*
X4596Y1903*
X4602Y1906*
X4608Y1912*
X4611Y1918*
X4613Y1926*
Y1933*
X4611Y1941*
X4614Y1945*
X4617Y1946*
X4623Y1952*
X4626Y1958*
X4628Y1966*
Y1973*
X4626Y1981*
X4623Y1987*
X4617Y1993*
X4611Y1996*
X4603Y1998*
G37*
G36*
X991Y2000D02*
X978D01*
X965Y1996*
X954Y1990*
X944Y1980*
X938Y1969*
X935Y1956*
Y1943*
X938Y1930*
X944Y1919*
X954Y1909*
X965Y1903*
X978Y1900*
X991*
X1004Y1903*
X1015Y1909*
X1025Y1919*
X1031Y1930*
X1035Y1943*
Y1956*
X1031Y1969*
X1025Y1980*
X1015Y1990*
X1004Y1996*
X991Y2000*
G37*
G36*
X1241Y1970D02*
X1228D01*
X1215Y1966*
X1204Y1960*
X1194Y1950*
X1188Y1939*
X1185Y1926*
Y1913*
X1188Y1900*
X1194Y1889*
X1204Y1879*
X1215Y1873*
X1228Y1870*
X1241*
X1254Y1873*
X1265Y1879*
X1275Y1889*
X1281Y1900*
X1285Y1913*
Y1926*
X1281Y1939*
X1275Y1950*
X1265Y1960*
X1254Y1966*
X1241Y1970*
G37*
G36*
X506D02*
X493D01*
X480Y1966*
X469Y1960*
X459Y1950*
X453Y1939*
X450Y1926*
Y1913*
X453Y1900*
X459Y1889*
X469Y1879*
X480Y1873*
X493Y1870*
X506*
X519Y1873*
X530Y1879*
X540Y1889*
X546Y1900*
X550Y1913*
Y1926*
X546Y1939*
X540Y1950*
X530Y1960*
X519Y1966*
X506Y1970*
G37*
G36*
X991Y2445D02*
X978D01*
X965Y2441*
X954Y2435*
X944Y2425*
X938Y2414*
X935Y2401*
Y2388*
X938Y2375*
X944Y2364*
Y2260*
X945Y2250*
X949Y2242*
X955Y2235*
X1155Y2035*
X1162Y2029*
X1170Y2025*
X1180Y2024*
X2204*
X2206Y2020*
X2203Y2014*
X2200Y2001*
Y1988*
X2203Y1975*
X2209Y1964*
X2219Y1954*
X2230Y1948*
X2243Y1945*
X2256*
X2269Y1948*
X2280Y1954*
X2290Y1964*
X2296Y1975*
X2300Y1988*
Y2001*
X2296Y2014*
X2293Y2020*
X2295Y2024*
X2434*
X2436Y2020*
X2433Y2014*
X2430Y2001*
Y1988*
X2433Y1975*
X2439Y1964*
X2449Y1954*
X2460Y1948*
X2473Y1945*
X2486*
X2499Y1948*
X2510Y1954*
X2520Y1964*
X2526Y1975*
X2530Y1988*
Y2001*
X2526Y2014*
X2523Y2020*
X2525Y2024*
X2555*
X2924Y1655*
Y1599*
X2919Y1597*
X2913Y1598*
X2906*
X2898Y1596*
X2892Y1593*
X2886Y1587*
X2883Y1581*
X2881Y1573*
Y1566*
X2883Y1558*
X2886Y1552*
X2892Y1546*
X2898Y1543*
X2906Y1541*
X2913*
X2919Y1542*
X2924Y1540*
Y1536*
X2922Y1526*
Y1517*
X2924Y1507*
X2929Y1498*
X2936Y1491*
X2945Y1486*
X2946Y1486*
X2949Y1484*
X2957Y1480*
X2967Y1479*
X3366*
X3375Y1477*
X3384*
X3394Y1479*
X3403Y1484*
X3410Y1491*
X3415Y1500*
X3417Y1510*
Y1519*
X3415Y1529*
X3410Y1538*
X3403Y1545*
X3394Y1550*
X3384Y1552*
X3375*
X3366Y1550*
X2995*
Y1669*
X2994Y1679*
X2990Y1687*
X2985Y1694*
X2817Y1862*
X2820Y1866*
X2823Y1865*
X2836*
X2849Y1869*
X2860Y1875*
X2870Y1885*
X2876Y1896*
X2880Y1909*
Y1922*
X2876Y1935*
X2870Y1946*
X2860Y1955*
X2849Y1962*
X2836Y1965*
X2823*
X2810Y1962*
X2799Y1955*
X2790Y1946*
X2783Y1935*
X2780Y1922*
Y1909*
X2780Y1905*
X2776Y1903*
X2594Y2084*
X2587Y2090*
X2579Y2094*
X2570Y2095*
X1194*
X1015Y2274*
Y2354*
X1015Y2354*
X1025Y2364*
X1031Y2375*
X1035Y2388*
Y2401*
X1031Y2414*
X1025Y2425*
X1015Y2435*
X1004Y2441*
X991Y2445*
G37*
G36*
X5986Y1965D02*
X5973D01*
X5960Y1961*
X5949Y1955*
X5939Y1945*
X5933Y1934*
X5930Y1921*
Y1908*
X5933Y1895*
X5939Y1884*
X5949Y1874*
X5960Y1868*
X5973Y1865*
X5986*
X5999Y1868*
X6010Y1874*
X6020Y1884*
X6026Y1895*
X6030Y1908*
Y1921*
X6026Y1934*
X6020Y1945*
X6010Y1955*
X5999Y1961*
X5986Y1965*
G37*
G36*
X1536Y1960D02*
X1523D01*
X1510Y1956*
X1499Y1950*
X1489Y1940*
X1483Y1929*
X1480Y1916*
Y1903*
X1483Y1890*
X1489Y1879*
X1499Y1869*
X1510Y1863*
X1523Y1860*
X1536*
X1549Y1863*
X1560Y1869*
X1570Y1879*
X1576Y1890*
X1580Y1903*
Y1916*
X1576Y1929*
X1570Y1940*
X1560Y1950*
X1549Y1956*
X1536Y1960*
G37*
G36*
X4461Y1900D02*
X4454D01*
X4446Y1898*
X4440Y1894*
X4435Y1889*
X4431Y1883*
X4429Y1875*
Y1868*
X4431Y1860*
X4435Y1854*
X4440Y1848*
X4446Y1845*
X4454Y1843*
X4461*
X4469Y1845*
X4475Y1848*
X4481Y1854*
X4485Y1860*
X4486Y1868*
Y1875*
X4485Y1883*
X4481Y1889*
X4475Y1894*
X4469Y1898*
X4461Y1900*
G37*
G36*
X4638Y1878D02*
X4631D01*
X4623Y1876*
X4617Y1873*
X4611Y1867*
X4608Y1861*
X4606Y1853*
Y1846*
X4608Y1838*
X4611Y1832*
X4617Y1826*
X4623Y1823*
X4631Y1821*
X4638*
X4646Y1823*
X4652Y1826*
X4658Y1832*
X4661Y1838*
X4663Y1846*
Y1853*
X4661Y1861*
X4658Y1867*
X4652Y1873*
X4646Y1876*
X4638Y1878*
G37*
G36*
X3810Y1830D02*
X3810D01*
Y1795*
X3845*
Y1795*
X3842Y1805*
X3837Y1814*
X3829Y1822*
X3820Y1827*
X3810Y1830*
G37*
G36*
X3800D02*
X3799D01*
X3789Y1827*
X3780Y1822*
X3772Y1814*
X3767Y1805*
X3765Y1795*
Y1795*
X3800*
Y1830*
G37*
G36*
X3421Y1895D02*
X3408D01*
X3395Y1891*
X3384Y1885*
X3374Y1875*
X3368Y1864*
X3365Y1851*
Y1838*
X3368Y1825*
X3374Y1814*
X3384Y1804*
X3395Y1798*
X3408Y1795*
X3421*
X3434Y1798*
X3445Y1804*
X3455Y1814*
X3461Y1825*
X3465Y1838*
Y1851*
X3461Y1864*
X3455Y1875*
X3445Y1885*
X3434Y1891*
X3421Y1895*
G37*
G36*
X2976Y1890D02*
X2963D01*
X2950Y1886*
X2939Y1880*
X2929Y1870*
X2923Y1859*
X2920Y1846*
Y1833*
X2923Y1820*
X2929Y1809*
X2939Y1799*
X2950Y1793*
X2963Y1790*
X2976*
X2989Y1793*
X3000Y1799*
X3010Y1809*
X3016Y1820*
X3020Y1833*
Y1846*
X3016Y1859*
X3010Y1870*
X3000Y1880*
X2989Y1886*
X2976Y1890*
G37*
G36*
X2556Y1880D02*
X2543D01*
X2530Y1876*
X2519Y1870*
X2509Y1860*
X2503Y1849*
X2500Y1836*
Y1823*
X2503Y1810*
X2509Y1799*
X2519Y1789*
X2530Y1783*
X2543Y1780*
X2556*
X2569Y1783*
X2580Y1789*
X2590Y1799*
X2596Y1810*
X2600Y1823*
Y1836*
X2596Y1849*
X2590Y1860*
X2580Y1870*
X2569Y1876*
X2556Y1880*
G37*
G36*
X2166D02*
X2153D01*
X2140Y1876*
X2129Y1870*
X2119Y1860*
X2113Y1849*
X2110Y1836*
Y1823*
X2113Y1810*
X2119Y1799*
X2129Y1789*
X2140Y1783*
X2153Y1780*
X2166*
X2179Y1783*
X2190Y1789*
X2200Y1799*
X2206Y1810*
X2210Y1823*
Y1836*
X2206Y1849*
X2200Y1860*
X2190Y1870*
X2179Y1876*
X2166Y1880*
G37*
G36*
X4245Y1824D02*
X4236D01*
X4228Y1822*
X4221Y1818*
X4215Y1812*
X4211Y1805*
X4209Y1797*
Y1788*
X4211Y1780*
X4215Y1773*
X4221Y1767*
X4228Y1763*
X4236Y1761*
X4245*
X4253Y1763*
X4260Y1767*
X4266Y1773*
X4270Y1780*
X4272Y1788*
Y1797*
X4270Y1805*
X4266Y1812*
X4260Y1818*
X4253Y1822*
X4245Y1824*
G37*
G36*
X3845Y1785D02*
X3810D01*
Y1750*
X3810*
X3820Y1752*
X3829Y1757*
X3837Y1765*
X3842Y1774*
X3845Y1784*
Y1785*
G37*
G36*
X3800D02*
X3765D01*
Y1784*
X3767Y1774*
X3772Y1765*
X3780Y1757*
X3789Y1752*
X3799Y1750*
X3800*
Y1785*
G37*
G36*
X4082Y1821D02*
X4073D01*
X4063Y1819*
X4054Y1814*
X4047Y1807*
X4042Y1798*
X4040Y1788*
Y1779*
X4042Y1769*
X4047Y1760*
X4054Y1753*
X4063Y1748*
X4073Y1746*
X4082*
X4092Y1748*
X4101Y1753*
X4108Y1760*
X4113Y1769*
X4115Y1779*
Y1788*
X4113Y1798*
X4108Y1807*
X4101Y1814*
X4092Y1819*
X4082Y1821*
G37*
G36*
X4453Y1818D02*
X4446D01*
X4438Y1816*
X4432Y1813*
X4426Y1807*
X4423Y1801*
X4421Y1793*
Y1787*
X4418Y1786*
X4412Y1783*
X4406Y1777*
X4403Y1771*
X4401Y1763*
Y1756*
X4403Y1748*
X4406Y1742*
X4412Y1736*
X4418Y1733*
X4426Y1731*
X4433*
X4441Y1733*
X4447Y1736*
X4453Y1742*
X4456Y1748*
X4458Y1756*
Y1762*
X4461Y1763*
X4467Y1766*
X4472Y1771*
X4475Y1770*
X4477Y1769*
X4479Y1762*
X4483Y1756*
X4488Y1750*
X4494Y1746*
X4502Y1745*
X4509*
X4517Y1746*
X4523Y1750*
X4529Y1756*
X4533Y1762*
X4534Y1770*
Y1777*
X4533Y1785*
X4529Y1791*
X4523Y1796*
X4517Y1800*
X4509Y1802*
X4502*
X4494Y1800*
X4488Y1796*
X4483Y1792*
X4480Y1793*
X4478Y1794*
X4476Y1801*
X4473Y1807*
X4467Y1813*
X4461Y1816*
X4453Y1818*
G37*
G36*
X4243Y1754D02*
Y1738D01*
X4259*
X4256Y1745*
X4250Y1751*
X4243Y1754*
G37*
G36*
X4233D02*
X4225Y1751D01*
X4219Y1745*
X4216Y1738*
X4233*
Y1754*
G37*
G36*
X4354Y1812D02*
X4345D01*
X4335Y1810*
X4326Y1805*
X4319Y1798*
X4314Y1789*
X4312Y1779*
Y1770*
X4314Y1760*
X4319Y1751*
X4326Y1744*
X4335Y1739*
X4345Y1737*
X4354*
X4364Y1739*
X4373Y1744*
X4380Y1751*
X4385Y1760*
X4387Y1770*
Y1779*
X4385Y1789*
X4380Y1798*
X4373Y1805*
X4364Y1810*
X4354Y1812*
G37*
G36*
X4983Y1848D02*
X4976D01*
X4968Y1846*
X4962Y1843*
X4956Y1837*
X4953Y1831*
X4951Y1823*
Y1816*
X4953Y1808*
X4954Y1806*
X4953Y1803*
X4951Y1796*
Y1788*
X4953Y1781*
X4954Y1778*
X4953Y1775*
X4951Y1768*
Y1760*
X4953Y1753*
X4956Y1746*
X4962Y1741*
X4968Y1737*
X4976Y1735*
X4983*
X4991Y1737*
X4997Y1741*
X5003Y1746*
X5006Y1753*
X5008Y1760*
Y1768*
X5006Y1775*
X5005Y1778*
X5006Y1781*
X5008Y1788*
Y1796*
X5006Y1803*
X5005Y1806*
X5006Y1808*
X5008Y1816*
Y1823*
X5006Y1831*
X5003Y1837*
X4997Y1843*
X4991Y1846*
X4983Y1848*
G37*
G36*
X3468Y1794D02*
X3459D01*
X3449Y1792*
X3440Y1787*
X3433Y1780*
X3428Y1771*
X3426Y1761*
Y1752*
X3428Y1742*
X3433Y1733*
X3440Y1726*
X3449Y1721*
X3459Y1719*
X3468*
X3478Y1721*
X3487Y1726*
X3494Y1733*
X3499Y1742*
X3501Y1752*
Y1761*
X3499Y1771*
X3494Y1780*
X3487Y1787*
X3478Y1792*
X3468Y1794*
G37*
G36*
X1306Y1815D02*
X1293D01*
X1280Y1811*
X1269Y1805*
X1259Y1795*
X1253Y1784*
X1250Y1771*
Y1758*
X1253Y1745*
X1259Y1734*
X1269Y1724*
X1280Y1718*
X1293Y1715*
X1306*
X1319Y1718*
X1330Y1724*
X1340Y1734*
X1346Y1745*
X1350Y1758*
Y1771*
X1346Y1784*
X1340Y1795*
X1330Y1805*
X1319Y1811*
X1306Y1815*
G37*
G36*
X4259Y1728D02*
X4243D01*
Y1711*
X4250Y1714*
X4256Y1720*
X4259Y1728*
G37*
G36*
X4233D02*
X4216D01*
X4219Y1720*
X4225Y1714*
X4233Y1711*
Y1728*
G37*
G36*
X4831Y1820D02*
X4824D01*
X4816Y1818*
X4810Y1815*
X4804Y1809*
X4801Y1803*
X4799Y1795*
Y1788*
X4800Y1784*
X4796Y1782*
X4789Y1775*
X4784Y1766*
X4782Y1756*
Y1747*
X4784Y1737*
X4789Y1728*
X4796Y1721*
X4805Y1716*
X4815Y1714*
X4824*
X4834Y1716*
X4843Y1721*
X4847Y1725*
X4852Y1724*
X4853Y1723*
X4856Y1717*
X4862Y1711*
X4868Y1708*
X4876Y1706*
X4883*
X4891Y1708*
X4897Y1711*
X4903Y1717*
X4906Y1723*
X4908Y1731*
Y1738*
X4906Y1746*
X4903Y1752*
X4897Y1758*
X4891Y1761*
X4883Y1763*
X4876*
X4868Y1761*
X4862Y1758*
X4856Y1759*
X4855Y1766*
X4850Y1774*
X4851Y1774*
X4854Y1780*
X4856Y1788*
Y1795*
X4854Y1803*
X4851Y1809*
X4845Y1815*
X4839Y1818*
X4831Y1820*
G37*
G36*
X3051Y1779D02*
X3042D01*
X3032Y1777*
X3023Y1772*
X3016Y1765*
X3011Y1756*
X3009Y1746*
Y1737*
X3011Y1727*
X3016Y1718*
X3023Y1711*
X3032Y1706*
X3042Y1704*
X3051*
X3061Y1706*
X3070Y1711*
X3077Y1718*
X3082Y1727*
X3084Y1737*
Y1746*
X3082Y1756*
X3077Y1765*
X3070Y1772*
X3061Y1777*
X3051Y1779*
G37*
G36*
X1491Y1800D02*
X1478D01*
X1465Y1796*
X1454Y1790*
X1444Y1780*
X1438Y1769*
X1435Y1756*
Y1743*
X1438Y1730*
X1444Y1719*
X1454Y1709*
X1465Y1703*
X1478Y1700*
X1491*
X1504Y1703*
X1515Y1709*
X1525Y1719*
X1531Y1730*
X1535Y1743*
Y1756*
X1531Y1769*
X1525Y1780*
X1515Y1790*
X1504Y1796*
X1491Y1800*
G37*
G36*
X3693Y1739D02*
X3684D01*
X3674Y1737*
X3665Y1732*
X3658Y1725*
X3653Y1716*
X3651Y1706*
Y1697*
X3653Y1687*
X3658Y1678*
X3665Y1671*
X3674Y1666*
X3684Y1664*
X3693*
X3703Y1666*
X3712Y1671*
X3719Y1678*
X3724Y1687*
X3726Y1697*
Y1706*
X3724Y1716*
X3719Y1725*
X3712Y1732*
X3703Y1737*
X3693Y1739*
G37*
G36*
X3284Y1729D02*
X3275D01*
X3265Y1727*
X3256Y1722*
X3249Y1715*
X3244Y1706*
X3242Y1696*
Y1687*
X3244Y1677*
X3249Y1668*
X3256Y1661*
X3265Y1656*
X3275Y1654*
X3284*
X3294Y1656*
X3303Y1661*
X3310Y1668*
X3315Y1677*
X3317Y1687*
Y1696*
X3315Y1706*
X3310Y1715*
X3303Y1722*
X3294Y1727*
X3284Y1729*
G37*
G36*
X4836Y1666D02*
Y1650D01*
X4852*
X4849Y1657*
X4843Y1663*
X4836Y1666*
G37*
G36*
X5981Y1735D02*
X5968D01*
X5955Y1731*
X5944Y1725*
X5934Y1715*
X5928Y1704*
X5925Y1691*
Y1678*
X5928Y1665*
X5934Y1654*
X5944Y1644*
X5955Y1638*
X5968Y1635*
X5981*
X5994Y1638*
X6005Y1644*
X6015Y1654*
X6021Y1665*
X6025Y1678*
Y1691*
X6021Y1704*
X6015Y1715*
X6005Y1725*
X5994Y1731*
X5981Y1735*
G37*
G36*
X1051Y1730D02*
X1038D01*
X1025Y1726*
X1014Y1720*
X1004Y1710*
X998Y1699*
X995Y1686*
Y1673*
X998Y1660*
X1004Y1649*
X1014Y1639*
X1025Y1633*
X1038Y1630*
X1051*
X1064Y1633*
X1075Y1639*
X1085Y1649*
X1091Y1660*
X1095Y1673*
Y1686*
X1091Y1699*
X1085Y1710*
X1075Y1720*
X1064Y1726*
X1051Y1730*
G37*
G36*
X596Y1725D02*
X583D01*
X570Y1721*
X559Y1715*
X549Y1705*
X543Y1694*
X540Y1681*
Y1668*
X543Y1655*
X549Y1644*
X559Y1634*
X570Y1628*
X583Y1625*
X596*
X609Y1628*
X620Y1634*
X630Y1644*
X636Y1655*
X640Y1668*
Y1681*
X636Y1694*
X630Y1705*
X620Y1715*
X609Y1721*
X596Y1725*
G37*
G36*
X4852Y1640D02*
X4836D01*
Y1623*
X4843Y1626*
X4849Y1632*
X4852Y1640*
G37*
G36*
X4785Y1676D02*
X4776D01*
X4768Y1674*
X4761Y1670*
X4755Y1664*
X4751Y1657*
X4749Y1649*
Y1640*
X4751Y1632*
X4755Y1625*
X4761Y1619*
X4768Y1615*
X4776Y1613*
X4785*
X4793Y1615*
X4800Y1619*
X4806Y1625*
X4808Y1629*
X4814Y1630*
X4818Y1626*
X4826Y1623*
Y1645*
Y1666*
X4818Y1663*
X4814Y1659*
X4808Y1660*
X4806Y1664*
X4800Y1670*
X4793Y1674*
X4785Y1676*
G37*
G36*
X856Y1746D02*
X843D01*
X831Y1743*
X819Y1738*
X808Y1731*
X799Y1722*
X792Y1712*
X787Y1700*
X785Y1687*
Y1674*
X787Y1662*
X792Y1650*
X799Y1639*
X808Y1630*
X819Y1623*
X831Y1618*
X843Y1616*
X856*
X868Y1618*
X880Y1623*
X891Y1630*
X900Y1639*
X907Y1650*
X912Y1662*
X914Y1674*
Y1687*
X912Y1700*
X907Y1712*
X900Y1722*
X891Y1731*
X880Y1738*
X868Y1743*
X856Y1746*
G37*
G36*
X4915Y1628D02*
Y1615D01*
X4928*
X4925Y1620*
X4920Y1625*
X4915Y1628*
G37*
G36*
X4905D02*
X4899Y1625D01*
X4894Y1620*
X4891Y1615*
X4905*
Y1628*
G37*
G36*
X2780Y1687D02*
X2771D01*
X2761Y1685*
X2752Y1680*
X2745Y1673*
X2740Y1664*
X2738Y1654*
Y1645*
X2740Y1635*
X2745Y1626*
X2752Y1619*
X2761Y1614*
X2771Y1612*
X2780*
X2790Y1614*
X2799Y1619*
X2806Y1626*
X2811Y1635*
X2813Y1645*
Y1654*
X2811Y1664*
X2806Y1673*
X2799Y1680*
X2790Y1685*
X2780Y1687*
G37*
G36*
X4928Y1605D02*
X4915D01*
Y1591*
X4920Y1594*
X4925Y1599*
X4928Y1605*
G37*
G36*
X4905D02*
X4891D01*
X4894Y1599*
X4899Y1594*
X4905Y1591*
Y1605*
G37*
G36*
X4077Y1739D02*
X4068D01*
X4058Y1737*
X4049Y1732*
X4042Y1725*
X4037Y1716*
X4035Y1706*
Y1697*
X4037Y1687*
X4042Y1678*
X4049Y1671*
X4058Y1666*
X4059Y1666*
X4060Y1661*
X4054Y1657*
X4047Y1650*
X4042Y1642*
X4040Y1632*
Y1622*
X4042Y1613*
X4047Y1604*
X4054Y1597*
X4063Y1592*
X4073Y1590*
X4082*
X4092Y1592*
X4101Y1597*
X4108Y1604*
X4113Y1613*
X4115Y1622*
Y1632*
X4113Y1642*
X4108Y1650*
X4101Y1657*
X4092Y1662*
X4091Y1663*
X4090Y1668*
X4096Y1671*
X4103Y1678*
X4108Y1687*
X4110Y1697*
Y1706*
X4108Y1716*
X4103Y1725*
X4096Y1732*
X4087Y1737*
X4077Y1739*
G37*
G36*
X5479Y1638D02*
X5472D01*
X5464Y1636*
X5458Y1633*
X5452Y1627*
X5449Y1621*
X5447Y1613*
Y1606*
X5449Y1598*
X5452Y1592*
X5458Y1586*
X5464Y1583*
X5472Y1581*
X5479*
X5487Y1583*
X5493Y1586*
X5499Y1592*
X5502Y1598*
X5504Y1606*
Y1613*
X5502Y1621*
X5499Y1627*
X5493Y1633*
X5487Y1636*
X5479Y1638*
G37*
G36*
X4200Y1599D02*
Y1577D01*
X4222*
X4220Y1582*
X4217Y1589*
X4212Y1594*
X4205Y1597*
X4200Y1599*
G37*
G36*
X4190D02*
X4184Y1597D01*
X4177Y1594*
X4172Y1589*
X4169Y1582*
X4167Y1577*
X4190*
Y1599*
G37*
G36*
X1876Y1665D02*
X1863D01*
X1850Y1661*
X1839Y1655*
X1829Y1645*
X1823Y1634*
X1820Y1621*
Y1608*
X1823Y1595*
X1829Y1584*
X1839Y1574*
X1850Y1568*
X1863Y1565*
X1876*
X1889Y1568*
X1900Y1574*
X1910Y1584*
X1916Y1595*
X1920Y1608*
Y1621*
X1916Y1634*
X1910Y1645*
X1900Y1655*
X1889Y1661*
X1876Y1665*
G37*
G36*
X1274Y1638D02*
X1265D01*
X1255Y1636*
X1246Y1631*
X1239Y1624*
X1234Y1615*
X1232Y1605*
Y1596*
X1234Y1586*
X1239Y1577*
X1246Y1570*
X1255Y1565*
X1265Y1563*
X1274*
X1284Y1565*
X1293Y1570*
X1300Y1577*
X1305Y1586*
X1307Y1596*
Y1605*
X1305Y1615*
X1300Y1624*
X1293Y1631*
X1284Y1636*
X1274Y1638*
G37*
G36*
X3825Y1590D02*
X3825D01*
Y1555*
X3860*
Y1555*
X3857Y1565*
X3852Y1574*
X3844Y1582*
X3835Y1587*
X3825Y1590*
G37*
G36*
X3815D02*
X3814D01*
X3804Y1587*
X3795Y1582*
X3787Y1574*
X3782Y1565*
X3780Y1555*
Y1555*
X3815*
Y1590*
G37*
G36*
X4222Y1567D02*
X4200D01*
Y1544*
X4205Y1546*
X4212Y1549*
X4217Y1554*
X4220Y1561*
X4222Y1567*
G37*
G36*
X4190D02*
X4167D01*
X4169Y1561*
X4172Y1554*
X4177Y1549*
X4184Y1546*
X4190Y1544*
Y1567*
G37*
G36*
X3860Y1545D02*
X3825D01*
Y1510*
X3825*
X3835Y1512*
X3844Y1517*
X3852Y1525*
X3857Y1534*
X3860Y1544*
Y1545*
G37*
G36*
X3815D02*
X3780D01*
Y1544*
X3782Y1534*
X3787Y1525*
X3795Y1517*
X3804Y1512*
X3814Y1510*
X3815*
Y1545*
G37*
G36*
X4403Y1548D02*
X4396D01*
X4388Y1546*
X4382Y1543*
X4376Y1537*
X4373Y1531*
X4371Y1523*
Y1516*
X4373Y1508*
X4376Y1502*
X4382Y1496*
X4388Y1493*
X4396Y1491*
X4403*
X4411Y1493*
X4417Y1496*
X4423Y1502*
X4426Y1508*
X4428Y1516*
Y1523*
X4426Y1531*
X4423Y1537*
X4417Y1543*
X4411Y1546*
X4403Y1548*
G37*
G36*
X631Y1550D02*
X618D01*
X605Y1546*
X594Y1540*
X584Y1530*
X578Y1519*
X575Y1506*
Y1493*
X578Y1480*
X584Y1469*
X594Y1459*
X605Y1453*
X618Y1450*
X631*
X644Y1453*
X655Y1459*
X665Y1469*
X671Y1480*
X675Y1493*
Y1506*
X671Y1519*
X665Y1530*
X655Y1540*
X644Y1546*
X631Y1550*
G37*
G36*
X4784Y1520D02*
X4774D01*
X4764Y1517*
X4756Y1512*
X4749Y1505*
X4744Y1497*
X4741Y1487*
Y1477*
X4744Y1468*
X4749Y1459*
X4756Y1452*
X4764Y1447*
X4774Y1445*
X4784*
X4794Y1447*
X4802Y1452*
X4809Y1459*
X4814Y1468*
X4817Y1477*
Y1487*
X4814Y1497*
X4809Y1505*
X4802Y1512*
X4794Y1517*
X4784Y1520*
G37*
G36*
X4871Y1519D02*
X4862D01*
X4852Y1517*
X4843Y1512*
X4836Y1505*
X4831Y1496*
X4829Y1486*
Y1477*
X4831Y1467*
X4836Y1458*
X4843Y1451*
X4852Y1446*
X4862Y1444*
X4871*
X4881Y1446*
X4890Y1451*
X4897Y1458*
X4902Y1467*
X4904Y1477*
Y1486*
X4902Y1496*
X4897Y1505*
X4890Y1512*
X4881Y1517*
X4871Y1519*
G37*
G36*
X1780Y1470D02*
X1780D01*
Y1435*
X1815*
Y1435*
X1812Y1445*
X1807Y1454*
X1799Y1462*
X1790Y1467*
X1780Y1470*
G37*
G36*
X1770D02*
X1769D01*
X1759Y1467*
X1750Y1462*
X1742Y1454*
X1737Y1445*
X1735Y1435*
Y1435*
X1770*
Y1470*
G37*
G36*
X1620D02*
X1620D01*
Y1435*
X1655*
Y1435*
X1652Y1445*
X1647Y1454*
X1639Y1462*
X1630Y1467*
X1620Y1470*
G37*
G36*
X1610D02*
X1609D01*
X1599Y1467*
X1590Y1462*
X1582Y1454*
X1577Y1445*
X1575Y1435*
Y1435*
X1610*
Y1470*
G37*
G36*
X806Y1520D02*
X793D01*
X780Y1516*
X769Y1510*
X759Y1500*
X753Y1489*
X750Y1476*
Y1463*
X753Y1450*
X759Y1439*
X769Y1429*
X780Y1423*
X793Y1420*
X806*
X819Y1423*
X830Y1429*
X840Y1439*
X846Y1450*
X850Y1463*
Y1476*
X846Y1489*
X840Y1500*
X830Y1510*
X819Y1516*
X806Y1520*
G37*
G36*
X5976Y1505D02*
X5963D01*
X5950Y1501*
X5939Y1495*
X5929Y1485*
X5923Y1474*
X5920Y1461*
Y1448*
X5923Y1435*
X5929Y1424*
X5939Y1414*
X5950Y1408*
X5963Y1405*
X5976*
X5989Y1408*
X6000Y1414*
X6010Y1424*
X6016Y1435*
X6020Y1448*
Y1461*
X6016Y1474*
X6010Y1485*
X6000Y1495*
X5989Y1501*
X5976Y1505*
G37*
G36*
X5016Y1495D02*
X5003D01*
X4990Y1491*
X4979Y1485*
X4969Y1475*
X4963Y1464*
X4960Y1451*
Y1438*
X4963Y1425*
X4969Y1414*
X4979Y1404*
X4990Y1398*
X5003Y1395*
X5016*
X5029Y1398*
X5040Y1404*
X5050Y1414*
X5056Y1425*
X5060Y1438*
Y1451*
X5056Y1464*
X5050Y1475*
X5040Y1485*
X5029Y1491*
X5016Y1495*
G37*
G36*
X4303Y1448D02*
X4296D01*
X4288Y1446*
X4282Y1443*
X4276Y1437*
X4273Y1431*
X4271Y1423*
Y1416*
X4273Y1408*
X4276Y1402*
X4282Y1396*
X4288Y1393*
X4296Y1391*
X4303*
X4311Y1393*
X4317Y1396*
X4323Y1402*
X4326Y1408*
X4328Y1416*
Y1423*
X4326Y1431*
X4323Y1437*
X4317Y1443*
X4311Y1446*
X4303Y1448*
G37*
G36*
X1815Y1425D02*
X1780D01*
Y1390*
X1780*
X1790Y1392*
X1799Y1397*
X1807Y1405*
X1812Y1414*
X1815Y1424*
Y1425*
G37*
G36*
X1770D02*
X1735D01*
Y1424*
X1737Y1414*
X1742Y1405*
X1750Y1397*
X1759Y1392*
X1769Y1390*
X1770*
Y1425*
G37*
G36*
X1655D02*
X1620D01*
Y1390*
X1620*
X1630Y1392*
X1639Y1397*
X1647Y1405*
X1652Y1414*
X1655Y1424*
Y1425*
G37*
G36*
X1610D02*
X1575D01*
Y1424*
X1577Y1414*
X1582Y1405*
X1590Y1397*
X1599Y1392*
X1609Y1390*
X1610*
Y1425*
G37*
G36*
X5513Y1438D02*
X5506D01*
X5498Y1436*
X5492Y1433*
X5486Y1427*
X5483Y1421*
X5481Y1413*
Y1406*
X5483Y1398*
X5486Y1392*
X5492Y1386*
X5498Y1383*
X5506Y1381*
X5513*
X5521Y1383*
X5527Y1386*
X5533Y1392*
X5536Y1398*
X5538Y1406*
Y1413*
X5536Y1421*
X5533Y1427*
X5527Y1433*
X5521Y1436*
X5513Y1438*
G37*
G36*
X1061Y1480D02*
X1048D01*
X1035Y1476*
X1024Y1470*
X1014Y1460*
X1008Y1449*
X1005Y1436*
Y1423*
X1008Y1410*
X1014Y1399*
X1024Y1389*
X1035Y1383*
X1048Y1380*
X1061*
X1074Y1383*
X1085Y1389*
X1095Y1399*
X1101Y1410*
X1105Y1423*
Y1436*
X1101Y1449*
X1095Y1460*
X1085Y1470*
X1074Y1476*
X1061Y1480*
G37*
G36*
X5211Y1465D02*
X5198D01*
X5185Y1461*
X5174Y1455*
X5164Y1445*
X5158Y1434*
X5155Y1421*
Y1408*
X5158Y1395*
X5164Y1384*
X5174Y1374*
X5185Y1368*
X5198Y1365*
X5211*
X5224Y1368*
X5235Y1374*
X5245Y1384*
X5251Y1395*
X5255Y1408*
Y1421*
X5251Y1434*
X5245Y1445*
X5235Y1455*
X5224Y1461*
X5211Y1465*
G37*
G36*
X5685Y1350D02*
X5685D01*
Y1315*
X5720*
Y1315*
X5717Y1325*
X5712Y1334*
X5704Y1342*
X5695Y1347*
X5685Y1350*
G37*
G36*
X5675D02*
X5674D01*
X5664Y1347*
X5655Y1342*
X5647Y1334*
X5642Y1325*
X5639Y1315*
Y1315*
X5675*
Y1350*
G37*
G36*
X5505Y1327D02*
Y1305D01*
X5527*
X5525Y1310*
X5522Y1317*
X5517Y1322*
X5510Y1325*
X5505Y1327*
G37*
G36*
X5495D02*
X5489Y1325D01*
X5482Y1322*
X5477Y1317*
X5474Y1310*
X5472Y1305*
X5495*
Y1327*
G37*
G36*
X4896Y1405D02*
X4883D01*
X4870Y1401*
X4859Y1395*
X4849Y1385*
X4843Y1374*
X4840Y1361*
Y1348*
X4843Y1335*
X4849Y1324*
X4859Y1314*
X4870Y1308*
X4883Y1305*
X4896*
X4909Y1308*
X4920Y1314*
X4930Y1324*
X4936Y1335*
X4940Y1348*
Y1361*
X4936Y1374*
X4930Y1385*
X4920Y1395*
X4909Y1401*
X4896Y1405*
G37*
G36*
X3928Y1353D02*
X3921D01*
X3913Y1351*
X3907Y1348*
X3901Y1342*
X3898Y1336*
X3896Y1328*
Y1321*
X3898Y1313*
X3901Y1307*
X3907Y1301*
X3913Y1298*
X3921Y1296*
X3928*
X3936Y1298*
X3942Y1301*
X3948Y1307*
X3951Y1313*
X3953Y1321*
Y1328*
X3951Y1336*
X3948Y1342*
X3942Y1348*
X3936Y1351*
X3928Y1353*
G37*
G36*
X5527Y1295D02*
X5505D01*
Y1272*
X5510Y1274*
X5517Y1277*
X5522Y1282*
X5525Y1289*
X5527Y1295*
G37*
G36*
X5495D02*
X5472D01*
X5474Y1289*
X5477Y1282*
X5482Y1277*
X5489Y1274*
X5495Y1272*
Y1295*
G37*
G36*
X1745Y1305D02*
X1745D01*
Y1270*
X1780*
Y1270*
X1777Y1280*
X1772Y1289*
X1764Y1297*
X1755Y1302*
X1745Y1305*
G37*
G36*
X1735D02*
X1734D01*
X1724Y1302*
X1715Y1297*
X1707Y1289*
X1702Y1280*
X1700Y1270*
Y1270*
X1735*
Y1305*
G37*
G36*
X5720D02*
X5685D01*
Y1269*
X5685*
X5695Y1272*
X5704Y1277*
X5712Y1285*
X5717Y1294*
X5720Y1304*
Y1305*
G37*
G36*
X5675D02*
X5639D01*
Y1304*
X5642Y1294*
X5647Y1285*
X5655Y1277*
X5664Y1272*
X5674Y1269*
X5675*
Y1305*
G37*
G36*
X1595Y1300D02*
X1595D01*
Y1265*
X1630*
Y1265*
X1627Y1275*
X1622Y1284*
X1614Y1292*
X1605Y1297*
X1595Y1300*
G37*
G36*
X1585D02*
X1584D01*
X1574Y1297*
X1565Y1292*
X1557Y1284*
X1552Y1275*
X1550Y1265*
Y1265*
X1585*
Y1300*
G37*
G36*
X4442Y1309D02*
X4435D01*
X4428Y1307*
X4421Y1303*
X4416Y1298*
X4412Y1291*
X4410Y1284*
Y1277*
X4412Y1269*
X4416Y1263*
X4421Y1257*
X4428Y1253*
X4435Y1251*
X4442*
X4450Y1253*
X4456Y1257*
X4462Y1263*
X4466Y1269*
X4468Y1277*
Y1284*
X4466Y1291*
X4462Y1298*
X4456Y1303*
X4450Y1307*
X4442Y1309*
G37*
G36*
X571Y1345D02*
X558D01*
X545Y1341*
X534Y1335*
X524Y1325*
X518Y1314*
X515Y1301*
Y1288*
X518Y1275*
X524Y1264*
X534Y1254*
X545Y1248*
X558Y1245*
X571*
X584Y1248*
X595Y1254*
X605Y1264*
X611Y1275*
X615Y1288*
Y1301*
X611Y1314*
X605Y1325*
X595Y1335*
X584Y1341*
X571Y1345*
G37*
G36*
X1780Y1260D02*
X1745D01*
Y1225*
X1745*
X1755Y1227*
X1764Y1232*
X1772Y1240*
X1777Y1249*
X1780Y1259*
Y1260*
G37*
G36*
X1735D02*
X1700D01*
Y1259*
X1702Y1249*
X1707Y1240*
X1715Y1232*
X1724Y1227*
X1734Y1225*
X1735*
Y1260*
G37*
G36*
X4073Y1278D02*
X4066D01*
X4058Y1276*
X4052Y1273*
X4046Y1267*
X4043Y1261*
X4041Y1253*
Y1246*
X4043Y1238*
X4046Y1232*
X4052Y1226*
X4058Y1223*
X4066Y1221*
X4073*
X4081Y1223*
X4087Y1226*
X4093Y1232*
X4096Y1238*
X4098Y1246*
Y1253*
X4096Y1261*
X4093Y1267*
X4087Y1273*
X4081Y1276*
X4073Y1278*
G37*
G36*
X1630Y1255D02*
X1595D01*
Y1220*
X1595*
X1605Y1222*
X1614Y1227*
X1622Y1235*
X1627Y1244*
X1630Y1254*
Y1255*
G37*
G36*
X1585D02*
X1550D01*
Y1254*
X1552Y1244*
X1557Y1235*
X1565Y1227*
X1574Y1222*
X1584Y1220*
X1585*
Y1255*
G37*
G36*
X836Y1320D02*
X823D01*
X810Y1316*
X799Y1310*
X789Y1300*
X783Y1289*
X780Y1276*
Y1263*
X783Y1250*
X789Y1239*
X799Y1229*
X810Y1223*
X823Y1220*
X836*
X849Y1223*
X860Y1229*
X870Y1239*
X876Y1250*
X880Y1263*
Y1276*
X876Y1289*
X870Y1300*
X860Y1310*
X849Y1316*
X836Y1320*
G37*
G36*
X5021Y1310D02*
X5008D01*
X4995Y1306*
X4984Y1300*
X4974Y1290*
X4968Y1279*
X4965Y1266*
Y1253*
X4968Y1240*
X4974Y1229*
X4984Y1219*
X4995Y1213*
X5008Y1210*
X5021*
X5034Y1213*
X5045Y1219*
X5055Y1229*
X5061Y1240*
X5065Y1253*
Y1266*
X5061Y1279*
X5055Y1290*
X5045Y1300*
X5034Y1306*
X5021Y1310*
G37*
G36*
X5336Y1300D02*
X5323D01*
X5310Y1296*
X5299Y1290*
X5289Y1280*
X5283Y1269*
X5280Y1256*
Y1243*
X5283Y1230*
X5289Y1219*
X5299Y1209*
X5310Y1203*
X5323Y1200*
X5336*
X5349Y1203*
X5360Y1209*
X5370Y1219*
X5376Y1230*
X5380Y1243*
Y1256*
X5376Y1269*
X5370Y1280*
X5360Y1290*
X5349Y1296*
X5336Y1300*
G37*
G36*
X5512Y1264D02*
X5503D01*
X5493Y1262*
X5484Y1257*
X5477Y1250*
X5472Y1241*
X5470Y1231*
Y1222*
X5472Y1212*
X5477Y1203*
X5484Y1196*
X5493Y1191*
X5503Y1189*
X5512*
X5522Y1191*
X5531Y1196*
X5538Y1203*
X5543Y1212*
X5545Y1222*
Y1231*
X5543Y1241*
X5538Y1250*
X5531Y1257*
X5522Y1262*
X5512Y1264*
G37*
G36*
X4403Y1238D02*
X4396D01*
X4388Y1236*
X4382Y1233*
X4376Y1227*
X4373Y1221*
X4371Y1213*
Y1206*
X4373Y1198*
X4376Y1192*
X4382Y1186*
X4388Y1183*
X4396Y1181*
X4403*
X4411Y1183*
X4417Y1186*
X4423Y1192*
X4426Y1198*
X4428Y1206*
Y1213*
X4426Y1221*
X4423Y1227*
X4417Y1233*
X4411Y1236*
X4403Y1238*
G37*
G36*
X3591Y1265D02*
X3578D01*
X3565Y1261*
X3554Y1255*
X3544Y1245*
X3538Y1234*
X3535Y1221*
Y1208*
X3538Y1195*
X3544Y1184*
X3554Y1174*
X3565Y1168*
X3578Y1165*
X3591*
X3604Y1168*
X3615Y1174*
X3625Y1184*
X3631Y1195*
X3635Y1208*
Y1221*
X3631Y1234*
X3625Y1245*
X3615Y1255*
X3604Y1261*
X3591Y1265*
G37*
G36*
X2441Y1260D02*
X2428D01*
X2415Y1256*
X2404Y1250*
X2394Y1240*
X2388Y1229*
X2385Y1216*
Y1203*
X2388Y1190*
X2394Y1179*
X2404Y1169*
X2415Y1163*
X2428Y1160*
X2441*
X2454Y1163*
X2465Y1169*
X2475Y1179*
X2481Y1190*
X2485Y1203*
Y1216*
X2481Y1229*
X2475Y1240*
X2465Y1250*
X2454Y1256*
X2441Y1260*
G37*
G36*
X2681Y1250D02*
X2668D01*
X2655Y1246*
X2644Y1240*
X2634Y1230*
X2628Y1219*
X2625Y1206*
Y1193*
X2628Y1180*
X2634Y1169*
X2644Y1159*
X2655Y1153*
X2668Y1150*
X2681*
X2694Y1153*
X2705Y1159*
X2715Y1169*
X2721Y1180*
X2725Y1193*
Y1206*
X2721Y1219*
X2715Y1230*
X2705Y1240*
X2694Y1246*
X2681Y1250*
G37*
G36*
X1273Y1203D02*
X1266D01*
X1258Y1201*
X1252Y1198*
X1246Y1192*
X1243Y1186*
X1241Y1178*
Y1171*
X1243Y1163*
X1246Y1157*
X1252Y1151*
X1258Y1148*
X1266Y1146*
X1273*
X1281Y1148*
X1287Y1151*
X1293Y1157*
X1296Y1163*
X1298Y1171*
Y1178*
X1296Y1186*
X1293Y1192*
X1287Y1198*
X1281Y1201*
X1273Y1203*
G37*
G36*
X5976Y1215D02*
X5963D01*
X5950Y1211*
X5939Y1205*
X5929Y1195*
X5923Y1184*
X5920Y1171*
Y1158*
X5923Y1145*
X5929Y1134*
X5939Y1124*
X5950Y1118*
X5963Y1115*
X5976*
X5989Y1118*
X6000Y1124*
X6010Y1134*
X6016Y1145*
X6020Y1158*
Y1171*
X6016Y1184*
X6010Y1195*
X6000Y1205*
X5989Y1211*
X5976Y1215*
G37*
G36*
X1991Y1190D02*
X1978D01*
X1965Y1186*
X1954Y1180*
X1944Y1170*
X1938Y1159*
X1935Y1146*
Y1133*
X1938Y1120*
X1944Y1109*
X1954Y1099*
X1965Y1093*
X1978Y1090*
X1991*
X2004Y1093*
X2015Y1099*
X2025Y1109*
X2031Y1120*
X2035Y1133*
Y1146*
X2031Y1159*
X2025Y1170*
X2015Y1180*
X2004Y1186*
X1991Y1190*
G37*
G36*
X5191Y1160D02*
X5178D01*
X5165Y1156*
X5154Y1150*
X5144Y1140*
X5138Y1129*
X5135Y1116*
Y1103*
X5138Y1090*
X5144Y1079*
X5154Y1069*
X5165Y1063*
X5178Y1060*
X5191*
X5204Y1063*
X5215Y1069*
X5225Y1079*
X5231Y1090*
X5235Y1103*
Y1116*
X5231Y1129*
X5225Y1140*
X5215Y1150*
X5204Y1156*
X5191Y1160*
G37*
G36*
X4013Y1098D02*
X4006D01*
X3998Y1096*
X3992Y1093*
X3986Y1087*
X3983Y1081*
X3981Y1073*
Y1066*
X3983Y1058*
X3986Y1052*
X3992Y1046*
X3998Y1043*
X4006Y1041*
X4013*
X4021Y1043*
X4027Y1046*
X4033Y1052*
X4036Y1058*
X4038Y1066*
Y1073*
X4036Y1081*
X4033Y1087*
X4027Y1093*
X4021Y1096*
X4013Y1098*
G37*
G36*
X5451Y1115D02*
X5438D01*
X5425Y1111*
X5414Y1105*
X5404Y1095*
X5398Y1084*
X5395Y1071*
Y1058*
X5398Y1045*
X5404Y1034*
X5414Y1024*
X5425Y1018*
X5438Y1015*
X5451*
X5464Y1018*
X5475Y1024*
X5485Y1034*
X5491Y1045*
X5495Y1058*
Y1071*
X5491Y1084*
X5485Y1095*
X5475Y1105*
X5464Y1111*
X5451Y1115*
G37*
G36*
X1621Y1110D02*
X1608D01*
X1595Y1106*
X1584Y1100*
X1574Y1090*
X1568Y1079*
X1565Y1066*
Y1053*
X1568Y1040*
X1574Y1029*
X1584Y1019*
X1595Y1013*
X1608Y1010*
X1621*
X1634Y1013*
X1645Y1019*
X1655Y1029*
X1661Y1040*
X1665Y1053*
Y1066*
X1661Y1079*
X1655Y1090*
X1645Y1100*
X1634Y1106*
X1621Y1110*
G37*
G36*
X4053Y1048D02*
X4046D01*
X4038Y1046*
X4032Y1043*
X4026Y1037*
X4023Y1031*
X4021Y1023*
Y1016*
X4023Y1008*
X4026Y1002*
X4032Y996*
X4038Y993*
X4046Y991*
X4053*
X4061Y993*
X4067Y996*
X4073Y1002*
X4076Y1008*
X4078Y1016*
Y1023*
X4076Y1031*
X4073Y1037*
X4067Y1043*
X4061Y1046*
X4053Y1048*
G37*
G36*
X471Y1085D02*
X458D01*
X445Y1081*
X434Y1075*
X424Y1065*
X418Y1054*
X415Y1041*
Y1028*
X418Y1015*
X424Y1004*
X434Y994*
X445Y988*
X458Y985*
X471*
X484Y988*
X495Y994*
X505Y1004*
X511Y1015*
X515Y1028*
Y1041*
X511Y1054*
X505Y1065*
X495Y1075*
X484Y1081*
X471Y1085*
G37*
G36*
X4433Y1158D02*
X4426D01*
X4418Y1156*
X4412Y1153*
X4406Y1147*
X4403Y1141*
X4401Y1133*
Y1126*
X4403Y1118*
X4406Y1112*
X4412Y1106*
X4418Y1103*
X4426Y1101*
X4426*
X4427Y1096*
X4422Y1093*
X4416Y1087*
X4413Y1081*
X4411Y1073*
Y1066*
X4413Y1058*
X4416Y1052*
X4422Y1046*
X4428Y1043*
X4430Y1042*
Y1037*
X4428Y1036*
X4422Y1033*
X4416Y1027*
X4413Y1021*
X4411Y1013*
Y1006*
X4413Y998*
X4416Y992*
X4422Y986*
X4428Y983*
X4436Y981*
X4443*
X4451Y983*
X4457Y986*
X4463Y992*
X4466Y998*
X4468Y1006*
Y1013*
X4466Y1021*
X4463Y1027*
X4457Y1033*
X4451Y1036*
X4449Y1037*
Y1042*
X4451Y1043*
X4457Y1046*
X4463Y1052*
X4466Y1058*
X4468Y1066*
Y1073*
X4466Y1081*
X4463Y1087*
X4457Y1093*
X4451Y1096*
X4443Y1098*
X4443*
X4442Y1103*
X4447Y1106*
X4453Y1112*
X4456Y1118*
X4458Y1126*
Y1133*
X4456Y1141*
X4453Y1147*
X4447Y1153*
X4441Y1156*
X4433Y1158*
G37*
G36*
X5736Y1075D02*
X5723D01*
X5710Y1071*
X5699Y1065*
X5689Y1055*
X5683Y1044*
X5680Y1031*
Y1018*
X5683Y1005*
X5689Y994*
X5699Y984*
X5710Y978*
X5723Y975*
X5736*
X5749Y978*
X5760Y984*
X5770Y994*
X5776Y1005*
X5780Y1018*
Y1031*
X5776Y1044*
X5770Y1055*
X5760Y1065*
X5749Y1071*
X5736Y1075*
G37*
G36*
X2716D02*
X2703D01*
X2690Y1071*
X2679Y1065*
X2669Y1055*
X2663Y1044*
X2660Y1031*
Y1018*
X2663Y1005*
X2669Y994*
X2679Y984*
X2690Y978*
X2703Y975*
X2716*
X2729Y978*
X2740Y984*
X2750Y994*
X2756Y1005*
X2760Y1018*
Y1031*
X2756Y1044*
X2750Y1055*
X2740Y1065*
X2729Y1071*
X2716Y1075*
G37*
G36*
X3891Y1060D02*
X3878D01*
X3865Y1056*
X3854Y1050*
X3844Y1040*
X3838Y1029*
X3835Y1016*
Y1003*
X3838Y990*
X3844Y979*
X3854Y969*
X3865Y963*
X3878Y960*
X3891*
X3904Y963*
X3915Y969*
X3925Y979*
X3931Y990*
X3935Y1003*
Y1016*
X3931Y1029*
X3925Y1040*
X3915Y1050*
X3904Y1056*
X3891Y1060*
G37*
G36*
X1466Y1045D02*
X1453D01*
X1440Y1041*
X1429Y1035*
X1419Y1025*
X1413Y1014*
X1410Y1001*
Y988*
X1413Y975*
X1419Y964*
X1429Y954*
X1440Y948*
X1453Y945*
X1466*
X1479Y948*
X1490Y954*
X1500Y964*
X1506Y975*
X1510Y988*
Y1001*
X1506Y1014*
X1500Y1025*
X1490Y1035*
X1479Y1041*
X1466Y1045*
G37*
G36*
X4253Y978D02*
X4246D01*
X4238Y976*
X4232Y973*
X4226Y967*
X4223Y961*
X4221Y953*
Y946*
X4223Y938*
X4226Y932*
X4232Y926*
X4238Y923*
X4246Y921*
X4253*
X4261Y923*
X4267Y926*
X4273Y932*
X4276Y938*
X4278Y946*
Y953*
X4276Y961*
X4273Y967*
X4267Y973*
X4261Y976*
X4253Y978*
G37*
G36*
X5331Y1010D02*
X5318D01*
X5305Y1006*
X5294Y1000*
X5284Y990*
X5278Y979*
X5275Y966*
Y953*
X5278Y940*
X5284Y929*
X5294Y919*
X5305Y913*
X5318Y910*
X5331*
X5344Y913*
X5355Y919*
X5365Y929*
X5371Y940*
X5375Y953*
Y966*
X5371Y979*
X5365Y990*
X5355Y1000*
X5344Y1006*
X5331Y1010*
G37*
G36*
X2401Y1000D02*
X2388D01*
X2375Y996*
X2364Y990*
X2354Y980*
X2348Y969*
X2345Y956*
Y943*
X2348Y930*
X2354Y919*
X2364Y909*
X2375Y903*
X2388Y900*
X2401*
X2414Y903*
X2425Y909*
X2435Y919*
X2441Y930*
X2445Y943*
Y956*
X2441Y969*
X2435Y980*
X2425Y990*
X2414Y996*
X2401Y1000*
G37*
G36*
X1771Y990D02*
X1758D01*
X1745Y986*
X1734Y980*
X1724Y970*
X1718Y959*
X1715Y946*
Y933*
X1718Y920*
X1724Y909*
X1734Y899*
X1745Y893*
X1758Y890*
X1771*
X1784Y893*
X1795Y899*
X1805Y909*
X1811Y920*
X1815Y933*
Y946*
X1811Y959*
X1805Y970*
X1795Y980*
X1784Y986*
X1771Y990*
G37*
G36*
X1550Y900D02*
X1550D01*
Y865*
X1585*
Y865*
X1582Y875*
X1577Y884*
X1569Y892*
X1560Y897*
X1550Y900*
G37*
G36*
X1540D02*
X1539D01*
X1529Y897*
X1520Y892*
X1512Y884*
X1507Y875*
X1505Y865*
Y865*
X1540*
Y900*
G37*
G36*
X5576Y945D02*
X5563D01*
X5550Y941*
X5539Y935*
X5529Y925*
X5523Y914*
X5520Y901*
Y888*
X5523Y875*
X5529Y864*
X5539Y854*
X5550Y848*
X5563Y845*
X5576*
X5589Y848*
X5600Y854*
X5610Y864*
X5616Y875*
X5620Y888*
Y901*
X5616Y914*
X5610Y925*
X5600Y935*
X5589Y941*
X5576Y945*
G37*
G36*
X4153Y898D02*
X4146D01*
X4138Y896*
X4132Y893*
X4126Y887*
X4123Y881*
X4121Y873*
Y866*
X4123Y858*
X4126Y852*
X4132Y846*
X4138Y843*
X4146Y841*
X4153*
X4161Y843*
X4167Y846*
X4173Y852*
X4176Y858*
X4178Y866*
Y873*
X4176Y881*
X4173Y887*
X4167Y893*
X4161Y896*
X4153Y898*
G37*
G36*
X5991Y920D02*
X5978D01*
X5965Y916*
X5954Y910*
X5944Y900*
X5938Y889*
X5935Y876*
Y863*
X5938Y850*
X5944Y839*
X5954Y829*
X5965Y823*
X5978Y820*
X5991*
X6004Y823*
X6015Y829*
X6025Y839*
X6031Y850*
X6035Y863*
Y876*
X6031Y889*
X6025Y900*
X6015Y910*
X6004Y916*
X5991Y920*
G37*
G36*
X1585Y855D02*
X1550D01*
Y820*
X1550*
X1560Y822*
X1569Y827*
X1577Y835*
X1582Y844*
X1585Y854*
Y855*
G37*
G36*
X1540D02*
X1505D01*
Y854*
X1507Y844*
X1512Y835*
X1520Y827*
X1529Y822*
X1539Y820*
X1540*
Y855*
G37*
G36*
X496Y915D02*
X483D01*
X470Y911*
X459Y905*
X449Y895*
X443Y884*
X440Y871*
Y858*
X443Y845*
X449Y834*
X459Y824*
X470Y818*
X483Y815*
X496*
X509Y818*
X520Y824*
X530Y834*
X536Y845*
X540Y858*
Y871*
X536Y884*
X530Y895*
X520Y905*
X509Y911*
X496Y915*
G37*
G36*
X1221Y910D02*
X1208D01*
X1195Y906*
X1184Y900*
X1174Y890*
X1168Y879*
X1165Y866*
Y853*
X1168Y840*
X1174Y829*
X1184Y819*
X1195Y813*
X1208Y810*
X1221*
X1234Y813*
X1245Y819*
X1255Y829*
X1261Y840*
X1265Y853*
Y866*
X1261Y879*
X1255Y890*
X1245Y900*
X1234Y906*
X1221Y910*
G37*
G36*
X1066Y900D02*
X1053D01*
X1040Y896*
X1029Y890*
X1019Y880*
X1013Y869*
X1010Y856*
Y843*
X1013Y830*
X1019Y819*
X1029Y809*
X1040Y803*
X1053Y800*
X1066*
X1079Y803*
X1090Y809*
X1100Y819*
X1106Y830*
X1110Y843*
Y856*
X1106Y869*
X1100Y880*
X1090Y890*
X1079Y896*
X1066Y900*
G37*
G36*
X3951Y865D02*
X3938D01*
X3925Y861*
X3914Y855*
X3904Y845*
X3898Y834*
X3895Y821*
Y808*
X3898Y795*
X3904Y784*
X3914Y774*
X3925Y768*
X3938Y765*
X3951*
X3964Y768*
X3975Y774*
X3985Y784*
X3991Y795*
X3995Y808*
Y821*
X3991Y834*
X3985Y845*
X3975Y855*
X3964Y861*
X3951Y865*
G37*
G36*
X2266D02*
X2253D01*
X2240Y861*
X2229Y855*
X2219Y845*
X2213Y834*
X2210Y821*
Y808*
X2213Y795*
X2219Y784*
X2229Y774*
X2240Y768*
X2253Y765*
X2266*
X2279Y768*
X2290Y774*
X2300Y784*
X2306Y795*
X2310Y808*
Y821*
X2306Y834*
X2300Y845*
X2290Y855*
X2279Y861*
X2266Y865*
G37*
G36*
X4343Y818D02*
X4336D01*
X4328Y816*
X4322Y813*
X4316Y807*
X4313Y801*
X4311Y793*
Y786*
X4313Y778*
X4316Y772*
X4322Y766*
X4328Y763*
X4336Y761*
X4343*
X4351Y763*
X4357Y766*
X4363Y772*
X4366Y778*
X4368Y786*
Y793*
X4366Y801*
X4363Y807*
X4357Y813*
X4351Y816*
X4343Y818*
G37*
G36*
X2509Y794D02*
X2470D01*
Y755*
X2509*
Y794*
G37*
G36*
X5771Y855D02*
X5758D01*
X5745Y851*
X5734Y845*
X5724Y835*
X5718Y824*
X5715Y811*
Y798*
X5718Y785*
X5724Y774*
X5734Y764*
X5745Y758*
X5758Y755*
X5771*
X5784Y758*
X5795Y764*
X5805Y774*
X5811Y785*
X5815Y798*
Y811*
X5811Y824*
X5805Y835*
X5795Y845*
X5784Y851*
X5771Y855*
G37*
G36*
X2460Y794D02*
X2420D01*
Y755*
X2460*
Y794*
G37*
G36*
X2731Y850D02*
X2718D01*
X2705Y846*
X2694Y840*
X2684Y830*
X2678Y819*
X2675Y806*
Y793*
X2678Y780*
X2684Y769*
X2694Y759*
X2705Y753*
X2718Y750*
X2731*
X2744Y753*
X2755Y759*
X2765Y769*
X2771Y780*
X2775Y793*
Y806*
X2771Y819*
X2765Y830*
X2755Y840*
X2744Y846*
X2731Y850*
G37*
G36*
X2509Y745D02*
X2470D01*
Y705*
X2509*
Y745*
G37*
G36*
X2460D02*
X2420D01*
Y705*
X2460*
Y745*
G37*
G36*
X5471Y805D02*
X5458D01*
X5445Y801*
X5434Y795*
X5424Y785*
X5418Y774*
X5415Y761*
Y748*
X5418Y735*
X5424Y724*
X5434Y714*
X5445Y708*
X5458Y705*
X5471*
X5484Y708*
X5495Y714*
X5505Y724*
X5511Y735*
X5515Y748*
Y761*
X5511Y774*
X5505Y785*
X5495Y795*
X5484Y801*
X5471Y805*
G37*
G36*
X1881Y804D02*
X1867D01*
X1853Y800*
X1841Y793*
X1831Y783*
X1823Y771*
X1820Y757*
Y742*
X1823Y728*
X1831Y716*
X1841Y706*
X1853Y699*
X1867Y695*
X1881*
X1895Y699*
X1908Y706*
X1918Y716*
X1925Y728*
X1929Y742*
Y757*
X1925Y771*
X1918Y783*
X1908Y793*
X1895Y800*
X1881Y804*
G37*
G36*
X681Y750D02*
X668D01*
X655Y746*
X644Y740*
X634Y730*
X628Y719*
X625Y706*
Y693*
X628Y680*
X634Y669*
X644Y659*
X655Y653*
X668Y650*
X681*
X694Y653*
X705Y659*
X715Y669*
X721Y680*
X725Y693*
Y706*
X721Y719*
X715Y730*
X705Y740*
X694Y746*
X681Y750*
G37*
G36*
X1541Y685D02*
X1528D01*
X1515Y681*
X1504Y675*
X1494Y665*
X1488Y654*
X1485Y641*
Y628*
X1488Y615*
X1494Y604*
X1504Y594*
X1515Y588*
X1528Y585*
X1541*
X1554Y588*
X1565Y594*
X1575Y604*
X1581Y615*
X1585Y628*
Y641*
X1581Y654*
X1575Y665*
X1565Y675*
X1554Y681*
X1541Y685*
G37*
G36*
X6001Y680D02*
X5988D01*
X5975Y676*
X5964Y670*
X5954Y660*
X5948Y649*
X5945Y636*
Y623*
X5948Y610*
X5954Y599*
X5964Y589*
X5975Y583*
X5988Y580*
X6001*
X6014Y583*
X6025Y589*
X6035Y599*
X6041Y610*
X6045Y623*
Y636*
X6041Y649*
X6035Y660*
X6025Y670*
X6014Y676*
X6001Y680*
G37*
G36*
X5641D02*
X5628D01*
X5615Y676*
X5604Y670*
X5594Y660*
X5588Y649*
X5585Y636*
Y623*
X5588Y610*
X5594Y599*
X5604Y589*
X5615Y583*
X5628Y580*
X5641*
X5654Y583*
X5665Y589*
X5675Y599*
X5681Y610*
X5685Y623*
Y636*
X5681Y649*
X5675Y660*
X5665Y670*
X5654Y676*
X5641Y680*
G37*
G36*
X506Y675D02*
X493D01*
X480Y671*
X469Y665*
X459Y655*
X453Y644*
X450Y631*
Y618*
X453Y605*
X459Y594*
X469Y584*
X480Y578*
X493Y575*
X506*
X519Y578*
X530Y584*
X540Y594*
X546Y605*
X550Y618*
Y631*
X546Y644*
X540Y655*
X530Y665*
X519Y671*
X506Y675*
G37*
G36*
X5404Y602D02*
X5391D01*
X5378Y598*
X5366Y591*
X5356Y582*
X5350Y571*
X5349Y571*
X5346*
X5345Y571*
X5339Y582*
X5329Y591*
X5317Y598*
X5304Y602*
X5291*
X5278Y598*
X5266Y591*
X5256Y582*
X5250Y571*
X5249Y571*
X5246*
X5245Y571*
X5239Y582*
X5229Y591*
X5217Y598*
X5204Y602*
X5191*
X5178Y598*
X5166Y591*
X5156Y582*
X5150Y571*
X5149Y571*
X5146*
X5145Y571*
X5139Y582*
X5129Y591*
X5117Y598*
X5104Y602*
X5091*
X5078Y598*
X5066Y591*
X5056Y582*
X5050Y570*
X5046Y557*
Y543*
X5050Y530*
X5056Y519*
X5066Y509*
X5076Y503*
X5077Y501*
Y499*
X5076Y497*
X5066Y491*
X5056Y482*
X5050Y470*
X5046Y457*
Y443*
X5050Y430*
X5056Y419*
X5066Y409*
X5078Y402*
X5091Y399*
X5104*
X5117Y402*
X5129Y409*
X5139Y419*
X5145Y429*
X5146Y429*
X5149*
X5150Y429*
X5156Y419*
X5166Y409*
X5178Y402*
X5191Y399*
X5204*
X5217Y402*
X5229Y409*
X5239Y419*
X5245Y429*
X5246Y429*
X5249*
X5250Y429*
X5256Y419*
X5266Y409*
X5278Y402*
X5291Y399*
X5304*
X5317Y402*
X5329Y409*
X5339Y419*
X5345Y429*
X5346Y429*
X5349*
X5350Y429*
X5356Y419*
X5366Y409*
X5378Y402*
X5391Y399*
X5404*
X5417Y402*
X5429Y409*
X5439Y419*
X5445Y429*
X5446Y429*
X5449*
X5450Y429*
X5456Y419*
X5466Y409*
X5478Y402*
X5491Y399*
X5504*
X5517Y402*
X5529Y409*
X5539Y419*
X5546Y430*
X5549Y443*
Y457*
X5546Y470*
X5539Y482*
X5529Y491*
X5517Y498*
X5504Y502*
X5491*
X5478Y498*
X5466Y491*
X5456Y482*
X5450Y471*
X5449Y471*
X5446*
X5445Y471*
X5439Y482*
X5429Y491*
X5419Y497*
X5418Y499*
Y501*
X5419Y503*
X5429Y509*
X5439Y519*
X5446Y530*
X5449Y543*
Y557*
X5446Y570*
X5439Y582*
X5429Y591*
X5417Y598*
X5404Y602*
G37*
G36*
X4506Y601D02*
X4493D01*
X4480Y597*
X4468Y591*
X4458Y581*
X4452Y571*
X4451Y570*
X4448*
X4447Y571*
X4441Y581*
X4431Y591*
X4419Y597*
X4406Y601*
X4393*
X4380Y597*
X4368Y591*
X4358Y581*
X4352Y571*
X4351Y570*
X4348*
X4347Y571*
X4341Y581*
X4331Y591*
X4319Y597*
X4306Y601*
X4293*
X4280Y597*
X4268Y591*
X4258Y581*
X4252Y571*
X4251Y570*
X4248*
X4247Y571*
X4241Y581*
X4231Y591*
X4219Y597*
X4206Y601*
X4193*
X4180Y597*
X4168Y591*
X4158Y581*
X4152Y569*
X4148Y556*
Y543*
X4152Y530*
X4158Y518*
X4168Y508*
X4178Y502*
X4179Y501*
Y498*
X4178Y497*
X4168Y491*
X4158Y481*
X4152Y469*
X4148Y456*
Y443*
X4152Y430*
X4158Y418*
X4168Y408*
X4180Y402*
X4193Y398*
X4206*
X4219Y402*
X4231Y408*
X4241Y418*
X4247Y428*
X4248Y429*
X4251*
X4252Y428*
X4258Y418*
X4268Y408*
X4280Y402*
X4293Y398*
X4306*
X4319Y402*
X4331Y408*
X4341Y418*
X4347Y428*
X4348Y429*
X4351*
X4352Y428*
X4358Y418*
X4368Y408*
X4380Y402*
X4393Y398*
X4406*
X4419Y402*
X4431Y408*
X4441Y418*
X4447Y428*
X4448Y429*
X4451*
X4452Y428*
X4458Y418*
X4468Y408*
X4480Y402*
X4493Y398*
X4506*
X4519Y402*
X4531Y408*
X4541Y418*
X4547Y428*
X4548Y429*
X4551*
X4552Y428*
X4558Y418*
X4568Y408*
X4580Y402*
X4593Y398*
X4606*
X4619Y402*
X4631Y408*
X4641Y418*
X4647Y430*
X4651Y443*
Y456*
X4647Y469*
X4641Y481*
X4631Y491*
X4619Y497*
X4606Y501*
X4593*
X4580Y497*
X4568Y491*
X4558Y481*
X4552Y471*
X4551Y470*
X4548*
X4547Y471*
X4541Y481*
X4531Y491*
X4521Y497*
X4520Y498*
Y501*
X4521Y502*
X4531Y508*
X4541Y518*
X4547Y530*
X4551Y543*
Y556*
X4547Y569*
X4541Y581*
X4531Y591*
X4519Y597*
X4506Y601*
G37*
G36*
X2136Y670D02*
X2123D01*
X2110Y666*
X2099Y660*
X2089Y650*
X2083Y639*
X2080Y626*
Y613*
X2083Y600*
X2089Y589*
X2099Y579*
X2110Y573*
X2123Y570*
X2136*
X2149Y573*
X2160Y579*
X2170Y589*
X2176Y600*
X2180Y613*
Y626*
X2176Y639*
X2170Y650*
X2160Y660*
X2149Y666*
X2136Y670*
G37*
G36*
X5539Y592D02*
X5503D01*
Y555*
X5539*
Y592*
G37*
G36*
X5493D02*
X5456D01*
Y555*
X5493*
Y592*
G37*
G36*
X4641Y591D02*
X4605D01*
Y555*
X4641*
Y591*
G37*
G36*
X4595D02*
X4558D01*
Y555*
X4595*
Y591*
G37*
G36*
X2751Y645D02*
X2738D01*
X2725Y641*
X2714Y635*
X2704Y625*
X2698Y614*
X2695Y601*
Y588*
X2698Y575*
X2704Y564*
X2714Y554*
X2725Y548*
X2738Y545*
X2751*
X2764Y548*
X2775Y554*
X2785Y564*
X2791Y575*
X2795Y588*
Y601*
X2791Y614*
X2785Y625*
X2775Y635*
X2764Y641*
X2751Y645*
G37*
G36*
X5826Y620D02*
X5813D01*
X5800Y616*
X5789Y610*
X5779Y600*
X5773Y589*
X5770Y576*
Y563*
X5773Y550*
X5779Y539*
X5789Y529*
X5800Y523*
X5813Y520*
X5826*
X5839Y523*
X5850Y529*
X5860Y539*
X5866Y550*
X5870Y563*
Y576*
X5866Y589*
X5860Y600*
X5850Y610*
X5839Y616*
X5826Y620*
G37*
G36*
X5539Y545D02*
X5503D01*
Y509*
X5539*
Y545*
G37*
G36*
X5493D02*
X5456D01*
Y509*
X5493*
Y545*
G37*
G36*
X4641Y545D02*
X4605D01*
Y508*
X4641*
Y545*
G37*
G36*
X4595D02*
X4558D01*
Y508*
X4595*
Y545*
G37*
G36*
X3926Y600D02*
X3913D01*
X3900Y596*
X3889Y590*
X3879Y580*
X3873Y569*
X3870Y556*
Y543*
X3873Y530*
X3879Y519*
X3889Y509*
X3900Y503*
X3913Y500*
X3926*
X3939Y503*
X3950Y509*
X3960Y519*
X3966Y530*
X3970Y543*
Y556*
X3966Y569*
X3960Y580*
X3950Y590*
X3939Y596*
X3926Y600*
G37*
G36*
X1876D02*
X1863D01*
X1850Y596*
X1839Y590*
X1829Y580*
X1823Y569*
X1820Y556*
Y543*
X1823Y530*
X1829Y519*
X1839Y509*
X1850Y503*
X1863Y500*
X1876*
X1889Y503*
X1900Y509*
X1910Y519*
X1916Y530*
X1920Y543*
Y556*
X1916Y569*
X1910Y580*
X1900Y590*
X1889Y596*
X1876Y600*
G37*
G36*
X1262Y555D02*
X1247D01*
X1233Y551*
X1220Y544*
X1210Y534*
X1203Y521*
X1199Y507*
Y492*
X1203Y478*
X1210Y465*
X1220Y455*
X1233Y448*
X1247Y444*
X1262*
X1276Y448*
X1289Y455*
X1299Y465*
X1306Y478*
X1310Y492*
Y507*
X1306Y521*
X1299Y534*
X1289Y544*
X1276Y551*
X1262Y555*
G37*
G36*
X1060D02*
X949D01*
Y444*
X1060*
Y555*
G37*
G36*
X2251Y525D02*
X2238D01*
X2225Y521*
X2214Y515*
X2204Y505*
X2198Y494*
X2195Y481*
Y468*
X2198Y455*
X2204Y444*
X2214Y434*
X2225Y428*
X2238Y425*
X2251*
X2264Y428*
X2275Y434*
X2285Y444*
X2291Y455*
X2295Y468*
Y481*
X2291Y494*
X2285Y505*
X2275Y515*
X2264Y521*
X2251Y525*
G37*
G36*
X5791Y495D02*
X5778D01*
X5765Y491*
X5754Y485*
X5744Y475*
X5738Y464*
X5735Y451*
Y438*
X5738Y425*
X5744Y414*
X5754Y404*
X5765Y398*
X5778Y395*
X5791*
X5804Y398*
X5815Y404*
X5825Y414*
X5831Y425*
X5835Y438*
Y451*
X5831Y464*
X5825Y475*
X5815Y485*
X5804Y491*
X5791Y495*
G37*
G36*
X1541D02*
X1528D01*
X1515Y491*
X1504Y485*
X1494Y475*
X1488Y464*
X1485Y451*
Y438*
X1488Y425*
X1494Y414*
X1504Y404*
X1515Y398*
X1528Y395*
X1541*
X1554Y398*
X1565Y404*
X1575Y414*
X1581Y425*
X1585Y438*
Y451*
X1581Y464*
X1575Y475*
X1565Y485*
X1554Y491*
X1541Y495*
G37*
G36*
X3787Y587D02*
X3692D01*
Y492*
X3726*
X3727Y487*
X3721Y485*
X3710Y479*
X3701Y470*
X3695Y459*
X3692Y447*
Y435*
X3695Y423*
X3701Y412*
X3710Y403*
X3721Y397*
X3733Y394*
X3746*
X3758Y397*
X3769Y403*
X3778Y412*
X3784Y423*
X3787Y435*
Y447*
X3784Y459*
X3778Y470*
X3769Y479*
X3758Y485*
X3752Y487*
X3753Y492*
X3787*
Y587*
G37*
G36*
X3547D02*
X3452D01*
Y492*
X3486*
X3487Y487*
X3481Y485*
X3470Y479*
X3461Y470*
X3455Y459*
X3452Y447*
Y435*
X3455Y423*
X3461Y412*
X3470Y403*
X3481Y397*
X3493Y394*
X3506*
X3518Y397*
X3529Y403*
X3538Y412*
X3544Y423*
X3547Y435*
Y447*
X3544Y459*
X3538Y470*
X3529Y479*
X3518Y485*
X3512Y487*
X3513Y492*
X3547*
Y587*
G37*
G36*
X3237Y585D02*
X3142D01*
Y490*
X3176*
X3177Y485*
X3171Y484*
X3160Y478*
X3151Y469*
X3145Y458*
X3142Y446*
Y433*
X3145Y421*
X3151Y410*
X3160Y401*
X3171Y395*
X3183Y392*
X3196*
X3208Y395*
X3219Y401*
X3228Y410*
X3234Y421*
X3237Y433*
Y446*
X3234Y458*
X3228Y469*
X3219Y478*
X3208Y484*
X3202Y485*
X3203Y490*
X3237*
Y585*
G37*
G36*
X2987D02*
X2892D01*
Y490*
X2926*
X2927Y485*
X2921Y484*
X2910Y478*
X2901Y469*
X2895Y458*
X2892Y446*
Y433*
X2895Y421*
X2901Y410*
X2910Y401*
X2921Y395*
X2933Y392*
X2946*
X2958Y395*
X2969Y401*
X2978Y410*
X2984Y421*
X2987Y433*
Y446*
X2984Y458*
X2978Y469*
X2969Y478*
X2958Y484*
X2952Y485*
X2953Y490*
X2987*
Y585*
G37*
G36*
X2476Y485D02*
X2463D01*
X2450Y481*
X2439Y475*
X2429Y465*
X2423Y454*
X2420Y441*
Y428*
X2423Y415*
X2429Y404*
X2439Y394*
X2450Y388*
X2463Y385*
X2476*
X2489Y388*
X2500Y394*
X2510Y404*
X2516Y415*
X2520Y428*
Y441*
X2516Y454*
X2510Y465*
X2500Y475*
X2489Y481*
X2476Y485*
G37*
G36*
X716D02*
X703D01*
X690Y481*
X679Y475*
X669Y465*
X663Y454*
X660Y441*
Y428*
X663Y415*
X669Y404*
X679Y394*
X690Y388*
X703Y385*
X716*
X729Y388*
X740Y394*
X750Y404*
X756Y415*
X760Y428*
Y441*
X756Y454*
X750Y465*
X740Y475*
X729Y481*
X716Y485*
G37*
G36*
X2026Y480D02*
X2013D01*
X2000Y476*
X1989Y470*
X1979Y460*
X1973Y449*
X1970Y436*
Y423*
X1973Y410*
X1979Y399*
X1989Y389*
X2000Y383*
X2013Y380*
X2026*
X2039Y383*
X2050Y389*
X2060Y399*
X2066Y410*
X2070Y423*
Y436*
X2066Y449*
X2060Y460*
X2050Y470*
X2039Y476*
X2026Y480*
G37*
G36*
X1701Y425D02*
X1688D01*
X1675Y421*
X1664Y415*
X1654Y405*
X1648Y394*
X1645Y381*
Y368*
X1648Y355*
X1654Y344*
X1664Y334*
X1675Y328*
X1688Y325*
X1701*
X1714Y328*
X1725Y334*
X1735Y344*
X1741Y355*
X1745Y368*
Y381*
X1741Y394*
X1735Y405*
X1725Y415*
X1714Y421*
X1701Y425*
G37*
G36*
X5646Y415D02*
X5633D01*
X5620Y411*
X5609Y405*
X5599Y395*
X5593Y384*
X5590Y371*
Y358*
X5593Y345*
X5599Y334*
X5609Y324*
X5620Y318*
X5633Y315*
X5646*
X5659Y318*
X5670Y324*
X5680Y334*
X5686Y345*
X5690Y358*
Y371*
X5686Y384*
X5680Y395*
X5670Y405*
X5659Y411*
X5646Y415*
G37*
G36*
X4706D02*
X4693D01*
X4680Y411*
X4669Y405*
X4659Y395*
X4653Y384*
X4650Y371*
Y358*
X4653Y345*
X4659Y334*
X4669Y324*
X4680Y318*
X4693Y315*
X4706*
X4719Y318*
X4730Y324*
X4740Y334*
X4746Y345*
X4750Y358*
Y371*
X4746Y384*
X4740Y395*
X4730Y405*
X4719Y411*
X4706Y415*
G37*
G36*
X3916D02*
X3903D01*
X3890Y411*
X3879Y405*
X3869Y395*
X3863Y384*
X3860Y371*
Y358*
X3863Y345*
X3869Y334*
X3879Y324*
X3890Y318*
X3903Y315*
X3916*
X3929Y318*
X3940Y324*
X3950Y334*
X3956Y345*
X3960Y358*
Y371*
X3956Y384*
X3950Y395*
X3940Y405*
X3929Y411*
X3916Y415*
G37*
G36*
X4976Y410D02*
X4963D01*
X4950Y406*
X4939Y400*
X4929Y390*
X4923Y379*
X4920Y366*
Y353*
X4923Y340*
X4929Y329*
X4939Y319*
X4950Y313*
X4963Y310*
X4976*
X4989Y313*
X5000Y319*
X5010Y329*
X5016Y340*
X5020Y353*
Y366*
X5016Y379*
X5010Y390*
X5000Y400*
X4989Y406*
X4976Y410*
G37*
G36*
X2661Y400D02*
X2648D01*
X2635Y396*
X2624Y390*
X2614Y380*
X2608Y369*
X2605Y356*
Y343*
X2608Y330*
X2614Y319*
X2624Y309*
X2635Y303*
X2648Y300*
X2661*
X2674Y303*
X2685Y309*
X2695Y319*
X2701Y330*
X2705Y343*
Y356*
X2701Y369*
X2695Y380*
X2685Y390*
X2674Y396*
X2661Y400*
G37*
G36*
X1286D02*
X1273D01*
X1260Y396*
X1249Y390*
X1239Y380*
X1233Y369*
X1230Y356*
Y343*
X1233Y330*
X1239Y319*
X1249Y309*
X1260Y303*
X1273Y300*
X1286*
X1299Y303*
X1310Y309*
X1320Y319*
X1326Y330*
X1330Y343*
Y356*
X1326Y369*
X1320Y380*
X1310Y390*
X1299Y396*
X1286Y400*
G37*
G36*
X1041Y380D02*
X1028D01*
X1015Y376*
X1004Y370*
X994Y360*
X988Y349*
X985Y336*
Y323*
X988Y310*
X994Y299*
X1004Y289*
X1015Y283*
X1028Y280*
X1041*
X1054Y283*
X1065Y289*
X1075Y299*
X1081Y310*
X1085Y323*
Y336*
X1081Y349*
X1075Y360*
X1065Y370*
X1054Y376*
X1041Y380*
G37*
G36*
X3621Y370D02*
X3608D01*
X3595Y366*
X3584Y360*
X3574Y350*
X3568Y339*
X3565Y326*
Y313*
X3568Y300*
X3574Y289*
X3584Y279*
X3595Y273*
X3608Y270*
X3621*
X3634Y273*
X3645Y279*
X3655Y289*
X3661Y300*
X3665Y313*
Y326*
X3661Y339*
X3655Y350*
X3645Y360*
X3634Y366*
X3621Y370*
G37*
G36*
X3321D02*
X3308D01*
X3295Y366*
X3284Y360*
X3274Y350*
X3268Y339*
X3265Y326*
Y313*
X3268Y300*
X3274Y289*
X3284Y279*
X3295Y273*
X3308Y270*
X3321*
X3334Y273*
X3345Y279*
X3355Y289*
X3361Y300*
X3365Y313*
Y326*
X3361Y339*
X3355Y350*
X3345Y360*
X3334Y366*
X3321Y370*
G37*
G36*
X3056Y365D02*
X3043D01*
X3030Y361*
X3019Y355*
X3009Y345*
X3003Y334*
X3000Y321*
Y308*
X3003Y295*
X3009Y284*
X3019Y274*
X3030Y268*
X3043Y265*
X3056*
X3069Y268*
X3080Y274*
X3090Y284*
X3096Y295*
X3100Y308*
Y321*
X3096Y334*
X3090Y345*
X3080Y355*
X3069Y361*
X3056Y365*
G37*
%LNpcb-3*%
%LPD*%
G54D59*
X2465Y750D03*
G54D60*
X1874Y750D03*
G54D61*
X5056Y3726D03*
X4582D03*
G54D62*
X4770Y3541D03*
G54D63*
X4868Y3541D03*
Y3620D03*
X4770D03*
G54D68*
X5640Y3880D03*
G54D69*
X5540Y3880D03*
X5440D03*
X5640Y3780D03*
X5540D03*
X5440D03*
G54D72*
X3740Y540D03*
X3500D03*
X2940Y538D03*
X3190D03*
G54D73*
X3740Y441D03*
X3500D03*
X2940Y440D03*
X3190D03*
G54D81*
X4943Y2206D02*
X4946Y2204D01*
X4565Y2094D02*
Y2099D01*
G54D83*
X5635Y2910D02*
X5680D01*
X5593Y2952D02*
Y3249D01*
Y2952D02*
X5635Y2910D01*
X5279Y3369D02*
X5350Y3440D01*
X5279Y3369D02*
X5396Y3252D01*
X4675Y3405D02*
X4800Y3280D01*
X3850Y2580D02*
X4679Y3409D01*
X4825Y3305D02*
X5215D01*
X5350Y3440*
X4800Y3280D02*
X4825Y3305D01*
X980Y2260D02*
Y2390D01*
X985Y2395*
X4679Y3416D02*
Y3437D01*
Y3409D02*
Y3416D01*
X1758Y2580D02*
X3850D01*
X980Y2260D02*
X1180Y2060D01*
X2570*
X2960Y1669*
Y1522D02*
Y1669D01*
X5596Y3252D02*
X5650D01*
X5396D02*
X5596D01*
X5593Y3249D02*
X5596Y3252D01*
X2960Y1522D02*
X2967Y1515D01*
X3380*
G54D88*
X5680Y1210D03*
Y1310D03*
Y1410D03*
Y1510D03*
Y1610D03*
Y1710D03*
Y1810D03*
Y1910D03*
Y2010D03*
Y2110D03*
Y2210D03*
Y2310D03*
Y2410D03*
Y2510D03*
Y2610D03*
Y2710D03*
Y2810D03*
Y2910D03*
Y3010D03*
X5780Y1210D03*
Y1310D03*
Y1410D03*
Y1510D03*
Y1610D03*
Y1710D03*
Y1810D03*
Y1910D03*
Y2010D03*
Y2110D03*
Y2210D03*
Y2310D03*
Y2410D03*
Y2510D03*
Y2610D03*
Y2710D03*
Y2810D03*
Y2910D03*
Y3010D03*
Y3110D03*
G54D89*
X5680Y3110D03*
G54D90*
X4600Y450D03*
X4500D03*
X4400D03*
X4300D03*
X4200D03*
X4500Y550D03*
X4400D03*
X4300D03*
X4200D03*
X5098Y550D03*
X5198D03*
X5298D03*
X5398D03*
X5098Y450D03*
X5198D03*
X5298D03*
X5398D03*
X5498D03*
G54D91*
X4600Y550D03*
X5498Y550D03*
G54D92*
X1005Y500D03*
X1159Y3808D03*
G54D93*
X1255Y500D03*
X909Y3808D03*
G54D94*
X850Y893D03*
Y1681D03*
G54D95*
X2746Y3800D03*
X3196Y3805D03*
X3948Y3806D03*
X3498Y3801D03*
X1991Y3800D03*
X2441Y3805D03*
X5994Y343D03*
Y3965D03*
X404Y343D03*
Y3965D03*
G54D96*
X3048Y3548D03*
X2998Y3448D03*
X2948Y3548D03*
X2898Y3448D03*
X2848Y3548D03*
X2798Y3448D03*
X3148Y3548D03*
X3098Y3448D03*
X3850Y3450D03*
X3900Y3550D03*
X3550Y3450D03*
X3600Y3550D03*
X3650Y3450D03*
X3700Y3550D03*
X3750Y3450D03*
X3800Y3550D03*
X2293Y3548D03*
X2243Y3448D03*
X2193Y3548D03*
X2143Y3448D03*
X2093Y3548D03*
X2043Y3448D03*
X2393Y3548D03*
X2343Y3448D03*
G54D98*
X600Y2390D03*
Y2290D03*
Y2190D03*
G54D99*
X520Y3515D03*
Y2924D03*
G54D100*
X3635Y2687D03*
X3835Y2482D03*
X2970Y1840D03*
X5325Y2945D03*
X5140Y2455D03*
X4910Y2690D03*
X4470Y2825D03*
X4615Y2985D03*
X4995Y3060D03*
X4700Y3980D03*
X4930Y3970D03*
X5225Y3945D03*
X4395Y3980D03*
X4200Y3840D03*
X4345Y3705D03*
X4140Y3555D03*
X4330Y3485D03*
X4140Y3350D03*
X6005Y3640D03*
X6025Y3385D03*
X6040Y3170D03*
X6025Y2915D03*
X5975Y2410D03*
X5970Y2185D03*
X5980Y1915D03*
X5975Y1685D03*
X5970Y1455D03*
Y1165D03*
X5985Y870D03*
X5995Y630D03*
X5785Y445D03*
X5820Y570D03*
X5765Y805D03*
X5730Y1025D03*
X5570Y895D03*
X5445Y1065D03*
X5330Y1250D03*
X5205Y1415D03*
X4890Y1355D03*
X5010Y1445D03*
X5015Y1260D03*
X5185Y1110D03*
X5325Y960D03*
X5465Y755D03*
X5635Y630D03*
X5640Y365D03*
X4970Y360D03*
X4700Y365D03*
X3050Y315D03*
X3615Y320D03*
X3315D03*
X3910Y365D03*
X3920Y550D03*
X3945Y815D03*
X3885Y1010D03*
X3585Y1215D03*
X3070Y1275D03*
X3415Y1845D03*
X2250Y1995D03*
X2550Y1830D03*
X2830Y1915D03*
X2480Y1995D03*
X3450Y2290D03*
X3095Y2320D03*
X2390D03*
X2060Y2325D03*
X1830Y2205D03*
X3210Y2840D03*
X3435Y2845D03*
X3245Y2975D03*
X2670Y2870D03*
X2455Y2875D03*
X2505Y3000D03*
X1975Y2825D03*
X1775Y2840D03*
X1760Y3025D03*
X1775Y3550D03*
X2160Y1830D03*
X1870Y1615D03*
X1985Y1140D03*
X2435Y1210D03*
X2710Y1025D03*
X2395Y950D03*
X2725Y800D03*
X2745Y595D03*
X2655Y350D03*
X2470Y435D03*
X2260Y815D03*
X2245Y475D03*
X2130Y620D03*
X2020Y430D03*
X1870Y550D03*
X1615Y1060D03*
X1765Y940D03*
X1695Y375D03*
X1535Y445D03*
Y635D03*
X1280Y350D03*
X1060Y850D03*
X1035Y330D03*
X710Y435D03*
X675Y700D03*
X500Y625D03*
X490Y865D03*
X465Y1035D03*
X830Y1270D03*
X565Y1295D03*
X1055Y1430D03*
X800Y1470D03*
X625Y1500D03*
X1045Y1680D03*
X1485Y1750D03*
X1300Y1765D03*
X1235Y1920D03*
X985Y1950D03*
X725Y2005D03*
X590Y1675D03*
X500Y1920D03*
X420Y2345D03*
Y2205D03*
X740Y2600D03*
X535Y2645D03*
X720Y2765D03*
X780Y3200D03*
X1110Y3460D03*
X1035Y3170D03*
X500Y3115D03*
Y3280D03*
X1195Y3615D03*
X1335Y3795D03*
X1200Y3980D03*
X920Y3960D03*
X555Y3750D03*
X710Y3910D03*
X4015Y2615D03*
X4105Y2705D03*
X4195Y2795D03*
X3925Y2800D03*
X4015Y2880D03*
X3340Y2505D03*
X3195D03*
X3065Y2500D03*
X2360Y2495D03*
X2530Y2670D03*
X3820Y1550D03*
X3805Y1790D03*
X1590Y1260D03*
X1740Y1265D03*
X1775Y1430D03*
X1615D03*
X2920Y2500D03*
X2775Y2495D03*
X2785Y2675D03*
X2645Y2670D03*
X1885Y2665D03*
X2055Y2495D03*
X2175D03*
X2005Y2670D03*
X4495Y3355D03*
X4605Y3195D03*
X4520Y3115D03*
X4440Y3040D03*
X4370Y2970D03*
X4295Y2890D03*
X4115Y2980D03*
X4195Y3055D03*
X4270Y3125D03*
X4340Y3200D03*
X4415Y3280D03*
X1215Y860D03*
X1460Y995D03*
X1505Y3510D03*
Y3435D03*
X1430Y3395D03*
X3965Y3315D03*
X3540Y2974D03*
X3400Y3060D03*
X2645Y3210D03*
Y3050D03*
X2445Y3325D03*
X3220Y3310D03*
X3845Y3065D03*
X3400Y3220D03*
X3105Y3045D03*
X2785Y2970D03*
X2675Y1200D03*
X1545Y860D03*
X1530Y1910D03*
X1758Y2580D03*
X1280Y2160D03*
X1275Y2480D03*
X985Y2395D03*
X2345Y3060D03*
X2033Y2983D03*
X1890Y3060D03*
Y3220D03*
X1730Y3310D03*
X1250Y3320D03*
X1330Y2580D03*
G54D101*
X2210Y2715D03*
X5260Y2160D03*
X1270Y1175D03*
X1415Y1315D03*
X4980Y1820D03*
Y1764D03*
X4654Y2336D03*
X3925Y1325D03*
X4836Y3142D03*
X4250Y950D03*
X4585Y1930D03*
X4635Y1850D03*
X2910Y1570D03*
X5290Y2770D03*
Y2360D03*
X4670Y2410D03*
X5150Y2740D03*
X5040Y2630D03*
X5190Y3590D03*
X4564Y2235D03*
X4800Y2072D03*
X3031Y2637D03*
X3149Y2677D03*
X2901Y2748D03*
X2239Y2785D03*
X2322Y2696D03*
X4534Y1945D03*
X4600Y1970D03*
X4570Y2050D03*
X4565Y2094D03*
X4570Y2140D03*
X4400Y1520D03*
X4439Y1280D03*
X4300Y1420D03*
X4070Y1250D03*
X4400Y1210D03*
X4440Y1010D03*
X4050Y1020D03*
X4010Y1070D03*
X4440D03*
X4430Y1130D03*
X4150Y870D03*
X4458Y1871D03*
X4506Y1773D03*
X4450Y1790D03*
X4430Y1760D03*
X4340Y790D03*
X4770Y2670D03*
X4663Y2099D03*
X4682Y2118D03*
X4741Y2155D03*
X4775Y2156D03*
X4779Y2121D03*
X4712Y2230D03*
X5476Y1610D03*
X4910D03*
X4828Y1792D03*
X5270Y1990D03*
X4880Y1735D03*
X5432Y2742D03*
X5490Y2635D03*
X4980Y1792D03*
X5320Y2010D03*
X5510Y1410D03*
X4520Y2350D03*
X4570Y2420D03*
X4878Y3232D03*
X4858Y3378D03*
G54D102*
X4350Y1775D03*
X5350Y3440D03*
X4920Y2400D03*
X4931Y2301D03*
X4800Y3280D03*
X856Y2336D03*
X1429Y2750D03*
X858Y2231D03*
X4738Y2411D03*
X2776Y3641D03*
X2960Y1522D03*
X4820Y1751D03*
X5430Y2680D03*
X5508Y1227D03*
X5933Y2981D03*
X5939Y2555D03*
X4078Y1627D03*
X2776Y1650D03*
X3047Y1742D03*
X3464Y1757D03*
X3380Y1515D03*
X3689Y1702D03*
X3280Y1692D03*
X4679Y3437D03*
X5676Y3505D03*
X5500Y3403D03*
X5650Y3252D03*
X4460Y2667D03*
X5500Y1300D03*
X4549Y2470D03*
X4445Y2228D03*
X4102Y2237D03*
X4344Y2206D03*
X4195Y1572D03*
X1270Y1601D03*
X1507Y4017D03*
X1600Y4016D03*
X1687Y4015D03*
X2009Y3639D03*
X3520D03*
X4833Y3726D03*
X5528Y3101D03*
X5506Y2993D03*
X4867Y1482D03*
X4779Y1482D03*
X4073Y1702D03*
X4078Y1784D03*
X4117Y2547D03*
X4208Y2501D03*
X4219Y2449D03*
X4450Y2487D03*
X4519Y2550D03*
X4642Y2228D03*
G54D103*
X4943Y2206D03*
X4921Y2245D03*
X1610Y2710D03*
X1598Y3672D03*
X4230Y2200D03*
X4238Y1733D03*
X4831Y1645D03*
X4781D03*
X4823Y3455D03*
X4886Y3451D03*
X3797Y2680D03*
X4465Y2336D03*
X4183Y2233D03*
X4222Y2386D03*
X3783Y2802D03*
X4323Y2389D03*
X4623Y2351D03*
X4241Y1793D03*
X4415Y2343D03*
G54D104*
X1190Y1350D02*
X3500D01*
X4110Y1960*
X850Y1010D02*
X1190Y1350D01*
X4455Y2175D02*
X4657D01*
X4712Y2230*
X4240Y1960D02*
X4455Y2175D01*
X850Y893D02*
Y1010D01*
X4110Y1960D02*
X4240D01*
M02*