%FSLAX23Y23*%
%MOIN*%
%SFA1B1*%

%IPPOS*%
%AMD45*
4,1,8,0.014800,0.011500,-0.014800,0.011500,-0.026300,0.000000,-0.026300,0.000000,-0.014800,-0.011500,0.014800,-0.011500,0.026300,0.000000,0.026300,0.000000,0.014800,0.011500,0.0*
1,1,0.023040,0.014800,0.000000*
1,1,0.023040,-0.014800,0.000000*
1,1,0.023040,-0.014800,0.000000*
1,1,0.023040,0.014800,0.000000*
%
%ADD18R,0.026000X0.080000*%
%ADD19R,0.029530X0.035430*%
%ADD20R,0.057330X0.051360*%
%ADD21R,0.086610X0.098430*%
%ADD22R,0.157480X0.062990*%
%ADD23R,0.397640X0.330710*%
%ADD24R,0.037400X0.151580*%
%ADD25R,0.047240X0.047240*%
%ADD26R,0.063780X0.085830*%
%ADD27R,0.011810X0.038980*%
%ADD28R,0.047240X0.047240*%
%ADD29R,0.125980X0.062990*%
%ADD30R,0.051360X0.057330*%
%ADD31R,0.053150X0.033470*%
%ADD32R,0.062990X0.157480*%
%ADD33R,0.059060X0.066930*%
%ADD34R,0.074800X0.051180*%
%ADD35R,0.033470X0.053150*%
%ADD36R,0.020870X0.077950*%
%ADD37R,0.127950X0.084650*%
%ADD38R,0.037400X0.084650*%
%ADD39O,0.009840X0.061020*%
%ADD40O,0.061020X0.009840*%
%ADD41R,0.035430X0.031500*%
%ADD42R,0.350000X0.450000*%
%ADD43R,0.150000X0.081890*%
%ADD44R,0.052600X0.023030*%
G04~CAMADD=45~8~0.0~0.0~526.0~230.3~115.2~0.0~15~0.0~0.0~0.0~0.0~0~0.0~0.0~0.0~0.0~0~0.0~0.0~0.0~0.0~526.0~230.3*
%ADD45D45*%
%ADD46R,0.031500X0.035430*%
%LNpcb-1*%
%LPD*%
G54D18*
X1365Y1011D03*
Y769D03*
X1315Y1011D03*
X1265D03*
X1315Y769D03*
X1265D03*
X1215Y1011D03*
Y769D03*
G54D19*
X4723Y2470D03*
X4676D03*
X4633D03*
X4586D03*
G54D20*
X1460Y862D03*
Y925D03*
X4460Y2548D03*
Y2611D03*
X5560Y1291D03*
Y1228D03*
Y2928D03*
Y2991D03*
X800Y2168D03*
Y2231D03*
Y2400D03*
Y2336D03*
G54D21*
X1140Y2797D03*
Y2982D03*
X910Y2797D03*
Y2982D03*
G54D22*
X1132Y3320D03*
X887D03*
G54D23*
X3060Y898D03*
X3590Y898D03*
G54D24*
X2960Y1290D03*
X3160D03*
X3490Y1290D03*
X3690D03*
G54D25*
X3646Y1701D03*
Y1618D03*
X3230Y1691D03*
Y1608D03*
X1508Y3956D03*
Y3873D03*
X1598Y3956D03*
Y3873D03*
X1688Y3956D03*
Y3873D03*
G54D26*
X3053Y3210D03*
X3219D03*
X2723D03*
X2889D03*
X3796Y3220D03*
X3963D03*
X1975D03*
X2141D03*
X2278D03*
X2444D03*
X3476D03*
X3643D03*
G54D27*
X4878Y3335D03*
X4859D03*
X4839D03*
Y3272D03*
X4859D03*
X4878D03*
G54D28*
X5677Y3450D03*
X5760D03*
G54D29*
X980Y2480D03*
X1176D03*
X1178Y2160D03*
X981D03*
X1431Y3310D03*
X1628D03*
Y2580D03*
X1431D03*
G54D30*
X1969Y3060D03*
X2033D03*
X3476D03*
X3540D03*
X2724Y3050D03*
X2788D03*
G54D31*
X2677Y1326D03*
Y1261D03*
X1688Y3752D03*
Y3817D03*
X4170Y2547D03*
Y2612D03*
X5883Y2981D03*
Y2916D03*
X5492Y2680D03*
Y2745D03*
X5566Y2682D03*
Y2617D03*
X5350Y3382D03*
Y3317D03*
X5570Y3362D03*
Y3297D03*
X5850Y3327D03*
Y3392D03*
X5530Y3212D03*
Y3147D03*
X2844Y1493D03*
Y1558D03*
X4942Y3343D03*
Y3408D03*
X4770Y3339D03*
Y3404D03*
X1598Y3752D03*
Y3817D03*
X1508Y3752D03*
Y3817D03*
X3666Y1467D03*
Y1532D03*
X3240Y1457D03*
Y1522D03*
G54D32*
X1530Y2300D03*
Y2055D03*
G54D33*
X4353Y2620D03*
Y2520D03*
X4266D03*
Y2620D03*
G54D34*
X4594Y2560D03*
X4720D03*
X4594Y2776D03*
X4720D03*
G54D35*
X4277Y2730D03*
X4342D03*
X4367Y2420D03*
X4432D03*
X5938Y2818D03*
X5873D03*
X5938Y2717D03*
X5873D03*
X5939Y2614D03*
X5874D03*
X5442Y3210D03*
X5377D03*
X3528Y1700D03*
X3463D03*
X3112Y1690D03*
X3047D03*
X3528Y1780D03*
X3593D03*
X3110Y1770D03*
X3175D03*
X3578Y1460D03*
X3513D03*
X3152D03*
X3087D03*
X3383D03*
X3448D03*
X2957D03*
X3022D03*
G54D36*
X2901Y3047D03*
X2951D03*
X3001D03*
X3051D03*
Y2852D03*
X3001D03*
X2951D03*
X2901D03*
X3635Y2862D03*
X3685D03*
X3735D03*
X3785D03*
Y3057D03*
X3735D03*
X3685D03*
X3635D03*
X2136Y2862D03*
X2186D03*
X2236D03*
X2286D03*
Y3057D03*
X2236D03*
X2186D03*
X2136D03*
G54D37*
X1520Y3054D03*
G54D38*
X1610Y2825D03*
X1520D03*
X1429D03*
G54D39*
X4819Y2286D03*
X4800D03*
X4780D03*
X4760D03*
X4741D03*
X4721D03*
X4701D03*
X4682D03*
X4662D03*
X4642D03*
X4623D03*
X4603D03*
X4583D03*
X4564D03*
X4544D03*
X4524D03*
X4505D03*
X4485D03*
X4465D03*
X4445D03*
X4426D03*
X4406D03*
X4386D03*
X4367D03*
X4347D03*
Y1693D03*
X4367D03*
X4386D03*
X4406D03*
X4426D03*
X4445D03*
X4465D03*
X4485D03*
X4505D03*
X4524D03*
X4544D03*
X4564D03*
X4583D03*
X4603D03*
X4623D03*
X4642D03*
X4662D03*
X4682D03*
X4701D03*
X4721D03*
X4741D03*
X4760D03*
X4780D03*
X4800D03*
X4819D03*
G54D40*
X4287Y2226D03*
Y2206D03*
Y2186D03*
Y2167D03*
Y2147D03*
Y2127D03*
Y2108D03*
Y2088D03*
Y2068D03*
Y2049D03*
Y2029D03*
Y2009D03*
Y1990D03*
Y1970D03*
Y1950D03*
Y1930D03*
Y1911D03*
Y1891D03*
Y1871D03*
Y1852D03*
Y1832D03*
Y1812D03*
Y1793D03*
Y1773D03*
Y1753D03*
X4880D03*
Y1773D03*
Y1793D03*
Y1812D03*
Y1832D03*
Y1852D03*
Y1871D03*
Y1891D03*
Y1911D03*
Y1930D03*
Y1950D03*
Y1970D03*
Y1990D03*
Y2009D03*
Y2029D03*
Y2049D03*
Y2068D03*
Y2088D03*
Y2108D03*
Y2127D03*
Y2147D03*
Y2167D03*
Y2186D03*
Y2206D03*
Y2226D03*
G54D41*
X5420Y3320D03*
X5499Y3357D03*
Y3282D03*
G54D42*
X2221Y1550D03*
G54D43*
X2671Y1450D03*
Y1650D03*
G54D44*
X5669Y3367D03*
G54D45*
X5669Y3292D03*
X5750Y3330D03*
G54D46*
X3080Y1540D03*
X3042Y1619D03*
X3117D03*
X3496Y1550D03*
X3458Y1629D03*
X3533D03*
M02*