%FSLAX23Y23*%
%MOIN*%
%SFA1B1*%

%IPPOS*%
%ADD16C,0.007870*%
%LNpcb-1*%
%LPD*%
G36*
X4130Y1651D02*
X4130Y1650D01*
X4130Y1650*
X4131Y1649*
X4131Y1649*
X4132Y1649*
X4132Y1648*
X4132Y1648*
X4132Y1648*
X4132Y1648*
X4133Y1648*
X4134Y1647*
X4134Y1646*
X4135Y1646*
X4136Y1646*
X4136Y1646*
X4136Y1645*
X4136Y1645*
X4136Y1645*
X4137Y1645*
X4137*
Y1642*
X4136Y1642*
X4135Y1643*
X4135Y1643*
X4134Y1643*
X4134Y1643*
X4134Y1644*
X4133Y1644*
X4133Y1644*
X4133*
X4133Y1644*
X4132Y1645*
X4132Y1645*
X4131Y1645*
X4131Y1646*
X4131Y1646*
X4130Y1646*
X4130Y1646*
Y1626*
X4127*
Y1652*
X4129*
X4130Y1651*
G37*
G36*
X4119Y1638D02*
X4116Y1638D01*
X4115Y1638*
X4115Y1638*
X4115Y1639*
X4114Y1639*
X4114Y1639*
X4114Y1639*
X4114Y1639*
X4114Y1639*
X4113Y1640*
X4113Y1640*
X4112Y1640*
X4112Y1640*
X4111Y1640*
X4111Y1640*
X4110*
X4110Y1640*
X4109Y1640*
X4109Y1640*
X4108Y1639*
X4108Y1639*
X4107Y1639*
X4107Y1639*
X4107Y1639*
Y1639*
X4106Y1638*
X4106Y1637*
X4106Y1637*
X4106Y1636*
X4105Y1635*
X4105Y1635*
Y1635*
X4105Y1635*
Y1634*
Y1634*
Y1634*
Y1634*
X4105Y1633*
X4106Y1632*
X4106Y1632*
X4106Y1631*
X4106Y1631*
X4107Y1630*
X4107Y1630*
X4107Y1630*
X4107Y1630*
X4107Y1630*
X4107Y1629*
X4108Y1629*
X4108Y1629*
X4109Y1629*
X4110Y1628*
X4110Y1628*
X4110Y1628*
X4111Y1628*
X4111*
X4112Y1628*
X4112Y1628*
X4113Y1628*
X4113Y1629*
X4114Y1629*
X4114Y1629*
X4114Y1629*
X4114Y1629*
X4115Y1630*
X4115Y1630*
X4115Y1631*
X4115Y1632*
X4116Y1632*
X4116Y1632*
X4116Y1633*
X4116Y1633*
Y1633*
Y1633*
X4119Y1633*
X4119Y1632*
X4119Y1631*
X4119Y1630*
X4118Y1630*
X4118Y1629*
X4118Y1629*
X4118Y1629*
X4117Y1628*
X4117Y1628*
X4117Y1628*
X4117Y1628*
X4117Y1628*
X4117Y1627*
X4117Y1627*
X4116Y1627*
X4116Y1627*
X4115Y1627*
X4115Y1626*
X4114Y1626*
X4113Y1626*
X4112Y1626*
X4112Y1626*
X4112Y1626*
X4111Y1626*
X4111Y1626*
X4111*
X4110Y1626*
X4109Y1626*
X4109Y1626*
X4108Y1626*
X4107Y1626*
X4107Y1627*
X4106Y1627*
X4106Y1627*
X4105Y1627*
X4105Y1628*
X4105Y1628*
X4105Y1628*
X4104Y1628*
X4104Y1628*
X4104Y1629*
X4104Y1629*
X4104Y1629*
X4103Y1630*
X4103Y1630*
X4103Y1631*
X4103Y1632*
X4102Y1633*
X4102Y1633*
X4102Y1633*
X4102Y1634*
X4102Y1634*
X4102Y1634*
Y1634*
Y1635*
Y1635*
X4102Y1635*
X4102Y1636*
X4102Y1637*
X4102Y1637*
X4103Y1638*
X4103Y1638*
X4103Y1639*
X4103Y1639*
X4103Y1639*
X4104Y1640*
X4104Y1640*
X4104Y1640*
X4104Y1640*
X4104Y1640*
X4104Y1641*
X4104Y1641*
X4105Y1641*
X4105Y1641*
X4106Y1642*
X4106Y1642*
X4107Y1642*
X4107Y1642*
X4108Y1643*
X4109Y1643*
X4109Y1643*
X4109Y1643*
X4110Y1643*
X4110Y1643*
X4111*
X4111Y1643*
X4112Y1643*
X4113Y1642*
X4113Y1642*
X4114Y1642*
X4114Y1642*
X4115Y1642*
X4115Y1641*
X4115Y1641*
X4115Y1641*
X4115Y1641*
X4114Y1648*
X4103*
Y1651*
X4116*
X4119Y1638*
G37*
G36*
X4154Y1652D02*
X4155Y1652D01*
X4156Y1652*
X4156Y1651*
X4157Y1651*
X4157Y1651*
X4158Y1651*
X4158Y1651*
X4158Y1651*
X4158Y1651*
X4159Y1651*
X4159Y1650*
X4159Y1650*
X4160Y1650*
X4161Y1649*
X4161Y1648*
X4162Y1648*
X4162Y1647*
X4163Y1647*
X4163Y1646*
X4163Y1646*
X4163Y1646*
X4163Y1646*
X4163Y1646*
X4164Y1645*
X4164Y1644*
X4164Y1642*
X4164Y1641*
X4164Y1641*
X4164Y1640*
X4164Y1640*
Y1640*
X4165Y1639*
Y1639*
Y1639*
Y1639*
X4164Y1638*
X4164Y1636*
X4164Y1635*
X4164Y1635*
X4164Y1634*
X4164Y1634*
X4164Y1633*
X4163Y1633*
X4163Y1633*
X4163Y1632*
X4163Y1632*
X4163Y1632*
Y1632*
X4163Y1631*
X4162Y1630*
X4161Y1629*
X4161Y1629*
X4161Y1628*
X4160Y1628*
X4160Y1628*
X4160Y1628*
X4160Y1628*
X4159Y1627*
X4159Y1627*
X4159Y1627*
X4159Y1627*
X4159Y1627*
X4158Y1627*
X4157Y1626*
X4156Y1626*
X4155Y1626*
X4154Y1626*
X4154Y1626*
X4154Y1626*
X4153*
X4153Y1626*
X4152*
X4152Y1626*
X4151Y1626*
X4150Y1626*
X4150Y1626*
X4149Y1626*
X4149Y1626*
X4148Y1626*
X4148Y1627*
X4147Y1627*
X4147Y1627*
X4146Y1627*
X4146Y1627*
X4146Y1628*
X4146Y1628*
X4146Y1628*
X4146Y1628*
X4145Y1628*
X4145Y1629*
X4144Y1629*
X4144Y1630*
X4143Y1631*
X4143Y1632*
X4143Y1632*
X4142Y1633*
X4142Y1633*
X4142Y1633*
X4142Y1634*
X4142Y1634*
X4142Y1634*
Y1634*
X4145Y1635*
X4145Y1634*
X4146Y1634*
X4146Y1633*
X4146Y1633*
X4146Y1632*
X4146Y1632*
X4147Y1632*
X4147Y1631*
X4147Y1631*
X4147Y1631*
X4147Y1631*
X4148Y1630*
X4148Y1630*
X4148Y1630*
X4148Y1630*
X4148Y1630*
X4148Y1630*
X4149Y1629*
X4150Y1629*
X4150Y1629*
X4151Y1629*
X4152Y1628*
X4152Y1628*
X4152*
X4153Y1628*
X4153*
X4154Y1628*
X4154Y1629*
X4155Y1629*
X4156Y1629*
X4156Y1629*
X4157Y1629*
X4157Y1629*
X4157Y1629*
X4157Y1630*
X4157Y1630*
X4157*
X4158Y1630*
X4158Y1631*
X4159Y1631*
X4159Y1632*
X4160Y1632*
X4160Y1633*
X4160Y1633*
X4160Y1633*
X4160Y1633*
Y1633*
X4160Y1634*
X4161Y1635*
X4161Y1636*
X4161Y1637*
X4161Y1637*
X4161Y1638*
Y1638*
X4161Y1638*
Y1639*
Y1639*
Y1639*
Y1639*
X4161Y1640*
X4161Y1641*
X4161Y1642*
X4161Y1642*
X4161Y1643*
X4160Y1643*
X4160Y1643*
X4160Y1644*
X4160Y1644*
X4160Y1644*
Y1644*
X4160Y1645*
X4159Y1645*
X4159Y1646*
X4159Y1647*
X4158Y1647*
X4158Y1647*
X4158Y1648*
X4158Y1648*
X4157*
X4157Y1648*
X4156Y1649*
X4155Y1649*
X4154Y1649*
X4154Y1649*
X4153Y1649*
X4153*
X4153Y1649*
X4153*
X4152Y1649*
X4151Y1649*
X4150Y1649*
X4149Y1648*
X4149Y1648*
X4149Y1648*
X4148Y1648*
X4148Y1648*
X4148Y1647*
X4147Y1647*
X4147Y1646*
X4146Y1645*
X4146Y1645*
X4146Y1644*
X4146Y1644*
X4146Y1644*
X4146Y1644*
X4146Y1644*
Y1644*
X4142Y1645*
X4143Y1645*
X4143Y1646*
X4143Y1646*
X4143Y1647*
X4144Y1647*
X4144Y1648*
X4144Y1648*
X4145Y1649*
X4145Y1649*
X4145Y1649*
X4145Y1649*
X4146Y1650*
X4146Y1650*
X4146Y1650*
X4146Y1650*
X4146Y1650*
X4146Y1650*
X4147Y1651*
X4148Y1651*
X4148Y1651*
X4149Y1652*
X4150Y1652*
X4151Y1652*
X4151Y1652*
X4151Y1652*
X4152Y1652*
X4152Y1652*
X4152*
X4154Y1652*
G37*
G36*
X4909Y2361D02*
X4906D01*
Y2374*
X4905Y2373*
X4904Y2372*
X4903Y2371*
X4902Y2371*
X4901Y2370*
X4901Y2370*
X4900Y2370*
X4900Y2370*
X4900Y2369*
X4900Y2369*
X4899Y2369*
X4899Y2369*
X4898Y2368*
X4896Y2368*
X4895Y2367*
X4894Y2367*
X4894Y2367*
X4893Y2367*
X4893Y2366*
X4892Y2366*
X4892Y2366*
X4892Y2366*
X4891Y2366*
X4891Y2366*
X4891*
X4890Y2366*
X4889Y2365*
X4888Y2365*
X4888Y2365*
X4887Y2365*
X4887Y2365*
X4886Y2365*
X4886Y2365*
X4885Y2365*
X4885Y2365*
X4884*
X4884Y2365*
X4884*
X4884*
X4884*
Y2368*
X4885Y2368*
X4887Y2368*
X4888Y2368*
X4888Y2369*
X4889Y2369*
X4889Y2369*
X4890Y2369*
X4890Y2369*
X4890Y2369*
X4891Y2369*
X4891Y2369*
X4891Y2369*
X4891*
X4893Y2370*
X4894Y2370*
X4895Y2371*
X4896Y2371*
X4896Y2371*
X4897Y2372*
X4898Y2372*
X4898Y2372*
X4899Y2372*
X4899Y2372*
X4899Y2373*
X4900Y2373*
X4900Y2373*
X4900Y2373*
X4901Y2373*
X4901Y2374*
X4902Y2374*
X4903Y2375*
X4903Y2375*
X4904Y2375*
X4904Y2376*
X4905Y2376*
X4905Y2377*
X4906Y2377*
X4906Y2377*
X4906Y2377*
X4906Y2377*
X4907Y2378*
X4907Y2378*
X4907Y2378*
X4909*
Y2361*
G37*
G36*
X4910Y2351D02*
X4909Y2350D01*
X4908Y2350*
X4908Y2350*
X4907Y2349*
X4907Y2349*
X4907Y2348*
X4906Y2348*
X4906Y2348*
X4906Y2348*
X4906Y2348*
X4906Y2347*
X4905Y2346*
X4904Y2346*
X4904Y2345*
X4904Y2344*
X4904Y2344*
X4903Y2344*
X4903Y2344*
X4903Y2344*
X4903Y2343*
Y2343*
X4900*
X4900Y2344*
X4901Y2345*
X4901Y2345*
X4901Y2346*
X4901Y2346*
X4902Y2346*
X4902Y2347*
X4902Y2347*
Y2347*
X4902Y2347*
X4903Y2348*
X4903Y2349*
X4903Y2349*
X4904Y2349*
X4904Y2350*
X4904Y2350*
X4904Y2350*
X4884*
Y2353*
X4910*
Y2351*
G37*
G36*
X4893Y2335D02*
X4892Y2335D01*
X4892Y2334*
X4891Y2334*
X4891Y2334*
X4890Y2334*
X4890Y2334*
X4890Y2333*
X4889Y2333*
X4889Y2333*
X4889Y2333*
X4888Y2333*
X4888Y2332*
X4888Y2332*
X4888Y2332*
X4888Y2332*
X4888Y2332*
X4888Y2332*
X4887Y2331*
X4887Y2330*
X4887Y2330*
X4887Y2329*
X4886Y2328*
X4886Y2328*
Y2328*
X4886Y2327*
Y2327*
X4886Y2326*
X4887Y2326*
X4887Y2325*
X4887Y2324*
X4887Y2324*
X4887Y2323*
X4887Y2323*
X4887Y2323*
X4888Y2323*
X4888Y2323*
Y2323*
X4888Y2322*
X4889Y2322*
X4889Y2321*
X4890Y2321*
X4890Y2320*
X4891Y2320*
X4891Y2320*
X4891Y2320*
X4891Y2320*
X4891*
X4892Y2320*
X4893Y2319*
X4894Y2319*
X4895Y2319*
X4895Y2319*
X4896Y2319*
X4896*
X4896Y2319*
X4897*
X4897*
X4897*
X4897*
X4898Y2319*
X4899Y2319*
X4900Y2319*
X4900Y2319*
X4901Y2319*
X4901Y2320*
X4901Y2320*
X4902Y2320*
X4902Y2320*
X4902Y2320*
X4902*
X4903Y2320*
X4903Y2321*
X4904Y2321*
X4905Y2321*
X4905Y2322*
X4905Y2322*
X4906Y2322*
X4906Y2322*
Y2323*
X4906Y2323*
X4907Y2324*
X4907Y2325*
X4907Y2326*
X4907Y2326*
X4907Y2327*
Y2327*
X4907Y2327*
Y2327*
X4907Y2328*
X4907Y2329*
X4907Y2330*
X4906Y2331*
X4906Y2331*
X4906Y2331*
X4906Y2332*
X4906Y2332*
X4905Y2332*
X4905Y2333*
X4904Y2333*
X4903Y2334*
X4903Y2334*
X4902Y2334*
X4902Y2334*
X4902Y2334*
X4902Y2334*
X4902Y2334*
X4902*
X4903Y2338*
X4903Y2337*
X4904Y2337*
X4904Y2337*
X4905Y2337*
X4905Y2336*
X4906Y2336*
X4906Y2336*
X4907Y2335*
X4907Y2335*
X4907Y2335*
X4907Y2335*
X4908Y2334*
X4908Y2334*
X4908Y2334*
X4908Y2334*
X4908Y2334*
X4908Y2334*
X4909Y2333*
X4909Y2332*
X4909Y2332*
X4910Y2331*
X4910Y2330*
X4910Y2329*
X4910Y2329*
X4910Y2329*
X4910Y2328*
X4910Y2328*
Y2328*
X4910Y2326*
X4910Y2325*
X4910Y2324*
X4909Y2324*
X4909Y2323*
X4909Y2323*
X4909Y2322*
X4909Y2322*
X4909Y2322*
X4909Y2322*
X4909Y2321*
X4908Y2321*
X4908Y2321*
X4908Y2320*
X4907Y2319*
X4906Y2319*
X4906Y2318*
X4905Y2318*
X4905Y2317*
X4904Y2317*
X4904Y2317*
X4904Y2317*
X4904Y2317*
X4904Y2317*
X4903Y2317*
X4902Y2316*
X4900Y2316*
X4899Y2316*
X4899Y2316*
X4898Y2316*
X4898Y2316*
X4898*
X4897Y2316*
X4897*
X4897*
X4897*
X4896Y2316*
X4894Y2316*
X4893Y2316*
X4893Y2316*
X4892Y2316*
X4892Y2316*
X4891Y2316*
X4891Y2317*
X4891Y2317*
X4890Y2317*
X4890Y2317*
X4890Y2317*
X4890*
X4889Y2317*
X4888Y2318*
X4887Y2319*
X4887Y2319*
X4886Y2319*
X4886Y2320*
X4886Y2320*
X4886Y2320*
X4886Y2320*
X4885Y2321*
X4885Y2321*
X4885Y2321*
X4885Y2321*
X4885Y2321*
X4885Y2322*
X4884Y2323*
X4884Y2324*
X4884Y2325*
X4884Y2326*
X4884Y2326*
X4884Y2326*
Y2327*
X4884Y2327*
Y2328*
X4884Y2328*
X4884Y2329*
X4884Y2330*
X4884Y2330*
X4884Y2331*
X4884Y2331*
X4884Y2332*
X4885Y2332*
X4885Y2333*
X4885Y2333*
X4885Y2334*
X4885Y2334*
X4886Y2334*
X4886Y2334*
X4886Y2334*
X4886Y2334*
X4886Y2335*
X4887Y2335*
X4887Y2336*
X4888Y2336*
X4889Y2337*
X4890Y2337*
X4890Y2337*
X4891Y2338*
X4891Y2338*
X4891Y2338*
X4892Y2338*
X4892Y2338*
X4892Y2338*
X4892*
X4893Y2335*
G37*
G36*
X4415Y2492D02*
X4416Y2492D01*
X4416Y2492*
X4417Y2492*
X4418Y2491*
X4418Y2491*
X4419Y2491*
X4419Y2491*
X4419Y2491*
X4420Y2491*
X4420Y2491*
X4420Y2491*
X4420Y2491*
X4420Y2491*
X4420*
X4421Y2490*
X4422Y2490*
X4423Y2489*
X4423Y2489*
X4424Y2488*
X4424Y2488*
X4424Y2488*
X4424Y2488*
X4424Y2488*
Y2488*
X4425Y2487*
X4425Y2486*
X4425Y2485*
X4425Y2484*
X4426Y2484*
X4426Y2484*
Y2483*
X4426Y2483*
Y2483*
X4426Y2482*
X4426Y2482*
X4425Y2481*
X4425Y2481*
X4425Y2480*
X4425Y2479*
X4424Y2479*
X4424Y2478*
X4424Y2478*
X4424Y2478*
X4424Y2478*
X4423Y2477*
X4423Y2477*
X4423Y2477*
X4423Y2477*
X4423Y2477*
X4422Y2476*
X4422Y2476*
X4421Y2476*
X4421Y2476*
X4420Y2475*
X4419Y2475*
X4419Y2475*
X4418Y2475*
X4418Y2475*
X4418Y2475*
X4417Y2475*
X4417*
X4417*
X4417*
X4416Y2475*
X4416Y2475*
X4415Y2475*
X4414Y2475*
X4414Y2475*
X4413Y2476*
X4413Y2476*
X4413Y2476*
X4412Y2476*
X4412Y2476*
X4412Y2477*
X4411Y2477*
X4411Y2477*
X4411Y2477*
X4411Y2477*
X4411Y2477*
X4411Y2478*
X4410Y2478*
X4410Y2478*
X4410Y2479*
X4409Y2479*
X4409Y2480*
X4409Y2481*
X4409Y2481*
X4409Y2481*
X4409Y2482*
X4409Y2482*
X4409Y2482*
Y2482*
X4409Y2483*
X4409Y2484*
X4409Y2484*
X4409Y2485*
X4409Y2485*
X4409Y2486*
X4410Y2486*
X4410Y2486*
X4410Y2487*
X4410Y2487*
X4411Y2488*
X4411Y2488*
X4411Y2488*
X4412Y2488*
X4412Y2489*
X4412Y2489*
X4412*
X4412*
X4411*
X4411*
X4411Y2489*
X4410Y2489*
X4409Y2488*
X4409Y2488*
X4408Y2488*
X4408Y2488*
X4408Y2488*
X4408*
X4408Y2488*
X4408*
X4407Y2488*
X4406Y2488*
X4406Y2488*
X4405Y2487*
X4405Y2487*
X4405Y2487*
X4405Y2487*
X4404Y2487*
X4404Y2487*
X4404Y2486*
X4403Y2486*
X4403Y2486*
X4403Y2486*
X4403Y2485*
X4403Y2485*
X4403Y2485*
X4403Y2485*
X4402Y2484*
X4402Y2484*
X4402Y2484*
X4402Y2483*
X4402Y2483*
Y2483*
X4402Y2482*
X4402Y2482*
X4402Y2481*
X4403Y2481*
X4403Y2480*
X4403Y2480*
X4403Y2480*
X4403Y2480*
X4403Y2480*
X4404Y2479*
X4404Y2479*
X4405Y2479*
X4405Y2479*
X4406Y2479*
X4406Y2478*
X4406*
X4406Y2478*
X4406*
X4406Y2475*
X4405Y2476*
X4404Y2476*
X4403Y2476*
X4402Y2477*
X4402Y2477*
X4402Y2477*
X4401Y2477*
X4401Y2477*
X4401Y2478*
X4401Y2478*
X4401Y2478*
X4401Y2478*
X4401Y2478*
X4400Y2479*
X4400Y2480*
X4400Y2481*
X4400Y2482*
X4400Y2482*
Y2482*
X4400Y2482*
Y2483*
X4400Y2484*
X4400Y2485*
X4400Y2485*
X4400Y2486*
X4400Y2486*
X4401Y2487*
X4401Y2487*
X4401Y2487*
X4401Y2487*
X4401Y2487*
X4401Y2487*
Y2488*
X4402Y2488*
X4402Y2489*
X4403Y2489*
X4404Y2490*
X4404Y2490*
X4405Y2490*
X4405Y2491*
X4405Y2491*
X4405Y2491*
X4405Y2491*
X4405*
X4406Y2491*
X4407Y2491*
X4408Y2491*
X4409Y2492*
X4410Y2492*
X4411Y2492*
X4412Y2492*
X4412*
X4412Y2492*
X4413*
X4413*
X4413*
X4413*
X4414*
X4415Y2492*
G37*
G36*
X4426Y2465D02*
X4425Y2464D01*
X4424Y2464*
X4424Y2464*
X4423Y2463*
X4423Y2463*
X4423Y2462*
X4422Y2462*
X4422Y2462*
X4422Y2462*
X4422Y2462*
X4422Y2461*
X4421Y2460*
X4420Y2460*
X4420Y2459*
X4420Y2458*
X4420Y2458*
X4419Y2458*
X4419Y2458*
X4419Y2458*
X4419Y2457*
Y2457*
X4416*
X4416Y2458*
X4417Y2459*
X4417Y2459*
X4417Y2460*
X4417Y2460*
X4418Y2460*
X4418Y2461*
X4418Y2461*
Y2461*
X4418Y2461*
X4419Y2462*
X4419Y2463*
X4419Y2463*
X4420Y2463*
X4420Y2464*
X4420Y2464*
X4420Y2464*
X4400*
Y2467*
X4426*
Y2465*
G37*
G36*
X4409Y2449D02*
X4408Y2449D01*
X4408Y2448*
X4407Y2448*
X4407Y2448*
X4406Y2448*
X4406Y2448*
X4406Y2447*
X4405Y2447*
X4405Y2447*
X4405Y2447*
X4404Y2447*
X4404Y2446*
X4404Y2446*
X4404Y2446*
X4404Y2446*
X4404Y2446*
X4404Y2446*
X4404Y2445*
X4403Y2444*
X4403Y2444*
X4403Y2443*
X4402Y2442*
X4402Y2442*
Y2442*
X4402Y2441*
Y2441*
X4402Y2440*
X4403Y2440*
X4403Y2439*
X4403Y2438*
X4403Y2438*
X4403Y2437*
X4403Y2437*
X4403Y2437*
X4404Y2437*
X4404Y2437*
Y2437*
X4404Y2436*
X4405Y2436*
X4405Y2435*
X4406Y2435*
X4406Y2434*
X4407Y2434*
X4407Y2434*
X4407Y2434*
X4407Y2434*
X4407*
X4408Y2434*
X4409Y2433*
X4410Y2433*
X4411Y2433*
X4411Y2433*
X4412Y2433*
X4412*
X4412Y2433*
X4413*
X4413*
X4413*
X4413*
X4414Y2433*
X4415Y2433*
X4416Y2433*
X4416Y2433*
X4417Y2434*
X4417Y2434*
X4417Y2434*
X4418Y2434*
X4418Y2434*
X4418Y2434*
X4418*
X4419Y2434*
X4419Y2435*
X4420Y2435*
X4421Y2435*
X4421Y2436*
X4421Y2436*
X4422Y2436*
X4422Y2436*
Y2437*
X4422Y2437*
X4423Y2438*
X4423Y2439*
X4423Y2440*
X4423Y2440*
X4423Y2441*
Y2441*
X4423Y2441*
Y2441*
X4423Y2442*
X4423Y2443*
X4423Y2444*
X4422Y2445*
X4422Y2445*
X4422Y2445*
X4422Y2446*
X4422Y2446*
X4421Y2446*
X4421Y2447*
X4420Y2447*
X4419Y2448*
X4419Y2448*
X4418Y2448*
X4418Y2448*
X4418Y2448*
X4418Y2448*
X4418Y2448*
X4418*
X4419Y2452*
X4419Y2451*
X4420Y2451*
X4420Y2451*
X4421Y2451*
X4421Y2450*
X4422Y2450*
X4422Y2450*
X4423Y2449*
X4423Y2449*
X4423Y2449*
X4423Y2449*
X4424Y2448*
X4424Y2448*
X4424Y2448*
X4424Y2448*
X4424Y2448*
X4424Y2448*
X4425Y2447*
X4425Y2446*
X4425Y2446*
X4426Y2445*
X4426Y2444*
X4426Y2443*
X4426Y2443*
X4426Y2443*
X4426Y2442*
X4426Y2442*
Y2442*
X4426Y2440*
X4426Y2439*
X4426Y2438*
X4425Y2438*
X4425Y2437*
X4425Y2437*
X4425Y2436*
X4425Y2436*
X4425Y2436*
X4425Y2436*
X4425Y2435*
X4424Y2435*
X4424Y2435*
X4424Y2434*
X4423Y2434*
X4422Y2433*
X4422Y2432*
X4421Y2432*
X4421Y2431*
X4420Y2431*
X4420Y2431*
X4420Y2431*
X4420Y2431*
X4420Y2431*
X4419Y2431*
X4418Y2430*
X4416Y2430*
X4415Y2430*
X4415Y2430*
X4414Y2430*
X4414Y2430*
X4414*
X4413Y2430*
X4413*
X4413*
X4413*
X4412Y2430*
X4410Y2430*
X4409Y2430*
X4409Y2430*
X4408Y2430*
X4408Y2430*
X4407Y2430*
X4407Y2431*
X4407Y2431*
X4406Y2431*
X4406Y2431*
X4406Y2431*
X4406*
X4405Y2431*
X4404Y2432*
X4403Y2433*
X4403Y2433*
X4402Y2433*
X4402Y2434*
X4402Y2434*
X4402Y2434*
X4402Y2434*
X4401Y2435*
X4401Y2435*
X4401Y2435*
X4401Y2435*
X4401Y2435*
X4401Y2436*
X4400Y2437*
X4400Y2438*
X4400Y2439*
X4400Y2440*
X4400Y2440*
X4400Y2440*
Y2441*
X4400Y2441*
Y2442*
X4400Y2442*
X4400Y2443*
X4400Y2444*
X4400Y2444*
X4400Y2445*
X4400Y2445*
X4400Y2446*
X4401Y2446*
X4401Y2447*
X4401Y2447*
X4401Y2448*
X4401Y2448*
X4402Y2448*
X4402Y2448*
X4402Y2448*
X4402Y2448*
X4402Y2449*
X4403Y2449*
X4403Y2450*
X4404Y2450*
X4405Y2451*
X4406Y2451*
X4406Y2451*
X4407Y2452*
X4407Y2452*
X4407Y2452*
X4408Y2452*
X4408Y2452*
X4408Y2452*
X4408*
X4409Y2449*
G37*
G36*
X4284Y2479D02*
X4285Y2479D01*
X4285Y2479*
X4286Y2478*
X4286Y2478*
X4287Y2478*
X4287Y2478*
X4288Y2478*
X4288Y2477*
X4288Y2477*
X4289Y2477*
X4289Y2477*
X4289Y2477*
X4289Y2477*
X4289Y2477*
X4289Y2477*
X4290Y2476*
X4290Y2476*
X4290Y2475*
X4291Y2475*
X4291Y2474*
X4291Y2474*
X4291Y2473*
X4291Y2473*
X4291Y2472*
X4291Y2472*
X4292Y2472*
X4292Y2471*
Y2471*
X4292Y2470*
X4291Y2470*
X4291Y2469*
X4291Y2469*
X4291Y2468*
X4291Y2468*
X4291Y2468*
X4291Y2468*
Y2468*
X4290Y2467*
X4290Y2467*
X4290Y2466*
X4289Y2466*
X4289Y2465*
X4288Y2465*
X4288Y2465*
X4288Y2465*
X4289*
X4289Y2465*
X4290Y2465*
X4291Y2465*
X4291Y2465*
X4292Y2465*
X4292Y2465*
X4293Y2465*
X4293Y2465*
X4293Y2466*
X4293Y2466*
X4294Y2466*
X4294Y2466*
X4294Y2466*
X4294Y2466*
X4294*
X4295Y2466*
X4295Y2467*
X4296Y2467*
X4296Y2467*
X4297Y2468*
X4297Y2468*
X4297Y2468*
X4297Y2468*
X4298Y2469*
X4298Y2469*
X4298Y2469*
X4298Y2470*
X4298Y2470*
X4298Y2471*
Y2471*
X4298Y2471*
X4298Y2472*
X4298Y2473*
X4297Y2473*
X4297Y2473*
X4297Y2474*
X4297Y2474*
X4297Y2474*
X4296Y2474*
X4296Y2474*
X4296Y2475*
X4295Y2475*
X4295Y2475*
X4294Y2475*
X4294Y2475*
X4294Y2475*
X4294*
X4294Y2478*
X4295Y2478*
X4296Y2478*
X4297Y2477*
X4298Y2477*
X4298Y2477*
X4298Y2476*
X4299Y2476*
X4299Y2476*
X4299Y2476*
X4299Y2476*
X4299Y2476*
X4299Y2476*
X4300Y2475*
X4300Y2474*
X4300Y2474*
X4300Y2473*
X4301Y2472*
X4301Y2472*
Y2472*
X4301Y2471*
Y2471*
X4301Y2470*
X4301Y2470*
X4300Y2469*
X4300Y2468*
X4300Y2468*
X4300Y2467*
X4299Y2467*
X4299Y2466*
X4299Y2466*
X4299Y2465*
X4298Y2465*
X4298Y2465*
X4298Y2465*
X4298Y2465*
X4298Y2465*
X4298Y2465*
X4297Y2464*
X4296Y2464*
X4295Y2463*
X4295Y2463*
X4294Y2463*
X4293Y2462*
X4292Y2462*
X4291Y2462*
X4290Y2462*
X4289Y2462*
X4289Y2462*
X4288Y2462*
X4288*
X4287Y2462*
X4287*
X4287*
X4287*
X4287*
X4286Y2462*
X4285Y2462*
X4284Y2462*
X4283Y2462*
X4282Y2462*
X4281Y2463*
X4280Y2463*
X4280Y2463*
X4279Y2463*
X4279Y2463*
X4278Y2464*
X4278Y2464*
X4278Y2464*
X4278Y2464*
X4277Y2464*
X4277Y2464*
X4277Y2465*
X4276Y2465*
X4276Y2466*
X4276Y2466*
X4275Y2467*
X4275Y2467*
X4275Y2468*
X4275Y2468*
X4275Y2469*
X4275Y2469*
X4275Y2470*
X4275Y2470*
Y2470*
X4275Y2470*
Y2471*
X4275Y2472*
X4275Y2472*
X4275Y2473*
X4275Y2474*
X4275Y2474*
X4275Y2474*
X4275Y2475*
X4276Y2475*
X4276Y2475*
Y2475*
X4276Y2475*
X4277Y2476*
X4277Y2477*
X4278Y2477*
X4278Y2477*
X4278Y2477*
X4279Y2478*
X4279Y2478*
X4279Y2478*
X4279*
X4280Y2478*
X4280Y2478*
X4281Y2478*
X4282Y2479*
X4282Y2479*
X4283*
X4283Y2479*
X4283*
X4283*
X4283*
X4283*
X4284Y2479*
G37*
G36*
X4301Y2452D02*
X4300Y2451D01*
X4299Y2451*
X4299Y2451*
X4298Y2450*
X4298Y2450*
X4298Y2449*
X4297Y2449*
X4297Y2449*
X4297Y2449*
X4297Y2449*
X4297Y2448*
X4296Y2447*
X4295Y2447*
X4295Y2446*
X4295Y2445*
X4295Y2445*
X4294Y2445*
X4294Y2445*
X4294Y2445*
X4294Y2444*
Y2444*
X4291*
X4291Y2445*
X4292Y2446*
X4292Y2446*
X4292Y2447*
X4292Y2447*
X4293Y2447*
X4293Y2448*
X4293Y2448*
Y2448*
X4293Y2448*
X4294Y2449*
X4294Y2450*
X4294Y2450*
X4295Y2450*
X4295Y2451*
X4295Y2451*
X4295Y2451*
X4275*
Y2454*
X4301*
Y2452*
G37*
G36*
X4284Y2436D02*
X4283Y2436D01*
X4283Y2435*
X4282Y2435*
X4282Y2435*
X4281Y2435*
X4281Y2435*
X4281Y2434*
X4280Y2434*
X4280Y2434*
X4280Y2434*
X4279Y2434*
X4279Y2433*
X4279Y2433*
X4279Y2433*
X4279Y2433*
X4279Y2433*
X4279Y2433*
X4279Y2432*
X4278Y2431*
X4278Y2431*
X4278Y2430*
X4277Y2429*
X4277Y2429*
Y2429*
X4277Y2428*
Y2428*
X4277Y2427*
X4278Y2427*
X4278Y2426*
X4278Y2425*
X4278Y2425*
X4278Y2424*
X4278Y2424*
X4278Y2424*
X4279Y2424*
X4279Y2424*
Y2424*
X4279Y2423*
X4280Y2423*
X4280Y2422*
X4281Y2422*
X4281Y2421*
X4282Y2421*
X4282Y2421*
X4282Y2421*
X4282Y2421*
X4282*
X4283Y2421*
X4284Y2420*
X4285Y2420*
X4286Y2420*
X4286Y2420*
X4287Y2420*
X4287*
X4287Y2420*
X4288*
X4288*
X4288*
X4288*
X4289Y2420*
X4290Y2420*
X4291Y2420*
X4291Y2420*
X4292Y2420*
X4292Y2421*
X4292Y2421*
X4293Y2421*
X4293Y2421*
X4293Y2421*
X4293*
X4294Y2421*
X4294Y2422*
X4295Y2422*
X4296Y2422*
X4296Y2423*
X4296Y2423*
X4297Y2423*
X4297Y2423*
Y2424*
X4297Y2424*
X4298Y2425*
X4298Y2426*
X4298Y2427*
X4298Y2427*
X4298Y2428*
Y2428*
X4298Y2428*
Y2428*
X4298Y2429*
X4298Y2430*
X4298Y2431*
X4297Y2432*
X4297Y2432*
X4297Y2432*
X4297Y2433*
X4297Y2433*
X4296Y2433*
X4296Y2434*
X4295Y2434*
X4294Y2435*
X4294Y2435*
X4293Y2435*
X4293Y2435*
X4293Y2435*
X4293Y2435*
X4293Y2435*
X4293*
X4294Y2439*
X4294Y2438*
X4295Y2438*
X4295Y2438*
X4296Y2438*
X4296Y2437*
X4297Y2437*
X4297Y2437*
X4298Y2436*
X4298Y2436*
X4298Y2436*
X4298Y2436*
X4299Y2435*
X4299Y2435*
X4299Y2435*
X4299Y2435*
X4299Y2435*
X4299Y2435*
X4300Y2434*
X4300Y2433*
X4300Y2433*
X4301Y2432*
X4301Y2431*
X4301Y2430*
X4301Y2430*
X4301Y2430*
X4301Y2429*
X4301Y2429*
Y2429*
X4301Y2427*
X4301Y2426*
X4301Y2425*
X4300Y2425*
X4300Y2424*
X4300Y2424*
X4300Y2423*
X4300Y2423*
X4300Y2423*
X4300Y2423*
X4300Y2422*
X4299Y2422*
X4299Y2422*
X4299Y2421*
X4298Y2420*
X4297Y2420*
X4297Y2419*
X4296Y2419*
X4296Y2418*
X4295Y2418*
X4295Y2418*
X4295Y2418*
X4295Y2418*
X4295Y2418*
X4294Y2418*
X4293Y2417*
X4291Y2417*
X4290Y2417*
X4290Y2417*
X4289Y2417*
X4289Y2417*
X4289*
X4288Y2417*
X4288*
X4288*
X4288*
X4287Y2417*
X4285Y2417*
X4284Y2417*
X4284Y2417*
X4283Y2417*
X4283Y2417*
X4282Y2417*
X4282Y2418*
X4282Y2418*
X4281Y2418*
X4281Y2418*
X4281Y2418*
X4281*
X4280Y2418*
X4279Y2419*
X4278Y2420*
X4278Y2420*
X4277Y2420*
X4277Y2421*
X4277Y2421*
X4277Y2421*
X4277Y2421*
X4276Y2422*
X4276Y2422*
X4276Y2422*
X4276Y2422*
X4276Y2422*
X4276Y2423*
X4275Y2424*
X4275Y2425*
X4275Y2426*
X4275Y2427*
X4275Y2427*
X4275Y2427*
Y2428*
X4275Y2428*
Y2429*
X4275Y2429*
X4275Y2430*
X4275Y2431*
X4275Y2431*
X4275Y2432*
X4275Y2432*
X4275Y2433*
X4276Y2433*
X4276Y2434*
X4276Y2434*
X4276Y2435*
X4276Y2435*
X4277Y2435*
X4277Y2435*
X4277Y2435*
X4277Y2435*
X4277Y2436*
X4278Y2436*
X4278Y2437*
X4279Y2437*
X4280Y2438*
X4281Y2438*
X4281Y2438*
X4282Y2439*
X4282Y2439*
X4282Y2439*
X4283Y2439*
X4283Y2439*
X4283Y2439*
X4283*
X4284Y2436*
G37*
G36*
X4767Y1568D02*
X4769Y1568D01*
X4770Y1567*
X4770Y1567*
X4771Y1567*
X4771Y1567*
X4772Y1567*
X4772Y1567*
X4772Y1567*
X4773Y1567*
X4773Y1567*
X4773Y1566*
X4773*
X4774Y1566*
X4775Y1565*
X4776Y1565*
X4776Y1564*
X4777Y1564*
X4777Y1564*
X4777Y1563*
X4777Y1563*
X4778Y1563*
X4778Y1563*
X4778Y1563*
X4778Y1563*
X4778Y1562*
X4778Y1562*
X4778Y1561*
X4779Y1560*
X4779Y1559*
X4779Y1558*
X4779Y1558*
X4779Y1557*
X4779Y1557*
Y1556*
X4780Y1556*
Y1556*
X4779Y1555*
X4779Y1554*
X4779Y1554*
X4779Y1553*
X4779Y1552*
X4779Y1552*
X4779Y1551*
X4778Y1551*
X4778Y1550*
X4778Y1550*
X4778Y1550*
X4778Y1549*
X4778Y1549*
X4777Y1549*
X4777Y1549*
X4777Y1549*
X4777Y1548*
X4776Y1548*
X4776Y1548*
X4775Y1547*
X4774Y1547*
X4773Y1546*
X4773Y1546*
X4772Y1546*
X4772Y1545*
X4772Y1545*
X4771Y1545*
X4771Y1545*
X4771Y1545*
X4771*
X4770Y1549*
X4771Y1549*
X4771Y1549*
X4772Y1549*
X4772Y1549*
X4773Y1549*
X4773Y1550*
X4773Y1550*
X4774Y1550*
X4774Y1550*
X4774Y1551*
X4775Y1551*
X4775Y1551*
X4775Y1551*
X4775Y1551*
X4775Y1551*
X4775Y1551*
X4775Y1552*
X4776Y1552*
X4776Y1553*
X4776Y1554*
X4776Y1554*
X4777Y1555*
X4777Y1555*
Y1556*
X4777Y1556*
Y1556*
X4777Y1557*
X4776Y1558*
X4776Y1558*
X4776Y1559*
X4776Y1560*
X4776Y1560*
X4776Y1560*
X4776Y1560*
X4775Y1560*
X4775Y1560*
Y1560*
X4775Y1561*
X4774Y1562*
X4774Y1562*
X4773Y1563*
X4773Y1563*
X4772Y1563*
X4772Y1563*
X4772Y1563*
X4772Y1563*
X4772*
X4771Y1564*
X4770Y1564*
X4769Y1564*
X4768Y1564*
X4768Y1564*
X4767Y1564*
X4767*
X4767Y1564*
X4766*
X4766*
X4766*
X4766*
X4765Y1564*
X4764Y1564*
X4763Y1564*
X4763Y1564*
X4762Y1564*
X4762Y1564*
X4762Y1564*
X4761Y1564*
X4761Y1564*
X4761Y1564*
X4761*
X4760Y1563*
X4760Y1563*
X4759Y1562*
X4758Y1562*
X4758Y1561*
X4758Y1561*
X4757Y1561*
X4757Y1561*
Y1561*
X4757Y1560*
X4756Y1559*
X4756Y1558*
X4756Y1558*
X4756Y1557*
X4756Y1557*
Y1556*
X4756Y1556*
Y1556*
X4756Y1555*
X4756Y1554*
X4756Y1553*
X4757Y1553*
X4757Y1552*
X4757Y1552*
X4757Y1552*
X4757Y1552*
X4758Y1551*
X4758Y1550*
X4759Y1550*
X4760Y1550*
X4760Y1549*
X4761Y1549*
X4761Y1549*
X4761Y1549*
X4761Y1549*
X4761Y1549*
X4761*
X4760Y1546*
X4760Y1546*
X4759Y1546*
X4759Y1546*
X4758Y1547*
X4758Y1547*
X4757Y1547*
X4757Y1548*
X4756Y1548*
X4756Y1548*
X4756Y1548*
X4756Y1549*
X4755Y1549*
X4755Y1549*
X4755Y1549*
X4755Y1549*
X4755Y1549*
X4755Y1550*
X4754Y1550*
X4754Y1551*
X4754Y1551*
X4753Y1552*
X4753Y1553*
X4753Y1554*
X4753Y1554*
X4753Y1555*
X4753Y1555*
X4753Y1555*
Y1556*
X4753Y1557*
X4753Y1558*
X4753Y1559*
X4754Y1560*
X4754Y1560*
X4754Y1560*
X4754Y1561*
X4754Y1561*
X4754Y1561*
X4754Y1562*
X4754Y1562*
X4755Y1562*
X4755Y1562*
X4755Y1563*
X4756Y1564*
X4757Y1565*
X4757Y1565*
X4758Y1566*
X4758Y1566*
X4759Y1566*
X4759Y1566*
X4759Y1566*
X4759Y1566*
X4759Y1566*
X4760Y1567*
X4761Y1567*
X4763Y1567*
X4764Y1568*
X4764Y1568*
X4765Y1568*
X4765Y1568*
X4765*
X4766Y1568*
X4766*
X4766*
X4766*
X4767Y1568*
G37*
G36*
X4779Y1526D02*
X4776D01*
Y1538*
X4775Y1538*
X4775Y1538*
X4775Y1537*
X4775Y1537*
X4775Y1537*
X4774Y1537*
X4774Y1537*
X4774Y1537*
X4774Y1537*
X4774Y1536*
X4773Y1535*
X4772Y1535*
X4772Y1534*
X4772Y1534*
X4771Y1534*
X4771Y1534*
X4771Y1533*
X4771Y1533*
X4771Y1533*
X4771Y1533*
X4770Y1532*
X4770Y1532*
X4769Y1531*
X4769Y1531*
X4768Y1530*
X4768Y1530*
X4768Y1530*
X4768Y1529*
X4767Y1529*
X4767Y1529*
X4767Y1529*
X4767Y1529*
X4767Y1529*
X4766Y1528*
X4765Y1528*
X4765Y1527*
X4764Y1527*
X4764Y1527*
X4764Y1527*
X4764Y1526*
X4763Y1526*
X4763Y1526*
X4762Y1526*
X4762Y1526*
X4761Y1526*
X4761Y1526*
X4761Y1526*
X4761*
X4760*
X4760Y1526*
X4759Y1526*
X4759Y1526*
X4758Y1526*
X4758Y1526*
X4757Y1527*
X4756Y1527*
X4756Y1527*
X4756Y1527*
X4756Y1528*
X4756Y1528*
X4755Y1528*
X4755Y1528*
X4755Y1528*
X4755Y1528*
X4755Y1529*
X4754Y1529*
X4754Y1530*
X4754Y1531*
X4754Y1532*
X4754Y1532*
X4753Y1532*
X4753Y1533*
X4753Y1533*
X4753Y1533*
Y1534*
X4753Y1534*
X4753Y1535*
X4754Y1536*
X4754Y1536*
X4754Y1537*
X4754Y1537*
X4754Y1538*
X4754Y1538*
X4754Y1538*
X4755Y1539*
X4755Y1539*
X4755Y1539*
X4755Y1539*
X4755Y1540*
X4755Y1540*
X4755Y1540*
X4756Y1540*
X4756Y1540*
X4756Y1541*
X4757Y1541*
X4758Y1541*
X4759Y1542*
X4759Y1542*
X4760Y1542*
X4760Y1542*
X4760Y1542*
X4760Y1542*
X4761*
X4761Y1542*
X4761*
X4761Y1539*
X4760Y1539*
X4759Y1539*
X4759Y1538*
X4758Y1538*
X4758Y1538*
X4758Y1538*
X4757Y1538*
X4757Y1538*
X4757Y1537*
X4757Y1536*
X4756Y1536*
X4756Y1535*
X4756Y1535*
X4756Y1534*
X4756Y1534*
Y1534*
X4756Y1533*
X4756Y1532*
X4756Y1532*
X4757Y1531*
X4757Y1531*
X4757Y1531*
X4757Y1530*
X4757Y1530*
X4758Y1530*
X4758Y1530*
X4759Y1529*
X4759Y1529*
X4760Y1529*
X4760Y1529*
X4760Y1529*
X4760*
X4760*
X4761Y1529*
X4762Y1529*
X4762Y1529*
X4763Y1530*
X4763Y1530*
X4764Y1530*
X4764Y1530*
X4764Y1530*
X4764Y1530*
X4764*
X4765Y1531*
X4765Y1531*
X4765Y1532*
X4766Y1532*
X4767Y1533*
X4768Y1534*
X4768Y1534*
X4768Y1535*
X4769Y1535*
X4769Y1535*
X4769Y1536*
X4769Y1536*
X4770Y1536*
X4770Y1536*
X4770Y1537*
X4771Y1538*
X4772Y1539*
X4772Y1539*
X4773Y1540*
X4773Y1540*
X4773Y1540*
X4773Y1540*
X4773*
X4774Y1541*
X4775Y1541*
X4775Y1542*
X4776Y1542*
X4776Y1542*
X4777Y1542*
X4777Y1542*
X4777Y1542*
X4777*
X4777Y1542*
X4778Y1543*
X4778Y1543*
X4778Y1543*
X4779Y1543*
X4779*
X4779*
X4779*
Y1526*
G37*
G36*
X4773Y1522D02*
X4774Y1522D01*
X4775Y1522*
X4775Y1521*
X4776Y1521*
X4776Y1521*
X4777Y1521*
X4777Y1521*
X4777Y1520*
X4777Y1520*
X4777Y1520*
X4778Y1520*
X4778Y1520*
X4778Y1520*
X4778Y1519*
X4778Y1519*
X4778Y1518*
X4779Y1518*
X4779Y1517*
X4779Y1516*
X4779Y1516*
X4779Y1515*
X4779Y1515*
X4779Y1515*
X4780Y1514*
Y1514*
X4779Y1513*
X4779Y1513*
X4779Y1512*
X4779Y1511*
X4779Y1511*
X4779Y1510*
X4778Y1510*
X4778Y1509*
X4778Y1509*
X4777Y1508*
X4777Y1508*
X4777Y1508*
X4777Y1508*
X4777Y1508*
X4776Y1507*
X4776Y1507*
X4776Y1507*
X4775Y1507*
X4775Y1506*
X4774Y1506*
X4773Y1506*
X4772Y1506*
X4772Y1506*
X4772Y1505*
X4771Y1505*
X4771Y1505*
X4771Y1505*
X4771*
X4770*
X4770*
X4770Y1505*
X4769Y1505*
X4768Y1506*
X4768Y1506*
X4767Y1506*
X4767Y1506*
X4766Y1506*
X4766Y1507*
X4766Y1507*
X4765Y1507*
X4765Y1507*
X4765Y1507*
X4765Y1507*
X4765Y1508*
X4764Y1508*
X4764Y1508*
X4764Y1508*
X4764Y1509*
X4763Y1509*
X4763Y1510*
X4763Y1510*
X4763Y1511*
X4762Y1511*
X4762Y1512*
X4762Y1512*
X4762Y1513*
X4762Y1513*
X4762Y1513*
Y1514*
X4762Y1514*
X4762Y1515*
X4763Y1516*
X4763Y1517*
X4763Y1517*
X4763Y1518*
X4763Y1518*
X4764Y1518*
X4764Y1518*
X4764Y1518*
X4764Y1518*
X4757Y1517*
Y1507*
X4754*
Y1519*
X4767Y1522*
X4767Y1519*
X4767Y1519*
X4767Y1518*
X4766Y1518*
X4766Y1518*
X4766Y1517*
X4766Y1517*
X4766Y1517*
X4766Y1517*
X4765Y1516*
X4765Y1516*
X4765Y1516*
X4765Y1515*
X4765Y1515*
X4765Y1514*
Y1514*
X4765Y1513*
X4765Y1513*
X4765Y1512*
X4766Y1511*
X4766Y1511*
X4766Y1510*
X4766Y1510*
X4766Y1510*
X4766*
X4767Y1510*
X4768Y1509*
X4768Y1509*
X4769Y1509*
X4770Y1509*
X4770Y1509*
X4770*
X4770Y1509*
X4771*
X4771*
X4771*
X4771*
X4772Y1509*
X4773Y1509*
X4773Y1509*
X4774Y1509*
X4775Y1510*
X4775Y1510*
X4775Y1510*
X4775Y1510*
X4775Y1510*
X4775Y1510*
X4776Y1511*
X4776Y1511*
X4776Y1512*
X4777Y1512*
X4777Y1513*
X4777Y1513*
X4777Y1514*
X4777Y1514*
Y1514*
X4777Y1515*
X4777Y1515*
X4777Y1516*
X4776Y1516*
X4776Y1517*
X4776Y1517*
X4776Y1517*
X4776Y1517*
X4775Y1518*
X4775Y1518*
X4774Y1518*
X4773Y1519*
X4773Y1519*
X4773Y1519*
X4772Y1519*
X4772Y1519*
X4772*
X4772*
X4772Y1522*
X4773Y1522*
G37*
G36*
X4125Y1727D02*
X4125Y1726D01*
X4125Y1726*
X4126Y1725*
X4126Y1725*
X4127Y1725*
X4127Y1724*
X4127Y1724*
X4127Y1724*
X4127Y1724*
X4128Y1724*
X4129Y1723*
X4129Y1722*
X4130Y1722*
X4131Y1722*
X4131Y1722*
X4131Y1721*
X4131Y1721*
X4131Y1721*
X4132Y1721*
X4132*
Y1718*
X4131Y1718*
X4130Y1719*
X4130Y1719*
X4129Y1719*
X4129Y1719*
X4129Y1720*
X4128Y1720*
X4128Y1720*
X4128*
X4128Y1720*
X4127Y1721*
X4127Y1721*
X4126Y1721*
X4126Y1722*
X4126Y1722*
X4125Y1722*
X4125Y1722*
Y1702*
X4122*
Y1728*
X4124*
X4125Y1727*
G37*
G36*
X4149Y1728D02*
X4150Y1728D01*
X4151Y1728*
X4151Y1727*
X4152Y1727*
X4152Y1727*
X4153Y1727*
X4153Y1727*
X4153Y1727*
X4153Y1727*
X4154Y1727*
X4154Y1726*
X4154Y1726*
X4155Y1726*
X4156Y1725*
X4156Y1724*
X4157Y1724*
X4157Y1723*
X4158Y1723*
X4158Y1722*
X4158Y1722*
X4158Y1722*
X4158Y1722*
X4158Y1722*
X4159Y1721*
X4159Y1720*
X4159Y1718*
X4159Y1717*
X4159Y1717*
X4159Y1716*
X4159Y1716*
Y1716*
X4160Y1715*
Y1715*
Y1715*
Y1715*
X4159Y1714*
X4159Y1712*
X4159Y1711*
X4159Y1711*
X4159Y1710*
X4159Y1710*
X4159Y1709*
X4158Y1709*
X4158Y1709*
X4158Y1708*
X4158Y1708*
X4158Y1708*
Y1708*
X4158Y1707*
X4157Y1706*
X4156Y1705*
X4156Y1705*
X4156Y1704*
X4155Y1704*
X4155Y1704*
X4155Y1704*
X4155Y1704*
X4154Y1703*
X4154Y1703*
X4154Y1703*
X4154Y1703*
X4154Y1703*
X4153Y1703*
X4152Y1702*
X4151Y1702*
X4150Y1702*
X4149Y1702*
X4149Y1702*
X4149Y1702*
X4148*
X4148Y1702*
X4147*
X4147Y1702*
X4146Y1702*
X4145Y1702*
X4145Y1702*
X4144Y1702*
X4144Y1702*
X4143Y1702*
X4143Y1703*
X4142Y1703*
X4142Y1703*
X4141Y1703*
X4141Y1703*
X4141Y1704*
X4141Y1704*
X4141Y1704*
X4141Y1704*
X4140Y1704*
X4140Y1705*
X4139Y1705*
X4139Y1706*
X4138Y1707*
X4138Y1708*
X4138Y1708*
X4137Y1709*
X4137Y1709*
X4137Y1709*
X4137Y1710*
X4137Y1710*
X4137Y1710*
Y1710*
X4140Y1711*
X4140Y1710*
X4141Y1710*
X4141Y1709*
X4141Y1709*
X4141Y1708*
X4141Y1708*
X4142Y1708*
X4142Y1707*
X4142Y1707*
X4142Y1707*
X4142Y1707*
X4143Y1706*
X4143Y1706*
X4143Y1706*
X4143Y1706*
X4143Y1706*
X4143Y1706*
X4144Y1705*
X4145Y1705*
X4145Y1705*
X4146Y1705*
X4147Y1704*
X4147Y1704*
X4147*
X4148Y1704*
X4148*
X4149Y1704*
X4149Y1705*
X4150Y1705*
X4151Y1705*
X4151Y1705*
X4152Y1705*
X4152Y1705*
X4152Y1705*
X4152Y1706*
X4152Y1706*
X4152*
X4153Y1706*
X4153Y1707*
X4154Y1707*
X4154Y1708*
X4155Y1708*
X4155Y1709*
X4155Y1709*
X4155Y1709*
X4155Y1709*
Y1709*
X4155Y1710*
X4156Y1711*
X4156Y1712*
X4156Y1713*
X4156Y1713*
X4156Y1714*
Y1714*
X4156Y1714*
Y1715*
Y1715*
Y1715*
Y1715*
X4156Y1716*
X4156Y1717*
X4156Y1718*
X4156Y1718*
X4156Y1719*
X4155Y1719*
X4155Y1719*
X4155Y1720*
X4155Y1720*
X4155Y1720*
Y1720*
X4155Y1721*
X4154Y1721*
X4154Y1722*
X4154Y1723*
X4153Y1723*
X4153Y1723*
X4153Y1724*
X4153Y1724*
X4152*
X4152Y1724*
X4151Y1725*
X4150Y1725*
X4149Y1725*
X4149Y1725*
X4148Y1725*
X4148*
X4148Y1725*
X4148*
X4147Y1725*
X4146Y1725*
X4145Y1725*
X4144Y1724*
X4144Y1724*
X4144Y1724*
X4143Y1724*
X4143Y1724*
X4143Y1723*
X4142Y1723*
X4142Y1722*
X4141Y1721*
X4141Y1721*
X4141Y1720*
X4141Y1720*
X4141Y1720*
X4141Y1720*
X4141Y1720*
Y1720*
X4137Y1721*
X4138Y1721*
X4138Y1722*
X4138Y1722*
X4138Y1723*
X4139Y1723*
X4139Y1724*
X4139Y1724*
X4140Y1725*
X4140Y1725*
X4140Y1725*
X4140Y1725*
X4141Y1726*
X4141Y1726*
X4141Y1726*
X4141Y1726*
X4141Y1726*
X4141Y1726*
X4142Y1727*
X4143Y1727*
X4143Y1727*
X4144Y1728*
X4145Y1728*
X4146Y1728*
X4146Y1728*
X4146Y1728*
X4147Y1728*
X4147Y1728*
X4147*
X4149Y1728*
G37*
G36*
X4106Y1728D02*
X4107Y1728D01*
X4108Y1727*
X4108Y1727*
X4109Y1727*
X4109Y1727*
X4110Y1727*
X4110Y1727*
X4110Y1726*
X4111Y1726*
X4111Y1726*
X4111Y1726*
X4111Y1726*
X4111Y1726*
X4111Y1726*
X4111Y1725*
X4112Y1725*
X4112Y1725*
X4112Y1724*
X4113Y1723*
X4113Y1723*
X4113Y1722*
X4113Y1722*
X4113Y1722*
X4113Y1721*
Y1721*
Y1721*
Y1721*
X4113Y1720*
X4113Y1720*
X4113Y1719*
X4113Y1719*
X4112Y1718*
X4112Y1718*
X4112Y1718*
X4112Y1718*
X4112Y1717*
X4111Y1717*
X4111Y1717*
X4110Y1716*
X4110Y1716*
X4110Y1716*
X4109Y1716*
X4109Y1716*
X4109Y1716*
X4109*
X4110Y1716*
X4111Y1715*
X4111Y1715*
X4112Y1714*
X4112Y1714*
X4113Y1714*
X4113Y1714*
X4113Y1714*
Y1713*
X4113Y1713*
X4114Y1712*
X4114Y1711*
X4114Y1711*
X4114Y1710*
X4114Y1710*
Y1710*
X4114Y1710*
Y1709*
Y1709*
Y1709*
X4114Y1709*
X4114Y1708*
X4114Y1708*
X4114Y1707*
X4113Y1706*
X4113Y1706*
X4113Y1705*
X4113Y1705*
X4113Y1705*
X4112Y1704*
X4112Y1704*
X4112Y1704*
X4112Y1704*
X4112Y1704*
X4112Y1704*
X4111Y1703*
X4111Y1703*
X4110Y1703*
X4110Y1702*
X4109Y1702*
X4109Y1702*
X4108Y1702*
X4107Y1702*
X4107Y1702*
X4107Y1702*
X4106Y1702*
X4106Y1702*
X4106*
X4105Y1702*
X4104Y1702*
X4104Y1702*
X4103Y1702*
X4103Y1702*
X4102Y1702*
X4102Y1702*
X4101Y1703*
X4101Y1703*
X4100Y1703*
X4100Y1703*
X4100Y1703*
X4100Y1704*
X4100Y1704*
X4100Y1704*
X4100Y1704*
X4099Y1704*
X4099Y1705*
X4098Y1705*
X4098Y1706*
X4098Y1706*
X4098Y1706*
X4098Y1707*
X4097Y1708*
X4097Y1708*
X4097Y1708*
X4097Y1709*
X4097Y1709*
Y1709*
Y1709*
Y1709*
X4097Y1710*
X4097Y1711*
X4098Y1712*
X4098Y1712*
X4098Y1713*
X4098Y1713*
X4098Y1713*
X4098Y1713*
Y1713*
X4099Y1714*
X4100Y1714*
X4100Y1715*
X4101Y1715*
X4101Y1715*
X4102Y1716*
X4102Y1716*
X4102Y1716*
X4102Y1716*
X4102*
X4101Y1716*
X4101Y1716*
X4100Y1717*
X4100Y1717*
X4100Y1717*
X4099Y1718*
X4099Y1718*
X4099Y1718*
X4099Y1718*
X4099Y1719*
X4098Y1719*
X4098Y1720*
X4098Y1720*
X4098Y1721*
Y1721*
Y1721*
Y1721*
X4098Y1721*
X4098Y1722*
X4099Y1723*
X4099Y1724*
X4099Y1724*
X4100Y1725*
X4100Y1725*
X4100Y1725*
X4100Y1726*
X4100Y1726*
X4100Y1726*
X4100Y1726*
X4101Y1726*
X4101Y1726*
X4102Y1727*
X4102Y1727*
X4103Y1727*
X4104Y1727*
X4104Y1728*
X4105Y1728*
X4105Y1728*
X4105Y1728*
X4105Y1728*
X4106*
X4106Y1728*
G37*
G36*
X4603Y2479D02*
X4604Y2479D01*
X4604Y2480*
X4604Y2480*
X4604Y2480*
X4604Y2480*
X4605Y2480*
X4605Y2480*
X4605Y2480*
X4605Y2481*
X4605Y2481*
X4606Y2482*
X4607Y2482*
X4607Y2483*
X4607Y2483*
X4608Y2483*
X4608Y2484*
X4608Y2484*
X4608Y2484*
X4608Y2484*
X4608Y2484*
X4609Y2485*
X4609Y2486*
X4610Y2486*
X4610Y2486*
X4611Y2487*
X4611Y2487*
X4611Y2488*
X4611Y2488*
X4612Y2488*
X4612Y2488*
X4612Y2488*
X4612Y2489*
X4612Y2489*
X4613Y2489*
X4614Y2490*
X4614Y2490*
X4615Y2490*
X4615Y2491*
X4615Y2491*
X4615Y2491*
X4616Y2491*
X4616Y2491*
X4617Y2491*
X4617Y2491*
X4618Y2491*
X4618Y2491*
X4618Y2491*
X4618*
X4619*
X4619Y2491*
X4620Y2491*
X4620Y2491*
X4621Y2491*
X4621Y2491*
X4622Y2490*
X4623Y2490*
X4623Y2490*
X4623Y2490*
X4623Y2490*
X4623Y2489*
X4624Y2489*
X4624Y2489*
X4624Y2489*
X4624Y2489*
X4624Y2488*
X4625Y2488*
X4625Y2487*
X4625Y2486*
X4625Y2486*
X4625Y2485*
X4626Y2485*
X4626Y2484*
X4626Y2484*
X4626Y2484*
Y2483*
X4626Y2483*
X4626Y2482*
X4625Y2482*
X4625Y2481*
X4625Y2480*
X4625Y2480*
X4625Y2480*
X4625Y2479*
X4625Y2479*
X4624Y2478*
X4624Y2478*
X4624Y2478*
X4624Y2478*
X4624Y2478*
X4624Y2478*
X4624Y2478*
X4623Y2477*
X4623Y2477*
X4623Y2477*
X4622Y2476*
X4621Y2476*
X4620Y2476*
X4620Y2475*
X4619Y2475*
X4619Y2475*
X4619Y2475*
X4619Y2475*
X4618*
X4618Y2475*
X4618*
X4618Y2478*
X4619Y2478*
X4620Y2479*
X4620Y2479*
X4621Y2479*
X4621Y2479*
X4621Y2479*
X4622Y2480*
X4622Y2480*
X4622Y2480*
X4622Y2481*
X4623Y2481*
X4623Y2482*
X4623Y2483*
X4623Y2483*
X4623Y2483*
Y2483*
X4623Y2484*
X4623Y2485*
X4623Y2485*
X4622Y2486*
X4622Y2486*
X4622Y2487*
X4622Y2487*
X4622Y2487*
X4621Y2487*
X4621Y2488*
X4620Y2488*
X4620Y2488*
X4619Y2488*
X4619Y2488*
X4619Y2488*
X4619*
X4619*
X4618Y2488*
X4617Y2488*
X4617Y2488*
X4616Y2487*
X4616Y2487*
X4615Y2487*
X4615Y2487*
X4615Y2487*
X4615Y2487*
X4615*
X4614Y2486*
X4614Y2486*
X4614Y2486*
X4613Y2485*
X4612Y2484*
X4611Y2483*
X4611Y2483*
X4611Y2482*
X4610Y2482*
X4610Y2482*
X4610Y2481*
X4610Y2481*
X4609Y2481*
X4609Y2481*
X4609Y2480*
X4608Y2479*
X4607Y2479*
X4607Y2478*
X4606Y2478*
X4606Y2477*
X4606Y2477*
X4606Y2477*
X4606*
X4605Y2476*
X4604Y2476*
X4604Y2476*
X4603Y2475*
X4603Y2475*
X4602Y2475*
X4602Y2475*
X4602Y2475*
X4602*
X4602Y2475*
X4601Y2475*
X4601Y2475*
X4601Y2475*
X4600Y2474*
X4600*
X4600*
X4600*
Y2491*
X4603*
Y2479*
G37*
G36*
Y2459D02*
X4604Y2459D01*
X4604Y2460*
X4604Y2460*
X4604Y2460*
X4604Y2460*
X4605Y2460*
X4605Y2460*
X4605Y2460*
X4605Y2461*
X4605Y2461*
X4606Y2462*
X4607Y2462*
X4607Y2463*
X4607Y2463*
X4608Y2464*
X4608Y2464*
X4608Y2464*
X4608Y2464*
X4608Y2464*
X4608Y2465*
X4609Y2465*
X4609Y2466*
X4610Y2466*
X4610Y2467*
X4611Y2467*
X4611Y2467*
X4611Y2468*
X4611Y2468*
X4612Y2468*
X4612Y2468*
X4612Y2469*
X4612Y2469*
X4612Y2469*
X4613Y2469*
X4614Y2470*
X4614Y2470*
X4615Y2470*
X4615Y2471*
X4615Y2471*
X4615Y2471*
X4616Y2471*
X4616Y2471*
X4617Y2471*
X4617Y2471*
X4618Y2471*
X4618Y2471*
X4618Y2472*
X4618*
X4619*
X4619Y2471*
X4620Y2471*
X4620Y2471*
X4621Y2471*
X4621Y2471*
X4622Y2470*
X4623Y2470*
X4623Y2470*
X4623Y2470*
X4623Y2470*
X4623Y2470*
X4624Y2469*
X4624Y2469*
X4624Y2469*
X4624Y2469*
X4624Y2469*
X4625Y2468*
X4625Y2468*
X4625Y2467*
X4625Y2466*
X4625Y2465*
X4626Y2465*
X4626Y2464*
X4626Y2464*
X4626Y2464*
Y2464*
X4626Y2463*
X4626Y2462*
X4625Y2462*
X4625Y2461*
X4625Y2461*
X4625Y2460*
X4625Y2460*
X4625Y2459*
X4625Y2459*
X4624Y2459*
X4624Y2458*
X4624Y2458*
X4624Y2458*
X4624Y2458*
X4624Y2458*
X4624Y2458*
X4623Y2457*
X4623Y2457*
X4623Y2457*
X4622Y2456*
X4621Y2456*
X4620Y2456*
X4620Y2456*
X4619Y2455*
X4619Y2455*
X4619Y2455*
X4619Y2455*
X4618*
X4618Y2455*
X4618*
X4618Y2458*
X4619Y2458*
X4620Y2459*
X4620Y2459*
X4621Y2459*
X4621Y2459*
X4621Y2460*
X4622Y2460*
X4622Y2460*
X4622Y2460*
X4622Y2461*
X4623Y2462*
X4623Y2462*
X4623Y2463*
X4623Y2463*
X4623Y2463*
Y2463*
X4623Y2464*
X4623Y2465*
X4623Y2466*
X4622Y2466*
X4622Y2466*
X4622Y2467*
X4622Y2467*
X4622Y2467*
X4621Y2467*
X4621Y2468*
X4620Y2468*
X4620Y2468*
X4619Y2468*
X4619Y2468*
X4619Y2468*
X4619*
X4619*
X4618Y2468*
X4617Y2468*
X4617Y2468*
X4616Y2468*
X4616Y2467*
X4615Y2467*
X4615Y2467*
X4615Y2467*
X4615Y2467*
X4615*
X4614Y2467*
X4614Y2466*
X4614Y2466*
X4613Y2465*
X4612Y2464*
X4611Y2463*
X4611Y2463*
X4611Y2463*
X4610Y2462*
X4610Y2462*
X4610Y2462*
X4610Y2461*
X4609Y2461*
X4609Y2461*
X4609Y2460*
X4608Y2459*
X4607Y2459*
X4607Y2458*
X4606Y2458*
X4606Y2457*
X4606Y2457*
X4606Y2457*
X4606*
X4605Y2457*
X4604Y2456*
X4604Y2456*
X4603Y2455*
X4603Y2455*
X4602Y2455*
X4602Y2455*
X4602Y2455*
X4602*
X4602Y2455*
X4601Y2455*
X4601Y2455*
X4601Y2455*
X4600Y2455*
X4600*
X4600*
X4600*
Y2472*
X4603*
Y2459*
G37*
G36*
X4609Y2449D02*
X4608Y2449D01*
X4608Y2448*
X4607Y2448*
X4607Y2448*
X4606Y2448*
X4606Y2448*
X4606Y2447*
X4605Y2447*
X4605Y2447*
X4605Y2447*
X4604Y2447*
X4604Y2446*
X4604Y2446*
X4604Y2446*
X4604Y2446*
X4604Y2446*
X4604Y2446*
X4603Y2445*
X4603Y2444*
X4603Y2444*
X4603Y2443*
X4602Y2442*
X4602Y2442*
Y2442*
X4602Y2441*
Y2441*
X4602Y2440*
X4603Y2440*
X4603Y2439*
X4603Y2438*
X4603Y2438*
X4603Y2437*
X4603Y2437*
X4603Y2437*
X4604Y2437*
X4604Y2437*
Y2437*
X4604Y2436*
X4605Y2436*
X4605Y2435*
X4606Y2435*
X4606Y2434*
X4607Y2434*
X4607Y2434*
X4607Y2434*
X4607Y2434*
X4607*
X4608Y2434*
X4609Y2433*
X4610Y2433*
X4611Y2433*
X4611Y2433*
X4612Y2433*
X4612*
X4612Y2433*
X4613*
X4613*
X4613*
X4613*
X4614Y2433*
X4615Y2433*
X4616Y2433*
X4616Y2433*
X4617Y2434*
X4617Y2434*
X4617Y2434*
X4618Y2434*
X4618Y2434*
X4618Y2434*
X4618*
X4619Y2434*
X4619Y2435*
X4620Y2435*
X4621Y2435*
X4621Y2436*
X4621Y2436*
X4622Y2436*
X4622Y2436*
Y2437*
X4622Y2437*
X4623Y2438*
X4623Y2439*
X4623Y2440*
X4623Y2440*
X4623Y2441*
Y2441*
X4623Y2441*
Y2441*
X4623Y2442*
X4623Y2443*
X4623Y2444*
X4622Y2445*
X4622Y2445*
X4622Y2445*
X4622Y2446*
X4622Y2446*
X4621Y2446*
X4621Y2447*
X4620Y2447*
X4619Y2448*
X4619Y2448*
X4618Y2448*
X4618Y2448*
X4618Y2448*
X4618Y2448*
X4618Y2448*
X4618*
X4619Y2452*
X4619Y2451*
X4620Y2451*
X4620Y2451*
X4621Y2451*
X4621Y2450*
X4622Y2450*
X4622Y2450*
X4623Y2449*
X4623Y2449*
X4623Y2449*
X4623Y2449*
X4624Y2448*
X4624Y2448*
X4624Y2448*
X4624Y2448*
X4624Y2448*
X4624Y2448*
X4625Y2447*
X4625Y2446*
X4625Y2446*
X4626Y2445*
X4626Y2444*
X4626Y2443*
X4626Y2443*
X4626Y2443*
X4626Y2442*
X4626Y2442*
Y2442*
X4626Y2440*
X4626Y2439*
X4626Y2438*
X4625Y2438*
X4625Y2437*
X4625Y2437*
X4625Y2436*
X4625Y2436*
X4625Y2436*
X4625Y2436*
X4625Y2435*
X4624Y2435*
X4624Y2435*
X4624Y2434*
X4623Y2434*
X4622Y2433*
X4622Y2432*
X4621Y2432*
X4621Y2431*
X4620Y2431*
X4620Y2431*
X4620Y2431*
X4620Y2431*
X4620Y2431*
X4619Y2431*
X4618Y2430*
X4616Y2430*
X4615Y2430*
X4615Y2430*
X4614Y2430*
X4614Y2430*
X4614*
X4613Y2430*
X4613*
X4613*
X4613*
X4612Y2430*
X4610Y2430*
X4609Y2430*
X4609Y2430*
X4608Y2430*
X4608Y2430*
X4607Y2430*
X4607Y2431*
X4607Y2431*
X4606Y2431*
X4606Y2431*
X4606Y2431*
X4606*
X4605Y2431*
X4604Y2432*
X4603Y2433*
X4603Y2433*
X4602Y2433*
X4602Y2434*
X4602Y2434*
X4602Y2434*
X4602Y2434*
X4601Y2435*
X4601Y2435*
X4601Y2435*
X4601Y2435*
X4601Y2435*
X4601Y2436*
X4600Y2437*
X4600Y2438*
X4600Y2439*
X4600Y2440*
X4600Y2440*
X4600Y2440*
Y2441*
X4600Y2441*
Y2442*
X4600Y2442*
X4600Y2443*
X4600Y2444*
X4600Y2444*
X4600Y2445*
X4600Y2445*
X4600Y2446*
X4601Y2446*
X4601Y2447*
X4601Y2447*
X4601Y2448*
X4601Y2448*
X4602Y2448*
X4602Y2448*
X4602Y2448*
X4602Y2448*
X4602Y2449*
X4603Y2449*
X4603Y2450*
X4604Y2450*
X4605Y2451*
X4606Y2451*
X4606Y2451*
X4607Y2452*
X4607Y2452*
X4607Y2452*
X4608Y2452*
X4608Y2452*
X4608Y2452*
X4608*
X4609Y2449*
G37*
G36*
X4526Y2485D02*
X4525Y2484D01*
X4524Y2484*
X4524Y2483*
X4523Y2483*
X4523Y2483*
X4523Y2482*
X4522Y2482*
X4522Y2482*
X4522Y2482*
X4522Y2482*
X4522Y2481*
X4521Y2480*
X4520Y2480*
X4520Y2479*
X4520Y2478*
X4520Y2478*
X4519Y2478*
X4519Y2478*
X4519Y2477*
X4519Y2477*
Y2477*
X4516*
X4516Y2478*
X4517Y2478*
X4517Y2479*
X4517Y2480*
X4517Y2480*
X4518Y2480*
X4518Y2481*
X4518Y2481*
Y2481*
X4518Y2481*
X4519Y2482*
X4519Y2482*
X4519Y2483*
X4520Y2483*
X4520Y2483*
X4520Y2484*
X4520Y2484*
X4500*
Y2487*
X4526*
Y2485*
G37*
G36*
X4503Y2459D02*
X4504Y2459D01*
X4504Y2460*
X4504Y2460*
X4504Y2460*
X4504Y2460*
X4505Y2460*
X4505Y2460*
X4505Y2460*
X4505Y2461*
X4505Y2461*
X4506Y2462*
X4507Y2462*
X4507Y2463*
X4507Y2463*
X4508Y2464*
X4508Y2464*
X4508Y2464*
X4508Y2464*
X4508Y2464*
X4508Y2465*
X4509Y2465*
X4509Y2466*
X4510Y2466*
X4510Y2467*
X4511Y2467*
X4511Y2467*
X4511Y2468*
X4511Y2468*
X4512Y2468*
X4512Y2468*
X4512Y2469*
X4512Y2469*
X4512Y2469*
X4513Y2469*
X4514Y2470*
X4514Y2470*
X4515Y2470*
X4515Y2471*
X4515Y2471*
X4515Y2471*
X4516Y2471*
X4516Y2471*
X4517Y2471*
X4517Y2471*
X4518Y2471*
X4518Y2471*
X4518Y2472*
X4518*
X4519*
X4519Y2471*
X4520Y2471*
X4520Y2471*
X4521Y2471*
X4521Y2471*
X4522Y2470*
X4523Y2470*
X4523Y2470*
X4523Y2470*
X4523Y2470*
X4523Y2470*
X4524Y2469*
X4524Y2469*
X4524Y2469*
X4524Y2469*
X4524Y2469*
X4525Y2468*
X4525Y2468*
X4525Y2467*
X4525Y2466*
X4525Y2465*
X4526Y2465*
X4526Y2464*
X4526Y2464*
X4526Y2464*
Y2464*
X4526Y2463*
X4526Y2462*
X4525Y2462*
X4525Y2461*
X4525Y2461*
X4525Y2460*
X4525Y2460*
X4525Y2459*
X4525Y2459*
X4524Y2459*
X4524Y2458*
X4524Y2458*
X4524Y2458*
X4524Y2458*
X4524Y2458*
X4524Y2458*
X4523Y2457*
X4523Y2457*
X4523Y2457*
X4522Y2456*
X4521Y2456*
X4520Y2456*
X4520Y2456*
X4519Y2455*
X4519Y2455*
X4519Y2455*
X4519Y2455*
X4518*
X4518Y2455*
X4518*
X4518Y2458*
X4519Y2458*
X4520Y2459*
X4520Y2459*
X4521Y2459*
X4521Y2459*
X4521Y2460*
X4522Y2460*
X4522Y2460*
X4522Y2460*
X4522Y2461*
X4523Y2462*
X4523Y2462*
X4523Y2463*
X4523Y2463*
X4523Y2463*
Y2463*
X4523Y2464*
X4523Y2465*
X4523Y2466*
X4522Y2466*
X4522Y2466*
X4522Y2467*
X4522Y2467*
X4522Y2467*
X4521Y2467*
X4521Y2468*
X4520Y2468*
X4520Y2468*
X4519Y2468*
X4519Y2468*
X4519Y2468*
X4519*
X4519*
X4518Y2468*
X4517Y2468*
X4517Y2468*
X4516Y2468*
X4516Y2467*
X4515Y2467*
X4515Y2467*
X4515Y2467*
X4515Y2467*
X4515*
X4514Y2467*
X4514Y2466*
X4514Y2466*
X4513Y2465*
X4512Y2464*
X4511Y2463*
X4511Y2463*
X4511Y2463*
X4510Y2462*
X4510Y2462*
X4510Y2462*
X4510Y2461*
X4509Y2461*
X4509Y2461*
X4509Y2460*
X4508Y2459*
X4507Y2459*
X4507Y2458*
X4506Y2458*
X4506Y2457*
X4506Y2457*
X4506Y2457*
X4506*
X4505Y2457*
X4504Y2456*
X4504Y2456*
X4503Y2455*
X4503Y2455*
X4502Y2455*
X4502Y2455*
X4502Y2455*
X4502*
X4502Y2455*
X4501Y2455*
X4501Y2455*
X4501Y2455*
X4500Y2455*
X4500*
X4500*
X4500*
Y2472*
X4503*
Y2459*
G37*
G36*
X4509Y2449D02*
X4508Y2449D01*
X4508Y2448*
X4507Y2448*
X4507Y2448*
X4506Y2448*
X4506Y2448*
X4506Y2447*
X4505Y2447*
X4505Y2447*
X4505Y2447*
X4504Y2447*
X4504Y2446*
X4504Y2446*
X4504Y2446*
X4504Y2446*
X4504Y2446*
X4504Y2446*
X4503Y2445*
X4503Y2444*
X4503Y2444*
X4503Y2443*
X4502Y2442*
X4502Y2442*
Y2442*
X4502Y2441*
Y2441*
X4502Y2440*
X4503Y2440*
X4503Y2439*
X4503Y2438*
X4503Y2438*
X4503Y2437*
X4503Y2437*
X4503Y2437*
X4504Y2437*
X4504Y2437*
Y2437*
X4504Y2436*
X4505Y2436*
X4505Y2435*
X4506Y2435*
X4506Y2434*
X4507Y2434*
X4507Y2434*
X4507Y2434*
X4507Y2434*
X4507*
X4508Y2434*
X4509Y2433*
X4510Y2433*
X4511Y2433*
X4511Y2433*
X4512Y2433*
X4512*
X4512Y2433*
X4513*
X4513*
X4513*
X4513*
X4514Y2433*
X4515Y2433*
X4516Y2433*
X4516Y2433*
X4517Y2434*
X4517Y2434*
X4517Y2434*
X4518Y2434*
X4518Y2434*
X4518Y2434*
X4518*
X4519Y2434*
X4519Y2435*
X4520Y2435*
X4521Y2435*
X4521Y2436*
X4521Y2436*
X4522Y2436*
X4522Y2436*
Y2437*
X4522Y2437*
X4523Y2438*
X4523Y2439*
X4523Y2440*
X4523Y2440*
X4523Y2441*
Y2441*
X4523Y2441*
Y2441*
X4523Y2442*
X4523Y2443*
X4523Y2444*
X4522Y2445*
X4522Y2445*
X4522Y2445*
X4522Y2446*
X4522Y2446*
X4521Y2446*
X4521Y2447*
X4520Y2447*
X4519Y2448*
X4519Y2448*
X4518Y2448*
X4518Y2448*
X4518Y2448*
X4518Y2448*
X4518Y2448*
X4518*
X4519Y2452*
X4519Y2451*
X4520Y2451*
X4520Y2451*
X4521Y2451*
X4521Y2450*
X4522Y2450*
X4522Y2450*
X4523Y2449*
X4523Y2449*
X4523Y2449*
X4523Y2449*
X4524Y2448*
X4524Y2448*
X4524Y2448*
X4524Y2448*
X4524Y2448*
X4524Y2448*
X4525Y2447*
X4525Y2446*
X4525Y2446*
X4526Y2445*
X4526Y2444*
X4526Y2443*
X4526Y2443*
X4526Y2443*
X4526Y2442*
X4526Y2442*
Y2442*
X4526Y2440*
X4526Y2439*
X4526Y2438*
X4525Y2438*
X4525Y2437*
X4525Y2437*
X4525Y2436*
X4525Y2436*
X4525Y2436*
X4525Y2436*
X4525Y2435*
X4524Y2435*
X4524Y2435*
X4524Y2434*
X4523Y2434*
X4522Y2433*
X4522Y2432*
X4521Y2432*
X4521Y2431*
X4520Y2431*
X4520Y2431*
X4520Y2431*
X4520Y2431*
X4520Y2431*
X4519Y2431*
X4518Y2430*
X4516Y2430*
X4515Y2430*
X4515Y2430*
X4514Y2430*
X4514Y2430*
X4514*
X4513Y2430*
X4513*
X4513*
X4513*
X4512Y2430*
X4510Y2430*
X4509Y2430*
X4509Y2430*
X4508Y2430*
X4508Y2430*
X4507Y2430*
X4507Y2431*
X4507Y2431*
X4506Y2431*
X4506Y2431*
X4506Y2431*
X4506*
X4505Y2431*
X4504Y2432*
X4503Y2433*
X4503Y2433*
X4502Y2433*
X4502Y2434*
X4502Y2434*
X4502Y2434*
X4502Y2434*
X4501Y2435*
X4501Y2435*
X4501Y2435*
X4501Y2435*
X4501Y2435*
X4501Y2436*
X4500Y2437*
X4500Y2438*
X4500Y2439*
X4500Y2440*
X4500Y2440*
X4500Y2440*
Y2441*
X4500Y2441*
Y2442*
X4500Y2442*
X4500Y2443*
X4500Y2444*
X4500Y2444*
X4500Y2445*
X4500Y2445*
X4500Y2446*
X4501Y2446*
X4501Y2447*
X4501Y2447*
X4501Y2448*
X4501Y2448*
X4502Y2448*
X4502Y2448*
X4502Y2448*
X4502Y2448*
X4502Y2449*
X4503Y2449*
X4503Y2450*
X4504Y2450*
X4505Y2451*
X4506Y2451*
X4506Y2451*
X4507Y2452*
X4507Y2452*
X4507Y2452*
X4508Y2452*
X4508Y2452*
X4508Y2452*
X4508*
X4509Y2449*
G37*
G36*
X4853Y1567D02*
X4855Y1567D01*
X4856Y1567*
X4856Y1567*
X4857Y1567*
X4857Y1567*
X4858Y1567*
X4858Y1566*
X4858Y1566*
X4859Y1566*
X4859Y1566*
X4859Y1566*
X4859*
X4860Y1566*
X4861Y1565*
X4862Y1564*
X4862Y1564*
X4863Y1564*
X4863Y1563*
X4863Y1563*
X4863Y1563*
X4864Y1563*
X4864Y1562*
X4864Y1562*
X4864Y1562*
X4864Y1562*
X4864Y1562*
X4864Y1561*
X4865Y1560*
X4865Y1559*
X4865Y1558*
X4865Y1557*
X4865Y1557*
X4865Y1557*
Y1556*
X4866Y1556*
Y1555*
X4865Y1555*
X4865Y1554*
X4865Y1553*
X4865Y1553*
X4865Y1552*
X4865Y1552*
X4865Y1551*
X4864Y1551*
X4864Y1550*
X4864Y1550*
X4864Y1549*
X4864Y1549*
X4864Y1549*
X4863Y1549*
X4863Y1549*
X4863Y1549*
X4863Y1548*
X4862Y1548*
X4862Y1547*
X4861Y1547*
X4860Y1546*
X4859Y1546*
X4859Y1546*
X4858Y1545*
X4858Y1545*
X4858Y1545*
X4857Y1545*
X4857Y1545*
X4857Y1545*
X4857*
X4856Y1548*
X4857Y1548*
X4857Y1549*
X4858Y1549*
X4858Y1549*
X4859Y1549*
X4859Y1549*
X4859Y1550*
X4860Y1550*
X4860Y1550*
X4860Y1550*
X4861Y1550*
X4861Y1551*
X4861Y1551*
X4861Y1551*
X4861Y1551*
X4861Y1551*
X4861Y1551*
X4862Y1552*
X4862Y1553*
X4862Y1553*
X4862Y1554*
X4863Y1555*
X4863Y1555*
Y1555*
X4863Y1556*
Y1556*
X4863Y1557*
X4862Y1557*
X4862Y1558*
X4862Y1559*
X4862Y1559*
X4862Y1560*
X4862Y1560*
X4862Y1560*
X4861Y1560*
X4861Y1560*
Y1560*
X4861Y1561*
X4860Y1561*
X4860Y1562*
X4859Y1562*
X4859Y1563*
X4858Y1563*
X4858Y1563*
X4858Y1563*
X4858Y1563*
X4858*
X4857Y1563*
X4856Y1564*
X4855Y1564*
X4854Y1564*
X4854Y1564*
X4853Y1564*
X4853*
X4853Y1564*
X4852*
X4852*
X4852*
X4852*
X4851Y1564*
X4850Y1564*
X4849Y1564*
X4849Y1564*
X4848Y1564*
X4848Y1563*
X4848Y1563*
X4847Y1563*
X4847Y1563*
X4847Y1563*
X4847*
X4846Y1563*
X4846Y1562*
X4845Y1562*
X4844Y1562*
X4844Y1561*
X4844Y1561*
X4843Y1561*
X4843Y1561*
Y1560*
X4843Y1560*
X4842Y1559*
X4842Y1558*
X4842Y1557*
X4842Y1557*
X4842Y1556*
Y1556*
X4842Y1556*
Y1556*
X4842Y1555*
X4842Y1554*
X4842Y1553*
X4843Y1552*
X4843Y1552*
X4843Y1552*
X4843Y1551*
X4843Y1551*
X4844Y1551*
X4844Y1550*
X4845Y1550*
X4846Y1549*
X4846Y1549*
X4847Y1549*
X4847Y1549*
X4847Y1549*
X4847Y1549*
X4847Y1549*
X4847*
X4846Y1545*
X4846Y1546*
X4845Y1546*
X4845Y1546*
X4844Y1546*
X4844Y1547*
X4843Y1547*
X4843Y1547*
X4842Y1548*
X4842Y1548*
X4842Y1548*
X4842Y1548*
X4841Y1549*
X4841Y1549*
X4841Y1549*
X4841Y1549*
X4841Y1549*
X4841Y1549*
X4840Y1550*
X4840Y1551*
X4840Y1551*
X4839Y1552*
X4839Y1553*
X4839Y1554*
X4839Y1554*
X4839Y1554*
X4839Y1555*
X4839Y1555*
Y1555*
X4839Y1557*
X4839Y1558*
X4839Y1559*
X4840Y1559*
X4840Y1560*
X4840Y1560*
X4840Y1561*
X4840Y1561*
X4840Y1561*
X4840Y1561*
X4840Y1562*
X4841Y1562*
X4841Y1562*
X4841Y1563*
X4842Y1564*
X4843Y1564*
X4843Y1565*
X4844Y1565*
X4844Y1566*
X4845Y1566*
X4845Y1566*
X4845Y1566*
X4845Y1566*
X4845Y1566*
X4846Y1567*
X4847Y1567*
X4849Y1567*
X4850Y1567*
X4850Y1567*
X4851Y1567*
X4851Y1567*
X4851*
X4852Y1568*
X4852*
X4852*
X4852*
X4853Y1567*
G37*
G36*
X4865Y1525D02*
X4862D01*
Y1538*
X4861Y1538*
X4861Y1537*
X4861Y1537*
X4861Y1537*
X4861Y1537*
X4860Y1537*
X4860Y1537*
X4860Y1537*
X4860Y1536*
X4860Y1536*
X4859Y1535*
X4858Y1535*
X4858Y1534*
X4858Y1534*
X4857Y1534*
X4857Y1533*
X4857Y1533*
X4857Y1533*
X4857Y1533*
X4857Y1532*
X4856Y1532*
X4856Y1531*
X4855Y1531*
X4855Y1530*
X4854Y1530*
X4854Y1530*
X4854Y1529*
X4854Y1529*
X4853Y1529*
X4853Y1529*
X4853Y1529*
X4853Y1528*
X4853Y1528*
X4852Y1528*
X4851Y1527*
X4851Y1527*
X4850Y1527*
X4850Y1526*
X4850Y1526*
X4850Y1526*
X4849Y1526*
X4849Y1526*
X4848Y1526*
X4848Y1526*
X4847Y1526*
X4847Y1526*
X4847Y1525*
X4847*
X4846*
X4846Y1526*
X4845Y1526*
X4845Y1526*
X4844Y1526*
X4844Y1526*
X4843Y1527*
X4842Y1527*
X4842Y1527*
X4842Y1527*
X4842Y1527*
X4842Y1527*
X4841Y1528*
X4841Y1528*
X4841Y1528*
X4841Y1528*
X4841Y1529*
X4840Y1529*
X4840Y1529*
X4840Y1530*
X4840Y1531*
X4840Y1532*
X4839Y1532*
X4839Y1533*
X4839Y1533*
X4839Y1533*
Y1534*
X4839Y1534*
X4839Y1535*
X4840Y1535*
X4840Y1536*
X4840Y1536*
X4840Y1537*
X4840Y1537*
X4840Y1538*
X4840Y1538*
X4841Y1538*
X4841Y1539*
X4841Y1539*
X4841Y1539*
X4841Y1539*
X4841Y1539*
X4841Y1539*
X4842Y1540*
X4842Y1540*
X4842Y1540*
X4843Y1541*
X4844Y1541*
X4845Y1541*
X4845Y1541*
X4846Y1542*
X4846Y1542*
X4846Y1542*
X4846Y1542*
X4847*
X4847Y1542*
X4847*
X4847Y1539*
X4846Y1539*
X4845Y1538*
X4845Y1538*
X4844Y1538*
X4844Y1538*
X4844Y1537*
X4843Y1537*
X4843Y1537*
X4843Y1537*
X4843Y1536*
X4842Y1535*
X4842Y1535*
X4842Y1534*
X4842Y1534*
X4842Y1534*
Y1534*
X4842Y1533*
X4842Y1532*
X4842Y1532*
X4843Y1531*
X4843Y1531*
X4843Y1530*
X4843Y1530*
X4843Y1530*
X4844Y1530*
X4844Y1529*
X4845Y1529*
X4845Y1529*
X4846Y1529*
X4846Y1529*
X4846Y1529*
X4846*
X4846*
X4847Y1529*
X4848Y1529*
X4848Y1529*
X4849Y1529*
X4849Y1530*
X4850Y1530*
X4850Y1530*
X4850Y1530*
X4850Y1530*
X4850*
X4851Y1531*
X4851Y1531*
X4851Y1531*
X4852Y1532*
X4853Y1533*
X4854Y1534*
X4854Y1534*
X4854Y1534*
X4855Y1535*
X4855Y1535*
X4855Y1535*
X4855Y1536*
X4856Y1536*
X4856Y1536*
X4856Y1537*
X4857Y1538*
X4858Y1538*
X4858Y1539*
X4859Y1539*
X4859Y1540*
X4859Y1540*
X4859Y1540*
X4859*
X4860Y1540*
X4861Y1541*
X4861Y1541*
X4862Y1542*
X4862Y1542*
X4863Y1542*
X4863Y1542*
X4863Y1542*
X4863*
X4863Y1542*
X4864Y1542*
X4864Y1542*
X4864Y1542*
X4865Y1542*
X4865*
X4865*
X4865*
Y1525*
G37*
G36*
X4854Y1522D02*
X4855Y1522D01*
X4856Y1522*
X4857Y1522*
X4858Y1521*
X4859Y1521*
X4860Y1521*
X4860Y1521*
X4861Y1521*
X4861Y1520*
X4862Y1520*
X4862Y1520*
X4863Y1520*
X4863Y1520*
X4863Y1520*
X4863Y1520*
X4863Y1519*
X4864Y1519*
X4864Y1518*
X4864Y1518*
X4865Y1517*
X4865Y1517*
X4865Y1516*
X4865Y1516*
X4865Y1515*
X4865Y1515*
X4865Y1515*
X4865Y1514*
X4866Y1514*
Y1514*
X4865Y1513*
X4865Y1512*
X4865Y1511*
X4865Y1510*
X4865Y1510*
X4864Y1510*
X4864Y1509*
X4864Y1509*
X4864Y1509*
X4864Y1509*
Y1509*
X4863Y1508*
X4863Y1508*
X4862Y1507*
X4861Y1507*
X4861Y1507*
X4860Y1507*
X4860Y1506*
X4860Y1506*
X4860Y1506*
X4860Y1506*
X4860*
X4859Y1506*
X4859Y1506*
X4857Y1506*
X4856Y1506*
X4855Y1505*
X4855Y1505*
X4854Y1505*
X4854*
X4853Y1505*
X4853*
X4853*
X4852*
X4852*
X4852*
X4851Y1505*
X4850*
X4850Y1505*
X4849Y1505*
X4849Y1506*
X4848Y1506*
X4848Y1506*
X4848Y1506*
X4847Y1506*
X4847Y1506*
X4847Y1506*
X4847Y1506*
X4847Y1506*
X4846Y1506*
X4846*
X4846Y1506*
X4845Y1506*
X4844Y1507*
X4844Y1507*
X4843Y1507*
X4843Y1507*
X4843Y1507*
X4843Y1508*
X4842Y1508*
X4842Y1508*
X4841Y1509*
X4841Y1509*
X4841Y1510*
X4840Y1510*
X4840Y1510*
X4840Y1510*
Y1510*
X4840Y1511*
X4840Y1511*
X4840Y1512*
X4839Y1512*
X4839Y1513*
X4839Y1513*
Y1514*
X4839Y1515*
X4840Y1516*
X4840Y1516*
X4840Y1517*
X4840Y1518*
X4840Y1518*
X4841Y1518*
X4841Y1518*
X4841Y1518*
X4841Y1518*
Y1518*
X4841Y1519*
X4842Y1520*
X4843Y1520*
X4844Y1520*
X4844Y1521*
X4844Y1521*
X4845Y1521*
X4845Y1521*
X4845Y1521*
X4845Y1521*
X4845*
X4846Y1521*
X4846Y1521*
X4847Y1522*
X4849Y1522*
X4850Y1522*
X4850Y1522*
X4851Y1522*
X4851*
X4852Y1522*
X4852*
X4852*
X4852*
X4852*
X4854Y1522*
G37*
G36*
X4090Y2215D02*
X4091Y2214D01*
X4092Y2214*
X4093Y2214*
X4093Y2214*
X4093Y2213*
X4094Y2213*
X4094Y2213*
X4094Y2213*
X4094Y2213*
X4094Y2213*
X4094Y2213*
X4095Y2212*
X4095Y2211*
X4096Y2211*
X4096Y2210*
X4096Y2209*
X4097Y2209*
X4097Y2209*
X4097Y2208*
X4097Y2208*
X4097Y2208*
Y2208*
X4094Y2207*
X4093Y2208*
X4093Y2209*
X4093Y2210*
X4093Y2210*
X4092Y2210*
X4092Y2211*
X4092Y2211*
X4092Y2211*
X4092Y2211*
X4091Y2212*
X4091Y2212*
X4090Y2212*
X4090Y2212*
X4089Y2212*
X4089*
X4088Y2212*
X4088Y2212*
X4087Y2212*
X4087Y2212*
X4086Y2211*
X4086Y2211*
X4086Y2211*
X4086Y2211*
X4086Y2210*
X4085Y2210*
X4085Y2210*
X4085Y2209*
X4085Y2209*
X4085Y2208*
Y2208*
Y2208*
Y2208*
Y2208*
X4085Y2207*
X4085Y2207*
X4085Y2206*
X4086Y2206*
X4086Y2205*
X4086Y2205*
X4086Y2205*
X4086Y2205*
X4086*
X4087Y2205*
X4088Y2204*
X4088Y2204*
X4089Y2204*
X4089Y2204*
X4090Y2204*
X4090*
X4090Y2204*
X4090*
X4091Y2201*
X4090Y2201*
X4090Y2201*
X4090Y2201*
X4089Y2201*
X4089Y2201*
X4089*
X4088Y2201*
X4087Y2201*
X4087Y2201*
X4086Y2201*
X4086Y2200*
X4085Y2200*
X4085Y2200*
X4085Y2200*
X4085Y2199*
X4084Y2199*
X4084Y2198*
X4084Y2198*
X4084Y2197*
X4084Y2197*
X4084Y2197*
Y2197*
Y2196*
Y2196*
X4084Y2196*
X4084Y2195*
X4084Y2194*
X4084Y2194*
X4085Y2193*
X4085Y2193*
X4085Y2193*
X4085Y2193*
X4086Y2192*
X4086Y2192*
X4087Y2191*
X4088Y2191*
X4088Y2191*
X4089Y2191*
X4089Y2191*
X4089*
X4090Y2191*
X4090Y2191*
X4091Y2191*
X4091Y2192*
X4092Y2192*
X4092Y2192*
X4092Y2192*
X4092Y2192*
X4093Y2193*
X4093Y2193*
X4093Y2194*
X4093Y2195*
X4094Y2195*
X4094Y2195*
X4094Y2196*
X4094Y2196*
X4094Y2196*
X4094Y2196*
Y2196*
X4097Y2196*
X4097Y2195*
X4097Y2195*
X4097Y2194*
X4096Y2193*
X4096Y2192*
X4096Y2192*
X4095Y2192*
X4095Y2191*
X4095Y2191*
X4095Y2191*
X4095Y2191*
X4095Y2191*
X4095Y2191*
X4095Y2191*
X4094Y2190*
X4094Y2190*
X4093Y2190*
X4093Y2189*
X4092Y2189*
X4091Y2189*
X4090Y2189*
X4090Y2189*
X4090Y2189*
X4089Y2189*
X4089Y2189*
X4089*
X4088Y2189*
X4088Y2189*
X4087Y2189*
X4086Y2189*
X4086Y2189*
X4085Y2189*
X4085Y2189*
X4084Y2190*
X4084Y2190*
X4084Y2190*
X4083Y2190*
X4083Y2190*
X4083Y2191*
X4083Y2191*
X4083Y2191*
X4083Y2191*
X4082Y2191*
X4082Y2192*
X4082Y2192*
X4081Y2193*
X4081Y2193*
X4081Y2194*
X4081Y2195*
X4080Y2195*
X4080Y2195*
X4080Y2196*
X4080Y2196*
X4080Y2196*
Y2196*
Y2196*
Y2196*
X4080Y2197*
X4080Y2198*
X4081Y2199*
X4081Y2199*
X4081Y2200*
X4081Y2200*
X4081Y2201*
X4082Y2201*
X4082Y2201*
X4083Y2202*
X4083Y2202*
X4084Y2202*
X4084Y2203*
X4085Y2203*
X4085Y2203*
X4085Y2203*
X4085Y2203*
X4085*
X4084Y2203*
X4084Y2203*
X4083Y2204*
X4083Y2204*
X4083Y2204*
X4083Y2205*
X4082Y2205*
X4082Y2205*
X4082Y2205*
X4082Y2206*
X4082Y2207*
X4082Y2207*
X4082Y2207*
X4082Y2208*
Y2208*
Y2208*
X4082Y2209*
X4082Y2209*
X4082Y2210*
X4082Y2210*
X4082Y2211*
X4082Y2211*
X4082Y2211*
X4082Y2211*
X4083Y2212*
X4083Y2212*
X4084Y2213*
X4084Y2213*
X4085Y2213*
X4085Y2214*
X4085Y2214*
X4085Y2214*
X4085*
X4086Y2214*
X4087Y2214*
X4087Y2214*
X4088Y2215*
X4088Y2215*
X4089Y2215*
X4090*
X4090Y2215*
G37*
G36*
X4109Y2215D02*
X4110Y2215D01*
X4110Y2214*
X4111Y2214*
X4111Y2214*
X4112Y2214*
X4112Y2214*
X4113Y2214*
X4113Y2214*
X4113Y2213*
X4114Y2213*
X4114Y2213*
X4114Y2213*
X4114Y2213*
X4114Y2213*
X4114Y2213*
X4115Y2212*
X4115Y2212*
X4115Y2212*
X4116Y2211*
X4116Y2210*
X4116Y2209*
X4116Y2209*
X4117Y2208*
X4117Y2208*
X4117Y2208*
X4117Y2208*
Y2207*
X4117Y2207*
Y2207*
X4114Y2207*
X4114Y2208*
X4113Y2209*
X4113Y2209*
X4113Y2210*
X4113Y2210*
X4112Y2210*
X4112Y2211*
X4112Y2211*
X4112Y2211*
X4111Y2211*
X4110Y2212*
X4110Y2212*
X4109Y2212*
X4109Y2212*
X4109Y2212*
X4109*
X4108Y2212*
X4107Y2212*
X4107Y2212*
X4106Y2211*
X4106Y2211*
X4105Y2211*
X4105Y2211*
X4105Y2211*
X4105Y2210*
X4104Y2210*
X4104Y2209*
X4104Y2209*
X4104Y2208*
X4104Y2208*
X4104Y2208*
Y2208*
Y2208*
X4104Y2207*
X4104Y2206*
X4104Y2206*
X4104Y2205*
X4105Y2205*
X4105Y2204*
X4105Y2204*
X4105Y2204*
X4105Y2204*
Y2204*
X4106Y2203*
X4106Y2203*
X4106Y2203*
X4107Y2202*
X4108Y2201*
X4109Y2200*
X4109Y2200*
X4109Y2200*
X4110Y2199*
X4110Y2199*
X4110Y2199*
X4111Y2199*
X4111Y2198*
X4111Y2198*
X4112Y2198*
X4113Y2197*
X4113Y2196*
X4114Y2196*
X4114Y2195*
X4115Y2195*
X4115Y2195*
X4115Y2195*
Y2195*
X4115Y2194*
X4116Y2193*
X4116Y2193*
X4117Y2192*
X4117Y2192*
X4117Y2191*
X4117Y2191*
X4117Y2191*
Y2191*
X4117Y2191*
X4117Y2190*
X4117Y2190*
X4117Y2190*
X4117Y2189*
Y2189*
Y2189*
Y2189*
X4100*
Y2192*
X4113*
X4113Y2193*
X4112Y2193*
X4112Y2193*
X4112Y2193*
X4112Y2193*
X4112Y2194*
X4112Y2194*
X4112Y2194*
X4111Y2194*
X4111Y2194*
X4110Y2195*
X4110Y2196*
X4109Y2196*
X4109Y2196*
X4109Y2197*
X4108Y2197*
X4108Y2197*
X4108Y2197*
X4108Y2197*
X4107Y2197*
X4107Y2198*
X4106Y2198*
X4106Y2199*
X4105Y2199*
X4105Y2200*
X4105Y2200*
X4104Y2200*
X4104Y2200*
X4104Y2201*
X4104Y2201*
X4104Y2201*
X4103Y2201*
X4103Y2201*
X4103Y2202*
X4102Y2203*
X4102Y2203*
X4102Y2204*
X4101Y2204*
X4101Y2204*
X4101Y2204*
X4101Y2205*
X4101Y2205*
X4101Y2206*
X4101Y2206*
X4101Y2207*
X4101Y2207*
X4100Y2207*
Y2207*
Y2208*
X4101Y2208*
X4101Y2209*
X4101Y2209*
X4101Y2210*
X4101Y2210*
X4102Y2211*
X4102Y2212*
X4102Y2212*
X4102Y2212*
X4102Y2212*
X4102Y2212*
X4103Y2213*
X4103Y2213*
X4103Y2213*
X4103Y2213*
X4104Y2213*
X4104Y2214*
X4104Y2214*
X4105Y2214*
X4106Y2214*
X4107Y2214*
X4107Y2215*
X4108Y2215*
X4108Y2215*
X4108Y2215*
X4109*
X4109Y2215*
G37*
G36*
X4132Y2215D02*
X4133Y2215D01*
X4134Y2215*
X4134Y2214*
X4135Y2214*
X4135Y2214*
X4136Y2214*
X4136Y2214*
X4136Y2214*
X4136Y2214*
X4137Y2214*
X4137Y2213*
X4137Y2213*
X4138Y2213*
X4139Y2212*
X4139Y2211*
X4140Y2211*
X4140Y2210*
X4141Y2210*
X4141Y2209*
X4141Y2209*
X4141Y2209*
X4141Y2209*
X4141Y2209*
X4142Y2208*
X4142Y2207*
X4142Y2205*
X4142Y2204*
X4142Y2204*
X4142Y2203*
X4142Y2203*
Y2203*
X4143Y2202*
Y2202*
Y2202*
Y2202*
X4142Y2201*
X4142Y2199*
X4142Y2198*
X4142Y2198*
X4142Y2197*
X4142Y2197*
X4142Y2196*
X4141Y2196*
X4141Y2196*
X4141Y2195*
X4141Y2195*
X4141Y2195*
Y2195*
X4141Y2194*
X4140Y2193*
X4139Y2192*
X4139Y2192*
X4139Y2191*
X4138Y2191*
X4138Y2191*
X4138Y2191*
X4138Y2191*
X4137Y2190*
X4137Y2190*
X4137Y2190*
X4137Y2190*
X4137Y2190*
X4136Y2190*
X4135Y2189*
X4134Y2189*
X4133Y2189*
X4132Y2189*
X4132Y2189*
X4132Y2189*
X4131*
X4131Y2189*
X4130*
X4130Y2189*
X4129Y2189*
X4128Y2189*
X4128Y2189*
X4127Y2189*
X4127Y2189*
X4126Y2189*
X4126Y2190*
X4125Y2190*
X4125Y2190*
X4124Y2190*
X4124Y2190*
X4124Y2191*
X4124Y2191*
X4124Y2191*
X4124Y2191*
X4123Y2191*
X4123Y2192*
X4122Y2192*
X4122Y2193*
X4121Y2194*
X4121Y2195*
X4121Y2195*
X4120Y2196*
X4120Y2196*
X4120Y2196*
X4120Y2197*
X4120Y2197*
X4120Y2197*
Y2197*
X4123Y2198*
X4123Y2197*
X4124Y2197*
X4124Y2196*
X4124Y2196*
X4124Y2195*
X4124Y2195*
X4125Y2195*
X4125Y2194*
X4125Y2194*
X4125Y2194*
X4125Y2193*
X4126Y2193*
X4126Y2193*
X4126Y2193*
X4126Y2193*
X4126Y2193*
X4126Y2193*
X4127Y2193*
X4128Y2192*
X4128Y2192*
X4129Y2192*
X4130Y2191*
X4130Y2191*
X4130*
X4131Y2191*
X4131*
X4132Y2191*
X4132Y2192*
X4133Y2192*
X4134Y2192*
X4134Y2192*
X4135Y2192*
X4135Y2192*
X4135Y2192*
X4135Y2193*
X4135Y2193*
X4135*
X4136Y2193*
X4136Y2194*
X4137Y2194*
X4137Y2195*
X4138Y2195*
X4138Y2196*
X4138Y2196*
X4138Y2196*
X4138Y2196*
Y2196*
X4138Y2197*
X4139Y2198*
X4139Y2199*
X4139Y2200*
X4139Y2200*
X4139Y2201*
Y2201*
X4139Y2201*
Y2202*
Y2202*
Y2202*
Y2202*
X4139Y2203*
X4139Y2204*
X4139Y2205*
X4139Y2205*
X4139Y2206*
X4138Y2206*
X4138Y2206*
X4138Y2207*
X4138Y2207*
X4138Y2207*
Y2207*
X4138Y2208*
X4137Y2208*
X4137Y2209*
X4137Y2210*
X4136Y2210*
X4136Y2210*
X4136Y2211*
X4136Y2211*
X4135*
X4135Y2211*
X4134Y2212*
X4133Y2212*
X4132Y2212*
X4132Y2212*
X4131Y2212*
X4131*
X4131Y2212*
X4131*
X4130Y2212*
X4129Y2212*
X4128Y2212*
X4127Y2211*
X4127Y2211*
X4127Y2211*
X4126Y2211*
X4126Y2211*
X4126Y2210*
X4125Y2210*
X4125Y2209*
X4124Y2208*
X4124Y2208*
X4124Y2207*
X4124Y2207*
X4124Y2207*
X4124Y2207*
X4124Y2207*
Y2207*
X4120Y2208*
X4121Y2208*
X4121Y2209*
X4121Y2209*
X4121Y2210*
X4122Y2210*
X4122Y2211*
X4122Y2211*
X4123Y2212*
X4123Y2212*
X4123Y2212*
X4123Y2212*
X4124Y2213*
X4124Y2213*
X4124Y2213*
X4124Y2213*
X4124Y2213*
X4124Y2213*
X4125Y2214*
X4126Y2214*
X4126Y2214*
X4127Y2215*
X4128Y2215*
X4129Y2215*
X4129Y2215*
X4129Y2215*
X4130Y2215*
X4130Y2215*
X4130*
X4132Y2215*
G37*
G36*
X4132Y1809D02*
X4133Y1809D01*
X4133Y1808*
X4134Y1808*
X4134Y1808*
X4135Y1808*
X4135Y1808*
X4136Y1808*
X4136Y1808*
X4136Y1807*
X4137Y1807*
X4137Y1807*
X4137Y1807*
X4137Y1807*
X4137Y1807*
X4137Y1807*
X4138Y1806*
X4138Y1806*
X4138Y1806*
X4139Y1805*
X4139Y1804*
X4139Y1803*
X4139Y1803*
X4140Y1802*
X4140Y1802*
X4140Y1802*
X4140Y1802*
Y1801*
X4140Y1801*
Y1801*
X4137Y1801*
X4137Y1802*
X4136Y1803*
X4136Y1803*
X4136Y1804*
X4136Y1804*
X4135Y1804*
X4135Y1805*
X4135Y1805*
X4135Y1805*
X4134Y1805*
X4133Y1806*
X4133Y1806*
X4132Y1806*
X4132Y1806*
X4132Y1806*
X4132*
X4131Y1806*
X4130Y1806*
X4130Y1806*
X4129Y1805*
X4129Y1805*
X4128Y1805*
X4128Y1805*
X4128Y1805*
X4128Y1804*
X4127Y1804*
X4127Y1803*
X4127Y1803*
X4127Y1802*
X4127Y1802*
X4127Y1802*
Y1802*
Y1802*
X4127Y1801*
X4127Y1800*
X4127Y1800*
X4127Y1799*
X4128Y1799*
X4128Y1798*
X4128Y1798*
X4128Y1798*
X4128Y1798*
Y1798*
X4129Y1797*
X4129Y1797*
X4129Y1797*
X4130Y1796*
X4131Y1795*
X4132Y1794*
X4132Y1794*
X4132Y1794*
X4133Y1793*
X4133Y1793*
X4133Y1793*
X4134Y1793*
X4134Y1792*
X4134Y1792*
X4135Y1792*
X4136Y1791*
X4136Y1790*
X4137Y1790*
X4137Y1789*
X4138Y1789*
X4138Y1789*
X4138Y1789*
Y1789*
X4138Y1788*
X4139Y1787*
X4139Y1787*
X4140Y1786*
X4140Y1786*
X4140Y1785*
X4140Y1785*
X4140Y1785*
Y1785*
X4140Y1785*
X4140Y1784*
X4140Y1784*
X4140Y1784*
X4140Y1783*
Y1783*
Y1783*
Y1783*
X4123*
Y1786*
X4136*
X4136Y1787*
X4135Y1787*
X4135Y1787*
X4135Y1787*
X4135Y1787*
X4135Y1788*
X4135Y1788*
X4135Y1788*
X4134Y1788*
X4134Y1788*
X4133Y1789*
X4133Y1790*
X4132Y1790*
X4132Y1790*
X4132Y1791*
X4131Y1791*
X4131Y1791*
X4131Y1791*
X4131Y1791*
X4130Y1791*
X4130Y1792*
X4129Y1792*
X4129Y1793*
X4128Y1793*
X4128Y1794*
X4128Y1794*
X4127Y1794*
X4127Y1794*
X4127Y1795*
X4127Y1795*
X4127Y1795*
X4126Y1795*
X4126Y1795*
X4126Y1796*
X4125Y1797*
X4125Y1797*
X4125Y1798*
X4124Y1798*
X4124Y1798*
X4124Y1798*
X4124Y1799*
X4124Y1799*
X4124Y1800*
X4124Y1800*
X4124Y1801*
X4124Y1801*
X4123Y1801*
Y1801*
Y1802*
X4124Y1802*
X4124Y1803*
X4124Y1803*
X4124Y1804*
X4124Y1804*
X4125Y1805*
X4125Y1806*
X4125Y1806*
X4125Y1806*
X4125Y1806*
X4125Y1806*
X4126Y1807*
X4126Y1807*
X4126Y1807*
X4126Y1807*
X4127Y1807*
X4127Y1808*
X4127Y1808*
X4128Y1808*
X4129Y1808*
X4130Y1808*
X4130Y1809*
X4131Y1809*
X4131Y1809*
X4131Y1809*
X4132*
X4132Y1809*
G37*
G36*
X4155Y1809D02*
X4156Y1809D01*
X4157Y1809*
X4157Y1808*
X4158Y1808*
X4158Y1808*
X4159Y1808*
X4159Y1808*
X4159Y1808*
X4159Y1808*
X4160Y1808*
X4160Y1807*
X4160Y1807*
X4161Y1807*
X4162Y1806*
X4162Y1805*
X4163Y1805*
X4163Y1804*
X4164Y1804*
X4164Y1803*
X4164Y1803*
X4164Y1803*
X4164Y1803*
X4164Y1803*
X4165Y1802*
X4165Y1801*
X4165Y1799*
X4165Y1798*
X4165Y1798*
X4165Y1797*
X4165Y1797*
Y1797*
X4166Y1796*
Y1796*
Y1796*
Y1796*
X4165Y1795*
X4165Y1793*
X4165Y1792*
X4165Y1792*
X4165Y1791*
X4165Y1791*
X4165Y1790*
X4164Y1790*
X4164Y1790*
X4164Y1789*
X4164Y1789*
X4164Y1789*
Y1789*
X4164Y1788*
X4163Y1787*
X4162Y1786*
X4162Y1786*
X4162Y1785*
X4161Y1785*
X4161Y1785*
X4161Y1785*
X4161Y1785*
X4160Y1784*
X4160Y1784*
X4160Y1784*
X4160Y1784*
X4160Y1784*
X4159Y1784*
X4158Y1783*
X4157Y1783*
X4156Y1783*
X4155Y1783*
X4155Y1783*
X4155Y1783*
X4154*
X4154Y1783*
X4153*
X4153Y1783*
X4152Y1783*
X4151Y1783*
X4151Y1783*
X4150Y1783*
X4150Y1783*
X4149Y1783*
X4149Y1784*
X4148Y1784*
X4148Y1784*
X4147Y1784*
X4147Y1784*
X4147Y1785*
X4147Y1785*
X4147Y1785*
X4147Y1785*
X4146Y1785*
X4146Y1786*
X4145Y1786*
X4145Y1787*
X4144Y1788*
X4144Y1789*
X4144Y1789*
X4143Y1790*
X4143Y1790*
X4143Y1790*
X4143Y1791*
X4143Y1791*
X4143Y1791*
Y1791*
X4146Y1792*
X4146Y1791*
X4147Y1791*
X4147Y1790*
X4147Y1790*
X4147Y1789*
X4147Y1789*
X4148Y1789*
X4148Y1788*
X4148Y1788*
X4148Y1788*
X4148Y1787*
X4149Y1787*
X4149Y1787*
X4149Y1787*
X4149Y1787*
X4149Y1787*
X4149Y1787*
X4150Y1787*
X4151Y1786*
X4151Y1786*
X4152Y1786*
X4153Y1785*
X4153Y1785*
X4153*
X4154Y1785*
X4154*
X4155Y1785*
X4155Y1786*
X4156Y1786*
X4157Y1786*
X4157Y1786*
X4158Y1786*
X4158Y1786*
X4158Y1786*
X4158Y1787*
X4158Y1787*
X4158*
X4159Y1787*
X4159Y1788*
X4160Y1788*
X4160Y1789*
X4161Y1789*
X4161Y1790*
X4161Y1790*
X4161Y1790*
X4161Y1790*
Y1790*
X4161Y1791*
X4162Y1792*
X4162Y1793*
X4162Y1794*
X4162Y1794*
X4162Y1795*
Y1795*
X4162Y1795*
Y1796*
Y1796*
Y1796*
Y1796*
X4162Y1797*
X4162Y1798*
X4162Y1799*
X4162Y1799*
X4162Y1800*
X4161Y1800*
X4161Y1800*
X4161Y1801*
X4161Y1801*
X4161Y1801*
Y1801*
X4161Y1802*
X4160Y1802*
X4160Y1803*
X4160Y1804*
X4159Y1804*
X4159Y1804*
X4159Y1805*
X4159Y1805*
X4158*
X4158Y1805*
X4157Y1806*
X4156Y1806*
X4155Y1806*
X4155Y1806*
X4154Y1806*
X4154*
X4154Y1806*
X4154*
X4153Y1806*
X4152Y1806*
X4151Y1806*
X4150Y1805*
X4150Y1805*
X4150Y1805*
X4149Y1805*
X4149Y1805*
X4149Y1804*
X4148Y1804*
X4148Y1803*
X4147Y1802*
X4147Y1802*
X4147Y1801*
X4147Y1801*
X4147Y1801*
X4147Y1801*
X4147Y1801*
Y1801*
X4143Y1802*
X4144Y1802*
X4144Y1803*
X4144Y1803*
X4144Y1804*
X4145Y1804*
X4145Y1805*
X4145Y1805*
X4146Y1806*
X4146Y1806*
X4146Y1806*
X4146Y1806*
X4147Y1807*
X4147Y1807*
X4147Y1807*
X4147Y1807*
X4147Y1807*
X4147Y1807*
X4148Y1808*
X4149Y1808*
X4149Y1808*
X4150Y1809*
X4151Y1809*
X4152Y1809*
X4152Y1809*
X4152Y1809*
X4153Y1809*
X4153Y1809*
X4153*
X4155Y1809*
G37*
G36*
X4121Y1792D02*
Y1789D01*
X4110*
Y1783*
X4107*
Y1789*
X4103*
Y1792*
X4107*
Y1809*
X4109*
X4121Y1792*
G37*
%LNpcb-2*%
%LPC*%
G36*
X4417Y2488D02*
X4417D01*
X4417*
X4417*
X4416Y2488*
X4415Y2488*
X4415Y2488*
X4414Y2488*
X4414Y2487*
X4413Y2487*
X4413Y2487*
X4413Y2487*
X4412Y2486*
X4412Y2486*
X4412Y2485*
X4412Y2485*
X4411Y2484*
X4411Y2484*
X4411Y2483*
Y2483*
X4411Y2482*
X4412Y2482*
X4412Y2481*
X4412Y2481*
X4412Y2480*
X4413Y2480*
X4413Y2480*
X4413Y2480*
X4414Y2479*
X4414Y2479*
X4415Y2479*
X4415Y2478*
X4416Y2478*
X4416Y2478*
X4416*
X4417Y2478*
X4417*
X4417*
X4417*
X4418Y2478*
X4419Y2478*
X4420Y2479*
X4420Y2479*
X4421Y2479*
X4421Y2479*
X4421Y2480*
X4421Y2480*
X4421Y2480*
X4421*
X4422Y2480*
X4422Y2480*
X4422Y2481*
X4423Y2482*
X4423Y2482*
X4423Y2483*
X4423Y2483*
X4423Y2483*
Y2484*
X4423Y2484*
X4423Y2485*
X4423Y2485*
X4422Y2486*
X4422Y2486*
X4422Y2487*
X4422Y2487*
X4422Y2487*
X4421*
X4421Y2487*
X4420Y2488*
X4419Y2488*
X4419Y2488*
X4418Y2488*
X4418Y2488*
X4418*
X4417Y2488*
G37*
G36*
X4283Y2476D02*
X4283D01*
X4283*
X4283*
X4282Y2475*
X4281Y2475*
X4280Y2475*
X4280Y2475*
X4279Y2475*
X4279Y2474*
X4279Y2474*
X4279Y2474*
X4279*
X4278Y2474*
X4278Y2474*
X4278Y2473*
X4278Y2472*
X4277Y2472*
X4277Y2471*
X4277Y2471*
X4277Y2471*
Y2471*
X4277Y2470*
X4277Y2470*
X4277Y2469*
X4278Y2469*
X4278Y2468*
X4278Y2468*
X4278Y2468*
X4278Y2468*
X4278Y2468*
X4279Y2467*
X4279Y2467*
X4279Y2467*
X4280Y2466*
X4280Y2466*
X4280Y2466*
X4280Y2466*
X4281Y2466*
X4281Y2466*
X4282Y2466*
X4282Y2465*
X4283Y2465*
X4283Y2465*
X4283*
X4283*
X4284Y2465*
X4285Y2466*
X4286Y2466*
X4286Y2466*
X4287Y2466*
X4287Y2467*
X4287Y2467*
X4287Y2467*
X4288Y2467*
X4288Y2468*
X4288Y2469*
X4289Y2469*
X4289Y2470*
X4289Y2470*
X4289Y2470*
Y2471*
X4289Y2471*
X4289Y2472*
X4288Y2473*
X4288Y2473*
X4288Y2474*
X4287Y2474*
X4287Y2474*
X4287Y2474*
X4287Y2475*
X4286Y2475*
X4285Y2475*
X4285Y2475*
X4284Y2475*
X4284Y2475*
X4283*
X4283Y2476*
G37*
G36*
X4106Y1725D02*
X4106D01*
X4105Y1725*
X4104Y1725*
X4104Y1725*
X4104Y1724*
X4103Y1724*
X4103Y1724*
X4103Y1724*
X4103Y1724*
X4102Y1723*
X4102Y1723*
X4102Y1722*
X4102Y1722*
X4102Y1722*
X4101Y1721*
Y1721*
Y1721*
Y1721*
X4102Y1720*
X4102Y1720*
X4102Y1719*
X4102Y1719*
X4102Y1719*
X4102Y1718*
X4103Y1718*
X4103Y1718*
X4103Y1718*
X4104Y1717*
X4104Y1717*
X4105Y1717*
X4105Y1717*
X4105Y1717*
X4106Y1717*
X4106*
X4106Y1717*
X4107Y1717*
X4107Y1717*
X4108Y1718*
X4108Y1718*
X4108Y1718*
X4109Y1718*
X4109Y1718*
X4109Y1719*
X4109Y1719*
X4110Y1720*
X4110Y1720*
X4110Y1720*
X4110Y1721*
X4110Y1721*
Y1721*
Y1721*
X4110Y1722*
X4110Y1722*
X4109Y1723*
X4109Y1723*
X4109Y1723*
X4109Y1724*
X4109Y1724*
X4109Y1724*
X4108Y1724*
X4108Y1725*
X4107Y1725*
X4107Y1725*
X4106Y1725*
X4106Y1725*
G37*
G36*
X4106Y1714D02*
X4106D01*
X4105Y1714*
X4104Y1714*
X4104Y1714*
X4103Y1714*
X4103Y1713*
X4102Y1713*
X4102Y1713*
X4102Y1713*
X4101Y1712*
X4101Y1712*
X4101Y1711*
X4101Y1711*
X4101Y1710*
X4100Y1710*
X4100Y1709*
Y1709*
Y1709*
Y1709*
X4101Y1708*
X4101Y1708*
X4101Y1707*
X4101Y1707*
X4101Y1706*
X4102Y1706*
X4102Y1706*
X4102Y1706*
X4103Y1705*
X4103Y1705*
X4104Y1704*
X4104Y1704*
X4105Y1704*
X4105Y1704*
X4105Y1704*
X4106*
X4106Y1704*
X4107Y1704*
X4107Y1704*
X4108Y1704*
X4108Y1705*
X4108Y1705*
X4108Y1705*
X4108Y1705*
X4109Y1705*
X4109Y1705*
X4110Y1706*
X4110Y1706*
X4110Y1706*
X4110Y1707*
X4110Y1707*
X4110Y1707*
X4110Y1707*
X4111Y1708*
X4111Y1708*
X4111Y1708*
X4111Y1709*
X4111Y1709*
Y1709*
Y1709*
X4111Y1710*
X4111Y1711*
X4110Y1711*
X4110Y1712*
X4110Y1712*
X4110Y1713*
X4110Y1713*
X4109Y1713*
X4109Y1713*
X4108Y1714*
X4108Y1714*
X4107Y1714*
X4107Y1714*
X4106Y1714*
X4106Y1714*
G37*
G36*
X4853Y1519D02*
X4853D01*
X4853*
X4852*
X4851Y1519*
X4850Y1519*
X4849Y1519*
X4848Y1519*
X4848Y1518*
X4847Y1518*
X4846Y1518*
X4846Y1518*
X4845Y1518*
X4845Y1518*
X4845Y1518*
X4844Y1518*
X4844Y1517*
X4844Y1517*
X4844Y1517*
X4844*
X4843Y1517*
X4843Y1517*
X4843Y1516*
X4843Y1516*
X4842Y1516*
X4842Y1515*
X4842Y1515*
X4842Y1514*
X4842Y1514*
Y1514*
X4842Y1513*
X4842Y1513*
X4842Y1513*
X4842Y1512*
X4843Y1512*
X4843Y1511*
X4843Y1511*
X4844Y1510*
X4844Y1510*
X4844Y1510*
X4844Y1510*
X4844*
X4844Y1510*
X4845Y1510*
X4846Y1509*
X4846Y1509*
X4847Y1509*
X4848Y1509*
X4849Y1509*
X4850Y1509*
X4850Y1509*
X4851Y1509*
X4851*
X4852Y1509*
X4852*
X4852*
X4852*
X4852*
X4854*
X4855Y1509*
X4856Y1509*
X4856Y1509*
X4857Y1509*
X4858Y1509*
X4858Y1509*
X4859Y1509*
X4859Y1509*
X4860Y1510*
X4860Y1510*
X4860Y1510*
X4861Y1510*
X4861Y1510*
X4861Y1510*
X4861*
X4861Y1510*
X4862Y1511*
X4862Y1511*
X4862Y1511*
X4862Y1512*
X4863Y1512*
X4863Y1513*
X4863Y1513*
X4863Y1513*
Y1514*
X4863Y1514*
X4863Y1514*
X4863Y1515*
X4862Y1516*
X4862Y1516*
X4862Y1517*
X4861Y1517*
X4861Y1517*
X4861Y1517*
X4861*
X4860Y1518*
X4860Y1518*
X4859Y1518*
X4859Y1518*
X4858Y1518*
X4857Y1518*
X4856Y1519*
X4855Y1519*
X4855Y1519*
X4854Y1519*
X4853*
X4853Y1519*
G37*
G36*
X4110Y1803D02*
Y1792D01*
X4118*
X4110Y1803*
G37*
%LNpcb-3*%
%LPD*%
G54D16*
X4232Y1587D02*
Y1664D01*
X4097Y1587D02*
X4232D01*
X4097D02*
Y1664D01*
X4232*
X4840Y2237D02*
X4927D01*
X4840D02*
Y2394D01*
X4927*
Y2237D02*
Y2394D01*
X4356Y2351D02*
X4443D01*
X4356D02*
Y2508D01*
X4443*
Y2351D02*
Y2508D01*
X4236Y2349D02*
X4313D01*
X4236D02*
Y2484D01*
X4313*
Y2349D02*
Y2484D01*
X4741Y1501D02*
Y1635D01*
Y1501D02*
X4818D01*
Y1635*
X4741D02*
X4818D01*
X4238Y1658D02*
Y1745D01*
X4081Y1658D02*
X4238D01*
X4081D02*
Y1745D01*
X4238*
X4556Y2351D02*
X4643D01*
X4556D02*
Y2508D01*
X4643*
Y2351D02*
Y2508D01*
X4456Y2351D02*
X4543D01*
X4456D02*
Y2508D01*
X4543*
Y2351D02*
Y2508D01*
X4822Y1646D02*
X4909D01*
Y1489D02*
Y1646D01*
X4822Y1489D02*
X4909D01*
X4822D02*
Y1646D01*
X4221Y2145D02*
Y2232D01*
X4064Y2145D02*
X4221D01*
X4064D02*
Y2232D01*
X4221*
X4233Y1744D02*
Y1821D01*
X4098Y1744D02*
X4233D01*
X4098D02*
Y1821D01*
X4233*
M02*