%FSLAX23Y23*%
%MOIN*%
%SFA1B1*%

%IPPOS*%
%ADD16C,0.007870*%
%LNpcb-1*%
%LPD*%
G36*
X4734Y3807D02*
X4734Y3806D01*
X4735Y3806*
X4735Y3805*
X4736Y3805*
X4736Y3804*
X4736Y3804*
X4736Y3804*
X4736Y3804*
X4736Y3804*
X4737Y3803*
X4738Y3803*
X4739Y3802*
X4739Y3802*
X4740Y3801*
X4740Y3801*
X4740Y3801*
X4741Y3801*
X4741Y3801*
X4741Y3801*
X4741*
Y3798*
X4740Y3798*
X4740Y3798*
X4739Y3799*
X4739Y3799*
X4738Y3799*
X4738Y3799*
X4738Y3799*
X4738Y3799*
X4738*
X4737Y3800*
X4736Y3800*
X4736Y3801*
X4735Y3801*
X4735Y3801*
X4735Y3801*
X4735Y3802*
X4735Y3802*
Y3782*
X4731*
Y3807*
X4733*
X4734Y3807*
G37*
G36*
X4788Y3782D02*
X4784D01*
Y3793*
X4780*
X4779Y3793*
X4779*
X4779Y3793*
X4779Y3793*
X4779*
X4778Y3793*
X4778*
X4778Y3793*
X4778Y3793*
X4777Y3792*
X4777Y3792*
X4777Y3792*
X4777Y3792*
X4777Y3792*
X4777Y3792*
X4776Y3792*
X4776Y3791*
X4775Y3791*
X4775Y3791*
X4775Y3791*
X4775Y3790*
X4775Y3790*
X4774Y3789*
X4774Y3789*
X4774Y3788*
X4773Y3788*
X4773Y3787*
X4773Y3787*
X4773Y3787*
X4773Y3787*
Y3787*
X4769Y3782*
X4765*
X4770Y3789*
X4770Y3789*
X4771Y3790*
X4771Y3791*
X4771Y3791*
X4772Y3791*
X4772Y3792*
X4772Y3792*
X4772Y3792*
X4773Y3792*
X4773Y3792*
X4774Y3793*
X4774Y3793*
X4774Y3793*
X4774Y3793*
X4774Y3793*
X4774Y3793*
X4773Y3794*
X4773Y3794*
X4772Y3794*
X4771Y3794*
X4771Y3794*
X4771Y3794*
X4770Y3795*
X4770Y3795*
X4770Y3795*
X4769Y3795*
X4769Y3795*
X4769Y3795*
X4769Y3796*
X4769Y3796*
X4769Y3796*
X4769Y3796*
X4768Y3796*
X4768Y3797*
X4768Y3798*
X4767Y3799*
X4767Y3799*
X4767Y3800*
Y3800*
X4767Y3800*
Y3800*
Y3800*
Y3800*
X4767Y3801*
X4767Y3802*
X4767Y3802*
X4768Y3803*
X4768Y3803*
X4768Y3804*
X4768Y3804*
X4768Y3804*
Y3804*
X4769Y3805*
X4769Y3805*
X4770Y3806*
X4770Y3806*
X4770Y3806*
X4771Y3806*
X4771Y3807*
X4771Y3807*
X4771*
X4771Y3807*
X4772Y3807*
X4773Y3807*
X4774Y3807*
X4774Y3807*
X4775Y3807*
X4775*
X4776Y3807*
X4788*
Y3782*
G37*
G36*
X4764Y3791D02*
Y3788D01*
X4753*
Y3782*
X4750*
Y3788*
X4746*
Y3791*
X4750*
Y3807*
X4752*
X4764Y3791*
G37*
G36*
X4622Y3552D02*
X4611D01*
Y3547*
X4611Y3547*
Y3547*
X4611Y3546*
X4611Y3546*
Y3546*
X4611Y3546*
Y3546*
X4611Y3545*
X4611Y3545*
X4611Y3545*
X4611Y3545*
X4612Y3545*
X4612Y3544*
X4612Y3544*
X4612Y3544*
X4612Y3544*
X4613Y3543*
X4613Y3543*
X4613Y3543*
X4613Y3543*
X4613Y3543*
X4614Y3542*
X4614Y3542*
X4615Y3541*
X4616Y3541*
X4616Y3541*
X4616Y3540*
X4617Y3540*
X4617Y3540*
X4617Y3540*
X4617*
X4622Y3537*
Y3533*
X4615Y3537*
X4614Y3538*
X4614Y3538*
X4613Y3539*
X4613Y3539*
X4612Y3539*
X4612Y3540*
X4612Y3540*
X4612Y3540*
X4612Y3540*
X4611Y3540*
X4611Y3541*
X4611Y3541*
X4611Y3542*
X4611Y3542*
X4610Y3542*
X4610Y3541*
X4610Y3541*
X4610Y3540*
X4610Y3539*
X4610Y3539*
X4610Y3539*
X4609Y3538*
X4609Y3538*
X4609Y3537*
X4609Y3537*
X4609Y3537*
X4608Y3537*
X4608Y3537*
X4608Y3537*
X4608Y3536*
X4608Y3536*
X4608Y3536*
X4607Y3536*
X4607Y3535*
X4606Y3535*
X4605Y3535*
X4604Y3535*
X4604Y3535*
X4604*
X4604Y3535*
X4604*
X4604*
X4604*
X4603Y3535*
X4602Y3535*
X4601Y3535*
X4601Y3535*
X4600Y3535*
X4600Y3536*
X4600Y3536*
X4600Y3536*
X4600*
X4599Y3536*
X4599Y3537*
X4598Y3537*
X4598Y3538*
X4598Y3538*
X4597Y3538*
X4597Y3539*
X4597Y3539*
Y3539*
X4597Y3539*
X4597Y3539*
X4597Y3540*
X4597Y3541*
X4597Y3542*
X4597Y3543*
Y3543*
X4597Y3543*
Y3555*
X4622*
Y3552*
G37*
G36*
X4616Y3531D02*
X4617Y3530D01*
X4618Y3530*
X4618Y3530*
X4619Y3529*
X4619Y3529*
X4620Y3529*
X4620Y3529*
X4620Y3529*
X4620Y3528*
X4620Y3528*
X4620Y3528*
X4621Y3528*
X4621Y3528*
X4621Y3528*
X4621Y3527*
X4622Y3527*
X4622Y3526*
X4622Y3525*
X4622Y3524*
X4622Y3524*
X4622Y3524*
X4623Y3523*
X4623Y3523*
X4623Y3523*
Y3522*
X4623Y3522*
X4622Y3521*
X4622Y3521*
X4622Y3520*
X4622Y3519*
X4622Y3519*
X4622Y3518*
X4621Y3518*
X4621Y3518*
X4621Y3517*
X4621Y3517*
X4621Y3517*
X4620Y3517*
X4620Y3516*
X4620Y3516*
X4620Y3516*
X4620Y3516*
X4619Y3515*
X4619Y3515*
X4618Y3515*
X4618Y3515*
X4617Y3514*
X4617Y3514*
X4616Y3514*
X4616Y3514*
X4615Y3514*
X4615Y3514*
X4615Y3514*
X4615*
X4615*
X4615*
X4614Y3514*
X4613Y3514*
X4612Y3514*
X4612Y3514*
X4611Y3515*
X4611Y3515*
X4611Y3515*
X4610Y3515*
X4610Y3516*
X4609Y3516*
X4609Y3517*
X4609Y3517*
X4609Y3518*
X4608Y3518*
X4608Y3518*
X4608Y3519*
X4608Y3519*
Y3519*
X4608Y3518*
X4608Y3517*
X4607Y3517*
X4607Y3517*
X4607Y3516*
X4606Y3516*
X4606Y3516*
X4606Y3516*
X4606Y3516*
X4605Y3515*
X4605Y3515*
X4604Y3515*
X4604Y3515*
X4603Y3515*
X4603*
X4603*
X4602Y3515*
X4602Y3515*
X4601Y3515*
X4601Y3516*
X4600Y3516*
X4600Y3516*
X4600Y3516*
X4600Y3516*
X4599Y3516*
X4599Y3517*
X4598Y3517*
X4598Y3518*
X4598Y3518*
X4597Y3518*
X4597Y3519*
X4597Y3519*
Y3519*
X4597Y3519*
X4597Y3520*
X4597Y3521*
X4597Y3521*
X4596Y3522*
X4596Y3522*
Y3523*
X4596Y3524*
X4597Y3525*
X4597Y3526*
X4597Y3526*
X4597Y3527*
X4598Y3527*
X4598Y3527*
X4598Y3527*
X4598Y3527*
X4598Y3528*
X4598Y3528*
X4598Y3528*
X4599Y3528*
X4600Y3529*
X4600Y3529*
X4601Y3530*
X4602Y3530*
X4602Y3530*
X4603Y3530*
X4603Y3530*
X4603Y3530*
X4603Y3530*
X4603*
X4604Y3527*
X4603Y3527*
X4602Y3527*
X4601Y3526*
X4601Y3526*
X4601Y3526*
X4600Y3526*
X4600Y3526*
X4600Y3526*
X4600Y3525*
X4599Y3525*
X4599Y3524*
X4599Y3524*
X4599Y3523*
X4599Y3523*
Y3523*
X4599Y3522*
X4599Y3521*
X4599Y3521*
X4600Y3520*
X4600Y3520*
X4600Y3520*
X4600Y3520*
X4600Y3519*
X4601Y3519*
X4601Y3519*
X4602Y3519*
X4602Y3518*
X4602Y3518*
X4603Y3518*
X4603*
X4603*
X4603*
X4603*
X4604Y3518*
X4604Y3519*
X4605Y3519*
X4605Y3519*
X4606Y3519*
X4606Y3520*
X4606Y3520*
X4606Y3520*
Y3520*
X4607Y3521*
X4607Y3521*
X4607Y3522*
X4607Y3522*
X4607Y3523*
X4607Y3523*
Y3524*
X4607Y3524*
Y3524*
X4610Y3524*
X4610Y3524*
X4610Y3523*
X4610Y3523*
X4610Y3523*
X4610Y3523*
Y3522*
X4610Y3521*
X4610Y3521*
X4610Y3520*
X4610Y3520*
X4611Y3519*
X4611Y3519*
X4611Y3519*
X4611Y3519*
X4612Y3518*
X4612Y3518*
X4613Y3517*
X4613Y3517*
X4614Y3517*
X4614Y3517*
X4614Y3517*
X4615*
X4615*
X4615*
X4615Y3517*
X4616Y3517*
X4617Y3518*
X4617Y3518*
X4618Y3518*
X4618Y3518*
X4618Y3519*
X4618Y3519*
X4619Y3519*
X4619Y3520*
X4620Y3521*
X4620Y3521*
X4620Y3522*
X4620Y3522*
X4620Y3522*
Y3522*
X4620Y3523*
X4620Y3524*
X4620Y3524*
X4619Y3525*
X4619Y3525*
X4619Y3525*
X4619Y3526*
X4619Y3526*
X4618Y3526*
X4618Y3526*
X4617Y3527*
X4616Y3527*
X4616Y3527*
X4616Y3527*
X4615Y3527*
X4615Y3527*
X4615Y3527*
X4615Y3527*
X4615*
X4615Y3531*
X4616Y3531*
G37*
G36*
X4615Y3511D02*
X4616Y3511D01*
X4617Y3511*
X4617Y3510*
X4618Y3510*
X4618Y3510*
X4619Y3510*
X4619Y3509*
X4619Y3509*
X4620Y3509*
X4620Y3509*
X4620Y3509*
X4620Y3509*
X4620Y3509*
X4620Y3508*
X4621Y3508*
X4621Y3508*
X4621Y3507*
X4622Y3507*
X4622Y3506*
X4622Y3506*
X4622Y3505*
X4622Y3504*
X4622Y3504*
X4623Y3503*
X4623Y3503*
X4623Y3503*
Y3502*
X4623Y3502*
X4622Y3501*
X4622Y3500*
X4622Y3500*
X4622Y3499*
X4622Y3499*
X4622Y3498*
X4621Y3498*
X4621Y3497*
X4621Y3497*
X4621Y3497*
X4621Y3497*
X4621Y3496*
X4620Y3496*
X4620Y3496*
X4620Y3496*
X4620Y3496*
X4619Y3495*
X4619Y3495*
X4619Y3495*
X4618Y3495*
X4618Y3494*
X4617Y3494*
X4616Y3494*
X4616Y3494*
X4616Y3494*
X4615Y3494*
X4615Y3494*
X4615*
X4615*
X4615*
X4614Y3494*
X4613Y3494*
X4613Y3494*
X4612Y3495*
X4611Y3495*
X4611Y3495*
X4611Y3495*
X4611Y3495*
X4611*
X4610Y3496*
X4610Y3496*
X4609Y3497*
X4609Y3497*
X4609Y3498*
X4608Y3498*
X4608Y3498*
X4608Y3499*
X4608Y3499*
Y3499*
X4608Y3498*
X4608Y3497*
X4607Y3497*
X4607Y3497*
X4607Y3496*
X4606Y3496*
X4606Y3496*
X4606Y3496*
X4606Y3496*
X4605Y3495*
X4605Y3495*
X4604Y3495*
X4604Y3495*
X4603Y3495*
X4603*
X4603*
X4603*
X4603Y3495*
X4602Y3495*
X4601Y3495*
X4600Y3496*
X4600Y3496*
X4599Y3496*
X4599Y3497*
X4599Y3497*
X4599Y3497*
X4598Y3497*
X4598Y3497*
X4598Y3497*
X4598Y3497*
X4598Y3498*
X4597Y3498*
X4597Y3499*
X4597Y3500*
X4597Y3500*
X4597Y3501*
X4597Y3501*
X4596Y3502*
X4596Y3502*
X4596Y3502*
Y3502*
X4596Y3503*
X4596Y3504*
X4597Y3505*
X4597Y3505*
X4597Y3506*
X4597Y3506*
X4597Y3506*
X4598Y3507*
X4598Y3507*
X4598Y3507*
X4598Y3507*
X4598Y3508*
X4598Y3508*
X4598Y3508*
X4598Y3508*
X4599Y3508*
X4599Y3508*
X4599Y3509*
X4600Y3509*
X4601Y3509*
X4601Y3509*
X4602Y3510*
X4602Y3510*
X4603Y3510*
X4603Y3510*
X4603*
X4603*
X4603*
X4604Y3510*
X4604Y3510*
X4605Y3509*
X4605Y3509*
X4606Y3509*
X4606Y3509*
X4606Y3509*
X4606Y3509*
X4607Y3508*
X4607Y3508*
X4607Y3507*
X4608Y3507*
X4608Y3507*
X4608Y3506*
X4608Y3506*
X4608Y3506*
X4608Y3506*
Y3506*
X4609Y3507*
X4609Y3507*
X4609Y3508*
X4610Y3509*
X4610Y3509*
X4610Y3509*
X4611Y3509*
X4611Y3510*
X4611*
X4611Y3510*
X4612Y3510*
X4613Y3510*
X4613Y3511*
X4614Y3511*
X4614Y3511*
X4614*
X4615Y3511*
X4615*
X4615*
X4615*
X4615Y3511*
G37*
G36*
X1994Y3588D02*
X1995Y3587D01*
X1996Y3587*
X1996Y3587*
X1997Y3587*
X1997Y3586*
X1997Y3586*
X1997Y3586*
X1997Y3586*
X1998Y3586*
X1998Y3586*
X1998Y3586*
X1998Y3585*
X1999Y3584*
X1999Y3584*
X2000Y3583*
X2000Y3582*
X2000Y3582*
X2000Y3581*
X2000Y3581*
X2000Y3581*
X2000Y3581*
Y3581*
X1997Y3580*
X1997Y3581*
X1997Y3582*
X1996Y3583*
X1996Y3583*
X1996Y3583*
X1996Y3584*
X1996Y3584*
X1996Y3584*
X1995Y3584*
X1995Y3585*
X1994Y3585*
X1994Y3585*
X1993Y3585*
X1993Y3585*
X1993*
X1992Y3585*
X1991Y3585*
X1991Y3585*
X1990Y3584*
X1990Y3584*
X1990Y3584*
X1990Y3584*
X1989Y3584*
X1989Y3583*
X1989Y3583*
X1989Y3582*
X1988Y3582*
X1988Y3582*
X1988Y3581*
Y3581*
Y3581*
Y3581*
Y3581*
X1988Y3580*
X1989Y3580*
X1989Y3579*
X1989Y3579*
X1989Y3578*
X1990Y3578*
X1990Y3578*
X1990Y3578*
X1990*
X1991Y3577*
X1991Y3577*
X1992Y3577*
X1992Y3577*
X1993Y3577*
X1993Y3577*
X1994*
X1994Y3577*
X1994*
X1994Y3574*
X1994Y3574*
X1993Y3574*
X1993Y3574*
X1993Y3574*
X1993Y3574*
X1992*
X1991Y3574*
X1991Y3574*
X1990Y3574*
X1990Y3574*
X1989Y3573*
X1989Y3573*
X1989Y3573*
X1989Y3573*
X1988Y3572*
X1988Y3572*
X1987Y3571*
X1987Y3571*
X1987Y3570*
X1987Y3570*
X1987Y3570*
Y3569*
Y3569*
Y3569*
X1987Y3569*
X1987Y3568*
X1988Y3567*
X1988Y3567*
X1988Y3566*
X1988Y3566*
X1989Y3566*
X1989Y3566*
X1989Y3565*
X1990Y3565*
X1991Y3564*
X1991Y3564*
X1992Y3564*
X1992Y3564*
X1992Y3564*
X1992*
X1993Y3564*
X1994Y3564*
X1994Y3564*
X1995Y3565*
X1995Y3565*
X1995Y3565*
X1996Y3565*
X1996Y3565*
X1996Y3566*
X1996Y3566*
X1997Y3567*
X1997Y3568*
X1997Y3568*
X1997Y3568*
X1997Y3569*
X1997Y3569*
X1997Y3569*
X1997Y3569*
Y3569*
X2001Y3569*
X2000Y3568*
X2000Y3567*
X2000Y3566*
X2000Y3566*
X1999Y3565*
X1999Y3565*
X1999Y3564*
X1999Y3564*
X1999Y3564*
X1998Y3564*
X1998Y3564*
X1998Y3564*
X1998Y3563*
X1998Y3563*
X1998Y3563*
X1997Y3563*
X1997Y3562*
X1996Y3562*
X1995Y3562*
X1994Y3562*
X1994Y3562*
X1994Y3562*
X1993Y3561*
X1993Y3561*
X1993Y3561*
X1992*
X1992Y3561*
X1991Y3562*
X1991Y3562*
X1990Y3562*
X1989Y3562*
X1989Y3562*
X1988Y3562*
X1988Y3563*
X1988Y3563*
X1987Y3563*
X1987Y3563*
X1987Y3563*
X1987Y3564*
X1986Y3564*
X1986Y3564*
X1986Y3564*
X1986Y3564*
X1985Y3565*
X1985Y3565*
X1985Y3566*
X1985Y3566*
X1984Y3567*
X1984Y3567*
X1984Y3568*
X1984Y3568*
X1984Y3569*
X1984Y3569*
X1984Y3569*
Y3569*
Y3569*
Y3569*
X1984Y3570*
X1984Y3571*
X1984Y3572*
X1984Y3572*
X1985Y3573*
X1985Y3573*
X1985Y3573*
X1985Y3574*
X1986Y3574*
X1986Y3575*
X1987Y3575*
X1987Y3575*
X1988Y3575*
X1988Y3576*
X1988Y3576*
X1989Y3576*
X1989Y3576*
X1989*
X1988Y3576*
X1987Y3576*
X1987Y3577*
X1987Y3577*
X1986Y3577*
X1986Y3578*
X1986Y3578*
X1986Y3578*
X1986Y3578*
X1985Y3579*
X1985Y3579*
X1985Y3580*
X1985Y3580*
X1985Y3581*
Y3581*
Y3581*
X1985Y3582*
X1985Y3582*
X1985Y3583*
X1986Y3583*
X1986Y3584*
X1986Y3584*
X1986Y3584*
X1986Y3584*
X1986Y3585*
X1987Y3585*
X1987Y3586*
X1988Y3586*
X1988Y3586*
X1988Y3587*
X1989Y3587*
X1989Y3587*
X1989*
X1989Y3587*
X1990Y3587*
X1991Y3587*
X1991Y3587*
X1992Y3588*
X1992Y3588*
X1993*
X1994Y3588*
G37*
G36*
X1972Y3588D02*
X1973Y3587D01*
X1974Y3587*
X1974Y3587*
X1975Y3587*
X1975Y3587*
X1976Y3586*
X1976Y3586*
X1977Y3586*
X1977Y3586*
X1977Y3585*
X1978Y3585*
X1978Y3585*
X1978Y3585*
X1978Y3585*
X1978Y3585*
X1979Y3584*
X1979Y3583*
X1979Y3582*
X1980Y3582*
X1980Y3581*
X1980Y3580*
X1980Y3579*
X1981Y3578*
X1981Y3577*
X1981Y3576*
X1981Y3576*
X1981Y3575*
Y3575*
X1981Y3574*
Y3574*
Y3574*
Y3574*
Y3574*
X1981Y3573*
X1981Y3572*
X1981Y3570*
X1980Y3570*
X1980Y3569*
X1980Y3568*
X1980Y3567*
X1980Y3567*
X1979Y3566*
X1979Y3566*
X1979Y3565*
X1979Y3565*
X1979Y3565*
X1978Y3564*
X1978Y3564*
X1978Y3564*
X1978Y3564*
X1977Y3563*
X1977Y3563*
X1976Y3563*
X1976Y3562*
X1975Y3562*
X1975Y3562*
X1974Y3562*
X1974Y3562*
X1973Y3562*
X1973Y3561*
X1973Y3561*
X1972*
X1972Y3561*
X1972*
X1971Y3561*
X1970Y3562*
X1970Y3562*
X1969Y3562*
X1969Y3562*
X1968Y3562*
X1968Y3562*
X1968Y3562*
X1968Y3562*
X1968*
X1967Y3563*
X1967Y3563*
X1966Y3564*
X1966Y3564*
X1965Y3565*
X1965Y3565*
X1965Y3565*
X1965Y3566*
X1965Y3566*
Y3566*
X1965Y3566*
X1964Y3567*
X1964Y3568*
X1964Y3569*
X1964Y3569*
Y3570*
X1964Y3570*
Y3570*
Y3570*
Y3570*
Y3570*
X1964Y3571*
X1964Y3571*
X1964Y3572*
X1964Y3573*
X1964Y3573*
X1965Y3574*
X1965Y3574*
X1965Y3575*
X1965Y3575*
X1965Y3575*
X1966Y3575*
X1966Y3576*
X1966Y3576*
X1966Y3576*
X1966Y3576*
X1966Y3576*
X1967Y3577*
X1967Y3577*
X1967Y3577*
X1968Y3577*
X1968Y3578*
X1969Y3578*
X1970Y3578*
X1970Y3578*
X1970Y3578*
X1971Y3578*
X1971Y3578*
X1971Y3578*
X1971*
X1972Y3578*
X1973Y3578*
X1973Y3578*
X1974Y3578*
X1974Y3578*
X1975Y3578*
X1975Y3578*
X1975Y3578*
X1975*
X1976Y3577*
X1976Y3577*
X1977Y3576*
X1977Y3576*
X1977Y3576*
X1978Y3575*
X1978Y3575*
X1978Y3575*
Y3576*
X1978Y3576*
X1978Y3577*
X1978Y3578*
X1978Y3578*
X1977Y3579*
X1977Y3579*
X1977Y3579*
X1977Y3580*
X1977Y3580*
X1977Y3580*
X1977Y3581*
X1977Y3581*
X1977Y3581*
X1977Y3581*
Y3581*
X1976Y3582*
X1976Y3582*
X1976Y3583*
X1975Y3583*
X1975Y3584*
X1975Y3584*
X1975Y3584*
X1974Y3584*
X1974Y3584*
X1974Y3585*
X1973Y3585*
X1973Y3585*
X1972Y3585*
X1972Y3585*
X1972*
X1971Y3585*
X1971Y3585*
X1970Y3585*
X1970Y3584*
X1969Y3584*
X1969Y3584*
X1969Y3584*
X1969Y3584*
X1968Y3583*
X1968Y3583*
X1968Y3582*
X1968Y3582*
X1968Y3582*
X1968Y3581*
X1967Y3581*
X1967Y3581*
Y3581*
X1964Y3581*
X1965Y3582*
X1965Y3583*
X1965Y3584*
X1966Y3585*
X1966Y3585*
X1966Y3585*
X1966Y3586*
X1966Y3586*
X1967Y3586*
X1967Y3586*
X1967Y3586*
X1967Y3586*
X1967Y3586*
X1968Y3587*
X1969Y3587*
X1970Y3587*
X1971Y3588*
X1971Y3588*
X1971*
X1971Y3588*
X1972*
X1972Y3588*
G37*
G36*
X2025Y3562D02*
X2022D01*
Y3573*
X2017*
X2017Y3573*
X2017*
X2016Y3573*
X2016Y3573*
X2016*
X2016Y3573*
X2016*
X2015Y3573*
X2015Y3573*
X2015Y3573*
X2015Y3573*
X2014Y3572*
X2014Y3572*
X2014Y3572*
X2014Y3572*
X2014Y3572*
X2013Y3571*
X2013Y3571*
X2013Y3571*
X2013Y3571*
X2013Y3571*
X2012Y3570*
X2012Y3570*
X2011Y3569*
X2011Y3568*
X2011Y3568*
X2010Y3568*
X2010Y3567*
X2010Y3567*
X2010Y3567*
Y3567*
X2007Y3562*
X2003*
X2007Y3569*
X2008Y3570*
X2008Y3570*
X2008Y3571*
X2009Y3571*
X2009Y3572*
X2010Y3572*
X2010Y3572*
X2010Y3572*
X2010Y3572*
X2010Y3573*
X2011Y3573*
X2011Y3573*
X2012Y3573*
X2012Y3573*
X2012Y3574*
X2011Y3574*
X2011Y3574*
X2010Y3574*
X2009Y3574*
X2009Y3574*
X2009Y3574*
X2008Y3575*
X2008Y3575*
X2007Y3575*
X2007Y3575*
X2007Y3575*
X2007Y3576*
X2007Y3576*
X2006Y3576*
X2006Y3576*
X2006Y3576*
X2006Y3576*
X2006Y3577*
X2005Y3577*
X2005Y3578*
X2005Y3579*
X2005Y3580*
X2005Y3580*
Y3580*
X2005Y3580*
Y3580*
Y3580*
Y3580*
X2005Y3581*
X2005Y3582*
X2005Y3583*
X2005Y3583*
X2005Y3584*
X2006Y3584*
X2006Y3584*
X2006Y3584*
Y3584*
X2006Y3585*
X2007Y3585*
X2007Y3586*
X2008Y3586*
X2008Y3586*
X2008Y3587*
X2008Y3587*
X2009Y3587*
X2009*
X2009Y3587*
X2009Y3587*
X2010Y3587*
X2011Y3587*
X2012Y3587*
X2013Y3587*
X2013*
X2013Y3587*
X2025*
Y3562*
G37*
G36*
X2219Y3733D02*
X2220Y3732D01*
X2221Y3732*
X2221Y3732*
X2222Y3732*
X2222Y3731*
X2222Y3731*
X2222Y3731*
X2223Y3731*
X2223Y3731*
X2223Y3731*
X2223Y3731*
X2223Y3730*
X2224Y3729*
X2224Y3729*
X2225Y3728*
X2225Y3727*
X2225Y3727*
X2225Y3726*
X2225Y3726*
X2225Y3726*
X2225Y3726*
Y3726*
X2222Y3725*
X2222Y3726*
X2222Y3727*
X2222Y3728*
X2221Y3728*
X2221Y3728*
X2221Y3729*
X2221Y3729*
X2221Y3729*
X2220Y3729*
X2220Y3730*
X2219Y3730*
X2219Y3730*
X2218Y3730*
X2218Y3730*
X2218*
X2217Y3730*
X2216Y3730*
X2216Y3730*
X2215Y3729*
X2215Y3729*
X2215Y3729*
X2215Y3729*
X2215Y3729*
X2214Y3728*
X2214Y3728*
X2214Y3727*
X2214Y3727*
X2213Y3727*
X2213Y3726*
Y3726*
Y3726*
Y3726*
Y3726*
X2213Y3725*
X2214Y3725*
X2214Y3724*
X2214Y3724*
X2214Y3723*
X2215Y3723*
X2215Y3723*
X2215Y3723*
X2215*
X2216Y3722*
X2216Y3722*
X2217Y3722*
X2217Y3722*
X2218Y3722*
X2218Y3722*
X2219*
X2219Y3722*
X2219*
X2219Y3719*
X2219Y3719*
X2219Y3719*
X2218Y3719*
X2218Y3719*
X2218Y3719*
X2217*
X2216Y3719*
X2216Y3719*
X2215Y3719*
X2215Y3719*
X2214Y3718*
X2214Y3718*
X2214Y3718*
X2214Y3718*
X2213Y3717*
X2213Y3717*
X2213Y3716*
X2212Y3716*
X2212Y3715*
X2212Y3715*
X2212Y3715*
Y3714*
Y3714*
Y3714*
X2212Y3714*
X2212Y3713*
X2213Y3712*
X2213Y3712*
X2213Y3711*
X2214Y3711*
X2214Y3711*
X2214Y3711*
X2214Y3710*
X2215Y3710*
X2216Y3709*
X2216Y3709*
X2217Y3709*
X2217Y3709*
X2217Y3709*
X2218*
X2218Y3709*
X2219Y3709*
X2219Y3709*
X2220Y3710*
X2220Y3710*
X2220Y3710*
X2221Y3710*
X2221Y3710*
X2221Y3711*
X2222Y3711*
X2222Y3712*
X2222Y3713*
X2222Y3713*
X2222Y3713*
X2222Y3714*
X2222Y3714*
X2222Y3714*
X2223Y3714*
Y3714*
X2226Y3714*
X2226Y3713*
X2225Y3712*
X2225Y3711*
X2225Y3711*
X2225Y3710*
X2224Y3710*
X2224Y3709*
X2224Y3709*
X2224Y3709*
X2223Y3709*
X2223Y3709*
X2223Y3709*
X2223Y3708*
X2223Y3708*
X2223Y3708*
X2222Y3708*
X2222Y3707*
X2221Y3707*
X2220Y3707*
X2220Y3707*
X2219Y3707*
X2219Y3707*
X2218Y3706*
X2218Y3706*
X2218Y3706*
X2218*
X2217Y3706*
X2216Y3707*
X2216Y3707*
X2215Y3707*
X2214Y3707*
X2214Y3707*
X2213Y3707*
X2213Y3708*
X2213Y3708*
X2212Y3708*
X2212Y3708*
X2212Y3708*
X2212Y3709*
X2211Y3709*
X2211Y3709*
X2211Y3709*
X2211Y3709*
X2211Y3710*
X2210Y3710*
X2210Y3711*
X2210Y3711*
X2209Y3712*
X2209Y3712*
X2209Y3713*
X2209Y3713*
X2209Y3714*
X2209Y3714*
X2209Y3714*
Y3714*
Y3714*
Y3714*
X2209Y3715*
X2209Y3716*
X2209Y3717*
X2210Y3717*
X2210Y3718*
X2210Y3718*
X2210Y3718*
X2210Y3719*
X2211Y3719*
X2211Y3720*
X2212Y3720*
X2212Y3720*
X2213Y3720*
X2213Y3721*
X2213Y3721*
X2214Y3721*
X2214Y3721*
X2214*
X2213Y3721*
X2213Y3721*
X2212Y3722*
X2212Y3722*
X2211Y3722*
X2211Y3723*
X2211Y3723*
X2211Y3723*
X2211Y3723*
X2211Y3724*
X2210Y3724*
X2210Y3725*
X2210Y3725*
X2210Y3726*
Y3726*
Y3726*
X2210Y3727*
X2210Y3727*
X2210Y3728*
X2211Y3728*
X2211Y3729*
X2211Y3729*
X2211Y3729*
X2211Y3729*
X2211Y3730*
X2212Y3730*
X2212Y3731*
X2213Y3731*
X2213Y3731*
X2214Y3732*
X2214Y3732*
X2214Y3732*
X2214*
X2214Y3732*
X2215Y3732*
X2216Y3732*
X2216Y3732*
X2217Y3733*
X2217Y3733*
X2218*
X2219Y3733*
G37*
G36*
X2205Y3719D02*
X2202Y3719D01*
X2202Y3719*
X2202Y3719*
X2201Y3720*
X2201Y3720*
X2201Y3720*
X2201Y3720*
X2200Y3720*
X2200Y3720*
X2200Y3721*
X2199Y3721*
X2199Y3721*
X2199Y3721*
X2198Y3721*
X2198Y3721*
X2197*
X2197Y3721*
X2196Y3721*
X2195Y3721*
X2195Y3720*
X2194Y3720*
X2194Y3720*
X2194Y3720*
X2194Y3720*
Y3719*
X2193Y3719*
X2193Y3718*
X2193Y3717*
X2192Y3717*
X2192Y3716*
X2192Y3716*
Y3716*
X2192Y3716*
Y3715*
Y3715*
Y3715*
Y3715*
X2192Y3714*
X2192Y3713*
X2193Y3713*
X2193Y3712*
X2193Y3711*
X2193Y3711*
X2194Y3711*
X2194Y3711*
X2194Y3711*
X2194Y3711*
X2194Y3710*
X2194Y3710*
X2195Y3710*
X2196Y3709*
X2196Y3709*
X2197Y3709*
X2197Y3709*
X2197Y3709*
X2198*
X2198Y3709*
X2199Y3709*
X2199Y3709*
X2200Y3710*
X2200Y3710*
X2201Y3710*
X2201Y3710*
X2201Y3710*
X2201Y3711*
X2202Y3711*
X2202Y3712*
X2202Y3712*
X2202Y3713*
X2202Y3713*
X2202Y3714*
X2203Y3714*
Y3714*
Y3714*
X2206Y3714*
X2206Y3713*
X2206Y3712*
X2205Y3711*
X2205Y3710*
X2205Y3710*
X2204Y3710*
X2204Y3709*
X2204Y3709*
X2204Y3709*
X2204Y3709*
X2204Y3709*
X2203Y3708*
X2203Y3708*
X2203Y3708*
X2203Y3708*
X2202Y3708*
X2202Y3707*
X2201Y3707*
X2201Y3707*
X2200Y3707*
X2199Y3707*
X2199Y3707*
X2198Y3706*
X2198Y3706*
X2198Y3706*
X2198*
X2197Y3706*
X2196Y3707*
X2195Y3707*
X2195Y3707*
X2194Y3707*
X2194Y3707*
X2193Y3708*
X2193Y3708*
X2192Y3708*
X2192Y3709*
X2192Y3709*
X2191Y3709*
X2191Y3709*
X2191Y3709*
X2191Y3709*
X2191Y3710*
X2190Y3710*
X2190Y3711*
X2190Y3711*
X2190Y3712*
X2189Y3713*
X2189Y3713*
X2189Y3714*
X2189Y3714*
X2189Y3715*
X2189Y3715*
X2189Y3715*
Y3715*
Y3715*
Y3716*
X2189Y3716*
X2189Y3717*
X2189Y3717*
X2189Y3718*
X2189Y3719*
X2190Y3719*
X2190Y3719*
X2190Y3720*
X2190Y3720*
X2190Y3721*
X2191Y3721*
X2191Y3721*
X2191Y3721*
X2191Y3721*
X2191Y3721*
X2191Y3722*
X2192Y3722*
X2192Y3722*
X2193Y3723*
X2193Y3723*
X2193Y3723*
X2194Y3723*
X2195Y3724*
X2195Y3724*
X2196Y3724*
X2196Y3724*
X2196Y3724*
X2196Y3724*
X2197*
X2198Y3724*
X2199Y3724*
X2199Y3723*
X2200Y3723*
X2201Y3723*
X2201Y3723*
X2201Y3722*
X2201Y3722*
X2202Y3722*
X2202Y3722*
X2202Y3722*
X2200Y3729*
X2190*
Y3732*
X2203*
X2205Y3719*
G37*
G36*
X2250Y3707D02*
X2247D01*
Y3718*
X2242*
X2242Y3718*
X2242*
X2241Y3718*
X2241Y3718*
X2241*
X2241Y3718*
X2241*
X2240Y3718*
X2240Y3718*
X2240Y3718*
X2240Y3718*
X2240Y3717*
X2240Y3717*
X2239Y3717*
X2239Y3717*
X2239Y3717*
X2238Y3716*
X2238Y3716*
X2238Y3716*
X2238Y3716*
X2238Y3716*
X2237Y3715*
X2237Y3715*
X2237Y3714*
X2236Y3713*
X2236Y3713*
X2236Y3713*
X2235Y3712*
X2235Y3712*
X2235Y3712*
Y3712*
X2232Y3707*
X2228*
X2232Y3714*
X2233Y3715*
X2233Y3715*
X2234Y3716*
X2234Y3716*
X2234Y3717*
X2235Y3717*
X2235Y3717*
X2235Y3717*
X2235Y3717*
X2236Y3718*
X2236Y3718*
X2237Y3718*
X2237Y3718*
X2237Y3718*
X2237Y3719*
X2236Y3719*
X2236Y3719*
X2235Y3719*
X2235Y3719*
X2234Y3719*
X2234Y3719*
X2233Y3720*
X2233Y3720*
X2233Y3720*
X2232Y3720*
X2232Y3720*
X2232Y3721*
X2232Y3721*
X2232Y3721*
X2232Y3721*
X2232Y3721*
X2231Y3721*
X2231Y3722*
X2230Y3722*
X2230Y3723*
X2230Y3724*
X2230Y3725*
X2230Y3725*
Y3725*
X2230Y3725*
Y3725*
Y3725*
Y3725*
X2230Y3726*
X2230Y3727*
X2230Y3728*
X2230Y3728*
X2230Y3729*
X2231Y3729*
X2231Y3729*
X2231Y3729*
Y3729*
X2231Y3730*
X2232Y3730*
X2232Y3731*
X2233Y3731*
X2233Y3731*
X2233Y3732*
X2234Y3732*
X2234Y3732*
X2234*
X2234Y3732*
X2234Y3732*
X2235Y3732*
X2236Y3732*
X2237Y3732*
X2238Y3732*
X2238*
X2238Y3732*
X2250*
Y3707*
G37*
G36*
X2464Y3653D02*
X2465Y3652D01*
X2465Y3652*
X2466Y3652*
X2467Y3652*
X2467Y3651*
X2467Y3651*
X2467Y3651*
X2467Y3651*
X2467Y3651*
X2468Y3651*
X2468Y3651*
X2468Y3650*
X2469Y3649*
X2469Y3649*
X2470Y3648*
X2470Y3647*
X2470Y3647*
X2470Y3646*
X2470Y3646*
X2470Y3646*
X2470Y3646*
Y3646*
X2467Y3645*
X2467Y3646*
X2467Y3647*
X2466Y3648*
X2466Y3648*
X2466Y3648*
X2466Y3649*
X2466Y3649*
X2465Y3649*
X2465Y3649*
X2464Y3650*
X2464Y3650*
X2464Y3650*
X2463Y3650*
X2463Y3650*
X2462*
X2462Y3650*
X2461Y3650*
X2461Y3650*
X2460Y3649*
X2460Y3649*
X2460Y3649*
X2459Y3649*
X2459Y3649*
X2459Y3648*
X2459Y3648*
X2459Y3647*
X2458Y3647*
X2458Y3647*
X2458Y3646*
Y3646*
Y3646*
Y3646*
Y3646*
X2458Y3645*
X2458Y3645*
X2459Y3644*
X2459Y3644*
X2459Y3643*
X2460Y3643*
X2460Y3643*
X2460Y3643*
X2460*
X2460Y3642*
X2461Y3642*
X2462Y3642*
X2462Y3642*
X2463Y3642*
X2463Y3642*
X2464*
X2464Y3642*
X2464*
X2464Y3639*
X2464Y3639*
X2463Y3639*
X2463Y3639*
X2463Y3639*
X2462Y3639*
X2462*
X2461Y3639*
X2461Y3639*
X2460Y3639*
X2459Y3639*
X2459Y3638*
X2459Y3638*
X2459Y3638*
X2459Y3638*
X2458Y3637*
X2458Y3637*
X2457Y3636*
X2457Y3636*
X2457Y3635*
X2457Y3635*
X2457Y3635*
Y3634*
Y3634*
Y3634*
X2457Y3634*
X2457Y3633*
X2458Y3632*
X2458Y3632*
X2458Y3631*
X2458Y3631*
X2459Y3631*
X2459Y3631*
X2459Y3630*
X2460Y3630*
X2460Y3629*
X2461Y3629*
X2462Y3629*
X2462Y3629*
X2462Y3629*
X2462*
X2463Y3629*
X2464Y3629*
X2464Y3629*
X2465Y3630*
X2465Y3630*
X2465Y3630*
X2465Y3630*
X2466Y3630*
X2466Y3631*
X2466Y3631*
X2467Y3632*
X2467Y3633*
X2467Y3633*
X2467Y3633*
X2467Y3634*
X2467Y3634*
X2467Y3634*
X2467Y3634*
Y3634*
X2471Y3634*
X2470Y3633*
X2470Y3632*
X2470Y3631*
X2470Y3631*
X2469Y3630*
X2469Y3630*
X2469Y3629*
X2469Y3629*
X2469Y3629*
X2468Y3629*
X2468Y3629*
X2468Y3629*
X2468Y3628*
X2468Y3628*
X2468Y3628*
X2467Y3628*
X2467Y3627*
X2466Y3627*
X2465Y3627*
X2464Y3627*
X2464Y3627*
X2464Y3627*
X2463Y3626*
X2463Y3626*
X2463Y3626*
X2462*
X2462Y3626*
X2461Y3627*
X2460Y3627*
X2460Y3627*
X2459Y3627*
X2459Y3627*
X2458Y3627*
X2458Y3628*
X2458Y3628*
X2457Y3628*
X2457Y3628*
X2457Y3628*
X2456Y3629*
X2456Y3629*
X2456Y3629*
X2456Y3629*
X2456Y3629*
X2455Y3630*
X2455Y3630*
X2455Y3631*
X2455Y3631*
X2454Y3632*
X2454Y3632*
X2454Y3633*
X2454Y3633*
X2454Y3634*
X2454Y3634*
X2454Y3634*
Y3634*
Y3634*
Y3634*
X2454Y3635*
X2454Y3636*
X2454Y3637*
X2454Y3637*
X2455Y3638*
X2455Y3638*
X2455Y3638*
X2455Y3639*
X2456Y3639*
X2456Y3640*
X2457Y3640*
X2457Y3640*
X2458Y3640*
X2458Y3641*
X2458Y3641*
X2458Y3641*
X2459Y3641*
X2459*
X2458Y3641*
X2457Y3641*
X2457Y3642*
X2457Y3642*
X2456Y3642*
X2456Y3643*
X2456Y3643*
X2456Y3643*
X2456Y3643*
X2455Y3644*
X2455Y3644*
X2455Y3645*
X2455Y3645*
X2455Y3646*
Y3646*
Y3646*
X2455Y3647*
X2455Y3647*
X2455Y3648*
X2455Y3648*
X2456Y3649*
X2456Y3649*
X2456Y3649*
X2456Y3649*
X2456Y3650*
X2457Y3650*
X2457Y3651*
X2458Y3651*
X2458Y3651*
X2458Y3652*
X2459Y3652*
X2459Y3652*
X2459*
X2459Y3652*
X2460Y3652*
X2461Y3652*
X2461Y3652*
X2462Y3653*
X2462Y3653*
X2463*
X2464Y3653*
G37*
G36*
X2495Y3627D02*
X2492D01*
Y3638*
X2487*
X2487Y3638*
X2487*
X2486Y3638*
X2486Y3638*
X2486*
X2486Y3638*
X2486*
X2485Y3638*
X2485Y3638*
X2485Y3638*
X2485Y3638*
X2484Y3637*
X2484Y3637*
X2484Y3637*
X2484Y3637*
X2484Y3637*
X2483Y3636*
X2483Y3636*
X2483Y3636*
X2483Y3636*
X2483Y3636*
X2482Y3635*
X2482Y3635*
X2481Y3634*
X2481Y3633*
X2481Y3633*
X2480Y3633*
X2480Y3632*
X2480Y3632*
X2480Y3632*
Y3632*
X2477Y3627*
X2473*
X2477Y3634*
X2477Y3635*
X2478Y3635*
X2478Y3636*
X2479Y3636*
X2479Y3637*
X2480Y3637*
X2480Y3637*
X2480Y3637*
X2480Y3637*
X2480Y3638*
X2481Y3638*
X2481Y3638*
X2482Y3638*
X2482Y3638*
X2482Y3639*
X2481Y3639*
X2481Y3639*
X2480Y3639*
X2479Y3639*
X2479Y3639*
X2478Y3639*
X2478Y3640*
X2478Y3640*
X2477Y3640*
X2477Y3640*
X2477Y3640*
X2477Y3641*
X2477Y3641*
X2476Y3641*
X2476Y3641*
X2476Y3641*
X2476Y3641*
X2476Y3642*
X2475Y3642*
X2475Y3643*
X2475Y3644*
X2475Y3645*
X2475Y3645*
Y3645*
X2475Y3645*
Y3645*
Y3645*
Y3645*
X2475Y3646*
X2475Y3647*
X2475Y3648*
X2475Y3648*
X2475Y3649*
X2475Y3649*
X2476Y3649*
X2476Y3649*
Y3649*
X2476Y3650*
X2477Y3650*
X2477Y3651*
X2477Y3651*
X2478Y3651*
X2478Y3652*
X2478Y3652*
X2478Y3652*
X2479*
X2479Y3652*
X2479Y3652*
X2480Y3652*
X2481Y3652*
X2482Y3652*
X2483Y3652*
X2483*
X2483Y3652*
X2495*
Y3627*
G37*
G36*
X2452Y3636D02*
Y3633D01*
X2441*
Y3627*
X2437*
Y3633*
X2434*
Y3636*
X2437*
Y3652*
X2440*
X2452Y3636*
G37*
G36*
X3504Y3593D02*
X3505Y3592D01*
X3506Y3592*
X3506Y3592*
X3507Y3592*
X3507Y3591*
X3507Y3591*
X3507Y3591*
X3507Y3591*
X3508Y3591*
X3508Y3591*
X3508Y3591*
X3508Y3590*
X3509Y3589*
X3509Y3589*
X3510Y3588*
X3510Y3587*
X3510Y3587*
X3510Y3586*
X3510Y3586*
X3510Y3586*
X3510Y3586*
Y3586*
X3507Y3585*
X3507Y3586*
X3507Y3587*
X3506Y3588*
X3506Y3588*
X3506Y3588*
X3506Y3589*
X3506Y3589*
X3506Y3589*
X3505Y3589*
X3505Y3590*
X3504Y3590*
X3504Y3590*
X3503Y3590*
X3503Y3590*
X3503*
X3502Y3590*
X3501Y3590*
X3501Y3590*
X3500Y3589*
X3500Y3589*
X3500Y3589*
X3500Y3589*
X3499Y3589*
X3499Y3588*
X3499Y3588*
X3499Y3587*
X3498Y3587*
X3498Y3587*
X3498Y3586*
Y3586*
Y3586*
Y3586*
Y3586*
X3498Y3585*
X3499Y3585*
X3499Y3584*
X3499Y3584*
X3499Y3583*
X3500Y3583*
X3500Y3583*
X3500Y3583*
X3500*
X3501Y3582*
X3501Y3582*
X3502Y3582*
X3502Y3582*
X3503Y3582*
X3503Y3582*
X3504*
X3504Y3582*
X3504*
X3504Y3579*
X3504Y3579*
X3503Y3579*
X3503Y3579*
X3503Y3579*
X3503Y3579*
X3502*
X3501Y3579*
X3501Y3579*
X3500Y3579*
X3500Y3579*
X3499Y3578*
X3499Y3578*
X3499Y3578*
X3499Y3578*
X3498Y3577*
X3498Y3577*
X3497Y3576*
X3497Y3576*
X3497Y3575*
X3497Y3575*
X3497Y3575*
Y3574*
Y3574*
Y3574*
X3497Y3574*
X3497Y3573*
X3498Y3572*
X3498Y3572*
X3498Y3571*
X3498Y3571*
X3499Y3571*
X3499Y3571*
X3499Y3570*
X3500Y3570*
X3501Y3569*
X3501Y3569*
X3502Y3569*
X3502Y3569*
X3502Y3569*
X3502*
X3503Y3569*
X3504Y3569*
X3504Y3569*
X3505Y3570*
X3505Y3570*
X3505Y3570*
X3506Y3570*
X3506Y3570*
X3506Y3571*
X3506Y3571*
X3507Y3572*
X3507Y3573*
X3507Y3573*
X3507Y3573*
X3507Y3574*
X3507Y3574*
X3507Y3574*
X3507Y3574*
Y3574*
X3511Y3574*
X3510Y3573*
X3510Y3572*
X3510Y3571*
X3510Y3571*
X3509Y3570*
X3509Y3570*
X3509Y3569*
X3509Y3569*
X3509Y3569*
X3508Y3569*
X3508Y3569*
X3508Y3569*
X3508Y3568*
X3508Y3568*
X3508Y3568*
X3507Y3568*
X3507Y3567*
X3506Y3567*
X3505Y3567*
X3504Y3567*
X3504Y3567*
X3504Y3567*
X3503Y3566*
X3503Y3566*
X3503Y3566*
X3502*
X3502Y3566*
X3501Y3567*
X3501Y3567*
X3500Y3567*
X3499Y3567*
X3499Y3567*
X3498Y3567*
X3498Y3568*
X3498Y3568*
X3497Y3568*
X3497Y3568*
X3497Y3568*
X3497Y3569*
X3496Y3569*
X3496Y3569*
X3496Y3569*
X3496Y3569*
X3495Y3570*
X3495Y3570*
X3495Y3571*
X3495Y3571*
X3494Y3572*
X3494Y3572*
X3494Y3573*
X3494Y3573*
X3494Y3574*
X3494Y3574*
X3494Y3574*
Y3574*
Y3574*
Y3574*
X3494Y3575*
X3494Y3576*
X3494Y3577*
X3494Y3577*
X3495Y3578*
X3495Y3578*
X3495Y3578*
X3495Y3579*
X3496Y3579*
X3496Y3580*
X3497Y3580*
X3497Y3580*
X3498Y3580*
X3498Y3581*
X3498Y3581*
X3499Y3581*
X3499Y3581*
X3499*
X3498Y3581*
X3497Y3581*
X3497Y3582*
X3497Y3582*
X3496Y3582*
X3496Y3583*
X3496Y3583*
X3496Y3583*
X3496Y3583*
X3495Y3584*
X3495Y3584*
X3495Y3585*
X3495Y3585*
X3495Y3586*
Y3586*
Y3586*
X3495Y3587*
X3495Y3587*
X3495Y3588*
X3496Y3588*
X3496Y3589*
X3496Y3589*
X3496Y3589*
X3496Y3589*
X3496Y3590*
X3497Y3590*
X3497Y3591*
X3498Y3591*
X3498Y3591*
X3498Y3592*
X3499Y3592*
X3499Y3592*
X3499*
X3499Y3592*
X3500Y3592*
X3501Y3592*
X3501Y3592*
X3502Y3593*
X3502Y3593*
X3503*
X3504Y3593*
G37*
G36*
X3484D02*
X3485Y3592D01*
X3486Y3592*
X3486Y3592*
X3487Y3592*
X3487Y3591*
X3487Y3591*
X3487Y3591*
X3488Y3591*
X3488Y3591*
X3488Y3591*
X3488Y3591*
X3488Y3590*
X3489Y3589*
X3489Y3589*
X3490Y3588*
X3490Y3587*
X3490Y3587*
X3490Y3586*
X3490Y3586*
X3490Y3586*
X3490Y3586*
Y3586*
X3487Y3585*
X3487Y3586*
X3487Y3587*
X3487Y3588*
X3486Y3588*
X3486Y3588*
X3486Y3589*
X3486Y3589*
X3486Y3589*
X3485Y3589*
X3485Y3590*
X3484Y3590*
X3484Y3590*
X3483Y3590*
X3483Y3590*
X3483*
X3482Y3590*
X3481Y3590*
X3481Y3590*
X3480Y3589*
X3480Y3589*
X3480Y3589*
X3480Y3589*
X3480Y3589*
X3479Y3588*
X3479Y3588*
X3479Y3587*
X3479Y3587*
X3478Y3587*
X3478Y3586*
Y3586*
Y3586*
Y3586*
Y3586*
X3478Y3585*
X3479Y3585*
X3479Y3584*
X3479Y3584*
X3479Y3583*
X3480Y3583*
X3480Y3583*
X3480Y3583*
X3480*
X3481Y3582*
X3481Y3582*
X3482Y3582*
X3482Y3582*
X3483Y3582*
X3483Y3582*
X3484*
X3484Y3582*
X3484*
X3484Y3579*
X3484Y3579*
X3484Y3579*
X3483Y3579*
X3483Y3579*
X3483Y3579*
X3482*
X3481Y3579*
X3481Y3579*
X3480Y3579*
X3480Y3579*
X3479Y3578*
X3479Y3578*
X3479Y3578*
X3479Y3578*
X3478Y3577*
X3478Y3577*
X3478Y3576*
X3477Y3576*
X3477Y3575*
X3477Y3575*
X3477Y3575*
Y3574*
Y3574*
Y3574*
X3477Y3574*
X3477Y3573*
X3478Y3572*
X3478Y3572*
X3478Y3571*
X3479Y3571*
X3479Y3571*
X3479Y3571*
X3479Y3570*
X3480Y3570*
X3481Y3569*
X3481Y3569*
X3482Y3569*
X3482Y3569*
X3482Y3569*
X3483*
X3483Y3569*
X3484Y3569*
X3484Y3569*
X3485Y3570*
X3485Y3570*
X3485Y3570*
X3486Y3570*
X3486Y3570*
X3486Y3571*
X3487Y3571*
X3487Y3572*
X3487Y3573*
X3487Y3573*
X3487Y3573*
X3487Y3574*
X3487Y3574*
X3487Y3574*
X3488Y3574*
Y3574*
X3491Y3574*
X3491Y3573*
X3490Y3572*
X3490Y3571*
X3490Y3571*
X3490Y3570*
X3489Y3570*
X3489Y3569*
X3489Y3569*
X3489Y3569*
X3488Y3569*
X3488Y3569*
X3488Y3569*
X3488Y3568*
X3488Y3568*
X3488Y3568*
X3487Y3568*
X3487Y3567*
X3486Y3567*
X3485Y3567*
X3485Y3567*
X3484Y3567*
X3484Y3567*
X3483Y3566*
X3483Y3566*
X3483Y3566*
X3483*
X3482Y3566*
X3481Y3567*
X3481Y3567*
X3480Y3567*
X3479Y3567*
X3479Y3567*
X3478Y3567*
X3478Y3568*
X3478Y3568*
X3477Y3568*
X3477Y3568*
X3477Y3568*
X3477Y3569*
X3476Y3569*
X3476Y3569*
X3476Y3569*
X3476Y3569*
X3476Y3570*
X3475Y3570*
X3475Y3571*
X3475Y3571*
X3474Y3572*
X3474Y3572*
X3474Y3573*
X3474Y3573*
X3474Y3574*
X3474Y3574*
X3474Y3574*
Y3574*
Y3574*
Y3574*
X3474Y3575*
X3474Y3576*
X3474Y3577*
X3475Y3577*
X3475Y3578*
X3475Y3578*
X3475Y3578*
X3475Y3579*
X3476Y3579*
X3476Y3580*
X3477Y3580*
X3477Y3580*
X3478Y3580*
X3478Y3581*
X3478Y3581*
X3479Y3581*
X3479Y3581*
X3479*
X3478Y3581*
X3478Y3581*
X3477Y3582*
X3477Y3582*
X3476Y3582*
X3476Y3583*
X3476Y3583*
X3476Y3583*
X3476Y3583*
X3476Y3584*
X3475Y3584*
X3475Y3585*
X3475Y3585*
X3475Y3586*
Y3586*
Y3586*
X3475Y3587*
X3475Y3587*
X3475Y3588*
X3476Y3588*
X3476Y3589*
X3476Y3589*
X3476Y3589*
X3476Y3589*
X3476Y3590*
X3477Y3590*
X3477Y3591*
X3478Y3591*
X3478Y3591*
X3479Y3592*
X3479Y3592*
X3479Y3592*
X3479*
X3479Y3592*
X3480Y3592*
X3481Y3592*
X3481Y3592*
X3482Y3593*
X3482Y3593*
X3483*
X3484Y3593*
G37*
G36*
X3535Y3567D02*
X3532D01*
Y3578*
X3527*
X3527Y3578*
X3527*
X3526Y3578*
X3526Y3578*
X3526*
X3526Y3578*
X3526*
X3525Y3578*
X3525Y3578*
X3525Y3578*
X3525Y3578*
X3524Y3577*
X3524Y3577*
X3524Y3577*
X3524Y3577*
X3524Y3577*
X3523Y3576*
X3523Y3576*
X3523Y3576*
X3523Y3576*
X3523Y3576*
X3522Y3575*
X3522Y3575*
X3521Y3574*
X3521Y3573*
X3521Y3573*
X3520Y3573*
X3520Y3572*
X3520Y3572*
X3520Y3572*
Y3572*
X3517Y3567*
X3513*
X3517Y3574*
X3518Y3575*
X3518Y3575*
X3518Y3576*
X3519Y3576*
X3519Y3577*
X3520Y3577*
X3520Y3577*
X3520Y3577*
X3520Y3577*
X3520Y3578*
X3521Y3578*
X3521Y3578*
X3522Y3578*
X3522Y3578*
X3522Y3579*
X3521Y3579*
X3521Y3579*
X3520Y3579*
X3519Y3579*
X3519Y3579*
X3519Y3579*
X3518Y3580*
X3518Y3580*
X3517Y3580*
X3517Y3580*
X3517Y3580*
X3517Y3581*
X3517Y3581*
X3516Y3581*
X3516Y3581*
X3516Y3581*
X3516Y3581*
X3516Y3582*
X3515Y3582*
X3515Y3583*
X3515Y3584*
X3515Y3585*
X3515Y3585*
Y3585*
X3515Y3585*
Y3585*
Y3585*
Y3585*
X3515Y3586*
X3515Y3587*
X3515Y3588*
X3515Y3588*
X3515Y3589*
X3516Y3589*
X3516Y3589*
X3516Y3589*
Y3589*
X3516Y3590*
X3517Y3590*
X3517Y3591*
X3518Y3591*
X3518Y3591*
X3518Y3592*
X3518Y3592*
X3519Y3592*
X3519*
X3519Y3592*
X3519Y3592*
X3520Y3592*
X3521Y3592*
X3522Y3592*
X3523Y3592*
X3523*
X3523Y3592*
X3535*
Y3567*
G37*
G36*
X3739Y3723D02*
X3740Y3722D01*
X3740Y3722*
X3741Y3722*
X3741Y3722*
X3742Y3721*
X3742Y3721*
X3742Y3721*
X3742Y3721*
X3742Y3721*
X3742Y3721*
X3743Y3721*
X3743Y3720*
X3744Y3719*
X3744Y3719*
X3745Y3718*
X3745Y3717*
X3745Y3717*
X3745Y3716*
X3745Y3716*
X3745Y3716*
X3745Y3716*
Y3716*
X3742Y3715*
X3742Y3716*
X3742Y3717*
X3741Y3718*
X3741Y3718*
X3741Y3718*
X3741Y3719*
X3740Y3719*
X3740Y3719*
X3740Y3719*
X3739Y3720*
X3739Y3720*
X3738Y3720*
X3738Y3720*
X3738Y3720*
X3737*
X3737Y3720*
X3736Y3720*
X3736Y3720*
X3735Y3719*
X3735Y3719*
X3735Y3719*
X3734Y3719*
X3734Y3719*
X3734Y3718*
X3734Y3718*
X3733Y3717*
X3733Y3717*
X3733Y3717*
X3733Y3716*
Y3716*
Y3716*
Y3716*
Y3716*
X3733Y3715*
X3733Y3715*
X3734Y3714*
X3734Y3714*
X3734Y3713*
X3735Y3713*
X3735Y3713*
X3735Y3713*
X3735*
X3735Y3712*
X3736Y3712*
X3737Y3712*
X3737Y3712*
X3738Y3712*
X3738Y3712*
X3739*
X3739Y3712*
X3739*
X3739Y3709*
X3739Y3709*
X3738Y3709*
X3738Y3709*
X3738Y3709*
X3737Y3709*
X3737*
X3736Y3709*
X3736Y3709*
X3735Y3709*
X3734Y3709*
X3734Y3708*
X3734Y3708*
X3734Y3708*
X3733Y3708*
X3733Y3707*
X3733Y3707*
X3732Y3706*
X3732Y3706*
X3732Y3705*
X3732Y3705*
X3732Y3705*
Y3704*
Y3704*
Y3704*
X3732Y3704*
X3732Y3703*
X3732Y3702*
X3733Y3702*
X3733Y3701*
X3733Y3701*
X3733Y3701*
X3734Y3701*
X3734Y3700*
X3735Y3700*
X3735Y3699*
X3736Y3699*
X3737Y3699*
X3737Y3699*
X3737Y3699*
X3737*
X3738Y3699*
X3739Y3699*
X3739Y3699*
X3740Y3700*
X3740Y3700*
X3740Y3700*
X3740Y3700*
X3740Y3700*
X3741Y3701*
X3741Y3701*
X3742Y3702*
X3742Y3703*
X3742Y3703*
X3742Y3703*
X3742Y3704*
X3742Y3704*
X3742Y3704*
X3742Y3704*
Y3704*
X3745Y3704*
X3745Y3703*
X3745Y3702*
X3745Y3701*
X3745Y3701*
X3744Y3700*
X3744Y3700*
X3744Y3699*
X3744Y3699*
X3743Y3699*
X3743Y3699*
X3743Y3699*
X3743Y3699*
X3743Y3698*
X3743Y3698*
X3742Y3698*
X3742Y3698*
X3742Y3697*
X3741Y3697*
X3740Y3697*
X3739Y3697*
X3739Y3697*
X3739Y3697*
X3738Y3696*
X3738Y3696*
X3738Y3696*
X3737*
X3737Y3696*
X3736Y3697*
X3735Y3697*
X3735Y3697*
X3734Y3697*
X3734Y3697*
X3733Y3697*
X3733Y3698*
X3732Y3698*
X3732Y3698*
X3732Y3698*
X3732Y3698*
X3731Y3699*
X3731Y3699*
X3731Y3699*
X3731Y3699*
X3731Y3699*
X3730Y3700*
X3730Y3700*
X3730Y3701*
X3729Y3701*
X3729Y3702*
X3729Y3702*
X3729Y3703*
X3729Y3703*
X3729Y3704*
X3729Y3704*
X3729Y3704*
Y3704*
Y3704*
Y3704*
X3729Y3705*
X3729Y3706*
X3729Y3707*
X3729Y3707*
X3730Y3708*
X3730Y3708*
X3730Y3708*
X3730Y3709*
X3730Y3709*
X3731Y3710*
X3732Y3710*
X3732Y3710*
X3733Y3710*
X3733Y3711*
X3733Y3711*
X3733Y3711*
X3733Y3711*
X3733*
X3733Y3711*
X3732Y3711*
X3732Y3712*
X3732Y3712*
X3731Y3712*
X3731Y3713*
X3731Y3713*
X3731Y3713*
X3731Y3713*
X3730Y3714*
X3730Y3714*
X3730Y3715*
X3730Y3715*
X3730Y3716*
Y3716*
Y3716*
X3730Y3717*
X3730Y3717*
X3730Y3718*
X3730Y3718*
X3731Y3719*
X3731Y3719*
X3731Y3719*
X3731Y3719*
X3731Y3720*
X3732Y3720*
X3732Y3721*
X3733Y3721*
X3733Y3721*
X3733Y3722*
X3734Y3722*
X3734Y3722*
X3734*
X3734Y3722*
X3735Y3722*
X3736Y3722*
X3736Y3722*
X3737Y3723*
X3737Y3723*
X3738*
X3739Y3723*
G37*
G36*
X3718Y3723D02*
X3718Y3723D01*
X3719Y3722*
X3720Y3722*
X3720Y3722*
X3721Y3722*
X3721Y3722*
X3721Y3722*
X3722Y3721*
X3722Y3721*
X3722Y3721*
X3723Y3721*
X3723Y3721*
X3723Y3721*
X3723Y3721*
X3723Y3721*
X3723Y3720*
X3724Y3720*
X3724Y3719*
X3724Y3719*
X3725Y3718*
X3725Y3717*
X3725Y3717*
X3725Y3716*
X3725Y3716*
X3725Y3716*
X3725Y3716*
Y3715*
X3725Y3715*
Y3715*
X3722Y3715*
X3722Y3716*
X3722Y3716*
X3722Y3717*
X3722Y3718*
X3721Y3718*
X3721Y3718*
X3721Y3719*
X3721Y3719*
X3720Y3719*
X3720Y3719*
X3719Y3720*
X3719Y3720*
X3718Y3720*
X3718Y3720*
X3717Y3720*
X3717*
X3716Y3720*
X3716Y3720*
X3715Y3720*
X3715Y3719*
X3714Y3719*
X3714Y3719*
X3714Y3719*
X3714Y3719*
X3713Y3718*
X3713Y3718*
X3713Y3717*
X3712Y3717*
X3712Y3716*
X3712Y3716*
X3712Y3716*
Y3716*
Y3716*
X3712Y3715*
X3713Y3714*
X3713Y3714*
X3713Y3713*
X3713Y3712*
X3714Y3712*
X3714Y3712*
X3714Y3712*
X3714Y3712*
Y3712*
X3714Y3711*
X3714Y3711*
X3715Y3710*
X3715Y3710*
X3716Y3709*
X3717Y3708*
X3718Y3708*
X3718Y3707*
X3718Y3707*
X3719Y3707*
X3719Y3707*
X3719Y3706*
X3719Y3706*
X3719Y3706*
X3720Y3706*
X3721Y3705*
X3722Y3704*
X3723Y3704*
X3723Y3703*
X3723Y3703*
X3724Y3703*
X3724Y3702*
Y3702*
X3724Y3702*
X3725Y3701*
X3725Y3701*
X3725Y3700*
X3725Y3700*
X3726Y3699*
X3726Y3699*
X3726Y3699*
Y3699*
X3726Y3699*
X3726Y3698*
X3726Y3698*
X3726Y3698*
X3726Y3697*
Y3697*
Y3697*
Y3697*
X3709*
Y3700*
X3722*
X3721Y3701*
X3721Y3701*
X3721Y3701*
X3721Y3701*
X3720Y3701*
X3720Y3702*
X3720Y3702*
X3720Y3702*
X3720Y3702*
X3719Y3702*
X3719Y3703*
X3718Y3704*
X3718Y3704*
X3717Y3704*
X3717Y3704*
X3717Y3705*
X3717Y3705*
X3717Y3705*
X3717Y3705*
X3716Y3705*
X3715Y3706*
X3715Y3706*
X3714Y3707*
X3714Y3707*
X3714Y3707*
X3713Y3708*
X3713Y3708*
X3713Y3708*
X3712Y3709*
X3712Y3709*
X3712Y3709*
X3712Y3709*
X3712Y3709*
X3711Y3710*
X3711Y3710*
X3711Y3711*
X3710Y3711*
X3710Y3712*
X3710Y3712*
X3710Y3712*
X3710Y3712*
X3710Y3713*
X3709Y3714*
X3709Y3714*
X3709Y3715*
X3709Y3715*
X3709Y3715*
Y3715*
Y3715*
X3709Y3716*
X3709Y3717*
X3709Y3717*
X3709Y3718*
X3710Y3718*
X3710Y3719*
X3710Y3719*
X3711Y3720*
X3711Y3720*
X3711Y3720*
X3711Y3720*
X3711Y3720*
X3711Y3720*
X3711Y3721*
X3712Y3721*
X3712Y3721*
X3713Y3721*
X3713Y3722*
X3714Y3722*
X3715Y3722*
X3715Y3722*
X3716Y3722*
X3716Y3723*
X3716Y3723*
X3717Y3723*
X3717*
X3718Y3723*
G37*
G36*
X3770Y3697D02*
X3767D01*
Y3708*
X3762*
X3762Y3708*
X3762*
X3761Y3708*
X3761Y3708*
X3761*
X3761Y3708*
X3761*
X3760Y3708*
X3760Y3708*
X3760Y3708*
X3760Y3708*
X3759Y3707*
X3759Y3707*
X3759Y3707*
X3759Y3707*
X3759Y3707*
X3758Y3706*
X3758Y3706*
X3758Y3706*
X3758Y3706*
X3758Y3706*
X3757Y3705*
X3757Y3705*
X3756Y3704*
X3756Y3703*
X3756Y3703*
X3755Y3703*
X3755Y3702*
X3755Y3702*
X3755Y3702*
Y3702*
X3752Y3697*
X3747*
X3752Y3704*
X3752Y3705*
X3753Y3705*
X3753Y3706*
X3754Y3706*
X3754Y3707*
X3754Y3707*
X3755Y3707*
X3755Y3707*
X3755Y3707*
X3755Y3708*
X3756Y3708*
X3756Y3708*
X3757Y3708*
X3757Y3708*
X3757Y3709*
X3756Y3709*
X3755Y3709*
X3755Y3709*
X3754Y3709*
X3754Y3709*
X3753Y3709*
X3753Y3710*
X3753Y3710*
X3752Y3710*
X3752Y3710*
X3752Y3710*
X3752Y3711*
X3751Y3711*
X3751Y3711*
X3751Y3711*
X3751Y3711*
X3751Y3711*
X3751Y3712*
X3750Y3712*
X3750Y3713*
X3750Y3714*
X3750Y3715*
X3750Y3715*
Y3715*
X3750Y3715*
Y3715*
Y3715*
Y3715*
X3750Y3716*
X3750Y3717*
X3750Y3718*
X3750Y3718*
X3750Y3719*
X3750Y3719*
X3751Y3719*
X3751Y3719*
Y3719*
X3751Y3720*
X3751Y3720*
X3752Y3721*
X3752Y3721*
X3753Y3721*
X3753Y3722*
X3753Y3722*
X3753Y3722*
X3753*
X3754Y3722*
X3754Y3722*
X3755Y3722*
X3756Y3722*
X3757Y3722*
X3757Y3722*
X3758*
X3758Y3722*
X3770*
Y3697*
G37*
G36*
X3956Y3648D02*
X3957Y3647D01*
X3958Y3647*
X3959Y3647*
X3959Y3647*
X3959Y3646*
X3960Y3646*
X3960Y3646*
X3960Y3646*
X3960Y3646*
X3960Y3646*
X3960Y3646*
X3961Y3645*
X3961Y3644*
X3962Y3644*
X3962Y3643*
X3962Y3642*
X3963Y3642*
X3963Y3641*
X3963Y3641*
X3963Y3641*
X3963Y3641*
Y3641*
X3960Y3640*
X3959Y3641*
X3959Y3642*
X3959Y3643*
X3959Y3643*
X3958Y3643*
X3958Y3644*
X3958Y3644*
X3958Y3644*
X3958Y3644*
X3957Y3645*
X3957Y3645*
X3956Y3645*
X3956Y3645*
X3955Y3645*
X3955*
X3954Y3645*
X3954Y3645*
X3953Y3645*
X3953Y3644*
X3952Y3644*
X3952Y3644*
X3952Y3644*
X3952Y3644*
X3952Y3643*
X3951Y3643*
X3951Y3642*
X3951Y3642*
X3951Y3642*
X3951Y3641*
Y3641*
Y3641*
Y3641*
Y3641*
X3951Y3640*
X3951Y3640*
X3951Y3639*
X3952Y3639*
X3952Y3638*
X3952Y3638*
X3952Y3638*
X3952Y3638*
X3952*
X3953Y3637*
X3954Y3637*
X3954Y3637*
X3955Y3637*
X3955Y3637*
X3956Y3637*
X3956*
X3956Y3637*
X3957*
X3957Y3634*
X3956Y3634*
X3956Y3634*
X3956Y3634*
X3955Y3634*
X3955Y3634*
X3955*
X3954Y3634*
X3953Y3634*
X3953Y3634*
X3952Y3634*
X3952Y3633*
X3951Y3633*
X3951Y3633*
X3951Y3633*
X3951Y3632*
X3950Y3632*
X3950Y3631*
X3950Y3631*
X3950Y3630*
X3950Y3630*
X3950Y3630*
Y3629*
Y3629*
Y3629*
X3950Y3629*
X3950Y3628*
X3950Y3627*
X3950Y3627*
X3951Y3626*
X3951Y3626*
X3951Y3626*
X3951Y3626*
X3952Y3625*
X3952Y3625*
X3953Y3624*
X3954Y3624*
X3954Y3624*
X3955Y3624*
X3955Y3624*
X3955*
X3956Y3624*
X3956Y3624*
X3957Y3624*
X3957Y3625*
X3958Y3625*
X3958Y3625*
X3958Y3625*
X3958Y3625*
X3959Y3626*
X3959Y3626*
X3959Y3627*
X3960Y3628*
X3960Y3628*
X3960Y3628*
X3960Y3629*
X3960Y3629*
X3960Y3629*
X3960Y3629*
Y3629*
X3963Y3629*
X3963Y3628*
X3963Y3627*
X3963Y3626*
X3962Y3626*
X3962Y3625*
X3962Y3625*
X3962Y3624*
X3961Y3624*
X3961Y3624*
X3961Y3624*
X3961Y3624*
X3961Y3624*
X3961Y3623*
X3961Y3623*
X3960Y3623*
X3960Y3623*
X3959Y3622*
X3959Y3622*
X3958Y3622*
X3957Y3622*
X3957Y3622*
X3956Y3622*
X3956Y3621*
X3956Y3621*
X3955Y3621*
X3955*
X3954Y3621*
X3954Y3622*
X3953Y3622*
X3952Y3622*
X3952Y3622*
X3951Y3622*
X3951Y3622*
X3951Y3623*
X3950Y3623*
X3950Y3623*
X3949Y3623*
X3949Y3623*
X3949Y3624*
X3949Y3624*
X3949Y3624*
X3949Y3624*
X3948Y3624*
X3948Y3625*
X3948Y3625*
X3947Y3626*
X3947Y3626*
X3947Y3627*
X3947Y3627*
X3947Y3628*
X3946Y3628*
X3946Y3629*
X3946Y3629*
X3946Y3629*
Y3629*
Y3629*
Y3629*
X3946Y3630*
X3947Y3631*
X3947Y3632*
X3947Y3632*
X3947Y3633*
X3947Y3633*
X3948Y3633*
X3948Y3634*
X3948Y3634*
X3949Y3635*
X3949Y3635*
X3950Y3635*
X3950Y3635*
X3951Y3636*
X3951Y3636*
X3951Y3636*
X3951Y3636*
X3951*
X3951Y3636*
X3950Y3636*
X3950Y3637*
X3949Y3637*
X3949Y3637*
X3949Y3638*
X3949Y3638*
X3949Y3638*
X3948Y3638*
X3948Y3639*
X3948Y3639*
X3948Y3640*
X3948Y3640*
X3948Y3641*
Y3641*
Y3641*
X3948Y3642*
X3948Y3642*
X3948Y3643*
X3948Y3643*
X3948Y3644*
X3948Y3644*
X3949Y3644*
X3949Y3644*
X3949Y3645*
X3949Y3645*
X3950Y3646*
X3950Y3646*
X3951Y3646*
X3951Y3647*
X3951Y3647*
X3951Y3647*
X3951*
X3952Y3647*
X3953Y3647*
X3953Y3647*
X3954Y3647*
X3954Y3648*
X3955Y3648*
X3956*
X3956Y3648*
G37*
G36*
X3934Y3647D02*
X3934Y3646D01*
X3935Y3646*
X3935Y3645*
X3936Y3645*
X3936Y3644*
X3936Y3644*
X3936Y3644*
X3936Y3644*
X3936Y3644*
X3937Y3644*
X3938Y3643*
X3939Y3642*
X3939Y3642*
X3940Y3642*
X3940Y3641*
X3940Y3641*
X3941Y3641*
X3941Y3641*
X3941Y3641*
X3941*
Y3638*
X3940Y3638*
X3940Y3639*
X3939Y3639*
X3939Y3639*
X3938Y3639*
X3938Y3640*
X3938Y3640*
X3938Y3640*
X3938*
X3937Y3640*
X3936Y3641*
X3936Y3641*
X3935Y3641*
X3935Y3641*
X3935Y3642*
X3935Y3642*
X3935Y3642*
Y3622*
X3931*
Y3648*
X3933*
X3934Y3647*
G37*
G36*
X3988Y3622D02*
X3984D01*
Y3633*
X3980*
X3979Y3633*
X3979*
X3979Y3633*
X3979Y3633*
X3979*
X3978Y3633*
X3978*
X3978Y3633*
X3978Y3633*
X3977Y3633*
X3977Y3633*
X3977Y3632*
X3977Y3632*
X3977Y3632*
X3977Y3632*
X3976Y3632*
X3976Y3631*
X3975Y3631*
X3975Y3631*
X3975Y3631*
X3975Y3631*
X3975Y3630*
X3974Y3630*
X3974Y3629*
X3974Y3628*
X3973Y3628*
X3973Y3628*
X3973Y3627*
X3973Y3627*
X3973Y3627*
Y3627*
X3969Y3622*
X3965*
X3970Y3629*
X3970Y3630*
X3971Y3630*
X3971Y3631*
X3971Y3631*
X3972Y3632*
X3972Y3632*
X3972Y3632*
X3972Y3632*
X3973Y3632*
X3973Y3633*
X3974Y3633*
X3974Y3633*
X3974Y3633*
X3974Y3633*
X3974Y3634*
X3974Y3634*
X3973Y3634*
X3973Y3634*
X3972Y3634*
X3971Y3634*
X3971Y3634*
X3971Y3635*
X3970Y3635*
X3970Y3635*
X3970Y3635*
X3969Y3635*
X3969Y3636*
X3969Y3636*
X3969Y3636*
X3969Y3636*
X3969Y3636*
X3969Y3636*
X3968Y3637*
X3968Y3637*
X3968Y3638*
X3967Y3639*
X3967Y3640*
X3967Y3640*
Y3640*
X3967Y3640*
Y3640*
Y3640*
Y3640*
X3967Y3641*
X3967Y3642*
X3967Y3643*
X3968Y3643*
X3968Y3644*
X3968Y3644*
X3968Y3644*
X3968Y3644*
Y3644*
X3969Y3645*
X3969Y3645*
X3970Y3646*
X3970Y3646*
X3970Y3646*
X3971Y3647*
X3971Y3647*
X3971Y3647*
X3971*
X3971Y3647*
X3972Y3647*
X3973Y3647*
X3974Y3647*
X3974Y3647*
X3975Y3647*
X3975*
X3976Y3647*
X3988*
Y3622*
G37*
G36*
X2754Y3598D02*
X2755Y3597D01*
X2755Y3597*
X2756Y3597*
X2757Y3597*
X2757Y3596*
X2757Y3596*
X2757Y3596*
X2757Y3596*
X2758Y3596*
X2758Y3596*
X2758Y3596*
X2758Y3595*
X2759Y3594*
X2759Y3594*
X2760Y3593*
X2760Y3592*
X2760Y3592*
X2760Y3591*
X2760Y3591*
X2760Y3591*
X2760Y3591*
Y3591*
X2757Y3590*
X2757Y3591*
X2757Y3592*
X2756Y3593*
X2756Y3593*
X2756Y3593*
X2756Y3594*
X2756Y3594*
X2756Y3594*
X2755Y3594*
X2755Y3595*
X2754Y3595*
X2754Y3595*
X2753Y3595*
X2753Y3595*
X2752*
X2752Y3595*
X2751Y3595*
X2751Y3595*
X2750Y3594*
X2750Y3594*
X2750Y3594*
X2749Y3594*
X2749Y3594*
X2749Y3593*
X2749Y3593*
X2749Y3592*
X2748Y3592*
X2748Y3592*
X2748Y3591*
Y3591*
Y3591*
Y3591*
Y3591*
X2748Y3590*
X2749Y3590*
X2749Y3589*
X2749Y3589*
X2749Y3588*
X2750Y3588*
X2750Y3588*
X2750Y3588*
X2750*
X2751Y3587*
X2751Y3587*
X2752Y3587*
X2752Y3587*
X2753Y3587*
X2753Y3587*
X2754*
X2754Y3587*
X2754*
X2754Y3584*
X2754Y3584*
X2753Y3584*
X2753Y3584*
X2753Y3584*
X2752Y3584*
X2752*
X2751Y3584*
X2751Y3584*
X2750Y3584*
X2750Y3584*
X2749Y3583*
X2749Y3583*
X2749Y3583*
X2749Y3583*
X2748Y3582*
X2748Y3582*
X2747Y3581*
X2747Y3581*
X2747Y3580*
X2747Y3580*
X2747Y3580*
Y3579*
Y3579*
Y3579*
X2747Y3579*
X2747Y3578*
X2748Y3577*
X2748Y3577*
X2748Y3576*
X2748Y3576*
X2749Y3576*
X2749Y3576*
X2749Y3575*
X2750Y3575*
X2751Y3574*
X2751Y3574*
X2752Y3574*
X2752Y3574*
X2752Y3574*
X2752*
X2753Y3574*
X2754Y3574*
X2754Y3574*
X2755Y3575*
X2755Y3575*
X2755Y3575*
X2756Y3575*
X2756Y3575*
X2756Y3576*
X2756Y3576*
X2757Y3577*
X2757Y3578*
X2757Y3578*
X2757Y3578*
X2757Y3579*
X2757Y3579*
X2757Y3579*
X2757Y3579*
Y3579*
X2761Y3579*
X2760Y3578*
X2760Y3577*
X2760Y3576*
X2760Y3576*
X2759Y3575*
X2759Y3575*
X2759Y3574*
X2759Y3574*
X2759Y3574*
X2758Y3574*
X2758Y3574*
X2758Y3574*
X2758Y3573*
X2758Y3573*
X2758Y3573*
X2757Y3573*
X2757Y3572*
X2756Y3572*
X2755Y3572*
X2754Y3572*
X2754Y3572*
X2754Y3572*
X2753Y3571*
X2753Y3571*
X2753Y3571*
X2752*
X2752Y3571*
X2751Y3572*
X2750Y3572*
X2750Y3572*
X2749Y3572*
X2749Y3572*
X2748Y3572*
X2748Y3573*
X2748Y3573*
X2747Y3573*
X2747Y3573*
X2747Y3573*
X2747Y3574*
X2746Y3574*
X2746Y3574*
X2746Y3574*
X2746Y3574*
X2745Y3575*
X2745Y3575*
X2745Y3576*
X2745Y3576*
X2744Y3577*
X2744Y3577*
X2744Y3578*
X2744Y3578*
X2744Y3579*
X2744Y3579*
X2744Y3579*
Y3579*
Y3579*
Y3579*
X2744Y3580*
X2744Y3581*
X2744Y3582*
X2744Y3582*
X2745Y3583*
X2745Y3583*
X2745Y3583*
X2745Y3584*
X2746Y3584*
X2746Y3585*
X2747Y3585*
X2747Y3585*
X2748Y3585*
X2748Y3586*
X2748Y3586*
X2748Y3586*
X2749Y3586*
X2749*
X2748Y3586*
X2747Y3586*
X2747Y3587*
X2747Y3587*
X2746Y3587*
X2746Y3588*
X2746Y3588*
X2746Y3588*
X2746Y3588*
X2745Y3589*
X2745Y3589*
X2745Y3590*
X2745Y3590*
X2745Y3591*
Y3591*
Y3591*
X2745Y3592*
X2745Y3592*
X2745Y3593*
X2746Y3593*
X2746Y3594*
X2746Y3594*
X2746Y3594*
X2746Y3594*
X2746Y3595*
X2747Y3595*
X2747Y3596*
X2748Y3596*
X2748Y3596*
X2748Y3597*
X2749Y3597*
X2749Y3597*
X2749*
X2749Y3597*
X2750Y3597*
X2751Y3597*
X2751Y3597*
X2752Y3598*
X2752Y3598*
X2753*
X2754Y3598*
G37*
G36*
X2785Y3572D02*
X2782D01*
Y3583*
X2777*
X2777Y3583*
X2777*
X2776Y3583*
X2776Y3583*
X2776*
X2776Y3583*
X2776*
X2775Y3583*
X2775Y3583*
X2775Y3583*
X2775Y3583*
X2774Y3582*
X2774Y3582*
X2774Y3582*
X2774Y3582*
X2774Y3582*
X2773Y3581*
X2773Y3581*
X2773Y3581*
X2773Y3581*
X2773Y3581*
X2772Y3580*
X2772Y3580*
X2771Y3579*
X2771Y3578*
X2771Y3578*
X2770Y3578*
X2770Y3577*
X2770Y3577*
X2770Y3577*
Y3577*
X2767Y3572*
X2763*
X2767Y3579*
X2767Y3580*
X2768Y3580*
X2768Y3581*
X2769Y3581*
X2769Y3582*
X2770Y3582*
X2770Y3582*
X2770Y3582*
X2770Y3582*
X2770Y3583*
X2771Y3583*
X2771Y3583*
X2772Y3583*
X2772Y3583*
X2772Y3584*
X2771Y3584*
X2771Y3584*
X2770Y3584*
X2769Y3584*
X2769Y3584*
X2768Y3584*
X2768Y3585*
X2768Y3585*
X2767Y3585*
X2767Y3585*
X2767Y3585*
X2767Y3586*
X2767Y3586*
X2766Y3586*
X2766Y3586*
X2766Y3586*
X2766Y3586*
X2766Y3587*
X2765Y3587*
X2765Y3588*
X2765Y3589*
X2765Y3590*
X2765Y3590*
Y3590*
X2765Y3590*
Y3590*
Y3590*
Y3590*
X2765Y3591*
X2765Y3592*
X2765Y3593*
X2765Y3593*
X2765Y3594*
X2765Y3594*
X2766Y3594*
X2766Y3594*
Y3594*
X2766Y3595*
X2767Y3595*
X2767Y3596*
X2767Y3596*
X2768Y3596*
X2768Y3597*
X2768Y3597*
X2768Y3597*
X2769*
X2769Y3597*
X2769Y3597*
X2770Y3597*
X2771Y3597*
X2772Y3597*
X2773Y3597*
X2773*
X2773Y3597*
X2785*
Y3572*
G37*
G36*
X2733Y3598D02*
X2734Y3597D01*
X2735Y3597*
X2736Y3597*
X2736Y3597*
X2736Y3596*
X2737Y3596*
X2737Y3596*
X2737Y3596*
X2737Y3596*
X2737*
X2738Y3595*
X2738Y3595*
X2739Y3594*
X2739Y3593*
X2739Y3593*
X2739Y3593*
X2740Y3592*
X2740Y3592*
X2740Y3592*
X2740Y3592*
Y3592*
X2740Y3591*
X2740Y3591*
X2740Y3589*
X2740Y3588*
X2741Y3587*
X2741Y3587*
X2741Y3586*
Y3586*
X2741Y3585*
Y3585*
Y3585*
Y3585*
Y3584*
X2741Y3583*
X2741Y3582*
X2740Y3581*
X2740Y3580*
X2740Y3579*
X2740Y3578*
X2740Y3577*
X2739Y3577*
X2739Y3576*
X2739Y3575*
X2739Y3575*
X2739Y3575*
X2738Y3574*
X2738Y3574*
X2738Y3574*
X2738Y3574*
X2738Y3574*
X2737Y3573*
X2737Y3573*
X2736Y3573*
X2736Y3572*
X2735Y3572*
X2735Y3572*
X2734Y3572*
X2734Y3572*
X2734Y3572*
X2733Y3571*
X2733Y3571*
X2733Y3571*
X2732*
X2731Y3571*
X2730Y3572*
X2730Y3572*
X2729Y3572*
X2728Y3572*
X2728Y3573*
X2728Y3573*
X2728Y3573*
X2728Y3573*
X2728Y3573*
X2728*
X2727Y3574*
X2726Y3574*
X2726Y3575*
X2726Y3576*
X2725Y3576*
X2725Y3576*
X2725Y3577*
X2725Y3577*
X2725Y3577*
X2725Y3577*
Y3577*
X2725Y3578*
X2725Y3578*
X2724Y3579*
X2724Y3581*
X2724Y3582*
X2724Y3582*
X2724Y3583*
Y3583*
X2724Y3584*
Y3584*
Y3584*
Y3584*
Y3584*
Y3585*
X2724Y3586*
Y3586*
X2724Y3587*
X2724Y3588*
X2724Y3588*
X2724Y3589*
X2724Y3589*
X2724Y3589*
X2724Y3590*
X2724Y3590*
X2724Y3590*
X2724Y3590*
X2724Y3590*
X2725Y3590*
Y3591*
X2725Y3591*
X2725Y3592*
X2725Y3593*
X2726Y3593*
X2726Y3594*
X2726Y3594*
X2726Y3594*
X2726Y3594*
X2727Y3595*
X2727Y3595*
X2727Y3596*
X2728Y3596*
X2728Y3596*
X2728Y3597*
X2729Y3597*
X2729Y3597*
X2729*
X2729Y3597*
X2730Y3597*
X2731Y3597*
X2731Y3597*
X2732Y3598*
X2732Y3598*
X2732*
X2733Y3598*
G37*
G36*
X2963Y3728D02*
X2963Y3728D01*
X2964Y3727*
X2965Y3727*
X2965Y3727*
X2966Y3727*
X2966Y3727*
X2966Y3727*
X2967Y3726*
X2967Y3726*
X2967Y3726*
X2968Y3726*
X2968Y3726*
X2968Y3726*
X2968Y3726*
X2968Y3726*
X2968Y3725*
X2969Y3725*
X2969Y3724*
X2969Y3724*
X2970Y3723*
X2970Y3722*
X2970Y3722*
X2970Y3721*
X2970Y3721*
X2970Y3721*
X2970Y3721*
Y3720*
X2970Y3720*
Y3720*
X2967Y3720*
X2967Y3721*
X2967Y3721*
X2967Y3722*
X2967Y3723*
X2966Y3723*
X2966Y3723*
X2966Y3724*
X2966Y3724*
X2965Y3724*
X2965Y3724*
X2964Y3725*
X2964Y3725*
X2963Y3725*
X2963Y3725*
X2962Y3725*
X2962*
X2961Y3725*
X2961Y3725*
X2960Y3725*
X2960Y3724*
X2959Y3724*
X2959Y3724*
X2959Y3724*
X2959Y3724*
X2958Y3723*
X2958Y3723*
X2958Y3722*
X2958Y3722*
X2957Y3721*
X2957Y3721*
X2957Y3721*
Y3721*
Y3721*
X2957Y3720*
X2958Y3719*
X2958Y3719*
X2958Y3718*
X2958Y3717*
X2959Y3717*
X2959Y3717*
X2959Y3717*
X2959Y3717*
Y3717*
X2959Y3716*
X2960Y3716*
X2960Y3715*
X2960Y3715*
X2961Y3714*
X2962Y3713*
X2963Y3713*
X2963Y3712*
X2964Y3712*
X2964Y3712*
X2964Y3712*
X2964Y3711*
X2964Y3711*
X2965Y3711*
X2965Y3711*
X2966Y3710*
X2967Y3709*
X2968Y3709*
X2968Y3708*
X2968Y3708*
X2969Y3708*
X2969Y3707*
Y3707*
X2969Y3707*
X2970Y3706*
X2970Y3706*
X2970Y3705*
X2970Y3705*
X2971Y3704*
X2971Y3704*
X2971Y3704*
Y3704*
X2971Y3704*
X2971Y3703*
X2971Y3703*
X2971Y3703*
X2971Y3702*
Y3702*
Y3702*
Y3702*
X2954*
Y3705*
X2967*
X2966Y3706*
X2966Y3706*
X2966Y3706*
X2966Y3706*
X2966Y3706*
X2965Y3707*
X2965Y3707*
X2965Y3707*
X2965Y3707*
X2964Y3707*
X2964Y3708*
X2963Y3709*
X2963Y3709*
X2962Y3709*
X2962Y3709*
X2962Y3710*
X2962Y3710*
X2962Y3710*
X2962Y3710*
X2961Y3710*
X2961Y3711*
X2960Y3711*
X2960Y3712*
X2959Y3712*
X2959Y3712*
X2958Y3713*
X2958Y3713*
X2958Y3713*
X2958Y3714*
X2957Y3714*
X2957Y3714*
X2957Y3714*
X2957Y3714*
X2956Y3715*
X2956Y3715*
X2956Y3716*
X2955Y3716*
X2955Y3717*
X2955Y3717*
X2955Y3717*
X2955Y3717*
X2955Y3718*
X2954Y3719*
X2954Y3719*
X2954Y3720*
X2954Y3720*
X2954Y3720*
Y3720*
Y3720*
X2954Y3721*
X2954Y3722*
X2954Y3722*
X2954Y3723*
X2955Y3723*
X2955Y3724*
X2955Y3724*
X2956Y3725*
X2956Y3725*
X2956Y3725*
X2956Y3725*
X2956Y3725*
X2956Y3725*
X2956Y3726*
X2957Y3726*
X2957Y3726*
X2958Y3726*
X2958Y3727*
X2959Y3727*
X2960Y3727*
X2960Y3727*
X2961Y3727*
X2961Y3728*
X2962Y3728*
X2962Y3728*
X2962*
X2963Y3728*
G37*
G36*
X2943D02*
X2944Y3727D01*
X2945Y3727*
X2945Y3727*
X2946Y3727*
X2946Y3727*
X2947Y3726*
X2947Y3726*
X2948Y3726*
X2948Y3726*
X2948Y3726*
X2948Y3725*
X2948Y3725*
X2948Y3725*
X2948Y3725*
X2949Y3725*
X2949Y3724*
X2950Y3724*
X2950Y3723*
X2950Y3723*
X2950Y3722*
X2950Y3721*
X2951Y3721*
X2951Y3720*
X2951Y3720*
X2951Y3720*
X2951Y3719*
Y3719*
Y3719*
Y3719*
X2951Y3718*
X2951Y3718*
X2951Y3717*
X2950Y3716*
X2950Y3716*
X2950Y3715*
X2950Y3715*
X2950Y3714*
X2949Y3714*
X2949Y3714*
X2949Y3714*
X2949Y3713*
X2949Y3713*
X2949Y3713*
X2949Y3713*
X2949Y3713*
X2948Y3712*
X2948Y3712*
X2947Y3712*
X2947Y3712*
X2946Y3711*
X2946Y3711*
X2945Y3711*
X2945Y3711*
X2944Y3711*
X2944Y3711*
X2944Y3711*
X2943Y3711*
X2943*
X2942Y3711*
X2942Y3711*
X2941Y3711*
X2941Y3711*
X2940Y3711*
X2940Y3711*
X2940Y3711*
X2940Y3711*
X2939Y3712*
X2939Y3712*
X2938Y3713*
X2938Y3713*
X2937Y3713*
X2937Y3714*
X2937Y3714*
X2937Y3714*
Y3714*
Y3713*
Y3713*
Y3713*
X2937Y3713*
X2937Y3712*
X2937Y3711*
X2937Y3711*
X2937Y3710*
X2937Y3710*
X2937Y3710*
Y3710*
X2938Y3709*
Y3709*
X2938Y3709*
X2938Y3708*
X2938Y3708*
X2938Y3707*
X2938Y3707*
X2939Y3707*
X2939Y3706*
X2939Y3706*
X2939Y3706*
X2939Y3706*
X2940Y3705*
X2940Y3705*
X2940Y3705*
X2940Y3705*
X2940Y3705*
X2940Y3705*
X2941Y3704*
X2941Y3704*
X2942Y3704*
X2942Y3704*
X2942Y3704*
X2943Y3704*
X2943*
X2944Y3704*
X2944Y3704*
X2945Y3704*
X2945Y3704*
X2945Y3705*
X2946Y3705*
X2946Y3705*
X2946Y3705*
X2946Y3705*
X2946Y3706*
X2947Y3706*
X2947Y3707*
X2947Y3707*
X2947Y3708*
X2947Y3708*
Y3708*
X2947Y3708*
Y3708*
X2950Y3708*
X2950Y3707*
X2950Y3706*
X2949Y3705*
X2949Y3704*
X2949Y3704*
X2948Y3704*
X2948Y3703*
X2948Y3703*
X2948Y3703*
X2948Y3703*
X2948Y3703*
X2948Y3703*
X2947Y3703*
X2946Y3702*
X2946Y3702*
X2945Y3702*
X2944Y3701*
X2944Y3701*
X2944*
X2943Y3701*
X2943*
X2942Y3701*
X2941Y3702*
X2940Y3702*
X2940Y3702*
X2939Y3702*
X2939Y3702*
X2939Y3703*
X2939Y3703*
X2938Y3703*
X2938Y3703*
X2938Y3703*
X2938*
X2937Y3704*
X2937Y3704*
X2936Y3705*
X2936Y3706*
X2935Y3706*
X2935Y3707*
X2935Y3707*
X2935Y3707*
X2935Y3707*
X2935Y3707*
Y3707*
X2935Y3708*
X2935Y3709*
X2934Y3710*
X2934Y3711*
X2934Y3712*
X2934Y3713*
X2934Y3713*
Y3714*
X2934Y3714*
Y3715*
Y3715*
Y3715*
Y3715*
Y3716*
X2934Y3717*
X2934Y3718*
X2934Y3718*
X2934Y3719*
X2934Y3720*
X2934Y3720*
X2934Y3721*
X2935Y3721*
X2935Y3721*
X2935Y3722*
X2935Y3722*
X2935Y3722*
X2935Y3722*
X2935Y3722*
Y3722*
X2935Y3723*
X2936Y3724*
X2936Y3725*
X2937Y3725*
X2937Y3726*
X2938Y3726*
X2938Y3726*
X2938Y3726*
X2938Y3726*
X2938*
X2939Y3727*
X2940Y3727*
X2940Y3727*
X2941Y3727*
X2942Y3728*
X2942Y3728*
X2942*
X2942Y3728*
X2943*
X2943Y3728*
G37*
G36*
X2995Y3702D02*
X2992D01*
Y3713*
X2987*
X2987Y3713*
X2987*
X2986Y3713*
X2986Y3713*
X2986*
X2986Y3713*
X2986*
X2985Y3713*
X2985Y3713*
X2985Y3713*
X2985Y3713*
X2985Y3712*
X2984Y3712*
X2984Y3712*
X2984Y3712*
X2984Y3712*
X2983Y3711*
X2983Y3711*
X2983Y3711*
X2983Y3711*
X2983Y3711*
X2982Y3710*
X2982Y3710*
X2981Y3709*
X2981Y3708*
X2981Y3708*
X2980Y3708*
X2980Y3707*
X2980Y3707*
X2980Y3707*
Y3707*
X2977Y3702*
X2973*
X2977Y3709*
X2978Y3710*
X2978Y3710*
X2979Y3711*
X2979Y3711*
X2979Y3712*
X2980Y3712*
X2980Y3712*
X2980Y3712*
X2980Y3712*
X2980Y3713*
X2981Y3713*
X2981Y3713*
X2982Y3713*
X2982Y3713*
X2982Y3714*
X2981Y3714*
X2981Y3714*
X2980Y3714*
X2979Y3714*
X2979Y3714*
X2979Y3714*
X2978Y3715*
X2978Y3715*
X2977Y3715*
X2977Y3715*
X2977Y3715*
X2977Y3716*
X2977Y3716*
X2977Y3716*
X2976Y3716*
X2976Y3716*
X2976Y3716*
X2976Y3717*
X2975Y3717*
X2975Y3718*
X2975Y3719*
X2975Y3720*
X2975Y3720*
Y3720*
X2975Y3720*
Y3720*
Y3720*
Y3720*
X2975Y3721*
X2975Y3722*
X2975Y3723*
X2975Y3723*
X2975Y3724*
X2976Y3724*
X2976Y3724*
X2976Y3724*
Y3724*
X2976Y3725*
X2977Y3725*
X2977Y3726*
X2978Y3726*
X2978Y3726*
X2978Y3727*
X2979Y3727*
X2979Y3727*
X2979*
X2979Y3727*
X2979Y3727*
X2980Y3727*
X2981Y3727*
X2982Y3727*
X2983Y3727*
X2983*
X2983Y3727*
X2995*
Y3702*
G37*
G36*
X3203Y3653D02*
X3203Y3653D01*
X3204Y3652*
X3205Y3652*
X3205Y3652*
X3206Y3652*
X3206Y3652*
X3206Y3652*
X3207Y3651*
X3207Y3651*
X3207Y3651*
X3208Y3651*
X3208Y3651*
X3208Y3651*
X3208Y3651*
X3208Y3651*
X3208Y3650*
X3209Y3650*
X3209Y3649*
X3209Y3649*
X3210Y3648*
X3210Y3647*
X3210Y3647*
X3210Y3646*
X3210Y3646*
X3210Y3646*
X3210Y3646*
Y3645*
X3210Y3645*
Y3645*
X3207Y3645*
X3207Y3646*
X3207Y3646*
X3207Y3647*
X3207Y3648*
X3206Y3648*
X3206Y3648*
X3206Y3649*
X3206Y3649*
X3205Y3649*
X3205Y3649*
X3204Y3650*
X3204Y3650*
X3203Y3650*
X3203Y3650*
X3202Y3650*
X3202*
X3201Y3650*
X3201Y3650*
X3200Y3650*
X3200Y3649*
X3199Y3649*
X3199Y3649*
X3199Y3649*
X3199Y3649*
X3198Y3648*
X3198Y3648*
X3198Y3647*
X3198Y3647*
X3197Y3646*
X3197Y3646*
X3197Y3646*
Y3646*
Y3646*
X3197Y3645*
X3198Y3644*
X3198Y3644*
X3198Y3643*
X3198Y3642*
X3199Y3642*
X3199Y3642*
X3199Y3642*
X3199Y3642*
Y3642*
X3199Y3641*
X3200Y3641*
X3200Y3640*
X3200Y3640*
X3201Y3639*
X3202Y3638*
X3203Y3638*
X3203Y3637*
X3204Y3637*
X3204Y3637*
X3204Y3637*
X3204Y3636*
X3204Y3636*
X3205Y3636*
X3205Y3636*
X3206Y3635*
X3207Y3634*
X3208Y3634*
X3208Y3633*
X3208Y3633*
X3209Y3633*
X3209Y3632*
Y3632*
X3209Y3632*
X3210Y3631*
X3210Y3631*
X3210Y3630*
X3210Y3630*
X3211Y3629*
X3211Y3629*
X3211Y3629*
Y3629*
X3211Y3629*
X3211Y3628*
X3211Y3628*
X3211Y3628*
X3211Y3627*
Y3627*
Y3627*
Y3627*
X3194*
Y3630*
X3207*
X3206Y3631*
X3206Y3631*
X3206Y3631*
X3206Y3631*
X3206Y3631*
X3205Y3632*
X3205Y3632*
X3205Y3632*
X3205Y3632*
X3204Y3632*
X3204Y3633*
X3203Y3634*
X3203Y3634*
X3202Y3634*
X3202Y3634*
X3202Y3635*
X3202Y3635*
X3202Y3635*
X3202Y3635*
X3201Y3635*
X3201Y3636*
X3200Y3636*
X3200Y3637*
X3199Y3637*
X3199Y3637*
X3198Y3638*
X3198Y3638*
X3198Y3638*
X3198Y3639*
X3197Y3639*
X3197Y3639*
X3197Y3639*
X3197Y3639*
X3196Y3640*
X3196Y3640*
X3196Y3641*
X3195Y3641*
X3195Y3642*
X3195Y3642*
X3195Y3642*
X3195Y3642*
X3195Y3643*
X3194Y3644*
X3194Y3644*
X3194Y3645*
X3194Y3645*
X3194Y3645*
Y3645*
Y3645*
X3194Y3646*
X3194Y3647*
X3194Y3647*
X3194Y3648*
X3195Y3648*
X3195Y3649*
X3195Y3649*
X3196Y3650*
X3196Y3650*
X3196Y3650*
X3196Y3650*
X3196Y3650*
X3196Y3650*
X3196Y3651*
X3197Y3651*
X3197Y3651*
X3198Y3651*
X3198Y3652*
X3199Y3652*
X3200Y3652*
X3200Y3652*
X3201Y3652*
X3201Y3653*
X3202Y3653*
X3202Y3653*
X3202*
X3203Y3653*
G37*
G36*
X3235Y3627D02*
X3232D01*
Y3638*
X3227*
X3227Y3638*
X3227*
X3226Y3638*
X3226Y3638*
X3226*
X3226Y3638*
X3226*
X3225Y3638*
X3225Y3638*
X3225Y3638*
X3225Y3638*
X3225Y3637*
X3224Y3637*
X3224Y3637*
X3224Y3637*
X3224Y3637*
X3223Y3636*
X3223Y3636*
X3223Y3636*
X3223Y3636*
X3223Y3636*
X3222Y3635*
X3222Y3635*
X3221Y3634*
X3221Y3633*
X3221Y3633*
X3220Y3633*
X3220Y3632*
X3220Y3632*
X3220Y3632*
Y3632*
X3217Y3627*
X3213*
X3217Y3634*
X3218Y3635*
X3218Y3635*
X3219Y3636*
X3219Y3636*
X3219Y3637*
X3220Y3637*
X3220Y3637*
X3220Y3637*
X3220Y3637*
X3220Y3638*
X3221Y3638*
X3221Y3638*
X3222Y3638*
X3222Y3638*
X3222Y3639*
X3221Y3639*
X3221Y3639*
X3220Y3639*
X3219Y3639*
X3219Y3639*
X3219Y3639*
X3218Y3640*
X3218Y3640*
X3217Y3640*
X3217Y3640*
X3217Y3640*
X3217Y3641*
X3217Y3641*
X3217Y3641*
X3216Y3641*
X3216Y3641*
X3216Y3641*
X3216Y3642*
X3215Y3642*
X3215Y3643*
X3215Y3644*
X3215Y3645*
X3215Y3645*
Y3645*
X3215Y3645*
Y3645*
Y3645*
Y3645*
X3215Y3646*
X3215Y3647*
X3215Y3648*
X3215Y3648*
X3215Y3649*
X3216Y3649*
X3216Y3649*
X3216Y3649*
Y3649*
X3216Y3650*
X3217Y3650*
X3217Y3651*
X3218Y3651*
X3218Y3651*
X3218Y3652*
X3219Y3652*
X3219Y3652*
X3219*
X3219Y3652*
X3219Y3652*
X3220Y3652*
X3221Y3652*
X3222Y3652*
X3223Y3652*
X3223*
X3223Y3652*
X3235*
Y3627*
G37*
G36*
X3183Y3653D02*
X3184Y3653D01*
X3185Y3652*
X3185Y3652*
X3186Y3652*
X3186Y3652*
X3186Y3652*
X3187Y3651*
X3187Y3651*
X3187Y3651*
X3187Y3651*
X3188Y3651*
X3188Y3651*
X3188Y3651*
X3188Y3651*
X3188Y3650*
X3188Y3650*
X3189Y3650*
X3189Y3649*
X3189Y3648*
X3189Y3648*
X3190Y3647*
X3190Y3647*
X3190Y3646*
X3190Y3646*
Y3646*
Y3646*
Y3646*
X3190Y3645*
X3190Y3645*
X3189Y3644*
X3189Y3644*
X3189Y3643*
X3189Y3643*
X3189Y3643*
X3189Y3643*
X3188Y3642*
X3188Y3642*
X3187Y3642*
X3187Y3641*
X3187Y3641*
X3186Y3641*
X3186Y3641*
X3186Y3641*
X3186Y3641*
X3186*
X3187Y3640*
X3187Y3640*
X3188Y3640*
X3189Y3639*
X3189Y3639*
X3189Y3639*
X3189Y3638*
X3190Y3638*
Y3638*
X3190Y3638*
X3190Y3637*
X3190Y3636*
X3191Y3636*
X3191Y3635*
X3191Y3635*
Y3635*
X3191Y3634*
Y3634*
Y3634*
Y3634*
X3191Y3634*
X3191Y3633*
X3191Y3632*
X3190Y3632*
X3190Y3631*
X3190Y3631*
X3190Y3630*
X3189Y3630*
X3189Y3630*
X3189Y3629*
X3189Y3629*
X3189Y3629*
X3189Y3629*
X3189Y3629*
X3188Y3629*
X3188Y3628*
X3188Y3628*
X3187Y3628*
X3187Y3627*
X3186Y3627*
X3186Y3627*
X3185Y3627*
X3184Y3627*
X3184Y3627*
X3183Y3626*
X3183Y3626*
X3183Y3626*
X3182*
X3182Y3626*
X3181Y3627*
X3180Y3627*
X3180Y3627*
X3179Y3627*
X3179Y3627*
X3178Y3627*
X3178Y3628*
X3177Y3628*
X3177Y3628*
X3177Y3628*
X3177Y3628*
X3176Y3628*
X3176Y3629*
X3176Y3629*
X3176Y3629*
X3176Y3629*
X3175Y3630*
X3175Y3630*
X3175Y3630*
X3175Y3631*
X3174Y3631*
X3174Y3632*
X3174Y3633*
X3174Y3633*
X3174Y3633*
X3174Y3634*
X3174Y3634*
Y3634*
Y3634*
Y3634*
X3174Y3635*
X3174Y3636*
X3174Y3636*
X3175Y3637*
X3175Y3638*
X3175Y3638*
X3175Y3638*
X3175Y3638*
Y3638*
X3176Y3639*
X3176Y3639*
X3177Y3640*
X3177Y3640*
X3178Y3640*
X3178Y3641*
X3178Y3641*
X3179Y3641*
X3179Y3641*
X3179*
X3178Y3641*
X3177Y3641*
X3177Y3642*
X3177Y3642*
X3176Y3642*
X3176Y3643*
X3176Y3643*
X3176Y3643*
X3176Y3643*
X3175Y3644*
X3175Y3644*
X3175Y3645*
X3175Y3645*
X3175Y3646*
Y3646*
Y3646*
Y3646*
X3175Y3646*
X3175Y3647*
X3175Y3648*
X3176Y3649*
X3176Y3649*
X3176Y3650*
X3177Y3650*
X3177Y3650*
X3177Y3650*
X3177Y3651*
X3177Y3651*
X3177Y3651*
X3177Y3651*
X3178Y3651*
X3178Y3652*
X3179Y3652*
X3180Y3652*
X3180Y3652*
X3181Y3652*
X3181Y3652*
X3182Y3653*
X3182Y3653*
X3182Y3653*
X3182*
X3183Y3653*
G37*
G36*
X4691Y1611D02*
X4692Y1610D01*
X4693Y1610*
X4694Y1610*
X4694Y1610*
X4695Y1610*
X4695Y1610*
X4695Y1610*
X4696Y1610*
X4696Y1609*
X4696Y1609*
X4696Y1609*
X4696*
X4697Y1609*
X4698Y1608*
X4699Y1608*
X4699Y1607*
X4700Y1607*
X4700Y1607*
X4700Y1606*
X4701Y1606*
X4701Y1606*
X4701Y1606*
X4701Y1606*
X4701Y1605*
X4701Y1605*
X4701Y1605*
X4702Y1604*
X4702Y1603*
X4702Y1602*
X4703Y1601*
X4703Y1601*
X4703Y1600*
X4703Y1600*
Y1599*
X4703Y1599*
Y1599*
X4703Y1598*
X4703Y1597*
X4703Y1597*
X4702Y1596*
X4702Y1595*
X4702Y1595*
X4702Y1594*
X4702Y1594*
X4701Y1593*
X4701Y1593*
X4701Y1593*
X4701Y1592*
X4701Y1592*
X4701Y1592*
X4701Y1592*
X4701Y1592*
X4700Y1591*
X4700Y1591*
X4699Y1591*
X4699Y1590*
X4698Y1589*
X4697Y1589*
X4696Y1589*
X4696Y1589*
X4695Y1588*
X4695Y1588*
X4695Y1588*
X4694Y1588*
X4694Y1588*
X4694*
X4693Y1591*
X4694Y1592*
X4694Y1592*
X4695Y1592*
X4695Y1592*
X4696Y1592*
X4696Y1593*
X4697Y1593*
X4697Y1593*
X4697Y1593*
X4698Y1594*
X4698Y1594*
X4698Y1594*
X4698Y1594*
X4698Y1594*
X4698Y1594*
X4698Y1594*
X4699Y1595*
X4699Y1595*
X4699Y1596*
X4699Y1597*
X4700Y1597*
X4700Y1598*
X4700Y1598*
Y1599*
X4700Y1599*
Y1599*
X4700Y1600*
X4700Y1601*
X4699Y1601*
X4699Y1602*
X4699Y1603*
X4699Y1603*
X4699Y1603*
X4699Y1603*
X4699Y1603*
X4699Y1603*
Y1603*
X4698Y1604*
X4698Y1605*
X4697Y1605*
X4696Y1606*
X4696Y1606*
X4695Y1606*
X4695Y1606*
X4695Y1606*
X4695Y1606*
X4695*
X4694Y1607*
X4693Y1607*
X4692Y1607*
X4691Y1607*
X4691Y1607*
X4690Y1607*
X4690*
X4690Y1607*
X4690*
X4689*
X4689*
X4689*
X4688Y1607*
X4687Y1607*
X4687Y1607*
X4686Y1607*
X4685Y1607*
X4685Y1607*
X4685Y1607*
X4685Y1607*
X4685Y1606*
X4684Y1606*
X4684*
X4684Y1606*
X4683Y1606*
X4682Y1605*
X4682Y1605*
X4681Y1604*
X4681Y1604*
X4681Y1604*
X4681Y1604*
Y1604*
X4680Y1603*
X4680Y1602*
X4679Y1601*
X4679Y1600*
X4679Y1600*
X4679Y1599*
Y1599*
X4679Y1599*
Y1599*
X4679Y1598*
X4679Y1597*
X4680Y1596*
X4680Y1596*
X4680Y1595*
X4680Y1595*
X4680Y1595*
X4680Y1594*
X4681Y1594*
X4682Y1593*
X4682Y1593*
X4683Y1593*
X4684Y1592*
X4684Y1592*
X4684Y1592*
X4684Y1592*
X4684Y1592*
X4684Y1592*
X4685*
X4684Y1589*
X4683Y1589*
X4682Y1589*
X4682Y1589*
X4681Y1590*
X4681Y1590*
X4680Y1590*
X4680Y1590*
X4680Y1591*
X4679Y1591*
X4679Y1591*
X4679Y1592*
X4679Y1592*
X4678Y1592*
X4678Y1592*
X4678Y1592*
X4678Y1592*
X4678Y1593*
X4678Y1593*
X4677Y1594*
X4677Y1594*
X4677Y1595*
X4677Y1596*
X4676Y1597*
X4676Y1597*
X4676Y1598*
X4676Y1598*
X4676Y1598*
Y1599*
X4676Y1600*
X4677Y1601*
X4677Y1602*
X4677Y1603*
X4677Y1603*
X4677Y1603*
X4677Y1604*
X4677Y1604*
X4678Y1604*
X4678Y1605*
X4678Y1605*
X4678Y1605*
X4678Y1605*
X4678Y1606*
X4679Y1607*
X4680Y1607*
X4681Y1608*
X4681Y1609*
X4682Y1609*
X4682Y1609*
X4682Y1609*
X4682Y1609*
X4682Y1609*
X4682Y1609*
X4684Y1610*
X4685Y1610*
X4686Y1610*
X4687Y1611*
X4687Y1611*
X4688Y1611*
X4688Y1611*
X4689*
X4689Y1611*
X4689*
X4689*
X4689*
X4691Y1611*
G37*
G36*
X4702Y1569D02*
X4699D01*
Y1581*
X4699Y1581*
X4698Y1581*
X4698Y1580*
X4698Y1580*
X4698Y1580*
X4698Y1580*
X4698Y1580*
X4697Y1580*
X4697Y1580*
X4697Y1579*
X4696Y1578*
X4696Y1578*
X4695Y1577*
X4695Y1577*
X4695Y1577*
X4695Y1577*
X4694Y1576*
X4694Y1576*
X4694Y1576*
X4694Y1576*
X4693Y1575*
X4693Y1575*
X4692Y1574*
X4692Y1574*
X4692Y1573*
X4691Y1573*
X4691Y1573*
X4691Y1572*
X4691Y1572*
X4690Y1572*
X4690Y1572*
X4690Y1572*
X4690Y1571*
X4689Y1571*
X4689Y1570*
X4688Y1570*
X4688Y1570*
X4687Y1570*
X4687Y1569*
X4687Y1569*
X4687Y1569*
X4686Y1569*
X4686Y1569*
X4685Y1569*
X4685Y1569*
X4684Y1569*
X4684Y1569*
X4684*
X4684*
X4683Y1569*
X4683Y1569*
X4682Y1569*
X4682Y1569*
X4681Y1569*
X4680Y1570*
X4680Y1570*
X4679Y1570*
X4679Y1570*
X4679Y1571*
X4679Y1571*
X4679Y1571*
X4679Y1571*
X4679Y1571*
X4678Y1571*
X4678Y1572*
X4678Y1572*
X4677Y1573*
X4677Y1574*
X4677Y1575*
X4677Y1575*
X4677Y1575*
X4677Y1576*
X4677Y1576*
X4677Y1576*
Y1577*
X4677Y1577*
X4677Y1578*
X4677Y1579*
X4677Y1579*
X4677Y1580*
X4677Y1580*
X4677Y1581*
X4678Y1581*
X4678Y1581*
X4678Y1582*
X4678Y1582*
X4678Y1582*
X4678Y1582*
X4678Y1582*
X4678Y1583*
X4679Y1583*
X4679Y1583*
X4679Y1583*
X4680Y1584*
X4680Y1584*
X4681Y1584*
X4682Y1585*
X4682Y1585*
X4683Y1585*
X4683Y1585*
X4683Y1585*
X4684Y1585*
X4684*
X4684Y1585*
X4684*
X4684Y1582*
X4683Y1582*
X4683Y1582*
X4682Y1581*
X4682Y1581*
X4681Y1581*
X4681Y1581*
X4681Y1581*
X4681Y1580*
X4680Y1580*
X4680Y1579*
X4680Y1579*
X4679Y1578*
X4679Y1578*
X4679Y1577*
X4679Y1577*
Y1577*
X4679Y1576*
X4679Y1575*
X4680Y1575*
X4680Y1574*
X4680Y1574*
X4680Y1574*
X4680Y1573*
X4680Y1573*
X4681Y1573*
X4682Y1572*
X4682Y1572*
X4683Y1572*
X4683Y1572*
X4683Y1572*
X4684Y1572*
X4684*
X4684*
X4684Y1572*
X4685Y1572*
X4686Y1572*
X4686Y1573*
X4687Y1573*
X4687Y1573*
X4687Y1573*
X4687Y1573*
X4687Y1573*
X4687*
X4688Y1574*
X4688Y1574*
X4689Y1574*
X4689Y1575*
X4690Y1576*
X4691Y1577*
X4691Y1577*
X4692Y1578*
X4692Y1578*
X4692Y1578*
X4693Y1579*
X4693Y1579*
X4693Y1579*
X4693Y1579*
X4694Y1580*
X4694Y1581*
X4695Y1582*
X4696Y1582*
X4696Y1583*
X4696Y1583*
X4697Y1583*
X4697Y1583*
X4697*
X4697Y1584*
X4698Y1584*
X4699Y1584*
X4699Y1585*
X4699Y1585*
X4700Y1585*
X4700Y1585*
X4700Y1585*
X4700*
X4701Y1585*
X4701Y1585*
X4701Y1586*
X4702Y1586*
X4702Y1586*
X4702*
X4702*
X4702*
Y1569*
G37*
G36*
X4696Y1565D02*
X4697Y1565D01*
X4698Y1565*
X4699Y1564*
X4699Y1564*
X4699Y1564*
X4700Y1564*
X4700Y1564*
X4700Y1563*
X4700Y1563*
X4701Y1563*
X4701Y1563*
X4701Y1563*
X4701Y1563*
X4701Y1562*
X4701Y1562*
X4702Y1561*
X4702Y1561*
X4702Y1560*
X4702Y1559*
X4703Y1559*
X4703Y1558*
X4703Y1558*
X4703Y1558*
X4703Y1557*
Y1557*
X4703Y1556*
X4703Y1556*
X4702Y1555*
X4702Y1554*
X4702Y1554*
X4702Y1553*
X4701Y1553*
X4701Y1552*
X4701Y1552*
X4701Y1551*
X4700Y1551*
X4700Y1551*
X4700Y1551*
X4700Y1550*
X4700Y1550*
X4700Y1550*
X4699Y1550*
X4699Y1550*
X4698Y1549*
X4698Y1549*
X4697Y1549*
X4696Y1549*
X4695Y1548*
X4695Y1548*
X4695Y1548*
X4694Y1548*
X4694Y1548*
X4694*
X4694*
X4694*
X4693Y1548*
X4692Y1548*
X4692Y1549*
X4691Y1549*
X4691Y1549*
X4690Y1549*
X4690Y1549*
X4689Y1549*
X4689Y1550*
X4689Y1550*
X4688Y1550*
X4688Y1550*
X4688Y1550*
X4688Y1551*
X4688Y1551*
X4688Y1551*
X4687Y1551*
X4687Y1552*
X4687Y1552*
X4686Y1552*
X4686Y1553*
X4686Y1553*
X4686Y1554*
X4686Y1555*
X4685Y1555*
X4685Y1555*
X4685Y1556*
X4685Y1556*
Y1557*
X4685Y1557*
X4686Y1558*
X4686Y1559*
X4686Y1560*
X4686Y1560*
X4687Y1561*
X4687Y1561*
X4687Y1561*
X4687Y1561*
X4687Y1561*
X4687Y1561*
X4680Y1560*
Y1550*
X4677*
Y1562*
X4690Y1565*
X4691Y1562*
X4690Y1562*
X4690Y1561*
X4690Y1561*
X4689Y1561*
X4689Y1560*
X4689Y1560*
X4689Y1560*
X4689Y1560*
X4689Y1559*
X4688Y1559*
X4688Y1558*
X4688Y1558*
X4688Y1558*
X4688Y1557*
Y1557*
X4688Y1556*
X4688Y1555*
X4689Y1555*
X4689Y1554*
X4689Y1554*
X4689Y1553*
X4690Y1553*
X4690Y1553*
X4690*
X4690Y1553*
X4691Y1552*
X4692Y1552*
X4692Y1552*
X4693Y1552*
X4693Y1552*
X4693*
X4694Y1552*
X4694*
X4694*
X4694*
X4694*
X4695Y1552*
X4696Y1552*
X4697Y1552*
X4697Y1552*
X4698Y1553*
X4698Y1553*
X4698Y1553*
X4698Y1553*
X4698Y1553*
X4698Y1553*
X4699Y1554*
X4699Y1554*
X4699Y1554*
X4700Y1555*
X4700Y1556*
X4700Y1556*
X4700Y1557*
X4700Y1557*
Y1557*
X4700Y1558*
X4700Y1558*
X4700Y1559*
X4700Y1559*
X4699Y1560*
X4699Y1560*
X4699Y1560*
X4699Y1560*
X4698Y1561*
X4698Y1561*
X4697Y1561*
X4697Y1562*
X4696Y1562*
X4696Y1562*
X4696Y1562*
X4695Y1562*
X4695*
X4695*
X4696Y1565*
X4696Y1565*
G37*
G36*
X4157Y1882D02*
X4158Y1882D01*
X4158Y1882*
X4159Y1882*
X4160Y1882*
X4160Y1882*
X4160Y1882*
X4161Y1881*
X4161Y1881*
X4162Y1881*
X4162Y1881*
X4162Y1881*
X4162Y1881*
X4162Y1881*
X4162Y1881*
X4162Y1880*
X4163Y1880*
X4163Y1880*
X4163Y1879*
X4164Y1879*
X4164Y1878*
X4164Y1877*
X4165Y1877*
X4165Y1876*
X4165Y1876*
X4165Y1876*
X4165Y1875*
Y1875*
X4165Y1875*
Y1875*
X4162Y1875*
X4162Y1876*
X4161Y1876*
X4161Y1877*
X4161Y1877*
X4161Y1878*
X4161Y1878*
X4160Y1878*
X4160Y1878*
X4160Y1879*
X4159Y1879*
X4159Y1879*
X4158Y1880*
X4157Y1880*
X4157Y1880*
X4157Y1880*
X4157*
X4156Y1880*
X4155Y1880*
X4155Y1879*
X4154Y1879*
X4154Y1879*
X4153Y1879*
X4153Y1879*
X4153Y1879*
X4153Y1878*
X4152Y1877*
X4152Y1877*
X4152Y1876*
X4152Y1876*
X4152Y1876*
X4152Y1875*
Y1875*
Y1875*
X4152Y1875*
X4152Y1874*
X4152Y1873*
X4152Y1873*
X4153Y1872*
X4153Y1872*
X4153Y1872*
X4153Y1872*
X4153Y1872*
Y1872*
X4154Y1871*
X4154Y1871*
X4154Y1870*
X4155Y1870*
X4156Y1869*
X4157Y1868*
X4157Y1868*
X4158Y1867*
X4158Y1867*
X4158Y1867*
X4159Y1866*
X4159Y1866*
X4159Y1866*
X4159Y1866*
X4160Y1865*
X4161Y1865*
X4161Y1864*
X4162Y1863*
X4162Y1863*
X4163Y1863*
X4163Y1862*
X4163Y1862*
Y1862*
X4164Y1862*
X4164Y1861*
X4164Y1860*
X4165Y1860*
X4165Y1860*
X4165Y1859*
X4165Y1859*
X4165Y1859*
Y1859*
X4165Y1858*
X4165Y1858*
X4165Y1858*
X4165Y1857*
X4165Y1857*
Y1857*
Y1857*
Y1857*
X4148*
Y1860*
X4161*
X4161Y1860*
X4160Y1861*
X4160Y1861*
X4160Y1861*
X4160Y1861*
X4160Y1861*
X4160Y1861*
X4160Y1862*
X4159Y1862*
X4159Y1862*
X4158Y1863*
X4158Y1863*
X4157Y1864*
X4157Y1864*
X4157Y1864*
X4156Y1864*
X4156Y1865*
X4156Y1865*
X4156Y1865*
X4156Y1865*
X4155Y1866*
X4154Y1866*
X4154Y1867*
X4153Y1867*
X4153Y1867*
X4153Y1868*
X4152Y1868*
X4152Y1868*
X4152Y1868*
X4152Y1869*
X4152Y1869*
X4151Y1869*
X4151Y1869*
X4151Y1870*
X4150Y1870*
X4150Y1871*
X4150Y1871*
X4149Y1872*
X4149Y1872*
X4149Y1872*
X4149Y1872*
X4149Y1873*
X4149Y1873*
X4149Y1874*
X4149Y1874*
X4149Y1875*
X4149Y1875*
Y1875*
Y1875*
X4149Y1876*
X4149Y1876*
X4149Y1877*
X4149Y1877*
X4149Y1878*
X4150Y1879*
X4150Y1879*
X4150Y1880*
X4150Y1880*
X4150Y1880*
X4151Y1880*
X4151Y1880*
X4151Y1880*
X4151Y1880*
X4151Y1881*
X4152Y1881*
X4152Y1881*
X4153Y1882*
X4153Y1882*
X4154Y1882*
X4155Y1882*
X4155Y1882*
X4156Y1882*
X4156Y1882*
X4156Y1882*
X4157*
X4157Y1882*
G37*
G36*
X4180Y1883D02*
X4181Y1882D01*
X4182Y1882*
X4182Y1882*
X4183Y1882*
X4183Y1882*
X4184Y1882*
X4184Y1882*
X4184Y1881*
X4184Y1881*
X4185Y1881*
X4185Y1881*
X4185Y1881*
X4186Y1881*
X4187Y1880*
X4187Y1879*
X4188Y1878*
X4188Y1878*
X4189Y1877*
X4189Y1877*
X4189Y1877*
X4189Y1877*
X4189Y1877*
X4189Y1877*
X4190Y1875*
X4190Y1874*
X4190Y1873*
X4190Y1872*
X4190Y1872*
X4190Y1871*
X4191Y1871*
Y1870*
X4191Y1870*
Y1870*
Y1870*
Y1870*
X4190Y1868*
X4190Y1867*
X4190Y1866*
X4190Y1865*
X4190Y1865*
X4190Y1864*
X4190Y1864*
X4190Y1864*
X4189Y1863*
X4189Y1863*
X4189Y1863*
X4189Y1863*
Y1863*
X4189Y1862*
X4188Y1861*
X4187Y1860*
X4187Y1860*
X4187Y1859*
X4186Y1859*
X4186Y1859*
X4186Y1858*
X4186Y1858*
X4186Y1858*
X4185Y1858*
X4185Y1858*
X4185Y1858*
X4185Y1858*
X4184Y1857*
X4183Y1857*
X4182Y1857*
X4181Y1856*
X4180Y1856*
X4180Y1856*
X4180Y1856*
X4179*
X4179Y1856*
X4179*
X4178Y1856*
X4177Y1856*
X4176Y1856*
X4176Y1857*
X4175Y1857*
X4175Y1857*
X4174Y1857*
X4174Y1857*
X4173Y1858*
X4173Y1858*
X4173Y1858*
X4172Y1858*
X4172Y1858*
X4172Y1858*
X4172Y1858*
X4172Y1858*
X4171Y1859*
X4171Y1859*
X4170Y1860*
X4170Y1860*
X4169Y1861*
X4169Y1862*
X4169Y1863*
X4168Y1863*
X4168Y1864*
X4168Y1864*
X4168Y1864*
X4168Y1865*
X4168Y1865*
Y1865*
X4171Y1866*
X4171Y1865*
X4172Y1865*
X4172Y1864*
X4172Y1864*
X4172Y1863*
X4172Y1863*
X4173Y1862*
X4173Y1862*
X4173Y1862*
X4173Y1861*
X4174Y1861*
X4174Y1861*
X4174Y1861*
X4174Y1861*
X4174Y1861*
X4174Y1861*
X4174Y1860*
X4175Y1860*
X4176Y1860*
X4176Y1860*
X4177Y1859*
X4178Y1859*
X4178Y1859*
X4178*
X4179Y1859*
X4179*
X4180Y1859*
X4181Y1859*
X4181Y1860*
X4182Y1860*
X4182Y1860*
X4183Y1860*
X4183Y1860*
X4183Y1860*
X4183Y1860*
X4183Y1860*
X4183*
X4184Y1861*
X4184Y1861*
X4185Y1862*
X4185Y1863*
X4186Y1863*
X4186Y1864*
X4186Y1864*
X4186Y1864*
X4186Y1864*
Y1864*
X4186Y1865*
X4187Y1866*
X4187Y1867*
X4187Y1868*
X4187Y1868*
X4187Y1869*
Y1869*
X4187Y1869*
Y1869*
Y1870*
Y1870*
Y1870*
X4187Y1871*
X4187Y1872*
X4187Y1872*
X4187Y1873*
X4187Y1874*
X4186Y1874*
X4186Y1874*
X4186Y1874*
X4186Y1874*
X4186Y1875*
Y1875*
X4186Y1875*
X4186Y1876*
X4185Y1877*
X4185Y1877*
X4184Y1878*
X4184Y1878*
X4184Y1878*
X4184Y1878*
X4184*
X4183Y1879*
X4182Y1879*
X4181Y1880*
X4180Y1880*
X4180Y1880*
X4179Y1880*
X4179*
X4179Y1880*
X4179*
X4178Y1880*
X4177Y1880*
X4176Y1879*
X4175Y1879*
X4175Y1879*
X4175Y1879*
X4174Y1879*
X4174Y1879*
X4174Y1878*
X4173Y1877*
X4173Y1877*
X4172Y1876*
X4172Y1875*
X4172Y1875*
X4172Y1875*
X4172Y1875*
X4172Y1875*
X4172Y1875*
Y1874*
X4168Y1875*
X4169Y1876*
X4169Y1877*
X4169Y1877*
X4169Y1878*
X4170Y1878*
X4170Y1879*
X4170Y1879*
X4171Y1879*
X4171Y1880*
X4171Y1880*
X4171Y1880*
X4172Y1880*
X4172Y1881*
X4172Y1881*
X4172Y1881*
X4172Y1881*
X4173Y1881*
X4173Y1881*
X4174Y1882*
X4174Y1882*
X4175Y1882*
X4176Y1882*
X4177Y1883*
X4177Y1883*
X4178Y1883*
X4178Y1883*
X4178Y1883*
X4179*
X4180Y1883*
G37*
G36*
X4146Y1866D02*
Y1863D01*
X4135*
Y1857*
X4132*
Y1863*
X4128*
Y1866*
X4132*
Y1882*
X4134*
X4146Y1866*
G37*
G36*
X4008Y2202D02*
X4009Y2202D01*
X4010Y2202*
X4011Y2202*
X4011Y2201*
X4011Y2201*
X4012Y2201*
X4012Y2201*
X4012Y2201*
X4012Y2201*
X4012Y2201*
X4012Y2201*
X4013Y2200*
X4013Y2199*
X4014Y2198*
X4014Y2198*
X4015Y2197*
X4015Y2197*
X4015Y2196*
X4015Y2196*
X4015Y2196*
X4015Y2196*
Y2196*
X4012Y2195*
X4012Y2196*
X4011Y2197*
X4011Y2197*
X4011Y2198*
X4011Y2198*
X4010Y2198*
X4010Y2199*
X4010Y2199*
X4010Y2199*
X4009Y2199*
X4009Y2200*
X4008Y2200*
X4008Y2200*
X4007Y2200*
X4007*
X4006Y2200*
X4006Y2200*
X4005Y2199*
X4005Y2199*
X4005Y2199*
X4004Y2199*
X4004Y2199*
X4004Y2199*
X4004Y2198*
X4003Y2198*
X4003Y2197*
X4003Y2197*
X4003Y2196*
X4003Y2196*
Y2196*
Y2196*
Y2196*
Y2195*
X4003Y2195*
X4003Y2194*
X4003Y2194*
X4004Y2193*
X4004Y2193*
X4004Y2193*
X4004Y2193*
X4004Y2193*
X4004*
X4005Y2192*
X4006Y2192*
X4006Y2192*
X4007Y2192*
X4007Y2192*
X4008Y2192*
X4008*
X4008Y2192*
X4009*
X4009Y2189*
X4008Y2189*
X4008Y2189*
X4008Y2189*
X4007Y2189*
X4007Y2189*
X4007*
X4006Y2189*
X4005Y2189*
X4005Y2189*
X4004Y2188*
X4004Y2188*
X4003Y2188*
X4003Y2188*
X4003Y2188*
X4003Y2187*
X4002Y2187*
X4002Y2186*
X4002Y2185*
X4002Y2185*
X4002Y2185*
X4002Y2184*
Y2184*
Y2184*
Y2184*
X4002Y2183*
X4002Y2183*
X4002Y2182*
X4002Y2181*
X4003Y2181*
X4003Y2181*
X4003Y2180*
X4003Y2180*
X4004Y2180*
X4004Y2179*
X4005Y2179*
X4006Y2179*
X4006Y2179*
X4007Y2179*
X4007Y2179*
X4007*
X4008Y2179*
X4008Y2179*
X4009Y2179*
X4009Y2179*
X4010Y2180*
X4010Y2180*
X4010Y2180*
X4010Y2180*
X4011Y2181*
X4011Y2181*
X4011Y2182*
X4012Y2182*
X4012Y2183*
X4012Y2183*
X4012Y2183*
X4012Y2184*
X4012Y2184*
X4012Y2184*
Y2184*
X4015Y2183*
X4015Y2183*
X4015Y2182*
X4015Y2181*
X4014Y2180*
X4014Y2180*
X4014Y2180*
X4014Y2179*
X4013Y2179*
X4013Y2179*
X4013Y2179*
X4013Y2178*
X4013Y2178*
X4013Y2178*
X4013Y2178*
X4012Y2178*
X4012Y2178*
X4011Y2177*
X4011Y2177*
X4010Y2177*
X4009Y2177*
X4009Y2176*
X4008Y2176*
X4008Y2176*
X4008Y2176*
X4007Y2176*
X4007*
X4006Y2176*
X4006Y2176*
X4005Y2176*
X4004Y2177*
X4004Y2177*
X4003Y2177*
X4003Y2177*
X4003Y2177*
X4002Y2178*
X4002Y2178*
X4002Y2178*
X4001Y2178*
X4001Y2178*
X4001Y2178*
X4001Y2179*
X4001Y2179*
X4000Y2179*
X4000Y2180*
X4000Y2180*
X3999Y2180*
X3999Y2181*
X3999Y2181*
X3999Y2182*
X3999Y2183*
X3999Y2183*
X3998Y2183*
X3998Y2184*
X3998Y2184*
Y2184*
Y2184*
Y2184*
X3998Y2185*
X3999Y2186*
X3999Y2187*
X3999Y2187*
X3999Y2188*
X3999Y2188*
X4000Y2188*
X4000Y2188*
X4000Y2189*
X4001Y2189*
X4001Y2190*
X4002Y2190*
X4002Y2190*
X4003Y2190*
X4003Y2191*
X4003Y2191*
X4003Y2191*
X4003*
X4003Y2191*
X4002Y2191*
X4002Y2192*
X4001Y2192*
X4001Y2192*
X4001Y2193*
X4001Y2193*
X4001Y2193*
X4000Y2193*
X4000Y2194*
X4000Y2194*
X4000Y2195*
X4000Y2195*
X4000Y2195*
Y2196*
Y2196*
X4000Y2196*
X4000Y2197*
X4000Y2198*
X4000Y2198*
X4000Y2198*
X4000Y2199*
X4001Y2199*
X4001Y2199*
X4001Y2200*
X4001Y2200*
X4002Y2200*
X4002Y2201*
X4003Y2201*
X4003Y2201*
X4003Y2201*
X4003Y2201*
X4003*
X4004Y2202*
X4005Y2202*
X4005Y2202*
X4006Y2202*
X4006Y2202*
X4007Y2202*
X4008*
X4008Y2202*
G37*
G36*
X4027Y2202D02*
X4028Y2202D01*
X4029Y2202*
X4029Y2202*
X4030Y2202*
X4030Y2202*
X4031Y2202*
X4031Y2201*
X4031Y2201*
X4032Y2201*
X4032Y2201*
X4032Y2201*
X4032Y2201*
X4032Y2201*
X4032Y2201*
X4032Y2200*
X4033Y2200*
X4033Y2200*
X4034Y2199*
X4034Y2199*
X4034Y2198*
X4035Y2197*
X4035Y2197*
X4035Y2196*
X4035Y2196*
X4035Y2196*
X4035Y2195*
Y2195*
X4035Y2195*
Y2195*
X4032Y2195*
X4032Y2196*
X4032Y2196*
X4031Y2197*
X4031Y2197*
X4031Y2198*
X4031Y2198*
X4030Y2198*
X4030Y2198*
X4030Y2199*
X4029Y2199*
X4029Y2199*
X4028Y2200*
X4028Y2200*
X4027Y2200*
X4027Y2200*
X4027*
X4026Y2200*
X4025Y2200*
X4025Y2199*
X4024Y2199*
X4024Y2199*
X4023Y2199*
X4023Y2199*
X4023Y2199*
X4023Y2198*
X4022Y2197*
X4022Y2197*
X4022Y2196*
X4022Y2196*
X4022Y2196*
X4022Y2195*
Y2195*
Y2195*
X4022Y2195*
X4022Y2194*
X4022Y2193*
X4023Y2193*
X4023Y2192*
X4023Y2192*
X4023Y2192*
X4023Y2192*
X4023Y2192*
Y2192*
X4024Y2191*
X4024Y2191*
X4024Y2190*
X4025Y2190*
X4026Y2189*
X4027Y2188*
X4027Y2188*
X4028Y2187*
X4028Y2187*
X4028Y2187*
X4029Y2186*
X4029Y2186*
X4029Y2186*
X4029Y2186*
X4030Y2185*
X4031Y2185*
X4031Y2184*
X4032Y2183*
X4033Y2183*
X4033Y2183*
X4033Y2182*
X4033Y2182*
Y2182*
X4034Y2182*
X4034Y2181*
X4034Y2180*
X4035Y2180*
X4035Y2180*
X4035Y2179*
X4035Y2179*
X4035Y2179*
Y2179*
X4035Y2178*
X4035Y2178*
X4035Y2178*
X4035Y2177*
X4036Y2177*
Y2177*
Y2177*
Y2177*
X4019*
Y2180*
X4031*
X4031Y2180*
X4031Y2181*
X4030Y2181*
X4030Y2181*
X4030Y2181*
X4030Y2181*
X4030Y2181*
X4030Y2182*
X4029Y2182*
X4029Y2182*
X4028Y2183*
X4028Y2183*
X4027Y2184*
X4027Y2184*
X4027Y2184*
X4026Y2184*
X4026Y2185*
X4026Y2185*
X4026Y2185*
X4026Y2185*
X4025Y2186*
X4024Y2186*
X4024Y2187*
X4024Y2187*
X4023Y2187*
X4023Y2188*
X4023Y2188*
X4022Y2188*
X4022Y2188*
X4022Y2189*
X4022Y2189*
X4021Y2189*
X4021Y2189*
X4021Y2190*
X4020Y2190*
X4020Y2191*
X4020Y2191*
X4020Y2192*
X4019Y2192*
X4019Y2192*
X4019Y2192*
X4019Y2193*
X4019Y2193*
X4019Y2194*
X4019Y2194*
X4019Y2195*
X4019Y2195*
Y2195*
Y2195*
X4019Y2196*
X4019Y2196*
X4019Y2197*
X4019Y2197*
X4019Y2198*
X4020Y2199*
X4020Y2199*
X4020Y2200*
X4020Y2200*
X4020Y2200*
X4021Y2200*
X4021Y2200*
X4021Y2200*
X4021Y2200*
X4021Y2201*
X4022Y2201*
X4022Y2201*
X4023Y2202*
X4024Y2202*
X4025Y2202*
X4025Y2202*
X4025Y2202*
X4026Y2202*
X4026Y2202*
X4026Y2202*
X4027*
X4027Y2202*
G37*
G36*
X4050Y2203D02*
X4051Y2202D01*
X4052Y2202*
X4052Y2202*
X4053Y2202*
X4053Y2202*
X4054Y2202*
X4054Y2202*
X4054Y2201*
X4054Y2201*
X4055Y2201*
X4055Y2201*
X4055Y2201*
X4056Y2201*
X4057Y2200*
X4057Y2199*
X4058Y2198*
X4058Y2198*
X4059Y2197*
X4059Y2197*
X4059Y2197*
X4059Y2197*
X4059Y2197*
X4059Y2197*
X4060Y2195*
X4060Y2194*
X4060Y2193*
X4060Y2192*
X4061Y2192*
X4061Y2191*
X4061Y2191*
Y2190*
X4061Y2190*
Y2190*
Y2190*
Y2190*
X4061Y2188*
X4060Y2187*
X4060Y2186*
X4060Y2185*
X4060Y2185*
X4060Y2184*
X4060Y2184*
X4060Y2184*
X4060Y2183*
X4059Y2183*
X4059Y2183*
X4059Y2183*
Y2183*
X4059Y2182*
X4058Y2181*
X4057Y2180*
X4057Y2180*
X4057Y2179*
X4057Y2179*
X4056Y2179*
X4056Y2178*
X4056Y2178*
X4056Y2178*
X4055Y2178*
X4055Y2178*
X4055Y2178*
X4055Y2178*
X4054Y2177*
X4053Y2177*
X4052Y2177*
X4051Y2176*
X4050Y2176*
X4050Y2176*
X4050Y2176*
X4049*
X4049Y2176*
X4049*
X4048Y2176*
X4047Y2176*
X4046Y2176*
X4046Y2177*
X4045Y2177*
X4045Y2177*
X4044Y2177*
X4044Y2177*
X4043Y2178*
X4043Y2178*
X4043Y2178*
X4042Y2178*
X4042Y2178*
X4042Y2178*
X4042Y2178*
X4042Y2178*
X4041Y2179*
X4041Y2179*
X4040Y2180*
X4040Y2180*
X4039Y2181*
X4039Y2182*
X4039Y2183*
X4038Y2183*
X4038Y2184*
X4038Y2184*
X4038Y2184*
X4038Y2185*
X4038Y2185*
Y2185*
X4041Y2186*
X4042Y2185*
X4042Y2185*
X4042Y2184*
X4042Y2184*
X4042Y2183*
X4043Y2183*
X4043Y2182*
X4043Y2182*
X4043Y2182*
X4043Y2181*
X4044Y2181*
X4044Y2181*
X4044Y2181*
X4044Y2181*
X4044Y2181*
X4044Y2181*
X4044Y2180*
X4045Y2180*
X4046Y2180*
X4046Y2180*
X4047Y2179*
X4048Y2179*
X4048Y2179*
X4048*
X4049Y2179*
X4049*
X4050Y2179*
X4051Y2179*
X4051Y2180*
X4052Y2180*
X4052Y2180*
X4053Y2180*
X4053Y2180*
X4053Y2180*
X4053Y2180*
X4053Y2180*
X4053*
X4054Y2181*
X4055Y2181*
X4055Y2182*
X4055Y2183*
X4056Y2183*
X4056Y2184*
X4056Y2184*
X4056Y2184*
X4056Y2184*
Y2184*
X4057Y2185*
X4057Y2186*
X4057Y2187*
X4057Y2188*
X4057Y2188*
X4057Y2189*
Y2189*
X4057Y2189*
Y2189*
Y2190*
Y2190*
Y2190*
X4057Y2191*
X4057Y2192*
X4057Y2192*
X4057Y2193*
X4057Y2194*
X4057Y2194*
X4056Y2194*
X4056Y2194*
X4056Y2194*
X4056Y2195*
Y2195*
X4056Y2195*
X4056Y2196*
X4055Y2197*
X4055Y2197*
X4054Y2198*
X4054Y2198*
X4054Y2198*
X4054Y2198*
X4054*
X4053Y2199*
X4052Y2199*
X4051Y2200*
X4050Y2200*
X4050Y2200*
X4049Y2200*
X4049*
X4049Y2200*
X4049*
X4048Y2200*
X4047Y2200*
X4046Y2199*
X4046Y2199*
X4045Y2199*
X4045Y2199*
X4044Y2199*
X4044Y2199*
X4044Y2198*
X4043Y2197*
X4043Y2197*
X4042Y2196*
X4042Y2195*
X4042Y2195*
X4042Y2195*
X4042Y2195*
X4042Y2195*
X4042Y2195*
Y2194*
X4038Y2195*
X4039Y2196*
X4039Y2197*
X4039Y2197*
X4039Y2198*
X4040Y2198*
X4040Y2199*
X4040Y2199*
X4041Y2199*
X4041Y2200*
X4041Y2200*
X4041Y2200*
X4042Y2200*
X4042Y2201*
X4042Y2201*
X4042Y2201*
X4042Y2201*
X4043Y2201*
X4043Y2201*
X4044Y2202*
X4044Y2202*
X4045Y2202*
X4046Y2202*
X4047Y2203*
X4047Y2203*
X4048Y2203*
X4048Y2203*
X4048Y2203*
X4049*
X4050Y2203*
G37*
G36*
X4606Y2575D02*
X4607Y2575D01*
X4608Y2575*
X4609Y2575*
X4609Y2575*
X4610Y2575*
X4610Y2575*
X4610Y2574*
X4611Y2574*
X4611Y2574*
X4611Y2574*
X4611Y2574*
X4611*
X4612Y2574*
X4613Y2573*
X4614Y2572*
X4614Y2572*
X4615Y2572*
X4615Y2571*
X4615Y2571*
X4616Y2571*
X4616Y2571*
X4616Y2570*
X4616Y2570*
X4616Y2570*
X4616Y2570*
X4616Y2570*
X4617Y2569*
X4617Y2568*
X4617Y2567*
X4618Y2566*
X4618Y2565*
X4618Y2565*
X4618Y2565*
Y2564*
X4618Y2564*
Y2563*
X4618Y2563*
X4618Y2562*
X4618Y2561*
X4617Y2561*
X4617Y2560*
X4617Y2560*
X4617Y2559*
X4617Y2559*
X4616Y2558*
X4616Y2558*
X4616Y2557*
X4616Y2557*
X4616Y2557*
X4616Y2557*
X4616Y2557*
X4616Y2557*
X4615Y2556*
X4615Y2556*
X4614Y2555*
X4614Y2555*
X4613Y2554*
X4612Y2554*
X4611Y2554*
X4611Y2553*
X4610Y2553*
X4610Y2553*
X4610Y2553*
X4609Y2553*
X4609Y2553*
X4609*
X4608Y2556*
X4609Y2556*
X4609Y2557*
X4610Y2557*
X4610Y2557*
X4611Y2557*
X4611Y2557*
X4612Y2558*
X4612Y2558*
X4612Y2558*
X4613Y2558*
X4613Y2558*
X4613Y2559*
X4613Y2559*
X4613Y2559*
X4613Y2559*
X4613Y2559*
X4614Y2559*
X4614Y2560*
X4614Y2561*
X4614Y2561*
X4615Y2562*
X4615Y2563*
X4615Y2563*
Y2563*
X4615Y2564*
Y2564*
X4615Y2565*
X4615Y2565*
X4614Y2566*
X4614Y2567*
X4614Y2567*
X4614Y2568*
X4614Y2568*
X4614Y2568*
X4614Y2568*
X4614Y2568*
Y2568*
X4613Y2569*
X4613Y2569*
X4612Y2570*
X4611Y2570*
X4611Y2571*
X4610Y2571*
X4610Y2571*
X4610Y2571*
X4610Y2571*
X4610*
X4609Y2571*
X4608Y2572*
X4607Y2572*
X4606Y2572*
X4606Y2572*
X4605Y2572*
X4605*
X4605Y2572*
X4605*
X4604*
X4604*
X4604*
X4603Y2572*
X4602Y2572*
X4602Y2572*
X4601Y2572*
X4600Y2571*
X4600Y2571*
X4600Y2571*
X4600Y2571*
X4600Y2571*
X4599Y2571*
X4599*
X4599Y2571*
X4598Y2570*
X4597Y2570*
X4597Y2570*
X4596Y2569*
X4596Y2569*
X4596Y2569*
X4596Y2568*
Y2568*
X4595Y2568*
X4595Y2567*
X4594Y2566*
X4594Y2565*
X4594Y2565*
X4594Y2564*
Y2564*
X4594Y2564*
Y2564*
X4594Y2563*
X4594Y2562*
X4595Y2561*
X4595Y2560*
X4595Y2560*
X4595Y2560*
X4595Y2559*
X4595Y2559*
X4596Y2559*
X4597Y2558*
X4597Y2558*
X4598Y2557*
X4599Y2557*
X4599Y2557*
X4599Y2557*
X4599Y2557*
X4599Y2557*
X4599Y2557*
X4600*
X4599Y2553*
X4598Y2554*
X4597Y2554*
X4597Y2554*
X4596Y2554*
X4596Y2555*
X4595Y2555*
X4595Y2555*
X4595Y2556*
X4594Y2556*
X4594Y2556*
X4594Y2556*
X4594Y2557*
X4593Y2557*
X4593Y2557*
X4593Y2557*
X4593Y2557*
X4593Y2557*
X4593Y2558*
X4592Y2559*
X4592Y2559*
X4592Y2560*
X4592Y2561*
X4591Y2562*
X4591Y2562*
X4591Y2562*
X4591Y2563*
X4591Y2563*
Y2563*
X4591Y2565*
X4592Y2566*
X4592Y2567*
X4592Y2567*
X4592Y2568*
X4592Y2568*
X4592Y2569*
X4592Y2569*
X4593Y2569*
X4593Y2569*
X4593Y2569*
X4593Y2570*
X4593Y2570*
X4593Y2571*
X4594Y2571*
X4595Y2572*
X4596Y2573*
X4596Y2573*
X4597Y2574*
X4597Y2574*
X4597Y2574*
X4597Y2574*
X4597Y2574*
X4597Y2574*
X4599Y2574*
X4600Y2575*
X4601Y2575*
X4602Y2575*
X4602Y2575*
X4603Y2575*
X4603Y2575*
X4604*
X4604Y2575*
X4604*
X4604*
X4604*
X4606Y2575*
G37*
G36*
X4617Y2533D02*
X4614D01*
Y2546*
X4614Y2546*
X4613Y2545*
X4613Y2545*
X4613Y2545*
X4613Y2545*
X4613Y2545*
X4613Y2545*
X4612Y2545*
X4612Y2544*
X4612Y2544*
X4611Y2543*
X4611Y2543*
X4610Y2542*
X4610Y2542*
X4610Y2541*
X4610Y2541*
X4609Y2541*
X4609Y2541*
X4609Y2541*
X4609Y2540*
X4608Y2540*
X4608Y2539*
X4607Y2539*
X4607Y2538*
X4607Y2538*
X4606Y2538*
X4606Y2537*
X4606Y2537*
X4606Y2537*
X4605Y2537*
X4605Y2536*
X4605Y2536*
X4605Y2536*
X4604Y2536*
X4604Y2535*
X4603Y2535*
X4603Y2535*
X4602Y2534*
X4602Y2534*
X4602Y2534*
X4602Y2534*
X4601Y2534*
X4601Y2534*
X4600Y2534*
X4600Y2534*
X4599Y2533*
X4599Y2533*
X4599*
X4599*
X4598Y2533*
X4598Y2534*
X4597Y2534*
X4597Y2534*
X4596Y2534*
X4595Y2535*
X4595Y2535*
X4594Y2535*
X4594Y2535*
X4594Y2535*
X4594Y2535*
X4594Y2536*
X4594Y2536*
X4594Y2536*
X4593Y2536*
X4593Y2536*
X4593Y2537*
X4592Y2537*
X4592Y2538*
X4592Y2539*
X4592Y2540*
X4592Y2540*
X4592Y2541*
X4592Y2541*
X4592Y2541*
Y2541*
X4592Y2542*
X4592Y2543*
X4592Y2543*
X4592Y2544*
X4592Y2544*
X4592Y2545*
X4592Y2545*
X4593Y2546*
X4593Y2546*
X4593Y2546*
X4593Y2547*
X4593Y2547*
X4593Y2547*
X4593Y2547*
X4593Y2547*
X4594Y2547*
X4594Y2548*
X4594Y2548*
X4595Y2548*
X4595Y2549*
X4596Y2549*
X4597Y2549*
X4597Y2549*
X4598Y2550*
X4598Y2550*
X4598Y2550*
X4599Y2550*
X4599*
X4599Y2550*
X4599*
X4599Y2547*
X4598Y2547*
X4598Y2546*
X4597Y2546*
X4597Y2546*
X4596Y2546*
X4596Y2545*
X4596Y2545*
X4596Y2545*
X4595Y2545*
X4595Y2544*
X4595Y2543*
X4594Y2543*
X4594Y2542*
X4594Y2542*
X4594Y2542*
Y2542*
X4594Y2541*
X4594Y2540*
X4595Y2539*
X4595Y2539*
X4595Y2539*
X4595Y2538*
X4595Y2538*
X4595Y2538*
X4596Y2538*
X4597Y2537*
X4597Y2537*
X4598Y2537*
X4598Y2537*
X4598Y2537*
X4599Y2537*
X4599*
X4599*
X4599Y2537*
X4600Y2537*
X4601Y2537*
X4601Y2537*
X4602Y2538*
X4602Y2538*
X4602Y2538*
X4602Y2538*
X4602Y2538*
X4602*
X4603Y2538*
X4603Y2539*
X4604Y2539*
X4604Y2540*
X4605Y2541*
X4606Y2542*
X4606Y2542*
X4607Y2542*
X4607Y2543*
X4607Y2543*
X4608Y2543*
X4608Y2544*
X4608Y2544*
X4608Y2544*
X4609Y2545*
X4609Y2546*
X4610Y2546*
X4611Y2547*
X4611Y2547*
X4611Y2548*
X4612Y2548*
X4612Y2548*
X4612*
X4612Y2548*
X4613Y2549*
X4614Y2549*
X4614Y2550*
X4614Y2550*
X4615Y2550*
X4615Y2550*
X4615Y2550*
X4615*
X4616Y2550*
X4616Y2550*
X4616Y2550*
X4617Y2550*
X4617Y2550*
X4617*
X4617*
X4617*
Y2533*
G37*
G36*
Y2514D02*
X4614D01*
Y2526*
X4614Y2526*
X4613Y2525*
X4613Y2525*
X4613Y2525*
X4613Y2525*
X4613Y2525*
X4613Y2525*
X4612Y2525*
X4612Y2524*
X4612Y2524*
X4611Y2523*
X4611Y2523*
X4610Y2522*
X4610Y2522*
X4610Y2522*
X4610Y2521*
X4609Y2521*
X4609Y2521*
X4609Y2521*
X4609Y2521*
X4608Y2520*
X4608Y2519*
X4607Y2519*
X4607Y2519*
X4607Y2518*
X4606Y2518*
X4606Y2517*
X4606Y2517*
X4606Y2517*
X4605Y2517*
X4605Y2517*
X4605Y2516*
X4605Y2516*
X4604Y2516*
X4604Y2515*
X4603Y2515*
X4603Y2515*
X4602Y2514*
X4602Y2514*
X4602Y2514*
X4602Y2514*
X4601Y2514*
X4601Y2514*
X4600Y2514*
X4600Y2514*
X4599Y2514*
X4599Y2514*
X4599*
X4599*
X4598Y2514*
X4598Y2514*
X4597Y2514*
X4597Y2514*
X4596Y2514*
X4595Y2515*
X4595Y2515*
X4594Y2515*
X4594Y2515*
X4594Y2515*
X4594Y2516*
X4594Y2516*
X4594Y2516*
X4594Y2516*
X4593Y2516*
X4593Y2517*
X4593Y2517*
X4592Y2518*
X4592Y2519*
X4592Y2519*
X4592Y2520*
X4592Y2520*
X4592Y2521*
X4592Y2521*
X4592Y2521*
Y2522*
X4592Y2522*
X4592Y2523*
X4592Y2523*
X4592Y2524*
X4592Y2525*
X4592Y2525*
X4592Y2525*
X4593Y2526*
X4593Y2526*
X4593Y2527*
X4593Y2527*
X4593Y2527*
X4593Y2527*
X4593Y2527*
X4593Y2527*
X4594Y2527*
X4594Y2528*
X4594Y2528*
X4595Y2528*
X4595Y2529*
X4596Y2529*
X4597Y2529*
X4597Y2530*
X4598Y2530*
X4598Y2530*
X4598Y2530*
X4599Y2530*
X4599*
X4599Y2530*
X4599*
X4599Y2527*
X4598Y2527*
X4598Y2526*
X4597Y2526*
X4597Y2526*
X4596Y2526*
X4596Y2526*
X4596Y2525*
X4596Y2525*
X4595Y2525*
X4595Y2524*
X4595Y2524*
X4594Y2523*
X4594Y2522*
X4594Y2522*
X4594Y2522*
Y2522*
X4594Y2521*
X4594Y2520*
X4595Y2520*
X4595Y2519*
X4595Y2519*
X4595Y2518*
X4595Y2518*
X4595Y2518*
X4596Y2518*
X4597Y2517*
X4597Y2517*
X4598Y2517*
X4598Y2517*
X4598Y2517*
X4599Y2517*
X4599*
X4599*
X4599Y2517*
X4600Y2517*
X4601Y2517*
X4601Y2518*
X4602Y2518*
X4602Y2518*
X4602Y2518*
X4602Y2518*
X4602Y2518*
X4602*
X4603Y2519*
X4603Y2519*
X4604Y2519*
X4604Y2520*
X4605Y2521*
X4606Y2522*
X4606Y2522*
X4607Y2523*
X4607Y2523*
X4607Y2523*
X4608Y2524*
X4608Y2524*
X4608Y2524*
X4608Y2524*
X4609Y2525*
X4609Y2526*
X4610Y2526*
X4611Y2527*
X4611Y2527*
X4611Y2528*
X4612Y2528*
X4612Y2528*
X4612*
X4612Y2529*
X4613Y2529*
X4614Y2529*
X4614Y2530*
X4614Y2530*
X4615Y2530*
X4615Y2530*
X4615Y2530*
X4615*
X4616Y2530*
X4616Y2530*
X4616Y2530*
X4617Y2530*
X4617Y2530*
X4617*
X4617*
X4617*
Y2514*
G37*
G36*
X4481Y2573D02*
X4482Y2573D01*
X4483Y2573*
X4484Y2573*
X4484Y2572*
X4485Y2572*
X4485Y2572*
X4485Y2572*
X4486Y2572*
X4486Y2572*
X4486Y2572*
X4486Y2572*
X4486*
X4487Y2571*
X4488Y2571*
X4489Y2570*
X4489Y2570*
X4490Y2569*
X4490Y2569*
X4490Y2569*
X4491Y2568*
X4491Y2568*
X4491Y2568*
X4491Y2568*
X4491Y2568*
X4491Y2568*
X4491Y2567*
X4492Y2567*
X4492Y2566*
X4492Y2565*
X4493Y2564*
X4493Y2563*
X4493Y2563*
X4493Y2562*
Y2562*
X4493Y2562*
Y2561*
X4493Y2560*
X4493Y2560*
X4493Y2559*
X4492Y2558*
X4492Y2558*
X4492Y2557*
X4492Y2557*
X4492Y2556*
X4491Y2556*
X4491Y2555*
X4491Y2555*
X4491Y2555*
X4491Y2555*
X4491Y2554*
X4491Y2554*
X4491Y2554*
X4490Y2554*
X4490Y2553*
X4489Y2553*
X4489Y2553*
X4488Y2552*
X4487Y2551*
X4486Y2551*
X4486Y2551*
X4485Y2551*
X4485Y2551*
X4485Y2551*
X4484Y2551*
X4484Y2550*
X4484*
X4483Y2554*
X4484Y2554*
X4484Y2554*
X4485Y2554*
X4485Y2555*
X4486Y2555*
X4486Y2555*
X4487Y2555*
X4487Y2556*
X4487Y2556*
X4488Y2556*
X4488Y2556*
X4488Y2556*
X4488Y2556*
X4488Y2557*
X4488Y2557*
X4488Y2557*
X4489Y2557*
X4489Y2557*
X4489Y2558*
X4489Y2559*
X4490Y2560*
X4490Y2560*
X4490Y2561*
Y2561*
X4490Y2561*
Y2561*
X4490Y2562*
X4490Y2563*
X4489Y2564*
X4489Y2564*
X4489Y2565*
X4489Y2565*
X4489Y2565*
X4489Y2566*
X4489Y2566*
X4489Y2566*
Y2566*
X4488Y2566*
X4488Y2567*
X4487Y2568*
X4486Y2568*
X4486Y2568*
X4485Y2569*
X4485Y2569*
X4485Y2569*
X4485Y2569*
X4485*
X4484Y2569*
X4483Y2569*
X4482Y2569*
X4481Y2570*
X4481Y2570*
X4480Y2570*
X4480*
X4480Y2570*
X4480*
X4479*
X4479*
X4479*
X4478Y2570*
X4477Y2570*
X4477Y2569*
X4476Y2569*
X4475Y2569*
X4475Y2569*
X4475Y2569*
X4475Y2569*
X4475Y2569*
X4474Y2569*
X4474*
X4474Y2569*
X4473Y2568*
X4472Y2568*
X4472Y2567*
X4471Y2567*
X4471Y2566*
X4471Y2566*
X4471Y2566*
Y2566*
X4470Y2565*
X4470Y2564*
X4469Y2564*
X4469Y2563*
X4469Y2562*
X4469Y2562*
Y2562*
X4469Y2561*
Y2561*
X4469Y2560*
X4469Y2559*
X4470Y2559*
X4470Y2558*
X4470Y2558*
X4470Y2557*
X4470Y2557*
X4470Y2557*
X4471Y2556*
X4472Y2556*
X4472Y2555*
X4473Y2555*
X4474Y2555*
X4474Y2555*
X4474Y2554*
X4474Y2554*
X4474Y2554*
X4474Y2554*
X4475*
X4474Y2551*
X4473Y2551*
X4472Y2551*
X4472Y2552*
X4471Y2552*
X4471Y2552*
X4470Y2553*
X4470Y2553*
X4470Y2553*
X4469Y2553*
X4469Y2554*
X4469Y2554*
X4469Y2554*
X4468Y2554*
X4468Y2554*
X4468Y2555*
X4468Y2555*
X4468Y2555*
X4468Y2556*
X4467Y2556*
X4467Y2557*
X4467Y2558*
X4467Y2559*
X4466Y2559*
X4466Y2560*
X4466Y2560*
X4466Y2560*
X4466Y2561*
Y2561*
X4466Y2562*
X4467Y2563*
X4467Y2565*
X4467Y2565*
X4467Y2565*
X4467Y2566*
X4467Y2566*
X4467Y2567*
X4468Y2567*
X4468Y2567*
X4468Y2567*
X4468Y2567*
X4468Y2567*
X4468Y2568*
X4469Y2569*
X4470Y2570*
X4471Y2571*
X4471Y2571*
X4472Y2571*
X4472Y2571*
X4472Y2571*
X4472Y2572*
X4472Y2572*
X4472Y2572*
X4474Y2572*
X4475Y2573*
X4476Y2573*
X4477Y2573*
X4477Y2573*
X4478Y2573*
X4478Y2573*
X4479*
X4479Y2573*
X4479*
X4479*
X4479*
X4481Y2573*
G37*
G36*
X4492Y2531D02*
X4489D01*
Y2544*
X4489Y2543*
X4488Y2543*
X4488Y2543*
X4488Y2543*
X4488Y2543*
X4488Y2542*
X4488Y2542*
X4487Y2542*
X4487Y2542*
X4487Y2541*
X4486Y2541*
X4486Y2540*
X4485Y2540*
X4485Y2539*
X4485Y2539*
X4485Y2539*
X4484Y2539*
X4484Y2539*
X4484Y2539*
X4484Y2538*
X4483Y2538*
X4483Y2537*
X4482Y2537*
X4482Y2536*
X4482Y2536*
X4481Y2535*
X4481Y2535*
X4481Y2535*
X4481Y2535*
X4480Y2534*
X4480Y2534*
X4480Y2534*
X4480Y2534*
X4479Y2533*
X4479Y2533*
X4478Y2533*
X4478Y2532*
X4477Y2532*
X4477Y2532*
X4477Y2532*
X4477Y2532*
X4476Y2532*
X4476Y2531*
X4475Y2531*
X4475Y2531*
X4474Y2531*
X4474Y2531*
X4474*
X4474*
X4473Y2531*
X4473Y2531*
X4472Y2531*
X4472Y2531*
X4471Y2532*
X4470Y2532*
X4470Y2532*
X4469Y2533*
X4469Y2533*
X4469Y2533*
X4469Y2533*
X4469Y2533*
X4469Y2533*
X4469Y2533*
X4468Y2534*
X4468Y2534*
X4468Y2535*
X4467Y2535*
X4467Y2536*
X4467Y2537*
X4467Y2537*
X4467Y2538*
X4467Y2538*
X4467Y2539*
X4467Y2539*
Y2539*
X4467Y2540*
X4467Y2540*
X4467Y2541*
X4467Y2542*
X4467Y2542*
X4467Y2543*
X4467Y2543*
X4468Y2543*
X4468Y2544*
X4468Y2544*
X4468Y2544*
X4468Y2545*
X4468Y2545*
X4468Y2545*
X4468Y2545*
X4469Y2545*
X4469Y2545*
X4469Y2546*
X4470Y2546*
X4470Y2546*
X4471Y2547*
X4472Y2547*
X4472Y2547*
X4473Y2547*
X4473Y2547*
X4473Y2547*
X4474Y2547*
X4474*
X4474Y2547*
X4474*
X4474Y2544*
X4473Y2544*
X4473Y2544*
X4472Y2544*
X4472Y2544*
X4471Y2543*
X4471Y2543*
X4471Y2543*
X4471Y2543*
X4470Y2542*
X4470Y2542*
X4470Y2541*
X4469Y2541*
X4469Y2540*
X4469Y2540*
X4469Y2539*
Y2539*
X4469Y2538*
X4469Y2538*
X4470Y2537*
X4470Y2537*
X4470Y2536*
X4470Y2536*
X4470Y2536*
X4470Y2536*
X4471Y2535*
X4472Y2535*
X4472Y2535*
X4473Y2535*
X4473Y2534*
X4473Y2534*
X4474Y2534*
X4474*
X4474*
X4474Y2534*
X4475Y2535*
X4476Y2535*
X4476Y2535*
X4477Y2535*
X4477Y2536*
X4477Y2536*
X4477Y2536*
X4477Y2536*
X4477*
X4478Y2536*
X4478Y2537*
X4479Y2537*
X4479Y2537*
X4480Y2538*
X4481Y2539*
X4481Y2540*
X4482Y2540*
X4482Y2541*
X4482Y2541*
X4483Y2541*
X4483Y2541*
X4483Y2541*
X4483Y2542*
X4484Y2542*
X4484Y2543*
X4485Y2544*
X4486Y2545*
X4486Y2545*
X4486Y2545*
X4487Y2546*
X4487Y2546*
X4487*
X4487Y2546*
X4488Y2547*
X4489Y2547*
X4489Y2547*
X4489Y2547*
X4490Y2548*
X4490Y2548*
X4490Y2548*
X4490*
X4491Y2548*
X4491Y2548*
X4491Y2548*
X4492Y2548*
X4492Y2548*
X4492*
X4492*
X4492*
Y2531*
G37*
G36*
X4476Y2525D02*
X4476Y2524D01*
X4475Y2524*
X4475Y2523*
X4475Y2523*
X4475Y2522*
X4475Y2522*
X4474Y2522*
Y2522*
X4474Y2521*
X4474Y2521*
X4473Y2520*
X4473Y2520*
X4473Y2519*
X4472Y2519*
X4472Y2519*
X4472Y2519*
X4492*
Y2516*
X4467*
Y2518*
X4467Y2518*
X4468Y2519*
X4468Y2519*
X4469Y2520*
X4469Y2520*
X4470Y2520*
X4470Y2521*
X4470Y2521*
X4470Y2521*
X4470Y2521*
X4471Y2521*
X4471Y2522*
X4472Y2523*
X4472Y2524*
X4473Y2524*
X4473Y2525*
X4473Y2525*
X4473Y2525*
X4473Y2525*
X4473Y2525*
Y2525*
X4476*
X4476Y2525*
G37*
G36*
X4941Y1586D02*
X4942Y1585D01*
X4943Y1585*
X4944Y1585*
X4944Y1585*
X4945Y1585*
X4945Y1585*
X4945Y1585*
X4946Y1584*
X4946Y1584*
X4946Y1584*
X4946Y1584*
X4946*
X4947Y1584*
X4948Y1583*
X4949Y1582*
X4949Y1582*
X4950Y1582*
X4950Y1581*
X4950Y1581*
X4951Y1581*
X4951Y1581*
X4951Y1581*
X4951Y1580*
X4951Y1580*
X4951Y1580*
X4951Y1580*
X4952Y1579*
X4952Y1578*
X4952Y1577*
X4953Y1576*
X4953Y1575*
X4953Y1575*
X4953Y1575*
Y1574*
X4953Y1574*
Y1574*
X4953Y1573*
X4953Y1572*
X4953Y1571*
X4952Y1571*
X4952Y1570*
X4952Y1570*
X4952Y1569*
X4952Y1569*
X4951Y1568*
X4951Y1568*
X4951Y1568*
X4951Y1567*
X4951Y1567*
X4951Y1567*
X4951Y1567*
X4951Y1567*
X4950Y1566*
X4950Y1566*
X4949Y1565*
X4949Y1565*
X4948Y1564*
X4947Y1564*
X4946Y1564*
X4946Y1563*
X4945Y1563*
X4945Y1563*
X4945Y1563*
X4944Y1563*
X4944Y1563*
X4944*
X4943Y1566*
X4944Y1566*
X4944Y1567*
X4945Y1567*
X4945Y1567*
X4946Y1567*
X4946Y1567*
X4947Y1568*
X4947Y1568*
X4947Y1568*
X4948Y1568*
X4948Y1569*
X4948Y1569*
X4948Y1569*
X4948Y1569*
X4948Y1569*
X4948Y1569*
X4949Y1569*
X4949Y1570*
X4949Y1571*
X4949Y1571*
X4950Y1572*
X4950Y1573*
X4950Y1573*
Y1573*
X4950Y1574*
Y1574*
X4950Y1575*
X4950Y1576*
X4949Y1576*
X4949Y1577*
X4949Y1577*
X4949Y1578*
X4949Y1578*
X4949Y1578*
X4949Y1578*
X4949Y1578*
Y1578*
X4948Y1579*
X4948Y1580*
X4947Y1580*
X4946Y1580*
X4946Y1581*
X4945Y1581*
X4945Y1581*
X4945Y1581*
X4945Y1581*
X4945*
X4944Y1581*
X4943Y1582*
X4942Y1582*
X4941Y1582*
X4941Y1582*
X4940Y1582*
X4940*
X4940Y1582*
X4940*
X4939*
X4939*
X4939*
X4938Y1582*
X4937Y1582*
X4937Y1582*
X4936Y1582*
X4935Y1582*
X4935Y1582*
X4935Y1581*
X4935Y1581*
X4935Y1581*
X4934Y1581*
X4934*
X4934Y1581*
X4933Y1581*
X4932Y1580*
X4932Y1580*
X4931Y1579*
X4931Y1579*
X4931Y1579*
X4931Y1579*
Y1579*
X4930Y1578*
X4930Y1577*
X4929Y1576*
X4929Y1575*
X4929Y1575*
X4929Y1574*
Y1574*
X4929Y1574*
Y1574*
X4929Y1573*
X4929Y1572*
X4930Y1571*
X4930Y1570*
X4930Y1570*
X4930Y1570*
X4930Y1569*
X4930Y1569*
X4931Y1569*
X4932Y1568*
X4932Y1568*
X4933Y1567*
X4934Y1567*
X4934Y1567*
X4934Y1567*
X4934Y1567*
X4934Y1567*
X4934Y1567*
X4935*
X4934Y1563*
X4933Y1564*
X4932Y1564*
X4932Y1564*
X4931Y1564*
X4931Y1565*
X4930Y1565*
X4930Y1565*
X4930Y1566*
X4929Y1566*
X4929Y1566*
X4929Y1566*
X4929Y1567*
X4928Y1567*
X4928Y1567*
X4928Y1567*
X4928Y1567*
X4928Y1568*
X4928Y1568*
X4927Y1569*
X4927Y1569*
X4927Y1570*
X4927Y1571*
X4926Y1572*
X4926Y1572*
X4926Y1573*
X4926Y1573*
X4926Y1573*
Y1574*
X4926Y1575*
X4927Y1576*
X4927Y1577*
X4927Y1577*
X4927Y1578*
X4927Y1578*
X4927Y1579*
X4927Y1579*
X4928Y1579*
X4928Y1579*
X4928Y1580*
X4928Y1580*
X4928Y1580*
X4928Y1581*
X4929Y1582*
X4930Y1582*
X4931Y1583*
X4931Y1583*
X4932Y1584*
X4932Y1584*
X4932Y1584*
X4932Y1584*
X4932Y1584*
X4932Y1584*
X4934Y1585*
X4935Y1585*
X4936Y1585*
X4937Y1585*
X4937Y1585*
X4938Y1586*
X4938Y1586*
X4939*
X4939Y1586*
X4939*
X4939*
X4939*
X4941Y1586*
G37*
G36*
X4952Y1544D02*
X4949D01*
Y1556*
X4949Y1556*
X4948Y1555*
X4948Y1555*
X4948Y1555*
X4948Y1555*
X4948Y1555*
X4948Y1555*
X4947Y1555*
X4947Y1554*
X4947Y1554*
X4946Y1553*
X4946Y1553*
X4945Y1552*
X4945Y1552*
X4945Y1552*
X4945Y1551*
X4944Y1551*
X4944Y1551*
X4944Y1551*
X4944Y1551*
X4943Y1550*
X4943Y1549*
X4942Y1549*
X4942Y1549*
X4942Y1548*
X4941Y1548*
X4941Y1547*
X4941Y1547*
X4941Y1547*
X4940Y1547*
X4940Y1547*
X4940Y1546*
X4940Y1546*
X4939Y1546*
X4939Y1545*
X4938Y1545*
X4938Y1545*
X4937Y1544*
X4937Y1544*
X4937Y1544*
X4937Y1544*
X4936Y1544*
X4936Y1544*
X4935Y1544*
X4935Y1544*
X4934Y1544*
X4934Y1544*
X4934*
X4934*
X4933Y1544*
X4933Y1544*
X4932Y1544*
X4932Y1544*
X4931Y1544*
X4930Y1545*
X4930Y1545*
X4929Y1545*
X4929Y1545*
X4929Y1545*
X4929Y1546*
X4929Y1546*
X4929Y1546*
X4929Y1546*
X4928Y1546*
X4928Y1547*
X4928Y1547*
X4927Y1548*
X4927Y1549*
X4927Y1549*
X4927Y1550*
X4927Y1550*
X4927Y1551*
X4927Y1551*
X4927Y1551*
Y1552*
X4927Y1552*
X4927Y1553*
X4927Y1553*
X4927Y1554*
X4927Y1555*
X4927Y1555*
X4927Y1555*
X4928Y1556*
X4928Y1556*
X4928Y1557*
X4928Y1557*
X4928Y1557*
X4928Y1557*
X4928Y1557*
X4928Y1557*
X4929Y1557*
X4929Y1558*
X4929Y1558*
X4930Y1558*
X4930Y1559*
X4931Y1559*
X4932Y1559*
X4932Y1560*
X4933Y1560*
X4933Y1560*
X4933Y1560*
X4934Y1560*
X4934*
X4934Y1560*
X4934*
X4934Y1557*
X4933Y1557*
X4933Y1556*
X4932Y1556*
X4932Y1556*
X4931Y1556*
X4931Y1556*
X4931Y1555*
X4931Y1555*
X4930Y1555*
X4930Y1554*
X4930Y1554*
X4929Y1553*
X4929Y1552*
X4929Y1552*
X4929Y1552*
Y1552*
X4929Y1551*
X4929Y1550*
X4930Y1550*
X4930Y1549*
X4930Y1549*
X4930Y1548*
X4930Y1548*
X4930Y1548*
X4931Y1548*
X4932Y1547*
X4932Y1547*
X4933Y1547*
X4933Y1547*
X4933Y1547*
X4934Y1547*
X4934*
X4934*
X4934Y1547*
X4935Y1547*
X4936Y1547*
X4936Y1548*
X4937Y1548*
X4937Y1548*
X4937Y1548*
X4937Y1548*
X4937Y1548*
X4937*
X4938Y1549*
X4938Y1549*
X4939Y1549*
X4939Y1550*
X4940Y1551*
X4941Y1552*
X4941Y1552*
X4942Y1553*
X4942Y1553*
X4942Y1553*
X4943Y1554*
X4943Y1554*
X4943Y1554*
X4943Y1554*
X4944Y1555*
X4944Y1556*
X4945Y1556*
X4946Y1557*
X4946Y1557*
X4946Y1558*
X4947Y1558*
X4947Y1558*
X4947*
X4947Y1559*
X4948Y1559*
X4949Y1559*
X4949Y1560*
X4949Y1560*
X4950Y1560*
X4950Y1560*
X4950Y1560*
X4950*
X4951Y1560*
X4951Y1560*
X4951Y1560*
X4952Y1560*
X4952Y1560*
X4952*
X4952*
X4952*
Y1544*
G37*
G36*
X4941Y1540D02*
X4942Y1540D01*
X4943Y1540*
X4944Y1540*
X4945Y1540*
X4946Y1539*
X4947Y1539*
X4948Y1539*
X4948Y1539*
X4949Y1538*
X4949Y1538*
X4949Y1538*
X4950Y1538*
X4950Y1538*
X4950Y1538*
X4950Y1538*
X4951Y1537*
X4951Y1537*
X4951Y1536*
X4952Y1536*
X4952Y1535*
X4952Y1535*
X4952Y1534*
X4952Y1534*
X4953Y1533*
X4953Y1533*
X4953Y1533*
X4953Y1532*
X4953Y1532*
Y1532*
X4953Y1531*
X4953Y1530*
X4952Y1529*
X4952Y1528*
X4952Y1528*
X4952Y1528*
X4951Y1527*
X4951Y1527*
X4951Y1527*
X4951Y1527*
Y1527*
X4951Y1526*
X4950Y1526*
X4949Y1525*
X4949Y1525*
X4948Y1525*
X4948Y1525*
X4947Y1525*
X4947Y1524*
X4947Y1524*
X4947Y1524*
X4947*
X4946Y1524*
X4946Y1524*
X4945Y1524*
X4943Y1524*
X4942Y1524*
X4942Y1523*
X4941Y1523*
X4941*
X4940Y1523*
X4940*
X4940*
X4940*
X4940*
X4939*
X4938Y1523*
X4938*
X4937Y1523*
X4937Y1524*
X4936Y1524*
X4936Y1524*
X4935Y1524*
X4935Y1524*
X4935Y1524*
X4934Y1524*
X4934Y1524*
X4934Y1524*
X4934Y1524*
X4934Y1524*
X4934*
X4933Y1524*
X4932Y1524*
X4931Y1525*
X4931Y1525*
X4930Y1525*
X4930Y1525*
X4930Y1526*
X4930Y1526*
X4929Y1526*
X4929Y1526*
X4928Y1527*
X4928Y1527*
X4928Y1528*
X4928Y1528*
X4927Y1528*
X4927Y1528*
Y1528*
X4927Y1529*
X4927Y1529*
X4927Y1530*
X4927Y1531*
X4927Y1531*
X4927Y1531*
Y1532*
X4927Y1533*
X4927Y1534*
X4927Y1534*
X4927Y1535*
X4928Y1536*
X4928Y1536*
X4928Y1536*
X4928Y1536*
X4928Y1536*
X4928Y1536*
Y1536*
X4929Y1537*
X4929Y1538*
X4930Y1538*
X4931Y1539*
X4931Y1539*
X4932Y1539*
X4932Y1539*
X4932Y1539*
X4932Y1539*
X4932Y1539*
X4932*
X4933Y1539*
X4933Y1540*
X4935Y1540*
X4936Y1540*
X4937Y1540*
X4938Y1540*
X4938Y1540*
X4939*
X4939Y1540*
X4939*
X4940*
X4940*
X4940*
X4941Y1540*
G37*
G36*
X4401Y2571D02*
X4402Y2570D01*
X4403Y2570*
X4404Y2570*
X4404Y2570*
X4405Y2570*
X4405Y2570*
X4405Y2570*
X4406Y2570*
X4406Y2569*
X4406Y2569*
X4406Y2569*
X4406*
X4407Y2569*
X4408Y2568*
X4409Y2567*
X4409Y2567*
X4410Y2567*
X4410Y2567*
X4410Y2566*
X4411Y2566*
X4411Y2566*
X4411Y2566*
X4411Y2565*
X4411Y2565*
X4411Y2565*
X4411Y2565*
X4412Y2564*
X4412Y2563*
X4412Y2562*
X4413Y2561*
X4413Y2561*
X4413Y2560*
X4413Y2560*
Y2559*
X4413Y2559*
Y2559*
X4413Y2558*
X4413Y2557*
X4413Y2557*
X4412Y2556*
X4412Y2555*
X4412Y2555*
X4412Y2554*
X4412Y2554*
X4411Y2553*
X4411Y2553*
X4411Y2553*
X4411Y2552*
X4411Y2552*
X4411Y2552*
X4411Y2552*
X4411Y2552*
X4410Y2551*
X4410Y2551*
X4409Y2550*
X4409Y2550*
X4408Y2549*
X4407Y2549*
X4406Y2549*
X4406Y2548*
X4405Y2548*
X4405Y2548*
X4405Y2548*
X4404Y2548*
X4404Y2548*
X4404*
X4403Y2551*
X4404Y2552*
X4404Y2552*
X4405Y2552*
X4405Y2552*
X4406Y2552*
X4406Y2553*
X4407Y2553*
X4407Y2553*
X4407Y2553*
X4408Y2553*
X4408Y2554*
X4408Y2554*
X4408Y2554*
X4408Y2554*
X4408Y2554*
X4408Y2554*
X4409Y2554*
X4409Y2555*
X4409Y2556*
X4409Y2556*
X4410Y2557*
X4410Y2558*
X4410Y2558*
Y2558*
X4410Y2559*
Y2559*
X4410Y2560*
X4410Y2561*
X4409Y2561*
X4409Y2562*
X4409Y2562*
X4409Y2563*
X4409Y2563*
X4409Y2563*
X4409Y2563*
X4409Y2563*
Y2563*
X4408Y2564*
X4408Y2565*
X4407Y2565*
X4406Y2565*
X4406Y2566*
X4405Y2566*
X4405Y2566*
X4405Y2566*
X4405Y2566*
X4405*
X4404Y2567*
X4403Y2567*
X4402Y2567*
X4401Y2567*
X4401Y2567*
X4400Y2567*
X4400*
X4400Y2567*
X4400*
X4399*
X4399*
X4399*
X4398Y2567*
X4397Y2567*
X4397Y2567*
X4396Y2567*
X4395Y2567*
X4395Y2567*
X4395Y2566*
X4395Y2566*
X4395Y2566*
X4394Y2566*
X4394*
X4394Y2566*
X4393Y2566*
X4392Y2565*
X4392Y2565*
X4391Y2564*
X4391Y2564*
X4391Y2564*
X4391Y2564*
Y2564*
X4390Y2563*
X4390Y2562*
X4389Y2561*
X4389Y2560*
X4389Y2560*
X4389Y2559*
Y2559*
X4389Y2559*
Y2559*
X4389Y2558*
X4389Y2557*
X4390Y2556*
X4390Y2556*
X4390Y2555*
X4390Y2555*
X4390Y2554*
X4390Y2554*
X4391Y2554*
X4392Y2553*
X4392Y2553*
X4393Y2552*
X4394Y2552*
X4394Y2552*
X4394Y2552*
X4394Y2552*
X4394Y2552*
X4394Y2552*
X4395*
X4394Y2548*
X4393Y2549*
X4392Y2549*
X4392Y2549*
X4391Y2549*
X4391Y2550*
X4390Y2550*
X4390Y2550*
X4390Y2551*
X4389Y2551*
X4389Y2551*
X4389Y2551*
X4389Y2552*
X4388Y2552*
X4388Y2552*
X4388Y2552*
X4388Y2552*
X4388Y2553*
X4388Y2553*
X4387Y2554*
X4387Y2554*
X4387Y2555*
X4387Y2556*
X4386Y2557*
X4386Y2557*
X4386Y2558*
X4386Y2558*
X4386Y2558*
Y2559*
X4386Y2560*
X4387Y2561*
X4387Y2562*
X4387Y2562*
X4387Y2563*
X4387Y2563*
X4387Y2564*
X4387Y2564*
X4388Y2564*
X4388Y2564*
X4388Y2565*
X4388Y2565*
X4388Y2565*
X4388Y2566*
X4389Y2567*
X4390Y2567*
X4391Y2568*
X4391Y2568*
X4392Y2569*
X4392Y2569*
X4392Y2569*
X4392Y2569*
X4392Y2569*
X4392Y2569*
X4394Y2570*
X4395Y2570*
X4396Y2570*
X4397Y2570*
X4397Y2571*
X4398Y2571*
X4398Y2571*
X4399*
X4399Y2571*
X4399*
X4399*
X4399*
X4401Y2571*
G37*
G36*
X4396Y2542D02*
X4396Y2542D01*
X4395Y2541*
X4395Y2541*
X4395Y2540*
X4395Y2540*
X4395Y2539*
X4394Y2539*
Y2539*
X4394Y2539*
X4394Y2538*
X4393Y2538*
X4393Y2537*
X4393Y2537*
X4392Y2537*
X4392Y2536*
X4392Y2536*
X4412*
Y2533*
X4387*
Y2535*
X4387Y2536*
X4388Y2536*
X4388Y2537*
X4389Y2537*
X4389Y2537*
X4390Y2538*
X4390Y2538*
X4390Y2538*
X4390Y2538*
X4390Y2538*
X4391Y2539*
X4391Y2540*
X4392Y2540*
X4392Y2541*
X4393Y2542*
X4393Y2542*
X4393Y2542*
X4393Y2542*
X4393Y2543*
X4393Y2543*
Y2543*
X4396*
X4396Y2542*
G37*
G36*
X4396Y2525D02*
X4397Y2525D01*
X4397Y2525*
X4398Y2525*
X4398Y2525*
X4399Y2525*
X4399Y2524*
X4400Y2524*
X4400Y2524*
X4400Y2524*
X4401Y2524*
X4401Y2523*
X4401Y2523*
X4401Y2523*
X4401Y2523*
X4401Y2523*
X4402Y2523*
X4402Y2522*
X4402Y2522*
X4403Y2521*
X4403Y2521*
X4403Y2520*
X4403Y2520*
X4403Y2519*
X4404Y2519*
X4404Y2518*
X4404Y2518*
X4404Y2518*
Y2518*
X4404Y2517*
X4403Y2516*
X4403Y2516*
X4403Y2515*
X4403Y2515*
X4403Y2514*
X4403Y2514*
X4403Y2514*
X4402Y2514*
X4402Y2513*
X4402Y2513*
X4401Y2512*
X4401Y2512*
X4401Y2512*
X4400Y2512*
X4400Y2512*
X4401*
X4401*
X4401*
X4401*
X4402Y2512*
X4402Y2512*
X4403Y2512*
X4404Y2512*
X4404Y2512*
X4404Y2512*
X4405Y2512*
X4405*
X4405Y2512*
X4405*
X4405Y2512*
X4406Y2512*
X4406Y2513*
X4407Y2513*
X4407Y2513*
X4408Y2513*
X4408Y2513*
X4408Y2513*
X4408Y2513*
X4408Y2514*
X4409Y2514*
X4409Y2514*
X4409Y2515*
X4409Y2515*
X4409Y2515*
X4410Y2515*
X4410Y2515*
X4410Y2516*
X4410Y2516*
X4410Y2517*
X4410Y2517*
X4410Y2517*
Y2517*
X4410Y2518*
X4410Y2519*
X4410Y2519*
X4410Y2520*
X4410Y2520*
X4409Y2520*
X4409Y2520*
X4409Y2520*
X4409Y2521*
X4408Y2521*
X4408Y2521*
X4407Y2521*
X4407Y2522*
X4406Y2522*
X4406Y2522*
X4406*
X4406Y2522*
X4406*
X4406Y2525*
X4407Y2525*
X4408Y2524*
X4409Y2524*
X4410Y2523*
X4410Y2523*
X4411Y2523*
X4411Y2523*
X4411Y2523*
X4411Y2523*
X4411Y2523*
X4411Y2522*
X4411Y2522*
X4412Y2522*
X4412Y2521*
X4412Y2520*
X4413Y2519*
X4413Y2519*
X4413Y2518*
Y2518*
X4413Y2518*
Y2518*
X4413Y2517*
X4413Y2516*
X4412Y2515*
X4412Y2514*
X4412Y2514*
X4412Y2513*
X4412Y2513*
X4411Y2513*
X4411Y2513*
X4411Y2513*
X4411Y2513*
Y2513*
X4411Y2512*
X4410Y2511*
X4409Y2511*
X4408Y2510*
X4408Y2510*
X4408Y2510*
X4407Y2510*
X4407Y2510*
X4407Y2509*
X4407Y2509*
X4407*
X4406Y2509*
X4406Y2509*
X4404Y2509*
X4403Y2509*
X4402Y2509*
X4401Y2508*
X4401Y2508*
X4400*
X4400Y2508*
X4399*
X4399*
X4399*
X4399*
X4398*
X4397Y2508*
X4397Y2508*
X4396Y2509*
X4395Y2509*
X4395Y2509*
X4394Y2509*
X4394Y2509*
X4393Y2509*
X4393Y2509*
X4393Y2509*
X4392Y2509*
X4392Y2509*
X4392Y2509*
X4392Y2509*
X4392*
X4391Y2510*
X4390Y2510*
X4389Y2511*
X4389Y2511*
X4389Y2512*
X4388Y2512*
X4388Y2512*
X4388Y2513*
X4388Y2513*
Y2513*
X4388Y2513*
X4387Y2514*
X4387Y2515*
X4387Y2516*
X4387Y2516*
X4387Y2517*
Y2517*
X4387Y2517*
Y2517*
X4387Y2518*
X4387Y2518*
X4387Y2519*
X4387Y2520*
X4387Y2521*
X4388Y2521*
X4388Y2521*
X4388Y2522*
X4388Y2522*
X4388Y2522*
X4389Y2523*
X4389Y2523*
X4389Y2523*
X4389Y2523*
X4389Y2523*
X4389Y2523*
X4390Y2524*
X4390Y2524*
X4391Y2524*
X4392Y2524*
X4392Y2525*
X4393Y2525*
X4393Y2525*
X4394Y2525*
X4394Y2525*
X4395Y2525*
X4395Y2525*
X4395*
X4395*
X4395*
X4396Y2525*
G37*
G36*
X4006Y1797D02*
X4006Y1796D01*
X4007Y1796*
X4007Y1795*
X4007Y1795*
X4008Y1794*
X4008Y1794*
X4008Y1794*
X4008Y1794*
X4008Y1794*
X4009Y1793*
X4010Y1793*
X4010Y1792*
X4011Y1792*
X4012Y1791*
X4012Y1791*
X4012Y1791*
X4012Y1791*
X4013Y1791*
X4013Y1791*
X4013*
Y1788*
X4012Y1788*
X4012Y1788*
X4011Y1789*
X4011Y1789*
X4010Y1789*
X4010Y1789*
X4009Y1789*
X4009Y1790*
X4009*
X4009Y1790*
X4008Y1790*
X4008Y1791*
X4007Y1791*
X4007Y1791*
X4007Y1792*
X4006Y1792*
X4006Y1792*
Y1772*
X4003*
Y1797*
X4005*
X4006Y1797*
G37*
G36*
X4030Y1798D02*
X4031Y1797D01*
X4032Y1797*
X4033Y1797*
X4033Y1797*
X4033Y1797*
X4034Y1797*
X4034Y1797*
X4034Y1796*
X4034Y1796*
X4035Y1796*
X4035Y1796*
X4035Y1796*
X4036Y1796*
X4037Y1795*
X4037Y1794*
X4038Y1793*
X4038Y1793*
X4039Y1792*
X4039Y1792*
X4039Y1792*
X4039Y1792*
X4039Y1792*
X4039Y1792*
X4040Y1790*
X4040Y1789*
X4040Y1788*
X4040Y1787*
X4041Y1787*
X4041Y1786*
X4041Y1786*
Y1785*
X4041Y1785*
Y1785*
Y1785*
Y1785*
X4041Y1783*
X4040Y1782*
X4040Y1781*
X4040Y1780*
X4040Y1780*
X4040Y1779*
X4040Y1779*
X4040Y1779*
X4040Y1778*
X4039Y1778*
X4039Y1778*
X4039Y1778*
Y1778*
X4039Y1777*
X4038Y1776*
X4037Y1775*
X4037Y1775*
X4037Y1774*
X4037Y1774*
X4036Y1774*
X4036Y1773*
X4036Y1773*
X4036Y1773*
X4035Y1773*
X4035Y1773*
X4035Y1773*
X4035Y1773*
X4034Y1772*
X4033Y1772*
X4032Y1772*
X4031Y1771*
X4031Y1771*
X4030Y1771*
X4030Y1771*
X4029*
X4029Y1771*
X4029*
X4028Y1771*
X4027Y1771*
X4027Y1771*
X4026Y1772*
X4025Y1772*
X4025Y1772*
X4024Y1772*
X4024Y1772*
X4023Y1773*
X4023Y1773*
X4023Y1773*
X4022Y1773*
X4022Y1773*
X4022Y1773*
X4022Y1773*
X4022Y1773*
X4021Y1774*
X4021Y1774*
X4020Y1775*
X4020Y1775*
X4019Y1776*
X4019Y1777*
X4019Y1778*
X4018Y1778*
X4018Y1779*
X4018Y1779*
X4018Y1779*
X4018Y1780*
X4018Y1780*
Y1780*
X4021Y1781*
X4022Y1780*
X4022Y1780*
X4022Y1779*
X4022Y1779*
X4022Y1778*
X4023Y1778*
X4023Y1777*
X4023Y1777*
X4023Y1777*
X4023Y1776*
X4024Y1776*
X4024Y1776*
X4024Y1776*
X4024Y1776*
X4024Y1776*
X4024Y1776*
X4024Y1775*
X4025Y1775*
X4026Y1775*
X4026Y1775*
X4027Y1774*
X4028Y1774*
X4028Y1774*
X4028*
X4029Y1774*
X4029*
X4030Y1774*
X4031Y1774*
X4031Y1775*
X4032Y1775*
X4033Y1775*
X4033Y1775*
X4033Y1775*
X4033Y1775*
X4033Y1775*
X4033Y1775*
X4033*
X4034Y1776*
X4035Y1776*
X4035Y1777*
X4035Y1778*
X4036Y1778*
X4036Y1779*
X4036Y1779*
X4036Y1779*
X4036Y1779*
Y1779*
X4037Y1780*
X4037Y1781*
X4037Y1782*
X4037Y1783*
X4037Y1783*
X4037Y1784*
Y1784*
X4037Y1784*
Y1784*
Y1785*
Y1785*
Y1785*
X4037Y1786*
X4037Y1787*
X4037Y1787*
X4037Y1788*
X4037Y1789*
X4037Y1789*
X4036Y1789*
X4036Y1789*
X4036Y1789*
X4036Y1790*
Y1790*
X4036Y1790*
X4036Y1791*
X4035Y1792*
X4035Y1792*
X4034Y1793*
X4034Y1793*
X4034Y1793*
X4034Y1793*
X4034*
X4033Y1794*
X4032Y1794*
X4031Y1795*
X4030Y1795*
X4030Y1795*
X4029Y1795*
X4029*
X4029Y1795*
X4029*
X4028Y1795*
X4027Y1795*
X4026Y1794*
X4026Y1794*
X4025Y1794*
X4025Y1794*
X4024Y1794*
X4024Y1794*
X4024Y1793*
X4023Y1792*
X4023Y1792*
X4022Y1791*
X4022Y1790*
X4022Y1790*
X4022Y1790*
X4022Y1790*
X4022Y1790*
X4022Y1790*
Y1789*
X4018Y1790*
X4019Y1791*
X4019Y1792*
X4019Y1792*
X4019Y1793*
X4020Y1793*
X4020Y1794*
X4020Y1794*
X4021Y1794*
X4021Y1795*
X4021Y1795*
X4021Y1795*
X4022Y1795*
X4022Y1796*
X4022Y1796*
X4022Y1796*
X4022Y1796*
X4023Y1796*
X4023Y1796*
X4024Y1797*
X4024Y1797*
X4025Y1797*
X4026Y1797*
X4027Y1798*
X4027Y1798*
X4028Y1798*
X4028Y1798*
X4028Y1798*
X4029*
X4030Y1798*
G37*
G36*
X3987Y1797D02*
X3988Y1797D01*
X3989Y1797*
X3990Y1797*
X3990Y1797*
X3990Y1797*
X3991Y1796*
X3991Y1796*
X3991Y1796*
X3992Y1796*
X3992Y1796*
X3992Y1796*
X3992Y1796*
X3992Y1796*
X3992Y1795*
X3993Y1795*
X3993Y1795*
X3993Y1794*
X3993Y1794*
X3994Y1793*
X3994Y1792*
X3994Y1792*
X3994Y1791*
X3994Y1791*
X3994Y1791*
Y1791*
Y1791*
Y1791*
X3994Y1790*
X3994Y1789*
X3994Y1789*
X3994Y1788*
X3994Y1788*
X3993Y1788*
X3993Y1788*
X3993Y1788*
X3993Y1787*
X3992Y1787*
X3992Y1786*
X3991Y1786*
X3991Y1786*
X3991Y1786*
X3991Y1786*
X3990Y1786*
X3990Y1786*
X3990*
X3991Y1785*
X3992Y1785*
X3993Y1785*
X3993Y1784*
X3993Y1784*
X3994Y1784*
X3994Y1783*
X3994Y1783*
Y1783*
X3994Y1783*
X3995Y1782*
X3995Y1781*
X3995Y1781*
X3995Y1780*
X3995Y1780*
Y1779*
X3995Y1779*
Y1779*
Y1779*
Y1779*
X3995Y1778*
X3995Y1778*
X3995Y1777*
X3995Y1777*
X3995Y1776*
X3994Y1775*
X3994Y1775*
X3994Y1775*
X3994Y1774*
X3993Y1774*
X3993Y1774*
X3993Y1774*
X3993Y1774*
X3993Y1774*
X3993Y1773*
X3993Y1773*
X3992Y1773*
X3992Y1772*
X3991Y1772*
X3991Y1772*
X3990Y1772*
X3989Y1772*
X3989Y1771*
X3988Y1771*
X3988Y1771*
X3987Y1771*
X3987Y1771*
X3987*
X3986Y1771*
X3985Y1771*
X3985Y1771*
X3984Y1772*
X3984Y1772*
X3983Y1772*
X3983Y1772*
X3982Y1772*
X3982Y1773*
X3982Y1773*
X3981Y1773*
X3981Y1773*
X3981Y1773*
X3981Y1773*
X3981Y1773*
X3981Y1773*
X3980Y1774*
X3980Y1774*
X3980Y1775*
X3979Y1775*
X3979Y1776*
X3979Y1776*
X3979Y1777*
X3979Y1777*
X3978Y1778*
X3978Y1778*
X3978Y1778*
X3978Y1779*
Y1779*
Y1779*
Y1779*
X3978Y1780*
X3979Y1781*
X3979Y1781*
X3979Y1782*
X3979Y1782*
X3979Y1783*
X3980Y1783*
X3980Y1783*
Y1783*
X3980Y1784*
X3981Y1784*
X3981Y1785*
X3982Y1785*
X3982Y1785*
X3983Y1785*
X3983Y1785*
X3983Y1786*
X3983Y1786*
X3983*
X3983Y1786*
X3982Y1786*
X3981Y1787*
X3981Y1787*
X3981Y1787*
X3981Y1787*
X3980Y1788*
X3980Y1788*
X3980Y1788*
X3980Y1789*
X3980Y1789*
X3980Y1790*
X3979Y1790*
X3979Y1790*
Y1791*
Y1791*
Y1791*
X3979Y1791*
X3979Y1792*
X3980Y1793*
X3980Y1793*
X3980Y1794*
X3981Y1795*
X3981Y1795*
X3981Y1795*
X3981Y1795*
X3981Y1795*
X3981Y1795*
X3981Y1795*
X3982Y1796*
X3982Y1796*
X3983Y1796*
X3983Y1797*
X3984Y1797*
X3985Y1797*
X3985Y1797*
X3986Y1797*
X3986Y1797*
X3986Y1797*
X3987Y1797*
X3987*
X3987Y1797*
G37*
G36*
X4871Y2476D02*
X4872Y2475D01*
X4873Y2475*
X4874Y2475*
X4874Y2475*
X4875Y2475*
X4875Y2475*
X4875Y2475*
X4876Y2475*
X4876Y2474*
X4876Y2474*
X4876Y2474*
X4876*
X4877Y2474*
X4878Y2473*
X4879Y2472*
X4879Y2472*
X4880Y2472*
X4880Y2472*
X4880Y2471*
X4881Y2471*
X4881Y2471*
X4881Y2471*
X4881Y2470*
X4881Y2470*
X4881Y2470*
X4881Y2470*
X4882Y2469*
X4882Y2468*
X4882Y2467*
X4883Y2466*
X4883Y2465*
X4883Y2465*
X4883Y2465*
Y2464*
X4883Y2464*
Y2464*
X4883Y2463*
X4883Y2462*
X4883Y2461*
X4882Y2461*
X4882Y2460*
X4882Y2460*
X4882Y2459*
X4882Y2459*
X4881Y2458*
X4881Y2458*
X4881Y2458*
X4881Y2457*
X4881Y2457*
X4881Y2457*
X4881Y2457*
X4881Y2457*
X4880Y2456*
X4880Y2456*
X4879Y2455*
X4879Y2455*
X4878Y2454*
X4877Y2454*
X4876Y2454*
X4876Y2453*
X4875Y2453*
X4875Y2453*
X4875Y2453*
X4874Y2453*
X4874Y2453*
X4874*
X4873Y2456*
X4874Y2457*
X4875Y2457*
X4875Y2457*
X4875Y2457*
X4876Y2457*
X4876Y2458*
X4877Y2458*
X4877Y2458*
X4877Y2458*
X4878Y2458*
X4878Y2459*
X4878Y2459*
X4878Y2459*
X4878Y2459*
X4878Y2459*
X4878Y2459*
X4879Y2459*
X4879Y2460*
X4879Y2461*
X4879Y2461*
X4880Y2462*
X4880Y2463*
X4880Y2463*
Y2463*
X4880Y2464*
Y2464*
X4880Y2465*
X4880Y2466*
X4879Y2466*
X4879Y2467*
X4879Y2467*
X4879Y2468*
X4879Y2468*
X4879Y2468*
X4879Y2468*
X4879Y2468*
Y2468*
X4878Y2469*
X4878Y2470*
X4877Y2470*
X4876Y2470*
X4876Y2471*
X4875Y2471*
X4875Y2471*
X4875Y2471*
X4875Y2471*
X4875*
X4874Y2472*
X4873Y2472*
X4872Y2472*
X4871Y2472*
X4871Y2472*
X4870Y2472*
X4870*
X4870Y2472*
X4870*
X4869*
X4869*
X4869*
X4868Y2472*
X4867Y2472*
X4867Y2472*
X4866Y2472*
X4865Y2472*
X4865Y2472*
X4865Y2471*
X4865Y2471*
X4865Y2471*
X4864Y2471*
X4864*
X4864Y2471*
X4863Y2471*
X4862Y2470*
X4862Y2470*
X4861Y2469*
X4861Y2469*
X4861Y2469*
X4861Y2469*
Y2469*
X4860Y2468*
X4860Y2467*
X4859Y2466*
X4859Y2465*
X4859Y2465*
X4859Y2464*
Y2464*
X4859Y2464*
Y2464*
X4859Y2463*
X4859Y2462*
X4860Y2461*
X4860Y2461*
X4860Y2460*
X4860Y2460*
X4860Y2459*
X4860Y2459*
X4861Y2459*
X4862Y2458*
X4862Y2458*
X4863Y2457*
X4864Y2457*
X4864Y2457*
X4864Y2457*
X4864Y2457*
X4864Y2457*
X4864Y2457*
X4865*
X4864Y2453*
X4863Y2454*
X4862Y2454*
X4862Y2454*
X4861Y2454*
X4861Y2455*
X4860Y2455*
X4860Y2455*
X4860Y2456*
X4859Y2456*
X4859Y2456*
X4859Y2456*
X4859Y2457*
X4858Y2457*
X4858Y2457*
X4858Y2457*
X4858Y2457*
X4858Y2458*
X4858Y2458*
X4857Y2459*
X4857Y2459*
X4857Y2460*
X4857Y2461*
X4856Y2462*
X4856Y2462*
X4856Y2463*
X4856Y2463*
X4856Y2463*
Y2464*
X4856Y2465*
X4857Y2466*
X4857Y2467*
X4857Y2467*
X4857Y2468*
X4857Y2468*
X4857Y2469*
X4857Y2469*
X4858Y2469*
X4858Y2469*
X4858Y2470*
X4858Y2470*
X4858Y2470*
X4858Y2471*
X4859Y2472*
X4860Y2472*
X4861Y2473*
X4861Y2473*
X4862Y2474*
X4862Y2474*
X4862Y2474*
X4862Y2474*
X4862Y2474*
X4862Y2474*
X4864Y2475*
X4865Y2475*
X4866Y2475*
X4867Y2475*
X4867Y2476*
X4868Y2476*
X4868Y2476*
X4869*
X4869Y2476*
X4869*
X4869*
X4869*
X4871Y2476*
G37*
G36*
X4866Y2447D02*
X4866Y2447D01*
X4865Y2446*
X4865Y2446*
X4865Y2445*
X4865Y2445*
X4865Y2444*
X4864Y2444*
Y2444*
X4864Y2444*
X4864Y2443*
X4863Y2443*
X4863Y2442*
X4863Y2442*
X4862Y2442*
X4862Y2441*
X4862Y2441*
X4882*
Y2438*
X4857*
Y2440*
X4857Y2441*
X4858Y2441*
X4858Y2442*
X4859Y2442*
X4859Y2442*
X4860Y2443*
X4860Y2443*
X4860Y2443*
X4860Y2443*
X4860Y2443*
X4861Y2444*
X4861Y2445*
X4862Y2445*
X4862Y2446*
X4863Y2447*
X4863Y2447*
X4863Y2447*
X4863Y2447*
X4863Y2448*
X4863Y2448*
Y2448*
X4866*
X4866Y2447*
G37*
G36*
X4860Y2417D02*
X4861Y2418D01*
X4862Y2419*
X4863Y2420*
X4864Y2421*
X4865Y2421*
X4865Y2421*
X4866Y2421*
X4866Y2422*
X4866Y2422*
X4867Y2422*
X4867Y2422*
X4867Y2422*
X4868Y2423*
X4870Y2423*
X4871Y2424*
X4872Y2424*
X4872Y2424*
X4873Y2425*
X4874Y2425*
X4874Y2425*
X4874Y2425*
X4875Y2425*
X4875Y2425*
X4875Y2425*
X4875*
X4877Y2426*
X4877Y2426*
X4878Y2426*
X4879Y2426*
X4879Y2426*
X4880Y2426*
X4880Y2426*
X4881Y2426*
X4881Y2426*
X4881Y2426*
X4882*
X4882Y2426*
X4882*
X4882*
X4882*
Y2423*
X4881Y2423*
X4880Y2423*
X4878Y2423*
X4878Y2423*
X4877Y2422*
X4877Y2422*
X4876Y2422*
X4876Y2422*
X4876Y2422*
X4876Y2422*
X4875Y2422*
X4875Y2422*
X4875*
X4874Y2421*
X4872Y2421*
X4871Y2421*
X4870Y2420*
X4870Y2420*
X4869Y2420*
X4869Y2419*
X4868Y2419*
X4868Y2419*
X4867Y2419*
X4867Y2418*
X4867Y2418*
X4866Y2418*
X4866Y2418*
X4866Y2418*
X4865Y2417*
X4864Y2417*
X4864Y2416*
X4863Y2416*
X4862Y2416*
X4862Y2415*
X4861Y2415*
X4861Y2415*
X4861Y2414*
X4860Y2414*
X4860Y2414*
X4860Y2414*
X4860Y2413*
X4860Y2413*
X4860Y2413*
X4857*
Y2430*
X4860*
Y2417*
G37*
G36*
X4286Y2561D02*
X4287Y2560D01*
X4288Y2560*
X4289Y2560*
X4289Y2560*
X4290Y2560*
X4290Y2560*
X4290Y2560*
X4291Y2560*
X4291Y2559*
X4291Y2559*
X4291Y2559*
X4291*
X4292Y2559*
X4293Y2558*
X4294Y2557*
X4294Y2557*
X4295Y2557*
X4295Y2557*
X4295Y2556*
X4296Y2556*
X4296Y2556*
X4296Y2556*
X4296Y2555*
X4296Y2555*
X4296Y2555*
X4296Y2555*
X4297Y2554*
X4297Y2553*
X4297Y2552*
X4298Y2551*
X4298Y2550*
X4298Y2550*
X4298Y2550*
Y2549*
X4298Y2549*
Y2549*
X4298Y2548*
X4298Y2547*
X4298Y2546*
X4297Y2546*
X4297Y2545*
X4297Y2545*
X4297Y2544*
X4297Y2544*
X4296Y2543*
X4296Y2543*
X4296Y2543*
X4296Y2542*
X4296Y2542*
X4296Y2542*
X4296Y2542*
X4296Y2542*
X4295Y2541*
X4295Y2541*
X4294Y2540*
X4294Y2540*
X4293Y2539*
X4292Y2539*
X4291Y2539*
X4291Y2538*
X4290Y2538*
X4290Y2538*
X4290Y2538*
X4289Y2538*
X4289Y2538*
X4289*
X4288Y2541*
X4289Y2542*
X4290Y2542*
X4290Y2542*
X4290Y2542*
X4291Y2542*
X4291Y2543*
X4292Y2543*
X4292Y2543*
X4292Y2543*
X4293Y2543*
X4293Y2544*
X4293Y2544*
X4293Y2544*
X4293Y2544*
X4293Y2544*
X4293Y2544*
X4294Y2544*
X4294Y2545*
X4294Y2546*
X4294Y2546*
X4295Y2547*
X4295Y2548*
X4295Y2548*
Y2548*
X4295Y2549*
Y2549*
X4295Y2550*
X4295Y2551*
X4294Y2551*
X4294Y2552*
X4294Y2552*
X4294Y2553*
X4294Y2553*
X4294Y2553*
X4294Y2553*
X4294Y2553*
Y2553*
X4293Y2554*
X4293Y2555*
X4292Y2555*
X4291Y2555*
X4291Y2556*
X4290Y2556*
X4290Y2556*
X4290Y2556*
X4290Y2556*
X4290*
X4289Y2557*
X4288Y2557*
X4287Y2557*
X4286Y2557*
X4286Y2557*
X4285Y2557*
X4285*
X4285Y2557*
X4285*
X4284*
X4284*
X4284*
X4283Y2557*
X4282Y2557*
X4282Y2557*
X4281Y2557*
X4280Y2557*
X4280Y2557*
X4280Y2556*
X4280Y2556*
X4280Y2556*
X4279Y2556*
X4279*
X4279Y2556*
X4278Y2556*
X4277Y2555*
X4277Y2555*
X4276Y2554*
X4276Y2554*
X4276Y2554*
X4276Y2554*
Y2554*
X4275Y2553*
X4275Y2552*
X4274Y2551*
X4274Y2550*
X4274Y2550*
X4274Y2549*
Y2549*
X4274Y2549*
Y2549*
X4274Y2548*
X4274Y2547*
X4275Y2546*
X4275Y2546*
X4275Y2545*
X4275Y2545*
X4275Y2544*
X4275Y2544*
X4276Y2544*
X4277Y2543*
X4277Y2543*
X4278Y2542*
X4279Y2542*
X4279Y2542*
X4279Y2542*
X4279Y2542*
X4279Y2542*
X4279Y2542*
X4280*
X4279Y2538*
X4278Y2539*
X4277Y2539*
X4277Y2539*
X4276Y2539*
X4276Y2540*
X4275Y2540*
X4275Y2540*
X4275Y2541*
X4274Y2541*
X4274Y2541*
X4274Y2541*
X4274Y2542*
X4273Y2542*
X4273Y2542*
X4273Y2542*
X4273Y2542*
X4273Y2543*
X4273Y2543*
X4272Y2544*
X4272Y2544*
X4272Y2545*
X4272Y2546*
X4271Y2547*
X4271Y2547*
X4271Y2548*
X4271Y2548*
X4271Y2548*
Y2549*
X4271Y2550*
X4272Y2551*
X4272Y2552*
X4272Y2552*
X4272Y2553*
X4272Y2553*
X4272Y2554*
X4272Y2554*
X4273Y2554*
X4273Y2554*
X4273Y2555*
X4273Y2555*
X4273Y2555*
X4273Y2556*
X4274Y2557*
X4275Y2557*
X4276Y2558*
X4276Y2558*
X4277Y2559*
X4277Y2559*
X4277Y2559*
X4277Y2559*
X4277Y2559*
X4277Y2559*
X4279Y2560*
X4280Y2560*
X4281Y2560*
X4282Y2560*
X4282Y2561*
X4283Y2561*
X4283Y2561*
X4284*
X4284Y2561*
X4284*
X4284*
X4284*
X4286Y2561*
G37*
G36*
X4281Y2532D02*
X4281Y2532D01*
X4280Y2531*
X4280Y2531*
X4280Y2530*
X4280Y2530*
X4280Y2529*
X4279Y2529*
Y2529*
X4279Y2529*
X4279Y2528*
X4278Y2528*
X4278Y2527*
X4278Y2527*
X4277Y2527*
X4277Y2526*
X4277Y2526*
X4297*
Y2523*
X4272*
Y2525*
X4272Y2526*
X4273Y2526*
X4273Y2527*
X4274Y2527*
X4274Y2527*
X4275Y2528*
X4275Y2528*
X4275Y2528*
X4275Y2528*
X4275Y2528*
X4276Y2529*
X4276Y2530*
X4277Y2530*
X4277Y2531*
X4278Y2532*
X4278Y2532*
X4278Y2532*
X4278Y2532*
X4278Y2533*
X4278Y2533*
Y2533*
X4281*
X4281Y2532*
G37*
G36*
X4287Y2515D02*
X4288Y2515D01*
X4289Y2515*
X4290Y2515*
X4290Y2515*
X4291Y2515*
X4292Y2514*
X4293Y2514*
X4293Y2514*
X4294Y2514*
X4294Y2513*
X4294Y2513*
X4295Y2513*
X4295Y2513*
X4295Y2513*
X4295Y2513*
X4295Y2512*
X4296Y2512*
X4296Y2511*
X4297Y2511*
X4297Y2510*
X4297Y2510*
X4297Y2509*
X4297Y2509*
X4297Y2508*
X4298Y2508*
X4298Y2507*
X4298Y2507*
Y2507*
X4298Y2507*
Y2506*
X4298Y2506*
X4298Y2505*
X4297Y2504*
X4297Y2503*
X4297Y2503*
X4297Y2503*
X4297Y2502*
X4297Y2502*
X4297Y2502*
Y2502*
X4296Y2502*
X4296Y2501*
X4295Y2501*
X4295Y2500*
X4294Y2500*
X4294Y2500*
X4294Y2500*
X4294Y2499*
X4294Y2499*
X4293*
X4293Y2499*
X4292Y2499*
X4291Y2499*
X4290Y2499*
X4290Y2498*
X4290*
X4289Y2498*
X4289*
X4289*
X4289*
X4289*
X4288Y2498*
X4288Y2498*
X4287Y2499*
X4287Y2499*
X4286Y2499*
X4286Y2499*
X4285Y2499*
X4285Y2499*
X4284Y2500*
X4284Y2500*
X4284Y2500*
X4283Y2500*
X4283Y2500*
X4283Y2500*
X4283Y2501*
X4283Y2501*
X4283Y2501*
X4282Y2501*
X4282Y2502*
X4282Y2502*
X4281Y2503*
X4281Y2503*
X4281Y2504*
X4281Y2504*
X4281Y2505*
X4281Y2505*
X4281Y2505*
X4281Y2506*
Y2506*
X4281Y2507*
X4281Y2507*
X4281Y2508*
X4281Y2508*
X4281Y2509*
X4281Y2509*
X4282Y2509*
X4282Y2509*
Y2509*
X4282Y2510*
X4282Y2511*
X4283Y2511*
X4283Y2511*
X4284Y2512*
X4284Y2512*
X4284Y2512*
X4284Y2512*
X4283*
X4283Y2512*
X4282Y2512*
X4282Y2512*
X4281Y2512*
X4281Y2512*
X4280Y2512*
X4280Y2512*
X4279Y2512*
X4279Y2512*
X4279Y2512*
X4279Y2511*
X4278Y2511*
X4278Y2511*
X4278Y2511*
X4278*
X4277Y2511*
X4277Y2511*
X4276Y2510*
X4276Y2510*
X4275Y2509*
X4275Y2509*
X4275Y2509*
X4275Y2509*
X4275Y2509*
X4275Y2508*
X4274Y2508*
X4274Y2507*
X4274Y2507*
X4274Y2507*
Y2506*
X4274Y2506*
X4274Y2505*
X4275Y2504*
X4275Y2504*
X4275Y2504*
X4275Y2503*
X4275Y2503*
X4276Y2503*
X4276Y2503*
X4276Y2503*
X4277Y2502*
X4277Y2502*
X4278Y2502*
X4278Y2502*
X4278Y2502*
X4278Y2502*
X4278*
X4278Y2499*
X4277Y2499*
X4276Y2499*
X4275Y2500*
X4275Y2500*
X4274Y2501*
X4274Y2501*
X4274Y2501*
X4273Y2501*
X4273Y2501*
X4273Y2501*
X4273Y2501*
X4273Y2502*
X4273Y2502*
X4272Y2503*
X4272Y2504*
X4272Y2504*
X4272Y2505*
X4272Y2505*
Y2506*
X4272Y2506*
Y2506*
X4272Y2507*
X4272Y2508*
X4272Y2508*
X4272Y2509*
X4272Y2509*
X4273Y2510*
X4273Y2510*
X4273Y2511*
X4273Y2511*
X4274Y2512*
X4274Y2512*
X4274Y2512*
X4274Y2512*
X4274Y2512*
X4275Y2513*
X4275Y2513*
X4275Y2513*
X4276Y2513*
X4277Y2514*
X4278Y2514*
X4279Y2514*
X4279Y2515*
X4280Y2515*
X4281Y2515*
X4282Y2515*
X4283Y2515*
X4284Y2515*
X4284Y2515*
X4285*
X4285Y2515*
X4285*
X4285*
X4285*
X4285*
X4287Y2515*
G37*
G36*
X4271Y1632D02*
X4271Y1631D01*
X4272Y1631*
X4272Y1630*
X4273Y1630*
X4273Y1629*
X4273Y1629*
X4273Y1629*
X4273Y1629*
X4273Y1629*
X4274Y1628*
X4275Y1628*
X4275Y1627*
X4276Y1627*
X4277Y1626*
X4277Y1626*
X4277Y1626*
X4278Y1626*
X4278Y1626*
X4278Y1626*
X4278*
Y1623*
X4277Y1623*
X4277Y1623*
X4276Y1624*
X4276Y1624*
X4275Y1624*
X4275Y1624*
X4275Y1624*
X4275Y1625*
X4274*
X4274Y1625*
X4273Y1625*
X4273Y1626*
X4272Y1626*
X4272Y1626*
X4272Y1627*
X4272Y1627*
X4271Y1627*
Y1607*
X4268*
Y1632*
X4270*
X4271Y1632*
G37*
G36*
X4260Y1619D02*
X4257Y1618D01*
X4257Y1619*
X4256Y1619*
X4256Y1619*
X4256Y1620*
X4255Y1620*
X4255Y1620*
X4255Y1620*
X4255Y1620*
X4254Y1620*
X4254Y1621*
X4253Y1621*
X4253Y1621*
X4253Y1621*
X4252Y1621*
X4252*
X4251Y1621*
X4250Y1621*
X4250Y1620*
X4249Y1620*
X4249Y1620*
X4248Y1620*
X4248Y1619*
X4248Y1619*
Y1619*
X4248Y1619*
X4247Y1618*
X4247Y1617*
X4247Y1617*
X4247Y1616*
X4247Y1616*
Y1616*
X4247Y1615*
Y1615*
Y1615*
Y1615*
Y1615*
X4247Y1614*
X4247Y1613*
X4247Y1612*
X4247Y1612*
X4248Y1611*
X4248Y1611*
X4248Y1611*
X4248Y1611*
X4248Y1611*
X4248Y1611*
X4249Y1610*
X4249Y1610*
X4249Y1610*
X4250Y1609*
X4251Y1609*
X4251Y1609*
X4252Y1609*
X4252Y1609*
X4252*
X4253Y1609*
X4253Y1609*
X4254Y1609*
X4254Y1609*
X4255Y1610*
X4255Y1610*
X4255Y1610*
X4255Y1610*
X4256Y1611*
X4256Y1611*
X4256Y1612*
X4257Y1612*
X4257Y1613*
X4257Y1613*
X4257Y1613*
X4257Y1614*
Y1614*
Y1614*
X4260Y1613*
X4260Y1613*
X4260Y1612*
X4260Y1611*
X4259Y1610*
X4259Y1610*
X4259Y1610*
X4259Y1609*
X4259Y1609*
X4258Y1609*
X4258Y1609*
X4258Y1608*
X4258Y1608*
X4258Y1608*
X4258Y1608*
X4257Y1608*
X4257Y1608*
X4256Y1607*
X4256Y1607*
X4255Y1607*
X4254Y1607*
X4254Y1606*
X4253Y1606*
X4253Y1606*
X4253Y1606*
X4252Y1606*
X4252*
X4251Y1606*
X4251Y1606*
X4250Y1607*
X4249Y1607*
X4249Y1607*
X4248Y1607*
X4248Y1608*
X4247Y1608*
X4247Y1608*
X4246Y1608*
X4246Y1609*
X4246Y1609*
X4246Y1609*
X4245Y1609*
X4245Y1609*
X4245Y1609*
X4245Y1610*
X4245Y1610*
X4244Y1611*
X4244Y1611*
X4244Y1612*
X4244Y1613*
X4243Y1614*
X4243Y1614*
X4243Y1614*
X4243Y1615*
X4243Y1615*
Y1615*
Y1615*
Y1615*
X4243Y1616*
X4243Y1617*
X4244Y1617*
X4244Y1618*
X4244Y1618*
X4244Y1619*
X4244Y1619*
X4244Y1620*
X4245Y1620*
X4245Y1620*
X4245Y1621*
X4245Y1621*
X4245Y1621*
X4246Y1621*
X4246Y1621*
X4246Y1621*
X4246Y1622*
X4247Y1622*
X4247Y1622*
X4247Y1623*
X4248Y1623*
X4248Y1623*
X4249Y1623*
X4250Y1624*
X4250Y1624*
X4250Y1624*
X4251Y1624*
X4251Y1624*
X4252*
X4252Y1624*
X4253Y1623*
X4254Y1623*
X4255Y1623*
X4255Y1623*
X4256Y1622*
X4256Y1622*
X4256Y1622*
X4256Y1622*
X4256Y1622*
X4256Y1622*
X4255Y1629*
X4245*
Y1632*
X4257*
X4260Y1619*
G37*
G36*
X4295Y1633D02*
X4296Y1632D01*
X4297Y1632*
X4298Y1632*
X4298Y1632*
X4298Y1632*
X4299Y1632*
X4299Y1632*
X4299Y1631*
X4300Y1631*
X4300Y1631*
X4300Y1631*
X4300Y1631*
X4301Y1631*
X4302Y1630*
X4302Y1629*
X4303Y1628*
X4304Y1628*
X4304Y1627*
X4304Y1627*
X4304Y1627*
X4304Y1627*
X4304Y1627*
X4304Y1627*
X4305Y1625*
X4305Y1624*
X4305Y1623*
X4306Y1622*
X4306Y1622*
X4306Y1621*
X4306Y1621*
Y1620*
X4306Y1620*
Y1620*
Y1620*
Y1620*
X4306Y1618*
X4305Y1617*
X4305Y1616*
X4305Y1615*
X4305Y1615*
X4305Y1614*
X4305Y1614*
X4305Y1614*
X4305Y1613*
X4304Y1613*
X4304Y1613*
X4304Y1613*
Y1613*
X4304Y1612*
X4303Y1611*
X4303Y1610*
X4302Y1610*
X4302Y1609*
X4302Y1609*
X4301Y1609*
X4301Y1608*
X4301Y1608*
X4301Y1608*
X4301Y1608*
X4300Y1608*
X4300Y1608*
X4300Y1608*
X4299Y1607*
X4298Y1607*
X4297Y1607*
X4296Y1606*
X4296Y1606*
X4295Y1606*
X4295Y1606*
X4294*
X4294Y1606*
X4294*
X4293Y1606*
X4292Y1606*
X4292Y1606*
X4291Y1607*
X4290Y1607*
X4290Y1607*
X4289Y1607*
X4289Y1607*
X4288Y1608*
X4288Y1608*
X4288Y1608*
X4287Y1608*
X4287Y1608*
X4287Y1608*
X4287Y1608*
X4287Y1608*
X4286Y1609*
X4286Y1609*
X4286Y1610*
X4285Y1610*
X4284Y1611*
X4284Y1612*
X4284Y1613*
X4284Y1613*
X4283Y1614*
X4283Y1614*
X4283Y1614*
X4283Y1615*
X4283Y1615*
Y1615*
X4286Y1616*
X4287Y1615*
X4287Y1615*
X4287Y1614*
X4287Y1614*
X4287Y1613*
X4288Y1613*
X4288Y1612*
X4288Y1612*
X4288Y1612*
X4289Y1611*
X4289Y1611*
X4289Y1611*
X4289Y1611*
X4289Y1611*
X4289Y1611*
X4289Y1611*
X4290Y1610*
X4290Y1610*
X4291Y1610*
X4292Y1610*
X4292Y1609*
X4293Y1609*
X4293Y1609*
X4294*
X4294Y1609*
X4294*
X4295Y1609*
X4296Y1609*
X4296Y1610*
X4297Y1610*
X4298Y1610*
X4298Y1610*
X4298Y1610*
X4298Y1610*
X4298Y1610*
X4298Y1610*
X4298*
X4299Y1611*
X4300Y1611*
X4300Y1612*
X4301Y1613*
X4301Y1613*
X4301Y1614*
X4301Y1614*
X4301Y1614*
X4301Y1614*
Y1614*
X4302Y1615*
X4302Y1616*
X4302Y1617*
X4302Y1618*
X4302Y1618*
X4302Y1619*
Y1619*
X4302Y1619*
Y1619*
Y1620*
Y1620*
Y1620*
X4302Y1621*
X4302Y1622*
X4302Y1622*
X4302Y1623*
X4302Y1624*
X4302Y1624*
X4302Y1624*
X4302Y1624*
X4301Y1624*
X4301Y1625*
Y1625*
X4301Y1625*
X4301Y1626*
X4300Y1627*
X4300Y1627*
X4299Y1628*
X4299Y1628*
X4299Y1628*
X4299Y1628*
X4299*
X4298Y1629*
X4297Y1629*
X4296Y1630*
X4295Y1630*
X4295Y1630*
X4294Y1630*
X4294*
X4294Y1630*
X4294*
X4293Y1630*
X4292Y1630*
X4291Y1629*
X4291Y1629*
X4290Y1629*
X4290Y1629*
X4290Y1629*
X4289Y1629*
X4289Y1628*
X4288Y1627*
X4288Y1627*
X4288Y1626*
X4287Y1625*
X4287Y1625*
X4287Y1625*
X4287Y1625*
X4287Y1625*
X4287Y1625*
Y1624*
X4284Y1625*
X4284Y1626*
X4284Y1627*
X4284Y1627*
X4285Y1628*
X4285Y1628*
X4285Y1629*
X4285Y1629*
X4286Y1629*
X4286Y1630*
X4286Y1630*
X4287Y1630*
X4287Y1630*
X4287Y1631*
X4287Y1631*
X4287Y1631*
X4287Y1631*
X4288Y1631*
X4288Y1631*
X4289Y1632*
X4289Y1632*
X4290Y1632*
X4291Y1632*
X4292Y1633*
X4292Y1633*
X4293Y1633*
X4293Y1633*
X4293Y1633*
X4294*
X4295Y1633*
G37*
%LNpcb-2*%
%LPC*%
G36*
X4784Y3804D02*
X4776D01*
X4775Y3804*
X4774Y3804*
X4774Y3804*
X4773Y3804*
X4773Y3804*
X4772Y3803*
X4772Y3803*
X4772Y3803*
X4772Y3803*
X4771Y3802*
X4771Y3802*
X4771Y3801*
X4771Y3801*
X4771Y3801*
X4771Y3800*
Y3800*
Y3800*
X4771Y3800*
X4771Y3799*
X4771Y3799*
X4771Y3799*
X4771Y3798*
X4771Y3798*
X4771Y3798*
X4771Y3798*
X4772Y3798*
X4772Y3797*
X4772Y3797*
X4773Y3797*
X4773Y3797*
X4773Y3796*
X4773Y3796*
X4773Y3796*
X4774Y3796*
X4774Y3796*
X4775Y3796*
X4776Y3796*
X4776Y3796*
X4777Y3796*
X4784*
Y3804*
G37*
G36*
X4753Y3802D02*
Y3791D01*
X4761*
X4753Y3802*
G37*
G36*
X4608Y3552D02*
X4599D01*
Y3544*
X4599Y3543*
X4600Y3542*
X4600Y3541*
X4600Y3541*
X4600Y3540*
X4600Y3540*
X4601Y3540*
X4601Y3539*
X4601Y3539*
X4602Y3539*
X4602Y3538*
X4602Y3538*
X4603Y3538*
X4603Y3538*
X4603Y3538*
X4604*
X4604*
X4604Y3538*
X4604Y3538*
X4605Y3538*
X4605Y3538*
X4605Y3539*
X4606Y3539*
X4606Y3539*
X4606Y3539*
X4606Y3539*
X4607Y3539*
X4607Y3540*
X4607Y3540*
X4607Y3540*
X4607Y3541*
X4607Y3541*
X4607Y3541*
X4608Y3541*
X4608Y3542*
X4608Y3543*
X4608Y3543*
X4608Y3544*
X4608Y3544*
Y3552*
G37*
G36*
X4603Y3507D02*
X4603D01*
X4603*
X4602Y3506*
X4602Y3506*
X4601Y3506*
X4601Y3506*
X4601Y3506*
X4600Y3506*
X4600Y3505*
X4600Y3505*
X4600Y3505*
X4599Y3504*
X4599Y3504*
X4599Y3503*
X4599Y3503*
X4599Y3503*
Y3502*
X4599Y3502*
X4599Y3501*
X4599Y3501*
X4600Y3500*
X4600Y3500*
X4600Y3500*
X4600Y3499*
X4600Y3499*
X4601Y3499*
X4601Y3499*
X4602Y3498*
X4602Y3498*
X4602Y3498*
X4603Y3498*
X4603*
X4603*
X4603*
X4604Y3498*
X4604Y3498*
X4605Y3499*
X4605Y3499*
X4605Y3499*
X4606Y3499*
X4606Y3499*
X4606Y3499*
X4606Y3500*
X4607Y3500*
X4607Y3501*
X4607Y3501*
X4607Y3502*
X4607Y3502*
X4607Y3502*
Y3502*
X4607Y3503*
X4607Y3504*
X4607Y3504*
X4606Y3505*
X4606Y3505*
X4606Y3505*
X4606Y3505*
X4606Y3505*
X4605Y3506*
X4605Y3506*
X4604Y3506*
X4604Y3506*
X4604Y3506*
X4603Y3506*
X4603Y3507*
G37*
G36*
X4615Y3508D02*
X4615D01*
X4615*
X4614Y3507*
X4613Y3507*
X4613Y3507*
X4612Y3507*
X4612Y3507*
X4611Y3506*
X4611Y3506*
X4611Y3506*
X4611Y3506*
X4610Y3505*
X4610Y3504*
X4610Y3504*
X4610Y3503*
X4610Y3503*
X4610Y3503*
Y3502*
X4610Y3502*
X4610Y3501*
X4610Y3500*
X4610Y3500*
X4611Y3499*
X4611Y3499*
X4611Y3499*
X4611Y3499*
X4612Y3498*
X4612Y3498*
X4613Y3497*
X4614Y3497*
X4614Y3497*
X4615Y3497*
X4615Y3497*
X4615*
X4615*
X4615*
X4616Y3497*
X4616Y3497*
X4617Y3498*
X4618Y3498*
X4618Y3498*
X4618Y3498*
X4618Y3499*
X4619Y3499*
X4619Y3499*
X4619Y3500*
X4620Y3500*
X4620Y3501*
X4620Y3502*
X4620Y3502*
X4620Y3502*
Y3502*
X4620Y3503*
X4620Y3503*
X4620Y3504*
X4620Y3504*
X4620Y3505*
X4619Y3505*
X4619Y3505*
X4619Y3505*
X4619Y3506*
X4619Y3506*
X4618Y3506*
X4618Y3506*
X4618Y3507*
X4618Y3507*
X4617Y3507*
X4617Y3507*
X4617Y3507*
X4616Y3507*
X4616Y3507*
X4616Y3507*
X4615Y3508*
X4615Y3508*
G37*
G36*
X1972Y3576D02*
X1972D01*
X1971Y3576*
X1971Y3575*
X1970Y3575*
X1970Y3575*
X1969Y3575*
X1969Y3574*
X1969Y3574*
X1969Y3574*
X1968Y3574*
X1968Y3573*
X1967Y3572*
X1967Y3571*
X1967Y3571*
X1967Y3571*
Y3570*
X1967Y3570*
Y3570*
Y3570*
Y3570*
X1967Y3569*
X1967Y3568*
X1968Y3567*
X1968Y3567*
X1968Y3566*
X1968Y3566*
X1968Y3566*
X1969Y3566*
Y3566*
X1969Y3565*
X1969Y3565*
X1970Y3565*
X1970Y3564*
X1971Y3564*
X1971Y3564*
X1972Y3564*
X1972Y3564*
X1972*
X1973Y3564*
X1973Y3564*
X1973Y3564*
X1974Y3564*
X1974Y3565*
X1974Y3565*
X1975Y3565*
X1975Y3565*
X1975Y3565*
X1975Y3565*
X1976Y3566*
X1976Y3566*
X1976Y3567*
X1976Y3567*
X1977Y3567*
X1977Y3567*
X1977Y3568*
X1977Y3568*
X1977Y3569*
X1977Y3569*
X1977Y3570*
X1977Y3570*
Y3570*
Y3570*
X1977Y3571*
X1977Y3572*
X1977Y3573*
X1976Y3573*
X1976Y3574*
X1976Y3574*
X1976Y3574*
X1976Y3574*
X1975Y3575*
X1975Y3575*
X1974Y3575*
X1973Y3576*
X1973Y3576*
X1972Y3576*
X1972Y3576*
G37*
G36*
X2022Y3585D02*
X2014D01*
X2013Y3585*
X2012Y3584*
X2011Y3584*
X2010Y3584*
X2010Y3584*
X2010Y3584*
X2010Y3583*
X2009Y3583*
X2009Y3583*
X2009Y3582*
X2008Y3582*
X2008Y3582*
X2008Y3581*
X2008Y3581*
X2008Y3581*
Y3580*
Y3580*
X2008Y3580*
X2008Y3580*
X2008Y3579*
X2008Y3579*
X2009Y3579*
X2009Y3578*
X2009Y3578*
X2009Y3578*
X2009Y3578*
X2009Y3577*
X2010Y3577*
X2010Y3577*
X2010Y3577*
X2011Y3577*
X2011Y3577*
X2011Y3577*
X2011Y3576*
X2012Y3576*
X2013Y3576*
X2013Y3576*
X2014Y3576*
X2014Y3576*
X2022*
Y3585*
G37*
G36*
X2247Y3730D02*
X2239D01*
X2238Y3730*
X2237Y3729*
X2236Y3729*
X2236Y3729*
X2235Y3729*
X2235Y3729*
X2235Y3728*
X2235Y3728*
X2234Y3728*
X2234Y3727*
X2234Y3727*
X2233Y3727*
X2233Y3726*
X2233Y3726*
X2233Y3726*
Y3725*
Y3725*
X2233Y3725*
X2233Y3725*
X2233Y3724*
X2234Y3724*
X2234Y3724*
X2234Y3723*
X2234Y3723*
X2234Y3723*
X2234Y3723*
X2235Y3722*
X2235Y3722*
X2235Y3722*
X2235Y3722*
X2236Y3722*
X2236Y3722*
X2236Y3722*
X2236Y3721*
X2237Y3721*
X2238Y3721*
X2238Y3721*
X2239Y3721*
X2239Y3721*
X2247*
Y3730*
G37*
G36*
X2492Y3650D02*
X2484D01*
X2483Y3650*
X2482Y3649*
X2481Y3649*
X2480Y3649*
X2480Y3649*
X2480Y3649*
X2479Y3648*
X2479Y3648*
X2479Y3648*
X2479Y3647*
X2478Y3647*
X2478Y3647*
X2478Y3646*
X2478Y3646*
X2478Y3646*
Y3645*
Y3645*
X2478Y3645*
X2478Y3645*
X2478Y3644*
X2478Y3644*
X2479Y3644*
X2479Y3643*
X2479Y3643*
X2479Y3643*
X2479Y3643*
X2479Y3642*
X2480Y3642*
X2480Y3642*
X2480Y3642*
X2481Y3642*
X2481Y3642*
X2481Y3642*
X2481Y3641*
X2482Y3641*
X2482Y3641*
X2483Y3641*
X2484Y3641*
X2484Y3641*
X2492*
Y3650*
G37*
G36*
X2441Y3647D02*
Y3636D01*
X2449*
X2441Y3647*
G37*
G36*
X3532Y3590D02*
X3524D01*
X3523Y3590*
X3522Y3589*
X3521Y3589*
X3520Y3589*
X3520Y3589*
X3520Y3589*
X3520Y3588*
X3519Y3588*
X3519Y3588*
X3519Y3587*
X3518Y3587*
X3518Y3587*
X3518Y3586*
X3518Y3586*
X3518Y3586*
Y3585*
Y3585*
X3518Y3585*
X3518Y3585*
X3518Y3584*
X3518Y3584*
X3519Y3584*
X3519Y3583*
X3519Y3583*
X3519Y3583*
X3519Y3583*
X3519Y3582*
X3520Y3582*
X3520Y3582*
X3520Y3582*
X3521Y3582*
X3521Y3582*
X3521Y3582*
X3521Y3581*
X3522Y3581*
X3523Y3581*
X3523Y3581*
X3524Y3581*
X3524Y3581*
X3532*
Y3590*
G37*
G36*
X3767Y3720D02*
X3759D01*
X3758Y3720*
X3757Y3719*
X3756Y3719*
X3755Y3719*
X3755Y3719*
X3755Y3719*
X3754Y3718*
X3754Y3718*
X3754Y3718*
X3754Y3717*
X3753Y3717*
X3753Y3717*
X3753Y3716*
X3753Y3716*
X3753Y3716*
Y3715*
Y3715*
X3753Y3715*
X3753Y3715*
X3753Y3714*
X3753Y3714*
X3753Y3714*
X3754Y3713*
X3754Y3713*
X3754Y3713*
X3754Y3713*
X3754Y3712*
X3755Y3712*
X3755Y3712*
X3755Y3712*
X3755Y3712*
X3756Y3712*
X3756Y3712*
X3756Y3711*
X3757Y3711*
X3757Y3711*
X3758Y3711*
X3759Y3711*
X3759Y3711*
X3767*
Y3720*
G37*
G36*
X3984Y3645D02*
X3976D01*
X3975Y3645*
X3974Y3644*
X3974Y3644*
X3973Y3644*
X3973Y3644*
X3972Y3644*
X3972Y3643*
X3972Y3643*
X3972Y3643*
X3971Y3642*
X3971Y3642*
X3971Y3642*
X3971Y3641*
X3971Y3641*
X3971Y3641*
Y3640*
Y3640*
X3971Y3640*
X3971Y3640*
X3971Y3639*
X3971Y3639*
X3971Y3639*
X3971Y3638*
X3971Y3638*
X3971Y3638*
X3972Y3638*
X3972Y3637*
X3972Y3637*
X3973Y3637*
X3973Y3637*
X3973Y3637*
X3973Y3637*
X3973Y3637*
X3974Y3636*
X3974Y3636*
X3975Y3636*
X3976Y3636*
X3976Y3636*
X3977Y3636*
X3984*
Y3645*
G37*
G36*
X2782Y3595D02*
X2774D01*
X2773Y3595*
X2772Y3594*
X2771Y3594*
X2770Y3594*
X2770Y3594*
X2770Y3594*
X2769Y3593*
X2769Y3593*
X2769Y3593*
X2769Y3592*
X2768Y3592*
X2768Y3592*
X2768Y3591*
X2768Y3591*
X2768Y3591*
Y3590*
Y3590*
X2768Y3590*
X2768Y3590*
X2768Y3589*
X2768Y3589*
X2769Y3589*
X2769Y3588*
X2769Y3588*
X2769Y3588*
X2769Y3588*
X2769Y3587*
X2770Y3587*
X2770Y3587*
X2770Y3587*
X2771Y3587*
X2771Y3587*
X2771Y3587*
X2771Y3586*
X2772Y3586*
X2772Y3586*
X2773Y3586*
X2774Y3586*
X2774Y3586*
X2782*
Y3595*
G37*
G36*
X2733Y3595D02*
X2732D01*
X2732Y3595*
X2732Y3595*
X2731Y3595*
X2731Y3595*
X2730Y3594*
X2730Y3594*
X2729Y3594*
X2729Y3593*
X2729Y3593*
X2729Y3593*
X2729Y3593*
Y3593*
X2728Y3592*
X2728Y3592*
X2728Y3591*
X2728Y3591*
X2728Y3590*
X2728Y3589*
X2727Y3588*
X2727Y3587*
X2727Y3587*
X2727Y3586*
Y3586*
X2727Y3585*
Y3585*
Y3585*
Y3585*
Y3584*
Y3583*
X2727Y3582*
X2727Y3581*
X2727Y3580*
X2727Y3580*
X2728Y3579*
X2728Y3578*
X2728Y3578*
X2728Y3577*
X2728Y3577*
X2728Y3577*
X2728Y3576*
X2729Y3576*
X2729Y3576*
X2729Y3576*
Y3576*
X2729Y3576*
X2729Y3575*
X2730Y3575*
X2730Y3575*
X2730Y3575*
X2731Y3574*
X2732Y3574*
X2732Y3574*
X2732Y3574*
X2732*
X2733Y3574*
X2733Y3574*
X2734Y3574*
X2734Y3575*
X2735Y3575*
X2735Y3575*
X2736Y3576*
X2736Y3576*
X2736Y3576*
Y3576*
X2736Y3577*
X2736Y3577*
X2737Y3578*
X2737Y3578*
X2737Y3579*
X2737Y3580*
X2737Y3581*
X2737Y3582*
X2737Y3582*
X2737Y3583*
Y3583*
X2737Y3584*
Y3584*
Y3584*
Y3584*
X2737Y3586*
X2737Y3587*
X2737Y3588*
X2737Y3589*
X2737Y3589*
X2737Y3590*
X2737Y3591*
X2737Y3591*
X2736Y3592*
X2736Y3592*
X2736Y3592*
X2736Y3593*
X2736Y3593*
X2736Y3593*
X2736Y3593*
Y3593*
X2736Y3593*
X2735Y3594*
X2735Y3594*
X2735Y3594*
X2734Y3595*
X2734Y3595*
X2733Y3595*
X2733Y3595*
X2733Y3595*
G37*
G36*
X2943Y3725D02*
X2942D01*
X2942Y3725*
X2941Y3725*
X2940Y3724*
X2940Y3724*
X2939Y3724*
X2939Y3724*
X2939Y3723*
X2939Y3723*
Y3723*
X2938Y3723*
X2938Y3722*
X2938Y3721*
X2938Y3721*
X2937Y3720*
X2937Y3720*
Y3720*
X2937Y3719*
Y3719*
Y3719*
Y3719*
X2937Y3718*
X2938Y3717*
X2938Y3717*
X2938Y3716*
X2938Y3715*
X2939Y3715*
X2939Y3715*
X2939Y3715*
X2939Y3714*
X2940Y3714*
X2941Y3714*
X2941Y3714*
X2942Y3713*
X2942Y3713*
X2942Y3713*
X2942*
X2943Y3713*
X2944Y3714*
X2945Y3714*
X2945Y3714*
X2945Y3714*
X2946Y3715*
X2946Y3715*
X2946Y3715*
X2947Y3715*
X2947Y3716*
X2947Y3717*
X2947Y3717*
X2947Y3718*
X2947Y3718*
Y3718*
X2948Y3719*
Y3719*
Y3719*
Y3719*
X2947Y3720*
X2947Y3721*
X2947Y3721*
X2947Y3722*
X2946Y3723*
X2946Y3723*
X2946Y3723*
X2946Y3723*
X2946Y3723*
Y3723*
X2946Y3724*
X2945Y3724*
X2945Y3724*
X2944Y3725*
X2944Y3725*
X2943Y3725*
X2943Y3725*
X2943Y3725*
G37*
G36*
X2992Y3725D02*
X2984D01*
X2983Y3725*
X2982Y3724*
X2981Y3724*
X2981Y3724*
X2980Y3724*
X2980Y3724*
X2980Y3723*
X2979Y3723*
X2979Y3723*
X2979Y3722*
X2978Y3722*
X2978Y3722*
X2978Y3721*
X2978Y3721*
X2978Y3721*
Y3720*
Y3720*
X2978Y3720*
X2978Y3720*
X2978Y3719*
X2978Y3719*
X2979Y3719*
X2979Y3718*
X2979Y3718*
X2979Y3718*
X2979Y3718*
X2979Y3717*
X2980Y3717*
X2980Y3717*
X2980Y3717*
X2981Y3717*
X2981Y3717*
X2981Y3717*
X2981Y3716*
X2982Y3716*
X2983Y3716*
X2983Y3716*
X2984Y3716*
X2984Y3716*
X2992*
Y3725*
G37*
G36*
X3232Y3650D02*
X3224D01*
X3223Y3650*
X3222Y3649*
X3221Y3649*
X3221Y3649*
X3220Y3649*
X3220Y3649*
X3220Y3648*
X3219Y3648*
X3219Y3648*
X3219Y3647*
X3218Y3647*
X3218Y3647*
X3218Y3646*
X3218Y3646*
X3218Y3646*
Y3645*
Y3645*
X3218Y3645*
X3218Y3645*
X3218Y3644*
X3218Y3644*
X3219Y3644*
X3219Y3643*
X3219Y3643*
X3219Y3643*
X3219Y3643*
X3219Y3642*
X3220Y3642*
X3220Y3642*
X3220Y3642*
X3221Y3642*
X3221Y3642*
X3221Y3642*
X3221Y3641*
X3222Y3641*
X3223Y3641*
X3223Y3641*
X3224Y3641*
X3224Y3641*
X3232*
Y3650*
G37*
G36*
X3183Y3650D02*
X3182D01*
X3182Y3650*
X3181Y3650*
X3181Y3650*
X3180Y3649*
X3180Y3649*
X3180Y3649*
X3179Y3649*
X3179Y3649*
X3179Y3648*
X3179Y3648*
X3178Y3647*
X3178Y3647*
X3178Y3647*
X3178Y3646*
Y3646*
Y3646*
Y3646*
X3178Y3645*
X3178Y3645*
X3179Y3644*
X3179Y3644*
X3179Y3644*
X3179Y3643*
X3179Y3643*
X3179Y3643*
X3180Y3643*
X3180Y3642*
X3181Y3642*
X3181Y3642*
X3182Y3642*
X3182Y3642*
X3182Y3642*
X3182*
X3183Y3642*
X3184Y3642*
X3184Y3642*
X3185Y3643*
X3185Y3643*
X3185Y3643*
X3185Y3643*
X3185Y3643*
X3186Y3644*
X3186Y3644*
X3186Y3645*
X3186Y3645*
X3186Y3645*
X3186Y3646*
X3187Y3646*
Y3646*
Y3646*
X3186Y3647*
X3186Y3647*
X3186Y3648*
X3186Y3648*
X3186Y3648*
X3186Y3649*
X3185Y3649*
X3185Y3649*
X3185Y3649*
X3184Y3650*
X3184Y3650*
X3183Y3650*
X3183Y3650*
X3183Y3650*
G37*
G36*
X3183Y3639D02*
X3182D01*
X3182Y3639*
X3181Y3639*
X3180Y3639*
X3180Y3639*
X3179Y3638*
X3179Y3638*
X3179Y3638*
X3179Y3638*
X3178Y3637*
X3178Y3637*
X3177Y3636*
X3177Y3635*
X3177Y3635*
X3177Y3634*
X3177Y3634*
Y3634*
Y3634*
Y3634*
X3177Y3633*
X3177Y3633*
X3178Y3632*
X3178Y3631*
X3178Y3631*
X3178Y3631*
X3179Y3631*
X3179Y3630*
X3179Y3630*
X3180Y3630*
X3180Y3629*
X3181Y3629*
X3182Y3629*
X3182Y3629*
X3182Y3629*
X3182*
X3183Y3629*
X3183Y3629*
X3184Y3629*
X3184Y3629*
X3185Y3629*
X3185Y3630*
X3185Y3630*
X3185Y3630*
X3186Y3630*
X3186Y3630*
X3186Y3631*
X3186Y3631*
X3187Y3631*
X3187Y3631*
X3187Y3632*
X3187Y3632*
X3187Y3632*
X3187Y3633*
X3187Y3633*
X3187Y3633*
X3188Y3634*
X3188Y3634*
Y3634*
Y3634*
X3187Y3635*
X3187Y3636*
X3187Y3636*
X3187Y3637*
X3187Y3637*
X3186Y3638*
X3186Y3638*
X3186Y3638*
X3186Y3638*
X3185Y3639*
X3184Y3639*
X3184Y3639*
X3183Y3639*
X3183Y3639*
X3183Y3639*
G37*
G36*
X4135Y1877D02*
Y1866D01*
X4143*
X4135Y1877*
G37*
G36*
X4940Y1537D02*
X4940D01*
X4940*
X4940*
X4939Y1537*
X4938Y1537*
X4937Y1537*
X4936Y1537*
X4935Y1537*
X4934Y1536*
X4934Y1536*
X4933Y1536*
X4933Y1536*
X4932Y1536*
X4932Y1536*
X4931Y1536*
X4931Y1535*
X4931Y1535*
X4931Y1535*
X4931*
X4931Y1535*
X4930Y1535*
X4930Y1535*
X4930Y1534*
X4930Y1534*
X4929Y1533*
X4929Y1533*
X4929Y1532*
X4929Y1532*
Y1532*
X4929Y1531*
X4929Y1531*
X4929Y1531*
X4930Y1530*
X4930Y1530*
X4930Y1529*
X4931Y1529*
X4931Y1528*
X4931Y1528*
X4931Y1528*
X4931Y1528*
X4931*
X4932Y1528*
X4932Y1528*
X4933Y1527*
X4933Y1527*
X4934Y1527*
X4935Y1527*
X4936Y1527*
X4937Y1527*
X4938Y1527*
X4938Y1527*
X4939*
X4939Y1527*
X4939*
X4940*
X4940*
X4940*
X4941*
X4942Y1527*
X4943Y1527*
X4944Y1527*
X4944Y1527*
X4945Y1527*
X4946Y1527*
X4946Y1527*
X4947Y1528*
X4947Y1528*
X4947Y1528*
X4948Y1528*
X4948Y1528*
X4948Y1528*
X4948Y1528*
X4948*
X4948Y1528*
X4949Y1529*
X4949Y1529*
X4949Y1529*
X4950Y1530*
X4950Y1531*
X4950Y1531*
X4950Y1531*
X4950Y1532*
Y1532*
X4950Y1532*
X4950Y1533*
X4950Y1533*
X4949Y1534*
X4949Y1534*
X4949Y1535*
X4948Y1535*
X4948Y1535*
X4948Y1535*
X4948*
X4948Y1536*
X4947Y1536*
X4947Y1536*
X4946Y1536*
X4945Y1536*
X4945Y1537*
X4943Y1537*
X4942Y1537*
X4942Y1537*
X4941Y1537*
X4941*
X4940Y1537*
G37*
G36*
X4396Y2522D02*
X4395D01*
X4395*
X4395*
X4394Y2522*
X4394Y2522*
X4393Y2522*
X4392Y2521*
X4392Y2521*
X4391Y2521*
X4391Y2521*
X4391Y2521*
X4391Y2520*
X4391*
X4391Y2520*
X4390Y2520*
X4390Y2519*
X4390Y2519*
X4389Y2518*
X4389Y2518*
X4389Y2517*
X4389Y2517*
Y2516*
X4389Y2516*
X4389Y2515*
X4390Y2515*
X4390Y2514*
X4390Y2514*
X4391Y2514*
X4391Y2513*
X4391Y2513*
X4391*
X4391Y2513*
X4392Y2512*
X4393Y2512*
X4394Y2512*
X4394Y2512*
X4394Y2512*
X4395*
X4395Y2512*
X4395*
X4395*
X4395*
X4396Y2512*
X4397Y2512*
X4398Y2512*
X4398Y2513*
X4399Y2513*
X4399Y2513*
X4399Y2513*
X4399Y2513*
X4400Y2514*
X4400Y2514*
X4400Y2515*
X4401Y2516*
X4401Y2516*
X4401Y2517*
X4401Y2517*
Y2517*
X4401Y2518*
X4401Y2518*
X4400Y2519*
X4400Y2520*
X4400Y2520*
X4400Y2520*
X4399Y2520*
X4399Y2521*
X4399Y2521*
X4398Y2521*
X4397Y2522*
X4397Y2522*
X4396Y2522*
X4396Y2522*
X4396*
X4396Y2522*
G37*
G36*
X3987Y1795D02*
X3987D01*
X3986Y1795*
X3986Y1795*
X3985Y1794*
X3985Y1794*
X3984Y1794*
X3984Y1794*
X3984Y1794*
X3984Y1794*
X3983Y1793*
X3983Y1793*
X3983Y1792*
X3983Y1792*
X3983Y1791*
X3983Y1791*
Y1791*
Y1791*
Y1791*
X3983Y1790*
X3983Y1790*
X3983Y1789*
X3983Y1789*
X3983Y1788*
X3984Y1788*
X3984Y1788*
X3984Y1788*
X3984Y1788*
X3985Y1787*
X3985Y1787*
X3986Y1787*
X3986Y1787*
X3987Y1787*
X3987Y1787*
X3987*
X3987Y1787*
X3988Y1787*
X3989Y1787*
X3989Y1787*
X3989Y1788*
X3990Y1788*
X3990Y1788*
X3990Y1788*
X3990Y1788*
X3991Y1789*
X3991Y1789*
X3991Y1790*
X3991Y1790*
X3991Y1791*
X3991Y1791*
Y1791*
Y1791*
X3991Y1791*
X3991Y1792*
X3991Y1792*
X3990Y1793*
X3990Y1793*
X3990Y1793*
X3990Y1794*
X3990Y1794*
X3989Y1794*
X3989Y1794*
X3988Y1795*
X3988Y1795*
X3987Y1795*
X3987Y1795*
G37*
G36*
X3987Y1784D02*
X3987D01*
X3986Y1784*
X3985Y1784*
X3985Y1784*
X3984Y1783*
X3984Y1783*
X3983Y1783*
X3983Y1783*
X3983Y1783*
X3983Y1782*
X3982Y1781*
X3982Y1781*
X3982Y1780*
X3982Y1780*
X3982Y1779*
X3982Y1779*
Y1779*
Y1779*
Y1779*
X3982Y1778*
X3982Y1777*
X3982Y1777*
X3982Y1776*
X3983Y1776*
X3983Y1776*
X3983Y1775*
X3983Y1775*
X3984Y1775*
X3984Y1774*
X3985Y1774*
X3985Y1774*
X3986Y1774*
X3986Y1774*
X3987Y1774*
X3987*
X3987Y1774*
X3988Y1774*
X3988Y1774*
X3989Y1774*
X3989Y1774*
X3989Y1774*
X3989Y1774*
X3990Y1775*
X3990Y1775*
X3990Y1775*
X3991Y1775*
X3991Y1776*
X3991Y1776*
X3991Y1776*
X3991Y1776*
X3991Y1776*
X3992Y1777*
X3992Y1777*
X3992Y1778*
X3992Y1778*
X3992Y1779*
X3992Y1779*
Y1779*
Y1779*
X3992Y1780*
X3992Y1781*
X3992Y1781*
X3991Y1782*
X3991Y1782*
X3991Y1782*
X3991Y1783*
X3991Y1783*
X3990Y1783*
X3989Y1784*
X3989Y1784*
X3988Y1784*
X3988Y1784*
X3987Y1784*
X3987Y1784*
G37*
G36*
X4289Y2512D02*
X4289D01*
X4289*
X4288Y2512*
X4287Y2511*
X4287Y2511*
X4286Y2511*
X4286Y2511*
X4285Y2510*
X4285Y2510*
X4285Y2510*
X4285Y2510*
X4284Y2509*
X4284Y2508*
X4284Y2508*
X4284Y2507*
X4284Y2507*
X4283Y2507*
Y2507*
X4284Y2506*
X4284Y2505*
X4284Y2505*
X4284Y2504*
X4285Y2504*
X4285Y2503*
X4285Y2503*
X4285Y2503*
X4286Y2503*
X4286Y2502*
X4287Y2502*
X4288Y2502*
X4288Y2502*
X4289Y2502*
X4289*
X4289Y2502*
X4289*
X4289*
X4289*
X4290Y2502*
X4291Y2502*
X4292Y2502*
X4292Y2502*
X4293Y2503*
X4293Y2503*
X4293Y2503*
X4294Y2503*
X4294*
X4294Y2503*
X4294Y2504*
X4294Y2504*
X4295Y2505*
X4295Y2505*
X4295Y2506*
X4295Y2506*
X4295Y2506*
Y2506*
X4295Y2507*
X4295Y2507*
X4295Y2508*
X4295Y2508*
X4295Y2509*
X4294Y2509*
X4294Y2509*
X4294Y2509*
X4294Y2510*
X4294Y2510*
X4293Y2510*
X4293Y2511*
X4293Y2511*
X4292Y2511*
X4292Y2511*
X4292Y2511*
X4292Y2511*
X4291Y2511*
X4290Y2512*
X4290Y2512*
X4290Y2512*
X4289Y2512*
G37*
%LNpcb-3*%
%LPD*%
G54D16*
X4107Y1670D02*
X4222D01*
X4107Y1581D02*
X4222D01*
X4907Y2306D02*
Y2325D01*
X4860Y2306D02*
Y2325D01*
X3603Y3617D02*
X3611D01*
X3603Y3662D02*
X3611D01*
X4423Y2420D02*
Y2439D01*
X4376Y2420D02*
Y2439D01*
X4319Y2359D02*
Y2474D01*
X4230Y2359D02*
Y2474D01*
X4824Y1510D02*
Y1625D01*
X4735Y1510D02*
Y1625D01*
X4150Y1725D02*
X4169D01*
X4150Y1678D02*
X4169D01*
X4623Y2420D02*
Y2439D01*
X4576Y2420D02*
Y2439D01*
X4657Y3516D02*
Y3523D01*
X4702Y3516D02*
Y3523D01*
X4523Y2420D02*
Y2439D01*
X4476Y2420D02*
Y2439D01*
X2852Y3662D02*
X2860D01*
X2852Y3617D02*
X2860D01*
X3846D02*
X3853D01*
X3846Y3662D02*
X3853D01*
X2217Y3617D02*
X2225D01*
X2217Y3662D02*
X2225D01*
X4746Y3752D02*
X4753D01*
X4746Y3707D02*
X4753D01*
X4842Y1558D02*
Y1577D01*
X4889Y1558D02*
Y1577D01*
X2087Y3617D02*
X2095D01*
X2087Y3662D02*
X2095D01*
X2344Y3617D02*
X2352D01*
X2344Y3662D02*
X2352D01*
X4133Y2212D02*
X4152D01*
X4133Y2165D02*
X4152D01*
X2972Y3662D02*
X2980D01*
X2972Y3617D02*
X2980D01*
X3726D02*
X3733D01*
X3726Y3662D02*
X3733D01*
X4108Y1827D02*
X4223D01*
X4108Y1738D02*
X4223D01*
X3092Y3662D02*
X3100D01*
X3092Y3617D02*
X3100D01*
M02*