%FSLAX23Y23*%
%MOIN*%
%SFA1B1*%

%IPPOS*%
%ADD59R,0.068900X0.068900*%
%ADD60C,0.068900*%
%ADD61C,0.137800*%
%ADD62R,0.055910X0.055910*%
%ADD63C,0.055910*%
%ADD68R,0.061810X0.061810*%
%ADD69C,0.061810*%
%ADD72R,0.055120X0.055120*%
%ADD73C,0.055120*%
%ADD88C,0.061020*%
%ADD89R,0.061020X0.061020*%
%ADD90C,0.062990*%
%ADD91R,0.062990X0.062990*%
%ADD92R,0.070870X0.070870*%
%ADD93C,0.070870*%
%ADD94C,0.089760*%
%ADD95C,0.196850*%
%ADD96C,0.059060*%
%ADD98C,0.045980*%
%ADD99C,0.088580*%
%ADD100C,0.060000*%
%ADD101C,0.017720*%
%ADD102C,0.035430*%
%ADD103C,0.023620*%
%LNpcb-1*%
%LPD*%
G36*
X5947Y4074D02*
X5932Y4067D01*
X5917Y4056*
X5904Y4042*
X5893Y4027*
X5885Y4011*
X5879Y3993*
X5876Y3975*
Y3956*
X5879Y3938*
X5885Y3920*
X5893Y3903*
X5904Y3888*
X5917Y3875*
X5932Y3864*
X5949Y3856*
X5967Y3850*
X5985Y3847*
X6004*
X6022Y3850*
X6040Y3856*
X6056Y3864*
X6071Y3875*
X6085Y3888*
X6096Y3903*
X6097Y3906*
X6102Y3905*
Y404*
X6097Y403*
X6096Y405*
X6085Y420*
X6071Y434*
X6056Y445*
X6040Y453*
X6022Y459*
X6004Y462*
X5985*
X5967Y459*
X5949Y453*
X5932Y445*
X5917Y434*
X5904Y420*
X5893Y405*
X5885Y389*
X5879Y371*
X5876Y353*
Y334*
X5879Y316*
X5885Y298*
X5893Y281*
X5904Y266*
X5917Y253*
X5927Y246*
X5925Y241*
X473*
X471Y246*
X481Y253*
X494Y266*
X505Y281*
X513Y298*
X519Y316*
X522Y334*
Y353*
X519Y371*
X513Y389*
X505Y405*
X494Y420*
X481Y434*
X466Y445*
X449Y453*
X431Y459*
X413Y462*
X394*
X376Y459*
X358Y453*
X342Y445*
X327Y434*
X319Y426*
X314Y428*
Y3881*
X319Y3883*
X327Y3875*
X342Y3864*
X358Y3856*
X376Y3850*
X394Y3847*
X413*
X431Y3850*
X449Y3856*
X466Y3864*
X481Y3875*
X494Y3888*
X505Y3903*
X513Y3920*
X519Y3938*
X522Y3956*
Y3975*
X519Y3993*
X513Y4011*
X505Y4027*
X494Y4042*
X481Y4056*
X466Y4067*
X451Y4074*
X452Y4079*
X5946*
X5947Y4074*
G37*
%LNpcb-2*%
%LPC*%
G36*
X1512Y4044D02*
Y4022D01*
X1534*
X1532Y4027*
X1529Y4034*
X1524Y4039*
X1517Y4042*
X1512Y4044*
G37*
G36*
X1502D02*
X1496Y4042D01*
X1489Y4039*
X1484Y4034*
X1481Y4027*
X1479Y4022*
X1502*
Y4044*
G37*
G36*
X1605Y4043D02*
Y4021D01*
X1627*
X1625Y4026*
X1622Y4033*
X1617Y4038*
X1610Y4041*
X1605Y4043*
G37*
G36*
X1595D02*
X1589Y4041D01*
X1582Y4038*
X1577Y4033*
X1574Y4026*
X1572Y4021*
X1595*
Y4043*
G37*
G36*
X1692Y4042D02*
Y4020D01*
X1714*
X1713Y4026*
X1709Y4032*
X1704Y4037*
X1698Y4041*
X1692Y4042*
G37*
G36*
X1682D02*
X1676Y4041D01*
X1670Y4037*
X1665Y4032*
X1661Y4026*
X1660Y4020*
X1682*
Y4042*
G37*
G36*
X1534Y4012D02*
X1512D01*
Y3989*
X1517Y3991*
X1524Y3994*
X1529Y3999*
X1532Y4006*
X1534Y4012*
G37*
G36*
X1502D02*
X1479D01*
X1481Y4006*
X1484Y3999*
X1489Y3994*
X1496Y3991*
X1502Y3989*
Y4012*
G37*
G36*
X1627Y4011D02*
X1605D01*
Y3988*
X1610Y3990*
X1617Y3993*
X1622Y3998*
X1625Y4005*
X1627Y4011*
G37*
G36*
X1595D02*
X1572D01*
X1574Y4005*
X1577Y3998*
X1582Y3993*
X1589Y3990*
X1595Y3988*
Y4011*
G37*
G36*
X1714Y4010D02*
X1692D01*
Y3988*
X1698Y3989*
X1704Y3993*
X1709Y3998*
X1713Y4004*
X1714Y4010*
G37*
G36*
X1682D02*
X1660D01*
X1661Y4004*
X1665Y3998*
X1670Y3993*
X1676Y3989*
X1682Y3988*
Y4010*
G37*
G36*
X4705Y4020D02*
X4705D01*
Y3985*
X4740*
Y3985*
X4737Y3995*
X4732Y4004*
X4724Y4012*
X4715Y4017*
X4705Y4020*
G37*
G36*
X4695D02*
X4694D01*
X4684Y4017*
X4675Y4012*
X4667Y4004*
X4662Y3995*
X4660Y3985*
Y3985*
X4695*
Y4020*
G37*
G36*
X4400D02*
X4400D01*
Y3985*
X4435*
Y3985*
X4432Y3995*
X4427Y4004*
X4419Y4012*
X4410Y4017*
X4400Y4020*
G37*
G36*
X4390D02*
X4389D01*
X4379Y4017*
X4370Y4012*
X4362Y4004*
X4357Y3995*
X4355Y3985*
Y3985*
X4390*
Y4020*
G37*
G36*
X1205D02*
X1205D01*
Y3985*
X1240*
Y3985*
X1237Y3995*
X1232Y4004*
X1224Y4012*
X1215Y4017*
X1205Y4020*
G37*
G36*
X1195D02*
X1194D01*
X1184Y4017*
X1175Y4012*
X1167Y4004*
X1162Y3995*
X1160Y3985*
Y3985*
X1195*
Y4020*
G37*
G36*
X4935Y4010D02*
X4935D01*
Y3975*
X4970*
Y3975*
X4967Y3985*
X4962Y3994*
X4954Y4002*
X4945Y4007*
X4935Y4010*
G37*
G36*
X4925D02*
X4924D01*
X4914Y4007*
X4905Y4002*
X4897Y3994*
X4892Y3985*
X4890Y3975*
Y3975*
X4925*
Y4010*
G37*
G36*
X925Y4000D02*
X925D01*
Y3965*
X960*
Y3965*
X957Y3975*
X952Y3984*
X944Y3992*
X935Y3997*
X925Y4000*
G37*
G36*
X915D02*
X914D01*
X904Y3997*
X895Y3992*
X887Y3984*
X882Y3975*
X880Y3965*
Y3965*
X915*
Y4000*
G37*
G36*
X5230Y3985D02*
X5230D01*
Y3950*
X5265*
Y3950*
X5262Y3960*
X5257Y3969*
X5249Y3977*
X5240Y3982*
X5230Y3985*
G37*
G36*
X5220D02*
X5219D01*
X5209Y3982*
X5200Y3977*
X5192Y3969*
X5187Y3960*
X5185Y3950*
Y3950*
X5220*
Y3985*
G37*
G36*
X4740Y3975D02*
X4705D01*
Y3940*
X4705*
X4715Y3942*
X4724Y3947*
X4732Y3955*
X4737Y3964*
X4740Y3974*
Y3975*
G37*
G36*
X4695D02*
X4660D01*
Y3974*
X4662Y3964*
X4667Y3955*
X4675Y3947*
X4684Y3942*
X4694Y3940*
X4695*
Y3975*
G37*
G36*
X4435D02*
X4400D01*
Y3940*
X4400*
X4410Y3942*
X4419Y3947*
X4427Y3955*
X4432Y3964*
X4435Y3974*
Y3975*
G37*
G36*
X4390D02*
X4355D01*
Y3974*
X4357Y3964*
X4362Y3955*
X4370Y3947*
X4379Y3942*
X4389Y3940*
X4390*
Y3975*
G37*
G36*
X1240D02*
X1205D01*
Y3940*
X1205*
X1215Y3942*
X1224Y3947*
X1232Y3955*
X1237Y3964*
X1240Y3974*
Y3975*
G37*
G36*
X1195D02*
X1160D01*
Y3974*
X1162Y3964*
X1167Y3955*
X1175Y3947*
X1184Y3942*
X1194Y3940*
X1195*
Y3975*
G37*
G36*
X4970Y3965D02*
X4935D01*
Y3930*
X4935*
X4945Y3932*
X4954Y3937*
X4962Y3945*
X4967Y3954*
X4970Y3964*
Y3965*
G37*
G36*
X4925D02*
X4890D01*
Y3964*
X4892Y3954*
X4897Y3945*
X4905Y3937*
X4914Y3932*
X4924Y3930*
X4925*
Y3965*
G37*
G36*
X960Y3955D02*
X925D01*
Y3920*
X925*
X935Y3922*
X944Y3927*
X952Y3935*
X957Y3944*
X960Y3954*
Y3955*
G37*
G36*
X915D02*
X880D01*
Y3954*
X882Y3944*
X887Y3935*
X895Y3927*
X904Y3922*
X914Y3920*
X915*
Y3955*
G37*
G36*
X715Y3950D02*
X715D01*
Y3915*
X750*
Y3915*
X747Y3925*
X742Y3934*
X734Y3942*
X725Y3947*
X715Y3950*
G37*
G36*
X705D02*
X704D01*
X694Y3947*
X685Y3942*
X677Y3934*
X672Y3925*
X670Y3915*
Y3915*
X705*
Y3950*
G37*
G36*
X5690Y3930D02*
X5589D01*
Y3906*
X5584Y3905*
X5580Y3911*
X5571Y3920*
X5559Y3927*
X5546Y3930*
X5533*
X5520Y3927*
X5508Y3920*
X5499Y3911*
X5492Y3899*
X5491Y3899*
X5488*
X5487Y3899*
X5480Y3911*
X5471Y3920*
X5459Y3927*
X5446Y3930*
X5433*
X5420Y3927*
X5408Y3920*
X5399Y3911*
X5392Y3899*
X5389Y3886*
Y3873*
X5392Y3860*
X5399Y3848*
X5408Y3839*
X5420Y3832*
X5433Y3829*
X5446*
X5459Y3832*
X5471Y3839*
X5480Y3848*
X5487Y3860*
X5488Y3860*
X5491*
X5492Y3860*
X5499Y3848*
X5508Y3839*
X5520Y3832*
X5520Y3831*
Y3828*
X5520Y3827*
X5508Y3820*
X5499Y3811*
X5492Y3799*
X5489Y3786*
Y3773*
X5492Y3760*
X5499Y3748*
X5508Y3739*
X5520Y3732*
X5533Y3729*
X5546*
X5559Y3732*
X5571Y3739*
X5580Y3748*
X5587Y3760*
X5588Y3760*
X5591*
X5592Y3760*
X5599Y3748*
X5608Y3739*
X5620Y3732*
X5633Y3729*
X5646*
X5659Y3732*
X5671Y3739*
X5680Y3748*
X5687Y3760*
X5690Y3773*
Y3786*
X5687Y3799*
X5680Y3811*
X5671Y3820*
X5665Y3824*
X5666Y3829*
X5690*
Y3930*
G37*
G36*
X5265Y3940D02*
X5230D01*
Y3905*
X5230*
X5240Y3907*
X5249Y3912*
X5257Y3920*
X5262Y3929*
X5265Y3939*
Y3940*
G37*
G36*
X5220D02*
X5185D01*
Y3939*
X5187Y3929*
X5192Y3920*
X5200Y3912*
X5209Y3907*
X5219Y3905*
X5220*
Y3940*
G37*
G36*
X750Y3905D02*
X715D01*
Y3870*
X715*
X725Y3872*
X734Y3877*
X742Y3885*
X747Y3894*
X750Y3904*
Y3905*
G37*
G36*
X705D02*
X670D01*
Y3904*
X672Y3894*
X677Y3885*
X685Y3877*
X694Y3872*
X704Y3870*
X705*
Y3905*
G37*
G36*
X4205Y3880D02*
X4205D01*
Y3845*
X4240*
Y3845*
X4237Y3855*
X4232Y3864*
X4224Y3872*
X4215Y3877*
X4205Y3880*
G37*
G36*
X4195D02*
X4194D01*
X4184Y3877*
X4175Y3872*
X4167Y3864*
X4162Y3855*
X4160Y3845*
Y3845*
X4195*
Y3880*
G37*
G36*
X1204Y3853D02*
X1164D01*
Y3813*
X1204*
Y3853*
G37*
G36*
X1154D02*
X1113D01*
Y3813*
X1154*
Y3853*
G37*
G36*
X4240Y3835D02*
X4205D01*
Y3800*
X4205*
X4215Y3802*
X4224Y3807*
X4232Y3815*
X4237Y3824*
X4240Y3834*
Y3835*
G37*
G36*
X4195D02*
X4160D01*
Y3834*
X4162Y3824*
X4167Y3815*
X4175Y3807*
X4184Y3802*
X4194Y3800*
X4195*
Y3835*
G37*
G36*
X1340D02*
X1340D01*
Y3800*
X1375*
Y3800*
X1372Y3810*
X1367Y3819*
X1359Y3827*
X1350Y3832*
X1340Y3835*
G37*
G36*
X1330D02*
X1329D01*
X1319Y3832*
X1310Y3827*
X1302Y3819*
X1297Y3810*
X1295Y3800*
Y3800*
X1330*
Y3835*
G37*
G36*
X5445Y3820D02*
X5445D01*
Y3785*
X5480*
Y3785*
X5478Y3795*
X5472Y3805*
X5465Y3812*
X5455Y3818*
X5445Y3820*
G37*
G36*
X5435D02*
X5434D01*
X5424Y3818*
X5414Y3812*
X5407Y3805*
X5401Y3795*
X5399Y3785*
Y3785*
X5435*
Y3820*
G37*
G36*
X1204Y3803D02*
X1164D01*
Y3762*
X1204*
Y3803*
G37*
G36*
X1154D02*
X1113D01*
Y3762*
X1154*
Y3803*
G37*
G36*
X1375Y3790D02*
X1340D01*
Y3755*
X1340*
X1350Y3757*
X1359Y3762*
X1367Y3770*
X1372Y3779*
X1375Y3789*
Y3790*
G37*
G36*
X1330D02*
X1295D01*
Y3789*
X1297Y3779*
X1302Y3770*
X1310Y3762*
X1319Y3757*
X1329Y3755*
X1330*
Y3790*
G37*
G36*
X560D02*
X560D01*
Y3755*
X595*
Y3755*
X592Y3765*
X587Y3774*
X579Y3782*
X570Y3787*
X560Y3790*
G37*
G36*
X550D02*
X549D01*
X539Y3787*
X530Y3782*
X522Y3774*
X517Y3765*
X515Y3755*
Y3755*
X550*
Y3790*
G37*
G36*
X916Y3863D02*
X901D01*
X887Y3860*
X875Y3852*
X864Y3842*
X857Y3829*
X853Y3815*
Y3801*
X857Y3786*
X864Y3774*
X875Y3764*
X887Y3756*
X901Y3752*
X916*
X930Y3756*
X943Y3764*
X953Y3774*
X960Y3786*
X964Y3801*
Y3815*
X960Y3829*
X953Y3842*
X943Y3852*
X930Y3860*
X916Y3863*
G37*
G36*
X5480Y3775D02*
X5445D01*
Y3739*
X5445*
X5455Y3741*
X5465Y3747*
X5472Y3754*
X5478Y3764*
X5480Y3774*
Y3775*
G37*
G36*
X5435D02*
X5399D01*
Y3774*
X5401Y3764*
X5407Y3754*
X5414Y3747*
X5424Y3741*
X5434Y3739*
X5435*
Y3775*
G37*
G36*
X4838Y3753D02*
Y3731D01*
X4860*
X4858Y3736*
X4855Y3743*
X4850Y3748*
X4843Y3751*
X4838Y3753*
G37*
G36*
X4828D02*
X4822Y3751D01*
X4815Y3748*
X4810Y3743*
X4807Y3736*
X4805Y3731*
X4828*
Y3753*
G37*
G36*
X4350Y3745D02*
X4350D01*
Y3710*
X4385*
Y3710*
X4382Y3720*
X4377Y3729*
X4369Y3737*
X4360Y3742*
X4350Y3745*
G37*
G36*
X4340D02*
X4339D01*
X4329Y3742*
X4320Y3737*
X4312Y3729*
X4307Y3720*
X4305Y3710*
Y3710*
X4340*
Y3745*
G37*
G36*
X595D02*
X560D01*
Y3710*
X560*
X570Y3712*
X579Y3717*
X587Y3725*
X592Y3734*
X595Y3744*
Y3745*
G37*
G36*
X550D02*
X515D01*
Y3744*
X517Y3734*
X522Y3725*
X530Y3717*
X539Y3712*
X549Y3710*
X550*
Y3745*
G37*
G36*
X4860Y3721D02*
X4838D01*
Y3698*
X4843Y3700*
X4850Y3703*
X4855Y3708*
X4858Y3715*
X4860Y3721*
G37*
G36*
X4828D02*
X4805D01*
X4807Y3715*
X4810Y3708*
X4815Y3703*
X4822Y3700*
X4828Y3698*
Y3721*
G37*
G36*
X3957Y3924D02*
X3938D01*
X3920Y3921*
X3902Y3915*
X3886Y3907*
X3871Y3896*
X3857Y3883*
X3846Y3868*
X3838Y3851*
X3832Y3833*
X3829Y3815*
Y3796*
X3832Y3778*
X3838Y3760*
X3846Y3744*
X3857Y3729*
X3871Y3715*
X3886Y3704*
X3902Y3696*
X3920Y3690*
X3938Y3687*
X3957*
X3975Y3690*
X3993Y3696*
X4010Y3704*
X4025Y3715*
X4038Y3729*
X4049Y3744*
X4057Y3760*
X4063Y3778*
X4066Y3796*
Y3815*
X4063Y3833*
X4057Y3851*
X4049Y3868*
X4038Y3883*
X4025Y3896*
X4010Y3907*
X3993Y3915*
X3975Y3921*
X3957Y3924*
G37*
G36*
X3205Y3923D02*
X3187D01*
X3168Y3920*
X3151Y3914*
X3134Y3906*
X3119Y3895*
X3106Y3882*
X3095Y3867*
X3086Y3850*
X3080Y3832*
X3078Y3814*
Y3795*
X3080Y3777*
X3086Y3759*
X3095Y3742*
X3106Y3727*
X3119Y3714*
X3134Y3703*
X3151Y3695*
X3168Y3689*
X3187Y3686*
X3205*
X3224Y3689*
X3241Y3695*
X3258Y3703*
X3273Y3714*
X3286Y3727*
X3297Y3742*
X3306Y3759*
X3311Y3777*
X3314Y3795*
Y3814*
X3311Y3832*
X3306Y3850*
X3297Y3867*
X3286Y3882*
X3273Y3895*
X3258Y3906*
X3241Y3914*
X3224Y3920*
X3205Y3923*
G37*
G36*
X2450D02*
X2432D01*
X2413Y3920*
X2395Y3914*
X2379Y3906*
X2364Y3895*
X2351Y3882*
X2340Y3867*
X2331Y3850*
X2325Y3832*
X2322Y3814*
Y3795*
X2325Y3777*
X2331Y3759*
X2340Y3742*
X2351Y3727*
X2364Y3714*
X2379Y3703*
X2395Y3695*
X2413Y3689*
X2432Y3686*
X2450*
X2469Y3689*
X2486Y3695*
X2503Y3703*
X2518Y3714*
X2531Y3727*
X2542Y3742*
X2551Y3759*
X2556Y3777*
X2559Y3795*
Y3814*
X2556Y3832*
X2551Y3850*
X2542Y3867*
X2531Y3882*
X2518Y3895*
X2503Y3906*
X2486Y3914*
X2469Y3920*
X2450Y3923*
G37*
G36*
X3507Y3919D02*
X3488D01*
X3470Y3916*
X3452Y3910*
X3436Y3902*
X3421Y3891*
X3407Y3878*
X3396Y3863*
X3388Y3846*
X3382Y3828*
X3379Y3810*
Y3791*
X3382Y3773*
X3388Y3755*
X3396Y3739*
X3407Y3724*
X3421Y3710*
X3436Y3699*
X3452Y3691*
X3470Y3685*
X3488Y3682*
X3507*
X3525Y3685*
X3543Y3691*
X3560Y3699*
X3575Y3710*
X3588Y3724*
X3599Y3739*
X3607Y3755*
X3613Y3773*
X3616Y3791*
Y3810*
X3613Y3828*
X3607Y3846*
X3599Y3863*
X3588Y3878*
X3575Y3891*
X3560Y3902*
X3543Y3910*
X3525Y3916*
X3507Y3919*
G37*
G36*
X2755Y3918D02*
X2737D01*
X2718Y3915*
X2701Y3909*
X2684Y3901*
X2669Y3890*
X2656Y3877*
X2645Y3862*
X2636Y3845*
X2630Y3827*
X2628Y3809*
Y3790*
X2630Y3772*
X2636Y3754*
X2645Y3737*
X2656Y3722*
X2669Y3709*
X2684Y3698*
X2701Y3690*
X2718Y3684*
X2737Y3681*
X2755*
X2774Y3684*
X2791Y3690*
X2808Y3698*
X2823Y3709*
X2836Y3722*
X2847Y3737*
X2856Y3754*
X2861Y3772*
X2864Y3790*
Y3809*
X2861Y3827*
X2856Y3845*
X2847Y3862*
X2836Y3877*
X2823Y3890*
X2808Y3901*
X2791Y3909*
X2774Y3915*
X2755Y3918*
G37*
G36*
X2000D02*
X1982D01*
X1963Y3915*
X1945Y3909*
X1929Y3901*
X1914Y3890*
X1901Y3877*
X1890Y3862*
X1881Y3845*
X1875Y3827*
X1872Y3809*
Y3790*
X1875Y3772*
X1881Y3754*
X1890Y3737*
X1901Y3722*
X1914Y3709*
X1929Y3698*
X1945Y3690*
X1963Y3684*
X1982Y3681*
X2000*
X2019Y3684*
X2036Y3690*
X2053Y3698*
X2068Y3709*
X2081Y3722*
X2092Y3737*
X2101Y3754*
X2106Y3772*
X2109Y3790*
Y3809*
X2106Y3827*
X2101Y3845*
X2092Y3862*
X2081Y3877*
X2068Y3890*
X2053Y3901*
X2036Y3909*
X2019Y3915*
X2000Y3918*
G37*
G36*
X4385Y3700D02*
X4350D01*
Y3665*
X4350*
X4360Y3667*
X4369Y3672*
X4377Y3680*
X4382Y3689*
X4385Y3699*
Y3700*
G37*
G36*
X4340D02*
X4305D01*
Y3699*
X4307Y3689*
X4312Y3680*
X4320Y3672*
X4329Y3667*
X4339Y3665*
X4340*
Y3700*
G37*
G36*
X2781Y3669D02*
Y3646D01*
X2803*
X2802Y3652*
X2798Y3658*
X2793Y3663*
X2786Y3667*
X2781Y3669*
G37*
G36*
X2771D02*
X2765Y3667D01*
X2759Y3663*
X2753Y3658*
X2750Y3652*
X2748Y3646*
X2771*
Y3669*
G37*
G36*
X6010Y3680D02*
X6010D01*
Y3645*
X6045*
Y3645*
X6042Y3655*
X6037Y3664*
X6029Y3672*
X6020Y3677*
X6010Y3680*
G37*
G36*
X6000D02*
X5999D01*
X5989Y3677*
X5980Y3672*
X5972Y3664*
X5967Y3655*
X5965Y3645*
Y3645*
X6000*
Y3680*
G37*
G36*
X3525Y3666D02*
Y3644D01*
X3547*
X3545Y3649*
X3542Y3656*
X3537Y3661*
X3530Y3664*
X3525Y3666*
G37*
G36*
X3515D02*
X3509Y3664D01*
X3502Y3661*
X3497Y3656*
X3494Y3649*
X3492Y3644*
X3515*
Y3666*
G37*
G36*
X2014D02*
Y3644D01*
X2036*
X2035Y3649*
X2031Y3656*
X2026Y3661*
X2020Y3664*
X2014Y3666*
G37*
G36*
X2004D02*
X1998Y3664D01*
X1992Y3661*
X1987Y3656*
X1983Y3649*
X1981Y3644*
X2004*
Y3666*
G37*
G36*
X1602Y3703D02*
X1593D01*
X1585Y3701*
X1578Y3697*
X1572Y3691*
X1568Y3684*
X1566Y3676*
Y3667*
X1568Y3659*
X1572Y3652*
X1578Y3646*
X1585Y3642*
X1593Y3640*
X1602*
X1610Y3642*
X1617Y3646*
X1623Y3652*
X1627Y3659*
X1629Y3667*
Y3676*
X1627Y3684*
X1623Y3691*
X1617Y3697*
X1610Y3701*
X1602Y3703*
G37*
G36*
X5064Y3815D02*
X5047D01*
X5030Y3812*
X5014Y3805*
X4999Y3795*
X4987Y3783*
X4977Y3768*
X4970Y3752*
X4967Y3735*
Y3717*
X4970Y3700*
X4977Y3684*
X4987Y3670*
X4999Y3657*
X5014Y3647*
X5030Y3641*
X5047Y3637*
X5064*
X5082Y3641*
X5098Y3647*
X5112Y3657*
X5125Y3670*
X5135Y3684*
X5141Y3700*
X5145Y3717*
Y3735*
X5141Y3752*
X5135Y3768*
X5125Y3783*
X5112Y3795*
X5098Y3805*
X5082Y3812*
X5064Y3815*
G37*
G36*
X4590D02*
X4573D01*
X4556Y3812*
X4540Y3805*
X4525Y3795*
X4513Y3783*
X4503Y3768*
X4496Y3752*
X4493Y3735*
Y3717*
X4496Y3700*
X4503Y3684*
X4513Y3670*
X4525Y3657*
X4540Y3647*
X4556Y3641*
X4573Y3637*
X4590*
X4608Y3641*
X4624Y3647*
X4638Y3657*
X4651Y3670*
X4660Y3684*
X4667Y3700*
X4671Y3717*
Y3735*
X4667Y3752*
X4660Y3768*
X4651Y3783*
X4638Y3795*
X4624Y3805*
X4608Y3812*
X4590Y3815*
G37*
G36*
X4775Y3657D02*
Y3625D01*
X4807*
X4805Y3634*
X4800Y3643*
X4793Y3650*
X4784Y3655*
X4775Y3657*
G37*
G36*
X4765D02*
X4755Y3655D01*
X4746Y3650*
X4739Y3643*
X4734Y3634*
X4732Y3625*
X4765*
Y3657*
G37*
G36*
X1200Y3655D02*
X1200D01*
Y3620*
X1235*
Y3620*
X1232Y3630*
X1227Y3639*
X1219Y3647*
X1210Y3652*
X1200Y3655*
G37*
G36*
X1190D02*
X1189D01*
X1179Y3652*
X1170Y3647*
X1162Y3639*
X1157Y3630*
X1155Y3620*
Y3620*
X1190*
Y3655*
G37*
G36*
X2803Y3636D02*
X2781D01*
Y3614*
X2786Y3615*
X2793Y3619*
X2798Y3624*
X2802Y3630*
X2803Y3636*
G37*
G36*
X2771D02*
X2748D01*
X2750Y3630*
X2753Y3624*
X2759Y3619*
X2765Y3615*
X2771Y3614*
Y3636*
G37*
G36*
X2036Y3634D02*
X2014D01*
Y3611*
X2020Y3613*
X2026Y3616*
X2031Y3621*
X2035Y3628*
X2036Y3634*
G37*
G36*
X2004D02*
X1981D01*
X1983Y3628*
X1987Y3621*
X1992Y3616*
X1998Y3613*
X2004Y3611*
Y3634*
G37*
G36*
X3547D02*
X3525D01*
Y3611*
X3530Y3613*
X3537Y3616*
X3542Y3621*
X3545Y3628*
X3547Y3634*
G37*
G36*
X3515D02*
X3492D01*
X3494Y3628*
X3497Y3621*
X3502Y3616*
X3509Y3613*
X3515Y3611*
Y3634*
G37*
G36*
X6045Y3635D02*
X6010D01*
Y3600*
X6010*
X6020Y3602*
X6029Y3607*
X6037Y3615*
X6042Y3624*
X6045Y3634*
Y3635*
G37*
G36*
X6000D02*
X5965D01*
Y3634*
X5967Y3624*
X5972Y3615*
X5980Y3607*
X5989Y3602*
X5999Y3600*
X6000*
Y3635*
G37*
G36*
X1235Y3610D02*
X1200D01*
Y3575*
X1200*
X1210Y3577*
X1219Y3582*
X1227Y3590*
X1232Y3599*
X1235Y3609*
Y3610*
G37*
G36*
X1190D02*
X1155D01*
Y3609*
X1157Y3599*
X1162Y3590*
X1170Y3582*
X1179Y3577*
X1189Y3575*
X1190*
Y3610*
G37*
G36*
X3906Y3599D02*
X3893D01*
X3880Y3596*
X3869Y3589*
X3860Y3580*
X3853Y3569*
X3852Y3564*
X3847*
X3846Y3569*
X3839Y3580*
X3830Y3589*
X3819Y3596*
X3806Y3599*
X3793*
X3780Y3596*
X3769Y3589*
X3760Y3580*
X3753Y3569*
X3752Y3564*
X3747*
X3746Y3569*
X3739Y3580*
X3730Y3589*
X3719Y3596*
X3706Y3599*
X3693*
X3680Y3596*
X3669Y3589*
X3660Y3580*
X3653Y3569*
X3652Y3564*
X3647*
X3646Y3569*
X3639Y3580*
X3630Y3589*
X3619Y3596*
X3606Y3599*
X3593*
X3580Y3596*
X3569Y3589*
X3560Y3580*
X3553Y3569*
X3550Y3556*
Y3543*
X3553Y3530*
X3560Y3519*
X3569Y3510*
X3580Y3503*
X3593Y3500*
X3606*
X3619Y3503*
X3630Y3510*
X3639Y3519*
X3646Y3530*
X3647Y3535*
X3652*
X3653Y3530*
X3660Y3519*
X3669Y3510*
X3680Y3503*
X3693Y3500*
X3706*
X3719Y3503*
X3730Y3510*
X3739Y3519*
X3746Y3530*
X3747Y3535*
X3752*
X3753Y3530*
X3760Y3519*
X3769Y3510*
X3780Y3503*
X3793Y3500*
X3806*
X3819Y3503*
X3830Y3510*
X3839Y3519*
X3846Y3530*
X3847Y3535*
X3852*
X3853Y3530*
X3860Y3519*
X3869Y3510*
X3880Y3503*
X3893Y3500*
X3906*
X3919Y3503*
X3930Y3510*
X3939Y3519*
X3946Y3530*
X3949Y3543*
Y3556*
X3946Y3569*
X3939Y3580*
X3930Y3589*
X3919Y3596*
X3906Y3599*
G37*
G36*
X3154Y3598D02*
X3141D01*
X3129Y3594*
X3117Y3588*
X3108Y3579*
X3102Y3567*
X3100Y3563*
X3095*
X3094Y3567*
X3087Y3579*
X3078Y3588*
X3067Y3594*
X3054Y3598*
X3041*
X3029Y3594*
X3017Y3588*
X3008Y3579*
X3002Y3567*
X3000Y3563*
X2995*
X2994Y3567*
X2987Y3579*
X2978Y3588*
X2967Y3594*
X2954Y3598*
X2941*
X2929Y3594*
X2917Y3588*
X2908Y3579*
X2902Y3567*
X2900Y3563*
X2895*
X2894Y3567*
X2887Y3579*
X2878Y3588*
X2867Y3594*
X2854Y3598*
X2841*
X2829Y3594*
X2817Y3588*
X2808Y3579*
X2802Y3567*
X2798Y3555*
Y3542*
X2802Y3529*
X2808Y3518*
X2817Y3509*
X2829Y3502*
X2841Y3499*
X2854*
X2867Y3502*
X2878Y3509*
X2887Y3518*
X2894Y3529*
X2895Y3534*
X2900*
X2902Y3529*
X2908Y3518*
X2917Y3509*
X2929Y3502*
X2941Y3499*
X2954*
X2967Y3502*
X2978Y3509*
X2987Y3518*
X2994Y3529*
X2995Y3534*
X3000*
X3002Y3529*
X3008Y3518*
X3017Y3509*
X3029Y3502*
X3041Y3499*
X3054*
X3067Y3502*
X3078Y3509*
X3087Y3518*
X3094Y3529*
X3095Y3534*
X3100*
X3102Y3529*
X3108Y3518*
X3117Y3509*
X3129Y3502*
X3141Y3499*
X3154*
X3167Y3502*
X3178Y3509*
X3187Y3518*
X3194Y3529*
X3197Y3542*
Y3555*
X3194Y3567*
X3187Y3579*
X3178Y3588*
X3167Y3594*
X3154Y3598*
G37*
G36*
X2399D02*
X2386D01*
X2374Y3594*
X2362Y3588*
X2353Y3579*
X2347Y3567*
X2345Y3563*
X2340*
X2339Y3567*
X2332Y3579*
X2323Y3588*
X2312Y3594*
X2299Y3598*
X2286*
X2274Y3594*
X2262Y3588*
X2253Y3579*
X2247Y3567*
X2245Y3563*
X2240*
X2239Y3567*
X2232Y3579*
X2223Y3588*
X2212Y3594*
X2199Y3598*
X2186*
X2174Y3594*
X2162Y3588*
X2153Y3579*
X2147Y3567*
X2145Y3563*
X2140*
X2139Y3567*
X2132Y3579*
X2123Y3588*
X2112Y3594*
X2099Y3598*
X2086*
X2074Y3594*
X2062Y3588*
X2053Y3579*
X2047Y3567*
X2043Y3555*
Y3542*
X2047Y3529*
X2053Y3518*
X2062Y3509*
X2074Y3502*
X2086Y3499*
X2099*
X2112Y3502*
X2123Y3509*
X2132Y3518*
X2139Y3529*
X2140Y3534*
X2145*
X2147Y3529*
X2153Y3518*
X2162Y3509*
X2174Y3502*
X2186Y3499*
X2199*
X2212Y3502*
X2223Y3509*
X2232Y3518*
X2239Y3529*
X2240Y3534*
X2245*
X2247Y3529*
X2253Y3518*
X2262Y3509*
X2274Y3502*
X2286Y3499*
X2299*
X2312Y3502*
X2323Y3509*
X2332Y3518*
X2339Y3529*
X2340Y3534*
X2345*
X2347Y3529*
X2353Y3518*
X2362Y3509*
X2374Y3502*
X2386Y3499*
X2399*
X2412Y3502*
X2423Y3509*
X2432Y3518*
X2439Y3529*
X2442Y3542*
Y3555*
X2439Y3567*
X2432Y3579*
X2423Y3588*
X2412Y3594*
X2399Y3598*
G37*
G36*
X5193Y3618D02*
X5186D01*
X5178Y3616*
X5172Y3613*
X5166Y3607*
X5163Y3601*
X5161Y3593*
Y3586*
X5163Y3578*
X5166Y3572*
X5172Y3566*
X5178Y3563*
X5186Y3561*
X5193*
X5201Y3563*
X5207Y3566*
X5213Y3572*
X5216Y3578*
X5218Y3586*
Y3593*
X5216Y3601*
X5213Y3607*
X5207Y3613*
X5201Y3616*
X5193Y3618*
G37*
G36*
X4145Y3595D02*
X4145D01*
Y3560*
X4180*
Y3560*
X4177Y3570*
X4172Y3579*
X4164Y3587*
X4155Y3592*
X4145Y3595*
G37*
G36*
X4135D02*
X4134D01*
X4124Y3592*
X4115Y3587*
X4107Y3579*
X4102Y3570*
X4100Y3560*
Y3560*
X4135*
Y3595*
G37*
G36*
X4874Y3667D02*
X4862D01*
X4849Y3664*
X4838Y3658*
X4830Y3649*
X4823Y3638*
X4820Y3626*
Y3613*
X4823Y3601*
X4830Y3590*
X4836Y3584*
X4838Y3580*
X4836Y3577*
X4830Y3570*
X4823Y3559*
X4822Y3556*
X4817Y3557*
Y3589*
X4799*
X4797Y3594*
X4800Y3596*
X4805Y3605*
X4807Y3615*
X4732*
X4734Y3605*
X4739Y3596*
X4742Y3594*
X4740Y3589*
X4722*
Y3493*
X4817*
Y3525*
X4822Y3525*
X4823Y3522*
X4830Y3511*
X4838Y3502*
X4849Y3496*
X4862Y3493*
X4874*
X4886Y3496*
X4897Y3502*
X4906Y3511*
X4913Y3522*
X4916Y3534*
Y3547*
X4913Y3559*
X4906Y3570*
X4900Y3577*
X4898Y3580*
X4900Y3584*
X4906Y3590*
X4913Y3601*
X4916Y3613*
Y3626*
X4913Y3638*
X4906Y3649*
X4897Y3658*
X4886Y3664*
X4874Y3667*
G37*
G36*
X1780Y3590D02*
X1780D01*
Y3555*
X1815*
Y3555*
X1812Y3565*
X1807Y3574*
X1799Y3582*
X1790Y3587*
X1780Y3590*
G37*
G36*
X1770D02*
X1769D01*
X1759Y3587*
X1750Y3582*
X1742Y3574*
X1737Y3565*
X1735Y3555*
Y3555*
X1770*
Y3590*
G37*
G36*
X4180Y3550D02*
X4145D01*
Y3515*
X4145*
X4155Y3517*
X4164Y3522*
X4172Y3530*
X4177Y3539*
X4180Y3549*
Y3550*
G37*
G36*
X4135D02*
X4100D01*
Y3549*
X4102Y3539*
X4107Y3530*
X4115Y3522*
X4124Y3517*
X4134Y3515*
X4135*
Y3550*
G37*
G36*
X5681Y3532D02*
Y3510D01*
X5703*
X5702Y3516*
X5698Y3522*
X5693Y3527*
X5687Y3531*
X5681Y3532*
G37*
G36*
X5671D02*
X5665Y3531D01*
X5659Y3527*
X5654Y3522*
X5650Y3516*
X5649Y3510*
X5671*
Y3532*
G37*
G36*
X1815Y3545D02*
X1780D01*
Y3510*
X1780*
X1790Y3512*
X1799Y3517*
X1807Y3525*
X1812Y3534*
X1815Y3544*
Y3545*
G37*
G36*
X1770D02*
X1735D01*
Y3544*
X1737Y3534*
X1742Y3525*
X1750Y3517*
X1759Y3512*
X1769Y3510*
X1770*
Y3545*
G37*
G36*
X4335Y3525D02*
X4335D01*
Y3490*
X4370*
Y3490*
X4367Y3500*
X4362Y3509*
X4354Y3517*
X4345Y3522*
X4335Y3525*
G37*
G36*
X4325D02*
X4324D01*
X4314Y3522*
X4305Y3517*
X4297Y3509*
X4292Y3500*
X4290Y3490*
Y3490*
X4325*
Y3525*
G37*
G36*
X5703Y3500D02*
X5681D01*
Y3478*
X5687Y3479*
X5693Y3483*
X5698Y3488*
X5702Y3494*
X5703Y3500*
G37*
G36*
X5671D02*
X5649D01*
X5650Y3494*
X5654Y3488*
X5659Y3483*
X5665Y3479*
X5671Y3478*
Y3500*
G37*
G36*
X1115Y3500D02*
X1115D01*
Y3465*
X1150*
Y3465*
X1147Y3475*
X1142Y3484*
X1134Y3492*
X1125Y3497*
X1115Y3500*
G37*
G36*
X1105D02*
X1104D01*
X1094Y3497*
X1085Y3492*
X1077Y3484*
X1072Y3475*
X1070Y3465*
Y3465*
X1105*
Y3500*
G37*
G36*
X3856Y3499D02*
X3843D01*
X3830Y3496*
X3819Y3489*
X3810Y3480*
X3803Y3469*
X3802Y3464*
X3797*
X3796Y3469*
X3789Y3480*
X3780Y3489*
X3769Y3496*
X3756Y3499*
X3743*
X3730Y3496*
X3719Y3489*
X3710Y3480*
X3703Y3469*
X3700Y3456*
Y3443*
X3703Y3430*
X3710Y3419*
X3719Y3410*
X3730Y3403*
X3743Y3400*
X3756*
X3769Y3403*
X3780Y3410*
X3789Y3419*
X3796Y3430*
X3797Y3435*
X3802*
X3803Y3430*
X3810Y3419*
X3819Y3410*
X3830Y3403*
X3843Y3400*
X3856*
X3869Y3403*
X3880Y3410*
X3889Y3419*
X3896Y3430*
X3899Y3443*
Y3456*
X3896Y3469*
X3889Y3480*
X3880Y3489*
X3869Y3496*
X3856Y3499*
G37*
G36*
X3104Y3498D02*
X3091D01*
X3079Y3494*
X3067Y3488*
X3058Y3479*
X3052Y3467*
X3050Y3463*
X3045*
X3044Y3467*
X3037Y3479*
X3028Y3488*
X3017Y3494*
X3004Y3498*
X2991*
X2979Y3494*
X2967Y3488*
X2958Y3479*
X2952Y3467*
X2948Y3455*
Y3442*
X2952Y3429*
X2958Y3418*
X2967Y3409*
X2979Y3402*
X2991Y3399*
X3004*
X3017Y3402*
X3028Y3409*
X3037Y3418*
X3044Y3429*
X3045Y3434*
X3050*
X3052Y3429*
X3058Y3418*
X3067Y3409*
X3079Y3402*
X3091Y3399*
X3104*
X3117Y3402*
X3128Y3409*
X3137Y3418*
X3144Y3429*
X3147Y3442*
Y3455*
X3144Y3467*
X3137Y3479*
X3128Y3488*
X3117Y3494*
X3104Y3498*
G37*
G36*
X2349D02*
X2336D01*
X2324Y3494*
X2312Y3488*
X2303Y3479*
X2297Y3467*
X2295Y3463*
X2290*
X2289Y3467*
X2282Y3479*
X2273Y3488*
X2262Y3494*
X2249Y3498*
X2236*
X2224Y3494*
X2212Y3488*
X2203Y3479*
X2197Y3467*
X2193Y3455*
Y3442*
X2197Y3429*
X2203Y3418*
X2212Y3409*
X2224Y3402*
X2236Y3399*
X2249*
X2262Y3402*
X2273Y3409*
X2282Y3418*
X2289Y3429*
X2290Y3434*
X2295*
X2297Y3429*
X2303Y3418*
X2312Y3409*
X2324Y3402*
X2336Y3399*
X2349*
X2362Y3402*
X2373Y3409*
X2382Y3418*
X2389Y3429*
X2392Y3442*
Y3455*
X2389Y3467*
X2382Y3479*
X2373Y3488*
X2362Y3494*
X2349Y3498*
G37*
G36*
X3655Y3489D02*
X3655D01*
Y3455*
X3689*
Y3455*
X3686Y3465*
X3681Y3474*
X3674Y3481*
X3665Y3486*
X3655Y3489*
G37*
G36*
X3645D02*
X3644D01*
X3634Y3486*
X3625Y3481*
X3618Y3474*
X3613Y3465*
X3610Y3455*
Y3455*
X3645*
Y3489*
G37*
G36*
X2148Y3488D02*
X2148D01*
Y3453*
X2182*
Y3454*
X2180Y3464*
X2174Y3473*
X2167Y3480*
X2158Y3485*
X2148Y3488*
G37*
G36*
X2903D02*
X2903D01*
Y3453*
X2937*
Y3454*
X2935Y3464*
X2929Y3473*
X2922Y3480*
X2913Y3485*
X2903Y3488*
G37*
G36*
X2893D02*
X2893D01*
X2883Y3485*
X2874Y3480*
X2866Y3473*
X2861Y3464*
X2858Y3454*
Y3453*
X2893*
Y3488*
G37*
G36*
X2138D02*
X2137D01*
X2127Y3485*
X2118Y3480*
X2111Y3473*
X2106Y3464*
X2103Y3454*
Y3453*
X2138*
Y3488*
G37*
G36*
X526Y3579D02*
X513D01*
X501Y3577*
X489Y3572*
X479Y3565*
X470Y3556*
X463Y3545*
X458Y3534*
X455Y3521*
Y3508*
X458Y3496*
X463Y3484*
X470Y3474*
X479Y3465*
X489Y3458*
X501Y3453*
X513Y3450*
X526*
X538Y3453*
X550Y3458*
X560Y3465*
X569Y3474*
X576Y3484*
X581Y3496*
X584Y3508*
Y3521*
X581Y3534*
X576Y3545*
X569Y3556*
X560Y3565*
X550Y3572*
X538Y3577*
X526Y3579*
G37*
G36*
X4370Y3480D02*
X4335D01*
Y3445*
X4335*
X4345Y3447*
X4354Y3452*
X4362Y3460*
X4367Y3469*
X4370Y3479*
Y3480*
G37*
G36*
X4325D02*
X4290D01*
Y3479*
X4292Y3469*
X4297Y3460*
X4305Y3452*
X4314Y3447*
X4324Y3445*
X4325*
Y3480*
G37*
G36*
X1511Y3560D02*
X1498D01*
X1485Y3556*
X1474Y3550*
X1464Y3540*
X1458Y3529*
X1455Y3516*
Y3503*
X1458Y3490*
X1464Y3479*
X1471Y3472*
X1464Y3465*
X1458Y3454*
X1455Y3443*
X1450Y3440*
X1449Y3441*
X1436Y3445*
X1423*
X1410Y3441*
X1399Y3435*
X1389Y3425*
X1383Y3414*
X1380Y3401*
Y3388*
X1383Y3375*
X1389Y3364*
X1399Y3354*
X1410Y3348*
X1423Y3345*
X1436*
X1449Y3348*
X1460Y3354*
X1470Y3364*
X1476Y3375*
X1479Y3386*
X1484Y3389*
X1485Y3388*
X1498Y3385*
X1511*
X1524Y3388*
X1535Y3394*
X1545Y3404*
X1551Y3415*
X1555Y3428*
Y3441*
X1551Y3454*
X1545Y3465*
X1538Y3472*
X1545Y3479*
X1551Y3490*
X1555Y3503*
Y3516*
X1551Y3529*
X1545Y3540*
X1535Y3550*
X1524Y3556*
X1511Y3560*
G37*
G36*
X1150Y3455D02*
X1115D01*
Y3420*
X1115*
X1125Y3422*
X1134Y3427*
X1142Y3435*
X1147Y3444*
X1150Y3454*
Y3455*
G37*
G36*
X1105D02*
X1070D01*
Y3454*
X1072Y3444*
X1077Y3435*
X1085Y3427*
X1094Y3422*
X1104Y3420*
X1105*
Y3455*
G37*
G36*
X4827Y3486D02*
X4818D01*
X4810Y3484*
X4803Y3480*
X4797Y3474*
X4793Y3467*
X4791Y3459*
Y3450*
X4793Y3442*
X4797Y3435*
X4803Y3429*
X4810Y3425*
X4818Y3423*
X4827*
X4835Y3425*
X4842Y3429*
X4848Y3435*
X4850Y3439*
X4856Y3439*
X4856Y3438*
X4860Y3431*
X4866Y3425*
X4873Y3421*
X4881Y3419*
X4890*
X4898Y3421*
X4905Y3425*
X4911Y3431*
X4915Y3438*
X4917Y3446*
Y3455*
X4915Y3463*
X4911Y3470*
X4905Y3476*
X4898Y3480*
X4890Y3482*
X4881*
X4873Y3480*
X4866Y3476*
X4860Y3470*
X4858Y3466*
X4852Y3466*
X4852Y3467*
X4848Y3474*
X4842Y3480*
X4835Y3484*
X4827Y3486*
G37*
G36*
X3689Y3445D02*
X3655D01*
Y3410*
X3655*
X3665Y3413*
X3674Y3418*
X3681Y3425*
X3686Y3434*
X3689Y3444*
Y3445*
G37*
G36*
X3645D02*
X3610D01*
Y3444*
X3613Y3434*
X3618Y3425*
X3625Y3418*
X3634Y3413*
X3644Y3410*
X3645*
Y3445*
G37*
G36*
X2937Y3443D02*
X2903D01*
Y3409*
X2903*
X2913Y3411*
X2922Y3417*
X2929Y3424*
X2935Y3433*
X2937Y3443*
Y3443*
G37*
G36*
X2893D02*
X2858D01*
Y3443*
X2861Y3433*
X2866Y3424*
X2874Y3417*
X2883Y3411*
X2893Y3409*
X2893*
Y3443*
G37*
G36*
X2182D02*
X2148D01*
Y3409*
X2148*
X2158Y3411*
X2167Y3417*
X2174Y3424*
X2180Y3433*
X2182Y3443*
Y3443*
G37*
G36*
X2138D02*
X2103D01*
Y3443*
X2106Y3433*
X2111Y3424*
X2118Y3417*
X2127Y3411*
X2137Y3409*
X2138*
Y3443*
G37*
G36*
X5505Y3430D02*
Y3408D01*
X5527*
X5525Y3413*
X5522Y3420*
X5517Y3425*
X5510Y3428*
X5505Y3430*
G37*
G36*
X5495D02*
X5489Y3428D01*
X5482Y3425*
X5477Y3420*
X5474Y3413*
X5472Y3408*
X5495*
Y3430*
G37*
G36*
X5354Y3477D02*
X5345D01*
X5335Y3475*
X5326Y3470*
X5319Y3463*
X5314Y3454*
X5312Y3444*
Y3435*
X5314Y3425*
X5319Y3416*
X5326Y3409*
X5335Y3404*
X5345Y3402*
X5354*
X5364Y3404*
X5373Y3409*
X5380Y3416*
X5385Y3425*
X5387Y3435*
Y3444*
X5385Y3454*
X5380Y3463*
X5373Y3470*
X5364Y3475*
X5354Y3477*
G37*
G36*
X3556Y3499D02*
X3543D01*
X3530Y3496*
X3519Y3489*
X3510Y3480*
X3503Y3469*
X3500Y3456*
Y3443*
X3503Y3430*
X3510Y3419*
X3519Y3410*
X3530Y3403*
X3543Y3400*
X3556*
X3569Y3403*
X3580Y3410*
X3589Y3419*
X3596Y3430*
X3599Y3443*
Y3456*
X3596Y3469*
X3589Y3480*
X3580Y3489*
X3569Y3496*
X3556Y3499*
G37*
G36*
X4683Y3474D02*
X4674D01*
X4664Y3472*
X4655Y3467*
X4648Y3460*
X4643Y3451*
X4641Y3441*
Y3432*
X4643Y3422*
X4648Y3413*
X4655Y3406*
X4664Y3401*
X4674Y3399*
X4683*
X4693Y3401*
X4702Y3406*
X4709Y3413*
X4714Y3422*
X4716Y3432*
Y3441*
X4714Y3451*
X4709Y3460*
X4702Y3467*
X4693Y3472*
X4683Y3474*
G37*
G36*
X2804Y3498D02*
X2791D01*
X2779Y3494*
X2767Y3488*
X2758Y3479*
X2752Y3467*
X2748Y3455*
Y3442*
X2752Y3429*
X2758Y3418*
X2767Y3409*
X2779Y3402*
X2791Y3399*
X2804*
X2817Y3402*
X2828Y3409*
X2837Y3418*
X2844Y3429*
X2847Y3442*
Y3455*
X2844Y3467*
X2837Y3479*
X2828Y3488*
X2817Y3494*
X2804Y3498*
G37*
G36*
X2049D02*
X2036D01*
X2024Y3494*
X2012Y3488*
X2003Y3479*
X1997Y3467*
X1993Y3455*
Y3442*
X1997Y3429*
X2003Y3418*
X2012Y3409*
X2024Y3402*
X2036Y3399*
X2049*
X2062Y3402*
X2073Y3409*
X2082Y3418*
X2089Y3429*
X2092Y3442*
Y3455*
X2089Y3467*
X2082Y3479*
X2073Y3488*
X2062Y3494*
X2049Y3498*
G37*
G36*
X6030Y3425D02*
X6030D01*
Y3390*
X6065*
Y3390*
X6062Y3400*
X6057Y3409*
X6049Y3417*
X6040Y3422*
X6030Y3425*
G37*
G36*
X6020D02*
X6019D01*
X6009Y3422*
X6000Y3417*
X5992Y3409*
X5987Y3400*
X5985Y3390*
Y3390*
X6020*
Y3425*
G37*
G36*
X4863Y3396D02*
Y3383D01*
X4876*
X4873Y3388*
X4868Y3393*
X4863Y3396*
G37*
G36*
X4853D02*
X4847Y3393D01*
X4842Y3388*
X4839Y3383*
X4853*
Y3396*
G37*
G36*
X5527Y3398D02*
X5505D01*
Y3375*
X5510Y3377*
X5517Y3380*
X5522Y3385*
X5525Y3392*
X5527Y3398*
G37*
G36*
X5495D02*
X5472D01*
X5474Y3392*
X5477Y3385*
X5482Y3380*
X5489Y3377*
X5495Y3375*
Y3398*
G37*
G36*
X4876Y3373D02*
X4863D01*
Y3359*
X4868Y3362*
X4873Y3367*
X4876Y3373*
G37*
G36*
X4853D02*
X4839D01*
X4842Y3367*
X4847Y3362*
X4853Y3359*
Y3373*
G37*
G36*
X4145Y3390D02*
X4145D01*
Y3355*
X4180*
Y3355*
X4177Y3365*
X4172Y3374*
X4164Y3382*
X4155Y3387*
X4145Y3390*
G37*
G36*
X4135D02*
X4134D01*
X4124Y3387*
X4115Y3382*
X4107Y3374*
X4102Y3365*
X4100Y3355*
Y3355*
X4135*
Y3390*
G37*
G36*
X6065Y3380D02*
X6030D01*
Y3345*
X6030*
X6040Y3347*
X6049Y3352*
X6057Y3360*
X6062Y3369*
X6065Y3379*
Y3380*
G37*
G36*
X6020D02*
X5985D01*
Y3379*
X5987Y3369*
X5992Y3360*
X6000Y3352*
X6009Y3347*
X6019Y3345*
X6020*
Y3380*
G37*
G36*
X1255Y3360D02*
X1255D01*
Y3325*
X1290*
Y3325*
X1287Y3335*
X1282Y3344*
X1274Y3352*
X1265Y3357*
X1255Y3360*
G37*
G36*
X1245D02*
X1244D01*
X1234Y3357*
X1225Y3352*
X1217Y3344*
X1212Y3335*
X1210Y3325*
Y3325*
X1245*
Y3360*
G37*
G36*
X1735Y3350D02*
X1735D01*
Y3315*
X1770*
Y3315*
X1767Y3325*
X1762Y3334*
X1754Y3342*
X1745Y3347*
X1735Y3350*
G37*
G36*
X1725D02*
X1724D01*
X1714Y3347*
X1705Y3342*
X1697Y3334*
X1692Y3325*
X1690Y3315*
Y3315*
X1725*
Y3350*
G37*
G36*
X4180Y3345D02*
X4145D01*
Y3310*
X4145*
X4155Y3312*
X4164Y3317*
X4172Y3325*
X4177Y3334*
X4180Y3344*
Y3345*
G37*
G36*
X4135D02*
X4100D01*
Y3344*
X4102Y3334*
X4107Y3325*
X4115Y3317*
X4124Y3312*
X4134Y3310*
X4135*
Y3345*
G37*
G36*
X4501Y3405D02*
X4488D01*
X4475Y3401*
X4464Y3395*
X4454Y3385*
X4448Y3374*
X4445Y3361*
Y3348*
X4448Y3335*
X4454Y3324*
X4464Y3314*
X4475Y3308*
X4488Y3305*
X4501*
X4514Y3308*
X4525Y3314*
X4535Y3324*
X4541Y3335*
X4545Y3348*
Y3361*
X4541Y3374*
X4535Y3385*
X4525Y3395*
X4514Y3401*
X4501Y3405*
G37*
G36*
X505Y3320D02*
X505D01*
Y3285*
X540*
Y3285*
X537Y3295*
X532Y3304*
X524Y3312*
X515Y3317*
X505Y3320*
G37*
G36*
X495D02*
X494D01*
X484Y3317*
X475Y3312*
X467Y3304*
X462Y3295*
X460Y3285*
Y3285*
X495*
Y3320*
G37*
G36*
X1290Y3315D02*
X1255D01*
Y3280*
X1255*
X1265Y3282*
X1274Y3287*
X1282Y3295*
X1287Y3304*
X1290Y3314*
Y3315*
G37*
G36*
X1245D02*
X1210D01*
Y3314*
X1212Y3304*
X1217Y3295*
X1225Y3287*
X1234Y3282*
X1244Y3280*
X1245*
Y3315*
G37*
G36*
X2451Y3375D02*
X2438D01*
X2425Y3371*
X2414Y3365*
X2404Y3355*
X2398Y3344*
X2395Y3331*
Y3318*
X2398Y3305*
X2404Y3294*
X2414Y3284*
X2425Y3278*
X2438Y3275*
X2451*
X2464Y3278*
X2475Y3284*
X2485Y3294*
X2491Y3305*
X2495Y3318*
Y3331*
X2491Y3344*
X2485Y3355*
X2475Y3365*
X2464Y3371*
X2451Y3375*
G37*
G36*
X1770Y3305D02*
X1735D01*
Y3270*
X1735*
X1745Y3272*
X1754Y3277*
X1762Y3285*
X1767Y3294*
X1770Y3304*
Y3305*
G37*
G36*
X1725D02*
X1690D01*
Y3304*
X1692Y3294*
X1697Y3285*
X1705Y3277*
X1714Y3272*
X1724Y3270*
X1725*
Y3305*
G37*
G36*
X3971Y3365D02*
X3958D01*
X3945Y3361*
X3934Y3355*
X3924Y3345*
X3918Y3334*
X3915Y3321*
Y3308*
X3918Y3295*
X3924Y3284*
X3934Y3274*
X3945Y3268*
X3958Y3265*
X3971*
X3984Y3268*
X3995Y3274*
X4005Y3284*
X4011Y3295*
X4015Y3308*
Y3321*
X4011Y3334*
X4005Y3345*
X3995Y3355*
X3984Y3361*
X3971Y3365*
G37*
G36*
X3226Y3360D02*
X3213D01*
X3200Y3356*
X3189Y3350*
X3179Y3340*
X3173Y3329*
X3170Y3316*
Y3303*
X3173Y3290*
X3179Y3279*
X3189Y3269*
X3200Y3263*
X3213Y3260*
X3226*
X3239Y3263*
X3250Y3269*
X3260Y3279*
X3266Y3290*
X3270Y3303*
Y3316*
X3266Y3329*
X3260Y3340*
X3250Y3350*
X3239Y3356*
X3226Y3360*
G37*
G36*
X4804Y3317D02*
X4795D01*
X4785Y3315*
X4776Y3310*
X4769Y3303*
X4764Y3294*
X4762Y3284*
Y3275*
X4764Y3265*
X4769Y3256*
X4776Y3249*
X4785Y3244*
X4795Y3242*
X4804*
X4814Y3244*
X4823Y3249*
X4830Y3256*
X4835Y3265*
X4837Y3275*
Y3284*
X4835Y3294*
X4830Y3303*
X4823Y3310*
X4814Y3315*
X4804Y3317*
G37*
G36*
X540Y3275D02*
X505D01*
Y3240*
X505*
X515Y3242*
X524Y3247*
X532Y3255*
X537Y3264*
X540Y3274*
Y3275*
G37*
G36*
X495D02*
X460D01*
Y3274*
X462Y3264*
X467Y3255*
X475Y3247*
X484Y3242*
X494Y3240*
X495*
Y3275*
G37*
G36*
X4421Y3330D02*
X4408D01*
X4395Y3326*
X4384Y3320*
X4374Y3310*
X4368Y3299*
X4365Y3286*
Y3273*
X4368Y3260*
X4374Y3249*
X4384Y3239*
X4395Y3233*
X4408Y3230*
X4421*
X4434Y3233*
X4445Y3239*
X4455Y3249*
X4461Y3260*
X4465Y3273*
Y3286*
X4461Y3299*
X4455Y3310*
X4445Y3320*
X4434Y3326*
X4421Y3330*
G37*
G36*
X3405Y3260D02*
X3405D01*
Y3225*
X3440*
Y3225*
X3437Y3235*
X3432Y3244*
X3424Y3252*
X3415Y3257*
X3405Y3260*
G37*
G36*
X3395D02*
X3394D01*
X3384Y3257*
X3375Y3252*
X3367Y3244*
X3362Y3235*
X3360Y3225*
Y3225*
X3395*
Y3260*
G37*
G36*
X1895D02*
X1895D01*
Y3225*
X1930*
Y3225*
X1927Y3235*
X1922Y3244*
X1914Y3252*
X1905Y3257*
X1895Y3260*
G37*
G36*
X1885D02*
X1884D01*
X1874Y3257*
X1865Y3252*
X1857Y3244*
X1852Y3235*
X1850Y3225*
Y3225*
X1885*
Y3260*
G37*
G36*
X2650Y3250D02*
X2650D01*
Y3215*
X2685*
Y3215*
X2682Y3225*
X2677Y3234*
X2669Y3242*
X2660Y3247*
X2650Y3250*
G37*
G36*
X2640D02*
X2639D01*
X2629Y3247*
X2620Y3242*
X2612Y3234*
X2607Y3225*
X2605Y3215*
Y3215*
X2640*
Y3250*
G37*
G36*
X5654Y3289D02*
X5645D01*
X5635Y3287*
X5626Y3282*
X5619Y3275*
X5614Y3266*
X5612Y3256*
Y3247*
X5614Y3237*
X5619Y3228*
X5626Y3221*
X5635Y3216*
X5645Y3214*
X5654*
X5664Y3216*
X5673Y3221*
X5680Y3228*
X5685Y3237*
X5687Y3247*
Y3256*
X5685Y3266*
X5680Y3275*
X5673Y3282*
X5664Y3287*
X5654Y3289*
G37*
G36*
X785Y3240D02*
X785D01*
Y3205*
X820*
Y3205*
X817Y3215*
X812Y3224*
X804Y3232*
X795Y3237*
X785Y3240*
G37*
G36*
X775D02*
X774D01*
X764Y3237*
X755Y3232*
X747Y3224*
X742Y3215*
X740Y3205*
Y3205*
X775*
Y3240*
G37*
G36*
X4881Y3260D02*
X4874D01*
X4866Y3258*
X4860Y3255*
X4854Y3249*
X4851Y3243*
X4849Y3235*
Y3228*
X4851Y3220*
X4854Y3214*
X4860Y3208*
X4866Y3205*
X4874Y3203*
X4881*
X4889Y3205*
X4895Y3208*
X4901Y3214*
X4904Y3220*
X4906Y3228*
Y3235*
X4904Y3243*
X4901Y3249*
X4895Y3255*
X4889Y3258*
X4881Y3260*
G37*
G36*
X3440Y3215D02*
X3405D01*
Y3180*
X3405*
X3415Y3182*
X3424Y3187*
X3432Y3195*
X3437Y3204*
X3440Y3214*
Y3215*
G37*
G36*
X3395D02*
X3360D01*
Y3214*
X3362Y3204*
X3367Y3195*
X3375Y3187*
X3384Y3182*
X3394Y3180*
X3395*
Y3215*
G37*
G36*
X1930D02*
X1895D01*
Y3180*
X1895*
X1905Y3182*
X1914Y3187*
X1922Y3195*
X1927Y3204*
X1930Y3214*
Y3215*
G37*
G36*
X1885D02*
X1850D01*
Y3214*
X1852Y3204*
X1857Y3195*
X1865Y3187*
X1874Y3182*
X1884Y3180*
X1885*
Y3215*
G37*
G36*
X6045Y3210D02*
X6045D01*
Y3175*
X6080*
Y3175*
X6077Y3185*
X6072Y3194*
X6064Y3202*
X6055Y3207*
X6045Y3210*
G37*
G36*
X6035D02*
X6034D01*
X6024Y3207*
X6015Y3202*
X6007Y3194*
X6002Y3185*
X6000Y3175*
Y3175*
X6035*
Y3210*
G37*
G36*
X1040D02*
X1040D01*
Y3175*
X1075*
Y3175*
X1072Y3185*
X1067Y3194*
X1059Y3202*
X1050Y3207*
X1040Y3210*
G37*
G36*
X1030D02*
X1029D01*
X1019Y3207*
X1010Y3202*
X1002Y3194*
X997Y3185*
X995Y3175*
Y3175*
X1030*
Y3210*
G37*
G36*
X2685Y3205D02*
X2650D01*
Y3170*
X2650*
X2660Y3172*
X2669Y3177*
X2677Y3185*
X2682Y3194*
X2685Y3204*
Y3205*
G37*
G36*
X2640D02*
X2605D01*
Y3204*
X2607Y3194*
X2612Y3185*
X2620Y3177*
X2629Y3172*
X2639Y3170*
X2640*
Y3205*
G37*
G36*
X4346Y3250D02*
X4333D01*
X4320Y3246*
X4309Y3240*
X4299Y3230*
X4293Y3219*
X4290Y3206*
Y3193*
X4293Y3180*
X4298Y3172*
X4294Y3168*
X4289Y3171*
X4276Y3175*
X4263*
X4250Y3171*
X4239Y3165*
X4229Y3155*
X4223Y3144*
X4220Y3131*
Y3118*
X4223Y3105*
X4226Y3100*
X4222Y3096*
X4214Y3101*
X4201Y3105*
X4188*
X4175Y3101*
X4164Y3095*
X4154Y3085*
X4148Y3074*
X4145Y3061*
Y3048*
X4148Y3035*
X4154Y3024*
X4164Y3014*
X4175Y3008*
X4188Y3005*
X4201*
X4214Y3008*
X4225Y3014*
X4235Y3024*
X4241Y3035*
X4245Y3048*
Y3061*
X4241Y3074*
X4238Y3079*
X4242Y3083*
X4250Y3078*
X4263Y3075*
X4276*
X4289Y3078*
X4300Y3084*
X4310Y3094*
X4316Y3105*
X4320Y3118*
Y3131*
X4316Y3144*
X4311Y3152*
X4315Y3156*
X4320Y3153*
X4333Y3150*
X4346*
X4359Y3153*
X4370Y3159*
X4380Y3169*
X4386Y3180*
X4390Y3193*
Y3206*
X4386Y3219*
X4380Y3230*
X4370Y3240*
X4359Y3246*
X4346Y3250*
G37*
G36*
X820Y3195D02*
X785D01*
Y3160*
X785*
X795Y3162*
X804Y3167*
X812Y3175*
X817Y3184*
X820Y3194*
Y3195*
G37*
G36*
X775D02*
X740D01*
Y3194*
X742Y3184*
X747Y3175*
X755Y3167*
X764Y3162*
X774Y3160*
X775*
Y3195*
G37*
G36*
X4611Y3245D02*
X4598D01*
X4585Y3241*
X4574Y3235*
X4564Y3225*
X4558Y3214*
X4555Y3201*
Y3188*
X4558Y3175*
X4564Y3164*
X4574Y3154*
X4585Y3148*
X4598Y3145*
X4611*
X4624Y3148*
X4635Y3154*
X4645Y3164*
X4651Y3175*
X4655Y3188*
Y3201*
X4651Y3214*
X4645Y3225*
X4635Y3235*
X4624Y3241*
X4611Y3245*
G37*
G36*
X5786Y3160D02*
X5773D01*
X5760Y3157*
X5748Y3150*
X5739Y3141*
X5735Y3133*
X5730Y3135*
Y3160*
X5629*
Y3059*
X5654*
X5656Y3054*
X5648Y3050*
X5639Y3041*
X5632Y3029*
X5629Y3016*
Y3003*
X5632Y2990*
X5639Y2978*
X5648Y2969*
X5660Y2962*
X5662Y2962*
Y2957*
X5660Y2957*
X5648Y2950*
X5639Y2941*
X5632Y2929*
X5629Y2916*
Y2903*
X5632Y2890*
X5639Y2878*
X5648Y2869*
X5660Y2862*
X5662Y2862*
Y2857*
X5660Y2857*
X5648Y2850*
X5639Y2841*
X5632Y2829*
X5629Y2816*
Y2803*
X5632Y2790*
X5639Y2778*
X5648Y2769*
X5660Y2762*
X5662Y2762*
Y2757*
X5660Y2757*
X5648Y2750*
X5639Y2741*
X5632Y2729*
X5629Y2716*
Y2703*
X5632Y2690*
X5639Y2678*
X5648Y2669*
X5660Y2662*
X5662Y2662*
Y2657*
X5660Y2657*
X5648Y2650*
X5639Y2641*
X5632Y2629*
X5629Y2616*
Y2603*
X5632Y2590*
X5639Y2578*
X5648Y2569*
X5660Y2562*
X5662Y2562*
Y2557*
X5660Y2557*
X5648Y2550*
X5639Y2541*
X5632Y2529*
X5629Y2516*
Y2503*
X5632Y2490*
X5639Y2478*
X5648Y2469*
X5660Y2462*
X5662Y2462*
Y2457*
X5660Y2457*
X5648Y2450*
X5639Y2441*
X5632Y2429*
X5629Y2416*
Y2403*
X5632Y2390*
X5639Y2378*
X5648Y2369*
X5660Y2362*
X5662Y2362*
Y2357*
X5660Y2357*
X5648Y2350*
X5639Y2341*
X5632Y2329*
X5629Y2316*
Y2303*
X5632Y2290*
X5639Y2278*
X5648Y2269*
X5660Y2262*
X5662Y2262*
Y2257*
X5660Y2257*
X5648Y2250*
X5639Y2241*
X5632Y2229*
X5629Y2216*
Y2203*
X5632Y2190*
X5639Y2178*
X5648Y2169*
X5660Y2162*
X5662Y2162*
Y2157*
X5660Y2157*
X5648Y2150*
X5639Y2141*
X5632Y2129*
X5629Y2116*
Y2103*
X5632Y2090*
X5639Y2078*
X5648Y2069*
X5660Y2062*
X5662Y2062*
Y2057*
X5660Y2057*
X5648Y2050*
X5639Y2041*
X5632Y2029*
X5629Y2016*
Y2003*
X5632Y1990*
X5639Y1978*
X5648Y1969*
X5660Y1962*
X5662Y1962*
Y1957*
X5660Y1957*
X5648Y1950*
X5639Y1941*
X5632Y1929*
X5629Y1916*
Y1903*
X5632Y1890*
X5639Y1878*
X5648Y1869*
X5660Y1862*
X5662Y1862*
Y1857*
X5660Y1857*
X5648Y1850*
X5639Y1841*
X5632Y1829*
X5629Y1816*
Y1803*
X5632Y1790*
X5639Y1778*
X5648Y1769*
X5660Y1762*
X5662Y1762*
Y1757*
X5660Y1757*
X5648Y1750*
X5639Y1741*
X5632Y1729*
X5629Y1716*
Y1703*
X5632Y1690*
X5639Y1678*
X5648Y1669*
X5660Y1662*
X5662Y1662*
Y1657*
X5660Y1657*
X5648Y1650*
X5639Y1641*
X5632Y1629*
X5629Y1616*
Y1603*
X5632Y1590*
X5639Y1578*
X5648Y1569*
X5660Y1562*
X5662Y1562*
Y1557*
X5660Y1557*
X5648Y1550*
X5639Y1541*
X5632Y1529*
X5629Y1516*
Y1503*
X5632Y1490*
X5639Y1478*
X5648Y1469*
X5660Y1462*
X5662Y1462*
Y1457*
X5660Y1457*
X5648Y1450*
X5639Y1441*
X5632Y1429*
X5629Y1416*
Y1403*
X5632Y1390*
X5639Y1378*
X5648Y1369*
X5660Y1362*
X5662Y1362*
Y1357*
X5660Y1357*
X5648Y1350*
X5639Y1341*
X5632Y1329*
X5629Y1316*
Y1303*
X5632Y1290*
X5639Y1278*
X5648Y1269*
X5660Y1262*
X5673Y1259*
X5686*
X5699Y1262*
X5711Y1269*
X5720Y1278*
X5727Y1290*
X5727Y1292*
X5732*
X5732Y1290*
X5739Y1278*
X5748Y1269*
X5760Y1262*
X5762Y1262*
Y1257*
X5760Y1257*
X5748Y1250*
X5739Y1241*
X5732Y1229*
X5729Y1216*
Y1203*
X5732Y1190*
X5739Y1178*
X5748Y1169*
X5760Y1162*
X5773Y1159*
X5786*
X5799Y1162*
X5811Y1169*
X5820Y1178*
X5827Y1190*
X5830Y1203*
Y1216*
X5827Y1229*
X5820Y1241*
X5811Y1250*
X5799Y1257*
X5797Y1257*
Y1262*
X5799Y1262*
X5811Y1269*
X5820Y1278*
X5827Y1290*
X5830Y1303*
Y1316*
X5827Y1329*
X5820Y1341*
X5811Y1350*
X5799Y1357*
X5797Y1357*
Y1362*
X5799Y1362*
X5811Y1369*
X5820Y1378*
X5827Y1390*
X5830Y1403*
Y1416*
X5827Y1429*
X5820Y1441*
X5811Y1450*
X5799Y1457*
X5797Y1457*
Y1462*
X5799Y1462*
X5811Y1469*
X5820Y1478*
X5827Y1490*
X5830Y1503*
Y1516*
X5827Y1529*
X5820Y1541*
X5811Y1550*
X5799Y1557*
X5797Y1557*
Y1562*
X5799Y1562*
X5811Y1569*
X5820Y1578*
X5827Y1590*
X5830Y1603*
Y1616*
X5827Y1629*
X5820Y1641*
X5811Y1650*
X5799Y1657*
X5797Y1657*
Y1662*
X5799Y1662*
X5811Y1669*
X5820Y1678*
X5827Y1690*
X5830Y1703*
Y1716*
X5827Y1729*
X5820Y1741*
X5811Y1750*
X5799Y1757*
X5797Y1757*
Y1762*
X5799Y1762*
X5811Y1769*
X5820Y1778*
X5827Y1790*
X5830Y1803*
Y1816*
X5827Y1829*
X5820Y1841*
X5811Y1850*
X5799Y1857*
X5797Y1857*
Y1862*
X5799Y1862*
X5811Y1869*
X5820Y1878*
X5827Y1890*
X5830Y1903*
Y1916*
X5827Y1929*
X5820Y1941*
X5811Y1950*
X5799Y1957*
X5797Y1957*
Y1962*
X5799Y1962*
X5811Y1969*
X5820Y1978*
X5827Y1990*
X5830Y2003*
Y2016*
X5827Y2029*
X5820Y2041*
X5811Y2050*
X5799Y2057*
X5797Y2057*
Y2062*
X5799Y2062*
X5811Y2069*
X5820Y2078*
X5827Y2090*
X5830Y2103*
Y2116*
X5827Y2129*
X5820Y2141*
X5811Y2150*
X5799Y2157*
X5797Y2157*
Y2162*
X5799Y2162*
X5811Y2169*
X5820Y2178*
X5827Y2190*
X5830Y2203*
Y2216*
X5827Y2229*
X5820Y2241*
X5811Y2250*
X5799Y2257*
X5797Y2257*
Y2262*
X5799Y2262*
X5811Y2269*
X5820Y2278*
X5827Y2290*
X5830Y2303*
Y2316*
X5827Y2329*
X5820Y2341*
X5811Y2350*
X5799Y2357*
X5797Y2357*
Y2362*
X5799Y2362*
X5811Y2369*
X5820Y2378*
X5827Y2390*
X5830Y2403*
Y2416*
X5827Y2429*
X5820Y2441*
X5811Y2450*
X5799Y2457*
X5797Y2457*
Y2462*
X5799Y2462*
X5811Y2469*
X5820Y2478*
X5827Y2490*
X5830Y2503*
Y2516*
X5827Y2529*
X5820Y2541*
X5811Y2550*
X5799Y2557*
X5797Y2557*
Y2562*
X5799Y2562*
X5811Y2569*
X5820Y2578*
X5827Y2590*
X5830Y2603*
Y2616*
X5827Y2629*
X5820Y2641*
X5811Y2650*
X5799Y2657*
X5797Y2657*
Y2662*
X5799Y2662*
X5811Y2669*
X5820Y2678*
X5827Y2690*
X5830Y2703*
Y2716*
X5827Y2729*
X5820Y2741*
X5811Y2750*
X5799Y2757*
X5797Y2757*
Y2762*
X5799Y2762*
X5811Y2769*
X5820Y2778*
X5827Y2790*
X5830Y2803*
Y2816*
X5827Y2829*
X5820Y2841*
X5811Y2850*
X5799Y2857*
X5797Y2857*
Y2862*
X5799Y2862*
X5811Y2869*
X5820Y2878*
X5827Y2890*
X5830Y2903*
Y2916*
X5827Y2929*
X5820Y2941*
X5811Y2950*
X5799Y2957*
X5797Y2957*
Y2962*
X5799Y2962*
X5811Y2969*
X5820Y2978*
X5827Y2990*
X5830Y3003*
Y3016*
X5827Y3029*
X5820Y3041*
X5811Y3050*
X5799Y3057*
X5797Y3057*
Y3062*
X5799Y3062*
X5811Y3069*
X5820Y3078*
X5827Y3090*
X5830Y3103*
Y3116*
X5827Y3129*
X5820Y3141*
X5811Y3150*
X5799Y3157*
X5786Y3160*
G37*
G36*
X6080Y3165D02*
X6045D01*
Y3130*
X6045*
X6055Y3132*
X6064Y3137*
X6072Y3145*
X6077Y3154*
X6080Y3164*
Y3165*
G37*
G36*
X6035D02*
X6000D01*
Y3164*
X6002Y3154*
X6007Y3145*
X6015Y3137*
X6024Y3132*
X6034Y3130*
X6035*
Y3165*
G37*
G36*
X1075D02*
X1040D01*
Y3130*
X1040*
X1050Y3132*
X1059Y3137*
X1067Y3145*
X1072Y3154*
X1075Y3164*
Y3165*
G37*
G36*
X1030D02*
X995D01*
Y3164*
X997Y3154*
X1002Y3145*
X1010Y3137*
X1019Y3132*
X1029Y3130*
X1030*
Y3165*
G37*
G36*
X505Y3155D02*
X505D01*
Y3120*
X540*
Y3120*
X537Y3130*
X532Y3139*
X524Y3147*
X515Y3152*
X505Y3155*
G37*
G36*
X495D02*
X494D01*
X484Y3152*
X475Y3147*
X467Y3139*
X462Y3130*
X460Y3120*
Y3120*
X495*
Y3155*
G37*
G36*
X4840Y3170D02*
X4833D01*
X4825Y3168*
X4819Y3165*
X4813Y3159*
X4809Y3153*
X4808Y3145*
Y3138*
X4809Y3130*
X4813Y3124*
X4819Y3118*
X4825Y3115*
X4833Y3113*
X4840*
X4848Y3115*
X4854Y3118*
X4859Y3124*
X4863Y3130*
X4865Y3138*
Y3145*
X4863Y3153*
X4859Y3159*
X4854Y3165*
X4848Y3168*
X4840Y3170*
G37*
G36*
X5533Y3128D02*
Y3106D01*
X5555*
X5553Y3111*
X5550Y3118*
X5545Y3123*
X5538Y3126*
X5533Y3128*
G37*
G36*
X5523D02*
X5517Y3126D01*
X5510Y3123*
X5505Y3118*
X5502Y3111*
X5500Y3106*
X5523*
Y3128*
G37*
G36*
X540Y3110D02*
X505D01*
Y3075*
X505*
X515Y3077*
X524Y3082*
X532Y3090*
X537Y3099*
X540Y3109*
Y3110*
G37*
G36*
X495D02*
X460D01*
Y3109*
X462Y3099*
X467Y3090*
X475Y3082*
X484Y3077*
X494Y3075*
X495*
Y3110*
G37*
G36*
X5555Y3096D02*
X5533D01*
Y3073*
X5538Y3075*
X5545Y3078*
X5550Y3083*
X5553Y3090*
X5555Y3096*
G37*
G36*
X5523D02*
X5500D01*
X5502Y3090*
X5505Y3083*
X5510Y3078*
X5517Y3075*
X5523Y3073*
Y3096*
G37*
G36*
X3850Y3105D02*
X3850D01*
Y3070*
X3885*
Y3070*
X3882Y3080*
X3877Y3089*
X3869Y3097*
X3860Y3102*
X3850Y3105*
G37*
G36*
X3840D02*
X3839D01*
X3829Y3102*
X3820Y3097*
X3812Y3089*
X3807Y3080*
X3805Y3070*
Y3070*
X3840*
Y3105*
G37*
G36*
X5000Y3100D02*
X5000D01*
Y3065*
X5035*
Y3065*
X5032Y3075*
X5027Y3084*
X5019Y3092*
X5010Y3097*
X5000Y3100*
G37*
G36*
X4990D02*
X4989D01*
X4979Y3097*
X4970Y3092*
X4962Y3084*
X4957Y3075*
X4955Y3065*
Y3065*
X4990*
Y3100*
G37*
G36*
X4526Y3165D02*
X4513D01*
X4500Y3161*
X4489Y3155*
X4479Y3145*
X4473Y3134*
X4470Y3121*
Y3108*
X4473Y3095*
X4479Y3084*
X4489Y3074*
X4500Y3068*
X4513Y3065*
X4526*
X4539Y3068*
X4550Y3074*
X4560Y3084*
X4566Y3095*
X4570Y3108*
Y3121*
X4566Y3134*
X4560Y3145*
X4550Y3155*
X4539Y3161*
X4526Y3165*
G37*
G36*
X3405Y3100D02*
X3405D01*
Y3065*
X3440*
Y3065*
X3437Y3075*
X3432Y3084*
X3424Y3092*
X3415Y3097*
X3405Y3100*
G37*
G36*
X3395D02*
X3394D01*
X3384Y3097*
X3375Y3092*
X3367Y3084*
X3362Y3075*
X3360Y3065*
Y3065*
X3395*
Y3100*
G37*
G36*
X2350D02*
X2350D01*
Y3065*
X2385*
Y3065*
X2382Y3075*
X2377Y3084*
X2369Y3092*
X2360Y3097*
X2350Y3100*
G37*
G36*
X2340D02*
X2339D01*
X2329Y3097*
X2320Y3092*
X2312Y3084*
X2307Y3075*
X2305Y3065*
Y3065*
X2340*
Y3100*
G37*
G36*
X1895D02*
X1895D01*
Y3065*
X1930*
Y3065*
X1927Y3075*
X1922Y3084*
X1914Y3092*
X1905Y3097*
X1895Y3100*
G37*
G36*
X1885D02*
X1884D01*
X1874Y3097*
X1865Y3092*
X1857Y3084*
X1852Y3075*
X1850Y3065*
Y3065*
X1885*
Y3100*
G37*
G36*
X2650Y3090D02*
X2650D01*
Y3055*
X2685*
Y3055*
X2682Y3065*
X2677Y3074*
X2669Y3082*
X2660Y3087*
X2650Y3090*
G37*
G36*
X2640D02*
X2639D01*
X2629Y3087*
X2620Y3082*
X2612Y3074*
X2607Y3065*
X2605Y3055*
Y3055*
X2640*
Y3090*
G37*
G36*
X3110Y3085D02*
X3110D01*
Y3050*
X3145*
Y3050*
X3142Y3060*
X3137Y3069*
X3129Y3077*
X3120Y3082*
X3110Y3085*
G37*
G36*
X3100D02*
X3099D01*
X3089Y3082*
X3080Y3077*
X3072Y3069*
X3067Y3060*
X3065Y3050*
Y3050*
X3100*
Y3085*
G37*
G36*
X1765Y3065D02*
X1765D01*
Y3030*
X1800*
Y3030*
X1797Y3040*
X1792Y3049*
X1784Y3057*
X1775Y3062*
X1765Y3065*
G37*
G36*
X1755D02*
X1754D01*
X1744Y3062*
X1735Y3057*
X1727Y3049*
X1722Y3040*
X1720Y3030*
Y3030*
X1755*
Y3065*
G37*
G36*
X3885Y3060D02*
X3850D01*
Y3025*
X3850*
X3860Y3027*
X3869Y3032*
X3877Y3040*
X3882Y3049*
X3885Y3059*
Y3060*
G37*
G36*
X3840D02*
X3805D01*
Y3059*
X3807Y3049*
X3812Y3040*
X3820Y3032*
X3829Y3027*
X3839Y3025*
X3840*
Y3060*
G37*
G36*
X5035Y3055D02*
X5000D01*
Y3020*
X5000*
X5010Y3022*
X5019Y3027*
X5027Y3035*
X5032Y3044*
X5035Y3054*
Y3055*
G37*
G36*
X4990D02*
X4955D01*
Y3054*
X4957Y3044*
X4962Y3035*
X4970Y3027*
X4979Y3022*
X4989Y3020*
X4990*
Y3055*
G37*
G36*
X3440D02*
X3405D01*
Y3020*
X3405*
X3415Y3022*
X3424Y3027*
X3432Y3035*
X3437Y3044*
X3440Y3054*
Y3055*
G37*
G36*
X3395D02*
X3360D01*
Y3054*
X3362Y3044*
X3367Y3035*
X3375Y3027*
X3384Y3022*
X3394Y3020*
X3395*
Y3055*
G37*
G36*
X2385D02*
X2350D01*
Y3020*
X2350*
X2360Y3022*
X2369Y3027*
X2377Y3035*
X2382Y3044*
X2385Y3054*
Y3055*
G37*
G36*
X2340D02*
X2305D01*
Y3054*
X2307Y3044*
X2312Y3035*
X2320Y3027*
X2329Y3022*
X2339Y3020*
X2340*
Y3055*
G37*
G36*
X1930D02*
X1895D01*
Y3020*
X1895*
X1905Y3022*
X1914Y3027*
X1922Y3035*
X1927Y3044*
X1930Y3054*
Y3055*
G37*
G36*
X1885D02*
X1850D01*
Y3054*
X1852Y3044*
X1857Y3035*
X1865Y3027*
X1874Y3022*
X1884Y3020*
X1885*
Y3055*
G37*
G36*
X4446Y3090D02*
X4433D01*
X4420Y3086*
X4409Y3080*
X4399Y3070*
X4393Y3059*
X4390Y3046*
Y3033*
X4393Y3020*
X4394Y3019*
X4390Y3015*
X4389Y3016*
X4376Y3020*
X4363*
X4350Y3016*
X4339Y3010*
X4329Y3000*
X4323Y2989*
X4320Y2976*
Y2963*
X4323Y2950*
X4329Y2939*
X4339Y2929*
X4350Y2923*
X4363Y2920*
X4376*
X4389Y2923*
X4400Y2929*
X4410Y2939*
X4416Y2950*
X4420Y2963*
Y2976*
X4416Y2989*
X4415Y2990*
X4419Y2994*
X4420Y2993*
X4433Y2990*
X4446*
X4459Y2993*
X4470Y2999*
X4480Y3009*
X4486Y3020*
X4490Y3033*
Y3046*
X4486Y3059*
X4480Y3070*
X4470Y3080*
X4459Y3086*
X4446Y3090*
G37*
G36*
X2685Y3045D02*
X2650D01*
Y3010*
X2650*
X2660Y3012*
X2669Y3017*
X2677Y3025*
X2682Y3034*
X2685Y3044*
Y3045*
G37*
G36*
X2640D02*
X2605D01*
Y3044*
X2607Y3034*
X2612Y3025*
X2620Y3017*
X2629Y3012*
X2639Y3010*
X2640*
Y3045*
G37*
G36*
X3145Y3040D02*
X3110D01*
Y3005*
X3110*
X3120Y3007*
X3129Y3012*
X3137Y3020*
X3142Y3029*
X3145Y3039*
Y3040*
G37*
G36*
X3100D02*
X3065D01*
Y3039*
X3067Y3029*
X3072Y3020*
X3080Y3012*
X3089Y3007*
X3099Y3005*
X3100*
Y3040*
G37*
G36*
X2510D02*
X2510D01*
Y3005*
X2545*
Y3005*
X2542Y3015*
X2537Y3024*
X2529Y3032*
X2520Y3037*
X2510Y3040*
G37*
G36*
X2500D02*
X2499D01*
X2489Y3037*
X2480Y3032*
X2472Y3024*
X2467Y3015*
X2465Y3005*
Y3005*
X2500*
Y3040*
G37*
G36*
X5511Y3020D02*
Y2998D01*
X5533*
X5531Y3003*
X5528Y3010*
X5523Y3015*
X5516Y3018*
X5511Y3020*
G37*
G36*
X5501D02*
X5495Y3018D01*
X5488Y3015*
X5483Y3010*
X5480Y3003*
X5478Y2998*
X5501*
Y3020*
G37*
G36*
X4620Y3025D02*
X4620D01*
Y2990*
X4655*
Y2990*
X4652Y3000*
X4647Y3009*
X4639Y3017*
X4630Y3022*
X4620Y3025*
G37*
G36*
X4610D02*
X4609D01*
X4599Y3022*
X4590Y3017*
X4582Y3009*
X4577Y3000*
X4575Y2990*
Y2990*
X4610*
Y3025*
G37*
G36*
X1800Y3020D02*
X1765D01*
Y2985*
X1765*
X1775Y2987*
X1784Y2992*
X1792Y3000*
X1797Y3009*
X1800Y3019*
Y3020*
G37*
G36*
X1755D02*
X1720D01*
Y3019*
X1722Y3009*
X1727Y3000*
X1735Y2992*
X1744Y2987*
X1754Y2985*
X1755*
Y3020*
G37*
G36*
X3250Y3015D02*
X3250D01*
Y2980*
X3285*
Y2980*
X3282Y2990*
X3277Y2999*
X3269Y3007*
X3260Y3012*
X3250Y3015*
G37*
G36*
X3240D02*
X3239D01*
X3229Y3012*
X3220Y3007*
X3212Y2999*
X3207Y2990*
X3205Y2980*
Y2980*
X3240*
Y3015*
G37*
G36*
X5533Y2988D02*
X5511D01*
Y2965*
X5516Y2967*
X5523Y2970*
X5528Y2975*
X5531Y2982*
X5533Y2988*
G37*
G36*
X5501D02*
X5478D01*
X5480Y2982*
X5483Y2975*
X5488Y2970*
X5495Y2967*
X5501Y2965*
Y2988*
G37*
G36*
X2545Y2995D02*
X2510D01*
Y2960*
X2510*
X2520Y2962*
X2529Y2967*
X2537Y2975*
X2542Y2984*
X2545Y2994*
Y2995*
G37*
G36*
X2500D02*
X2465D01*
Y2994*
X2467Y2984*
X2472Y2975*
X2480Y2967*
X2489Y2962*
X2499Y2960*
X2500*
Y2995*
G37*
G36*
X5330Y2985D02*
X5330D01*
Y2950*
X5365*
Y2950*
X5362Y2960*
X5357Y2969*
X5349Y2977*
X5340Y2982*
X5330Y2985*
G37*
G36*
X5320D02*
X5319D01*
X5309Y2982*
X5300Y2977*
X5292Y2969*
X5287Y2960*
X5285Y2950*
Y2950*
X5320*
Y2985*
G37*
G36*
X4655Y2980D02*
X4620D01*
Y2945*
X4620*
X4630Y2947*
X4639Y2952*
X4647Y2960*
X4652Y2969*
X4655Y2979*
Y2980*
G37*
G36*
X4610D02*
X4575D01*
Y2979*
X4577Y2969*
X4582Y2960*
X4590Y2952*
X4599Y2947*
X4609Y2945*
X4610*
Y2980*
G37*
G36*
X5938Y3019D02*
X5928D01*
X5918Y3016*
X5910Y3011*
X5903Y3004*
X5898Y2996*
X5895Y2986*
Y2976*
X5898Y2966*
X5903Y2958*
X5910Y2951*
X5918Y2946*
X5928Y2943*
X5938*
X5948Y2946*
X5956Y2951*
X5963Y2958*
X5968Y2966*
X5971Y2976*
Y2986*
X5968Y2996*
X5963Y3004*
X5956Y3011*
X5948Y3016*
X5938Y3019*
G37*
G36*
X3285Y2970D02*
X3250D01*
Y2935*
X3250*
X3260Y2937*
X3269Y2942*
X3277Y2950*
X3282Y2959*
X3285Y2969*
Y2970*
G37*
G36*
X3240D02*
X3205D01*
Y2969*
X3207Y2959*
X3212Y2950*
X3220Y2942*
X3229Y2937*
X3239Y2935*
X3240*
Y2970*
G37*
G36*
X2039Y3033D02*
X2026D01*
X2013Y3029*
X2002Y3023*
X1993Y3013*
X1986Y3002*
X1983Y2989*
Y2976*
X1986Y2963*
X1993Y2952*
X2002Y2943*
X2013Y2936*
X2026Y2933*
X2039*
X2052Y2936*
X2063Y2943*
X2073Y2952*
X2079Y2963*
X2083Y2976*
Y2989*
X2079Y3002*
X2073Y3013*
X2063Y3023*
X2052Y3029*
X2039Y3033*
G37*
G36*
X4121Y3030D02*
X4108D01*
X4095Y3026*
X4084Y3020*
X4074Y3010*
X4068Y2999*
X4065Y2986*
Y2973*
X4068Y2960*
X4074Y2949*
X4084Y2939*
X4095Y2933*
X4108Y2930*
X4121*
X4134Y2933*
X4145Y2939*
X4155Y2949*
X4161Y2960*
X4165Y2973*
Y2986*
X4161Y2999*
X4155Y3010*
X4145Y3020*
X4134Y3026*
X4121Y3030*
G37*
G36*
X3547Y3024D02*
X3534D01*
X3521Y3020*
X3510Y3014*
X3500Y3004*
X3494Y2993*
X3490Y2980*
Y2967*
X3494Y2954*
X3500Y2943*
X3510Y2934*
X3521Y2927*
X3534Y2924*
X3547*
X3560Y2927*
X3571Y2934*
X3580Y2943*
X3587Y2954*
X3590Y2967*
Y2980*
X3587Y2993*
X3580Y3004*
X3571Y3014*
X3560Y3020*
X3547Y3024*
G37*
G36*
X6030Y2955D02*
X6030D01*
Y2920*
X6065*
Y2920*
X6062Y2930*
X6057Y2939*
X6049Y2947*
X6040Y2952*
X6030Y2955*
G37*
G36*
X6020D02*
X6019D01*
X6009Y2952*
X6000Y2947*
X5992Y2939*
X5987Y2930*
X5985Y2920*
Y2920*
X6020*
Y2955*
G37*
G36*
X2791Y3020D02*
X2778D01*
X2765Y3016*
X2754Y3010*
X2744Y3000*
X2738Y2989*
X2735Y2976*
Y2963*
X2738Y2950*
X2744Y2939*
X2754Y2929*
X2765Y2923*
X2778Y2920*
X2791*
X2804Y2923*
X2815Y2929*
X2825Y2939*
X2831Y2950*
X2835Y2963*
Y2976*
X2831Y2989*
X2825Y3000*
X2815Y3010*
X2804Y3016*
X2791Y3020*
G37*
G36*
X5365Y2940D02*
X5330D01*
Y2905*
X5330*
X5340Y2907*
X5349Y2912*
X5357Y2920*
X5362Y2929*
X5365Y2939*
Y2940*
G37*
G36*
X5320D02*
X5285D01*
Y2939*
X5287Y2929*
X5292Y2920*
X5300Y2912*
X5309Y2907*
X5319Y2905*
X5320*
Y2940*
G37*
G36*
X2460Y2915D02*
X2460D01*
Y2880*
X2495*
Y2880*
X2492Y2890*
X2487Y2899*
X2479Y2907*
X2470Y2912*
X2460Y2915*
G37*
G36*
X2450D02*
X2449D01*
X2439Y2912*
X2430Y2907*
X2422Y2899*
X2417Y2890*
X2415Y2880*
Y2880*
X2450*
Y2915*
G37*
G36*
X6065Y2910D02*
X6030D01*
Y2875*
X6030*
X6040Y2877*
X6049Y2882*
X6057Y2890*
X6062Y2899*
X6065Y2909*
Y2910*
G37*
G36*
X6020D02*
X5985D01*
Y2909*
X5987Y2899*
X5992Y2890*
X6000Y2882*
X6009Y2877*
X6019Y2875*
X6020*
Y2910*
G37*
G36*
X2675D02*
X2675D01*
Y2875*
X2710*
Y2875*
X2707Y2885*
X2702Y2894*
X2694Y2902*
X2685Y2907*
X2675Y2910*
G37*
G36*
X2665D02*
X2664D01*
X2654Y2907*
X2645Y2902*
X2637Y2894*
X2632Y2885*
X2630Y2875*
Y2875*
X2665*
Y2910*
G37*
G36*
X526Y2989D02*
X513D01*
X501Y2986*
X489Y2981*
X479Y2974*
X470Y2965*
X463Y2955*
X458Y2943*
X455Y2931*
Y2918*
X458Y2905*
X463Y2894*
X470Y2883*
X479Y2874*
X489Y2867*
X501Y2862*
X513Y2860*
X526*
X538Y2862*
X550Y2867*
X560Y2874*
X569Y2883*
X576Y2894*
X581Y2905*
X584Y2918*
Y2931*
X581Y2943*
X576Y2955*
X569Y2965*
X560Y2974*
X550Y2981*
X538Y2986*
X526Y2989*
G37*
G36*
X3440Y2885D02*
X3440D01*
Y2850*
X3475*
Y2850*
X3472Y2860*
X3467Y2869*
X3459Y2877*
X3450Y2882*
X3440Y2885*
G37*
G36*
X3430D02*
X3429D01*
X3419Y2882*
X3410Y2877*
X3402Y2869*
X3397Y2860*
X3395Y2850*
Y2850*
X3430*
Y2885*
G37*
G36*
X3215Y2880D02*
X3215D01*
Y2845*
X3250*
Y2845*
X3247Y2855*
X3242Y2864*
X3234Y2872*
X3225Y2877*
X3215Y2880*
G37*
G36*
X3205D02*
X3204D01*
X3194Y2877*
X3185Y2872*
X3177Y2864*
X3172Y2855*
X3170Y2845*
Y2845*
X3205*
Y2880*
G37*
G36*
X1780D02*
X1780D01*
Y2845*
X1815*
Y2845*
X1812Y2855*
X1807Y2864*
X1799Y2872*
X1790Y2877*
X1780Y2880*
G37*
G36*
X1770D02*
X1769D01*
X1759Y2877*
X1750Y2872*
X1742Y2864*
X1737Y2855*
X1735Y2845*
Y2845*
X1770*
Y2880*
G37*
G36*
X4301Y2940D02*
X4288D01*
X4275Y2936*
X4264Y2930*
X4254Y2920*
X4248Y2909*
X4245Y2896*
Y2883*
X4248Y2870*
X4254Y2859*
X4264Y2849*
X4275Y2843*
X4288Y2840*
X4301*
X4314Y2843*
X4325Y2849*
X4335Y2859*
X4341Y2870*
X4345Y2883*
Y2896*
X4341Y2909*
X4335Y2920*
X4325Y2930*
X4314Y2936*
X4301Y2940*
G37*
G36*
X2495Y2870D02*
X2460D01*
Y2835*
X2460*
X2470Y2837*
X2479Y2842*
X2487Y2850*
X2492Y2859*
X2495Y2869*
Y2870*
G37*
G36*
X2450D02*
X2415D01*
Y2869*
X2417Y2859*
X2422Y2850*
X2430Y2842*
X2439Y2837*
X2449Y2835*
X2450*
Y2870*
G37*
G36*
X4475Y2865D02*
X4475D01*
Y2830*
X4510*
Y2830*
X4507Y2840*
X4502Y2849*
X4494Y2857*
X4485Y2862*
X4475Y2865*
G37*
G36*
X4465D02*
X4464D01*
X4454Y2862*
X4445Y2857*
X4437Y2849*
X4432Y2840*
X4430Y2830*
Y2830*
X4465*
Y2865*
G37*
G36*
X4021Y2930D02*
X4008D01*
X3995Y2926*
X3984Y2920*
X3974Y2910*
X3968Y2899*
X3965Y2886*
Y2873*
X3968Y2860*
X3974Y2849*
X3984Y2839*
X3995Y2833*
X4008Y2830*
X4021*
X4034Y2833*
X4045Y2839*
X4055Y2849*
X4061Y2860*
X4065Y2873*
Y2886*
X4061Y2899*
X4055Y2910*
X4045Y2920*
X4034Y2926*
X4021Y2930*
G37*
G36*
X2710Y2865D02*
X2675D01*
Y2830*
X2675*
X2685Y2832*
X2694Y2837*
X2702Y2845*
X2707Y2854*
X2710Y2864*
Y2865*
G37*
G36*
X2665D02*
X2630D01*
Y2864*
X2632Y2854*
X2637Y2845*
X2645Y2837*
X2654Y2832*
X2664Y2830*
X2665*
Y2865*
G37*
G36*
X1980D02*
X1980D01*
Y2830*
X2015*
Y2830*
X2012Y2840*
X2007Y2849*
X1999Y2857*
X1990Y2862*
X1980Y2865*
G37*
G36*
X1970D02*
X1969D01*
X1959Y2862*
X1950Y2857*
X1942Y2849*
X1937Y2840*
X1935Y2830*
Y2830*
X1970*
Y2865*
G37*
G36*
X3475Y2840D02*
X3440D01*
Y2805*
X3440*
X3450Y2807*
X3459Y2812*
X3467Y2820*
X3472Y2829*
X3475Y2839*
Y2840*
G37*
G36*
X3430D02*
X3395D01*
Y2839*
X3397Y2829*
X3402Y2820*
X3410Y2812*
X3419Y2807*
X3429Y2805*
X3430*
Y2840*
G37*
G36*
X3250Y2835D02*
X3215D01*
Y2800*
X3215*
X3225Y2802*
X3234Y2807*
X3242Y2815*
X3247Y2824*
X3250Y2834*
Y2835*
G37*
G36*
X3205D02*
X3170D01*
Y2834*
X3172Y2824*
X3177Y2815*
X3185Y2807*
X3194Y2802*
X3204Y2800*
X3205*
Y2835*
G37*
G36*
X1815D02*
X1780D01*
Y2800*
X1780*
X1790Y2802*
X1799Y2807*
X1807Y2815*
X1812Y2824*
X1815Y2834*
Y2835*
G37*
G36*
X1770D02*
X1735D01*
Y2834*
X1737Y2824*
X1742Y2815*
X1750Y2807*
X1759Y2802*
X1769Y2800*
X1770*
Y2835*
G37*
G36*
X4510Y2820D02*
X4475D01*
Y2785*
X4475*
X4485Y2787*
X4494Y2792*
X4502Y2800*
X4507Y2809*
X4510Y2819*
Y2820*
G37*
G36*
X4465D02*
X4430D01*
Y2819*
X4432Y2809*
X4437Y2800*
X4445Y2792*
X4454Y2787*
X4464Y2785*
X4465*
Y2820*
G37*
G36*
X2015D02*
X1980D01*
Y2785*
X1980*
X1990Y2787*
X1999Y2792*
X2007Y2800*
X2012Y2809*
X2015Y2819*
Y2820*
G37*
G36*
X1970D02*
X1935D01*
Y2819*
X1937Y2809*
X1942Y2800*
X1950Y2792*
X1959Y2787*
X1969Y2785*
X1970*
Y2820*
G37*
G36*
X3787Y2834D02*
X3779D01*
X3770Y2831*
X3763Y2827*
X3757Y2821*
X3753Y2814*
X3751Y2806*
Y2798*
X3753Y2790*
X3757Y2782*
X3763Y2776*
X3770Y2772*
X3779Y2770*
X3787*
X3795Y2772*
X3802Y2776*
X3808Y2782*
X3812Y2790*
X3815Y2798*
Y2806*
X3812Y2814*
X3808Y2821*
X3802Y2827*
X3795Y2831*
X3787Y2834*
G37*
G36*
X725Y2805D02*
X725D01*
Y2770*
X760*
Y2770*
X757Y2780*
X752Y2789*
X744Y2797*
X735Y2802*
X725Y2805*
G37*
G36*
X715D02*
X714D01*
X704Y2802*
X695Y2797*
X687Y2789*
X682Y2780*
X680Y2770*
Y2770*
X715*
Y2805*
G37*
G36*
X2243Y2814D02*
X2235D01*
X2228Y2812*
X2221Y2808*
X2216Y2803*
X2212Y2796*
X2210Y2789*
Y2781*
X2212Y2774*
X2216Y2767*
X2221Y2762*
X2228Y2758*
X2235Y2756*
X2243*
X2250Y2758*
X2257Y2762*
X2262Y2767*
X2266Y2774*
X2268Y2781*
Y2789*
X2266Y2796*
X2262Y2803*
X2257Y2808*
X2250Y2812*
X2243Y2814*
G37*
G36*
X1434Y2777D02*
Y2755D01*
X1456*
X1455Y2761*
X1451Y2767*
X1446Y2772*
X1440Y2776*
X1434Y2777*
G37*
G36*
X1424D02*
X1418Y2776D01*
X1412Y2772*
X1407Y2767*
X1403Y2761*
X1402Y2755*
X1424*
Y2777*
G37*
G36*
X3931Y2850D02*
X3918D01*
X3905Y2846*
X3894Y2840*
X3884Y2830*
X3878Y2819*
X3875Y2806*
Y2793*
X3878Y2780*
X3884Y2769*
X3894Y2759*
X3905Y2753*
X3918Y2750*
X3931*
X3944Y2753*
X3955Y2759*
X3965Y2769*
X3971Y2780*
X3975Y2793*
Y2806*
X3971Y2819*
X3965Y2830*
X3955Y2840*
X3944Y2846*
X3931Y2850*
G37*
G36*
X4201Y2845D02*
X4188D01*
X4175Y2841*
X4164Y2835*
X4154Y2825*
X4148Y2814*
X4145Y2801*
Y2788*
X4148Y2775*
X4154Y2764*
X4164Y2754*
X4175Y2748*
X4188Y2745*
X4201*
X4214Y2748*
X4225Y2754*
X4235Y2764*
X4241Y2775*
X4245Y2788*
Y2801*
X4241Y2814*
X4235Y2825*
X4225Y2835*
X4214Y2841*
X4201Y2845*
G37*
G36*
X5293Y2798D02*
X5286D01*
X5278Y2796*
X5272Y2793*
X5266Y2787*
X5263Y2781*
X5261Y2773*
Y2766*
X5263Y2758*
X5266Y2752*
X5272Y2746*
X5278Y2743*
X5286Y2741*
X5293*
X5301Y2743*
X5307Y2746*
X5313Y2752*
X5316Y2758*
X5318Y2766*
Y2773*
X5316Y2781*
X5313Y2787*
X5307Y2793*
X5301Y2796*
X5293Y2798*
G37*
G36*
X760Y2760D02*
X725D01*
Y2725*
X725*
X735Y2727*
X744Y2732*
X752Y2740*
X757Y2749*
X760Y2759*
Y2760*
G37*
G36*
X715D02*
X680D01*
Y2759*
X682Y2749*
X687Y2740*
X695Y2732*
X704Y2727*
X714Y2725*
X715*
Y2760*
G37*
G36*
X1456Y2745D02*
X1434D01*
Y2723*
X1440Y2724*
X1446Y2728*
X1451Y2733*
X1455Y2739*
X1456Y2745*
G37*
G36*
X1424D02*
X1402D01*
X1403Y2739*
X1407Y2733*
X1412Y2728*
X1418Y2724*
X1424Y2723*
Y2745*
G37*
G36*
X2905Y2777D02*
X2897D01*
X2890Y2775*
X2883Y2771*
X2878Y2765*
X2874Y2759*
X2872Y2751*
Y2744*
X2874Y2737*
X2878Y2730*
X2883Y2725*
X2890Y2721*
X2897Y2719*
X2905*
X2912Y2721*
X2919Y2725*
X2924Y2730*
X2928Y2737*
X2930Y2744*
Y2751*
X2928Y2759*
X2924Y2765*
X2919Y2771*
X2912Y2775*
X2905Y2777*
G37*
G36*
X5153Y2768D02*
X5146D01*
X5138Y2766*
X5132Y2763*
X5126Y2757*
X5123Y2751*
X5121Y2743*
Y2736*
X5123Y2728*
X5126Y2722*
X5132Y2716*
X5138Y2713*
X5146Y2711*
X5153*
X5161Y2713*
X5167Y2716*
X5173Y2722*
X5176Y2728*
X5178Y2736*
Y2743*
X5176Y2751*
X5173Y2757*
X5167Y2763*
X5161Y2766*
X5153Y2768*
G37*
G36*
X4915Y2730D02*
X4915D01*
Y2695*
X4950*
Y2695*
X4947Y2705*
X4942Y2714*
X4934Y2722*
X4925Y2727*
X4915Y2730*
G37*
G36*
X4905D02*
X4904D01*
X4894Y2727*
X4885Y2722*
X4877Y2714*
X4872Y2705*
X4870Y2695*
Y2695*
X4905*
Y2730*
G37*
G36*
X2213Y2743D02*
X2206D01*
X2198Y2741*
X2192Y2738*
X2186Y2732*
X2183Y2726*
X2181Y2718*
Y2711*
X2183Y2703*
X2186Y2697*
X2192Y2691*
X2198Y2688*
X2206Y2686*
X2213*
X2221Y2688*
X2227Y2691*
X2233Y2697*
X2236Y2703*
X2238Y2711*
Y2718*
X2236Y2726*
X2233Y2732*
X2227Y2738*
X2221Y2741*
X2213Y2743*
G37*
G36*
X1614Y2741D02*
X1605D01*
X1597Y2739*
X1590Y2735*
X1584Y2729*
X1580Y2722*
X1578Y2714*
Y2705*
X1580Y2697*
X1584Y2690*
X1590Y2684*
X1597Y2680*
X1605Y2678*
X1614*
X1622Y2680*
X1629Y2684*
X1635Y2690*
X1639Y2697*
X1641Y2705*
Y2714*
X1639Y2722*
X1635Y2729*
X1629Y2735*
X1622Y2739*
X1614Y2741*
G37*
G36*
X2326Y2725D02*
X2319D01*
X2311Y2723*
X2305Y2719*
X2299Y2714*
X2295Y2707*
X2293Y2700*
Y2693*
X2295Y2685*
X2299Y2679*
X2305Y2673*
X2311Y2669*
X2319Y2667*
X2326*
X2333Y2669*
X2340Y2673*
X2345Y2679*
X2349Y2685*
X2351Y2693*
Y2700*
X2349Y2707*
X2345Y2714*
X2340Y2719*
X2333Y2723*
X2326Y2725*
G37*
G36*
X4111Y2755D02*
X4098D01*
X4085Y2751*
X4074Y2745*
X4064Y2735*
X4058Y2724*
X4055Y2711*
Y2698*
X4058Y2685*
X4064Y2674*
X4074Y2664*
X4085Y2658*
X4098Y2655*
X4111*
X4124Y2658*
X4135Y2664*
X4145Y2674*
X4151Y2685*
X4155Y2698*
Y2711*
X4151Y2724*
X4145Y2735*
X4135Y2745*
X4124Y2751*
X4111Y2755*
G37*
G36*
X4950Y2685D02*
X4915D01*
Y2650*
X4915*
X4925Y2652*
X4934Y2657*
X4942Y2665*
X4947Y2674*
X4950Y2684*
Y2685*
G37*
G36*
X4905D02*
X4870D01*
Y2684*
X4872Y2674*
X4877Y2665*
X4885Y2657*
X4894Y2652*
X4904Y2650*
X4905*
Y2685*
G37*
G36*
X540D02*
X540D01*
Y2650*
X575*
Y2650*
X572Y2660*
X567Y2669*
X559Y2677*
X550Y2682*
X540Y2685*
G37*
G36*
X530D02*
X529D01*
X519Y2682*
X510Y2677*
X502Y2669*
X497Y2660*
X495Y2650*
Y2650*
X530*
Y2685*
G37*
G36*
X3153Y2706D02*
X3145D01*
X3138Y2704*
X3131Y2700*
X3126Y2694*
X3122Y2688*
X3120Y2680*
Y2673*
X3122Y2666*
X3126Y2659*
X3131Y2654*
X3138Y2650*
X3145Y2648*
X3153*
X3160Y2650*
X3167Y2654*
X3172Y2659*
X3176Y2666*
X3178Y2673*
Y2680*
X3176Y2688*
X3172Y2694*
X3167Y2700*
X3160Y2704*
X3153Y2706*
G37*
G36*
X3801Y2711D02*
X3792D01*
X3784Y2709*
X3777Y2705*
X3771Y2699*
X3767Y2692*
X3765Y2684*
Y2675*
X3767Y2667*
X3771Y2660*
X3777Y2654*
X3784Y2650*
X3792Y2648*
X3801*
X3809Y2650*
X3816Y2654*
X3822Y2660*
X3826Y2667*
X3828Y2675*
Y2684*
X3826Y2692*
X3822Y2699*
X3816Y2705*
X3809Y2709*
X3801Y2711*
G37*
G36*
X5435Y2771D02*
X5428D01*
X5420Y2769*
X5414Y2765*
X5408Y2760*
X5405Y2753*
X5403Y2746*
Y2738*
X5405Y2731*
X5408Y2724*
X5414Y2719*
X5414Y2719*
X5413Y2714*
X5406Y2710*
X5399Y2703*
X5394Y2694*
X5392Y2684*
Y2675*
X5394Y2665*
X5399Y2656*
X5406Y2649*
X5415Y2644*
X5425Y2642*
X5434*
X5444Y2644*
X5453Y2649*
X5460Y2656*
X5465Y2665*
X5467Y2675*
Y2684*
X5465Y2694*
X5460Y2703*
X5453Y2710*
X5448Y2712*
Y2718*
X5449Y2719*
X5455Y2724*
X5458Y2731*
X5460Y2738*
Y2746*
X5458Y2753*
X5455Y2760*
X5449Y2765*
X5443Y2769*
X5435Y2771*
G37*
G36*
X4773Y2698D02*
X4766D01*
X4758Y2696*
X4752Y2693*
X4746Y2687*
X4743Y2681*
X4741Y2673*
Y2666*
X4743Y2658*
X4746Y2652*
X4752Y2646*
X4758Y2643*
X4766Y2641*
X4773*
X4781Y2643*
X4787Y2646*
X4793Y2652*
X4796Y2658*
X4798Y2666*
Y2673*
X4796Y2681*
X4793Y2687*
X4787Y2693*
X4781Y2696*
X4773Y2698*
G37*
G36*
X3642Y2737D02*
X3629D01*
X3616Y2734*
X3605Y2727*
X3595Y2718*
X3589Y2706*
X3585Y2694*
Y2681*
X3589Y2668*
X3595Y2656*
X3605Y2647*
X3616Y2641*
X3629Y2637*
X3642*
X3655Y2641*
X3666Y2647*
X3675Y2656*
X3682Y2668*
X3685Y2681*
Y2694*
X3682Y2706*
X3675Y2718*
X3666Y2727*
X3655Y2734*
X3642Y2737*
G37*
G36*
X4464Y2704D02*
X4455D01*
X4445Y2702*
X4436Y2697*
X4429Y2690*
X4424Y2681*
X4422Y2671*
Y2662*
X4424Y2652*
X4429Y2643*
X4436Y2636*
X4445Y2631*
X4455Y2629*
X4464*
X4474Y2631*
X4483Y2636*
X4490Y2643*
X4495Y2652*
X4497Y2662*
Y2671*
X4495Y2681*
X4490Y2690*
X4483Y2697*
X4474Y2702*
X4464Y2704*
G37*
G36*
X2791Y2725D02*
X2778D01*
X2765Y2721*
X2754Y2715*
X2744Y2705*
X2738Y2694*
X2735Y2681*
Y2668*
X2738Y2655*
X2744Y2644*
X2754Y2634*
X2765Y2628*
X2778Y2625*
X2791*
X2804Y2628*
X2815Y2634*
X2825Y2644*
X2831Y2655*
X2835Y2668*
Y2681*
X2831Y2694*
X2825Y2705*
X2815Y2715*
X2804Y2721*
X2791Y2725*
G37*
G36*
X2651Y2720D02*
X2638D01*
X2625Y2716*
X2614Y2710*
X2604Y2700*
X2598Y2689*
X2595Y2676*
Y2663*
X2598Y2650*
X2604Y2639*
X2614Y2629*
X2625Y2623*
X2638Y2620*
X2651*
X2664Y2623*
X2675Y2629*
X2685Y2639*
X2691Y2650*
X2695Y2663*
Y2676*
X2691Y2689*
X2685Y2700*
X2675Y2710*
X2664Y2716*
X2651Y2720*
G37*
G36*
X2536D02*
X2523D01*
X2510Y2716*
X2499Y2710*
X2489Y2700*
X2483Y2689*
X2480Y2676*
Y2663*
X2483Y2650*
X2489Y2639*
X2499Y2629*
X2510Y2623*
X2523Y2620*
X2536*
X2549Y2623*
X2560Y2629*
X2570Y2639*
X2576Y2650*
X2580Y2663*
Y2676*
X2576Y2689*
X2570Y2700*
X2560Y2710*
X2549Y2716*
X2536Y2720*
G37*
G36*
X2011D02*
X1998D01*
X1985Y2716*
X1974Y2710*
X1964Y2700*
X1958Y2689*
X1955Y2676*
Y2663*
X1958Y2650*
X1964Y2639*
X1974Y2629*
X1985Y2623*
X1998Y2620*
X2011*
X2024Y2623*
X2035Y2629*
X2045Y2639*
X2051Y2650*
X2055Y2663*
Y2676*
X2051Y2689*
X2045Y2700*
X2035Y2710*
X2024Y2716*
X2011Y2720*
G37*
G36*
X1891Y2715D02*
X1878D01*
X1865Y2711*
X1854Y2705*
X1844Y2695*
X1838Y2684*
X1835Y2671*
Y2658*
X1838Y2645*
X1844Y2634*
X1854Y2624*
X1865Y2618*
X1878Y2615*
X1891*
X1904Y2618*
X1915Y2624*
X1925Y2634*
X1931Y2645*
X1935Y2658*
Y2671*
X1931Y2684*
X1925Y2695*
X1915Y2705*
X1904Y2711*
X1891Y2715*
G37*
G36*
X3035Y2666D02*
X3027D01*
X3020Y2664*
X3013Y2660*
X3008Y2655*
X3004Y2648*
X3002Y2641*
Y2634*
X3004Y2626*
X3008Y2620*
X3013Y2614*
X3020Y2610*
X3027Y2608*
X3035*
X3042Y2610*
X3049Y2614*
X3054Y2620*
X3058Y2626*
X3060Y2634*
Y2641*
X3058Y2648*
X3054Y2655*
X3049Y2660*
X3042Y2664*
X3035Y2666*
G37*
G36*
X5493Y2663D02*
X5486D01*
X5478Y2661*
X5472Y2658*
X5466Y2652*
X5463Y2646*
X5461Y2638*
Y2631*
X5463Y2623*
X5466Y2617*
X5472Y2611*
X5478Y2608*
X5486Y2606*
X5493*
X5501Y2608*
X5507Y2611*
X5513Y2617*
X5516Y2623*
X5518Y2631*
Y2638*
X5516Y2646*
X5513Y2652*
X5507Y2658*
X5501Y2661*
X5493Y2663*
G37*
G36*
X745Y2640D02*
X745D01*
Y2605*
X780*
Y2605*
X777Y2615*
X772Y2624*
X764Y2632*
X755Y2637*
X745Y2640*
G37*
G36*
X735D02*
X734D01*
X724Y2637*
X715Y2632*
X707Y2624*
X702Y2615*
X700Y2605*
Y2605*
X735*
Y2640*
G37*
G36*
X575D02*
X540D01*
Y2605*
X540*
X550Y2607*
X559Y2612*
X567Y2620*
X572Y2629*
X575Y2639*
Y2640*
G37*
G36*
X530D02*
X495D01*
Y2639*
X497Y2629*
X502Y2620*
X510Y2612*
X519Y2607*
X529Y2605*
X530*
Y2640*
G37*
G36*
X5043Y2658D02*
X5036D01*
X5028Y2656*
X5022Y2653*
X5016Y2647*
X5013Y2641*
X5011Y2633*
Y2626*
X5013Y2618*
X5016Y2612*
X5022Y2606*
X5028Y2603*
X5036Y2601*
X5043*
X5051Y2603*
X5057Y2606*
X5063Y2612*
X5066Y2618*
X5068Y2626*
Y2633*
X5066Y2641*
X5063Y2647*
X5057Y2653*
X5051Y2656*
X5043Y2658*
G37*
G36*
X1335Y2620D02*
X1335D01*
Y2585*
X1370*
Y2585*
X1367Y2595*
X1362Y2604*
X1354Y2612*
X1345Y2617*
X1335Y2620*
G37*
G36*
X1325D02*
X1324D01*
X1314Y2617*
X1305Y2612*
X1297Y2604*
X1292Y2595*
X1290Y2585*
Y2585*
X1325*
Y2620*
G37*
G36*
X4021Y2665D02*
X4008D01*
X3995Y2661*
X3984Y2655*
X3974Y2645*
X3968Y2634*
X3965Y2621*
Y2608*
X3968Y2595*
X3974Y2584*
X3984Y2574*
X3995Y2568*
X4008Y2565*
X4021*
X4034Y2568*
X4045Y2574*
X4055Y2584*
X4061Y2595*
X4065Y2608*
Y2621*
X4061Y2634*
X4055Y2645*
X4045Y2655*
X4034Y2661*
X4021Y2665*
G37*
G36*
X780Y2595D02*
X745D01*
Y2560*
X745*
X755Y2562*
X764Y2567*
X772Y2575*
X777Y2584*
X780Y2594*
Y2595*
G37*
G36*
X735D02*
X700D01*
Y2594*
X702Y2584*
X707Y2575*
X715Y2567*
X724Y2562*
X734Y2560*
X735*
Y2595*
G37*
G36*
X4524Y2577D02*
Y2555D01*
X4546*
X4544Y2560*
X4541Y2567*
X4536Y2572*
X4529Y2575*
X4524Y2577*
G37*
G36*
X4514D02*
X4508Y2575D01*
X4501Y2572*
X4496Y2567*
X4493Y2560*
X4491Y2555*
X4514*
Y2577*
G37*
G36*
X4122Y2574D02*
Y2552D01*
X4144*
X4142Y2557*
X4139Y2564*
X4134Y2569*
X4127Y2572*
X4122Y2574*
G37*
G36*
X4112D02*
X4106Y2572D01*
X4099Y2569*
X4094Y2564*
X4091Y2557*
X4089Y2552*
X4112*
Y2574*
G37*
G36*
X1370Y2575D02*
X1335D01*
Y2540*
X1335*
X1345Y2542*
X1354Y2547*
X1362Y2555*
X1367Y2564*
X1370Y2574*
Y2575*
G37*
G36*
X1325D02*
X1290D01*
Y2574*
X1292Y2564*
X1297Y2555*
X1305Y2547*
X1314Y2542*
X1324Y2540*
X1325*
Y2575*
G37*
G36*
X1764Y2630D02*
X1751D01*
X1738Y2626*
X1727Y2620*
X1718Y2610*
X1711Y2599*
X1708Y2586*
Y2573*
X1711Y2560*
X1718Y2549*
X1727Y2539*
X1738Y2533*
X1751Y2530*
X1764*
X1777Y2533*
X1788Y2539*
X1798Y2549*
X1804Y2560*
X1808Y2573*
Y2586*
X1804Y2599*
X1798Y2610*
X1788Y2620*
X1777Y2626*
X1764Y2630*
G37*
G36*
X4546Y2545D02*
X4524D01*
Y2522*
X4529Y2524*
X4536Y2527*
X4541Y2532*
X4544Y2539*
X4546Y2545*
G37*
G36*
X4514D02*
X4491D01*
X4493Y2539*
X4496Y2532*
X4501Y2527*
X4508Y2524*
X4514Y2522*
Y2545*
G37*
G36*
X4144Y2542D02*
X4122D01*
Y2519*
X4127Y2521*
X4134Y2524*
X4139Y2529*
X4142Y2536*
X4144Y2542*
G37*
G36*
X4112D02*
X4089D01*
X4091Y2536*
X4094Y2529*
X4099Y2524*
X4106Y2521*
X4112Y2519*
Y2542*
G37*
G36*
X5944Y2593D02*
X5934D01*
X5924Y2590*
X5916Y2585*
X5909Y2578*
X5904Y2570*
X5901Y2560*
Y2550*
X5904Y2540*
X5909Y2532*
X5916Y2525*
X5924Y2520*
X5934Y2517*
X5944*
X5954Y2520*
X5962Y2525*
X5969Y2532*
X5974Y2540*
X5977Y2550*
Y2560*
X5974Y2570*
X5969Y2578*
X5962Y2585*
X5954Y2590*
X5944Y2593*
G37*
G36*
X4213Y2528D02*
Y2506D01*
X4235*
X4234Y2512*
X4230Y2518*
X4225Y2523*
X4218Y2527*
X4213Y2528*
G37*
G36*
X4203D02*
X4197Y2527D01*
X4191Y2523*
X4186Y2518*
X4182Y2512*
X4180Y2506*
X4203*
Y2528*
G37*
G36*
X4455Y2514D02*
Y2492D01*
X4477*
X4475Y2497*
X4472Y2504*
X4467Y2509*
X4460Y2512*
X4455Y2514*
G37*
G36*
X4445D02*
X4439Y2512D01*
X4432Y2509*
X4427Y2504*
X4424Y2497*
X4422Y2492*
X4445*
Y2514*
G37*
G36*
X1280Y2520D02*
X1280D01*
Y2485*
X1315*
Y2485*
X1312Y2495*
X1307Y2504*
X1299Y2512*
X1290Y2517*
X1280Y2520*
G37*
G36*
X1270D02*
X1269D01*
X1259Y2517*
X1250Y2512*
X1242Y2504*
X1237Y2495*
X1235Y2485*
Y2485*
X1270*
Y2520*
G37*
G36*
X4554Y2497D02*
Y2475D01*
X4576*
X4574Y2480*
X4571Y2487*
X4566Y2492*
X4559Y2495*
X4554Y2497*
G37*
G36*
X4544D02*
X4538Y2495D01*
X4531Y2492*
X4526Y2487*
X4523Y2480*
X4521Y2475*
X4544*
Y2497*
G37*
G36*
X5145Y2495D02*
X5145D01*
Y2460*
X5180*
Y2460*
X5177Y2470*
X5172Y2479*
X5164Y2487*
X5155Y2492*
X5145Y2495*
G37*
G36*
X5135D02*
X5134D01*
X5124Y2492*
X5115Y2487*
X5107Y2479*
X5102Y2470*
X5100Y2460*
Y2460*
X5135*
Y2495*
G37*
G36*
X4477Y2482D02*
X4455D01*
Y2459*
X4460Y2461*
X4467Y2464*
X4472Y2469*
X4475Y2476*
X4477Y2482*
G37*
G36*
X4445D02*
X4422D01*
X4424Y2476*
X4427Y2469*
X4432Y2464*
X4439Y2461*
X4445Y2459*
Y2482*
G37*
G36*
X3346Y2555D02*
X3333D01*
X3320Y2551*
X3309Y2545*
X3299Y2535*
X3293Y2524*
X3290Y2511*
Y2498*
X3293Y2485*
X3299Y2474*
X3309Y2464*
X3320Y2458*
X3333Y2455*
X3346*
X3359Y2458*
X3370Y2464*
X3380Y2474*
X3386Y2485*
X3390Y2498*
Y2511*
X3386Y2524*
X3380Y2535*
X3370Y2545*
X3359Y2551*
X3346Y2555*
G37*
G36*
X3201D02*
X3188D01*
X3175Y2551*
X3164Y2545*
X3154Y2535*
X3148Y2524*
X3145Y2511*
Y2498*
X3148Y2485*
X3154Y2474*
X3164Y2464*
X3175Y2458*
X3188Y2455*
X3201*
X3214Y2458*
X3225Y2464*
X3235Y2474*
X3241Y2485*
X3245Y2498*
Y2511*
X3241Y2524*
X3235Y2535*
X3225Y2545*
X3214Y2551*
X3201Y2555*
G37*
G36*
X4235Y2496D02*
X4180D01*
X4182Y2490*
X4186Y2484*
X4191Y2479*
X4197Y2475*
X4199Y2475*
X4199Y2474*
X4200Y2469*
X4196Y2466*
X4193Y2459*
X4191Y2454*
X4246*
X4244Y2459*
X4241Y2466*
X4236Y2471*
X4229Y2474*
X4227Y2475*
X4227Y2475*
X4226Y2480*
X4230Y2484*
X4234Y2490*
X4235Y2496*
G37*
G36*
X2926Y2550D02*
X2913D01*
X2900Y2546*
X2889Y2540*
X2879Y2530*
X2873Y2519*
X2870Y2506*
Y2493*
X2873Y2480*
X2879Y2469*
X2889Y2460*
X2900Y2453*
X2913Y2450*
X2926*
X2939Y2453*
X2950Y2460*
X2960Y2469*
X2966Y2480*
X2970Y2493*
Y2506*
X2966Y2519*
X2960Y2530*
X2950Y2540*
X2939Y2546*
X2926Y2550*
G37*
G36*
X3071Y2550D02*
X3058D01*
X3045Y2546*
X3034Y2540*
X3024Y2530*
X3018Y2519*
X3015Y2506*
Y2493*
X3018Y2480*
X3024Y2469*
X3034Y2459*
X3045Y2453*
X3058Y2450*
X3071*
X3084Y2453*
X3095Y2459*
X3105Y2469*
X3111Y2480*
X3115Y2493*
Y2506*
X3111Y2519*
X3105Y2530*
X3095Y2540*
X3084Y2546*
X3071Y2550*
G37*
G36*
X2781Y2545D02*
X2768D01*
X2755Y2541*
X2744Y2535*
X2734Y2525*
X2728Y2514*
X2725Y2501*
Y2488*
X2728Y2475*
X2734Y2464*
X2744Y2454*
X2755Y2448*
X2768Y2445*
X2781*
X2794Y2448*
X2805Y2454*
X2815Y2464*
X2821Y2475*
X2825Y2488*
Y2501*
X2821Y2514*
X2815Y2525*
X2805Y2535*
X2794Y2541*
X2781Y2545*
G37*
G36*
X2366D02*
X2353D01*
X2340Y2541*
X2329Y2535*
X2319Y2525*
X2313Y2514*
X2310Y2501*
Y2488*
X2313Y2475*
X2319Y2464*
X2329Y2454*
X2340Y2448*
X2353Y2445*
X2366*
X2379Y2448*
X2390Y2454*
X2400Y2464*
X2406Y2475*
X2410Y2488*
Y2501*
X2406Y2514*
X2400Y2525*
X2390Y2535*
X2379Y2541*
X2366Y2545*
G37*
G36*
X2181D02*
X2168D01*
X2155Y2541*
X2144Y2535*
X2134Y2525*
X2128Y2514*
X2125Y2501*
Y2488*
X2128Y2475*
X2134Y2464*
X2144Y2454*
X2155Y2448*
X2168Y2445*
X2181*
X2194Y2448*
X2205Y2454*
X2215Y2464*
X2221Y2475*
X2225Y2488*
Y2501*
X2221Y2514*
X2215Y2525*
X2205Y2535*
X2194Y2541*
X2181Y2545*
G37*
G36*
X2061D02*
X2048D01*
X2035Y2541*
X2024Y2535*
X2014Y2525*
X2008Y2514*
X2005Y2501*
Y2488*
X2008Y2475*
X2014Y2464*
X2024Y2454*
X2035Y2448*
X2048Y2445*
X2061*
X2074Y2448*
X2085Y2454*
X2095Y2464*
X2101Y2475*
X2105Y2488*
Y2501*
X2101Y2514*
X2095Y2525*
X2085Y2535*
X2074Y2541*
X2061Y2545*
G37*
G36*
X1315Y2475D02*
X1280D01*
Y2440*
X1280*
X1290Y2442*
X1299Y2447*
X1307Y2455*
X1312Y2464*
X1315Y2474*
Y2475*
G37*
G36*
X1270D02*
X1235D01*
Y2474*
X1237Y2464*
X1242Y2455*
X1250Y2447*
X1259Y2442*
X1269Y2440*
X1270*
Y2475*
G37*
G36*
X3842Y2532D02*
X3829D01*
X3816Y2529*
X3805Y2522*
X3795Y2513*
X3789Y2501*
X3785Y2489*
Y2476*
X3789Y2463*
X3795Y2451*
X3805Y2442*
X3816Y2436*
X3829Y2432*
X3842*
X3855Y2436*
X3866Y2442*
X3875Y2451*
X3882Y2463*
X3885Y2476*
Y2489*
X3882Y2501*
X3875Y2513*
X3866Y2522*
X3855Y2529*
X3842Y2532*
G37*
G36*
X4743Y2438D02*
Y2416D01*
X4765*
X4764Y2422*
X4760Y2428*
X4755Y2433*
X4748Y2437*
X4743Y2438*
G37*
G36*
X4733D02*
X4727Y2437D01*
X4721Y2433*
X4716Y2428*
X4712Y2422*
X4710Y2416*
X4733*
Y2438*
G37*
G36*
X5980Y2450D02*
X5980D01*
Y2415*
X6015*
Y2415*
X6012Y2425*
X6007Y2434*
X5999Y2442*
X5990Y2447*
X5980Y2450*
G37*
G36*
X5970D02*
X5969D01*
X5959Y2447*
X5950Y2442*
X5942Y2434*
X5937Y2425*
X5935Y2415*
Y2415*
X5970*
Y2450*
G37*
G36*
X5180D02*
X5145D01*
Y2415*
X5145*
X5155Y2417*
X5164Y2422*
X5172Y2430*
X5177Y2439*
X5180Y2449*
Y2450*
G37*
G36*
X5135D02*
X5100D01*
Y2449*
X5102Y2439*
X5107Y2430*
X5115Y2422*
X5124Y2417*
X5134Y2415*
X5135*
Y2450*
G37*
G36*
X4925Y2427D02*
Y2405D01*
X4947*
X4945Y2410*
X4942Y2417*
X4937Y2422*
X4930Y2425*
X4925Y2427*
G37*
G36*
X4915D02*
X4909Y2425D01*
X4902Y2422*
X4897Y2417*
X4894Y2410*
X4892Y2405*
X4915*
Y2427*
G37*
G36*
X4576Y2465D02*
X4521D01*
X4523Y2459*
X4526Y2452*
X4531Y2447*
X4538Y2444*
X4544Y2442*
X4545Y2439*
X4546Y2437*
X4543Y2431*
X4541Y2423*
Y2416*
X4543Y2408*
X4546Y2402*
X4552Y2396*
X4558Y2393*
X4566Y2391*
X4573*
X4581Y2393*
X4587Y2396*
X4593Y2402*
X4596Y2408*
X4598Y2416*
Y2423*
X4596Y2431*
X4593Y2437*
X4587Y2443*
X4581Y2446*
X4574Y2448*
X4572Y2450*
X4571Y2453*
X4574Y2459*
X4576Y2465*
G37*
G36*
X4765Y2406D02*
X4743D01*
Y2384*
X4748Y2385*
X4755Y2389*
X4760Y2394*
X4764Y2400*
X4765Y2406*
G37*
G36*
X4733D02*
X4710D01*
X4712Y2400*
X4716Y2394*
X4721Y2389*
X4727Y2385*
X4733Y2384*
Y2406*
G37*
G36*
X4673Y2438D02*
X4666D01*
X4658Y2436*
X4652Y2433*
X4646Y2427*
X4643Y2421*
X4641Y2413*
Y2406*
X4643Y2398*
X4646Y2392*
X4652Y2386*
X4658Y2383*
X4666Y2381*
X4673*
X4681Y2383*
X4687Y2386*
X4693Y2392*
X4696Y2398*
X4698Y2406*
Y2413*
X4696Y2421*
X4693Y2427*
X4687Y2433*
X4681Y2436*
X4673Y2438*
G37*
G36*
X4947Y2395D02*
X4925D01*
Y2372*
X4930Y2374*
X4937Y2377*
X4942Y2382*
X4945Y2389*
X4947Y2395*
G37*
G36*
X4915D02*
X4892D01*
X4894Y2389*
X4897Y2382*
X4902Y2377*
X4909Y2374*
X4915Y2372*
Y2395*
G37*
G36*
X6015Y2405D02*
X5980D01*
Y2370*
X5980*
X5990Y2372*
X5999Y2377*
X6007Y2385*
X6012Y2394*
X6015Y2404*
Y2405*
G37*
G36*
X5970D02*
X5935D01*
Y2404*
X5937Y2394*
X5942Y2385*
X5950Y2377*
X5959Y2372*
X5969Y2370*
X5970*
Y2405*
G37*
G36*
X4523Y2378D02*
X4516D01*
X4508Y2376*
X4502Y2373*
X4496Y2367*
X4493Y2361*
X4487Y2359*
X4485Y2362*
X4477Y2366*
X4469Y2368*
X4461*
X4453Y2366*
X4446Y2362*
X4445Y2361*
X4440Y2362*
X4440Y2362*
X4434Y2368*
X4427Y2372*
X4419Y2374*
X4410*
X4402Y2372*
X4395Y2368*
X4389Y2362*
X4385Y2355*
X4383Y2347*
Y2338*
X4385Y2330*
X4389Y2323*
X4395Y2317*
X4402Y2313*
X4410Y2311*
X4419*
X4427Y2313*
X4434Y2317*
X4435Y2318*
X4440Y2317*
X4440Y2317*
X4446Y2311*
X4453Y2306*
X4461Y2304*
X4469*
X4477Y2306*
X4485Y2311*
X4491Y2317*
X4495Y2324*
X4496Y2327*
X4500Y2328*
X4502Y2326*
X4508Y2323*
X4516Y2321*
X4523*
X4531Y2323*
X4537Y2326*
X4543Y2332*
X4546Y2338*
X4548Y2346*
Y2353*
X4546Y2361*
X4543Y2367*
X4537Y2373*
X4531Y2376*
X4523Y2378*
G37*
G36*
X4327Y2420D02*
X4318D01*
X4310Y2418*
X4303Y2414*
X4297Y2408*
X4293Y2401*
X4291Y2393*
Y2384*
X4293Y2376*
X4297Y2369*
X4303Y2363*
X4310Y2359*
X4318Y2357*
X4327*
X4335Y2359*
X4342Y2363*
X4348Y2369*
X4352Y2376*
X4354Y2384*
Y2393*
X4352Y2401*
X4348Y2408*
X4342Y2414*
X4335Y2418*
X4327Y2420*
G37*
G36*
X4246Y2444D02*
X4191D01*
X4193Y2438*
X4196Y2431*
X4201Y2426*
X4208Y2423*
X4213Y2421*
Y2416*
X4209Y2415*
X4202Y2411*
X4196Y2405*
X4192Y2398*
X4190Y2390*
Y2381*
X4192Y2373*
X4196Y2366*
X4202Y2360*
X4209Y2356*
X4217Y2354*
X4226*
X4234Y2356*
X4241Y2360*
X4247Y2366*
X4251Y2373*
X4253Y2381*
Y2390*
X4251Y2398*
X4247Y2405*
X4241Y2411*
X4234Y2415*
X4227Y2417*
Y2422*
X4229Y2423*
X4236Y2426*
X4241Y2431*
X4244Y2438*
X4246Y2444*
G37*
G36*
X425Y2385D02*
X425D01*
Y2350*
X460*
Y2350*
X457Y2360*
X452Y2369*
X444Y2377*
X435Y2382*
X425Y2385*
G37*
G36*
X415D02*
X414D01*
X404Y2382*
X395Y2377*
X387Y2369*
X382Y2360*
X380Y2350*
Y2350*
X415*
Y2385*
G37*
G36*
X605Y2432D02*
X594D01*
X583Y2430*
X573Y2424*
X565Y2416*
X559Y2406*
X557Y2395*
Y2384*
X559Y2373*
X565Y2363*
X573Y2355*
X583Y2349*
X594Y2347*
X605*
X616Y2349*
X626Y2355*
X634Y2363*
X640Y2373*
X642Y2384*
Y2395*
X640Y2406*
X634Y2416*
X626Y2424*
X616Y2430*
X605Y2432*
G37*
G36*
X991Y2445D02*
X978D01*
X965Y2441*
X954Y2435*
X944Y2425*
X938Y2414*
X935Y2401*
Y2388*
X938Y2375*
X944Y2364*
X954Y2354*
X965Y2348*
X978Y2345*
X991*
X1004Y2348*
X1015Y2354*
X1025Y2364*
X1031Y2375*
X1035Y2388*
Y2401*
X1031Y2414*
X1025Y2425*
X1015Y2435*
X1004Y2441*
X991Y2445*
G37*
G36*
X861Y2363D02*
Y2341D01*
X883*
X882Y2347*
X878Y2353*
X873Y2358*
X867Y2362*
X861Y2363*
G37*
G36*
X851D02*
X845Y2362D01*
X839Y2358*
X834Y2353*
X830Y2347*
X829Y2341*
X851*
Y2363*
G37*
G36*
X5293Y2388D02*
X5286D01*
X5278Y2386*
X5272Y2383*
X5266Y2377*
X5263Y2371*
X5261Y2363*
Y2356*
X5263Y2348*
X5266Y2342*
X5272Y2336*
X5278Y2333*
X5286Y2331*
X5293*
X5301Y2333*
X5307Y2336*
X5313Y2342*
X5316Y2348*
X5318Y2356*
Y2363*
X5316Y2371*
X5313Y2377*
X5307Y2383*
X5301Y2386*
X5293Y2388*
G37*
G36*
X2065Y2365D02*
X2065D01*
Y2330*
X2100*
Y2330*
X2097Y2340*
X2092Y2349*
X2084Y2357*
X2075Y2362*
X2065Y2365*
G37*
G36*
X2055D02*
X2054D01*
X2044Y2362*
X2035Y2357*
X2027Y2349*
X2022Y2340*
X2020Y2330*
Y2330*
X2055*
Y2365*
G37*
G36*
X3100Y2360D02*
X3100D01*
Y2325*
X3135*
Y2325*
X3132Y2335*
X3127Y2344*
X3119Y2352*
X3110Y2357*
X3100Y2360*
G37*
G36*
X3090D02*
X3089D01*
X3079Y2357*
X3070Y2352*
X3062Y2344*
X3057Y2335*
X3055Y2325*
Y2325*
X3090*
Y2360*
G37*
G36*
X2395D02*
X2395D01*
Y2325*
X2430*
Y2325*
X2427Y2335*
X2422Y2344*
X2414Y2352*
X2405Y2357*
X2395Y2360*
G37*
G36*
X2385D02*
X2384D01*
X2374Y2357*
X2365Y2352*
X2357Y2344*
X2352Y2335*
X2350Y2325*
Y2325*
X2385*
Y2360*
G37*
G36*
X883Y2331D02*
X861D01*
Y2309*
X867Y2310*
X873Y2314*
X878Y2319*
X882Y2325*
X883Y2331*
G37*
G36*
X851D02*
X829D01*
X830Y2325*
X834Y2319*
X839Y2314*
X845Y2310*
X851Y2309*
Y2331*
G37*
G36*
X4627Y2382D02*
X4618D01*
X4610Y2380*
X4603Y2376*
X4597Y2370*
X4593Y2363*
X4591Y2355*
Y2346*
X4593Y2338*
X4597Y2331*
X4603Y2325*
X4610Y2321*
X4618Y2319*
X4627*
X4629Y2319*
X4630Y2318*
X4636Y2312*
X4642Y2309*
X4650Y2307*
X4657*
X4665Y2309*
X4671Y2312*
X4677Y2318*
X4680Y2324*
X4682Y2332*
Y2339*
X4680Y2347*
X4677Y2353*
X4671Y2359*
X4665Y2362*
X4657Y2364*
X4651*
X4648Y2370*
X4642Y2376*
X4635Y2380*
X4627Y2382*
G37*
G36*
X460Y2340D02*
X425D01*
Y2305*
X425*
X435Y2307*
X444Y2312*
X452Y2320*
X457Y2329*
X460Y2339*
Y2340*
G37*
G36*
X415D02*
X380D01*
Y2339*
X382Y2329*
X387Y2320*
X395Y2312*
X404Y2307*
X414Y2305*
X415*
Y2340*
G37*
G36*
X3455Y2330D02*
X3455D01*
Y2295*
X3490*
Y2295*
X3487Y2305*
X3482Y2314*
X3474Y2322*
X3465Y2327*
X3455Y2330*
G37*
G36*
X3445D02*
X3444D01*
X3434Y2327*
X3425Y2322*
X3417Y2314*
X3412Y2305*
X3410Y2295*
Y2295*
X3445*
Y2330*
G37*
G36*
X605Y2322D02*
Y2295D01*
X632*
X630Y2302*
X626Y2310*
X620Y2316*
X612Y2320*
X605Y2322*
G37*
G36*
X595D02*
X587Y2320D01*
X579Y2316*
X573Y2310*
X569Y2302*
X567Y2295*
X595*
Y2322*
G37*
G36*
X2100Y2320D02*
X2065D01*
Y2285*
X2065*
X2075Y2287*
X2084Y2292*
X2092Y2300*
X2097Y2309*
X2100Y2319*
Y2320*
G37*
G36*
X2055D02*
X2020D01*
Y2319*
X2022Y2309*
X2027Y2300*
X2035Y2292*
X2044Y2287*
X2054Y2285*
X2055*
Y2320*
G37*
G36*
X3135Y2315D02*
X3100D01*
Y2280*
X3100*
X3110Y2282*
X3119Y2287*
X3127Y2295*
X3132Y2304*
X3135Y2314*
Y2315*
G37*
G36*
X3090D02*
X3055D01*
Y2314*
X3057Y2304*
X3062Y2295*
X3070Y2287*
X3079Y2282*
X3089Y2280*
X3090*
Y2315*
G37*
G36*
X2430D02*
X2395D01*
Y2280*
X2395*
X2405Y2282*
X2414Y2287*
X2422Y2295*
X2427Y2304*
X2430Y2314*
Y2315*
G37*
G36*
X2385D02*
X2350D01*
Y2314*
X2352Y2304*
X2357Y2295*
X2365Y2287*
X2374Y2282*
X2384Y2280*
X2385*
Y2315*
G37*
G36*
X632Y2285D02*
X605D01*
Y2257*
X612Y2259*
X620Y2263*
X626Y2269*
X630Y2277*
X632Y2285*
G37*
G36*
X595D02*
X567D01*
X569Y2277*
X573Y2269*
X579Y2263*
X587Y2259*
X595Y2257*
Y2285*
G37*
G36*
X3490D02*
X3455D01*
Y2250*
X3455*
X3465Y2252*
X3474Y2257*
X3482Y2265*
X3487Y2274*
X3490Y2284*
Y2285*
G37*
G36*
X3445D02*
X3410D01*
Y2284*
X3412Y2274*
X3417Y2265*
X3425Y2257*
X3434Y2252*
X3444Y2250*
X3445*
Y2285*
G37*
G36*
X4107Y2264D02*
Y2242D01*
X4129*
X4127Y2247*
X4124Y2254*
X4119Y2259*
X4112Y2262*
X4107Y2264*
G37*
G36*
X4097D02*
X4091Y2262D01*
X4084Y2259*
X4079Y2254*
X4076Y2247*
X4074Y2242*
X4097*
Y2264*
G37*
G36*
X863Y2259D02*
Y2236D01*
X885*
X884Y2242*
X880Y2248*
X875Y2253*
X868Y2257*
X863Y2259*
G37*
G36*
X853D02*
X847Y2257D01*
X841Y2253*
X836Y2248*
X832Y2242*
X830Y2236*
X853*
Y2259*
G37*
G36*
X4450Y2256D02*
Y2233D01*
X4473*
X4471Y2239*
X4468Y2245*
X4462Y2251*
X4456Y2254*
X4450Y2256*
G37*
G36*
X4440D02*
X4435Y2254D01*
X4428Y2251*
X4423Y2245*
X4420Y2239*
X4418Y2233*
X4440*
Y2256*
G37*
G36*
X4647Y2256D02*
Y2233D01*
X4670*
X4668Y2239*
X4664Y2245*
X4659Y2250*
X4653Y2254*
X4647Y2256*
G37*
G36*
X4637D02*
X4632Y2254D01*
X4625Y2250*
X4620Y2245*
X4616Y2239*
X4615Y2233*
X4637*
Y2256*
G37*
G36*
X4935Y2338D02*
X4926D01*
X4916Y2336*
X4907Y2331*
X4900Y2324*
X4895Y2315*
X4893Y2305*
Y2296*
X4895Y2286*
X4900Y2277*
X4902Y2276*
X4901Y2271*
X4901Y2271*
X4895Y2265*
X4891Y2257*
X4889Y2249*
Y2241*
X4891Y2233*
X4895Y2226*
X4901Y2220*
X4908Y2216*
X4916Y2213*
X4919*
X4921Y2211*
X4965*
X4961Y2218*
X4955Y2225*
X4952Y2226*
X4950Y2232*
X4950Y2233*
X4952Y2241*
Y2249*
X4950Y2257*
X4948Y2261*
X4949Y2268*
X4954Y2270*
X4961Y2277*
X4966Y2286*
X4968Y2296*
Y2305*
X4966Y2315*
X4961Y2324*
X4954Y2331*
X4945Y2336*
X4935Y2338*
G37*
G36*
X4349Y2233D02*
Y2211D01*
X4371*
X4370Y2217*
X4366Y2223*
X4361Y2228*
X4355Y2232*
X4349Y2233*
G37*
G36*
X4339D02*
X4333Y2232D01*
X4327Y2228*
X4322Y2223*
X4318Y2217*
X4317Y2211*
X4339*
Y2233*
G37*
G36*
X1835Y2245D02*
X1835D01*
Y2210*
X1870*
Y2210*
X1867Y2220*
X1862Y2229*
X1854Y2237*
X1845Y2242*
X1835Y2245*
G37*
G36*
X1825D02*
X1824D01*
X1814Y2242*
X1805Y2237*
X1797Y2229*
X1792Y2220*
X1790Y2210*
Y2210*
X1825*
Y2245*
G37*
G36*
X425D02*
X425D01*
Y2210*
X460*
Y2210*
X457Y2220*
X452Y2229*
X444Y2237*
X435Y2242*
X425Y2245*
G37*
G36*
X415D02*
X414D01*
X404Y2242*
X395Y2237*
X387Y2229*
X382Y2220*
X380Y2210*
Y2210*
X415*
Y2245*
G37*
G36*
X4129Y2232D02*
X4107D01*
Y2209*
X4112Y2211*
X4119Y2214*
X4124Y2219*
X4127Y2226*
X4129Y2232*
G37*
G36*
X4097D02*
X4074D01*
X4076Y2226*
X4079Y2219*
X4084Y2214*
X4091Y2211*
X4097Y2209*
Y2232*
G37*
G36*
X4567Y2264D02*
X4560D01*
X4552Y2262*
X4546Y2259*
X4540Y2253*
X4537Y2247*
X4535Y2239*
Y2232*
X4537Y2224*
X4540Y2218*
X4546Y2212*
X4552Y2209*
X4560Y2207*
X4567*
X4575Y2209*
X4581Y2212*
X4587Y2218*
X4590Y2224*
X4592Y2232*
Y2239*
X4590Y2247*
X4587Y2253*
X4581Y2259*
X4575Y2262*
X4567Y2264*
G37*
G36*
X885Y2226D02*
X863D01*
Y2204*
X868Y2205*
X875Y2209*
X880Y2214*
X884Y2221*
X885Y2226*
G37*
G36*
X853D02*
X830D01*
X832Y2221*
X836Y2214*
X841Y2209*
X847Y2205*
X853Y2204*
Y2226*
G37*
G36*
X4473Y2223D02*
X4450D01*
Y2201*
X4456Y2203*
X4462Y2206*
X4468Y2211*
X4471Y2218*
X4473Y2223*
G37*
G36*
X4440D02*
X4418D01*
X4420Y2218*
X4423Y2211*
X4428Y2206*
X4435Y2203*
X4440Y2201*
Y2223*
G37*
G36*
X4670Y2223D02*
X4647D01*
Y2201*
X4653Y2202*
X4659Y2206*
X4664Y2211*
X4668Y2218*
X4670Y2223*
G37*
G36*
X4637D02*
X4615D01*
X4616Y2218*
X4620Y2211*
X4625Y2206*
X4632Y2202*
X4637Y2201*
Y2223*
G37*
G36*
X4715Y2258D02*
X4708D01*
X4700Y2256*
X4694Y2253*
X4688Y2247*
X4685Y2241*
X4683Y2233*
Y2226*
X4685Y2218*
X4688Y2212*
X4694Y2206*
X4700Y2203*
X4708Y2201*
X4715*
X4723Y2203*
X4729Y2206*
X4735Y2212*
X4738Y2218*
X4740Y2226*
Y2233*
X4738Y2241*
X4735Y2247*
X4729Y2253*
X4723Y2256*
X4715Y2258*
G37*
G36*
X5975Y2225D02*
X5975D01*
Y2190*
X6010*
Y2190*
X6007Y2200*
X6002Y2209*
X5994Y2217*
X5985Y2222*
X5975Y2225*
G37*
G36*
X5965D02*
X5964D01*
X5954Y2222*
X5945Y2217*
X5937Y2209*
X5932Y2200*
X5930Y2190*
Y2190*
X5965*
Y2225*
G37*
G36*
X4965Y2201D02*
X4948D01*
Y2185*
X4955Y2188*
X4961Y2194*
X4965Y2201*
G37*
G36*
X4938D02*
X4921D01*
X4924Y2194*
X4931Y2188*
X4938Y2185*
Y2201*
G37*
G36*
X4371D02*
X4349D01*
Y2179*
X4355Y2180*
X4361Y2184*
X4366Y2189*
X4370Y2195*
X4371Y2201*
G37*
G36*
X4339D02*
X4317D01*
X4318Y2195*
X4322Y2189*
X4327Y2184*
X4333Y2180*
X4339Y2179*
Y2201*
G37*
G36*
X4778Y2184D02*
X4771D01*
X4763Y2182*
X4757Y2179*
X4757Y2178*
X4752Y2181*
X4744Y2183*
X4737*
X4729Y2181*
X4723Y2178*
X4717Y2172*
X4714Y2166*
X4712Y2158*
Y2151*
X4714Y2143*
X4717Y2137*
X4723Y2131*
X4729Y2128*
X4737Y2126*
X4744*
X4745Y2126*
X4750Y2122*
Y2117*
X4752Y2109*
X4755Y2103*
X4761Y2097*
X4767Y2094*
X4772Y2092*
X4775Y2088*
X4775Y2087*
X4773Y2083*
X4771Y2076*
Y2068*
X4773Y2061*
X4777Y2054*
X4782Y2049*
X4789Y2045*
X4796Y2043*
X4804*
X4811Y2045*
X4818Y2049*
X4823Y2054*
X4827Y2061*
X4829Y2068*
Y2076*
X4827Y2083*
X4823Y2090*
X4818Y2095*
X4811Y2099*
X4806Y2100*
X4803Y2105*
X4803Y2106*
X4805Y2109*
X4807Y2117*
Y2124*
X4805Y2132*
X4802Y2138*
X4799Y2141*
X4801Y2144*
X4803Y2152*
Y2159*
X4801Y2167*
X4798Y2173*
X4792Y2179*
X4786Y2182*
X4778Y2184*
G37*
G36*
X4187Y2264D02*
X4178D01*
X4170Y2262*
X4163Y2258*
X4157Y2252*
X4153Y2245*
X4151Y2237*
Y2228*
X4153Y2220*
X4157Y2213*
X4163Y2207*
X4170Y2203*
X4178Y2201*
X4187*
X4193Y2202*
X4197Y2200*
X4198Y2199*
Y2195*
X4200Y2187*
X4204Y2180*
X4210Y2174*
X4217Y2170*
X4225Y2168*
X4234*
X4242Y2170*
X4249Y2174*
X4255Y2180*
X4259Y2187*
X4261Y2195*
Y2204*
X4259Y2212*
X4255Y2219*
X4249Y2225*
X4242Y2229*
X4234Y2231*
X4225*
X4219Y2230*
X4215Y2232*
X4214Y2233*
Y2237*
X4212Y2245*
X4208Y2252*
X4202Y2258*
X4195Y2262*
X4187Y2264*
G37*
G36*
X1870Y2200D02*
X1835D01*
Y2165*
X1835*
X1845Y2167*
X1854Y2172*
X1862Y2180*
X1867Y2189*
X1870Y2199*
Y2200*
G37*
G36*
X1825D02*
X1790D01*
Y2199*
X1792Y2189*
X1797Y2180*
X1805Y2172*
X1814Y2167*
X1824Y2165*
X1825*
Y2200*
G37*
G36*
X1285D02*
X1285D01*
Y2165*
X1320*
Y2165*
X1317Y2175*
X1312Y2184*
X1304Y2192*
X1295Y2197*
X1285Y2200*
G37*
G36*
X1275D02*
X1274D01*
X1264Y2197*
X1255Y2192*
X1247Y2184*
X1242Y2175*
X1240Y2165*
Y2165*
X1275*
Y2200*
G37*
G36*
X460D02*
X425D01*
Y2165*
X425*
X435Y2167*
X444Y2172*
X452Y2180*
X457Y2189*
X460Y2199*
Y2200*
G37*
G36*
X415D02*
X380D01*
Y2199*
X382Y2189*
X387Y2180*
X395Y2172*
X404Y2167*
X414Y2165*
X415*
Y2200*
G37*
G36*
X605Y2232D02*
X594D01*
X583Y2230*
X573Y2224*
X565Y2216*
X559Y2206*
X557Y2195*
Y2184*
X559Y2173*
X565Y2163*
X573Y2155*
X583Y2149*
X594Y2147*
X605*
X616Y2149*
X626Y2155*
X634Y2163*
X640Y2173*
X642Y2184*
Y2195*
X640Y2206*
X634Y2216*
X626Y2224*
X616Y2230*
X605Y2232*
G37*
G36*
X6010Y2180D02*
X5975D01*
Y2145*
X5975*
X5985Y2147*
X5994Y2152*
X6002Y2160*
X6007Y2169*
X6010Y2179*
Y2180*
G37*
G36*
X5965D02*
X5930D01*
Y2179*
X5932Y2169*
X5937Y2160*
X5945Y2152*
X5954Y2147*
X5964Y2145*
X5965*
Y2180*
G37*
G36*
X5263Y2188D02*
X5256D01*
X5248Y2186*
X5242Y2183*
X5236Y2177*
X5233Y2171*
X5231Y2163*
Y2156*
X5233Y2148*
X5236Y2142*
X5242Y2136*
X5248Y2133*
X5256Y2131*
X5263*
X5271Y2133*
X5277Y2136*
X5283Y2142*
X5286Y2148*
X5288Y2156*
Y2163*
X5286Y2171*
X5283Y2177*
X5277Y2183*
X5271Y2186*
X5263Y2188*
G37*
G36*
X1320Y2155D02*
X1285D01*
Y2120*
X1285*
X1295Y2122*
X1304Y2127*
X1312Y2135*
X1317Y2144*
X1320Y2154*
Y2155*
G37*
G36*
X1275D02*
X1240D01*
Y2154*
X1242Y2144*
X1247Y2135*
X1255Y2127*
X1264Y2122*
X1274Y2120*
X1275*
Y2155*
G37*
G36*
X4686Y2147D02*
X4678D01*
X4671Y2145*
X4664Y2141*
X4659Y2136*
X4655Y2129*
X4654Y2126*
X4651Y2125*
X4645Y2122*
X4639Y2116*
X4636Y2110*
X4634Y2102*
Y2095*
X4636Y2087*
X4639Y2081*
X4645Y2075*
X4651Y2072*
X4659Y2070*
X4666*
X4674Y2072*
X4680Y2075*
X4686Y2081*
X4689Y2087*
X4690Y2090*
X4693Y2091*
X4700Y2095*
X4705Y2100*
X4709Y2107*
X4711Y2114*
Y2122*
X4709Y2129*
X4705Y2136*
X4700Y2141*
X4693Y2145*
X4686Y2147*
G37*
G36*
X4573Y2168D02*
X4566D01*
X4558Y2166*
X4552Y2163*
X4546Y2157*
X4543Y2151*
X4541Y2143*
Y2136*
X4543Y2128*
X4546Y2122*
X4548Y2120*
X4547Y2117*
X4542Y2112*
X4538Y2105*
X4536Y2098*
Y2090*
X4538Y2083*
X4542Y2076*
X4547Y2071*
X4546Y2066*
X4543Y2061*
X4541Y2053*
Y2046*
X4543Y2038*
X4546Y2032*
X4552Y2026*
X4558Y2023*
X4566Y2021*
X4573*
X4581Y2023*
X4587Y2026*
X4593Y2032*
X4596Y2038*
X4598Y2046*
Y2053*
X4596Y2061*
X4593Y2067*
X4587Y2073*
X4589Y2077*
X4592Y2083*
X4594Y2090*
Y2098*
X4592Y2105*
X4588Y2112*
X4587Y2113*
X4587Y2116*
X4593Y2122*
X4596Y2128*
X4598Y2136*
Y2143*
X4596Y2151*
X4593Y2157*
X4587Y2163*
X4581Y2166*
X4573Y2168*
G37*
G36*
X5323Y2038D02*
X5316D01*
X5308Y2036*
X5302Y2033*
X5296Y2027*
X5293Y2021*
X5291Y2016*
X5290Y2015*
X5286Y2013*
X5286Y2013*
X5281Y2016*
X5273Y2018*
X5266*
X5258Y2016*
X5252Y2013*
X5246Y2007*
X5243Y2001*
X5241Y1993*
Y1986*
X5243Y1978*
X5246Y1972*
X5252Y1966*
X5258Y1963*
X5266Y1961*
X5273*
X5281Y1963*
X5287Y1966*
X5293Y1972*
X5296Y1978*
X5298Y1983*
X5299Y1984*
X5303Y1986*
X5303Y1986*
X5308Y1983*
X5316Y1981*
X5323*
X5331Y1983*
X5337Y1986*
X5343Y1992*
X5346Y1998*
X5348Y2006*
Y2013*
X5346Y2021*
X5343Y2027*
X5337Y2033*
X5331Y2036*
X5323Y2038*
G37*
G36*
X730Y2045D02*
X730D01*
Y2010*
X765*
Y2010*
X762Y2020*
X757Y2029*
X749Y2037*
X740Y2042*
X730Y2045*
G37*
G36*
X720D02*
X719D01*
X709Y2042*
X700Y2037*
X692Y2029*
X687Y2020*
X685Y2010*
Y2010*
X720*
Y2045*
G37*
G36*
X2485Y2035D02*
X2485D01*
Y2000*
X2520*
Y2000*
X2517Y2010*
X2512Y2019*
X2504Y2027*
X2495Y2032*
X2485Y2035*
G37*
G36*
X2475D02*
X2474D01*
X2464Y2032*
X2455Y2027*
X2447Y2019*
X2442Y2010*
X2440Y2000*
Y2000*
X2475*
Y2035*
G37*
G36*
X2255D02*
X2255D01*
Y2000*
X2290*
Y2000*
X2287Y2010*
X2282Y2019*
X2274Y2027*
X2265Y2032*
X2255Y2035*
G37*
G36*
X2245D02*
X2244D01*
X2234Y2032*
X2225Y2027*
X2217Y2019*
X2212Y2010*
X2210Y2000*
Y2000*
X2245*
Y2035*
G37*
G36*
X765Y2000D02*
X730D01*
Y1965*
X730*
X740Y1967*
X749Y1972*
X757Y1980*
X762Y1989*
X765Y1999*
Y2000*
G37*
G36*
X720D02*
X685D01*
Y1999*
X687Y1989*
X692Y1980*
X700Y1972*
X709Y1967*
X719Y1965*
X720*
Y2000*
G37*
G36*
X2520Y1990D02*
X2485D01*
Y1955*
X2485*
X2495Y1957*
X2504Y1962*
X2512Y1970*
X2517Y1979*
X2520Y1989*
Y1990*
G37*
G36*
X2475D02*
X2440D01*
Y1989*
X2442Y1979*
X2447Y1970*
X2455Y1962*
X2464Y1957*
X2474Y1955*
X2475*
Y1990*
G37*
G36*
X2290D02*
X2255D01*
Y1955*
X2255*
X2265Y1957*
X2274Y1962*
X2282Y1970*
X2287Y1979*
X2290Y1989*
Y1990*
G37*
G36*
X2245D02*
X2210D01*
Y1989*
X2212Y1979*
X2217Y1970*
X2225Y1962*
X2234Y1957*
X2244Y1955*
X2245*
Y1990*
G37*
G36*
X990D02*
X990D01*
Y1955*
X1025*
Y1955*
X1022Y1965*
X1017Y1974*
X1009Y1982*
X1000Y1987*
X990Y1990*
G37*
G36*
X980D02*
X979D01*
X969Y1987*
X960Y1982*
X952Y1974*
X947Y1965*
X945Y1955*
Y1955*
X980*
Y1990*
G37*
G36*
X4603Y1998D02*
X4596D01*
X4588Y1996*
X4582Y1993*
X4576Y1987*
X4573Y1981*
X4571Y1973*
Y1966*
X4573Y1958*
X4570Y1954*
X4567Y1953*
X4567Y1953*
X4561Y1954*
X4561Y1956*
X4557Y1963*
X4552Y1968*
X4545Y1972*
X4538Y1974*
X4530*
X4523Y1972*
X4516Y1968*
X4511Y1963*
X4507Y1956*
X4505Y1949*
Y1941*
X4507Y1934*
X4511Y1927*
X4516Y1922*
X4523Y1918*
X4530Y1916*
X4538*
X4545Y1918*
X4552Y1922*
X4552Y1922*
X4557Y1920*
X4558Y1918*
X4561Y1912*
X4567Y1906*
X4573Y1903*
X4581Y1901*
X4588*
X4596Y1903*
X4602Y1906*
X4608Y1912*
X4611Y1918*
X4613Y1926*
Y1933*
X4611Y1941*
X4614Y1945*
X4617Y1946*
X4623Y1952*
X4626Y1958*
X4628Y1966*
Y1973*
X4626Y1981*
X4623Y1987*
X4617Y1993*
X4611Y1996*
X4603Y1998*
G37*
G36*
X1240Y1960D02*
X1240D01*
Y1925*
X1275*
Y1925*
X1272Y1935*
X1267Y1944*
X1259Y1952*
X1250Y1957*
X1240Y1960*
G37*
G36*
X1230D02*
X1229D01*
X1219Y1957*
X1210Y1952*
X1202Y1944*
X1197Y1935*
X1195Y1925*
Y1925*
X1230*
Y1960*
G37*
G36*
X505D02*
X505D01*
Y1925*
X540*
Y1925*
X537Y1935*
X532Y1944*
X524Y1952*
X515Y1957*
X505Y1960*
G37*
G36*
X495D02*
X494D01*
X484Y1957*
X475Y1952*
X467Y1944*
X462Y1935*
X460Y1925*
Y1925*
X495*
Y1960*
G37*
G36*
X2835Y1955D02*
X2835D01*
Y1920*
X2870*
Y1920*
X2867Y1931*
X2862Y1940*
X2854Y1947*
X2845Y1952*
X2835Y1955*
G37*
G36*
X2825D02*
X2824D01*
X2814Y1952*
X2805Y1947*
X2798Y1940*
X2792Y1931*
X2790Y1920*
Y1920*
X2825*
Y1955*
G37*
G36*
X5985Y1955D02*
X5985D01*
Y1920*
X6020*
Y1920*
X6017Y1930*
X6012Y1939*
X6004Y1947*
X5995Y1952*
X5985Y1955*
G37*
G36*
X5975D02*
X5974D01*
X5964Y1952*
X5955Y1947*
X5947Y1939*
X5942Y1930*
X5940Y1920*
Y1920*
X5975*
Y1955*
G37*
G36*
X1535Y1950D02*
X1535D01*
Y1915*
X1570*
Y1915*
X1567Y1925*
X1562Y1934*
X1554Y1942*
X1545Y1947*
X1535Y1950*
G37*
G36*
X1525D02*
X1524D01*
X1514Y1947*
X1505Y1942*
X1497Y1934*
X1492Y1925*
X1490Y1915*
Y1915*
X1525*
Y1950*
G37*
G36*
X1025Y1945D02*
X990D01*
Y1910*
X990*
X1000Y1912*
X1009Y1917*
X1017Y1925*
X1022Y1934*
X1025Y1944*
Y1945*
G37*
G36*
X980D02*
X945D01*
Y1944*
X947Y1934*
X952Y1925*
X960Y1917*
X969Y1912*
X979Y1910*
X980*
Y1945*
G37*
G36*
X1275Y1915D02*
X1240D01*
Y1880*
X1240*
X1250Y1882*
X1259Y1887*
X1267Y1895*
X1272Y1904*
X1275Y1914*
Y1915*
G37*
G36*
X1230D02*
X1195D01*
Y1914*
X1197Y1904*
X1202Y1895*
X1210Y1887*
X1219Y1882*
X1229Y1880*
X1230*
Y1915*
G37*
G36*
X540D02*
X505D01*
Y1880*
X505*
X515Y1882*
X524Y1887*
X532Y1895*
X537Y1904*
X540Y1914*
Y1915*
G37*
G36*
X495D02*
X460D01*
Y1914*
X462Y1904*
X467Y1895*
X475Y1887*
X484Y1882*
X494Y1880*
X495*
Y1915*
G37*
G36*
X2870Y1910D02*
X2835D01*
Y1875*
X2835*
X2845Y1878*
X2854Y1883*
X2862Y1891*
X2867Y1900*
X2870Y1910*
Y1910*
G37*
G36*
X2825D02*
X2790D01*
Y1910*
X2792Y1900*
X2798Y1891*
X2805Y1883*
X2814Y1878*
X2824Y1875*
X2825*
Y1910*
G37*
G36*
X6020Y1910D02*
X5985D01*
Y1875*
X5985*
X5995Y1877*
X6004Y1882*
X6012Y1890*
X6017Y1899*
X6020Y1909*
Y1910*
G37*
G36*
X5975D02*
X5940D01*
Y1909*
X5942Y1899*
X5947Y1890*
X5955Y1882*
X5964Y1877*
X5974Y1875*
X5975*
Y1910*
G37*
G36*
X1570Y1905D02*
X1535D01*
Y1870*
X1535*
X1545Y1872*
X1554Y1877*
X1562Y1885*
X1567Y1894*
X1570Y1904*
Y1905*
G37*
G36*
X1525D02*
X1490D01*
Y1904*
X1492Y1894*
X1497Y1885*
X1505Y1877*
X1514Y1872*
X1524Y1870*
X1525*
Y1905*
G37*
G36*
X3420Y1885D02*
X3420D01*
Y1850*
X3455*
Y1850*
X3452Y1860*
X3447Y1869*
X3439Y1877*
X3430Y1882*
X3420Y1885*
G37*
G36*
X3410D02*
X3409D01*
X3399Y1882*
X3390Y1877*
X3382Y1869*
X3377Y1860*
X3375Y1850*
Y1850*
X3410*
Y1885*
G37*
G36*
X2975Y1880D02*
X2975D01*
Y1845*
X3010*
Y1845*
X3007Y1855*
X3002Y1864*
X2994Y1872*
X2985Y1877*
X2975Y1880*
G37*
G36*
X2965D02*
X2964D01*
X2954Y1877*
X2945Y1872*
X2937Y1864*
X2932Y1855*
X2930Y1845*
Y1845*
X2965*
Y1880*
G37*
G36*
X4461Y1900D02*
X4454D01*
X4446Y1898*
X4440Y1894*
X4435Y1889*
X4431Y1883*
X4429Y1875*
Y1868*
X4431Y1860*
X4435Y1854*
X4440Y1848*
X4446Y1845*
X4454Y1843*
X4461*
X4469Y1845*
X4475Y1848*
X4481Y1854*
X4485Y1860*
X4486Y1868*
Y1875*
X4485Y1883*
X4481Y1889*
X4475Y1894*
X4469Y1898*
X4461Y1900*
G37*
G36*
X2555Y1870D02*
X2555D01*
Y1835*
X2590*
Y1835*
X2587Y1845*
X2582Y1854*
X2574Y1862*
X2565Y1867*
X2555Y1870*
G37*
G36*
X2545D02*
X2544D01*
X2534Y1867*
X2525Y1862*
X2517Y1854*
X2512Y1845*
X2510Y1835*
Y1835*
X2545*
Y1870*
G37*
G36*
X2165D02*
X2165D01*
Y1835*
X2200*
Y1835*
X2197Y1845*
X2192Y1854*
X2184Y1862*
X2175Y1867*
X2165Y1870*
G37*
G36*
X2155D02*
X2154D01*
X2144Y1867*
X2135Y1862*
X2127Y1854*
X2122Y1845*
X2120Y1835*
Y1835*
X2155*
Y1870*
G37*
G36*
X4638Y1878D02*
X4631D01*
X4623Y1876*
X4617Y1873*
X4611Y1867*
X4608Y1861*
X4606Y1853*
Y1846*
X4608Y1838*
X4611Y1832*
X4617Y1826*
X4623Y1823*
X4631Y1821*
X4638*
X4646Y1823*
X4652Y1826*
X4658Y1832*
X4661Y1838*
X4663Y1846*
Y1853*
X4661Y1861*
X4658Y1867*
X4652Y1873*
X4646Y1876*
X4638Y1878*
G37*
G36*
X3455Y1840D02*
X3420D01*
Y1805*
X3420*
X3430Y1807*
X3439Y1812*
X3447Y1820*
X3452Y1829*
X3455Y1839*
Y1840*
G37*
G36*
X3410D02*
X3375D01*
Y1839*
X3377Y1829*
X3382Y1820*
X3390Y1812*
X3399Y1807*
X3409Y1805*
X3410*
Y1840*
G37*
G36*
X3010Y1835D02*
X2975D01*
Y1800*
X2975*
X2985Y1802*
X2994Y1807*
X3002Y1815*
X3007Y1824*
X3010Y1834*
Y1835*
G37*
G36*
X2965D02*
X2930D01*
Y1834*
X2932Y1824*
X2937Y1815*
X2945Y1807*
X2954Y1802*
X2964Y1800*
X2965*
Y1835*
G37*
G36*
X2590Y1825D02*
X2555D01*
Y1790*
X2555*
X2565Y1792*
X2574Y1797*
X2582Y1805*
X2587Y1814*
X2590Y1824*
Y1825*
G37*
G36*
X2545D02*
X2510D01*
Y1824*
X2512Y1814*
X2517Y1805*
X2525Y1797*
X2534Y1792*
X2544Y1790*
X2545*
Y1825*
G37*
G36*
X2200D02*
X2165D01*
Y1790*
X2165*
X2175Y1792*
X2184Y1797*
X2192Y1805*
X2197Y1814*
X2200Y1824*
Y1825*
G37*
G36*
X2155D02*
X2120D01*
Y1824*
X2122Y1814*
X2127Y1805*
X2135Y1797*
X2144Y1792*
X2154Y1790*
X2155*
Y1825*
G37*
G36*
X4083Y1811D02*
Y1789D01*
X4105*
X4103Y1794*
X4100Y1801*
X4095Y1806*
X4088Y1809*
X4083Y1811*
G37*
G36*
X4073D02*
X4067Y1809D01*
X4060Y1806*
X4055Y1801*
X4052Y1794*
X4050Y1789*
X4073*
Y1811*
G37*
G36*
X4355Y1802D02*
Y1780D01*
X4377*
X4375Y1785*
X4372Y1792*
X4367Y1797*
X4360Y1800*
X4355Y1802*
G37*
G36*
X4345D02*
X4339Y1800D01*
X4332Y1797*
X4327Y1792*
X4324Y1785*
X4322Y1780*
X4345*
Y1802*
G37*
G36*
X1305Y1805D02*
X1305D01*
Y1770*
X1340*
Y1770*
X1337Y1780*
X1332Y1789*
X1324Y1797*
X1315Y1802*
X1305Y1805*
G37*
G36*
X1295D02*
X1294D01*
X1284Y1802*
X1275Y1797*
X1267Y1789*
X1262Y1780*
X1260Y1770*
Y1770*
X1295*
Y1805*
G37*
G36*
X3469Y1784D02*
Y1762D01*
X3491*
X3489Y1767*
X3486Y1774*
X3481Y1779*
X3474Y1782*
X3469Y1784*
G37*
G36*
X3459D02*
X3453Y1782D01*
X3446Y1779*
X3441Y1774*
X3438Y1767*
X3436Y1762*
X3459*
Y1784*
G37*
G36*
X4831Y1820D02*
X4824D01*
X4816Y1818*
X4810Y1815*
X4804Y1809*
X4801Y1803*
X4799Y1795*
Y1788*
X4801Y1780*
X4804Y1775*
X4802Y1774*
X4797Y1768*
X4794Y1762*
X4792Y1756*
X4847*
X4845Y1762*
X4844Y1764*
X4845Y1768*
X4851Y1774*
X4854Y1780*
X4856Y1788*
Y1795*
X4854Y1803*
X4851Y1809*
X4845Y1815*
X4839Y1818*
X4831Y1820*
G37*
G36*
X4105Y1779D02*
X4083D01*
Y1756*
X4088Y1758*
X4095Y1761*
X4100Y1766*
X4103Y1773*
X4105Y1779*
G37*
G36*
X4073D02*
X4050D01*
X4052Y1773*
X4055Y1766*
X4060Y1761*
X4067Y1758*
X4073Y1756*
Y1779*
G37*
G36*
X1490Y1790D02*
X1490D01*
Y1755*
X1525*
Y1755*
X1522Y1765*
X1517Y1774*
X1509Y1782*
X1500Y1787*
X1490Y1790*
G37*
G36*
X1480D02*
X1479D01*
X1469Y1787*
X1460Y1782*
X1452Y1774*
X1447Y1765*
X1445Y1755*
Y1755*
X1480*
Y1790*
G37*
G36*
X4377Y1770D02*
X4355D01*
Y1747*
X4360Y1749*
X4367Y1752*
X4372Y1757*
X4375Y1764*
X4377Y1770*
G37*
G36*
X4345D02*
X4322D01*
X4324Y1764*
X4327Y1757*
X4332Y1752*
X4339Y1749*
X4345Y1747*
Y1770*
G37*
G36*
X3052Y1769D02*
Y1747D01*
X3074*
X3072Y1752*
X3069Y1759*
X3064Y1764*
X3057Y1767*
X3052Y1769*
G37*
G36*
X3042D02*
X3036Y1767D01*
X3029Y1764*
X3024Y1759*
X3021Y1752*
X3019Y1747*
X3042*
Y1769*
G37*
G36*
X4453Y1818D02*
X4446D01*
X4438Y1816*
X4432Y1813*
X4426Y1807*
X4423Y1801*
X4421Y1793*
Y1787*
X4418Y1786*
X4412Y1783*
X4406Y1777*
X4403Y1771*
X4401Y1763*
Y1756*
X4403Y1748*
X4406Y1742*
X4412Y1736*
X4418Y1733*
X4426Y1731*
X4433*
X4441Y1733*
X4447Y1736*
X4453Y1742*
X4456Y1748*
X4458Y1756*
Y1762*
X4461Y1763*
X4467Y1766*
X4472Y1771*
X4475Y1770*
X4477Y1769*
X4479Y1762*
X4483Y1756*
X4488Y1750*
X4494Y1746*
X4502Y1745*
X4509*
X4517Y1746*
X4523Y1750*
X4529Y1756*
X4533Y1762*
X4534Y1770*
Y1777*
X4533Y1785*
X4529Y1791*
X4523Y1796*
X4517Y1800*
X4509Y1802*
X4502*
X4494Y1800*
X4488Y1796*
X4483Y1792*
X4480Y1793*
X4478Y1794*
X4476Y1801*
X4473Y1807*
X4467Y1813*
X4461Y1816*
X4453Y1818*
G37*
G36*
X3811Y1840D02*
X3798D01*
X3785Y1836*
X3774Y1830*
X3764Y1820*
X3758Y1809*
X3755Y1796*
Y1783*
X3758Y1770*
X3764Y1759*
X3774Y1749*
X3785Y1743*
X3798Y1740*
X3811*
X3824Y1743*
X3835Y1749*
X3845Y1759*
X3851Y1770*
X3855Y1783*
Y1796*
X3851Y1809*
X3845Y1820*
X3835Y1830*
X3824Y1836*
X3811Y1840*
G37*
G36*
X4983Y1848D02*
X4976D01*
X4968Y1846*
X4962Y1843*
X4956Y1837*
X4953Y1831*
X4951Y1823*
Y1816*
X4953Y1808*
X4954Y1806*
X4953Y1803*
X4951Y1796*
Y1788*
X4953Y1781*
X4954Y1778*
X4953Y1775*
X4951Y1768*
Y1760*
X4953Y1753*
X4956Y1746*
X4962Y1741*
X4968Y1737*
X4976Y1735*
X4983*
X4991Y1737*
X4997Y1741*
X5003Y1746*
X5006Y1753*
X5008Y1760*
Y1768*
X5006Y1775*
X5005Y1778*
X5006Y1781*
X5008Y1788*
Y1796*
X5006Y1803*
X5005Y1806*
X5006Y1808*
X5008Y1816*
Y1823*
X5006Y1831*
X5003Y1837*
X4997Y1843*
X4991Y1846*
X4983Y1848*
G37*
G36*
X3491Y1752D02*
X3469D01*
Y1729*
X3474Y1731*
X3481Y1734*
X3486Y1739*
X3489Y1746*
X3491Y1752*
G37*
G36*
X3459D02*
X3436D01*
X3438Y1746*
X3441Y1739*
X3446Y1734*
X3453Y1731*
X3459Y1729*
Y1752*
G37*
G36*
X1340Y1760D02*
X1305D01*
Y1725*
X1305*
X1315Y1727*
X1324Y1732*
X1332Y1740*
X1337Y1749*
X1340Y1759*
Y1760*
G37*
G36*
X1295D02*
X1260D01*
Y1759*
X1262Y1749*
X1267Y1740*
X1275Y1732*
X1284Y1727*
X1294Y1725*
X1295*
Y1760*
G37*
G36*
X4847Y1746D02*
X4825D01*
Y1724*
X4830Y1726*
X4837Y1729*
X4842Y1734*
X4845Y1741*
X4847Y1746*
G37*
G36*
X4815D02*
X4792D01*
X4794Y1741*
X4797Y1734*
X4802Y1729*
X4809Y1726*
X4815Y1724*
Y1746*
G37*
G36*
X3074Y1737D02*
X3052D01*
Y1714*
X3057Y1716*
X3064Y1719*
X3069Y1724*
X3072Y1731*
X3074Y1737*
G37*
G36*
X3042D02*
X3019D01*
X3021Y1731*
X3024Y1724*
X3029Y1719*
X3036Y1716*
X3042Y1714*
Y1737*
G37*
G36*
X1525Y1745D02*
X1490D01*
Y1710*
X1490*
X1500Y1712*
X1509Y1717*
X1517Y1725*
X1522Y1734*
X1525Y1744*
Y1745*
G37*
G36*
X1480D02*
X1445D01*
Y1744*
X1447Y1734*
X1452Y1725*
X1460Y1717*
X1469Y1712*
X1479Y1710*
X1480*
Y1745*
G37*
G36*
X4078Y1729D02*
Y1707D01*
X4100*
X4098Y1712*
X4095Y1719*
X4090Y1724*
X4083Y1727*
X4078Y1729*
G37*
G36*
X4068D02*
X4062Y1727D01*
X4055Y1724*
X4050Y1719*
X4047Y1712*
X4045Y1707*
X4068*
Y1729*
G37*
G36*
X3694D02*
Y1707D01*
X3716*
X3714Y1712*
X3711Y1719*
X3706Y1724*
X3699Y1727*
X3694Y1729*
G37*
G36*
X3684D02*
X3678Y1727D01*
X3671Y1724*
X3666Y1719*
X3663Y1712*
X3661Y1707*
X3684*
Y1729*
G37*
G36*
X4883Y1763D02*
X4876D01*
X4868Y1761*
X4862Y1758*
X4856Y1752*
X4853Y1746*
X4851Y1738*
Y1731*
X4853Y1723*
X4856Y1717*
X4862Y1711*
X4868Y1708*
X4876Y1706*
X4883*
X4891Y1708*
X4897Y1711*
X4903Y1717*
X4906Y1723*
X4908Y1731*
Y1738*
X4906Y1746*
X4903Y1752*
X4897Y1758*
X4891Y1761*
X4883Y1763*
G37*
G36*
X4245Y1824D02*
X4236D01*
X4228Y1822*
X4221Y1818*
X4215Y1812*
X4211Y1805*
X4209Y1797*
Y1788*
X4211Y1780*
X4215Y1773*
X4221Y1767*
X4223Y1766*
Y1761*
X4218Y1758*
X4212Y1752*
X4208Y1745*
X4206Y1737*
Y1728*
X4208Y1720*
X4212Y1713*
X4218Y1707*
X4225Y1703*
X4233Y1701*
X4242*
X4250Y1703*
X4257Y1707*
X4263Y1713*
X4267Y1720*
X4269Y1728*
Y1737*
X4267Y1745*
X4263Y1752*
X4257Y1758*
X4256Y1759*
Y1765*
X4260Y1767*
X4266Y1773*
X4270Y1780*
X4272Y1788*
Y1797*
X4270Y1805*
X4266Y1812*
X4260Y1818*
X4253Y1822*
X4245Y1824*
G37*
G36*
X3285Y1719D02*
Y1697D01*
X3307*
X3305Y1702*
X3302Y1709*
X3297Y1714*
X3290Y1717*
X3285Y1719*
G37*
G36*
X3275D02*
X3269Y1717D01*
X3262Y1714*
X3257Y1709*
X3254Y1702*
X3252Y1697*
X3275*
Y1719*
G37*
G36*
X5980Y1725D02*
X5980D01*
Y1690*
X6015*
Y1690*
X6012Y1700*
X6007Y1709*
X5999Y1717*
X5990Y1722*
X5980Y1725*
G37*
G36*
X5970D02*
X5969D01*
X5959Y1722*
X5950Y1717*
X5942Y1709*
X5937Y1700*
X5935Y1690*
Y1690*
X5970*
Y1725*
G37*
G36*
X857Y1736D02*
X855D01*
Y1686*
X904*
Y1688*
X901Y1702*
X893Y1715*
X883Y1725*
X871Y1732*
X857Y1736*
G37*
G36*
X845D02*
X842D01*
X828Y1732*
X816Y1725*
X806Y1715*
X798Y1702*
X795Y1688*
Y1686*
X845*
Y1736*
G37*
G36*
X1050Y1720D02*
X1050D01*
Y1685*
X1085*
Y1685*
X1082Y1695*
X1077Y1704*
X1069Y1712*
X1060Y1717*
X1050Y1720*
G37*
G36*
X1040D02*
X1039D01*
X1029Y1717*
X1020Y1712*
X1012Y1704*
X1007Y1695*
X1005Y1685*
Y1685*
X1040*
Y1720*
G37*
G36*
X595Y1715D02*
X595D01*
Y1680*
X630*
Y1680*
X627Y1690*
X622Y1699*
X614Y1707*
X605Y1712*
X595Y1715*
G37*
G36*
X585D02*
X584D01*
X574Y1712*
X565Y1707*
X557Y1699*
X552Y1690*
X550Y1680*
Y1680*
X585*
Y1715*
G37*
G36*
X4100Y1697D02*
X4078D01*
Y1674*
X4083Y1676*
X4090Y1679*
X4095Y1684*
X4098Y1691*
X4100Y1697*
G37*
G36*
X4068D02*
X4045D01*
X4047Y1691*
X4050Y1684*
X4055Y1679*
X4062Y1676*
X4068Y1674*
Y1697*
G37*
G36*
X3716D02*
X3694D01*
Y1674*
X3699Y1676*
X3706Y1679*
X3711Y1684*
X3714Y1691*
X3716Y1697*
G37*
G36*
X3684D02*
X3661D01*
X3663Y1691*
X3666Y1684*
X3671Y1679*
X3678Y1676*
X3684Y1674*
Y1697*
G37*
G36*
X4835Y1676D02*
X4826D01*
X4818Y1674*
X4811Y1670*
X4806Y1664*
X4800Y1670*
X4793Y1674*
X4785Y1676*
X4776*
X4768Y1674*
X4761Y1670*
X4755Y1664*
X4751Y1657*
X4749Y1649*
Y1640*
X4751Y1632*
X4755Y1625*
X4761Y1619*
X4768Y1615*
X4776Y1613*
X4785*
X4793Y1615*
X4800Y1619*
X4806Y1625*
X4811Y1619*
X4818Y1615*
X4826Y1613*
X4835*
X4843Y1615*
X4850Y1619*
X4856Y1625*
X4860Y1632*
X4862Y1640*
Y1649*
X4860Y1657*
X4856Y1664*
X4850Y1670*
X4843Y1674*
X4835Y1676*
G37*
G36*
X3307Y1687D02*
X3285D01*
Y1664*
X3290Y1666*
X3297Y1669*
X3302Y1674*
X3305Y1681*
X3307Y1687*
G37*
G36*
X3275D02*
X3252D01*
X3254Y1681*
X3257Y1674*
X3262Y1669*
X3269Y1666*
X3275Y1664*
Y1687*
G37*
G36*
X2781Y1677D02*
Y1655D01*
X2803*
X2801Y1660*
X2798Y1667*
X2793Y1672*
X2786Y1675*
X2781Y1677*
G37*
G36*
X2771D02*
X2765Y1675D01*
X2758Y1672*
X2753Y1667*
X2750Y1660*
X2748Y1655*
X2771*
Y1677*
G37*
G36*
X6015Y1680D02*
X5980D01*
Y1645*
X5980*
X5990Y1647*
X5999Y1652*
X6007Y1660*
X6012Y1669*
X6015Y1679*
Y1680*
G37*
G36*
X5970D02*
X5935D01*
Y1679*
X5937Y1669*
X5942Y1660*
X5950Y1652*
X5959Y1647*
X5969Y1645*
X5970*
Y1680*
G37*
G36*
X1085Y1675D02*
X1050D01*
Y1640*
X1050*
X1060Y1642*
X1069Y1647*
X1077Y1655*
X1082Y1664*
X1085Y1674*
Y1675*
G37*
G36*
X1040D02*
X1005D01*
Y1674*
X1007Y1664*
X1012Y1655*
X1020Y1647*
X1029Y1642*
X1039Y1640*
X1040*
Y1675*
G37*
G36*
X630Y1670D02*
X595D01*
Y1635*
X595*
X605Y1637*
X614Y1642*
X622Y1650*
X627Y1659*
X630Y1669*
Y1670*
G37*
G36*
X585D02*
X550D01*
Y1669*
X552Y1659*
X557Y1650*
X565Y1642*
X574Y1637*
X584Y1635*
X585*
Y1670*
G37*
G36*
X4083Y1655D02*
Y1632D01*
X4105*
X4103Y1638*
X4100Y1644*
X4095Y1649*
X4088Y1653*
X4083Y1655*
G37*
G36*
X4073D02*
X4067Y1653D01*
X4060Y1649*
X4055Y1644*
X4052Y1638*
X4050Y1632*
X4073*
Y1655*
G37*
G36*
X904Y1676D02*
X855D01*
Y1626*
X857*
X871Y1630*
X883Y1637*
X893Y1647*
X901Y1660*
X904Y1674*
Y1676*
G37*
G36*
X845D02*
X795D01*
Y1674*
X798Y1660*
X806Y1647*
X816Y1637*
X828Y1630*
X842Y1626*
X845*
Y1676*
G37*
G36*
X2803Y1645D02*
X2781D01*
Y1622*
X2786Y1624*
X2793Y1627*
X2798Y1632*
X2801Y1639*
X2803Y1645*
G37*
G36*
X2771D02*
X2748D01*
X2750Y1639*
X2753Y1632*
X2758Y1627*
X2765Y1624*
X2771Y1622*
Y1645*
G37*
G36*
X1875Y1655D02*
X1875D01*
Y1620*
X1910*
Y1620*
X1907Y1630*
X1902Y1639*
X1894Y1647*
X1885Y1652*
X1875Y1655*
G37*
G36*
X1865D02*
X1864D01*
X1854Y1652*
X1845Y1647*
X1837Y1639*
X1832Y1630*
X1830Y1620*
Y1620*
X1865*
Y1655*
G37*
G36*
X1275Y1628D02*
Y1606D01*
X1297*
X1295Y1611*
X1292Y1618*
X1287Y1623*
X1280Y1626*
X1275Y1628*
G37*
G36*
X1265D02*
X1259Y1626D01*
X1252Y1623*
X1247Y1618*
X1244Y1611*
X1242Y1606*
X1265*
Y1628*
G37*
G36*
X4105Y1622D02*
X4083D01*
Y1600*
X4088Y1601*
X4095Y1605*
X4100Y1610*
X4103Y1617*
X4105Y1622*
G37*
G36*
X4073D02*
X4050D01*
X4052Y1617*
X4055Y1610*
X4060Y1605*
X4067Y1601*
X4073Y1600*
Y1622*
G37*
G36*
X5479Y1638D02*
X5472D01*
X5464Y1636*
X5458Y1633*
X5452Y1627*
X5449Y1621*
X5447Y1613*
Y1606*
X5449Y1598*
X5452Y1592*
X5458Y1586*
X5464Y1583*
X5472Y1581*
X5479*
X5487Y1583*
X5493Y1586*
X5499Y1592*
X5502Y1598*
X5504Y1606*
Y1613*
X5502Y1621*
X5499Y1627*
X5493Y1633*
X5487Y1636*
X5479Y1638*
G37*
G36*
X4913D02*
X4906D01*
X4898Y1636*
X4892Y1633*
X4886Y1627*
X4883Y1621*
X4881Y1613*
Y1606*
X4883Y1598*
X4886Y1592*
X4892Y1586*
X4898Y1583*
X4906Y1581*
X4913*
X4921Y1583*
X4927Y1586*
X4933Y1592*
X4936Y1598*
X4938Y1606*
Y1613*
X4936Y1621*
X4933Y1627*
X4927Y1633*
X4921Y1636*
X4913Y1638*
G37*
G36*
X1910Y1610D02*
X1875D01*
Y1575*
X1875*
X1885Y1577*
X1894Y1582*
X1902Y1590*
X1907Y1599*
X1910Y1609*
Y1610*
G37*
G36*
X1865D02*
X1830D01*
Y1609*
X1832Y1599*
X1837Y1590*
X1845Y1582*
X1854Y1577*
X1864Y1575*
X1865*
Y1610*
G37*
G36*
X1297Y1596D02*
X1275D01*
Y1573*
X1280Y1575*
X1287Y1578*
X1292Y1583*
X1295Y1590*
X1297Y1596*
G37*
G36*
X1265D02*
X1242D01*
X1244Y1590*
X1247Y1583*
X1252Y1578*
X1259Y1575*
X1265Y1573*
Y1596*
G37*
G36*
X4199Y1609D02*
X4190D01*
X4180Y1607*
X4171Y1602*
X4164Y1595*
X4159Y1586*
X4157Y1576*
Y1567*
X4159Y1557*
X4164Y1548*
X4171Y1541*
X4180Y1536*
X4190Y1534*
X4199*
X4209Y1536*
X4218Y1541*
X4225Y1548*
X4230Y1557*
X4232Y1567*
Y1576*
X4230Y1586*
X4225Y1595*
X4218Y1602*
X4209Y1607*
X4199Y1609*
G37*
G36*
X630Y1540D02*
X630D01*
Y1505*
X665*
Y1505*
X662Y1515*
X657Y1524*
X649Y1532*
X640Y1537*
X630Y1540*
G37*
G36*
X620D02*
X619D01*
X609Y1537*
X600Y1532*
X592Y1524*
X587Y1515*
X585Y1505*
Y1505*
X620*
Y1540*
G37*
G36*
X3826Y1600D02*
X3813D01*
X3800Y1596*
X3789Y1590*
X3779Y1580*
X3773Y1569*
X3770Y1556*
Y1543*
X3773Y1530*
X3779Y1519*
X3789Y1509*
X3800Y1503*
X3813Y1500*
X3826*
X3839Y1503*
X3850Y1509*
X3860Y1519*
X3866Y1530*
X3870Y1543*
Y1556*
X3866Y1569*
X3860Y1580*
X3850Y1590*
X3839Y1596*
X3826Y1600*
G37*
G36*
X4403Y1548D02*
X4396D01*
X4388Y1546*
X4382Y1543*
X4376Y1537*
X4373Y1531*
X4371Y1523*
Y1516*
X4373Y1508*
X4376Y1502*
X4382Y1496*
X4388Y1493*
X4396Y1491*
X4403*
X4411Y1493*
X4417Y1496*
X4423Y1502*
X4426Y1508*
X4428Y1516*
Y1523*
X4426Y1531*
X4423Y1537*
X4417Y1543*
X4411Y1546*
X4403Y1548*
G37*
G36*
X4784Y1510D02*
Y1487D01*
X4806*
X4805Y1493*
X4801Y1499*
X4796Y1504*
X4790Y1508*
X4784Y1510*
G37*
G36*
X4774D02*
X4768Y1508D01*
X4762Y1504*
X4757Y1499*
X4753Y1493*
X4752Y1487*
X4774*
Y1510*
G37*
G36*
X4872Y1509D02*
Y1487D01*
X4894*
X4892Y1492*
X4889Y1499*
X4884Y1504*
X4877Y1507*
X4872Y1509*
G37*
G36*
X4862D02*
X4856Y1507D01*
X4849Y1504*
X4844Y1499*
X4841Y1492*
X4839Y1487*
X4862*
Y1509*
G37*
G36*
X2913Y1598D02*
X2906D01*
X2898Y1596*
X2892Y1593*
X2886Y1587*
X2883Y1581*
X2881Y1573*
Y1566*
X2883Y1558*
X2886Y1552*
X2892Y1546*
X2898Y1543*
X2906Y1541*
X2913*
X2921Y1543*
X2923Y1544*
X2927Y1541*
X2924Y1536*
X2922Y1526*
Y1517*
X2924Y1507*
X2929Y1498*
X2936Y1491*
X2945Y1486*
X2955Y1484*
X2965*
X2974Y1486*
X2983Y1491*
X2990Y1498*
X2995Y1507*
X2997Y1517*
Y1526*
X2995Y1536*
X2990Y1545*
X2983Y1552*
X2974Y1557*
X2965Y1559*
X2955*
X2945Y1557*
X2939Y1553*
X2936Y1557*
X2936Y1558*
X2938Y1566*
Y1573*
X2936Y1581*
X2933Y1587*
X2927Y1593*
X2921Y1596*
X2913Y1598*
G37*
G36*
X3384Y1552D02*
X3375D01*
X3365Y1550*
X3356Y1545*
X3349Y1538*
X3344Y1529*
X3342Y1519*
Y1510*
X3344Y1500*
X3349Y1491*
X3356Y1484*
X3365Y1479*
X3375Y1477*
X3384*
X3394Y1479*
X3403Y1484*
X3410Y1491*
X3415Y1500*
X3417Y1510*
Y1519*
X3415Y1529*
X3410Y1538*
X3403Y1545*
X3394Y1550*
X3384Y1552*
G37*
G36*
X805Y1510D02*
X805D01*
Y1475*
X840*
Y1475*
X837Y1485*
X832Y1494*
X824Y1502*
X815Y1507*
X805Y1510*
G37*
G36*
X795D02*
X794D01*
X784Y1507*
X775Y1502*
X767Y1494*
X762Y1485*
X760Y1475*
Y1475*
X795*
Y1510*
G37*
G36*
X5975Y1495D02*
X5975D01*
Y1460*
X6010*
Y1460*
X6007Y1470*
X6002Y1479*
X5994Y1487*
X5985Y1492*
X5975Y1495*
G37*
G36*
X5965D02*
X5964D01*
X5954Y1492*
X5945Y1487*
X5937Y1479*
X5932Y1470*
X5930Y1460*
Y1460*
X5965*
Y1495*
G37*
G36*
X665D02*
X630D01*
Y1460*
X630*
X640Y1462*
X649Y1467*
X657Y1475*
X662Y1484*
X665Y1494*
Y1495*
G37*
G36*
X620D02*
X585D01*
Y1494*
X587Y1484*
X592Y1475*
X600Y1467*
X609Y1462*
X619Y1460*
X620*
Y1495*
G37*
G36*
X4806Y1477D02*
X4784D01*
Y1455*
X4790Y1456*
X4796Y1460*
X4801Y1465*
X4805Y1472*
X4806Y1477*
G37*
G36*
X4774D02*
X4752D01*
X4753Y1472*
X4757Y1465*
X4762Y1460*
X4768Y1456*
X4774Y1455*
Y1477*
G37*
G36*
X4894Y1477D02*
X4872D01*
Y1454*
X4877Y1456*
X4884Y1459*
X4889Y1464*
X4892Y1471*
X4894Y1477*
G37*
G36*
X4862D02*
X4839D01*
X4841Y1471*
X4844Y1464*
X4849Y1459*
X4856Y1456*
X4862Y1454*
Y1477*
G37*
G36*
X5015Y1485D02*
X5015D01*
Y1450*
X5050*
Y1450*
X5047Y1460*
X5042Y1469*
X5034Y1477*
X5025Y1482*
X5015Y1485*
G37*
G36*
X5005D02*
X5004D01*
X4994Y1482*
X4985Y1477*
X4977Y1469*
X4972Y1460*
X4970Y1450*
Y1450*
X5005*
Y1485*
G37*
G36*
X1060Y1470D02*
X1060D01*
Y1435*
X1095*
Y1435*
X1092Y1445*
X1087Y1454*
X1079Y1462*
X1070Y1467*
X1060Y1470*
G37*
G36*
X1050D02*
X1049D01*
X1039Y1467*
X1030Y1462*
X1022Y1454*
X1017Y1445*
X1015Y1435*
Y1435*
X1050*
Y1470*
G37*
G36*
X840Y1465D02*
X805D01*
Y1430*
X805*
X815Y1432*
X824Y1437*
X832Y1445*
X837Y1454*
X840Y1464*
Y1465*
G37*
G36*
X795D02*
X760D01*
Y1464*
X762Y1454*
X767Y1445*
X775Y1437*
X784Y1432*
X794Y1430*
X795*
Y1465*
G37*
G36*
X5210Y1455D02*
X5210D01*
Y1420*
X5245*
Y1420*
X5242Y1430*
X5237Y1439*
X5229Y1447*
X5220Y1452*
X5210Y1455*
G37*
G36*
X5200D02*
X5199D01*
X5189Y1452*
X5180Y1447*
X5172Y1439*
X5167Y1430*
X5165Y1420*
Y1420*
X5200*
Y1455*
G37*
G36*
X6010Y1450D02*
X5975D01*
Y1415*
X5975*
X5985Y1417*
X5994Y1422*
X6002Y1430*
X6007Y1439*
X6010Y1449*
Y1450*
G37*
G36*
X5965D02*
X5930D01*
Y1449*
X5932Y1439*
X5937Y1430*
X5945Y1422*
X5954Y1417*
X5964Y1415*
X5965*
Y1450*
G37*
G36*
X5050Y1440D02*
X5015D01*
Y1405*
X5015*
X5025Y1407*
X5034Y1412*
X5042Y1420*
X5047Y1429*
X5050Y1439*
Y1440*
G37*
G36*
X5005D02*
X4970D01*
Y1439*
X4972Y1429*
X4977Y1420*
X4985Y1412*
X4994Y1407*
X5004Y1405*
X5005*
Y1440*
G37*
G36*
X4303Y1448D02*
X4296D01*
X4288Y1446*
X4282Y1443*
X4276Y1437*
X4273Y1431*
X4271Y1423*
Y1416*
X4273Y1408*
X4276Y1402*
X4282Y1396*
X4288Y1393*
X4296Y1391*
X4303*
X4311Y1393*
X4317Y1396*
X4323Y1402*
X4326Y1408*
X4328Y1416*
Y1423*
X4326Y1431*
X4323Y1437*
X4317Y1443*
X4311Y1446*
X4303Y1448*
G37*
G36*
X1095Y1425D02*
X1060D01*
Y1390*
X1060*
X1070Y1392*
X1079Y1397*
X1087Y1405*
X1092Y1414*
X1095Y1424*
Y1425*
G37*
G36*
X1050D02*
X1015D01*
Y1424*
X1017Y1414*
X1022Y1405*
X1030Y1397*
X1039Y1392*
X1049Y1390*
X1050*
Y1425*
G37*
G36*
X5513Y1438D02*
X5506D01*
X5498Y1436*
X5492Y1433*
X5486Y1427*
X5483Y1421*
X5481Y1413*
Y1406*
X5483Y1398*
X5486Y1392*
X5492Y1386*
X5498Y1383*
X5506Y1381*
X5513*
X5521Y1383*
X5527Y1386*
X5533Y1392*
X5536Y1398*
X5538Y1406*
Y1413*
X5536Y1421*
X5533Y1427*
X5527Y1433*
X5521Y1436*
X5513Y1438*
G37*
G36*
X1781Y1480D02*
X1768D01*
X1755Y1476*
X1744Y1470*
X1734Y1460*
X1728Y1449*
X1725Y1436*
Y1423*
X1728Y1410*
X1734Y1399*
X1744Y1389*
X1755Y1383*
X1768Y1380*
X1781*
X1794Y1383*
X1805Y1389*
X1815Y1399*
X1821Y1410*
X1825Y1423*
Y1436*
X1821Y1449*
X1815Y1460*
X1805Y1470*
X1794Y1476*
X1781Y1480*
G37*
G36*
X1621D02*
X1608D01*
X1595Y1476*
X1584Y1470*
X1574Y1460*
X1568Y1449*
X1565Y1436*
Y1423*
X1568Y1410*
X1574Y1399*
X1584Y1389*
X1595Y1383*
X1608Y1380*
X1621*
X1634Y1383*
X1645Y1389*
X1655Y1399*
X1661Y1410*
X1665Y1423*
Y1436*
X1661Y1449*
X1655Y1460*
X1645Y1470*
X1634Y1476*
X1621Y1480*
G37*
G36*
X5245Y1410D02*
X5210D01*
Y1375*
X5210*
X5220Y1377*
X5229Y1382*
X5237Y1390*
X5242Y1399*
X5245Y1409*
Y1410*
G37*
G36*
X5200D02*
X5165D01*
Y1409*
X5167Y1399*
X5172Y1390*
X5180Y1382*
X5189Y1377*
X5199Y1375*
X5200*
Y1410*
G37*
G36*
X4895Y1395D02*
X4895D01*
Y1360*
X4930*
Y1360*
X4927Y1370*
X4922Y1379*
X4914Y1387*
X4905Y1392*
X4895Y1395*
G37*
G36*
X4885D02*
X4884D01*
X4874Y1392*
X4865Y1387*
X4857Y1379*
X4852Y1370*
X4850Y1360*
Y1360*
X4885*
Y1395*
G37*
G36*
X4930Y1350D02*
X4895D01*
Y1315*
X4895*
X4905Y1317*
X4914Y1322*
X4922Y1330*
X4927Y1339*
X4930Y1349*
Y1350*
G37*
G36*
X4885D02*
X4850D01*
Y1349*
X4852Y1339*
X4857Y1330*
X4865Y1322*
X4874Y1317*
X4884Y1315*
X4885*
Y1350*
G37*
G36*
X570Y1335D02*
X570D01*
Y1300*
X605*
Y1300*
X602Y1310*
X597Y1319*
X589Y1327*
X580Y1332*
X570Y1335*
G37*
G36*
X560D02*
X559D01*
X549Y1332*
X540Y1327*
X532Y1319*
X527Y1310*
X525Y1300*
Y1300*
X560*
Y1335*
G37*
G36*
X3928Y1353D02*
X3921D01*
X3913Y1351*
X3907Y1348*
X3901Y1342*
X3898Y1336*
X3896Y1328*
Y1321*
X3898Y1313*
X3901Y1307*
X3907Y1301*
X3913Y1298*
X3921Y1296*
X3928*
X3936Y1298*
X3942Y1301*
X3948Y1307*
X3951Y1313*
X3953Y1321*
Y1328*
X3951Y1336*
X3948Y1342*
X3942Y1348*
X3936Y1351*
X3928Y1353*
G37*
G36*
X1418Y1343D02*
X1411D01*
X1403Y1341*
X1397Y1338*
X1391Y1332*
X1388Y1326*
X1386Y1318*
Y1311*
X1388Y1303*
X1391Y1297*
X1397Y1291*
X1403Y1288*
X1411Y1286*
X1418*
X1426Y1288*
X1432Y1291*
X1438Y1297*
X1441Y1303*
X1443Y1311*
Y1318*
X1441Y1326*
X1438Y1332*
X1432Y1338*
X1426Y1341*
X1418Y1343*
G37*
G36*
X3075Y1315D02*
X3075D01*
Y1280*
X3110*
Y1280*
X3107Y1290*
X3102Y1299*
X3094Y1307*
X3085Y1312*
X3075Y1315*
G37*
G36*
X3065D02*
X3064D01*
X3054Y1312*
X3045Y1307*
X3037Y1299*
X3032Y1290*
X3030Y1280*
Y1280*
X3065*
Y1315*
G37*
G36*
X835Y1310D02*
X835D01*
Y1275*
X870*
Y1275*
X867Y1285*
X862Y1294*
X854Y1302*
X845Y1307*
X835Y1310*
G37*
G36*
X825D02*
X824D01*
X814Y1307*
X805Y1302*
X797Y1294*
X792Y1285*
X790Y1275*
Y1275*
X825*
Y1310*
G37*
G36*
X5020Y1300D02*
X5020D01*
Y1265*
X5055*
Y1265*
X5052Y1275*
X5047Y1284*
X5039Y1292*
X5030Y1297*
X5020Y1300*
G37*
G36*
X5010D02*
X5009D01*
X4999Y1297*
X4990Y1292*
X4982Y1284*
X4977Y1275*
X4975Y1265*
Y1265*
X5010*
Y1300*
G37*
G36*
X5504Y1337D02*
X5495D01*
X5485Y1335*
X5476Y1330*
X5469Y1323*
X5464Y1314*
X5462Y1304*
Y1295*
X5464Y1285*
X5469Y1276*
X5476Y1269*
X5485Y1264*
X5495Y1262*
X5504*
X5514Y1264*
X5523Y1269*
X5530Y1276*
X5535Y1285*
X5537Y1295*
Y1304*
X5535Y1314*
X5530Y1323*
X5523Y1330*
X5514Y1335*
X5504Y1337*
G37*
G36*
X5335Y1290D02*
X5335D01*
Y1255*
X5370*
Y1255*
X5367Y1265*
X5362Y1274*
X5354Y1282*
X5345Y1287*
X5335Y1290*
G37*
G36*
X5325D02*
X5324D01*
X5314Y1287*
X5305Y1282*
X5297Y1274*
X5292Y1265*
X5290Y1255*
Y1255*
X5325*
Y1290*
G37*
G36*
X605D02*
X570D01*
Y1255*
X570*
X580Y1257*
X589Y1262*
X597Y1270*
X602Y1279*
X605Y1289*
Y1290*
G37*
G36*
X560D02*
X525D01*
Y1289*
X527Y1279*
X532Y1270*
X540Y1262*
X549Y1257*
X559Y1255*
X560*
Y1290*
G37*
G36*
X4442Y1309D02*
X4435D01*
X4428Y1307*
X4421Y1303*
X4416Y1298*
X4412Y1291*
X4410Y1284*
Y1277*
X4412Y1269*
X4416Y1263*
X4421Y1257*
X4428Y1253*
X4435Y1251*
X4442*
X4450Y1253*
X4456Y1257*
X4462Y1263*
X4466Y1269*
X4468Y1277*
Y1284*
X4466Y1291*
X4462Y1298*
X4456Y1303*
X4450Y1307*
X4442Y1309*
G37*
G36*
X3110Y1270D02*
X3075D01*
Y1235*
X3075*
X3085Y1237*
X3094Y1242*
X3102Y1250*
X3107Y1259*
X3110Y1269*
Y1270*
G37*
G36*
X3065D02*
X3030D01*
Y1269*
X3032Y1259*
X3037Y1250*
X3045Y1242*
X3054Y1237*
X3064Y1235*
X3065*
Y1270*
G37*
G36*
X5513Y1254D02*
Y1232D01*
X5535*
X5533Y1237*
X5530Y1244*
X5525Y1249*
X5518Y1252*
X5513Y1254*
G37*
G36*
X5503D02*
X5497Y1252D01*
X5490Y1249*
X5485Y1244*
X5482Y1237*
X5480Y1232*
X5503*
Y1254*
G37*
G36*
X870Y1265D02*
X835D01*
Y1230*
X835*
X845Y1232*
X854Y1237*
X862Y1245*
X867Y1254*
X870Y1264*
Y1265*
G37*
G36*
X825D02*
X790D01*
Y1264*
X792Y1254*
X797Y1245*
X805Y1237*
X814Y1232*
X824Y1230*
X825*
Y1265*
G37*
G36*
X4073Y1278D02*
X4066D01*
X4058Y1276*
X4052Y1273*
X4046Y1267*
X4043Y1261*
X4041Y1253*
Y1246*
X4043Y1238*
X4046Y1232*
X4052Y1226*
X4058Y1223*
X4066Y1221*
X4073*
X4081Y1223*
X4087Y1226*
X4093Y1232*
X4096Y1238*
X4098Y1246*
Y1253*
X4096Y1261*
X4093Y1267*
X4087Y1273*
X4081Y1276*
X4073Y1278*
G37*
G36*
X5055Y1255D02*
X5020D01*
Y1220*
X5020*
X5030Y1222*
X5039Y1227*
X5047Y1235*
X5052Y1244*
X5055Y1254*
Y1255*
G37*
G36*
X5010D02*
X4975D01*
Y1254*
X4977Y1244*
X4982Y1235*
X4990Y1227*
X4999Y1222*
X5009Y1220*
X5010*
Y1255*
G37*
G36*
X3590D02*
X3590D01*
Y1220*
X3625*
Y1220*
X3622Y1230*
X3617Y1239*
X3609Y1247*
X3600Y1252*
X3590Y1255*
G37*
G36*
X3580D02*
X3579D01*
X3569Y1252*
X3560Y1247*
X3552Y1239*
X3547Y1230*
X3545Y1220*
Y1220*
X3580*
Y1255*
G37*
G36*
X2440Y1250D02*
X2440D01*
Y1215*
X2475*
Y1215*
X2472Y1225*
X2467Y1234*
X2459Y1242*
X2450Y1247*
X2440Y1250*
G37*
G36*
X2430D02*
X2429D01*
X2419Y1247*
X2410Y1242*
X2402Y1234*
X2397Y1225*
X2395Y1215*
Y1215*
X2430*
Y1250*
G37*
G36*
X1746Y1315D02*
X1733D01*
X1720Y1311*
X1709Y1305*
X1699Y1295*
X1693Y1284*
X1690Y1271*
Y1258*
X1693Y1245*
X1699Y1234*
X1709Y1224*
X1720Y1218*
X1733Y1215*
X1746*
X1759Y1218*
X1770Y1224*
X1780Y1234*
X1786Y1245*
X1790Y1258*
Y1271*
X1786Y1284*
X1780Y1295*
X1770Y1305*
X1759Y1311*
X1746Y1315*
G37*
G36*
X5685Y1250D02*
X5685D01*
Y1215*
X5720*
Y1215*
X5717Y1225*
X5712Y1234*
X5704Y1242*
X5695Y1247*
X5685Y1250*
G37*
G36*
X5675D02*
X5674D01*
X5664Y1247*
X5655Y1242*
X5647Y1234*
X5642Y1225*
X5639Y1215*
Y1215*
X5675*
Y1250*
G37*
G36*
X5370Y1245D02*
X5335D01*
Y1210*
X5335*
X5345Y1212*
X5354Y1217*
X5362Y1225*
X5367Y1234*
X5370Y1244*
Y1245*
G37*
G36*
X5325D02*
X5290D01*
Y1244*
X5292Y1234*
X5297Y1225*
X5305Y1217*
X5314Y1212*
X5324Y1210*
X5325*
Y1245*
G37*
G36*
X1596Y1310D02*
X1583D01*
X1570Y1306*
X1559Y1300*
X1549Y1290*
X1543Y1279*
X1540Y1266*
Y1253*
X1543Y1240*
X1549Y1229*
X1559Y1219*
X1570Y1213*
X1583Y1210*
X1596*
X1609Y1213*
X1620Y1219*
X1630Y1229*
X1636Y1240*
X1640Y1253*
Y1266*
X1636Y1279*
X1630Y1290*
X1620Y1300*
X1609Y1306*
X1596Y1310*
G37*
G36*
X2680Y1240D02*
X2680D01*
Y1205*
X2715*
Y1205*
X2712Y1215*
X2707Y1224*
X2699Y1232*
X2690Y1237*
X2680Y1240*
G37*
G36*
X2670D02*
X2669D01*
X2659Y1237*
X2650Y1232*
X2642Y1224*
X2637Y1215*
X2635Y1205*
Y1205*
X2670*
Y1240*
G37*
G36*
X5535Y1222D02*
X5513D01*
Y1199*
X5518Y1201*
X5525Y1204*
X5530Y1209*
X5533Y1216*
X5535Y1222*
G37*
G36*
X5503D02*
X5480D01*
X5482Y1216*
X5485Y1209*
X5490Y1204*
X5497Y1201*
X5503Y1199*
Y1222*
G37*
G36*
X4403Y1238D02*
X4396D01*
X4388Y1236*
X4382Y1233*
X4376Y1227*
X4373Y1221*
X4371Y1213*
Y1206*
X4373Y1198*
X4376Y1192*
X4382Y1186*
X4388Y1183*
X4396Y1181*
X4403*
X4411Y1183*
X4417Y1186*
X4423Y1192*
X4426Y1198*
X4428Y1206*
Y1213*
X4426Y1221*
X4423Y1227*
X4417Y1233*
X4411Y1236*
X4403Y1238*
G37*
G36*
X3625Y1210D02*
X3590D01*
Y1175*
X3590*
X3600Y1177*
X3609Y1182*
X3617Y1190*
X3622Y1199*
X3625Y1209*
Y1210*
G37*
G36*
X3580D02*
X3545D01*
Y1209*
X3547Y1199*
X3552Y1190*
X3560Y1182*
X3569Y1177*
X3579Y1175*
X3580*
Y1210*
G37*
G36*
X5975Y1205D02*
X5975D01*
Y1170*
X6010*
Y1170*
X6007Y1180*
X6002Y1189*
X5994Y1197*
X5985Y1202*
X5975Y1205*
G37*
G36*
X5965D02*
X5964D01*
X5954Y1202*
X5945Y1197*
X5937Y1189*
X5932Y1180*
X5930Y1170*
Y1170*
X5965*
Y1205*
G37*
G36*
X2475D02*
X2440D01*
Y1170*
X2440*
X2450Y1172*
X2459Y1177*
X2467Y1185*
X2472Y1194*
X2475Y1204*
Y1205*
G37*
G36*
X2430D02*
X2395D01*
Y1204*
X2397Y1194*
X2402Y1185*
X2410Y1177*
X2419Y1172*
X2429Y1170*
X2430*
Y1205*
G37*
G36*
X5720D02*
X5685D01*
Y1169*
X5685*
X5695Y1172*
X5704Y1177*
X5712Y1185*
X5717Y1194*
X5720Y1204*
Y1205*
G37*
G36*
X5675D02*
X5639D01*
Y1204*
X5642Y1194*
X5647Y1185*
X5655Y1177*
X5664Y1172*
X5674Y1169*
X5675*
Y1205*
G37*
G36*
X2715Y1195D02*
X2680D01*
Y1160*
X2680*
X2690Y1162*
X2699Y1167*
X2707Y1175*
X2712Y1184*
X2715Y1194*
Y1195*
G37*
G36*
X2670D02*
X2635D01*
Y1194*
X2637Y1184*
X2642Y1175*
X2650Y1167*
X2659Y1162*
X2669Y1160*
X2670*
Y1195*
G37*
G36*
X1273Y1203D02*
X1266D01*
X1258Y1201*
X1252Y1198*
X1246Y1192*
X1243Y1186*
X1241Y1178*
Y1171*
X1243Y1163*
X1246Y1157*
X1252Y1151*
X1258Y1148*
X1266Y1146*
X1273*
X1281Y1148*
X1287Y1151*
X1293Y1157*
X1296Y1163*
X1298Y1171*
Y1178*
X1296Y1186*
X1293Y1192*
X1287Y1198*
X1281Y1201*
X1273Y1203*
G37*
G36*
X1990Y1180D02*
X1990D01*
Y1145*
X2025*
Y1145*
X2022Y1155*
X2017Y1164*
X2009Y1172*
X2000Y1177*
X1990Y1180*
G37*
G36*
X1980D02*
X1979D01*
X1969Y1177*
X1960Y1172*
X1952Y1164*
X1947Y1155*
X1945Y1145*
Y1145*
X1980*
Y1180*
G37*
G36*
X6010Y1160D02*
X5975D01*
Y1125*
X5975*
X5985Y1127*
X5994Y1132*
X6002Y1140*
X6007Y1149*
X6010Y1159*
Y1160*
G37*
G36*
X5965D02*
X5930D01*
Y1159*
X5932Y1149*
X5937Y1140*
X5945Y1132*
X5954Y1127*
X5964Y1125*
X5965*
Y1160*
G37*
G36*
X5190Y1150D02*
X5190D01*
Y1115*
X5225*
Y1115*
X5222Y1125*
X5217Y1134*
X5209Y1142*
X5200Y1147*
X5190Y1150*
G37*
G36*
X5180D02*
X5179D01*
X5169Y1147*
X5160Y1142*
X5152Y1134*
X5147Y1125*
X5145Y1115*
Y1115*
X5180*
Y1150*
G37*
G36*
X2025Y1135D02*
X1990D01*
Y1100*
X1990*
X2000Y1102*
X2009Y1107*
X2017Y1115*
X2022Y1124*
X2025Y1134*
Y1135*
G37*
G36*
X1980D02*
X1945D01*
Y1134*
X1947Y1124*
X1952Y1115*
X1960Y1107*
X1969Y1102*
X1979Y1100*
X1980*
Y1135*
G37*
G36*
X5450Y1105D02*
X5450D01*
Y1070*
X5485*
Y1070*
X5482Y1080*
X5477Y1089*
X5469Y1097*
X5460Y1102*
X5450Y1105*
G37*
G36*
X5440D02*
X5439D01*
X5429Y1102*
X5420Y1097*
X5412Y1089*
X5407Y1080*
X5405Y1070*
Y1070*
X5440*
Y1105*
G37*
G36*
X5225D02*
X5190D01*
Y1070*
X5190*
X5200Y1072*
X5209Y1077*
X5217Y1085*
X5222Y1094*
X5225Y1104*
Y1105*
G37*
G36*
X5180D02*
X5145D01*
Y1104*
X5147Y1094*
X5152Y1085*
X5160Y1077*
X5169Y1072*
X5179Y1070*
X5180*
Y1105*
G37*
G36*
X1620Y1100D02*
X1620D01*
Y1065*
X1655*
Y1065*
X1652Y1075*
X1647Y1084*
X1639Y1092*
X1630Y1097*
X1620Y1100*
G37*
G36*
X1610D02*
X1609D01*
X1599Y1097*
X1590Y1092*
X1582Y1084*
X1577Y1075*
X1575Y1065*
Y1065*
X1610*
Y1100*
G37*
G36*
X4013Y1098D02*
X4006D01*
X3998Y1096*
X3992Y1093*
X3986Y1087*
X3983Y1081*
X3981Y1073*
Y1066*
X3983Y1058*
X3986Y1052*
X3992Y1046*
X3998Y1043*
X4006Y1041*
X4013*
X4021Y1043*
X4027Y1046*
X4033Y1052*
X4036Y1058*
X4038Y1066*
Y1073*
X4036Y1081*
X4033Y1087*
X4027Y1093*
X4021Y1096*
X4013Y1098*
G37*
G36*
X470Y1075D02*
X470D01*
Y1040*
X505*
Y1040*
X502Y1050*
X497Y1059*
X489Y1067*
X480Y1072*
X470Y1075*
G37*
G36*
X460D02*
X459D01*
X449Y1072*
X440Y1067*
X432Y1059*
X427Y1050*
X425Y1040*
Y1040*
X460*
Y1075*
G37*
G36*
X5735Y1065D02*
X5735D01*
Y1030*
X5770*
Y1030*
X5767Y1040*
X5762Y1049*
X5754Y1057*
X5745Y1062*
X5735Y1065*
G37*
G36*
X5725D02*
X5724D01*
X5714Y1062*
X5705Y1057*
X5697Y1049*
X5692Y1040*
X5690Y1030*
Y1030*
X5725*
Y1065*
G37*
G36*
X2715D02*
X2715D01*
Y1030*
X2750*
Y1030*
X2747Y1040*
X2742Y1049*
X2734Y1057*
X2725Y1062*
X2715Y1065*
G37*
G36*
X2705D02*
X2704D01*
X2694Y1062*
X2685Y1057*
X2677Y1049*
X2672Y1040*
X2670Y1030*
Y1030*
X2705*
Y1065*
G37*
G36*
X5485Y1060D02*
X5450D01*
Y1025*
X5450*
X5460Y1027*
X5469Y1032*
X5477Y1040*
X5482Y1049*
X5485Y1059*
Y1060*
G37*
G36*
X5440D02*
X5405D01*
Y1059*
X5407Y1049*
X5412Y1040*
X5420Y1032*
X5429Y1027*
X5439Y1025*
X5440*
Y1060*
G37*
G36*
X1655Y1055D02*
X1620D01*
Y1020*
X1620*
X1630Y1022*
X1639Y1027*
X1647Y1035*
X1652Y1044*
X1655Y1054*
Y1055*
G37*
G36*
X1610D02*
X1575D01*
Y1054*
X1577Y1044*
X1582Y1035*
X1590Y1027*
X1599Y1022*
X1609Y1020*
X1610*
Y1055*
G37*
G36*
X3890Y1050D02*
X3890D01*
Y1015*
X3925*
Y1015*
X3922Y1025*
X3917Y1034*
X3909Y1042*
X3900Y1047*
X3890Y1050*
G37*
G36*
X3880D02*
X3879D01*
X3869Y1047*
X3860Y1042*
X3852Y1034*
X3847Y1025*
X3845Y1015*
Y1015*
X3880*
Y1050*
G37*
G36*
X1465Y1035D02*
X1465D01*
Y1000*
X1500*
Y1000*
X1497Y1010*
X1492Y1019*
X1484Y1027*
X1475Y1032*
X1465Y1035*
G37*
G36*
X1455D02*
X1454D01*
X1444Y1032*
X1435Y1027*
X1427Y1019*
X1422Y1010*
X1420Y1000*
Y1000*
X1455*
Y1035*
G37*
G36*
X505Y1030D02*
X470D01*
Y995*
X470*
X480Y997*
X489Y1002*
X497Y1010*
X502Y1019*
X505Y1029*
Y1030*
G37*
G36*
X460D02*
X425D01*
Y1029*
X427Y1019*
X432Y1010*
X440Y1002*
X449Y997*
X459Y995*
X460*
Y1030*
G37*
G36*
X4053Y1048D02*
X4046D01*
X4038Y1046*
X4032Y1043*
X4026Y1037*
X4023Y1031*
X4021Y1023*
Y1016*
X4023Y1008*
X4026Y1002*
X4032Y996*
X4038Y993*
X4046Y991*
X4053*
X4061Y993*
X4067Y996*
X4073Y1002*
X4076Y1008*
X4078Y1016*
Y1023*
X4076Y1031*
X4073Y1037*
X4067Y1043*
X4061Y1046*
X4053Y1048*
G37*
G36*
X5770Y1020D02*
X5735D01*
Y985*
X5735*
X5745Y987*
X5754Y992*
X5762Y1000*
X5767Y1009*
X5770Y1019*
Y1020*
G37*
G36*
X5725D02*
X5690D01*
Y1019*
X5692Y1009*
X5697Y1000*
X5705Y992*
X5714Y987*
X5724Y985*
X5725*
Y1020*
G37*
G36*
X2750D02*
X2715D01*
Y985*
X2715*
X2725Y987*
X2734Y992*
X2742Y1000*
X2747Y1009*
X2750Y1019*
Y1020*
G37*
G36*
X2705D02*
X2670D01*
Y1019*
X2672Y1009*
X2677Y1000*
X2685Y992*
X2694Y987*
X2704Y985*
X2705*
Y1020*
G37*
G36*
X4433Y1158D02*
X4426D01*
X4418Y1156*
X4412Y1153*
X4406Y1147*
X4403Y1141*
X4401Y1133*
Y1126*
X4403Y1118*
X4406Y1112*
X4412Y1106*
X4418Y1103*
X4426Y1101*
X4426*
X4427Y1096*
X4422Y1093*
X4416Y1087*
X4413Y1081*
X4411Y1073*
Y1066*
X4413Y1058*
X4416Y1052*
X4422Y1046*
X4428Y1043*
X4430Y1042*
Y1037*
X4428Y1036*
X4422Y1033*
X4416Y1027*
X4413Y1021*
X4411Y1013*
Y1006*
X4413Y998*
X4416Y992*
X4422Y986*
X4428Y983*
X4436Y981*
X4443*
X4451Y983*
X4457Y986*
X4463Y992*
X4466Y998*
X4468Y1006*
Y1013*
X4466Y1021*
X4463Y1027*
X4457Y1033*
X4451Y1036*
X4449Y1037*
Y1042*
X4451Y1043*
X4457Y1046*
X4463Y1052*
X4466Y1058*
X4468Y1066*
Y1073*
X4466Y1081*
X4463Y1087*
X4457Y1093*
X4451Y1096*
X4443Y1098*
X4443*
X4442Y1103*
X4447Y1106*
X4453Y1112*
X4456Y1118*
X4458Y1126*
Y1133*
X4456Y1141*
X4453Y1147*
X4447Y1153*
X4441Y1156*
X4433Y1158*
G37*
G36*
X3925Y1005D02*
X3890D01*
Y970*
X3890*
X3900Y972*
X3909Y977*
X3917Y985*
X3922Y994*
X3925Y1004*
Y1005*
G37*
G36*
X3880D02*
X3845D01*
Y1004*
X3847Y994*
X3852Y985*
X3860Y977*
X3869Y972*
X3879Y970*
X3880*
Y1005*
G37*
G36*
X5330Y1000D02*
X5330D01*
Y965*
X5365*
Y965*
X5362Y975*
X5357Y984*
X5349Y992*
X5340Y997*
X5330Y1000*
G37*
G36*
X5320D02*
X5319D01*
X5309Y997*
X5300Y992*
X5292Y984*
X5287Y975*
X5285Y965*
Y965*
X5320*
Y1000*
G37*
G36*
X2400Y990D02*
X2400D01*
Y955*
X2435*
Y955*
X2432Y965*
X2427Y974*
X2419Y982*
X2410Y987*
X2400Y990*
G37*
G36*
X2390D02*
X2389D01*
X2379Y987*
X2370Y982*
X2362Y974*
X2357Y965*
X2355Y955*
Y955*
X2390*
Y990*
G37*
G36*
X1500D02*
X1465D01*
Y955*
X1465*
X1475Y957*
X1484Y962*
X1492Y970*
X1497Y979*
X1500Y989*
Y990*
G37*
G36*
X1455D02*
X1420D01*
Y989*
X1422Y979*
X1427Y970*
X1435Y962*
X1444Y957*
X1454Y955*
X1455*
Y990*
G37*
G36*
X1770Y980D02*
X1770D01*
Y945*
X1805*
Y945*
X1802Y955*
X1797Y964*
X1789Y972*
X1780Y977*
X1770Y980*
G37*
G36*
X1760D02*
X1759D01*
X1749Y977*
X1740Y972*
X1732Y964*
X1727Y955*
X1725Y945*
Y945*
X1760*
Y980*
G37*
G36*
X4253Y978D02*
X4246D01*
X4238Y976*
X4232Y973*
X4226Y967*
X4223Y961*
X4221Y953*
Y946*
X4223Y938*
X4226Y932*
X4232Y926*
X4238Y923*
X4246Y921*
X4253*
X4261Y923*
X4267Y926*
X4273Y932*
X4276Y938*
X4278Y946*
Y953*
X4276Y961*
X4273Y967*
X4267Y973*
X4261Y976*
X4253Y978*
G37*
G36*
X5365Y955D02*
X5330D01*
Y920*
X5330*
X5340Y922*
X5349Y927*
X5357Y935*
X5362Y944*
X5365Y954*
Y955*
G37*
G36*
X5320D02*
X5285D01*
Y954*
X5287Y944*
X5292Y935*
X5300Y927*
X5309Y922*
X5319Y920*
X5320*
Y955*
G37*
G36*
X2435Y945D02*
X2400D01*
Y910*
X2400*
X2410Y912*
X2419Y917*
X2427Y925*
X2432Y934*
X2435Y944*
Y945*
G37*
G36*
X2390D02*
X2355D01*
Y944*
X2357Y934*
X2362Y925*
X2370Y917*
X2379Y912*
X2389Y910*
X2390*
Y945*
G37*
G36*
X5575Y935D02*
X5575D01*
Y900*
X5610*
Y900*
X5607Y910*
X5602Y919*
X5594Y927*
X5585Y932*
X5575Y935*
G37*
G36*
X5565D02*
X5564D01*
X5554Y932*
X5545Y927*
X5537Y919*
X5532Y910*
X5530Y900*
Y900*
X5565*
Y935*
G37*
G36*
X1805D02*
X1770D01*
Y900*
X1770*
X1780Y902*
X1789Y907*
X1797Y915*
X1802Y924*
X1805Y934*
Y935*
G37*
G36*
X1760D02*
X1725D01*
Y934*
X1727Y924*
X1732Y915*
X1740Y907*
X1749Y902*
X1759Y900*
X1760*
Y935*
G37*
G36*
X5990Y910D02*
X5990D01*
Y875*
X6025*
Y875*
X6022Y885*
X6017Y894*
X6009Y902*
X6000Y907*
X5990Y910*
G37*
G36*
X5980D02*
X5979D01*
X5969Y907*
X5960Y902*
X5952Y894*
X5947Y885*
X5945Y875*
Y875*
X5980*
Y910*
G37*
G36*
X495Y905D02*
X495D01*
Y870*
X530*
Y870*
X527Y880*
X522Y889*
X514Y897*
X505Y902*
X495Y905*
G37*
G36*
X485D02*
X484D01*
X474Y902*
X465Y897*
X457Y889*
X452Y880*
X450Y870*
Y870*
X485*
Y905*
G37*
G36*
X1220Y900D02*
X1220D01*
Y865*
X1255*
Y865*
X1252Y875*
X1247Y884*
X1239Y892*
X1230Y897*
X1220Y900*
G37*
G36*
X1210D02*
X1209D01*
X1199Y897*
X1190Y892*
X1182Y884*
X1177Y875*
X1175Y865*
Y865*
X1210*
Y900*
G37*
G36*
X5610Y890D02*
X5575D01*
Y855*
X5575*
X5585Y857*
X5594Y862*
X5602Y870*
X5607Y879*
X5610Y889*
Y890*
G37*
G36*
X5565D02*
X5530D01*
Y889*
X5532Y879*
X5537Y870*
X5545Y862*
X5554Y857*
X5564Y855*
X5565*
Y890*
G37*
G36*
X1065D02*
X1065D01*
Y855*
X1100*
Y855*
X1097Y865*
X1092Y874*
X1084Y882*
X1075Y887*
X1065Y890*
G37*
G36*
X1055D02*
X1054D01*
X1044Y887*
X1035Y882*
X1027Y874*
X1022Y865*
X1020Y855*
Y855*
X1055*
Y890*
G37*
G36*
X4153Y898D02*
X4146D01*
X4138Y896*
X4132Y893*
X4126Y887*
X4123Y881*
X4121Y873*
Y866*
X4123Y858*
X4126Y852*
X4132Y846*
X4138Y843*
X4146Y841*
X4153*
X4161Y843*
X4167Y846*
X4173Y852*
X4176Y858*
X4178Y866*
Y873*
X4176Y881*
X4173Y887*
X4167Y893*
X4161Y896*
X4153Y898*
G37*
G36*
X6025Y865D02*
X5990D01*
Y830*
X5990*
X6000Y832*
X6009Y837*
X6017Y845*
X6022Y854*
X6025Y864*
Y865*
G37*
G36*
X5980D02*
X5945D01*
Y864*
X5947Y854*
X5952Y845*
X5960Y837*
X5969Y832*
X5979Y830*
X5980*
Y865*
G37*
G36*
X856Y958D02*
X843D01*
X831Y956*
X819Y951*
X808Y944*
X799Y935*
X792Y924*
X787Y912*
X785Y900*
Y887*
X787Y875*
X792Y863*
X799Y852*
X808Y843*
X819Y836*
X831Y831*
X843Y829*
X856*
X868Y831*
X880Y836*
X891Y843*
X900Y852*
X907Y863*
X912Y875*
X914Y887*
Y900*
X912Y912*
X907Y924*
X900Y935*
X891Y944*
X880Y951*
X868Y956*
X856Y958*
G37*
G36*
X530Y860D02*
X495D01*
Y825*
X495*
X505Y827*
X514Y832*
X522Y840*
X527Y849*
X530Y859*
Y860*
G37*
G36*
X485D02*
X450D01*
Y859*
X452Y849*
X457Y840*
X465Y832*
X474Y827*
X484Y825*
X485*
Y860*
G37*
G36*
X3950Y855D02*
X3950D01*
Y820*
X3985*
Y820*
X3982Y830*
X3977Y839*
X3969Y847*
X3960Y852*
X3950Y855*
G37*
G36*
X3940D02*
X3939D01*
X3929Y852*
X3920Y847*
X3912Y839*
X3907Y830*
X3905Y820*
Y820*
X3940*
Y855*
G37*
G36*
X2265D02*
X2265D01*
Y820*
X2300*
Y820*
X2297Y830*
X2292Y839*
X2284Y847*
X2275Y852*
X2265Y855*
G37*
G36*
X2255D02*
X2254D01*
X2244Y852*
X2235Y847*
X2227Y839*
X2222Y830*
X2220Y820*
Y820*
X2255*
Y855*
G37*
G36*
X1255D02*
X1220D01*
Y820*
X1220*
X1230Y822*
X1239Y827*
X1247Y835*
X1252Y844*
X1255Y854*
Y855*
G37*
G36*
X1210D02*
X1175D01*
Y854*
X1177Y844*
X1182Y835*
X1190Y827*
X1199Y822*
X1209Y820*
X1210*
Y855*
G37*
G36*
X5770Y845D02*
X5770D01*
Y810*
X5805*
Y810*
X5802Y820*
X5797Y829*
X5789Y837*
X5780Y842*
X5770Y845*
G37*
G36*
X5760D02*
X5759D01*
X5749Y842*
X5740Y837*
X5732Y829*
X5727Y820*
X5725Y810*
Y810*
X5760*
Y845*
G37*
G36*
X1551Y910D02*
X1538D01*
X1525Y906*
X1514Y900*
X1504Y890*
X1498Y879*
X1495Y866*
Y853*
X1498Y840*
X1504Y829*
X1514Y819*
X1525Y813*
X1538Y810*
X1551*
X1564Y813*
X1575Y819*
X1585Y829*
X1591Y840*
X1595Y853*
Y866*
X1591Y879*
X1585Y890*
X1575Y900*
X1564Y906*
X1551Y910*
G37*
G36*
X1100Y845D02*
X1065D01*
Y810*
X1065*
X1075Y812*
X1084Y817*
X1092Y825*
X1097Y834*
X1100Y844*
Y845*
G37*
G36*
X1055D02*
X1020D01*
Y844*
X1022Y834*
X1027Y825*
X1035Y817*
X1044Y812*
X1054Y810*
X1055*
Y845*
G37*
G36*
X2730Y840D02*
X2730D01*
Y805*
X2765*
Y805*
X2762Y815*
X2757Y824*
X2749Y832*
X2740Y837*
X2730Y840*
G37*
G36*
X2720D02*
X2719D01*
X2709Y837*
X2700Y832*
X2692Y824*
X2687Y815*
X2685Y805*
Y805*
X2720*
Y840*
G37*
G36*
X3985Y810D02*
X3950D01*
Y775*
X3950*
X3960Y777*
X3969Y782*
X3977Y790*
X3982Y799*
X3985Y809*
Y810*
G37*
G36*
X3940D02*
X3905D01*
Y809*
X3907Y799*
X3912Y790*
X3920Y782*
X3929Y777*
X3939Y775*
X3940*
Y810*
G37*
G36*
X2300D02*
X2265D01*
Y775*
X2265*
X2275Y777*
X2284Y782*
X2292Y790*
X2297Y799*
X2300Y809*
Y810*
G37*
G36*
X2255D02*
X2220D01*
Y809*
X2222Y799*
X2227Y790*
X2235Y782*
X2244Y777*
X2254Y775*
X2255*
Y810*
G37*
G36*
X5805Y800D02*
X5770D01*
Y765*
X5770*
X5780Y767*
X5789Y772*
X5797Y780*
X5802Y789*
X5805Y799*
Y800*
G37*
G36*
X5760D02*
X5725D01*
Y799*
X5727Y789*
X5732Y780*
X5740Y772*
X5749Y767*
X5759Y765*
X5760*
Y800*
G37*
G36*
X4343Y818D02*
X4336D01*
X4328Y816*
X4322Y813*
X4316Y807*
X4313Y801*
X4311Y793*
Y786*
X4313Y778*
X4316Y772*
X4322Y766*
X4328Y763*
X4336Y761*
X4343*
X4351Y763*
X4357Y766*
X4363Y772*
X4366Y778*
X4368Y786*
Y793*
X4366Y801*
X4363Y807*
X4357Y813*
X4351Y816*
X4343Y818*
G37*
G36*
X5470Y795D02*
X5470D01*
Y760*
X5505*
Y760*
X5502Y770*
X5497Y779*
X5489Y787*
X5480Y792*
X5470Y795*
G37*
G36*
X5460D02*
X5459D01*
X5449Y792*
X5440Y787*
X5432Y779*
X5427Y770*
X5425Y760*
Y760*
X5460*
Y795*
G37*
G36*
X2765D02*
X2730D01*
Y760*
X2730*
X2740Y762*
X2749Y767*
X2757Y775*
X2762Y784*
X2765Y794*
Y795*
G37*
G36*
X2720D02*
X2685D01*
Y794*
X2687Y784*
X2692Y775*
X2700Y767*
X2709Y762*
X2719Y760*
X2720*
Y795*
G37*
G36*
X5505Y750D02*
X5470D01*
Y715*
X5470*
X5480Y717*
X5489Y722*
X5497Y730*
X5502Y739*
X5505Y749*
Y750*
G37*
G36*
X5460D02*
X5425D01*
Y749*
X5427Y739*
X5432Y730*
X5440Y722*
X5449Y717*
X5459Y715*
X5460*
Y750*
G37*
G36*
X680Y740D02*
X680D01*
Y705*
X715*
Y705*
X712Y715*
X707Y724*
X699Y732*
X690Y737*
X680Y740*
G37*
G36*
X670D02*
X669D01*
X659Y737*
X650Y732*
X642Y724*
X637Y715*
X635Y705*
Y705*
X670*
Y740*
G37*
G36*
X2519Y804D02*
X2410D01*
Y695*
X2519*
Y804*
G37*
G36*
X1881D02*
X1867D01*
X1853Y800*
X1841Y793*
X1831Y783*
X1823Y771*
X1820Y757*
Y742*
X1823Y728*
X1831Y716*
X1841Y706*
X1853Y699*
X1867Y695*
X1881*
X1895Y699*
X1908Y706*
X1918Y716*
X1925Y728*
X1929Y742*
Y757*
X1925Y771*
X1918Y783*
X1908Y793*
X1895Y800*
X1881Y804*
G37*
G36*
X715Y695D02*
X680D01*
Y660*
X680*
X690Y662*
X699Y667*
X707Y675*
X712Y684*
X715Y694*
Y695*
G37*
G36*
X670D02*
X635D01*
Y694*
X637Y684*
X642Y675*
X650Y667*
X659Y662*
X669Y660*
X670*
Y695*
G37*
G36*
X1540Y675D02*
X1540D01*
Y640*
X1575*
Y640*
X1572Y650*
X1567Y659*
X1559Y667*
X1550Y672*
X1540Y675*
G37*
G36*
X1530D02*
X1529D01*
X1519Y672*
X1510Y667*
X1502Y659*
X1497Y650*
X1495Y640*
Y640*
X1530*
Y675*
G37*
G36*
X6000Y670D02*
X6000D01*
Y635*
X6035*
Y635*
X6032Y645*
X6027Y654*
X6019Y662*
X6010Y667*
X6000Y670*
G37*
G36*
X5990D02*
X5989D01*
X5979Y667*
X5970Y662*
X5962Y654*
X5957Y645*
X5955Y635*
Y635*
X5990*
Y670*
G37*
G36*
X5640D02*
X5640D01*
Y635*
X5675*
Y635*
X5672Y645*
X5667Y654*
X5659Y662*
X5650Y667*
X5640Y670*
G37*
G36*
X5630D02*
X5629D01*
X5619Y667*
X5610Y662*
X5602Y654*
X5597Y645*
X5595Y635*
Y635*
X5630*
Y670*
G37*
G36*
X505Y665D02*
X505D01*
Y630*
X540*
Y630*
X537Y640*
X532Y649*
X524Y657*
X515Y662*
X505Y665*
G37*
G36*
X495D02*
X494D01*
X484Y662*
X475Y657*
X467Y649*
X462Y640*
X460Y630*
Y630*
X495*
Y665*
G37*
G36*
X2135Y660D02*
X2135D01*
Y625*
X2170*
Y625*
X2167Y635*
X2162Y644*
X2154Y652*
X2145Y657*
X2135Y660*
G37*
G36*
X2125D02*
X2124D01*
X2114Y657*
X2105Y652*
X2097Y644*
X2092Y635*
X2090Y625*
Y625*
X2125*
Y660*
G37*
G36*
X2750Y635D02*
X2750D01*
Y600*
X2785*
Y600*
X2782Y610*
X2777Y619*
X2769Y627*
X2760Y632*
X2750Y635*
G37*
G36*
X2740D02*
X2739D01*
X2729Y632*
X2720Y627*
X2712Y619*
X2707Y610*
X2705Y600*
Y600*
X2740*
Y635*
G37*
G36*
X1575Y630D02*
X1540D01*
Y595*
X1540*
X1550Y597*
X1559Y602*
X1567Y610*
X1572Y619*
X1575Y629*
Y630*
G37*
G36*
X1530D02*
X1495D01*
Y629*
X1497Y619*
X1502Y610*
X1510Y602*
X1519Y597*
X1529Y595*
X1530*
Y630*
G37*
G36*
X6035Y625D02*
X6000D01*
Y590*
X6000*
X6010Y592*
X6019Y597*
X6027Y605*
X6032Y614*
X6035Y624*
Y625*
G37*
G36*
X5990D02*
X5955D01*
Y624*
X5957Y614*
X5962Y605*
X5970Y597*
X5979Y592*
X5989Y590*
X5990*
Y625*
G37*
G36*
X5675D02*
X5640D01*
Y590*
X5640*
X5650Y592*
X5659Y597*
X5667Y605*
X5672Y614*
X5675Y624*
Y625*
G37*
G36*
X5630D02*
X5595D01*
Y624*
X5597Y614*
X5602Y605*
X5610Y597*
X5619Y592*
X5629Y590*
X5630*
Y625*
G37*
G36*
X540Y620D02*
X505D01*
Y585*
X505*
X515Y587*
X524Y592*
X532Y600*
X537Y609*
X540Y619*
Y620*
G37*
G36*
X495D02*
X460D01*
Y619*
X462Y609*
X467Y600*
X475Y592*
X484Y587*
X494Y585*
X495*
Y620*
G37*
G36*
X2170Y615D02*
X2135D01*
Y580*
X2135*
X2145Y582*
X2154Y587*
X2162Y595*
X2167Y604*
X2170Y614*
Y615*
G37*
G36*
X2125D02*
X2090D01*
Y614*
X2092Y604*
X2097Y595*
X2105Y587*
X2114Y582*
X2124Y580*
X2125*
Y615*
G37*
G36*
X5549Y602D02*
X5446D01*
Y579*
X5441Y578*
X5439Y582*
X5429Y591*
X5417Y598*
X5404Y602*
X5391*
X5378Y598*
X5366Y591*
X5356Y582*
X5350Y571*
X5349Y571*
X5346*
X5345Y571*
X5339Y582*
X5329Y591*
X5317Y598*
X5304Y602*
X5291*
X5278Y598*
X5266Y591*
X5256Y582*
X5250Y571*
X5249Y571*
X5246*
X5245Y571*
X5239Y582*
X5229Y591*
X5217Y598*
X5204Y602*
X5191*
X5178Y598*
X5166Y591*
X5156Y582*
X5150Y571*
X5149Y571*
X5146*
X5145Y571*
X5139Y582*
X5129Y591*
X5117Y598*
X5104Y602*
X5091*
X5078Y598*
X5066Y591*
X5056Y582*
X5050Y570*
X5046Y557*
Y543*
X5050Y530*
X5056Y519*
X5066Y509*
X5078Y502*
X5091Y499*
X5104*
X5117Y502*
X5129Y509*
X5139Y519*
X5145Y529*
X5146Y529*
X5149*
X5150Y529*
X5156Y519*
X5166Y509*
X5176Y503*
X5177Y501*
Y499*
X5176Y497*
X5166Y491*
X5156Y482*
X5150Y470*
X5146Y457*
Y443*
X5150Y430*
X5156Y419*
X5166Y409*
X5178Y402*
X5191Y399*
X5204*
X5217Y402*
X5229Y409*
X5239Y419*
X5245Y429*
X5246Y429*
X5249*
X5250Y429*
X5256Y419*
X5266Y409*
X5278Y402*
X5291Y399*
X5304*
X5317Y402*
X5329Y409*
X5339Y419*
X5345Y429*
X5346Y429*
X5349*
X5350Y429*
X5356Y419*
X5366Y409*
X5378Y402*
X5391Y399*
X5404*
X5417Y402*
X5429Y409*
X5439Y419*
X5445Y429*
X5446Y429*
X5449*
X5450Y429*
X5456Y419*
X5466Y409*
X5478Y402*
X5491Y399*
X5504*
X5517Y402*
X5529Y409*
X5539Y419*
X5546Y430*
X5549Y443*
Y457*
X5546Y470*
X5539Y482*
X5529Y491*
X5525Y494*
X5527Y499*
X5549*
Y602*
G37*
G36*
X4651Y601D02*
X4548D01*
Y578*
X4543Y577*
X4541Y581*
X4531Y591*
X4519Y597*
X4506Y601*
X4493*
X4480Y597*
X4468Y591*
X4458Y581*
X4452Y571*
X4451Y570*
X4448*
X4447Y571*
X4441Y581*
X4431Y591*
X4419Y597*
X4406Y601*
X4393*
X4380Y597*
X4368Y591*
X4358Y581*
X4352Y571*
X4351Y570*
X4348*
X4347Y571*
X4341Y581*
X4331Y591*
X4319Y597*
X4306Y601*
X4293*
X4280Y597*
X4268Y591*
X4258Y581*
X4252Y571*
X4251Y570*
X4248*
X4247Y571*
X4241Y581*
X4231Y591*
X4219Y597*
X4206Y601*
X4193*
X4180Y597*
X4168Y591*
X4158Y581*
X4152Y569*
X4148Y556*
Y543*
X4152Y530*
X4158Y518*
X4168Y508*
X4180Y502*
X4193Y498*
X4206*
X4219Y502*
X4231Y508*
X4241Y518*
X4247Y528*
X4248Y529*
X4251*
X4252Y528*
X4258Y518*
X4268Y508*
X4278Y502*
X4279Y501*
Y498*
X4278Y497*
X4268Y491*
X4258Y481*
X4252Y469*
X4248Y456*
Y443*
X4252Y430*
X4258Y418*
X4268Y408*
X4280Y402*
X4293Y398*
X4306*
X4319Y402*
X4331Y408*
X4341Y418*
X4347Y428*
X4348Y429*
X4351*
X4352Y428*
X4358Y418*
X4368Y408*
X4380Y402*
X4393Y398*
X4406*
X4419Y402*
X4431Y408*
X4441Y418*
X4447Y428*
X4448Y429*
X4451*
X4452Y428*
X4458Y418*
X4468Y408*
X4480Y402*
X4493Y398*
X4506*
X4519Y402*
X4531Y408*
X4541Y418*
X4547Y428*
X4548Y429*
X4551*
X4552Y428*
X4558Y418*
X4568Y408*
X4580Y402*
X4593Y398*
X4606*
X4619Y402*
X4631Y408*
X4641Y418*
X4647Y430*
X4651Y443*
Y456*
X4647Y469*
X4641Y481*
X4631Y491*
X4627Y493*
X4628Y498*
X4651*
Y601*
G37*
G36*
X5825Y610D02*
X5825D01*
Y575*
X5860*
Y575*
X5857Y585*
X5852Y594*
X5844Y602*
X5835Y607*
X5825Y610*
G37*
G36*
X5815D02*
X5814D01*
X5804Y607*
X5795Y602*
X5787Y594*
X5782Y585*
X5780Y575*
Y575*
X5815*
Y610*
G37*
G36*
X3925Y590D02*
X3925D01*
Y555*
X3960*
Y555*
X3957Y565*
X3952Y574*
X3944Y582*
X3935Y587*
X3925Y590*
G37*
G36*
X3915D02*
X3914D01*
X3904Y587*
X3895Y582*
X3887Y574*
X3882Y565*
X3880Y555*
Y555*
X3915*
Y590*
G37*
G36*
X2785D02*
X2750D01*
Y555*
X2750*
X2760Y557*
X2769Y562*
X2777Y570*
X2782Y579*
X2785Y589*
Y590*
G37*
G36*
X2740D02*
X2705D01*
Y589*
X2707Y579*
X2712Y570*
X2720Y562*
X2729Y557*
X2739Y555*
X2740*
Y590*
G37*
G36*
X1875D02*
X1875D01*
Y555*
X1910*
Y555*
X1907Y565*
X1902Y574*
X1894Y582*
X1885Y587*
X1875Y590*
G37*
G36*
X1865D02*
X1864D01*
X1854Y587*
X1845Y582*
X1837Y574*
X1832Y565*
X1830Y555*
Y555*
X1865*
Y590*
G37*
G36*
X5860Y565D02*
X5825D01*
Y530*
X5825*
X5835Y532*
X5844Y537*
X5852Y545*
X5857Y554*
X5860Y564*
Y565*
G37*
G36*
X5815D02*
X5780D01*
Y564*
X5782Y554*
X5787Y545*
X5795Y537*
X5804Y532*
X5814Y530*
X5815*
Y565*
G37*
G36*
X3960Y545D02*
X3925D01*
Y510*
X3925*
X3935Y512*
X3944Y517*
X3952Y525*
X3957Y534*
X3960Y544*
Y545*
G37*
G36*
X3915D02*
X3880D01*
Y544*
X3882Y534*
X3887Y525*
X3895Y517*
X3904Y512*
X3914Y510*
X3915*
Y545*
G37*
G36*
X1910D02*
X1875D01*
Y510*
X1875*
X1885Y512*
X1894Y517*
X1902Y525*
X1907Y534*
X1910Y544*
Y545*
G37*
G36*
X1865D02*
X1830D01*
Y544*
X1832Y534*
X1837Y525*
X1845Y517*
X1854Y512*
X1864Y510*
X1865*
Y545*
G37*
G36*
X3787Y587D02*
X3692D01*
Y492*
X3787*
Y587*
G37*
G36*
X3547D02*
X3452D01*
Y492*
X3547*
Y587*
G37*
G36*
X3237Y585D02*
X3142D01*
Y490*
X3237*
Y585*
G37*
G36*
X2987D02*
X2892D01*
Y490*
X2987*
Y585*
G37*
G36*
X2250Y515D02*
X2250D01*
Y480*
X2285*
Y480*
X2282Y490*
X2277Y499*
X2269Y507*
X2260Y512*
X2250Y515*
G37*
G36*
X2240D02*
X2239D01*
X2229Y512*
X2220Y507*
X2212Y499*
X2207Y490*
X2205Y480*
Y480*
X2240*
Y515*
G37*
G36*
X5103Y492D02*
X5103D01*
Y455*
X5139*
Y456*
X5136Y466*
X5131Y476*
X5123Y483*
X5114Y489*
X5103Y492*
G37*
G36*
X5093D02*
X5092D01*
X5082Y489*
X5072Y483*
X5064Y476*
X5059Y466*
X5056Y456*
Y455*
X5093*
Y492*
G37*
G36*
X4205Y491D02*
X4205D01*
Y455*
X4241*
Y455*
X4238Y466*
X4233Y475*
X4225Y483*
X4216Y488*
X4205Y491*
G37*
G36*
X4195D02*
X4194D01*
X4183Y488*
X4174Y483*
X4166Y475*
X4161Y466*
X4158Y455*
Y455*
X4195*
Y491*
G37*
G36*
X5790Y485D02*
X5790D01*
Y450*
X5825*
Y450*
X5822Y460*
X5817Y469*
X5809Y477*
X5800Y482*
X5790Y485*
G37*
G36*
X5780D02*
X5779D01*
X5769Y482*
X5760Y477*
X5752Y469*
X5747Y460*
X5745Y450*
Y450*
X5780*
Y485*
G37*
G36*
X1540D02*
X1540D01*
Y450*
X1575*
Y450*
X1572Y460*
X1567Y469*
X1559Y477*
X1550Y482*
X1540Y485*
G37*
G36*
X1530D02*
X1529D01*
X1519Y482*
X1510Y477*
X1502Y469*
X1497Y460*
X1495Y450*
Y450*
X1530*
Y485*
G37*
G36*
X3745Y479D02*
Y446D01*
X3777*
X3775Y456*
X3770Y464*
X3763Y471*
X3754Y476*
X3745Y479*
G37*
G36*
X3505D02*
Y446D01*
X3537*
X3535Y456*
X3530Y464*
X3523Y471*
X3514Y476*
X3505Y479*
G37*
G36*
X3735D02*
X3725Y476D01*
X3716Y471*
X3709Y464*
X3705Y456*
X3702Y446*
X3735*
Y479*
G37*
G36*
X3495D02*
X3485Y476D01*
X3476Y471*
X3469Y464*
X3465Y456*
X3462Y446*
X3495*
Y479*
G37*
G36*
X3195Y477D02*
Y445D01*
X3227*
X3225Y454*
X3220Y463*
X3213Y470*
X3204Y475*
X3195Y477*
G37*
G36*
X2945D02*
Y445D01*
X2977*
X2975Y454*
X2970Y463*
X2963Y470*
X2954Y475*
X2945Y477*
G37*
G36*
X3185D02*
X3175Y475D01*
X3166Y470*
X3159Y463*
X3155Y454*
X3152Y445*
X3185*
Y477*
G37*
G36*
X2935D02*
X2925Y475D01*
X2916Y470*
X2909Y463*
X2905Y454*
X2902Y445*
X2935*
Y477*
G37*
G36*
X1262Y555D02*
X1247D01*
X1233Y551*
X1220Y544*
X1210Y534*
X1203Y521*
X1199Y507*
Y492*
X1203Y478*
X1210Y465*
X1220Y455*
X1233Y448*
X1247Y444*
X1262*
X1276Y448*
X1289Y455*
X1299Y465*
X1306Y478*
X1310Y492*
Y507*
X1306Y521*
X1299Y534*
X1289Y544*
X1276Y551*
X1262Y555*
G37*
G36*
X1060D02*
X949D01*
Y444*
X1060*
Y555*
G37*
G36*
X2475Y475D02*
X2475D01*
Y440*
X2510*
Y440*
X2507Y450*
X2502Y459*
X2494Y467*
X2485Y472*
X2475Y475*
G37*
G36*
X2465D02*
X2464D01*
X2454Y472*
X2445Y467*
X2437Y459*
X2432Y450*
X2430Y440*
Y440*
X2465*
Y475*
G37*
G36*
X715D02*
X715D01*
Y440*
X750*
Y440*
X747Y450*
X742Y459*
X734Y467*
X725Y472*
X715Y475*
G37*
G36*
X705D02*
X704D01*
X694Y472*
X685Y467*
X677Y459*
X672Y450*
X670Y440*
Y440*
X705*
Y475*
G37*
G36*
X2285Y470D02*
X2250D01*
Y435*
X2250*
X2260Y437*
X2269Y442*
X2277Y450*
X2282Y459*
X2285Y469*
Y470*
G37*
G36*
X2240D02*
X2205D01*
Y469*
X2207Y459*
X2212Y450*
X2220Y442*
X2229Y437*
X2239Y435*
X2240*
Y470*
G37*
G36*
X2025D02*
X2025D01*
Y435*
X2060*
Y435*
X2057Y445*
X2052Y454*
X2044Y462*
X2035Y467*
X2025Y470*
G37*
G36*
X2015D02*
X2014D01*
X2004Y467*
X1995Y462*
X1987Y454*
X1982Y445*
X1980Y435*
Y435*
X2015*
Y470*
G37*
G36*
X5139Y445D02*
X5103D01*
Y409*
X5103*
X5114Y411*
X5123Y417*
X5131Y425*
X5136Y434*
X5139Y445*
Y445*
G37*
G36*
X5093D02*
X5056D01*
Y445*
X5059Y434*
X5064Y425*
X5072Y417*
X5082Y411*
X5092Y409*
X5093*
Y445*
G37*
G36*
X4241Y445D02*
X4205D01*
Y408*
X4205*
X4216Y411*
X4225Y416*
X4233Y424*
X4238Y433*
X4241Y444*
Y445*
G37*
G36*
X4195D02*
X4158D01*
Y444*
X4161Y433*
X4166Y424*
X4174Y416*
X4183Y411*
X4194Y408*
X4195*
Y445*
G37*
G36*
X5825Y440D02*
X5790D01*
Y405*
X5790*
X5800Y407*
X5809Y412*
X5817Y420*
X5822Y429*
X5825Y439*
Y440*
G37*
G36*
X5780D02*
X5745D01*
Y439*
X5747Y429*
X5752Y420*
X5760Y412*
X5769Y407*
X5779Y405*
X5780*
Y440*
G37*
G36*
X1575D02*
X1540D01*
Y405*
X1540*
X1550Y407*
X1559Y412*
X1567Y420*
X1572Y429*
X1575Y439*
Y440*
G37*
G36*
X1530D02*
X1495D01*
Y439*
X1497Y429*
X1502Y420*
X1510Y412*
X1519Y407*
X1529Y405*
X1530*
Y440*
G37*
G36*
X3495Y436D02*
X3462D01*
X3465Y427*
X3469Y418*
X3476Y411*
X3485Y406*
X3495Y404*
Y436*
G37*
G36*
X3735D02*
X3702D01*
X3705Y427*
X3709Y418*
X3716Y411*
X3725Y406*
X3735Y404*
Y436*
G37*
G36*
X3777D02*
X3745D01*
Y404*
X3754Y406*
X3763Y411*
X3770Y418*
X3775Y427*
X3777Y436*
G37*
G36*
X3537D02*
X3505D01*
Y404*
X3514Y406*
X3523Y411*
X3530Y418*
X3535Y427*
X3537Y436*
G37*
G36*
X3185Y435D02*
X3152D01*
X3155Y425*
X3159Y416*
X3166Y409*
X3175Y405*
X3185Y402*
Y435*
G37*
G36*
X2935D02*
X2902D01*
X2905Y425*
X2909Y416*
X2916Y409*
X2925Y405*
X2935Y402*
Y435*
G37*
G36*
X3227D02*
X3195D01*
Y402*
X3204Y405*
X3213Y409*
X3220Y416*
X3225Y425*
X3227Y435*
G37*
G36*
X2977D02*
X2945D01*
Y402*
X2954Y405*
X2963Y409*
X2970Y416*
X2975Y425*
X2977Y435*
G37*
G36*
X2510Y430D02*
X2475D01*
Y395*
X2475*
X2485Y397*
X2494Y402*
X2502Y410*
X2507Y419*
X2510Y429*
Y430*
G37*
G36*
X2465D02*
X2430D01*
Y429*
X2432Y419*
X2437Y410*
X2445Y402*
X2454Y397*
X2464Y395*
X2465*
Y430*
G37*
G36*
X750D02*
X715D01*
Y395*
X715*
X725Y397*
X734Y402*
X742Y410*
X747Y419*
X750Y429*
Y430*
G37*
G36*
X705D02*
X670D01*
Y429*
X672Y419*
X677Y410*
X685Y402*
X694Y397*
X704Y395*
X705*
Y430*
G37*
G36*
X2060Y425D02*
X2025D01*
Y390*
X2025*
X2035Y392*
X2044Y397*
X2052Y405*
X2057Y414*
X2060Y424*
Y425*
G37*
G36*
X2015D02*
X1980D01*
Y424*
X1982Y414*
X1987Y405*
X1995Y397*
X2004Y392*
X2014Y390*
X2015*
Y425*
G37*
G36*
X1700Y415D02*
X1700D01*
Y380*
X1735*
Y380*
X1732Y390*
X1727Y399*
X1719Y407*
X1710Y412*
X1700Y415*
G37*
G36*
X1690D02*
X1689D01*
X1679Y412*
X1670Y407*
X1662Y399*
X1657Y390*
X1655Y380*
Y380*
X1690*
Y415*
G37*
G36*
X5645Y405D02*
X5645D01*
Y370*
X5680*
Y370*
X5677Y380*
X5672Y389*
X5664Y397*
X5655Y402*
X5645Y405*
G37*
G36*
X5635D02*
X5634D01*
X5624Y402*
X5615Y397*
X5607Y389*
X5602Y380*
X5600Y370*
Y370*
X5635*
Y405*
G37*
G36*
X4705D02*
X4705D01*
Y370*
X4740*
Y370*
X4737Y380*
X4732Y389*
X4724Y397*
X4715Y402*
X4705Y405*
G37*
G36*
X4695D02*
X4694D01*
X4684Y402*
X4675Y397*
X4667Y389*
X4662Y380*
X4660Y370*
Y370*
X4695*
Y405*
G37*
G36*
X3915D02*
X3915D01*
Y370*
X3950*
Y370*
X3947Y380*
X3942Y389*
X3934Y397*
X3925Y402*
X3915Y405*
G37*
G36*
X3905D02*
X3904D01*
X3894Y402*
X3885Y397*
X3877Y389*
X3872Y380*
X3870Y370*
Y370*
X3905*
Y405*
G37*
G36*
X4975Y400D02*
X4975D01*
Y365*
X5010*
Y365*
X5007Y375*
X5002Y384*
X4994Y392*
X4985Y397*
X4975Y400*
G37*
G36*
X4965D02*
X4964D01*
X4954Y397*
X4945Y392*
X4937Y384*
X4932Y375*
X4930Y365*
Y365*
X4965*
Y400*
G37*
G36*
X2660Y390D02*
X2660D01*
Y355*
X2695*
Y355*
X2692Y365*
X2687Y374*
X2679Y382*
X2670Y387*
X2660Y390*
G37*
G36*
X2650D02*
X2649D01*
X2639Y387*
X2630Y382*
X2622Y374*
X2617Y365*
X2615Y355*
Y355*
X2650*
Y390*
G37*
G36*
X1285D02*
X1285D01*
Y355*
X1320*
Y355*
X1317Y365*
X1312Y374*
X1304Y382*
X1295Y387*
X1285Y390*
G37*
G36*
X1275D02*
X1274D01*
X1264Y387*
X1255Y382*
X1247Y374*
X1242Y365*
X1240Y355*
Y355*
X1275*
Y390*
G37*
G36*
X1735Y370D02*
X1700D01*
Y335*
X1700*
X1710Y337*
X1719Y342*
X1727Y350*
X1732Y359*
X1735Y369*
Y370*
G37*
G36*
X1690D02*
X1655D01*
Y369*
X1657Y359*
X1662Y350*
X1670Y342*
X1679Y337*
X1689Y335*
X1690*
Y370*
G37*
G36*
X1040D02*
X1040D01*
Y335*
X1075*
Y335*
X1072Y345*
X1067Y354*
X1059Y362*
X1050Y367*
X1040Y370*
G37*
G36*
X1030D02*
X1029D01*
X1019Y367*
X1010Y362*
X1002Y354*
X997Y345*
X995Y335*
Y335*
X1030*
Y370*
G37*
G36*
X5680Y360D02*
X5645D01*
Y325*
X5645*
X5655Y327*
X5664Y332*
X5672Y340*
X5677Y349*
X5680Y359*
Y360*
G37*
G36*
X5635D02*
X5600D01*
Y359*
X5602Y349*
X5607Y340*
X5615Y332*
X5624Y327*
X5634Y325*
X5635*
Y360*
G37*
G36*
X4740D02*
X4705D01*
Y325*
X4705*
X4715Y327*
X4724Y332*
X4732Y340*
X4737Y349*
X4740Y359*
Y360*
G37*
G36*
X4695D02*
X4660D01*
Y359*
X4662Y349*
X4667Y340*
X4675Y332*
X4684Y327*
X4694Y325*
X4695*
Y360*
G37*
G36*
X3950D02*
X3915D01*
Y325*
X3915*
X3925Y327*
X3934Y332*
X3942Y340*
X3947Y349*
X3950Y359*
Y360*
G37*
G36*
X3905D02*
X3870D01*
Y359*
X3872Y349*
X3877Y340*
X3885Y332*
X3894Y327*
X3904Y325*
X3905*
Y360*
G37*
G36*
X3620D02*
X3620D01*
Y325*
X3655*
Y325*
X3652Y335*
X3647Y344*
X3639Y352*
X3630Y357*
X3620Y360*
G37*
G36*
X3610D02*
X3609D01*
X3599Y357*
X3590Y352*
X3582Y344*
X3577Y335*
X3575Y325*
Y325*
X3610*
Y360*
G37*
G36*
X3320D02*
X3320D01*
Y325*
X3355*
Y325*
X3352Y335*
X3347Y344*
X3339Y352*
X3330Y357*
X3320Y360*
G37*
G36*
X3310D02*
X3309D01*
X3299Y357*
X3290Y352*
X3282Y344*
X3277Y335*
X3275Y325*
Y325*
X3310*
Y360*
G37*
G36*
X5010Y355D02*
X4975D01*
Y320*
X4975*
X4985Y322*
X4994Y327*
X5002Y335*
X5007Y344*
X5010Y354*
Y355*
G37*
G36*
X4965D02*
X4930D01*
Y354*
X4932Y344*
X4937Y335*
X4945Y327*
X4954Y322*
X4964Y320*
X4965*
Y355*
G37*
G36*
X3055D02*
X3055D01*
Y320*
X3090*
Y320*
X3087Y330*
X3082Y339*
X3074Y347*
X3065Y352*
X3055Y355*
G37*
G36*
X3045D02*
X3044D01*
X3034Y352*
X3025Y347*
X3017Y339*
X3012Y330*
X3010Y320*
Y320*
X3045*
Y355*
G37*
G36*
X2695Y345D02*
X2660D01*
Y310*
X2660*
X2670Y312*
X2679Y317*
X2687Y325*
X2692Y334*
X2695Y344*
Y345*
G37*
G36*
X2650D02*
X2615D01*
Y344*
X2617Y334*
X2622Y325*
X2630Y317*
X2639Y312*
X2649Y310*
X2650*
Y345*
G37*
G36*
X1320D02*
X1285D01*
Y310*
X1285*
X1295Y312*
X1304Y317*
X1312Y325*
X1317Y334*
X1320Y344*
Y345*
G37*
G36*
X1275D02*
X1240D01*
Y344*
X1242Y334*
X1247Y325*
X1255Y317*
X1264Y312*
X1274Y310*
X1275*
Y345*
G37*
G36*
X1075Y325D02*
X1040D01*
Y290*
X1040*
X1050Y292*
X1059Y297*
X1067Y305*
X1072Y314*
X1075Y324*
Y325*
G37*
G36*
X1030D02*
X995D01*
Y324*
X997Y314*
X1002Y305*
X1010Y297*
X1019Y292*
X1029Y290*
X1030*
Y325*
G37*
G36*
X3655Y315D02*
X3620D01*
Y280*
X3620*
X3630Y282*
X3639Y287*
X3647Y295*
X3652Y304*
X3655Y314*
Y315*
G37*
G36*
X3610D02*
X3575D01*
Y314*
X3577Y304*
X3582Y295*
X3590Y287*
X3599Y282*
X3609Y280*
X3610*
Y315*
G37*
G36*
X3355D02*
X3320D01*
Y280*
X3320*
X3330Y282*
X3339Y287*
X3347Y295*
X3352Y304*
X3355Y314*
Y315*
G37*
G36*
X3310D02*
X3275D01*
Y314*
X3277Y304*
X3282Y295*
X3290Y287*
X3299Y282*
X3309Y280*
X3310*
Y315*
G37*
G36*
X3090Y310D02*
X3055D01*
Y275*
X3055*
X3065Y277*
X3074Y282*
X3082Y290*
X3087Y299*
X3090Y309*
Y310*
G37*
G36*
X3045D02*
X3010D01*
Y309*
X3012Y299*
X3017Y290*
X3025Y282*
X3034Y277*
X3044Y275*
X3045*
Y310*
G37*
%LNpcb-3*%
%LPD*%
G54D59*
X2465Y750D03*
G54D60*
X1874Y750D03*
G54D61*
X5056Y3726D03*
X4582D03*
G54D62*
X4770Y3541D03*
G54D63*
X4868Y3541D03*
Y3620D03*
X4770D03*
G54D68*
X5640Y3880D03*
G54D69*
X5540Y3880D03*
X5440D03*
X5640Y3780D03*
X5540D03*
X5440D03*
G54D72*
X3740Y540D03*
X3500D03*
X2940Y538D03*
X3190D03*
G54D73*
X3740Y441D03*
X3500D03*
X2940Y440D03*
X3190D03*
G54D88*
X5680Y1210D03*
Y1310D03*
Y1410D03*
Y1510D03*
Y1610D03*
Y1710D03*
Y1810D03*
Y1910D03*
Y2010D03*
Y2110D03*
Y2210D03*
Y2310D03*
Y2410D03*
Y2510D03*
Y2610D03*
Y2710D03*
Y2810D03*
Y2910D03*
Y3010D03*
X5780Y1210D03*
Y1310D03*
Y1410D03*
Y1510D03*
Y1610D03*
Y1710D03*
Y1810D03*
Y1910D03*
Y2010D03*
Y2110D03*
Y2210D03*
Y2310D03*
Y2410D03*
Y2510D03*
Y2610D03*
Y2710D03*
Y2810D03*
Y2910D03*
Y3010D03*
Y3110D03*
G54D89*
X5680Y3110D03*
G54D90*
X4600Y450D03*
X4500D03*
X4400D03*
X4300D03*
X4200D03*
X4500Y550D03*
X4400D03*
X4300D03*
X4200D03*
X5098Y550D03*
X5198D03*
X5298D03*
X5398D03*
X5098Y450D03*
X5198D03*
X5298D03*
X5398D03*
X5498D03*
G54D91*
X4600Y550D03*
X5498Y550D03*
G54D92*
X1005Y500D03*
X1159Y3808D03*
G54D93*
X1255Y500D03*
X909Y3808D03*
G54D94*
X850Y893D03*
Y1681D03*
G54D95*
X2746Y3800D03*
X3196Y3805D03*
X3948Y3806D03*
X3498Y3801D03*
X1991Y3800D03*
X2441Y3805D03*
X5994Y343D03*
Y3965D03*
X404Y343D03*
Y3965D03*
G54D96*
X3048Y3548D03*
X2998Y3448D03*
X2948Y3548D03*
X2898Y3448D03*
X2848Y3548D03*
X2798Y3448D03*
X3148Y3548D03*
X3098Y3448D03*
X3850Y3450D03*
X3900Y3550D03*
X3550Y3450D03*
X3600Y3550D03*
X3650Y3450D03*
X3700Y3550D03*
X3750Y3450D03*
X3800Y3550D03*
X2293Y3548D03*
X2243Y3448D03*
X2193Y3548D03*
X2143Y3448D03*
X2093Y3548D03*
X2043Y3448D03*
X2393Y3548D03*
X2343Y3448D03*
G54D98*
X600Y2390D03*
Y2290D03*
Y2190D03*
G54D99*
X520Y3515D03*
Y2924D03*
G54D100*
X3635Y2687D03*
X3835Y2482D03*
X2970Y1840D03*
X5325Y2945D03*
X5140Y2455D03*
X4910Y2690D03*
X4470Y2825D03*
X4615Y2985D03*
X4995Y3060D03*
X4700Y3980D03*
X4930Y3970D03*
X5225Y3945D03*
X4395Y3980D03*
X4200Y3840D03*
X4345Y3705D03*
X4140Y3555D03*
X4330Y3485D03*
X4140Y3350D03*
X6005Y3640D03*
X6025Y3385D03*
X6040Y3170D03*
X6025Y2915D03*
X5975Y2410D03*
X5970Y2185D03*
X5980Y1915D03*
X5975Y1685D03*
X5970Y1455D03*
Y1165D03*
X5985Y870D03*
X5995Y630D03*
X5785Y445D03*
X5820Y570D03*
X5765Y805D03*
X5730Y1025D03*
X5570Y895D03*
X5445Y1065D03*
X5330Y1250D03*
X5205Y1415D03*
X4890Y1355D03*
X5010Y1445D03*
X5015Y1260D03*
X5185Y1110D03*
X5325Y960D03*
X5465Y755D03*
X5635Y630D03*
X5640Y365D03*
X4970Y360D03*
X4700Y365D03*
X3050Y315D03*
X3615Y320D03*
X3315D03*
X3910Y365D03*
X3920Y550D03*
X3945Y815D03*
X3885Y1010D03*
X3585Y1215D03*
X3070Y1275D03*
X3415Y1845D03*
X2250Y1995D03*
X2550Y1830D03*
X2830Y1915D03*
X2480Y1995D03*
X3450Y2290D03*
X3095Y2320D03*
X2390D03*
X2060Y2325D03*
X1830Y2205D03*
X3210Y2840D03*
X3435Y2845D03*
X3245Y2975D03*
X2670Y2870D03*
X2455Y2875D03*
X2505Y3000D03*
X1975Y2825D03*
X1775Y2840D03*
X1760Y3025D03*
X1775Y3550D03*
X2160Y1830D03*
X1870Y1615D03*
X1985Y1140D03*
X2435Y1210D03*
X2710Y1025D03*
X2395Y950D03*
X2725Y800D03*
X2745Y595D03*
X2655Y350D03*
X2470Y435D03*
X2260Y815D03*
X2245Y475D03*
X2130Y620D03*
X2020Y430D03*
X1870Y550D03*
X1615Y1060D03*
X1765Y940D03*
X1695Y375D03*
X1535Y445D03*
Y635D03*
X1280Y350D03*
X1060Y850D03*
X1035Y330D03*
X710Y435D03*
X675Y700D03*
X500Y625D03*
X490Y865D03*
X465Y1035D03*
X830Y1270D03*
X565Y1295D03*
X1055Y1430D03*
X800Y1470D03*
X625Y1500D03*
X1045Y1680D03*
X1485Y1750D03*
X1300Y1765D03*
X1235Y1920D03*
X985Y1950D03*
X725Y2005D03*
X590Y1675D03*
X500Y1920D03*
X420Y2345D03*
Y2205D03*
X740Y2600D03*
X535Y2645D03*
X720Y2765D03*
X780Y3200D03*
X1110Y3460D03*
X1035Y3170D03*
X500Y3115D03*
Y3280D03*
X1195Y3615D03*
X1335Y3795D03*
X1200Y3980D03*
X920Y3960D03*
X555Y3750D03*
X710Y3910D03*
X4015Y2615D03*
X4105Y2705D03*
X4195Y2795D03*
X3925Y2800D03*
X4015Y2880D03*
X3340Y2505D03*
X3195D03*
X3065Y2500D03*
X2360Y2495D03*
X2530Y2670D03*
X3820Y1550D03*
X3805Y1790D03*
X1590Y1260D03*
X1740Y1265D03*
X1775Y1430D03*
X1615D03*
X2920Y2500D03*
X2775Y2495D03*
X2785Y2675D03*
X2645Y2670D03*
X1885Y2665D03*
X2055Y2495D03*
X2175D03*
X2005Y2670D03*
X4495Y3355D03*
X4605Y3195D03*
X4520Y3115D03*
X4440Y3040D03*
X4370Y2970D03*
X4295Y2890D03*
X4115Y2980D03*
X4195Y3055D03*
X4270Y3125D03*
X4340Y3200D03*
X4415Y3280D03*
X1215Y860D03*
X1460Y995D03*
X1505Y3510D03*
Y3435D03*
X1430Y3395D03*
X3965Y3315D03*
X3540Y2974D03*
X3400Y3060D03*
X2645Y3210D03*
Y3050D03*
X2445Y3325D03*
X3220Y3310D03*
X3845Y3065D03*
X3400Y3220D03*
X3105Y3045D03*
X2785Y2970D03*
X2675Y1200D03*
X1545Y860D03*
X1530Y1910D03*
X1758Y2580D03*
X1280Y2160D03*
X1275Y2480D03*
X985Y2395D03*
X2345Y3060D03*
X2033Y2983D03*
X1890Y3060D03*
Y3220D03*
X1730Y3310D03*
X1250Y3320D03*
X1330Y2580D03*
G54D101*
X2210Y2715D03*
X5260Y2160D03*
X1270Y1175D03*
X1415Y1315D03*
X4980Y1820D03*
Y1764D03*
X4654Y2336D03*
X3925Y1325D03*
X4836Y3142D03*
X4250Y950D03*
X4585Y1930D03*
X4635Y1850D03*
X2910Y1570D03*
X5290Y2770D03*
Y2360D03*
X4670Y2410D03*
X5150Y2740D03*
X5040Y2630D03*
X5190Y3590D03*
X4564Y2235D03*
X4800Y2072D03*
X3031Y2637D03*
X3149Y2677D03*
X2901Y2748D03*
X2239Y2785D03*
X2322Y2696D03*
X4534Y1945D03*
X4600Y1970D03*
X4570Y2050D03*
X4565Y2094D03*
X4570Y2140D03*
X4400Y1520D03*
X4439Y1280D03*
X4300Y1420D03*
X4070Y1250D03*
X4400Y1210D03*
X4440Y1010D03*
X4050Y1020D03*
X4010Y1070D03*
X4440D03*
X4430Y1130D03*
X4150Y870D03*
X4458Y1871D03*
X4506Y1773D03*
X4450Y1790D03*
X4430Y1760D03*
X4340Y790D03*
X4770Y2670D03*
X4663Y2099D03*
X4682Y2118D03*
X4741Y2155D03*
X4775Y2156D03*
X4779Y2121D03*
X4712Y2230D03*
X5476Y1610D03*
X4910D03*
X4828Y1792D03*
X5270Y1990D03*
X4880Y1735D03*
X5432Y2742D03*
X5490Y2635D03*
X4980Y1792D03*
X5320Y2010D03*
X5510Y1410D03*
X4520Y2350D03*
X4570Y2420D03*
X4878Y3232D03*
X4858Y3378D03*
G54D102*
X4350Y1775D03*
X5350Y3440D03*
X4920Y2400D03*
X4931Y2301D03*
X4800Y3280D03*
X856Y2336D03*
X1429Y2750D03*
X858Y2231D03*
X4738Y2411D03*
X2776Y3641D03*
X2960Y1522D03*
X4820Y1751D03*
X5430Y2680D03*
X5508Y1227D03*
X5933Y2981D03*
X5939Y2555D03*
X4078Y1627D03*
X2776Y1650D03*
X3047Y1742D03*
X3464Y1757D03*
X3380Y1515D03*
X3689Y1702D03*
X3280Y1692D03*
X4679Y3437D03*
X5676Y3505D03*
X5500Y3403D03*
X5650Y3252D03*
X4460Y2667D03*
X5500Y1300D03*
X4549Y2470D03*
X4445Y2228D03*
X4102Y2237D03*
X4344Y2206D03*
X4195Y1572D03*
X1270Y1601D03*
X1507Y4017D03*
X1600Y4016D03*
X1687Y4015D03*
X2009Y3639D03*
X3520D03*
X4833Y3726D03*
X5528Y3101D03*
X5506Y2993D03*
X4867Y1482D03*
X4779Y1482D03*
X4073Y1702D03*
X4078Y1784D03*
X4117Y2547D03*
X4208Y2501D03*
X4219Y2449D03*
X4450Y2487D03*
X4519Y2550D03*
X4642Y2228D03*
G54D103*
X4943Y2206D03*
X4921Y2245D03*
X1610Y2710D03*
X1598Y3672D03*
X4230Y2200D03*
X4238Y1733D03*
X4831Y1645D03*
X4781D03*
X4823Y3455D03*
X4886Y3451D03*
X3797Y2680D03*
X4465Y2336D03*
X4183Y2233D03*
X4222Y2386D03*
X3783Y2802D03*
X4323Y2389D03*
X4623Y2351D03*
X4241Y1793D03*
X4415Y2343D03*
M02*