%FSLAX23Y23*%
%MOIN*%
%SFA1B1*%

%IPPOS*%
%ADD12C,0.005000*%
%ADD109C,0.003940*%
%LNpcb-1*%
%LPD*%
G36*
X1225Y768D02*
X1205D01*
Y813*
X1225*
Y768*
G37*
G36*
X1275D02*
X1255D01*
Y813*
X1275*
Y768*
G37*
G36*
X1325Y769D02*
X1305D01*
Y814*
X1325*
Y769*
G37*
G36*
X1375Y768D02*
X1355D01*
Y813*
X1375*
Y768*
G37*
G36*
X1225Y967D02*
X1205D01*
Y1012*
X1225*
Y967*
G37*
G36*
X1275D02*
X1255D01*
Y1012*
X1275*
Y967*
G37*
G36*
X1325D02*
X1305D01*
Y1012*
X1325*
Y967*
G37*
G36*
X1375D02*
X1355D01*
Y1012*
X1375*
Y967*
G37*
G54D12*
X967Y1006D02*
D01*
D01*
G75*
G03X732I-117J437D01*
G74*G01*
X941Y799D02*
D01*
D01*
G75*
G03X966Y824I0J25D01*
G74*G01*
X733D02*
D01*
D01*
G75*
G03X758Y799I25J0D01*
G74*G01*
X733Y824D02*
Y1006D01*
X758Y799D02*
X941D01*
X966Y824D02*
Y1006D01*
X672Y893D02*
X712D01*
X692Y874D02*
Y913D01*
X407Y1685D02*
X446D01*
X330Y2525D02*
X683D01*
X330Y2055D02*
Y2525D01*
Y2055D02*
X683D01*
Y2525*
G54D109*
X4843Y2230D02*
D01*
D01*
G75*
G03X4804I-19J0D01*
G74*G01*
D01*
G75*
G03X4843I19J0D01*
G74*G01*
X2859Y778D02*
Y1150D01*
X3260Y778D02*
Y1150D01*
X2859Y778D02*
X3260D01*
X2859Y1150D02*
X3260D01*
X3564Y3611D02*
Y3668D01*
X3650Y3611D02*
Y3668D01*
X3564Y3611D02*
X3650D01*
X3564Y3668D02*
X3650D01*
X3621Y1699D02*
X3670D01*
Y1620D02*
Y1699D01*
X3621Y1620D02*
X3670D01*
X3621D02*
Y1650D01*
Y1620D02*
Y1699D01*
X5830Y1152D02*
Y3167D01*
X5630D02*
X5830D01*
X5630Y1152D02*
Y3167D01*
Y1152D02*
X5830D01*
X4799Y319D02*
Y665D01*
X4000Y319D02*
X4799D01*
X4000Y665D02*
X4799D01*
X4000Y319D02*
Y665D01*
X880Y188D02*
Y681D01*
X1380*
X880Y188D02*
X1380D01*
Y681*
X5679Y3425D02*
Y3474D01*
X5758*
Y3425D02*
Y3474D01*
X5728Y3425D02*
X5758D01*
X5679D02*
X5758D01*
X4651Y3563D02*
X4708D01*
X4651Y3476D02*
X4708D01*
X4651D02*
Y3563D01*
X4708Y3476D02*
Y3563D01*
X3205Y1689D02*
X3254D01*
Y1610D02*
Y1689D01*
X3205Y1610D02*
X3254D01*
X3205D02*
Y1640D01*
Y1610D02*
Y1689D01*
X2813Y3668D02*
X2899D01*
X2813Y3611D02*
X2899D01*
Y3668*
X2813Y3611D02*
Y3668D01*
X3806Y3611D02*
Y3668D01*
X3893Y3611D02*
Y3668D01*
X3806Y3611D02*
X3893D01*
X3806Y3668D02*
X3893D01*
X2178Y3611D02*
Y3668D01*
X2264Y3611D02*
Y3668D01*
X2178Y3611D02*
X2264D01*
X2178Y3668D02*
X2264D01*
X4793Y3701D02*
Y3758D01*
X4706Y3701D02*
Y3758D01*
X4793*
X4706Y3701D02*
X4793D01*
X2048Y3611D02*
Y3668D01*
X2134Y3611D02*
Y3668D01*
X2048Y3611D02*
X2134D01*
X2048Y3668D02*
X2134D01*
X2305Y3611D02*
Y3668D01*
X2392Y3611D02*
Y3668D01*
X2305Y3611D02*
X2392D01*
X2305Y3668D02*
X2392D01*
X2705Y1250D02*
Y1337D01*
X2648Y1250D02*
Y1337D01*
X2705*
X2648Y1250D02*
X2705D01*
X2933Y3668D02*
X3019D01*
X2933Y3611D02*
X3019D01*
Y3668*
X2933Y3611D02*
Y3668D01*
X3686Y3611D02*
Y3668D01*
X3773Y3611D02*
Y3668D01*
X3686Y3611D02*
X3773D01*
X3686Y3668D02*
X3773D01*
X1284Y3627D02*
Y4119D01*
X784Y3627D02*
X1284D01*
X784Y4119D02*
X1284D01*
X784Y3627D02*
Y4119D01*
X1483Y3954D02*
X1532D01*
Y3875D02*
Y3954D01*
X1483Y3875D02*
X1532D01*
X1483D02*
Y3905D01*
Y3875D02*
Y3954D01*
X4898Y320D02*
Y665D01*
X5697*
X4898Y320D02*
X5697D01*
Y665*
X3053Y3668D02*
X3139D01*
X3053Y3611D02*
X3139D01*
Y3668*
X3053Y3611D02*
Y3668D01*
X1573Y3954D02*
X1622D01*
Y3875D02*
Y3954D01*
X1573Y3875D02*
X1622D01*
X1573D02*
Y3905D01*
Y3875D02*
Y3954D01*
X1663D02*
X1712D01*
Y3875D02*
Y3954D01*
X1663Y3875D02*
X1712D01*
X1663D02*
Y3905D01*
Y3875D02*
Y3954D01*
X4582Y2510D02*
Y2825D01*
X4731*
Y2510D02*
Y2825D01*
X4582Y2510D02*
X4731D01*
X1659Y3741D02*
Y3828D01*
X1716Y3741D02*
Y3828D01*
X1659Y3741D02*
X1716D01*
X1659Y3828D02*
X1716D01*
X4266Y2701D02*
Y2758D01*
X4353Y2701D02*
Y2758D01*
X4266D02*
X4353D01*
X4266Y2701D02*
X4353D01*
X4356Y2391D02*
Y2448D01*
X4443Y2391D02*
Y2448D01*
X4356D02*
X4443D01*
X4356Y2391D02*
X4443D01*
X4141Y2536D02*
X4198D01*
X4141Y2623D02*
X4198D01*
X4141Y2536D02*
Y2623D01*
X4198Y2536D02*
Y2623D01*
X5911Y2905D02*
Y2992D01*
X5854Y2905D02*
Y2992D01*
X5911*
X5854Y2905D02*
X5911D01*
X5862Y2789D02*
X5949D01*
X5862Y2846D02*
X5949D01*
Y2789D02*
Y2846D01*
X5862Y2789D02*
Y2846D01*
X5463Y2669D02*
Y2756D01*
X5520Y2669D02*
Y2756D01*
X5463Y2669D02*
X5520D01*
X5463Y2756D02*
X5520D01*
X5862Y2688D02*
X5949D01*
X5862Y2745D02*
X5949D01*
Y2688D02*
Y2745D01*
X5862Y2688D02*
Y2745D01*
X5594Y2606D02*
Y2693D01*
X5537Y2606D02*
Y2693D01*
X5594*
X5537Y2606D02*
X5594D01*
X5378Y3306D02*
Y3393D01*
X5321Y3306D02*
Y3393D01*
X5378*
X5321Y3306D02*
X5378D01*
X5863Y2585D02*
X5950D01*
X5863Y2642D02*
X5950D01*
Y2585D02*
Y2642D01*
X5863Y2585D02*
Y2642D01*
X5598Y3286D02*
Y3373D01*
X5541Y3286D02*
Y3373D01*
X5598*
X5541Y3286D02*
X5598D01*
X5366Y3181D02*
X5453D01*
X5366Y3238D02*
X5453D01*
Y3181D02*
Y3238D01*
X5366Y3181D02*
Y3238D01*
X5821Y3316D02*
Y3403D01*
X5878Y3316D02*
Y3403D01*
X5821Y3316D02*
X5878D01*
X5821Y3403D02*
X5878D01*
X5558Y3136D02*
Y3223D01*
X5501Y3136D02*
Y3223D01*
X5558*
X5501Y3136D02*
X5558D01*
X2815Y1482D02*
Y1569D01*
X2872Y1482D02*
Y1569D01*
X2815Y1482D02*
X2872D01*
X2815Y1569D02*
X2872D01*
X4913Y3332D02*
Y3419D01*
X4970Y3332D02*
Y3419D01*
X4913Y3332D02*
X4970D01*
X4913Y3419D02*
X4970D01*
X4741Y3328D02*
Y3415D01*
X4798Y3328D02*
Y3415D01*
X4741Y3328D02*
X4798D01*
X4741Y3415D02*
X4798D01*
X4308Y2265D02*
X4859D01*
X4308Y1714D02*
X4859D01*
Y2265*
X4308Y1714D02*
Y2265D01*
X1569Y3741D02*
Y3828D01*
X1626Y3741D02*
Y3828D01*
X1569Y3741D02*
X1626D01*
X1569Y3828D02*
X1626D01*
X1479Y3741D02*
Y3828D01*
X1536Y3741D02*
Y3828D01*
X1479Y3741D02*
X1536D01*
X1479Y3828D02*
X1536D01*
X3452Y1671D02*
X3539D01*
X3452Y1728D02*
X3539D01*
Y1671D02*
Y1728D01*
X3452Y1671D02*
Y1728D01*
X3036Y1661D02*
X3123D01*
X3036Y1718D02*
X3123D01*
Y1661D02*
Y1718D01*
X3036Y1661D02*
Y1718D01*
X3517Y1808D02*
X3604D01*
X3517Y1751D02*
X3604D01*
X3517D02*
Y1808D01*
X3604Y1751D02*
Y1808D01*
X3099Y1798D02*
X3186D01*
X3099Y1741D02*
X3186D01*
X3099D02*
Y1798D01*
X3186Y1741D02*
Y1798D01*
X3637Y1456D02*
Y1543D01*
X3694Y1456D02*
Y1543D01*
X3637Y1456D02*
X3694D01*
X3637Y1543D02*
X3694D01*
X3211Y1446D02*
Y1533D01*
X3268Y1446D02*
Y1533D01*
X3211Y1446D02*
X3268D01*
X3211Y1533D02*
X3268D01*
X3502Y1431D02*
X3589D01*
X3502Y1488D02*
X3589D01*
Y1431D02*
Y1488D01*
X3502Y1431D02*
Y1488D01*
X3076Y1431D02*
X3163D01*
X3076Y1488D02*
X3163D01*
Y1431D02*
Y1488D01*
X3076Y1431D02*
Y1488D01*
X5434Y3377D02*
X5485D01*
X5434Y3262D02*
X5485D01*
X5434D02*
Y3377D01*
X5485Y3262D02*
Y3377D01*
X3022Y1554D02*
Y1605D01*
X3137Y1554D02*
Y1605D01*
X3022Y1554D02*
X3137D01*
X3022Y1605D02*
X3137D01*
X3389Y778D02*
Y1150D01*
X3790Y778D02*
Y1150D01*
X3389Y778D02*
X3790D01*
X3389Y1150D02*
X3790D01*
X3438Y1564D02*
Y1615D01*
X3553Y1564D02*
Y1615D01*
X3438Y1564D02*
X3553D01*
X3438Y1615D02*
X3553D01*
X3372Y1488D02*
X3459D01*
X3372Y1431D02*
X3459D01*
X3372D02*
Y1488D01*
X3459Y1431D02*
Y1488D01*
X2946D02*
X3033D01*
X2946Y1431D02*
X3033D01*
X2946D02*
Y1488D01*
X3033Y1431D02*
Y1488D01*
M02*