%FSLAX23Y23*%
%MOIN*%
%SFA1B1*%

%IPPOS*%
%ADD16C,0.007870*%
%LNpcb-1*%
%LPD*%
G36*
X2083Y749D02*
X2083D01*
X2083Y749*
X2084Y749*
X2084Y749*
X2085Y749*
X2086Y749*
X2087Y749*
X2087Y748*
X2088Y748*
X2088Y748*
X2088Y748*
X2088Y748*
X2088Y748*
X2088Y748*
X2088Y747*
X2088Y747*
X2089Y747*
X2089Y747*
X2089Y746*
X2089Y746*
X2089Y745*
X2089Y745*
X2089Y745*
X2090Y744*
Y744*
X2086Y744*
Y744*
X2086Y744*
X2086Y744*
X2086Y745*
X2086Y745*
X2086Y745*
X2086Y746*
X2085Y746*
X2085Y746*
X2085Y746*
X2085Y746*
X2085Y746*
X2084Y747*
X2084Y747*
X2083Y747*
X2082Y747*
X2082*
X2081Y747*
X2081Y747*
X2080Y747*
X2080Y747*
X2079Y746*
X2079Y746*
X2079Y746*
X2079Y746*
X2078Y746*
X2078Y745*
X2078Y745*
X2078Y745*
X2077Y744*
X2077Y744*
Y744*
X2077Y743*
X2077Y743*
Y743*
X2077Y743*
X2077Y742*
Y742*
X2077Y742*
Y741*
X2077Y741*
Y741*
Y740*
Y740*
X2077Y740*
X2077Y740*
X2077Y740*
X2077Y740*
X2078Y740*
X2078Y740*
X2078Y741*
X2078Y741*
X2079Y741*
X2079Y741*
X2080Y742*
X2081Y742*
X2081Y742*
X2082Y742*
X2082Y742*
X2082*
X2082Y742*
X2083*
X2083Y742*
X2083Y742*
X2084Y742*
X2084Y742*
X2085Y742*
X2085Y741*
X2086Y741*
X2086Y741*
X2087Y741*
X2087Y740*
X2088Y740*
X2088Y739*
X2088Y739*
X2088Y739*
X2088Y739*
X2088Y739*
X2089Y739*
X2089Y738*
X2089Y738*
X2089Y737*
X2089Y737*
X2089Y736*
X2090Y736*
X2090Y735*
X2090Y735*
X2090Y734*
X2090Y733*
X2090Y733*
Y733*
Y733*
Y732*
Y732*
X2090Y732*
X2090Y732*
Y731*
X2090Y731*
X2090Y730*
X2090Y729*
X2090Y729*
X2089Y728*
Y728*
X2089Y728*
X2089Y728*
X2089Y727*
X2089Y727*
X2089Y727*
X2088Y726*
X2088Y726*
X2088Y725*
X2087Y725*
X2086Y724*
X2086*
X2086Y724*
X2086Y724*
X2086Y724*
X2086Y724*
X2086Y724*
X2085Y724*
X2085Y723*
X2084Y723*
X2083Y723*
X2082Y723*
X2082*
X2082Y723*
X2082*
X2081Y723*
X2081Y723*
X2081Y723*
X2080Y723*
X2080Y724*
X2079Y724*
X2079Y724*
X2078Y724*
X2078Y724*
X2078Y725*
X2077Y725*
X2077Y726*
Y723*
X2074*
Y739*
Y740*
Y740*
Y740*
Y740*
X2074Y741*
Y741*
X2074Y741*
X2074Y742*
X2074Y743*
X2074Y744*
X2074Y744*
X2074Y745*
X2075Y745*
X2075Y746*
Y746*
X2075Y746*
X2075Y746*
X2075Y746*
X2075Y746*
X2075Y747*
X2076Y747*
X2076Y748*
X2077Y748*
X2077Y748*
X2078*
X2078Y748*
X2078Y749*
X2078Y749*
X2078Y749*
X2078Y749*
X2078Y749*
X2079Y749*
X2079Y749*
X2080Y749*
X2081Y749*
X2082Y750*
X2083*
X2083Y749*
G37*
G36*
X2044Y742D02*
X2045D01*
X2045Y742*
X2046Y742*
X2046Y742*
X2047Y742*
X2048Y741*
X2048Y741*
X2049Y741*
X2049Y741*
X2049Y741*
X2049Y741*
X2049Y740*
X2049Y740*
X2050Y739*
X2050Y739*
X2050Y738*
X2050Y738*
X2050Y737*
Y737*
Y737*
X2050Y737*
X2050Y736*
X2050Y736*
X2050Y736*
X2050Y735*
X2050Y735*
X2050Y735*
X2050Y734*
X2049Y734*
X2049Y734*
X2049Y734*
X2049Y733*
X2048Y733*
X2048Y733*
X2048Y733*
X2048Y733*
X2048Y733*
X2047Y732*
X2047Y732*
X2047Y732*
X2046Y732*
X2046Y732*
X2046*
X2046Y732*
X2045Y732*
X2045Y732*
X2045Y732*
X2044Y732*
X2044Y731*
X2043Y731*
X2043*
X2043Y731*
X2043*
X2042Y731*
X2042Y731*
X2042Y731*
X2041Y731*
X2041Y731*
X2040Y731*
X2039Y731*
X2038Y730*
X2038Y730*
X2037Y730*
Y730*
Y730*
Y730*
X2037Y730*
Y730*
Y730*
Y729*
Y729*
Y729*
Y729*
Y729*
X2037Y729*
X2037Y728*
X2038Y728*
X2038Y727*
X2038Y727*
X2038Y727*
X2038Y727*
X2038Y727*
X2039Y726*
X2039Y726*
X2040Y726*
X2040Y726*
X2041Y726*
X2042Y726*
X2042*
X2043Y726*
X2043Y726*
X2044Y726*
X2044Y726*
X2045Y726*
X2045Y726*
X2045Y726*
X2045Y727*
X2045Y727*
X2046Y727*
X2046Y727*
X2046Y728*
X2046Y729*
X2047Y729*
X2050Y729*
Y729*
X2050Y729*
Y729*
X2050Y728*
X2050Y728*
X2049Y728*
X2049Y727*
X2049Y727*
X2049Y726*
X2048Y726*
X2048Y726*
X2048Y725*
X2048Y725*
X2048Y725*
X2047Y725*
X2047Y724*
X2046Y724*
X2046Y724*
X2046*
X2045Y724*
X2045Y724*
X2045Y724*
X2045Y724*
X2045Y724*
X2044Y723*
X2044Y723*
X2043Y723*
X2042Y723*
X2041Y723*
X2041*
X2041Y723*
X2040Y723*
X2039Y723*
X2039Y723*
X2038Y723*
X2038Y724*
X2037*
X2037Y724*
X2037Y724*
X2037Y724*
X2037Y724*
X2036Y724*
X2036Y724*
X2036Y725*
X2035Y725*
X2035Y725*
X2035Y725*
X2035Y725*
X2035Y726*
X2035Y726*
X2035Y726*
X2034Y727*
X2034Y727*
Y727*
X2034Y727*
X2034Y728*
X2034Y728*
Y728*
X2034Y729*
X2034Y729*
Y730*
Y734*
Y734*
Y734*
Y735*
Y735*
Y735*
Y736*
Y736*
X2034Y737*
Y738*
X2034Y738*
X2034Y739*
Y739*
X2034Y740*
X2034Y740*
Y740*
X2034Y740*
X2034Y740*
X2034Y740*
X2034Y741*
X2034Y741*
X2033Y742*
X2033Y742*
X2036*
X2037Y742*
X2037Y742*
X2037Y742*
X2037Y741*
X2037Y741*
X2037Y741*
X2037Y740*
X2037Y740*
X2037*
X2037Y740*
X2037Y740*
X2037Y740*
X2038Y740*
X2038Y741*
X2039Y741*
X2039Y741*
X2040Y742*
X2040Y742*
X2041*
X2041Y742*
X2041Y742*
X2041Y742*
X2041Y742*
X2042Y742*
X2042Y742*
X2043Y742*
X2043Y742*
X2044Y742*
X2044*
X2044Y742*
G37*
G36*
X2170Y738D02*
X2166D01*
Y742*
X2170*
Y738*
G37*
G36*
X2109Y742D02*
X2109D01*
X2109Y742*
X2110Y742*
X2110Y742*
X2111Y742*
X2112Y742*
X2113Y741*
X2113Y741*
X2114Y741*
X2114Y741*
X2114Y741*
X2114Y741*
X2114Y741*
X2114Y741*
X2114Y740*
X2114Y740*
X2115Y740*
X2115Y740*
X2115Y739*
X2115Y739*
X2115Y738*
X2116Y738*
X2116Y738*
X2116Y737*
X2116Y736*
X2113Y736*
Y736*
Y736*
X2113Y736*
X2113Y736*
X2113Y737*
X2113Y737*
X2112Y738*
X2112Y738*
X2112Y738*
X2111Y739*
X2111Y739*
X2111Y739*
X2111Y739*
X2111Y739*
X2110Y740*
X2110Y740*
X2109Y740*
X2108Y740*
X2108*
X2107Y740*
X2107Y740*
X2106Y740*
X2106Y739*
X2105Y739*
X2105Y739*
X2105Y739*
X2105Y739*
X2105Y739*
X2104Y738*
X2104Y738*
X2104Y738*
X2104Y737*
X2104Y737*
Y737*
Y737*
X2104Y737*
X2104Y736*
X2104Y736*
X2104Y736*
X2104Y735*
X2105Y735*
X2105Y735*
X2105Y735*
X2105Y735*
X2105Y735*
X2106Y735*
X2106Y735*
X2106Y735*
X2106Y735*
X2107Y735*
X2107Y734*
X2108Y734*
X2108Y734*
X2108*
X2108Y734*
X2108Y734*
X2109Y734*
X2109Y734*
X2109Y734*
X2110Y734*
X2111Y733*
X2111Y733*
X2112Y733*
X2112Y733*
X2113Y733*
X2113Y733*
X2113Y733*
X2113Y733*
X2113Y732*
X2114Y732*
X2114Y732*
X2114Y732*
X2115Y731*
X2115Y731*
X2115Y731*
X2115Y731*
X2115Y730*
X2115Y730*
X2115Y730*
X2115Y729*
X2115Y729*
X2115Y728*
Y728*
Y728*
X2115Y728*
X2115Y728*
X2115Y727*
X2115Y727*
X2115Y727*
X2115Y726*
X2115Y726*
X2115Y726*
X2115Y726*
X2115Y725*
X2114Y725*
X2114Y725*
X2114Y725*
X2113Y724*
X2113Y724*
X2113Y724*
X2113Y724*
X2113Y724*
X2113Y724*
X2112Y724*
X2112Y724*
X2111Y723*
X2111Y723*
X2111Y723*
X2111Y723*
X2111Y723*
X2110Y723*
X2110Y723*
X2109Y723*
X2108*
X2108Y723*
X2108*
X2107Y723*
X2107Y723*
X2106Y723*
X2106Y723*
X2105Y724*
X2105*
X2105Y724*
X2105Y724*
X2104Y724*
X2104Y724*
X2104Y724*
X2103Y725*
X2103Y725*
X2102Y725*
X2102Y725*
X2102Y726*
X2102Y726*
X2102Y726*
X2102Y727*
X2102Y727*
X2101Y728*
X2101Y728*
X2104Y729*
Y729*
X2104Y728*
X2105Y728*
X2105Y728*
X2105Y728*
X2105Y727*
X2105Y727*
X2106Y726*
X2106Y726*
X2106Y726*
X2106Y726*
X2106Y726*
X2107Y726*
X2107Y726*
X2108Y726*
X2108Y726*
X2109*
X2109Y726*
X2110Y726*
X2110Y726*
X2111Y726*
X2111Y726*
X2112Y726*
X2112Y726*
X2112Y727*
X2112Y727*
X2112Y727*
X2112Y727*
X2112Y727*
X2112Y728*
X2112Y728*
Y728*
Y728*
X2112Y728*
Y728*
X2112Y729*
X2112Y729*
X2112Y729*
X2112Y729*
X2112Y729*
X2112Y729*
X2112Y729*
X2112Y730*
X2111Y730*
X2111Y730*
X2111Y730*
X2111*
X2111Y730*
X2111Y730*
X2110Y730*
X2110Y730*
X2110Y730*
X2109Y730*
X2109Y730*
X2109Y731*
X2108Y731*
X2108Y731*
X2108*
X2108Y731*
X2108Y731*
X2108Y731*
X2107Y731*
X2107Y731*
X2106Y731*
X2106Y732*
X2105Y732*
X2104Y732*
X2104Y732*
X2103Y732*
X2103Y732*
X2103Y732*
X2103Y732*
X2103Y733*
X2102Y733*
X2102Y733*
X2102Y733*
X2101Y734*
X2101Y734*
X2101Y734*
X2101Y734*
X2101Y735*
X2101Y735*
X2101Y735*
X2101Y736*
X2101Y737*
Y737*
Y737*
Y737*
X2101Y737*
X2101Y738*
X2101Y738*
X2101Y738*
X2101Y739*
X2102Y740*
X2102Y740*
X2102Y740*
X2102Y740*
X2102Y740*
X2103Y741*
X2103Y741*
X2104Y741*
X2104Y742*
X2104*
X2104Y742*
X2104Y742*
X2105Y742*
X2105Y742*
X2105Y742*
X2106Y742*
X2107Y742*
X2107Y742*
X2108Y742*
X2108*
X2109Y742*
G37*
G36*
X2000Y723D02*
X1997D01*
Y726*
X1997Y726*
X1997Y726*
X1997Y726*
X1996Y726*
X1996Y725*
X1996Y725*
X1995Y724*
X1995Y724*
X1995Y724*
X1995Y724*
X1995Y724*
X1994Y723*
X1994Y723*
X1994Y723*
X1993Y723*
X1993Y723*
X1993Y723*
X1992*
X1992Y723*
X1992Y723*
X1991Y723*
X1991Y723*
X1990Y724*
X1989Y724*
X1991Y727*
X1991Y727*
X1991Y727*
X1991Y727*
X1991Y727*
X1992Y727*
X1992Y726*
X1992Y726*
X1993Y726*
X1993*
X1993Y726*
X1993Y726*
X1994Y726*
X1994Y727*
X1994Y727*
X1995Y727*
X1995Y727*
X1995Y727*
X1995Y727*
X1995Y727*
X1995Y728*
X1996Y728*
X1996Y728*
X1996Y729*
Y729*
X1996Y729*
Y729*
X1996Y729*
X1996Y729*
X1996Y730*
X1996Y730*
X1996Y731*
X1996Y732*
X1996Y732*
Y742*
X2000*
Y723*
G37*
G36*
X2069D02*
X2066D01*
Y726*
X2066Y726*
X2066Y726*
X2066Y726*
X2066Y726*
X2066Y725*
X2065Y725*
X2065Y725*
X2065Y725*
X2064Y724*
X2064Y724*
X2063Y724*
X2063Y724*
X2062Y723*
X2062Y723*
X2061Y723*
X2060Y723*
X2060*
X2060Y723*
X2059Y723*
X2059Y723*
X2058Y723*
X2058Y723*
X2057Y724*
X2057Y724*
X2057Y724*
X2057Y724*
X2056Y724*
X2056Y724*
X2056Y725*
X2055Y725*
X2055Y725*
X2055Y725*
X2055Y725*
X2055Y726*
X2055Y726*
X2055Y726*
X2054Y727*
X2054Y727*
X2054Y728*
Y728*
X2054Y728*
X2054Y728*
X2054Y728*
X2054Y729*
X2054Y729*
X2054Y730*
Y731*
Y742*
X2057*
Y731*
Y731*
Y731*
Y731*
Y730*
X2057Y730*
Y730*
X2057Y729*
X2057Y729*
X2057Y728*
X2058Y728*
Y728*
X2058Y728*
X2058Y728*
X2058Y727*
X2058Y727*
X2058Y727*
X2058Y727*
X2059Y726*
X2059Y726*
X2059Y726*
X2059Y726*
X2059Y726*
X2060Y726*
X2060Y726*
X2061Y726*
X2061Y726*
X2061*
X2061Y726*
X2062Y726*
X2062Y726*
X2063Y726*
X2063Y726*
X2064Y727*
X2064Y727*
X2065Y727*
X2065Y727*
X2065Y727*
X2065Y727*
X2065Y728*
X2065Y728*
X2065Y728*
X2065Y728*
X2065Y729*
X2066Y729*
X2066Y730*
X2066Y730*
X2066Y731*
X2066Y731*
X2066Y732*
Y742*
X2069*
Y723*
G37*
G36*
X2097D02*
X2094D01*
Y742*
X2097*
Y723*
G37*
G36*
X2127Y742D02*
X2128D01*
X2128Y742*
X2128Y742*
X2129Y742*
X2129Y742*
X2130Y742*
X2130Y742*
X2131Y742*
X2131Y741*
X2132Y741*
X2132Y741*
X2133Y740*
X2133Y740*
X2133Y740*
X2133Y740*
X2134Y740*
X2134Y739*
X2134Y739*
X2134Y739*
X2134Y739*
X2135Y738*
X2135Y738*
X2135Y737*
X2135Y737*
X2135Y736*
X2135Y735*
X2136Y735*
X2136Y734*
X2136Y733*
Y733*
Y733*
X2136Y732*
Y732*
X2136Y732*
X2136Y731*
X2136Y731*
X2135Y730*
X2135Y730*
X2135Y729*
X2135Y728*
X2135Y728*
X2134Y727*
X2134Y727*
X2134Y726*
X2133Y726*
X2133Y726*
X2133Y726*
X2133Y725*
X2133Y725*
X2133Y725*
X2132Y725*
X2132Y725*
X2132Y724*
X2131Y724*
X2131Y724*
X2130Y724*
X2130Y723*
X2129Y723*
X2128Y723*
X2128Y723*
X2127Y723*
X2127*
X2126Y723*
X2126Y723*
X2126Y723*
X2125Y723*
X2125Y723*
X2124Y723*
X2124Y724*
X2123Y724*
X2123Y724*
X2122Y724*
X2122Y725*
X2121Y725*
X2121Y726*
X2121Y726*
X2121Y726*
X2121Y726*
X2121Y726*
X2120Y726*
X2120Y727*
X2120Y727*
X2120Y727*
X2120Y728*
X2119Y728*
X2119Y729*
X2119Y730*
X2119Y730*
X2119Y731*
X2119Y732*
X2119Y733*
Y733*
Y733*
Y733*
X2119Y734*
X2132*
Y734*
Y734*
X2132Y734*
X2132Y734*
X2132Y734*
X2132Y735*
X2132Y735*
X2132Y736*
X2132Y737*
X2131Y738*
X2131Y738*
X2131Y738*
X2131Y738*
X2131Y738*
X2131Y738*
X2131Y738*
X2130Y739*
X2130Y739*
X2129Y739*
X2128Y740*
X2128Y740*
X2127Y740*
X2127Y740*
X2127*
X2126Y740*
X2126Y740*
X2125Y740*
X2125Y739*
X2124Y739*
X2124Y739*
X2124Y739*
X2124Y739*
X2124Y739*
X2123Y738*
X2123Y738*
X2123Y737*
X2122Y737*
X2122Y736*
X2119Y736*
Y736*
X2119Y737*
X2119Y737*
X2119Y737*
X2119Y737*
X2119Y737*
X2119Y738*
X2120Y739*
X2120Y739*
X2121Y740*
X2122Y741*
X2122*
X2122Y741*
X2122Y741*
X2122Y741*
X2122Y741*
X2122Y741*
X2123Y741*
X2123Y742*
X2123Y742*
X2124Y742*
X2124Y742*
X2125Y742*
X2126Y742*
X2126Y742*
X2127Y742*
X2127*
X2127Y742*
G37*
G36*
X2012D02*
X2012D01*
X2013Y742*
X2013Y742*
X2014Y742*
X2014Y742*
X2015Y742*
X2015Y742*
X2016Y742*
X2016Y741*
X2017Y741*
X2017Y741*
X2018Y740*
X2018Y740*
X2018Y740*
X2018Y740*
X2018Y740*
X2018Y739*
X2019Y739*
X2019Y739*
X2019Y739*
X2019Y738*
X2020Y738*
X2020Y737*
X2020Y737*
X2020Y736*
X2020Y735*
X2020Y734*
X2020Y734*
X2021Y733*
Y733*
Y733*
X2020Y732*
Y732*
X2020Y731*
X2020Y731*
X2020Y730*
X2020Y730*
X2020Y729*
X2020Y729*
X2020Y728*
X2019Y727*
X2019Y727*
X2019Y726*
X2018Y726*
X2018Y725*
X2018Y725*
X2018Y725*
X2017Y725*
X2017Y725*
X2017Y725*
X2017Y724*
X2016Y724*
X2016Y724*
X2016Y724*
X2015Y724*
X2015Y724*
X2014Y723*
X2014Y723*
X2013Y723*
X2012Y723*
X2012Y723*
X2011*
X2011Y723*
X2011Y723*
X2011Y723*
X2010Y723*
X2010Y723*
X2009Y723*
X2009Y724*
X2008Y724*
X2008Y724*
X2007Y724*
X2007Y725*
X2006Y725*
X2006Y726*
X2006Y726*
X2006Y726*
X2005Y726*
X2005Y726*
X2005Y726*
X2005Y727*
X2005Y727*
X2004Y727*
X2004Y728*
X2004Y728*
X2004Y729*
X2004Y730*
X2003Y730*
X2003Y731*
X2003Y732*
X2003Y732*
Y733*
Y733*
Y733*
Y733*
X2003Y733*
X2003Y734*
X2003Y734*
X2003Y735*
X2003Y735*
X2004Y736*
X2004Y737*
X2004Y738*
X2004Y738*
Y738*
X2004Y738*
X2004Y738*
X2004Y738*
X2005Y739*
X2005Y739*
X2006Y740*
X2006Y740*
X2007Y741*
X2007Y741*
X2007*
X2008Y741*
X2008Y741*
X2008Y741*
X2008Y742*
X2008Y742*
X2009Y742*
X2009Y742*
X2010Y742*
X2011Y742*
X2012Y742*
X2012*
X2012Y742*
G37*
G36*
X2025Y742D02*
X2025Y742D01*
X2026Y742*
X2026Y742*
X2027Y742*
X2027Y742*
X2027Y742*
X2027Y742*
X2027Y742*
X2028Y741*
X2028Y741*
X2028Y741*
X2028Y741*
X2028Y740*
Y740*
X2028Y740*
X2028Y740*
X2029Y740*
X2029Y739*
X2029Y739*
X2029Y739*
X2029Y738*
X2029Y738*
Y738*
X2029Y737*
Y737*
Y726*
X2031*
Y723*
X2029*
Y719*
X2026Y717*
Y723*
X2022*
Y726*
X2026*
Y737*
Y737*
Y737*
Y737*
X2026Y737*
Y738*
X2026Y738*
X2026Y738*
X2025Y739*
X2025Y739*
X2025Y739*
X2025Y739*
X2025Y739*
X2025*
X2025Y739*
X2025Y739*
X2025Y739*
X2024Y739*
X2024Y739*
X2023*
X2023Y739*
X2023*
X2023Y739*
X2022Y739*
X2022Y742*
X2022*
X2022Y742*
X2022Y742*
X2023Y742*
X2023Y742*
X2024Y742*
X2024Y742*
X2025*
X2025Y742*
G37*
G36*
X2160Y716D02*
X2151D01*
X2150Y716*
X2150*
X2149Y717*
X2148Y717*
X2147Y717*
X2147Y717*
X2147*
X2147Y717*
X2146Y717*
X2146Y717*
X2146Y717*
X2146Y717*
X2145Y717*
X2145Y717*
X2144Y718*
X2144Y718*
X2143Y719*
X2143Y719*
X2143Y719*
X2143Y719*
X2143Y719*
X2142Y719*
X2142Y719*
X2142Y720*
X2142Y720*
X2141Y720*
X2141Y721*
X2140Y722*
X2140Y723*
Y723*
X2140Y723*
X2140Y723*
X2140Y723*
X2140Y724*
X2140Y724*
X2140Y724*
X2139Y725*
X2139Y725*
X2139Y726*
X2139Y726*
X2139Y727*
X2139Y728*
X2139Y729*
Y729*
Y729*
Y729*
Y730*
X2139Y730*
Y730*
X2139Y730*
X2139Y731*
X2139Y732*
X2139Y732*
X2139Y733*
X2140Y734*
Y734*
X2140Y734*
X2140Y734*
X2140Y735*
X2140Y735*
X2140Y735*
X2140Y736*
X2140Y736*
X2141Y737*
X2141Y737*
X2141Y738*
X2141Y738*
X2142Y738*
X2142Y738*
X2142Y739*
X2142Y739*
X2143Y740*
X2143Y740*
X2144Y740*
X2144Y740*
X2144Y740*
X2144Y741*
X2145Y741*
X2145Y741*
X2146Y741*
X2146Y741*
X2147Y742*
X2147*
X2147Y742*
X2147*
X2147Y742*
X2147Y742*
X2147Y742*
X2148Y742*
X2149Y742*
X2149Y742*
X2150Y742*
X2151Y742*
X2160*
Y716*
G37*
G36*
X2097D02*
X2094D01*
Y720*
X2097*
Y716*
G37*
G36*
X4712Y2496D02*
X4713Y2496D01*
X4713Y2496*
X4713Y2496*
X4714Y2496*
X4715Y2496*
X4716Y2495*
X4716Y2495*
X4717Y2495*
X4718Y2494*
X4718Y2494*
X4718Y2494*
X4718Y2494*
X4718Y2494*
X4718Y2494*
X4719Y2493*
X4719Y2493*
X4719Y2493*
X4719Y2493*
X4720Y2492*
X4720Y2492*
X4720Y2491*
X4721Y2491*
X4721Y2490*
X4721Y2490*
X4721Y2489*
X4722Y2489*
X4718Y2488*
Y2488*
X4718Y2488*
X4718Y2488*
X4718Y2488*
X4718Y2488*
X4718Y2489*
X4718Y2489*
X4717Y2490*
X4717Y2491*
X4716Y2491*
X4716Y2492*
X4716Y2492*
X4715Y2492*
X4715Y2492*
X4715Y2492*
X4714Y2493*
X4713Y2493*
X4712Y2493*
X4711Y2493*
X4711*
X4711Y2493*
X4711*
X4710Y2493*
X4710Y2493*
X4709Y2493*
X4708Y2493*
X4707Y2492*
X4707Y2492*
X4706*
X4706Y2492*
X4706Y2491*
X4706Y2491*
X4705Y2491*
X4705Y2490*
X4705Y2489*
X4704Y2489*
X4704Y2488*
Y2488*
X4704Y2488*
X4704Y2488*
X4704Y2487*
X4704Y2487*
X4704Y2487*
X4703Y2486*
X4703Y2486*
X4703Y2485*
X4703Y2484*
X4703Y2483*
Y2483*
Y2483*
Y2483*
Y2482*
X4703Y2482*
Y2482*
X4703Y2481*
X4703Y2481*
X4703Y2480*
X4703Y2479*
X4704Y2478*
X4704Y2477*
Y2477*
X4704Y2477*
X4704Y2477*
X4704Y2477*
X4704Y2476*
X4705Y2476*
X4705Y2475*
X4706Y2475*
X4706Y2474*
X4707Y2474*
X4707*
X4707Y2474*
X4707Y2473*
X4707Y2473*
X4707Y2473*
X4708Y2473*
X4708Y2473*
X4709Y2473*
X4710Y2473*
X4710Y2472*
X4711Y2472*
X4711*
X4712Y2472*
X4712*
X4712Y2472*
X4713Y2473*
X4714Y2473*
X4714Y2473*
X4715Y2473*
X4716Y2474*
X4716Y2474*
X4716Y2474*
X4716Y2474*
X4716Y2474*
X4716Y2474*
X4717Y2474*
X4717Y2475*
X4717Y2475*
X4717Y2475*
X4717Y2476*
X4718Y2476*
X4718Y2476*
X4718Y2477*
X4718Y2477*
X4718Y2478*
X4719Y2478*
X4719Y2479*
X4722Y2478*
Y2478*
X4722Y2478*
X4722Y2478*
X4722Y2477*
X4722Y2477*
X4722Y2477*
X4721Y2476*
X4721Y2476*
X4721Y2475*
X4720Y2474*
X4720Y2473*
X4719Y2473*
X4719Y2472*
X4718Y2472*
X4718Y2472*
X4718Y2472*
X4718Y2472*
X4718Y2471*
X4718Y2471*
X4717Y2471*
X4717Y2471*
X4716Y2471*
X4716Y2470*
X4715Y2470*
X4715Y2470*
X4714Y2470*
X4714Y2470*
X4713Y2470*
X4712Y2470*
X4712Y2470*
X4711*
X4711Y2470*
X4710*
X4710Y2470*
X4710Y2470*
X4709Y2470*
X4708Y2470*
X4707Y2470*
X4706Y2471*
X4705Y2471*
X4705Y2471*
X4705Y2471*
X4705Y2471*
X4705Y2471*
X4704Y2472*
X4704Y2472*
X4704Y2472*
X4704Y2472*
X4703Y2472*
X4703Y2473*
X4703Y2473*
X4702Y2474*
X4701Y2475*
X4701Y2476*
Y2476*
X4701Y2476*
X4701Y2476*
X4701Y2477*
X4701Y2477*
X4700Y2477*
X4700Y2478*
X4700Y2478*
X4700Y2479*
X4700Y2479*
X4700Y2480*
X4700Y2482*
X4700Y2483*
Y2483*
Y2483*
Y2483*
X4700Y2484*
Y2484*
X4700Y2484*
X4700Y2485*
X4700Y2485*
X4700Y2486*
X4700Y2488*
X4701Y2489*
X4701Y2490*
X4701Y2490*
X4701Y2490*
X4701Y2490*
X4701Y2490*
X4701Y2491*
X4702Y2491*
X4702Y2492*
X4703Y2492*
X4704Y2493*
X4704Y2494*
X4705Y2494*
X4705Y2494*
X4705Y2495*
X4706Y2495*
X4706Y2495*
X4706Y2495*
X4706Y2495*
X4707Y2495*
X4707Y2495*
X4708Y2495*
X4708Y2496*
X4709Y2496*
X4710Y2496*
X4712Y2496*
X4712*
X4712Y2496*
G37*
G36*
X4757Y2470D02*
X4754D01*
Y2490*
X4754Y2490*
X4753Y2490*
X4753Y2490*
X4753Y2489*
X4752Y2489*
X4752Y2489*
X4751Y2488*
X4751Y2488*
X4751*
X4751Y2488*
X4750Y2488*
X4750Y2487*
X4750Y2487*
X4749Y2487*
X4748Y2487*
X4748Y2486*
X4747Y2486*
Y2489*
X4747*
X4747Y2489*
X4748Y2489*
X4748Y2489*
X4748Y2490*
X4748Y2490*
X4749Y2490*
X4750Y2490*
X4750Y2491*
X4751Y2492*
X4752Y2492*
X4752Y2492*
X4752Y2492*
X4752Y2492*
X4752Y2493*
X4753Y2493*
X4753Y2493*
X4753Y2494*
X4754Y2494*
X4754Y2495*
X4755Y2496*
X4757*
Y2470*
G37*
G36*
X4737D02*
X4734D01*
Y2490*
X4734Y2490*
X4734Y2490*
X4733Y2490*
X4733Y2489*
X4733Y2489*
X4732Y2489*
X4731Y2488*
X4731Y2488*
X4731*
X4731Y2488*
X4730Y2488*
X4730Y2487*
X4730Y2487*
X4729Y2487*
X4729Y2487*
X4728Y2486*
X4727Y2486*
Y2489*
X4727*
X4728Y2489*
X4728Y2489*
X4728Y2489*
X4728Y2490*
X4728Y2490*
X4729Y2490*
X4730Y2490*
X4730Y2491*
X4731Y2492*
X4732Y2492*
X4732Y2492*
X4732Y2492*
X4732Y2492*
X4732Y2493*
X4733Y2493*
X4733Y2493*
X4734Y2494*
X4734Y2494*
X4734Y2495*
X4735Y2496*
X4737*
Y2470*
G37*
G36*
X1459Y928D02*
X1439D01*
X1439Y928*
X1439Y928*
X1439Y927*
X1440Y927*
X1440Y927*
X1440Y926*
X1441Y925*
X1441Y925*
Y925*
X1441Y925*
X1441Y924*
X1442Y924*
X1442Y924*
X1442Y923*
X1442Y923*
X1443Y922*
X1443Y921*
X1440*
Y921*
X1440Y922*
X1440Y922*
X1440Y922*
X1439Y922*
X1439Y922*
X1439Y923*
X1439Y924*
X1438Y924*
X1437Y925*
X1437Y926*
X1437Y926*
X1437Y926*
X1437Y926*
X1436Y926*
X1436Y927*
X1436Y927*
X1435Y928*
X1435Y928*
X1434Y928*
X1433Y929*
Y931*
X1459*
Y928*
G37*
G36*
X1451Y916D02*
X1451Y916D01*
X1452Y916*
X1452Y916*
X1452Y916*
X1453Y915*
X1453Y915*
X1454Y915*
X1455Y914*
X1456Y914*
X1456Y913*
X1457Y913*
X1457Y912*
X1457Y912*
X1457Y912*
X1458Y912*
X1458Y912*
X1458Y912*
X1458Y911*
X1458Y911*
X1458Y910*
X1459Y910*
X1459Y909*
X1459Y909*
X1459Y908*
X1459Y908*
X1459Y907*
X1459Y906*
X1460Y906*
Y905*
X1459Y905*
Y904*
X1459Y904*
X1459Y904*
X1459Y903*
X1459Y902*
X1459Y901*
X1458Y900*
X1458Y899*
X1458Y899*
X1458Y899*
X1458Y899*
X1458Y899*
X1458Y898*
X1457Y898*
X1457Y898*
X1457Y898*
X1457Y897*
X1456Y897*
X1456Y897*
X1455Y896*
X1454Y895*
X1453Y895*
X1453*
X1453Y895*
X1453Y895*
X1452Y895*
X1452Y895*
X1452Y894*
X1451Y894*
X1451Y894*
X1450Y894*
X1450Y894*
X1449Y894*
X1447Y894*
X1446Y894*
X1446*
X1446*
X1446*
X1445Y894*
X1445*
X1445Y894*
X1444Y894*
X1444Y894*
X1443Y894*
X1441Y894*
X1440Y895*
X1439Y895*
X1439Y895*
X1439Y895*
X1439Y895*
X1439Y895*
X1438Y895*
X1438Y896*
X1437Y896*
X1437Y897*
X1436Y897*
X1435Y898*
X1435Y899*
X1435Y899*
X1434Y899*
X1434Y900*
X1434Y900*
X1434Y900*
X1434Y900*
X1434Y901*
X1434Y901*
X1434Y902*
X1433Y902*
X1433Y903*
X1433Y904*
X1433Y906*
Y906*
X1433Y906*
X1433Y907*
X1433Y907*
X1433Y907*
X1433Y908*
X1433Y909*
X1434Y910*
X1434Y910*
X1434Y911*
X1435Y912*
X1435Y912*
X1435Y912*
X1435Y912*
X1435Y912*
X1435Y912*
X1436Y913*
X1436Y913*
X1436Y913*
X1436Y913*
X1437Y914*
X1437Y914*
X1438Y914*
X1438Y915*
X1439Y915*
X1439Y915*
X1440Y915*
X1440Y916*
X1441Y912*
X1441*
X1441Y912*
X1441Y912*
X1441Y912*
X1441Y912*
X1440Y912*
X1440Y912*
X1439Y911*
X1438Y911*
X1438Y910*
X1437Y910*
X1437Y910*
X1437Y909*
X1437Y909*
X1437Y909*
X1436Y908*
X1436Y907*
X1436Y906*
X1436Y905*
Y905*
X1436Y905*
Y905*
X1436Y904*
X1436Y904*
X1436Y903*
X1436Y902*
X1437Y901*
X1437Y901*
Y900*
X1437Y900*
X1438Y900*
X1438Y900*
X1438Y899*
X1439Y899*
X1440Y899*
X1440Y898*
X1441Y898*
X1441*
X1441Y898*
X1441Y898*
X1442Y898*
X1442Y898*
X1442Y897*
X1443Y897*
X1443Y897*
X1444Y897*
X1445Y897*
X1446Y897*
X1446*
X1446*
X1446*
X1447*
X1447Y897*
X1447*
X1448Y897*
X1448Y897*
X1449Y897*
X1450Y897*
X1451Y898*
X1452Y898*
X1452*
X1452Y898*
X1452Y898*
X1452Y898*
X1453Y898*
X1453Y899*
X1454Y899*
X1454Y900*
X1455Y900*
X1455Y901*
Y901*
X1455Y901*
X1456Y901*
X1456Y901*
X1456Y901*
X1456Y902*
X1456Y902*
X1456Y903*
X1456Y904*
X1457Y904*
X1457Y905*
Y905*
X1457Y906*
Y906*
X1457Y906*
X1456Y907*
X1456Y908*
X1456Y908*
X1456Y909*
X1455Y910*
X1455Y910*
X1455Y910*
X1455Y910*
X1455Y910*
X1455Y910*
X1455Y911*
X1454Y911*
X1454Y911*
X1454Y911*
X1453Y911*
X1453Y912*
X1453Y912*
X1452Y912*
X1452Y912*
X1451Y912*
X1451Y913*
X1450Y913*
X1451Y916*
X1451*
X1451Y916*
G37*
G36*
X1140Y2923D02*
X1119D01*
X1120Y2923*
X1120Y2923*
X1120Y2922*
X1120Y2922*
X1120Y2922*
X1121Y2921*
X1121Y2920*
X1122Y2920*
Y2920*
X1122Y2920*
X1122Y2919*
X1122Y2919*
X1122Y2919*
X1123Y2918*
X1123Y2918*
X1123Y2917*
X1123Y2916*
X1120*
Y2916*
X1120Y2917*
X1120Y2917*
X1120Y2917*
X1120Y2917*
X1120Y2917*
X1119Y2918*
X1119Y2919*
X1118Y2919*
X1118Y2920*
X1117Y2921*
X1117Y2921*
X1117Y2921*
X1117Y2921*
X1117Y2921*
X1117Y2922*
X1116Y2922*
X1116Y2923*
X1115Y2923*
X1114Y2923*
X1114Y2924*
Y2926*
X1140*
Y2923*
G37*
G36*
X1127Y2911D02*
X1128D01*
X1128Y2911*
X1129Y2910*
X1130Y2910*
X1131Y2910*
X1132Y2910*
X1132*
X1132Y2910*
X1132Y2910*
X1132Y2910*
X1133Y2910*
X1133Y2909*
X1134Y2909*
X1134Y2909*
X1135Y2909*
X1135Y2908*
X1136Y2908*
X1136Y2908*
X1136Y2908*
X1136Y2908*
X1137Y2907*
X1137Y2907*
X1137Y2906*
X1138Y2906*
X1138Y2906*
X1138Y2906*
X1138Y2905*
X1138Y2905*
X1139Y2905*
X1139Y2904*
X1139Y2903*
X1139Y2903*
Y2903*
X1139Y2903*
X1139Y2903*
X1139Y2902*
X1139Y2902*
X1139Y2901*
X1139Y2900*
X1139Y2900*
X1140Y2899*
Y2890*
X1114*
Y2899*
X1114Y2900*
X1114Y2901*
X1114Y2901*
X1114Y2902*
X1114Y2903*
Y2903*
X1114Y2903*
Y2903*
X1114Y2903*
X1114Y2904*
X1115Y2904*
X1115Y2905*
X1115Y2905*
X1116Y2906*
X1116Y2907*
X1116Y2907*
X1116Y2907*
X1116Y2907*
X1116Y2907*
X1117Y2907*
X1117Y2908*
X1118Y2908*
X1119Y2909*
X1120Y2909*
X1120Y2910*
X1121*
X1121Y2910*
X1121Y2910*
X1121Y2910*
X1121Y2910*
X1122Y2910*
X1122Y2910*
X1122Y2910*
X1123Y2910*
X1123Y2910*
X1124Y2911*
X1125Y2911*
X1127Y2911*
X1127*
X1127*
X1127*
X1127*
X1127Y2911*
G37*
G36*
X998Y3319D02*
X999D01*
X999Y3319*
X999Y3319*
X1000Y3319*
X1001Y3319*
X1002Y3319*
X1003Y3318*
X1004Y3318*
X1004Y3318*
X1004Y3318*
X1004Y3318*
X1004Y3318*
X1005Y3318*
X1005Y3317*
X1005Y3317*
X1005Y3317*
X1006Y3317*
X1006Y3316*
X1006Y3316*
X1007Y3315*
X1008Y3314*
X1008Y3313*
Y3313*
X1008Y3313*
X1008Y3313*
X1008Y3312*
X1008Y3312*
X1009Y3312*
X1009Y3311*
X1009Y3311*
X1009Y3310*
X1009Y3310*
X1009Y3309*
X1009Y3307*
X1010Y3306*
Y3306*
Y3306*
Y3306*
X1009Y3305*
Y3305*
X1009Y3305*
X1009Y3304*
X1009Y3304*
X1009Y3303*
X1009Y3301*
X1009Y3300*
X1008Y3299*
X1008Y3299*
X1008Y3299*
X1008Y3299*
X1008Y3299*
X1008Y3298*
X1007Y3298*
X1007Y3297*
X1006Y3297*
X1006Y3296*
X1005Y3295*
X1004Y3295*
X1004Y3295*
X1004Y3294*
X1003Y3294*
X1003Y3294*
X1003Y3294*
X1003Y3294*
X1002Y3294*
X1002Y3294*
X1001Y3294*
X1001Y3293*
X1000Y3293*
X999Y3293*
X997Y3293*
X997*
X997Y3293*
X996Y3293*
X996Y3293*
X996Y3293*
X995Y3293*
X994Y3293*
X993Y3294*
X993Y3294*
X992Y3294*
X991Y3295*
X991Y3295*
X991Y3295*
X991Y3295*
X991Y3295*
X991Y3295*
X990Y3296*
X990Y3296*
X990Y3296*
X990Y3296*
X989Y3297*
X989Y3297*
X989Y3298*
X988Y3298*
X988Y3299*
X988Y3299*
X988Y3300*
X987Y3300*
X991Y3301*
Y3301*
X991Y3301*
X991Y3301*
X991Y3301*
X991Y3301*
X991Y3300*
X991Y3300*
X992Y3299*
X992Y3298*
X993Y3298*
X993Y3297*
X993Y3297*
X994Y3297*
X994Y3297*
X994Y3297*
X995Y3296*
X996Y3296*
X997Y3296*
X998Y3296*
X998*
X998Y3296*
X998*
X999Y3296*
X999Y3296*
X1000Y3296*
X1001Y3296*
X1002Y3297*
X1002Y3297*
X1003*
X1003Y3297*
X1003Y3298*
X1003Y3298*
X1004Y3298*
X1004Y3299*
X1004Y3300*
X1005Y3300*
X1005Y3301*
Y3301*
X1005Y3301*
X1005Y3301*
X1005Y3302*
X1005Y3302*
X1006Y3302*
X1006Y3303*
X1006Y3303*
X1006Y3304*
X1006Y3305*
X1006Y3306*
Y3306*
Y3306*
Y3306*
Y3307*
X1006Y3307*
Y3307*
X1006Y3308*
X1006Y3308*
X1006Y3309*
X1006Y3310*
X1005Y3311*
X1005Y3312*
Y3312*
X1005Y3312*
X1005Y3312*
X1005Y3312*
X1005Y3313*
X1004Y3313*
X1004Y3314*
X1003Y3314*
X1003Y3315*
X1002Y3315*
X1002*
X1002Y3315*
X1002Y3316*
X1002Y3316*
X1002Y3316*
X1001Y3316*
X1001Y3316*
X1000Y3316*
X999Y3316*
X999Y3317*
X998Y3317*
X998*
X997Y3317*
X997*
X997Y3317*
X996Y3316*
X995Y3316*
X995Y3316*
X994Y3316*
X993Y3315*
X993Y3315*
X993Y3315*
X993Y3315*
X993Y3315*
X993Y3315*
X992Y3315*
X992Y3314*
X992Y3314*
X992Y3314*
X992Y3313*
X991Y3313*
X991Y3313*
X991Y3312*
X991Y3312*
X991Y3311*
X990Y3311*
X990Y3310*
X987Y3311*
Y3311*
X987Y3311*
X987Y3311*
X987Y3312*
X987Y3312*
X987Y3312*
X988Y3313*
X988Y3313*
X988Y3314*
X989Y3315*
X989Y3316*
X990Y3316*
X990Y3317*
X991Y3317*
X991Y3317*
X991Y3317*
X991Y3318*
X991Y3318*
X991Y3318*
X992Y3318*
X992Y3318*
X993Y3318*
X993Y3319*
X994Y3319*
X994Y3319*
X995Y3319*
X995Y3319*
X996Y3319*
X997Y3319*
X997Y3320*
X998*
X998Y3319*
G37*
G36*
X984Y3319D02*
Y3319D01*
Y3319*
X984Y3318*
X984Y3318*
X984Y3318*
X984Y3317*
X984Y3317*
Y3317*
X984Y3317*
X984Y3317*
X984Y3316*
X984Y3316*
X983Y3315*
X983Y3315*
X982Y3314*
X982Y3313*
Y3313*
X982Y3313*
X982Y3313*
X981Y3313*
X981Y3312*
X980Y3312*
X980Y3311*
X979Y3310*
X978Y3310*
X978Y3310*
X978Y3309*
X977Y3309*
X977Y3309*
X977Y3309*
X976Y3308*
X976Y3308*
X976Y3308*
X975Y3307*
X974Y3306*
X973Y3305*
X973Y3305*
X973Y3305*
X972Y3304*
Y3304*
X972Y3304*
X972Y3304*
X972Y3304*
X972Y3303*
X971Y3303*
X971Y3302*
X971Y3302*
X971Y3301*
X971Y3300*
Y3300*
Y3300*
X971Y3300*
X971Y3300*
X971Y3299*
X971Y3299*
X971Y3298*
X972Y3298*
X972Y3297*
X972Y3297*
X972Y3297*
X973Y3297*
X973Y3297*
X974Y3296*
X974Y3296*
X975Y3296*
X976Y3296*
X976*
X976Y3296*
X976Y3296*
X977Y3296*
X977Y3296*
X978Y3297*
X979Y3297*
X979Y3297*
X979Y3297*
X979Y3298*
X980Y3298*
X980Y3298*
X980Y3299*
X980Y3299*
X981Y3300*
X981Y3301*
X984Y3301*
Y3301*
X984Y3301*
Y3300*
X984Y3300*
X984Y3300*
X984Y3300*
X983Y3299*
X983Y3299*
X983Y3298*
X983Y3297*
X982Y3296*
X982Y3296*
X982Y3296*
X981Y3295*
X981Y3295*
X981Y3295*
X981Y3295*
X981Y3295*
X981Y3295*
X980Y3295*
X980Y3294*
X980Y3294*
X979Y3294*
X979Y3294*
X978Y3294*
X978Y3294*
X977Y3294*
X977Y3293*
X976Y3293*
X976Y3293*
X975*
X975Y3293*
X975Y3293*
X974Y3293*
X974Y3294*
X973Y3294*
X972Y3294*
X971Y3294*
X971Y3294*
X971Y3295*
X970Y3295*
X970Y3295*
X970Y3295*
X970Y3295*
X969Y3296*
X969Y3296*
X969Y3296*
X969Y3296*
X969Y3296*
X969Y3297*
X968Y3298*
X968Y3298*
X968Y3299*
X968Y3299*
X968Y3300*
X967Y3300*
Y3301*
Y3301*
X968Y3301*
X968Y3301*
X968Y3302*
X968Y3302*
X968Y3303*
X968Y3303*
X968Y3304*
X968Y3304*
X968Y3304*
X969Y3304*
X969Y3305*
X969Y3305*
X970Y3306*
X970Y3307*
X970Y3307*
X971Y3307*
X971Y3307*
X971Y3307*
X971Y3308*
X971Y3308*
X972Y3308*
X972Y3308*
X972Y3309*
X973Y3309*
X973Y3310*
X974Y3310*
X974Y3311*
X975Y3311*
X975Y3311*
X975Y3311*
X975Y3311*
X976Y3311*
X976Y3312*
X976Y3312*
X977Y3312*
X977Y3313*
X978Y3314*
X978Y3314*
X979Y3314*
X979Y3314*
X979Y3314*
X979Y3315*
X979Y3315*
X979Y3315*
X979Y3315*
X980Y3315*
X980Y3316*
X967*
Y3319*
X984*
Y3319*
G37*
G36*
X4812Y3804D02*
X4813Y3804D01*
X4813Y3804*
X4814Y3803*
X4815Y3803*
X4815Y3803*
X4816Y3803*
X4816Y3802*
X4817Y3802*
X4817Y3802*
X4817Y3802*
X4817Y3802*
X4817Y3802*
X4817Y3801*
X4817Y3801*
X4818Y3801*
X4818Y3801*
X4818Y3800*
X4818Y3800*
X4818Y3800*
X4818Y3799*
X4818Y3799*
X4819Y3798*
X4819Y3797*
X4819Y3797*
Y3796*
X4816Y3796*
Y3796*
Y3796*
Y3796*
X4816Y3796*
X4816Y3796*
Y3797*
X4815Y3797*
X4815Y3798*
X4815Y3799*
X4815Y3799*
X4815Y3799*
X4815Y3800*
X4815Y3800*
X4814Y3800*
X4814Y3800*
X4814Y3800*
X4813Y3800*
X4813Y3800*
X4812Y3801*
X4812Y3801*
X4812*
X4811Y3801*
X4811Y3801*
X4811Y3801*
X4810Y3800*
X4810Y3800*
X4810Y3800*
X4810Y3800*
X4810Y3800*
X4809Y3800*
X4809Y3800*
X4809Y3799*
X4809Y3799*
X4809Y3799*
X4808Y3799*
Y3798*
X4808Y3798*
X4808Y3798*
X4808Y3798*
X4808Y3797*
X4808Y3797*
X4808Y3796*
Y3795*
Y3778*
X4805*
Y3795*
Y3795*
Y3795*
Y3795*
Y3796*
X4805Y3796*
Y3796*
X4805Y3797*
X4805Y3798*
X4805Y3799*
X4805Y3799*
X4805Y3800*
Y3800*
X4805Y3800*
X4806Y3800*
X4806Y3801*
X4806Y3801*
X4806Y3802*
X4807Y3802*
X4807Y3802*
X4808Y3803*
X4808Y3803*
X4808Y3803*
X4809Y3803*
X4809Y3803*
X4810Y3803*
X4810Y3804*
X4811Y3804*
X4812Y3804*
X4812*
X4812Y3804*
G37*
G36*
X4793D02*
X4793Y3804D01*
X4793Y3804*
X4794Y3804*
X4794Y3803*
X4795Y3803*
X4796Y3803*
X4796Y3803*
X4797Y3803*
X4797Y3802*
X4798Y3802*
X4798Y3801*
X4798Y3801*
X4798Y3801*
X4798Y3801*
X4798Y3801*
X4799Y3801*
X4799Y3801*
X4799Y3800*
X4799Y3800*
X4799Y3800*
X4800Y3799*
X4800Y3798*
X4800Y3798*
X4800Y3797*
X4800Y3796*
X4800Y3796*
Y3796*
Y3796*
Y3796*
X4800Y3795*
Y3795*
X4800Y3795*
X4800Y3794*
X4800Y3794*
X4800Y3793*
X4800Y3792*
X4799Y3792*
Y3792*
X4799Y3792*
X4799Y3791*
X4799Y3791*
X4798Y3791*
X4798Y3790*
X4797Y3790*
X4796Y3790*
X4796Y3789*
X4796*
X4796Y3789*
X4796Y3789*
X4796Y3789*
X4796Y3789*
X4797Y3789*
X4797Y3789*
X4798Y3788*
X4798Y3788*
X4798Y3787*
X4798Y3787*
X4799Y3787*
X4799Y3787*
X4799Y3786*
X4799Y3786*
X4799Y3785*
X4799Y3785*
X4799Y3784*
Y3784*
Y3784*
Y3784*
X4799Y3784*
X4799Y3783*
X4799Y3783*
X4799Y3783*
X4799Y3782*
X4799Y3781*
X4798Y3781*
X4798Y3780*
X4798Y3780*
X4797Y3779*
X4797Y3779*
X4797Y3779*
X4797Y3779*
X4797Y3779*
X4797Y3779*
X4797Y3779*
X4796Y3779*
X4796Y3778*
X4796Y3778*
X4795Y3778*
X4795Y3778*
X4794Y3778*
X4793Y3778*
X4793Y3778*
X4792Y3778*
X4792*
X4791Y3778*
X4791Y3778*
X4791Y3778*
X4790Y3778*
X4790Y3778*
X4789Y3778*
X4788Y3778*
X4788Y3779*
X4787Y3779*
X4787Y3779*
X4787Y3779*
X4787Y3780*
X4787Y3780*
X4786Y3780*
X4786Y3780*
X4786Y3780*
X4786Y3780*
X4786Y3781*
X4785Y3782*
X4785Y3782*
X4785Y3783*
X4785Y3784*
X4785Y3784*
Y3784*
Y3784*
Y3785*
X4785Y3785*
X4785Y3785*
X4785Y3786*
X4785Y3786*
X4785Y3787*
X4786Y3787*
X4786Y3787*
X4786Y3788*
X4786Y3788*
X4786Y3788*
X4787Y3788*
X4787Y3789*
X4788Y3789*
X4788Y3789*
X4788*
X4788Y3789*
X4788Y3789*
X4788Y3790*
X4788Y3790*
X4787Y3790*
X4786Y3790*
X4786Y3791*
X4785Y3791*
X4785Y3792*
Y3792*
X4785Y3792*
X4785Y3792*
X4784Y3793*
X4784Y3793*
X4784Y3794*
X4784Y3794*
X4784Y3795*
X4784Y3796*
Y3796*
Y3796*
Y3796*
X4784Y3797*
X4784Y3797*
X4784Y3797*
X4784Y3797*
X4784Y3798*
X4784Y3799*
X4784Y3799*
X4785Y3800*
X4785Y3800*
X4785Y3801*
X4785Y3801*
X4786Y3801*
X4786Y3802*
X4786Y3802*
X4786Y3802*
X4786Y3802*
X4787Y3802*
X4787Y3802*
X4787Y3802*
X4787Y3803*
X4788Y3803*
X4788Y3803*
X4789Y3803*
X4789Y3803*
X4790Y3803*
X4791Y3804*
X4791Y3804*
X4792Y3804*
X4792*
X4793Y3804*
G37*
G36*
X4622Y2496D02*
X4623Y2496D01*
X4623Y2496*
X4623Y2496*
X4624Y2496*
X4625Y2496*
X4626Y2495*
X4626Y2495*
X4627Y2495*
X4628Y2494*
X4628Y2494*
X4628Y2494*
X4628Y2494*
X4628Y2494*
X4628Y2494*
X4629Y2493*
X4629Y2493*
X4629Y2493*
X4629Y2493*
X4630Y2492*
X4630Y2492*
X4630Y2491*
X4631Y2491*
X4631Y2490*
X4631Y2490*
X4631Y2489*
X4632Y2489*
X4628Y2488*
Y2488*
X4628Y2488*
X4628Y2488*
X4628Y2488*
X4628Y2488*
X4628Y2489*
X4628Y2489*
X4627Y2490*
X4627Y2491*
X4626Y2491*
X4626Y2492*
X4626Y2492*
X4625Y2492*
X4625Y2492*
X4625Y2492*
X4624Y2493*
X4623Y2493*
X4622Y2493*
X4621Y2493*
X4621*
X4621Y2493*
X4621*
X4620Y2493*
X4620Y2493*
X4619Y2493*
X4618Y2493*
X4617Y2492*
X4617Y2492*
X4616*
X4616Y2492*
X4616Y2491*
X4616Y2491*
X4615Y2491*
X4615Y2490*
X4615Y2489*
X4614Y2489*
X4614Y2488*
Y2488*
X4614Y2488*
X4614Y2488*
X4614Y2487*
X4614Y2487*
X4614Y2487*
X4613Y2486*
X4613Y2486*
X4613Y2485*
X4613Y2484*
X4613Y2483*
Y2483*
Y2483*
Y2483*
Y2482*
X4613Y2482*
Y2482*
X4613Y2481*
X4613Y2481*
X4613Y2480*
X4613Y2479*
X4614Y2478*
X4614Y2477*
Y2477*
X4614Y2477*
X4614Y2477*
X4614Y2477*
X4614Y2476*
X4615Y2476*
X4615Y2475*
X4616Y2475*
X4616Y2474*
X4617Y2474*
X4617*
X4617Y2474*
X4617Y2473*
X4617Y2473*
X4617Y2473*
X4618Y2473*
X4618Y2473*
X4619Y2473*
X4620Y2473*
X4620Y2472*
X4621Y2472*
X4621*
X4622Y2472*
X4622*
X4622Y2472*
X4623Y2473*
X4624Y2473*
X4624Y2473*
X4625Y2473*
X4626Y2474*
X4626Y2474*
X4626Y2474*
X4626Y2474*
X4626Y2474*
X4626Y2474*
X4627Y2474*
X4627Y2475*
X4627Y2475*
X4627Y2475*
X4627Y2476*
X4628Y2476*
X4628Y2476*
X4628Y2477*
X4628Y2477*
X4628Y2478*
X4629Y2478*
X4629Y2479*
X4632Y2478*
Y2478*
X4632Y2478*
X4632Y2478*
X4632Y2477*
X4632Y2477*
X4632Y2477*
X4631Y2476*
X4631Y2476*
X4631Y2475*
X4630Y2474*
X4630Y2473*
X4629Y2473*
X4629Y2472*
X4628Y2472*
X4628Y2472*
X4628Y2472*
X4628Y2472*
X4628Y2471*
X4628Y2471*
X4627Y2471*
X4627Y2471*
X4626Y2471*
X4626Y2470*
X4625Y2470*
X4625Y2470*
X4624Y2470*
X4624Y2470*
X4623Y2470*
X4622Y2470*
X4622Y2470*
X4621*
X4621Y2470*
X4620*
X4620Y2470*
X4620Y2470*
X4619Y2470*
X4618Y2470*
X4617Y2470*
X4616Y2471*
X4615Y2471*
X4615Y2471*
X4615Y2471*
X4615Y2471*
X4615Y2471*
X4614Y2472*
X4614Y2472*
X4614Y2472*
X4614Y2472*
X4613Y2472*
X4613Y2473*
X4613Y2473*
X4612Y2474*
X4611Y2475*
X4611Y2476*
Y2476*
X4611Y2476*
X4611Y2476*
X4611Y2477*
X4611Y2477*
X4610Y2477*
X4610Y2478*
X4610Y2478*
X4610Y2479*
X4610Y2479*
X4610Y2480*
X4610Y2482*
X4610Y2483*
Y2483*
Y2483*
Y2483*
X4610Y2484*
Y2484*
X4610Y2484*
X4610Y2485*
X4610Y2485*
X4610Y2486*
X4610Y2488*
X4611Y2489*
X4611Y2490*
X4611Y2490*
X4611Y2490*
X4611Y2490*
X4611Y2490*
X4611Y2491*
X4612Y2491*
X4612Y2492*
X4613Y2492*
X4614Y2493*
X4614Y2494*
X4615Y2494*
X4615Y2494*
X4615Y2495*
X4616Y2495*
X4616Y2495*
X4616Y2495*
X4616Y2495*
X4617Y2495*
X4617Y2495*
X4618Y2495*
X4618Y2496*
X4619Y2496*
X4620Y2496*
X4622Y2496*
X4622*
X4622Y2496*
G37*
G36*
X4664Y2496D02*
X4664Y2496D01*
X4665Y2496*
X4665Y2495*
X4666Y2495*
X4666Y2495*
X4667Y2495*
X4668Y2495*
X4668Y2494*
X4669Y2494*
X4669Y2494*
X4669Y2494*
X4669Y2494*
X4669Y2493*
X4670Y2493*
X4670Y2493*
X4670Y2493*
X4670Y2493*
X4670Y2492*
X4671Y2491*
X4671Y2491*
X4671Y2490*
X4671Y2490*
X4671Y2489*
X4671Y2489*
Y2488*
Y2488*
X4671Y2488*
X4671Y2488*
X4671Y2487*
X4671Y2487*
X4671Y2486*
X4671Y2486*
X4671Y2485*
X4671Y2485*
X4671Y2485*
X4670Y2485*
X4670Y2484*
X4670Y2484*
X4669Y2483*
X4669Y2482*
X4669Y2482*
X4668Y2482*
X4668Y2482*
X4668Y2482*
X4668Y2481*
X4668Y2481*
X4667Y2481*
X4667Y2481*
X4666Y2480*
X4666Y2480*
X4666Y2479*
X4665Y2479*
X4664Y2478*
X4664Y2478*
X4664Y2478*
X4664Y2478*
X4664Y2478*
X4663Y2478*
X4663Y2477*
X4663Y2477*
X4662Y2477*
X4662Y2476*
X4661Y2475*
X4661Y2475*
X4660Y2475*
X4660Y2475*
X4660Y2475*
X4660Y2474*
X4660Y2474*
X4660Y2474*
X4660Y2474*
X4659Y2474*
X4659Y2473*
X4671*
Y2470*
X4654*
Y2470*
Y2470*
Y2470*
X4655Y2471*
X4655Y2471*
X4655Y2471*
X4655Y2472*
X4655Y2472*
Y2472*
X4655Y2472*
X4655Y2472*
X4655Y2473*
X4655Y2473*
X4656Y2474*
X4656Y2474*
X4656Y2475*
X4657Y2476*
Y2476*
X4657Y2476*
X4657Y2476*
X4658Y2476*
X4658Y2477*
X4659Y2477*
X4659Y2478*
X4660Y2479*
X4661Y2479*
X4661Y2479*
X4661Y2480*
X4661Y2480*
X4662Y2480*
X4662Y2480*
X4662Y2481*
X4663Y2481*
X4663Y2481*
X4664Y2482*
X4665Y2483*
X4666Y2484*
X4666Y2484*
X4666Y2484*
X4667Y2485*
Y2485*
X4667Y2485*
X4667Y2485*
X4667Y2485*
X4667Y2486*
X4667Y2486*
X4668Y2487*
X4668Y2487*
X4668Y2488*
X4668Y2489*
Y2489*
Y2489*
X4668Y2489*
X4668Y2489*
X4668Y2490*
X4668Y2490*
X4668Y2491*
X4667Y2491*
X4667Y2492*
X4667Y2492*
X4667Y2492*
X4666Y2492*
X4666Y2492*
X4665Y2493*
X4665Y2493*
X4664Y2493*
X4663Y2493*
X4663*
X4663Y2493*
X4663Y2493*
X4662Y2493*
X4661Y2493*
X4661Y2492*
X4660Y2492*
X4660Y2492*
X4660Y2492*
X4659Y2491*
X4659Y2491*
X4659Y2491*
X4659Y2490*
X4659Y2490*
X4658Y2489*
X4658Y2488*
X4655Y2488*
Y2488*
X4655Y2488*
Y2489*
X4655Y2489*
X4655Y2489*
X4655Y2489*
X4655Y2490*
X4656Y2490*
X4656Y2491*
X4656Y2492*
X4657Y2493*
X4657Y2493*
X4657Y2493*
X4658Y2494*
X4658Y2494*
X4658Y2494*
X4658Y2494*
X4658Y2494*
X4658Y2494*
X4658Y2494*
X4659Y2495*
X4659Y2495*
X4660Y2495*
X4660Y2495*
X4660Y2495*
X4661Y2495*
X4662Y2495*
X4662Y2496*
X4663Y2496*
X4663Y2496*
X4664*
X4664Y2496*
G37*
G36*
X4647Y2470D02*
X4644D01*
Y2490*
X4644Y2490*
X4644Y2490*
X4643Y2490*
X4643Y2489*
X4643Y2489*
X4642Y2489*
X4641Y2488*
X4641Y2488*
X4641*
X4641Y2488*
X4640Y2488*
X4640Y2487*
X4640Y2487*
X4639Y2487*
X4639Y2487*
X4638Y2486*
X4637Y2486*
Y2489*
X4637*
X4638Y2489*
X4638Y2489*
X4638Y2489*
X4638Y2490*
X4638Y2490*
X4639Y2490*
X4640Y2490*
X4640Y2491*
X4641Y2492*
X4642Y2492*
X4642Y2492*
X4642Y2492*
X4642Y2492*
X4642Y2493*
X4643Y2493*
X4643Y2493*
X4644Y2494*
X4644Y2494*
X4644Y2495*
X4645Y2496*
X4647*
Y2470*
G37*
G36*
X3169Y3236D02*
X3170Y3236D01*
X3170Y3235*
X3171Y3235*
X3172Y3235*
X3172Y3235*
X3172*
X3172Y3235*
X3173Y3235*
X3173Y3234*
X3173Y3234*
X3174Y3234*
X3174Y3233*
X3175Y3233*
X3175Y3232*
X3175Y3232*
X3175Y3232*
X3175Y3232*
X3176Y3231*
X3176Y3231*
X3176Y3230*
X3176Y3230*
X3176Y3229*
Y3229*
Y3229*
X3176Y3228*
X3176Y3228*
X3176Y3228*
X3176Y3227*
X3175Y3226*
X3175Y3226*
X3175Y3226*
X3175Y3226*
X3175Y3225*
X3174Y3225*
X3174Y3225*
X3174Y3224*
X3173Y3224*
X3172Y3224*
X3173*
X3173Y3224*
X3173Y3224*
X3173Y3224*
X3173Y3224*
X3174Y3223*
X3174Y3223*
X3175Y3223*
X3176Y3222*
X3176Y3222*
X3176Y3222*
X3176Y3221*
X3176Y3221*
X3177Y3220*
X3177Y3220*
X3177Y3219*
X3177Y3218*
X3177Y3217*
Y3217*
Y3217*
Y3217*
X3177Y3217*
X3177Y3217*
X3177Y3216*
X3177Y3216*
X3177Y3216*
X3177Y3215*
X3176Y3214*
X3176Y3214*
X3176Y3213*
X3176Y3213*
X3175Y3212*
X3175Y3212*
X3175Y3212*
X3175Y3212*
X3175Y3212*
X3174Y3211*
X3174Y3211*
X3174Y3211*
X3174Y3211*
X3173Y3211*
X3173Y3210*
X3172Y3210*
X3172Y3210*
X3171Y3210*
X3171Y3210*
X3170Y3210*
X3169Y3210*
X3169Y3210*
X3168*
X3168Y3210*
X3168Y3210*
X3167Y3210*
X3167Y3210*
X3167Y3210*
X3166Y3210*
X3165Y3210*
X3164Y3211*
X3164Y3211*
X3163Y3211*
X3163Y3212*
X3163Y3212*
X3163Y3212*
X3163Y3212*
X3163Y3212*
X3163Y3212*
X3162Y3212*
X3162Y3213*
X3162Y3213*
X3162Y3213*
X3161Y3214*
X3161Y3215*
X3161Y3216*
X3161Y3216*
X3161Y3217*
X3164Y3217*
Y3217*
X3164Y3217*
X3164Y3217*
X3164Y3217*
X3164Y3216*
X3164Y3216*
X3164Y3216*
X3164Y3215*
X3165Y3214*
X3165Y3214*
X3165Y3213*
X3166Y3213*
X3166Y3213*
X3166Y3213*
X3166Y3213*
X3167Y3212*
X3167Y3212*
X3168Y3212*
X3169Y3212*
X3169*
X3169Y3212*
X3169Y3212*
X3170Y3212*
X3171Y3212*
X3171Y3213*
X3172Y3213*
X3172Y3214*
X3172Y3214*
X3173Y3214*
X3173Y3214*
X3173Y3215*
X3173Y3215*
X3174Y3216*
X3174Y3217*
X3174Y3217*
Y3217*
Y3218*
Y3218*
X3174Y3218*
X3174Y3218*
X3174Y3219*
X3174Y3219*
X3173Y3220*
X3173Y3220*
X3173Y3221*
X3172Y3221*
X3172Y3221*
X3172Y3221*
X3172Y3222*
X3171Y3222*
X3170Y3222*
X3170Y3222*
X3169Y3222*
X3169*
X3168Y3222*
X3168Y3222*
X3168Y3222*
X3167Y3222*
X3167Y3222*
X3167Y3225*
X3167*
X3167Y3225*
X3168*
X3168Y3225*
X3169Y3225*
X3169Y3225*
X3170Y3225*
X3171Y3226*
X3171Y3226*
X3171*
X3171Y3226*
X3171Y3226*
X3172Y3226*
X3172Y3227*
X3172Y3227*
X3173Y3228*
X3173Y3228*
X3173Y3229*
Y3229*
Y3229*
Y3229*
Y3229*
X3173Y3230*
X3173Y3230*
X3173Y3231*
X3172Y3231*
X3172Y3231*
X3172Y3232*
X3172Y3232*
X3171Y3232*
X3171Y3232*
X3171Y3233*
X3170Y3233*
X3170Y3233*
X3169Y3233*
X3169Y3233*
X3168*
X3168Y3233*
X3168Y3233*
X3167Y3233*
X3167Y3233*
X3166Y3232*
X3166Y3232*
X3166Y3232*
X3165Y3232*
X3165Y3231*
X3165Y3231*
X3165Y3231*
X3164Y3230*
X3164Y3229*
X3164Y3228*
X3161Y3229*
Y3229*
X3161Y3229*
X3161Y3229*
X3161Y3230*
X3161Y3230*
X3161Y3230*
X3161Y3231*
X3162Y3232*
X3162Y3232*
X3163Y3233*
X3163Y3234*
X3163Y3234*
X3164Y3234*
X3164Y3234*
X3164Y3234*
X3164Y3234*
X3164Y3234*
X3165Y3235*
X3165Y3235*
X3166Y3235*
X3166Y3235*
X3167Y3236*
X3168Y3236*
X3169*
X3169Y3236*
G37*
G36*
X3146Y3236D02*
X3147Y3235D01*
X3148Y3235*
X3149Y3235*
X3149Y3235*
X3149*
X3149Y3235*
X3150*
X3150Y3235*
X3150Y3235*
X3151Y3235*
X3151Y3235*
X3152Y3234*
X3152Y3234*
X3153Y3233*
X3153Y3233*
X3153Y3233*
X3153Y3233*
X3153Y3233*
X3154Y3233*
X3154Y3232*
X3155Y3232*
X3155Y3231*
X3156Y3230*
X3156Y3229*
Y3229*
X3156Y3229*
X3156Y3229*
X3156Y3228*
X3156Y3228*
X3156Y3228*
X3156Y3228*
X3157Y3227*
X3157Y3227*
X3157Y3226*
X3157Y3225*
X3157Y3224*
X3157Y3223*
Y3223*
Y3223*
Y3223*
Y3222*
X3157Y3222*
Y3222*
X3157Y3221*
X3157Y3220*
X3157Y3219*
X3157Y3219*
X3156Y3218*
Y3218*
X3156Y3218*
X3156Y3217*
X3156Y3217*
X3156Y3217*
X3156Y3216*
X3156Y3216*
X3155Y3215*
X3155Y3215*
X3155Y3214*
X3155Y3214*
X3154Y3214*
X3154Y3213*
X3154Y3213*
X3154Y3213*
X3153Y3212*
X3153Y3212*
X3152Y3212*
X3152Y3212*
X3152Y3212*
X3152Y3211*
X3152Y3211*
X3151Y3211*
X3151Y3211*
X3150Y3211*
X3149Y3210*
X3149*
X3149Y3210*
X3149Y3210*
X3149Y3210*
X3148Y3210*
X3148Y3210*
X3147Y3210*
X3146Y3210*
X3145Y3210*
X3136*
Y3236*
X3146*
X3146Y3236*
G37*
G36*
X4885Y3294D02*
X4885Y3293D01*
X4884Y3292*
X4884Y3292*
X4884Y3291*
X4884Y3290*
Y3290*
X4884Y3290*
Y3290*
X4884Y3290*
X4884Y3289*
X4884Y3289*
X4884Y3288*
X4883Y3288*
X4883Y3287*
X4882Y3286*
X4882Y3286*
X4882Y3286*
X4882Y3286*
X4882Y3286*
X4882Y3286*
X4881Y3285*
X4881Y3285*
X4880Y3284*
X4879Y3284*
X4878Y3283*
X4878*
X4878Y3283*
X4878Y3283*
X4877Y3283*
X4877Y3283*
X4877Y3283*
X4877Y3283*
X4876Y3283*
X4876Y3283*
X4875Y3283*
X4874Y3282*
X4873Y3282*
X4872Y3282*
X4872*
X4872*
X4872*
X4871*
X4871Y3282*
X4871*
X4870Y3282*
X4869Y3283*
X4868Y3283*
X4868Y3283*
X4867Y3283*
X4867*
X4867Y3283*
X4866Y3283*
X4866Y3283*
X4866Y3283*
X4865Y3284*
X4865Y3284*
X4864Y3284*
X4864Y3284*
X4863Y3285*
X4863Y3285*
X4863Y3285*
X4862Y3285*
X4862Y3285*
X4862Y3286*
X4861Y3286*
X4861Y3287*
X4861Y3287*
X4861Y3287*
X4861Y3287*
X4860Y3288*
X4860Y3288*
X4860Y3288*
X4860Y3289*
X4860Y3290*
X4859Y3290*
Y3290*
X4859Y3290*
X4859Y3290*
X4859Y3291*
X4859Y3291*
X4859Y3292*
X4859Y3293*
X4859Y3293*
X4859Y3294*
Y3304*
X4885*
Y3294*
G37*
G36*
X4877Y3279D02*
X4877Y3279D01*
X4877Y3279*
X4878Y3279*
X4878Y3279*
X4879Y3278*
X4880Y3278*
X4880Y3278*
X4881Y3278*
X4881Y3277*
X4882Y3277*
X4882Y3277*
X4882Y3277*
X4882Y3277*
X4882Y3276*
X4883Y3276*
X4883Y3276*
X4883Y3276*
X4883Y3275*
X4883Y3275*
X4884Y3275*
X4884Y3274*
X4884Y3273*
X4884Y3273*
X4885Y3272*
X4885Y3272*
X4885Y3271*
Y3271*
X4885Y3271*
Y3270*
X4885Y3270*
X4884Y3269*
X4884Y3269*
X4884Y3268*
X4884Y3267*
X4883Y3266*
Y3266*
X4883Y3266*
X4883Y3266*
X4883Y3266*
X4883Y3266*
X4882Y3265*
X4882Y3265*
X4881Y3264*
X4880Y3264*
X4879Y3263*
X4879*
X4879Y3263*
X4879Y3263*
X4879Y3263*
X4879Y3263*
X4878Y3263*
X4878Y3263*
X4878Y3263*
X4877Y3263*
X4877Y3262*
X4876Y3262*
X4875Y3262*
X4875Y3262*
X4874Y3262*
X4873Y3262*
X4872*
X4872*
X4872*
X4872*
X4871*
X4871Y3262*
X4871*
X4870Y3262*
X4869Y3262*
X4868Y3262*
X4867Y3263*
X4866Y3263*
X4865Y3263*
X4864Y3263*
X4864*
X4864Y3263*
X4864Y3263*
X4864Y3263*
X4864Y3264*
X4863Y3264*
X4863Y3264*
X4862Y3264*
X4861Y3265*
X4861Y3266*
X4860Y3266*
Y3266*
X4860Y3267*
X4860Y3267*
X4860Y3267*
X4860Y3267*
X4860Y3267*
X4859Y3268*
X4859Y3268*
X4859Y3269*
X4859Y3269*
X4859Y3270*
X4859Y3271*
Y3272*
X4859Y3272*
Y3272*
X4859Y3272*
X4859Y3273*
X4859Y3274*
X4859Y3275*
X4860Y3275*
X4860Y3276*
X4860Y3276*
X4860Y3276*
X4860Y3276*
X4860Y3276*
X4860Y3277*
X4861Y3277*
X4861Y3277*
X4861Y3277*
X4862Y3278*
X4863Y3278*
X4864Y3278*
X4865Y3278*
X4865Y3275*
X4865*
X4865Y3275*
X4865*
X4865Y3275*
X4864Y3275*
X4864Y3275*
X4863Y3275*
X4863Y3275*
X4862Y3274*
X4862Y3274*
X4862Y3274*
X4862Y3274*
X4862Y3274*
X4862Y3273*
X4861Y3273*
X4861Y3272*
X4861Y3272*
X4861Y3271*
Y3271*
X4861Y3271*
X4861Y3270*
X4861Y3270*
X4861Y3270*
X4862Y3269*
X4862Y3269*
X4862Y3269*
X4862Y3269*
X4862Y3268*
X4862Y3268*
X4862Y3268*
X4863Y3268*
X4863Y3267*
X4863Y3267*
X4864Y3267*
X4864Y3267*
X4864Y3267*
X4864Y3267*
X4865Y3266*
X4865Y3266*
X4866Y3266*
X4867Y3266*
X4867*
X4867Y3266*
X4867*
X4867Y3266*
X4867Y3266*
X4868Y3266*
X4868Y3265*
X4869Y3265*
X4870Y3265*
X4870Y3265*
X4870*
X4871*
X4871*
X4871*
X4871Y3265*
X4871Y3265*
X4870Y3266*
X4870Y3266*
X4870Y3266*
X4869Y3267*
X4869Y3267*
X4869Y3268*
X4869Y3268*
X4868Y3268*
X4868Y3269*
X4868Y3269*
X4868Y3269*
X4868Y3270*
X4868Y3271*
X4868Y3271*
Y3272*
X4868Y3272*
X4868Y3272*
X4868Y3273*
X4868Y3273*
X4868Y3273*
X4868Y3274*
X4868Y3275*
X4869Y3275*
X4869Y3275*
X4869Y3276*
X4870Y3276*
X4870Y3277*
X4870Y3277*
X4870Y3277*
X4870Y3277*
X4870Y3277*
X4871Y3277*
X4871Y3277*
X4871Y3278*
X4872Y3278*
X4872Y3278*
X4872Y3278*
X4873Y3278*
X4873Y3279*
X4874Y3279*
X4875Y3279*
X4875Y3279*
X4876Y3279*
X4876*
X4876*
X4876*
X4877Y3279*
G37*
G36*
X5533Y3829D02*
X5533Y3829D01*
X5534Y3829*
X5535Y3829*
X5535Y3829*
X5536Y3829*
X5537Y3828*
X5537Y3828*
X5537Y3828*
X5538Y3828*
X5538Y3828*
X5538Y3828*
X5538Y3827*
X5538Y3827*
X5538Y3827*
X5538Y3827*
X5539Y3826*
X5539Y3826*
X5539Y3826*
X5539Y3825*
X5539Y3825*
X5539Y3824*
X5539Y3824*
X5539Y3823*
X5540Y3823*
Y3822*
X5536Y3821*
Y3821*
Y3822*
Y3822*
X5536Y3822*
X5536Y3822*
Y3822*
X5536Y3823*
X5536Y3824*
X5536Y3824*
X5536Y3825*
X5536Y3825*
X5535Y3825*
X5535Y3825*
X5535Y3826*
X5535Y3826*
X5535Y3826*
X5534Y3826*
X5534Y3826*
X5533Y3826*
X5533Y3826*
X5532*
X5532Y3826*
X5532Y3826*
X5532Y3826*
X5531Y3826*
X5531Y3826*
X5530Y3826*
X5530Y3826*
X5530Y3826*
X5530Y3826*
X5530Y3826*
X5530Y3825*
X5530Y3825*
X5529Y3825*
X5529Y3824*
Y3824*
X5529Y3824*
X5529Y3824*
X5529Y3824*
X5529Y3823*
X5529Y3823*
X5529Y3822*
Y3821*
Y3803*
X5525*
Y3821*
Y3821*
Y3821*
Y3821*
Y3821*
X5525Y3822*
Y3822*
X5526Y3823*
X5526Y3824*
X5526Y3824*
X5526Y3825*
X5526Y3826*
Y3826*
X5526Y3826*
X5526Y3826*
X5527Y3827*
X5527Y3827*
X5527Y3827*
X5528Y3828*
X5528Y3828*
X5529Y3829*
X5529Y3829*
X5529Y3829*
X5529Y3829*
X5530Y3829*
X5530Y3829*
X5531Y3829*
X5532Y3829*
X5533Y3830*
X5533*
X5533Y3829*
G37*
G36*
X5517Y3829D02*
Y3829D01*
Y3829*
X5517Y3829*
Y3828*
X5517Y3828*
X5517Y3827*
X5517Y3827*
X5517Y3827*
X5517Y3826*
X5517Y3825*
X5517Y3825*
X5517Y3824*
X5517Y3823*
X5516Y3822*
Y3822*
X5516Y3822*
X5516Y3821*
X5516Y3821*
X5516Y3821*
X5516Y3820*
X5516Y3820*
X5515Y3819*
X5515Y3819*
X5515Y3818*
X5514Y3817*
X5514Y3815*
X5513Y3814*
X5513Y3814*
X5513Y3813*
X5513Y3813*
X5513Y3813*
X5512Y3813*
X5512Y3812*
X5512Y3812*
X5512Y3811*
X5511Y3810*
X5510Y3809*
X5509Y3808*
X5508Y3807*
X5521*
Y3804*
X5504*
Y3806*
X5504Y3806*
X5504Y3806*
X5505Y3807*
X5505Y3807*
X5505Y3807*
X5505Y3807*
X5506Y3808*
X5506Y3808*
X5506Y3809*
X5507Y3809*
X5507Y3810*
X5507Y3810*
X5508Y3811*
X5508Y3812*
X5509Y3812*
X5509Y3813*
X5509Y3813*
X5509Y3813*
X5509Y3814*
X5510Y3814*
X5510Y3814*
X5510Y3815*
X5510Y3815*
X5511Y3816*
X5511Y3817*
X5511Y3817*
X5511Y3818*
X5512Y3819*
X5512Y3820*
X5513Y3822*
Y3822*
X5513Y3822*
X5513Y3822*
X5513Y3823*
X5513Y3823*
X5513Y3823*
X5513Y3824*
X5513Y3824*
X5514Y3825*
X5514Y3825*
X5514Y3826*
X5514Y3828*
X5514Y3829*
X5517*
Y3829*
G37*
G36*
X4474Y2579D02*
X4474D01*
X4474Y2579*
X4475Y2579*
X4475Y2579*
X4476Y2579*
X4478Y2579*
X4479Y2579*
X4480Y2578*
X4480Y2578*
X4480Y2578*
X4480Y2578*
X4480Y2578*
X4481Y2578*
X4481Y2577*
X4482Y2577*
X4482Y2576*
X4483Y2576*
X4484Y2575*
X4484Y2574*
X4484Y2574*
X4485Y2574*
X4485Y2573*
X4485Y2573*
X4485Y2573*
X4485Y2573*
X4485Y2572*
X4485Y2572*
X4485Y2571*
X4486Y2571*
X4486Y2570*
X4486Y2569*
X4486Y2567*
Y2567*
X4486Y2567*
X4486Y2566*
X4486Y2566*
X4486Y2566*
X4486Y2565*
X4486Y2564*
X4485Y2563*
X4485Y2563*
X4485Y2562*
X4484Y2561*
X4484Y2561*
X4484Y2561*
X4484Y2561*
X4484Y2561*
X4484Y2561*
X4483Y2560*
X4483Y2560*
X4483Y2560*
X4483Y2560*
X4482Y2559*
X4482Y2559*
X4481Y2559*
X4481Y2558*
X4480Y2558*
X4480Y2558*
X4479Y2558*
X4479Y2557*
X4478Y2561*
X4478*
X4478Y2561*
X4478Y2561*
X4478Y2561*
X4478Y2561*
X4479Y2561*
X4479Y2561*
X4480Y2562*
X4481Y2562*
X4481Y2563*
X4482Y2563*
X4482Y2563*
X4482Y2564*
X4482Y2564*
X4482Y2564*
X4483Y2565*
X4483Y2566*
X4483Y2567*
X4483Y2568*
Y2568*
X4483Y2568*
Y2568*
X4483Y2569*
X4483Y2569*
X4483Y2570*
X4483Y2571*
X4482Y2572*
X4482Y2572*
Y2573*
X4482Y2573*
X4481Y2573*
X4481Y2573*
X4481Y2574*
X4480Y2574*
X4479Y2574*
X4479Y2575*
X4478Y2575*
X4478*
X4478Y2575*
X4478Y2575*
X4477Y2575*
X4477Y2575*
X4477Y2576*
X4476Y2576*
X4476Y2576*
X4475Y2576*
X4474Y2576*
X4473Y2576*
X4473*
X4473*
X4473*
X4472*
X4472Y2576*
X4472*
X4471Y2576*
X4471Y2576*
X4470Y2576*
X4469Y2576*
X4468Y2575*
X4467Y2575*
X4467*
X4467Y2575*
X4467Y2575*
X4467Y2575*
X4466Y2575*
X4466Y2574*
X4465Y2574*
X4465Y2573*
X4464Y2573*
X4464Y2572*
Y2572*
X4464Y2572*
X4463Y2572*
X4463Y2572*
X4463Y2572*
X4463Y2571*
X4463Y2571*
X4463Y2570*
X4463Y2569*
X4462Y2569*
X4462Y2568*
Y2568*
X4462Y2567*
Y2567*
X4462Y2567*
X4463Y2566*
X4463Y2565*
X4463Y2565*
X4463Y2564*
X4464Y2563*
X4464Y2563*
X4464Y2563*
X4464Y2563*
X4464Y2563*
X4464Y2563*
X4464Y2562*
X4465Y2562*
X4465Y2562*
X4465Y2562*
X4466Y2562*
X4466Y2561*
X4466Y2561*
X4467Y2561*
X4467Y2561*
X4468Y2561*
X4468Y2560*
X4469Y2560*
X4468Y2557*
X4468*
X4468Y2557*
X4468Y2557*
X4467Y2557*
X4467Y2557*
X4467Y2557*
X4466Y2558*
X4466Y2558*
X4465Y2558*
X4464Y2559*
X4463Y2559*
X4463Y2560*
X4462Y2560*
X4462Y2561*
X4462Y2561*
X4462Y2561*
X4462Y2561*
X4461Y2561*
X4461Y2561*
X4461Y2562*
X4461Y2562*
X4461Y2563*
X4460Y2563*
X4460Y2564*
X4460Y2564*
X4460Y2565*
X4460Y2565*
X4460Y2566*
X4460Y2567*
X4460Y2567*
Y2568*
X4460Y2568*
Y2569*
X4460Y2569*
X4460Y2569*
X4460Y2570*
X4460Y2571*
X4460Y2572*
X4461Y2573*
X4461Y2574*
X4461Y2574*
X4461Y2574*
X4461Y2574*
X4461Y2574*
X4462Y2575*
X4462Y2575*
X4462Y2575*
X4462Y2575*
X4462Y2576*
X4463Y2576*
X4463Y2576*
X4464Y2577*
X4465Y2578*
X4466Y2578*
X4466*
X4466Y2578*
X4466Y2578*
X4467Y2578*
X4467Y2578*
X4467Y2579*
X4468Y2579*
X4468Y2579*
X4469Y2579*
X4469Y2579*
X4470Y2579*
X4472Y2579*
X4473Y2580*
X4473*
X4473*
X4473*
X4474Y2579*
G37*
G36*
X4479Y2552D02*
X4479Y2551D01*
X4479Y2551*
X4479Y2551*
X4480Y2551*
X4480Y2551*
X4480Y2550*
X4480Y2549*
X4481Y2549*
X4482Y2548*
X4482Y2547*
X4482Y2547*
X4482Y2547*
X4482Y2547*
X4483Y2547*
X4483Y2546*
X4483Y2546*
X4484Y2545*
X4484Y2545*
X4485Y2545*
X4486Y2544*
Y2542*
X4460*
Y2545*
X4480*
X4480Y2545*
X4480Y2546*
X4480Y2546*
X4479Y2546*
X4479Y2547*
X4479Y2547*
X4478Y2548*
X4478Y2548*
Y2548*
X4478Y2548*
X4478Y2549*
X4477Y2549*
X4477Y2549*
X4477Y2550*
X4477Y2550*
X4476Y2551*
X4476Y2552*
X4479*
Y2552*
G37*
G36*
X4474Y2534D02*
X4474D01*
X4475Y2534*
X4475Y2534*
X4476Y2534*
X4478Y2534*
X4479Y2533*
X4479Y2533*
X4480Y2533*
X4480*
X4480Y2533*
X4480Y2533*
X4480Y2533*
X4481Y2533*
X4481Y2533*
X4481Y2532*
X4482Y2532*
X4483Y2532*
X4484Y2531*
X4484Y2530*
Y2530*
X4484Y2530*
X4484Y2530*
X4484Y2530*
X4485Y2530*
X4485Y2530*
X4485Y2529*
X4485Y2528*
X4485Y2528*
X4486Y2527*
X4486Y2526*
Y2525*
X4486Y2525*
X4486Y2524*
X4485Y2524*
X4485Y2523*
X4485Y2523*
X4485Y2522*
Y2522*
X4485Y2522*
X4485Y2522*
X4484Y2522*
X4484Y2521*
X4484Y2521*
X4483Y2520*
X4483Y2520*
X4482Y2520*
X4482Y2519*
X4482Y2519*
X4482Y2519*
X4481Y2519*
X4481Y2519*
X4480Y2518*
X4479Y2518*
X4479Y2518*
X4479*
X4478Y2518*
X4478Y2518*
X4478Y2518*
X4478Y2518*
X4478Y2518*
X4477Y2518*
X4477Y2518*
X4477Y2518*
X4476Y2518*
X4476Y2517*
X4475Y2517*
X4475Y2517*
X4474*
X4473Y2517*
X4473*
X4473*
X4472*
X4472*
X4472*
X4471Y2517*
X4471*
X4470Y2517*
X4470Y2517*
X4469Y2518*
X4468Y2518*
X4466Y2518*
X4466Y2518*
X4465Y2518*
X4465*
X4465Y2518*
X4465Y2518*
X4465Y2518*
X4465Y2519*
X4464Y2519*
X4464Y2519*
X4463Y2519*
X4462Y2520*
X4462Y2520*
X4461Y2521*
Y2521*
X4461Y2521*
X4461Y2521*
X4461Y2521*
X4461Y2522*
X4461Y2522*
X4460Y2522*
X4460Y2523*
X4460Y2524*
X4460Y2525*
X4460Y2526*
Y2526*
X4460Y2526*
X4460Y2527*
X4460Y2527*
X4460Y2527*
X4460Y2528*
X4460Y2528*
X4460Y2529*
X4460Y2529*
X4461Y2530*
X4461Y2530*
X4461Y2531*
X4462Y2531*
X4462Y2532*
X4462Y2532*
X4462Y2532*
X4462Y2532*
X4463Y2532*
X4463Y2532*
X4464Y2532*
X4464Y2533*
X4465Y2533*
X4465Y2533*
X4466Y2533*
X4467Y2533*
X4468Y2534*
X4469Y2534*
X4470Y2534*
X4471Y2534*
X4473Y2534*
X4473*
X4473*
X4473*
X4473*
X4474Y2534*
G37*
G36*
X5574Y1259D02*
X5574D01*
X5574Y1259*
X5575Y1259*
X5575Y1259*
X5576Y1259*
X5578Y1259*
X5579Y1259*
X5580Y1258*
X5580Y1258*
X5580Y1258*
X5580Y1258*
X5580Y1258*
X5581Y1258*
X5581Y1257*
X5582Y1257*
X5582Y1256*
X5583Y1256*
X5584Y1255*
X5584Y1254*
X5584Y1254*
X5585Y1254*
X5585Y1253*
X5585Y1253*
X5585Y1253*
X5585Y1253*
X5585Y1252*
X5585Y1252*
X5585Y1251*
X5586Y1251*
X5586Y1250*
X5586Y1249*
X5586Y1247*
Y1247*
X5586Y1247*
X5586Y1246*
X5586Y1246*
X5586Y1246*
X5586Y1245*
X5586Y1244*
X5585Y1243*
X5585Y1243*
X5585Y1242*
X5584Y1241*
X5584Y1241*
X5584Y1241*
X5584Y1241*
X5584Y1241*
X5584Y1241*
X5583Y1240*
X5583Y1240*
X5583Y1240*
X5583Y1240*
X5582Y1239*
X5582Y1239*
X5581Y1239*
X5581Y1238*
X5580Y1238*
X5580Y1238*
X5579Y1238*
X5579Y1237*
X5578Y1241*
X5578*
X5578Y1241*
X5578Y1241*
X5578Y1241*
X5578Y1241*
X5579Y1241*
X5579Y1241*
X5580Y1242*
X5581Y1242*
X5581Y1243*
X5582Y1243*
X5582Y1243*
X5582Y1244*
X5582Y1244*
X5582Y1244*
X5583Y1245*
X5583Y1246*
X5583Y1247*
X5583Y1248*
Y1248*
X5583Y1248*
Y1248*
X5583Y1249*
X5583Y1249*
X5583Y1250*
X5583Y1251*
X5582Y1252*
X5582Y1252*
Y1253*
X5582Y1253*
X5581Y1253*
X5581Y1253*
X5581Y1254*
X5580Y1254*
X5579Y1254*
X5579Y1255*
X5578Y1255*
X5578*
X5578Y1255*
X5578Y1255*
X5577Y1255*
X5577Y1255*
X5577Y1256*
X5576Y1256*
X5576Y1256*
X5575Y1256*
X5574Y1256*
X5573Y1256*
X5573*
X5573*
X5573*
X5572*
X5572Y1256*
X5572*
X5571Y1256*
X5571Y1256*
X5570Y1256*
X5569Y1256*
X5568Y1255*
X5567Y1255*
X5567*
X5567Y1255*
X5567Y1255*
X5567Y1255*
X5566Y1255*
X5566Y1254*
X5565Y1254*
X5565Y1253*
X5564Y1253*
X5564Y1252*
Y1252*
X5564Y1252*
X5563Y1252*
X5563Y1252*
X5563Y1252*
X5563Y1251*
X5563Y1251*
X5563Y1250*
X5563Y1249*
X5562Y1249*
X5562Y1248*
Y1248*
X5562Y1247*
Y1247*
X5562Y1247*
X5563Y1246*
X5563Y1245*
X5563Y1245*
X5563Y1244*
X5564Y1243*
X5564Y1243*
X5564Y1243*
X5564Y1243*
X5564Y1243*
X5564Y1243*
X5564Y1242*
X5565Y1242*
X5565Y1242*
X5565Y1242*
X5566Y1242*
X5566Y1241*
X5566Y1241*
X5567Y1241*
X5567Y1241*
X5568Y1241*
X5568Y1240*
X5569Y1240*
X5568Y1237*
X5568*
X5568Y1237*
X5568Y1237*
X5567Y1237*
X5567Y1237*
X5567Y1237*
X5566Y1238*
X5566Y1238*
X5565Y1238*
X5564Y1239*
X5563Y1239*
X5563Y1240*
X5562Y1240*
X5562Y1241*
X5562Y1241*
X5562Y1241*
X5562Y1241*
X5561Y1241*
X5561Y1241*
X5561Y1242*
X5561Y1242*
X5561Y1243*
X5560Y1243*
X5560Y1244*
X5560Y1244*
X5560Y1245*
X5560Y1245*
X5560Y1246*
X5560Y1247*
X5560Y1247*
Y1248*
X5560Y1248*
Y1249*
X5560Y1249*
X5560Y1249*
X5560Y1250*
X5560Y1251*
X5560Y1252*
X5561Y1253*
X5561Y1254*
X5561Y1254*
X5561Y1254*
X5561Y1254*
X5561Y1254*
X5562Y1255*
X5562Y1255*
X5562Y1255*
X5562Y1255*
X5562Y1256*
X5563Y1256*
X5563Y1256*
X5564Y1257*
X5565Y1258*
X5566Y1258*
X5566*
X5566Y1258*
X5566Y1258*
X5567Y1258*
X5567Y1258*
X5567Y1259*
X5568Y1259*
X5568Y1259*
X5569Y1259*
X5569Y1259*
X5570Y1259*
X5572Y1259*
X5573Y1260*
X5573*
X5573*
X5573*
X5574Y1259*
G37*
G36*
X5579Y1232D02*
X5579Y1231D01*
X5579Y1231*
X5579Y1231*
X5580Y1231*
X5580Y1231*
X5580Y1230*
X5580Y1229*
X5581Y1229*
X5582Y1228*
X5582Y1227*
X5582Y1227*
X5582Y1227*
X5582Y1227*
X5583Y1227*
X5583Y1226*
X5583Y1226*
X5584Y1225*
X5584Y1225*
X5585Y1225*
X5586Y1224*
Y1222*
X5560*
Y1225*
X5580*
X5580Y1225*
X5580Y1226*
X5580Y1226*
X5579Y1226*
X5579Y1227*
X5579Y1227*
X5578Y1228*
X5578Y1228*
Y1228*
X5578Y1228*
X5578Y1229*
X5577Y1229*
X5577Y1229*
X5577Y1230*
X5577Y1230*
X5576Y1231*
X5576Y1232*
X5579*
Y1232*
G37*
G36*
X5567Y1211D02*
X5567D01*
X5567Y1211*
X5567Y1211*
X5567Y1211*
X5566Y1211*
X5566Y1211*
X5566Y1210*
X5565Y1210*
X5564Y1210*
X5564Y1210*
X5563Y1209*
X5563Y1209*
X5563Y1209*
X5563Y1209*
X5563Y1208*
X5562Y1208*
X5562Y1207*
X5562Y1207*
X5562Y1206*
Y1206*
X5562Y1206*
X5562Y1205*
X5562Y1205*
X5562Y1204*
X5563Y1203*
X5563Y1203*
X5564Y1202*
X5564Y1202*
X5564Y1202*
X5564Y1202*
X5565Y1201*
X5565Y1201*
X5566Y1201*
X5567Y1201*
X5567Y1201*
X5567*
X5568*
X5568*
X5568Y1201*
X5568Y1201*
X5569Y1201*
X5569Y1201*
X5570Y1201*
X5570Y1202*
X5571Y1202*
X5571Y1202*
X5571Y1202*
X5571Y1203*
X5572Y1203*
X5572Y1204*
X5572Y1204*
X5572Y1205*
X5572Y1206*
Y1206*
X5572Y1206*
X5572Y1207*
X5572Y1207*
X5572Y1207*
X5572Y1208*
X5575Y1207*
Y1207*
X5575Y1207*
Y1207*
X5575Y1206*
X5575Y1206*
X5575Y1205*
X5575Y1205*
X5576Y1204*
X5576Y1203*
Y1203*
X5576Y1203*
X5576Y1203*
X5576Y1203*
X5577Y1203*
X5577Y1202*
X5578Y1202*
X5578Y1202*
X5579Y1202*
X5579*
X5579*
X5579*
X5579*
X5580Y1202*
X5580Y1202*
X5581Y1202*
X5581Y1202*
X5581Y1203*
X5582Y1203*
X5582Y1203*
X5582Y1203*
X5582Y1203*
X5583Y1204*
X5583Y1204*
X5583Y1205*
X5583Y1205*
X5583Y1206*
Y1206*
X5583Y1207*
X5583Y1207*
X5583Y1208*
X5583Y1208*
X5582Y1209*
X5582Y1209*
X5582Y1209*
X5582Y1209*
X5581Y1209*
X5581Y1210*
X5581Y1210*
X5580Y1210*
X5579Y1210*
X5578Y1211*
X5579Y1214*
X5579*
X5579Y1214*
X5579Y1214*
X5580Y1214*
X5580Y1214*
X5580Y1213*
X5581Y1213*
X5582Y1213*
X5582Y1212*
X5583Y1212*
X5584Y1211*
X5584Y1211*
X5584Y1211*
X5584Y1211*
X5584Y1211*
X5584Y1211*
X5584Y1210*
X5585Y1210*
X5585Y1210*
X5585Y1209*
X5585Y1208*
X5586Y1207*
X5586Y1207*
Y1206*
X5586Y1205*
X5586Y1205*
X5585Y1204*
X5585Y1204*
X5585Y1203*
X5585Y1202*
Y1202*
X5585Y1202*
X5585Y1202*
X5584Y1202*
X5584Y1201*
X5584Y1201*
X5583Y1200*
X5583Y1200*
X5582Y1199*
X5582Y1199*
X5582Y1199*
X5582Y1199*
X5581Y1199*
X5581Y1199*
X5580Y1199*
X5580Y1199*
X5579Y1199*
X5579*
X5579*
X5578Y1199*
X5578Y1199*
X5578Y1199*
X5577Y1199*
X5576Y1199*
X5576Y1199*
X5576Y1199*
X5576Y1200*
X5575Y1200*
X5575Y1200*
X5575Y1200*
X5574Y1201*
X5574Y1201*
X5574Y1202*
Y1202*
X5574Y1202*
X5574Y1202*
X5574Y1202*
X5574Y1201*
X5573Y1201*
X5573Y1200*
X5573Y1200*
X5572Y1199*
X5572Y1199*
X5572Y1198*
X5571Y1198*
X5571Y1198*
X5570Y1198*
X5570Y1198*
X5569Y1197*
X5568Y1197*
X5567Y1197*
X5567*
X5567*
X5567*
X5567Y1197*
X5567Y1197*
X5566Y1197*
X5566Y1197*
X5566Y1198*
X5565Y1198*
X5564Y1198*
X5564Y1198*
X5563Y1199*
X5563Y1199*
X5562Y1199*
X5562Y1200*
X5562Y1200*
X5562Y1200*
X5562Y1200*
X5561Y1200*
X5561Y1200*
X5561Y1201*
X5561Y1201*
X5561Y1201*
X5560Y1202*
X5560Y1202*
X5560Y1203*
X5560Y1203*
X5560Y1204*
X5560Y1205*
X5560Y1205*
X5560Y1206*
Y1206*
X5560Y1206*
X5560Y1207*
X5560Y1207*
X5560Y1207*
X5560Y1208*
X5560Y1209*
X5560Y1210*
X5561Y1210*
X5561Y1211*
X5561Y1211*
X5562Y1212*
X5562Y1212*
X5562Y1212*
X5562Y1212*
X5562Y1212*
X5562Y1212*
X5562Y1212*
X5563Y1212*
X5563Y1213*
X5563Y1213*
X5564Y1213*
X5565Y1214*
X5566Y1214*
X5566Y1214*
X5567Y1214*
X5567Y1211*
G37*
G36*
X2844Y3219D02*
X2847D01*
Y3216*
X2844*
Y3210*
X2841*
Y3216*
X2829*
Y3219*
X2841Y3235*
X2844*
Y3219*
G37*
G36*
X2816Y3235D02*
X2817Y3235D01*
X2818Y3235*
X2819Y3235*
X2819Y3235*
X2819*
X2819Y3235*
X2820*
X2820Y3235*
X2820Y3235*
X2821Y3234*
X2821Y3234*
X2822Y3234*
X2822Y3233*
X2823Y3233*
X2823Y3233*
X2823Y3233*
X2823Y3233*
X2823Y3233*
X2824Y3232*
X2824Y3232*
X2825Y3231*
X2825Y3230*
X2826Y3229*
X2826Y3229*
Y3228*
X2826Y3228*
X2826Y3228*
X2826Y3228*
X2826Y3228*
X2826Y3227*
X2826Y3227*
X2827Y3227*
X2827Y3226*
X2827Y3226*
X2827Y3225*
X2827Y3224*
X2827Y3222*
Y3222*
Y3222*
Y3222*
Y3222*
X2827Y3222*
Y3221*
X2827Y3221*
X2827Y3220*
X2827Y3219*
X2827Y3218*
X2826Y3217*
Y3217*
X2826Y3217*
X2826Y3217*
X2826Y3217*
X2826Y3216*
X2826Y3216*
X2826Y3215*
X2825Y3215*
X2825Y3214*
X2825Y3214*
X2825Y3213*
X2824Y3213*
X2824Y3213*
X2824Y3213*
X2824Y3212*
X2823Y3212*
X2823Y3212*
X2822Y3211*
X2822Y3211*
X2822Y3211*
X2822Y3211*
X2822Y3211*
X2821Y3211*
X2821Y3210*
X2820Y3210*
X2819Y3210*
X2819*
X2819Y3210*
X2819Y3210*
X2819Y3210*
X2818Y3210*
X2818Y3210*
X2817Y3210*
X2816Y3210*
X2815Y3210*
X2806*
Y3235*
X2816*
X2816Y3235*
G37*
G36*
X1045Y2479D02*
X1045Y2479D01*
X1045Y2479*
X1046Y2479*
X1046Y2479*
X1047Y2479*
X1048Y2479*
X1049Y2478*
X1049Y2478*
X1049Y2478*
X1050Y2478*
X1050Y2477*
X1050Y2477*
X1050Y2477*
X1050Y2477*
X1050Y2477*
X1051Y2477*
X1051Y2476*
X1051Y2476*
X1051Y2476*
X1051Y2475*
X1052Y2474*
X1052Y2473*
X1052Y2473*
X1052Y2472*
X1049Y2472*
Y2472*
X1049Y2472*
X1049Y2472*
X1049Y2472*
X1049Y2473*
X1049Y2473*
X1049Y2473*
X1049Y2474*
X1048Y2475*
X1048Y2475*
X1047Y2476*
X1047Y2476*
X1047Y2476*
X1047Y2476*
X1047Y2476*
X1046Y2477*
X1046Y2477*
X1045Y2477*
X1044Y2477*
X1044*
X1044Y2477*
X1043Y2477*
X1043Y2477*
X1042Y2477*
X1042Y2476*
X1041Y2476*
X1040Y2475*
X1040Y2475*
X1040Y2475*
X1040Y2475*
X1040Y2474*
X1039Y2474*
X1039Y2473*
X1039Y2472*
X1039Y2472*
Y2472*
Y2471*
Y2471*
X1039Y2471*
X1039Y2471*
X1039Y2470*
X1039Y2470*
X1040Y2469*
X1040Y2469*
X1040Y2468*
X1040Y2468*
X1041Y2468*
X1041Y2468*
X1041Y2467*
X1042Y2467*
X1042Y2467*
X1043Y2467*
X1044Y2467*
X1044*
X1045Y2467*
X1045Y2467*
X1045Y2467*
X1046Y2467*
X1046Y2467*
X1046Y2464*
X1046*
X1045Y2464*
X1045*
X1045Y2464*
X1044Y2464*
X1044Y2464*
X1043Y2464*
X1042Y2463*
X1042Y2463*
X1042*
X1042Y2463*
X1041Y2463*
X1041Y2463*
X1041Y2462*
X1041Y2462*
X1040Y2461*
X1040Y2461*
X1040Y2460*
Y2460*
Y2460*
Y2460*
Y2460*
X1040Y2459*
X1040Y2459*
X1040Y2458*
X1041Y2458*
X1041Y2458*
X1041Y2457*
X1041Y2457*
X1041Y2457*
X1042Y2457*
X1042Y2456*
X1043Y2456*
X1043Y2456*
X1044Y2456*
X1044Y2456*
X1045*
X1045Y2456*
X1045Y2456*
X1046Y2456*
X1046Y2456*
X1047Y2457*
X1047Y2457*
X1047Y2457*
X1048Y2457*
X1048Y2458*
X1048Y2458*
X1048Y2458*
X1049Y2459*
X1049Y2460*
X1049Y2461*
X1052Y2460*
Y2460*
X1052Y2460*
X1052Y2460*
X1052Y2459*
X1052Y2459*
X1052Y2459*
X1052Y2458*
X1051Y2457*
X1051Y2457*
X1050Y2456*
X1049Y2455*
X1049Y2455*
X1049Y2455*
X1049Y2455*
X1049Y2455*
X1049Y2455*
X1049Y2455*
X1048Y2454*
X1048Y2454*
X1047Y2454*
X1046Y2454*
X1045Y2453*
X1045Y2453*
X1044*
X1044Y2453*
X1043Y2453*
X1043Y2454*
X1042Y2454*
X1041Y2454*
X1041Y2454*
X1040*
X1040Y2454*
X1040Y2454*
X1040Y2455*
X1040Y2455*
X1039Y2455*
X1039Y2456*
X1038Y2456*
X1038Y2457*
X1038Y2457*
X1038Y2457*
X1038Y2457*
X1037Y2458*
X1037Y2458*
X1037Y2459*
X1037Y2459*
X1037Y2460*
Y2460*
Y2460*
X1037Y2461*
X1037Y2461*
X1037Y2461*
X1037Y2462*
X1037Y2463*
X1038Y2463*
X1038Y2463*
X1038Y2463*
X1038Y2464*
X1038Y2464*
X1039Y2464*
X1039Y2465*
X1040Y2465*
X1040Y2465*
X1040*
X1040Y2465*
X1040Y2465*
X1040Y2465*
X1040Y2465*
X1039Y2466*
X1039Y2466*
X1038Y2466*
X1037Y2467*
X1037Y2467*
X1037Y2467*
X1037Y2468*
X1036Y2468*
X1036Y2469*
X1036Y2469*
X1036Y2470*
X1036Y2471*
X1036Y2472*
Y2472*
Y2472*
Y2472*
X1036Y2472*
X1036Y2472*
X1036Y2473*
X1036Y2473*
X1036Y2473*
X1036Y2474*
X1036Y2475*
X1037Y2475*
X1037Y2476*
X1037Y2476*
X1038Y2477*
X1038Y2477*
X1038Y2477*
X1038Y2477*
X1038Y2477*
X1039Y2478*
X1039Y2478*
X1039Y2478*
X1039Y2478*
X1040Y2478*
X1040Y2479*
X1041Y2479*
X1041Y2479*
X1042Y2479*
X1042Y2479*
X1043Y2479*
X1044Y2479*
X1044Y2480*
X1045*
X1045Y2479*
G37*
G36*
X1067D02*
X1067D01*
X1067Y2479*
X1068Y2479*
X1068Y2479*
X1069Y2479*
X1070Y2479*
X1072Y2478*
X1072Y2478*
X1073Y2478*
X1073Y2478*
X1073Y2478*
X1073Y2478*
X1073Y2478*
X1073Y2477*
X1074Y2477*
X1074Y2477*
X1074Y2477*
X1074Y2476*
X1075Y2476*
X1075Y2475*
X1076Y2474*
X1077Y2473*
Y2473*
X1077Y2473*
X1077Y2473*
X1077Y2472*
X1077Y2472*
X1077Y2472*
X1077Y2471*
X1077Y2471*
X1077Y2470*
X1078Y2470*
X1078Y2469*
X1078Y2467*
X1078Y2466*
Y2466*
Y2466*
Y2466*
X1078Y2465*
Y2465*
X1078Y2465*
X1078Y2464*
X1078Y2464*
X1078Y2463*
X1077Y2461*
X1077Y2460*
X1076Y2459*
X1076Y2459*
X1076Y2459*
X1076Y2459*
X1076Y2459*
X1076Y2458*
X1076Y2458*
X1075Y2457*
X1075Y2457*
X1074Y2456*
X1073Y2455*
X1072Y2455*
X1072Y2455*
X1072Y2454*
X1072Y2454*
X1072Y2454*
X1071Y2454*
X1071Y2454*
X1071Y2454*
X1070Y2454*
X1070Y2454*
X1069Y2453*
X1068Y2453*
X1067Y2453*
X1066Y2453*
X1065*
X1065Y2453*
X1065Y2453*
X1065Y2453*
X1064Y2453*
X1064Y2453*
X1063Y2453*
X1062Y2454*
X1061Y2454*
X1060Y2454*
X1060Y2455*
X1059Y2455*
X1059Y2455*
X1059Y2455*
X1059Y2455*
X1059Y2455*
X1059Y2456*
X1059Y2456*
X1058Y2456*
X1058Y2456*
X1058Y2457*
X1057Y2457*
X1057Y2458*
X1057Y2458*
X1056Y2459*
X1056Y2459*
X1056Y2460*
X1056Y2460*
X1059Y2461*
Y2461*
X1059Y2461*
X1059Y2461*
X1059Y2461*
X1059Y2461*
X1059Y2460*
X1060Y2460*
X1060Y2459*
X1061Y2458*
X1061Y2458*
X1062Y2457*
X1062Y2457*
X1062Y2457*
X1062Y2457*
X1063Y2457*
X1063Y2456*
X1064Y2456*
X1065Y2456*
X1066Y2456*
X1066*
X1066Y2456*
X1067*
X1067Y2456*
X1068Y2456*
X1068Y2456*
X1069Y2456*
X1070Y2457*
X1071Y2457*
X1071*
X1071Y2457*
X1071Y2458*
X1072Y2458*
X1072Y2458*
X1072Y2459*
X1073Y2460*
X1073Y2460*
X1074Y2461*
Y2461*
X1074Y2461*
X1074Y2461*
X1074Y2462*
X1074Y2462*
X1074Y2462*
X1074Y2463*
X1074Y2463*
X1074Y2464*
X1074Y2465*
X1074Y2466*
Y2466*
Y2466*
Y2466*
Y2467*
X1074Y2467*
Y2467*
X1074Y2468*
X1074Y2468*
X1074Y2469*
X1074Y2470*
X1074Y2471*
X1074Y2472*
Y2472*
X1073Y2472*
X1073Y2472*
X1073Y2472*
X1073Y2473*
X1073Y2473*
X1072Y2474*
X1072Y2474*
X1071Y2475*
X1071Y2475*
X1071*
X1070Y2475*
X1070Y2476*
X1070Y2476*
X1070Y2476*
X1070Y2476*
X1069Y2476*
X1069Y2476*
X1068Y2476*
X1067Y2477*
X1066Y2477*
X1066*
X1066Y2477*
X1065*
X1065Y2477*
X1065Y2476*
X1064Y2476*
X1063Y2476*
X1062Y2476*
X1062Y2475*
X1061Y2475*
X1061Y2475*
X1061Y2475*
X1061Y2475*
X1061Y2475*
X1061Y2475*
X1061Y2474*
X1061Y2474*
X1060Y2474*
X1060Y2473*
X1060Y2473*
X1060Y2473*
X1059Y2472*
X1059Y2472*
X1059Y2471*
X1059Y2471*
X1059Y2470*
X1055Y2471*
Y2471*
X1055Y2471*
X1055Y2471*
X1056Y2472*
X1056Y2472*
X1056Y2472*
X1056Y2473*
X1056Y2473*
X1057Y2474*
X1057Y2475*
X1058Y2476*
X1058Y2476*
X1059Y2477*
X1059Y2477*
X1059Y2477*
X1059Y2477*
X1059Y2478*
X1060Y2478*
X1060Y2478*
X1060Y2478*
X1061Y2478*
X1061Y2478*
X1062Y2479*
X1062Y2479*
X1063Y2479*
X1063Y2479*
X1064Y2479*
X1064Y2479*
X1065Y2479*
X1066Y2480*
X1066*
X1067Y2479*
G37*
G36*
X3736Y487D02*
X3736D01*
X3736*
X3736*
X3735Y487*
X3735Y487*
X3735*
X3734Y487*
X3734Y487*
X3733Y487*
X3732Y486*
X3732Y486*
X3732Y486*
X3732Y486*
X3732Y486*
X3731Y486*
X3731Y485*
X3731Y485*
X3731Y485*
X3731Y484*
X3731Y483*
Y483*
X3731Y483*
X3731Y483*
X3731Y482*
X3731Y482*
X3731Y482*
X3731Y481*
X3731Y481*
X3731Y481*
X3732Y481*
X3732Y481*
X3732Y481*
X3732Y480*
X3733Y480*
X3733Y480*
X3733*
X3733Y480*
X3733Y480*
X3734Y480*
X3734Y480*
X3735Y480*
X3735Y480*
X3736*
X3754*
Y476*
X3736*
X3736*
X3736*
X3736*
X3736*
X3735Y476*
X3735*
X3734Y476*
X3734Y476*
X3733Y477*
X3732Y477*
X3731Y477*
X3731*
X3731Y477*
X3731Y477*
X3731Y477*
X3730Y478*
X3730Y478*
X3729Y478*
X3729Y479*
X3729Y479*
X3729Y480*
X3728Y480*
X3728Y480*
X3728Y481*
X3728Y481*
X3728Y482*
X3728Y483*
X3728Y483*
Y484*
X3728Y484*
X3728Y484*
X3728Y485*
X3728Y485*
X3728Y486*
X3729Y487*
X3729Y487*
X3729Y488*
X3729Y488*
X3730Y489*
X3730Y489*
X3730Y489*
X3730Y489*
X3730Y489*
X3730Y489*
X3730Y489*
X3731Y489*
X3731Y489*
X3731Y490*
X3732Y490*
X3732Y490*
X3733Y490*
X3733Y490*
X3734Y490*
X3735Y490*
X3735*
X3736Y487*
G37*
G36*
X3735Y469D02*
X3735D01*
X3735*
X3735Y469*
X3735Y469*
X3734Y468*
X3734Y468*
X3733Y468*
X3733Y468*
X3732Y467*
X3731Y467*
X3731Y467*
X3731Y467*
X3731Y466*
X3731Y466*
X3731Y466*
X3730Y465*
X3730Y464*
X3730Y464*
Y464*
X3730Y463*
X3730Y463*
X3731Y462*
X3731Y462*
X3731Y461*
X3731Y460*
X3732Y460*
X3732Y460*
X3732Y460*
X3732Y460*
X3732Y460*
X3732Y460*
X3733Y459*
X3733Y459*
X3734Y459*
X3735Y459*
X3736Y458*
X3736Y458*
X3737*
X3737*
X3737*
X3737*
X3737Y458*
X3737*
X3737Y458*
X3738Y458*
X3739Y459*
X3739Y459*
X3740Y459*
X3741Y460*
X3741*
X3741Y460*
X3741Y460*
X3741Y460*
X3742Y461*
X3742Y461*
X3742Y462*
X3742Y463*
X3742Y463*
Y464*
X3742Y464*
X3742Y465*
X3742Y465*
X3742Y466*
X3742Y466*
X3742Y467*
X3742Y467*
X3742Y467*
X3741Y467*
X3741Y467*
X3741Y468*
X3741Y468*
X3740Y468*
X3740Y468*
X3740Y471*
X3753Y469*
Y456*
X3750*
Y466*
X3743Y468*
X3744Y468*
X3744Y468*
X3744Y468*
X3744Y467*
X3744Y467*
X3744Y467*
X3744Y466*
X3745Y466*
X3745Y465*
X3745Y464*
X3745Y463*
Y463*
X3745Y462*
X3745Y462*
X3745Y462*
X3745Y461*
X3745Y461*
X3745Y460*
X3744Y460*
X3744Y459*
X3744Y459*
X3744Y458*
X3743Y458*
X3743Y457*
X3743Y457*
X3743Y457*
X3743Y457*
X3742Y457*
X3742Y457*
X3742Y457*
X3742Y456*
X3741Y456*
X3741Y456*
X3740Y456*
X3740Y456*
X3739Y455*
X3739Y455*
X3738Y455*
X3737Y455*
X3737Y455*
X3737*
X3737*
X3736*
X3736Y455*
X3736Y455*
X3736Y455*
X3735Y455*
X3735Y455*
X3734Y455*
X3733Y456*
X3732Y456*
X3732Y456*
X3731Y457*
X3731Y457*
X3731Y457*
X3731Y457*
X3731Y457*
X3730Y457*
X3730Y458*
X3730Y458*
X3730Y458*
X3729Y459*
X3729Y459*
X3729Y460*
X3728Y460*
X3728Y461*
X3728Y462*
X3728Y462*
X3728Y463*
X3728Y464*
Y464*
X3728Y464*
X3728Y465*
X3728Y465*
X3728Y465*
X3728Y466*
X3728Y467*
X3729Y468*
X3729Y468*
X3729Y469*
X3729Y469*
X3730Y469*
X3730Y469*
X3730Y470*
X3730Y470*
X3730Y470*
X3730Y470*
X3730Y470*
X3731Y470*
X3731Y471*
X3731Y471*
X3732Y471*
X3733Y471*
X3734Y472*
X3734Y472*
X3735Y472*
X3735Y469*
G37*
G36*
X3920Y3242D02*
X3910D01*
X3908Y3235*
X3908Y3235*
X3908Y3235*
X3908Y3235*
X3909Y3236*
X3909Y3236*
X3909Y3236*
X3910Y3236*
X3910Y3236*
X3911Y3237*
X3912Y3237*
X3913Y3237*
X3913*
X3914Y3237*
X3914Y3237*
X3914Y3237*
X3915Y3237*
X3915Y3237*
X3916Y3236*
X3916Y3236*
X3917Y3236*
X3917Y3236*
X3918Y3235*
X3918Y3235*
X3919Y3235*
X3919Y3235*
X3919Y3234*
X3919Y3234*
X3919Y3234*
X3919Y3234*
X3919Y3234*
X3920Y3233*
X3920Y3233*
X3920Y3233*
X3920Y3232*
X3920Y3232*
X3921Y3231*
X3921Y3231*
X3921Y3230*
X3921Y3229*
X3921Y3229*
Y3229*
Y3228*
Y3228*
X3921Y3228*
X3921Y3228*
X3921Y3227*
X3921Y3227*
X3921Y3227*
X3921Y3226*
X3920Y3225*
X3920Y3224*
X3920Y3224*
X3919Y3223*
X3919Y3223*
X3919Y3223*
X3919Y3222*
X3919Y3222*
X3919Y3222*
X3918Y3222*
X3918Y3222*
X3918Y3221*
X3917Y3221*
X3917Y3221*
X3916Y3221*
X3916Y3220*
X3915Y3220*
X3914Y3220*
X3914Y3220*
X3913Y3220*
X3912Y3220*
X3912*
X3912Y3220*
X3911Y3220*
X3911Y3220*
X3911Y3220*
X3910Y3220*
X3909Y3220*
X3908Y3220*
X3908Y3221*
X3907Y3221*
X3907Y3221*
X3907Y3221*
X3906Y3221*
X3906Y3222*
X3906Y3222*
X3906Y3222*
X3906Y3222*
X3906Y3222*
X3906Y3223*
X3905Y3223*
X3905Y3223*
X3905Y3224*
X3905Y3224*
X3904Y3225*
X3904Y3226*
X3904Y3227*
X3907Y3227*
Y3227*
Y3227*
X3907Y3227*
X3907Y3226*
X3908Y3226*
X3908Y3226*
X3908Y3225*
X3908Y3224*
X3909Y3224*
X3909Y3223*
X3909Y3223*
X3909Y3223*
X3910Y3223*
X3910Y3223*
X3910Y3222*
X3911Y3222*
X3912Y3222*
X3912Y3222*
X3912*
X3913Y3222*
X3913Y3222*
X3914Y3222*
X3914Y3223*
X3915Y3223*
X3916Y3223*
X3916Y3223*
X3916Y3224*
X3916Y3224*
X3916Y3224*
X3916Y3224*
X3916Y3224*
X3917Y3224*
X3917Y3225*
X3917Y3226*
X3917Y3226*
X3918Y3227*
X3918Y3228*
Y3228*
Y3228*
Y3228*
Y3229*
X3918Y3229*
Y3229*
X3918Y3229*
X3918Y3230*
X3917Y3231*
X3917Y3231*
X3917Y3232*
X3916Y3233*
Y3233*
X3916Y3233*
X3916Y3233*
X3916Y3233*
X3915Y3233*
X3915Y3234*
X3914Y3234*
X3913Y3234*
X3913Y3234*
X3912*
X3912Y3234*
X3911Y3234*
X3911Y3234*
X3910Y3234*
X3910Y3234*
X3909Y3233*
X3909Y3233*
X3909Y3233*
X3909Y3233*
X3909Y3233*
X3908Y3233*
X3908Y3232*
X3908Y3232*
X3908Y3232*
X3905Y3232*
X3907Y3245*
X3920*
Y3242*
G37*
G36*
X3890Y3246D02*
X3891Y3245D01*
X3891Y3245*
X3892Y3245*
X3893Y3245*
X3893*
X3893Y3245*
X3893*
X3893Y3245*
X3894Y3245*
X3894Y3245*
X3895Y3245*
X3895Y3244*
X3896Y3244*
X3897Y3243*
X3897Y3243*
X3897Y3243*
X3897Y3243*
X3897Y3243*
X3897Y3243*
X3898Y3242*
X3898Y3242*
X3899Y3241*
X3899Y3240*
X3900Y3239*
Y3239*
X3900Y3239*
X3900Y3239*
X3900Y3238*
X3900Y3238*
X3900Y3238*
X3900Y3238*
X3900Y3237*
X3900Y3237*
X3900Y3236*
X3901Y3235*
X3901Y3234*
X3901Y3233*
Y3233*
Y3233*
Y3233*
Y3232*
X3901Y3232*
Y3232*
X3901Y3231*
X3900Y3230*
X3900Y3229*
X3900Y3229*
X3900Y3228*
Y3228*
X3900Y3228*
X3900Y3227*
X3900Y3227*
X3900Y3227*
X3899Y3226*
X3899Y3226*
X3899Y3225*
X3899Y3225*
X3898Y3224*
X3898Y3224*
X3898Y3224*
X3898Y3223*
X3898Y3223*
X3897Y3223*
X3897Y3222*
X3896Y3222*
X3896Y3222*
X3896Y3222*
X3896Y3222*
X3895Y3221*
X3895Y3221*
X3895Y3221*
X3894Y3221*
X3893Y3221*
X3893Y3220*
X3893*
X3893Y3220*
X3893Y3220*
X3892Y3220*
X3892Y3220*
X3891Y3220*
X3890Y3220*
X3890Y3220*
X3889Y3220*
X3880*
Y3246*
X3889*
X3890Y3246*
G37*
G36*
X910Y2914D02*
X909D01*
X909*
X909*
X909Y2914*
X908Y2914*
X908Y2914*
X908Y2914*
X907Y2914*
X907*
X907Y2914*
X907Y2914*
X907Y2914*
X906Y2914*
X906Y2915*
X905Y2915*
X905Y2916*
X904Y2916*
X904*
X904Y2916*
X904Y2916*
X903Y2917*
X903Y2917*
X902Y2918*
X902Y2918*
X901Y2919*
X900Y2920*
X900Y2920*
X900Y2920*
X900Y2921*
X900Y2921*
X899Y2921*
X899Y2922*
X899Y2922*
X898Y2922*
X897Y2923*
X896Y2924*
X896Y2925*
X895Y2925*
X895Y2926*
X895Y2926*
X895*
X895Y2926*
X894Y2926*
X894Y2926*
X894Y2926*
X893Y2927*
X893Y2927*
X892Y2927*
X891Y2927*
X891Y2927*
X891*
X891*
X891Y2927*
X890Y2927*
X890Y2927*
X889Y2927*
X889Y2927*
X888Y2926*
X888Y2926*
X888Y2926*
X887Y2926*
X887Y2925*
X887Y2925*
X887Y2925*
X887Y2924*
X886Y2923*
X886Y2922*
Y2922*
X886Y2922*
X886Y2922*
X887Y2921*
X887Y2921*
X887Y2920*
X887Y2919*
X888Y2919*
X888Y2919*
X888Y2919*
X888Y2918*
X889Y2918*
X889Y2918*
X890Y2918*
X891Y2917*
X892Y2917*
X891Y2914*
X891*
X891Y2914*
X891*
X891Y2914*
X890Y2914*
X890Y2914*
X890Y2915*
X889Y2915*
X888Y2915*
X887Y2915*
X887Y2916*
X886Y2916*
X886Y2916*
X886Y2917*
X886Y2917*
X886Y2917*
X886Y2917*
X885Y2917*
X885Y2917*
X885Y2918*
X885Y2918*
X885Y2918*
X885Y2919*
X884Y2919*
X884Y2920*
X884Y2920*
X884Y2921*
X884Y2921*
X884Y2922*
X884Y2923*
Y2923*
X884Y2923*
X884Y2923*
X884Y2924*
X884Y2924*
X884Y2925*
X884Y2926*
X885Y2927*
X885Y2927*
X885Y2928*
X885Y2928*
X886Y2928*
X886Y2928*
X886Y2928*
X886Y2929*
X886Y2929*
X886Y2929*
X887Y2929*
X887Y2929*
X887Y2929*
X888Y2930*
X889Y2930*
X889Y2930*
X890Y2930*
X890Y2930*
X891Y2931*
X891*
X891*
X891Y2930*
X892Y2930*
X892Y2930*
X893Y2930*
X893Y2930*
X894Y2930*
X894Y2930*
X894Y2930*
X894Y2930*
X895Y2929*
X895Y2929*
X896Y2929*
X896Y2928*
X897Y2928*
X897Y2928*
X897Y2928*
X898Y2927*
X898Y2927*
X898Y2927*
X898Y2927*
X899Y2926*
X899Y2926*
X899Y2926*
X900Y2925*
X900Y2925*
X901Y2924*
X901Y2924*
X902Y2923*
X902Y2923*
X902Y2923*
X902Y2923*
X902Y2923*
X902Y2922*
X902Y2922*
X903Y2921*
X903Y2921*
X904Y2920*
X904Y2920*
X905Y2919*
X905Y2919*
X905Y2919*
X905Y2919*
X905Y2919*
X905Y2919*
X906Y2919*
X906Y2918*
X906Y2918*
Y2931*
X910*
Y2914*
G37*
G36*
X897Y2911D02*
X898D01*
X898Y2911*
X899Y2910*
X900Y2910*
X901Y2910*
X902Y2910*
X902*
X902Y2910*
X902Y2910*
X902Y2910*
X903Y2910*
X903Y2909*
X904Y2909*
X904Y2909*
X905Y2909*
X905Y2908*
X906Y2908*
X906Y2908*
X906Y2908*
X906Y2908*
X907Y2907*
X907Y2907*
X907Y2906*
X908Y2906*
X908Y2906*
X908Y2906*
X908Y2905*
X908Y2905*
X909Y2905*
X909Y2904*
X909Y2903*
X909Y2903*
Y2903*
X909Y2903*
X909Y2903*
X909Y2902*
X909Y2902*
X909Y2901*
X909Y2900*
X909Y2900*
X910Y2899*
Y2890*
X884*
Y2899*
X884Y2900*
X884Y2901*
X884Y2901*
X884Y2902*
X884Y2903*
Y2903*
X884Y2903*
Y2903*
X884Y2903*
X884Y2904*
X885Y2904*
X885Y2905*
X885Y2905*
X886Y2906*
X886Y2907*
X886Y2907*
X886Y2907*
X886Y2907*
X886Y2907*
X887Y2907*
X887Y2908*
X888Y2908*
X889Y2909*
X890Y2909*
X890Y2910*
X891*
X891Y2910*
X891Y2910*
X891Y2910*
X891Y2910*
X892Y2910*
X892Y2910*
X892Y2910*
X893Y2910*
X893Y2910*
X894Y2911*
X895Y2911*
X897Y2911*
X897*
X897*
X897*
X897*
X897Y2911*
G37*
G36*
X1990Y3059D02*
X1990D01*
X1990Y3059*
X1991Y3059*
X1991Y3059*
X1992Y3059*
X1993Y3059*
X1995Y3058*
X1995Y3058*
X1996Y3058*
X1996Y3058*
X1996Y3058*
X1996Y3058*
X1996Y3058*
X1996Y3057*
X1996Y3057*
X1997Y3057*
X1997Y3057*
X1997Y3056*
X1998Y3056*
X1998Y3055*
X1999Y3054*
X2000Y3053*
Y3053*
X2000Y3053*
X2000Y3053*
X2000Y3052*
X2000Y3052*
X2000Y3052*
X2000Y3051*
X2000Y3051*
X2000Y3050*
X2000Y3050*
X2001Y3049*
X2001Y3047*
X2001Y3046*
Y3046*
Y3046*
Y3046*
X2001Y3045*
Y3045*
X2001Y3045*
X2001Y3044*
X2001Y3044*
X2000Y3043*
X2000Y3041*
X2000Y3040*
X1999Y3039*
X1999Y3039*
X1999Y3039*
X1999Y3039*
X1999Y3039*
X1999Y3038*
X1999Y3038*
X1998Y3037*
X1998Y3037*
X1997Y3036*
X1996Y3035*
X1995Y3035*
X1995Y3035*
X1995Y3034*
X1995Y3034*
X1995Y3034*
X1994Y3034*
X1994Y3034*
X1994Y3034*
X1993Y3034*
X1993Y3034*
X1992Y3033*
X1991Y3033*
X1990Y3033*
X1989Y3033*
X1988*
X1988Y3033*
X1988Y3033*
X1987Y3033*
X1987Y3033*
X1987Y3033*
X1986Y3033*
X1984Y3034*
X1984Y3034*
X1983Y3034*
X1983Y3035*
X1982Y3035*
X1982Y3035*
X1982Y3035*
X1982Y3035*
X1982Y3035*
X1982Y3036*
X1981Y3036*
X1981Y3036*
X1981Y3036*
X1981Y3037*
X1980Y3037*
X1980Y3038*
X1980Y3038*
X1979Y3039*
X1979Y3039*
X1979Y3040*
X1979Y3040*
X1982Y3041*
Y3041*
X1982Y3041*
X1982Y3041*
X1982Y3041*
X1982Y3041*
X1982Y3040*
X1983Y3040*
X1983Y3039*
X1983Y3038*
X1984Y3038*
X1985Y3037*
X1985Y3037*
X1985Y3037*
X1985Y3037*
X1986Y3037*
X1986Y3036*
X1987Y3036*
X1988Y3036*
X1989Y3036*
X1989*
X1989Y3036*
X1990*
X1990Y3036*
X1991Y3036*
X1991Y3036*
X1992Y3036*
X1993Y3037*
X1994Y3037*
X1994*
X1994Y3037*
X1994Y3038*
X1994Y3038*
X1995Y3038*
X1995Y3039*
X1996Y3040*
X1996Y3040*
X1997Y3041*
Y3041*
X1997Y3041*
X1997Y3041*
X1997Y3042*
X1997Y3042*
X1997Y3042*
X1997Y3043*
X1997Y3043*
X1997Y3044*
X1997Y3045*
X1997Y3046*
Y3046*
Y3046*
Y3046*
Y3047*
X1997Y3047*
Y3047*
X1997Y3048*
X1997Y3048*
X1997Y3049*
X1997Y3050*
X1997Y3051*
X1996Y3052*
Y3052*
X1996Y3052*
X1996Y3052*
X1996Y3052*
X1996Y3053*
X1996Y3053*
X1995Y3054*
X1995Y3054*
X1994Y3055*
X1993Y3055*
X1993*
X1993Y3055*
X1993Y3056*
X1993Y3056*
X1993Y3056*
X1993Y3056*
X1992Y3056*
X1992Y3056*
X1991Y3056*
X1990Y3057*
X1989Y3057*
X1989*
X1989Y3057*
X1988*
X1988Y3057*
X1987Y3056*
X1987Y3056*
X1986Y3056*
X1985Y3056*
X1985Y3055*
X1984Y3055*
X1984Y3055*
X1984Y3055*
X1984Y3055*
X1984Y3055*
X1984Y3055*
X1984Y3054*
X1983Y3054*
X1983Y3054*
X1983Y3053*
X1983Y3053*
X1983Y3053*
X1982Y3052*
X1982Y3052*
X1982Y3051*
X1982Y3051*
X1982Y3050*
X1978Y3051*
Y3051*
X1978Y3051*
X1978Y3051*
X1978Y3052*
X1979Y3052*
X1979Y3052*
X1979Y3053*
X1979Y3053*
X1980Y3054*
X1980Y3055*
X1981Y3056*
X1981Y3056*
X1982Y3057*
X1982Y3057*
X1982Y3057*
X1982Y3057*
X1982Y3058*
X1983Y3058*
X1983Y3058*
X1983Y3058*
X1984Y3058*
X1984Y3058*
X1984Y3059*
X1985Y3059*
X1985Y3059*
X1986Y3059*
X1987Y3059*
X1987Y3059*
X1988Y3059*
X1989Y3060*
X1989*
X1990Y3059*
G37*
G36*
X1976Y3059D02*
Y3059D01*
Y3059*
X1976Y3058*
X1976Y3058*
X1976Y3058*
X1976Y3057*
X1975Y3057*
Y3057*
X1975Y3057*
X1975Y3057*
X1975Y3056*
X1975Y3056*
X1975Y3055*
X1974Y3055*
X1974Y3054*
X1973Y3053*
Y3053*
X1973Y3053*
X1973Y3053*
X1973Y3053*
X1972Y3052*
X1972Y3052*
X1971Y3051*
X1970Y3050*
X1969Y3050*
X1969Y3050*
X1969Y3049*
X1969Y3049*
X1969Y3049*
X1968Y3049*
X1968Y3048*
X1967Y3048*
X1967Y3048*
X1966Y3047*
X1965Y3046*
X1965Y3045*
X1964Y3045*
X1964Y3045*
X1964Y3044*
Y3044*
X1963Y3044*
X1963Y3044*
X1963Y3044*
X1963Y3043*
X1963Y3043*
X1963Y3042*
X1962Y3042*
X1962Y3041*
X1962Y3040*
Y3040*
Y3040*
X1962Y3040*
X1962Y3040*
X1962Y3039*
X1962Y3039*
X1963Y3038*
X1963Y3038*
X1963Y3037*
X1963Y3037*
X1964Y3037*
X1964Y3037*
X1964Y3037*
X1965Y3036*
X1965Y3036*
X1966Y3036*
X1967Y3036*
X1967*
X1967Y3036*
X1968Y3036*
X1968Y3036*
X1969Y3036*
X1969Y3037*
X1970Y3037*
X1971Y3037*
X1971Y3037*
X1971Y3038*
X1971Y3038*
X1971Y3038*
X1972Y3039*
X1972Y3039*
X1972Y3040*
X1972Y3041*
X1975Y3041*
Y3041*
X1975Y3041*
Y3040*
X1975Y3040*
X1975Y3040*
X1975Y3040*
X1975Y3039*
X1975Y3039*
X1974Y3038*
X1974Y3037*
X1974Y3036*
X1973Y3036*
X1973Y3036*
X1973Y3035*
X1973Y3035*
X1973Y3035*
X1972Y3035*
X1972Y3035*
X1972Y3035*
X1972Y3035*
X1972Y3034*
X1971Y3034*
X1971Y3034*
X1970Y3034*
X1970Y3034*
X1969Y3034*
X1969Y3034*
X1968Y3033*
X1968Y3033*
X1967Y3033*
X1966*
X1966Y3033*
X1966Y3033*
X1966Y3033*
X1965Y3034*
X1965Y3034*
X1964Y3034*
X1963Y3034*
X1962Y3034*
X1962Y3035*
X1961Y3035*
X1961Y3035*
X1961Y3035*
X1961Y3035*
X1961Y3036*
X1961Y3036*
X1960Y3036*
X1960Y3036*
X1960Y3036*
X1960Y3037*
X1960Y3038*
X1959Y3038*
X1959Y3039*
X1959Y3039*
X1959Y3040*
X1959Y3040*
Y3041*
Y3041*
X1959Y3041*
X1959Y3041*
X1959Y3042*
X1959Y3042*
X1959Y3043*
X1959Y3043*
X1960Y3044*
X1960Y3044*
X1960Y3044*
X1960Y3044*
X1960Y3045*
X1961Y3045*
X1961Y3046*
X1962Y3047*
X1962Y3047*
X1962Y3047*
X1962Y3047*
X1962Y3047*
X1962Y3048*
X1963Y3048*
X1963Y3048*
X1963Y3048*
X1964Y3049*
X1964Y3049*
X1965Y3050*
X1965Y3050*
X1966Y3051*
X1966Y3051*
X1966Y3051*
X1967Y3051*
X1967Y3051*
X1967Y3051*
X1967Y3052*
X1967Y3052*
X1968Y3052*
X1969Y3053*
X1969Y3054*
X1970Y3054*
X1970Y3054*
X1970Y3054*
X1970Y3054*
X1970Y3055*
X1970Y3055*
X1971Y3055*
X1971Y3055*
X1971Y3055*
X1971Y3056*
X1959*
Y3059*
X1976*
Y3059*
G37*
G36*
X1948Y3059D02*
X1948Y3059D01*
X1948Y3059*
X1949Y3059*
X1949Y3059*
X1950Y3059*
X1951Y3059*
X1951Y3059*
X1952Y3058*
X1952Y3058*
X1953Y3058*
X1953Y3057*
X1953Y3057*
X1953Y3057*
X1953Y3057*
X1954Y3057*
X1954Y3057*
X1954Y3056*
X1954Y3056*
X1954Y3056*
X1955Y3055*
X1955Y3055*
X1955Y3054*
X1955Y3053*
X1955Y3053*
X1955Y3052*
X1955Y3052*
Y3052*
Y3052*
Y3051*
X1955Y3051*
Y3051*
X1955Y3051*
X1955Y3050*
X1955Y3050*
X1955Y3049*
X1955Y3048*
X1954Y3048*
Y3047*
X1954Y3047*
X1954Y3047*
X1954Y3047*
X1953Y3047*
X1953Y3046*
X1952Y3046*
X1951Y3045*
X1951Y3045*
X1951*
X1951Y3045*
X1951Y3045*
X1951Y3045*
X1951Y3045*
X1952Y3045*
X1952Y3044*
X1953Y3044*
X1953Y3044*
X1953Y3043*
X1954Y3043*
X1954Y3043*
X1954Y3043*
X1954Y3042*
X1954Y3042*
X1954Y3041*
X1954Y3041*
X1954Y3040*
Y3040*
Y3040*
Y3040*
X1954Y3039*
X1954Y3039*
X1954Y3039*
X1954Y3038*
X1954Y3038*
X1954Y3037*
X1953Y3036*
X1953Y3036*
X1953Y3036*
X1952Y3035*
X1952Y3035*
X1952Y3035*
X1952Y3035*
X1952Y3035*
X1952Y3035*
X1952Y3035*
X1951Y3034*
X1951Y3034*
X1951Y3034*
X1950Y3034*
X1950Y3034*
X1949Y3034*
X1948Y3033*
X1948Y3033*
X1947Y3033*
X1947*
X1947Y3033*
X1946Y3033*
X1946Y3033*
X1946Y3033*
X1945Y3034*
X1944Y3034*
X1943Y3034*
X1943Y3034*
X1942Y3035*
X1942Y3035*
X1942Y3035*
X1942Y3035*
X1942Y3035*
X1941Y3035*
X1941Y3036*
X1941Y3036*
X1941Y3036*
X1941Y3037*
X1940Y3037*
X1940Y3038*
X1940Y3039*
X1940Y3040*
X1940Y3040*
Y3040*
Y3040*
Y3040*
X1940Y3041*
X1940Y3041*
X1940Y3042*
X1940Y3042*
X1940Y3043*
X1941Y3043*
X1941Y3043*
X1941Y3043*
X1941Y3044*
X1941Y3044*
X1942Y3044*
X1942Y3045*
X1943Y3045*
X1943Y3045*
X1943*
X1943Y3045*
X1943Y3045*
X1943Y3045*
X1943Y3046*
X1942Y3046*
X1941Y3046*
X1941Y3047*
X1940Y3047*
X1940Y3048*
Y3048*
X1940Y3048*
X1940Y3048*
X1939Y3048*
X1939Y3049*
X1939Y3049*
X1939Y3050*
X1939Y3051*
X1939Y3052*
Y3052*
Y3052*
Y3052*
X1939Y3052*
X1939Y3053*
X1939Y3053*
X1939Y3053*
X1939Y3054*
X1939Y3055*
X1939Y3055*
X1940Y3055*
X1940Y3056*
X1940Y3056*
X1940Y3057*
X1941Y3057*
X1941Y3057*
X1941Y3057*
X1941Y3058*
X1941Y3058*
X1942Y3058*
X1942Y3058*
X1942Y3058*
X1943Y3058*
X1943Y3059*
X1943Y3059*
X1944Y3059*
X1944Y3059*
X1945Y3059*
X1946Y3059*
X1946Y3059*
X1947Y3060*
X1947*
X1948Y3059*
G37*
G36*
X3496D02*
X3497D01*
X3497Y3059*
X3498Y3059*
X3498Y3059*
X3499Y3059*
X3500Y3059*
X3501Y3058*
X3502Y3058*
X3502Y3058*
X3503Y3058*
X3503Y3058*
X3503Y3058*
X3503Y3058*
X3503Y3057*
X3503Y3057*
X3504Y3057*
X3504Y3057*
X3504Y3056*
X3505Y3056*
X3505Y3055*
X3506Y3054*
X3506Y3053*
Y3053*
X3507Y3053*
X3507Y3053*
X3507Y3052*
X3507Y3052*
X3507Y3052*
X3507Y3051*
X3507Y3051*
X3507Y3050*
X3507Y3050*
X3508Y3049*
X3508Y3047*
X3508Y3046*
Y3046*
Y3046*
Y3046*
X3508Y3045*
Y3045*
X3508Y3045*
X3508Y3044*
X3508Y3044*
X3507Y3043*
X3507Y3041*
X3507Y3040*
X3506Y3039*
X3506Y3039*
X3506Y3039*
X3506Y3039*
X3506Y3039*
X3506Y3038*
X3506Y3038*
X3505Y3037*
X3505Y3037*
X3504Y3036*
X3503Y3035*
X3502Y3035*
X3502Y3035*
X3502Y3034*
X3502Y3034*
X3501Y3034*
X3501Y3034*
X3501Y3034*
X3500Y3034*
X3500Y3034*
X3500Y3034*
X3499Y3033*
X3498Y3033*
X3497Y3033*
X3496Y3033*
X3495*
X3495Y3033*
X3495Y3033*
X3494Y3033*
X3494Y3033*
X3493Y3033*
X3492Y3033*
X3491Y3034*
X3491Y3034*
X3490Y3034*
X3490Y3035*
X3489Y3035*
X3489Y3035*
X3489Y3035*
X3489Y3035*
X3489Y3035*
X3489Y3036*
X3488Y3036*
X3488Y3036*
X3488Y3036*
X3488Y3037*
X3487Y3037*
X3487Y3038*
X3487Y3038*
X3486Y3039*
X3486Y3039*
X3486Y3040*
X3486Y3040*
X3489Y3041*
Y3041*
X3489Y3041*
X3489Y3041*
X3489Y3041*
X3489Y3041*
X3489Y3040*
X3490Y3040*
X3490Y3039*
X3490Y3038*
X3491Y3038*
X3492Y3037*
X3492Y3037*
X3492Y3037*
X3492Y3037*
X3493Y3037*
X3493Y3036*
X3494Y3036*
X3495Y3036*
X3496Y3036*
X3496*
X3496Y3036*
X3497*
X3497Y3036*
X3498Y3036*
X3498Y3036*
X3499Y3036*
X3500Y3037*
X3501Y3037*
X3501*
X3501Y3037*
X3501Y3038*
X3501Y3038*
X3502Y3038*
X3502Y3039*
X3503Y3040*
X3503Y3040*
X3504Y3041*
Y3041*
X3504Y3041*
X3504Y3041*
X3504Y3042*
X3504Y3042*
X3504Y3042*
X3504Y3043*
X3504Y3043*
X3504Y3044*
X3504Y3045*
X3504Y3046*
Y3046*
Y3046*
Y3046*
Y3047*
X3504Y3047*
Y3047*
X3504Y3048*
X3504Y3048*
X3504Y3049*
X3504Y3050*
X3504Y3051*
X3503Y3052*
Y3052*
X3503Y3052*
X3503Y3052*
X3503Y3052*
X3503Y3053*
X3503Y3053*
X3502Y3054*
X3502Y3054*
X3501Y3055*
X3500Y3055*
X3500*
X3500Y3055*
X3500Y3056*
X3500Y3056*
X3500Y3056*
X3500Y3056*
X3499Y3056*
X3498Y3056*
X3498Y3056*
X3497Y3057*
X3496Y3057*
X3496*
X3496Y3057*
X3495*
X3495Y3057*
X3494Y3056*
X3494Y3056*
X3493Y3056*
X3492Y3056*
X3492Y3055*
X3491Y3055*
X3491Y3055*
X3491Y3055*
X3491Y3055*
X3491Y3055*
X3491Y3055*
X3491Y3054*
X3490Y3054*
X3490Y3054*
X3490Y3053*
X3490Y3053*
X3489Y3053*
X3489Y3052*
X3489Y3052*
X3489Y3051*
X3489Y3051*
X3489Y3050*
X3485Y3051*
Y3051*
X3485Y3051*
X3485Y3051*
X3485Y3052*
X3485Y3052*
X3486Y3052*
X3486Y3053*
X3486Y3053*
X3487Y3054*
X3487Y3055*
X3488Y3056*
X3488Y3056*
X3488Y3057*
X3489Y3057*
X3489Y3057*
X3489Y3057*
X3489Y3058*
X3489Y3058*
X3490Y3058*
X3490Y3058*
X3490Y3058*
X3491Y3058*
X3491Y3059*
X3492Y3059*
X3492Y3059*
X3493Y3059*
X3494Y3059*
X3494Y3059*
X3495Y3059*
X3496Y3060*
X3496*
X3496Y3059*
G37*
G36*
X3459Y3059D02*
Y3059D01*
Y3059*
X3458Y3059*
Y3058*
X3458Y3058*
X3458Y3057*
X3458Y3057*
X3458Y3057*
X3458Y3056*
X3458Y3055*
X3458Y3055*
X3458Y3054*
X3458Y3053*
X3457Y3052*
Y3052*
X3457Y3052*
X3457Y3051*
X3457Y3051*
X3457Y3051*
X3457Y3050*
X3457Y3050*
X3457Y3049*
X3456Y3049*
X3456Y3048*
X3456Y3047*
X3455Y3045*
X3454Y3044*
X3454Y3044*
X3454Y3043*
X3454Y3043*
X3454Y3043*
X3454Y3043*
X3453Y3042*
X3453Y3042*
X3453Y3041*
X3452Y3040*
X3451Y3039*
X3450Y3038*
X3450Y3037*
X3462*
Y3034*
X3446*
Y3036*
X3446Y3036*
X3446Y3036*
X3446Y3037*
X3446Y3037*
X3446Y3037*
X3446Y3037*
X3447Y3038*
X3447Y3038*
X3447Y3039*
X3448Y3039*
X3448Y3040*
X3449Y3040*
X3449Y3041*
X3450Y3042*
X3450Y3042*
X3450Y3043*
X3450Y3043*
X3451Y3043*
X3451Y3044*
X3451Y3044*
X3451Y3044*
X3451Y3045*
X3452Y3045*
X3452Y3046*
X3452Y3047*
X3452Y3047*
X3453Y3048*
X3453Y3049*
X3454Y3050*
X3454Y3052*
Y3052*
X3454Y3052*
X3454Y3052*
X3454Y3053*
X3454Y3053*
X3454Y3053*
X3455Y3054*
X3455Y3054*
X3455Y3055*
X3455Y3055*
X3455Y3056*
X3455Y3058*
X3455Y3059*
X3459*
Y3059*
G37*
G36*
X3483D02*
Y3059D01*
Y3059*
X3483Y3058*
X3483Y3058*
X3483Y3058*
X3482Y3057*
X3482Y3057*
Y3057*
X3482Y3057*
X3482Y3057*
X3482Y3056*
X3482Y3056*
X3482Y3055*
X3481Y3055*
X3481Y3054*
X3480Y3053*
Y3053*
X3480Y3053*
X3480Y3053*
X3480Y3053*
X3479Y3052*
X3479Y3052*
X3478Y3051*
X3477Y3050*
X3476Y3050*
X3476Y3050*
X3476Y3049*
X3476Y3049*
X3475Y3049*
X3475Y3049*
X3475Y3048*
X3474Y3048*
X3474Y3048*
X3473Y3047*
X3472Y3046*
X3472Y3045*
X3471Y3045*
X3471Y3045*
X3470Y3044*
Y3044*
X3470Y3044*
X3470Y3044*
X3470Y3044*
X3470Y3043*
X3470Y3043*
X3469Y3042*
X3469Y3042*
X3469Y3041*
X3469Y3040*
Y3040*
Y3040*
X3469Y3040*
X3469Y3040*
X3469Y3039*
X3469Y3039*
X3470Y3038*
X3470Y3038*
X3470Y3037*
X3470Y3037*
X3471Y3037*
X3471Y3037*
X3471Y3037*
X3472Y3036*
X3472Y3036*
X3473Y3036*
X3474Y3036*
X3474*
X3474Y3036*
X3475Y3036*
X3475Y3036*
X3476Y3036*
X3476Y3037*
X3477Y3037*
X3478Y3037*
X3478Y3037*
X3478Y3038*
X3478Y3038*
X3478Y3038*
X3478Y3039*
X3479Y3039*
X3479Y3040*
X3479Y3041*
X3482Y3041*
Y3041*
X3482Y3041*
Y3040*
X3482Y3040*
X3482Y3040*
X3482Y3040*
X3482Y3039*
X3482Y3039*
X3481Y3038*
X3481Y3037*
X3481Y3036*
X3480Y3036*
X3480Y3036*
X3480Y3035*
X3480Y3035*
X3480Y3035*
X3479Y3035*
X3479Y3035*
X3479Y3035*
X3479Y3035*
X3478Y3034*
X3478Y3034*
X3478Y3034*
X3477Y3034*
X3477Y3034*
X3476Y3034*
X3476Y3034*
X3475Y3033*
X3474Y3033*
X3474Y3033*
X3473*
X3473Y3033*
X3473Y3033*
X3472Y3033*
X3472Y3034*
X3472Y3034*
X3471Y3034*
X3470Y3034*
X3469Y3034*
X3469Y3035*
X3468Y3035*
X3468Y3035*
X3468Y3035*
X3468Y3035*
X3468Y3036*
X3468Y3036*
X3467Y3036*
X3467Y3036*
X3467Y3036*
X3467Y3037*
X3466Y3038*
X3466Y3038*
X3466Y3039*
X3466Y3039*
X3466Y3040*
X3466Y3040*
Y3041*
Y3041*
X3466Y3041*
X3466Y3041*
X3466Y3042*
X3466Y3042*
X3466Y3043*
X3466Y3043*
X3466Y3044*
X3467Y3044*
X3467Y3044*
X3467Y3044*
X3467Y3045*
X3468Y3045*
X3468Y3046*
X3469Y3047*
X3469Y3047*
X3469Y3047*
X3469Y3047*
X3469Y3047*
X3469Y3048*
X3470Y3048*
X3470Y3048*
X3470Y3048*
X3471Y3049*
X3471Y3049*
X3472Y3050*
X3472Y3050*
X3473Y3051*
X3473Y3051*
X3473Y3051*
X3473Y3051*
X3474Y3051*
X3474Y3051*
X3474Y3052*
X3474Y3052*
X3475Y3052*
X3475Y3053*
X3476Y3054*
X3477Y3054*
X3477Y3054*
X3477Y3054*
X3477Y3054*
X3477Y3055*
X3477Y3055*
X3477Y3055*
X3478Y3055*
X3478Y3055*
X3478Y3056*
X3466*
Y3059*
X3483*
Y3059*
G37*
G36*
X2068Y3246D02*
X2069Y3245D01*
X2070Y3245*
X2071Y3245*
X2071Y3245*
X2071*
X2071Y3245*
X2071*
X2071Y3245*
X2072Y3245*
X2072Y3245*
X2073Y3245*
X2074Y3244*
X2074Y3244*
X2075Y3243*
X2075Y3243*
X2075Y3243*
X2075Y3243*
X2075Y3243*
X2076Y3243*
X2076Y3242*
X2076Y3242*
X2077Y3241*
X2077Y3240*
X2078Y3239*
Y3239*
X2078Y3239*
X2078Y3239*
X2078Y3238*
X2078Y3238*
X2078Y3238*
X2078Y3238*
X2078Y3237*
X2079Y3237*
X2079Y3236*
X2079Y3235*
X2079Y3234*
X2079Y3233*
Y3233*
Y3233*
Y3233*
Y3232*
X2079Y3232*
Y3232*
X2079Y3231*
X2079Y3230*
X2079Y3229*
X2078Y3229*
X2078Y3228*
Y3228*
X2078Y3228*
X2078Y3227*
X2078Y3227*
X2078Y3227*
X2078Y3226*
X2078Y3226*
X2077Y3225*
X2077Y3225*
X2076Y3224*
X2076Y3224*
X2076Y3224*
X2076Y3223*
X2076Y3223*
X2075Y3223*
X2075Y3222*
X2075Y3222*
X2074Y3222*
X2074Y3222*
X2074Y3222*
X2074Y3221*
X2073Y3221*
X2073Y3221*
X2072Y3221*
X2072Y3221*
X2071Y3220*
X2071*
X2071Y3220*
X2071Y3220*
X2070Y3220*
X2070Y3220*
X2069Y3220*
X2069Y3220*
X2068Y3220*
X2067Y3220*
X2058*
Y3246*
X2068*
X2068Y3246*
G37*
G36*
X2091Y3246D02*
X2091Y3246D01*
X2092Y3246*
X2092Y3246*
X2093Y3245*
X2093Y3245*
X2094Y3245*
X2095Y3245*
X2095Y3244*
X2096Y3244*
X2096Y3244*
X2096Y3244*
X2096Y3244*
X2096Y3244*
X2096Y3243*
X2097Y3243*
X2097Y3243*
X2097Y3242*
X2097Y3242*
X2098Y3241*
X2098Y3240*
X2098Y3239*
X2098Y3239*
Y3239*
Y3239*
Y3239*
X2098Y3238*
X2098Y3238*
X2098Y3237*
X2098Y3237*
X2097Y3236*
X2097Y3236*
X2097Y3236*
X2097Y3236*
X2097Y3235*
X2096Y3235*
X2096Y3235*
X2096Y3234*
X2095Y3234*
X2094Y3234*
X2094*
X2094Y3234*
X2095Y3234*
X2095Y3234*
X2095Y3233*
X2096Y3233*
X2096Y3233*
X2097Y3232*
X2097Y3232*
X2098Y3231*
Y3231*
X2098Y3231*
X2098Y3231*
X2098Y3231*
X2099Y3230*
X2099Y3230*
X2099Y3229*
X2099Y3228*
X2099Y3227*
Y3227*
Y3227*
Y3227*
X2099Y3227*
X2099Y3226*
X2099Y3226*
X2099Y3226*
X2099Y3225*
X2099Y3224*
X2098Y3224*
X2098Y3224*
X2098Y3223*
X2098Y3223*
X2097Y3222*
X2097Y3222*
X2097Y3222*
X2097Y3222*
X2097Y3222*
X2096Y3221*
X2096Y3221*
X2096Y3221*
X2096Y3221*
X2095Y3221*
X2095Y3220*
X2094Y3220*
X2094Y3220*
X2093Y3220*
X2093Y3220*
X2092Y3220*
X2091Y3220*
X2091Y3220*
X2090*
X2090Y3220*
X2090Y3220*
X2089Y3220*
X2089Y3220*
X2089Y3220*
X2088Y3220*
X2087Y3220*
X2087Y3220*
X2086Y3221*
X2085Y3221*
X2085Y3221*
X2085Y3222*
X2085Y3222*
X2084Y3222*
X2084Y3222*
X2084Y3222*
X2084Y3222*
X2084Y3223*
X2084Y3223*
X2083Y3223*
X2083Y3224*
X2083Y3224*
X2083Y3225*
X2082Y3226*
X2082Y3226*
X2082Y3227*
X2082Y3227*
Y3227*
Y3227*
Y3228*
X2082Y3228*
Y3228*
X2082Y3228*
X2082Y3229*
X2083Y3229*
X2083Y3230*
X2083Y3231*
X2084Y3231*
Y3232*
X2084Y3232*
X2084Y3232*
X2084Y3232*
X2084Y3232*
X2085Y3233*
X2086Y3233*
X2086Y3234*
X2087Y3234*
X2087*
X2087Y3234*
X2087Y3234*
X2087Y3234*
X2086Y3234*
X2086Y3234*
X2086Y3235*
X2085Y3235*
X2085Y3235*
X2084Y3236*
X2084Y3236*
X2084Y3236*
X2084Y3236*
X2084Y3237*
X2084Y3237*
X2083Y3238*
X2083Y3238*
X2083Y3239*
Y3239*
Y3239*
Y3239*
X2083Y3240*
X2083Y3240*
X2083Y3240*
X2084Y3241*
X2084Y3241*
X2084Y3242*
X2084Y3243*
X2085Y3243*
X2085Y3243*
X2085Y3244*
X2085Y3244*
X2085Y3244*
X2086Y3244*
X2086Y3244*
X2086Y3244*
X2086Y3244*
X2086Y3245*
X2087Y3245*
X2087Y3245*
X2087Y3245*
X2088Y3245*
X2088Y3245*
X2089Y3246*
X2090Y3246*
X2091Y3246*
X2091*
X2091Y3246*
G37*
G36*
X2702Y3049D02*
X2702D01*
X2703Y3049*
X2703Y3049*
X2704Y3049*
X2704Y3049*
X2705Y3049*
X2705Y3049*
X2706Y3049*
X2706Y3048*
X2707Y3048*
X2707Y3048*
X2708Y3047*
X2708Y3047*
X2708Y3047*
X2708Y3046*
X2708Y3046*
X2709Y3046*
X2709Y3046*
X2709Y3045*
X2709Y3045*
X2709Y3044*
X2710Y3044*
X2710Y3043*
X2710Y3042*
X2710Y3041*
X2710Y3040*
X2711Y3039*
X2711Y3038*
X2711Y3037*
Y3037*
Y3037*
Y3037*
Y3037*
X2711Y3036*
Y3036*
X2711Y3035*
X2711Y3035*
X2710Y3034*
X2710Y3033*
X2710Y3032*
X2710Y3031*
X2710Y3030*
X2710Y3029*
X2709Y3029*
X2709Y3028*
X2708Y3027*
X2708Y3026*
X2708Y3026*
X2708Y3026*
X2708Y3026*
X2707Y3026*
X2707Y3026*
X2707Y3025*
X2707Y3025*
X2706Y3025*
X2706Y3025*
X2705Y3024*
X2705Y3024*
X2704Y3024*
X2704Y3024*
X2703Y3023*
X2702Y3023*
X2701Y3023*
X2701*
X2701Y3023*
X2701*
X2700Y3023*
X2700Y3024*
X2699Y3024*
X2698Y3024*
X2697Y3024*
X2697Y3025*
X2697Y3025*
X2696Y3025*
X2696Y3025*
X2696Y3025*
X2696Y3025*
X2696Y3026*
X2696Y3026*
X2695Y3026*
X2695Y3027*
X2695Y3028*
X2694Y3029*
X2694Y3030*
X2697Y3030*
Y3030*
X2697Y3030*
X2697Y3030*
X2697Y3029*
X2698Y3029*
X2698Y3028*
X2698Y3028*
X2698Y3028*
X2699Y3027*
X2699Y3027*
X2699Y3027*
X2699Y3027*
X2699Y3027*
X2700Y3026*
X2700Y3026*
X2701Y3026*
X2702Y3026*
X2702*
X2702Y3026*
X2703Y3026*
X2703Y3026*
X2703Y3026*
X2704Y3026*
X2704Y3027*
X2704Y3027*
X2705Y3027*
X2705Y3027*
X2705Y3028*
X2706Y3028*
X2706Y3029*
X2706Y3029*
X2707Y3030*
Y3030*
X2707Y3030*
X2707Y3030*
X2707Y3030*
X2707Y3031*
X2707Y3031*
X2707Y3031*
X2707Y3031*
X2707Y3032*
X2707Y3032*
X2707Y3033*
X2707Y3033*
X2707Y3034*
X2707Y3035*
X2708Y3035*
Y3036*
X2707Y3036*
X2707Y3036*
X2707Y3035*
X2707Y3035*
X2706Y3034*
X2706Y3034*
X2705Y3034*
X2705Y3033*
X2705*
X2705Y3033*
X2704Y3033*
X2704Y3033*
X2704Y3033*
X2703Y3033*
X2703Y3033*
X2702Y3032*
X2701Y3032*
X2701*
X2701Y3032*
X2700Y3033*
X2700Y3033*
X2700Y3033*
X2699Y3033*
X2699Y3033*
X2698Y3033*
X2698Y3033*
X2697Y3034*
X2697Y3034*
X2696Y3034*
X2696Y3035*
X2696Y3035*
X2696Y3035*
X2696Y3035*
X2696Y3035*
X2695Y3035*
X2695Y3036*
X2695Y3036*
X2695Y3036*
X2695Y3037*
X2694Y3037*
X2694Y3038*
X2694Y3038*
X2694Y3039*
X2694Y3039*
X2694Y3040*
X2694Y3041*
Y3041*
Y3041*
Y3041*
Y3041*
X2694Y3041*
Y3042*
X2694Y3042*
X2694Y3043*
X2694Y3044*
X2694Y3044*
X2695Y3045*
Y3045*
X2695Y3045*
X2695Y3045*
X2695Y3046*
X2695Y3046*
X2696Y3046*
X2696Y3047*
X2696Y3047*
X2697Y3048*
X2698Y3048*
X2698*
X2698Y3048*
X2698Y3049*
X2698Y3049*
X2698Y3049*
X2699Y3049*
X2699Y3049*
X2700Y3049*
X2701Y3049*
X2702Y3050*
X2702*
X2702Y3049*
G37*
G36*
X2745D02*
X2745D01*
X2745Y3049*
X2746Y3049*
X2746Y3049*
X2747Y3049*
X2749Y3049*
X2750Y3048*
X2750Y3048*
X2751Y3048*
X2751Y3048*
X2751Y3048*
X2751Y3048*
X2751Y3048*
X2751Y3047*
X2752Y3047*
X2752Y3047*
X2752Y3047*
X2752Y3046*
X2753Y3046*
X2753Y3045*
X2754Y3044*
X2755Y3043*
Y3043*
X2755Y3043*
X2755Y3043*
X2755Y3042*
X2755Y3042*
X2755Y3042*
X2755Y3041*
X2755Y3041*
X2755Y3040*
X2756Y3040*
X2756Y3039*
X2756Y3037*
X2756Y3036*
Y3036*
Y3036*
Y3036*
X2756Y3035*
Y3035*
X2756Y3035*
X2756Y3034*
X2756Y3034*
X2756Y3033*
X2755Y3031*
X2755Y3030*
X2754Y3029*
X2754Y3029*
X2754Y3029*
X2754Y3029*
X2754Y3029*
X2754Y3028*
X2754Y3028*
X2753Y3027*
X2753Y3027*
X2752Y3026*
X2751Y3025*
X2750Y3025*
X2750Y3025*
X2750Y3024*
X2750Y3024*
X2750Y3024*
X2749Y3024*
X2749Y3024*
X2749Y3024*
X2748Y3024*
X2748Y3024*
X2747Y3023*
X2746Y3023*
X2745Y3023*
X2744Y3023*
X2744*
X2743Y3023*
X2743Y3023*
X2743Y3023*
X2742Y3023*
X2742Y3023*
X2741Y3023*
X2740Y3024*
X2739Y3024*
X2738Y3024*
X2738Y3025*
X2737Y3025*
X2737Y3025*
X2737Y3025*
X2737Y3025*
X2737Y3025*
X2737Y3026*
X2737Y3026*
X2736Y3026*
X2736Y3026*
X2736Y3027*
X2735Y3027*
X2735Y3028*
X2735Y3028*
X2735Y3029*
X2734Y3029*
X2734Y3030*
X2734Y3030*
X2737Y3031*
Y3031*
X2737Y3031*
X2737Y3031*
X2737Y3031*
X2737Y3031*
X2737Y3030*
X2738Y3030*
X2738Y3029*
X2739Y3028*
X2739Y3028*
X2740Y3027*
X2740Y3027*
X2740Y3027*
X2740Y3027*
X2741Y3027*
X2741Y3026*
X2742Y3026*
X2743Y3026*
X2744Y3026*
X2744*
X2744Y3026*
X2745*
X2745Y3026*
X2746Y3026*
X2746Y3026*
X2747Y3026*
X2748Y3027*
X2749Y3027*
X2749*
X2749Y3027*
X2749Y3028*
X2750Y3028*
X2750Y3028*
X2750Y3029*
X2751Y3030*
X2751Y3030*
X2752Y3031*
Y3031*
X2752Y3031*
X2752Y3031*
X2752Y3032*
X2752Y3032*
X2752Y3032*
X2752Y3033*
X2752Y3033*
X2752Y3034*
X2752Y3035*
X2752Y3036*
Y3036*
Y3036*
Y3036*
Y3037*
X2752Y3037*
Y3037*
X2752Y3038*
X2752Y3038*
X2752Y3039*
X2752Y3040*
X2752Y3041*
X2752Y3042*
Y3042*
X2752Y3042*
X2751Y3042*
X2751Y3042*
X2751Y3043*
X2751Y3043*
X2750Y3044*
X2750Y3044*
X2749Y3045*
X2749Y3045*
X2749*
X2748Y3045*
X2748Y3046*
X2748Y3046*
X2748Y3046*
X2748Y3046*
X2747Y3046*
X2747Y3046*
X2746Y3046*
X2745Y3047*
X2744Y3047*
X2744*
X2744Y3047*
X2743*
X2743Y3047*
X2743Y3046*
X2742Y3046*
X2741Y3046*
X2740Y3046*
X2740Y3045*
X2739Y3045*
X2739Y3045*
X2739Y3045*
X2739Y3045*
X2739Y3045*
X2739Y3045*
X2739Y3044*
X2739Y3044*
X2738Y3044*
X2738Y3043*
X2738Y3043*
X2738Y3043*
X2737Y3042*
X2737Y3042*
X2737Y3041*
X2737Y3041*
X2737Y3040*
X2733Y3041*
Y3041*
X2733Y3041*
X2733Y3041*
X2734Y3042*
X2734Y3042*
X2734Y3042*
X2734Y3043*
X2734Y3043*
X2735Y3044*
X2735Y3045*
X2736Y3046*
X2736Y3046*
X2737Y3047*
X2737Y3047*
X2737Y3047*
X2737Y3047*
X2737Y3048*
X2738Y3048*
X2738Y3048*
X2738Y3048*
X2739Y3048*
X2739Y3048*
X2740Y3049*
X2740Y3049*
X2741Y3049*
X2741Y3049*
X2742Y3049*
X2742Y3049*
X2743Y3049*
X2744Y3050*
X2744*
X2745Y3049*
G37*
G36*
X2731Y3049D02*
Y3049D01*
Y3049*
X2731Y3048*
X2731Y3048*
X2731Y3048*
X2731Y3047*
X2731Y3047*
Y3047*
X2730Y3047*
X2730Y3047*
X2730Y3046*
X2730Y3046*
X2730Y3045*
X2729Y3045*
X2729Y3044*
X2728Y3043*
Y3043*
X2728Y3043*
X2728Y3043*
X2728Y3043*
X2727Y3042*
X2727Y3042*
X2726Y3041*
X2725Y3040*
X2724Y3040*
X2724Y3040*
X2724Y3039*
X2724Y3039*
X2724Y3039*
X2723Y3039*
X2723Y3038*
X2723Y3038*
X2722Y3038*
X2721Y3037*
X2720Y3036*
X2720Y3035*
X2719Y3035*
X2719Y3035*
X2719Y3034*
Y3034*
X2719Y3034*
X2719Y3034*
X2718Y3034*
X2718Y3033*
X2718Y3033*
X2718Y3032*
X2717Y3032*
X2717Y3031*
X2717Y3030*
Y3030*
Y3030*
X2717Y3030*
X2717Y3030*
X2717Y3029*
X2717Y3029*
X2718Y3028*
X2718Y3028*
X2719Y3027*
X2719Y3027*
X2719Y3027*
X2719Y3027*
X2719Y3027*
X2720Y3026*
X2721Y3026*
X2721Y3026*
X2722Y3026*
X2722*
X2722Y3026*
X2723Y3026*
X2723Y3026*
X2724Y3026*
X2725Y3027*
X2725Y3027*
X2726Y3027*
X2726Y3027*
X2726Y3028*
X2726Y3028*
X2726Y3028*
X2727Y3029*
X2727Y3029*
X2727Y3030*
X2727Y3031*
X2730Y3031*
Y3031*
X2730Y3031*
Y3030*
X2730Y3030*
X2730Y3030*
X2730Y3030*
X2730Y3029*
X2730Y3029*
X2730Y3028*
X2729Y3027*
X2729Y3026*
X2729Y3026*
X2728Y3026*
X2728Y3025*
X2728Y3025*
X2728Y3025*
X2728Y3025*
X2727Y3025*
X2727Y3025*
X2727Y3025*
X2727Y3024*
X2726Y3024*
X2726Y3024*
X2725Y3024*
X2725Y3024*
X2724Y3024*
X2724Y3024*
X2723Y3023*
X2723Y3023*
X2722Y3023*
X2722*
X2721Y3023*
X2721Y3023*
X2721Y3023*
X2720Y3024*
X2720Y3024*
X2719Y3024*
X2718Y3024*
X2717Y3024*
X2717Y3025*
X2717Y3025*
X2716Y3025*
X2716Y3025*
X2716Y3025*
X2716Y3026*
X2716Y3026*
X2716Y3026*
X2715Y3026*
X2715Y3026*
X2715Y3027*
X2715Y3028*
X2714Y3028*
X2714Y3029*
X2714Y3029*
X2714Y3030*
X2714Y3030*
Y3031*
Y3031*
X2714Y3031*
X2714Y3031*
X2714Y3032*
X2714Y3032*
X2714Y3033*
X2715Y3033*
X2715Y3034*
X2715Y3034*
X2715Y3034*
X2715Y3034*
X2715Y3035*
X2716Y3035*
X2716Y3036*
X2717Y3037*
X2717Y3037*
X2717Y3037*
X2717Y3037*
X2717Y3037*
X2718Y3038*
X2718Y3038*
X2718Y3038*
X2719Y3038*
X2719Y3039*
X2719Y3039*
X2720Y3040*
X2720Y3040*
X2721Y3041*
X2722Y3041*
X2722Y3041*
X2722Y3041*
X2722Y3041*
X2722Y3041*
X2722Y3042*
X2722Y3042*
X2723Y3042*
X2724Y3043*
X2724Y3044*
X2725Y3044*
X2725Y3044*
X2725Y3044*
X2725Y3044*
X2725Y3045*
X2725Y3045*
X2726Y3045*
X2726Y3045*
X2726Y3045*
X2727Y3046*
X2714*
Y3049*
X2731*
Y3049*
G37*
G36*
X5553Y3018D02*
X5559D01*
Y3015*
X5553*
Y3004*
X5550*
X5533Y3016*
Y3018*
X5550*
Y3022*
X5553*
Y3018*
G37*
G36*
X5559Y2994D02*
X5539D01*
X5539Y2994*
X5539Y2994*
X5539Y2993*
X5540Y2993*
X5540Y2993*
X5540Y2992*
X5541Y2991*
X5541Y2991*
Y2991*
X5541Y2991*
X5541Y2990*
X5542Y2990*
X5542Y2990*
X5542Y2989*
X5542Y2989*
X5543Y2988*
X5543Y2987*
X5540*
Y2987*
X5540Y2988*
X5540Y2988*
X5540Y2988*
X5539Y2988*
X5539Y2988*
X5539Y2989*
X5539Y2990*
X5538Y2990*
X5537Y2991*
X5537Y2992*
X5537Y2992*
X5537Y2992*
X5537Y2992*
X5536Y2992*
X5536Y2993*
X5536Y2993*
X5535Y2994*
X5535Y2994*
X5534Y2994*
X5533Y2995*
Y2997*
X5559*
Y2994*
G37*
G36*
X5551Y2982D02*
X5551Y2982D01*
X5552Y2982*
X5552Y2982*
X5552Y2982*
X5553Y2981*
X5553Y2981*
X5554Y2981*
X5555Y2980*
X5556Y2980*
X5556Y2979*
X5557Y2979*
X5557Y2978*
X5557Y2978*
X5557Y2978*
X5558Y2978*
X5558Y2978*
X5558Y2978*
X5558Y2977*
X5558Y2977*
X5558Y2976*
X5559Y2976*
X5559Y2975*
X5559Y2975*
X5559Y2974*
X5559Y2974*
X5559Y2973*
X5559Y2972*
X5560Y2972*
Y2971*
X5559Y2971*
Y2970*
X5559Y2970*
X5559Y2970*
X5559Y2969*
X5559Y2968*
X5559Y2967*
X5558Y2966*
X5558Y2965*
X5558Y2965*
X5558Y2965*
X5558Y2965*
X5558Y2965*
X5558Y2964*
X5557Y2964*
X5557Y2964*
X5557Y2964*
X5557Y2963*
X5556Y2963*
X5556Y2963*
X5555Y2962*
X5554Y2961*
X5553Y2961*
X5553*
X5553Y2961*
X5553Y2961*
X5552Y2961*
X5552Y2961*
X5552Y2960*
X5551Y2960*
X5551Y2960*
X5550Y2960*
X5550Y2960*
X5549Y2960*
X5547Y2960*
X5546Y2960*
X5546*
X5546*
X5546*
X5545Y2960*
X5545*
X5545Y2960*
X5544Y2960*
X5544Y2960*
X5543Y2960*
X5541Y2960*
X5540Y2961*
X5539Y2961*
X5539Y2961*
X5539Y2961*
X5539Y2961*
X5539Y2961*
X5538Y2961*
X5538Y2962*
X5537Y2962*
X5537Y2963*
X5536Y2963*
X5535Y2964*
X5535Y2965*
X5535Y2965*
X5534Y2965*
X5534Y2966*
X5534Y2966*
X5534Y2966*
X5534Y2966*
X5534Y2967*
X5534Y2967*
X5534Y2968*
X5533Y2968*
X5533Y2969*
X5533Y2970*
X5533Y2972*
Y2972*
X5533Y2972*
X5533Y2973*
X5533Y2973*
X5533Y2973*
X5533Y2974*
X5533Y2975*
X5534Y2976*
X5534Y2976*
X5534Y2977*
X5535Y2978*
X5535Y2978*
X5535Y2978*
X5535Y2978*
X5535Y2978*
X5535Y2978*
X5536Y2979*
X5536Y2979*
X5536Y2979*
X5536Y2979*
X5537Y2980*
X5537Y2980*
X5538Y2980*
X5538Y2981*
X5539Y2981*
X5539Y2981*
X5540Y2981*
X5540Y2982*
X5541Y2978*
X5541*
X5541Y2978*
X5541Y2978*
X5541Y2978*
X5541Y2978*
X5540Y2978*
X5540Y2978*
X5539Y2977*
X5538Y2977*
X5538Y2976*
X5537Y2976*
X5537Y2976*
X5537Y2975*
X5537Y2975*
X5537Y2975*
X5536Y2974*
X5536Y2973*
X5536Y2972*
X5536Y2971*
Y2971*
X5536Y2971*
Y2971*
X5536Y2970*
X5536Y2970*
X5536Y2969*
X5536Y2968*
X5537Y2967*
X5537Y2967*
Y2966*
X5537Y2966*
X5538Y2966*
X5538Y2966*
X5538Y2965*
X5539Y2965*
X5540Y2965*
X5540Y2964*
X5541Y2964*
X5541*
X5541Y2964*
X5541Y2964*
X5542Y2964*
X5542Y2964*
X5542Y2963*
X5543Y2963*
X5543Y2963*
X5544Y2963*
X5545Y2963*
X5546Y2963*
X5546*
X5546*
X5546*
X5547*
X5547Y2963*
X5547*
X5548Y2963*
X5548Y2963*
X5549Y2963*
X5550Y2963*
X5551Y2964*
X5552Y2964*
X5552*
X5552Y2964*
X5552Y2964*
X5552Y2964*
X5553Y2964*
X5553Y2965*
X5554Y2965*
X5554Y2966*
X5555Y2966*
X5555Y2967*
Y2967*
X5555Y2967*
X5556Y2967*
X5556Y2967*
X5556Y2967*
X5556Y2968*
X5556Y2968*
X5556Y2969*
X5556Y2970*
X5557Y2970*
X5557Y2971*
Y2971*
X5557Y2972*
Y2972*
X5557Y2972*
X5556Y2973*
X5556Y2974*
X5556Y2974*
X5556Y2975*
X5555Y2976*
X5555Y2976*
X5555Y2976*
X5555Y2976*
X5555Y2976*
X5555Y2976*
X5555Y2977*
X5554Y2977*
X5554Y2977*
X5554Y2977*
X5553Y2977*
X5553Y2978*
X5553Y2978*
X5552Y2978*
X5552Y2978*
X5551Y2978*
X5551Y2979*
X5550Y2979*
X5551Y2982*
X5551*
X5551Y2982*
G37*
G36*
X2402Y3242D02*
X2402Y3242D01*
X2402Y3242*
X2402Y3242*
X2402Y3242*
X2402Y3242*
X2401Y3241*
X2401Y3241*
X2401Y3240*
X2400Y3240*
X2400Y3239*
X2399Y3239*
X2399Y3238*
X2399Y3238*
X2398Y3237*
X2398Y3236*
X2397Y3235*
X2397Y3235*
X2397Y3235*
X2397Y3235*
X2397Y3235*
X2397Y3234*
X2396Y3234*
X2396Y3233*
X2396Y3233*
X2396Y3232*
X2395Y3231*
X2395Y3231*
X2395Y3230*
X2394Y3228*
X2394Y3227*
Y3226*
X2394Y3226*
X2394Y3226*
X2393Y3226*
X2393Y3226*
X2393Y3225*
X2393Y3225*
X2393Y3224*
X2393Y3224*
X2393Y3223*
X2393Y3222*
X2393Y3221*
X2392Y3220*
X2389*
Y3220*
Y3220*
Y3220*
X2389Y3220*
Y3220*
X2389Y3221*
X2389Y3221*
X2389Y3222*
X2389Y3222*
X2389Y3223*
X2390Y3223*
X2390Y3224*
X2390Y3224*
X2390Y3225*
X2390Y3227*
Y3227*
X2390Y3227*
X2390Y3227*
X2391Y3227*
X2391Y3228*
X2391Y3228*
X2391Y3229*
X2391Y3229*
X2391Y3230*
X2392Y3231*
X2392Y3232*
X2393Y3234*
X2394Y3235*
X2394Y3235*
X2394Y3235*
X2394Y3235*
X2394Y3236*
X2394Y3236*
X2394Y3236*
X2395Y3237*
X2395Y3237*
X2396Y3238*
X2396Y3240*
X2397Y3241*
X2398Y3242*
X2386*
Y3245*
X2402*
Y3242*
G37*
G36*
X2371Y3245D02*
X2372Y3245D01*
X2373Y3245*
X2374Y3245*
X2374Y3245*
X2374*
X2374Y3245*
X2374*
X2375Y3245*
X2375Y3245*
X2375Y3244*
X2376Y3244*
X2377Y3244*
X2377Y3243*
X2378Y3243*
X2378Y3243*
X2378Y3243*
X2378Y3243*
X2378Y3243*
X2379Y3242*
X2379Y3242*
X2380Y3241*
X2380Y3240*
X2381Y3239*
X2381Y3239*
Y3238*
X2381Y3238*
X2381Y3238*
X2381Y3238*
X2381Y3238*
X2381Y3237*
X2381Y3237*
X2381Y3237*
X2382Y3236*
X2382Y3236*
X2382Y3235*
X2382Y3234*
X2382Y3232*
Y3232*
Y3232*
Y3232*
Y3232*
X2382Y3232*
Y3231*
X2382Y3231*
X2382Y3230*
X2382Y3229*
X2382Y3228*
X2381Y3227*
Y3227*
X2381Y3227*
X2381Y3227*
X2381Y3227*
X2381Y3226*
X2381Y3226*
X2381Y3225*
X2380Y3225*
X2380Y3224*
X2380Y3224*
X2380Y3223*
X2379Y3223*
X2379Y3223*
X2379Y3223*
X2379Y3222*
X2378Y3222*
X2378Y3222*
X2377Y3221*
X2377Y3221*
X2377Y3221*
X2377Y3221*
X2376Y3221*
X2376Y3221*
X2375Y3220*
X2375Y3220*
X2374Y3220*
X2374*
X2374Y3220*
X2374Y3220*
X2373Y3220*
X2373Y3220*
X2372Y3220*
X2372Y3220*
X2371Y3220*
X2370Y3220*
X2361*
Y3245*
X2371*
X2371Y3245*
G37*
G36*
X3594Y3246D02*
X3594D01*
X3594Y3246*
X3595Y3245*
X3596Y3245*
X3596Y3245*
X3597Y3245*
X3598Y3244*
X3598Y3244*
X3598Y3244*
X3598Y3244*
X3598Y3244*
X3598Y3244*
X3599Y3243*
X3599Y3243*
X3599Y3243*
X3600Y3242*
X3600Y3241*
X3600Y3240*
X3600Y3239*
X3597Y3239*
Y3239*
X3597Y3239*
X3597Y3239*
X3597Y3240*
X3597Y3240*
X3597Y3241*
X3597Y3241*
X3596Y3241*
X3596Y3242*
X3596Y3242*
X3596Y3242*
X3596Y3242*
X3595Y3242*
X3595Y3243*
X3594Y3243*
X3594Y3243*
X3593Y3243*
X3593*
X3592Y3243*
X3592Y3243*
X3592Y3243*
X3591Y3243*
X3591Y3243*
X3590Y3242*
X3590Y3242*
X3590Y3242*
X3590Y3242*
X3589Y3241*
X3589Y3241*
X3589Y3240*
X3588Y3240*
X3588Y3239*
Y3239*
X3588Y3239*
X3588Y3239*
X3588Y3239*
X3588Y3238*
X3588Y3238*
X3588Y3238*
X3587Y3238*
X3587Y3237*
X3587Y3237*
X3587Y3236*
X3587Y3236*
X3587Y3235*
X3587Y3234*
X3587Y3234*
Y3233*
X3587Y3233*
X3587Y3233*
X3587Y3234*
X3588Y3234*
X3588Y3235*
X3589Y3235*
X3589Y3235*
X3590Y3236*
X3590*
X3590Y3236*
X3590Y3236*
X3590Y3236*
X3591Y3236*
X3591Y3236*
X3592Y3236*
X3593Y3237*
X3593Y3237*
X3594*
X3594Y3237*
X3594Y3236*
X3594Y3236*
X3595Y3236*
X3595Y3236*
X3596Y3236*
X3596Y3236*
X3597Y3236*
X3597Y3235*
X3598Y3235*
X3598Y3235*
X3599Y3234*
X3599Y3234*
X3599Y3234*
X3599Y3234*
X3599Y3234*
X3599Y3234*
X3599Y3233*
X3600Y3233*
X3600Y3233*
X3600Y3232*
X3600Y3232*
X3600Y3231*
X3601Y3231*
X3601Y3230*
X3601Y3230*
X3601Y3229*
X3601Y3228*
Y3228*
Y3228*
Y3228*
Y3228*
X3601Y3228*
Y3227*
X3601Y3227*
X3601Y3226*
X3600Y3225*
X3600Y3225*
X3600Y3224*
Y3224*
X3600Y3224*
X3600Y3224*
X3600Y3223*
X3599Y3223*
X3599Y3223*
X3599Y3222*
X3598Y3222*
X3598Y3221*
X3597Y3221*
X3597*
X3597Y3221*
X3597Y3220*
X3597Y3220*
X3596Y3220*
X3596Y3220*
X3595Y3220*
X3594Y3220*
X3594Y3220*
X3593Y3220*
X3593*
X3592Y3220*
X3592*
X3592Y3220*
X3591Y3220*
X3591Y3220*
X3591Y3220*
X3590Y3220*
X3589Y3220*
X3589Y3220*
X3588Y3221*
X3588Y3221*
X3587Y3221*
X3587Y3222*
X3586Y3222*
X3586Y3222*
X3586Y3223*
X3586Y3223*
X3586Y3223*
X3586Y3223*
X3586Y3224*
X3585Y3224*
X3585Y3225*
X3585Y3225*
X3585Y3226*
X3584Y3227*
X3584Y3228*
X3584Y3229*
X3584Y3230*
X3584Y3231*
X3584Y3232*
Y3232*
Y3232*
Y3232*
Y3232*
X3584Y3233*
Y3233*
X3584Y3234*
X3584Y3234*
X3584Y3235*
X3584Y3236*
X3584Y3237*
X3585Y3238*
X3585Y3239*
X3585Y3240*
X3585Y3240*
X3586Y3241*
X3586Y3242*
X3587Y3243*
X3587Y3243*
X3587Y3243*
X3587Y3243*
X3587Y3243*
X3587Y3243*
X3588Y3244*
X3588Y3244*
X3588Y3244*
X3589Y3244*
X3589Y3245*
X3590Y3245*
X3590Y3245*
X3591Y3245*
X3592Y3246*
X3592Y3246*
X3593Y3246*
X3593*
X3594Y3246*
G37*
G36*
X3570Y3246D02*
X3571Y3245D01*
X3571Y3245*
X3572Y3245*
X3573Y3245*
X3573*
X3573Y3245*
X3573*
X3573Y3245*
X3574Y3245*
X3574Y3245*
X3575Y3245*
X3575Y3244*
X3576Y3244*
X3577Y3243*
X3577Y3243*
X3577Y3243*
X3577Y3243*
X3577Y3243*
X3577Y3243*
X3578Y3242*
X3578Y3242*
X3579Y3241*
X3579Y3240*
X3580Y3239*
Y3239*
X3580Y3239*
X3580Y3239*
X3580Y3238*
X3580Y3238*
X3580Y3238*
X3580Y3238*
X3580Y3237*
X3580Y3237*
X3580Y3236*
X3581Y3235*
X3581Y3234*
X3581Y3233*
Y3233*
Y3233*
Y3233*
Y3232*
X3581Y3232*
Y3232*
X3581Y3231*
X3580Y3230*
X3580Y3229*
X3580Y3229*
X3580Y3228*
Y3228*
X3580Y3228*
X3580Y3227*
X3580Y3227*
X3580Y3227*
X3579Y3226*
X3579Y3226*
X3579Y3225*
X3579Y3225*
X3578Y3224*
X3578Y3224*
X3578Y3224*
X3578Y3223*
X3578Y3223*
X3577Y3223*
X3577Y3222*
X3576Y3222*
X3576Y3222*
X3576Y3222*
X3576Y3222*
X3575Y3221*
X3575Y3221*
X3575Y3221*
X3574Y3221*
X3573Y3221*
X3573Y3220*
X3573*
X3573Y3220*
X3573Y3220*
X3572Y3220*
X3572Y3220*
X3571Y3220*
X3570Y3220*
X3570Y3220*
X3569Y3220*
X3560*
Y3246*
X3569*
X3570Y3246*
G37*
G36*
X1046Y2159D02*
X1047Y2159D01*
X1047Y2159*
X1047Y2159*
X1048Y2159*
X1049Y2159*
X1050Y2159*
X1050Y2158*
X1051Y2158*
X1051Y2158*
X1051Y2158*
X1052Y2158*
X1052Y2158*
X1052Y2157*
X1052Y2157*
X1052Y2157*
X1052Y2157*
X1052Y2157*
X1053Y2156*
X1053Y2156*
X1053Y2155*
X1053Y2155*
X1054Y2154*
X1054Y2153*
X1054Y2152*
X1051Y2152*
Y2152*
Y2152*
X1051Y2152*
X1051Y2153*
X1050Y2153*
X1050Y2153*
X1050Y2154*
X1050Y2155*
X1049Y2155*
X1049Y2156*
X1049Y2156*
X1049Y2156*
X1049Y2156*
X1048Y2156*
X1048Y2157*
X1047Y2157*
X1046Y2157*
X1046Y2157*
X1046*
X1045Y2157*
X1045Y2157*
X1044Y2157*
X1044Y2157*
X1043Y2156*
X1043Y2156*
X1042Y2156*
X1042Y2155*
X1042Y2155*
X1042Y2155*
X1042Y2155*
X1042Y2155*
X1041Y2155*
X1041Y2154*
X1041Y2153*
X1041Y2153*
X1040Y2152*
X1040Y2151*
Y2151*
Y2151*
Y2151*
Y2150*
X1040Y2150*
Y2150*
X1040Y2150*
X1041Y2149*
X1041Y2148*
X1041Y2148*
X1041Y2147*
X1042Y2146*
Y2146*
X1042Y2146*
X1042Y2146*
X1042Y2146*
X1043Y2146*
X1043Y2145*
X1044Y2145*
X1045Y2145*
X1045Y2145*
X1046*
X1046Y2145*
X1047Y2145*
X1047Y2145*
X1048Y2145*
X1048Y2145*
X1049Y2146*
X1049Y2146*
X1049Y2146*
X1049Y2146*
X1049Y2146*
X1050Y2146*
X1050Y2147*
X1050Y2147*
X1050Y2147*
X1053Y2147*
X1051Y2134*
X1038*
Y2137*
X1048*
X1050Y2144*
X1050Y2144*
X1050Y2144*
X1050Y2144*
X1049Y2143*
X1049Y2143*
X1049Y2143*
X1048Y2143*
X1048Y2143*
X1047Y2142*
X1046Y2142*
X1045Y2142*
X1045*
X1044Y2142*
X1044Y2142*
X1044Y2142*
X1043Y2142*
X1043Y2142*
X1042Y2143*
X1042Y2143*
X1041Y2143*
X1041Y2143*
X1040Y2144*
X1040Y2144*
X1039Y2144*
X1039Y2144*
X1039Y2145*
X1039Y2145*
X1039Y2145*
X1039Y2145*
X1039Y2145*
X1038Y2146*
X1038Y2146*
X1038Y2146*
X1038Y2147*
X1038Y2147*
X1037Y2148*
X1037Y2148*
X1037Y2149*
X1037Y2150*
X1037Y2150*
Y2150*
Y2151*
Y2151*
X1037Y2151*
X1037Y2151*
X1037Y2152*
X1037Y2152*
X1037Y2152*
X1037Y2153*
X1038Y2154*
X1038Y2155*
X1038Y2155*
X1039Y2156*
X1039Y2156*
X1039Y2156*
X1039Y2157*
X1039Y2157*
X1039Y2157*
X1040Y2157*
X1040Y2157*
X1040Y2158*
X1041Y2158*
X1041Y2158*
X1042Y2159*
X1042Y2159*
X1043Y2159*
X1044Y2159*
X1044Y2159*
X1045Y2159*
X1046Y2160*
X1046*
X1046Y2159*
G37*
G36*
X1068D02*
X1069D01*
X1069Y2159*
X1069Y2159*
X1070Y2159*
X1071Y2159*
X1072Y2159*
X1073Y2158*
X1074Y2158*
X1074Y2158*
X1074Y2158*
X1074Y2158*
X1074Y2158*
X1075Y2158*
X1075Y2157*
X1075Y2157*
X1075Y2157*
X1076Y2157*
X1076Y2156*
X1076Y2156*
X1077Y2155*
X1078Y2154*
X1078Y2153*
Y2153*
X1078Y2153*
X1078Y2153*
X1078Y2152*
X1078Y2152*
X1079Y2152*
X1079Y2151*
X1079Y2151*
X1079Y2150*
X1079Y2150*
X1079Y2149*
X1079Y2147*
X1080Y2146*
Y2146*
Y2146*
Y2146*
X1079Y2145*
Y2145*
X1079Y2145*
X1079Y2144*
X1079Y2144*
X1079Y2143*
X1079Y2141*
X1079Y2140*
X1078Y2139*
X1078Y2139*
X1078Y2139*
X1078Y2139*
X1078Y2139*
X1078Y2138*
X1077Y2138*
X1077Y2137*
X1076Y2137*
X1076Y2136*
X1075Y2135*
X1074Y2135*
X1074Y2135*
X1074Y2134*
X1073Y2134*
X1073Y2134*
X1073Y2134*
X1073Y2134*
X1072Y2134*
X1072Y2134*
X1071Y2134*
X1071Y2133*
X1070Y2133*
X1069Y2133*
X1067Y2133*
X1067*
X1067Y2133*
X1066Y2133*
X1066Y2133*
X1066Y2133*
X1065Y2133*
X1064Y2133*
X1063Y2134*
X1063Y2134*
X1062Y2134*
X1061Y2135*
X1061Y2135*
X1061Y2135*
X1061Y2135*
X1061Y2135*
X1061Y2135*
X1060Y2136*
X1060Y2136*
X1060Y2136*
X1060Y2136*
X1059Y2137*
X1059Y2137*
X1059Y2138*
X1058Y2138*
X1058Y2139*
X1058Y2139*
X1058Y2140*
X1057Y2140*
X1061Y2141*
Y2141*
X1061Y2141*
X1061Y2141*
X1061Y2141*
X1061Y2141*
X1061Y2140*
X1061Y2140*
X1062Y2139*
X1062Y2138*
X1063Y2138*
X1063Y2137*
X1063Y2137*
X1064Y2137*
X1064Y2137*
X1064Y2137*
X1065Y2136*
X1066Y2136*
X1067Y2136*
X1068Y2136*
X1068*
X1068Y2136*
X1068*
X1069Y2136*
X1069Y2136*
X1070Y2136*
X1071Y2136*
X1072Y2137*
X1072Y2137*
X1073*
X1073Y2137*
X1073Y2138*
X1073Y2138*
X1074Y2138*
X1074Y2139*
X1074Y2140*
X1075Y2140*
X1075Y2141*
Y2141*
X1075Y2141*
X1075Y2141*
X1075Y2142*
X1075Y2142*
X1076Y2142*
X1076Y2143*
X1076Y2143*
X1076Y2144*
X1076Y2145*
X1076Y2146*
Y2146*
Y2146*
Y2146*
Y2147*
X1076Y2147*
Y2147*
X1076Y2148*
X1076Y2148*
X1076Y2149*
X1076Y2150*
X1075Y2151*
X1075Y2152*
Y2152*
X1075Y2152*
X1075Y2152*
X1075Y2152*
X1075Y2153*
X1074Y2153*
X1074Y2154*
X1073Y2154*
X1073Y2155*
X1072Y2155*
X1072*
X1072Y2155*
X1072Y2156*
X1072Y2156*
X1072Y2156*
X1071Y2156*
X1071Y2156*
X1070Y2156*
X1069Y2156*
X1069Y2157*
X1068Y2157*
X1068*
X1067Y2157*
X1067*
X1067Y2157*
X1066Y2156*
X1065Y2156*
X1065Y2156*
X1064Y2156*
X1063Y2155*
X1063Y2155*
X1063Y2155*
X1063Y2155*
X1063Y2155*
X1063Y2155*
X1062Y2155*
X1062Y2154*
X1062Y2154*
X1062Y2154*
X1062Y2153*
X1061Y2153*
X1061Y2153*
X1061Y2152*
X1061Y2152*
X1061Y2151*
X1060Y2151*
X1060Y2150*
X1057Y2151*
Y2151*
X1057Y2151*
X1057Y2151*
X1057Y2152*
X1057Y2152*
X1057Y2152*
X1058Y2153*
X1058Y2153*
X1058Y2154*
X1059Y2155*
X1059Y2156*
X1060Y2156*
X1060Y2157*
X1061Y2157*
X1061Y2157*
X1061Y2157*
X1061Y2158*
X1061Y2158*
X1061Y2158*
X1062Y2158*
X1062Y2158*
X1063Y2158*
X1063Y2159*
X1064Y2159*
X1064Y2159*
X1065Y2159*
X1065Y2159*
X1066Y2159*
X1067Y2159*
X1067Y2160*
X1068*
X1068Y2159*
G37*
G36*
X3496Y487D02*
X3496D01*
X3496*
X3496*
X3495Y487*
X3495Y487*
X3495*
X3494Y487*
X3494Y487*
X3493Y487*
X3492Y486*
X3492Y486*
X3492Y486*
X3492Y486*
X3492Y486*
X3491Y486*
X3491Y485*
X3491Y485*
X3491Y485*
X3491Y484*
X3491Y483*
Y483*
X3491Y483*
X3491Y483*
X3491Y482*
X3491Y482*
X3491Y482*
X3491Y481*
X3491Y481*
X3491Y481*
X3492Y481*
X3492Y481*
X3492Y481*
X3492Y480*
X3493Y480*
X3493Y480*
X3493*
X3493Y480*
X3493Y480*
X3494Y480*
X3494Y480*
X3495Y480*
X3495Y480*
X3496*
X3514*
Y476*
X3496*
X3496*
X3496*
X3496*
X3496*
X3495Y476*
X3495*
X3494Y476*
X3494Y476*
X3493Y477*
X3492Y477*
X3491Y477*
X3491*
X3491Y477*
X3491Y477*
X3491Y477*
X3490Y478*
X3490Y478*
X3489Y478*
X3489Y479*
X3489Y479*
X3489Y480*
X3488Y480*
X3488Y480*
X3488Y481*
X3488Y481*
X3488Y482*
X3488Y483*
X3488Y483*
Y484*
X3488Y484*
X3488Y484*
X3488Y485*
X3488Y485*
X3488Y486*
X3489Y487*
X3489Y487*
X3489Y488*
X3489Y488*
X3490Y489*
X3490Y489*
X3490Y489*
X3490Y489*
X3490Y489*
X3490Y489*
X3490Y489*
X3491Y489*
X3491Y489*
X3491Y490*
X3492Y490*
X3492Y490*
X3493Y490*
X3493Y490*
X3494Y490*
X3495Y490*
X3495*
X3496Y487*
G37*
G36*
X3514Y461D02*
Y459D01*
X3497*
Y455*
X3494*
Y459*
X3488*
Y462*
X3494*
Y473*
X3497*
X3514Y461*
G37*
G36*
X1497Y3309D02*
X1497D01*
X1497Y3309*
X1498Y3309*
X1499Y3309*
X1500Y3309*
X1500Y3308*
X1501Y3308*
X1501Y3308*
X1501Y3308*
X1501Y3308*
X1501Y3308*
X1502Y3308*
X1502Y3307*
X1502Y3307*
X1502Y3307*
X1503Y3306*
X1503Y3305*
X1503Y3304*
X1503Y3303*
X1500Y3303*
Y3303*
X1500Y3303*
Y3303*
X1500Y3303*
X1500Y3304*
X1500Y3304*
X1500Y3305*
X1500Y3305*
X1499Y3306*
X1499Y3306*
X1499Y3306*
X1499Y3306*
X1499Y3306*
X1498Y3306*
X1498Y3307*
X1497Y3307*
X1497Y3307*
X1496Y3307*
X1496*
X1496Y3307*
X1495Y3307*
X1495Y3307*
X1495Y3307*
X1494Y3307*
X1494Y3306*
X1494Y3306*
X1494Y3306*
X1493Y3306*
X1493Y3306*
X1493Y3306*
X1493Y3305*
X1492Y3305*
X1492Y3305*
X1492Y3304*
X1492Y3304*
X1492Y3304*
X1492Y3304*
X1491Y3303*
X1491Y3303*
X1491Y3302*
X1491Y3301*
Y3301*
X1491Y3301*
Y3301*
X1491Y3301*
X1491Y3301*
X1491Y3300*
X1490Y3300*
X1490Y3299*
X1490Y3298*
X1490Y3298*
Y3298*
Y3297*
Y3297*
Y3297*
X1490Y3297*
X1490Y3297*
X1491Y3298*
X1491Y3298*
X1491Y3298*
X1492Y3299*
X1492Y3299*
X1493Y3299*
X1493Y3299*
X1493Y3300*
X1494Y3300*
X1494Y3300*
X1494Y3300*
X1495Y3300*
X1496Y3300*
X1496Y3300*
X1497*
X1497Y3300*
X1497Y3300*
X1498Y3300*
X1498Y3300*
X1498Y3300*
X1499Y3300*
X1500Y3300*
X1500Y3299*
X1500Y3299*
X1501Y3299*
X1501Y3298*
X1502Y3298*
X1502Y3298*
X1502Y3298*
X1502Y3298*
X1502Y3298*
X1502Y3297*
X1502Y3297*
X1503Y3297*
X1503Y3296*
X1503Y3296*
X1503Y3296*
X1503Y3295*
X1504Y3295*
X1504Y3294*
X1504Y3293*
X1504Y3293*
X1504Y3292*
Y3292*
Y3292*
Y3292*
X1504Y3291*
X1504Y3291*
X1504Y3291*
X1504Y3290*
X1504Y3290*
X1503Y3289*
X1503Y3288*
X1503Y3288*
X1503Y3287*
X1502Y3287*
X1502Y3286*
X1502Y3286*
X1502Y3286*
X1502Y3286*
X1501Y3286*
X1501Y3285*
X1501Y3285*
X1501Y3285*
X1500Y3285*
X1500Y3285*
X1500Y3284*
X1499Y3284*
X1498Y3284*
X1498Y3284*
X1497Y3283*
X1497Y3283*
X1496Y3283*
X1496*
X1496Y3283*
X1495*
X1495Y3283*
X1494Y3284*
X1494Y3284*
X1493Y3284*
X1492Y3284*
X1491Y3285*
X1491*
X1491Y3285*
X1491Y3285*
X1491Y3285*
X1491Y3285*
X1490Y3286*
X1490Y3286*
X1489Y3287*
X1489Y3288*
X1488Y3289*
Y3289*
X1488Y3289*
X1488Y3289*
X1488Y3289*
X1488Y3289*
X1488Y3290*
X1488Y3290*
X1488Y3290*
X1488Y3291*
X1487Y3291*
X1487Y3292*
X1487Y3293*
X1487Y3293*
X1487Y3294*
X1487Y3295*
Y3296*
Y3296*
Y3296*
Y3296*
Y3297*
X1487Y3297*
Y3297*
X1487Y3298*
X1487Y3299*
X1487Y3300*
X1488Y3301*
X1488Y3302*
X1488Y3303*
X1488Y3304*
Y3304*
X1488Y3304*
X1488Y3304*
X1488Y3304*
X1489Y3304*
X1489Y3305*
X1489Y3305*
X1489Y3306*
X1490Y3307*
X1491Y3307*
X1491Y3308*
X1491*
X1492Y3308*
X1492Y3308*
X1492Y3308*
X1492Y3308*
X1492Y3308*
X1493Y3309*
X1493Y3309*
X1494Y3309*
X1494Y3309*
X1495Y3309*
X1496Y3310*
X1497*
X1497Y3309*
G37*
G36*
X1518D02*
X1519D01*
X1519Y3309*
X1519Y3309*
X1520Y3309*
X1521Y3309*
X1522Y3309*
X1523Y3308*
X1524Y3308*
X1524Y3308*
X1524Y3308*
X1524Y3308*
X1524Y3308*
X1525Y3308*
X1525Y3307*
X1525Y3307*
X1525Y3307*
X1526Y3307*
X1526Y3306*
X1526Y3306*
X1527Y3305*
X1528Y3304*
X1528Y3303*
Y3303*
X1528Y3303*
X1528Y3303*
X1528Y3302*
X1528Y3302*
X1529Y3302*
X1529Y3301*
X1529Y3301*
X1529Y3300*
X1529Y3300*
X1529Y3299*
X1529Y3297*
X1530Y3296*
Y3296*
Y3296*
Y3296*
X1529Y3295*
Y3295*
X1529Y3295*
X1529Y3294*
X1529Y3294*
X1529Y3293*
X1529Y3291*
X1529Y3290*
X1528Y3289*
X1528Y3289*
X1528Y3289*
X1528Y3289*
X1528Y3289*
X1528Y3288*
X1527Y3288*
X1527Y3287*
X1526Y3287*
X1526Y3286*
X1525Y3285*
X1524Y3285*
X1524Y3285*
X1524Y3284*
X1523Y3284*
X1523Y3284*
X1523Y3284*
X1523Y3284*
X1522Y3284*
X1522Y3284*
X1521Y3284*
X1521Y3283*
X1520Y3283*
X1519Y3283*
X1517Y3283*
X1517*
X1517Y3283*
X1516Y3283*
X1516Y3283*
X1516Y3283*
X1515Y3283*
X1514Y3283*
X1513Y3284*
X1513Y3284*
X1512Y3284*
X1511Y3285*
X1511Y3285*
X1511Y3285*
X1511Y3285*
X1511Y3285*
X1511Y3285*
X1510Y3286*
X1510Y3286*
X1510Y3286*
X1510Y3286*
X1509Y3287*
X1509Y3287*
X1509Y3288*
X1508Y3288*
X1508Y3289*
X1508Y3289*
X1508Y3290*
X1507Y3290*
X1511Y3291*
Y3291*
X1511Y3291*
X1511Y3291*
X1511Y3291*
X1511Y3291*
X1511Y3290*
X1511Y3290*
X1512Y3289*
X1512Y3288*
X1513Y3288*
X1513Y3287*
X1513Y3287*
X1514Y3287*
X1514Y3287*
X1514Y3287*
X1515Y3286*
X1516Y3286*
X1517Y3286*
X1518Y3286*
X1518*
X1518Y3286*
X1518*
X1519Y3286*
X1519Y3286*
X1520Y3286*
X1521Y3286*
X1522Y3287*
X1522Y3287*
X1523*
X1523Y3287*
X1523Y3288*
X1523Y3288*
X1524Y3288*
X1524Y3289*
X1524Y3290*
X1525Y3290*
X1525Y3291*
Y3291*
X1525Y3291*
X1525Y3291*
X1525Y3292*
X1525Y3292*
X1526Y3292*
X1526Y3293*
X1526Y3293*
X1526Y3294*
X1526Y3295*
X1526Y3296*
Y3296*
Y3296*
Y3296*
Y3297*
X1526Y3297*
Y3297*
X1526Y3298*
X1526Y3298*
X1526Y3299*
X1526Y3300*
X1525Y3301*
X1525Y3302*
Y3302*
X1525Y3302*
X1525Y3302*
X1525Y3302*
X1525Y3303*
X1524Y3303*
X1524Y3304*
X1523Y3304*
X1523Y3305*
X1522Y3305*
X1522*
X1522Y3305*
X1522Y3306*
X1522Y3306*
X1522Y3306*
X1521Y3306*
X1521Y3306*
X1520Y3306*
X1519Y3306*
X1519Y3307*
X1518Y3307*
X1518*
X1517Y3307*
X1517*
X1517Y3307*
X1516Y3306*
X1515Y3306*
X1515Y3306*
X1514Y3306*
X1513Y3305*
X1513Y3305*
X1513Y3305*
X1513Y3305*
X1513Y3305*
X1513Y3305*
X1512Y3305*
X1512Y3304*
X1512Y3304*
X1512Y3304*
X1512Y3303*
X1511Y3303*
X1511Y3303*
X1511Y3302*
X1511Y3302*
X1511Y3301*
X1510Y3301*
X1510Y3300*
X1507Y3301*
Y3301*
X1507Y3301*
X1507Y3301*
X1507Y3302*
X1507Y3302*
X1507Y3302*
X1508Y3303*
X1508Y3303*
X1508Y3304*
X1509Y3305*
X1509Y3306*
X1510Y3306*
X1510Y3307*
X1511Y3307*
X1511Y3307*
X1511Y3307*
X1511Y3308*
X1511Y3308*
X1511Y3308*
X1512Y3308*
X1512Y3308*
X1513Y3308*
X1513Y3309*
X1514Y3309*
X1514Y3309*
X1515Y3309*
X1515Y3309*
X1516Y3309*
X1517Y3309*
X1517Y3310*
X1518*
X1518Y3309*
G37*
G36*
X1542Y2606D02*
X1543Y2606D01*
X1543Y2606*
X1543Y2606*
X1544Y2606*
X1545Y2606*
X1546Y2605*
X1546Y2605*
X1547Y2605*
X1548Y2604*
X1548Y2604*
X1548Y2604*
X1548Y2604*
X1548Y2604*
X1548Y2604*
X1549Y2603*
X1549Y2603*
X1549Y2603*
X1549Y2603*
X1550Y2602*
X1550Y2602*
X1550Y2601*
X1551Y2601*
X1551Y2600*
X1551Y2600*
X1551Y2599*
X1552Y2599*
X1548Y2598*
Y2598*
X1548Y2598*
X1548Y2598*
X1548Y2598*
X1548Y2598*
X1548Y2599*
X1548Y2599*
X1547Y2600*
X1547Y2601*
X1546Y2601*
X1546Y2602*
X1546Y2602*
X1545Y2602*
X1545Y2602*
X1545Y2602*
X1544Y2603*
X1543Y2603*
X1542Y2603*
X1541Y2603*
X1541*
X1541Y2603*
X1541*
X1540Y2603*
X1540Y2603*
X1539Y2603*
X1538Y2603*
X1537Y2602*
X1537Y2602*
X1536*
X1536Y2602*
X1536Y2601*
X1536Y2601*
X1535Y2601*
X1535Y2600*
X1535Y2599*
X1534Y2599*
X1534Y2598*
Y2598*
X1534Y2598*
X1534Y2598*
X1534Y2597*
X1534Y2597*
X1534Y2597*
X1533Y2596*
X1533Y2596*
X1533Y2595*
X1533Y2594*
X1533Y2593*
Y2593*
Y2593*
Y2593*
Y2592*
X1533Y2592*
Y2592*
X1533Y2591*
X1533Y2591*
X1533Y2590*
X1533Y2589*
X1534Y2588*
X1534Y2587*
Y2587*
X1534Y2587*
X1534Y2587*
X1534Y2587*
X1534Y2586*
X1535Y2586*
X1535Y2585*
X1536Y2585*
X1536Y2584*
X1537Y2584*
X1537*
X1537Y2584*
X1537Y2583*
X1537Y2583*
X1537Y2583*
X1538Y2583*
X1538Y2583*
X1539Y2583*
X1540Y2583*
X1540Y2582*
X1541Y2582*
X1541*
X1542Y2582*
X1542*
X1542Y2582*
X1543Y2583*
X1544Y2583*
X1544Y2583*
X1545Y2584*
X1546Y2584*
X1546Y2584*
X1546Y2584*
X1546Y2584*
X1546Y2584*
X1546Y2584*
X1547Y2584*
X1547Y2585*
X1547Y2585*
X1547Y2585*
X1547Y2586*
X1548Y2586*
X1548Y2586*
X1548Y2587*
X1548Y2587*
X1548Y2588*
X1549Y2588*
X1549Y2589*
X1552Y2588*
Y2588*
X1552Y2588*
X1552Y2588*
X1552Y2587*
X1552Y2587*
X1552Y2587*
X1551Y2586*
X1551Y2586*
X1551Y2585*
X1550Y2584*
X1550Y2583*
X1549Y2583*
X1549Y2582*
X1548Y2582*
X1548Y2582*
X1548Y2582*
X1548Y2582*
X1548Y2581*
X1548Y2581*
X1547Y2581*
X1547Y2581*
X1546Y2581*
X1546Y2580*
X1545Y2580*
X1545Y2580*
X1544Y2580*
X1544Y2580*
X1543Y2580*
X1542Y2580*
X1542Y2580*
X1541*
X1541Y2580*
X1540*
X1540Y2580*
X1540Y2580*
X1539Y2580*
X1538Y2580*
X1537Y2580*
X1536Y2581*
X1535Y2581*
X1535Y2581*
X1535Y2581*
X1535Y2581*
X1535Y2581*
X1534Y2582*
X1534Y2582*
X1534Y2582*
X1534Y2582*
X1533Y2582*
X1533Y2583*
X1533Y2583*
X1532Y2584*
X1531Y2585*
X1531Y2586*
Y2586*
X1531Y2586*
X1531Y2586*
X1531Y2587*
X1531Y2587*
X1530Y2587*
X1530Y2588*
X1530Y2588*
X1530Y2589*
X1530Y2589*
X1530Y2590*
X1530Y2592*
X1530Y2593*
Y2593*
Y2593*
Y2593*
X1530Y2594*
Y2594*
X1530Y2594*
X1530Y2595*
X1530Y2595*
X1530Y2596*
X1530Y2598*
X1531Y2599*
X1531Y2600*
X1531Y2600*
X1531Y2600*
X1531Y2600*
X1531Y2600*
X1531Y2601*
X1532Y2601*
X1532Y2602*
X1533Y2602*
X1534Y2603*
X1534Y2604*
X1535Y2604*
X1535Y2604*
X1535Y2605*
X1536Y2605*
X1536Y2605*
X1536Y2605*
X1536Y2605*
X1537Y2605*
X1537Y2605*
X1538Y2605*
X1538Y2606*
X1539Y2606*
X1540Y2606*
X1542Y2606*
X1542*
X1542Y2606*
G37*
G36*
X1564Y2606D02*
X1564Y2606D01*
X1565Y2606*
X1565Y2606*
X1565Y2605*
X1566Y2605*
X1567Y2605*
X1568Y2605*
X1568Y2604*
X1568Y2604*
X1569Y2604*
X1569Y2604*
X1569Y2604*
X1569Y2604*
X1569Y2603*
X1569Y2603*
X1569Y2603*
X1570Y2602*
X1570Y2602*
X1570Y2601*
X1571Y2600*
X1571Y2599*
X1571Y2599*
Y2599*
Y2599*
Y2599*
X1571Y2598*
X1571Y2598*
X1571Y2597*
X1570Y2597*
X1570Y2596*
X1570Y2596*
X1570Y2596*
X1570Y2596*
X1569Y2595*
X1569Y2595*
X1569Y2595*
X1568Y2594*
X1568Y2594*
X1567Y2594*
X1567*
X1567Y2594*
X1567Y2594*
X1567Y2594*
X1568Y2593*
X1568Y2593*
X1569Y2593*
X1570Y2592*
X1570Y2592*
X1571Y2591*
Y2591*
X1571Y2591*
X1571Y2591*
X1571Y2591*
X1571Y2590*
X1571Y2590*
X1572Y2589*
X1572Y2588*
X1572Y2587*
Y2587*
Y2587*
Y2587*
X1572Y2587*
X1572Y2586*
X1572Y2586*
X1572Y2586*
X1572Y2585*
X1571Y2584*
X1571Y2584*
X1571Y2584*
X1571Y2583*
X1570Y2583*
X1570Y2582*
X1570Y2582*
X1570Y2582*
X1569Y2582*
X1569Y2582*
X1569Y2581*
X1569Y2581*
X1569Y2581*
X1568Y2581*
X1568Y2581*
X1568Y2580*
X1567Y2580*
X1567Y2580*
X1566Y2580*
X1565Y2580*
X1565Y2580*
X1564Y2580*
X1563Y2580*
X1563*
X1563Y2580*
X1562Y2580*
X1562Y2580*
X1562Y2580*
X1561Y2580*
X1560Y2580*
X1560Y2580*
X1559Y2580*
X1559Y2581*
X1558Y2581*
X1558Y2581*
X1557Y2582*
X1557Y2582*
X1557Y2582*
X1557Y2582*
X1557Y2582*
X1557Y2582*
X1557Y2583*
X1556Y2583*
X1556Y2583*
X1556Y2584*
X1556Y2584*
X1555Y2585*
X1555Y2586*
X1555Y2586*
X1555Y2587*
X1555Y2587*
Y2587*
Y2587*
Y2588*
X1555Y2588*
Y2588*
X1555Y2588*
X1555Y2589*
X1555Y2589*
X1556Y2590*
X1556Y2591*
X1556Y2591*
Y2592*
X1556Y2592*
X1556Y2592*
X1557Y2592*
X1557Y2592*
X1558Y2593*
X1558Y2593*
X1559Y2594*
X1560Y2594*
X1560*
X1560Y2594*
X1560Y2594*
X1560Y2594*
X1559Y2594*
X1559Y2594*
X1558Y2595*
X1558Y2595*
X1557Y2595*
X1557Y2596*
X1557Y2596*
X1557Y2596*
X1557Y2596*
X1557Y2597*
X1556Y2597*
X1556Y2598*
X1556Y2598*
X1556Y2599*
Y2599*
Y2599*
Y2599*
X1556Y2600*
X1556Y2600*
X1556Y2600*
X1556Y2601*
X1557Y2601*
X1557Y2602*
X1557Y2603*
X1557Y2603*
X1558Y2603*
X1558Y2604*
X1558Y2604*
X1558Y2604*
X1558Y2604*
X1558Y2604*
X1559Y2604*
X1559Y2604*
X1559Y2605*
X1559Y2605*
X1560Y2605*
X1560Y2605*
X1561Y2605*
X1561Y2605*
X1562Y2606*
X1563Y2606*
X1563Y2606*
X1564*
X1564Y2606*
G37*
G36*
X2936Y486D02*
X2936D01*
X2936*
X2936*
X2935Y486*
X2935Y486*
X2935*
X2934Y485*
X2934Y485*
X2933Y485*
X2932Y485*
X2932Y485*
X2932Y485*
X2932Y485*
X2932Y484*
X2931Y484*
X2931Y484*
X2931Y483*
X2931Y483*
X2931Y482*
X2931Y482*
Y482*
X2931Y481*
X2931Y481*
X2931Y481*
X2931Y480*
X2931Y480*
X2931Y480*
X2931Y480*
X2931Y480*
X2932Y479*
X2932Y479*
X2932Y479*
X2932Y479*
X2933Y479*
X2933Y478*
X2933*
X2933Y478*
X2933Y478*
X2934Y478*
X2934Y478*
X2935Y478*
X2935Y478*
X2936*
X2954*
Y475*
X2936*
X2936*
X2936*
X2936*
X2936*
X2935Y475*
X2935*
X2934Y475*
X2934Y475*
X2933Y475*
X2932Y475*
X2931Y475*
X2931*
X2931Y475*
X2931Y476*
X2931Y476*
X2930Y476*
X2930Y476*
X2929Y477*
X2929Y477*
X2929Y478*
X2929Y478*
X2928Y478*
X2928Y479*
X2928Y479*
X2928Y480*
X2928Y480*
X2928Y481*
X2928Y482*
Y482*
X2928Y482*
X2928Y483*
X2928Y483*
X2928Y484*
X2928Y485*
X2929Y485*
X2929Y486*
X2929Y486*
X2929Y487*
X2930Y487*
X2930Y487*
X2930Y487*
X2930Y487*
X2930Y487*
X2930Y487*
X2930Y488*
X2931Y488*
X2931Y488*
X2931Y488*
X2932Y488*
X2932Y488*
X2933Y488*
X2933Y489*
X2934Y489*
X2935Y489*
X2935*
X2936Y486*
G37*
G36*
X2935Y467D02*
X2935D01*
X2935Y467*
X2935Y467*
X2935Y467*
X2935Y467*
X2934Y467*
X2934Y467*
X2933Y467*
X2933Y466*
X2932Y466*
X2931Y465*
X2931Y465*
X2931Y465*
X2931Y465*
X2931Y464*
X2931Y464*
X2930Y463*
X2930Y463*
X2930Y462*
Y462*
X2930Y462*
X2930Y461*
X2930Y461*
X2931Y460*
X2931Y460*
X2931Y459*
X2932Y458*
X2932Y458*
X2932Y458*
X2932Y458*
X2933Y458*
X2933Y457*
X2934Y457*
X2935Y457*
X2936Y457*
X2936*
X2936*
X2936*
X2936Y457*
X2936Y457*
X2937Y457*
X2937Y457*
X2938Y457*
X2939Y458*
X2939Y458*
X2939Y458*
X2939Y459*
X2940Y459*
X2940Y459*
X2940Y460*
X2940Y460*
X2941Y461*
X2941Y462*
Y462*
X2941Y463*
X2941Y463*
X2940Y463*
X2940Y464*
X2940Y464*
X2943Y464*
Y464*
X2943Y463*
Y463*
X2943Y463*
X2943Y462*
X2943Y462*
X2943Y461*
X2944Y460*
X2944Y460*
Y460*
X2944Y460*
X2944Y459*
X2944Y459*
X2945Y459*
X2945Y459*
X2946Y458*
X2946Y458*
X2947Y458*
X2947*
X2947*
X2947*
X2948*
X2948Y458*
X2948Y458*
X2949Y458*
X2949Y459*
X2950Y459*
X2950Y459*
X2950Y459*
X2950Y459*
X2950Y460*
X2951Y460*
X2951Y460*
X2951Y461*
X2951Y462*
X2951Y462*
Y463*
X2951Y463*
X2951Y463*
X2951Y464*
X2951Y464*
X2950Y465*
X2950Y465*
X2950Y465*
X2950Y465*
X2950Y466*
X2949Y466*
X2949Y466*
X2948Y466*
X2947Y467*
X2947Y467*
X2947Y470*
X2947*
X2947Y470*
X2948Y470*
X2948Y470*
X2948Y470*
X2948Y470*
X2949Y469*
X2950Y469*
X2951Y469*
X2951Y468*
X2952Y467*
X2952Y467*
X2952Y467*
X2952Y467*
X2952Y467*
X2953Y467*
X2953Y467*
X2953Y466*
X2953Y466*
X2953Y465*
X2954Y464*
X2954Y463*
X2954Y463*
Y462*
X2954Y462*
X2954Y461*
X2954Y460*
X2953Y460*
X2953Y459*
X2953Y458*
Y458*
X2953Y458*
X2953Y458*
X2953Y458*
X2952Y457*
X2952Y457*
X2952Y457*
X2951Y456*
X2950Y456*
X2950Y456*
X2950Y456*
X2950Y455*
X2949Y455*
X2949Y455*
X2948Y455*
X2948Y455*
X2947Y455*
X2947*
X2947*
X2947Y455*
X2946Y455*
X2946Y455*
X2945Y455*
X2945Y455*
X2944Y456*
X2944Y456*
X2944Y456*
X2944Y456*
X2943Y456*
X2943Y457*
X2943Y457*
X2942Y458*
X2942Y458*
Y458*
X2942Y458*
X2942Y458*
X2942Y458*
X2942Y458*
X2942Y457*
X2941Y456*
X2941Y456*
X2940Y455*
X2940Y455*
X2940Y455*
X2940Y455*
X2939Y454*
X2939Y454*
X2938Y454*
X2937Y454*
X2937Y454*
X2936Y454*
X2936*
X2936*
X2935*
X2935Y454*
X2935Y454*
X2935Y454*
X2934Y454*
X2934Y454*
X2933Y454*
X2932Y454*
X2932Y455*
X2931Y455*
X2931Y455*
X2930Y456*
X2930Y456*
X2930Y456*
X2930Y456*
X2930Y456*
X2930Y456*
X2929Y457*
X2929Y457*
X2929Y457*
X2929Y458*
X2929Y458*
X2928Y459*
X2928Y459*
X2928Y460*
X2928Y460*
X2928Y461*
X2928Y462*
X2928Y462*
Y463*
X2928Y463*
X2928Y463*
X2928Y463*
X2928Y464*
X2928Y464*
X2928Y465*
X2929Y466*
X2929Y466*
X2929Y467*
X2929Y467*
X2930Y468*
X2930Y468*
X2930Y468*
X2930Y468*
X2930Y468*
X2930Y468*
X2931Y469*
X2931Y469*
X2931Y469*
X2931Y469*
X2932Y469*
X2933Y470*
X2934Y470*
X2934Y470*
X2935Y470*
X2935Y467*
G37*
G36*
X776Y2242D02*
X776Y2242D01*
X777Y2242*
X777Y2241*
X777Y2241*
X777Y2241*
X778Y2241*
X778Y2240*
X779Y2240*
X779Y2240*
X780Y2239*
X780Y2239*
X781Y2238*
X782Y2238*
X782Y2237*
X783Y2237*
X783Y2237*
X783Y2237*
X784Y2237*
X784Y2237*
X784Y2236*
X785Y2236*
X785Y2236*
X786Y2236*
X787Y2235*
X787Y2235*
X788Y2235*
X789Y2234*
X790Y2234*
X792Y2233*
X792*
X792Y2233*
X792Y2233*
X793Y2233*
X793Y2233*
X793Y2233*
X794Y2233*
X794Y2233*
X795Y2233*
X795Y2233*
X796Y2232*
X798Y2232*
X799Y2232*
Y2229*
X799*
X799*
X799*
X799Y2229*
X798*
X798Y2229*
X797Y2229*
X797Y2229*
X797Y2229*
X796Y2229*
X795Y2229*
X795Y2229*
X794Y2229*
X793Y2230*
X792Y2230*
X792*
X792Y2230*
X791Y2230*
X791Y2230*
X791Y2230*
X790Y2230*
X790Y2231*
X789Y2231*
X789Y2231*
X788Y2231*
X787Y2232*
X785Y2233*
X784Y2233*
X784Y2233*
X783Y2233*
X783Y2233*
X783Y2234*
X783Y2234*
X782Y2234*
X782Y2234*
X781Y2235*
X780Y2235*
X779Y2236*
X778Y2237*
X777Y2238*
Y2225*
X774*
Y2242*
X776*
X776Y2242*
G37*
G36*
X791Y2222D02*
X791Y2222D01*
X792Y2222*
X792Y2222*
X792Y2222*
X793Y2221*
X793Y2221*
X794Y2221*
X795Y2220*
X796Y2220*
X796Y2219*
X797Y2219*
X797Y2218*
X797Y2218*
X797Y2218*
X798Y2218*
X798Y2218*
X798Y2218*
X798Y2217*
X798Y2217*
X798Y2216*
X799Y2216*
X799Y2215*
X799Y2215*
X799Y2214*
X799Y2214*
X799Y2213*
X799Y2212*
X800Y2212*
Y2211*
X799Y2211*
Y2210*
X799Y2210*
X799Y2210*
X799Y2209*
X799Y2208*
X799Y2207*
X798Y2206*
X798Y2205*
X798Y2205*
X798Y2205*
X798Y2205*
X798Y2205*
X798Y2204*
X797Y2204*
X797Y2204*
X797Y2204*
X797Y2203*
X796Y2203*
X796Y2203*
X795Y2202*
X794Y2201*
X793Y2201*
X793*
X793Y2201*
X793Y2201*
X792Y2201*
X792Y2201*
X792Y2200*
X791Y2200*
X791Y2200*
X790Y2200*
X790Y2200*
X789Y2200*
X787Y2200*
X786Y2200*
X786*
X786*
X786*
X785Y2200*
X785*
X785Y2200*
X784Y2200*
X784Y2200*
X783Y2200*
X781Y2200*
X780Y2201*
X779Y2201*
X779Y2201*
X779Y2201*
X779Y2201*
X779Y2201*
X778Y2201*
X778Y2202*
X777Y2202*
X777Y2203*
X776Y2203*
X775Y2204*
X775Y2205*
X775Y2205*
X774Y2205*
X774Y2206*
X774Y2206*
X774Y2206*
X774Y2206*
X774Y2207*
X774Y2207*
X774Y2208*
X773Y2208*
X773Y2209*
X773Y2210*
X773Y2212*
Y2212*
X773Y2212*
X773Y2213*
X773Y2213*
X773Y2213*
X773Y2214*
X773Y2215*
X774Y2216*
X774Y2216*
X774Y2217*
X775Y2218*
X775Y2218*
X775Y2218*
X775Y2218*
X775Y2218*
X775Y2218*
X776Y2219*
X776Y2219*
X776Y2219*
X776Y2219*
X777Y2220*
X777Y2220*
X778Y2220*
X778Y2221*
X779Y2221*
X779Y2221*
X780Y2221*
X780Y2222*
X781Y2218*
X781*
X781Y2218*
X781Y2218*
X781Y2218*
X781Y2218*
X780Y2218*
X780Y2218*
X779Y2217*
X778Y2217*
X778Y2216*
X777Y2216*
X777Y2216*
X777Y2215*
X777Y2215*
X777Y2215*
X776Y2214*
X776Y2213*
X776Y2212*
X776Y2211*
Y2211*
X776Y2211*
Y2211*
X776Y2210*
X776Y2210*
X776Y2209*
X776Y2208*
X777Y2207*
X777Y2207*
Y2206*
X777Y2206*
X778Y2206*
X778Y2206*
X778Y2205*
X779Y2205*
X780Y2205*
X780Y2204*
X781Y2204*
X781*
X781Y2204*
X781Y2204*
X782Y2204*
X782Y2204*
X782Y2203*
X783Y2203*
X783Y2203*
X784Y2203*
X785Y2203*
X786Y2203*
X786*
X786*
X786*
X787*
X787Y2203*
X787*
X788Y2203*
X788Y2203*
X789Y2203*
X790Y2203*
X791Y2204*
X792Y2204*
X792*
X792Y2204*
X792Y2204*
X792Y2204*
X793Y2204*
X793Y2205*
X794Y2205*
X794Y2206*
X795Y2206*
X795Y2207*
Y2207*
X795Y2207*
X796Y2207*
X796Y2207*
X796Y2207*
X796Y2208*
X796Y2208*
X796Y2209*
X796Y2210*
X797Y2210*
X797Y2211*
Y2211*
X797Y2212*
Y2212*
X797Y2212*
X796Y2213*
X796Y2214*
X796Y2214*
X796Y2215*
X795Y2216*
X795Y2216*
X795Y2216*
X795Y2216*
X795Y2216*
X795Y2216*
X795Y2217*
X794Y2217*
X794Y2217*
X794Y2217*
X793Y2217*
X793Y2218*
X793Y2218*
X792Y2218*
X792Y2218*
X791Y2218*
X791Y2219*
X790Y2219*
X791Y2222*
X791*
X791Y2222*
G37*
G36*
X1523Y2216D02*
X1529D01*
Y2213*
X1523*
Y2202*
X1520*
X1503Y2214*
Y2216*
X1520*
Y2220*
X1523*
Y2216*
G37*
G36*
X1521Y2200D02*
X1521Y2200D01*
X1522Y2200*
X1522Y2200*
X1522Y2200*
X1523Y2199*
X1523Y2199*
X1524Y2199*
X1525Y2198*
X1526Y2198*
X1526Y2197*
X1527Y2197*
X1527Y2196*
X1527Y2196*
X1527Y2196*
X1528Y2196*
X1528Y2196*
X1528Y2195*
X1528Y2195*
X1528Y2195*
X1528Y2194*
X1529Y2194*
X1529Y2193*
X1529Y2193*
X1529Y2192*
X1529Y2192*
X1529Y2191*
X1529Y2190*
X1530Y2189*
Y2189*
X1529Y2189*
Y2188*
X1529Y2188*
X1529Y2188*
X1529Y2187*
X1529Y2186*
X1529Y2185*
X1528Y2184*
X1528Y2183*
X1528Y2183*
X1528Y2183*
X1528Y2183*
X1528Y2182*
X1528Y2182*
X1527Y2182*
X1527Y2182*
X1527Y2182*
X1527Y2181*
X1526Y2181*
X1526Y2181*
X1525Y2180*
X1524Y2179*
X1523Y2179*
X1523*
X1523Y2179*
X1523Y2179*
X1522Y2179*
X1522Y2178*
X1522Y2178*
X1521Y2178*
X1521Y2178*
X1520Y2178*
X1520Y2178*
X1519Y2178*
X1517Y2178*
X1516Y2177*
X1516*
X1516*
X1516*
X1515Y2177*
X1515*
X1515Y2178*
X1514Y2178*
X1514Y2178*
X1513Y2178*
X1511Y2178*
X1510Y2178*
X1509Y2179*
X1509Y2179*
X1509Y2179*
X1509Y2179*
X1509Y2179*
X1508Y2179*
X1508Y2180*
X1507Y2180*
X1507Y2181*
X1506Y2181*
X1505Y2182*
X1505Y2183*
X1505Y2183*
X1504Y2183*
X1504Y2184*
X1504Y2184*
X1504Y2184*
X1504Y2184*
X1504Y2185*
X1504Y2185*
X1504Y2186*
X1503Y2186*
X1503Y2187*
X1503Y2188*
X1503Y2190*
Y2190*
X1503Y2190*
X1503Y2190*
X1503Y2191*
X1503Y2191*
X1503Y2192*
X1503Y2193*
X1504Y2194*
X1504Y2194*
X1504Y2195*
X1505Y2195*
X1505Y2196*
X1505Y2196*
X1505Y2196*
X1505Y2196*
X1505Y2196*
X1506Y2197*
X1506Y2197*
X1506Y2197*
X1506Y2197*
X1507Y2198*
X1507Y2198*
X1508Y2198*
X1508Y2199*
X1509Y2199*
X1509Y2199*
X1510Y2199*
X1510Y2200*
X1511Y2196*
X1511*
X1511Y2196*
X1511Y2196*
X1511Y2196*
X1511Y2196*
X1510Y2196*
X1510Y2196*
X1509Y2195*
X1508Y2195*
X1508Y2194*
X1507Y2194*
X1507Y2194*
X1507Y2193*
X1507Y2193*
X1507Y2193*
X1506Y2192*
X1506Y2191*
X1506Y2190*
X1506Y2189*
Y2189*
X1506Y2189*
Y2189*
X1506Y2188*
X1506Y2188*
X1506Y2187*
X1506Y2186*
X1507Y2185*
X1507Y2184*
Y2184*
X1507Y2184*
X1508Y2184*
X1508Y2184*
X1508Y2183*
X1509Y2183*
X1510Y2182*
X1510Y2182*
X1511Y2182*
X1511*
X1511Y2182*
X1511Y2182*
X1512Y2182*
X1512Y2182*
X1512Y2181*
X1513Y2181*
X1513Y2181*
X1514Y2181*
X1515Y2181*
X1516Y2181*
X1516*
X1516*
X1516*
X1517*
X1517Y2181*
X1517*
X1518Y2181*
X1518Y2181*
X1519Y2181*
X1520Y2181*
X1521Y2182*
X1522Y2182*
X1522*
X1522Y2182*
X1522Y2182*
X1522Y2182*
X1523Y2182*
X1523Y2183*
X1524Y2183*
X1524Y2184*
X1525Y2184*
X1525Y2185*
Y2185*
X1525Y2185*
X1526Y2185*
X1526Y2185*
X1526Y2185*
X1526Y2186*
X1526Y2186*
X1526Y2187*
X1526Y2188*
X1527Y2188*
X1527Y2189*
Y2189*
X1527Y2190*
Y2190*
X1527Y2190*
X1526Y2191*
X1526Y2192*
X1526Y2192*
X1526Y2193*
X1525Y2194*
X1525Y2194*
X1525Y2194*
X1525Y2194*
X1525Y2194*
X1525Y2194*
X1525Y2194*
X1524Y2195*
X1524Y2195*
X1524Y2195*
X1523Y2195*
X1523Y2196*
X1523Y2196*
X1522Y2196*
X1522Y2196*
X1521Y2196*
X1521Y2197*
X1520Y2197*
X1521Y2200*
X1521*
X1521Y2200*
G37*
G36*
X3186Y486D02*
X3186D01*
X3186*
X3186*
X3185Y486*
X3185Y486*
X3185*
X3184Y485*
X3184Y485*
X3183Y485*
X3182Y485*
X3182Y485*
X3182Y485*
X3182Y485*
X3182Y484*
X3181Y484*
X3181Y484*
X3181Y483*
X3181Y483*
X3181Y482*
X3181Y482*
Y482*
X3181Y481*
X3181Y481*
X3181Y481*
X3181Y480*
X3181Y480*
X3181Y480*
X3181Y480*
X3181Y480*
X3182Y479*
X3182Y479*
X3182Y479*
X3182Y479*
X3183Y479*
X3183Y478*
X3183*
X3183Y478*
X3183Y478*
X3184Y478*
X3184Y478*
X3185Y478*
X3185Y478*
X3186*
X3204*
Y475*
X3186*
X3186*
X3186*
X3186*
X3186*
X3185Y475*
X3185*
X3184Y475*
X3184Y475*
X3183Y475*
X3182Y475*
X3181Y475*
X3181*
X3181Y475*
X3181Y476*
X3181Y476*
X3180Y476*
X3180Y476*
X3179Y477*
X3179Y477*
X3179Y478*
X3179Y478*
X3178Y478*
X3178Y479*
X3178Y479*
X3178Y480*
X3178Y480*
X3178Y481*
X3178Y482*
Y482*
X3178Y482*
X3178Y483*
X3178Y483*
X3178Y484*
X3178Y485*
X3179Y485*
X3179Y486*
X3179Y486*
X3179Y487*
X3180Y487*
X3180Y487*
X3180Y487*
X3180Y487*
X3180Y487*
X3180Y487*
X3180Y488*
X3181Y488*
X3181Y488*
X3181Y488*
X3182Y488*
X3182Y488*
X3183Y488*
X3183Y489*
X3184Y489*
X3185Y489*
X3185*
X3186Y486*
G37*
G36*
X3179Y471D02*
X3179Y471D01*
X3180Y471*
X3180Y471*
X3180Y470*
X3180*
X3180Y470*
X3181Y470*
X3181Y470*
X3181Y470*
X3182Y470*
X3183Y469*
X3183Y469*
X3184Y468*
X3184*
X3184Y468*
X3184Y468*
X3184Y468*
X3185Y467*
X3185Y467*
X3186Y466*
X3187Y465*
X3188Y464*
X3188Y464*
X3188Y464*
X3188Y464*
X3188Y464*
X3188Y463*
X3189Y463*
X3189Y462*
X3190Y462*
X3190Y461*
X3191Y460*
X3192Y460*
X3192Y459*
X3193Y459*
X3193Y459*
X3193*
X3193Y459*
X3193Y458*
X3193Y458*
X3194Y458*
X3194Y458*
X3195Y458*
X3195Y457*
X3196Y457*
X3197Y457*
X3197*
X3197*
X3197Y457*
X3197Y457*
X3198Y457*
X3198Y457*
X3199Y458*
X3199Y458*
X3200Y458*
X3200Y459*
X3200Y459*
X3200Y459*
X3201Y459*
X3201Y460*
X3201Y460*
X3201Y461*
X3201Y462*
Y462*
X3201Y462*
X3201Y463*
X3201Y463*
X3201Y464*
X3201Y464*
X3200Y465*
X3200Y466*
X3200Y466*
X3200Y466*
X3199Y466*
X3199Y466*
X3198Y467*
X3198Y467*
X3197Y467*
X3196Y467*
X3196Y470*
X3196*
X3197Y470*
X3197*
X3197Y470*
X3197Y470*
X3198Y470*
X3198Y470*
X3198Y470*
X3199Y469*
X3200Y469*
X3201Y469*
X3201Y468*
X3202Y468*
X3202Y468*
X3202Y468*
X3202Y468*
X3202Y468*
X3202Y467*
X3202Y467*
X3203Y467*
X3203Y467*
X3203Y466*
X3203Y466*
X3203Y465*
X3203Y465*
X3204Y464*
X3204Y464*
X3204Y463*
X3204Y463*
X3204Y462*
Y462*
X3204Y461*
X3204Y461*
X3204Y461*
X3204Y460*
X3204Y460*
X3203Y459*
X3203Y458*
X3203Y457*
X3202Y457*
X3202Y456*
X3202Y456*
X3202Y456*
X3202Y456*
X3202Y456*
X3201Y456*
X3201Y456*
X3201Y455*
X3201Y455*
X3200Y455*
X3200Y455*
X3199Y454*
X3198Y454*
X3198Y454*
X3197Y454*
X3197Y454*
X3197*
X3196*
X3196Y454*
X3196Y454*
X3195Y454*
X3195Y454*
X3194Y454*
X3194Y455*
X3194Y455*
X3193Y455*
X3193Y455*
X3193Y455*
X3192Y455*
X3192Y456*
X3191Y456*
X3191Y457*
X3190Y457*
X3190Y457*
X3190Y457*
X3190Y457*
X3190Y457*
X3189Y458*
X3189Y458*
X3189Y458*
X3188Y459*
X3188Y459*
X3188Y460*
X3187Y460*
X3187Y461*
X3186Y461*
X3186Y461*
X3186Y462*
X3186Y462*
X3186Y462*
X3186Y462*
X3185Y462*
X3185Y463*
X3184Y464*
X3184Y464*
X3183Y465*
X3183Y465*
X3183Y465*
X3183Y465*
X3183Y465*
X3183Y465*
X3182Y466*
X3182Y466*
X3182Y466*
X3181Y466*
Y454*
X3178*
Y471*
X3178*
X3178*
X3179*
X3179Y471*
G37*
G36*
X814Y2368D02*
X814D01*
X814Y2368*
X815Y2368*
X815Y2368*
X816Y2367*
X818Y2367*
X819Y2367*
X820Y2366*
X820Y2366*
X820Y2366*
X820Y2366*
X820Y2366*
X821Y2366*
X821Y2366*
X822Y2365*
X822Y2365*
X823Y2364*
X824Y2363*
X824Y2362*
X824Y2362*
X825Y2362*
X825Y2362*
X825Y2361*
X825Y2361*
X825Y2361*
X825Y2360*
X825Y2360*
X825Y2360*
X826Y2359*
X826Y2358*
X826Y2357*
X826Y2356*
Y2355*
X826Y2355*
X826Y2355*
X826Y2354*
X826Y2354*
X826Y2353*
X826Y2352*
X825Y2351*
X825Y2351*
X825Y2350*
X824Y2350*
X824Y2349*
X824Y2349*
X824Y2349*
X824Y2349*
X824Y2349*
X823Y2349*
X823Y2348*
X823Y2348*
X823Y2348*
X822Y2348*
X822Y2347*
X821Y2347*
X821Y2347*
X820Y2346*
X820Y2346*
X819Y2346*
X819Y2346*
X818Y2349*
X818*
X818Y2349*
X818Y2349*
X818Y2349*
X818Y2349*
X819Y2349*
X819Y2350*
X820Y2350*
X821Y2350*
X821Y2351*
X822Y2352*
X822Y2352*
X822Y2352*
X822Y2352*
X822Y2353*
X823Y2353*
X823Y2354*
X823Y2355*
X823Y2356*
Y2356*
X823Y2356*
Y2357*
X823Y2357*
X823Y2358*
X823Y2358*
X823Y2359*
X822Y2360*
X822Y2361*
Y2361*
X822Y2361*
X821Y2361*
X821Y2361*
X821Y2362*
X820Y2362*
X819Y2363*
X819Y2363*
X818Y2364*
X818*
X818Y2364*
X818Y2364*
X817Y2364*
X817Y2364*
X817Y2364*
X816Y2364*
X816Y2364*
X815Y2364*
X814Y2364*
X813Y2364*
X813*
X813*
X813*
X812*
X812Y2364*
X812*
X811Y2364*
X811Y2364*
X810Y2364*
X809Y2364*
X808Y2364*
X807Y2363*
X807*
X807Y2363*
X807Y2363*
X807Y2363*
X806Y2363*
X806Y2363*
X805Y2362*
X805Y2362*
X804Y2361*
X804Y2360*
Y2360*
X804Y2360*
X803Y2360*
X803Y2360*
X803Y2360*
X803Y2360*
X803Y2359*
X803Y2358*
X803Y2358*
X802Y2357*
X802Y2356*
Y2356*
X802Y2356*
Y2355*
X802Y2355*
X803Y2354*
X803Y2354*
X803Y2353*
X804Y2352*
X804Y2352*
X804Y2351*
X804Y2351*
X804Y2351*
X804Y2351*
X804Y2351*
X804Y2351*
X805Y2351*
X805Y2350*
X805Y2350*
X806Y2350*
X806Y2350*
X806Y2349*
X807Y2349*
X807Y2349*
X808Y2349*
X808Y2349*
X809Y2349*
X808Y2345*
X808*
X808Y2345*
X808Y2345*
X807Y2345*
X807Y2345*
X807Y2346*
X806Y2346*
X806Y2346*
X805Y2347*
X804Y2347*
X803Y2348*
X803Y2348*
X802Y2348*
X802Y2349*
X802Y2349*
X802Y2349*
X802Y2349*
X801Y2349*
X801Y2350*
X801Y2350*
X801Y2350*
X801Y2351*
X800Y2351*
X800Y2352*
X800Y2352*
X800Y2353*
X800Y2354*
X800Y2354*
X800Y2355*
X800Y2356*
Y2356*
X800Y2356*
Y2357*
X800Y2357*
X800Y2358*
X800Y2358*
X800Y2359*
X800Y2360*
X801Y2361*
X801Y2362*
X801Y2362*
X801Y2363*
X801Y2363*
X801Y2363*
X802Y2363*
X802Y2363*
X802Y2363*
X802Y2364*
X802Y2364*
X803Y2364*
X803Y2365*
X804Y2365*
X805Y2366*
X806Y2366*
X806*
X806Y2367*
X806Y2367*
X807Y2367*
X807Y2367*
X807Y2367*
X808Y2367*
X808Y2367*
X809Y2367*
X809Y2367*
X810Y2368*
X812Y2368*
X813Y2368*
X813*
X813*
X813*
X814Y2368*
G37*
G36*
X813Y2342D02*
X813D01*
X814Y2342*
X814Y2342*
X815Y2342*
X816Y2342*
X817Y2342*
X818Y2342*
X819Y2342*
X820Y2341*
X820Y2341*
X821Y2341*
X822Y2340*
X823Y2340*
X823Y2340*
X823Y2340*
X823Y2339*
X823Y2339*
X823Y2339*
X824Y2339*
X824Y2338*
X824Y2338*
X824Y2338*
X825Y2337*
X825Y2336*
X825Y2336*
X825Y2335*
X826Y2335*
X826Y2334*
X826Y2333*
Y2333*
X826Y2333*
Y2332*
X826Y2332*
X825Y2331*
X825Y2331*
X825Y2330*
X825Y2329*
X824Y2329*
X824Y2328*
X824Y2328*
X824Y2328*
X824Y2328*
X824Y2328*
X823Y2328*
X823Y2328*
X823Y2327*
X822Y2327*
X821Y2326*
X820Y2326*
X819Y2326*
X819Y2329*
X819*
X819Y2329*
X819Y2329*
X820Y2329*
X820Y2329*
X821Y2329*
X821Y2330*
X821Y2330*
X822Y2330*
X822Y2330*
X822Y2330*
X822Y2331*
X822Y2331*
X823Y2332*
X823Y2332*
X823Y2333*
X823Y2333*
Y2334*
X823Y2334*
X823Y2334*
X823Y2335*
X823Y2335*
X823Y2336*
X822Y2336*
X822Y2336*
X822Y2336*
X822Y2337*
X821Y2337*
X821Y2337*
X820Y2338*
X820Y2338*
X819Y2338*
X819*
X819Y2338*
X819Y2338*
X819Y2339*
X818Y2339*
X818Y2339*
X818Y2339*
X818Y2339*
X817Y2339*
X817Y2339*
X816Y2339*
X816Y2339*
X815Y2339*
X814Y2339*
X814Y2339*
X813*
X813Y2339*
X813Y2339*
X814Y2339*
X814Y2338*
X815Y2338*
X815Y2338*
X815Y2337*
X816Y2337*
Y2336*
X816Y2336*
X816Y2336*
X816Y2336*
X816Y2335*
X816Y2335*
X816Y2334*
X817Y2334*
X817Y2333*
Y2333*
X817Y2333*
X816Y2332*
X816Y2332*
X816Y2332*
X816Y2331*
X816Y2330*
X816Y2330*
X816Y2329*
X815Y2329*
X815Y2329*
X815Y2328*
X814Y2328*
X814Y2328*
X814Y2328*
X814Y2327*
X814Y2327*
X814Y2327*
X813Y2327*
X813Y2327*
X813Y2327*
X812Y2326*
X812Y2326*
X811Y2326*
X811Y2326*
X810Y2326*
X810Y2326*
X809Y2325*
X808Y2325*
X808*
X808*
X808*
X808*
X808Y2325*
X807*
X807Y2326*
X806Y2326*
X805Y2326*
X805Y2326*
X804Y2327*
X804*
X804Y2327*
X804Y2327*
X803Y2327*
X803Y2327*
X803Y2327*
X802Y2328*
X802Y2328*
X801Y2329*
X801Y2329*
Y2329*
X801Y2329*
X800Y2330*
X800Y2330*
X800Y2330*
X800Y2331*
X800Y2331*
X800Y2332*
X800Y2333*
X800Y2334*
Y2334*
X800Y2334*
Y2334*
X800Y2335*
X800Y2335*
X800Y2335*
X800Y2336*
X800Y2336*
X800Y2337*
X800Y2337*
X801Y2338*
X801Y2338*
X801Y2339*
X802Y2339*
X802Y2340*
X802Y2340*
X803Y2340*
X803Y2340*
X803Y2340*
X803Y2341*
X804Y2341*
X804Y2341*
X805Y2341*
X805Y2341*
X806Y2342*
X807Y2342*
X808Y2342*
X809Y2342*
X810Y2342*
X811Y2342*
X812Y2342*
X812*
X812*
X812*
X812*
X813Y2342*
G37*
G36*
X4335Y2565D02*
X4327Y2560D01*
X4327*
X4327Y2560*
X4327Y2560*
X4327Y2560*
X4327Y2560*
X4327Y2560*
X4326Y2560*
X4325Y2559*
X4325Y2559*
X4324Y2558*
X4323Y2558*
X4323*
X4323Y2558*
X4323Y2558*
X4323Y2558*
X4324Y2557*
X4324Y2557*
X4324Y2557*
X4325Y2557*
X4326Y2556*
X4327Y2555*
X4328Y2555*
X4335Y2550*
Y2546*
X4320Y2556*
X4310*
Y2560*
X4320*
X4335Y2570*
Y2565*
G37*
G36*
X4329Y2542D02*
X4329Y2542D01*
X4329Y2542*
X4329Y2541*
X4329Y2541*
X4329Y2541*
X4330Y2540*
X4330Y2540*
X4331Y2539*
X4331Y2538*
X4332Y2537*
X4332Y2537*
X4332Y2537*
X4332Y2537*
X4332Y2537*
X4332Y2537*
X4333Y2536*
X4333Y2536*
X4334Y2535*
X4335Y2535*
X4335Y2534*
Y2532*
X4310*
Y2536*
X4330*
X4329Y2536*
X4329Y2536*
X4329Y2536*
X4329Y2536*
X4329Y2537*
X4328Y2537*
X4328Y2538*
X4327Y2539*
Y2539*
X4327Y2539*
X4327Y2539*
X4327Y2539*
X4327Y2540*
X4326Y2540*
X4326Y2541*
X4326Y2541*
X4326Y2542*
X4329*
Y2542*
G37*
G36*
X2967Y2991D02*
X2968Y2991D01*
X2968Y2991*
X2968Y2991*
X2969Y2991*
X2970Y2990*
X2971Y2990*
X2971Y2990*
X2972Y2990*
X2972Y2989*
X2973Y2989*
X2973Y2989*
X2973Y2989*
X2973Y2989*
X2973Y2989*
X2974Y2988*
X2974Y2988*
X2974Y2988*
X2974Y2987*
X2975Y2987*
X2975Y2986*
X2975Y2986*
X2975Y2985*
X2976Y2984*
X2976Y2984*
X2976Y2983*
X2976Y2982*
Y2982*
X2976Y2982*
X2976Y2981*
X2976Y2981*
X2976Y2981*
X2976Y2980*
X2975Y2979*
X2975Y2978*
X2975Y2978*
X2975Y2977*
X2974Y2977*
X2974Y2976*
X2974Y2976*
X2974Y2976*
X2974Y2976*
X2974Y2976*
X2973Y2976*
X2973Y2976*
X2973Y2976*
X2973Y2975*
X2972Y2975*
X2972Y2975*
X2971Y2975*
X2970Y2974*
X2969Y2974*
X2969Y2974*
X2969Y2977*
X2969*
X2969*
X2969Y2977*
X2969Y2977*
X2969Y2977*
X2970Y2978*
X2970Y2978*
X2971Y2978*
X2972Y2979*
X2972Y2979*
X2972Y2979*
X2972Y2979*
X2973Y2979*
X2973Y2980*
X2973Y2980*
X2973Y2981*
X2973Y2982*
X2973Y2982*
Y2982*
X2973Y2983*
X2973Y2983*
X2973Y2984*
X2973Y2984*
X2973Y2985*
X2972Y2985*
X2972Y2986*
X2972Y2986*
X2972Y2986*
X2972Y2986*
X2971Y2986*
X2971Y2986*
X2971Y2987*
X2970Y2987*
X2970Y2987*
X2969Y2987*
X2968Y2988*
X2968Y2988*
X2967*
X2967*
X2967*
X2967*
X2967Y2988*
X2966*
X2966Y2988*
X2966Y2987*
X2965Y2987*
X2964Y2987*
X2964Y2987*
X2963Y2986*
X2963*
X2963Y2986*
X2963Y2986*
X2962Y2986*
X2962Y2985*
X2962Y2985*
X2962Y2984*
X2961Y2983*
X2961Y2983*
Y2982*
X2961Y2982*
X2961Y2981*
X2961Y2981*
X2962Y2980*
X2962Y2980*
X2962Y2979*
X2962Y2979*
X2962Y2979*
X2962Y2979*
X2962Y2979*
X2963Y2978*
X2963Y2978*
X2963Y2978*
X2964Y2978*
X2963Y2975*
X2950Y2977*
Y2990*
X2953*
Y2980*
X2960Y2978*
X2960Y2978*
X2960Y2978*
X2960Y2978*
X2960Y2979*
X2960Y2979*
X2960Y2979*
X2959Y2980*
X2959Y2980*
X2959Y2981*
X2959Y2982*
X2959Y2983*
Y2983*
X2959Y2984*
X2959Y2984*
X2959Y2984*
X2959Y2985*
X2959Y2985*
X2959Y2986*
X2959Y2986*
X2960Y2987*
X2960Y2987*
X2960Y2988*
X2960Y2988*
X2961Y2989*
X2961Y2989*
X2961Y2989*
X2961Y2989*
X2961Y2989*
X2962Y2989*
X2962Y2989*
X2962Y2990*
X2962Y2990*
X2963Y2990*
X2963Y2990*
X2964Y2990*
X2964Y2991*
X2965Y2991*
X2966Y2991*
X2966Y2991*
X2967Y2991*
X2967*
X2967*
X2967*
X2967Y2991*
G37*
G36*
X2966Y2970D02*
X2966D01*
X2966Y2970*
X2967Y2970*
X2968Y2969*
X2969Y2969*
X2970Y2969*
X2970Y2969*
X2971Y2969*
X2971*
X2971Y2969*
X2971Y2969*
X2971Y2969*
X2972Y2968*
X2972Y2968*
X2973Y2968*
X2973Y2967*
X2974Y2966*
X2975Y2966*
Y2966*
X2975Y2965*
X2975Y2965*
X2975Y2965*
X2975Y2965*
X2975Y2965*
X2975Y2964*
X2975Y2964*
X2975Y2964*
X2976Y2963*
X2976Y2963*
X2976Y2962*
X2976Y2962*
X2976Y2961*
X2976Y2960*
Y2959*
X2976Y2959*
Y2959*
X2976Y2958*
X2976Y2958*
X2976Y2958*
X2976Y2957*
X2975Y2956*
X2975Y2955*
X2975Y2954*
Y2954*
X2975Y2954*
X2975Y2953*
X2975Y2953*
X2974Y2953*
X2974Y2952*
X2973Y2952*
X2973Y2951*
X2972Y2951*
X2971Y2950*
X2971*
X2971Y2950*
X2971Y2950*
X2971Y2950*
X2970Y2950*
X2970Y2950*
X2970Y2950*
X2969Y2950*
X2969Y2950*
X2969Y2950*
X2968Y2950*
X2967Y2950*
X2967Y2950*
X2966Y2950*
X2965Y2950*
X2965*
X2950*
Y2953*
X2965*
X2965*
X2965*
X2965*
X2965*
X2966Y2953*
X2966*
X2967Y2953*
X2967Y2953*
X2968Y2953*
X2969Y2953*
X2969Y2953*
X2970Y2953*
X2970Y2954*
X2970Y2954*
X2970Y2954*
X2971Y2954*
X2971Y2954*
X2971Y2955*
X2972Y2955*
X2972Y2956*
X2972Y2956*
X2972Y2956*
X2972Y2956*
X2972Y2957*
X2973Y2957*
X2973Y2958*
X2973Y2959*
X2973Y2959*
Y2960*
X2973Y2960*
Y2960*
X2973Y2961*
X2973Y2961*
X2972Y2962*
X2972Y2963*
X2972Y2964*
X2972Y2964*
X2971Y2965*
X2971Y2965*
X2971Y2965*
X2971Y2965*
X2971Y2965*
X2971Y2965*
X2970Y2965*
X2970Y2965*
X2970Y2965*
X2969Y2966*
X2969Y2966*
X2968Y2966*
X2968Y2966*
X2967Y2966*
X2966Y2966*
X2966Y2966*
X2965*
X2950*
Y2970*
X2965*
X2965*
X2965*
X2965*
X2965*
X2966Y2970*
G37*
G36*
X3701Y3001D02*
X3702D01*
X3702Y3001*
X3703Y3001*
X3704Y3000*
X3704Y3000*
X3705Y3000*
X3705*
X3705Y3000*
X3705Y3000*
X3706Y3000*
X3706Y2999*
X3706Y2999*
X3707Y2999*
X3707Y2998*
X3708Y2998*
X3708Y2997*
Y2997*
X3708Y2997*
X3709Y2997*
X3709Y2997*
X3709Y2996*
X3709Y2996*
X3709Y2995*
X3709Y2994*
X3709Y2994*
X3710Y2993*
Y2993*
X3709Y2992*
Y2992*
X3709Y2992*
X3709Y2991*
X3709Y2991*
X3709Y2990*
X3709Y2990*
X3709Y2989*
X3709Y2989*
X3708Y2988*
X3708Y2988*
X3708Y2987*
X3707Y2987*
X3707Y2986*
X3707Y2986*
X3706Y2986*
X3706Y2986*
X3706Y2986*
X3706Y2986*
X3705Y2986*
X3705Y2985*
X3704Y2985*
X3704Y2985*
X3703Y2985*
X3702Y2984*
X3701Y2984*
X3700Y2984*
X3699Y2984*
X3698Y2984*
X3697Y2984*
X3697*
X3697*
X3697*
X3697*
X3696Y2984*
X3696*
X3695Y2984*
X3695Y2984*
X3694Y2984*
X3693Y2984*
X3692Y2984*
X3691Y2985*
X3690Y2985*
X3689Y2985*
X3689Y2985*
X3688Y2986*
X3687Y2986*
X3686Y2987*
X3686Y2987*
X3686Y2987*
X3686Y2987*
X3686Y2987*
X3686Y2987*
X3685Y2988*
X3685Y2988*
X3685Y2988*
X3685Y2989*
X3684Y2989*
X3684Y2990*
X3684Y2990*
X3684Y2991*
X3683Y2992*
X3683Y2992*
X3683Y2993*
Y2993*
X3683Y2994*
Y2994*
X3683Y2994*
X3684Y2995*
X3684Y2996*
X3684Y2996*
X3684Y2997*
X3685Y2998*
X3685Y2998*
X3685Y2998*
X3685Y2998*
X3685Y2998*
X3685Y2998*
X3686Y2999*
X3686Y2999*
X3686Y2999*
X3687Y2999*
X3688Y3000*
X3689Y3000*
X3690Y3000*
X3690Y2997*
X3690*
X3690Y2997*
X3690Y2997*
X3689Y2997*
X3689Y2997*
X3688Y2997*
X3688Y2997*
X3688Y2996*
X3687Y2996*
X3687Y2996*
X3687Y2996*
X3687Y2996*
X3687Y2995*
X3686Y2995*
X3686Y2994*
X3686Y2994*
X3686Y2993*
Y2993*
X3686Y2992*
X3686Y2992*
X3686Y2992*
X3686Y2991*
X3686Y2991*
X3687Y2990*
X3687Y2990*
X3687Y2990*
X3687Y2990*
X3688Y2989*
X3688Y2989*
X3689Y2989*
X3689Y2988*
X3690Y2988*
X3690*
X3690Y2988*
X3690Y2988*
X3690Y2988*
X3691Y2988*
X3691Y2988*
X3691Y2988*
X3691Y2987*
X3692Y2987*
X3692Y2987*
X3693Y2987*
X3693Y2987*
X3694Y2987*
X3695Y2987*
X3695Y2987*
X3696*
X3696Y2987*
X3696Y2987*
X3695Y2987*
X3695Y2988*
X3694Y2988*
X3694Y2989*
X3694Y2989*
X3693Y2990*
Y2990*
X3693Y2990*
X3693Y2990*
X3693Y2990*
X3693Y2991*
X3693Y2991*
X3693Y2992*
X3692Y2993*
X3692Y2993*
Y2994*
X3692Y2994*
X3693Y2994*
X3693Y2994*
X3693Y2995*
X3693Y2995*
X3693Y2996*
X3693Y2996*
X3693Y2997*
X3694Y2997*
X3694Y2998*
X3694Y2998*
X3695Y2999*
X3695Y2999*
X3695Y2999*
X3695Y2999*
X3695Y2999*
X3695Y2999*
X3696Y2999*
X3696Y2999*
X3696Y3000*
X3697Y3000*
X3697Y3000*
X3698Y3000*
X3698Y3000*
X3699Y3001*
X3699Y3001*
X3700Y3001*
X3701Y3001*
X3701*
X3701*
X3701*
X3701*
X3701Y3001*
G37*
G36*
X3699Y2980D02*
X3700D01*
X3700Y2980*
X3700Y2980*
X3701Y2979*
X3703Y2979*
X3704Y2979*
X3704Y2979*
X3704Y2979*
X3704*
X3705Y2979*
X3705Y2979*
X3705Y2979*
X3705Y2978*
X3706Y2978*
X3706Y2978*
X3707Y2977*
X3708Y2976*
X3708Y2976*
Y2976*
X3708Y2975*
X3708Y2975*
X3708Y2975*
X3708Y2975*
X3709Y2975*
X3709Y2974*
X3709Y2974*
X3709Y2974*
X3709Y2973*
X3709Y2973*
X3709Y2972*
X3709Y2972*
X3709Y2971*
X3710Y2970*
Y2969*
X3709Y2969*
Y2969*
X3709Y2968*
X3709Y2968*
X3709Y2968*
X3709Y2967*
X3709Y2966*
X3709Y2965*
X3708Y2964*
Y2964*
X3708Y2964*
X3708Y2963*
X3708Y2963*
X3708Y2963*
X3707Y2962*
X3707Y2962*
X3706Y2961*
X3706Y2961*
X3705Y2960*
X3705*
X3705Y2960*
X3704Y2960*
X3704Y2960*
X3704Y2960*
X3704Y2960*
X3703Y2960*
X3703Y2960*
X3703Y2960*
X3702Y2960*
X3702Y2960*
X3701Y2960*
X3700Y2960*
X3700Y2960*
X3699Y2960*
X3698*
X3683*
Y2963*
X3698*
X3698*
X3698*
X3699*
X3699*
X3699Y2963*
X3699*
X3700Y2963*
X3701Y2963*
X3702Y2963*
X3703Y2963*
X3703Y2963*
X3703Y2963*
X3703Y2964*
X3703Y2964*
X3704Y2964*
X3704Y2964*
X3704Y2964*
X3705Y2965*
X3705Y2965*
X3706Y2966*
X3706Y2966*
X3706Y2966*
X3706Y2966*
X3706Y2967*
X3706Y2967*
X3706Y2968*
X3706Y2969*
X3706Y2969*
Y2970*
X3706Y2970*
Y2970*
X3706Y2971*
X3706Y2971*
X3706Y2972*
X3706Y2973*
X3705Y2974*
X3705Y2974*
X3705Y2975*
X3705Y2975*
X3705Y2975*
X3705Y2975*
X3704Y2975*
X3704Y2975*
X3704Y2975*
X3704Y2975*
X3703Y2975*
X3703Y2976*
X3702Y2976*
X3702Y2976*
X3701Y2976*
X3701Y2976*
X3700Y2976*
X3699Y2976*
X3698*
X3683*
Y2980*
X3698*
X3698*
X3698*
X3699*
X3699*
X3699Y2980*
G37*
G36*
X1512Y2981D02*
X1512Y2981D01*
X1513Y2981*
X1513Y2981*
X1513Y2980*
X1514Y2980*
X1515Y2980*
X1515Y2980*
X1516Y2979*
X1516Y2979*
X1517Y2979*
X1517Y2978*
X1517Y2978*
X1517Y2978*
X1517Y2978*
X1518Y2978*
X1518Y2978*
X1518Y2977*
X1518Y2977*
X1518Y2977*
X1519Y2976*
X1519Y2976*
X1519Y2975*
X1519Y2975*
X1519Y2974*
X1519Y2973*
X1519Y2973*
X1520Y2972*
Y2972*
X1519Y2972*
X1519Y2971*
X1519Y2971*
X1519Y2971*
X1519Y2970*
X1519Y2969*
X1519Y2968*
X1518Y2968*
X1518Y2967*
X1518Y2967*
X1518Y2967*
X1517Y2967*
X1517Y2966*
X1517Y2966*
X1517Y2966*
X1517Y2966*
X1517Y2966*
X1516Y2966*
X1516Y2965*
X1516Y2965*
X1515Y2965*
X1514Y2965*
X1513Y2964*
X1513Y2964*
X1512Y2964*
X1512Y2967*
X1512*
X1512Y2967*
X1512Y2967*
X1512Y2967*
X1513Y2967*
X1513Y2967*
X1513Y2968*
X1514Y2968*
X1515Y2968*
X1515Y2969*
X1516Y2969*
X1516Y2969*
X1516Y2969*
X1516Y2970*
X1516Y2970*
X1517Y2970*
X1517Y2971*
X1517Y2972*
X1517Y2972*
Y2972*
X1517Y2973*
X1517Y2973*
X1517Y2973*
X1517Y2974*
X1516Y2975*
X1516Y2975*
X1515Y2976*
X1515Y2976*
X1515Y2976*
X1515Y2976*
X1514Y2977*
X1514Y2977*
X1513Y2977*
X1512Y2977*
X1512Y2977*
X1512*
X1511*
X1511*
X1511Y2977*
X1511Y2977*
X1510Y2977*
X1510Y2977*
X1509Y2977*
X1509Y2977*
X1508Y2976*
X1508Y2976*
X1508Y2976*
X1508Y2975*
X1507Y2975*
X1507Y2975*
X1507Y2974*
X1507Y2973*
X1507Y2972*
Y2972*
X1507Y2972*
X1507Y2972*
X1507Y2971*
X1507Y2971*
X1507Y2970*
X1504Y2971*
Y2971*
X1504Y2971*
Y2971*
X1504Y2972*
X1504Y2972*
X1504Y2973*
X1504Y2973*
X1503Y2974*
X1503Y2975*
Y2975*
X1503Y2975*
X1503Y2975*
X1503Y2975*
X1502Y2976*
X1502Y2976*
X1501Y2976*
X1501Y2976*
X1500Y2976*
X1500*
X1500*
X1500*
X1500*
X1499Y2976*
X1499Y2976*
X1498Y2976*
X1498Y2976*
X1498Y2976*
X1497Y2975*
X1497Y2975*
X1497Y2975*
X1497Y2975*
X1496Y2974*
X1496Y2974*
X1496Y2973*
X1496Y2973*
X1496Y2972*
Y2972*
X1496Y2971*
X1496Y2971*
X1496Y2971*
X1496Y2970*
X1497Y2970*
X1497Y2969*
X1497Y2969*
X1497Y2969*
X1498Y2969*
X1498Y2968*
X1498Y2968*
X1499Y2968*
X1500Y2968*
X1501Y2968*
X1500Y2964*
X1500*
X1500Y2964*
X1500Y2964*
X1499Y2964*
X1499Y2965*
X1499Y2965*
X1498Y2965*
X1497Y2965*
X1497Y2966*
X1496Y2966*
X1495Y2967*
X1495Y2967*
X1495Y2967*
X1495Y2967*
X1495Y2967*
X1495Y2968*
X1495Y2968*
X1494Y2968*
X1494Y2968*
X1494Y2969*
X1494Y2970*
X1493Y2971*
X1493Y2971*
Y2972*
X1493Y2973*
X1493Y2973*
X1494Y2974*
X1494Y2975*
X1494Y2975*
X1494Y2976*
Y2976*
X1494Y2976*
X1494Y2976*
X1495Y2977*
X1495Y2977*
X1495Y2977*
X1496Y2978*
X1496Y2978*
X1497Y2979*
X1497Y2979*
X1497Y2979*
X1497Y2979*
X1498Y2979*
X1498Y2979*
X1499Y2979*
X1499Y2980*
X1500Y2980*
X1500*
X1500*
X1501Y2980*
X1501Y2979*
X1501Y2979*
X1502Y2979*
X1503Y2979*
X1503Y2979*
X1503Y2979*
X1503Y2978*
X1504Y2978*
X1504Y2978*
X1504Y2978*
X1505Y2977*
X1505Y2977*
X1505Y2976*
Y2976*
X1505Y2976*
X1505Y2976*
X1505Y2976*
X1505Y2977*
X1506Y2977*
X1506Y2978*
X1506Y2978*
X1507Y2979*
X1507Y2980*
X1507Y2980*
X1508Y2980*
X1508Y2980*
X1509Y2980*
X1509Y2980*
X1510Y2981*
X1511Y2981*
X1512Y2981*
X1512*
X1512*
X1512*
X1512Y2981*
G37*
G36*
X1509Y2960D02*
X1510D01*
X1510Y2960*
X1510Y2960*
X1511Y2959*
X1513Y2959*
X1514Y2959*
X1514Y2959*
X1514Y2959*
X1514*
X1515Y2959*
X1515Y2959*
X1515Y2959*
X1515Y2958*
X1516Y2958*
X1516Y2958*
X1517Y2957*
X1518Y2956*
X1518Y2956*
Y2956*
X1518Y2955*
X1518Y2955*
X1518Y2955*
X1518Y2955*
X1519Y2955*
X1519Y2954*
X1519Y2954*
X1519Y2954*
X1519Y2953*
X1519Y2953*
X1519Y2952*
X1519Y2952*
X1519Y2951*
X1520Y2950*
Y2949*
X1519Y2949*
Y2949*
X1519Y2948*
X1519Y2948*
X1519Y2948*
X1519Y2947*
X1519Y2946*
X1519Y2945*
X1518Y2944*
Y2944*
X1518Y2944*
X1518Y2943*
X1518Y2943*
X1518Y2943*
X1517Y2942*
X1517Y2942*
X1516Y2941*
X1516Y2941*
X1515Y2940*
X1515*
X1515Y2940*
X1514Y2940*
X1514Y2940*
X1514Y2940*
X1514Y2940*
X1513Y2940*
X1513Y2940*
X1513Y2940*
X1512Y2940*
X1512Y2940*
X1511Y2940*
X1510Y2940*
X1510Y2940*
X1509Y2940*
X1508*
X1493*
Y2943*
X1508*
X1508*
X1508*
X1509*
X1509*
X1509Y2943*
X1509*
X1510Y2943*
X1511Y2943*
X1512Y2943*
X1513Y2943*
X1513Y2943*
X1513Y2943*
X1513Y2944*
X1513Y2944*
X1514Y2944*
X1514Y2944*
X1514Y2944*
X1515Y2945*
X1515Y2945*
X1516Y2946*
X1516Y2946*
X1516Y2946*
X1516Y2946*
X1516Y2947*
X1516Y2947*
X1516Y2948*
X1516Y2949*
X1516Y2949*
Y2950*
X1516Y2950*
Y2950*
X1516Y2951*
X1516Y2951*
X1516Y2952*
X1516Y2953*
X1515Y2954*
X1515Y2954*
X1515Y2955*
X1515Y2955*
X1515Y2955*
X1515Y2955*
X1514Y2955*
X1514Y2955*
X1514Y2955*
X1514Y2955*
X1513Y2955*
X1513Y2956*
X1512Y2956*
X1512Y2956*
X1511Y2956*
X1511Y2956*
X1510Y2956*
X1509Y2956*
X1508*
X1493*
Y2960*
X1508*
X1508*
X1508*
X1509*
X1509*
X1509Y2960*
G37*
G36*
X2188Y3001D02*
X2188Y3001D01*
X2188Y3001*
X2188Y3000*
X2188Y3000*
X2189Y3000*
X2189Y3000*
X2189Y2999*
X2190Y2999*
X2190Y2999*
X2191Y2998*
X2192Y2998*
X2192Y2997*
X2193Y2997*
X2194Y2996*
X2195Y2996*
X2195Y2996*
X2195Y2996*
X2195Y2996*
X2195Y2996*
X2196Y2995*
X2196Y2995*
X2197Y2995*
X2197Y2995*
X2198Y2994*
X2199Y2994*
X2199Y2994*
X2200Y2993*
X2202Y2993*
X2203Y2992*
X2203*
X2204Y2992*
X2204Y2992*
X2204Y2992*
X2204Y2992*
X2205Y2992*
X2205Y2992*
X2205Y2992*
X2206Y2992*
X2207Y2992*
X2208Y2991*
X2209Y2991*
X2210Y2991*
Y2988*
X2210*
X2210*
X2210*
X2210Y2988*
X2210*
X2209Y2988*
X2209Y2988*
X2208Y2988*
X2208Y2988*
X2207Y2988*
X2207Y2988*
X2206Y2988*
X2205Y2988*
X2205Y2989*
X2203Y2989*
X2203*
X2203Y2989*
X2203Y2989*
X2202Y2989*
X2202Y2989*
X2202Y2989*
X2201Y2990*
X2201Y2990*
X2200Y2990*
X2199Y2990*
X2198Y2991*
X2196Y2991*
X2195Y2992*
X2195Y2992*
X2195Y2992*
X2195Y2992*
X2194Y2993*
X2194Y2993*
X2193Y2993*
X2193Y2993*
X2193Y2994*
X2191Y2994*
X2190Y2995*
X2189Y2996*
X2188Y2997*
Y2984*
X2185*
Y3001*
X2188*
X2188Y3001*
G37*
G36*
X2201Y2980D02*
X2201D01*
X2201Y2980*
X2202Y2980*
X2203Y2979*
X2204Y2979*
X2205Y2979*
X2205Y2979*
X2206Y2979*
X2206*
X2206Y2979*
X2206Y2979*
X2206Y2979*
X2207Y2978*
X2207Y2978*
X2208Y2978*
X2208Y2977*
X2209Y2976*
X2209Y2976*
Y2976*
X2210Y2975*
X2210Y2975*
X2210Y2975*
X2210Y2975*
X2210Y2975*
X2210Y2974*
X2210Y2974*
X2210Y2974*
X2210Y2973*
X2211Y2973*
X2211Y2972*
X2211Y2972*
X2211Y2971*
X2211Y2970*
Y2969*
X2211Y2969*
Y2969*
X2211Y2968*
X2211Y2968*
X2211Y2968*
X2211Y2967*
X2210Y2966*
X2210Y2965*
X2210Y2964*
Y2964*
X2210Y2964*
X2209Y2963*
X2209Y2963*
X2209Y2963*
X2209Y2962*
X2208Y2962*
X2208Y2961*
X2207Y2961*
X2206Y2960*
X2206*
X2206Y2960*
X2206Y2960*
X2206Y2960*
X2205Y2960*
X2205Y2960*
X2205Y2960*
X2204Y2960*
X2204Y2960*
X2203Y2960*
X2203Y2960*
X2202Y2960*
X2202Y2960*
X2201Y2960*
X2200Y2960*
X2200*
X2185*
Y2963*
X2200*
X2200*
X2200*
X2200*
X2200*
X2200Y2963*
X2201*
X2201Y2963*
X2202Y2963*
X2203Y2963*
X2204Y2963*
X2204Y2963*
X2205Y2963*
X2205Y2964*
X2205Y2964*
X2205Y2964*
X2205Y2964*
X2206Y2964*
X2206Y2965*
X2207Y2965*
X2207Y2966*
X2207Y2966*
X2207Y2966*
X2207Y2966*
X2207Y2967*
X2208Y2967*
X2208Y2968*
X2208Y2969*
X2208Y2969*
Y2970*
X2208Y2970*
Y2970*
X2208Y2971*
X2208Y2971*
X2207Y2972*
X2207Y2973*
X2207Y2974*
X2206Y2974*
X2206Y2975*
X2206Y2975*
X2206Y2975*
X2206Y2975*
X2206Y2975*
X2206Y2975*
X2205Y2975*
X2205Y2975*
X2205Y2975*
X2204Y2976*
X2204Y2976*
X2203Y2976*
X2203Y2976*
X2202Y2976*
X2201Y2976*
X2200Y2976*
X2200*
X2185*
Y2980*
X2200*
X2200*
X2200*
X2200*
X2200*
X2201Y2980*
G37*
G36*
X2379Y1594D02*
X2379Y1594D01*
X2379Y1594*
X2379Y1594*
X2379Y1593*
X2380Y1593*
X2380Y1593*
X2380Y1592*
X2381Y1592*
X2381Y1592*
X2382Y1591*
X2383Y1591*
X2383Y1591*
X2384Y1590*
X2385Y1590*
X2385Y1589*
X2385Y1589*
X2386Y1589*
X2386Y1589*
X2386Y1589*
X2387Y1589*
X2387Y1588*
X2388Y1588*
X2388Y1588*
X2389Y1588*
X2389Y1587*
X2390Y1587*
X2391Y1587*
X2393Y1586*
X2394Y1585*
X2394*
X2394Y1585*
X2395Y1585*
X2395Y1585*
X2395Y1585*
X2396Y1585*
X2396Y1585*
X2396Y1585*
X2397Y1585*
X2397Y1585*
X2399Y1585*
X2400Y1584*
X2401Y1584*
Y1581*
X2401*
X2401*
X2401*
X2401Y1581*
X2401*
X2400Y1581*
X2400Y1581*
X2399Y1581*
X2399Y1581*
X2398Y1581*
X2398Y1581*
X2397Y1582*
X2396Y1582*
X2396Y1582*
X2394Y1582*
X2394*
X2394Y1582*
X2394Y1582*
X2393Y1582*
X2393Y1583*
X2393Y1583*
X2392Y1583*
X2391Y1583*
X2391Y1583*
X2390Y1584*
X2389Y1584*
X2387Y1585*
X2386Y1585*
X2386Y1586*
X2386Y1586*
X2385Y1586*
X2385Y1586*
X2385Y1586*
X2384Y1586*
X2384Y1587*
X2383Y1587*
X2382Y1588*
X2381Y1588*
X2380Y1589*
X2379Y1590*
Y1577*
X2376*
Y1594*
X2379*
X2379Y1594*
G37*
G36*
X2403Y1573D02*
Y1573D01*
X2403Y1573*
X2403Y1573*
X2403Y1573*
X2403Y1573*
X2403Y1572*
X2403Y1572*
X2403Y1572*
X2402Y1571*
X2402Y1570*
X2401Y1569*
X2400Y1568*
Y1568*
X2400Y1568*
X2400Y1568*
X2400Y1567*
X2401Y1567*
X2401Y1567*
X2401Y1567*
X2401Y1566*
X2401Y1566*
X2401Y1565*
X2402Y1564*
X2402Y1563*
X2402Y1562*
X2402Y1562*
Y1561*
X2402Y1561*
Y1561*
X2402Y1560*
X2402Y1560*
X2402Y1560*
X2401Y1559*
X2401Y1558*
X2401Y1556*
X2400Y1556*
X2400Y1555*
X2400Y1555*
X2400Y1555*
X2400Y1555*
X2400Y1555*
X2400Y1555*
X2399Y1554*
X2399Y1554*
X2398Y1553*
X2397Y1552*
X2396Y1552*
X2395Y1551*
X2395*
X2395Y1551*
X2395Y1551*
X2395Y1551*
X2395Y1551*
X2394Y1551*
X2394Y1550*
X2393Y1550*
X2393Y1550*
X2392Y1550*
X2392Y1550*
X2391Y1550*
X2390Y1550*
X2389Y1550*
X2389*
X2388*
X2388*
X2388Y1550*
X2388*
X2387Y1550*
X2387Y1550*
X2386Y1550*
X2385Y1550*
X2384Y1550*
X2383Y1551*
X2382Y1551*
X2382Y1551*
X2381Y1551*
X2381Y1551*
X2381Y1551*
X2381Y1551*
X2381Y1552*
X2380Y1552*
X2379Y1553*
X2378Y1554*
X2378Y1554*
X2377Y1555*
X2377Y1555*
X2377Y1556*
X2377Y1556*
X2377Y1556*
X2377Y1556*
X2376Y1556*
X2376Y1557*
X2376Y1557*
X2376Y1558*
X2376Y1558*
X2376Y1559*
X2375Y1560*
X2375Y1561*
Y1562*
X2375Y1562*
Y1563*
X2375Y1563*
X2375Y1563*
X2375Y1564*
X2376Y1565*
X2376Y1566*
X2376Y1567*
X2377Y1568*
X2377Y1568*
X2377Y1568*
X2377Y1568*
X2377Y1568*
X2377Y1569*
X2377Y1569*
X2378Y1569*
X2378Y1570*
X2379Y1570*
X2380Y1571*
X2381Y1572*
X2382Y1572*
X2382*
X2382Y1573*
X2382Y1573*
X2382Y1573*
X2383Y1573*
X2383Y1573*
X2383Y1573*
X2384Y1573*
X2384Y1573*
X2385Y1574*
X2385Y1574*
X2386Y1574*
X2387Y1574*
X2389Y1574*
X2389*
X2389*
X2389*
X2389*
X2389Y1574*
X2390*
X2390Y1574*
X2390Y1574*
X2391Y1574*
X2392Y1574*
X2393Y1573*
X2394Y1573*
X2394*
X2394Y1573*
X2394Y1573*
X2395Y1573*
X2395Y1573*
X2395Y1573*
X2396Y1572*
X2396Y1572*
X2397Y1571*
X2398Y1571*
X2399Y1570*
Y1570*
X2399Y1570*
X2399Y1570*
X2399Y1571*
X2399Y1571*
X2399Y1571*
X2400Y1572*
X2400Y1572*
X2400Y1573*
X2401Y1574*
X2401Y1574*
X2403Y1573*
G37*
G36*
X5753Y3346D02*
X5743D01*
X5741Y3339*
X5741Y3339*
X5742Y3340*
X5742Y3340*
X5742Y3340*
X5742Y3340*
X5742Y3340*
X5743Y3340*
X5744Y3341*
X5744Y3341*
X5745Y3341*
X5746Y3341*
X5747*
X5747Y3341*
X5747Y3341*
X5747Y3341*
X5748Y3341*
X5748Y3341*
X5749Y3341*
X5750Y3340*
X5750Y3340*
X5751Y3340*
X5751Y3340*
X5751Y3339*
X5752Y3339*
X5752Y3339*
X5752Y3339*
X5752Y3339*
X5752Y3338*
X5752Y3338*
X5753Y3338*
X5753Y3337*
X5753Y3337*
X5753Y3337*
X5753Y3336*
X5754Y3336*
X5754Y3335*
X5754Y3335*
X5754Y3334*
X5754Y3333*
X5754Y3333*
Y3333*
Y3333*
Y3332*
X5754Y3332*
X5754Y3332*
X5754Y3332*
X5754Y3331*
X5754Y3331*
X5754Y3330*
X5753Y3329*
X5753Y3328*
X5753Y3328*
X5753Y3327*
X5752Y3327*
X5752Y3327*
X5752Y3327*
X5752Y3326*
X5752Y3326*
X5752Y3326*
X5751Y3326*
X5751Y3325*
X5750Y3325*
X5750Y3325*
X5749Y3325*
X5749Y3324*
X5748Y3324*
X5748Y3324*
X5747Y3324*
X5746Y3324*
X5745Y3324*
X5745*
X5745Y3324*
X5745Y3324*
X5744Y3324*
X5744Y3324*
X5743Y3324*
X5743Y3324*
X5742Y3324*
X5741Y3325*
X5741Y3325*
X5740Y3325*
X5740Y3326*
X5740Y3326*
X5740Y3326*
X5740Y3326*
X5739Y3326*
X5739Y3326*
X5739Y3326*
X5739Y3327*
X5739Y3327*
X5738Y3327*
X5738Y3328*
X5738Y3329*
X5737Y3330*
X5737Y3330*
X5737Y3331*
X5741Y3331*
Y3331*
Y3331*
X5741Y3331*
X5741Y3331*
X5741Y3330*
X5741Y3330*
X5741Y3329*
X5741Y3328*
X5742Y3328*
X5742Y3327*
X5742Y3327*
X5742Y3327*
X5743Y3327*
X5743Y3327*
X5744Y3327*
X5744Y3326*
X5745Y3326*
X5745Y3326*
X5746*
X5746Y3326*
X5746Y3326*
X5747Y3326*
X5747Y3327*
X5748Y3327*
X5749Y3327*
X5749Y3328*
X5749Y3328*
X5749Y3328*
X5749Y3328*
X5749Y3328*
X5750Y3328*
X5750Y3329*
X5750Y3329*
X5750Y3330*
X5751Y3331*
X5751Y3331*
X5751Y3332*
Y3332*
Y3333*
Y3333*
Y3333*
X5751Y3333*
Y3333*
X5751Y3333*
X5751Y3334*
X5751Y3335*
X5750Y3335*
X5750Y3336*
X5749Y3337*
Y3337*
X5749Y3337*
X5749Y3337*
X5749Y3337*
X5748Y3338*
X5748Y3338*
X5747Y3338*
X5746Y3338*
X5746Y3338*
X5745*
X5745Y3338*
X5745Y3338*
X5744Y3338*
X5744Y3338*
X5743Y3338*
X5743Y3338*
X5743Y3338*
X5742Y3337*
X5742Y3337*
X5742Y3337*
X5742Y3337*
X5741Y3337*
X5741Y3336*
X5741Y3336*
X5738Y3336*
X5740Y3349*
X5753*
Y3346*
G37*
G36*
X5722Y3350D02*
X5723D01*
X5723Y3350*
X5723Y3350*
X5724Y3350*
X5725Y3350*
X5726Y3349*
X5727Y3349*
X5728Y3349*
X5728Y3348*
X5728Y3348*
X5728Y3348*
X5728Y3348*
X5729Y3348*
X5729Y3348*
X5729Y3348*
X5730Y3347*
X5730Y3347*
X5731Y3346*
X5732Y3345*
X5732Y3344*
Y3344*
X5733Y3344*
X5733Y3343*
X5733Y3343*
X5733Y3343*
X5733Y3343*
X5733Y3342*
X5733Y3342*
X5733Y3341*
X5734Y3341*
X5734Y3340*
X5734Y3340*
X5734Y3338*
X5734Y3337*
Y3337*
Y3337*
Y3337*
Y3336*
X5734Y3336*
Y3336*
X5734Y3335*
X5734Y3335*
X5734Y3334*
X5734Y3333*
X5733Y3332*
X5733Y3331*
Y3331*
X5733Y3331*
X5733Y3331*
X5733Y3331*
X5733Y3331*
X5733Y3330*
X5732Y3330*
X5732Y3329*
X5731Y3328*
X5731Y3328*
X5730Y3327*
X5730*
X5730Y3327*
X5730Y3327*
X5731Y3327*
X5731Y3326*
X5731Y3326*
X5732Y3326*
X5732Y3325*
X5733Y3325*
X5734Y3325*
X5734Y3324*
X5733Y3322*
X5733*
X5733Y3322*
X5733Y3322*
X5733Y3322*
X5733Y3322*
X5732Y3323*
X5732Y3323*
X5732Y3323*
X5731Y3323*
X5730Y3324*
X5729Y3324*
X5728Y3325*
X5728*
X5728Y3325*
X5728Y3325*
X5727Y3325*
X5727Y3325*
X5727Y3325*
X5727Y3325*
X5726Y3324*
X5726Y3324*
X5725Y3324*
X5724Y3324*
X5723Y3324*
X5722Y3324*
X5722Y3324*
X5721*
X5721Y3324*
X5721*
X5720Y3324*
X5720Y3324*
X5720Y3324*
X5719Y3324*
X5718Y3324*
X5716Y3325*
X5716Y3325*
X5715Y3325*
X5715Y3325*
X5715Y3325*
X5715Y3325*
X5715Y3326*
X5715Y3326*
X5714Y3326*
X5714Y3327*
X5713Y3327*
X5712Y3328*
X5712Y3329*
X5711Y3330*
Y3330*
X5711Y3330*
X5711Y3330*
X5711Y3331*
X5711Y3331*
X5711Y3331*
X5710Y3332*
X5710Y3332*
X5710Y3332*
X5710Y3333*
X5710Y3334*
X5710Y3334*
X5710Y3335*
X5710Y3337*
Y3337*
Y3337*
Y3337*
X5710Y3337*
Y3338*
X5710Y3338*
X5710Y3339*
X5710Y3339*
X5710Y3340*
X5710Y3341*
X5711Y3343*
X5711Y3344*
X5711Y3344*
X5711Y3344*
X5711Y3344*
X5711Y3344*
X5711Y3345*
X5712Y3345*
X5712Y3346*
X5713Y3346*
X5714Y3347*
X5714Y3348*
X5715Y3349*
X5715Y3349*
X5716Y3349*
X5716Y3349*
X5716Y3349*
X5716Y3349*
X5716Y3349*
X5717Y3349*
X5717Y3349*
X5718Y3349*
X5718Y3350*
X5719Y3350*
X5720Y3350*
X5721Y3350*
X5722*
X5722Y3350*
G37*
%LNpcb-2*%
%LPC*%
G36*
X2082Y739D02*
X2082D01*
X2081Y739*
X2081Y739*
X2081Y739*
X2081Y739*
X2080Y739*
X2079Y739*
X2079Y739*
X2079Y738*
X2078Y738*
X2078Y738*
X2078Y738*
X2078Y738*
X2078Y738*
X2078Y737*
X2078Y737*
X2078Y737*
X2078Y737*
X2077Y736*
X2077Y736*
X2077Y736*
X2077Y735*
X2077Y735*
X2077Y734*
X2077Y734*
X2077Y733*
Y733*
Y732*
Y732*
Y732*
X2077Y732*
Y732*
X2077Y731*
X2077Y731*
X2077Y731*
X2077Y730*
X2077Y729*
X2078Y728*
X2078Y728*
X2078Y727*
Y727*
X2078Y727*
X2079Y727*
X2079Y727*
X2079Y727*
X2080Y726*
X2080Y726*
X2081Y726*
X2081Y726*
X2082Y726*
X2082*
X2082Y726*
X2083Y726*
X2083Y726*
X2084Y726*
X2084Y726*
X2085Y727*
X2085Y727*
X2085Y727*
X2085Y727*
Y727*
X2086Y727*
X2086Y728*
X2086Y728*
X2086Y728*
X2086Y728*
X2086Y728*
X2086Y729*
X2086Y729*
X2086Y729*
X2087Y730*
X2087Y730*
X2087Y731*
X2087Y731*
X2087Y732*
X2087Y732*
Y732*
Y733*
Y733*
X2087Y733*
Y733*
X2087Y734*
X2087Y734*
X2087Y734*
X2087Y735*
X2086Y736*
X2086Y737*
X2086Y737*
X2085Y738*
X2085Y738*
X2085Y738*
X2085Y738*
X2085Y738*
X2084Y739*
X2084Y739*
X2083Y739*
X2083Y739*
X2082Y739*
X2082Y739*
G37*
G36*
X2043Y740D02*
X2043D01*
X2042Y740*
X2042Y740*
X2042Y740*
X2041Y740*
X2040Y739*
X2040Y739*
X2040*
X2040Y739*
X2040Y739*
X2039Y739*
X2039Y739*
X2039Y738*
X2038Y738*
X2038Y738*
X2038Y737*
X2038Y737*
X2038Y737*
X2038Y737*
X2038Y736*
X2038Y736*
X2037Y735*
X2037Y735*
X2037Y734*
Y733*
X2037*
X2037Y733*
X2038Y733*
X2038Y733*
X2038Y733*
X2038Y733*
X2038Y733*
X2039Y733*
X2039Y733*
X2039Y733*
X2040Y733*
X2040Y734*
X2041Y734*
X2041Y734*
X2042Y734*
X2042Y734*
X2043*
X2043Y734*
X2043*
X2043Y734*
X2044Y734*
X2044Y734*
X2044Y734*
X2045Y734*
X2045Y735*
X2045*
X2045Y735*
X2045Y735*
X2046Y735*
X2046Y735*
X2046Y735*
X2046Y736*
X2046Y736*
X2046Y736*
X2047Y736*
X2047Y736*
X2047Y736*
X2047Y736*
X2047Y737*
X2047Y737*
Y737*
Y737*
X2047Y737*
X2047Y738*
X2047Y738*
X2046Y738*
X2046Y739*
X2046Y739*
X2046Y739*
X2046Y739*
X2046Y739*
X2045Y740*
X2045Y740*
X2044Y740*
X2044Y740*
X2043Y740*
G37*
G36*
X2132Y731D02*
X2122D01*
Y731*
Y731*
X2122Y731*
X2122Y731*
Y730*
X2122Y730*
X2122Y730*
X2122Y729*
X2123Y729*
X2123Y728*
X2123Y727*
Y727*
X2123Y727*
X2123Y727*
X2123Y727*
X2124Y727*
X2124Y727*
X2125Y726*
X2125Y726*
X2126Y726*
X2127Y726*
X2127Y726*
X2127*
X2127Y726*
X2128*
X2128Y726*
X2128Y726*
X2129Y726*
X2130Y726*
X2130Y727*
X2130Y727*
X2131Y727*
X2131Y727*
X2131Y727*
X2131Y728*
X2131Y728*
X2132Y729*
X2132Y729*
X2132Y730*
X2132Y731*
G37*
G36*
X2012Y740D02*
X2012D01*
X2011Y740*
X2011Y740*
X2011Y740*
X2010Y740*
X2010Y739*
X2009Y739*
X2009Y739*
X2009Y739*
X2008Y738*
X2008Y738*
X2008Y738*
X2008Y738*
X2008Y738*
X2008Y738*
X2008Y738*
X2007Y737*
X2007Y737*
X2007Y737*
X2007Y736*
X2007Y736*
X2007Y736*
X2007Y735*
X2007Y734*
X2006Y734*
X2006Y733*
Y733*
Y733*
Y732*
Y732*
X2006Y732*
Y732*
X2006Y731*
X2007Y731*
X2007Y731*
X2007Y730*
X2007Y729*
X2007Y728*
X2008Y728*
X2008Y727*
X2008Y727*
X2008Y727*
X2008Y727*
X2008Y727*
X2009Y727*
X2009Y727*
X2010Y726*
X2010Y726*
X2011Y726*
X2011Y726*
X2012Y726*
X2012*
X2012Y726*
X2012Y726*
X2013Y726*
X2013Y726*
X2014Y726*
X2014Y726*
X2015Y727*
X2015Y727*
X2015Y727*
X2016Y727*
Y727*
X2016Y727*
X2016Y728*
X2016Y728*
X2016Y728*
X2016Y728*
X2016Y728*
X2017Y729*
X2017Y729*
X2017Y729*
X2017Y730*
X2017Y730*
X2017Y731*
X2017Y731*
X2017Y732*
X2017Y733*
Y733*
Y733*
Y733*
X2017Y733*
Y734*
X2017Y734*
X2017Y734*
X2017Y735*
X2017Y736*
X2017Y736*
X2016Y737*
X2016Y738*
X2016Y738*
X2016Y738*
X2016Y738*
X2016Y738*
X2015Y738*
X2015Y739*
X2015Y739*
X2014Y739*
X2013Y740*
X2013Y740*
X2012Y740*
X2012Y740*
G37*
G36*
X2157Y739D02*
X2151D01*
X2150Y739*
X2150Y739*
X2149Y739*
X2148Y739*
X2148Y739*
X2147Y739*
X2147*
X2147Y738*
X2147Y738*
X2147Y738*
X2146Y738*
X2146Y738*
X2146Y738*
X2145Y738*
X2145Y737*
X2145Y737*
X2145Y737*
X2145Y737*
X2144Y736*
X2144Y736*
X2144Y735*
X2143Y735*
X2143Y734*
Y734*
X2143Y734*
X2143Y734*
X2143Y734*
X2143Y733*
X2143Y733*
X2143Y733*
X2143Y733*
X2143Y732*
X2143Y732*
X2142Y731*
X2142Y730*
X2142Y729*
Y729*
Y729*
Y729*
X2142Y728*
Y728*
X2142Y728*
X2142Y727*
X2143Y727*
X2143Y726*
X2143Y725*
X2143Y724*
X2143Y723*
X2144Y723*
Y723*
X2144Y723*
X2144Y723*
X2144Y722*
X2144Y722*
X2145Y722*
X2145Y721*
X2146Y721*
X2146Y720*
X2147Y720*
X2147Y720*
X2147Y720*
X2147Y720*
X2147Y720*
X2147Y720*
X2148Y720*
X2148Y720*
X2148Y720*
X2148Y720*
X2149Y720*
X2149Y720*
X2149Y720*
X2150Y719*
X2150*
X2151Y719*
X2157*
Y739*
G37*
G36*
X1127Y2907D02*
X1126D01*
X1126*
X1126*
X1126Y2907*
X1126*
X1125Y2907*
X1125Y2907*
X1124Y2907*
X1123Y2907*
X1122Y2907*
X1121Y2906*
X1121Y2906*
X1120Y2906*
X1120*
X1120Y2906*
X1120Y2906*
X1120Y2906*
X1120Y2905*
X1119Y2905*
X1119Y2904*
X1118Y2904*
X1118Y2903*
X1117Y2903*
X1117Y2903*
X1117Y2902*
X1117Y2902*
X1117Y2902*
X1117Y2901*
X1117Y2900*
X1117Y2900*
Y2899*
X1117Y2899*
Y2893*
X1136*
Y2899*
X1136Y2899*
X1136Y2900*
X1136Y2900*
X1136Y2901*
X1136Y2902*
X1136Y2902*
X1136Y2902*
X1136Y2903*
X1136Y2903*
X1136Y2903*
X1135Y2904*
X1135Y2904*
X1135Y2904*
X1135Y2905*
X1135Y2905*
X1134Y2905*
X1134Y2905*
X1134Y2905*
X1133Y2906*
X1133Y2906*
X1132Y2906*
X1131Y2906*
X1131*
X1131Y2907*
X1131Y2907*
X1131Y2907*
X1131Y2907*
X1131Y2907*
X1130Y2907*
X1130Y2907*
X1129Y2907*
X1129Y2907*
X1128Y2907*
X1127Y2907*
G37*
G36*
X4792Y3801D02*
X4792D01*
X4792Y3801*
X4791Y3801*
X4791Y3801*
X4790Y3801*
X4789Y3801*
X4789Y3800*
X4788Y3800*
X4788Y3800*
X4788Y3799*
X4788Y3799*
X4787Y3799*
X4787Y3798*
X4787Y3798*
X4787Y3797*
X4787Y3796*
Y3796*
Y3796*
Y3796*
X4787Y3796*
X4787Y3795*
X4787Y3795*
X4787Y3794*
X4787Y3793*
X4788Y3793*
X4788Y3792*
X4788Y3792*
X4789Y3792*
X4789Y3792*
X4789Y3791*
X4790Y3791*
X4791Y3791*
X4791Y3791*
X4792Y3791*
X4792*
X4792Y3791*
X4793Y3791*
X4793Y3791*
X4794Y3791*
X4795Y3791*
X4795Y3792*
X4796Y3792*
X4796Y3792*
X4796Y3792*
X4796Y3793*
X4796Y3793*
X4797Y3794*
X4797Y3794*
X4797Y3795*
X4797Y3796*
Y3796*
Y3796*
X4797Y3796*
X4797Y3797*
X4797Y3797*
X4797Y3798*
X4797Y3798*
X4797Y3798*
X4797Y3799*
X4796Y3799*
X4796Y3799*
X4796Y3799*
X4796Y3800*
X4796Y3800*
X4795Y3800*
X4795Y3800*
X4795Y3800*
X4794Y3801*
X4794Y3801*
X4794Y3801*
X4793Y3801*
X4793Y3801*
X4792Y3801*
X4792Y3801*
G37*
G36*
Y3788D02*
X4792D01*
X4792Y3788*
X4791Y3788*
X4791Y3788*
X4790Y3788*
X4790Y3788*
X4789Y3787*
X4789Y3787*
X4789Y3787*
X4789Y3787*
X4789Y3787*
X4788Y3786*
X4788Y3786*
X4788Y3785*
X4788Y3785*
X4788Y3784*
Y3784*
Y3784*
Y3784*
X4788Y3784*
X4788Y3783*
X4788Y3783*
X4788Y3782*
X4789Y3782*
X4789Y3781*
X4789Y3781*
X4789Y3781*
X4789Y3781*
X4790Y3781*
X4790Y3780*
X4791Y3780*
X4791Y3780*
X4792Y3780*
X4792*
X4793Y3780*
X4793Y3780*
X4794Y3780*
X4794Y3781*
X4795Y3781*
X4795Y3781*
X4795Y3781*
X4795Y3781*
X4795Y3782*
X4796Y3782*
X4796Y3782*
X4796Y3783*
X4796Y3783*
X4796Y3784*
Y3784*
Y3784*
X4796Y3784*
X4796Y3785*
X4796Y3785*
X4796Y3786*
X4796Y3786*
X4795Y3787*
X4795Y3787*
X4795Y3787*
X4795Y3787*
X4795Y3787*
X4794Y3788*
X4794Y3788*
X4793Y3788*
X4793Y3788*
X4792Y3788*
G37*
G36*
X3145Y3233D02*
X3139D01*
Y3213*
X3145*
X3146Y3213*
X3146Y3213*
X3147Y3213*
X3148Y3213*
X3148Y3213*
X3149Y3213*
X3149Y3213*
X3149Y3213*
X3149Y3214*
X3150Y3214*
X3150Y3214*
X3150Y3214*
X3151Y3214*
X3151Y3215*
X3151Y3215*
X3151Y3215*
X3152Y3215*
X3152Y3216*
X3152Y3216*
X3152Y3217*
X3153Y3217*
X3153Y3218*
Y3218*
X3153Y3218*
X3153Y3218*
X3153Y3218*
X3153Y3219*
X3153Y3219*
X3153Y3219*
X3153Y3219*
X3153Y3220*
X3154Y3221*
X3154Y3222*
X3154Y3223*
Y3223*
Y3223*
Y3223*
X3154Y3224*
Y3224*
X3154Y3224*
X3154Y3225*
X3153Y3225*
X3153Y3226*
X3153Y3227*
X3153Y3228*
X3153Y3229*
X3152Y3229*
Y3229*
X3152Y3229*
X3152Y3229*
X3152Y3229*
X3152Y3230*
X3151Y3230*
X3151Y3231*
X3150Y3231*
X3150Y3232*
X3149Y3232*
X3149Y3232*
X3149Y3232*
X3149Y3232*
X3148Y3232*
X3147Y3232*
X3147Y3232*
X3146Y3232*
X3146*
X3145Y3233*
G37*
G36*
X4882Y3300D02*
X4862D01*
Y3294*
X4862Y3294*
X4862Y3293*
X4862Y3293*
X4862Y3292*
X4862Y3291*
X4862Y3291*
X4862Y3291*
X4863Y3290*
X4863Y3290*
X4863Y3290*
X4863Y3289*
X4863Y3289*
X4863Y3289*
X4864Y3288*
X4864Y3288*
X4864Y3288*
X4864Y3288*
X4865Y3288*
X4865Y3287*
X4866Y3287*
X4866Y3287*
X4867Y3287*
X4867*
X4867Y3286*
X4867Y3286*
X4867Y3286*
X4868Y3286*
X4868Y3286*
X4868Y3286*
X4868Y3286*
X4869Y3286*
X4870Y3286*
X4871Y3286*
X4872Y3286*
X4872*
X4872*
X4872*
X4873Y3286*
X4873*
X4873Y3286*
X4874Y3286*
X4874Y3286*
X4875Y3286*
X4876Y3286*
X4877Y3287*
X4878Y3287*
X4878Y3287*
X4878*
X4878Y3287*
X4878Y3287*
X4878Y3287*
X4879Y3288*
X4879Y3288*
X4880Y3289*
X4880Y3289*
X4881Y3290*
X4881Y3290*
X4881Y3290*
X4881Y3291*
X4881Y3291*
X4881Y3291*
X4881Y3292*
X4881Y3293*
X4881Y3293*
Y3294*
X4882Y3294*
Y3300*
G37*
G36*
X4876Y3276D02*
X4876D01*
X4876*
X4876*
X4875Y3276*
X4875*
X4875Y3276*
X4874Y3276*
X4874Y3275*
X4873Y3275*
X4873Y3275*
X4872Y3274*
X4872Y3274*
X4872Y3274*
X4871Y3274*
X4871Y3273*
X4871Y3273*
X4871Y3272*
X4870Y3271*
X4870Y3271*
Y3270*
X4870Y3270*
X4870Y3270*
X4871Y3269*
X4871Y3269*
X4871Y3268*
X4871Y3268*
X4872Y3267*
X4872Y3267*
X4872Y3267*
X4873Y3267*
X4873Y3266*
X4874Y3266*
X4874Y3266*
X4875Y3266*
X4876Y3266*
X4876*
X4876*
X4876*
X4877Y3266*
X4877*
X4877Y3266*
X4878Y3266*
X4878Y3266*
X4879Y3266*
X4880Y3267*
X4880Y3267*
X4881*
X4881Y3267*
X4881Y3267*
X4881Y3268*
X4881Y3268*
X4882Y3269*
X4882Y3269*
X4882Y3270*
X4882Y3270*
Y3271*
X4882Y3271*
X4882Y3271*
X4882Y3272*
X4882Y3272*
X4881Y3273*
X4881Y3274*
X4881Y3274*
X4880Y3274*
X4880*
X4880Y3274*
X4880Y3274*
X4880Y3274*
X4880Y3275*
X4879Y3275*
X4879Y3275*
X4878Y3276*
X4877Y3276*
X4876Y3276*
G37*
G36*
X4473Y2531D02*
X4472D01*
X4472*
X4472*
X4472Y2531*
X4471*
X4470Y2531*
X4470Y2531*
X4469Y2531*
X4468Y2530*
X4467Y2530*
X4466Y2530*
X4466Y2530*
X4465Y2530*
X4465Y2530*
X4464Y2529*
X4464*
X4464Y2529*
X4464Y2529*
X4463Y2529*
X4463Y2528*
X4463Y2528*
X4462Y2527*
X4462Y2526*
X4462Y2526*
X4462Y2526*
Y2525*
X4462Y2525*
X4462Y2525*
X4462Y2524*
X4463Y2524*
X4463Y2523*
X4463Y2523*
X4463Y2523*
X4464Y2522*
X4464Y2522*
X4464*
X4464Y2522*
X4464Y2522*
X4465Y2522*
X4465Y2522*
X4465Y2522*
X4466Y2521*
X4466Y2521*
X4467Y2521*
X4467Y2521*
X4468Y2521*
X4469Y2521*
X4469Y2521*
X4470Y2521*
X4471Y2521*
X4473*
X4473*
X4473*
X4473*
X4473*
X4474Y2521*
X4474*
X4475Y2521*
X4475Y2521*
X4476Y2521*
X4477Y2521*
X4478Y2521*
X4479Y2521*
X4479Y2521*
X4480Y2522*
X4481Y2522*
X4481Y2522*
X4481*
X4481Y2522*
X4481Y2522*
X4481Y2522*
X4482Y2523*
X4482Y2523*
X4482Y2524*
X4483Y2524*
X4483Y2525*
X4483Y2525*
X4483Y2525*
X4483Y2526*
Y2526*
X4483Y2526*
X4483Y2527*
X4483Y2527*
X4483Y2528*
X4482Y2528*
X4482Y2528*
X4482Y2529*
X4482Y2529*
X4481Y2529*
X4481*
X4481Y2529*
X4481Y2529*
X4481Y2530*
X4480Y2530*
X4480Y2530*
X4480Y2530*
X4479Y2530*
X4479Y2530*
X4478Y2530*
X4477Y2530*
X4477Y2531*
X4476Y2531*
X4475Y2531*
X4474Y2531*
X4473Y2531*
G37*
G36*
X2841Y3230D02*
X2832Y3219D01*
X2841*
Y3230*
G37*
G36*
X2815Y3232D02*
X2809D01*
Y3213*
X2815*
X2816Y3213*
X2816Y3213*
X2817Y3213*
X2818Y3213*
X2818Y3213*
X2819Y3213*
X2819Y3213*
X2819Y3213*
X2819Y3213*
X2820Y3213*
X2820Y3214*
X2820Y3214*
X2821Y3214*
X2821Y3214*
X2821Y3214*
X2821Y3215*
X2822Y3215*
X2822Y3215*
X2822Y3216*
X2822Y3216*
X2823Y3217*
X2823Y3218*
Y3218*
X2823Y3218*
X2823Y3218*
X2823Y3218*
X2823Y3218*
X2823Y3218*
X2823Y3219*
X2823Y3219*
X2823Y3220*
X2824Y3220*
X2824Y3221*
X2824Y3222*
Y3223*
Y3223*
Y3223*
X2824Y3223*
Y3223*
X2824Y3224*
X2824Y3224*
X2823Y3225*
X2823Y3226*
X2823Y3227*
X2823Y3228*
X2823Y3228*
X2822Y3229*
Y3229*
X2822Y3229*
X2822Y3229*
X2822Y3229*
X2822Y3229*
X2821Y3230*
X2821Y3230*
X2820Y3231*
X2820Y3231*
X2819Y3232*
X2819Y3232*
X2819Y3232*
X2819Y3232*
X2818Y3232*
X2817Y3232*
X2817Y3232*
X2816Y3232*
X2816*
X2815Y3232*
G37*
G36*
X3889Y3243D02*
X3883D01*
Y3223*
X3889*
X3889Y3223*
X3890Y3223*
X3890Y3223*
X3891Y3223*
X3892Y3223*
X3892Y3223*
X3892Y3223*
X3893Y3223*
X3893Y3224*
X3893Y3224*
X3894Y3224*
X3894Y3224*
X3894Y3224*
X3895Y3225*
X3895Y3225*
X3895Y3225*
X3895Y3225*
X3895Y3226*
X3896Y3226*
X3896Y3227*
X3896Y3227*
X3896Y3228*
Y3228*
X3897Y3228*
X3897Y3228*
X3897Y3228*
X3897Y3229*
X3897Y3229*
X3897Y3229*
X3897Y3229*
X3897Y3230*
X3897Y3231*
X3897Y3232*
X3897Y3233*
Y3233*
Y3233*
Y3233*
X3897Y3234*
Y3234*
X3897Y3234*
X3897Y3235*
X3897Y3235*
X3897Y3236*
X3897Y3237*
X3896Y3238*
X3896Y3239*
X3896Y3239*
Y3239*
X3896Y3239*
X3896Y3239*
X3896Y3239*
X3895Y3240*
X3895Y3240*
X3894Y3241*
X3894Y3241*
X3893Y3242*
X3893Y3242*
X3893Y3242*
X3892Y3242*
X3892Y3242*
X3892Y3242*
X3891Y3242*
X3890Y3242*
X3890Y3242*
X3889*
X3889Y3243*
G37*
G36*
X897Y2907D02*
X896D01*
X896*
X896*
X896Y2907*
X896*
X895Y2907*
X895Y2907*
X894Y2907*
X893Y2907*
X892Y2907*
X891Y2906*
X891Y2906*
X890Y2906*
X890*
X890Y2906*
X890Y2906*
X890Y2906*
X890Y2905*
X889Y2905*
X889Y2904*
X888Y2904*
X888Y2903*
X887Y2903*
X887Y2903*
X887Y2902*
X887Y2902*
X887Y2902*
X887Y2901*
X887Y2900*
X887Y2900*
Y2899*
X887Y2899*
Y2893*
X906*
Y2899*
X906Y2899*
X906Y2900*
X906Y2900*
X906Y2901*
X906Y2902*
X906Y2902*
X906Y2902*
X906Y2903*
X906Y2903*
X906Y2903*
X905Y2904*
X905Y2904*
X905Y2904*
X905Y2905*
X905Y2905*
X904Y2905*
X904Y2905*
X904Y2905*
X903Y2906*
X903Y2906*
X902Y2906*
X901Y2906*
X901*
X901Y2907*
X901Y2907*
X901Y2907*
X901Y2907*
X901Y2907*
X900Y2907*
X900Y2907*
X899Y2907*
X899Y2907*
X898Y2907*
X897Y2907*
G37*
G36*
X1947Y3057D02*
X1947D01*
X1947Y3057*
X1946Y3057*
X1946Y3057*
X1945Y3057*
X1944Y3056*
X1944Y3056*
X1943Y3055*
X1943Y3055*
X1943Y3055*
X1943Y3055*
X1943Y3054*
X1942Y3054*
X1942Y3053*
X1942Y3053*
X1942Y3052*
Y3052*
Y3052*
Y3052*
X1942Y3051*
X1942Y3051*
X1942Y3050*
X1942Y3050*
X1942Y3049*
X1943Y3049*
X1943Y3048*
X1943Y3048*
X1944Y3048*
X1944Y3048*
X1944Y3047*
X1945Y3047*
X1946Y3047*
X1946Y3047*
X1947Y3047*
X1947*
X1947Y3047*
X1948Y3047*
X1948Y3047*
X1949Y3047*
X1950Y3047*
X1950Y3048*
X1951Y3048*
X1951Y3048*
X1951Y3048*
X1951Y3049*
X1951Y3049*
X1952Y3050*
X1952Y3050*
X1952Y3051*
X1952Y3052*
Y3052*
Y3052*
X1952Y3052*
X1952Y3053*
X1952Y3053*
X1952Y3053*
X1952Y3054*
X1952Y3054*
X1952Y3054*
X1952Y3055*
X1951Y3055*
X1951Y3055*
X1951Y3055*
X1951Y3056*
X1950Y3056*
X1950Y3056*
X1950Y3056*
X1950Y3056*
X1949Y3056*
X1949Y3057*
X1949Y3057*
X1948Y3057*
X1948Y3057*
X1947Y3057*
G37*
G36*
Y3044D02*
X1947D01*
X1947Y3044*
X1946Y3044*
X1946Y3044*
X1945Y3044*
X1945Y3044*
X1944Y3043*
X1944Y3043*
X1944Y3043*
X1944Y3043*
X1944Y3042*
X1943Y3042*
X1943Y3042*
X1943Y3041*
X1943Y3041*
X1943Y3040*
Y3040*
Y3040*
Y3040*
X1943Y3039*
X1943Y3039*
X1943Y3039*
X1943Y3038*
X1944Y3038*
X1944Y3037*
X1944Y3037*
X1944Y3037*
X1945Y3037*
X1945Y3037*
X1945Y3036*
X1946Y3036*
X1946Y3036*
X1947Y3036*
X1947*
X1948Y3036*
X1948Y3036*
X1949Y3036*
X1949Y3036*
X1950Y3037*
X1950Y3037*
X1950Y3037*
X1950Y3037*
X1950Y3038*
X1951Y3038*
X1951Y3038*
X1951Y3039*
X1951Y3039*
X1951Y3040*
Y3040*
Y3040*
X1951Y3040*
X1951Y3041*
X1951Y3041*
X1951Y3041*
X1951Y3042*
X1950Y3042*
X1950Y3043*
X1950Y3043*
X1950Y3043*
X1950Y3043*
X1949Y3043*
X1949Y3044*
X1948Y3044*
X1948Y3044*
X1947Y3044*
G37*
G36*
X2067Y3243D02*
X2061D01*
Y3223*
X2067*
X2068Y3223*
X2068Y3223*
X2069Y3223*
X2069Y3223*
X2070Y3223*
X2071Y3223*
X2071Y3223*
X2071Y3223*
X2071Y3224*
X2071Y3224*
X2072Y3224*
X2072Y3224*
X2073Y3224*
X2073Y3225*
X2073Y3225*
X2073Y3225*
X2073Y3225*
X2074Y3226*
X2074Y3226*
X2074Y3227*
X2074Y3227*
X2075Y3228*
Y3228*
X2075Y3228*
X2075Y3228*
X2075Y3228*
X2075Y3229*
X2075Y3229*
X2075Y3229*
X2075Y3229*
X2075Y3230*
X2075Y3231*
X2075Y3232*
X2075Y3233*
Y3233*
Y3233*
Y3233*
X2075Y3234*
Y3234*
X2075Y3234*
X2075Y3235*
X2075Y3235*
X2075Y3236*
X2075Y3237*
X2075Y3238*
X2074Y3239*
X2074Y3239*
Y3239*
X2074Y3239*
X2074Y3239*
X2074Y3239*
X2074Y3240*
X2073Y3240*
X2073Y3241*
X2072Y3241*
X2072Y3242*
X2071Y3242*
X2071Y3242*
X2071Y3242*
X2070Y3242*
X2070Y3242*
X2069Y3242*
X2069Y3242*
X2068Y3242*
X2068*
X2067Y3243*
G37*
G36*
X2091Y3243D02*
X2090D01*
X2090Y3243*
X2090Y3243*
X2089Y3243*
X2089Y3243*
X2088Y3242*
X2088Y3242*
X2088Y3242*
X2087Y3242*
X2087Y3241*
X2087Y3241*
X2087Y3241*
X2087Y3240*
X2087Y3240*
X2087Y3239*
Y3239*
Y3239*
X2087Y3239*
X2087Y3238*
X2087Y3238*
X2087Y3238*
X2087Y3237*
X2087Y3237*
X2088Y3236*
X2088Y3236*
X2088Y3236*
X2088Y3236*
X2088Y3236*
X2089Y3235*
X2089Y3235*
X2090Y3235*
X2091Y3235*
X2091*
X2091Y3235*
X2091Y3235*
X2092Y3235*
X2092Y3235*
X2093Y3235*
X2093Y3236*
X2094Y3236*
X2094Y3236*
X2094Y3236*
X2094Y3237*
X2094Y3237*
X2095Y3237*
X2095Y3238*
X2095Y3238*
X2095Y3239*
Y3239*
Y3239*
Y3239*
X2095Y3240*
X2095Y3240*
X2095Y3240*
X2094Y3241*
X2094Y3241*
X2094Y3242*
X2094Y3242*
X2093Y3242*
X2093Y3242*
X2093Y3242*
X2092Y3243*
X2092Y3243*
X2091Y3243*
X2091Y3243*
G37*
G36*
X2091Y3232D02*
X2090D01*
X2090Y3232*
X2090Y3232*
X2089Y3232*
X2089Y3232*
X2088Y3232*
X2087Y3231*
X2087Y3231*
X2087Y3231*
X2087Y3231*
X2086Y3230*
X2086Y3230*
X2086Y3229*
X2086Y3229*
X2086Y3228*
X2085Y3227*
Y3227*
Y3227*
X2086Y3227*
X2086Y3226*
X2086Y3226*
X2086Y3226*
X2086Y3225*
X2086Y3225*
X2086Y3225*
X2086Y3224*
X2086Y3224*
X2087Y3224*
X2087Y3224*
X2087Y3223*
X2088Y3223*
X2088Y3223*
X2088Y3223*
X2088Y3223*
X2088Y3223*
X2089Y3222*
X2089Y3222*
X2090Y3222*
X2090Y3222*
X2091Y3222*
X2091*
X2091Y3222*
X2092Y3222*
X2092Y3222*
X2093Y3222*
X2093Y3223*
X2094Y3223*
X2094Y3224*
X2095Y3224*
X2095Y3224*
X2095Y3224*
X2095Y3225*
X2095Y3225*
X2096Y3226*
X2096Y3226*
X2096Y3227*
Y3227*
Y3227*
Y3227*
X2096Y3228*
X2096Y3228*
X2096Y3229*
X2096Y3229*
X2095Y3230*
X2095Y3230*
X2094Y3231*
X2094Y3231*
X2094Y3231*
X2094Y3231*
X2093Y3232*
X2093Y3232*
X2092Y3232*
X2091Y3232*
X2091Y3232*
G37*
G36*
X2702Y3047D02*
X2702D01*
X2701Y3047*
X2701Y3047*
X2701Y3047*
X2700Y3047*
X2700Y3046*
X2699Y3046*
X2699Y3046*
X2698Y3045*
Y3045*
X2698Y3045*
X2698Y3045*
X2698Y3045*
X2698Y3044*
X2697Y3044*
X2697Y3043*
X2697Y3042*
X2697Y3041*
Y3041*
Y3041*
Y3041*
X2697Y3041*
Y3040*
X2697Y3040*
X2697Y3039*
X2697Y3039*
X2698Y3038*
X2698Y3037*
X2698Y3037*
X2698Y3037*
X2699Y3037*
X2699Y3036*
X2699Y3036*
X2700Y3036*
X2700Y3035*
X2701Y3035*
X2702Y3035*
X2702*
X2702Y3035*
X2703Y3035*
X2703Y3035*
X2704Y3036*
X2704Y3036*
X2705Y3036*
X2706Y3037*
X2706Y3037*
X2706Y3037*
X2706Y3037*
X2706Y3038*
X2707Y3038*
X2707Y3039*
X2707Y3040*
X2707Y3041*
Y3041*
Y3041*
X2707Y3041*
X2707Y3042*
X2707Y3042*
X2707Y3043*
X2707Y3043*
X2706Y3044*
X2706Y3044*
X2706Y3044*
X2706Y3044*
X2706Y3045*
X2706Y3045*
X2705Y3045*
X2705Y3046*
X2704Y3046*
X2704Y3046*
X2704Y3046*
X2704Y3046*
X2704Y3047*
X2703Y3047*
X2703Y3047*
X2702Y3047*
X2702Y3047*
G37*
G36*
X5550Y3015D02*
X5539D01*
X5550Y3007*
Y3015*
G37*
G36*
X2370Y3242D02*
X2364D01*
Y3223*
X2370*
X2371Y3223*
X2371Y3223*
X2372Y3223*
X2372Y3223*
X2373Y3223*
X2374Y3223*
X2374Y3223*
X2374Y3223*
X2374Y3223*
X2374Y3223*
X2375Y3224*
X2375Y3224*
X2376Y3224*
X2376Y3224*
X2376Y3224*
X2376Y3225*
X2376Y3225*
X2377Y3225*
X2377Y3226*
X2377Y3226*
X2378Y3227*
X2378Y3228*
Y3228*
X2378Y3228*
X2378Y3228*
X2378Y3228*
X2378Y3228*
X2378Y3228*
X2378Y3229*
X2378Y3229*
X2378Y3230*
X2378Y3230*
X2378Y3231*
X2379Y3232*
Y3233*
Y3233*
Y3233*
X2378Y3233*
Y3233*
X2378Y3234*
X2378Y3234*
X2378Y3235*
X2378Y3236*
X2378Y3237*
X2378Y3238*
X2377Y3238*
X2377Y3239*
Y3239*
X2377Y3239*
X2377Y3239*
X2377Y3239*
X2377Y3239*
X2376Y3240*
X2376Y3240*
X2375Y3241*
X2375Y3241*
X2374Y3242*
X2374Y3242*
X2374Y3242*
X2373Y3242*
X2373Y3242*
X2372Y3242*
X2372Y3242*
X2371Y3242*
X2371*
X2370Y3242*
G37*
G36*
X3593Y3234D02*
X3592D01*
X3592Y3234*
X3592Y3234*
X3591Y3234*
X3591Y3233*
X3590Y3233*
X3590Y3233*
X3589Y3232*
X3589Y3232*
X3589Y3232*
X3589Y3232*
X3588Y3231*
X3588Y3231*
X3588Y3230*
X3588Y3229*
X3588Y3228*
Y3228*
Y3228*
X3588Y3228*
X3588Y3227*
X3588Y3227*
X3588Y3226*
X3588Y3226*
X3588Y3225*
X3588Y3225*
X3588Y3225*
X3588Y3225*
X3589Y3224*
X3589Y3224*
X3589Y3224*
X3590Y3223*
X3590Y3223*
X3590Y3223*
X3590Y3223*
X3591Y3223*
X3591Y3223*
X3591Y3222*
X3592Y3222*
X3592Y3222*
X3593Y3222*
X3593*
X3593Y3222*
X3593Y3222*
X3594Y3222*
X3594Y3223*
X3595Y3223*
X3596Y3223*
X3596Y3223*
X3596Y3224*
Y3224*
X3596Y3224*
X3596Y3224*
X3597Y3224*
X3597Y3225*
X3597Y3225*
X3597Y3226*
X3598Y3227*
X3598Y3228*
Y3228*
Y3228*
Y3228*
X3598Y3228*
Y3229*
X3598Y3229*
X3597Y3230*
X3597Y3230*
X3597Y3231*
X3597Y3232*
X3596Y3232*
X3596Y3232*
X3596Y3232*
X3596Y3233*
X3595Y3233*
X3595Y3233*
X3594Y3234*
X3593Y3234*
X3593Y3234*
G37*
G36*
X3569Y3243D02*
X3563D01*
Y3223*
X3569*
X3569Y3223*
X3570Y3223*
X3570Y3223*
X3571Y3223*
X3572Y3223*
X3572Y3223*
X3572Y3223*
X3573Y3223*
X3573Y3224*
X3573Y3224*
X3574Y3224*
X3574Y3224*
X3574Y3224*
X3575Y3225*
X3575Y3225*
X3575Y3225*
X3575Y3225*
X3575Y3226*
X3576Y3226*
X3576Y3227*
X3576Y3227*
X3576Y3228*
Y3228*
X3577Y3228*
X3577Y3228*
X3577Y3228*
X3577Y3229*
X3577Y3229*
X3577Y3229*
X3577Y3229*
X3577Y3230*
X3577Y3231*
X3577Y3232*
X3577Y3233*
Y3233*
Y3233*
Y3233*
X3577Y3234*
Y3234*
X3577Y3234*
X3577Y3235*
X3577Y3235*
X3577Y3236*
X3577Y3237*
X3576Y3238*
X3576Y3239*
X3576Y3239*
Y3239*
X3576Y3239*
X3576Y3239*
X3576Y3239*
X3575Y3240*
X3575Y3240*
X3574Y3241*
X3574Y3241*
X3573Y3242*
X3573Y3242*
X3573Y3242*
X3572Y3242*
X3572Y3242*
X3572Y3242*
X3571Y3242*
X3570Y3242*
X3570Y3242*
X3569*
X3569Y3243*
G37*
G36*
X3497Y470D02*
Y462D01*
X3509*
X3497Y470*
G37*
G36*
X1496Y3298D02*
X1495D01*
X1495Y3298*
X1495Y3298*
X1494Y3297*
X1494Y3297*
X1493Y3297*
X1493Y3297*
X1492Y3296*
X1492Y3296*
X1492Y3296*
X1492Y3295*
X1491Y3295*
X1491Y3294*
X1491Y3294*
X1491Y3293*
X1491Y3292*
Y3292*
Y3292*
Y3292*
X1491Y3291*
Y3291*
X1491Y3291*
X1491Y3290*
X1491Y3290*
X1491Y3289*
X1492Y3288*
X1492Y3288*
Y3287*
X1492Y3287*
X1492Y3287*
X1493Y3287*
X1493Y3287*
X1494Y3286*
X1494Y3286*
X1495Y3286*
X1495Y3286*
X1496*
X1496Y3286*
X1496Y3286*
X1497Y3286*
X1497Y3286*
X1498Y3287*
X1499Y3287*
X1499Y3287*
X1499Y3288*
Y3288*
X1499Y3288*
X1499Y3288*
X1499Y3288*
X1500Y3288*
X1500Y3289*
X1500Y3289*
X1501Y3290*
X1501Y3291*
X1501Y3292*
Y3292*
Y3292*
Y3292*
X1501Y3293*
Y3293*
X1501Y3293*
X1501Y3294*
X1500Y3294*
X1500Y3295*
X1500Y3295*
X1499Y3296*
X1499Y3296*
X1499Y3296*
X1499Y3297*
X1498Y3297*
X1498Y3297*
X1497Y3297*
X1496Y3298*
X1496Y3298*
G37*
G36*
X1563Y2603D02*
X1563D01*
X1563Y2603*
X1562Y2603*
X1562Y2603*
X1561Y2603*
X1561Y2602*
X1560Y2602*
X1560Y2602*
X1560Y2602*
X1560Y2601*
X1560Y2601*
X1560Y2601*
X1559Y2600*
X1559Y2600*
X1559Y2599*
Y2599*
Y2599*
X1559Y2599*
X1559Y2598*
X1559Y2598*
X1560Y2598*
X1560Y2597*
X1560Y2597*
X1560Y2596*
X1560Y2596*
X1561Y2596*
X1561Y2596*
X1561Y2596*
X1562Y2595*
X1562Y2595*
X1563Y2595*
X1563Y2595*
X1564*
X1564Y2595*
X1564Y2595*
X1565Y2595*
X1565Y2595*
X1565Y2595*
X1566Y2596*
X1566Y2596*
X1566Y2596*
X1567Y2596*
X1567Y2597*
X1567Y2597*
X1567Y2597*
X1567Y2598*
X1568Y2598*
X1568Y2599*
Y2599*
Y2599*
Y2599*
X1568Y2600*
X1567Y2600*
X1567Y2600*
X1567Y2601*
X1567Y2601*
X1566Y2602*
X1566Y2602*
X1566Y2602*
X1566Y2602*
X1566Y2602*
X1565Y2603*
X1565Y2603*
X1564Y2603*
X1563Y2603*
G37*
G36*
X1563Y2592D02*
X1563D01*
X1563Y2592*
X1563Y2592*
X1562Y2592*
X1561Y2592*
X1561Y2592*
X1560Y2591*
X1560Y2591*
X1560Y2591*
X1559Y2591*
X1559Y2590*
X1559Y2590*
X1559Y2589*
X1558Y2589*
X1558Y2588*
X1558Y2587*
Y2587*
Y2587*
X1558Y2587*
X1558Y2586*
X1558Y2586*
X1558Y2586*
X1559Y2585*
X1559Y2585*
X1559Y2585*
X1559Y2584*
X1559Y2584*
X1559Y2584*
X1560Y2584*
X1560Y2583*
X1560Y2583*
X1561Y2583*
X1561Y2583*
X1561Y2583*
X1561Y2583*
X1562Y2582*
X1562Y2582*
X1562Y2582*
X1563Y2582*
X1563Y2582*
X1564*
X1564Y2582*
X1564Y2582*
X1565Y2582*
X1565Y2582*
X1566Y2583*
X1567Y2583*
X1567Y2584*
X1567Y2584*
X1567Y2584*
X1568Y2584*
X1568Y2585*
X1568Y2585*
X1568Y2586*
X1569Y2586*
X1569Y2587*
Y2587*
Y2587*
Y2587*
X1569Y2588*
X1569Y2588*
X1568Y2589*
X1568Y2589*
X1568Y2590*
X1568Y2590*
X1567Y2591*
X1567Y2591*
X1567Y2591*
X1567Y2591*
X1566Y2592*
X1566Y2592*
X1565Y2592*
X1564Y2592*
X1563Y2592*
G37*
G36*
X1520Y2213D02*
X1509D01*
X1520Y2205*
Y2213*
G37*
G36*
X808Y2339D02*
X808D01*
X808*
X808Y2339*
X807Y2339*
X807Y2339*
X806Y2338*
X806Y2338*
X805Y2338*
X805Y2338*
X805Y2338*
X805Y2338*
X804Y2338*
X804Y2337*
X804Y2337*
X803Y2337*
X803Y2336*
X803Y2336*
X803Y2336*
X803Y2336*
X803Y2335*
X802Y2335*
X802Y2335*
X802Y2334*
X802Y2334*
Y2333*
X802Y2333*
X802Y2333*
X802Y2332*
X803Y2332*
X803Y2331*
X803Y2331*
X803Y2330*
X804Y2330*
X804*
X804Y2330*
X804Y2330*
X804Y2330*
X805Y2329*
X805Y2329*
X806Y2329*
X807Y2329*
X808Y2329*
X808*
X808*
X808*
X808Y2329*
X809*
X809Y2329*
X810Y2329*
X810Y2329*
X811Y2329*
X812Y2330*
X812Y2330*
X812Y2330*
X812Y2330*
X813Y2331*
X813Y2331*
X813Y2332*
X814Y2332*
X814Y2333*
X814Y2334*
Y2334*
X814Y2334*
X814Y2334*
X814Y2335*
X813Y2335*
X813Y2336*
X813Y2337*
X812Y2337*
X812Y2337*
X812Y2338*
X812Y2338*
X811Y2338*
X811Y2338*
X810Y2339*
X809Y2339*
X808Y2339*
G37*
G36*
X3701Y2998D02*
X3701D01*
X3701*
X3701*
X3701Y2998*
X3700*
X3700Y2998*
X3699Y2997*
X3699Y2997*
X3698Y2997*
X3697Y2997*
X3697Y2996*
X3697Y2996*
X3697Y2996*
X3696Y2996*
X3696Y2995*
X3696Y2995*
X3695Y2994*
X3695Y2993*
X3695Y2993*
Y2992*
X3695Y2992*
X3695Y2992*
X3695Y2991*
X3696Y2991*
X3696Y2990*
X3696Y2990*
X3697Y2989*
X3697Y2989*
X3697Y2989*
X3697Y2988*
X3698Y2988*
X3698Y2988*
X3699Y2988*
X3700Y2988*
X3701Y2987*
X3701*
X3701*
X3701Y2988*
X3702Y2988*
X3702Y2988*
X3703Y2988*
X3703Y2988*
X3704Y2988*
X3704Y2988*
X3704Y2988*
X3704Y2988*
X3705Y2989*
X3705Y2989*
X3705Y2989*
X3706Y2990*
X3706Y2990*
X3706Y2990*
X3706Y2990*
X3706Y2991*
X3707Y2991*
X3707Y2991*
X3707Y2992*
X3707Y2992*
X3707Y2993*
Y2993*
X3707Y2993*
X3707Y2993*
X3707Y2994*
X3707Y2994*
X3706Y2995*
X3706Y2996*
X3706Y2996*
X3705Y2996*
X3705*
X3705Y2996*
X3705Y2996*
X3705Y2997*
X3704Y2997*
X3704Y2997*
X3703Y2997*
X3702Y2998*
X3701Y2998*
G37*
G36*
X2389Y1571D02*
X2389D01*
X2388*
X2388*
X2388*
X2388Y1570*
X2387*
X2387Y1570*
X2387Y1570*
X2386Y1570*
X2385Y1570*
X2384Y1570*
X2383Y1569*
X2383*
X2383Y1569*
X2383Y1569*
X2383Y1569*
X2382Y1569*
X2382Y1569*
X2381Y1568*
X2381Y1568*
X2380Y1567*
X2379Y1566*
Y1566*
X2379Y1566*
X2379Y1566*
X2379Y1566*
X2379Y1566*
X2379Y1566*
X2379Y1565*
X2379Y1564*
X2378Y1564*
X2378Y1563*
X2378Y1562*
Y1561*
X2378Y1561*
X2378Y1561*
X2378Y1560*
X2378Y1560*
X2379Y1560*
X2379Y1559*
X2379Y1559*
X2379Y1558*
X2379Y1557*
X2380Y1557*
X2380Y1556*
X2380Y1556*
X2381Y1555*
X2381Y1555*
X2381Y1555*
X2381Y1555*
X2381Y1555*
X2382Y1555*
X2382Y1555*
X2382Y1554*
X2383Y1554*
X2383Y1554*
X2384Y1554*
X2384Y1554*
X2385Y1553*
X2386Y1553*
X2387Y1553*
X2388Y1553*
X2389Y1553*
X2389*
X2389*
X2389*
X2389Y1553*
X2390Y1553*
X2390Y1553*
X2391Y1553*
X2391Y1553*
X2393Y1554*
X2393Y1554*
X2394Y1554*
X2395Y1554*
X2395Y1555*
X2396Y1555*
X2396Y1555*
X2396Y1555*
X2396Y1556*
X2396Y1556*
X2397Y1556*
X2397Y1556*
X2397Y1556*
X2397Y1557*
X2398Y1557*
X2398Y1558*
X2398Y1558*
X2398Y1559*
X2398Y1559*
X2399Y1560*
X2399Y1560*
X2399Y1561*
X2399Y1562*
Y1562*
X2399Y1562*
X2399Y1563*
X2399Y1563*
X2399Y1564*
X2398Y1565*
X2398Y1565*
X2398Y1565*
X2398Y1565*
X2398Y1565*
X2398Y1564*
X2397Y1564*
X2397Y1563*
X2397Y1562*
X2397Y1562*
X2394Y1563*
Y1563*
X2394Y1563*
X2394Y1563*
X2394Y1563*
X2395Y1563*
X2395Y1564*
X2395Y1564*
X2395Y1565*
X2396Y1566*
X2396Y1567*
X2397Y1568*
X2397Y1568*
X2397Y1568*
X2396Y1568*
X2396Y1568*
X2396Y1568*
X2396Y1568*
X2395Y1569*
X2395Y1569*
X2394Y1569*
X2394Y1570*
X2393Y1570*
X2392Y1570*
X2391Y1570*
X2390Y1570*
X2390Y1570*
X2389Y1571*
G37*
G36*
X5722Y3347D02*
X5721D01*
X5721Y3347*
X5721Y3347*
X5720Y3347*
X5720Y3347*
X5720Y3347*
X5719Y3347*
X5719Y3347*
X5718Y3346*
X5717Y3346*
X5717Y3346*
X5716Y3345*
X5716Y3345*
X5715Y3345*
X5715Y3345*
X5715Y3344*
X5715Y3344*
X5715Y3344*
X5715Y3344*
X5715Y3344*
X5714Y3343*
X5714Y3343*
X5714Y3342*
X5714Y3342*
X5714Y3341*
X5713Y3340*
X5713Y3339*
X5713Y3339*
X5713Y3338*
X5713Y3337*
Y3337*
Y3337*
Y3336*
X5713Y3336*
X5713Y3336*
X5713Y3335*
X5713Y3335*
X5713Y3334*
X5714Y3333*
X5714Y3332*
X5714Y3332*
X5714Y3331*
X5715Y3330*
X5715Y3330*
X5715Y3329*
X5715Y3329*
X5716Y3329*
X5716Y3329*
X5716Y3329*
X5716Y3329*
X5716Y3328*
X5717Y3328*
X5717Y3328*
X5718Y3328*
X5718Y3327*
X5719Y3327*
X5719Y3327*
X5720Y3327*
X5720Y3327*
X5721Y3327*
X5722Y3327*
X5722*
X5722Y3327*
X5723Y3327*
X5723Y3327*
X5724Y3327*
X5725Y3327*
X5725Y3327*
X5725Y3327*
X5725Y3327*
X5725Y3328*
X5724Y3328*
X5724Y3328*
X5723Y3328*
X5722Y3328*
X5722Y3329*
X5723Y3331*
X5723*
X5723Y3331*
X5723Y3331*
X5723Y3331*
X5723Y3331*
X5724Y3331*
X5724Y3331*
X5725Y3330*
X5726Y3330*
X5727Y3329*
X5728Y3329*
X5728Y3329*
X5728Y3329*
X5728Y3329*
X5728Y3329*
X5728Y3329*
X5728Y3330*
X5729Y3330*
X5729Y3331*
X5729Y3331*
X5730Y3332*
X5730Y3333*
X5730Y3333*
X5730Y3334*
X5730Y3335*
X5730Y3336*
X5731Y3337*
Y3337*
Y3337*
Y3337*
Y3337*
X5730Y3338*
Y3338*
X5730Y3338*
X5730Y3339*
X5730Y3340*
X5730Y3340*
X5730Y3341*
X5729Y3342*
Y3342*
X5729Y3342*
X5729Y3343*
X5729Y3343*
X5729Y3343*
X5729Y3344*
X5728Y3344*
X5728Y3345*
X5727Y3345*
X5726Y3346*
X5726*
X5726Y3346*
X5726Y3346*
X5726Y3346*
X5726Y3346*
X5726Y3346*
X5725Y3347*
X5724Y3347*
X5724Y3347*
X5723Y3347*
X5722Y3347*
G37*
%LNpcb-3*%
%LPD*%
G54D16*
X4652Y2446D02*
Y2493D01*
Y2446D02*
X4747D01*
Y2493*
X4652D02*
X4747D01*
X1421Y826D02*
Y961D01*
X1498*
Y826D02*
Y961D01*
X1421Y826D02*
X1498D01*
X1058Y2744D02*
Y3035D01*
X1221*
Y2744D02*
Y3035D01*
X1058Y2744D02*
X1221D01*
X799Y3142D02*
X1220D01*
X799D02*
Y3497D01*
X1220*
Y3142D02*
Y3497D01*
X4509Y3453D02*
X5129D01*
X4509D02*
Y4140D01*
X5129*
Y3453D02*
Y4140D01*
X4562Y2446D02*
Y2493D01*
Y2446D02*
X4657D01*
Y2493*
X4562D02*
X4657D01*
X3017Y3291D02*
X3255D01*
Y3128D02*
Y3291D01*
X3017Y3128D02*
X3255D01*
X3017D02*
Y3291D01*
X4896Y3248D02*
Y3359D01*
X4821Y3248D02*
X4896D01*
X4821D02*
Y3359D01*
X4896*
X5376Y3722D02*
X5703D01*
X5376D02*
Y3937D01*
X5703*
Y3722D02*
Y3937D01*
X4421Y2647D02*
X4498D01*
X4421Y2512D02*
Y2647D01*
Y2512D02*
X4498D01*
Y2647*
X5598Y1192D02*
Y1327D01*
X5521Y1192D02*
X5598D01*
X5521D02*
Y1327D01*
X5598*
X2687Y3291D02*
X2925D01*
Y3128D02*
Y3291D01*
X2687Y3128D02*
X2925D01*
X2687D02*
Y3291D01*
X1249Y2336D02*
Y2623D01*
X907D02*
X1249D01*
X907Y2336D02*
Y2623D01*
Y2336D02*
X1249D01*
X3806Y339D02*
Y642D01*
X3649Y339D02*
X3806D01*
X3649D02*
Y642D01*
X3806*
X3761Y3301D02*
X3998D01*
Y3138D02*
Y3301D01*
X3761Y3138D02*
X3998D01*
X3761D02*
Y3301D01*
X828Y2744D02*
Y3035D01*
X991*
Y2744D02*
Y3035D01*
X828Y2744D02*
X991D01*
X2068Y3021D02*
Y3098D01*
X1934D02*
X2068D01*
X1934Y3021D02*
Y3098D01*
Y3021D02*
X2068D01*
X3575D02*
Y3098D01*
X3441D02*
X3575D01*
X3441Y3021D02*
Y3098D01*
Y3021D02*
X3575D01*
X1939Y3301D02*
X2177D01*
Y3138D02*
Y3301D01*
X1939Y3138D02*
X2177D01*
X1939D02*
Y3301D01*
X2823Y3011D02*
Y3088D01*
X2689D02*
X2823D01*
X2689Y3011D02*
Y3088D01*
Y3011D02*
X2823D01*
X5521Y2892D02*
Y3027D01*
X5598*
Y2892D02*
Y3027D01*
X5521Y2892D02*
X5598D01*
X2242Y3301D02*
X2480D01*
Y3138D02*
Y3301D01*
X2242Y3138D02*
X2480D01*
X2242D02*
Y3301D01*
X3441D02*
X3678D01*
Y3138D02*
Y3301D01*
X3441Y3138D02*
X3678D01*
X3441D02*
Y3301D01*
X908Y2016D02*
X1251D01*
X908D02*
Y2303D01*
X1251*
Y2016D02*
Y2303D01*
X3409Y642D02*
X3566D01*
X3409Y339D02*
Y642D01*
Y339D02*
X3566D01*
Y642*
X1701Y3166D02*
Y3453D01*
X1358D02*
X1701D01*
X1358Y3166D02*
Y3453D01*
Y3166D02*
X1701D01*
X1358Y2436D02*
Y2723D01*
Y2436D02*
X1701D01*
Y2723*
X1358D02*
X1701D01*
X3006Y337D02*
Y640D01*
X2849Y337D02*
X3006D01*
X2849D02*
Y640D01*
X3006*
X761Y2132D02*
Y2267D01*
X838*
Y2132D02*
Y2267D01*
X761Y2132D02*
X838D01*
X1352Y1967D02*
X1707D01*
Y2388*
X1352D02*
X1707D01*
X1352Y1967D02*
Y2388D01*
X3099Y640D02*
X3256D01*
X3099Y337D02*
Y640D01*
Y337D02*
X3256D01*
Y640*
X838Y2301D02*
Y2435D01*
X761Y2301D02*
X838D01*
X761D02*
Y2435D01*
X838*
X4233Y2676D02*
X4386D01*
X4233Y2463D02*
Y2676D01*
Y2463D02*
X4386D01*
Y2676*
X2868Y2810D02*
X3084D01*
Y3089*
X2868D02*
X3084D01*
X2868Y2810D02*
Y3089D01*
X3601Y2820D02*
Y3099D01*
X3818*
Y2820D02*
Y3099D01*
X3601Y2820D02*
X3818D01*
X1384Y2779D02*
X1655D01*
Y3100*
X1384D02*
X1655D01*
X1384Y2779D02*
Y3100D01*
X2103Y2820D02*
Y3099D01*
X2319*
Y2820D02*
Y3099D01*
X2103Y2820D02*
X2319D01*
X2042Y1321D02*
Y1778D01*
X2750*
Y1321D02*
Y1778D01*
X2042Y1321D02*
X2750D01*
X5632Y3397D02*
X5787D01*
Y3262D02*
Y3397D01*
X5632Y3262D02*
X5787D01*
X5632D02*
Y3397D01*
M02*