%FSLAX23Y23*%
%MOIN*%
%SFA1B1*%

%IPPOS*%
%ADD12C,0.005000*%
%LNpcb-1*%
%LPD*%
G54D12*
X2442Y750D02*
X2487D01*
X2465Y727D02*
Y772D01*
X1852Y750D02*
X1897D01*
X1874Y727D02*
Y772D01*
X5010Y3726D02*
X5101D01*
X5056Y3681D02*
Y3771D01*
X4536Y3726D02*
X4627D01*
X4582Y3681D02*
Y3771D01*
X4751Y3541D02*
X4788D01*
X4770Y3523D02*
Y3559D01*
X4850Y3541D02*
X4886D01*
X4868Y3523D02*
Y3559D01*
X4850Y3620D02*
X4886D01*
X4868Y3601D02*
Y3638D01*
X4751Y3620D02*
X4788D01*
X4770Y3601D02*
Y3638D01*
X5659Y1210D02*
X5700D01*
X5680Y1189D02*
Y1230D01*
X5659Y1310D02*
X5700D01*
X5680Y1289D02*
Y1330D01*
X5659Y1410D02*
X5700D01*
X5680Y1389D02*
Y1430D01*
X5659Y1510D02*
X5700D01*
X5680Y1489D02*
Y1530D01*
X5659Y1610D02*
X5700D01*
X5680Y1589D02*
Y1630D01*
X5659Y1710D02*
X5700D01*
X5680Y1689D02*
Y1730D01*
X5659Y1810D02*
X5700D01*
X5680Y1789D02*
Y1830D01*
X5659Y1910D02*
X5700D01*
X5680Y1889D02*
Y1930D01*
X5659Y2010D02*
X5700D01*
X5680Y1989D02*
Y2030D01*
X5659Y2110D02*
X5700D01*
X5680Y2089D02*
Y2130D01*
X5659Y2210D02*
X5700D01*
X5680Y2189D02*
Y2230D01*
X5659Y2310D02*
X5700D01*
X5680Y2289D02*
Y2330D01*
X5659Y2410D02*
X5700D01*
X5680Y2389D02*
Y2430D01*
X5659Y2510D02*
X5700D01*
X5680Y2489D02*
Y2530D01*
X5659Y2610D02*
X5700D01*
X5680Y2589D02*
Y2630D01*
X5659Y2710D02*
X5700D01*
X5680Y2689D02*
Y2730D01*
X5659Y2810D02*
X5700D01*
X5680Y2789D02*
Y2830D01*
X5659Y2910D02*
X5700D01*
X5680Y2889D02*
Y2930D01*
X5659Y3010D02*
X5700D01*
X5680Y2989D02*
Y3030D01*
X5659Y3110D02*
X5700D01*
X5680Y3089D02*
Y3130D01*
X5759Y1210D02*
X5800D01*
X5780Y1189D02*
Y1230D01*
X5759Y1310D02*
X5800D01*
X5780Y1289D02*
Y1330D01*
X5759Y1410D02*
X5800D01*
X5780Y1389D02*
Y1430D01*
X5759Y1510D02*
X5800D01*
X5780Y1489D02*
Y1530D01*
X5759Y1610D02*
X5800D01*
X5780Y1589D02*
Y1630D01*
X5759Y1710D02*
X5800D01*
X5780Y1689D02*
Y1730D01*
X5759Y1810D02*
X5800D01*
X5780Y1789D02*
Y1830D01*
X5759Y1910D02*
X5800D01*
X5780Y1889D02*
Y1930D01*
X5759Y2010D02*
X5800D01*
X5780Y1989D02*
Y2030D01*
X5759Y2110D02*
X5800D01*
X5780Y2089D02*
Y2130D01*
X5759Y2210D02*
X5800D01*
X5780Y2189D02*
Y2230D01*
X5759Y2310D02*
X5800D01*
X5780Y2289D02*
Y2330D01*
X5759Y2410D02*
X5800D01*
X5780Y2389D02*
Y2430D01*
X5759Y2510D02*
X5800D01*
X5780Y2489D02*
Y2530D01*
X5759Y2610D02*
X5800D01*
X5780Y2589D02*
Y2630D01*
X5759Y2710D02*
X5800D01*
X5780Y2689D02*
Y2730D01*
X5759Y2810D02*
X5800D01*
X5780Y2789D02*
Y2830D01*
X5759Y2910D02*
X5800D01*
X5780Y2889D02*
Y2930D01*
X5759Y3010D02*
X5800D01*
X5780Y2989D02*
Y3030D01*
X5759Y3110D02*
X5800D01*
X5780Y3089D02*
Y3130D01*
X4578Y450D02*
X4621D01*
X4600Y428D02*
Y471D01*
X4478Y450D02*
X4521D01*
X4500Y428D02*
Y471D01*
X4378Y450D02*
X4421D01*
X4400Y428D02*
Y471D01*
X4278Y450D02*
X4321D01*
X4300Y428D02*
Y471D01*
X4178Y450D02*
X4221D01*
X4200Y428D02*
Y471D01*
X4578Y550D02*
X4621D01*
X4600Y528D02*
Y571D01*
X4478Y550D02*
X4521D01*
X4500Y528D02*
Y571D01*
X4378Y550D02*
X4421D01*
X4400Y528D02*
Y571D01*
X4278Y550D02*
X4321D01*
X4300Y528D02*
Y571D01*
X4178Y550D02*
X4221D01*
X4200Y528D02*
Y571D01*
X5619Y3880D02*
X5660D01*
X5640Y3859D02*
Y3900D01*
X5519Y3880D02*
X5560D01*
X5540Y3859D02*
Y3900D01*
X5419Y3880D02*
X5460D01*
X5440Y3859D02*
Y3900D01*
X5619Y3780D02*
X5660D01*
X5640Y3759D02*
Y3800D01*
X5519Y3780D02*
X5560D01*
X5540Y3759D02*
Y3800D01*
X5419Y3780D02*
X5460D01*
X5440Y3759D02*
Y3800D01*
X979Y500D02*
X1030D01*
X1005Y474D02*
Y525D01*
X1229Y500D02*
X1280D01*
X1255Y474D02*
Y525D01*
X3722Y540D02*
X3757D01*
X3740Y522D02*
Y557D01*
X3722Y441D02*
X3757D01*
X3740Y423D02*
Y459D01*
X820Y893D02*
X879D01*
X850Y864D02*
Y923D01*
X820Y1681D02*
X879D01*
X850Y1651D02*
Y1711D01*
X1133Y3808D02*
X1184D01*
X1159Y3782D02*
Y3833D01*
X883Y3808D02*
X934D01*
X909Y3782D02*
Y3833D01*
X2677Y3800D02*
X2815D01*
X2746Y3731D02*
Y3868D01*
X3127Y3805D02*
X3265D01*
X3196Y3736D02*
Y3873D01*
X3028Y3548D02*
X3067D01*
X3048Y3529D02*
Y3568D01*
X2978Y3448D02*
X3017D01*
X2998Y3429D02*
Y3468D01*
X2928Y3548D02*
X2967D01*
X2948Y3529D02*
Y3568D01*
X2878Y3448D02*
X2917D01*
X2898Y3429D02*
Y3468D01*
X2828Y3548D02*
X2867D01*
X2848Y3529D02*
Y3568D01*
X2778Y3448D02*
X2817D01*
X2798Y3429D02*
Y3468D01*
X3128Y3548D02*
X3167D01*
X3148Y3529D02*
Y3568D01*
X3078Y3448D02*
X3117D01*
X3098Y3429D02*
Y3468D01*
X3482Y441D02*
X3517D01*
X3500Y423D02*
Y459D01*
X3482Y540D02*
X3517D01*
X3500Y522D02*
Y557D01*
X3830Y3450D02*
X3869D01*
X3850Y3430D02*
Y3469D01*
X3880Y3550D02*
X3919D01*
X3900Y3530D02*
Y3569D01*
X3530Y3450D02*
X3569D01*
X3550Y3430D02*
Y3469D01*
X3580Y3550D02*
X3619D01*
X3600Y3530D02*
Y3569D01*
X3630Y3450D02*
X3669D01*
X3650Y3430D02*
Y3469D01*
X3680Y3550D02*
X3719D01*
X3700Y3530D02*
Y3569D01*
X3730Y3450D02*
X3769D01*
X3750Y3430D02*
Y3469D01*
X3780Y3550D02*
X3819D01*
X3800Y3530D02*
Y3569D01*
X3879Y3806D02*
X4017D01*
X3948Y3737D02*
Y3875D01*
X3429Y3801D02*
X3567D01*
X3498Y3732D02*
Y3870D01*
X5076Y550D02*
X5119D01*
X5098Y529D02*
Y572D01*
X5176Y550D02*
X5219D01*
X5198Y529D02*
Y572D01*
X5276Y550D02*
X5319D01*
X5298Y529D02*
Y572D01*
X5376Y550D02*
X5419D01*
X5398Y529D02*
Y572D01*
X5476Y550D02*
X5519D01*
X5498Y529D02*
Y572D01*
X5076Y450D02*
X5119D01*
X5098Y429D02*
Y472D01*
X5176Y450D02*
X5219D01*
X5198Y429D02*
Y472D01*
X5276Y450D02*
X5319D01*
X5298Y429D02*
Y472D01*
X5376Y450D02*
X5419D01*
X5398Y429D02*
Y472D01*
X5476Y450D02*
X5519D01*
X5498Y429D02*
Y472D01*
X2922Y538D02*
X2957D01*
X2940Y520D02*
Y556D01*
X2922Y440D02*
X2957D01*
X2940Y422D02*
Y457D01*
X3172Y440D02*
X3207D01*
X3190Y422D02*
Y457D01*
X3172Y538D02*
X3207D01*
X3190Y520D02*
Y556D01*
X1922Y3800D02*
X2060D01*
X1991Y3731D02*
Y3868D01*
X2372Y3805D02*
X2510D01*
X2441Y3736D02*
Y3873D01*
X2273Y3548D02*
X2312D01*
X2293Y3529D02*
Y3568D01*
X2223Y3448D02*
X2262D01*
X2243Y3429D02*
Y3468D01*
X2173Y3548D02*
X2212D01*
X2193Y3529D02*
Y3568D01*
X2123Y3448D02*
X2162D01*
X2143Y3429D02*
Y3468D01*
X2073Y3548D02*
X2112D01*
X2093Y3529D02*
Y3568D01*
X2023Y3448D02*
X2062D01*
X2043Y3429D02*
Y3468D01*
X2373Y3548D02*
X2412D01*
X2393Y3529D02*
Y3568D01*
X2323Y3448D02*
X2362D01*
X2343Y3429D02*
Y3468D01*
X587Y2390D02*
X612D01*
X600Y2377D02*
Y2402D01*
X587Y2290D02*
X612D01*
X600Y2277D02*
Y2302D01*
X587Y2190D02*
X612D01*
X600Y2177D02*
Y2202D01*
X490Y3515D02*
X549D01*
X520Y3485D02*
Y3544D01*
X490Y2924D02*
X549D01*
X520Y2895D02*
Y2954D01*
X5931Y343D02*
X6057D01*
X5994Y280D02*
Y406D01*
X5931Y3965D02*
X6057D01*
X5994Y3902D02*
Y4028D01*
X341Y343D02*
X467D01*
X404Y280D02*
Y406D01*
X341Y3965D02*
X467D01*
X404Y3902D02*
Y4028D01*
X3618Y2687D02*
X3653D01*
X3635Y2670D02*
Y2705D01*
X3818Y2482D02*
X3853D01*
X3835Y2465D02*
Y2500D01*
X2952Y1840D02*
X2987D01*
X2970Y1822D02*
Y1857D01*
X5307Y2945D02*
X5342D01*
X5325Y2927D02*
Y2962D01*
X5122Y2455D02*
X5157D01*
X5140Y2437D02*
Y2472D01*
X4892Y2690D02*
X4927D01*
X4910Y2672D02*
Y2707D01*
X4452Y2825D02*
X4487D01*
X4470Y2807D02*
Y2842D01*
X4597Y2985D02*
X4632D01*
X4615Y2967D02*
Y3002D01*
X4977Y3060D02*
X5012D01*
X4995Y3042D02*
Y3077D01*
X4682Y3980D02*
X4717D01*
X4700Y3962D02*
Y3997D01*
X4912Y3970D02*
X4947D01*
X4930Y3952D02*
Y3987D01*
X5207Y3945D02*
X5242D01*
X5225Y3927D02*
Y3962D01*
X4377Y3980D02*
X4412D01*
X4395Y3962D02*
Y3997D01*
X4182Y3840D02*
X4217D01*
X4200Y3822D02*
Y3857D01*
X4327Y3705D02*
X4362D01*
X4345Y3687D02*
Y3722D01*
X4122Y3555D02*
X4157D01*
X4140Y3537D02*
Y3572D01*
X4312Y3485D02*
X4347D01*
X4330Y3467D02*
Y3502D01*
X4122Y3350D02*
X4157D01*
X4140Y3332D02*
Y3367D01*
X5987Y3640D02*
X6022D01*
X6005Y3622D02*
Y3657D01*
X6007Y3385D02*
X6042D01*
X6025Y3367D02*
Y3402D01*
X6022Y3170D02*
X6057D01*
X6040Y3152D02*
Y3187D01*
X6007Y2915D02*
X6042D01*
X6025Y2897D02*
Y2932D01*
X5957Y2410D02*
X5992D01*
X5975Y2392D02*
Y2427D01*
X5952Y2185D02*
X5987D01*
X5970Y2167D02*
Y2202D01*
X5962Y1915D02*
X5997D01*
X5980Y1897D02*
Y1932D01*
X5957Y1685D02*
X5992D01*
X5975Y1667D02*
Y1702D01*
X5952Y1455D02*
X5987D01*
X5970Y1437D02*
Y1472D01*
X5952Y1165D02*
X5987D01*
X5970Y1147D02*
Y1182D01*
X5967Y870D02*
X6002D01*
X5985Y852D02*
Y887D01*
X5977Y630D02*
X6012D01*
X5995Y612D02*
Y647D01*
X5767Y445D02*
X5802D01*
X5785Y427D02*
Y462D01*
X5802Y570D02*
X5837D01*
X5820Y552D02*
Y587D01*
X5747Y805D02*
X5782D01*
X5765Y787D02*
Y822D01*
X5712Y1025D02*
X5747D01*
X5730Y1007D02*
Y1042D01*
X5552Y895D02*
X5587D01*
X5570Y877D02*
Y912D01*
X5427Y1065D02*
X5462D01*
X5445Y1047D02*
Y1082D01*
X5312Y1250D02*
X5347D01*
X5330Y1232D02*
Y1267D01*
X5187Y1415D02*
X5222D01*
X5205Y1397D02*
Y1432D01*
X4872Y1355D02*
X4907D01*
X4890Y1337D02*
Y1372D01*
X4992Y1445D02*
X5027D01*
X5010Y1427D02*
Y1462D01*
X4997Y1260D02*
X5032D01*
X5015Y1242D02*
Y1277D01*
X5167Y1110D02*
X5202D01*
X5185Y1092D02*
Y1127D01*
X5307Y960D02*
X5342D01*
X5325Y942D02*
Y977D01*
X5447Y755D02*
X5482D01*
X5465Y737D02*
Y772D01*
X5617Y630D02*
X5652D01*
X5635Y612D02*
Y647D01*
X5622Y365D02*
X5657D01*
X5640Y347D02*
Y382D01*
X4952Y360D02*
X4987D01*
X4970Y342D02*
Y377D01*
X4682Y365D02*
X4717D01*
X4700Y347D02*
Y382D01*
X3032Y315D02*
X3067D01*
X3050Y297D02*
Y332D01*
X3597Y320D02*
X3632D01*
X3615Y302D02*
Y337D01*
X3297Y320D02*
X3332D01*
X3315Y302D02*
Y337D01*
X3892Y365D02*
X3927D01*
X3910Y347D02*
Y382D01*
X3902Y550D02*
X3937D01*
X3920Y532D02*
Y567D01*
X3927Y815D02*
X3962D01*
X3945Y797D02*
Y832D01*
X3867Y1010D02*
X3902D01*
X3885Y992D02*
Y1027D01*
X3567Y1215D02*
X3602D01*
X3585Y1197D02*
Y1232D01*
X3052Y1275D02*
X3087D01*
X3070Y1257D02*
Y1292D01*
X3397Y1845D02*
X3432D01*
X3415Y1827D02*
Y1862D01*
X2232Y1995D02*
X2267D01*
X2250Y1977D02*
Y2012D01*
X2532Y1830D02*
X2567D01*
X2550Y1812D02*
Y1847D01*
X2812Y1915D02*
X2847D01*
X2830Y1898D02*
Y1933D01*
X2462Y1995D02*
X2497D01*
X2480Y1977D02*
Y2012D01*
X3432Y2290D02*
X3467D01*
X3450Y2272D02*
Y2307D01*
X3077Y2320D02*
X3112D01*
X3095Y2302D02*
Y2337D01*
X2372Y2320D02*
X2407D01*
X2390Y2302D02*
Y2337D01*
X2042Y2325D02*
X2077D01*
X2060Y2307D02*
Y2342D01*
X1812Y2205D02*
X1847D01*
X1830Y2187D02*
Y2222D01*
X3192Y2840D02*
X3227D01*
X3210Y2822D02*
Y2857D01*
X3417Y2845D02*
X3452D01*
X3435Y2827D02*
Y2862D01*
X3227Y2975D02*
X3262D01*
X3245Y2957D02*
Y2992D01*
X2652Y2870D02*
X2687D01*
X2670Y2852D02*
Y2887D01*
X2437Y2875D02*
X2472D01*
X2455Y2857D02*
Y2892D01*
X2487Y3000D02*
X2522D01*
X2505Y2982D02*
Y3017D01*
X1957Y2825D02*
X1992D01*
X1975Y2807D02*
Y2842D01*
X1757Y2840D02*
X1792D01*
X1775Y2822D02*
Y2857D01*
X1742Y3025D02*
X1777D01*
X1760Y3007D02*
Y3042D01*
X1757Y3550D02*
X1792D01*
X1775Y3532D02*
Y3567D01*
X2142Y1830D02*
X2177D01*
X2160Y1812D02*
Y1847D01*
X1852Y1615D02*
X1887D01*
X1870Y1597D02*
Y1632D01*
X1967Y1140D02*
X2002D01*
X1985Y1122D02*
Y1157D01*
X2417Y1210D02*
X2452D01*
X2435Y1192D02*
Y1227D01*
X2692Y1025D02*
X2727D01*
X2710Y1007D02*
Y1042D01*
X2377Y950D02*
X2412D01*
X2395Y932D02*
Y967D01*
X2707Y800D02*
X2742D01*
X2725Y782D02*
Y817D01*
X2727Y595D02*
X2762D01*
X2745Y577D02*
Y612D01*
X2637Y350D02*
X2672D01*
X2655Y332D02*
Y367D01*
X2452Y435D02*
X2487D01*
X2470Y417D02*
Y452D01*
X2242Y815D02*
X2277D01*
X2260Y797D02*
Y832D01*
X2227Y475D02*
X2262D01*
X2245Y457D02*
Y492D01*
X2112Y620D02*
X2147D01*
X2130Y602D02*
Y637D01*
X2002Y430D02*
X2037D01*
X2020Y412D02*
Y447D01*
X1852Y550D02*
X1887D01*
X1870Y532D02*
Y567D01*
X1597Y1060D02*
X1632D01*
X1615Y1042D02*
Y1077D01*
X1747Y940D02*
X1782D01*
X1765Y922D02*
Y957D01*
X1677Y375D02*
X1712D01*
X1695Y357D02*
Y392D01*
X1517Y445D02*
X1552D01*
X1535Y427D02*
Y462D01*
X1517Y635D02*
X1552D01*
X1535Y617D02*
Y652D01*
X1262Y350D02*
X1297D01*
X1280Y332D02*
Y367D01*
X1042Y850D02*
X1077D01*
X1060Y832D02*
Y867D01*
X1017Y330D02*
X1052D01*
X1035Y312D02*
Y347D01*
X692Y435D02*
X727D01*
X710Y417D02*
Y452D01*
X657Y700D02*
X692D01*
X675Y682D02*
Y717D01*
X482Y625D02*
X517D01*
X500Y607D02*
Y642D01*
X472Y865D02*
X507D01*
X490Y847D02*
Y882D01*
X447Y1035D02*
X482D01*
X465Y1017D02*
Y1052D01*
X812Y1270D02*
X847D01*
X830Y1252D02*
Y1287D01*
X547Y1295D02*
X582D01*
X565Y1277D02*
Y1312D01*
X1037Y1430D02*
X1072D01*
X1055Y1412D02*
Y1447D01*
X782Y1470D02*
X817D01*
X800Y1452D02*
Y1487D01*
X607Y1500D02*
X642D01*
X625Y1482D02*
Y1517D01*
X1027Y1680D02*
X1062D01*
X1045Y1662D02*
Y1697D01*
X1467Y1750D02*
X1502D01*
X1485Y1732D02*
Y1767D01*
X1282Y1765D02*
X1317D01*
X1300Y1747D02*
Y1782D01*
X1217Y1920D02*
X1252D01*
X1235Y1902D02*
Y1937D01*
X967Y1950D02*
X1002D01*
X985Y1932D02*
Y1967D01*
X707Y2005D02*
X742D01*
X725Y1987D02*
Y2022D01*
X572Y1675D02*
X607D01*
X590Y1657D02*
Y1692D01*
X482Y1920D02*
X517D01*
X500Y1902D02*
Y1937D01*
X402Y2345D02*
X437D01*
X420Y2327D02*
Y2362D01*
X402Y2205D02*
X437D01*
X420Y2187D02*
Y2222D01*
X722Y2600D02*
X757D01*
X740Y2582D02*
Y2617D01*
X517Y2645D02*
X552D01*
X535Y2627D02*
Y2662D01*
X702Y2765D02*
X737D01*
X720Y2747D02*
Y2782D01*
X762Y3200D02*
X797D01*
X780Y3182D02*
Y3217D01*
X1092Y3460D02*
X1127D01*
X1110Y3442D02*
Y3477D01*
X1017Y3170D02*
X1052D01*
X1035Y3152D02*
Y3187D01*
X482Y3115D02*
X517D01*
X500Y3097D02*
Y3132D01*
X482Y3280D02*
X517D01*
X500Y3262D02*
Y3297D01*
X1177Y3615D02*
X1212D01*
X1195Y3597D02*
Y3632D01*
X1317Y3795D02*
X1352D01*
X1335Y3777D02*
Y3812D01*
X1182Y3980D02*
X1217D01*
X1200Y3962D02*
Y3997D01*
X902Y3960D02*
X937D01*
X920Y3942D02*
Y3977D01*
X537Y3750D02*
X572D01*
X555Y3732D02*
Y3767D01*
X692Y3910D02*
X727D01*
X710Y3892D02*
Y3927D01*
X3997Y2615D02*
X4032D01*
X4015Y2597D02*
Y2632D01*
X4087Y2705D02*
X4122D01*
X4105Y2687D02*
Y2722D01*
X4177Y2795D02*
X4212D01*
X4195Y2777D02*
Y2812D01*
X3907Y2800D02*
X3942D01*
X3925Y2782D02*
Y2817D01*
X3997Y2880D02*
X4032D01*
X4015Y2862D02*
Y2897D01*
X3322Y2505D02*
X3357D01*
X3340Y2487D02*
Y2522D01*
X3177Y2505D02*
X3212D01*
X3195Y2487D02*
Y2522D01*
X3047Y2500D02*
X3082D01*
X3065Y2482D02*
Y2517D01*
X2342Y2495D02*
X2377D01*
X2360Y2477D02*
Y2512D01*
X2512Y2670D02*
X2547D01*
X2530Y2652D02*
Y2687D01*
X3802Y1550D02*
X3837D01*
X3820Y1532D02*
Y1567D01*
X3787Y1790D02*
X3822D01*
X3805Y1772D02*
Y1807D01*
X1572Y1260D02*
X1607D01*
X1590Y1242D02*
Y1277D01*
X1722Y1265D02*
X1757D01*
X1740Y1247D02*
Y1282D01*
X1757Y1430D02*
X1792D01*
X1775Y1412D02*
Y1447D01*
X1597Y1430D02*
X1632D01*
X1615Y1412D02*
Y1447D01*
X2902Y2500D02*
X2937D01*
X2920Y2482D02*
Y2517D01*
X2757Y2495D02*
X2792D01*
X2775Y2477D02*
Y2512D01*
X2767Y2675D02*
X2802D01*
X2785Y2657D02*
Y2692D01*
X2627Y2670D02*
X2662D01*
X2645Y2652D02*
Y2687D01*
X1867Y2665D02*
X1902D01*
X1885Y2647D02*
Y2682D01*
X2037Y2495D02*
X2072D01*
X2055Y2477D02*
Y2512D01*
X2157Y2495D02*
X2192D01*
X2175Y2477D02*
Y2512D01*
X1987Y2670D02*
X2022D01*
X2005Y2652D02*
Y2687D01*
X4477Y3355D02*
X4512D01*
X4495Y3337D02*
Y3372D01*
X4587Y3195D02*
X4622D01*
X4605Y3177D02*
Y3212D01*
X4502Y3115D02*
X4537D01*
X4520Y3097D02*
Y3132D01*
X4422Y3040D02*
X4457D01*
X4440Y3022D02*
Y3057D01*
X4352Y2970D02*
X4387D01*
X4370Y2952D02*
Y2987D01*
X4277Y2890D02*
X4312D01*
X4295Y2872D02*
Y2907D01*
X4097Y2980D02*
X4132D01*
X4115Y2962D02*
Y2997D01*
X4177Y3055D02*
X4212D01*
X4195Y3037D02*
Y3072D01*
X4252Y3125D02*
X4287D01*
X4270Y3107D02*
Y3142D01*
X4322Y3200D02*
X4357D01*
X4340Y3182D02*
Y3217D01*
X4397Y3280D02*
X4432D01*
X4415Y3262D02*
Y3297D01*
X2204Y2715D02*
X2215D01*
X2210Y2709D02*
Y2720D01*
X5254Y2160D02*
X5265D01*
X5260Y2154D02*
Y2165D01*
X1197Y860D02*
X1232D01*
X1215Y842D02*
Y877D01*
X1264Y1175D02*
X1275D01*
X1270Y1169D02*
Y1180D01*
X1409Y1315D02*
X1420D01*
X1415Y1309D02*
Y1320D01*
X1442Y995D02*
X1477D01*
X1460Y977D02*
Y1012D01*
X4974Y1820D02*
X4985D01*
X4980Y1814D02*
Y1825D01*
X4974Y1764D02*
X4985D01*
X4980Y1758D02*
Y1770D01*
X4648Y2336D02*
X4659D01*
X4654Y2330D02*
Y2341D01*
X4338Y1775D02*
X4361D01*
X4350Y1763D02*
Y1786D01*
X3919Y1325D02*
X3930D01*
X3925Y1319D02*
Y1330D01*
X4830Y3142D02*
X4842D01*
X4836Y3136D02*
Y3147D01*
X4244Y950D02*
X4255D01*
X4250Y944D02*
Y955D01*
X5338Y3440D02*
X5361D01*
X5350Y3428D02*
Y3451D01*
X4935Y2206D02*
X4951D01*
X4943Y2198D02*
Y2214D01*
X4908Y2400D02*
X4931D01*
X4920Y2388D02*
Y2411D01*
X4913Y2245D02*
X4928D01*
X4921Y2237D02*
Y2253D01*
X4919Y2301D02*
X4942D01*
X4931Y2289D02*
Y2312D01*
X4579Y1930D02*
X4590D01*
X4585Y1924D02*
Y1935D01*
X4629Y1850D02*
X4640D01*
X4635Y1844D02*
Y1855D01*
X1487Y3510D02*
X1522D01*
X1505Y3492D02*
Y3527D01*
X1487Y3435D02*
X1522D01*
X1505Y3417D02*
Y3452D01*
X1412Y3395D02*
X1447D01*
X1430Y3377D02*
Y3412D01*
X4788Y3280D02*
X4811D01*
X4800Y3268D02*
Y3291D01*
X3947Y3315D02*
X3982D01*
X3965Y3297D02*
Y3332D01*
X3523Y2974D02*
X3558D01*
X3540Y2956D02*
Y2991D01*
X3382Y3060D02*
X3417D01*
X3400Y3042D02*
Y3077D01*
X2627Y3210D02*
X2662D01*
X2645Y3192D02*
Y3227D01*
X2627Y3050D02*
X2662D01*
X2645Y3032D02*
Y3067D01*
X2427Y3325D02*
X2462D01*
X2445Y3307D02*
Y3342D01*
X3202Y3310D02*
X3237D01*
X3220Y3292D02*
Y3327D01*
X3827Y3065D02*
X3862D01*
X3845Y3047D02*
Y3082D01*
X3382Y3220D02*
X3417D01*
X3400Y3202D02*
Y3237D01*
X3087Y3045D02*
X3122D01*
X3105Y3027D02*
Y3062D01*
X2767Y2970D02*
X2802D01*
X2785Y2952D02*
Y2987D01*
X2904Y1570D02*
X2915D01*
X2910Y1564D02*
Y1575D01*
X2657Y1200D02*
X2692D01*
X2675Y1182D02*
Y1217D01*
X1527Y860D02*
X1562D01*
X1545Y842D02*
Y877D01*
X1512Y1910D02*
X1547D01*
X1530Y1892D02*
Y1927D01*
X1602Y2710D02*
X1617D01*
X1610Y2702D02*
Y2717D01*
X1740Y2580D02*
X1775D01*
X1758Y2562D02*
Y2597D01*
X1262Y2160D02*
X1297D01*
X1280Y2142D02*
Y2177D01*
X1257Y2480D02*
X1292D01*
X1275Y2462D02*
Y2497D01*
X967Y2395D02*
X1002D01*
X985Y2377D02*
Y2412D01*
X844Y2336D02*
X868D01*
X856Y2324D02*
Y2348D01*
X2327Y3060D02*
X2362D01*
X2345Y3042D02*
Y3077D01*
X2015Y2983D02*
X2050D01*
X2033Y2965D02*
Y3000D01*
X1872Y3060D02*
X1907D01*
X1890Y3042D02*
Y3077D01*
X1872Y3220D02*
X1907D01*
X1890Y3202D02*
Y3237D01*
X1712Y3310D02*
X1747D01*
X1730Y3292D02*
Y3327D01*
X1590Y3672D02*
X1605D01*
X1598Y3664D02*
Y3679D01*
X1232Y3320D02*
X1267D01*
X1250Y3302D02*
Y3337D01*
X1417Y2750D02*
X1441D01*
X1429Y2738D02*
Y2762D01*
X1312Y2580D02*
X1347D01*
X1330Y2562D02*
Y2597D01*
X846Y2231D02*
X870D01*
X858Y2219D02*
Y2243D01*
X5284Y2770D02*
X5295D01*
X5290Y2764D02*
Y2775D01*
X5284Y2360D02*
X5295D01*
X5290Y2354D02*
Y2365D01*
X4726Y2411D02*
X4750D01*
X4738Y2399D02*
Y2423D01*
X4664Y2410D02*
X4675D01*
X4670Y2404D02*
Y2415D01*
X5144Y2740D02*
X5155D01*
X5150Y2734D02*
Y2745D01*
X5034Y2630D02*
X5045D01*
X5040Y2624D02*
Y2635D01*
X5184Y3590D02*
X5195D01*
X5190Y3584D02*
Y3595D01*
X4558Y2235D02*
X4569D01*
X4564Y2230D02*
Y2241D01*
X4794Y2072D02*
X4806D01*
X4800Y2066D02*
Y2078D01*
X3025Y2637D02*
X3037D01*
X3031Y2631D02*
Y2643D01*
X3143Y2677D02*
X3155D01*
X3149Y2671D02*
Y2683D01*
X2895Y2748D02*
X2907D01*
X2901Y2742D02*
Y2754D01*
X2233Y2785D02*
X2245D01*
X2239Y2779D02*
Y2791D01*
X2316Y2696D02*
X2328D01*
X2322Y2690D02*
Y2702D01*
X2764Y3641D02*
X2787D01*
X2776Y3629D02*
Y3653D01*
X4528Y1945D02*
X4540D01*
X4534Y1939D02*
Y1951D01*
X4594Y1970D02*
X4605D01*
X4600Y1964D02*
Y1975D01*
X4564Y2050D02*
X4575D01*
X4570Y2044D02*
Y2055D01*
X4559Y2094D02*
X4571D01*
X4565Y2088D02*
Y2100D01*
X4564Y2140D02*
X4575D01*
X4570Y2134D02*
Y2145D01*
X4222Y2200D02*
X4237D01*
X4230Y2192D02*
Y2207D01*
X2948Y1522D02*
X2971D01*
X2960Y1510D02*
Y1533D01*
X4394Y1520D02*
X4405D01*
X4400Y1514D02*
Y1525D01*
X4433Y1280D02*
X4445D01*
X4439Y1274D02*
Y1286D01*
X4294Y1420D02*
X4305D01*
X4300Y1414D02*
Y1425D01*
X4064Y1250D02*
X4075D01*
X4070Y1244D02*
Y1255D01*
X4394Y1210D02*
X4405D01*
X4400Y1204D02*
Y1215D01*
X4434Y1010D02*
X4445D01*
X4440Y1004D02*
Y1015D01*
X4044Y1020D02*
X4055D01*
X4050Y1014D02*
Y1025D01*
X4004Y1070D02*
X4015D01*
X4010Y1064D02*
Y1075D01*
X4434Y1070D02*
X4445D01*
X4440Y1064D02*
Y1075D01*
X4424Y1130D02*
X4435D01*
X4430Y1124D02*
Y1135D01*
X4144Y870D02*
X4155D01*
X4150Y864D02*
Y875D01*
X4452Y1871D02*
X4464D01*
X4458Y1865D02*
Y1877D01*
X4500Y1773D02*
X4512D01*
X4506Y1767D02*
Y1779D01*
X4230Y1733D02*
X4245D01*
X4238Y1725D02*
Y1740D01*
X4444Y1790D02*
X4455D01*
X4450Y1784D02*
Y1795D01*
X4424Y1760D02*
X4435D01*
X4430Y1754D02*
Y1765D01*
X4334Y790D02*
X4345D01*
X4340Y784D02*
Y795D01*
X4764Y2670D02*
X4775D01*
X4770Y2664D02*
Y2675D01*
X4657Y2099D02*
X4668D01*
X4663Y2093D02*
Y2104D01*
X4676Y2118D02*
X4688D01*
X4682Y2112D02*
Y2124D01*
X4735Y2155D02*
X4746D01*
X4741Y2149D02*
Y2160D01*
X4769Y2156D02*
X4780D01*
X4775Y2150D02*
Y2161D01*
X4773Y2121D02*
X4784D01*
X4779Y2115D02*
Y2126D01*
X4706Y2230D02*
X4717D01*
X4712Y2224D02*
Y2235D01*
X5470Y1610D02*
X5481D01*
X5476Y1604D02*
Y1615D01*
X4904Y1610D02*
X4915D01*
X4910Y1604D02*
Y1615D01*
X4823Y1645D02*
X4838D01*
X4831Y1637D02*
Y1652D01*
X4773Y1645D02*
X4788D01*
X4781Y1637D02*
Y1652D01*
X4822Y1792D02*
X4833D01*
X4828Y1786D02*
Y1797D01*
X4808Y1751D02*
X4831D01*
X4820Y1740D02*
Y1763D01*
X5264Y1990D02*
X5275D01*
X5270Y1984D02*
Y1995D01*
X4874Y1735D02*
X4885D01*
X4880Y1729D02*
Y1740D01*
X5426Y2742D02*
X5437D01*
X5432Y2736D02*
Y2748D01*
X5484Y2635D02*
X5495D01*
X5490Y2629D02*
Y2640D01*
X5418Y2680D02*
X5441D01*
X5430Y2668D02*
Y2691D01*
X5496Y1227D02*
X5519D01*
X5508Y1215D02*
Y1238D01*
X5921Y2981D02*
X5945D01*
X5933Y2969D02*
Y2993D01*
X5927Y2555D02*
X5951D01*
X5939Y2543D02*
Y2567D01*
X4974Y1792D02*
X4985D01*
X4980Y1786D02*
Y1798D01*
X5314Y2010D02*
X5325D01*
X5320Y2004D02*
Y2015D01*
X5504Y1410D02*
X5515D01*
X5510Y1404D02*
Y1415D01*
X4066Y1627D02*
X4089D01*
X4078Y1615D02*
Y1639D01*
X4815Y3455D02*
X4830D01*
X4823Y3447D02*
Y3462D01*
X4878Y3451D02*
X4893D01*
X4886Y3443D02*
Y3458D01*
X2764Y1650D02*
X2787D01*
X2776Y1638D02*
Y1661D01*
X3035Y1742D02*
X3058D01*
X3047Y1730D02*
Y1753D01*
X3452Y1757D02*
X3475D01*
X3464Y1745D02*
Y1768D01*
X3368Y1515D02*
X3391D01*
X3380Y1503D02*
Y1526D01*
X3677Y1702D02*
X3700D01*
X3689Y1690D02*
Y1713D01*
X3268Y1692D02*
X3291D01*
X3280Y1680D02*
Y1703D01*
X3789Y2680D02*
X3804D01*
X3797Y2672D02*
Y2687D01*
X4667Y3437D02*
X4690D01*
X4679Y3425D02*
Y3448D01*
X5664Y3505D02*
X5688D01*
X5676Y3493D02*
Y3517D01*
X5488Y3403D02*
X5511D01*
X5500Y3391D02*
Y3414D01*
X5638Y3252D02*
X5661D01*
X5650Y3240D02*
Y3263D01*
X4448Y2667D02*
X4471D01*
X4460Y2655D02*
Y2678D01*
X5488Y1300D02*
X5511D01*
X5500Y1288D02*
Y1311D01*
X4514Y2350D02*
X4525D01*
X4520Y2344D02*
Y2355D01*
X4564Y2420D02*
X4575D01*
X4570Y2414D02*
Y2425D01*
X4537Y2470D02*
X4560D01*
X4549Y2458D02*
Y2481D01*
X4434Y2228D02*
X4457D01*
X4445Y2217D02*
Y2240D01*
X4090Y2237D02*
X4113D01*
X4102Y2225D02*
Y2248D01*
X4457Y2336D02*
X4473D01*
X4465Y2328D02*
Y2344D01*
X4332Y2206D02*
X4356D01*
X4344Y2194D02*
Y2218D01*
X4175Y2233D02*
X4190D01*
X4183Y2225D02*
Y2240D01*
X4214Y2386D02*
X4229D01*
X4222Y2378D02*
Y2393D01*
X3775Y2802D02*
X3791D01*
X3783Y2794D02*
Y2810D01*
X4315Y2389D02*
X4330D01*
X4323Y2381D02*
Y2396D01*
X4872Y3232D02*
X4883D01*
X4878Y3226D02*
Y3237D01*
X4183Y1572D02*
X4206D01*
X4195Y1560D02*
Y1583D01*
X1258Y1601D02*
X1281D01*
X1270Y1589D02*
Y1612D01*
X1495Y4017D02*
X1518D01*
X1507Y4005D02*
Y4028D01*
X1588Y4016D02*
X1611D01*
X1600Y4004D02*
Y4027D01*
X1675Y4015D02*
X1699D01*
X1687Y4003D02*
Y4027D01*
X1997Y3639D02*
X2021D01*
X2009Y3627D02*
Y3650D01*
X3508Y3639D02*
X3531D01*
X3520Y3627D02*
Y3650D01*
X4821Y3726D02*
X4844D01*
X4833Y3714D02*
Y3737D01*
X4852Y3378D02*
X4863D01*
X4858Y3372D02*
Y3383D01*
X5516Y3101D02*
X5539D01*
X5528Y3089D02*
Y3112D01*
X5494Y2993D02*
X5517D01*
X5506Y2981D02*
Y3004D01*
X4855Y1482D02*
X4878D01*
X4867Y1470D02*
Y1493D01*
X4767Y1482D02*
X4791D01*
X4779Y1470D02*
Y1494D01*
X4061Y1702D02*
X4084D01*
X4073Y1690D02*
Y1713D01*
X4066Y1784D02*
X4089D01*
X4078Y1772D02*
Y1795D01*
X4105Y2547D02*
X4128D01*
X4117Y2535D02*
Y2558D01*
X4196Y2501D02*
X4220D01*
X4208Y2489D02*
Y2513D01*
X4207Y2449D02*
X4230D01*
X4219Y2437D02*
Y2460D01*
X4438Y2487D02*
X4461D01*
X4450Y2475D02*
Y2498D01*
X4507Y2550D02*
X4530D01*
X4519Y2538D02*
Y2561D01*
X4615Y2351D02*
X4630D01*
X4623Y2343D02*
Y2358D01*
X4233Y1793D02*
X4249D01*
X4241Y1785D02*
Y1801D01*
X4407Y2343D02*
X4422D01*
X4415Y2335D02*
Y2350D01*
X4630Y2228D02*
X4654D01*
X4642Y2216D02*
Y2240D01*
M02*