%FSLAX23Y23*%
%MOIN*%
%SFA1B1*%

%IPPOS*%
%ADD20R,0.057330X0.051360*%
%ADD30R,0.051360X0.057330*%
%ADD52R,0.061150X0.041470*%
%ADD54R,0.041470X0.061150*%
%ADD59R,0.068900X0.068900*%
%ADD60C,0.068900*%
%ADD61C,0.137800*%
%ADD62R,0.055910X0.055910*%
%ADD63C,0.055910*%
%ADD64C,0.069020*%
%ADD65R,0.069020X0.069020*%
%ADD66C,0.070990*%
%ADD67R,0.070990X0.070990*%
%ADD68R,0.061810X0.061810*%
%ADD69C,0.061810*%
%ADD70R,0.078870X0.078870*%
%ADD71C,0.078870*%
%ADD72R,0.055120X0.055120*%
%ADD73C,0.055120*%
%ADD74C,0.097760*%
%ADD75C,0.204850*%
%ADD76C,0.067060*%
%ADD77R,0.053980X0.053980*%
%ADD78C,0.053980*%
%ADD79C,0.096580*%
%ADD105R,0.047490X0.037650*%
%ADD106R,0.037650X0.047490*%
%LNpcb-1*%
%LPD*%
G54D20*
X4275Y2448D03*
Y2385D03*
X4780Y1600D03*
Y1536D03*
G54D30*
X4133Y1626D03*
X4196D03*
X4134Y1783D03*
X4197D03*
G54D52*
X4680Y3552D03*
Y3487D03*
G54D54*
X3575Y3640D03*
X3640D03*
X2888D03*
X2823D03*
X3817D03*
X3882D03*
X2188D03*
X2253D03*
X4782Y3730D03*
X4717D03*
X2058Y3640D03*
X2123D03*
X2316D03*
X2381D03*
X3008D03*
X2943D03*
X3697D03*
X3762D03*
X3128D03*
X3063D03*
G54D59*
X2465Y750D03*
G54D60*
X1874Y750D03*
G54D61*
X5056Y3726D03*
X4582D03*
G54D62*
X4770Y3541D03*
G54D63*
X4868Y3541D03*
Y3620D03*
X4770D03*
G54D64*
X5680Y1210D03*
Y1310D03*
Y1410D03*
Y1510D03*
Y1610D03*
Y1710D03*
Y1810D03*
Y1910D03*
Y2010D03*
Y2110D03*
Y2210D03*
Y2310D03*
Y2410D03*
Y2510D03*
Y2610D03*
Y2710D03*
Y2810D03*
Y2910D03*
Y3010D03*
X5780Y1210D03*
Y1310D03*
Y1410D03*
Y1510D03*
Y1610D03*
Y1710D03*
Y1810D03*
Y1910D03*
Y2010D03*
Y2110D03*
Y2210D03*
Y2310D03*
Y2410D03*
Y2510D03*
Y2610D03*
Y2710D03*
Y2810D03*
Y2910D03*
Y3010D03*
Y3110D03*
G54D65*
X5680Y3110D03*
G54D66*
X4600Y450D03*
X4500D03*
X4400D03*
X4300D03*
X4200D03*
X4500Y550D03*
X4400D03*
X4300D03*
X4200D03*
X5098Y550D03*
X5198D03*
X5298D03*
X5398D03*
X5098Y450D03*
X5198D03*
X5298D03*
X5398D03*
X5498D03*
G54D67*
X4600Y550D03*
X5498Y550D03*
G54D68*
X5640Y3880D03*
G54D69*
X5540Y3880D03*
X5440D03*
X5640Y3780D03*
X5540D03*
X5440D03*
G54D70*
X1005Y500D03*
X1159Y3808D03*
G54D71*
X1255Y500D03*
X909Y3808D03*
G54D72*
X3740Y540D03*
X3500D03*
X2940Y538D03*
X3190D03*
G54D73*
X3740Y441D03*
X3500D03*
X2940Y440D03*
X3190D03*
G54D74*
X850Y893D03*
Y1681D03*
G54D75*
X2746Y3800D03*
X3196Y3805D03*
X3948Y3806D03*
X3498Y3801D03*
X1991Y3800D03*
X2441Y3805D03*
X5994Y343D03*
Y3965D03*
X404Y343D03*
Y3965D03*
G54D76*
X3048Y3548D03*
X2998Y3448D03*
X2948Y3548D03*
X2898Y3448D03*
X2848Y3548D03*
X2798Y3448D03*
X3148Y3548D03*
X3098Y3448D03*
X3850Y3450D03*
X3900Y3550D03*
X3550Y3450D03*
X3600Y3550D03*
X3650Y3450D03*
X3700Y3550D03*
X3750Y3450D03*
X3800Y3550D03*
X2293Y3548D03*
X2243Y3448D03*
X2193Y3548D03*
X2143Y3448D03*
X2093Y3548D03*
X2043Y3448D03*
X2393Y3548D03*
X2343Y3448D03*
G54D77*
X600Y2390D03*
G54D78*
X600Y2290D03*
Y2190D03*
G54D79*
X520Y3515D03*
Y2924D03*
G54D105*
X4884Y2356D03*
Y2275D03*
X4400Y2470D03*
Y2389D03*
X4600Y2470D03*
Y2389D03*
X4500Y2470D03*
Y2389D03*
X4866Y1527D03*
Y1608D03*
G54D106*
X4119Y1702D03*
X4200D03*
X4102Y2189D03*
X4183D03*
M02*