%FSLAX23Y23*%
%MOIN*%
%SFA1B1*%

%IPPOS*%
%ADD12C,0.005000*%
%ADD111C,0.006670*%
%ADD112C,0.004000*%
%LNpcb-1*%
%LPD*%
G54D12*
X5046Y3716D02*
Y3706D01*
X5066*
Y3716*
X5076*
Y3736*
X5066*
Y3746*
X5046*
Y3736*
X5036*
Y3716*
X5046*
X4572D02*
Y3706D01*
X4592*
Y3716*
X4602*
Y3736*
X4592*
Y3746*
X4572*
Y3736*
X4562*
Y3716*
X4572*
X4750Y3521D02*
X4760Y3541D01*
X4750Y3561*
X4770Y3551*
X4790Y3561*
X4780Y3541*
X4790Y3521*
X4770Y3531*
X4750Y3521*
X4848D02*
X4858Y3541D01*
X4848Y3561*
X4868Y3551*
X4888Y3561*
X4878Y3541*
X4888Y3521*
X4868Y3531*
X4848Y3521*
Y3600D02*
X4858Y3620D01*
X4848Y3640*
X4868Y3630*
X4888Y3640*
X4878Y3620*
X4888Y3600*
X4868Y3610*
X4848Y3600*
X4750D02*
X4760Y3620D01*
X4750Y3640*
X4770Y3630*
X4790Y3640*
X4780Y3620*
X4790Y3600*
X4770Y3610*
X4750Y3600*
X5680Y1190D02*
X5690Y1200D01*
X5700*
X5690Y1210*
X5700Y1220*
X5690*
X5680Y1230*
X5670Y1220*
X5660*
X5670Y1210*
X5660Y1200*
X5670*
X5680Y1190*
Y1290D02*
X5690Y1300D01*
X5700*
X5690Y1310*
X5700Y1320*
X5690*
X5680Y1330*
X5670Y1320*
X5660*
X5670Y1310*
X5660Y1300*
X5670*
X5680Y1290*
Y1390D02*
X5690Y1400D01*
X5700*
X5690Y1410*
X5700Y1420*
X5690*
X5680Y1430*
X5670Y1420*
X5660*
X5670Y1410*
X5660Y1400*
X5670*
X5680Y1390*
Y1490D02*
X5690Y1500D01*
X5700*
X5690Y1510*
X5700Y1520*
X5690*
X5680Y1530*
X5670Y1520*
X5660*
X5670Y1510*
X5660Y1500*
X5670*
X5680Y1490*
Y1590D02*
X5690Y1600D01*
X5700*
X5690Y1610*
X5700Y1620*
X5690*
X5680Y1630*
X5670Y1620*
X5660*
X5670Y1610*
X5660Y1600*
X5670*
X5680Y1590*
Y1690D02*
X5690Y1700D01*
X5700*
X5690Y1710*
X5700Y1720*
X5690*
X5680Y1730*
X5670Y1720*
X5660*
X5670Y1710*
X5660Y1700*
X5670*
X5680Y1690*
Y1790D02*
X5690Y1800D01*
X5700*
X5690Y1810*
X5700Y1820*
X5690*
X5680Y1830*
X5670Y1820*
X5660*
X5670Y1810*
X5660Y1800*
X5670*
X5680Y1790*
Y1890D02*
X5690Y1900D01*
X5700*
X5690Y1910*
X5700Y1920*
X5690*
X5680Y1930*
X5670Y1920*
X5660*
X5670Y1910*
X5660Y1900*
X5670*
X5680Y1890*
Y1990D02*
X5690Y2000D01*
X5700*
X5690Y2010*
X5700Y2020*
X5690*
X5680Y2030*
X5670Y2020*
X5660*
X5670Y2010*
X5660Y2000*
X5670*
X5680Y1990*
Y2090D02*
X5690Y2100D01*
X5700*
X5690Y2110*
X5700Y2120*
X5690*
X5680Y2130*
X5670Y2120*
X5660*
X5670Y2110*
X5660Y2100*
X5670*
X5680Y2090*
Y2190D02*
X5690Y2200D01*
X5700*
X5690Y2210*
X5700Y2220*
X5690*
X5680Y2230*
X5670Y2220*
X5660*
X5670Y2210*
X5660Y2200*
X5670*
X5680Y2190*
Y2290D02*
X5690Y2300D01*
X5700*
X5690Y2310*
X5700Y2320*
X5690*
X5680Y2330*
X5670Y2320*
X5660*
X5670Y2310*
X5660Y2300*
X5670*
X5680Y2290*
Y2390D02*
X5690Y2400D01*
X5700*
X5690Y2410*
X5700Y2420*
X5690*
X5680Y2430*
X5670Y2420*
X5660*
X5670Y2410*
X5660Y2400*
X5670*
X5680Y2390*
Y2490D02*
X5690Y2500D01*
X5700*
X5690Y2510*
X5700Y2520*
X5690*
X5680Y2530*
X5670Y2520*
X5660*
X5670Y2510*
X5660Y2500*
X5670*
X5680Y2490*
Y2590D02*
X5690Y2600D01*
X5700*
X5690Y2610*
X5700Y2620*
X5690*
X5680Y2630*
X5670Y2620*
X5660*
X5670Y2610*
X5660Y2600*
X5670*
X5680Y2590*
Y2690D02*
X5690Y2700D01*
X5700*
X5690Y2710*
X5700Y2720*
X5690*
X5680Y2730*
X5670Y2720*
X5660*
X5670Y2710*
X5660Y2700*
X5670*
X5680Y2690*
Y2790D02*
X5690Y2800D01*
X5700*
X5690Y2810*
X5700Y2820*
X5690*
X5680Y2830*
X5670Y2820*
X5660*
X5670Y2810*
X5660Y2800*
X5670*
X5680Y2790*
Y2890D02*
X5690Y2900D01*
X5700*
X5690Y2910*
X5700Y2920*
X5690*
X5680Y2930*
X5670Y2920*
X5660*
X5670Y2910*
X5660Y2900*
X5670*
X5680Y2890*
Y2990D02*
X5690Y3000D01*
X5700*
X5690Y3010*
X5700Y3020*
X5690*
X5680Y3030*
X5670Y3020*
X5660*
X5670Y3010*
X5660Y3000*
X5670*
X5680Y2990*
Y3090D02*
X5690Y3100D01*
X5700*
X5690Y3110*
X5700Y3120*
X5690*
X5680Y3130*
X5670Y3120*
X5660*
X5670Y3110*
X5660Y3100*
X5670*
X5680Y3090*
X5780Y1190D02*
X5790Y1200D01*
X5800*
X5790Y1210*
X5800Y1220*
X5790*
X5780Y1230*
X5770Y1220*
X5760*
X5770Y1210*
X5760Y1200*
X5770*
X5780Y1190*
Y1290D02*
X5790Y1300D01*
X5800*
X5790Y1310*
X5800Y1320*
X5790*
X5780Y1330*
X5770Y1320*
X5760*
X5770Y1310*
X5760Y1300*
X5770*
X5780Y1290*
Y1390D02*
X5790Y1400D01*
X5800*
X5790Y1410*
X5800Y1420*
X5790*
X5780Y1430*
X5770Y1420*
X5760*
X5770Y1410*
X5760Y1400*
X5770*
X5780Y1390*
Y1490D02*
X5790Y1500D01*
X5800*
X5790Y1510*
X5800Y1520*
X5790*
X5780Y1530*
X5770Y1520*
X5760*
X5770Y1510*
X5760Y1500*
X5770*
X5780Y1490*
Y1590D02*
X5790Y1600D01*
X5800*
X5790Y1610*
X5800Y1620*
X5790*
X5780Y1630*
X5770Y1620*
X5760*
X5770Y1610*
X5760Y1600*
X5770*
X5780Y1590*
Y1690D02*
X5790Y1700D01*
X5800*
X5790Y1710*
X5800Y1720*
X5790*
X5780Y1730*
X5770Y1720*
X5760*
X5770Y1710*
X5760Y1700*
X5770*
X5780Y1690*
Y1790D02*
X5790Y1800D01*
X5800*
X5790Y1810*
X5800Y1820*
X5790*
X5780Y1830*
X5770Y1820*
X5760*
X5770Y1810*
X5760Y1800*
X5770*
X5780Y1790*
Y1890D02*
X5790Y1900D01*
X5800*
X5790Y1910*
X5800Y1920*
X5790*
X5780Y1930*
X5770Y1920*
X5760*
X5770Y1910*
X5760Y1900*
X5770*
X5780Y1890*
Y1990D02*
X5790Y2000D01*
X5800*
X5790Y2010*
X5800Y2020*
X5790*
X5780Y2030*
X5770Y2020*
X5760*
X5770Y2010*
X5760Y2000*
X5770*
X5780Y1990*
Y2090D02*
X5790Y2100D01*
X5800*
X5790Y2110*
X5800Y2120*
X5790*
X5780Y2130*
X5770Y2120*
X5760*
X5770Y2110*
X5760Y2100*
X5770*
X5780Y2090*
Y2190D02*
X5790Y2200D01*
X5800*
X5790Y2210*
X5800Y2220*
X5790*
X5780Y2230*
X5770Y2220*
X5760*
X5770Y2210*
X5760Y2200*
X5770*
X5780Y2190*
Y2290D02*
X5790Y2300D01*
X5800*
X5790Y2310*
X5800Y2320*
X5790*
X5780Y2330*
X5770Y2320*
X5760*
X5770Y2310*
X5760Y2300*
X5770*
X5780Y2290*
Y2390D02*
X5790Y2400D01*
X5800*
X5790Y2410*
X5800Y2420*
X5790*
X5780Y2430*
X5770Y2420*
X5760*
X5770Y2410*
X5760Y2400*
X5770*
X5780Y2390*
Y2490D02*
X5790Y2500D01*
X5800*
X5790Y2510*
X5800Y2520*
X5790*
X5780Y2530*
X5770Y2520*
X5760*
X5770Y2510*
X5760Y2500*
X5770*
X5780Y2490*
Y2590D02*
X5790Y2600D01*
X5800*
X5790Y2610*
X5800Y2620*
X5790*
X5780Y2630*
X5770Y2620*
X5760*
X5770Y2610*
X5760Y2600*
X5770*
X5780Y2590*
Y2690D02*
X5790Y2700D01*
X5800*
X5790Y2710*
X5800Y2720*
X5790*
X5780Y2730*
X5770Y2720*
X5760*
X5770Y2710*
X5760Y2700*
X5770*
X5780Y2690*
Y2790D02*
X5790Y2800D01*
X5800*
X5790Y2810*
X5800Y2820*
X5790*
X5780Y2830*
X5770Y2820*
X5760*
X5770Y2810*
X5760Y2800*
X5770*
X5780Y2790*
Y2890D02*
X5790Y2900D01*
X5800*
X5790Y2910*
X5800Y2920*
X5790*
X5780Y2930*
X5770Y2920*
X5760*
X5770Y2910*
X5760Y2900*
X5770*
X5780Y2890*
Y2990D02*
X5790Y3000D01*
X5800*
X5790Y3010*
X5800Y3020*
X5790*
X5780Y3030*
X5770Y3020*
X5760*
X5770Y3010*
X5760Y3000*
X5770*
X5780Y2990*
Y3090D02*
X5790Y3100D01*
X5800*
X5790Y3110*
X5800Y3120*
X5790*
X5780Y3130*
X5770Y3120*
X5760*
X5770Y3110*
X5760Y3100*
X5770*
X5780Y3090*
X4600Y430D02*
X4610Y440D01*
X4620*
X4610Y450*
X4620Y460*
X4610*
X4600Y470*
X4590Y460*
X4580*
X4590Y450*
X4580Y440*
X4590*
X4600Y430*
Y438D02*
X4606Y444D01*
X4612*
X4606Y450*
X4612Y456*
X4606*
X4600Y462*
X4594Y456*
X4588*
X4594Y450*
X4588Y444*
X4594*
X4600Y438*
X4500Y430D02*
X4510Y440D01*
X4520*
X4510Y450*
X4520Y460*
X4510*
X4500Y470*
X4490Y460*
X4480*
X4490Y450*
X4480Y440*
X4490*
X4500Y430*
Y438D02*
X4506Y444D01*
X4512*
X4506Y450*
X4512Y456*
X4506*
X4500Y462*
X4494Y456*
X4488*
X4494Y450*
X4488Y444*
X4494*
X4500Y438*
X4400Y430D02*
X4410Y440D01*
X4420*
X4410Y450*
X4420Y460*
X4410*
X4400Y470*
X4390Y460*
X4380*
X4390Y450*
X4380Y440*
X4390*
X4400Y430*
Y438D02*
X4406Y444D01*
X4412*
X4406Y450*
X4412Y456*
X4406*
X4400Y462*
X4394Y456*
X4388*
X4394Y450*
X4388Y444*
X4394*
X4400Y438*
X4300Y430D02*
X4310Y440D01*
X4320*
X4310Y450*
X4320Y460*
X4310*
X4300Y470*
X4290Y460*
X4280*
X4290Y450*
X4280Y440*
X4290*
X4300Y430*
Y438D02*
X4306Y444D01*
X4312*
X4306Y450*
X4312Y456*
X4306*
X4300Y462*
X4294Y456*
X4288*
X4294Y450*
X4288Y444*
X4294*
X4300Y438*
X4200Y430D02*
X4210Y440D01*
X4220*
X4210Y450*
X4220Y460*
X4210*
X4200Y470*
X4190Y460*
X4180*
X4190Y450*
X4180Y440*
X4190*
X4200Y430*
Y438D02*
X4206Y444D01*
X4212*
X4206Y450*
X4212Y456*
X4206*
X4200Y462*
X4194Y456*
X4188*
X4194Y450*
X4188Y444*
X4194*
X4200Y438*
X4600Y530D02*
X4610Y540D01*
X4620*
X4610Y550*
X4620Y560*
X4610*
X4600Y570*
X4590Y560*
X4580*
X4590Y550*
X4580Y540*
X4590*
X4600Y530*
Y538D02*
X4606Y544D01*
X4612*
X4606Y550*
X4612Y556*
X4606*
X4600Y562*
X4594Y556*
X4588*
X4594Y550*
X4588Y544*
X4594*
X4600Y538*
X4500Y530D02*
X4510Y540D01*
X4520*
X4510Y550*
X4520Y560*
X4510*
X4500Y570*
X4490Y560*
X4480*
X4490Y550*
X4480Y540*
X4490*
X4500Y530*
Y538D02*
X4506Y544D01*
X4512*
X4506Y550*
X4512Y556*
X4506*
X4500Y562*
X4494Y556*
X4488*
X4494Y550*
X4488Y544*
X4494*
X4500Y538*
X4400Y530D02*
X4410Y540D01*
X4420*
X4410Y550*
X4420Y560*
X4410*
X4400Y570*
X4390Y560*
X4380*
X4390Y550*
X4380Y540*
X4390*
X4400Y530*
Y538D02*
X4406Y544D01*
X4412*
X4406Y550*
X4412Y556*
X4406*
X4400Y562*
X4394Y556*
X4388*
X4394Y550*
X4388Y544*
X4394*
X4400Y538*
X4300Y530D02*
X4310Y540D01*
X4320*
X4310Y550*
X4320Y560*
X4310*
X4300Y570*
X4290Y560*
X4280*
X4290Y550*
X4280Y540*
X4290*
X4300Y530*
Y538D02*
X4306Y544D01*
X4312*
X4306Y550*
X4312Y556*
X4306*
X4300Y562*
X4294Y556*
X4288*
X4294Y550*
X4288Y544*
X4294*
X4300Y538*
X4200Y530D02*
X4210Y540D01*
X4220*
X4210Y550*
X4220Y560*
X4210*
X4200Y570*
X4190Y560*
X4180*
X4190Y550*
X4180Y540*
X4190*
X4200Y530*
Y538D02*
X4206Y544D01*
X4212*
X4206Y550*
X4212Y556*
X4206*
X4200Y562*
X4194Y556*
X4188*
X4194Y550*
X4188Y544*
X4194*
X4200Y538*
X5640Y3860D02*
X5650Y3870D01*
X5660*
X5650Y3880*
X5660Y3890*
X5650*
X5640Y3900*
X5630Y3890*
X5620*
X5630Y3880*
X5620Y3870*
X5630*
X5640Y3860*
X5540D02*
X5550Y3870D01*
X5560*
X5550Y3880*
X5560Y3890*
X5550*
X5540Y3900*
X5530Y3890*
X5520*
X5530Y3880*
X5520Y3870*
X5530*
X5540Y3860*
X5440D02*
X5450Y3870D01*
X5460*
X5450Y3880*
X5460Y3890*
X5450*
X5440Y3900*
X5430Y3890*
X5420*
X5430Y3880*
X5420Y3870*
X5430*
X5440Y3860*
X5640Y3760D02*
X5650Y3770D01*
X5660*
X5650Y3780*
X5660Y3790*
X5650*
X5640Y3800*
X5630Y3790*
X5620*
X5630Y3780*
X5620Y3770*
X5630*
X5640Y3760*
X5540D02*
X5550Y3770D01*
X5560*
X5550Y3780*
X5560Y3790*
X5550*
X5540Y3800*
X5530Y3790*
X5520*
X5530Y3780*
X5520Y3770*
X5530*
X5540Y3760*
X5440D02*
X5450Y3770D01*
X5460*
X5450Y3780*
X5460Y3790*
X5450*
X5440Y3800*
X5430Y3790*
X5420*
X5430Y3780*
X5420Y3770*
X5430*
X5440Y3760*
X985Y480D02*
Y520D01*
X1025*
Y480*
X985*
X1235D02*
Y520D01*
X1275*
Y480*
X1235*
X3740Y520D02*
X3720Y560D01*
X3760*
X3740Y520*
Y528D02*
X3728Y552D01*
X3752*
X3740Y528*
Y421D02*
X3720Y461D01*
X3760*
X3740Y421*
Y429D02*
X3728Y453D01*
X3752*
X3740Y429*
X850Y873D02*
X830Y913D01*
X870*
X850Y873*
Y1661D02*
X830Y1701D01*
X870*
X850Y1661*
X1139Y3788D02*
Y3828D01*
X1179*
Y3788*
X1139*
X889D02*
Y3828D01*
X929*
Y3788*
X889*
X2726Y3780D02*
X2736D01*
X2746Y3790*
X2756Y3780*
X2766*
Y3790*
X2756Y3800*
X2766Y3810*
Y3820*
X2756*
X2746Y3810*
X2736Y3820*
X2726*
Y3810*
X2736Y3800*
X2726Y3790*
Y3780*
X3176Y3785D02*
X3186D01*
X3196Y3795*
X3206Y3785*
X3216*
Y3795*
X3206Y3805*
X3216Y3815*
Y3825*
X3206*
X3196Y3815*
X3186Y3825*
X3176*
Y3815*
X3186Y3805*
X3176Y3795*
Y3785*
X3028Y3548D02*
X3048Y3568D01*
X3068Y3548*
X3048Y3528*
X3028Y3548*
X2978Y3448D02*
X2998Y3468D01*
X3018Y3448*
X2998Y3428*
X2978Y3448*
X2928Y3548D02*
X2948Y3568D01*
X2968Y3548*
X2948Y3528*
X2928Y3548*
X2878Y3448D02*
X2898Y3468D01*
X2918Y3448*
X2898Y3428*
X2878Y3448*
X2828Y3548D02*
X2848Y3568D01*
X2868Y3548*
X2848Y3528*
X2828Y3548*
X2778Y3448D02*
X2798Y3468D01*
X2818Y3448*
X2798Y3428*
X2778Y3448*
X3128Y3548D02*
X3148Y3568D01*
X3168Y3548*
X3148Y3528*
X3128Y3548*
X3078Y3448D02*
X3098Y3468D01*
X3118Y3448*
X3098Y3428*
X3078Y3448*
X3500Y421D02*
X3480Y461D01*
X3520*
X3500Y421*
Y429D02*
X3488Y453D01*
X3512*
X3500Y429*
Y520D02*
X3480Y560D01*
X3520*
X3500Y520*
Y528D02*
X3488Y552D01*
X3512*
X3500Y528*
X3830Y3450D02*
X3850Y3470D01*
X3870Y3450*
X3850Y3430*
X3830Y3450*
X3880Y3550D02*
X3900Y3570D01*
X3920Y3550*
X3900Y3530*
X3880Y3550*
X3530Y3450D02*
X3550Y3470D01*
X3570Y3450*
X3550Y3430*
X3530Y3450*
X3580Y3550D02*
X3600Y3570D01*
X3620Y3550*
X3600Y3530*
X3580Y3550*
X3630Y3450D02*
X3650Y3470D01*
X3670Y3450*
X3650Y3430*
X3630Y3450*
X3680Y3550D02*
X3700Y3570D01*
X3720Y3550*
X3700Y3530*
X3680Y3550*
X3730Y3450D02*
X3750Y3470D01*
X3770Y3450*
X3750Y3430*
X3730Y3450*
X3780Y3550D02*
X3800Y3570D01*
X3820Y3550*
X3800Y3530*
X3780Y3550*
X3928Y3786D02*
X3938D01*
X3948Y3796*
X3958Y3786*
X3968*
Y3796*
X3958Y3806*
X3968Y3816*
Y3826*
X3958*
X3948Y3816*
X3938Y3826*
X3928*
Y3816*
X3938Y3806*
X3928Y3796*
Y3786*
X3478Y3781D02*
X3488D01*
X3498Y3791*
X3508Y3781*
X3518*
Y3791*
X3508Y3801*
X3518Y3811*
Y3821*
X3508*
X3498Y3811*
X3488Y3821*
X3478*
Y3811*
X3488Y3801*
X3478Y3791*
Y3781*
X5098Y530D02*
X5108Y540D01*
X5118*
X5108Y550*
X5118Y560*
X5108*
X5098Y570*
X5088Y560*
X5078*
X5088Y550*
X5078Y540*
X5088*
X5098Y530*
Y538D02*
X5104Y544D01*
X5110*
X5104Y550*
X5110Y556*
X5104*
X5098Y562*
X5092Y556*
X5086*
X5092Y550*
X5086Y544*
X5092*
X5098Y538*
X5198Y530D02*
X5208Y540D01*
X5218*
X5208Y550*
X5218Y560*
X5208*
X5198Y570*
X5188Y560*
X5178*
X5188Y550*
X5178Y540*
X5188*
X5198Y530*
Y538D02*
X5204Y544D01*
X5210*
X5204Y550*
X5210Y556*
X5204*
X5198Y562*
X5192Y556*
X5186*
X5192Y550*
X5186Y544*
X5192*
X5198Y538*
X5298Y530D02*
X5308Y540D01*
X5318*
X5308Y550*
X5318Y560*
X5308*
X5298Y570*
X5288Y560*
X5278*
X5288Y550*
X5278Y540*
X5288*
X5298Y530*
Y538D02*
X5304Y544D01*
X5310*
X5304Y550*
X5310Y556*
X5304*
X5298Y562*
X5292Y556*
X5286*
X5292Y550*
X5286Y544*
X5292*
X5298Y538*
X5398Y530D02*
X5408Y540D01*
X5418*
X5408Y550*
X5418Y560*
X5408*
X5398Y570*
X5388Y560*
X5378*
X5388Y550*
X5378Y540*
X5388*
X5398Y530*
Y538D02*
X5404Y544D01*
X5410*
X5404Y550*
X5410Y556*
X5404*
X5398Y562*
X5392Y556*
X5386*
X5392Y550*
X5386Y544*
X5392*
X5398Y538*
X5498Y530D02*
X5508Y540D01*
X5518*
X5508Y550*
X5518Y560*
X5508*
X5498Y570*
X5488Y560*
X5478*
X5488Y550*
X5478Y540*
X5488*
X5498Y530*
Y538D02*
X5504Y544D01*
X5510*
X5504Y550*
X5510Y556*
X5504*
X5498Y562*
X5492Y556*
X5486*
X5492Y550*
X5486Y544*
X5492*
X5498Y538*
X5098Y430D02*
X5108Y440D01*
X5118*
X5108Y450*
X5118Y460*
X5108*
X5098Y470*
X5088Y460*
X5078*
X5088Y450*
X5078Y440*
X5088*
X5098Y430*
Y438D02*
X5104Y444D01*
X5110*
X5104Y450*
X5110Y456*
X5104*
X5098Y462*
X5092Y456*
X5086*
X5092Y450*
X5086Y444*
X5092*
X5098Y438*
X5198Y430D02*
X5208Y440D01*
X5218*
X5208Y450*
X5218Y460*
X5208*
X5198Y470*
X5188Y460*
X5178*
X5188Y450*
X5178Y440*
X5188*
X5198Y430*
Y438D02*
X5204Y444D01*
X5210*
X5204Y450*
X5210Y456*
X5204*
X5198Y462*
X5192Y456*
X5186*
X5192Y450*
X5186Y444*
X5192*
X5198Y438*
X5298Y430D02*
X5308Y440D01*
X5318*
X5308Y450*
X5318Y460*
X5308*
X5298Y470*
X5288Y460*
X5278*
X5288Y450*
X5278Y440*
X5288*
X5298Y430*
Y438D02*
X5304Y444D01*
X5310*
X5304Y450*
X5310Y456*
X5304*
X5298Y462*
X5292Y456*
X5286*
X5292Y450*
X5286Y444*
X5292*
X5298Y438*
X5398Y430D02*
X5408Y440D01*
X5418*
X5408Y450*
X5418Y460*
X5408*
X5398Y470*
X5388Y460*
X5378*
X5388Y450*
X5378Y440*
X5388*
X5398Y430*
Y438D02*
X5404Y444D01*
X5410*
X5404Y450*
X5410Y456*
X5404*
X5398Y462*
X5392Y456*
X5386*
X5392Y450*
X5386Y444*
X5392*
X5398Y438*
X5498Y430D02*
X5508Y440D01*
X5518*
X5508Y450*
X5518Y460*
X5508*
X5498Y470*
X5488Y460*
X5478*
X5488Y450*
X5478Y440*
X5488*
X5498Y430*
Y438D02*
X5504Y444D01*
X5510*
X5504Y450*
X5510Y456*
X5504*
X5498Y462*
X5492Y456*
X5486*
X5492Y450*
X5486Y444*
X5492*
X5498Y438*
X2940Y518D02*
X2920Y558D01*
X2960*
X2940Y518*
Y526D02*
X2928Y550D01*
X2952*
X2940Y526*
Y420D02*
X2920Y460D01*
X2960*
X2940Y420*
Y428D02*
X2928Y452D01*
X2952*
X2940Y428*
X3190Y420D02*
X3170Y460D01*
X3210*
X3190Y420*
Y428D02*
X3178Y452D01*
X3202*
X3190Y428*
Y518D02*
X3170Y558D01*
X3210*
X3190Y518*
Y526D02*
X3178Y550D01*
X3202*
X3190Y526*
X1971Y3780D02*
X1981D01*
X1991Y3790*
X2001Y3780*
X2011*
Y3790*
X2001Y3800*
X2011Y3810*
Y3820*
X2001*
X1991Y3810*
X1981Y3820*
X1971*
Y3810*
X1981Y3800*
X1971Y3790*
Y3780*
X2421Y3785D02*
X2431D01*
X2441Y3795*
X2451Y3785*
X2461*
Y3795*
X2451Y3805*
X2461Y3815*
Y3825*
X2451*
X2441Y3815*
X2431Y3825*
X2421*
Y3815*
X2431Y3805*
X2421Y3795*
Y3785*
X2273Y3548D02*
X2293Y3568D01*
X2313Y3548*
X2293Y3528*
X2273Y3548*
X2223Y3448D02*
X2243Y3468D01*
X2263Y3448*
X2243Y3428*
X2223Y3448*
X2173Y3548D02*
X2193Y3568D01*
X2213Y3548*
X2193Y3528*
X2173Y3548*
X2123Y3448D02*
X2143Y3468D01*
X2163Y3448*
X2143Y3428*
X2123Y3448*
X2073Y3548D02*
X2093Y3568D01*
X2113Y3548*
X2093Y3528*
X2073Y3548*
X2023Y3448D02*
X2043Y3468D01*
X2063Y3448*
X2043Y3428*
X2023Y3448*
X2373Y3548D02*
X2393Y3568D01*
X2413Y3548*
X2393Y3528*
X2373Y3548*
X2323Y3448D02*
X2343Y3468D01*
X2363Y3448*
X2343Y3428*
X2323Y3448*
X500Y3495D02*
Y3535D01*
X540*
Y3495*
X500*
X508Y3503D02*
Y3527D01*
X532*
Y3503*
X508*
X500Y2904D02*
Y2944D01*
X540*
Y2904*
X500*
X508Y2912D02*
Y2936D01*
X532*
Y2912*
X508*
X5984Y333D02*
Y323D01*
X6004*
Y333*
X6014*
Y353*
X6004*
Y363*
X5984*
Y353*
X5974*
Y333*
X5984*
X5988Y337D02*
Y331D01*
X6000*
Y337*
X6006*
Y349*
X6000*
Y355*
X5988*
Y349*
X5982*
Y337*
X5988*
X5984Y3955D02*
Y3945D01*
X6004*
Y3955*
X6014*
Y3975*
X6004*
Y3985*
X5984*
Y3975*
X5974*
Y3955*
X5984*
X5988Y3959D02*
Y3953D01*
X6000*
Y3959*
X6006*
Y3971*
X6000*
Y3977*
X5988*
Y3971*
X5982*
Y3959*
X5988*
X394Y333D02*
Y323D01*
X414*
Y333*
X424*
Y353*
X414*
Y363*
X394*
Y353*
X384*
Y333*
X394*
X398Y337D02*
Y331D01*
X410*
Y337*
X416*
Y349*
X410*
Y355*
X398*
Y349*
X392*
Y337*
X398*
X394Y3955D02*
Y3945D01*
X414*
Y3955*
X424*
Y3975*
X414*
Y3985*
X394*
Y3975*
X384*
Y3955*
X394*
X398Y3959D02*
Y3953D01*
X410*
Y3959*
X416*
Y3971*
X410*
Y3977*
X398*
Y3971*
X392*
Y3959*
X398*
X3635Y2737D02*
Y2687D01*
X3660*
X3669Y2695*
Y2704*
X3660Y2712*
X3635*
X3660*
X3669Y2720*
Y2729*
X3660Y2737*
X3635*
X3835Y2532D02*
Y2482D01*
X3860*
X3869Y2490*
Y2499*
X3860Y2507*
X3835*
X3860*
X3869Y2515*
Y2524*
X3860Y2532*
X3835*
X2970Y1889D02*
Y1840D01*
X2994*
X3003Y1848*
Y1856*
X2994Y1864*
X2970*
X2994*
X3003Y1873*
Y1881*
X2994Y1889*
X2970*
X5325Y2994D02*
Y2945D01*
X5349*
X5358Y2953*
Y2961*
X5349Y2969*
X5325*
X5349*
X5358Y2978*
Y2986*
X5349Y2994*
X5325*
X5140Y2504D02*
Y2455D01*
X5164*
X5173Y2463*
Y2471*
X5164Y2479*
X5140*
X5164*
X5173Y2488*
Y2496*
X5164Y2504*
X5140*
X4910Y2739D02*
Y2690D01*
X4934*
X4943Y2698*
Y2706*
X4934Y2714*
X4910*
X4934*
X4943Y2723*
Y2731*
X4934Y2739*
X4910*
X4470Y2874D02*
Y2825D01*
X4494*
X4503Y2833*
Y2841*
X4494Y2849*
X4470*
X4494*
X4503Y2858*
Y2866*
X4494Y2874*
X4470*
X4615Y3034D02*
Y2985D01*
X4639*
X4648Y2993*
Y3001*
X4639Y3009*
X4615*
X4639*
X4648Y3018*
Y3026*
X4639Y3034*
X4615*
X4995Y3109D02*
Y3060D01*
X5019*
X5028Y3068*
Y3076*
X5019Y3084*
X4995*
X5019*
X5028Y3093*
Y3101*
X5019Y3109*
X4995*
X4700Y4029D02*
Y3980D01*
X4724*
X4733Y3988*
Y3996*
X4724Y4004*
X4700*
X4724*
X4733Y4013*
Y4021*
X4724Y4029*
X4700*
X4930Y4019D02*
Y3970D01*
X4954*
X4963Y3978*
Y3986*
X4954Y3994*
X4930*
X4954*
X4963Y4003*
Y4011*
X4954Y4019*
X4930*
X5225Y3994D02*
Y3945D01*
X5249*
X5258Y3953*
Y3961*
X5249Y3969*
X5225*
X5249*
X5258Y3978*
Y3986*
X5249Y3994*
X5225*
X4395Y4029D02*
Y3980D01*
X4419*
X4428Y3988*
Y3996*
X4419Y4004*
X4395*
X4419*
X4428Y4013*
Y4021*
X4419Y4029*
X4395*
X4200Y3889D02*
Y3840D01*
X4224*
X4233Y3848*
Y3856*
X4224Y3864*
X4200*
X4224*
X4233Y3873*
Y3881*
X4224Y3889*
X4200*
X4345Y3754D02*
Y3705D01*
X4369*
X4378Y3713*
Y3721*
X4369Y3729*
X4345*
X4369*
X4378Y3738*
Y3746*
X4369Y3754*
X4345*
X4140Y3604D02*
Y3555D01*
X4164*
X4173Y3563*
Y3571*
X4164Y3579*
X4140*
X4164*
X4173Y3588*
Y3596*
X4164Y3604*
X4140*
X4330Y3534D02*
Y3485D01*
X4354*
X4363Y3493*
Y3501*
X4354Y3509*
X4330*
X4354*
X4363Y3518*
Y3526*
X4354Y3534*
X4330*
X4140Y3399D02*
Y3350D01*
X4164*
X4173Y3358*
Y3366*
X4164Y3374*
X4140*
X4164*
X4173Y3383*
Y3391*
X4164Y3399*
X4140*
X6005Y3689D02*
Y3640D01*
X6029*
X6038Y3648*
Y3656*
X6029Y3664*
X6005*
X6029*
X6038Y3673*
Y3681*
X6029Y3689*
X6005*
X6025Y3434D02*
Y3385D01*
X6049*
X6058Y3393*
Y3401*
X6049Y3409*
X6025*
X6049*
X6058Y3418*
Y3426*
X6049Y3434*
X6025*
X6040Y3219D02*
Y3170D01*
X6064*
X6073Y3178*
Y3186*
X6064Y3194*
X6040*
X6064*
X6073Y3203*
Y3211*
X6064Y3219*
X6040*
X6025Y2964D02*
Y2915D01*
X6049*
X6058Y2923*
Y2931*
X6049Y2939*
X6025*
X6049*
X6058Y2948*
Y2956*
X6049Y2964*
X6025*
X5975Y2459D02*
Y2410D01*
X5999*
X6008Y2418*
Y2426*
X5999Y2434*
X5975*
X5999*
X6008Y2443*
Y2451*
X5999Y2459*
X5975*
X5970Y2234D02*
Y2185D01*
X5994*
X6003Y2193*
Y2201*
X5994Y2209*
X5970*
X5994*
X6003Y2218*
Y2226*
X5994Y2234*
X5970*
X5980Y1964D02*
Y1915D01*
X6004*
X6013Y1923*
Y1931*
X6004Y1939*
X5980*
X6004*
X6013Y1948*
Y1956*
X6004Y1964*
X5980*
X5975Y1734D02*
Y1685D01*
X5999*
X6008Y1693*
Y1701*
X5999Y1709*
X5975*
X5999*
X6008Y1718*
Y1726*
X5999Y1734*
X5975*
X5970Y1504D02*
Y1455D01*
X5994*
X6003Y1463*
Y1471*
X5994Y1479*
X5970*
X5994*
X6003Y1488*
Y1496*
X5994Y1504*
X5970*
Y1214D02*
Y1165D01*
X5994*
X6003Y1173*
Y1181*
X5994Y1189*
X5970*
X5994*
X6003Y1198*
Y1206*
X5994Y1214*
X5970*
X5985Y919D02*
Y870D01*
X6009*
X6018Y878*
Y886*
X6009Y894*
X5985*
X6009*
X6018Y903*
Y911*
X6009Y919*
X5985*
X5995Y679D02*
Y630D01*
X6019*
X6028Y638*
Y646*
X6019Y654*
X5995*
X6019*
X6028Y663*
Y671*
X6019Y679*
X5995*
X5785Y494D02*
Y445D01*
X5809*
X5818Y453*
Y461*
X5809Y469*
X5785*
X5809*
X5818Y478*
Y486*
X5809Y494*
X5785*
X5820Y619D02*
Y570D01*
X5844*
X5853Y578*
Y586*
X5844Y594*
X5820*
X5844*
X5853Y603*
Y611*
X5844Y619*
X5820*
X5765Y854D02*
Y805D01*
X5789*
X5798Y813*
Y821*
X5789Y829*
X5765*
X5789*
X5798Y838*
Y846*
X5789Y854*
X5765*
X5730Y1074D02*
Y1025D01*
X5754*
X5763Y1033*
Y1041*
X5754Y1049*
X5730*
X5754*
X5763Y1058*
Y1066*
X5754Y1074*
X5730*
X5570Y944D02*
Y895D01*
X5594*
X5603Y903*
Y911*
X5594Y919*
X5570*
X5594*
X5603Y928*
Y936*
X5594Y944*
X5570*
X5445Y1114D02*
Y1065D01*
X5469*
X5478Y1073*
Y1081*
X5469Y1089*
X5445*
X5469*
X5478Y1098*
Y1106*
X5469Y1114*
X5445*
X5330Y1299D02*
Y1250D01*
X5354*
X5363Y1258*
Y1266*
X5354Y1274*
X5330*
X5354*
X5363Y1283*
Y1291*
X5354Y1299*
X5330*
X5205Y1464D02*
Y1415D01*
X5229*
X5238Y1423*
Y1431*
X5229Y1439*
X5205*
X5229*
X5238Y1448*
Y1456*
X5229Y1464*
X5205*
X4890Y1404D02*
Y1355D01*
X4914*
X4923Y1363*
Y1371*
X4914Y1379*
X4890*
X4914*
X4923Y1388*
Y1396*
X4914Y1404*
X4890*
X5010Y1494D02*
Y1445D01*
X5034*
X5043Y1453*
Y1461*
X5034Y1469*
X5010*
X5034*
X5043Y1478*
Y1486*
X5034Y1494*
X5010*
X5015Y1309D02*
Y1260D01*
X5039*
X5048Y1268*
Y1276*
X5039Y1284*
X5015*
X5039*
X5048Y1293*
Y1301*
X5039Y1309*
X5015*
X5185Y1159D02*
Y1110D01*
X5209*
X5218Y1118*
Y1126*
X5209Y1134*
X5185*
X5209*
X5218Y1143*
Y1151*
X5209Y1159*
X5185*
X5325Y1009D02*
Y960D01*
X5349*
X5358Y968*
Y976*
X5349Y984*
X5325*
X5349*
X5358Y993*
Y1001*
X5349Y1009*
X5325*
X5465Y804D02*
Y755D01*
X5489*
X5498Y763*
Y771*
X5489Y779*
X5465*
X5489*
X5498Y788*
Y796*
X5489Y804*
X5465*
X5635Y679D02*
Y630D01*
X5659*
X5668Y638*
Y646*
X5659Y654*
X5635*
X5659*
X5668Y663*
Y671*
X5659Y679*
X5635*
X5640Y414D02*
Y365D01*
X5664*
X5673Y373*
Y381*
X5664Y389*
X5640*
X5664*
X5673Y398*
Y406*
X5664Y414*
X5640*
X4970Y409D02*
Y360D01*
X4994*
X5003Y368*
Y376*
X4994Y384*
X4970*
X4994*
X5003Y393*
Y401*
X4994Y409*
X4970*
X4700Y414D02*
Y365D01*
X4724*
X4733Y373*
Y381*
X4724Y389*
X4700*
X4724*
X4733Y398*
Y406*
X4724Y414*
X4700*
X3050Y364D02*
Y315D01*
X3074*
X3083Y323*
Y331*
X3074Y339*
X3050*
X3074*
X3083Y348*
Y356*
X3074Y364*
X3050*
X3615Y369D02*
Y320D01*
X3639*
X3648Y328*
Y336*
X3639Y344*
X3615*
X3639*
X3648Y353*
Y361*
X3639Y369*
X3615*
X3315D02*
Y320D01*
X3339*
X3348Y328*
Y336*
X3339Y344*
X3315*
X3339*
X3348Y353*
Y361*
X3339Y369*
X3315*
X3910Y414D02*
Y365D01*
X3934*
X3943Y373*
Y381*
X3934Y389*
X3910*
X3934*
X3943Y398*
Y406*
X3934Y414*
X3910*
X3920Y599D02*
Y550D01*
X3944*
X3953Y558*
Y566*
X3944Y574*
X3920*
X3944*
X3953Y583*
Y591*
X3944Y599*
X3920*
X3945Y864D02*
Y815D01*
X3969*
X3978Y823*
Y831*
X3969Y839*
X3945*
X3969*
X3978Y848*
Y856*
X3969Y864*
X3945*
X3885Y1059D02*
Y1010D01*
X3909*
X3918Y1018*
Y1026*
X3909Y1034*
X3885*
X3909*
X3918Y1043*
Y1051*
X3909Y1059*
X3885*
X3585Y1264D02*
Y1215D01*
X3609*
X3618Y1223*
Y1231*
X3609Y1239*
X3585*
X3609*
X3618Y1248*
Y1256*
X3609Y1264*
X3585*
X3070Y1324D02*
Y1275D01*
X3094*
X3103Y1283*
Y1291*
X3094Y1299*
X3070*
X3094*
X3103Y1308*
Y1316*
X3094Y1324*
X3070*
X3415Y1894D02*
Y1845D01*
X3439*
X3448Y1853*
Y1861*
X3439Y1869*
X3415*
X3439*
X3448Y1878*
Y1886*
X3439Y1894*
X3415*
X2250Y2044D02*
Y1995D01*
X2274*
X2283Y2003*
Y2011*
X2274Y2019*
X2250*
X2274*
X2283Y2028*
Y2036*
X2274Y2044*
X2250*
X2550Y1879D02*
Y1830D01*
X2574*
X2583Y1838*
Y1846*
X2574Y1854*
X2550*
X2574*
X2583Y1863*
Y1871*
X2574Y1879*
X2550*
X2830Y1965D02*
Y1915D01*
X2855*
X2863Y1924*
Y1932*
X2855Y1940*
X2830*
X2855*
X2863Y1949*
Y1957*
X2855Y1965*
X2830*
X2480Y2044D02*
Y1995D01*
X2504*
X2513Y2003*
Y2011*
X2504Y2019*
X2480*
X2504*
X2513Y2028*
Y2036*
X2504Y2044*
X2480*
X3450Y2339D02*
Y2290D01*
X3474*
X3483Y2298*
Y2306*
X3474Y2314*
X3450*
X3474*
X3483Y2323*
Y2331*
X3474Y2339*
X3450*
X3095Y2369D02*
Y2320D01*
X3119*
X3128Y2328*
Y2336*
X3119Y2344*
X3095*
X3119*
X3128Y2353*
Y2361*
X3119Y2369*
X3095*
X2390D02*
Y2320D01*
X2414*
X2423Y2328*
Y2336*
X2414Y2344*
X2390*
X2414*
X2423Y2353*
Y2361*
X2414Y2369*
X2390*
X2060Y2374D02*
Y2325D01*
X2084*
X2093Y2333*
Y2341*
X2084Y2349*
X2060*
X2084*
X2093Y2358*
Y2366*
X2084Y2374*
X2060*
X1830Y2254D02*
Y2205D01*
X1854*
X1863Y2213*
Y2221*
X1854Y2229*
X1830*
X1854*
X1863Y2238*
Y2246*
X1854Y2254*
X1830*
X3210Y2889D02*
Y2840D01*
X3234*
X3243Y2848*
Y2856*
X3234Y2864*
X3210*
X3234*
X3243Y2873*
Y2881*
X3234Y2889*
X3210*
X3435Y2894D02*
Y2845D01*
X3459*
X3468Y2853*
Y2861*
X3459Y2869*
X3435*
X3459*
X3468Y2878*
Y2886*
X3459Y2894*
X3435*
X3245Y3024D02*
Y2975D01*
X3269*
X3278Y2983*
Y2991*
X3269Y2999*
X3245*
X3269*
X3278Y3008*
Y3016*
X3269Y3024*
X3245*
X2670Y2919D02*
Y2870D01*
X2694*
X2703Y2878*
Y2886*
X2694Y2894*
X2670*
X2694*
X2703Y2903*
Y2911*
X2694Y2919*
X2670*
X2455Y2924D02*
Y2875D01*
X2479*
X2488Y2883*
Y2891*
X2479Y2899*
X2455*
X2479*
X2488Y2908*
Y2916*
X2479Y2924*
X2455*
X2505Y3049D02*
Y3000D01*
X2529*
X2538Y3008*
Y3016*
X2529Y3024*
X2505*
X2529*
X2538Y3033*
Y3041*
X2529Y3049*
X2505*
X1975Y2874D02*
Y2825D01*
X1999*
X2008Y2833*
Y2841*
X1999Y2849*
X1975*
X1999*
X2008Y2858*
Y2866*
X1999Y2874*
X1975*
X1775Y2889D02*
Y2840D01*
X1799*
X1808Y2848*
Y2856*
X1799Y2864*
X1775*
X1799*
X1808Y2873*
Y2881*
X1799Y2889*
X1775*
X1760Y3074D02*
Y3025D01*
X1784*
X1793Y3033*
Y3041*
X1784Y3049*
X1760*
X1784*
X1793Y3058*
Y3066*
X1784Y3074*
X1760*
X1775Y3599D02*
Y3550D01*
X1799*
X1808Y3558*
Y3566*
X1799Y3574*
X1775*
X1799*
X1808Y3583*
Y3591*
X1799Y3599*
X1775*
X2160Y1879D02*
Y1830D01*
X2184*
X2193Y1838*
Y1846*
X2184Y1854*
X2160*
X2184*
X2193Y1863*
Y1871*
X2184Y1879*
X2160*
X1870Y1664D02*
Y1615D01*
X1894*
X1903Y1623*
Y1631*
X1894Y1639*
X1870*
X1894*
X1903Y1648*
Y1656*
X1894Y1664*
X1870*
X1985Y1189D02*
Y1140D01*
X2009*
X2018Y1148*
Y1156*
X2009Y1164*
X1985*
X2009*
X2018Y1173*
Y1181*
X2009Y1189*
X1985*
X2435Y1259D02*
Y1210D01*
X2459*
X2468Y1218*
Y1226*
X2459Y1234*
X2435*
X2459*
X2468Y1243*
Y1251*
X2459Y1259*
X2435*
X2710Y1074D02*
Y1025D01*
X2734*
X2743Y1033*
Y1041*
X2734Y1049*
X2710*
X2734*
X2743Y1058*
Y1066*
X2734Y1074*
X2710*
X2395Y999D02*
Y950D01*
X2419*
X2428Y958*
Y966*
X2419Y974*
X2395*
X2419*
X2428Y983*
Y991*
X2419Y999*
X2395*
X2725Y849D02*
Y800D01*
X2749*
X2758Y808*
Y816*
X2749Y824*
X2725*
X2749*
X2758Y833*
Y841*
X2749Y849*
X2725*
X2745Y644D02*
Y595D01*
X2769*
X2778Y603*
Y611*
X2769Y619*
X2745*
X2769*
X2778Y628*
Y636*
X2769Y644*
X2745*
X2655Y399D02*
Y350D01*
X2679*
X2688Y358*
Y366*
X2679Y374*
X2655*
X2679*
X2688Y383*
Y391*
X2679Y399*
X2655*
X2470Y484D02*
Y435D01*
X2494*
X2503Y443*
Y451*
X2494Y459*
X2470*
X2494*
X2503Y468*
Y476*
X2494Y484*
X2470*
X2260Y864D02*
Y815D01*
X2284*
X2293Y823*
Y831*
X2284Y839*
X2260*
X2284*
X2293Y848*
Y856*
X2284Y864*
X2260*
X2245Y524D02*
Y475D01*
X2269*
X2278Y483*
Y491*
X2269Y499*
X2245*
X2269*
X2278Y508*
Y516*
X2269Y524*
X2245*
X2130Y669D02*
Y620D01*
X2154*
X2163Y628*
Y636*
X2154Y644*
X2130*
X2154*
X2163Y653*
Y661*
X2154Y669*
X2130*
X2020Y479D02*
Y430D01*
X2044*
X2053Y438*
Y446*
X2044Y454*
X2020*
X2044*
X2053Y463*
Y471*
X2044Y479*
X2020*
X1870Y599D02*
Y550D01*
X1894*
X1903Y558*
Y566*
X1894Y574*
X1870*
X1894*
X1903Y583*
Y591*
X1894Y599*
X1870*
X1615Y1109D02*
Y1060D01*
X1639*
X1648Y1068*
Y1076*
X1639Y1084*
X1615*
X1639*
X1648Y1093*
Y1101*
X1639Y1109*
X1615*
X1765Y989D02*
Y940D01*
X1789*
X1798Y948*
Y956*
X1789Y964*
X1765*
X1789*
X1798Y973*
Y981*
X1789Y989*
X1765*
X1695Y424D02*
Y375D01*
X1719*
X1728Y383*
Y391*
X1719Y399*
X1695*
X1719*
X1728Y408*
Y416*
X1719Y424*
X1695*
X1535Y494D02*
Y445D01*
X1559*
X1568Y453*
Y461*
X1559Y469*
X1535*
X1559*
X1568Y478*
Y486*
X1559Y494*
X1535*
Y684D02*
Y635D01*
X1559*
X1568Y643*
Y651*
X1559Y659*
X1535*
X1559*
X1568Y668*
Y676*
X1559Y684*
X1535*
X1280Y399D02*
Y350D01*
X1304*
X1313Y358*
Y366*
X1304Y374*
X1280*
X1304*
X1313Y383*
Y391*
X1304Y399*
X1280*
X1060Y899D02*
Y850D01*
X1084*
X1093Y858*
Y866*
X1084Y874*
X1060*
X1084*
X1093Y883*
Y891*
X1084Y899*
X1060*
X1035Y379D02*
Y330D01*
X1059*
X1068Y338*
Y346*
X1059Y354*
X1035*
X1059*
X1068Y363*
Y371*
X1059Y379*
X1035*
X710Y484D02*
Y435D01*
X734*
X743Y443*
Y451*
X734Y459*
X710*
X734*
X743Y468*
Y476*
X734Y484*
X710*
X675Y749D02*
Y700D01*
X699*
X708Y708*
Y716*
X699Y724*
X675*
X699*
X708Y733*
Y741*
X699Y749*
X675*
X500Y674D02*
Y625D01*
X524*
X533Y633*
Y641*
X524Y649*
X500*
X524*
X533Y658*
Y666*
X524Y674*
X500*
X490Y914D02*
Y865D01*
X514*
X523Y873*
Y881*
X514Y889*
X490*
X514*
X523Y898*
Y906*
X514Y914*
X490*
X465Y1084D02*
Y1035D01*
X489*
X498Y1043*
Y1051*
X489Y1059*
X465*
X489*
X498Y1068*
Y1076*
X489Y1084*
X465*
X830Y1319D02*
Y1270D01*
X854*
X863Y1278*
Y1286*
X854Y1294*
X830*
X854*
X863Y1303*
Y1311*
X854Y1319*
X830*
X565Y1344D02*
Y1295D01*
X589*
X598Y1303*
Y1311*
X589Y1319*
X565*
X589*
X598Y1328*
Y1336*
X589Y1344*
X565*
X1055Y1479D02*
Y1430D01*
X1079*
X1088Y1438*
Y1446*
X1079Y1454*
X1055*
X1079*
X1088Y1463*
Y1471*
X1079Y1479*
X1055*
X800Y1519D02*
Y1470D01*
X824*
X833Y1478*
Y1486*
X824Y1494*
X800*
X824*
X833Y1503*
Y1511*
X824Y1519*
X800*
X625Y1549D02*
Y1500D01*
X649*
X658Y1508*
Y1516*
X649Y1524*
X625*
X649*
X658Y1533*
Y1541*
X649Y1549*
X625*
X1045Y1729D02*
Y1680D01*
X1069*
X1078Y1688*
Y1696*
X1069Y1704*
X1045*
X1069*
X1078Y1713*
Y1721*
X1069Y1729*
X1045*
X1485Y1799D02*
Y1750D01*
X1509*
X1518Y1758*
Y1766*
X1509Y1774*
X1485*
X1509*
X1518Y1783*
Y1791*
X1509Y1799*
X1485*
X1300Y1814D02*
Y1765D01*
X1324*
X1333Y1773*
Y1781*
X1324Y1789*
X1300*
X1324*
X1333Y1798*
Y1806*
X1324Y1814*
X1300*
X1235Y1969D02*
Y1920D01*
X1259*
X1268Y1928*
Y1936*
X1259Y1944*
X1235*
X1259*
X1268Y1953*
Y1961*
X1259Y1969*
X1235*
X985Y1999D02*
Y1950D01*
X1009*
X1018Y1958*
Y1966*
X1009Y1974*
X985*
X1009*
X1018Y1983*
Y1991*
X1009Y1999*
X985*
X725Y2054D02*
Y2005D01*
X749*
X758Y2013*
Y2021*
X749Y2029*
X725*
X749*
X758Y2038*
Y2046*
X749Y2054*
X725*
X590Y1724D02*
Y1675D01*
X614*
X623Y1683*
Y1691*
X614Y1699*
X590*
X614*
X623Y1708*
Y1716*
X614Y1724*
X590*
X500Y1969D02*
Y1920D01*
X524*
X533Y1928*
Y1936*
X524Y1944*
X500*
X524*
X533Y1953*
Y1961*
X524Y1969*
X500*
X420Y2394D02*
Y2345D01*
X444*
X453Y2353*
Y2361*
X444Y2369*
X420*
X444*
X453Y2378*
Y2386*
X444Y2394*
X420*
Y2254D02*
Y2205D01*
X444*
X453Y2213*
Y2221*
X444Y2229*
X420*
X444*
X453Y2238*
Y2246*
X444Y2254*
X420*
X740Y2649D02*
Y2600D01*
X764*
X773Y2608*
Y2616*
X764Y2624*
X740*
X764*
X773Y2633*
Y2641*
X764Y2649*
X740*
X535Y2694D02*
Y2645D01*
X559*
X568Y2653*
Y2661*
X559Y2669*
X535*
X559*
X568Y2678*
Y2686*
X559Y2694*
X535*
X720Y2814D02*
Y2765D01*
X744*
X753Y2773*
Y2781*
X744Y2789*
X720*
X744*
X753Y2798*
Y2806*
X744Y2814*
X720*
X780Y3249D02*
Y3200D01*
X804*
X813Y3208*
Y3216*
X804Y3224*
X780*
X804*
X813Y3233*
Y3241*
X804Y3249*
X780*
X1110Y3509D02*
Y3460D01*
X1134*
X1143Y3468*
Y3476*
X1134Y3484*
X1110*
X1134*
X1143Y3493*
Y3501*
X1134Y3509*
X1110*
X1035Y3219D02*
Y3170D01*
X1059*
X1068Y3178*
Y3186*
X1059Y3194*
X1035*
X1059*
X1068Y3203*
Y3211*
X1059Y3219*
X1035*
X500Y3164D02*
Y3115D01*
X524*
X533Y3123*
Y3131*
X524Y3139*
X500*
X524*
X533Y3148*
Y3156*
X524Y3164*
X500*
Y3329D02*
Y3280D01*
X524*
X533Y3288*
Y3296*
X524Y3304*
X500*
X524*
X533Y3313*
Y3321*
X524Y3329*
X500*
X1195Y3664D02*
Y3615D01*
X1219*
X1228Y3623*
Y3631*
X1219Y3639*
X1195*
X1219*
X1228Y3648*
Y3656*
X1219Y3664*
X1195*
X1335Y3844D02*
Y3795D01*
X1359*
X1368Y3803*
Y3811*
X1359Y3819*
X1335*
X1359*
X1368Y3828*
Y3836*
X1359Y3844*
X1335*
X1200Y4029D02*
Y3980D01*
X1224*
X1233Y3988*
Y3996*
X1224Y4004*
X1200*
X1224*
X1233Y4013*
Y4021*
X1224Y4029*
X1200*
X920Y4009D02*
Y3960D01*
X944*
X953Y3968*
Y3976*
X944Y3984*
X920*
X944*
X953Y3993*
Y4001*
X944Y4009*
X920*
X555Y3799D02*
Y3750D01*
X579*
X588Y3758*
Y3766*
X579Y3774*
X555*
X579*
X588Y3783*
Y3791*
X579Y3799*
X555*
X710Y3959D02*
Y3910D01*
X734*
X743Y3918*
Y3926*
X734Y3934*
X710*
X734*
X743Y3943*
Y3951*
X734Y3959*
X710*
X4015Y2664D02*
Y2615D01*
X4039*
X4048Y2623*
Y2631*
X4039Y2639*
X4015*
X4039*
X4048Y2648*
Y2656*
X4039Y2664*
X4015*
X4105Y2754D02*
Y2705D01*
X4129*
X4138Y2713*
Y2721*
X4129Y2729*
X4105*
X4129*
X4138Y2738*
Y2746*
X4129Y2754*
X4105*
X4195Y2844D02*
Y2795D01*
X4219*
X4228Y2803*
Y2811*
X4219Y2819*
X4195*
X4219*
X4228Y2828*
Y2836*
X4219Y2844*
X4195*
X3925Y2849D02*
Y2800D01*
X3949*
X3958Y2808*
Y2816*
X3949Y2824*
X3925*
X3949*
X3958Y2833*
Y2841*
X3949Y2849*
X3925*
X4015Y2929D02*
Y2880D01*
X4039*
X4048Y2888*
Y2896*
X4039Y2904*
X4015*
X4039*
X4048Y2913*
Y2921*
X4039Y2929*
X4015*
X3340Y2554D02*
Y2505D01*
X3364*
X3373Y2513*
Y2521*
X3364Y2529*
X3340*
X3364*
X3373Y2538*
Y2546*
X3364Y2554*
X3340*
X3195D02*
Y2505D01*
X3219*
X3228Y2513*
Y2521*
X3219Y2529*
X3195*
X3219*
X3228Y2538*
Y2546*
X3219Y2554*
X3195*
X3065Y2549D02*
Y2500D01*
X3089*
X3098Y2508*
Y2516*
X3089Y2524*
X3065*
X3089*
X3098Y2533*
Y2541*
X3089Y2549*
X3065*
X2360Y2544D02*
Y2495D01*
X2384*
X2393Y2503*
Y2511*
X2384Y2519*
X2360*
X2384*
X2393Y2528*
Y2536*
X2384Y2544*
X2360*
X2530Y2719D02*
Y2670D01*
X2554*
X2563Y2678*
Y2686*
X2554Y2694*
X2530*
X2554*
X2563Y2703*
Y2711*
X2554Y2719*
X2530*
X3820Y1599D02*
Y1550D01*
X3844*
X3853Y1558*
Y1566*
X3844Y1574*
X3820*
X3844*
X3853Y1583*
Y1591*
X3844Y1599*
X3820*
X3805Y1839D02*
Y1790D01*
X3829*
X3838Y1798*
Y1806*
X3829Y1814*
X3805*
X3829*
X3838Y1823*
Y1831*
X3829Y1839*
X3805*
X1590Y1309D02*
Y1260D01*
X1614*
X1623Y1268*
Y1276*
X1614Y1284*
X1590*
X1614*
X1623Y1293*
Y1301*
X1614Y1309*
X1590*
X1740Y1314D02*
Y1265D01*
X1764*
X1773Y1273*
Y1281*
X1764Y1289*
X1740*
X1764*
X1773Y1298*
Y1306*
X1764Y1314*
X1740*
X1775Y1479D02*
Y1430D01*
X1799*
X1808Y1438*
Y1446*
X1799Y1454*
X1775*
X1799*
X1808Y1463*
Y1471*
X1799Y1479*
X1775*
X1615D02*
Y1430D01*
X1639*
X1648Y1438*
Y1446*
X1639Y1454*
X1615*
X1639*
X1648Y1463*
Y1471*
X1639Y1479*
X1615*
X2920Y2550D02*
Y2500D01*
X2944*
X2953Y2508*
Y2516*
X2944Y2525*
X2920*
X2944*
X2953Y2533*
Y2541*
X2944Y2550*
X2920*
X2775Y2544D02*
Y2495D01*
X2799*
X2808Y2503*
Y2511*
X2799Y2519*
X2775*
X2799*
X2808Y2528*
Y2536*
X2799Y2544*
X2775*
X2785Y2724D02*
Y2675D01*
X2809*
X2818Y2683*
Y2691*
X2809Y2699*
X2785*
X2809*
X2818Y2708*
Y2716*
X2809Y2724*
X2785*
X2645Y2719D02*
Y2670D01*
X2669*
X2678Y2678*
Y2686*
X2669Y2694*
X2645*
X2669*
X2678Y2703*
Y2711*
X2669Y2719*
X2645*
X1885Y2714D02*
Y2665D01*
X1909*
X1918Y2673*
Y2681*
X1909Y2689*
X1885*
X1909*
X1918Y2698*
Y2706*
X1909Y2714*
X1885*
X2055Y2544D02*
Y2495D01*
X2079*
X2088Y2503*
Y2511*
X2079Y2519*
X2055*
X2079*
X2088Y2528*
Y2536*
X2079Y2544*
X2055*
X2175D02*
Y2495D01*
X2199*
X2208Y2503*
Y2511*
X2199Y2519*
X2175*
X2199*
X2208Y2528*
Y2536*
X2199Y2544*
X2175*
X2005Y2719D02*
Y2670D01*
X2029*
X2038Y2678*
Y2686*
X2029Y2694*
X2005*
X2029*
X2038Y2703*
Y2711*
X2029Y2719*
X2005*
X4495Y3404D02*
Y3355D01*
X4519*
X4528Y3363*
Y3371*
X4519Y3379*
X4495*
X4519*
X4528Y3388*
Y3396*
X4519Y3404*
X4495*
X4605Y3244D02*
Y3195D01*
X4629*
X4638Y3203*
Y3211*
X4629Y3219*
X4605*
X4629*
X4638Y3228*
Y3236*
X4629Y3244*
X4605*
X4520Y3164D02*
Y3115D01*
X4544*
X4553Y3123*
Y3131*
X4544Y3139*
X4520*
X4544*
X4553Y3148*
Y3156*
X4544Y3164*
X4520*
X4440Y3089D02*
Y3040D01*
X4464*
X4473Y3048*
Y3056*
X4464Y3064*
X4440*
X4464*
X4473Y3073*
Y3081*
X4464Y3089*
X4440*
X4370Y3019D02*
Y2970D01*
X4394*
X4403Y2978*
Y2986*
X4394Y2994*
X4370*
X4394*
X4403Y3003*
Y3011*
X4394Y3019*
X4370*
X4295Y2939D02*
Y2890D01*
X4319*
X4328Y2898*
Y2906*
X4319Y2914*
X4295*
X4319*
X4328Y2923*
Y2931*
X4319Y2939*
X4295*
X4115Y3029D02*
Y2980D01*
X4139*
X4148Y2988*
Y2996*
X4139Y3004*
X4115*
X4139*
X4148Y3013*
Y3021*
X4139Y3029*
X4115*
X4195Y3104D02*
Y3055D01*
X4219*
X4228Y3063*
Y3071*
X4219Y3079*
X4195*
X4219*
X4228Y3088*
Y3096*
X4219Y3104*
X4195*
X4270Y3174D02*
Y3125D01*
X4294*
X4303Y3133*
Y3141*
X4294Y3149*
X4270*
X4294*
X4303Y3158*
Y3166*
X4294Y3174*
X4270*
X4340Y3249D02*
Y3200D01*
X4364*
X4373Y3208*
Y3216*
X4364Y3224*
X4340*
X4364*
X4373Y3233*
Y3241*
X4364Y3249*
X4340*
X4415Y3329D02*
Y3280D01*
X4439*
X4448Y3288*
Y3296*
X4439Y3304*
X4415*
X4439*
X4448Y3313*
Y3321*
X4439Y3329*
X4415*
X2190Y2695D02*
X2200Y2715D01*
X2190Y2735*
X2210Y2725*
X2230Y2735*
X2220Y2715*
X2230Y2695*
X2210Y2705*
X2190Y2695*
X2198Y2703D02*
X2204Y2715D01*
X2198Y2727*
X2210Y2721*
X2222Y2727*
X2216Y2715*
X2222Y2703*
X2210Y2709*
X2198Y2703*
X5240Y2140D02*
X5250Y2160D01*
X5240Y2180*
X5260Y2170*
X5280Y2180*
X5270Y2160*
X5280Y2140*
X5260Y2150*
X5240Y2140*
X5248Y2148D02*
X5254Y2160D01*
X5248Y2172*
X5260Y2166*
X5272Y2172*
X5266Y2160*
X5272Y2148*
X5260Y2154*
X5248Y2148*
X1215Y909D02*
Y860D01*
X1239*
X1248Y868*
Y876*
X1239Y884*
X1215*
X1239*
X1248Y893*
Y901*
X1239Y909*
X1215*
X1250Y1155D02*
X1260Y1175D01*
X1250Y1195*
X1270Y1185*
X1290Y1195*
X1280Y1175*
X1290Y1155*
X1270Y1165*
X1250Y1155*
X1258Y1163D02*
X1264Y1175D01*
X1258Y1187*
X1270Y1181*
X1282Y1187*
X1276Y1175*
X1282Y1163*
X1270Y1169*
X1258Y1163*
X1395Y1295D02*
X1405Y1315D01*
X1395Y1335*
X1415Y1325*
X1435Y1335*
X1425Y1315*
X1435Y1295*
X1415Y1305*
X1395Y1295*
X1403Y1303D02*
X1409Y1315D01*
X1403Y1327*
X1415Y1321*
X1427Y1327*
X1421Y1315*
X1427Y1303*
X1415Y1309*
X1403Y1303*
X1460Y1044D02*
Y995D01*
X1484*
X1493Y1003*
Y1011*
X1484Y1019*
X1460*
X1484*
X1493Y1028*
Y1036*
X1484Y1044*
X1460*
X4960Y1800D02*
X4970Y1820D01*
X4960Y1840*
X4980Y1830*
X5000Y1840*
X4990Y1820*
X5000Y1800*
X4980Y1810*
X4960Y1800*
X4968Y1808D02*
X4974Y1820D01*
X4968Y1832*
X4980Y1826*
X4992Y1832*
X4986Y1820*
X4992Y1808*
X4980Y1814*
X4968Y1808*
X4960Y1744D02*
X4970Y1764D01*
X4960Y1784*
X4980Y1774*
X5000Y1784*
X4990Y1764*
X5000Y1744*
X4980Y1754*
X4960Y1744*
X4968Y1752D02*
X4974Y1764D01*
X4968Y1776*
X4980Y1770*
X4992Y1776*
X4986Y1764*
X4992Y1752*
X4980Y1758*
X4968Y1752*
X4634Y2316D02*
X4644Y2336D01*
X4634Y2356*
X4654Y2346*
X4674Y2356*
X4664Y2336*
X4674Y2316*
X4654Y2326*
X4634Y2316*
X4642Y2324D02*
X4648Y2336D01*
X4642Y2348*
X4654Y2342*
X4666Y2348*
X4660Y2336*
X4666Y2324*
X4654Y2330*
X4642Y2324*
X4330Y1755D02*
X4340D01*
X4350Y1765*
X4360Y1755*
X4370*
Y1765*
X4360Y1775*
X4370Y1785*
Y1795*
X4360*
X4350Y1785*
X4340Y1795*
X4330*
Y1785*
X4340Y1775*
X4330Y1765*
Y1755*
X4338Y1763D02*
X4344D01*
X4350Y1769*
X4356Y1763*
X4362*
Y1769*
X4356Y1775*
X4362Y1781*
Y1787*
X4356*
X4350Y1781*
X4344Y1787*
X4338*
Y1781*
X4344Y1775*
X4338Y1769*
Y1763*
X3905Y1305D02*
X3915Y1325D01*
X3905Y1345*
X3925Y1335*
X3945Y1345*
X3935Y1325*
X3945Y1305*
X3925Y1315*
X3905Y1305*
X3913Y1313D02*
X3919Y1325D01*
X3913Y1337*
X3925Y1331*
X3937Y1337*
X3931Y1325*
X3937Y1313*
X3925Y1319*
X3913Y1313*
X4816Y3122D02*
X4826Y3142D01*
X4816Y3162*
X4836Y3152*
X4856Y3162*
X4846Y3142*
X4856Y3122*
X4836Y3132*
X4816Y3122*
X4824Y3130D02*
X4830Y3142D01*
X4824Y3154*
X4836Y3148*
X4848Y3154*
X4842Y3142*
X4848Y3130*
X4836Y3136*
X4824Y3130*
X4230Y930D02*
X4240Y950D01*
X4230Y970*
X4250Y960*
X4270Y970*
X4260Y950*
X4270Y930*
X4250Y940*
X4230Y930*
X4238Y938D02*
X4244Y950D01*
X4238Y962*
X4250Y956*
X4262Y962*
X4256Y950*
X4262Y938*
X4250Y944*
X4238Y938*
X5330Y3420D02*
X5340D01*
X5350Y3430*
X5360Y3420*
X5370*
Y3430*
X5360Y3440*
X5370Y3450*
Y3460*
X5360*
X5350Y3450*
X5340Y3460*
X5330*
Y3450*
X5340Y3440*
X5330Y3430*
Y3420*
X5338Y3428D02*
X5344D01*
X5350Y3434*
X5356Y3428*
X5362*
Y3434*
X5356Y3440*
X5362Y3446*
Y3452*
X5356*
X5350Y3446*
X5344Y3452*
X5338*
Y3446*
X5344Y3440*
X5338Y3434*
Y3428*
X4943Y2206D02*
Y2239D01*
X4960Y2256*
X4976Y2239*
Y2206*
Y2231*
X4943*
X4900Y2380D02*
X4910D01*
X4920Y2390*
X4930Y2380*
X4940*
Y2390*
X4930Y2400*
X4940Y2410*
Y2420*
X4930*
X4920Y2410*
X4910Y2420*
X4900*
Y2410*
X4910Y2400*
X4900Y2390*
Y2380*
X4908Y2388D02*
X4914D01*
X4920Y2394*
X4926Y2388*
X4932*
Y2394*
X4926Y2400*
X4932Y2406*
Y2412*
X4926*
X4920Y2406*
X4914Y2412*
X4908*
Y2406*
X4914Y2400*
X4908Y2394*
Y2388*
X4921Y2245D02*
Y2278D01*
X4937Y2295*
X4954Y2278*
Y2245*
Y2270*
X4921*
X4911Y2281D02*
X4921D01*
X4931Y2291*
X4941Y2281*
X4951*
Y2291*
X4941Y2301*
X4951Y2311*
Y2321*
X4941*
X4931Y2311*
X4921Y2321*
X4911*
Y2311*
X4921Y2301*
X4911Y2291*
Y2281*
X4919Y2289D02*
X4925D01*
X4931Y2295*
X4937Y2289*
X4943*
Y2295*
X4937Y2301*
X4943Y2307*
Y2313*
X4937*
X4931Y2307*
X4925Y2313*
X4919*
Y2307*
X4925Y2301*
X4919Y2295*
Y2289*
X4565Y1910D02*
X4575Y1930D01*
X4565Y1950*
X4585Y1940*
X4605Y1950*
X4595Y1930*
X4605Y1910*
X4585Y1920*
X4565Y1910*
X4573Y1918D02*
X4579Y1930D01*
X4573Y1942*
X4585Y1936*
X4597Y1942*
X4591Y1930*
X4597Y1918*
X4585Y1924*
X4573Y1918*
X4615Y1830D02*
X4625Y1850D01*
X4615Y1870*
X4635Y1860*
X4655Y1870*
X4645Y1850*
X4655Y1830*
X4635Y1840*
X4615Y1830*
X4623Y1838D02*
X4629Y1850D01*
X4623Y1862*
X4635Y1856*
X4647Y1862*
X4641Y1850*
X4647Y1838*
X4635Y1844*
X4623Y1838*
X1505Y3559D02*
Y3510D01*
X1529*
X1538Y3518*
Y3526*
X1529Y3534*
X1505*
X1529*
X1538Y3543*
Y3551*
X1529Y3559*
X1505*
Y3484D02*
Y3435D01*
X1529*
X1538Y3443*
Y3451*
X1529Y3459*
X1505*
X1529*
X1538Y3468*
Y3476*
X1529Y3484*
X1505*
X1430Y3444D02*
Y3395D01*
X1454*
X1463Y3403*
Y3411*
X1454Y3419*
X1430*
X1454*
X1463Y3428*
Y3436*
X1454Y3444*
X1430*
X4780Y3260D02*
X4790D01*
X4800Y3270*
X4810Y3260*
X4820*
Y3270*
X4810Y3280*
X4820Y3290*
Y3300*
X4810*
X4800Y3290*
X4790Y3300*
X4780*
Y3290*
X4790Y3280*
X4780Y3270*
Y3260*
X4788Y3268D02*
X4794D01*
X4800Y3274*
X4806Y3268*
X4812*
Y3274*
X4806Y3280*
X4812Y3286*
Y3292*
X4806*
X4800Y3286*
X4794Y3292*
X4788*
Y3286*
X4794Y3280*
X4788Y3274*
Y3268*
X3965Y3364D02*
Y3315D01*
X3989*
X3998Y3323*
Y3331*
X3989Y3339*
X3965*
X3989*
X3998Y3348*
Y3356*
X3989Y3364*
X3965*
X3540Y3024D02*
Y2974D01*
X3565*
X3574Y2982*
Y2990*
X3565Y2999*
X3540*
X3565*
X3574Y3007*
Y3015*
X3565Y3024*
X3540*
X3400Y3109D02*
Y3060D01*
X3424*
X3433Y3068*
Y3076*
X3424Y3084*
X3400*
X3424*
X3433Y3093*
Y3101*
X3424Y3109*
X3400*
X2645Y3259D02*
Y3210D01*
X2669*
X2678Y3218*
Y3226*
X2669Y3234*
X2645*
X2669*
X2678Y3243*
Y3251*
X2669Y3259*
X2645*
Y3099D02*
Y3050D01*
X2669*
X2678Y3058*
Y3066*
X2669Y3074*
X2645*
X2669*
X2678Y3083*
Y3091*
X2669Y3099*
X2645*
X2445Y3374D02*
Y3325D01*
X2469*
X2478Y3333*
Y3341*
X2469Y3349*
X2445*
X2469*
X2478Y3358*
Y3366*
X2469Y3374*
X2445*
X3220Y3359D02*
Y3310D01*
X3244*
X3253Y3318*
Y3326*
X3244Y3334*
X3220*
X3244*
X3253Y3343*
Y3351*
X3244Y3359*
X3220*
X3845Y3114D02*
Y3065D01*
X3869*
X3878Y3073*
Y3081*
X3869Y3089*
X3845*
X3869*
X3878Y3098*
Y3106*
X3869Y3114*
X3845*
X3400Y3269D02*
Y3220D01*
X3424*
X3433Y3228*
Y3236*
X3424Y3244*
X3400*
X3424*
X3433Y3253*
Y3261*
X3424Y3269*
X3400*
X3105Y3094D02*
Y3045D01*
X3129*
X3138Y3053*
Y3061*
X3129Y3069*
X3105*
X3129*
X3138Y3078*
Y3086*
X3129Y3094*
X3105*
X2785Y3019D02*
Y2970D01*
X2809*
X2818Y2978*
Y2986*
X2809Y2994*
X2785*
X2809*
X2818Y3003*
Y3011*
X2809Y3019*
X2785*
X2890Y1550D02*
X2900Y1570D01*
X2890Y1590*
X2910Y1580*
X2930Y1590*
X2920Y1570*
X2930Y1550*
X2910Y1560*
X2890Y1550*
X2898Y1558D02*
X2904Y1570D01*
X2898Y1582*
X2910Y1576*
X2922Y1582*
X2916Y1570*
X2922Y1558*
X2910Y1564*
X2898Y1558*
X2675Y1249D02*
Y1200D01*
X2699*
X2708Y1208*
Y1216*
X2699Y1224*
X2675*
X2699*
X2708Y1233*
Y1241*
X2699Y1249*
X2675*
X1545Y909D02*
Y860D01*
X1569*
X1578Y868*
Y876*
X1569Y884*
X1545*
X1569*
X1578Y893*
Y901*
X1569Y909*
X1545*
X1530Y1959D02*
Y1910D01*
X1554*
X1563Y1918*
Y1926*
X1554Y1934*
X1530*
X1554*
X1563Y1943*
Y1951*
X1554Y1959*
X1530*
X1610Y2710D02*
Y2743D01*
X1626Y2759*
X1643Y2743*
Y2710*
Y2734*
X1610*
X1758Y2629D02*
Y2580D01*
X1783*
X1791Y2588*
Y2596*
X1783Y2604*
X1758*
X1783*
X1791Y2613*
Y2621*
X1783Y2629*
X1758*
X1280Y2209D02*
Y2160D01*
X1304*
X1313Y2168*
Y2176*
X1304Y2184*
X1280*
X1304*
X1313Y2193*
Y2201*
X1304Y2209*
X1280*
X1275Y2529D02*
Y2480D01*
X1299*
X1308Y2488*
Y2496*
X1299Y2504*
X1275*
X1299*
X1308Y2513*
Y2521*
X1299Y2529*
X1275*
X985Y2444D02*
Y2395D01*
X1009*
X1018Y2403*
Y2411*
X1009Y2419*
X985*
X1009*
X1018Y2428*
Y2436*
X1009Y2444*
X985*
X836Y2316D02*
X846D01*
X856Y2326*
X866Y2316*
X876*
Y2326*
X866Y2336*
X876Y2346*
Y2356*
X866*
X856Y2346*
X846Y2356*
X836*
Y2346*
X846Y2336*
X836Y2326*
Y2316*
X844Y2324D02*
X850D01*
X856Y2330*
X862Y2324*
X868*
Y2330*
X862Y2336*
X868Y2342*
Y2348*
X862*
X856Y2342*
X850Y2348*
X844*
Y2342*
X850Y2336*
X844Y2330*
Y2324*
X2345Y3109D02*
Y3060D01*
X2369*
X2378Y3068*
Y3076*
X2369Y3084*
X2345*
X2369*
X2378Y3093*
Y3101*
X2369Y3109*
X2345*
X2033Y3033D02*
Y2983D01*
X2058*
X2066Y2991*
Y2999*
X2058Y3008*
X2033*
X2058*
X2066Y3016*
Y3024*
X2058Y3033*
X2033*
X1890Y3109D02*
Y3060D01*
X1914*
X1923Y3068*
Y3076*
X1914Y3084*
X1890*
X1914*
X1923Y3093*
Y3101*
X1914Y3109*
X1890*
Y3269D02*
Y3220D01*
X1914*
X1923Y3228*
Y3236*
X1914Y3244*
X1890*
X1914*
X1923Y3253*
Y3261*
X1914Y3269*
X1890*
X1730Y3359D02*
Y3310D01*
X1754*
X1763Y3318*
Y3326*
X1754Y3334*
X1730*
X1754*
X1763Y3343*
Y3351*
X1754Y3359*
X1730*
X1598Y3672D02*
Y3705D01*
X1614Y3721*
X1631Y3705*
Y3672*
Y3696*
X1598*
X1250Y3369D02*
Y3320D01*
X1274*
X1283Y3328*
Y3336*
X1274Y3344*
X1250*
X1274*
X1283Y3353*
Y3361*
X1274Y3369*
X1250*
X1409Y2730D02*
X1419D01*
X1429Y2740*
X1439Y2730*
X1449*
Y2740*
X1439Y2750*
X1449Y2760*
Y2770*
X1439*
X1429Y2760*
X1419Y2770*
X1409*
Y2760*
X1419Y2750*
X1409Y2740*
Y2730*
X1417Y2738D02*
X1423D01*
X1429Y2744*
X1435Y2738*
X1441*
Y2744*
X1435Y2750*
X1441Y2756*
Y2762*
X1435*
X1429Y2756*
X1423Y2762*
X1417*
Y2756*
X1423Y2750*
X1417Y2744*
Y2738*
X1330Y2629D02*
Y2580D01*
X1354*
X1363Y2588*
Y2596*
X1354Y2604*
X1330*
X1354*
X1363Y2613*
Y2621*
X1354Y2629*
X1330*
X838Y2211D02*
X848D01*
X858Y2221*
X868Y2211*
X878*
Y2221*
X868Y2231*
X878Y2241*
Y2251*
X868*
X858Y2241*
X848Y2251*
X838*
Y2241*
X848Y2231*
X838Y2221*
Y2211*
X846Y2219D02*
X852D01*
X858Y2225*
X864Y2219*
X870*
Y2225*
X864Y2231*
X870Y2237*
Y2243*
X864*
X858Y2237*
X852Y2243*
X846*
Y2237*
X852Y2231*
X846Y2225*
Y2219*
X5270Y2750D02*
X5280Y2770D01*
X5270Y2790*
X5290Y2780*
X5310Y2790*
X5300Y2770*
X5310Y2750*
X5290Y2760*
X5270Y2750*
X5278Y2758D02*
X5284Y2770D01*
X5278Y2782*
X5290Y2776*
X5302Y2782*
X5296Y2770*
X5302Y2758*
X5290Y2764*
X5278Y2758*
X5270Y2340D02*
X5280Y2360D01*
X5270Y2380*
X5290Y2370*
X5310Y2380*
X5300Y2360*
X5310Y2340*
X5290Y2350*
X5270Y2340*
X5278Y2348D02*
X5284Y2360D01*
X5278Y2372*
X5290Y2366*
X5302Y2372*
X5296Y2360*
X5302Y2348*
X5290Y2354*
X5278Y2348*
X4718Y2391D02*
X4728D01*
X4738Y2401*
X4748Y2391*
X4758*
Y2401*
X4748Y2411*
X4758Y2421*
Y2431*
X4748*
X4738Y2421*
X4728Y2431*
X4718*
Y2421*
X4728Y2411*
X4718Y2401*
Y2391*
X4726Y2399D02*
X4732D01*
X4738Y2405*
X4744Y2399*
X4750*
Y2405*
X4744Y2411*
X4750Y2417*
Y2423*
X4744*
X4738Y2417*
X4732Y2423*
X4726*
Y2417*
X4732Y2411*
X4726Y2405*
Y2399*
X4650Y2390D02*
X4660Y2410D01*
X4650Y2430*
X4670Y2420*
X4690Y2430*
X4680Y2410*
X4690Y2390*
X4670Y2400*
X4650Y2390*
X4658Y2398D02*
X4664Y2410D01*
X4658Y2422*
X4670Y2416*
X4682Y2422*
X4676Y2410*
X4682Y2398*
X4670Y2404*
X4658Y2398*
X5130Y2720D02*
X5140Y2740D01*
X5130Y2760*
X5150Y2750*
X5170Y2760*
X5160Y2740*
X5170Y2720*
X5150Y2730*
X5130Y2720*
X5138Y2728D02*
X5144Y2740D01*
X5138Y2752*
X5150Y2746*
X5162Y2752*
X5156Y2740*
X5162Y2728*
X5150Y2734*
X5138Y2728*
X5020Y2610D02*
X5030Y2630D01*
X5020Y2650*
X5040Y2640*
X5060Y2650*
X5050Y2630*
X5060Y2610*
X5040Y2620*
X5020Y2610*
X5028Y2618D02*
X5034Y2630D01*
X5028Y2642*
X5040Y2636*
X5052Y2642*
X5046Y2630*
X5052Y2618*
X5040Y2624*
X5028Y2618*
X5170Y3570D02*
X5180Y3590D01*
X5170Y3610*
X5190Y3600*
X5210Y3610*
X5200Y3590*
X5210Y3570*
X5190Y3580*
X5170Y3570*
X5178Y3578D02*
X5184Y3590D01*
X5178Y3602*
X5190Y3596*
X5202Y3602*
X5196Y3590*
X5202Y3578*
X5190Y3584*
X5178Y3578*
X4544Y2215D02*
X4554Y2235D01*
X4544Y2255*
X4564Y2245*
X4584Y2255*
X4574Y2235*
X4584Y2215*
X4564Y2225*
X4544Y2215*
X4552Y2223D02*
X4558Y2235D01*
X4552Y2247*
X4564Y2241*
X4576Y2247*
X4570Y2235*
X4576Y2223*
X4564Y2229*
X4552Y2223*
X4780Y2052D02*
X4790Y2072D01*
X4780Y2092*
X4800Y2082*
X4820Y2092*
X4810Y2072*
X4820Y2052*
X4800Y2062*
X4780Y2052*
X4788Y2060D02*
X4794Y2072D01*
X4788Y2084*
X4800Y2078*
X4812Y2084*
X4806Y2072*
X4812Y2060*
X4800Y2066*
X4788Y2060*
X3011Y2617D02*
X3021Y2637D01*
X3011Y2657*
X3031Y2647*
X3051Y2657*
X3041Y2637*
X3051Y2617*
X3031Y2627*
X3011Y2617*
X3019Y2625D02*
X3025Y2637D01*
X3019Y2649*
X3031Y2643*
X3043Y2649*
X3037Y2637*
X3043Y2625*
X3031Y2631*
X3019Y2625*
X3129Y2657D02*
X3139Y2677D01*
X3129Y2697*
X3149Y2687*
X3169Y2697*
X3159Y2677*
X3169Y2657*
X3149Y2667*
X3129Y2657*
X3137Y2665D02*
X3143Y2677D01*
X3137Y2689*
X3149Y2683*
X3161Y2689*
X3155Y2677*
X3161Y2665*
X3149Y2671*
X3137Y2665*
X2881Y2728D02*
X2891Y2748D01*
X2881Y2768*
X2901Y2758*
X2921Y2768*
X2911Y2748*
X2921Y2728*
X2901Y2738*
X2881Y2728*
X2889Y2736D02*
X2895Y2748D01*
X2889Y2760*
X2901Y2754*
X2913Y2760*
X2907Y2748*
X2913Y2736*
X2901Y2742*
X2889Y2736*
X2219Y2765D02*
X2229Y2785D01*
X2219Y2805*
X2239Y2795*
X2259Y2805*
X2249Y2785*
X2259Y2765*
X2239Y2775*
X2219Y2765*
X2227Y2773D02*
X2233Y2785D01*
X2227Y2797*
X2239Y2791*
X2251Y2797*
X2245Y2785*
X2251Y2773*
X2239Y2779*
X2227Y2773*
X2302Y2676D02*
X2312Y2696D01*
X2302Y2716*
X2322Y2706*
X2342Y2716*
X2332Y2696*
X2342Y2676*
X2322Y2686*
X2302Y2676*
X2310Y2684D02*
X2316Y2696D01*
X2310Y2708*
X2322Y2702*
X2334Y2708*
X2328Y2696*
X2334Y2684*
X2322Y2690*
X2310Y2684*
X2756Y3621D02*
X2766D01*
X2776Y3631*
X2786Y3621*
X2796*
Y3631*
X2786Y3641*
X2796Y3651*
Y3661*
X2786*
X2776Y3651*
X2766Y3661*
X2756*
Y3651*
X2766Y3641*
X2756Y3631*
Y3621*
X2764Y3629D02*
X2770D01*
X2776Y3635*
X2782Y3629*
X2788*
Y3635*
X2782Y3641*
X2788Y3647*
Y3653*
X2782*
X2776Y3647*
X2770Y3653*
X2764*
Y3647*
X2770Y3641*
X2764Y3635*
Y3629*
X4514Y1925D02*
X4524Y1945D01*
X4514Y1965*
X4534Y1955*
X4554Y1965*
X4544Y1945*
X4554Y1925*
X4534Y1935*
X4514Y1925*
X4522Y1933D02*
X4528Y1945D01*
X4522Y1957*
X4534Y1951*
X4546Y1957*
X4540Y1945*
X4546Y1933*
X4534Y1939*
X4522Y1933*
X4580Y1950D02*
X4590Y1970D01*
X4580Y1990*
X4600Y1980*
X4620Y1990*
X4610Y1970*
X4620Y1950*
X4600Y1960*
X4580Y1950*
X4588Y1958D02*
X4594Y1970D01*
X4588Y1982*
X4600Y1976*
X4612Y1982*
X4606Y1970*
X4612Y1958*
X4600Y1964*
X4588Y1958*
X4550Y2030D02*
X4560Y2050D01*
X4550Y2070*
X4570Y2060*
X4590Y2070*
X4580Y2050*
X4590Y2030*
X4570Y2040*
X4550Y2030*
X4558Y2038D02*
X4564Y2050D01*
X4558Y2062*
X4570Y2056*
X4582Y2062*
X4576Y2050*
X4582Y2038*
X4570Y2044*
X4558Y2038*
X4545Y2074D02*
X4555Y2094D01*
X4545Y2114*
X4565Y2104*
X4585Y2114*
X4575Y2094*
X4585Y2074*
X4565Y2084*
X4545Y2074*
X4553Y2082D02*
X4559Y2094D01*
X4553Y2106*
X4565Y2100*
X4577Y2106*
X4571Y2094*
X4577Y2082*
X4565Y2088*
X4553Y2082*
X4550Y2120D02*
X4560Y2140D01*
X4550Y2160*
X4570Y2150*
X4590Y2160*
X4580Y2140*
X4590Y2120*
X4570Y2130*
X4550Y2120*
X4558Y2128D02*
X4564Y2140D01*
X4558Y2152*
X4570Y2146*
X4582Y2152*
X4576Y2140*
X4582Y2128*
X4570Y2134*
X4558Y2128*
X4230Y2200D02*
Y2233D01*
X4246Y2249*
X4263Y2233*
Y2200*
Y2224*
X4230*
X2940Y1502D02*
X2950D01*
X2960Y1512*
X2970Y1502*
X2980*
Y1512*
X2970Y1522*
X2980Y1532*
Y1542*
X2970*
X2960Y1532*
X2950Y1542*
X2940*
Y1532*
X2950Y1522*
X2940Y1512*
Y1502*
X2948Y1510D02*
X2954D01*
X2960Y1516*
X2966Y1510*
X2972*
Y1516*
X2966Y1522*
X2972Y1528*
Y1534*
X2966*
X2960Y1528*
X2954Y1534*
X2948*
Y1528*
X2954Y1522*
X2948Y1516*
Y1510*
X4380Y1500D02*
X4390Y1520D01*
X4380Y1540*
X4400Y1530*
X4420Y1540*
X4410Y1520*
X4420Y1500*
X4400Y1510*
X4380Y1500*
X4388Y1508D02*
X4394Y1520D01*
X4388Y1532*
X4400Y1526*
X4412Y1532*
X4406Y1520*
X4412Y1508*
X4400Y1514*
X4388Y1508*
X4419Y1260D02*
X4429Y1280D01*
X4419Y1300*
X4439Y1290*
X4459Y1300*
X4449Y1280*
X4459Y1260*
X4439Y1270*
X4419Y1260*
X4427Y1268D02*
X4433Y1280D01*
X4427Y1292*
X4439Y1286*
X4451Y1292*
X4445Y1280*
X4451Y1268*
X4439Y1274*
X4427Y1268*
X4280Y1400D02*
X4290Y1420D01*
X4280Y1440*
X4300Y1430*
X4320Y1440*
X4310Y1420*
X4320Y1400*
X4300Y1410*
X4280Y1400*
X4288Y1408D02*
X4294Y1420D01*
X4288Y1432*
X4300Y1426*
X4312Y1432*
X4306Y1420*
X4312Y1408*
X4300Y1414*
X4288Y1408*
X4050Y1230D02*
X4060Y1250D01*
X4050Y1270*
X4070Y1260*
X4090Y1270*
X4080Y1250*
X4090Y1230*
X4070Y1240*
X4050Y1230*
X4058Y1238D02*
X4064Y1250D01*
X4058Y1262*
X4070Y1256*
X4082Y1262*
X4076Y1250*
X4082Y1238*
X4070Y1244*
X4058Y1238*
X4380Y1190D02*
X4390Y1210D01*
X4380Y1230*
X4400Y1220*
X4420Y1230*
X4410Y1210*
X4420Y1190*
X4400Y1200*
X4380Y1190*
X4388Y1198D02*
X4394Y1210D01*
X4388Y1222*
X4400Y1216*
X4412Y1222*
X4406Y1210*
X4412Y1198*
X4400Y1204*
X4388Y1198*
X4420Y990D02*
X4430Y1010D01*
X4420Y1030*
X4440Y1020*
X4460Y1030*
X4450Y1010*
X4460Y990*
X4440Y1000*
X4420Y990*
X4428Y998D02*
X4434Y1010D01*
X4428Y1022*
X4440Y1016*
X4452Y1022*
X4446Y1010*
X4452Y998*
X4440Y1004*
X4428Y998*
X4030Y1000D02*
X4040Y1020D01*
X4030Y1040*
X4050Y1030*
X4070Y1040*
X4060Y1020*
X4070Y1000*
X4050Y1010*
X4030Y1000*
X4038Y1008D02*
X4044Y1020D01*
X4038Y1032*
X4050Y1026*
X4062Y1032*
X4056Y1020*
X4062Y1008*
X4050Y1014*
X4038Y1008*
X3990Y1050D02*
X4000Y1070D01*
X3990Y1090*
X4010Y1080*
X4030Y1090*
X4020Y1070*
X4030Y1050*
X4010Y1060*
X3990Y1050*
X3998Y1058D02*
X4004Y1070D01*
X3998Y1082*
X4010Y1076*
X4022Y1082*
X4016Y1070*
X4022Y1058*
X4010Y1064*
X3998Y1058*
X4420Y1050D02*
X4430Y1070D01*
X4420Y1090*
X4440Y1080*
X4460Y1090*
X4450Y1070*
X4460Y1050*
X4440Y1060*
X4420Y1050*
X4428Y1058D02*
X4434Y1070D01*
X4428Y1082*
X4440Y1076*
X4452Y1082*
X4446Y1070*
X4452Y1058*
X4440Y1064*
X4428Y1058*
X4410Y1110D02*
X4420Y1130D01*
X4410Y1150*
X4430Y1140*
X4450Y1150*
X4440Y1130*
X4450Y1110*
X4430Y1120*
X4410Y1110*
X4418Y1118D02*
X4424Y1130D01*
X4418Y1142*
X4430Y1136*
X4442Y1142*
X4436Y1130*
X4442Y1118*
X4430Y1124*
X4418Y1118*
X4130Y850D02*
X4140Y870D01*
X4130Y890*
X4150Y880*
X4170Y890*
X4160Y870*
X4170Y850*
X4150Y860*
X4130Y850*
X4138Y858D02*
X4144Y870D01*
X4138Y882*
X4150Y876*
X4162Y882*
X4156Y870*
X4162Y858*
X4150Y864*
X4138Y858*
X4438Y1851D02*
X4448Y1871D01*
X4438Y1891*
X4458Y1881*
X4478Y1891*
X4468Y1871*
X4478Y1851*
X4458Y1861*
X4438Y1851*
X4446Y1859D02*
X4452Y1871D01*
X4446Y1883*
X4458Y1877*
X4470Y1883*
X4464Y1871*
X4470Y1859*
X4458Y1865*
X4446Y1859*
X4486Y1753D02*
X4496Y1773D01*
X4486Y1793*
X4506Y1783*
X4526Y1793*
X4516Y1773*
X4526Y1753*
X4506Y1763*
X4486Y1753*
X4494Y1761D02*
X4500Y1773D01*
X4494Y1785*
X4506Y1779*
X4518Y1785*
X4512Y1773*
X4518Y1761*
X4506Y1767*
X4494Y1761*
X4238Y1733D02*
Y1766D01*
X4254Y1782*
X4271Y1766*
Y1733*
Y1757*
X4238*
X4430Y1770D02*
X4440Y1790D01*
X4430Y1810*
X4450Y1800*
X4470Y1810*
X4460Y1790*
X4470Y1770*
X4450Y1780*
X4430Y1770*
X4438Y1778D02*
X4444Y1790D01*
X4438Y1802*
X4450Y1796*
X4462Y1802*
X4456Y1790*
X4462Y1778*
X4450Y1784*
X4438Y1778*
X4410Y1740D02*
X4420Y1760D01*
X4410Y1780*
X4430Y1770*
X4450Y1780*
X4440Y1760*
X4450Y1740*
X4430Y1750*
X4410Y1740*
X4418Y1748D02*
X4424Y1760D01*
X4418Y1772*
X4430Y1766*
X4442Y1772*
X4436Y1760*
X4442Y1748*
X4430Y1754*
X4418Y1748*
X4320Y770D02*
X4330Y790D01*
X4320Y810*
X4340Y800*
X4360Y810*
X4350Y790*
X4360Y770*
X4340Y780*
X4320Y770*
X4328Y778D02*
X4334Y790D01*
X4328Y802*
X4340Y796*
X4352Y802*
X4346Y790*
X4352Y778*
X4340Y784*
X4328Y778*
X4750Y2650D02*
X4760Y2670D01*
X4750Y2690*
X4770Y2680*
X4790Y2690*
X4780Y2670*
X4790Y2650*
X4770Y2660*
X4750Y2650*
X4758Y2658D02*
X4764Y2670D01*
X4758Y2682*
X4770Y2676*
X4782Y2682*
X4776Y2670*
X4782Y2658*
X4770Y2664*
X4758Y2658*
X4643Y2079D02*
X4653Y2099D01*
X4643Y2119*
X4663Y2109*
X4683Y2119*
X4673Y2099*
X4683Y2079*
X4663Y2089*
X4643Y2079*
X4651Y2087D02*
X4657Y2099D01*
X4651Y2111*
X4663Y2105*
X4675Y2111*
X4669Y2099*
X4675Y2087*
X4663Y2093*
X4651Y2087*
X4662Y2098D02*
X4672Y2118D01*
X4662Y2138*
X4682Y2128*
X4702Y2138*
X4692Y2118*
X4702Y2098*
X4682Y2108*
X4662Y2098*
X4670Y2106D02*
X4676Y2118D01*
X4670Y2130*
X4682Y2124*
X4694Y2130*
X4688Y2118*
X4694Y2106*
X4682Y2112*
X4670Y2106*
X4721Y2135D02*
X4731Y2155D01*
X4721Y2175*
X4741Y2165*
X4761Y2175*
X4751Y2155*
X4761Y2135*
X4741Y2145*
X4721Y2135*
X4729Y2143D02*
X4735Y2155D01*
X4729Y2167*
X4741Y2161*
X4753Y2167*
X4747Y2155*
X4753Y2143*
X4741Y2149*
X4729Y2143*
X4755Y2136D02*
X4765Y2156D01*
X4755Y2176*
X4775Y2166*
X4795Y2176*
X4785Y2156*
X4795Y2136*
X4775Y2146*
X4755Y2136*
X4763Y2144D02*
X4769Y2156D01*
X4763Y2168*
X4775Y2162*
X4787Y2168*
X4781Y2156*
X4787Y2144*
X4775Y2150*
X4763Y2144*
X4759Y2101D02*
X4769Y2121D01*
X4759Y2141*
X4779Y2131*
X4799Y2141*
X4789Y2121*
X4799Y2101*
X4779Y2111*
X4759Y2101*
X4767Y2109D02*
X4773Y2121D01*
X4767Y2133*
X4779Y2127*
X4791Y2133*
X4785Y2121*
X4791Y2109*
X4779Y2115*
X4767Y2109*
X4692Y2210D02*
X4702Y2230D01*
X4692Y2250*
X4712Y2240*
X4732Y2250*
X4722Y2230*
X4732Y2210*
X4712Y2220*
X4692Y2210*
X4700Y2218D02*
X4706Y2230D01*
X4700Y2242*
X4712Y2236*
X4724Y2242*
X4718Y2230*
X4724Y2218*
X4712Y2224*
X4700Y2218*
X5456Y1590D02*
X5466Y1610D01*
X5456Y1630*
X5476Y1620*
X5496Y1630*
X5486Y1610*
X5496Y1590*
X5476Y1600*
X5456Y1590*
X5464Y1598D02*
X5470Y1610D01*
X5464Y1622*
X5476Y1616*
X5488Y1622*
X5482Y1610*
X5488Y1598*
X5476Y1604*
X5464Y1598*
X4890Y1590D02*
X4900Y1610D01*
X4890Y1630*
X4910Y1620*
X4930Y1630*
X4920Y1610*
X4930Y1590*
X4910Y1600*
X4890Y1590*
X4898Y1598D02*
X4904Y1610D01*
X4898Y1622*
X4910Y1616*
X4922Y1622*
X4916Y1610*
X4922Y1598*
X4910Y1604*
X4898Y1598*
X4831Y1645D02*
Y1678D01*
X4847Y1694*
X4864Y1678*
Y1645*
Y1669*
X4831*
X4781Y1645D02*
Y1678D01*
X4797Y1694*
X4814Y1678*
Y1645*
Y1669*
X4781*
X4808Y1772D02*
X4818Y1792D01*
X4808Y1812*
X4828Y1802*
X4848Y1812*
X4838Y1792*
X4848Y1772*
X4828Y1782*
X4808Y1772*
X4816Y1780D02*
X4822Y1792D01*
X4816Y1804*
X4828Y1798*
X4840Y1804*
X4834Y1792*
X4840Y1780*
X4828Y1786*
X4816Y1780*
X4800Y1731D02*
X4810D01*
X4820Y1741*
X4830Y1731*
X4840*
Y1741*
X4830Y1751*
X4840Y1761*
Y1771*
X4830*
X4820Y1761*
X4810Y1771*
X4800*
Y1761*
X4810Y1751*
X4800Y1741*
Y1731*
X4808Y1739D02*
X4814D01*
X4820Y1745*
X4826Y1739*
X4832*
Y1745*
X4826Y1751*
X4832Y1757*
Y1763*
X4826*
X4820Y1757*
X4814Y1763*
X4808*
Y1757*
X4814Y1751*
X4808Y1745*
Y1739*
X5250Y1970D02*
X5260Y1990D01*
X5250Y2010*
X5270Y2000*
X5290Y2010*
X5280Y1990*
X5290Y1970*
X5270Y1980*
X5250Y1970*
X5258Y1978D02*
X5264Y1990D01*
X5258Y2002*
X5270Y1996*
X5282Y2002*
X5276Y1990*
X5282Y1978*
X5270Y1984*
X5258Y1978*
X4860Y1715D02*
X4870Y1735D01*
X4860Y1755*
X4880Y1745*
X4900Y1755*
X4890Y1735*
X4900Y1715*
X4880Y1725*
X4860Y1715*
X4868Y1723D02*
X4874Y1735D01*
X4868Y1747*
X4880Y1741*
X4892Y1747*
X4886Y1735*
X4892Y1723*
X4880Y1729*
X4868Y1723*
X5412Y2722D02*
X5422Y2742D01*
X5412Y2762*
X5432Y2752*
X5452Y2762*
X5442Y2742*
X5452Y2722*
X5432Y2732*
X5412Y2722*
X5420Y2730D02*
X5426Y2742D01*
X5420Y2754*
X5432Y2748*
X5444Y2754*
X5438Y2742*
X5444Y2730*
X5432Y2736*
X5420Y2730*
X5470Y2615D02*
X5480Y2635D01*
X5470Y2655*
X5490Y2645*
X5510Y2655*
X5500Y2635*
X5510Y2615*
X5490Y2625*
X5470Y2615*
X5478Y2623D02*
X5484Y2635D01*
X5478Y2647*
X5490Y2641*
X5502Y2647*
X5496Y2635*
X5502Y2623*
X5490Y2629*
X5478Y2623*
X5410Y2660D02*
X5420D01*
X5430Y2670*
X5440Y2660*
X5450*
Y2670*
X5440Y2680*
X5450Y2690*
Y2700*
X5440*
X5430Y2690*
X5420Y2700*
X5410*
Y2690*
X5420Y2680*
X5410Y2670*
Y2660*
X5418Y2668D02*
X5424D01*
X5430Y2674*
X5436Y2668*
X5442*
Y2674*
X5436Y2680*
X5442Y2686*
Y2692*
X5436*
X5430Y2686*
X5424Y2692*
X5418*
Y2686*
X5424Y2680*
X5418Y2674*
Y2668*
X5488Y1207D02*
X5498D01*
X5508Y1217*
X5518Y1207*
X5528*
Y1217*
X5518Y1227*
X5528Y1237*
Y1247*
X5518*
X5508Y1237*
X5498Y1247*
X5488*
Y1237*
X5498Y1227*
X5488Y1217*
Y1207*
X5496Y1215D02*
X5502D01*
X5508Y1221*
X5514Y1215*
X5520*
Y1221*
X5514Y1227*
X5520Y1233*
Y1239*
X5514*
X5508Y1233*
X5502Y1239*
X5496*
Y1233*
X5502Y1227*
X5496Y1221*
Y1215*
X5913Y2961D02*
X5923D01*
X5933Y2971*
X5943Y2961*
X5953*
Y2971*
X5943Y2981*
X5953Y2991*
Y3001*
X5943*
X5933Y2991*
X5923Y3001*
X5913*
Y2991*
X5923Y2981*
X5913Y2971*
Y2961*
X5921Y2969D02*
X5927D01*
X5933Y2975*
X5939Y2969*
X5945*
Y2975*
X5939Y2981*
X5945Y2987*
Y2993*
X5939*
X5933Y2987*
X5927Y2993*
X5921*
Y2987*
X5927Y2981*
X5921Y2975*
Y2969*
X5919Y2535D02*
X5929D01*
X5939Y2545*
X5949Y2535*
X5959*
Y2545*
X5949Y2555*
X5959Y2565*
Y2575*
X5949*
X5939Y2565*
X5929Y2575*
X5919*
Y2565*
X5929Y2555*
X5919Y2545*
Y2535*
X5927Y2543D02*
X5933D01*
X5939Y2549*
X5945Y2543*
X5951*
Y2549*
X5945Y2555*
X5951Y2561*
Y2567*
X5945*
X5939Y2561*
X5933Y2567*
X5927*
Y2561*
X5933Y2555*
X5927Y2549*
Y2543*
X4960Y1772D02*
X4970Y1792D01*
X4960Y1812*
X4980Y1802*
X5000Y1812*
X4990Y1792*
X5000Y1772*
X4980Y1782*
X4960Y1772*
X4968Y1780D02*
X4974Y1792D01*
X4968Y1804*
X4980Y1798*
X4992Y1804*
X4986Y1792*
X4992Y1780*
X4980Y1786*
X4968Y1780*
X5300Y1990D02*
X5310Y2010D01*
X5300Y2030*
X5320Y2020*
X5340Y2030*
X5330Y2010*
X5340Y1990*
X5320Y2000*
X5300Y1990*
X5308Y1998D02*
X5314Y2010D01*
X5308Y2022*
X5320Y2016*
X5332Y2022*
X5326Y2010*
X5332Y1998*
X5320Y2004*
X5308Y1998*
X5490Y1390D02*
X5500Y1410D01*
X5490Y1430*
X5510Y1420*
X5530Y1430*
X5520Y1410*
X5530Y1390*
X5510Y1400*
X5490Y1390*
X5498Y1398D02*
X5504Y1410D01*
X5498Y1422*
X5510Y1416*
X5522Y1422*
X5516Y1410*
X5522Y1398*
X5510Y1404*
X5498Y1398*
X4058Y1607D02*
X4068D01*
X4078Y1617*
X4088Y1607*
X4098*
Y1617*
X4088Y1627*
X4098Y1637*
Y1647*
X4088*
X4078Y1637*
X4068Y1647*
X4058*
Y1637*
X4068Y1627*
X4058Y1617*
Y1607*
X4066Y1615D02*
X4072D01*
X4078Y1621*
X4084Y1615*
X4090*
Y1621*
X4084Y1627*
X4090Y1633*
Y1639*
X4084*
X4078Y1633*
X4072Y1639*
X4066*
Y1633*
X4072Y1627*
X4066Y1621*
Y1615*
X4823Y3455D02*
Y3488D01*
X4839Y3504*
X4856Y3488*
Y3455*
Y3479*
X4823*
X4886Y3451D02*
Y3484D01*
X4902Y3500*
X4919Y3484*
Y3451*
Y3475*
X4886*
X2756Y1630D02*
X2766D01*
X2776Y1640*
X2786Y1630*
X2796*
Y1640*
X2786Y1650*
X2796Y1660*
Y1670*
X2786*
X2776Y1660*
X2766Y1670*
X2756*
Y1660*
X2766Y1650*
X2756Y1640*
Y1630*
X2764Y1638D02*
X2770D01*
X2776Y1644*
X2782Y1638*
X2788*
Y1644*
X2782Y1650*
X2788Y1656*
Y1662*
X2782*
X2776Y1656*
X2770Y1662*
X2764*
Y1656*
X2770Y1650*
X2764Y1644*
Y1638*
X3027Y1722D02*
X3037D01*
X3047Y1732*
X3057Y1722*
X3067*
Y1732*
X3057Y1742*
X3067Y1752*
Y1762*
X3057*
X3047Y1752*
X3037Y1762*
X3027*
Y1752*
X3037Y1742*
X3027Y1732*
Y1722*
X3035Y1730D02*
X3041D01*
X3047Y1736*
X3053Y1730*
X3059*
Y1736*
X3053Y1742*
X3059Y1748*
Y1754*
X3053*
X3047Y1748*
X3041Y1754*
X3035*
Y1748*
X3041Y1742*
X3035Y1736*
Y1730*
X3444Y1737D02*
X3454D01*
X3464Y1747*
X3474Y1737*
X3484*
Y1747*
X3474Y1757*
X3484Y1767*
Y1777*
X3474*
X3464Y1767*
X3454Y1777*
X3444*
Y1767*
X3454Y1757*
X3444Y1747*
Y1737*
X3452Y1745D02*
X3458D01*
X3464Y1751*
X3470Y1745*
X3476*
Y1751*
X3470Y1757*
X3476Y1763*
Y1769*
X3470*
X3464Y1763*
X3458Y1769*
X3452*
Y1763*
X3458Y1757*
X3452Y1751*
Y1745*
X3360Y1495D02*
X3370D01*
X3380Y1505*
X3390Y1495*
X3400*
Y1505*
X3390Y1515*
X3400Y1525*
Y1535*
X3390*
X3380Y1525*
X3370Y1535*
X3360*
Y1525*
X3370Y1515*
X3360Y1505*
Y1495*
X3368Y1503D02*
X3374D01*
X3380Y1509*
X3386Y1503*
X3392*
Y1509*
X3386Y1515*
X3392Y1521*
Y1527*
X3386*
X3380Y1521*
X3374Y1527*
X3368*
Y1521*
X3374Y1515*
X3368Y1509*
Y1503*
X3669Y1682D02*
X3679D01*
X3689Y1692*
X3699Y1682*
X3709*
Y1692*
X3699Y1702*
X3709Y1712*
Y1722*
X3699*
X3689Y1712*
X3679Y1722*
X3669*
Y1712*
X3679Y1702*
X3669Y1692*
Y1682*
X3677Y1690D02*
X3683D01*
X3689Y1696*
X3695Y1690*
X3701*
Y1696*
X3695Y1702*
X3701Y1708*
Y1714*
X3695*
X3689Y1708*
X3683Y1714*
X3677*
Y1708*
X3683Y1702*
X3677Y1696*
Y1690*
X3260Y1672D02*
X3270D01*
X3280Y1682*
X3290Y1672*
X3300*
Y1682*
X3290Y1692*
X3300Y1702*
Y1712*
X3290*
X3280Y1702*
X3270Y1712*
X3260*
Y1702*
X3270Y1692*
X3260Y1682*
Y1672*
X3268Y1680D02*
X3274D01*
X3280Y1686*
X3286Y1680*
X3292*
Y1686*
X3286Y1692*
X3292Y1698*
Y1704*
X3286*
X3280Y1698*
X3274Y1704*
X3268*
Y1698*
X3274Y1692*
X3268Y1686*
Y1680*
X3797Y2680D02*
Y2713D01*
X3813Y2729*
X3830Y2713*
Y2680*
Y2704*
X3797*
X4659Y3417D02*
X4669D01*
X4679Y3427*
X4689Y3417*
X4699*
Y3427*
X4689Y3437*
X4699Y3447*
Y3457*
X4689*
X4679Y3447*
X4669Y3457*
X4659*
Y3447*
X4669Y3437*
X4659Y3427*
Y3417*
X4667Y3425D02*
X4673D01*
X4679Y3431*
X4685Y3425*
X4691*
Y3431*
X4685Y3437*
X4691Y3443*
Y3449*
X4685*
X4679Y3443*
X4673Y3449*
X4667*
Y3443*
X4673Y3437*
X4667Y3431*
Y3425*
X5656Y3485D02*
X5666D01*
X5676Y3495*
X5686Y3485*
X5696*
Y3495*
X5686Y3505*
X5696Y3515*
Y3525*
X5686*
X5676Y3515*
X5666Y3525*
X5656*
Y3515*
X5666Y3505*
X5656Y3495*
Y3485*
X5664Y3493D02*
X5670D01*
X5676Y3499*
X5682Y3493*
X5688*
Y3499*
X5682Y3505*
X5688Y3511*
Y3517*
X5682*
X5676Y3511*
X5670Y3517*
X5664*
Y3511*
X5670Y3505*
X5664Y3499*
Y3493*
X5480Y3383D02*
X5490D01*
X5500Y3393*
X5510Y3383*
X5520*
Y3393*
X5510Y3403*
X5520Y3413*
Y3423*
X5510*
X5500Y3413*
X5490Y3423*
X5480*
Y3413*
X5490Y3403*
X5480Y3393*
Y3383*
X5488Y3391D02*
X5494D01*
X5500Y3397*
X5506Y3391*
X5512*
Y3397*
X5506Y3403*
X5512Y3409*
Y3415*
X5506*
X5500Y3409*
X5494Y3415*
X5488*
Y3409*
X5494Y3403*
X5488Y3397*
Y3391*
X5630Y3232D02*
X5640D01*
X5650Y3242*
X5660Y3232*
X5670*
Y3242*
X5660Y3252*
X5670Y3262*
Y3272*
X5660*
X5650Y3262*
X5640Y3272*
X5630*
Y3262*
X5640Y3252*
X5630Y3242*
Y3232*
X5638Y3240D02*
X5644D01*
X5650Y3246*
X5656Y3240*
X5662*
Y3246*
X5656Y3252*
X5662Y3258*
Y3264*
X5656*
X5650Y3258*
X5644Y3264*
X5638*
Y3258*
X5644Y3252*
X5638Y3246*
Y3240*
X4440Y2647D02*
X4450D01*
X4460Y2657*
X4470Y2647*
X4480*
Y2657*
X4470Y2667*
X4480Y2677*
Y2687*
X4470*
X4460Y2677*
X4450Y2687*
X4440*
Y2677*
X4450Y2667*
X4440Y2657*
Y2647*
X4448Y2655D02*
X4454D01*
X4460Y2661*
X4466Y2655*
X4472*
Y2661*
X4466Y2667*
X4472Y2673*
Y2679*
X4466*
X4460Y2673*
X4454Y2679*
X4448*
Y2673*
X4454Y2667*
X4448Y2661*
Y2655*
X5480Y1280D02*
X5490D01*
X5500Y1290*
X5510Y1280*
X5520*
Y1290*
X5510Y1300*
X5520Y1310*
Y1320*
X5510*
X5500Y1310*
X5490Y1320*
X5480*
Y1310*
X5490Y1300*
X5480Y1290*
Y1280*
X5488Y1288D02*
X5494D01*
X5500Y1294*
X5506Y1288*
X5512*
Y1294*
X5506Y1300*
X5512Y1306*
Y1312*
X5506*
X5500Y1306*
X5494Y1312*
X5488*
Y1306*
X5494Y1300*
X5488Y1294*
Y1288*
X4500Y2330D02*
X4510Y2350D01*
X4500Y2370*
X4520Y2360*
X4540Y2370*
X4530Y2350*
X4540Y2330*
X4520Y2340*
X4500Y2330*
X4508Y2338D02*
X4514Y2350D01*
X4508Y2362*
X4520Y2356*
X4532Y2362*
X4526Y2350*
X4532Y2338*
X4520Y2344*
X4508Y2338*
X4550Y2400D02*
X4560Y2420D01*
X4550Y2440*
X4570Y2430*
X4590Y2440*
X4580Y2420*
X4590Y2400*
X4570Y2410*
X4550Y2400*
X4558Y2408D02*
X4564Y2420D01*
X4558Y2432*
X4570Y2426*
X4582Y2432*
X4576Y2420*
X4582Y2408*
X4570Y2414*
X4558Y2408*
X4529Y2450D02*
X4539D01*
X4549Y2460*
X4559Y2450*
X4569*
Y2460*
X4559Y2470*
X4569Y2480*
Y2490*
X4559*
X4549Y2480*
X4539Y2490*
X4529*
Y2480*
X4539Y2470*
X4529Y2460*
Y2450*
X4537Y2458D02*
X4543D01*
X4549Y2464*
X4555Y2458*
X4561*
Y2464*
X4555Y2470*
X4561Y2476*
Y2482*
X4555*
X4549Y2476*
X4543Y2482*
X4537*
Y2476*
X4543Y2470*
X4537Y2464*
Y2458*
X4425Y2208D02*
X4435D01*
X4445Y2218*
X4455Y2208*
X4465*
Y2218*
X4455Y2228*
X4465Y2238*
Y2248*
X4455*
X4445Y2238*
X4435Y2248*
X4425*
Y2238*
X4435Y2228*
X4425Y2218*
Y2208*
X4433Y2216D02*
X4439D01*
X4445Y2222*
X4451Y2216*
X4457*
Y2222*
X4451Y2228*
X4457Y2234*
Y2240*
X4451*
X4445Y2234*
X4439Y2240*
X4433*
Y2234*
X4439Y2228*
X4433Y2222*
Y2216*
X4082Y2217D02*
X4092D01*
X4102Y2227*
X4112Y2217*
X4122*
Y2227*
X4112Y2237*
X4122Y2247*
Y2257*
X4112*
X4102Y2247*
X4092Y2257*
X4082*
Y2247*
X4092Y2237*
X4082Y2227*
Y2217*
X4090Y2225D02*
X4096D01*
X4102Y2231*
X4108Y2225*
X4114*
Y2231*
X4108Y2237*
X4114Y2243*
Y2249*
X4108*
X4102Y2243*
X4096Y2249*
X4090*
Y2243*
X4096Y2237*
X4090Y2231*
Y2225*
X4465Y2336D02*
Y2369D01*
X4482Y2386*
X4498Y2369*
Y2336*
Y2361*
X4465*
X4324Y2186D02*
X4334D01*
X4344Y2196*
X4354Y2186*
X4364*
Y2196*
X4354Y2206*
X4364Y2216*
Y2226*
X4354*
X4344Y2216*
X4334Y2226*
X4324*
Y2216*
X4334Y2206*
X4324Y2196*
Y2186*
X4332Y2194D02*
X4338D01*
X4344Y2200*
X4350Y2194*
X4356*
Y2200*
X4350Y2206*
X4356Y2212*
Y2218*
X4350*
X4344Y2212*
X4338Y2218*
X4332*
Y2212*
X4338Y2206*
X4332Y2200*
Y2194*
X4183Y2233D02*
Y2266D01*
X4199Y2282*
X4216Y2266*
Y2233*
Y2257*
X4183*
X4222Y2386D02*
Y2419D01*
X4238Y2435*
X4255Y2419*
Y2386*
Y2410*
X4222*
X3783Y2802D02*
Y2835D01*
X3799Y2852*
X3816Y2835*
Y2802*
Y2827*
X3783*
X4323Y2389D02*
Y2422D01*
X4339Y2438*
X4356Y2422*
Y2389*
Y2413*
X4323*
X4858Y3212D02*
X4868Y3232D01*
X4858Y3252*
X4878Y3242*
X4898Y3252*
X4888Y3232*
X4898Y3212*
X4878Y3222*
X4858Y3212*
X4866Y3220D02*
X4872Y3232D01*
X4866Y3244*
X4878Y3238*
X4890Y3244*
X4884Y3232*
X4890Y3220*
X4878Y3226*
X4866Y3220*
X4175Y1552D02*
X4185D01*
X4195Y1562*
X4205Y1552*
X4215*
Y1562*
X4205Y1572*
X4215Y1582*
Y1592*
X4205*
X4195Y1582*
X4185Y1592*
X4175*
Y1582*
X4185Y1572*
X4175Y1562*
Y1552*
X4183Y1560D02*
X4189D01*
X4195Y1566*
X4201Y1560*
X4207*
Y1566*
X4201Y1572*
X4207Y1578*
Y1584*
X4201*
X4195Y1578*
X4189Y1584*
X4183*
Y1578*
X4189Y1572*
X4183Y1566*
Y1560*
X1250Y1581D02*
X1260D01*
X1270Y1591*
X1280Y1581*
X1290*
Y1591*
X1280Y1601*
X1290Y1611*
Y1621*
X1280*
X1270Y1611*
X1260Y1621*
X1250*
Y1611*
X1260Y1601*
X1250Y1591*
Y1581*
X1258Y1589D02*
X1264D01*
X1270Y1595*
X1276Y1589*
X1282*
Y1595*
X1276Y1601*
X1282Y1607*
Y1613*
X1276*
X1270Y1607*
X1264Y1613*
X1258*
Y1607*
X1264Y1601*
X1258Y1595*
Y1589*
X1487Y3997D02*
X1497D01*
X1507Y4007*
X1517Y3997*
X1527*
Y4007*
X1517Y4017*
X1527Y4027*
Y4037*
X1517*
X1507Y4027*
X1497Y4037*
X1487*
Y4027*
X1497Y4017*
X1487Y4007*
Y3997*
X1495Y4005D02*
X1501D01*
X1507Y4011*
X1513Y4005*
X1519*
Y4011*
X1513Y4017*
X1519Y4023*
Y4029*
X1513*
X1507Y4023*
X1501Y4029*
X1495*
Y4023*
X1501Y4017*
X1495Y4011*
Y4005*
X1580Y3996D02*
X1590D01*
X1600Y4006*
X1610Y3996*
X1620*
Y4006*
X1610Y4016*
X1620Y4026*
Y4036*
X1610*
X1600Y4026*
X1590Y4036*
X1580*
Y4026*
X1590Y4016*
X1580Y4006*
Y3996*
X1588Y4004D02*
X1594D01*
X1600Y4010*
X1606Y4004*
X1612*
Y4010*
X1606Y4016*
X1612Y4022*
Y4028*
X1606*
X1600Y4022*
X1594Y4028*
X1588*
Y4022*
X1594Y4016*
X1588Y4010*
Y4004*
X1667Y3995D02*
X1677D01*
X1687Y4005*
X1697Y3995*
X1707*
Y4005*
X1697Y4015*
X1707Y4025*
Y4035*
X1697*
X1687Y4025*
X1677Y4035*
X1667*
Y4025*
X1677Y4015*
X1667Y4005*
Y3995*
X1675Y4003D02*
X1681D01*
X1687Y4009*
X1693Y4003*
X1699*
Y4009*
X1693Y4015*
X1699Y4021*
Y4027*
X1693*
X1687Y4021*
X1681Y4027*
X1675*
Y4021*
X1681Y4015*
X1675Y4009*
Y4003*
X1989Y3619D02*
X1999D01*
X2009Y3629*
X2019Y3619*
X2029*
Y3629*
X2019Y3639*
X2029Y3649*
Y3659*
X2019*
X2009Y3649*
X1999Y3659*
X1989*
Y3649*
X1999Y3639*
X1989Y3629*
Y3619*
X1997Y3627D02*
X2003D01*
X2009Y3633*
X2015Y3627*
X2021*
Y3633*
X2015Y3639*
X2021Y3645*
Y3651*
X2015*
X2009Y3645*
X2003Y3651*
X1997*
Y3645*
X2003Y3639*
X1997Y3633*
Y3627*
X3500Y3619D02*
X3510D01*
X3520Y3629*
X3530Y3619*
X3540*
Y3629*
X3530Y3639*
X3540Y3649*
Y3659*
X3530*
X3520Y3649*
X3510Y3659*
X3500*
Y3649*
X3510Y3639*
X3500Y3629*
Y3619*
X3508Y3627D02*
X3514D01*
X3520Y3633*
X3526Y3627*
X3532*
Y3633*
X3526Y3639*
X3532Y3645*
Y3651*
X3526*
X3520Y3645*
X3514Y3651*
X3508*
Y3645*
X3514Y3639*
X3508Y3633*
Y3627*
X4813Y3706D02*
X4823D01*
X4833Y3716*
X4843Y3706*
X4853*
Y3716*
X4843Y3726*
X4853Y3736*
Y3746*
X4843*
X4833Y3736*
X4823Y3746*
X4813*
Y3736*
X4823Y3726*
X4813Y3716*
Y3706*
X4821Y3714D02*
X4827D01*
X4833Y3720*
X4839Y3714*
X4845*
Y3720*
X4839Y3726*
X4845Y3732*
Y3738*
X4839*
X4833Y3732*
X4827Y3738*
X4821*
Y3732*
X4827Y3726*
X4821Y3720*
Y3714*
X4838Y3358D02*
X4848Y3378D01*
X4838Y3398*
X4858Y3388*
X4878Y3398*
X4868Y3378*
X4878Y3358*
X4858Y3368*
X4838Y3358*
X4846Y3366D02*
X4852Y3378D01*
X4846Y3390*
X4858Y3384*
X4870Y3390*
X4864Y3378*
X4870Y3366*
X4858Y3372*
X4846Y3366*
X5508Y3081D02*
X5518D01*
X5528Y3091*
X5538Y3081*
X5548*
Y3091*
X5538Y3101*
X5548Y3111*
Y3121*
X5538*
X5528Y3111*
X5518Y3121*
X5508*
Y3111*
X5518Y3101*
X5508Y3091*
Y3081*
X5516Y3089D02*
X5522D01*
X5528Y3095*
X5534Y3089*
X5540*
Y3095*
X5534Y3101*
X5540Y3107*
Y3113*
X5534*
X5528Y3107*
X5522Y3113*
X5516*
Y3107*
X5522Y3101*
X5516Y3095*
Y3089*
X5486Y2973D02*
X5496D01*
X5506Y2983*
X5516Y2973*
X5526*
Y2983*
X5516Y2993*
X5526Y3003*
Y3013*
X5516*
X5506Y3003*
X5496Y3013*
X5486*
Y3003*
X5496Y2993*
X5486Y2983*
Y2973*
X5494Y2981D02*
X5500D01*
X5506Y2987*
X5512Y2981*
X5518*
Y2987*
X5512Y2993*
X5518Y2999*
Y3005*
X5512*
X5506Y2999*
X5500Y3005*
X5494*
Y2999*
X5500Y2993*
X5494Y2987*
Y2981*
X4847Y1462D02*
X4857D01*
X4867Y1472*
X4877Y1462*
X4887*
Y1472*
X4877Y1482*
X4887Y1492*
Y1502*
X4877*
X4867Y1492*
X4857Y1502*
X4847*
Y1492*
X4857Y1482*
X4847Y1472*
Y1462*
X4855Y1470D02*
X4861D01*
X4867Y1476*
X4873Y1470*
X4879*
Y1476*
X4873Y1482*
X4879Y1488*
Y1494*
X4873*
X4867Y1488*
X4861Y1494*
X4855*
Y1488*
X4861Y1482*
X4855Y1476*
Y1470*
X4759Y1462D02*
X4769D01*
X4779Y1472*
X4789Y1462*
X4799*
Y1472*
X4789Y1482*
X4799Y1492*
Y1502*
X4789*
X4779Y1492*
X4769Y1502*
X4759*
Y1492*
X4769Y1482*
X4759Y1472*
Y1462*
X4767Y1470D02*
X4773D01*
X4779Y1476*
X4785Y1470*
X4791*
Y1476*
X4785Y1482*
X4791Y1488*
Y1494*
X4785*
X4779Y1488*
X4773Y1494*
X4767*
Y1488*
X4773Y1482*
X4767Y1476*
Y1470*
X4053Y1682D02*
X4063D01*
X4073Y1692*
X4083Y1682*
X4093*
Y1692*
X4083Y1702*
X4093Y1712*
Y1722*
X4083*
X4073Y1712*
X4063Y1722*
X4053*
Y1712*
X4063Y1702*
X4053Y1692*
Y1682*
X4061Y1690D02*
X4067D01*
X4073Y1696*
X4079Y1690*
X4085*
Y1696*
X4079Y1702*
X4085Y1708*
Y1714*
X4079*
X4073Y1708*
X4067Y1714*
X4061*
Y1708*
X4067Y1702*
X4061Y1696*
Y1690*
X4058Y1764D02*
X4068D01*
X4078Y1774*
X4088Y1764*
X4098*
Y1774*
X4088Y1784*
X4098Y1794*
Y1804*
X4088*
X4078Y1794*
X4068Y1804*
X4058*
Y1794*
X4068Y1784*
X4058Y1774*
Y1764*
X4066Y1772D02*
X4072D01*
X4078Y1778*
X4084Y1772*
X4090*
Y1778*
X4084Y1784*
X4090Y1790*
Y1796*
X4084*
X4078Y1790*
X4072Y1796*
X4066*
Y1790*
X4072Y1784*
X4066Y1778*
Y1772*
X4097Y2527D02*
X4107D01*
X4117Y2537*
X4127Y2527*
X4137*
Y2537*
X4127Y2547*
X4137Y2557*
Y2567*
X4127*
X4117Y2557*
X4107Y2567*
X4097*
Y2557*
X4107Y2547*
X4097Y2537*
Y2527*
X4105Y2535D02*
X4111D01*
X4117Y2541*
X4123Y2535*
X4129*
Y2541*
X4123Y2547*
X4129Y2553*
Y2559*
X4123*
X4117Y2553*
X4111Y2559*
X4105*
Y2553*
X4111Y2547*
X4105Y2541*
Y2535*
X4188Y2481D02*
X4198D01*
X4208Y2491*
X4218Y2481*
X4228*
Y2491*
X4218Y2501*
X4228Y2511*
Y2521*
X4218*
X4208Y2511*
X4198Y2521*
X4188*
Y2511*
X4198Y2501*
X4188Y2491*
Y2481*
X4196Y2489D02*
X4202D01*
X4208Y2495*
X4214Y2489*
X4220*
Y2495*
X4214Y2501*
X4220Y2507*
Y2513*
X4214*
X4208Y2507*
X4202Y2513*
X4196*
Y2507*
X4202Y2501*
X4196Y2495*
Y2489*
X4199Y2429D02*
X4209D01*
X4219Y2439*
X4229Y2429*
X4239*
Y2439*
X4229Y2449*
X4239Y2459*
Y2469*
X4229*
X4219Y2459*
X4209Y2469*
X4199*
Y2459*
X4209Y2449*
X4199Y2439*
Y2429*
X4207Y2437D02*
X4213D01*
X4219Y2443*
X4225Y2437*
X4231*
Y2443*
X4225Y2449*
X4231Y2455*
Y2461*
X4225*
X4219Y2455*
X4213Y2461*
X4207*
Y2455*
X4213Y2449*
X4207Y2443*
Y2437*
X4430Y2467D02*
X4440D01*
X4450Y2477*
X4460Y2467*
X4470*
Y2477*
X4460Y2487*
X4470Y2497*
Y2507*
X4460*
X4450Y2497*
X4440Y2507*
X4430*
Y2497*
X4440Y2487*
X4430Y2477*
Y2467*
X4438Y2475D02*
X4444D01*
X4450Y2481*
X4456Y2475*
X4462*
Y2481*
X4456Y2487*
X4462Y2493*
Y2499*
X4456*
X4450Y2493*
X4444Y2499*
X4438*
Y2493*
X4444Y2487*
X4438Y2481*
Y2475*
X4499Y2530D02*
X4509D01*
X4519Y2540*
X4529Y2530*
X4539*
Y2540*
X4529Y2550*
X4539Y2560*
Y2570*
X4529*
X4519Y2560*
X4509Y2570*
X4499*
Y2560*
X4509Y2550*
X4499Y2540*
Y2530*
X4507Y2538D02*
X4513D01*
X4519Y2544*
X4525Y2538*
X4531*
Y2544*
X4525Y2550*
X4531Y2556*
Y2562*
X4525*
X4519Y2556*
X4513Y2562*
X4507*
Y2556*
X4513Y2550*
X4507Y2544*
Y2538*
X4623Y2351D02*
Y2384D01*
X4639Y2400*
X4656Y2384*
Y2351*
Y2375*
X4623*
X4241Y1793D02*
Y1826D01*
X4257Y1843*
X4274Y1826*
Y1793*
Y1818*
X4241*
X4415Y2343D02*
Y2376D01*
X4431Y2392*
X4448Y2376*
Y2343*
Y2367*
X4415*
X4622Y2208D02*
X4632D01*
X4642Y2218*
X4652Y2208*
X4662*
Y2218*
X4652Y2228*
X4662Y2238*
Y2248*
X4652*
X4642Y2238*
X4632Y2248*
X4622*
Y2238*
X4632Y2228*
X4622Y2218*
Y2208*
X4630Y2216D02*
X4636D01*
X4642Y2222*
X4648Y2216*
X4654*
Y2222*
X4648Y2228*
X4654Y2234*
Y2240*
X4648*
X4642Y2234*
X4636Y2240*
X4630*
Y2234*
X4636Y2228*
X4630Y2222*
Y2216*
G54D111*
X2485Y750D02*
D01*
D01*
G75*
G03X2445I-20J0D01*
G74*G01*
D01*
G75*
G03X2485I20J0D01*
G74*G01*
X1894D02*
D01*
D01*
G75*
G03X1854I-20J0D01*
G74*G01*
D01*
G75*
G03X1894I20J0D01*
G74*G01*
X620Y2390D02*
D01*
D01*
G75*
G03X580I-20J0D01*
G74*G01*
D01*
G75*
G03X620I20J0D01*
G74*G01*
Y2290D02*
D01*
D01*
G75*
G03X580I-20J0D01*
G74*G01*
D01*
G75*
G03X620I20J0D01*
G74*G01*
Y2190D02*
D01*
D01*
G75*
G03X580I-20J0D01*
G74*G01*
D01*
G75*
G03X620I20J0D01*
G74*G01*
G54D112*
X612Y2390D02*
D01*
D01*
G75*
G03X588I-12J0D01*
G74*G01*
D01*
G75*
G03X612I12J0D01*
G74*G01*
Y2290D02*
D01*
D01*
G75*
G03X588I-12J0D01*
G74*G01*
D01*
G75*
G03X612I12J0D01*
G74*G01*
Y2190D02*
D01*
D01*
G75*
G03X588I-12J0D01*
G74*G01*
D01*
G75*
G03X612I12J0D01*
G74*G01*
M02*