%FSLAX23Y23*%
%MOIN*%
%SFA1B1*%

%IPPOS*%
%ADD16C,0.007870*%
%ADD110C,0.001970*%
%LNpcb-1*%
%LPD*%
G54D16*
X1681Y750D02*
D01*
D01*
G75*
G03X2658I488J0D01*
G74*G01*
D01*
D01*
G75*
G03X1681I-488J0D01*
G74*G01*
X4652Y2446D02*
Y2493D01*
Y2446D02*
X4747D01*
Y2493*
X4652D02*
X4747D01*
X1421Y826D02*
Y961D01*
X1498*
Y826D02*
Y961D01*
X1421Y826D02*
X1498D01*
X1058Y2744D02*
Y3035D01*
X1221*
Y2744D02*
Y3035D01*
X1058Y2744D02*
X1221D01*
X799Y3142D02*
X1220D01*
X799D02*
Y3497D01*
X1220*
Y3142D02*
Y3497D01*
X4509Y3453D02*
X5129D01*
X4509D02*
Y4140D01*
X5129*
Y3453D02*
Y4140D01*
X4562Y2446D02*
Y2493D01*
Y2446D02*
X4657D01*
Y2493*
X4562D02*
X4657D01*
X3017Y3291D02*
X3255D01*
Y3128D02*
Y3291D01*
X3017Y3128D02*
X3255D01*
X3017D02*
Y3291D01*
X4896Y3248D02*
Y3359D01*
X4821Y3248D02*
X4896D01*
X4821D02*
Y3359D01*
X4896*
X5376Y3722D02*
X5703D01*
X5376D02*
Y3937D01*
X5703*
Y3722D02*
Y3937D01*
X4421Y2647D02*
X4498D01*
X4421Y2512D02*
Y2647D01*
Y2512D02*
X4498D01*
Y2647*
X5598Y1192D02*
Y1327D01*
X5521Y1192D02*
X5598D01*
X5521D02*
Y1327D01*
X5598*
X2687Y3291D02*
X2925D01*
Y3128D02*
Y3291D01*
X2687Y3128D02*
X2925D01*
X2687D02*
Y3291D01*
X1249Y2336D02*
Y2623D01*
X907D02*
X1249D01*
X907Y2336D02*
Y2623D01*
Y2336D02*
X1249D01*
X3806Y339D02*
Y642D01*
X3649Y339D02*
X3806D01*
X3649D02*
Y642D01*
X3806*
X3761Y3301D02*
X3998D01*
Y3138D02*
Y3301D01*
X3761Y3138D02*
X3998D01*
X3761D02*
Y3301D01*
X828Y2744D02*
Y3035D01*
X991*
Y2744D02*
Y3035D01*
X828Y2744D02*
X991D01*
X2068Y3021D02*
Y3098D01*
X1934D02*
X2068D01*
X1934Y3021D02*
Y3098D01*
Y3021D02*
X2068D01*
X3575D02*
Y3098D01*
X3441D02*
X3575D01*
X3441Y3021D02*
Y3098D01*
Y3021D02*
X3575D01*
X1939Y3301D02*
X2177D01*
Y3138D02*
Y3301D01*
X1939Y3138D02*
X2177D01*
X1939D02*
Y3301D01*
X2823Y3011D02*
Y3088D01*
X2689D02*
X2823D01*
X2689Y3011D02*
Y3088D01*
Y3011D02*
X2823D01*
X5521Y2892D02*
Y3027D01*
X5598*
Y2892D02*
Y3027D01*
X5521Y2892D02*
X5598D01*
X2242Y3301D02*
X2480D01*
Y3138D02*
Y3301D01*
X2242Y3138D02*
X2480D01*
X2242D02*
Y3301D01*
X3441D02*
X3678D01*
Y3138D02*
Y3301D01*
X3441Y3138D02*
X3678D01*
X3441D02*
Y3301D01*
X908Y2016D02*
X1251D01*
X908D02*
Y2303D01*
X1251*
Y2016D02*
Y2303D01*
X3409Y642D02*
X3566D01*
X3409Y339D02*
Y642D01*
Y339D02*
X3566D01*
Y642*
X1701Y3166D02*
Y3453D01*
X1358D02*
X1701D01*
X1358Y3166D02*
Y3453D01*
Y3166D02*
X1701D01*
X1358Y2436D02*
Y2723D01*
Y2436D02*
X1701D01*
Y2723*
X1358D02*
X1701D01*
X3006Y337D02*
Y640D01*
X2849Y337D02*
X3006D01*
X2849D02*
Y640D01*
X3006*
X761Y2132D02*
Y2267D01*
X838*
Y2132D02*
Y2267D01*
X761Y2132D02*
X838D01*
X1352Y1967D02*
X1707D01*
Y2388*
X1352D02*
X1707D01*
X1352Y1967D02*
Y2388D01*
X3099Y640D02*
X3256D01*
X3099Y337D02*
Y640D01*
Y337D02*
X3256D01*
Y640*
X838Y2301D02*
Y2435D01*
X761Y2301D02*
X838D01*
X761D02*
Y2435D01*
X838*
X4233Y2676D02*
X4386D01*
X4233Y2463D02*
Y2676D01*
Y2463D02*
X4386D01*
Y2676*
X2868Y2810D02*
X3084D01*
Y3089*
X2868D02*
X3084D01*
X2868Y2810D02*
Y3089D01*
X3601Y2820D02*
Y3099D01*
X3818*
Y2820D02*
Y3099D01*
X3601Y2820D02*
X3818D01*
X1384Y2779D02*
X1655D01*
Y3100*
X1384D02*
X1655D01*
X1384Y2779D02*
Y3100D01*
X2103Y2820D02*
Y3099D01*
X2319*
Y2820D02*
Y3099D01*
X2103Y2820D02*
X2319D01*
X2042Y1321D02*
Y1778D01*
X2750*
Y1321D02*
Y1778D01*
X2042Y1321D02*
X2750D01*
X5632Y3397D02*
X5787D01*
Y3262D02*
Y3397D01*
X5632Y3262D02*
X5787D01*
X5632D02*
Y3397D01*
G54D110*
X500Y3220D02*
X539D01*
X520Y3200D02*
Y3239D01*
X712Y2731D02*
Y3708D01*
X327Y2731D02*
X712D01*
X327D02*
Y3708D01*
X712*
M02*