%FSLAX23Y23*%
%MOIN*%
%SFA1B1*%

%IPPOS*%
%ADD10C,0.005910*%
%ADD16C,0.007870*%
%ADD109C,0.003940*%
%LNpcb-1*%
%LPD*%
G54D10*
X2654Y750D02*
D01*
D01*
G75*
G03X1685I-484J0D01*
G74*G01*
D01*
G75*
G03X2654I484J0D01*
G74*G01*
G54D16*
X4665Y2451D02*
Y2488D01*
Y2451D02*
X4734D01*
Y2488*
X4665D02*
X4734D01*
X1435Y854D02*
Y933D01*
X1484*
Y854D02*
Y933D01*
X1435Y854D02*
X1484D01*
X1062Y2796D02*
Y2983D01*
X1217*
Y2796D02*
Y2983D01*
X1062Y2796D02*
X1217D01*
X842Y3152D02*
X1177D01*
X842D02*
Y3487D01*
X1177*
Y3152D02*
Y3487D01*
X4578Y4136D02*
X5060D01*
Y3457D02*
Y4136D01*
X4578Y3457D02*
X5060D01*
X4578D02*
Y4136D01*
X4509Y4131D02*
X5129D01*
X4575Y2451D02*
Y2488D01*
Y2451D02*
X4644D01*
Y2488*
X4575D02*
X4644D01*
X3045Y3287D02*
X3227D01*
Y3132D02*
Y3287D01*
X3045Y3132D02*
X3227D01*
X3045D02*
Y3287D01*
X4892Y3278D02*
Y3329D01*
X4825Y3278D02*
X4892D01*
X4825D02*
Y3329D01*
X4892*
X5380Y3726D02*
X5699D01*
X5380D02*
Y3933D01*
X5699*
Y3726D02*
Y3933D01*
X4435Y2619D02*
X4484D01*
X4435Y2540D02*
Y2619D01*
Y2540D02*
X4484D01*
Y2619*
X5584Y1220D02*
Y1299D01*
X5535Y1220D02*
X5584D01*
X5535D02*
Y1299D01*
X5584*
X2715Y3287D02*
X2897D01*
Y3132D02*
Y3287D01*
X2715Y3132D02*
X2897D01*
X2715D02*
Y3287D01*
X1212Y2346D02*
Y2613D01*
X944D02*
X1212D01*
X944Y2346D02*
Y2613D01*
Y2346D02*
X1212D01*
X3802Y343D02*
Y638D01*
X3653Y343D02*
X3802D01*
X3653D02*
Y638D01*
X3802*
X3789Y3297D02*
X3970D01*
Y3142D02*
Y3297D01*
X3789Y3142D02*
X3970D01*
X3789D02*
Y3297D01*
X832Y2796D02*
Y2983D01*
X987*
Y2796D02*
Y2983D01*
X832Y2796D02*
X987D01*
X2040Y3035D02*
Y3084D01*
X1961D02*
X2040D01*
X1961Y3035D02*
Y3084D01*
Y3035D02*
X2040D01*
X3547D02*
Y3084D01*
X3468D02*
X3547D01*
X3468Y3035D02*
Y3084D01*
Y3035D02*
X3547D01*
X1967Y3297D02*
X2148D01*
Y3142D02*
Y3297D01*
X1967Y3142D02*
X2148D01*
X1967D02*
Y3297D01*
X2796Y3025D02*
Y3074D01*
X2716D02*
X2796D01*
X2716Y3025D02*
Y3074D01*
Y3025D02*
X2796D01*
X5535Y2920D02*
Y2999D01*
X5584*
Y2920D02*
Y2999D01*
X5535Y2920D02*
X5584D01*
X2270Y3297D02*
X2451D01*
Y3142D02*
Y3297D01*
X2270Y3142D02*
X2451D01*
X2270D02*
Y3297D01*
X3469D02*
X3650D01*
Y3142D02*
Y3297D01*
X3469Y3142D02*
X3650D01*
X3469D02*
Y3297D01*
X946Y2026D02*
X1213D01*
X946D02*
Y2293D01*
X1213*
Y2026D02*
Y2293D01*
X3413Y638D02*
X3562D01*
X3413Y343D02*
Y638D01*
Y343D02*
X3562D01*
Y638*
X1663Y3176D02*
Y3443D01*
X1396D02*
X1663D01*
X1396Y3176D02*
Y3443D01*
Y3176D02*
X1663D01*
X1396Y2446D02*
Y2713D01*
Y2446D02*
X1663D01*
Y2713*
X1396D02*
X1663D01*
X3002Y341D02*
Y636D01*
X2853Y341D02*
X3002D01*
X2853D02*
Y636D01*
X3002*
X775Y2160D02*
Y2239D01*
X824*
Y2160D02*
Y2239D01*
X775Y2160D02*
X824D01*
X1362Y2010D02*
X1697D01*
Y2345*
X1362D02*
X1697D01*
X1362Y2010D02*
Y2345D01*
X3103Y636D02*
X3252D01*
X3103Y341D02*
Y636D01*
Y341D02*
X3252D01*
Y636*
X824Y2328D02*
Y2407D01*
X775Y2328D02*
X824D01*
X775D02*
Y2407D01*
X824*
X4243Y2672D02*
X4376D01*
X4243Y2467D02*
Y2672D01*
Y2467D02*
X4376D01*
Y2672*
X2878Y2871D02*
X3074D01*
Y3028*
X2878D02*
X3074D01*
X2878Y2871D02*
Y3028D01*
X3611Y2881D02*
Y3038D01*
X3808*
Y2881D02*
Y3038D01*
X3611Y2881D02*
X3808D01*
X1388Y2867D02*
X1651D01*
Y3012*
X1388D02*
X1651D01*
X1388Y2867D02*
Y3012D01*
X2112Y2881D02*
Y3038D01*
X2309*
Y2881D02*
Y3038D01*
X2112Y2881D02*
X2309D01*
X2150Y1339D02*
Y1760D01*
X2529*
Y1339D02*
Y1760D01*
X2150Y1339D02*
X2529D01*
X5682Y3387D02*
X5737D01*
Y3272D02*
Y3387D01*
X5682Y3272D02*
X5737D01*
X5682D02*
Y3387D01*
G54D109*
X334Y2739D02*
Y3700D01*
Y2739D02*
X705D01*
Y3700*
X334D02*
X705D01*
M02*