%FSLAX23Y23*%
%MOIN*%
%SFA1B1*%

%IPPOS*%
%ADD109C,0.003940*%
%ADD110C,0.001970*%
%LNpcb-1*%
%LPD*%
G54D109*
X3040Y1049D02*
X3079D01*
X3060Y1030D02*
Y1069D01*
X3587Y3640D02*
X3627D01*
X3607Y3620D02*
Y3659D01*
X3636Y1660D02*
X3655D01*
X3646Y1650D02*
Y1669D01*
X4400Y480D02*
Y519D01*
X4380Y500D02*
X4419D01*
X1130Y480D02*
Y519D01*
X1110Y500D02*
X1149D01*
X5718Y3440D02*
Y3459D01*
X5708Y3450D02*
X5728D01*
X4680Y3500D02*
Y3539D01*
X4660Y3520D02*
X4699D01*
X3220Y1650D02*
X3239D01*
X3230Y1640D02*
Y1659D01*
X2856Y3620D02*
Y3659D01*
X2836Y3640D02*
X2876D01*
X3830D02*
X3869D01*
X3850Y3620D02*
Y3659D01*
X2201Y3640D02*
X2241D01*
X2221Y3620D02*
Y3659D01*
X4730Y3730D02*
X4769D01*
X4750Y3710D02*
Y3749D01*
X2071Y3640D02*
X2111D01*
X2091Y3620D02*
Y3659D01*
X2329Y3640D02*
X2368D01*
X2348Y3620D02*
Y3659D01*
X2657Y1294D02*
X2696D01*
X2677Y1274D02*
Y1313D01*
X2976Y3620D02*
Y3659D01*
X2956Y3640D02*
X2996D01*
X3710D02*
X3749D01*
X3730Y3620D02*
Y3659D01*
X1034Y3788D02*
Y3828D01*
X1014Y3808D02*
X1053D01*
X1498Y3915D02*
X1517D01*
X1508Y3905D02*
Y3924D01*
X5278Y500D02*
X5317D01*
X5298Y480D02*
Y520D01*
X3096Y3620D02*
Y3659D01*
X3076Y3640D02*
X3116D01*
X1588Y3915D02*
X1607D01*
X1598Y3905D02*
Y3924D01*
X1678Y3915D02*
X1697D01*
X1688Y3905D02*
Y3924D01*
X4657Y2648D02*
Y2687D01*
X4637Y2668D02*
X4676D01*
X1668Y3785D02*
X1707D01*
X1688Y3765D02*
Y3804D01*
X4290Y2730D02*
X4329D01*
X4310Y2710D02*
Y2749D01*
X4380Y2420D02*
X4419D01*
X4400Y2400D02*
Y2439D01*
X4170Y2560D02*
Y2599D01*
X4150Y2580D02*
X4189D01*
X5863Y2949D02*
X5902D01*
X5883Y2929D02*
Y2968D01*
X5906Y2798D02*
Y2837D01*
X5886Y2818D02*
X5925D01*
X5472Y2713D02*
X5511D01*
X5492Y2693D02*
Y2732D01*
X5906Y2697D02*
Y2736D01*
X5886Y2717D02*
X5925D01*
X5546Y2650D02*
X5585D01*
X5566Y2630D02*
Y2669D01*
X5330Y3350D02*
X5369D01*
X5350Y3330D02*
Y3369D01*
X5907Y2594D02*
Y2633D01*
X5887Y2614D02*
X5926D01*
X5550Y3330D02*
X5589D01*
X5570Y3310D02*
Y3349D01*
X5410Y3190D02*
Y3229D01*
X5390Y3210D02*
X5429D01*
X5830Y3360D02*
X5869D01*
X5850Y3340D02*
Y3379D01*
X5510Y3180D02*
X5549D01*
X5530Y3160D02*
Y3199D01*
X2824Y1526D02*
X2863D01*
X2844Y1506D02*
Y1545D01*
X4922Y3376D02*
X4961D01*
X4942Y3356D02*
Y3395D01*
X4750Y3372D02*
X4789D01*
X4770Y3352D02*
Y3391D01*
X4583Y1970D02*
Y2009D01*
X4564Y1990D02*
X4603D01*
X1578Y3785D02*
X1617D01*
X1598Y3765D02*
Y3804D01*
X1488Y3785D02*
X1527D01*
X1508Y3765D02*
Y3804D01*
X3496Y1680D02*
Y1719D01*
X3476Y1700D02*
X3515D01*
X3080Y1670D02*
Y1709D01*
X3060Y1690D02*
X3099D01*
X3561Y1760D02*
Y1799D01*
X3541Y1780D02*
X3580D01*
X3143Y1750D02*
Y1789D01*
X3123Y1770D02*
X3162D01*
X3646Y1500D02*
X3685D01*
X3666Y1480D02*
Y1519D01*
X3220Y1490D02*
X3259D01*
X3240Y1470D02*
Y1509D01*
X3546Y1440D02*
Y1479D01*
X3526Y1460D02*
X3565D01*
X3120Y1440D02*
Y1479D01*
X3100Y1460D02*
X3139D01*
X5460Y3300D02*
Y3339D01*
X5440Y3320D02*
X5479D01*
X3060Y1580D02*
X3099D01*
X3080Y1560D02*
Y1599D01*
X3570Y1050D02*
X3609D01*
X3590Y1030D02*
Y1069D01*
X3476Y1590D02*
X3515D01*
X3496Y1570D02*
Y1609D01*
X3416Y1440D02*
Y1479D01*
X3396Y1460D02*
X3435D01*
X2990Y1440D02*
Y1479D01*
X2970Y1460D02*
X3009D01*
G54D110*
X977Y999D02*
D01*
D01*
G75*
G03X722I-127J444D01*
G74*G01*
X723Y824D02*
D01*
D01*
G75*
G03X758Y789I34J0D01*
G74*G01*
X941D02*
D01*
D01*
G75*
G03X976Y824I0J34D01*
G74*G01*
X2849Y725D02*
Y1374D01*
X3270Y725D02*
Y1374D01*
X2849Y725D02*
X3270D01*
X2849Y1374D02*
X3270D01*
X3554Y3606D02*
Y3673D01*
X3660Y3606D02*
Y3673D01*
X3554Y3606D02*
X3660D01*
X3554Y3673D02*
X3660D01*
X3618Y1728D02*
X3673D01*
Y1591D02*
Y1728D01*
X3618Y1591D02*
X3673D01*
X3618D02*
Y1728D01*
X5838Y1143D02*
Y3176D01*
X5621D02*
X5838D01*
X5621Y1143D02*
Y3176D01*
Y1143D02*
X5838D01*
X3996Y315D02*
Y669D01*
X4803*
X3996Y315D02*
X4803D01*
Y669*
X853Y685D02*
X1383D01*
X853Y185D02*
Y685D01*
Y185D02*
X1383D01*
Y685*
X5649Y3422D02*
Y3477D01*
X5787*
Y3422D02*
Y3477D01*
X5649Y3422D02*
X5787D01*
X4646Y3573D02*
X4713D01*
X4646Y3466D02*
X4713D01*
X4646D02*
Y3573D01*
X4713Y3466D02*
Y3573D01*
X3202Y1718D02*
X3257D01*
Y1581D02*
Y1718D01*
X3202Y1581D02*
X3257D01*
X3202D02*
Y1718D01*
X2803Y3673D02*
X2909D01*
X2803Y3606D02*
X2909D01*
Y3673*
X2803Y3606D02*
Y3673D01*
X723Y824D02*
Y998D01*
X758Y789D02*
X941D01*
X976Y824D02*
Y998D01*
X3796Y3606D02*
Y3673D01*
X3903Y3606D02*
Y3673D01*
X3796Y3606D02*
X3903D01*
X3796Y3673D02*
X3903D01*
X2168Y3606D02*
Y3673D01*
X2274Y3606D02*
Y3673D01*
X2168Y3606D02*
X2274D01*
X2168Y3673D02*
X2274D01*
X4803Y3696D02*
Y3763D01*
X4696Y3696D02*
Y3763D01*
X4803*
X4696Y3696D02*
X4803D01*
X2038Y3606D02*
Y3673D01*
X2144Y3606D02*
Y3673D01*
X2038Y3606D02*
X2144D01*
X2038Y3673D02*
X2144D01*
X2295Y3606D02*
Y3673D01*
X2402Y3606D02*
Y3673D01*
X2295Y3606D02*
X2402D01*
X2295Y3673D02*
X2402D01*
X2710Y1240D02*
Y1347D01*
X2643Y1240D02*
Y1347D01*
X2710*
X2643Y1240D02*
X2710D01*
X2923Y3673D02*
X3029D01*
X2923Y3606D02*
X3029D01*
Y3673*
X2923Y3606D02*
Y3673D01*
X3676Y3606D02*
Y3673D01*
X3783Y3606D02*
Y3673D01*
X3676Y3606D02*
X3783D01*
X3676Y3673D02*
X3783D01*
X780Y3623D02*
X1310D01*
Y4123*
X780D02*
X1310D01*
X780Y3623D02*
Y4123D01*
X1480Y3983D02*
X1535D01*
Y3846D02*
Y3983D01*
X1480Y3846D02*
X1535D01*
X1480D02*
Y3983D01*
X5701Y316D02*
Y669D01*
X4894Y316D02*
X5701D01*
X4894Y669D02*
X5701D01*
X4894Y316D02*
Y669D01*
X3043Y3673D02*
X3149D01*
X3043Y3606D02*
X3149D01*
Y3673*
X3043Y3606D02*
Y3673D01*
X1570Y3983D02*
X1625D01*
Y3846D02*
Y3983D01*
X1570Y3846D02*
X1625D01*
X1570D02*
Y3983D01*
X1660D02*
X1715D01*
Y3846D02*
Y3983D01*
X1660Y3846D02*
X1715D01*
X1660D02*
Y3983D01*
X4552Y2506D02*
Y2829D01*
X4761*
Y2506D02*
Y2829D01*
X4552Y2506D02*
X4761D01*
X1654Y3731D02*
Y3838D01*
X1721Y3731D02*
Y3838D01*
X1654Y3731D02*
X1721D01*
X1654Y3838D02*
X1721D01*
X4256Y2696D02*
Y2763D01*
X4363Y2696D02*
Y2763D01*
X4256D02*
X4363D01*
X4256Y2696D02*
X4363D01*
X4346Y2386D02*
Y2453D01*
X4453Y2386D02*
Y2453D01*
X4346D02*
X4453D01*
X4346Y2386D02*
X4453D01*
X4136Y2526D02*
X4203D01*
X4136Y2633D02*
X4203D01*
X4136Y2526D02*
Y2633D01*
X4203Y2526D02*
Y2633D01*
X5916Y2895D02*
Y3002D01*
X5849Y2895D02*
Y3002D01*
X5916*
X5849Y2895D02*
X5916D01*
X5852Y2784D02*
X5959D01*
X5852Y2851D02*
X5959D01*
Y2784D02*
Y2851D01*
X5852Y2784D02*
Y2851D01*
X5458Y2659D02*
Y2766D01*
X5525Y2659D02*
Y2766D01*
X5458Y2659D02*
X5525D01*
X5458Y2766D02*
X5525D01*
X5852Y2683D02*
X5959D01*
X5852Y2750D02*
X5959D01*
Y2683D02*
Y2750D01*
X5852Y2683D02*
Y2750D01*
X5599Y2596D02*
Y2703D01*
X5532Y2596D02*
Y2703D01*
X5599*
X5532Y2596D02*
X5599D01*
X5383Y3296D02*
Y3403D01*
X5316Y3296D02*
Y3403D01*
X5383*
X5316Y3296D02*
X5383D01*
X5853Y2580D02*
X5960D01*
X5853Y2647D02*
X5960D01*
Y2580D02*
Y2647D01*
X5853Y2580D02*
Y2647D01*
X5603Y3276D02*
Y3383D01*
X5536Y3276D02*
Y3383D01*
X5603*
X5536Y3276D02*
X5603D01*
X5356Y3176D02*
X5463D01*
X5356Y3243D02*
X5463D01*
Y3176D02*
Y3243D01*
X5356Y3176D02*
Y3243D01*
X5816Y3306D02*
Y3413D01*
X5883Y3306D02*
Y3413D01*
X5816Y3306D02*
X5883D01*
X5816Y3413D02*
X5883D01*
X5563Y3126D02*
Y3233D01*
X5496Y3126D02*
Y3233D01*
X5563*
X5496Y3126D02*
X5563D01*
X2810Y1472D02*
Y1579D01*
X2877Y1472D02*
Y1579D01*
X2810Y1472D02*
X2877D01*
X2810Y1579D02*
X2877D01*
X4908Y3322D02*
Y3429D01*
X4975Y3322D02*
Y3429D01*
X4908Y3322D02*
X4975D01*
X4908Y3429D02*
X4975D01*
X692Y2050D02*
Y2530D01*
X325D02*
X692D01*
X325Y2050D02*
Y2530D01*
Y2050D02*
X692D01*
X4736Y3318D02*
Y3425D01*
X4803Y3318D02*
Y3425D01*
X4736Y3318D02*
X4803D01*
X4736Y3425D02*
X4803D01*
X4253Y2320D02*
X4914D01*
X4253Y1659D02*
X4914D01*
Y2320*
X4253Y1659D02*
Y2320D01*
X1564Y3731D02*
Y3838D01*
X1631Y3731D02*
Y3838D01*
X1564Y3731D02*
X1631D01*
X1564Y3838D02*
X1631D01*
X1474Y3731D02*
Y3838D01*
X1541Y3731D02*
Y3838D01*
X1474Y3731D02*
X1541D01*
X1474Y3838D02*
X1541D01*
X3442Y1666D02*
X3549D01*
X3442Y1733D02*
X3549D01*
Y1666D02*
Y1733D01*
X3442Y1666D02*
Y1733D01*
X3026Y1656D02*
X3133D01*
X3026Y1723D02*
X3133D01*
Y1656D02*
Y1723D01*
X3026Y1656D02*
Y1723D01*
X3507Y1813D02*
X3614D01*
X3507Y1746D02*
X3614D01*
X3507D02*
Y1813D01*
X3614Y1746D02*
Y1813D01*
X3089Y1803D02*
X3196D01*
X3089Y1736D02*
X3196D01*
X3089D02*
Y1803D01*
X3196Y1736D02*
Y1803D01*
X3632Y1446D02*
Y1553D01*
X3699Y1446D02*
Y1553D01*
X3632Y1446D02*
X3699D01*
X3632Y1553D02*
X3699D01*
X3206Y1436D02*
Y1543D01*
X3273Y1436D02*
Y1543D01*
X3206Y1436D02*
X3273D01*
X3206Y1543D02*
X3273D01*
X3492Y1426D02*
X3599D01*
X3492Y1493D02*
X3599D01*
Y1426D02*
Y1493D01*
X3492Y1426D02*
Y1493D01*
X3066Y1426D02*
X3173D01*
X3066Y1493D02*
X3173D01*
Y1426D02*
Y1493D01*
X3066Y1426D02*
Y1493D01*
X5398Y3381D02*
X5521D01*
X5398Y3258D02*
X5521D01*
X5398D02*
Y3381D01*
X5521Y3258D02*
Y3381D01*
X3018Y1518D02*
Y1641D01*
X3141Y1518D02*
Y1641D01*
X3018Y1518D02*
X3141D01*
X3018Y1641D02*
X3141D01*
X3379Y725D02*
Y1374D01*
X3800Y725D02*
Y1374D01*
X3379Y725D02*
X3800D01*
X3379Y1374D02*
X3800D01*
X3434Y1528D02*
Y1651D01*
X3557Y1528D02*
Y1651D01*
X3434Y1528D02*
X3557D01*
X3434Y1651D02*
X3557D01*
X3362Y1493D02*
X3469D01*
X3362Y1426D02*
X3469D01*
X3362D02*
Y1493D01*
X3469Y1426D02*
Y1493D01*
X2936D02*
X3043D01*
X2936Y1426D02*
X3043D01*
X2936D02*
Y1493D01*
X3043Y1426D02*
Y1493D01*
M02*