%FSLAX23Y23*%
%MOIN*%
%SFA1B1*%

%IPPOS*%
%AMD45*
4,1,8,0.014800,0.011500,-0.014800,0.011500,-0.026300,0.000000,-0.026300,0.000000,-0.014800,-0.011500,0.014800,-0.011500,0.026300,0.000000,0.026300,0.000000,0.014800,0.011500,0.0*
1,1,0.023040,0.014800,0.000000*
1,1,0.023040,-0.014800,0.000000*
1,1,0.023040,-0.014800,0.000000*
1,1,0.023040,0.014800,0.000000*
%
%ADD13C,0.010000*%
%ADD18R,0.026000X0.080000*%
%ADD19R,0.029530X0.035430*%
%ADD20R,0.057330X0.051360*%
%ADD21R,0.086610X0.098430*%
%ADD22R,0.157480X0.062990*%
%ADD23R,0.397640X0.330710*%
%ADD24R,0.037400X0.151580*%
%ADD25R,0.047240X0.047240*%
%ADD26R,0.063780X0.085830*%
%ADD27R,0.011810X0.038980*%
%ADD28R,0.047240X0.047240*%
%ADD29R,0.125980X0.062990*%
%ADD30R,0.051360X0.057330*%
%ADD31R,0.053150X0.033470*%
%ADD32R,0.062990X0.157480*%
%ADD33R,0.059060X0.066930*%
%ADD34R,0.074800X0.051180*%
%ADD35R,0.033470X0.053150*%
%ADD36R,0.020870X0.077950*%
%ADD37R,0.127950X0.084650*%
%ADD38R,0.037400X0.084650*%
%ADD39O,0.009840X0.061020*%
%ADD40O,0.061020X0.009840*%
%ADD41R,0.035430X0.031500*%
%ADD42R,0.350000X0.450000*%
%ADD43R,0.150000X0.081890*%
%ADD44R,0.052600X0.023030*%
G04~CAMADD=45~8~0.0~0.0~526.0~230.3~115.2~0.0~15~0.0~0.0~0.0~0.0~0~0.0~0.0~0.0~0.0~0~0.0~0.0~0.0~0.0~526.0~230.3*
%ADD45D45*%
%ADD46R,0.031500X0.035430*%
%ADD59R,0.068900X0.068900*%
%ADD60C,0.068900*%
%ADD61C,0.137800*%
%ADD62R,0.055910X0.055910*%
%ADD63C,0.055910*%
%ADD68R,0.061810X0.061810*%
%ADD69C,0.061810*%
%ADD72R,0.055120X0.055120*%
%ADD73C,0.055120*%
%ADD80C,0.100000*%
%ADD81C,0.008000*%
%ADD82C,0.025000*%
%ADD83C,0.030000*%
%ADD84C,0.045000*%
%ADD85C,0.060000*%
%ADD86C,0.090000*%
%ADD87C,0.020000*%
%ADD88C,0.061020*%
%ADD89R,0.061020X0.061020*%
%ADD90C,0.062990*%
%ADD91R,0.062990X0.062990*%
%ADD92R,0.070870X0.070870*%
%ADD93C,0.070870*%
%ADD94C,0.089760*%
%ADD95C,0.196850*%
%ADD96C,0.059060*%
%ADD97R,0.045980X0.045980*%
%ADD98C,0.045980*%
%ADD99C,0.088580*%
%ADD100C,0.060000*%
%ADD101C,0.017720*%
%ADD102C,0.035430*%
%ADD103C,0.023620*%
%LNpcb-1*%
%LPD*%
G36*
X5938Y4069D02*
X5932Y4067D01*
X5917Y4056*
X5904Y4042*
X5893Y4027*
X5885Y4011*
X5879Y3993*
X5876Y3975*
Y3956*
X5879Y3938*
X5885Y3920*
X5893Y3903*
X5904Y3888*
X5917Y3875*
X5932Y3864*
X5949Y3856*
X5967Y3850*
X5985Y3847*
X6004*
X6022Y3850*
X6040Y3856*
X6056Y3864*
X6071Y3875*
X6085Y3888*
X6096Y3903*
X6097Y3906*
X6102Y3905*
Y404*
X6097Y403*
X6096Y405*
X6085Y420*
X6071Y434*
X6056Y445*
X6040Y453*
X6022Y459*
X6004Y462*
X5985*
X5967Y459*
X5949Y453*
X5932Y445*
X5917Y434*
X5904Y420*
X5893Y405*
X5885Y389*
X5879Y371*
X5876Y353*
Y334*
X5879Y316*
X5885Y298*
X5893Y281*
X5904Y266*
X5917Y253*
X5932Y242*
X5935Y241*
X5934Y236*
X464*
X463Y241*
X466Y242*
X481Y253*
X494Y266*
X505Y281*
X513Y298*
X519Y316*
X522Y334*
Y353*
X519Y371*
X513Y389*
X505Y405*
X494Y420*
X481Y434*
X466Y445*
X449Y453*
X431Y459*
X413Y462*
X394*
X376Y459*
X358Y453*
X342Y445*
X327Y434*
X319Y426*
X314Y428*
Y3881*
X319Y3883*
X327Y3875*
X342Y3864*
X358Y3856*
X376Y3850*
X394Y3847*
X413*
X431Y3850*
X449Y3856*
X466Y3864*
X481Y3875*
X494Y3888*
X505Y3903*
X513Y3920*
X519Y3938*
X522Y3956*
Y3975*
X519Y3993*
X513Y4011*
X505Y4027*
X494Y4042*
X481Y4056*
X466Y4067*
X460Y4069*
X461Y4074*
X5937*
X5938Y4069*
G37*
%LNpcb-2*%
%LPC*%
G36*
X4705Y4020D02*
X4705D01*
Y3985*
X4740*
Y3985*
X4737Y3995*
X4732Y4004*
X4724Y4012*
X4715Y4017*
X4705Y4020*
G37*
G36*
X4695D02*
X4694D01*
X4684Y4017*
X4675Y4012*
X4667Y4004*
X4662Y3995*
X4660Y3985*
Y3985*
X4695*
Y4020*
G37*
G36*
X4400D02*
X4400D01*
Y3985*
X4435*
Y3985*
X4432Y3995*
X4427Y4004*
X4419Y4012*
X4410Y4017*
X4400Y4020*
G37*
G36*
X4390D02*
X4389D01*
X4379Y4017*
X4370Y4012*
X4362Y4004*
X4357Y3995*
X4355Y3985*
Y3985*
X4390*
Y4020*
G37*
G36*
X1205D02*
X1205D01*
Y3985*
X1240*
Y3985*
X1237Y3995*
X1232Y4004*
X1224Y4012*
X1215Y4017*
X1205Y4020*
G37*
G36*
X1195D02*
X1194D01*
X1184Y4017*
X1175Y4012*
X1167Y4004*
X1162Y3995*
X1160Y3985*
Y3985*
X1195*
Y4020*
G37*
G36*
X4935Y4010D02*
X4935D01*
Y3975*
X4970*
Y3975*
X4967Y3985*
X4962Y3994*
X4954Y4002*
X4945Y4007*
X4935Y4010*
G37*
G36*
X4925D02*
X4924D01*
X4914Y4007*
X4905Y4002*
X4897Y3994*
X4892Y3985*
X4890Y3975*
Y3975*
X4925*
Y4010*
G37*
G36*
X925Y4000D02*
X925D01*
Y3965*
X960*
Y3965*
X957Y3975*
X952Y3984*
X944Y3992*
X935Y3997*
X925Y4000*
G37*
G36*
X915D02*
X914D01*
X904Y3997*
X895Y3992*
X887Y3984*
X882Y3975*
X880Y3965*
Y3965*
X915*
Y4000*
G37*
G36*
X5230Y3985D02*
X5230D01*
Y3950*
X5265*
Y3950*
X5262Y3960*
X5257Y3969*
X5249Y3977*
X5240Y3982*
X5230Y3985*
G37*
G36*
X5220D02*
X5219D01*
X5209Y3982*
X5200Y3977*
X5192Y3969*
X5187Y3960*
X5185Y3950*
Y3950*
X5220*
Y3985*
G37*
G36*
X4740Y3975D02*
X4705D01*
Y3940*
X4705*
X4715Y3942*
X4724Y3947*
X4732Y3955*
X4737Y3964*
X4740Y3974*
Y3975*
G37*
G36*
X4695D02*
X4660D01*
Y3974*
X4662Y3964*
X4667Y3955*
X4675Y3947*
X4684Y3942*
X4694Y3940*
X4695*
Y3975*
G37*
G36*
X4435D02*
X4400D01*
Y3940*
X4400*
X4410Y3942*
X4419Y3947*
X4427Y3955*
X4432Y3964*
X4435Y3974*
Y3975*
G37*
G36*
X4390D02*
X4355D01*
Y3974*
X4357Y3964*
X4362Y3955*
X4370Y3947*
X4379Y3942*
X4389Y3940*
X4390*
Y3975*
G37*
G36*
X1240D02*
X1205D01*
Y3940*
X1205*
X1215Y3942*
X1224Y3947*
X1232Y3955*
X1237Y3964*
X1240Y3974*
Y3975*
G37*
G36*
X1195D02*
X1160D01*
Y3974*
X1162Y3964*
X1167Y3955*
X1175Y3947*
X1184Y3942*
X1194Y3940*
X1195*
Y3975*
G37*
G36*
X4970Y3965D02*
X4935D01*
Y3930*
X4935*
X4945Y3932*
X4954Y3937*
X4962Y3945*
X4967Y3954*
X4970Y3964*
Y3965*
G37*
G36*
X4925D02*
X4890D01*
Y3964*
X4892Y3954*
X4897Y3945*
X4905Y3937*
X4914Y3932*
X4924Y3930*
X4925*
Y3965*
G37*
G36*
X960Y3955D02*
X925D01*
Y3920*
X925*
X935Y3922*
X944Y3927*
X952Y3935*
X957Y3944*
X960Y3954*
Y3955*
G37*
G36*
X915D02*
X880D01*
Y3954*
X882Y3944*
X887Y3935*
X895Y3927*
X904Y3922*
X914Y3920*
X915*
Y3955*
G37*
G36*
X715Y3950D02*
X715D01*
Y3915*
X750*
Y3915*
X747Y3925*
X742Y3934*
X734Y3942*
X725Y3947*
X715Y3950*
G37*
G36*
X705D02*
X704D01*
X694Y3947*
X685Y3942*
X677Y3934*
X672Y3925*
X670Y3915*
Y3915*
X705*
Y3950*
G37*
G36*
X5690Y3930D02*
X5589D01*
Y3906*
X5584Y3905*
X5580Y3911*
X5571Y3920*
X5559Y3927*
X5546Y3930*
X5533*
X5520Y3927*
X5508Y3920*
X5499Y3911*
X5492Y3899*
X5491Y3899*
X5488*
X5487Y3899*
X5480Y3911*
X5471Y3920*
X5459Y3927*
X5446Y3930*
X5433*
X5420Y3927*
X5408Y3920*
X5399Y3911*
X5392Y3899*
X5389Y3886*
Y3873*
X5392Y3860*
X5399Y3848*
X5408Y3839*
X5420Y3832*
X5433Y3829*
X5446*
X5454Y3831*
X5472Y3812*
X5480Y3807*
X5490Y3805*
X5490*
X5493Y3801*
X5492Y3799*
X5489Y3786*
Y3773*
X5492Y3760*
X5499Y3748*
X5508Y3739*
X5520Y3732*
X5533Y3729*
X5546*
X5548Y3729*
X5550Y3725*
X5439Y3614*
X5205*
X5201Y3616*
X5193Y3618*
X5186*
X5178Y3616*
X5172Y3613*
X5166Y3607*
X5163Y3601*
X5161Y3593*
Y3586*
X5163Y3578*
X5166Y3572*
X5172Y3566*
X5178Y3563*
X5186Y3561*
X5193*
X5201Y3563*
X5205Y3565*
X5450*
X5459Y3567*
X5467Y3572*
X5625Y3731*
X5633Y3729*
X5646*
X5659Y3732*
X5671Y3739*
X5680Y3748*
X5687Y3760*
X5690Y3773*
Y3786*
X5688Y3796*
X5691Y3801*
X5691Y3802*
X5693Y3802*
X5885Y3609*
Y3429*
X5863*
X5842Y3449*
X5835Y3455*
X5826Y3459*
X5817Y3460*
X5803*
Y3493*
X5716*
X5716*
X5711Y3494*
Y3505*
X5710Y3514*
X5707Y3523*
X5701Y3530*
X5694Y3536*
X5685Y3539*
X5676Y3540*
X5667Y3539*
X5658Y3536*
X5651Y3530*
X5645Y3523*
X5642Y3514*
X5641Y3505*
Y3450*
X5642Y3441*
X5643Y3438*
Y3416*
X5667*
X5668Y3415*
X5677Y3414*
X5686Y3415*
X5687Y3416*
X5710*
Y3435*
X5711Y3436*
X5716Y3434*
Y3406*
X5753*
X5760Y3400*
X5767Y3394*
X5775Y3390*
X5785Y3389*
X5802*
X5803Y3389*
Y3365*
X5750*
X5741Y3364*
X5736Y3361*
X5736*
X5727Y3360*
X5720Y3357*
X5719Y3357*
X5715Y3359*
Y3398*
X5622*
Y3397*
X5616*
Y3399*
X5535*
Y3403*
X5534Y3412*
X5530Y3420*
X5524Y3427*
X5517Y3433*
X5509Y3437*
X5500Y3438*
X5490Y3437*
X5482Y3433*
X5475Y3427*
X5469Y3420*
X5465Y3412*
X5464Y3403*
Y3369*
X5463Y3367*
X5462Y3358*
X5461Y3357*
X5460Y3356*
X5458Y3355*
X5454*
X5396*
Y3419*
X5385*
Y3426*
X5387Y3435*
Y3444*
X5385Y3454*
X5380Y3463*
X5373Y3470*
X5364Y3475*
X5354Y3477*
X5345*
X5335Y3475*
X5326Y3470*
X5319Y3463*
X5314Y3454*
X5312Y3444*
Y3435*
X5314Y3426*
Y3419*
X5303*
Y3345*
Y3280*
X5396*
Y3282*
X5418*
X5427Y3283*
X5429Y3284*
X5458*
X5461Y3280*
Y3256*
X5340*
Y3234*
X5310*
X5300Y3232*
X5292Y3227*
X4763Y2698*
X4758Y2696*
X4752Y2693*
X4746Y2687*
X4743Y2681*
X4741Y2673*
Y2666*
X4743Y2658*
X4746Y2652*
X4752Y2646*
X4758Y2643*
X4766Y2641*
X4773*
X4781Y2643*
X4787Y2646*
X4793Y2652*
X4796Y2658*
X4798Y2663*
X5320Y3185*
X5340*
Y3163*
X5479*
Y3173*
X5483Y3175*
X5489*
X5493Y3174*
Y3152*
X5530*
Y3142*
X5493*
Y3120*
X5494*
Y3112*
X5493Y3110*
X5492Y3101*
X5493Y3091*
X5497Y3083*
X5503Y3076*
X5510Y3070*
X5518Y3066*
X5528Y3065*
X5537Y3066*
X5545Y3070*
X5552Y3076*
X5554Y3078*
X5559Y3084*
X5564Y3082*
Y3065*
X5565Y3055*
X5569Y3047*
X5575Y3040*
X5583Y3032*
X5581Y3027*
X5565*
X5558Y3028*
X5506*
X5496Y3027*
X5488Y3023*
X5481Y3017*
X5475Y3010*
X5471Y3002*
X5470Y2993*
X5471Y2983*
X5475Y2975*
X5481Y2968*
X5488Y2962*
X5496Y2958*
X5506Y2957*
X5511*
Y2882*
X5556*
X5560Y2879*
X5569Y2875*
X5578Y2874*
X5643*
X5648Y2869*
X5660Y2862*
X5662Y2862*
Y2857*
X5660Y2857*
X5648Y2850*
X5639Y2841*
X5635Y2834*
X5260*
X5250Y2832*
X5242Y2827*
X5176Y2761*
X5169*
X5167Y2763*
X5161Y2766*
X5153Y2768*
X5146*
X5138Y2766*
X5134Y2764*
X5100*
X5090Y2762*
X5082Y2757*
X4947Y2622*
X4942Y2614*
X4940Y2605*
Y2587*
X4776Y2423*
X4770Y2424*
X4768Y2429*
X4763Y2436*
X4759Y2440*
Y2469*
X4757Y2478*
X4754Y2487*
X4748Y2494*
X4748Y2494*
X4748Y2495*
Y2497*
X4745*
X4741Y2500*
X4732Y2504*
X4723Y2505*
X4716Y2504*
X4711Y2507*
Y2507*
X4700*
Y2514*
X4777*
Y2605*
X4662*
Y2549*
X4659Y2547*
X4654Y2548*
X4651Y2552*
Y2605*
X4536*
Y2585*
X4532Y2582*
X4528Y2584*
X4519Y2585*
X4513Y2584*
X4508Y2588*
Y2657*
X4500*
X4497Y2661*
X4497Y2662*
Y2671*
X4495Y2681*
X4490Y2690*
X4483Y2697*
X4474Y2702*
X4464Y2704*
X4455*
X4445Y2702*
X4436Y2697*
X4429Y2690*
X4424Y2681*
X4422Y2671*
Y2662*
X4422Y2661*
X4419Y2657*
X4411*
Y2647*
X4402*
Y2673*
X4388*
Y2719*
X4387Y2728*
X4383Y2736*
X4379Y2742*
Y2776*
X4300*
X4298Y2781*
X4327Y2809*
X4327Y2809*
X4327Y2809*
X4329Y2812*
X4331Y2815*
X4332Y2815*
X4332Y2816*
X4333Y2819*
X4335Y2822*
X4335Y2823*
X4335Y2823*
X4335Y2827*
X4336Y2830*
X4335Y2831*
X4336Y2831*
X4335Y2834*
X4335Y2838*
X4334Y2838*
X4334Y2839*
X4332Y2849*
X4332Y2850*
X4334Y2852*
X4335Y2853*
X4345Y2850*
X4346Y2850*
X4346Y2850*
X4350Y2849*
X4353Y2848*
X4353Y2849*
X4354Y2848*
X4357Y2849*
X4361Y2849*
X4361Y2849*
X4362Y2850*
X4365Y2851*
X4368Y2852*
X4369Y2852*
X4369Y2853*
X4372Y2855*
X4375Y2857*
X4375Y2857*
X4375Y2857*
X4409Y2891*
X4413Y2897*
X4416Y2904*
X4417Y2912*
X4416Y2920*
X4413Y2927*
X4408Y2937*
X4410Y2939*
X4416Y2950*
X4420Y2963*
Y2976*
X4418Y2982*
X4427Y2991*
X4433Y2990*
X4446*
X4459Y2993*
X4470Y2999*
X4472Y3001*
X4482Y2996*
X4489Y2993*
X4497Y2992*
X4505Y2993*
X4512Y2996*
X4518Y3001*
X4552Y3034*
X4552Y3034*
X4552Y3034*
X4554Y3037*
X4556Y3040*
X4557Y3040*
X4557Y3041*
X4558Y3044*
X4560Y3047*
X4560Y3048*
X4560Y3048*
X4560Y3052*
X4561Y3055*
X4560Y3056*
X4561Y3056*
X4560Y3059*
X4560Y3063*
X4559Y3063*
X4559Y3064*
X4557Y3074*
X4557Y3075*
X4559Y3077*
X4560Y3078*
X4570Y3075*
X4571Y3075*
X4571Y3075*
X4575Y3074*
X4578Y3073*
X4578Y3074*
X4579Y3073*
X4582Y3074*
X4586Y3074*
X4586Y3074*
X4587Y3075*
X4590Y3076*
X4593Y3077*
X4594Y3077*
X4594Y3078*
X4597Y3080*
X4600Y3082*
X4600Y3082*
X4600Y3082*
X4631Y3113*
X4632Y3115*
X4634Y3116*
X4635Y3118*
X4636Y3119*
X4636Y3121*
X4637Y3123*
X4638Y3125*
X4639Y3127*
X4639Y3129*
X4640Y3131*
Y3133*
X4640Y3135*
X4640Y3136*
Y3138*
X4639Y3140*
X4639Y3142*
X4638Y3144*
X4637Y3146*
X4634Y3154*
X4635Y3154*
X4645Y3164*
X4651Y3175*
X4654Y3185*
X4663Y3187*
X4666Y3188*
X4667Y3188*
X4667Y3188*
X4668Y3188*
X4670Y3189*
X4671Y3189*
X4673Y3190*
X4675Y3191*
X4676Y3192*
X4678Y3193*
X4679Y3195*
X4681Y3196*
X4682Y3197*
X4683Y3199*
X4684Y3200*
X4686Y3202*
X4686Y3204*
X4687Y3205*
X4688Y3207*
X4689Y3209*
X4689Y3211*
X4689Y3213*
X4689Y3215*
X4690Y3217*
Y3320*
X4689Y3327*
X4686Y3335*
X4681Y3341*
X4556Y3466*
X4550Y3471*
X4542Y3474*
X4535Y3475*
X4527Y3474*
X4519Y3471*
X4513Y3466*
X4512Y3465*
X4445*
X4437Y3464*
X4429Y3461*
X4423Y3456*
X4418Y3450*
X4415Y3442*
X4414Y3435*
Y3427*
X3820Y2832*
X3815Y2834*
Y2921*
X3604*
Y2803*
X3610*
Y2798*
X3612Y2788*
X3617Y2780*
X3662Y2735*
X3659Y2731*
X3655Y2734*
X3642Y2737*
X3631*
X3629Y2743*
X3628Y2744*
X3628Y2745*
X3626Y2748*
X3625Y2750*
X3625Y2751*
X3624Y2752*
X3624Y2753*
X3622Y2754*
X3621Y2756*
X3619Y2757*
X3618Y2758*
X3616Y2759*
X3614Y2761*
X3613Y2761*
X3611Y2762*
X3609Y2763*
X3607Y2764*
X3605Y2764*
X3604Y2764*
X3601Y2764*
X3599Y2765*
X3255*
X3247Y2764*
X3239Y2761*
X3233Y2756*
X3172Y2695*
X3167Y2700*
X3160Y2704*
X3153Y2706*
X3145*
X3138Y2704*
X3137Y2703*
X3075Y2765*
Y2793*
X3081*
Y2911*
X2871*
Y2793*
X2876*
Y2763*
X2874Y2759*
X2872Y2751*
Y2744*
X2874Y2737*
X2878Y2730*
X2883Y2725*
X2890Y2721*
X2897Y2719*
X2905*
X2912Y2721*
X2919Y2725*
X2924Y2730*
X2928Y2737*
X2930Y2744*
Y2751*
X2928Y2759*
X2925Y2763*
Y2793*
X2976*
Y2667*
X2978Y2658*
X2984Y2650*
X3003Y2631*
X3004Y2626*
X3008Y2620*
X3013Y2615*
X3012Y2612*
X3011Y2610*
X2987*
X2831Y2766*
X2825Y2771*
X2817Y2774*
X2810Y2775*
X2450*
X2442Y2774*
X2434Y2771*
X2428Y2766*
X2356Y2694*
X2351Y2696*
Y2700*
X2349Y2707*
X2345Y2714*
X2340Y2719*
X2333Y2723*
X2329Y2724*
X2310Y2743*
Y2803*
X2316*
Y2921*
X2105*
Y2803*
X2111*
Y2788*
X2113Y2779*
X2119Y2771*
X2181Y2708*
X2183Y2703*
X2186Y2697*
X2192Y2691*
X2195Y2690*
X2193Y2685*
X2187*
X2141Y2731*
X2141Y2731*
X2141Y2731*
X2138Y2733*
X2135Y2736*
X2134Y2736*
X2134Y2736*
X2131Y2737*
X2127Y2739*
X2127Y2739*
X2127Y2739*
X2123Y2739*
X2120Y2740*
X2119Y2740*
X2119Y2740*
X2050Y2739*
X2050Y2739*
X2050Y2739*
X2046Y2738*
X2042Y2738*
X2042Y2738*
X2042Y2738*
X2038Y2736*
X2035Y2734*
X2035Y2734*
X2035Y2734*
X2032Y2732*
X2029Y2730*
X2029Y2730*
X2029Y2729*
X2025Y2725*
X2024Y2724*
X2022Y2723*
X2021Y2721*
X2020Y2719*
X2019Y2717*
X2019Y2717*
X2011Y2720*
X1998*
X1988Y2717*
X1988Y2718*
X1986Y2720*
X1985Y2722*
X1984Y2723*
X1983Y2725*
X1982Y2726*
X1980Y2728*
X1978Y2730*
X1975Y2732*
X1973Y2734*
X1972Y2734*
X1972Y2734*
X1968Y2735*
X1965Y2736*
X1965Y2737*
X1964Y2737*
X1961Y2737*
X1957Y2737*
X1927Y2737*
X1923Y2736*
X1920Y2736*
X1919Y2736*
X1919Y2736*
X1916Y2734*
X1913Y2733*
X1912Y2733*
X1912Y2733*
X1909Y2731*
X1906Y2729*
X1906Y2728*
X1905Y2728*
X1903Y2725*
X1901Y2722*
X1896Y2713*
X1891Y2715*
X1878*
X1865Y2711*
X1854Y2705*
X1844Y2695*
X1838Y2684*
X1835Y2671*
Y2658*
X1838Y2645*
X1844Y2634*
X1854Y2624*
X1855Y2624*
X1852Y2616*
X1851Y2614*
X1850Y2612*
X1850Y2610*
X1850Y2608*
Y2606*
X1849Y2605*
X1850Y2603*
Y2601*
X1850Y2599*
X1850Y2597*
X1851Y2595*
X1852Y2593*
X1853Y2591*
X1853Y2589*
X1855Y2588*
X1855Y2586*
X1857Y2585*
X1858Y2583*
X1934Y2507*
Y2435*
X1935Y2427*
X1938Y2419*
X1943Y2413*
X1949Y2408*
X1957Y2405*
X1965Y2404*
X3785*
X3792Y2405*
X3800Y2408*
X3806Y2413*
X3814Y2421*
X3815Y2423*
X3817Y2425*
X3820Y2428*
X3820Y2429*
X3820Y2429*
X3822Y2432*
X3823Y2434*
X3829Y2432*
X3842*
X3846Y2433*
X3851Y2425*
X3851Y2424*
X3851Y2424*
X3854Y2421*
X3856Y2418*
X3856Y2418*
X3856Y2418*
X3859Y2416*
X3862Y2413*
X3862Y2413*
X3862Y2413*
X3866Y2412*
X3869Y2410*
X3870Y2410*
X3870Y2410*
X3874Y2410*
X3877Y2409*
X3877Y2409*
X3878Y2409*
X3915*
X3922Y2410*
X3930Y2413*
X3936Y2418*
X3958Y2440*
X4132Y2265*
X4140Y2260*
X4150Y2258*
X4156*
X4158Y2253*
X4157Y2252*
X4153Y2245*
X4151Y2237*
Y2228*
X4153Y2220*
X4157Y2213*
X4163Y2207*
X4170Y2203*
X4178Y2201*
X4187*
X4193Y2202*
X4197Y2200*
X4198Y2195*
X4195Y2191*
X2067*
X2057Y2189*
X2049Y2184*
X1301Y1435*
X1296Y1433*
X1291Y1424*
X1289Y1415*
Y1202*
X1284Y1199*
X1281Y1201*
X1273Y1203*
X1266*
X1258Y1201*
X1252Y1198*
X1246Y1192*
X1243Y1186*
X1241Y1178*
Y1178*
X1239Y1170*
Y1071*
X1182*
Y951*
X1398*
Y1071*
X1389*
Y1292*
X1394Y1294*
X1397Y1291*
X1403Y1288*
X1411Y1286*
X1418*
X1426Y1288*
X1432Y1291*
X1438Y1297*
X1441Y1303*
X1443Y1311*
Y1318*
X1441Y1326*
X1439Y1330*
Y1369*
X1489Y1420*
X1494Y1418*
Y1205*
X1495Y1197*
X1498Y1189*
X1503Y1183*
X1509Y1178*
X1517Y1175*
X1525Y1174*
X1773*
X1774Y1173*
X1782Y1170*
X1790Y1169*
X1797Y1170*
X1805Y1173*
X1811Y1178*
X1871Y1238*
X1876Y1244*
X1879Y1252*
X1880Y1260*
Y1460*
X1879Y1463*
X1879Y1467*
X1879Y1467*
X1879Y1467*
X1877Y1471*
X1876Y1475*
X1876Y1475*
X1876Y1475*
X1873Y1478*
X1871Y1481*
X1871Y1481*
X1871Y1481*
X1868Y1483*
X1865Y1486*
X1805Y1521*
X1804Y1521*
X1803Y1521*
X1800Y1522*
X1797Y1524*
X1797Y1524*
X1796Y1524*
X1793Y1524*
X1790Y1525*
X1789Y1525*
X1788Y1525*
X1591Y1515*
X1589Y1520*
X2172Y2103*
X3457*
X3459Y2098*
X3176Y1816*
X3073*
Y1771*
X3068Y1769*
X3064Y1772*
X3056Y1776*
X3047Y1777*
X3037Y1776*
X3029Y1772*
X3022Y1766*
X3016Y1759*
X3012Y1751*
X3011Y1742*
X3012Y1738*
Y1702*
X3012Y1702*
X3008Y1694*
X3007Y1685*
Y1619*
X3008Y1610*
X3012Y1601*
X3016Y1595*
Y1591*
X3021*
X3024Y1588*
X3033Y1585*
X3042Y1584*
X3051Y1585*
X3060Y1588*
X3063Y1591*
X3068*
Y1595*
X3073Y1601*
X3076Y1610*
X3081Y1609*
Y1583*
Y1581*
X3078Y1578*
X3044*
Y1506*
X3000*
X2996Y1511*
X2997Y1517*
Y1526*
X2995Y1536*
X2990Y1545*
X2983Y1552*
X2974Y1557*
X2965Y1559*
X2955*
X2945Y1557*
X2939Y1553*
X2936Y1557*
X2936Y1558*
X2938Y1566*
Y1573*
X2936Y1581*
X2933Y1587*
X2927Y1593*
X2921Y1596*
X2913Y1598*
X2906*
X2898Y1596*
X2895Y1594*
X2890Y1595*
X2797*
Y1528*
X2714*
X2705Y1527*
X2697Y1524*
X2689Y1518*
X2682Y1510*
X2576*
Y1389*
X2641*
Y1363*
X2630*
Y1289*
X2636*
X2640Y1288*
Y1266*
X2677*
X2713*
Y1288*
X2717Y1289*
X2723*
Y1363*
X2712*
Y1389*
X2766*
Y1458*
X2797*
Y1456*
X2890*
Y1521*
Y1534*
X2898*
X2907Y1535*
X2915Y1541*
X2916Y1541*
X2921Y1543*
X2923Y1544*
X2927Y1541*
X2924Y1536*
X2922Y1526*
Y1517*
X2923Y1511*
X2920Y1506*
Y1413*
X2924*
Y1385*
X2921*
Y1194*
X2998*
Y1385*
X2995*
Y1413*
X3124*
Y1385*
X3121*
Y1194*
X3198*
Y1385*
X3195*
Y1420*
X3226*
X3243Y1403*
Y1100*
X3226Y1083*
X2841*
Y712*
X2874*
Y538*
X2875Y525*
X2879Y513*
X2885Y502*
X2892Y493*
Y490*
X2895*
X2903Y484*
X2915Y478*
X2919Y476*
X2919Y471*
X2916Y470*
X2909Y463*
X2905Y454*
X2902Y445*
X2940*
X2977*
X2975Y454*
X2970Y463*
X2963Y470*
X2960Y471*
X2960Y476*
X2964Y478*
X2976Y484*
X2984Y490*
X2987*
Y493*
X2994Y502*
X3000Y513*
X3004Y525*
X3005Y538*
Y712*
X3124*
Y538*
X3125Y525*
X3129Y513*
X3135Y502*
X3142Y493*
Y490*
X3145*
X3153Y484*
X3165Y478*
X3169Y476*
X3169Y471*
X3166Y470*
X3159Y463*
X3155Y454*
X3152Y445*
X3190*
X3227*
X3225Y454*
X3220Y463*
X3213Y470*
X3210Y471*
X3210Y476*
X3214Y478*
X3226Y484*
X3234Y490*
X3237*
Y493*
X3244Y502*
X3250Y513*
X3254Y525*
X3255Y538*
Y712*
X3278*
Y1035*
X3303Y1061*
X3309Y1068*
X3313Y1076*
X3314Y1086*
Y1418*
X3313Y1427*
X3309Y1436*
X3303Y1443*
X3286Y1460*
Y1485*
Y1559*
X3265*
Y1565*
X3273*
Y1651*
Y1652*
X3276Y1656*
X3279*
X3288Y1657*
X3296Y1660*
X3304Y1666*
X3304Y1667*
X3310Y1674*
X3314Y1682*
X3315Y1692*
X3314Y1701*
X3310Y1709*
X3304Y1716*
X3297Y1722*
X3289Y1726*
X3280Y1727*
X3274Y1726*
X3230*
X3220Y1725*
X3219Y1724*
X3212*
Y1782*
X3493Y2063*
X3827*
X3829Y2059*
X3596Y1826*
X3491*
Y1786*
X3486Y1783*
X3481Y1787*
X3473Y1791*
X3464Y1792*
X3454Y1791*
X3446Y1787*
X3439Y1781*
X3438Y1781*
X3432Y1774*
X3429Y1765*
X3428Y1756*
Y1712*
X3428Y1712*
X3424Y1704*
X3423Y1695*
Y1629*
X3424Y1620*
X3428Y1611*
X3432Y1605*
Y1601*
X3437*
X3440Y1598*
X3449Y1595*
X3458Y1594*
X3467Y1595*
X3476Y1598*
X3479Y1601*
X3484*
Y1605*
X3489Y1611*
X3490Y1614*
X3495Y1615*
X3497Y1613*
Y1593*
Y1591*
X3494Y1588*
X3460*
Y1512*
X3478*
Y1506*
X3418*
Y1511*
X3417Y1519*
Y1519*
X3417Y1520*
X3417Y1520*
X3417Y1521*
X3415Y1529*
X3410Y1538*
X3403Y1545*
X3394Y1550*
X3384Y1552*
X3375*
X3365Y1550*
X3356Y1545*
X3349Y1538*
X3344Y1529*
X3342Y1519*
Y1510*
X3344Y1500*
X3346Y1497*
Y1413*
X3348*
Y1344*
X3349Y1335*
X3352Y1326*
X3358Y1319*
X3412Y1265*
X3420Y1259*
X3428Y1256*
X3437Y1254*
X3451*
Y1194*
X3528*
Y1385*
X3451*
Y1333*
X3446Y1331*
X3418Y1359*
Y1413*
X3543*
Y1357*
X3544Y1348*
X3547Y1339*
X3553Y1332*
X3620Y1265*
X3628Y1259*
X3636Y1256*
X3645Y1254*
X3651*
Y1194*
X3728*
Y1385*
X3651*
Y1341*
X3646Y1339*
X3613Y1372*
Y1413*
X3615*
Y1428*
X3619Y1430*
X3620*
X3705*
X3754Y1381*
Y1083*
X3371*
Y713*
X3434*
Y540*
X3435Y527*
X3439Y515*
X3445Y503*
X3452Y495*
Y492*
X3455*
X3463Y485*
X3475Y479*
X3479Y478*
X3479Y473*
X3476Y471*
X3469Y464*
X3465Y456*
X3462Y446*
X3500*
X3537*
X3535Y456*
X3530Y464*
X3523Y471*
X3520Y473*
X3520Y478*
X3525Y479*
X3536Y485*
X3544Y492*
X3547*
Y495*
X3554Y503*
X3560Y515*
X3564Y527*
X3565Y540*
Y713*
X3671*
Y543*
X3672Y530*
X3676Y518*
X3682Y506*
X3690Y496*
X3692Y495*
Y492*
X3696*
X3700Y488*
X3712Y482*
X3721Y479*
X3721Y474*
X3716Y471*
X3709Y464*
X3705Y456*
X3702Y446*
X3740*
X3777*
X3775Y456*
X3770Y464*
X3763Y471*
X3756Y475*
X3756Y480*
X3762Y482*
X3773Y488*
X3777Y492*
X3787*
Y502*
X3791Y506*
X3797Y518*
X3801Y530*
X3802Y543*
Y713*
X3808*
Y1033*
X3814Y1040*
X3820Y1047*
X3824Y1055*
X3825Y1065*
Y1396*
X3824Y1405*
X3820Y1413*
X3814Y1420*
X3743Y1492*
X3736Y1498*
X3727Y1501*
X3718Y1502*
X3712*
Y1569*
X3681*
Y1575*
X3689*
Y1661*
Y1662*
X3691Y1666*
X3697Y1667*
X3705Y1670*
X3713Y1676*
X3713Y1677*
X3719Y1684*
X3723Y1692*
X3724Y1702*
X3723Y1711*
X3719Y1719*
X3713Y1726*
X3706Y1732*
X3698Y1736*
X3689Y1737*
X3683Y1736*
X3646*
X3636Y1735*
X3635Y1734*
X3630*
Y1790*
X3883Y2044*
X4028*
X4030Y2039*
X3907Y1917*
X3902Y1909*
X3900Y1900*
Y1340*
X3898Y1336*
X3896Y1328*
Y1321*
X3898Y1313*
X3901Y1307*
X3907Y1301*
X3913Y1298*
X3921Y1296*
X3928*
X3935Y1297*
X3938Y1296*
X3940Y1295*
Y1115*
X3942Y1105*
X3947Y1097*
X3981Y1063*
X3983Y1058*
X3986Y1052*
X3992Y1046*
X3998Y1043*
X4006Y1041*
X4013*
X4020Y1042*
X4023Y1041*
X4025Y1040*
Y1035*
X4023Y1031*
X4021Y1023*
Y1016*
X4023Y1008*
X4026Y1002*
X4032Y996*
X4038Y993*
X4046Y991*
X4053*
X4061Y993*
X4067Y996*
X4073Y1002*
X4076Y1008*
X4078Y1016*
Y1023*
X4076Y1031*
X4074Y1035*
Y1119*
X4072Y1128*
X4067Y1136*
X4024Y1179*
Y1254*
X4029Y1256*
X4041Y1243*
X4043Y1238*
X4046Y1232*
X4052Y1226*
X4058Y1223*
X4066Y1221*
X4073*
X4080Y1222*
X4083Y1221*
X4085Y1220*
Y425*
X4087Y415*
X4092Y407*
X4152Y347*
X4160Y342*
X4170Y340*
X4515*
X4524Y342*
X4532Y347*
X4585Y400*
X4593Y398*
X4606*
X4619Y402*
X4631Y408*
X4641Y418*
X4647Y430*
X4651Y443*
Y456*
X4647Y469*
X4641Y481*
X4631Y491*
X4627Y493*
X4628Y498*
X4651*
Y601*
X4548*
Y578*
X4543Y577*
X4541Y581*
X4531Y591*
X4519Y597*
X4506Y601*
X4493*
X4480Y597*
X4468Y591*
X4458Y581*
X4452Y571*
X4451Y570*
X4448*
X4447Y571*
X4441Y581*
X4431Y591*
X4419Y597*
X4406Y601*
X4393*
X4380Y597*
X4368Y591*
X4358Y581*
X4352Y571*
X4351Y570*
X4348*
X4347Y571*
X4341Y581*
X4331Y591*
X4324Y595*
Y649*
X4384Y709*
X4389Y717*
X4391Y727*
Y927*
X4396Y929*
X4792Y533*
X4800Y528*
X4809Y526*
X5052*
X5056Y519*
X5066Y509*
X5078Y502*
X5091Y499*
X5104*
X5117Y502*
X5129Y509*
X5139Y519*
X5145Y529*
X5146Y529*
X5149*
X5150Y529*
X5156Y519*
X5166Y509*
X5176Y503*
X5177Y501*
Y499*
X5176Y497*
X5166Y491*
X5156Y482*
X5150Y470*
X5146Y457*
Y443*
X5150Y430*
X5156Y419*
X5166Y409*
X5178Y402*
X5191Y399*
X5204*
X5217Y402*
X5229Y409*
X5239Y419*
X5245Y429*
X5246Y429*
X5249*
X5250Y429*
X5256Y419*
X5266Y409*
X5278Y402*
X5291Y399*
X5304*
X5317Y402*
X5329Y409*
X5339Y419*
X5345Y429*
X5346Y429*
X5349*
X5350Y429*
X5356Y419*
X5366Y409*
X5378Y402*
X5391Y399*
X5404*
X5417Y402*
X5429Y409*
X5439Y419*
X5445Y429*
X5446Y429*
X5449*
X5450Y429*
X5456Y419*
X5466Y409*
X5478Y402*
X5491Y399*
X5504*
X5517Y402*
X5529Y409*
X5539Y419*
X5546Y430*
X5549Y443*
Y457*
X5546Y470*
X5539Y482*
X5529Y491*
X5525Y494*
X5527Y499*
X5549*
Y602*
X5474*
X5472Y609*
X5467Y617*
X4786Y1298*
X4778Y1303*
X4769Y1305*
X4454*
X4450Y1307*
X4442Y1309*
X4435*
X4428Y1307*
X4421Y1303*
X4416Y1298*
X4412Y1291*
X4410Y1284*
Y1277*
X4412Y1269*
X4416Y1263*
X4421Y1257*
X4428Y1253*
X4435Y1251*
X4442*
X4450Y1253*
X4454Y1256*
X4759*
X5409Y605*
X5407Y601*
X5404Y602*
X5391*
X5383Y600*
X4835Y1147*
X4828Y1152*
X4818Y1154*
X4445*
X4441Y1156*
X4433Y1158*
X4426*
X4424Y1160*
Y1194*
X4426Y1198*
X4428Y1206*
Y1213*
X4426Y1221*
X4423Y1227*
X4417Y1233*
X4411Y1236*
X4403Y1238*
X4396*
X4395Y1238*
X4391Y1241*
Y1488*
X4395Y1491*
X4396Y1491*
X4403*
X4411Y1493*
X4417Y1496*
X4423Y1502*
X4426Y1508*
X4428Y1516*
Y1523*
X4426Y1531*
X4424Y1535*
Y1610*
X4422Y1619*
X4417Y1627*
X4411Y1633*
Y1643*
X4416Y1644*
X4416Y1644*
X4416Y1644*
X4426Y1642*
X4435Y1644*
X4436Y1644*
X4436Y1644*
X4445Y1642*
X4455Y1644*
X4455Y1644*
X4455Y1644*
X4465Y1642*
X4475Y1644*
X4475Y1644*
X4475Y1644*
X4485Y1642*
X4495Y1644*
X4495Y1644*
X4495Y1644*
X4505Y1642*
X4514Y1644*
X4514Y1644*
X4514Y1644*
X4524Y1642*
X4534Y1644*
X4534Y1644*
X4534Y1644*
X4544Y1642*
X4554Y1644*
X4554Y1644*
X4554Y1644*
X4564Y1642*
X4573Y1644*
X4573Y1644*
X4574Y1644*
X4583Y1642*
X4593Y1644*
X4593Y1644*
X4593Y1644*
X4603Y1642*
X4613Y1644*
X4613Y1644*
X4613Y1644*
X4623Y1642*
X4632Y1644*
X4632Y1644*
X4633Y1644*
X4642Y1642*
X4652Y1644*
X4652Y1644*
X4652Y1644*
X4662Y1642*
X4672Y1644*
X4672Y1644*
X4672Y1644*
X4682Y1642*
X4691Y1644*
X4692Y1644*
X4692Y1644*
X4701Y1642*
X4711Y1644*
X4711Y1644*
X4711Y1644*
X4721Y1642*
X4731Y1644*
X4731Y1644*
X4731Y1644*
X4741Y1642*
X4745Y1643*
X4749Y1640*
X4751Y1632*
X4755Y1625*
X4761Y1619*
X4768Y1615*
X4776Y1613*
X4785*
X4793Y1615*
X4800Y1619*
X4806Y1625*
X4811Y1619*
X4818Y1615*
X4826Y1613*
X4835*
X4843Y1615*
X4850Y1619*
X4856Y1625*
X4860Y1632*
X4862Y1640*
Y1649*
X4860Y1657*
X4856Y1664*
X4850Y1670*
X4845Y1673*
Y1719*
X4844Y1724*
X4848Y1727*
X4852Y1726*
X4853Y1723*
X4856Y1717*
X4862Y1711*
X4868Y1708*
X4876Y1706*
X4883*
X4891Y1708*
X4897Y1711*
X4903Y1717*
X4906Y1723*
X4908Y1728*
X4915Y1730*
X4923Y1735*
X4929Y1744*
X4930Y1752*
X4935Y1754*
X4942Y1747*
X4950Y1742*
X4960Y1740*
X4964*
X4968Y1737*
X4976Y1735*
X4983*
X4991Y1737*
X4997Y1741*
X5003Y1746*
X5006Y1753*
X5008Y1760*
Y1768*
X5006Y1775*
X5005Y1778*
X5006Y1781*
X5008Y1788*
Y1789*
X5013Y1791*
X5430Y1374*
X5462Y1342*
X5470Y1337*
X5477Y1336*
X5477Y1330*
X5476Y1330*
X5469Y1323*
X5464Y1314*
X5462Y1304*
Y1295*
X5464Y1285*
X5469Y1276*
X5476Y1269*
X5485Y1264*
X5485Y1264*
X5488Y1262*
X5488Y1257*
X5488Y1256*
X5484Y1253*
X5483Y1251*
X5477Y1244*
X5473Y1236*
X5472Y1227*
X5473Y1217*
X5477Y1209*
X5483Y1202*
X5490Y1196*
X5498Y1192*
X5508Y1191*
X5516Y1192*
X5521Y1192*
X5545*
X5553Y1185*
X5560Y1179*
X5569Y1175*
X5578Y1174*
X5660*
X5664Y1172*
X5674Y1169*
X5675*
Y1210*
Y1250*
X5674*
X5664Y1247*
X5660Y1245*
X5613*
X5608Y1246*
Y1268*
X5650*
X5660Y1262*
X5673Y1259*
X5686*
X5699Y1262*
X5701Y1263*
X5705Y1261*
Y1260*
X5707Y1250*
X5712Y1242*
X5731Y1223*
X5729Y1216*
Y1203*
X5732Y1190*
X5739Y1178*
X5748Y1169*
X5760Y1162*
X5773Y1159*
X5786*
X5799Y1162*
X5811Y1169*
X5820Y1178*
X5827Y1190*
X5830Y1203*
Y1216*
X5827Y1229*
X5820Y1241*
X5811Y1250*
X5799Y1257*
X5797Y1257*
Y1262*
X5799Y1262*
X5811Y1269*
X5820Y1278*
X5827Y1290*
X5830Y1303*
Y1316*
X5827Y1329*
X5820Y1341*
X5811Y1350*
X5799Y1357*
X5797Y1357*
Y1362*
X5799Y1362*
X5811Y1369*
X5820Y1378*
X5827Y1390*
X5830Y1403*
Y1416*
X5827Y1429*
X5820Y1441*
X5811Y1450*
X5799Y1457*
X5797Y1457*
Y1462*
X5799Y1462*
X5811Y1469*
X5820Y1478*
X5827Y1490*
X5830Y1503*
Y1516*
X5827Y1529*
X5820Y1541*
X5811Y1550*
X5799Y1557*
X5797Y1557*
Y1562*
X5799Y1562*
X5811Y1569*
X5820Y1578*
X5827Y1590*
X5830Y1603*
Y1616*
X5827Y1629*
X5820Y1641*
X5811Y1650*
X5799Y1657*
X5797Y1657*
Y1662*
X5799Y1662*
X5811Y1669*
X5820Y1678*
X5827Y1690*
X5830Y1703*
Y1716*
X5827Y1729*
X5820Y1741*
X5811Y1750*
X5799Y1757*
X5797Y1757*
Y1762*
X5799Y1762*
X5811Y1769*
X5820Y1778*
X5827Y1790*
X5830Y1803*
Y1816*
X5827Y1829*
X5820Y1841*
X5811Y1850*
X5799Y1857*
X5797Y1857*
Y1862*
X5799Y1862*
X5811Y1869*
X5820Y1878*
X5827Y1890*
X5830Y1903*
Y1916*
X5827Y1929*
X5820Y1941*
X5811Y1950*
X5799Y1957*
X5797Y1957*
Y1962*
X5799Y1962*
X5811Y1969*
X5820Y1978*
X5827Y1990*
X5830Y2003*
Y2016*
X5827Y2029*
X5820Y2041*
X5811Y2050*
X5799Y2057*
X5797Y2057*
Y2062*
X5799Y2062*
X5811Y2069*
X5820Y2078*
X5827Y2090*
X5830Y2103*
Y2116*
X5827Y2129*
X5820Y2141*
X5811Y2150*
X5799Y2157*
X5797Y2157*
Y2162*
X5799Y2162*
X5811Y2169*
X5820Y2178*
X5827Y2190*
X5830Y2203*
Y2216*
X5827Y2229*
X5820Y2241*
X5811Y2250*
X5799Y2257*
X5797Y2257*
Y2262*
X5799Y2262*
X5811Y2269*
X5820Y2278*
X5827Y2290*
X5830Y2303*
Y2316*
X5827Y2329*
X5820Y2341*
X5811Y2350*
X5799Y2357*
X5797Y2357*
Y2362*
X5799Y2362*
X5811Y2369*
X5820Y2378*
X5827Y2390*
X5830Y2403*
Y2416*
X5827Y2429*
X5820Y2441*
X5811Y2450*
X5799Y2457*
X5797Y2457*
Y2462*
X5799Y2462*
X5811Y2469*
X5820Y2478*
X5827Y2490*
X5830Y2503*
Y2516*
X5827Y2529*
X5820Y2541*
X5811Y2550*
X5799Y2557*
X5797Y2557*
Y2562*
X5799Y2562*
X5811Y2569*
X5820Y2578*
X5826Y2589*
X5837*
Y2567*
X5899*
X5902Y2563*
X5901Y2560*
Y2550*
X5904Y2540*
X5909Y2532*
X5916Y2525*
X5924Y2520*
X5934Y2517*
X5944*
X5954Y2520*
X5962Y2525*
X5969Y2532*
X5974Y2540*
X5977Y2550*
Y2560*
X5975Y2566*
X5976Y2567*
Y2660*
X5974*
Y2670*
X5975*
Y2763*
X5973*
Y2771*
X5975*
Y2864*
X5836*
Y2842*
X5818*
X5811Y2850*
X5799Y2857*
X5797Y2857*
Y2862*
X5799Y2862*
X5811Y2869*
X5820Y2878*
X5824Y2885*
X5836*
Y2879*
X5929*
Y2943*
X5938*
X5948Y2946*
X5956Y2951*
X5963Y2958*
X5968Y2966*
X5971Y2976*
Y2986*
X5968Y2996*
X5963Y3004*
X5956Y3011*
X5948Y3016*
X5938Y3019*
X5928*
X5924Y3018*
X5836*
Y2944*
Y2934*
X5824*
X5820Y2941*
X5811Y2950*
X5799Y2957*
X5797Y2957*
Y2962*
X5799Y2962*
X5811Y2969*
X5820Y2978*
X5827Y2990*
X5830Y3003*
Y3016*
X5827Y3029*
X5826Y3031*
X5828Y3035*
X5870*
X5879Y3037*
X5887Y3042*
X5927Y3082*
X5932Y3090*
X5934Y3100*
Y3620*
X5932Y3629*
X5927Y3637*
X5717Y3847*
X5709Y3852*
X5700Y3854*
X5690*
Y3930*
G37*
G36*
X5265Y3940D02*
X5230D01*
Y3905*
X5230*
X5240Y3907*
X5249Y3912*
X5257Y3920*
X5262Y3929*
X5265Y3939*
Y3940*
G37*
G36*
X5220D02*
X5185D01*
Y3939*
X5187Y3929*
X5192Y3920*
X5200Y3912*
X5209Y3907*
X5219Y3905*
X5220*
Y3940*
G37*
G36*
X750Y3905D02*
X715D01*
Y3870*
X715*
X725Y3872*
X734Y3877*
X742Y3885*
X747Y3894*
X750Y3904*
Y3905*
G37*
G36*
X705D02*
X670D01*
Y3904*
X672Y3894*
X677Y3885*
X685Y3877*
X694Y3872*
X704Y3870*
X705*
Y3905*
G37*
G36*
X4205Y3880D02*
X4205D01*
Y3845*
X4240*
Y3845*
X4237Y3855*
X4232Y3864*
X4224Y3872*
X4215Y3877*
X4205Y3880*
G37*
G36*
X4195D02*
X4194D01*
X4184Y3877*
X4175Y3872*
X4167Y3864*
X4162Y3855*
X4160Y3845*
Y3845*
X4195*
Y3880*
G37*
G36*
X1204Y3853D02*
X1164D01*
Y3813*
X1204*
Y3853*
G37*
G36*
X1154D02*
X1113D01*
Y3813*
X1154*
Y3853*
G37*
G36*
X4240Y3835D02*
X4205D01*
Y3800*
X4205*
X4215Y3802*
X4224Y3807*
X4232Y3815*
X4237Y3824*
X4240Y3834*
Y3835*
G37*
G36*
X4195D02*
X4160D01*
Y3834*
X4162Y3824*
X4167Y3815*
X4175Y3807*
X4184Y3802*
X4194Y3800*
X4195*
Y3835*
G37*
G36*
X1340D02*
X1340D01*
Y3800*
X1375*
Y3800*
X1372Y3810*
X1367Y3819*
X1359Y3827*
X1350Y3832*
X1340Y3835*
G37*
G36*
X1330D02*
X1329D01*
X1319Y3832*
X1310Y3827*
X1302Y3819*
X1297Y3810*
X1295Y3800*
Y3800*
X1330*
Y3835*
G37*
G36*
X5445Y3820D02*
X5445D01*
Y3785*
X5480*
Y3785*
X5478Y3795*
X5472Y3805*
X5465Y3812*
X5455Y3818*
X5445Y3820*
G37*
G36*
X5435D02*
X5434D01*
X5424Y3818*
X5414Y3812*
X5407Y3805*
X5401Y3795*
X5399Y3785*
Y3785*
X5435*
Y3820*
G37*
G36*
X1204Y3803D02*
X1164D01*
Y3762*
X1204*
Y3803*
G37*
G36*
X1154D02*
X1113D01*
Y3762*
X1154*
Y3803*
G37*
G36*
X1375Y3790D02*
X1340D01*
Y3755*
X1340*
X1350Y3757*
X1359Y3762*
X1367Y3770*
X1372Y3779*
X1375Y3789*
Y3790*
G37*
G36*
X1330D02*
X1295D01*
Y3789*
X1297Y3779*
X1302Y3770*
X1310Y3762*
X1319Y3757*
X1329Y3755*
X1330*
Y3790*
G37*
G36*
X560D02*
X560D01*
Y3755*
X595*
Y3755*
X592Y3765*
X587Y3774*
X579Y3782*
X570Y3787*
X560Y3790*
G37*
G36*
X550D02*
X549D01*
X539Y3787*
X530Y3782*
X522Y3774*
X517Y3765*
X515Y3755*
Y3755*
X550*
Y3790*
G37*
G36*
X5480Y3775D02*
X5445D01*
Y3739*
X5445*
X5455Y3741*
X5465Y3747*
X5472Y3754*
X5478Y3764*
X5480Y3774*
Y3775*
G37*
G36*
X5435D02*
X5399D01*
Y3774*
X5401Y3764*
X5407Y3754*
X5414Y3747*
X5424Y3741*
X5434Y3739*
X5435*
Y3775*
G37*
G36*
X4838Y3753D02*
Y3731D01*
X4860*
X4858Y3736*
X4855Y3743*
X4850Y3748*
X4843Y3751*
X4838Y3753*
G37*
G36*
X4828D02*
X4822Y3751D01*
X4815Y3748*
X4810Y3743*
X4807Y3736*
X4805Y3731*
X4828*
Y3753*
G37*
G36*
X4350Y3745D02*
X4350D01*
Y3710*
X4385*
Y3710*
X4382Y3720*
X4377Y3729*
X4369Y3737*
X4360Y3742*
X4350Y3745*
G37*
G36*
X4340D02*
X4339D01*
X4329Y3742*
X4320Y3737*
X4312Y3729*
X4307Y3720*
X4305Y3710*
Y3710*
X4340*
Y3745*
G37*
G36*
X595D02*
X560D01*
Y3710*
X560*
X570Y3712*
X579Y3717*
X587Y3725*
X592Y3734*
X595Y3744*
Y3745*
G37*
G36*
X550D02*
X515D01*
Y3744*
X517Y3734*
X522Y3725*
X530Y3717*
X539Y3712*
X549Y3710*
X550*
Y3745*
G37*
G36*
X4860Y3721D02*
X4838D01*
Y3698*
X4843Y3700*
X4850Y3703*
X4855Y3708*
X4858Y3715*
X4860Y3721*
G37*
G36*
X4828D02*
X4805D01*
X4807Y3715*
X4810Y3708*
X4815Y3703*
X4822Y3700*
X4828Y3698*
Y3721*
G37*
G36*
X3957Y3924D02*
X3938D01*
X3920Y3921*
X3902Y3915*
X3886Y3907*
X3871Y3896*
X3857Y3883*
X3846Y3868*
X3838Y3851*
X3832Y3833*
X3829Y3815*
Y3796*
X3832Y3778*
X3838Y3760*
X3846Y3744*
X3857Y3729*
X3871Y3715*
X3886Y3704*
X3902Y3696*
X3920Y3690*
X3938Y3687*
X3957*
X3975Y3690*
X3993Y3696*
X4010Y3704*
X4025Y3715*
X4038Y3729*
X4049Y3744*
X4057Y3760*
X4063Y3778*
X4066Y3796*
Y3815*
X4063Y3833*
X4057Y3851*
X4049Y3868*
X4038Y3883*
X4025Y3896*
X4010Y3907*
X3993Y3915*
X3975Y3921*
X3957Y3924*
G37*
G36*
X3205Y3923D02*
X3187D01*
X3168Y3920*
X3151Y3914*
X3134Y3906*
X3119Y3895*
X3106Y3882*
X3095Y3867*
X3086Y3850*
X3080Y3832*
X3078Y3814*
Y3795*
X3080Y3777*
X3086Y3759*
X3095Y3742*
X3106Y3727*
X3119Y3714*
X3134Y3703*
X3151Y3695*
X3168Y3689*
X3187Y3686*
X3205*
X3224Y3689*
X3241Y3695*
X3258Y3703*
X3273Y3714*
X3286Y3727*
X3297Y3742*
X3306Y3759*
X3311Y3777*
X3314Y3795*
Y3814*
X3311Y3832*
X3306Y3850*
X3297Y3867*
X3286Y3882*
X3273Y3895*
X3258Y3906*
X3241Y3914*
X3224Y3920*
X3205Y3923*
G37*
G36*
X2450D02*
X2432D01*
X2413Y3920*
X2395Y3914*
X2379Y3906*
X2364Y3895*
X2351Y3882*
X2340Y3867*
X2331Y3850*
X2325Y3832*
X2322Y3814*
Y3795*
X2325Y3777*
X2331Y3759*
X2340Y3742*
X2351Y3727*
X2364Y3714*
X2379Y3703*
X2395Y3695*
X2413Y3689*
X2432Y3686*
X2450*
X2469Y3689*
X2486Y3695*
X2503Y3703*
X2518Y3714*
X2531Y3727*
X2542Y3742*
X2551Y3759*
X2556Y3777*
X2559Y3795*
Y3814*
X2556Y3832*
X2551Y3850*
X2542Y3867*
X2531Y3882*
X2518Y3895*
X2503Y3906*
X2486Y3914*
X2469Y3920*
X2450Y3923*
G37*
G36*
X3507Y3919D02*
X3488D01*
X3470Y3916*
X3452Y3910*
X3436Y3902*
X3421Y3891*
X3407Y3878*
X3396Y3863*
X3388Y3846*
X3382Y3828*
X3379Y3810*
Y3791*
X3382Y3773*
X3388Y3755*
X3396Y3739*
X3407Y3724*
X3421Y3710*
X3436Y3699*
X3452Y3691*
X3470Y3685*
X3488Y3682*
X3507*
X3525Y3685*
X3543Y3691*
X3560Y3699*
X3575Y3710*
X3588Y3724*
X3599Y3739*
X3607Y3755*
X3613Y3773*
X3616Y3791*
Y3810*
X3613Y3828*
X3607Y3846*
X3599Y3863*
X3588Y3878*
X3575Y3891*
X3560Y3902*
X3543Y3910*
X3525Y3916*
X3507Y3919*
G37*
G36*
X2755Y3918D02*
X2737D01*
X2718Y3915*
X2701Y3909*
X2684Y3901*
X2669Y3890*
X2656Y3877*
X2645Y3862*
X2636Y3845*
X2630Y3827*
X2628Y3809*
Y3790*
X2630Y3772*
X2636Y3754*
X2645Y3737*
X2656Y3722*
X2669Y3709*
X2684Y3698*
X2701Y3690*
X2718Y3684*
X2737Y3681*
X2755*
X2774Y3684*
X2791Y3690*
X2808Y3698*
X2823Y3709*
X2836Y3722*
X2847Y3737*
X2856Y3754*
X2861Y3772*
X2864Y3790*
Y3809*
X2861Y3827*
X2856Y3845*
X2847Y3862*
X2836Y3877*
X2823Y3890*
X2808Y3901*
X2791Y3909*
X2774Y3915*
X2755Y3918*
G37*
G36*
X2000D02*
X1982D01*
X1963Y3915*
X1945Y3909*
X1929Y3901*
X1914Y3890*
X1901Y3877*
X1890Y3862*
X1881Y3845*
X1875Y3827*
X1872Y3809*
Y3790*
X1875Y3772*
X1881Y3754*
X1890Y3737*
X1901Y3722*
X1914Y3709*
X1929Y3698*
X1945Y3690*
X1963Y3684*
X1982Y3681*
X2000*
X2019Y3684*
X2036Y3690*
X2053Y3698*
X2068Y3709*
X2081Y3722*
X2092Y3737*
X2101Y3754*
X2106Y3772*
X2109Y3790*
Y3809*
X2106Y3827*
X2101Y3845*
X2092Y3862*
X2081Y3877*
X2068Y3890*
X2053Y3901*
X2036Y3909*
X2019Y3915*
X2000Y3918*
G37*
G36*
X4385Y3700D02*
X4350D01*
Y3665*
X4350*
X4360Y3667*
X4369Y3672*
X4377Y3680*
X4382Y3689*
X4385Y3699*
Y3700*
G37*
G36*
X4340D02*
X4305D01*
Y3699*
X4307Y3689*
X4312Y3680*
X4320Y3672*
X4329Y3667*
X4339Y3665*
X4340*
Y3700*
G37*
G36*
X2781Y3669D02*
Y3646D01*
X2803*
X2802Y3652*
X2798Y3658*
X2793Y3663*
X2786Y3667*
X2781Y3669*
G37*
G36*
X2771D02*
X2765Y3667D01*
X2759Y3663*
X2753Y3658*
X2750Y3652*
X2748Y3646*
X2771*
Y3669*
G37*
G36*
X6010Y3680D02*
X6010D01*
Y3645*
X6045*
Y3645*
X6042Y3655*
X6037Y3664*
X6029Y3672*
X6020Y3677*
X6010Y3680*
G37*
G36*
X6000D02*
X5999D01*
X5989Y3677*
X5980Y3672*
X5972Y3664*
X5967Y3655*
X5965Y3645*
Y3645*
X6000*
Y3680*
G37*
G36*
X3525Y3666D02*
Y3644D01*
X3547*
X3545Y3649*
X3542Y3656*
X3537Y3661*
X3530Y3664*
X3525Y3666*
G37*
G36*
X3515D02*
X3509Y3664D01*
X3502Y3661*
X3497Y3656*
X3494Y3649*
X3492Y3644*
X3515*
Y3666*
G37*
G36*
X2014D02*
Y3644D01*
X2036*
X2035Y3649*
X2031Y3656*
X2026Y3661*
X2020Y3664*
X2014Y3666*
G37*
G36*
X2004D02*
X1998Y3664D01*
X1992Y3661*
X1987Y3656*
X1983Y3649*
X1981Y3644*
X2004*
Y3666*
G37*
G36*
X5064Y3815D02*
X5047D01*
X5030Y3812*
X5014Y3805*
X4999Y3795*
X4987Y3783*
X4977Y3768*
X4970Y3752*
X4967Y3735*
Y3717*
X4970Y3700*
X4977Y3684*
X4987Y3670*
X4999Y3657*
X5014Y3647*
X5030Y3641*
X5047Y3637*
X5064*
X5082Y3641*
X5098Y3647*
X5112Y3657*
X5125Y3670*
X5135Y3684*
X5141Y3700*
X5145Y3717*
Y3735*
X5141Y3752*
X5135Y3768*
X5125Y3783*
X5112Y3795*
X5098Y3805*
X5082Y3812*
X5064Y3815*
G37*
G36*
X4590D02*
X4573D01*
X4556Y3812*
X4540Y3805*
X4525Y3795*
X4513Y3783*
X4503Y3768*
X4496Y3752*
X4493Y3735*
Y3717*
X4496Y3700*
X4503Y3684*
X4513Y3670*
X4525Y3657*
X4540Y3647*
X4556Y3641*
X4573Y3637*
X4590*
X4608Y3641*
X4624Y3647*
X4638Y3657*
X4651Y3670*
X4660Y3684*
X4667Y3700*
X4671Y3717*
Y3735*
X4667Y3752*
X4660Y3768*
X4651Y3783*
X4638Y3795*
X4624Y3805*
X4608Y3812*
X4590Y3815*
G37*
G36*
X4775Y3657D02*
Y3625D01*
X4807*
X4805Y3634*
X4800Y3643*
X4793Y3650*
X4784Y3655*
X4775Y3657*
G37*
G36*
X4765D02*
X4755Y3655D01*
X4746Y3650*
X4739Y3643*
X4734Y3634*
X4732Y3625*
X4765*
Y3657*
G37*
G36*
X1200Y3655D02*
X1200D01*
Y3620*
X1235*
Y3620*
X1232Y3630*
X1227Y3639*
X1219Y3647*
X1210Y3652*
X1200Y3655*
G37*
G36*
X1190D02*
X1189D01*
X1179Y3652*
X1170Y3647*
X1162Y3639*
X1157Y3630*
X1155Y3620*
Y3620*
X1190*
Y3655*
G37*
G36*
X2803Y3636D02*
X2781D01*
Y3614*
X2786Y3615*
X2793Y3619*
X2798Y3624*
X2802Y3630*
X2803Y3636*
G37*
G36*
X2771D02*
X2748D01*
X2750Y3630*
X2753Y3624*
X2759Y3619*
X2765Y3615*
X2771Y3614*
Y3636*
G37*
G36*
X3547Y3634D02*
X3525D01*
Y3611*
X3530Y3613*
X3537Y3616*
X3542Y3621*
X3545Y3628*
X3547Y3634*
G37*
G36*
X3515D02*
X3492D01*
X3494Y3628*
X3497Y3621*
X3502Y3616*
X3509Y3613*
X3515Y3611*
Y3634*
G37*
G36*
X2036D02*
X2014D01*
Y3611*
X2020Y3613*
X2026Y3616*
X2031Y3621*
X2035Y3628*
X2036Y3634*
G37*
G36*
X2004D02*
X1981D01*
X1983Y3628*
X1987Y3621*
X1992Y3616*
X1998Y3613*
X2004Y3611*
Y3634*
G37*
G36*
X6045Y3635D02*
X6010D01*
Y3600*
X6010*
X6020Y3602*
X6029Y3607*
X6037Y3615*
X6042Y3624*
X6045Y3634*
Y3635*
G37*
G36*
X6000D02*
X5965D01*
Y3634*
X5967Y3624*
X5972Y3615*
X5980Y3607*
X5989Y3602*
X5999Y3600*
X6000*
Y3635*
G37*
G36*
X1235Y3610D02*
X1200D01*
Y3575*
X1200*
X1210Y3577*
X1219Y3582*
X1227Y3590*
X1232Y3599*
X1235Y3609*
Y3610*
G37*
G36*
X1190D02*
X1155D01*
Y3609*
X1157Y3599*
X1162Y3590*
X1170Y3582*
X1179Y3577*
X1189Y3575*
X1190*
Y3610*
G37*
G36*
X3906Y3599D02*
X3893D01*
X3880Y3596*
X3869Y3589*
X3860Y3580*
X3853Y3569*
X3852Y3564*
X3847*
X3846Y3569*
X3839Y3580*
X3830Y3589*
X3819Y3596*
X3806Y3599*
X3793*
X3780Y3596*
X3769Y3589*
X3760Y3580*
X3753Y3569*
X3752Y3564*
X3747*
X3746Y3569*
X3739Y3580*
X3730Y3589*
X3719Y3596*
X3706Y3599*
X3693*
X3680Y3596*
X3669Y3589*
X3660Y3580*
X3653Y3569*
X3652Y3564*
X3647*
X3646Y3569*
X3639Y3580*
X3630Y3589*
X3619Y3596*
X3606Y3599*
X3593*
X3580Y3596*
X3569Y3589*
X3560Y3580*
X3553Y3569*
X3550Y3556*
Y3543*
X3553Y3530*
X3560Y3519*
X3569Y3510*
X3580Y3503*
X3593Y3500*
X3606*
X3619Y3503*
X3630Y3510*
X3639Y3519*
X3646Y3530*
X3647Y3535*
X3652*
X3653Y3530*
X3660Y3519*
X3669Y3510*
X3675Y3506*
Y3486*
X3670Y3483*
X3665Y3486*
X3655Y3489*
X3655*
Y3450*
Y3410*
X3655*
X3665Y3413*
X3670Y3416*
X3675Y3413*
Y3298*
X3660Y3282*
X3591*
Y3157*
X3654*
X3654Y3156*
Y3116*
X3604*
Y3084*
X3585*
Y3108*
X3547*
X3540Y3109*
X3534Y3108*
X3494*
X3489Y3108*
X3476Y3110*
X3400*
X3386Y3108*
X3374Y3103*
X3364Y3095*
X3356Y3085*
X3351Y3073*
X3349Y3060*
X3351Y3046*
X3356Y3034*
X3364Y3024*
X3374Y3016*
X3386Y3011*
X3400Y3009*
X3476*
X3485Y3010*
X3490Y3006*
Y2974*
X3490Y2970*
Y2967*
X3491Y2964*
X3492Y2961*
X3493Y2957*
X3494Y2954*
X3496Y2951*
X3497Y2948*
X3499Y2946*
X3500Y2943*
X3503Y2941*
X3505Y2938*
X3507Y2936*
X3510Y2934*
X3513Y2932*
X3515Y2930*
X3518Y2929*
X3521Y2927*
X3524Y2926*
X3527Y2925*
X3531Y2924*
X3534Y2924*
X3537*
X3540Y2923*
X3544Y2924*
X3547*
X3550Y2924*
X3554Y2925*
X3557Y2926*
X3560Y2927*
X3563Y2929*
X3566Y2930*
X3568Y2932*
X3571Y2934*
X3573Y2936*
X3576Y2938*
X3578Y2941*
X3580Y2943*
X3582Y2946*
X3584Y2948*
X3585Y2951*
X3587Y2954*
X3588Y2957*
X3589Y2961*
X3590Y2964*
X3590Y2967*
Y2970*
X3591Y2974*
Y3035*
X3604*
Y2998*
X3765*
Y3008*
X3780*
Y3057*
Y3106*
X3765*
Y3116*
X3765*
Y3132*
X3789Y3157*
X3848*
Y3282*
X3781*
X3774Y3290*
Y3406*
X3780Y3410*
X3789Y3419*
X3796Y3430*
X3797Y3435*
X3802*
X3803Y3430*
X3810Y3419*
X3819Y3410*
X3830Y3403*
X3843Y3400*
X3856*
X3869Y3403*
X3880Y3410*
X3889Y3419*
X3896Y3430*
X3899Y3443*
Y3456*
X3896Y3469*
X3889Y3480*
X3880Y3489*
X3869Y3496*
X3856Y3499*
X3843*
X3830Y3496*
X3819Y3489*
X3810Y3480*
X3803Y3469*
X3802Y3464*
X3797*
X3796Y3469*
X3789Y3480*
X3780Y3489*
X3769Y3496*
X3756Y3499*
X3743*
X3730Y3496*
X3728Y3494*
X3724Y3497*
Y3506*
X3730Y3510*
X3739Y3519*
X3746Y3530*
X3747Y3535*
X3752*
X3753Y3530*
X3760Y3519*
X3769Y3510*
X3780Y3503*
X3793Y3500*
X3806*
X3819Y3503*
X3830Y3510*
X3839Y3519*
X3846Y3530*
X3847Y3535*
X3852*
X3853Y3530*
X3860Y3519*
X3869Y3510*
X3880Y3503*
X3893Y3500*
X3906*
X3919Y3503*
X3930Y3510*
X3939Y3519*
X3946Y3530*
X3949Y3543*
Y3556*
X3946Y3569*
X3939Y3580*
X3930Y3589*
X3919Y3596*
X3906Y3599*
G37*
G36*
X3154Y3598D02*
X3141D01*
X3129Y3594*
X3117Y3588*
X3108Y3579*
X3102Y3567*
X3100Y3563*
X3095*
X3094Y3567*
X3087Y3579*
X3078Y3588*
X3067Y3594*
X3054Y3598*
X3041*
X3029Y3594*
X3017Y3588*
X3008Y3579*
X3002Y3567*
X3000Y3563*
X2995*
X2994Y3567*
X2987Y3579*
X2978Y3588*
X2967Y3594*
X2954Y3598*
X2941*
X2929Y3594*
X2917Y3588*
X2908Y3579*
X2902Y3567*
X2900Y3563*
X2895*
X2894Y3567*
X2887Y3579*
X2878Y3588*
X2867Y3594*
X2854Y3598*
X2841*
X2829Y3594*
X2817Y3588*
X2808Y3579*
X2802Y3567*
X2798Y3555*
Y3542*
X2802Y3529*
X2808Y3518*
X2817Y3509*
X2829Y3502*
X2841Y3499*
X2854*
X2867Y3502*
X2878Y3509*
X2887Y3518*
X2894Y3529*
X2895Y3534*
X2900*
X2902Y3529*
X2908Y3518*
X2917Y3509*
X2923Y3505*
Y3485*
X2918Y3482*
X2913Y3485*
X2903Y3488*
X2903*
Y3448*
Y3409*
X2903*
X2913Y3411*
X2918Y3415*
X2923Y3412*
Y3288*
X2907Y3272*
X2837*
Y3147*
X2899*
X2921Y3125*
Y3106*
X2871*
Y3082*
X2833*
Y3098*
X2742*
Y3097*
X2737Y3094*
X2727Y3098*
X2714Y3100*
X2645*
X2631Y3098*
X2619Y3093*
X2609Y3085*
X2601Y3075*
X2596Y3063*
X2594Y3050*
X2596Y3036*
X2601Y3024*
X2609Y3014*
X2619Y3006*
X2631Y3001*
X2645Y2999*
X2714*
X2727Y3001*
X2737Y3005*
X2738Y3004*
X2742Y3001*
X2742Y2996*
X2738Y2989*
X2735Y2976*
Y2963*
X2738Y2950*
X2744Y2939*
X2754Y2929*
X2765Y2923*
X2778Y2920*
X2791*
X2804Y2923*
X2815Y2929*
X2825Y2939*
X2831Y2950*
X2835Y2963*
Y2976*
X2831Y2989*
X2827Y2996*
X2830Y3001*
X2833*
Y3017*
X2871*
Y2988*
X3031*
Y2998*
X3046*
Y3047*
Y3096*
X3031*
Y3106*
X3031*
Y3134*
X3044Y3147*
X3105*
Y3272*
X3036*
X3022Y3286*
Y3405*
X3028Y3409*
X3037Y3418*
X3044Y3429*
X3045Y3434*
X3050*
X3052Y3429*
X3058Y3418*
X3067Y3409*
X3079Y3402*
X3091Y3399*
X3104*
X3117Y3402*
X3128Y3409*
X3137Y3418*
X3144Y3429*
X3147Y3442*
Y3455*
X3144Y3467*
X3137Y3479*
X3128Y3488*
X3117Y3494*
X3104Y3498*
X3091*
X3079Y3494*
X3067Y3488*
X3058Y3479*
X3052Y3467*
X3050Y3463*
X3045*
X3044Y3467*
X3037Y3479*
X3028Y3488*
X3017Y3494*
X3004Y3498*
X2991*
X2979Y3494*
X2977Y3493*
X2972Y3496*
Y3505*
X2978Y3509*
X2987Y3518*
X2994Y3529*
X2995Y3534*
X3000*
X3002Y3529*
X3008Y3518*
X3017Y3509*
X3029Y3502*
X3041Y3499*
X3054*
X3067Y3502*
X3078Y3509*
X3087Y3518*
X3094Y3529*
X3095Y3534*
X3100*
X3102Y3529*
X3108Y3518*
X3117Y3509*
X3129Y3502*
X3141Y3499*
X3154*
X3167Y3502*
X3178Y3509*
X3187Y3518*
X3194Y3529*
X3197Y3542*
Y3555*
X3194Y3567*
X3187Y3579*
X3178Y3588*
X3167Y3594*
X3154Y3598*
G37*
G36*
X2399D02*
X2386D01*
X2374Y3594*
X2362Y3588*
X2353Y3579*
X2347Y3567*
X2345Y3563*
X2340*
X2339Y3567*
X2332Y3579*
X2323Y3588*
X2312Y3594*
X2299Y3598*
X2286*
X2274Y3594*
X2262Y3588*
X2253Y3579*
X2247Y3567*
X2245Y3563*
X2240*
X2239Y3567*
X2232Y3579*
X2223Y3588*
X2212Y3594*
X2199Y3598*
X2186*
X2174Y3594*
X2162Y3588*
X2153Y3579*
X2147Y3567*
X2145Y3563*
X2140*
X2139Y3567*
X2132Y3579*
X2123Y3588*
X2112Y3594*
X2099Y3598*
X2086*
X2074Y3594*
X2062Y3588*
X2053Y3579*
X2047Y3567*
X2043Y3555*
Y3542*
X2047Y3529*
X2053Y3518*
X2062Y3509*
X2074Y3502*
X2086Y3499*
X2099*
X2112Y3502*
X2123Y3509*
X2132Y3518*
X2139Y3529*
X2140Y3534*
X2145*
X2147Y3529*
X2153Y3518*
X2162Y3509*
X2168Y3505*
Y3485*
X2163Y3482*
X2158Y3485*
X2148Y3488*
X2148*
Y3448*
Y3409*
X2148*
X2158Y3411*
X2163Y3415*
X2168Y3412*
Y3293*
X2157Y3282*
X2089*
Y3157*
X2150*
X2156Y3151*
Y3116*
X2105*
Y3092*
X2078*
Y3108*
X1987*
Y3104*
X1982Y3100*
X1980Y3101*
X1969Y3102*
X1890*
X1878Y3101*
X1868Y3097*
X1859Y3090*
X1852Y3081*
X1848Y3071*
X1847Y3060*
X1848Y3048*
X1852Y3038*
X1859Y3029*
X1868Y3022*
X1878Y3018*
X1890Y3017*
X1969*
X1980Y3018*
X1982Y3019*
X1987Y3016*
X1987Y3011*
X1988Y3006*
X1986Y3002*
X1983Y2989*
Y2976*
X1986Y2963*
X1993Y2952*
X2002Y2943*
X2013Y2936*
X2026Y2933*
X2039*
X2052Y2936*
X2063Y2943*
X2073Y2952*
X2079Y2963*
X2083Y2976*
Y2989*
X2079Y3002*
X2077Y3006*
X2078Y3011*
Y3027*
X2105*
Y2998*
X2266*
Y3008*
X2281*
Y3057*
Y3106*
X2266*
Y3116*
X2266*
Y3154*
X2269Y3157*
X2330*
Y3282*
X2267*
Y3405*
X2273Y3409*
X2282Y3418*
X2289Y3429*
X2290Y3434*
X2295*
X2297Y3429*
X2303Y3418*
X2312Y3409*
X2324Y3402*
X2336Y3399*
X2349*
X2362Y3402*
X2373Y3409*
X2382Y3418*
X2389Y3429*
X2392Y3442*
Y3455*
X2389Y3467*
X2382Y3479*
X2373Y3488*
X2362Y3494*
X2349Y3498*
X2336*
X2324Y3494*
X2312Y3488*
X2303Y3479*
X2297Y3467*
X2295Y3463*
X2290*
X2289Y3467*
X2282Y3479*
X2273Y3488*
X2262Y3494*
X2249Y3498*
X2236*
X2224Y3494*
X2221Y3493*
X2217Y3496*
Y3505*
X2223Y3509*
X2232Y3518*
X2239Y3529*
X2240Y3534*
X2245*
X2247Y3529*
X2253Y3518*
X2262Y3509*
X2274Y3502*
X2286Y3499*
X2299*
X2312Y3502*
X2323Y3509*
X2332Y3518*
X2339Y3529*
X2340Y3534*
X2345*
X2347Y3529*
X2353Y3518*
X2362Y3509*
X2374Y3502*
X2386Y3499*
X2399*
X2412Y3502*
X2423Y3509*
X2432Y3518*
X2439Y3529*
X2442Y3542*
Y3555*
X2439Y3567*
X2432Y3579*
X2423Y3588*
X2412Y3594*
X2399Y3598*
G37*
G36*
X4145Y3595D02*
X4145D01*
Y3560*
X4180*
Y3560*
X4177Y3570*
X4172Y3579*
X4164Y3587*
X4155Y3592*
X4145Y3595*
G37*
G36*
X4135D02*
X4134D01*
X4124Y3592*
X4115Y3587*
X4107Y3579*
X4102Y3570*
X4100Y3560*
Y3560*
X4135*
Y3595*
G37*
G36*
X4874Y3667D02*
X4862D01*
X4849Y3664*
X4838Y3658*
X4830Y3649*
X4823Y3638*
X4820Y3626*
Y3613*
X4823Y3601*
X4830Y3590*
X4836Y3584*
X4838Y3580*
X4836Y3577*
X4830Y3570*
X4823Y3559*
X4822Y3556*
X4817Y3557*
Y3589*
X4799*
X4797Y3594*
X4800Y3596*
X4805Y3605*
X4807Y3615*
X4732*
X4734Y3605*
X4739Y3596*
X4742Y3594*
X4740Y3589*
X4722*
Y3493*
X4817*
Y3525*
X4822Y3525*
X4823Y3522*
X4830Y3511*
X4838Y3502*
X4849Y3496*
X4862Y3493*
X4874*
X4886Y3496*
X4897Y3502*
X4906Y3511*
X4913Y3522*
X4916Y3534*
Y3547*
X4913Y3559*
X4906Y3570*
X4900Y3577*
X4898Y3580*
X4900Y3584*
X4906Y3590*
X4913Y3601*
X4916Y3613*
Y3626*
X4913Y3638*
X4906Y3649*
X4897Y3658*
X4886Y3664*
X4874Y3667*
G37*
G36*
X1780Y3590D02*
X1780D01*
Y3555*
X1815*
Y3555*
X1812Y3565*
X1807Y3574*
X1799Y3582*
X1790Y3587*
X1780Y3590*
G37*
G36*
X1770D02*
X1769D01*
X1759Y3587*
X1750Y3582*
X1742Y3574*
X1737Y3565*
X1735Y3555*
Y3555*
X1770*
Y3590*
G37*
G36*
X4180Y3550D02*
X4145D01*
Y3515*
X4145*
X4155Y3517*
X4164Y3522*
X4172Y3530*
X4177Y3539*
X4180Y3549*
Y3550*
G37*
G36*
X4135D02*
X4100D01*
Y3549*
X4102Y3539*
X4107Y3530*
X4115Y3522*
X4124Y3517*
X4134Y3515*
X4135*
Y3550*
G37*
G36*
X1815Y3545D02*
X1780D01*
Y3510*
X1780*
X1790Y3512*
X1799Y3517*
X1807Y3525*
X1812Y3534*
X1815Y3544*
Y3545*
G37*
G36*
X1770D02*
X1735D01*
Y3544*
X1737Y3534*
X1742Y3525*
X1750Y3517*
X1759Y3512*
X1769Y3510*
X1770*
Y3545*
G37*
G36*
X4335Y3525D02*
X4335D01*
Y3490*
X4370*
Y3490*
X4367Y3500*
X4362Y3509*
X4354Y3517*
X4345Y3522*
X4335Y3525*
G37*
G36*
X4325D02*
X4324D01*
X4314Y3522*
X4305Y3517*
X4297Y3509*
X4292Y3500*
X4290Y3490*
Y3490*
X4325*
Y3525*
G37*
G36*
X1115Y3500D02*
X1115D01*
Y3465*
X1150*
Y3465*
X1147Y3475*
X1142Y3484*
X1134Y3492*
X1125Y3497*
X1115Y3500*
G37*
G36*
X1105D02*
X1104D01*
X1094Y3497*
X1085Y3492*
X1077Y3484*
X1072Y3475*
X1070Y3465*
Y3465*
X1105*
Y3500*
G37*
G36*
X3645Y3489D02*
X3644D01*
X3634Y3486*
X3625Y3481*
X3618Y3474*
X3613Y3465*
X3610Y3455*
Y3455*
X3645*
Y3489*
G37*
G36*
X2893Y3488D02*
X2893D01*
X2883Y3485*
X2874Y3480*
X2866Y3473*
X2861Y3464*
X2858Y3454*
Y3453*
X2893*
Y3488*
G37*
G36*
X2138D02*
X2137D01*
X2127Y3485*
X2118Y3480*
X2111Y3473*
X2106Y3464*
X2103Y3454*
Y3453*
X2138*
Y3488*
G37*
G36*
X4370Y3480D02*
X4335D01*
Y3445*
X4335*
X4345Y3447*
X4354Y3452*
X4362Y3460*
X4367Y3469*
X4370Y3479*
Y3480*
G37*
G36*
X4325D02*
X4290D01*
Y3479*
X4292Y3469*
X4297Y3460*
X4305Y3452*
X4314Y3447*
X4324Y3445*
X4325*
Y3480*
G37*
G36*
X1150Y3455D02*
X1115D01*
Y3420*
X1115*
X1125Y3422*
X1134Y3427*
X1142Y3435*
X1147Y3444*
X1150Y3454*
Y3455*
G37*
G36*
X1105D02*
X1070D01*
Y3454*
X1072Y3444*
X1077Y3435*
X1085Y3427*
X1094Y3422*
X1104Y3420*
X1105*
Y3455*
G37*
G36*
X3645Y3445D02*
X3610D01*
Y3444*
X3613Y3434*
X3618Y3425*
X3625Y3418*
X3634Y3413*
X3644Y3410*
X3645*
Y3445*
G37*
G36*
X2893Y3443D02*
X2858D01*
Y3443*
X2861Y3433*
X2866Y3424*
X2874Y3417*
X2883Y3411*
X2893Y3409*
X2893*
Y3443*
G37*
G36*
X2138D02*
X2103D01*
Y3443*
X2106Y3433*
X2111Y3424*
X2118Y3417*
X2127Y3411*
X2137Y3409*
X2138*
Y3443*
G37*
G36*
X3556Y3499D02*
X3543D01*
X3530Y3496*
X3519Y3489*
X3510Y3480*
X3503Y3469*
X3500Y3456*
Y3443*
X3503Y3430*
X3510Y3419*
X3519Y3410*
X3530Y3403*
X3543Y3400*
X3556*
X3569Y3403*
X3580Y3410*
X3589Y3419*
X3596Y3430*
X3599Y3443*
Y3456*
X3596Y3469*
X3589Y3480*
X3580Y3489*
X3569Y3496*
X3556Y3499*
G37*
G36*
X4683Y3474D02*
X4674D01*
X4664Y3472*
X4655Y3467*
X4648Y3460*
X4643Y3451*
X4641Y3441*
Y3432*
X4643Y3422*
X4648Y3413*
X4655Y3406*
X4664Y3401*
X4674Y3399*
X4683*
X4693Y3401*
X4702Y3406*
X4709Y3413*
X4714Y3422*
X4716Y3432*
Y3441*
X4714Y3451*
X4709Y3460*
X4702Y3467*
X4693Y3472*
X4683Y3474*
G37*
G36*
X2804Y3498D02*
X2791D01*
X2779Y3494*
X2767Y3488*
X2758Y3479*
X2752Y3467*
X2748Y3455*
Y3442*
X2752Y3429*
X2758Y3418*
X2767Y3409*
X2779Y3402*
X2791Y3399*
X2804*
X2817Y3402*
X2828Y3409*
X2837Y3418*
X2844Y3429*
X2847Y3442*
Y3455*
X2844Y3467*
X2837Y3479*
X2828Y3488*
X2817Y3494*
X2804Y3498*
G37*
G36*
X2049D02*
X2036D01*
X2024Y3494*
X2012Y3488*
X2003Y3479*
X1997Y3467*
X1993Y3455*
Y3442*
X1997Y3429*
X2003Y3418*
X2012Y3409*
X2024Y3402*
X2036Y3399*
X2049*
X2062Y3402*
X2073Y3409*
X2082Y3418*
X2089Y3429*
X2092Y3442*
Y3455*
X2089Y3467*
X2082Y3479*
X2073Y3488*
X2062Y3494*
X2049Y3498*
G37*
G36*
X6030Y3425D02*
X6030D01*
Y3390*
X6065*
Y3390*
X6062Y3400*
X6057Y3409*
X6049Y3417*
X6040Y3422*
X6030Y3425*
G37*
G36*
X6020D02*
X6019D01*
X6009Y3422*
X6000Y3417*
X5992Y3409*
X5987Y3400*
X5985Y3390*
Y3390*
X6020*
Y3425*
G37*
G36*
X909Y3873D02*
X896Y3872D01*
X884Y3868*
X872Y3862*
X862Y3854*
X854Y3844*
X848Y3833*
X845Y3821*
X843Y3808*
Y3385*
X742*
X566Y3561*
X556Y3569*
X545Y3575*
X532Y3579*
X520Y3580*
X507Y3579*
X495Y3575*
X483Y3569*
X473Y3561*
X465Y3551*
X459Y3540*
X455Y3528*
X454Y3515*
X455Y3502*
X459Y3490*
X465Y3478*
X473Y3469*
X669Y3273*
X678Y3265*
X690Y3259*
X702Y3255*
X715Y3254*
X887*
X900Y3255*
X912Y3259*
X924Y3265*
X927Y3268*
X986*
Y3371*
X974*
Y3808*
X973Y3821*
X969Y3833*
X963Y3844*
X955Y3854*
X945Y3862*
X934Y3868*
X921Y3872*
X909Y3873*
G37*
G36*
X4145Y3390D02*
X4145D01*
Y3355*
X4180*
Y3355*
X4177Y3365*
X4172Y3374*
X4164Y3382*
X4155Y3387*
X4145Y3390*
G37*
G36*
X4135D02*
X4134D01*
X4124Y3387*
X4115Y3382*
X4107Y3374*
X4102Y3365*
X4100Y3355*
Y3355*
X4135*
Y3390*
G37*
G36*
X1507Y4052D02*
X1497Y4051D01*
X1489Y4047*
X1482Y4041*
X1476Y4034*
X1472Y4026*
X1471Y4017*
X1472Y4009*
Y3956*
X1473Y3947*
X1474Y3946*
Y3922*
X1493*
X1494Y3922*
X1492Y3917*
X1464*
Y3854*
X1461*
Y3780*
Y3715*
X1483*
Y3698*
X1302Y3517*
X1297Y3509*
X1295Y3500*
Y3351*
X1290Y3349*
X1285Y3355*
X1275Y3363*
X1263Y3368*
X1250Y3370*
X1182*
X1168Y3368*
X1156Y3363*
X1153Y3361*
X1137*
Y3320*
Y3278*
X1153*
X1156Y3276*
X1168Y3271*
X1182Y3269*
X1250*
X1263Y3271*
X1275Y3276*
X1285Y3284*
X1290Y3290*
X1295Y3288*
Y2890*
X1227Y2821*
X1203*
Y2866*
X1076*
Y2847*
X973*
Y2866*
X846*
Y2728*
X859*
Y2690*
X861Y2676*
X866Y2664*
X874Y2654*
X929Y2599*
Y2531*
X897*
Y2522*
X880*
X868Y2521*
X858Y2517*
X849Y2510*
X785Y2445*
X751*
Y2442*
X610*
X598Y2441*
X588Y2437*
X583Y2432*
X557*
Y2347*
X642*
Y2357*
X751*
Y2354*
X755*
X759Y2349*
X758Y2347*
X757Y2336*
X758Y2325*
X761Y2318*
Y2300*
X776*
X778Y2299*
X788Y2295*
X800Y2293*
X856*
X867Y2295*
X877Y2299*
X886Y2306*
X893Y2315*
X897Y2325*
X899Y2336*
X897Y2347*
X893Y2357*
X886Y2366*
X877Y2373*
X867Y2377*
X856Y2379*
X848*
Y2388*
X892Y2431*
X897Y2429*
Y2428*
X934*
Y2395*
X935Y2391*
Y2388*
X935Y2385*
X936Y2381*
X937Y2378*
X938Y2375*
X940Y2372*
X941Y2369*
X943Y2367*
X944Y2364*
X947Y2361*
X949Y2359*
X951Y2357*
X954Y2354*
X957Y2353*
X959Y2351*
X962Y2350*
X965Y2348*
X968Y2347*
X971Y2346*
X975Y2345*
X978Y2345*
X981*
X985Y2344*
X988Y2345*
X991*
X994Y2345*
X998Y2346*
X1001Y2347*
X1004Y2348*
X1007Y2350*
X1010Y2351*
X1012Y2353*
X1015Y2354*
X1018Y2357*
X1020Y2359*
X1022Y2361*
X1025Y2364*
X1026Y2367*
X1028Y2369*
X1029Y2372*
X1031Y2375*
X1032Y2378*
X1033Y2381*
X1034Y2385*
X1035Y2388*
Y2391*
X1035Y2395*
Y2428*
X1062*
Y2531*
X1030*
Y2620*
X1028Y2633*
X1023Y2645*
X1015Y2655*
X960Y2710*
Y2728*
X973*
Y2747*
X1076*
Y2728*
X1203*
Y2773*
X1237*
X1246Y2774*
X1254Y2780*
X1337Y2862*
X1342Y2870*
X1344Y2880*
Y3256*
X1348Y3258*
X1381*
Y3142*
X1382Y3129*
X1387Y3117*
X1395Y3106*
X1436Y3066*
Y2991*
X1469*
Y2851*
X1464Y2849*
X1459Y2856*
X1458Y2857*
Y2878*
X1434*
Y2825*
X1424*
Y2878*
X1400*
Y2857*
X1399Y2856*
X1392Y2847*
X1388Y2836*
X1386Y2825*
Y2750*
X1388Y2739*
X1392Y2729*
X1399Y2720*
X1408Y2713*
X1418Y2709*
X1429Y2707*
X1440Y2709*
X1450Y2713*
X1459Y2720*
X1466Y2729*
X1470Y2739*
X1472Y2750*
Y2797*
X1477Y2799*
X1481Y2794*
Y2763*
X1558*
X1560Y2759*
Y2714*
X1559Y2710*
X1560Y2705*
Y2631*
X1545*
Y2528*
X1577*
Y2479*
X1497Y2398*
X1478*
Y2350*
X1070*
X1056Y2348*
X1044Y2343*
X1034Y2335*
X945Y2247*
X937Y2236*
X932Y2224*
X931Y2211*
Y2211*
X901*
X897Y2216*
X899Y2220*
X901Y2231*
X899Y2242*
X895Y2253*
X888Y2262*
X879Y2268*
X869Y2273*
X858Y2274*
X800*
X788Y2273*
X778Y2268*
X776Y2267*
X761*
Y2249*
X758Y2242*
X757Y2231*
X758Y2220*
X759Y2218*
X755Y2213*
X751*
Y2203*
X640*
X640Y2206*
X634Y2216*
X626Y2224*
X616Y2230*
X605Y2232*
X594*
X583Y2230*
X573Y2224*
X565Y2216*
X559Y2206*
X557Y2195*
Y2184*
X559Y2173*
X565Y2163*
X573Y2155*
X583Y2149*
X592Y2147*
X596Y2143*
X604Y2137*
X612Y2134*
X621Y2132*
X621*
X751*
Y2122*
X848*
Y2124*
X898*
Y2108*
X1064*
Y2211*
X1059*
X1057Y2216*
X1090Y2249*
X1478*
Y2201*
X1581*
Y2340*
X1664Y2422*
X1672Y2433*
X1677Y2445*
X1678Y2458*
Y2528*
X1711*
Y2529*
X1758*
X1761Y2530*
X1764*
X1768Y2530*
X1771Y2531*
X1774Y2532*
X1777Y2533*
X1780Y2535*
X1783Y2536*
X1786Y2538*
X1788Y2539*
X1791Y2542*
X1793Y2544*
X1795Y2546*
X1798Y2549*
X1799Y2552*
X1801Y2554*
X1803Y2557*
X1804Y2560*
X1805Y2563*
X1806Y2566*
X1807Y2570*
X1808Y2573*
Y2576*
X1808Y2580*
X1808Y2583*
Y2586*
X1807Y2589*
X1806Y2593*
X1805Y2596*
X1804Y2599*
X1803Y2602*
X1801Y2605*
X1799Y2607*
X1798Y2610*
X1795Y2613*
X1793Y2615*
X1791Y2617*
X1788Y2620*
X1786Y2621*
X1783Y2623*
X1780Y2624*
X1777Y2626*
X1774Y2627*
X1771Y2628*
X1768Y2629*
X1764Y2630*
X1761*
X1758Y2630*
X1711*
Y2631*
X1660*
Y2709*
X1660Y2710*
X1660Y2710*
Y2825*
X1659Y2838*
X1654Y2851*
X1649Y2857*
Y2888*
X1571*
X1570Y2892*
Y2991*
X1603*
Y3116*
X1529*
X1482Y3163*
Y3258*
X1514*
Y3361*
X1482*
Y3384*
X1505*
X1508Y3385*
X1511*
X1514Y3385*
X1518Y3386*
X1521Y3387*
X1524Y3388*
X1527Y3390*
X1530Y3391*
X1532Y3393*
X1535Y3394*
X1538Y3397*
X1540Y3399*
X1542Y3401*
X1545Y3404*
X1546Y3407*
X1548Y3409*
X1549Y3412*
X1551Y3415*
X1552Y3418*
X1553Y3421*
X1554Y3425*
X1555Y3428*
Y3431*
X1555Y3435*
Y3510*
X1555Y3513*
Y3516*
X1554Y3519*
X1553Y3523*
X1553Y3523*
X1705Y3675*
X1710Y3683*
X1712Y3693*
Y3715*
X1734*
Y3780*
Y3854*
X1731*
Y3917*
X1703*
X1701Y3922*
X1702Y3922*
X1721*
Y3946*
X1722Y3947*
X1723Y3956*
X1722Y3959*
Y4015*
X1721Y4024*
X1718Y4033*
X1712Y4040*
X1705Y4046*
X1696Y4049*
X1687Y4050*
X1678Y4049*
X1669Y4046*
X1662Y4040*
X1657Y4033*
X1653Y4024*
X1652Y4015*
Y3956*
X1653Y3947*
X1654Y3945*
Y3922*
X1673*
X1674Y3922*
X1672Y3917*
X1644*
X1641*
X1613*
X1611Y3922*
X1612Y3922*
X1631*
Y3946*
X1632Y3947*
X1633Y3956*
Y4004*
X1634Y4006*
X1635Y4016*
X1634Y4025*
X1630Y4033*
X1624Y4040*
X1617Y4046*
X1609Y4050*
X1600Y4051*
X1590Y4050*
X1582Y4046*
X1575Y4040*
X1573Y4038*
X1567Y4031*
X1563Y4023*
X1562Y4014*
Y3956*
X1563Y3947*
X1564Y3946*
Y3922*
X1583*
X1584Y3922*
X1582Y3917*
X1554*
X1551*
X1523*
X1521Y3922*
X1522Y3922*
X1541*
Y3946*
X1542Y3947*
X1543Y3956*
Y4016*
X1542Y4025*
X1538Y4033*
X1532Y4040*
X1531Y4041*
X1524Y4047*
X1516Y4051*
X1507Y4052*
G37*
G36*
X6065Y3380D02*
X6030D01*
Y3345*
X6030*
X6040Y3347*
X6049Y3352*
X6057Y3360*
X6062Y3369*
X6065Y3379*
Y3380*
G37*
G36*
X6020D02*
X5985D01*
Y3379*
X5987Y3369*
X5992Y3360*
X6000Y3352*
X6009Y3347*
X6019Y3345*
X6020*
Y3380*
G37*
G36*
X1127Y3361D02*
X1043D01*
Y3325*
X1127*
Y3361*
G37*
G36*
X4180Y3345D02*
X4145D01*
Y3310*
X4145*
X4155Y3312*
X4164Y3317*
X4172Y3325*
X4177Y3334*
X4180Y3344*
Y3345*
G37*
G36*
X4135D02*
X4100D01*
Y3344*
X4102Y3334*
X4107Y3325*
X4115Y3317*
X4124Y3312*
X4134Y3310*
X4135*
Y3345*
G37*
G36*
X505Y3320D02*
X505D01*
Y3285*
X540*
Y3285*
X537Y3295*
X532Y3304*
X524Y3312*
X515Y3317*
X505Y3320*
G37*
G36*
X495D02*
X494D01*
X484Y3317*
X475Y3312*
X467Y3304*
X462Y3295*
X460Y3285*
Y3285*
X495*
Y3320*
G37*
G36*
X1127Y3315D02*
X1043D01*
Y3278*
X1127*
Y3315*
G37*
G36*
X1730Y3360D02*
X1628D01*
X1615Y3358*
X1603Y3353*
X1600Y3351*
X1555*
Y3315*
X1628*
Y3305*
X1555*
Y3268*
X1600*
X1603Y3266*
X1615Y3261*
X1628Y3259*
X1730*
X1743Y3261*
X1755Y3266*
X1765Y3274*
X1773Y3284*
X1778Y3296*
X1780Y3310*
X1778Y3323*
X1773Y3335*
X1765Y3345*
X1755Y3353*
X1743Y3358*
X1730Y3360*
G37*
G36*
X540Y3275D02*
X505D01*
Y3240*
X505*
X515Y3242*
X524Y3247*
X532Y3255*
X537Y3264*
X540Y3274*
Y3275*
G37*
G36*
X495D02*
X460D01*
Y3274*
X462Y3264*
X467Y3255*
X475Y3247*
X484Y3242*
X494Y3240*
X495*
Y3275*
G37*
G36*
X785Y3240D02*
X785D01*
Y3205*
X820*
Y3205*
X817Y3215*
X812Y3224*
X804Y3232*
X795Y3237*
X785Y3240*
G37*
G36*
X775D02*
X774D01*
X764Y3237*
X755Y3232*
X747Y3224*
X742Y3215*
X740Y3205*
Y3205*
X775*
Y3240*
G37*
G36*
X4827Y3486D02*
X4818D01*
X4810Y3484*
X4803Y3480*
X4797Y3474*
X4793Y3467*
X4791Y3459*
Y3450*
X4791Y3448*
X4784Y3441*
X4723*
Y3367*
Y3302*
X4764*
X4767Y3298*
X4764Y3294*
X4762Y3284*
Y3275*
X4764Y3265*
X4769Y3256*
X4776Y3249*
X4785Y3244*
X4795Y3242*
X4804*
X4809Y3243*
X4813Y3240*
Y3232*
X4814*
Y3160*
X4813Y3159*
X4809Y3153*
X4808Y3145*
Y3138*
X4809Y3130*
X4813Y3124*
X4819Y3118*
X4825Y3115*
X4833Y3113*
X4840*
X4848Y3115*
X4854Y3118*
X4859Y3124*
X4863Y3130*
X4865Y3138*
Y3145*
X4863Y3153*
Y3201*
X4868Y3204*
X4874Y3203*
X4881*
X4889Y3205*
X4895Y3208*
X4901Y3214*
X4904Y3220*
X4906Y3228*
Y3235*
X4904Y3243*
X4904Y3243*
Y3306*
X4988*
Y3371*
Y3445*
X4926*
X4917Y3453*
Y3455*
X4915Y3463*
X4911Y3470*
X4905Y3476*
X4898Y3480*
X4890Y3482*
X4881*
X4873Y3480*
X4866Y3476*
X4860Y3470*
X4858Y3466*
X4852Y3466*
X4852Y3467*
X4848Y3474*
X4842Y3480*
X4835Y3484*
X4827Y3486*
G37*
G36*
X6045Y3210D02*
X6045D01*
Y3175*
X6080*
Y3175*
X6077Y3185*
X6072Y3194*
X6064Y3202*
X6055Y3207*
X6045Y3210*
G37*
G36*
X6035D02*
X6034D01*
X6024Y3207*
X6015Y3202*
X6007Y3194*
X6002Y3185*
X6000Y3175*
Y3175*
X6035*
Y3210*
G37*
G36*
X1040D02*
X1040D01*
Y3175*
X1075*
Y3175*
X1072Y3185*
X1067Y3194*
X1059Y3202*
X1050Y3207*
X1040Y3210*
G37*
G36*
X1030D02*
X1029D01*
X1019Y3207*
X1010Y3202*
X1002Y3194*
X997Y3185*
X995Y3175*
Y3175*
X1030*
Y3210*
G37*
G36*
X3518Y3272D02*
X3481D01*
Y3220*
Y3167*
X3518*
Y3192*
X3520Y3194*
X3525Y3206*
X3527Y3220*
X3525Y3233*
X3520Y3245*
X3518Y3247*
Y3272*
G37*
G36*
X3471D02*
X3435D01*
Y3270*
X3400*
X3386Y3268*
X3374Y3263*
X3364Y3255*
X3356Y3245*
X3351Y3233*
X3349Y3220*
X3351Y3206*
X3356Y3194*
X3364Y3184*
X3374Y3176*
X3386Y3171*
X3400Y3169*
X3435*
Y3167*
X3471*
Y3220*
Y3272*
G37*
G36*
X2017D02*
X1980D01*
Y3220*
Y3167*
X2017*
Y3192*
X2018Y3194*
X2023Y3206*
X2025Y3220*
X2023Y3233*
X2018Y3245*
X2017Y3247*
Y3272*
G37*
G36*
X1970D02*
X1933D01*
Y3270*
X1890*
X1876Y3268*
X1864Y3263*
X1854Y3255*
X1846Y3245*
X1841Y3233*
X1839Y3220*
X1841Y3206*
X1846Y3194*
X1854Y3184*
X1864Y3176*
X1876Y3171*
X1890Y3169*
X1933*
Y3167*
X1970*
Y3220*
Y3272*
G37*
G36*
X820Y3195D02*
X785D01*
Y3160*
X785*
X795Y3162*
X804Y3167*
X812Y3175*
X817Y3184*
X820Y3194*
Y3195*
G37*
G36*
X775D02*
X740D01*
Y3194*
X742Y3184*
X747Y3175*
X755Y3167*
X764Y3162*
X774Y3160*
X775*
Y3195*
G37*
G36*
X3965Y3365D02*
X3961Y3365D01*
X3958*
X3955Y3364*
X3951Y3363*
X3948Y3362*
X3945Y3361*
X3942Y3359*
X3939Y3358*
X3937Y3356*
X3934Y3355*
X3931Y3352*
X3929Y3350*
X3927Y3348*
X3925Y3346*
X3924Y3345*
X3924Y3345*
X3919Y3338*
X3914Y3326*
X3912Y3313*
Y3282*
X3911*
Y3157*
X4014*
Y3282*
X4013*
Y3301*
X4013Y3301*
X4014Y3305*
X4015Y3308*
Y3311*
X4015Y3315*
X4015Y3318*
Y3321*
X4014Y3324*
X4013Y3328*
X4012Y3331*
X4011Y3334*
X4009Y3337*
X4008Y3340*
X4006Y3342*
X4005Y3345*
X4002Y3348*
X4000Y3350*
X3998Y3352*
X3995Y3355*
X3992Y3356*
X3990Y3358*
X3987Y3359*
X3984Y3361*
X3981Y3362*
X3978Y3363*
X3974Y3364*
X3971Y3365*
X3968*
X3965Y3365*
G37*
G36*
X2765Y3262D02*
X2728D01*
Y3210*
Y3157*
X2765*
Y3182*
X2767Y3184*
X2772Y3196*
X2773Y3210*
X2772Y3223*
X2767Y3235*
X2765Y3237*
Y3262*
G37*
G36*
X2718D02*
X2681D01*
Y3260*
X2645*
X2631Y3258*
X2619Y3253*
X2609Y3245*
X2601Y3235*
X2596Y3223*
X2594Y3210*
X2596Y3196*
X2601Y3184*
X2609Y3174*
X2619Y3166*
X2631Y3161*
X2645Y3159*
X2681*
Y3157*
X2718*
Y3210*
Y3262*
G37*
G36*
X2445Y3375D02*
X2441Y3375D01*
X2438*
X2435Y3374*
X2431Y3373*
X2428Y3372*
X2425Y3371*
X2422Y3369*
X2419Y3368*
X2417Y3366*
X2414Y3365*
X2411Y3362*
X2409Y3360*
X2407Y3358*
X2404Y3355*
X2403Y3352*
X2401Y3350*
X2400Y3347*
X2398Y3344*
X2397Y3341*
X2396Y3338*
X2395Y3334*
X2395Y3331*
Y3328*
X2394Y3325*
Y3282*
X2392*
Y3157*
X2496*
Y3282*
X2495*
Y3325*
X2495Y3328*
Y3331*
X2494Y3334*
X2493Y3338*
X2492Y3341*
X2491Y3344*
X2489Y3347*
X2488Y3350*
X2486Y3352*
X2485Y3355*
X2482Y3358*
X2480Y3360*
X2478Y3362*
X2475Y3365*
X2472Y3366*
X2470Y3368*
X2467Y3369*
X2464Y3371*
X2461Y3372*
X2458Y3373*
X2454Y3374*
X2451Y3375*
X2448*
X2445Y3375*
G37*
G36*
X3226Y3360D02*
X3213D01*
X3207Y3358*
X3206Y3358*
X3205Y3357*
X3200Y3356*
X3196Y3353*
X3194Y3353*
X3192Y3352*
X3189Y3350*
X3186Y3347*
X3183Y3345*
X3181Y3342*
X3179Y3340*
X3178Y3338*
X3175Y3334*
X3174Y3330*
X3173Y3329*
X3173Y3328*
X3170Y3322*
X3170Y3316*
X3170Y3316*
Y3316*
X3169Y3309*
Y3272*
X3167*
Y3147*
X3271*
Y3272*
X3269*
Y3303*
X3270Y3303*
Y3316*
X3266Y3329*
X3260Y3340*
X3250Y3350*
X3239Y3356*
X3226Y3360*
G37*
G36*
X6080Y3165D02*
X6045D01*
Y3130*
X6045*
X6055Y3132*
X6064Y3137*
X6072Y3145*
X6077Y3154*
X6080Y3164*
Y3165*
G37*
G36*
X6035D02*
X6000D01*
Y3164*
X6002Y3154*
X6007Y3145*
X6015Y3137*
X6024Y3132*
X6034Y3130*
X6035*
Y3165*
G37*
G36*
X1075D02*
X1040D01*
Y3130*
X1040*
X1050Y3132*
X1059Y3137*
X1067Y3145*
X1072Y3154*
X1075Y3164*
Y3165*
G37*
G36*
X1030D02*
X995D01*
Y3164*
X997Y3154*
X1002Y3145*
X1010Y3137*
X1019Y3132*
X1029Y3130*
X1030*
Y3165*
G37*
G36*
X505Y3155D02*
X505D01*
Y3120*
X540*
Y3120*
X537Y3130*
X532Y3139*
X524Y3147*
X515Y3152*
X505Y3155*
G37*
G36*
X495D02*
X494D01*
X484Y3152*
X475Y3147*
X467Y3139*
X462Y3130*
X460Y3120*
Y3120*
X495*
Y3155*
G37*
G36*
X540Y3110D02*
X505D01*
Y3075*
X505*
X515Y3077*
X524Y3082*
X532Y3090*
X537Y3099*
X540Y3109*
Y3110*
G37*
G36*
X495D02*
X460D01*
Y3109*
X462Y3099*
X467Y3090*
X475Y3082*
X484Y3077*
X494Y3075*
X495*
Y3110*
G37*
G36*
X3850Y3105D02*
X3850D01*
Y3070*
X3885*
Y3070*
X3882Y3080*
X3877Y3089*
X3869Y3097*
X3860Y3102*
X3850Y3105*
G37*
G36*
X5000Y3100D02*
X5000D01*
Y3065*
X5035*
Y3065*
X5032Y3075*
X5027Y3084*
X5019Y3092*
X5010Y3097*
X5000Y3100*
G37*
G36*
X4990D02*
X4989D01*
X4979Y3097*
X4970Y3092*
X4962Y3084*
X4957Y3075*
X4955Y3065*
Y3065*
X4990*
Y3100*
G37*
G36*
X2350D02*
X2350D01*
Y3065*
X2385*
Y3065*
X2382Y3075*
X2377Y3084*
X2369Y3092*
X2360Y3097*
X2350Y3100*
G37*
G36*
X3110Y3085D02*
X3110D01*
Y3050*
X3145*
Y3050*
X3142Y3060*
X3137Y3069*
X3129Y3077*
X3120Y3082*
X3110Y3085*
G37*
G36*
X1203Y3051D02*
X1076D01*
Y3047*
X973*
Y3051*
X846*
Y3047*
X672*
X659Y3046*
X647Y3042*
X636Y3036*
X626Y3028*
X587Y2990*
X520*
X507Y2988*
X495Y2985*
X483Y2979*
X473Y2970*
X465Y2961*
X459Y2949*
X455Y2937*
X454Y2924*
X455Y2911*
X459Y2899*
X465Y2888*
X473Y2878*
X483Y2870*
X495Y2864*
X507Y2860*
X520Y2859*
X614*
X627Y2860*
X639Y2864*
X651Y2870*
X660Y2878*
X699Y2917*
X846*
Y2913*
X973*
Y2917*
X1076*
Y2913*
X1203*
Y2967*
X1204Y2969*
X1205Y2982*
X1204Y2995*
X1203Y2997*
Y3051*
G37*
G36*
X1765Y3065D02*
X1765D01*
Y3030*
X1800*
Y3030*
X1797Y3040*
X1792Y3049*
X1784Y3057*
X1775Y3062*
X1765Y3065*
G37*
G36*
X1755D02*
X1754D01*
X1744Y3062*
X1735Y3057*
X1727Y3049*
X1722Y3040*
X1720Y3030*
Y3030*
X1755*
Y3065*
G37*
G36*
X3885Y3060D02*
X3850D01*
Y3025*
X3850*
X3860Y3027*
X3869Y3032*
X3877Y3040*
X3882Y3049*
X3885Y3059*
Y3060*
G37*
G36*
X3805Y3106D02*
X3790D01*
Y3057*
Y3008*
X3805*
Y3025*
X3837*
X3839Y3025*
X3840*
Y3065*
Y3105*
X3839*
X3829Y3102*
X3820Y3097*
X3819Y3096*
X3805*
Y3106*
G37*
G36*
X5035Y3055D02*
X5000D01*
Y3020*
X5000*
X5010Y3022*
X5019Y3027*
X5027Y3035*
X5032Y3044*
X5035Y3054*
Y3055*
G37*
G36*
X4990D02*
X4955D01*
Y3054*
X4957Y3044*
X4962Y3035*
X4970Y3027*
X4979Y3022*
X4989Y3020*
X4990*
Y3055*
G37*
G36*
X2385D02*
X2350D01*
Y3020*
X2350*
X2360Y3022*
X2369Y3027*
X2377Y3035*
X2382Y3044*
X2385Y3054*
Y3055*
G37*
G36*
X2306Y3106D02*
X2291D01*
Y3057*
Y3008*
X2306*
Y3027*
X2321*
X2329Y3022*
X2339Y3020*
X2340*
Y3060*
Y3100*
X2339*
X2329Y3097*
X2321Y3092*
X2306*
Y3106*
G37*
G36*
X3145Y3040D02*
X3110D01*
Y3005*
X3110*
X3120Y3007*
X3129Y3012*
X3137Y3020*
X3142Y3029*
X3145Y3039*
Y3040*
G37*
G36*
X3071Y3096D02*
X3056D01*
Y3047*
Y2998*
X3071*
Y3014*
X3079*
X3080Y3012*
X3089Y3007*
X3099Y3005*
X3100*
Y3045*
Y3085*
X3099*
X3089Y3082*
X3085Y3079*
X3071*
Y3096*
G37*
G36*
X2510Y3040D02*
X2510D01*
Y3005*
X2545*
Y3005*
X2542Y3015*
X2537Y3024*
X2529Y3032*
X2520Y3037*
X2510Y3040*
G37*
G36*
X2500D02*
X2499D01*
X2489Y3037*
X2480Y3032*
X2472Y3024*
X2467Y3015*
X2465Y3005*
Y3005*
X2500*
Y3040*
G37*
G36*
X4620Y3025D02*
X4620D01*
Y2990*
X4655*
Y2990*
X4652Y3000*
X4647Y3009*
X4639Y3017*
X4630Y3022*
X4620Y3025*
G37*
G36*
X4610D02*
X4609D01*
X4599Y3022*
X4590Y3017*
X4582Y3009*
X4577Y3000*
X4575Y2990*
Y2990*
X4610*
Y3025*
G37*
G36*
X1800Y3020D02*
X1765D01*
Y2985*
X1765*
X1775Y2987*
X1784Y2992*
X1792Y3000*
X1797Y3009*
X1800Y3019*
Y3020*
G37*
G36*
X1755D02*
X1720D01*
Y3019*
X1722Y3009*
X1727Y3000*
X1735Y2992*
X1744Y2987*
X1754Y2985*
X1755*
Y3020*
G37*
G36*
X3250Y3015D02*
X3250D01*
Y2980*
X3285*
Y2980*
X3282Y2990*
X3277Y2999*
X3269Y3007*
X3260Y3012*
X3250Y3015*
G37*
G36*
X3240D02*
X3239D01*
X3229Y3012*
X3220Y3007*
X3212Y2999*
X3207Y2990*
X3205Y2980*
Y2980*
X3240*
Y3015*
G37*
G36*
X2545Y2995D02*
X2510D01*
Y2960*
X2510*
X2520Y2962*
X2529Y2967*
X2537Y2975*
X2542Y2984*
X2545Y2994*
Y2995*
G37*
G36*
X2500D02*
X2465D01*
Y2994*
X2467Y2984*
X2472Y2975*
X2480Y2967*
X2489Y2962*
X2499Y2960*
X2500*
Y2995*
G37*
G36*
X5330Y2985D02*
X5330D01*
Y2950*
X5365*
Y2950*
X5362Y2960*
X5357Y2969*
X5349Y2977*
X5340Y2982*
X5330Y2985*
G37*
G36*
X5320D02*
X5319D01*
X5309Y2982*
X5300Y2977*
X5292Y2969*
X5287Y2960*
X5285Y2950*
Y2950*
X5320*
Y2985*
G37*
G36*
X4655Y2980D02*
X4620D01*
Y2945*
X4620*
X4630Y2947*
X4639Y2952*
X4647Y2960*
X4652Y2969*
X4655Y2979*
Y2980*
G37*
G36*
X4610D02*
X4575D01*
Y2979*
X4577Y2969*
X4582Y2960*
X4590Y2952*
X4599Y2947*
X4609Y2945*
X4610*
Y2980*
G37*
G36*
X3285Y2970D02*
X3250D01*
Y2935*
X3250*
X3260Y2937*
X3269Y2942*
X3277Y2950*
X3282Y2959*
X3285Y2969*
Y2970*
G37*
G36*
X3240D02*
X3205D01*
Y2969*
X3207Y2959*
X3212Y2950*
X3220Y2942*
X3229Y2937*
X3239Y2935*
X3240*
Y2970*
G37*
G36*
X6030Y2955D02*
X6030D01*
Y2920*
X6065*
Y2920*
X6062Y2930*
X6057Y2939*
X6049Y2947*
X6040Y2952*
X6030Y2955*
G37*
G36*
X6020D02*
X6019D01*
X6009Y2952*
X6000Y2947*
X5992Y2939*
X5987Y2930*
X5985Y2920*
Y2920*
X6020*
Y2955*
G37*
G36*
X5365Y2940D02*
X5330D01*
Y2905*
X5330*
X5340Y2907*
X5349Y2912*
X5357Y2920*
X5362Y2929*
X5365Y2939*
Y2940*
G37*
G36*
X5320D02*
X5285D01*
Y2939*
X5287Y2929*
X5292Y2920*
X5300Y2912*
X5309Y2907*
X5319Y2905*
X5320*
Y2940*
G37*
G36*
X2460Y2915D02*
X2460D01*
Y2880*
X2495*
Y2880*
X2492Y2890*
X2487Y2899*
X2479Y2907*
X2470Y2912*
X2460Y2915*
G37*
G36*
X2450D02*
X2449D01*
X2439Y2912*
X2430Y2907*
X2422Y2899*
X2417Y2890*
X2415Y2880*
Y2880*
X2450*
Y2915*
G37*
G36*
X6065Y2910D02*
X6030D01*
Y2875*
X6030*
X6040Y2877*
X6049Y2882*
X6057Y2890*
X6062Y2899*
X6065Y2909*
Y2910*
G37*
G36*
X6020D02*
X5985D01*
Y2909*
X5987Y2899*
X5992Y2890*
X6000Y2882*
X6009Y2877*
X6019Y2875*
X6020*
Y2910*
G37*
G36*
X2675D02*
X2675D01*
Y2875*
X2710*
Y2875*
X2707Y2885*
X2702Y2894*
X2694Y2902*
X2685Y2907*
X2675Y2910*
G37*
G36*
X2665D02*
X2664D01*
X2654Y2907*
X2645Y2902*
X2637Y2894*
X2632Y2885*
X2630Y2875*
Y2875*
X2665*
Y2910*
G37*
G36*
X3440Y2885D02*
X3440D01*
Y2850*
X3475*
Y2850*
X3472Y2860*
X3467Y2869*
X3459Y2877*
X3450Y2882*
X3440Y2885*
G37*
G36*
X3430D02*
X3429D01*
X3419Y2882*
X3410Y2877*
X3402Y2869*
X3397Y2860*
X3395Y2850*
Y2850*
X3430*
Y2885*
G37*
G36*
X3215Y2880D02*
X3215D01*
Y2845*
X3250*
Y2845*
X3247Y2855*
X3242Y2864*
X3234Y2872*
X3225Y2877*
X3215Y2880*
G37*
G36*
X3205D02*
X3204D01*
X3194Y2877*
X3185Y2872*
X3177Y2864*
X3172Y2855*
X3170Y2845*
Y2845*
X3205*
Y2880*
G37*
G36*
X1780D02*
X1780D01*
Y2845*
X1815*
Y2845*
X1812Y2855*
X1807Y2864*
X1799Y2872*
X1790Y2877*
X1780Y2880*
G37*
G36*
X1770D02*
X1769D01*
X1759Y2877*
X1750Y2872*
X1742Y2864*
X1737Y2855*
X1735Y2845*
Y2845*
X1770*
Y2880*
G37*
G36*
X2495Y2870D02*
X2460D01*
Y2835*
X2460*
X2470Y2837*
X2479Y2842*
X2487Y2850*
X2492Y2859*
X2495Y2869*
Y2870*
G37*
G36*
X2450D02*
X2415D01*
Y2869*
X2417Y2859*
X2422Y2850*
X2430Y2842*
X2439Y2837*
X2449Y2835*
X2450*
Y2870*
G37*
G36*
X4475Y2865D02*
X4475D01*
Y2830*
X4510*
Y2830*
X4507Y2840*
X4502Y2849*
X4494Y2857*
X4485Y2862*
X4475Y2865*
G37*
G36*
X4465D02*
X4464D01*
X4454Y2862*
X4445Y2857*
X4437Y2849*
X4432Y2840*
X4430Y2830*
Y2830*
X4465*
Y2865*
G37*
G36*
X2710D02*
X2675D01*
Y2830*
X2675*
X2685Y2832*
X2694Y2837*
X2702Y2845*
X2707Y2854*
X2710Y2864*
Y2865*
G37*
G36*
X2665D02*
X2630D01*
Y2864*
X2632Y2854*
X2637Y2845*
X2645Y2837*
X2654Y2832*
X2664Y2830*
X2665*
Y2865*
G37*
G36*
X1980D02*
X1980D01*
Y2830*
X2015*
Y2830*
X2012Y2840*
X2007Y2849*
X1999Y2857*
X1990Y2862*
X1980Y2865*
G37*
G36*
X1970D02*
X1969D01*
X1959Y2862*
X1950Y2857*
X1942Y2849*
X1937Y2840*
X1935Y2830*
Y2830*
X1970*
Y2865*
G37*
G36*
X3475Y2840D02*
X3440D01*
Y2805*
X3440*
X3450Y2807*
X3459Y2812*
X3467Y2820*
X3472Y2829*
X3475Y2839*
Y2840*
G37*
G36*
X3430D02*
X3395D01*
Y2839*
X3397Y2829*
X3402Y2820*
X3410Y2812*
X3419Y2807*
X3429Y2805*
X3430*
Y2840*
G37*
G36*
X3250Y2835D02*
X3215D01*
Y2800*
X3215*
X3225Y2802*
X3234Y2807*
X3242Y2815*
X3247Y2824*
X3250Y2834*
Y2835*
G37*
G36*
X3205D02*
X3170D01*
Y2834*
X3172Y2824*
X3177Y2815*
X3185Y2807*
X3194Y2802*
X3204Y2800*
X3205*
Y2835*
G37*
G36*
X1815D02*
X1780D01*
Y2800*
X1780*
X1790Y2802*
X1799Y2807*
X1807Y2815*
X1812Y2824*
X1815Y2834*
Y2835*
G37*
G36*
X1770D02*
X1735D01*
Y2834*
X1737Y2824*
X1742Y2815*
X1750Y2807*
X1759Y2802*
X1769Y2800*
X1770*
Y2835*
G37*
G36*
X4510Y2820D02*
X4475D01*
Y2785*
X4475*
X4485Y2787*
X4494Y2792*
X4502Y2800*
X4507Y2809*
X4510Y2819*
Y2820*
G37*
G36*
X4465D02*
X4430D01*
Y2819*
X4432Y2809*
X4437Y2800*
X4445Y2792*
X4454Y2787*
X4464Y2785*
X4465*
Y2820*
G37*
G36*
X2015D02*
X1980D01*
Y2785*
X1980*
X1990Y2787*
X1999Y2792*
X2007Y2800*
X2012Y2809*
X2015Y2819*
Y2820*
G37*
G36*
X1970D02*
X1935D01*
Y2819*
X1937Y2809*
X1942Y2800*
X1950Y2792*
X1959Y2787*
X1969Y2785*
X1970*
Y2820*
G37*
G36*
X725Y2805D02*
X725D01*
Y2770*
X760*
Y2770*
X757Y2780*
X752Y2789*
X744Y2797*
X735Y2802*
X725Y2805*
G37*
G36*
X715D02*
X714D01*
X704Y2802*
X695Y2797*
X687Y2789*
X682Y2780*
X680Y2770*
Y2770*
X715*
Y2805*
G37*
G36*
X4777Y2822D02*
X4662D01*
Y2730*
X4777*
Y2822*
G37*
G36*
X4651D02*
X4536D01*
Y2730*
X4651*
Y2822*
G37*
G36*
X760Y2760D02*
X725D01*
Y2725*
X725*
X735Y2727*
X744Y2732*
X752Y2740*
X757Y2749*
X760Y2759*
Y2760*
G37*
G36*
X715D02*
X680D01*
Y2759*
X682Y2749*
X687Y2740*
X695Y2732*
X704Y2727*
X714Y2725*
X715*
Y2760*
G37*
G36*
X4915Y2730D02*
X4915D01*
Y2695*
X4950*
Y2695*
X4947Y2705*
X4942Y2714*
X4934Y2722*
X4925Y2727*
X4915Y2730*
G37*
G36*
X4905D02*
X4904D01*
X4894Y2727*
X4885Y2722*
X4877Y2714*
X4872Y2705*
X4870Y2695*
Y2695*
X4905*
Y2730*
G37*
G36*
X4950Y2685D02*
X4915D01*
Y2650*
X4915*
X4925Y2652*
X4934Y2657*
X4942Y2665*
X4947Y2674*
X4950Y2684*
Y2685*
G37*
G36*
X4905D02*
X4870D01*
Y2684*
X4872Y2674*
X4877Y2665*
X4885Y2657*
X4894Y2652*
X4904Y2650*
X4905*
Y2685*
G37*
G36*
X540D02*
X540D01*
Y2650*
X575*
Y2650*
X572Y2660*
X567Y2669*
X559Y2677*
X550Y2682*
X540Y2685*
G37*
G36*
X530D02*
X529D01*
X519Y2682*
X510Y2677*
X502Y2669*
X497Y2660*
X495Y2650*
Y2650*
X530*
Y2685*
G37*
G36*
X745Y2640D02*
X745D01*
Y2605*
X780*
Y2605*
X777Y2615*
X772Y2624*
X764Y2632*
X755Y2637*
X745Y2640*
G37*
G36*
X735D02*
X734D01*
X724Y2637*
X715Y2632*
X707Y2624*
X702Y2615*
X700Y2605*
Y2605*
X735*
Y2640*
G37*
G36*
X575D02*
X540D01*
Y2605*
X540*
X550Y2607*
X559Y2612*
X567Y2620*
X572Y2629*
X575Y2639*
Y2640*
G37*
G36*
X530D02*
X495D01*
Y2639*
X497Y2629*
X502Y2620*
X510Y2612*
X519Y2607*
X529Y2605*
X530*
Y2640*
G37*
G36*
X780Y2595D02*
X745D01*
Y2560*
X745*
X755Y2562*
X764Y2567*
X772Y2575*
X777Y2584*
X780Y2594*
Y2595*
G37*
G36*
X735D02*
X700D01*
Y2594*
X702Y2584*
X707Y2575*
X715Y2567*
X724Y2562*
X734Y2560*
X735*
Y2595*
G37*
G36*
X1431Y2622D02*
X1330D01*
X1318Y2621*
X1308Y2617*
X1299Y2610*
X1292Y2601*
X1288Y2591*
X1287Y2580*
X1288Y2568*
X1292Y2558*
X1299Y2549*
X1308Y2542*
X1318Y2538*
X1330Y2537*
X1431*
X1441Y2538*
X1504*
Y2575*
X1431*
Y2585*
X1504*
Y2621*
X1441*
X1431Y2622*
G37*
G36*
X1275Y2530D02*
X1176D01*
X1163Y2528*
X1151Y2523*
X1148Y2521*
X1103*
Y2485*
X1176*
Y2475*
X1103*
Y2438*
X1148*
X1151Y2436*
X1163Y2431*
X1176Y2429*
X1275*
X1288Y2431*
X1300Y2436*
X1310Y2444*
X1318Y2454*
X1323Y2466*
X1325Y2480*
X1323Y2493*
X1318Y2505*
X1310Y2515*
X1300Y2523*
X1288Y2528*
X1275Y2530*
G37*
G36*
X5980Y2450D02*
X5980D01*
Y2415*
X6015*
Y2415*
X6012Y2425*
X6007Y2434*
X5999Y2442*
X5990Y2447*
X5980Y2450*
G37*
G36*
X5970D02*
X5969D01*
X5959Y2447*
X5950Y2442*
X5942Y2434*
X5937Y2425*
X5935Y2415*
Y2415*
X5970*
Y2450*
G37*
G36*
X6015Y2405D02*
X5980D01*
Y2370*
X5980*
X5990Y2372*
X5999Y2377*
X6007Y2385*
X6012Y2394*
X6015Y2404*
Y2405*
G37*
G36*
X5970D02*
X5935D01*
Y2404*
X5937Y2394*
X5942Y2385*
X5950Y2377*
X5959Y2372*
X5969Y2370*
X5970*
Y2405*
G37*
G36*
X425Y2385D02*
X425D01*
Y2350*
X460*
Y2350*
X457Y2360*
X452Y2369*
X444Y2377*
X435Y2382*
X425Y2385*
G37*
G36*
X415D02*
X414D01*
X404Y2382*
X395Y2377*
X387Y2369*
X382Y2360*
X380Y2350*
Y2350*
X415*
Y2385*
G37*
G36*
X2065Y2365D02*
X2065D01*
Y2330*
X2100*
Y2330*
X2097Y2340*
X2092Y2349*
X2084Y2357*
X2075Y2362*
X2065Y2365*
G37*
G36*
X2055D02*
X2054D01*
X2044Y2362*
X2035Y2357*
X2027Y2349*
X2022Y2340*
X2020Y2330*
Y2330*
X2055*
Y2365*
G37*
G36*
X3100Y2360D02*
X3100D01*
Y2325*
X3135*
Y2325*
X3132Y2335*
X3127Y2344*
X3119Y2352*
X3110Y2357*
X3100Y2360*
G37*
G36*
X3090D02*
X3089D01*
X3079Y2357*
X3070Y2352*
X3062Y2344*
X3057Y2335*
X3055Y2325*
Y2325*
X3090*
Y2360*
G37*
G36*
X2395D02*
X2395D01*
Y2325*
X2430*
Y2325*
X2427Y2335*
X2422Y2344*
X2414Y2352*
X2405Y2357*
X2395Y2360*
G37*
G36*
X2385D02*
X2384D01*
X2374Y2357*
X2365Y2352*
X2357Y2344*
X2352Y2335*
X2350Y2325*
Y2325*
X2385*
Y2360*
G37*
G36*
X460Y2340D02*
X425D01*
Y2305*
X425*
X435Y2307*
X444Y2312*
X452Y2320*
X457Y2329*
X460Y2339*
Y2340*
G37*
G36*
X415D02*
X380D01*
Y2339*
X382Y2329*
X387Y2320*
X395Y2312*
X404Y2307*
X414Y2305*
X415*
Y2340*
G37*
G36*
X3455Y2330D02*
X3455D01*
Y2295*
X3490*
Y2295*
X3487Y2305*
X3482Y2314*
X3474Y2322*
X3465Y2327*
X3455Y2330*
G37*
G36*
X3445D02*
X3444D01*
X3434Y2327*
X3425Y2322*
X3417Y2314*
X3412Y2305*
X3410Y2295*
Y2295*
X3445*
Y2330*
G37*
G36*
X605Y2322D02*
Y2295D01*
X632*
X630Y2302*
X626Y2310*
X620Y2316*
X612Y2320*
X605Y2322*
G37*
G36*
X595D02*
X587Y2320D01*
X579Y2316*
X573Y2310*
X569Y2302*
X567Y2295*
X595*
Y2322*
G37*
G36*
X2100Y2320D02*
X2065D01*
Y2285*
X2065*
X2075Y2287*
X2084Y2292*
X2092Y2300*
X2097Y2309*
X2100Y2319*
Y2320*
G37*
G36*
X2055D02*
X2020D01*
Y2319*
X2022Y2309*
X2027Y2300*
X2035Y2292*
X2044Y2287*
X2054Y2285*
X2055*
Y2320*
G37*
G36*
X3135Y2315D02*
X3100D01*
Y2280*
X3100*
X3110Y2282*
X3119Y2287*
X3127Y2295*
X3132Y2304*
X3135Y2314*
Y2315*
G37*
G36*
X3090D02*
X3055D01*
Y2314*
X3057Y2304*
X3062Y2295*
X3070Y2287*
X3079Y2282*
X3089Y2280*
X3090*
Y2315*
G37*
G36*
X2430D02*
X2395D01*
Y2280*
X2395*
X2405Y2282*
X2414Y2287*
X2422Y2295*
X2427Y2304*
X2430Y2314*
Y2315*
G37*
G36*
X2385D02*
X2350D01*
Y2314*
X2352Y2304*
X2357Y2295*
X2365Y2287*
X2374Y2282*
X2384Y2280*
X2385*
Y2315*
G37*
G36*
X632Y2285D02*
X605D01*
Y2257*
X612Y2259*
X620Y2263*
X626Y2269*
X630Y2277*
X632Y2285*
G37*
G36*
X595D02*
X567D01*
X569Y2277*
X573Y2269*
X579Y2263*
X587Y2259*
X595Y2257*
Y2285*
G37*
G36*
X3490D02*
X3455D01*
Y2250*
X3455*
X3465Y2252*
X3474Y2257*
X3482Y2265*
X3487Y2274*
X3490Y2284*
Y2285*
G37*
G36*
X3445D02*
X3410D01*
Y2284*
X3412Y2274*
X3417Y2265*
X3425Y2257*
X3434Y2252*
X3444Y2250*
X3445*
Y2285*
G37*
G36*
X4107Y2264D02*
Y2242D01*
X4129*
X4127Y2247*
X4124Y2254*
X4119Y2259*
X4112Y2262*
X4107Y2264*
G37*
G36*
X4097D02*
X4091Y2262D01*
X4084Y2259*
X4079Y2254*
X4076Y2247*
X4074Y2242*
X4097*
Y2264*
G37*
G36*
X1835Y2245D02*
X1835D01*
Y2210*
X1870*
Y2210*
X1867Y2220*
X1862Y2229*
X1854Y2237*
X1845Y2242*
X1835Y2245*
G37*
G36*
X1825D02*
X1824D01*
X1814Y2242*
X1805Y2237*
X1797Y2229*
X1792Y2220*
X1790Y2210*
Y2210*
X1825*
Y2245*
G37*
G36*
X425D02*
X425D01*
Y2210*
X460*
Y2210*
X457Y2220*
X452Y2229*
X444Y2237*
X435Y2242*
X425Y2245*
G37*
G36*
X415D02*
X414D01*
X404Y2242*
X395Y2237*
X387Y2229*
X382Y2220*
X380Y2210*
Y2210*
X415*
Y2245*
G37*
G36*
X4129Y2232D02*
X4107D01*
Y2209*
X4112Y2211*
X4119Y2214*
X4124Y2219*
X4127Y2226*
X4129Y2232*
G37*
G36*
X4097D02*
X4074D01*
X4076Y2226*
X4079Y2219*
X4084Y2214*
X4091Y2211*
X4097Y2209*
Y2232*
G37*
G36*
X5975Y2225D02*
X5975D01*
Y2190*
X6010*
Y2190*
X6007Y2200*
X6002Y2209*
X5994Y2217*
X5985Y2222*
X5975Y2225*
G37*
G36*
X5965D02*
X5964D01*
X5954Y2222*
X5945Y2217*
X5937Y2209*
X5932Y2200*
X5930Y2190*
Y2190*
X5965*
Y2225*
G37*
G36*
X1870Y2200D02*
X1835D01*
Y2165*
X1835*
X1845Y2167*
X1854Y2172*
X1862Y2180*
X1867Y2189*
X1870Y2199*
Y2200*
G37*
G36*
X1825D02*
X1790D01*
Y2199*
X1792Y2189*
X1797Y2180*
X1805Y2172*
X1814Y2167*
X1824Y2165*
X1825*
Y2200*
G37*
G36*
X460D02*
X425D01*
Y2165*
X425*
X435Y2167*
X444Y2172*
X452Y2180*
X457Y2189*
X460Y2199*
Y2200*
G37*
G36*
X415D02*
X380D01*
Y2199*
X382Y2189*
X387Y2180*
X395Y2172*
X404Y2167*
X414Y2165*
X415*
Y2200*
G37*
G36*
X6010Y2180D02*
X5975D01*
Y2145*
X5975*
X5985Y2147*
X5994Y2152*
X6002Y2160*
X6007Y2169*
X6010Y2179*
Y2180*
G37*
G36*
X5965D02*
X5930D01*
Y2179*
X5932Y2169*
X5937Y2160*
X5945Y2152*
X5954Y2147*
X5964Y2145*
X5965*
Y2180*
G37*
G36*
X1280Y2210D02*
X1178D01*
X1165Y2208*
X1153Y2203*
X1150Y2201*
X1105*
Y2165*
X1178*
Y2155*
X1105*
Y2118*
X1150*
X1153Y2116*
X1165Y2111*
X1178Y2109*
X1280*
X1293Y2111*
X1305Y2116*
X1315Y2124*
X1323Y2134*
X1328Y2146*
X1330Y2160*
X1328Y2173*
X1323Y2185*
X1315Y2195*
X1305Y2203*
X1293Y2208*
X1280Y2210*
G37*
G36*
X1571Y2144D02*
X1535D01*
Y2055*
X1525*
Y2144*
X1488*
Y2083*
X1486Y2081*
X1481Y2068*
X1479Y2055*
Y1910*
X1481Y1896*
X1486Y1884*
X1494Y1874*
X1504Y1866*
X1516Y1861*
X1530Y1859*
X1543Y1861*
X1555Y1866*
X1565Y1874*
X1573Y1884*
X1578Y1896*
X1580Y1910*
Y2055*
X1578Y2068*
X1573Y2081*
X1571Y2083*
Y2144*
G37*
G36*
X730Y2045D02*
X730D01*
Y2010*
X765*
Y2010*
X762Y2020*
X757Y2029*
X749Y2037*
X740Y2042*
X730Y2045*
G37*
G36*
X720D02*
X719D01*
X709Y2042*
X700Y2037*
X692Y2029*
X687Y2020*
X685Y2010*
Y2010*
X720*
Y2045*
G37*
G36*
X2485Y2035D02*
X2485D01*
Y2000*
X2520*
Y2000*
X2517Y2010*
X2512Y2019*
X2504Y2027*
X2495Y2032*
X2485Y2035*
G37*
G36*
X2475D02*
X2474D01*
X2464Y2032*
X2455Y2027*
X2447Y2019*
X2442Y2010*
X2440Y2000*
Y2000*
X2475*
Y2035*
G37*
G36*
X2255D02*
X2255D01*
Y2000*
X2290*
Y2000*
X2287Y2010*
X2282Y2019*
X2274Y2027*
X2265Y2032*
X2255Y2035*
G37*
G36*
X2245D02*
X2244D01*
X2234Y2032*
X2225Y2027*
X2217Y2019*
X2212Y2010*
X2210Y2000*
Y2000*
X2245*
Y2035*
G37*
G36*
X765Y2000D02*
X730D01*
Y1965*
X730*
X740Y1967*
X749Y1972*
X757Y1980*
X762Y1989*
X765Y1999*
Y2000*
G37*
G36*
X720D02*
X685D01*
Y1999*
X687Y1989*
X692Y1980*
X700Y1972*
X709Y1967*
X719Y1965*
X720*
Y2000*
G37*
G36*
X2520Y1990D02*
X2485D01*
Y1955*
X2485*
X2495Y1957*
X2504Y1962*
X2512Y1970*
X2517Y1979*
X2520Y1989*
Y1990*
G37*
G36*
X2475D02*
X2440D01*
Y1989*
X2442Y1979*
X2447Y1970*
X2455Y1962*
X2464Y1957*
X2474Y1955*
X2475*
Y1990*
G37*
G36*
X2290D02*
X2255D01*
Y1955*
X2255*
X2265Y1957*
X2274Y1962*
X2282Y1970*
X2287Y1979*
X2290Y1989*
Y1990*
G37*
G36*
X2245D02*
X2210D01*
Y1989*
X2212Y1979*
X2217Y1970*
X2225Y1962*
X2234Y1957*
X2244Y1955*
X2245*
Y1990*
G37*
G36*
X990D02*
X990D01*
Y1955*
X1025*
Y1955*
X1022Y1965*
X1017Y1974*
X1009Y1982*
X1000Y1987*
X990Y1990*
G37*
G36*
X980D02*
X979D01*
X969Y1987*
X960Y1982*
X952Y1974*
X947Y1965*
X945Y1955*
Y1955*
X980*
Y1990*
G37*
G36*
X1240Y1960D02*
X1240D01*
Y1925*
X1275*
Y1925*
X1272Y1935*
X1267Y1944*
X1259Y1952*
X1250Y1957*
X1240Y1960*
G37*
G36*
X1230D02*
X1229D01*
X1219Y1957*
X1210Y1952*
X1202Y1944*
X1197Y1935*
X1195Y1925*
Y1925*
X1230*
Y1960*
G37*
G36*
X505D02*
X505D01*
Y1925*
X540*
Y1925*
X537Y1935*
X532Y1944*
X524Y1952*
X515Y1957*
X505Y1960*
G37*
G36*
X495D02*
X494D01*
X484Y1957*
X475Y1952*
X467Y1944*
X462Y1935*
X460Y1925*
Y1925*
X495*
Y1960*
G37*
G36*
X2835Y1955D02*
X2835D01*
Y1920*
X2870*
Y1920*
X2867Y1931*
X2862Y1940*
X2854Y1947*
X2845Y1952*
X2835Y1955*
G37*
G36*
X2825D02*
X2824D01*
X2814Y1952*
X2805Y1947*
X2798Y1940*
X2792Y1931*
X2790Y1920*
Y1920*
X2825*
Y1955*
G37*
G36*
X5985Y1955D02*
X5985D01*
Y1920*
X6020*
Y1920*
X6017Y1930*
X6012Y1939*
X6004Y1947*
X5995Y1952*
X5985Y1955*
G37*
G36*
X5975D02*
X5974D01*
X5964Y1952*
X5955Y1947*
X5947Y1939*
X5942Y1930*
X5940Y1920*
Y1920*
X5975*
Y1955*
G37*
G36*
X1025Y1945D02*
X990D01*
Y1910*
X990*
X1000Y1912*
X1009Y1917*
X1017Y1925*
X1022Y1934*
X1025Y1944*
Y1945*
G37*
G36*
X980D02*
X945D01*
Y1944*
X947Y1934*
X952Y1925*
X960Y1917*
X969Y1912*
X979Y1910*
X980*
Y1945*
G37*
G36*
X1275Y1915D02*
X1240D01*
Y1880*
X1240*
X1250Y1882*
X1259Y1887*
X1267Y1895*
X1272Y1904*
X1275Y1914*
Y1915*
G37*
G36*
X1230D02*
X1195D01*
Y1914*
X1197Y1904*
X1202Y1895*
X1210Y1887*
X1219Y1882*
X1229Y1880*
X1230*
Y1915*
G37*
G36*
X540D02*
X505D01*
Y1880*
X505*
X515Y1882*
X524Y1887*
X532Y1895*
X537Y1904*
X540Y1914*
Y1915*
G37*
G36*
X495D02*
X460D01*
Y1914*
X462Y1904*
X467Y1895*
X475Y1887*
X484Y1882*
X494Y1880*
X495*
Y1915*
G37*
G36*
X2870Y1910D02*
X2835D01*
Y1875*
X2835*
X2845Y1878*
X2854Y1883*
X2862Y1891*
X2867Y1900*
X2870Y1910*
Y1910*
G37*
G36*
X2825D02*
X2790D01*
Y1910*
X2792Y1900*
X2798Y1891*
X2805Y1883*
X2814Y1878*
X2824Y1875*
X2825*
Y1910*
G37*
G36*
X6020Y1910D02*
X5985D01*
Y1875*
X5985*
X5995Y1877*
X6004Y1882*
X6012Y1890*
X6017Y1899*
X6020Y1909*
Y1910*
G37*
G36*
X5975D02*
X5940D01*
Y1909*
X5942Y1899*
X5947Y1890*
X5955Y1882*
X5964Y1877*
X5974Y1875*
X5975*
Y1910*
G37*
G36*
X3420Y1885D02*
X3420D01*
Y1850*
X3455*
Y1850*
X3452Y1860*
X3447Y1869*
X3439Y1877*
X3430Y1882*
X3420Y1885*
G37*
G36*
X3410D02*
X3409D01*
X3399Y1882*
X3390Y1877*
X3382Y1869*
X3377Y1860*
X3375Y1850*
Y1850*
X3410*
Y1885*
G37*
G36*
X2975Y1880D02*
X2975D01*
Y1845*
X3010*
Y1845*
X3007Y1855*
X3002Y1864*
X2994Y1872*
X2985Y1877*
X2975Y1880*
G37*
G36*
X2965D02*
X2964D01*
X2954Y1877*
X2945Y1872*
X2937Y1864*
X2932Y1855*
X2930Y1845*
Y1845*
X2965*
Y1880*
G37*
G36*
X2555Y1870D02*
X2555D01*
Y1835*
X2590*
Y1835*
X2587Y1845*
X2582Y1854*
X2574Y1862*
X2565Y1867*
X2555Y1870*
G37*
G36*
X2545D02*
X2544D01*
X2534Y1867*
X2525Y1862*
X2517Y1854*
X2512Y1845*
X2510Y1835*
Y1835*
X2545*
Y1870*
G37*
G36*
X2165D02*
X2165D01*
Y1835*
X2200*
Y1835*
X2197Y1845*
X2192Y1854*
X2184Y1862*
X2175Y1867*
X2165Y1870*
G37*
G36*
X2155D02*
X2154D01*
X2144Y1867*
X2135Y1862*
X2127Y1854*
X2122Y1845*
X2120Y1835*
Y1835*
X2155*
Y1870*
G37*
G36*
X3455Y1840D02*
X3420D01*
Y1805*
X3420*
X3430Y1807*
X3439Y1812*
X3447Y1820*
X3452Y1829*
X3455Y1839*
Y1840*
G37*
G36*
X3410D02*
X3375D01*
Y1839*
X3377Y1829*
X3382Y1820*
X3390Y1812*
X3399Y1807*
X3409Y1805*
X3410*
Y1840*
G37*
G36*
X3010Y1835D02*
X2975D01*
Y1800*
X2975*
X2985Y1802*
X2994Y1807*
X3002Y1815*
X3007Y1824*
X3010Y1834*
Y1835*
G37*
G36*
X2965D02*
X2930D01*
Y1834*
X2932Y1824*
X2937Y1815*
X2945Y1807*
X2954Y1802*
X2964Y1800*
X2965*
Y1835*
G37*
G36*
X2590Y1825D02*
X2555D01*
Y1790*
X2555*
X2565Y1792*
X2574Y1797*
X2582Y1805*
X2587Y1814*
X2590Y1824*
Y1825*
G37*
G36*
X2545D02*
X2510D01*
Y1824*
X2512Y1814*
X2517Y1805*
X2525Y1797*
X2534Y1792*
X2544Y1790*
X2545*
Y1825*
G37*
G36*
X1305Y1805D02*
X1305D01*
Y1770*
X1340*
Y1770*
X1337Y1780*
X1332Y1789*
X1324Y1797*
X1315Y1802*
X1305Y1805*
G37*
G36*
X1295D02*
X1294D01*
X1284Y1802*
X1275Y1797*
X1267Y1789*
X1262Y1780*
X1260Y1770*
Y1770*
X1295*
Y1805*
G37*
G36*
X1490Y1790D02*
X1490D01*
Y1755*
X1525*
Y1755*
X1522Y1765*
X1517Y1774*
X1509Y1782*
X1500Y1787*
X1490Y1790*
G37*
G36*
X1480D02*
X1479D01*
X1469Y1787*
X1460Y1782*
X1452Y1774*
X1447Y1765*
X1445Y1755*
Y1755*
X1480*
Y1790*
G37*
G36*
X1340Y1760D02*
X1305D01*
Y1725*
X1305*
X1315Y1727*
X1324Y1732*
X1332Y1740*
X1337Y1749*
X1340Y1759*
Y1760*
G37*
G36*
X1295D02*
X1260D01*
Y1759*
X1262Y1749*
X1267Y1740*
X1275Y1732*
X1284Y1727*
X1294Y1725*
X1295*
Y1760*
G37*
G36*
X1525Y1745D02*
X1490D01*
Y1710*
X1490*
X1500Y1712*
X1509Y1717*
X1517Y1725*
X1522Y1734*
X1525Y1744*
Y1745*
G37*
G36*
X1480D02*
X1445D01*
Y1744*
X1447Y1734*
X1452Y1725*
X1460Y1717*
X1469Y1712*
X1479Y1710*
X1480*
Y1745*
G37*
G36*
X5980Y1725D02*
X5980D01*
Y1690*
X6015*
Y1690*
X6012Y1700*
X6007Y1709*
X5999Y1717*
X5990Y1722*
X5980Y1725*
G37*
G36*
X5970D02*
X5969D01*
X5959Y1722*
X5950Y1717*
X5942Y1709*
X5937Y1700*
X5935Y1690*
Y1690*
X5970*
Y1725*
G37*
G36*
X857Y1736D02*
X855D01*
Y1686*
X904*
Y1688*
X901Y1702*
X893Y1715*
X883Y1725*
X871Y1732*
X857Y1736*
G37*
G36*
X845D02*
X842D01*
X828Y1732*
X816Y1725*
X806Y1715*
X798Y1702*
X795Y1688*
Y1686*
X845*
Y1736*
G37*
G36*
X1050Y1720D02*
X1050D01*
Y1685*
X1085*
Y1685*
X1082Y1695*
X1077Y1704*
X1069Y1712*
X1060Y1717*
X1050Y1720*
G37*
G36*
X1040D02*
X1039D01*
X1029Y1717*
X1020Y1712*
X1012Y1704*
X1007Y1695*
X1005Y1685*
Y1685*
X1040*
Y1720*
G37*
G36*
X595Y1715D02*
X595D01*
Y1680*
X630*
Y1680*
X627Y1690*
X622Y1699*
X614Y1707*
X605Y1712*
X595Y1715*
G37*
G36*
X585D02*
X584D01*
X574Y1712*
X565Y1707*
X557Y1699*
X552Y1690*
X550Y1680*
Y1680*
X585*
Y1715*
G37*
G36*
X2666Y1700D02*
X2586D01*
Y1655*
X2666*
Y1700*
G37*
G36*
X6015Y1680D02*
X5980D01*
Y1645*
X5980*
X5990Y1647*
X5999Y1652*
X6007Y1660*
X6012Y1669*
X6015Y1679*
Y1680*
G37*
G36*
X5970D02*
X5935D01*
Y1679*
X5937Y1669*
X5942Y1660*
X5950Y1652*
X5959Y1647*
X5969Y1645*
X5970*
Y1680*
G37*
G36*
X1085Y1675D02*
X1050D01*
Y1640*
X1050*
X1060Y1642*
X1069Y1647*
X1077Y1655*
X1082Y1664*
X1085Y1674*
Y1675*
G37*
G36*
X1040D02*
X1005D01*
Y1674*
X1007Y1664*
X1012Y1655*
X1020Y1647*
X1029Y1642*
X1039Y1640*
X1040*
Y1675*
G37*
G36*
X630Y1670D02*
X595D01*
Y1635*
X595*
X605Y1637*
X614Y1642*
X622Y1650*
X627Y1659*
X630Y1669*
Y1670*
G37*
G36*
X585D02*
X550D01*
Y1669*
X552Y1659*
X557Y1650*
X565Y1642*
X574Y1637*
X584Y1635*
X585*
Y1670*
G37*
G36*
X904Y1676D02*
X855D01*
Y1626*
X857*
X871Y1630*
X883Y1637*
X893Y1647*
X901Y1660*
X904Y1674*
Y1676*
G37*
G36*
X845D02*
X795D01*
Y1674*
X798Y1660*
X806Y1647*
X816Y1637*
X828Y1630*
X842Y1626*
X845*
Y1676*
G37*
G36*
X1875Y1655D02*
X1875D01*
Y1620*
X1910*
Y1620*
X1907Y1630*
X1902Y1639*
X1894Y1647*
X1885Y1652*
X1875Y1655*
G37*
G36*
X1865D02*
X1864D01*
X1854Y1652*
X1845Y1647*
X1837Y1639*
X1832Y1630*
X1830Y1620*
Y1620*
X1865*
Y1655*
G37*
G36*
X1275Y1628D02*
Y1606D01*
X1297*
X1295Y1611*
X1292Y1618*
X1287Y1623*
X1280Y1626*
X1275Y1628*
G37*
G36*
X1265D02*
X1259Y1626D01*
X1252Y1623*
X1247Y1618*
X1244Y1611*
X1242Y1606*
X1265*
Y1628*
G37*
G36*
X2756Y1700D02*
X2676D01*
Y1650*
Y1599*
X2756*
Y1614*
X2776*
X2785Y1615*
X2793Y1619*
X2800Y1625*
X2806Y1632*
X2810Y1640*
X2811Y1650*
X2810Y1659*
X2806Y1667*
X2800Y1674*
X2793Y1680*
X2785Y1684*
X2776Y1685*
X2756*
Y1700*
G37*
G36*
X2666Y1645D02*
X2586D01*
Y1599*
X2666*
Y1645*
G37*
G36*
X4913Y1638D02*
X4906D01*
X4898Y1636*
X4892Y1633*
X4886Y1627*
X4883Y1621*
X4881Y1613*
Y1606*
X4883Y1598*
X4886Y1592*
X4892Y1586*
X4898Y1583*
X4906Y1581*
X4913*
X4921Y1583*
X4927Y1586*
X4933Y1592*
X4936Y1598*
X4938Y1606*
Y1613*
X4936Y1621*
X4933Y1627*
X4927Y1633*
X4921Y1636*
X4913Y1638*
G37*
G36*
X1910Y1610D02*
X1875D01*
Y1575*
X1875*
X1885Y1577*
X1894Y1582*
X1902Y1590*
X1907Y1599*
X1910Y1609*
Y1610*
G37*
G36*
X1865D02*
X1830D01*
Y1609*
X1832Y1599*
X1837Y1590*
X1845Y1582*
X1854Y1577*
X1864Y1575*
X1865*
Y1610*
G37*
G36*
X1297Y1596D02*
X1275D01*
Y1573*
X1280Y1575*
X1287Y1578*
X1292Y1583*
X1295Y1590*
X1297Y1596*
G37*
G36*
X1265D02*
X1242D01*
X1244Y1590*
X1247Y1583*
X1252Y1578*
X1259Y1575*
X1265Y1573*
Y1596*
G37*
G36*
X630Y1540D02*
X630D01*
Y1505*
X665*
Y1505*
X662Y1515*
X657Y1524*
X649Y1532*
X640Y1537*
X630Y1540*
G37*
G36*
X620D02*
X619D01*
X609Y1537*
X600Y1532*
X592Y1524*
X587Y1515*
X585Y1505*
Y1505*
X620*
Y1540*
G37*
G36*
X4784Y1510D02*
Y1487D01*
X4806*
X4805Y1493*
X4801Y1499*
X4796Y1504*
X4790Y1508*
X4784Y1510*
G37*
G36*
X4774D02*
X4768Y1508D01*
X4762Y1504*
X4757Y1499*
X4753Y1493*
X4752Y1487*
X4774*
Y1510*
G37*
G36*
X4872Y1509D02*
Y1487D01*
X4894*
X4892Y1492*
X4889Y1499*
X4884Y1504*
X4877Y1507*
X4872Y1509*
G37*
G36*
X4862D02*
X4856Y1507D01*
X4849Y1504*
X4844Y1499*
X4841Y1492*
X4839Y1487*
X4862*
Y1509*
G37*
G36*
X3805Y1860D02*
X3791Y1858D01*
X3778Y1854*
X3765Y1848*
X3755Y1839*
X3746Y1829*
X3740Y1816*
X3736Y1803*
X3734Y1790*
Y1565*
X3736Y1551*
X3740Y1538*
X3746Y1525*
X3755Y1515*
X3770Y1500*
X3780Y1491*
X3793Y1485*
X3806Y1481*
X3820Y1479*
X3833Y1481*
X3846Y1485*
X3859Y1491*
X3869Y1500*
X3878Y1510*
X3884Y1523*
X3888Y1536*
X3890Y1550*
X3888Y1563*
X3884Y1576*
X3878Y1589*
X3875Y1592*
Y1790*
X3873Y1803*
X3869Y1816*
X3863Y1829*
X3854Y1839*
X3844Y1848*
X3831Y1854*
X3818Y1858*
X3805Y1860*
G37*
G36*
X805Y1510D02*
X805D01*
Y1475*
X840*
Y1475*
X837Y1485*
X832Y1494*
X824Y1502*
X815Y1507*
X805Y1510*
G37*
G36*
X795D02*
X794D01*
X784Y1507*
X775Y1502*
X767Y1494*
X762Y1485*
X760Y1475*
Y1475*
X795*
Y1510*
G37*
G36*
X5975Y1495D02*
X5975D01*
Y1460*
X6010*
Y1460*
X6007Y1470*
X6002Y1479*
X5994Y1487*
X5985Y1492*
X5975Y1495*
G37*
G36*
X5965D02*
X5964D01*
X5954Y1492*
X5945Y1487*
X5937Y1479*
X5932Y1470*
X5930Y1460*
Y1460*
X5965*
Y1495*
G37*
G36*
X665D02*
X630D01*
Y1460*
X630*
X640Y1462*
X649Y1467*
X657Y1475*
X662Y1484*
X665Y1494*
Y1495*
G37*
G36*
X620D02*
X585D01*
Y1494*
X587Y1484*
X592Y1475*
X600Y1467*
X609Y1462*
X619Y1460*
X620*
Y1495*
G37*
G36*
X4806Y1477D02*
X4784D01*
Y1455*
X4790Y1456*
X4796Y1460*
X4801Y1465*
X4805Y1472*
X4806Y1477*
G37*
G36*
X4774D02*
X4752D01*
X4753Y1472*
X4757Y1465*
X4762Y1460*
X4768Y1456*
X4774Y1455*
Y1477*
G37*
G36*
X4894Y1477D02*
X4872D01*
Y1454*
X4877Y1456*
X4884Y1459*
X4889Y1464*
X4892Y1471*
X4894Y1477*
G37*
G36*
X4862D02*
X4839D01*
X4841Y1471*
X4844Y1464*
X4849Y1459*
X4856Y1456*
X4862Y1454*
Y1477*
G37*
G36*
X5015Y1485D02*
X5015D01*
Y1450*
X5050*
Y1450*
X5047Y1460*
X5042Y1469*
X5034Y1477*
X5025Y1482*
X5015Y1485*
G37*
G36*
X5005D02*
X5004D01*
X4994Y1482*
X4985Y1477*
X4977Y1469*
X4972Y1460*
X4970Y1450*
Y1450*
X5005*
Y1485*
G37*
G36*
X1060Y1470D02*
X1060D01*
Y1435*
X1095*
Y1435*
X1092Y1445*
X1087Y1454*
X1079Y1462*
X1070Y1467*
X1060Y1470*
G37*
G36*
X1050D02*
X1049D01*
X1039Y1467*
X1030Y1462*
X1022Y1454*
X1017Y1445*
X1015Y1435*
Y1435*
X1050*
Y1470*
G37*
G36*
X840Y1465D02*
X805D01*
Y1430*
X805*
X815Y1432*
X824Y1437*
X832Y1445*
X837Y1454*
X840Y1464*
Y1465*
G37*
G36*
X795D02*
X760D01*
Y1464*
X762Y1454*
X767Y1445*
X775Y1437*
X784Y1432*
X794Y1430*
X795*
Y1465*
G37*
G36*
X5210Y1455D02*
X5210D01*
Y1420*
X5245*
Y1420*
X5242Y1430*
X5237Y1439*
X5229Y1447*
X5220Y1452*
X5210Y1455*
G37*
G36*
X5200D02*
X5199D01*
X5189Y1452*
X5180Y1447*
X5172Y1439*
X5167Y1430*
X5165Y1420*
Y1420*
X5200*
Y1455*
G37*
G36*
X6010Y1450D02*
X5975D01*
Y1415*
X5975*
X5985Y1417*
X5994Y1422*
X6002Y1430*
X6007Y1439*
X6010Y1449*
Y1450*
G37*
G36*
X5965D02*
X5930D01*
Y1449*
X5932Y1439*
X5937Y1430*
X5945Y1422*
X5954Y1417*
X5964Y1415*
X5965*
Y1450*
G37*
G36*
X5050Y1440D02*
X5015D01*
Y1405*
X5015*
X5025Y1407*
X5034Y1412*
X5042Y1420*
X5047Y1429*
X5050Y1439*
Y1440*
G37*
G36*
X5005D02*
X4970D01*
Y1439*
X4972Y1429*
X4977Y1420*
X4985Y1412*
X4994Y1407*
X5004Y1405*
X5005*
Y1440*
G37*
G36*
X1095Y1425D02*
X1060D01*
Y1390*
X1060*
X1070Y1392*
X1079Y1397*
X1087Y1405*
X1092Y1414*
X1095Y1424*
Y1425*
G37*
G36*
X1050D02*
X1015D01*
Y1424*
X1017Y1414*
X1022Y1405*
X1030Y1397*
X1039Y1392*
X1049Y1390*
X1050*
Y1425*
G37*
G36*
X5245Y1410D02*
X5210D01*
Y1375*
X5210*
X5220Y1377*
X5229Y1382*
X5237Y1390*
X5242Y1399*
X5245Y1409*
Y1410*
G37*
G36*
X5200D02*
X5165D01*
Y1409*
X5167Y1399*
X5172Y1390*
X5180Y1382*
X5189Y1377*
X5199Y1375*
X5200*
Y1410*
G37*
G36*
X4895Y1395D02*
X4895D01*
Y1360*
X4930*
Y1360*
X4927Y1370*
X4922Y1379*
X4914Y1387*
X4905Y1392*
X4895Y1395*
G37*
G36*
X4885D02*
X4884D01*
X4874Y1392*
X4865Y1387*
X4857Y1379*
X4852Y1370*
X4850Y1360*
Y1360*
X4885*
Y1395*
G37*
G36*
X4930Y1350D02*
X4895D01*
Y1315*
X4895*
X4905Y1317*
X4914Y1322*
X4922Y1330*
X4927Y1339*
X4930Y1349*
Y1350*
G37*
G36*
X4885D02*
X4850D01*
Y1349*
X4852Y1339*
X4857Y1330*
X4865Y1322*
X4874Y1317*
X4884Y1315*
X4885*
Y1350*
G37*
G36*
X570Y1335D02*
X570D01*
Y1300*
X605*
Y1300*
X602Y1310*
X597Y1319*
X589Y1327*
X580Y1332*
X570Y1335*
G37*
G36*
X560D02*
X559D01*
X549Y1332*
X540Y1327*
X532Y1319*
X527Y1310*
X525Y1300*
Y1300*
X560*
Y1335*
G37*
G36*
X3075Y1315D02*
X3075D01*
Y1280*
X3110*
Y1280*
X3107Y1290*
X3102Y1299*
X3094Y1307*
X3085Y1312*
X3075Y1315*
G37*
G36*
X3065D02*
X3064D01*
X3054Y1312*
X3045Y1307*
X3037Y1299*
X3032Y1290*
X3030Y1280*
Y1280*
X3065*
Y1315*
G37*
G36*
X835Y1310D02*
X835D01*
Y1275*
X870*
Y1275*
X867Y1285*
X862Y1294*
X854Y1302*
X845Y1307*
X835Y1310*
G37*
G36*
X825D02*
X824D01*
X814Y1307*
X805Y1302*
X797Y1294*
X792Y1285*
X790Y1275*
Y1275*
X825*
Y1310*
G37*
G36*
X5020Y1300D02*
X5020D01*
Y1265*
X5055*
Y1265*
X5052Y1275*
X5047Y1284*
X5039Y1292*
X5030Y1297*
X5020Y1300*
G37*
G36*
X5010D02*
X5009D01*
X4999Y1297*
X4990Y1292*
X4982Y1284*
X4977Y1275*
X4975Y1265*
Y1265*
X5010*
Y1300*
G37*
G36*
X5335Y1290D02*
X5335D01*
Y1255*
X5370*
Y1255*
X5367Y1265*
X5362Y1274*
X5354Y1282*
X5345Y1287*
X5335Y1290*
G37*
G36*
X5325D02*
X5324D01*
X5314Y1287*
X5305Y1282*
X5297Y1274*
X5292Y1265*
X5290Y1255*
Y1255*
X5325*
Y1290*
G37*
G36*
X605D02*
X570D01*
Y1255*
X570*
X580Y1257*
X589Y1262*
X597Y1270*
X602Y1279*
X605Y1289*
Y1290*
G37*
G36*
X560D02*
X525D01*
Y1289*
X527Y1279*
X532Y1270*
X540Y1262*
X549Y1257*
X559Y1255*
X560*
Y1290*
G37*
G36*
X3110Y1270D02*
X3075D01*
Y1235*
X3075*
X3085Y1237*
X3094Y1242*
X3102Y1250*
X3107Y1259*
X3110Y1269*
Y1270*
G37*
G36*
X3065D02*
X3030D01*
Y1269*
X3032Y1259*
X3037Y1250*
X3045Y1242*
X3054Y1237*
X3064Y1235*
X3065*
Y1270*
G37*
G36*
X870Y1265D02*
X835D01*
Y1230*
X835*
X845Y1232*
X854Y1237*
X862Y1245*
X867Y1254*
X870Y1264*
Y1265*
G37*
G36*
X825D02*
X790D01*
Y1264*
X792Y1254*
X797Y1245*
X805Y1237*
X814Y1232*
X824Y1230*
X825*
Y1265*
G37*
G36*
X5055Y1255D02*
X5020D01*
Y1220*
X5020*
X5030Y1222*
X5039Y1227*
X5047Y1235*
X5052Y1244*
X5055Y1254*
Y1255*
G37*
G36*
X5010D02*
X4975D01*
Y1254*
X4977Y1244*
X4982Y1235*
X4990Y1227*
X4999Y1222*
X5009Y1220*
X5010*
Y1255*
G37*
G36*
X3590D02*
X3590D01*
Y1220*
X3625*
Y1220*
X3622Y1230*
X3617Y1239*
X3609Y1247*
X3600Y1252*
X3590Y1255*
G37*
G36*
X3580D02*
X3579D01*
X3569Y1252*
X3560Y1247*
X3552Y1239*
X3547Y1230*
X3545Y1220*
Y1220*
X3580*
Y1255*
G37*
G36*
X2440Y1250D02*
X2440D01*
Y1215*
X2475*
Y1215*
X2472Y1225*
X2467Y1234*
X2459Y1242*
X2450Y1247*
X2440Y1250*
G37*
G36*
X2430D02*
X2429D01*
X2419Y1247*
X2410Y1242*
X2402Y1234*
X2397Y1225*
X2395Y1215*
Y1215*
X2430*
Y1250*
G37*
G36*
X5685Y1250D02*
X5685D01*
Y1215*
X5720*
Y1215*
X5717Y1225*
X5712Y1234*
X5704Y1242*
X5695Y1247*
X5685Y1250*
G37*
G36*
X5370Y1245D02*
X5335D01*
Y1210*
X5335*
X5345Y1212*
X5354Y1217*
X5362Y1225*
X5367Y1234*
X5370Y1244*
Y1245*
G37*
G36*
X5325D02*
X5290D01*
Y1244*
X5292Y1234*
X5297Y1225*
X5305Y1217*
X5314Y1212*
X5324Y1210*
X5325*
Y1245*
G37*
G36*
X2713Y1256D02*
X2677D01*
X2640*
Y1234*
X2641*
Y1222*
X2637Y1215*
X2635Y1205*
Y1205*
X2715*
Y1205*
X2712Y1215*
Y1234*
X2713*
Y1256*
G37*
G36*
X3625Y1210D02*
X3590D01*
Y1175*
X3590*
X3600Y1177*
X3609Y1182*
X3617Y1190*
X3622Y1199*
X3625Y1209*
Y1210*
G37*
G36*
X3580D02*
X3545D01*
Y1209*
X3547Y1199*
X3552Y1190*
X3560Y1182*
X3569Y1177*
X3579Y1175*
X3580*
Y1210*
G37*
G36*
X5975Y1205D02*
X5975D01*
Y1170*
X6010*
Y1170*
X6007Y1180*
X6002Y1189*
X5994Y1197*
X5985Y1202*
X5975Y1205*
G37*
G36*
X5965D02*
X5964D01*
X5954Y1202*
X5945Y1197*
X5937Y1189*
X5932Y1180*
X5930Y1170*
Y1170*
X5965*
Y1205*
G37*
G36*
X2475D02*
X2440D01*
Y1170*
X2440*
X2450Y1172*
X2459Y1177*
X2467Y1185*
X2472Y1194*
X2475Y1204*
Y1205*
G37*
G36*
X2430D02*
X2395D01*
Y1204*
X2397Y1194*
X2402Y1185*
X2410Y1177*
X2419Y1172*
X2429Y1170*
X2430*
Y1205*
G37*
G36*
X5720D02*
X5685D01*
Y1169*
X5685*
X5695Y1172*
X5704Y1177*
X5712Y1185*
X5717Y1194*
X5720Y1204*
Y1205*
G37*
G36*
X2715Y1195D02*
X2680D01*
Y1160*
X2680*
X2690Y1162*
X2699Y1167*
X2707Y1175*
X2712Y1184*
X2715Y1194*
Y1195*
G37*
G36*
X2670D02*
X2635D01*
Y1194*
X2637Y1184*
X2642Y1175*
X2650Y1167*
X2659Y1162*
X2669Y1160*
X2670*
Y1195*
G37*
G36*
X1990Y1180D02*
X1990D01*
Y1145*
X2025*
Y1145*
X2022Y1155*
X2017Y1164*
X2009Y1172*
X2000Y1177*
X1990Y1180*
G37*
G36*
X1980D02*
X1979D01*
X1969Y1177*
X1960Y1172*
X1952Y1164*
X1947Y1155*
X1945Y1145*
Y1145*
X1980*
Y1180*
G37*
G36*
X6010Y1160D02*
X5975D01*
Y1125*
X5975*
X5985Y1127*
X5994Y1132*
X6002Y1140*
X6007Y1149*
X6010Y1159*
Y1160*
G37*
G36*
X5965D02*
X5930D01*
Y1159*
X5932Y1149*
X5937Y1140*
X5945Y1132*
X5954Y1127*
X5964Y1125*
X5965*
Y1160*
G37*
G36*
X5190Y1150D02*
X5190D01*
Y1115*
X5225*
Y1115*
X5222Y1125*
X5217Y1134*
X5209Y1142*
X5200Y1147*
X5190Y1150*
G37*
G36*
X5180D02*
X5179D01*
X5169Y1147*
X5160Y1142*
X5152Y1134*
X5147Y1125*
X5145Y1115*
Y1115*
X5180*
Y1150*
G37*
G36*
X2025Y1135D02*
X1990D01*
Y1100*
X1990*
X2000Y1102*
X2009Y1107*
X2017Y1115*
X2022Y1124*
X2025Y1134*
Y1135*
G37*
G36*
X1980D02*
X1945D01*
Y1134*
X1947Y1124*
X1952Y1115*
X1960Y1107*
X1969Y1102*
X1979Y1100*
X1980*
Y1135*
G37*
G36*
X5450Y1105D02*
X5450D01*
Y1070*
X5485*
Y1070*
X5482Y1080*
X5477Y1089*
X5469Y1097*
X5460Y1102*
X5450Y1105*
G37*
G36*
X5440D02*
X5439D01*
X5429Y1102*
X5420Y1097*
X5412Y1089*
X5407Y1080*
X5405Y1070*
Y1070*
X5440*
Y1105*
G37*
G36*
X5225D02*
X5190D01*
Y1070*
X5190*
X5200Y1072*
X5209Y1077*
X5217Y1085*
X5222Y1094*
X5225Y1104*
Y1105*
G37*
G36*
X5180D02*
X5145D01*
Y1104*
X5147Y1094*
X5152Y1085*
X5160Y1077*
X5169Y1072*
X5179Y1070*
X5180*
Y1105*
G37*
G36*
X1620Y1100D02*
X1620D01*
Y1065*
X1655*
Y1065*
X1652Y1075*
X1647Y1084*
X1639Y1092*
X1630Y1097*
X1620Y1100*
G37*
G36*
X1610D02*
X1609D01*
X1599Y1097*
X1590Y1092*
X1582Y1084*
X1577Y1075*
X1575Y1065*
Y1065*
X1610*
Y1100*
G37*
G36*
X470Y1075D02*
X470D01*
Y1040*
X505*
Y1040*
X502Y1050*
X497Y1059*
X489Y1067*
X480Y1072*
X470Y1075*
G37*
G36*
X460D02*
X459D01*
X449Y1072*
X440Y1067*
X432Y1059*
X427Y1050*
X425Y1040*
Y1040*
X460*
Y1075*
G37*
G36*
X5735Y1065D02*
X5735D01*
Y1030*
X5770*
Y1030*
X5767Y1040*
X5762Y1049*
X5754Y1057*
X5745Y1062*
X5735Y1065*
G37*
G36*
X5725D02*
X5724D01*
X5714Y1062*
X5705Y1057*
X5697Y1049*
X5692Y1040*
X5690Y1030*
Y1030*
X5725*
Y1065*
G37*
G36*
X2715D02*
X2715D01*
Y1030*
X2750*
Y1030*
X2747Y1040*
X2742Y1049*
X2734Y1057*
X2725Y1062*
X2715Y1065*
G37*
G36*
X2705D02*
X2704D01*
X2694Y1062*
X2685Y1057*
X2677Y1049*
X2672Y1040*
X2670Y1030*
Y1030*
X2705*
Y1065*
G37*
G36*
X5485Y1060D02*
X5450D01*
Y1025*
X5450*
X5460Y1027*
X5469Y1032*
X5477Y1040*
X5482Y1049*
X5485Y1059*
Y1060*
G37*
G36*
X5440D02*
X5405D01*
Y1059*
X5407Y1049*
X5412Y1040*
X5420Y1032*
X5429Y1027*
X5439Y1025*
X5440*
Y1060*
G37*
G36*
X1655Y1055D02*
X1620D01*
Y1020*
X1620*
X1630Y1022*
X1639Y1027*
X1647Y1035*
X1652Y1044*
X1655Y1054*
Y1055*
G37*
G36*
X1610D02*
X1575D01*
Y1054*
X1577Y1044*
X1582Y1035*
X1590Y1027*
X1599Y1022*
X1609Y1020*
X1610*
Y1055*
G37*
G36*
X3890Y1050D02*
X3890D01*
Y1015*
X3925*
Y1015*
X3922Y1025*
X3917Y1034*
X3909Y1042*
X3900Y1047*
X3890Y1050*
G37*
G36*
X3880D02*
X3879D01*
X3869Y1047*
X3860Y1042*
X3852Y1034*
X3847Y1025*
X3845Y1015*
Y1015*
X3880*
Y1050*
G37*
G36*
X505Y1030D02*
X470D01*
Y995*
X470*
X480Y997*
X489Y1002*
X497Y1010*
X502Y1019*
X505Y1029*
Y1030*
G37*
G36*
X460D02*
X425D01*
Y1029*
X427Y1019*
X432Y1010*
X440Y1002*
X449Y997*
X459Y995*
X460*
Y1030*
G37*
G36*
X5770Y1020D02*
X5735D01*
Y985*
X5735*
X5745Y987*
X5754Y992*
X5762Y1000*
X5767Y1009*
X5770Y1019*
Y1020*
G37*
G36*
X5725D02*
X5690D01*
Y1019*
X5692Y1009*
X5697Y1000*
X5705Y992*
X5714Y987*
X5724Y985*
X5725*
Y1020*
G37*
G36*
X2750D02*
X2715D01*
Y985*
X2715*
X2725Y987*
X2734Y992*
X2742Y1000*
X2747Y1009*
X2750Y1019*
Y1020*
G37*
G36*
X2705D02*
X2670D01*
Y1019*
X2672Y1009*
X2677Y1000*
X2685Y992*
X2694Y987*
X2704Y985*
X2705*
Y1020*
G37*
G36*
X3925Y1005D02*
X3890D01*
Y970*
X3890*
X3900Y972*
X3909Y977*
X3917Y985*
X3922Y994*
X3925Y1004*
Y1005*
G37*
G36*
X3880D02*
X3845D01*
Y1004*
X3847Y994*
X3852Y985*
X3860Y977*
X3869Y972*
X3879Y970*
X3880*
Y1005*
G37*
G36*
X5330Y1000D02*
X5330D01*
Y965*
X5365*
Y965*
X5362Y975*
X5357Y984*
X5349Y992*
X5340Y997*
X5330Y1000*
G37*
G36*
X5320D02*
X5319D01*
X5309Y997*
X5300Y992*
X5292Y984*
X5287Y975*
X5285Y965*
Y965*
X5320*
Y1000*
G37*
G36*
X2400Y990D02*
X2400D01*
Y955*
X2435*
Y955*
X2432Y965*
X2427Y974*
X2419Y982*
X2410Y987*
X2400Y990*
G37*
G36*
X2390D02*
X2389D01*
X2379Y987*
X2370Y982*
X2362Y974*
X2357Y965*
X2355Y955*
Y955*
X2390*
Y990*
G37*
G36*
X1770Y980D02*
X1770D01*
Y945*
X1805*
Y945*
X1802Y955*
X1797Y964*
X1789Y972*
X1780Y977*
X1770Y980*
G37*
G36*
X1760D02*
X1759D01*
X1749Y977*
X1740Y972*
X1732Y964*
X1727Y955*
X1725Y945*
Y945*
X1760*
Y980*
G37*
G36*
X5365Y955D02*
X5330D01*
Y920*
X5330*
X5340Y922*
X5349Y927*
X5357Y935*
X5362Y944*
X5365Y954*
Y955*
G37*
G36*
X5320D02*
X5285D01*
Y954*
X5287Y944*
X5292Y935*
X5300Y927*
X5309Y922*
X5319Y920*
X5320*
Y955*
G37*
G36*
X2435Y945D02*
X2400D01*
Y910*
X2400*
X2410Y912*
X2419Y917*
X2427Y925*
X2432Y934*
X2435Y944*
Y945*
G37*
G36*
X2390D02*
X2355D01*
Y944*
X2357Y934*
X2362Y925*
X2370Y917*
X2379Y912*
X2389Y910*
X2390*
Y945*
G37*
G36*
X5575Y935D02*
X5575D01*
Y900*
X5610*
Y900*
X5607Y910*
X5602Y919*
X5594Y927*
X5585Y932*
X5575Y935*
G37*
G36*
X5565D02*
X5564D01*
X5554Y932*
X5545Y927*
X5537Y919*
X5532Y910*
X5530Y900*
Y900*
X5565*
Y935*
G37*
G36*
X1805D02*
X1770D01*
Y900*
X1770*
X1780Y902*
X1789Y907*
X1797Y915*
X1802Y924*
X1805Y934*
Y935*
G37*
G36*
X1760D02*
X1725D01*
Y934*
X1727Y924*
X1732Y915*
X1740Y907*
X1749Y902*
X1759Y900*
X1760*
Y935*
G37*
G36*
X5990Y910D02*
X5990D01*
Y875*
X6025*
Y875*
X6022Y885*
X6017Y894*
X6009Y902*
X6000Y907*
X5990Y910*
G37*
G36*
X5980D02*
X5979D01*
X5969Y907*
X5960Y902*
X5952Y894*
X5947Y885*
X5945Y875*
Y875*
X5980*
Y910*
G37*
G36*
X495Y905D02*
X495D01*
Y870*
X530*
Y870*
X527Y880*
X522Y889*
X514Y897*
X505Y902*
X495Y905*
G37*
G36*
X485D02*
X484D01*
X474Y902*
X465Y897*
X457Y889*
X452Y880*
X450Y870*
Y870*
X485*
Y905*
G37*
G36*
X1220Y900D02*
X1220D01*
Y865*
X1255*
Y865*
X1252Y875*
X1247Y884*
X1239Y892*
X1230Y897*
X1220Y900*
G37*
G36*
X1210D02*
X1209D01*
X1199Y897*
X1190Y892*
X1182Y884*
X1177Y875*
X1175Y865*
Y865*
X1210*
Y900*
G37*
G36*
X5610Y890D02*
X5575D01*
Y855*
X5575*
X5585Y857*
X5594Y862*
X5602Y870*
X5607Y879*
X5610Y889*
Y890*
G37*
G36*
X5565D02*
X5530D01*
Y889*
X5532Y879*
X5537Y870*
X5545Y862*
X5554Y857*
X5564Y855*
X5565*
Y890*
G37*
G36*
X1065D02*
X1065D01*
Y855*
X1100*
Y855*
X1097Y865*
X1092Y874*
X1084Y882*
X1075Y887*
X1065Y890*
G37*
G36*
X1055D02*
X1054D01*
X1044Y887*
X1035Y882*
X1027Y874*
X1022Y865*
X1020Y855*
Y855*
X1055*
Y890*
G37*
G36*
X6025Y865D02*
X5990D01*
Y830*
X5990*
X6000Y832*
X6009Y837*
X6017Y845*
X6022Y854*
X6025Y864*
Y865*
G37*
G36*
X5980D02*
X5945D01*
Y864*
X5947Y854*
X5952Y845*
X5960Y837*
X5969Y832*
X5979Y830*
X5980*
Y865*
G37*
G36*
X856Y958D02*
X843D01*
X831Y956*
X819Y951*
X808Y944*
X799Y935*
X792Y924*
X787Y912*
X785Y900*
Y887*
X787Y875*
X792Y863*
X799Y852*
X808Y843*
X819Y836*
X831Y831*
X843Y829*
X856*
X868Y831*
X880Y836*
X891Y843*
X900Y852*
X907Y863*
X912Y875*
X914Y887*
Y900*
X912Y912*
X907Y924*
X900Y935*
X891Y944*
X880Y951*
X868Y956*
X856Y958*
G37*
G36*
X1460Y1037D02*
X1448Y1036D01*
X1438Y1032*
X1429Y1025*
X1422Y1016*
X1418Y1006*
X1417Y995*
Y925*
X1418Y914*
X1419Y912*
X1415Y907*
X1411*
Y863*
X1376Y829*
X1247*
Y836*
X1252Y844*
X1255Y854*
Y855*
X1175*
Y854*
X1177Y844*
X1182Y836*
Y769*
X1183Y760*
X1186Y752*
X1191Y745*
X1192Y745*
Y719*
X1210*
Y769*
X1220*
Y719*
X1232*
Y709*
X1232*
Y673*
X1191Y632*
X1105*
X1096Y631*
X1088Y628*
X1081Y623*
X1014Y555*
X949*
Y444*
X1060*
Y509*
X1118Y567*
X1205*
X1209Y567*
X1213Y568*
X1221Y571*
X1228Y576*
X1277Y626*
X1282Y624*
Y573*
X1263Y555*
X1262Y555*
X1247*
X1233Y551*
X1220Y544*
X1210Y534*
X1203Y521*
X1199Y507*
Y492*
X1203Y478*
X1210Y465*
X1220Y455*
X1233Y448*
X1247Y444*
X1262*
X1276Y448*
X1289Y455*
X1299Y465*
X1306Y478*
X1310Y492*
Y507*
X1310Y508*
X1338Y536*
X1343Y543*
X1346Y551*
X1347Y555*
X1347Y560*
Y709*
X1398*
Y750*
X1464Y816*
X1508*
Y819*
X1515*
X1525Y813*
X1538Y810*
X1551*
X1564Y813*
X1575Y819*
X1585Y829*
X1591Y840*
X1595Y853*
Y866*
X1591Y879*
X1585Y890*
X1575Y900*
X1564Y906*
X1551Y910*
X1538*
X1525Y906*
X1523Y905*
X1508*
Y907*
X1504*
X1500Y912*
X1501Y914*
X1502Y925*
Y995*
X1501Y1006*
X1497Y1016*
X1490Y1025*
X1481Y1032*
X1471Y1036*
X1460Y1037*
G37*
G36*
X530Y860D02*
X495D01*
Y825*
X495*
X505Y827*
X514Y832*
X522Y840*
X527Y849*
X530Y859*
Y860*
G37*
G36*
X485D02*
X450D01*
Y859*
X452Y849*
X457Y840*
X465Y832*
X474Y827*
X484Y825*
X485*
Y860*
G37*
G36*
X3950Y855D02*
X3950D01*
Y820*
X3985*
Y820*
X3982Y830*
X3977Y839*
X3969Y847*
X3960Y852*
X3950Y855*
G37*
G36*
X3940D02*
X3939D01*
X3929Y852*
X3920Y847*
X3912Y839*
X3907Y830*
X3905Y820*
Y820*
X3940*
Y855*
G37*
G36*
X2265D02*
X2265D01*
Y820*
X2300*
Y820*
X2297Y830*
X2292Y839*
X2284Y847*
X2275Y852*
X2265Y855*
G37*
G36*
X2255D02*
X2254D01*
X2244Y852*
X2235Y847*
X2227Y839*
X2222Y830*
X2220Y820*
Y820*
X2255*
Y855*
G37*
G36*
X5770Y845D02*
X5770D01*
Y810*
X5805*
Y810*
X5802Y820*
X5797Y829*
X5789Y837*
X5780Y842*
X5770Y845*
G37*
G36*
X5760D02*
X5759D01*
X5749Y842*
X5740Y837*
X5732Y829*
X5727Y820*
X5725Y810*
Y810*
X5760*
Y845*
G37*
G36*
X1100D02*
X1065D01*
Y810*
X1065*
X1075Y812*
X1084Y817*
X1092Y825*
X1097Y834*
X1100Y844*
Y845*
G37*
G36*
X1055D02*
X1020D01*
Y844*
X1022Y834*
X1027Y825*
X1035Y817*
X1044Y812*
X1054Y810*
X1055*
Y845*
G37*
G36*
X2730Y840D02*
X2730D01*
Y805*
X2765*
Y805*
X2762Y815*
X2757Y824*
X2749Y832*
X2740Y837*
X2730Y840*
G37*
G36*
X2720D02*
X2719D01*
X2709Y837*
X2700Y832*
X2692Y824*
X2687Y815*
X2685Y805*
Y805*
X2720*
Y840*
G37*
G36*
X3985Y810D02*
X3950D01*
Y775*
X3950*
X3960Y777*
X3969Y782*
X3977Y790*
X3982Y799*
X3985Y809*
Y810*
G37*
G36*
X3940D02*
X3905D01*
Y809*
X3907Y799*
X3912Y790*
X3920Y782*
X3929Y777*
X3939Y775*
X3940*
Y810*
G37*
G36*
X2300D02*
X2265D01*
Y775*
X2265*
X2275Y777*
X2284Y782*
X2292Y790*
X2297Y799*
X2300Y809*
Y810*
G37*
G36*
X2255D02*
X2220D01*
Y809*
X2222Y799*
X2227Y790*
X2235Y782*
X2244Y777*
X2254Y775*
X2255*
Y810*
G37*
G36*
X5805Y800D02*
X5770D01*
Y765*
X5770*
X5780Y767*
X5789Y772*
X5797Y780*
X5802Y789*
X5805Y799*
Y800*
G37*
G36*
X5760D02*
X5725D01*
Y799*
X5727Y789*
X5732Y780*
X5740Y772*
X5749Y767*
X5759Y765*
X5760*
Y800*
G37*
G36*
X5470Y795D02*
X5470D01*
Y760*
X5505*
Y760*
X5502Y770*
X5497Y779*
X5489Y787*
X5480Y792*
X5470Y795*
G37*
G36*
X5460D02*
X5459D01*
X5449Y792*
X5440Y787*
X5432Y779*
X5427Y770*
X5425Y760*
Y760*
X5460*
Y795*
G37*
G36*
X2765D02*
X2730D01*
Y760*
X2730*
X2740Y762*
X2749Y767*
X2757Y775*
X2762Y784*
X2765Y794*
Y795*
G37*
G36*
X2720D02*
X2685D01*
Y794*
X2687Y784*
X2692Y775*
X2700Y767*
X2709Y762*
X2719Y760*
X2720*
Y795*
G37*
G36*
X5505Y750D02*
X5470D01*
Y715*
X5470*
X5480Y717*
X5489Y722*
X5497Y730*
X5502Y739*
X5505Y749*
Y750*
G37*
G36*
X5460D02*
X5425D01*
Y749*
X5427Y739*
X5432Y730*
X5440Y722*
X5449Y717*
X5459Y715*
X5460*
Y750*
G37*
G36*
X680Y740D02*
X680D01*
Y705*
X715*
Y705*
X712Y715*
X707Y724*
X699Y732*
X690Y737*
X680Y740*
G37*
G36*
X670D02*
X669D01*
X659Y737*
X650Y732*
X642Y724*
X637Y715*
X635Y705*
Y705*
X670*
Y740*
G37*
G36*
X2519Y804D02*
X2410D01*
Y695*
X2519*
Y804*
G37*
G36*
X2200Y1825D02*
X2120D01*
Y1824*
X2122Y1814*
X2127Y1805*
X2133Y1800*
X2131Y1795*
X2026*
Y1305*
X2170*
Y1117*
X1854Y800*
X1853Y800*
X1841Y793*
X1831Y783*
X1823Y771*
X1820Y757*
Y742*
X1823Y728*
X1831Y716*
X1841Y706*
X1853Y699*
X1867Y695*
X1881*
X1895Y699*
X1908Y706*
X1918Y716*
X1925Y728*
X1925Y729*
X2257Y1061*
X2265Y1071*
X2270Y1083*
X2271Y1096*
Y1305*
X2416*
Y1795*
X2188*
X2186Y1800*
X2192Y1805*
X2197Y1814*
X2200Y1824*
Y1825*
G37*
G36*
X715Y695D02*
X680D01*
Y660*
X680*
X690Y662*
X699Y667*
X707Y675*
X712Y684*
X715Y694*
Y695*
G37*
G36*
X670D02*
X635D01*
Y694*
X637Y684*
X642Y675*
X650Y667*
X659Y662*
X669Y660*
X670*
Y695*
G37*
G36*
X1540Y675D02*
X1540D01*
Y640*
X1575*
Y640*
X1572Y650*
X1567Y659*
X1559Y667*
X1550Y672*
X1540Y675*
G37*
G36*
X1530D02*
X1529D01*
X1519Y672*
X1510Y667*
X1502Y659*
X1497Y650*
X1495Y640*
Y640*
X1530*
Y675*
G37*
G36*
X6000Y670D02*
X6000D01*
Y635*
X6035*
Y635*
X6032Y645*
X6027Y654*
X6019Y662*
X6010Y667*
X6000Y670*
G37*
G36*
X5990D02*
X5989D01*
X5979Y667*
X5970Y662*
X5962Y654*
X5957Y645*
X5955Y635*
Y635*
X5990*
Y670*
G37*
G36*
X5640D02*
X5640D01*
Y635*
X5675*
Y635*
X5672Y645*
X5667Y654*
X5659Y662*
X5650Y667*
X5640Y670*
G37*
G36*
X5630D02*
X5629D01*
X5619Y667*
X5610Y662*
X5602Y654*
X5597Y645*
X5595Y635*
Y635*
X5630*
Y670*
G37*
G36*
X505Y665D02*
X505D01*
Y630*
X540*
Y630*
X537Y640*
X532Y649*
X524Y657*
X515Y662*
X505Y665*
G37*
G36*
X495D02*
X494D01*
X484Y662*
X475Y657*
X467Y649*
X462Y640*
X460Y630*
Y630*
X495*
Y665*
G37*
G36*
X2135Y660D02*
X2135D01*
Y625*
X2170*
Y625*
X2167Y635*
X2162Y644*
X2154Y652*
X2145Y657*
X2135Y660*
G37*
G36*
X2125D02*
X2124D01*
X2114Y657*
X2105Y652*
X2097Y644*
X2092Y635*
X2090Y625*
Y625*
X2125*
Y660*
G37*
G36*
X2750Y635D02*
X2750D01*
Y600*
X2785*
Y600*
X2782Y610*
X2777Y619*
X2769Y627*
X2760Y632*
X2750Y635*
G37*
G36*
X2740D02*
X2739D01*
X2729Y632*
X2720Y627*
X2712Y619*
X2707Y610*
X2705Y600*
Y600*
X2740*
Y635*
G37*
G36*
X1575Y630D02*
X1540D01*
Y595*
X1540*
X1550Y597*
X1559Y602*
X1567Y610*
X1572Y619*
X1575Y629*
Y630*
G37*
G36*
X1530D02*
X1495D01*
Y629*
X1497Y619*
X1502Y610*
X1510Y602*
X1519Y597*
X1529Y595*
X1530*
Y630*
G37*
G36*
X6035Y625D02*
X6000D01*
Y590*
X6000*
X6010Y592*
X6019Y597*
X6027Y605*
X6032Y614*
X6035Y624*
Y625*
G37*
G36*
X5990D02*
X5955D01*
Y624*
X5957Y614*
X5962Y605*
X5970Y597*
X5979Y592*
X5989Y590*
X5990*
Y625*
G37*
G36*
X5675D02*
X5640D01*
Y590*
X5640*
X5650Y592*
X5659Y597*
X5667Y605*
X5672Y614*
X5675Y624*
Y625*
G37*
G36*
X5630D02*
X5595D01*
Y624*
X5597Y614*
X5602Y605*
X5610Y597*
X5619Y592*
X5629Y590*
X5630*
Y625*
G37*
G36*
X540Y620D02*
X505D01*
Y585*
X505*
X515Y587*
X524Y592*
X532Y600*
X537Y609*
X540Y619*
Y620*
G37*
G36*
X495D02*
X460D01*
Y619*
X462Y609*
X467Y600*
X475Y592*
X484Y587*
X494Y585*
X495*
Y620*
G37*
G36*
X2170Y615D02*
X2135D01*
Y580*
X2135*
X2145Y582*
X2154Y587*
X2162Y595*
X2167Y604*
X2170Y614*
Y615*
G37*
G36*
X2125D02*
X2090D01*
Y614*
X2092Y604*
X2097Y595*
X2105Y587*
X2114Y582*
X2124Y580*
X2125*
Y615*
G37*
G36*
X5825Y610D02*
X5825D01*
Y575*
X5860*
Y575*
X5857Y585*
X5852Y594*
X5844Y602*
X5835Y607*
X5825Y610*
G37*
G36*
X5815D02*
X5814D01*
X5804Y607*
X5795Y602*
X5787Y594*
X5782Y585*
X5780Y575*
Y575*
X5815*
Y610*
G37*
G36*
X3925Y590D02*
X3925D01*
Y555*
X3960*
Y555*
X3957Y565*
X3952Y574*
X3944Y582*
X3935Y587*
X3925Y590*
G37*
G36*
X3915D02*
X3914D01*
X3904Y587*
X3895Y582*
X3887Y574*
X3882Y565*
X3880Y555*
Y555*
X3915*
Y590*
G37*
G36*
X2785D02*
X2750D01*
Y555*
X2750*
X2760Y557*
X2769Y562*
X2777Y570*
X2782Y579*
X2785Y589*
Y590*
G37*
G36*
X2740D02*
X2705D01*
Y589*
X2707Y579*
X2712Y570*
X2720Y562*
X2729Y557*
X2739Y555*
X2740*
Y590*
G37*
G36*
X1875D02*
X1875D01*
Y555*
X1910*
Y555*
X1907Y565*
X1902Y574*
X1894Y582*
X1885Y587*
X1875Y590*
G37*
G36*
X1865D02*
X1864D01*
X1854Y587*
X1845Y582*
X1837Y574*
X1832Y565*
X1830Y555*
Y555*
X1865*
Y590*
G37*
G36*
X5860Y565D02*
X5825D01*
Y530*
X5825*
X5835Y532*
X5844Y537*
X5852Y545*
X5857Y554*
X5860Y564*
Y565*
G37*
G36*
X5815D02*
X5780D01*
Y564*
X5782Y554*
X5787Y545*
X5795Y537*
X5804Y532*
X5814Y530*
X5815*
Y565*
G37*
G36*
X3960Y545D02*
X3925D01*
Y510*
X3925*
X3935Y512*
X3944Y517*
X3952Y525*
X3957Y534*
X3960Y544*
Y545*
G37*
G36*
X3915D02*
X3880D01*
Y544*
X3882Y534*
X3887Y525*
X3895Y517*
X3904Y512*
X3914Y510*
X3915*
Y545*
G37*
G36*
X1910D02*
X1875D01*
Y510*
X1875*
X1885Y512*
X1894Y517*
X1902Y525*
X1907Y534*
X1910Y544*
Y545*
G37*
G36*
X1865D02*
X1830D01*
Y544*
X1832Y534*
X1837Y525*
X1845Y517*
X1854Y512*
X1864Y510*
X1865*
Y545*
G37*
G36*
X2250Y515D02*
X2250D01*
Y480*
X2285*
Y480*
X2282Y490*
X2277Y499*
X2269Y507*
X2260Y512*
X2250Y515*
G37*
G36*
X2240D02*
X2239D01*
X2229Y512*
X2220Y507*
X2212Y499*
X2207Y490*
X2205Y480*
Y480*
X2240*
Y515*
G37*
G36*
X5103Y492D02*
X5103D01*
Y455*
X5139*
Y456*
X5136Y466*
X5131Y476*
X5123Y483*
X5114Y489*
X5103Y492*
G37*
G36*
X5093D02*
X5092D01*
X5082Y489*
X5072Y483*
X5064Y476*
X5059Y466*
X5056Y456*
Y455*
X5093*
Y492*
G37*
G36*
X5790Y485D02*
X5790D01*
Y450*
X5825*
Y450*
X5822Y460*
X5817Y469*
X5809Y477*
X5800Y482*
X5790Y485*
G37*
G36*
X5780D02*
X5779D01*
X5769Y482*
X5760Y477*
X5752Y469*
X5747Y460*
X5745Y450*
Y450*
X5780*
Y485*
G37*
G36*
X1540D02*
X1540D01*
Y450*
X1575*
Y450*
X1572Y460*
X1567Y469*
X1559Y477*
X1550Y482*
X1540Y485*
G37*
G36*
X1530D02*
X1529D01*
X1519Y482*
X1510Y477*
X1502Y469*
X1497Y460*
X1495Y450*
Y450*
X1530*
Y485*
G37*
G36*
X2475Y475D02*
X2475D01*
Y440*
X2510*
Y440*
X2507Y450*
X2502Y459*
X2494Y467*
X2485Y472*
X2475Y475*
G37*
G36*
X2465D02*
X2464D01*
X2454Y472*
X2445Y467*
X2437Y459*
X2432Y450*
X2430Y440*
Y440*
X2465*
Y475*
G37*
G36*
X715D02*
X715D01*
Y440*
X750*
Y440*
X747Y450*
X742Y459*
X734Y467*
X725Y472*
X715Y475*
G37*
G36*
X705D02*
X704D01*
X694Y472*
X685Y467*
X677Y459*
X672Y450*
X670Y440*
Y440*
X705*
Y475*
G37*
G36*
X2285Y470D02*
X2250D01*
Y435*
X2250*
X2260Y437*
X2269Y442*
X2277Y450*
X2282Y459*
X2285Y469*
Y470*
G37*
G36*
X2240D02*
X2205D01*
Y469*
X2207Y459*
X2212Y450*
X2220Y442*
X2229Y437*
X2239Y435*
X2240*
Y470*
G37*
G36*
X2025D02*
X2025D01*
Y435*
X2060*
Y435*
X2057Y445*
X2052Y454*
X2044Y462*
X2035Y467*
X2025Y470*
G37*
G36*
X2015D02*
X2014D01*
X2004Y467*
X1995Y462*
X1987Y454*
X1982Y445*
X1980Y435*
Y435*
X2015*
Y470*
G37*
G36*
X5139Y445D02*
X5103D01*
Y409*
X5103*
X5114Y411*
X5123Y417*
X5131Y425*
X5136Y434*
X5139Y445*
Y445*
G37*
G36*
X5093D02*
X5056D01*
Y445*
X5059Y434*
X5064Y425*
X5072Y417*
X5082Y411*
X5092Y409*
X5093*
Y445*
G37*
G36*
X5825Y440D02*
X5790D01*
Y405*
X5790*
X5800Y407*
X5809Y412*
X5817Y420*
X5822Y429*
X5825Y439*
Y440*
G37*
G36*
X5780D02*
X5745D01*
Y439*
X5747Y429*
X5752Y420*
X5760Y412*
X5769Y407*
X5779Y405*
X5780*
Y440*
G37*
G36*
X1575D02*
X1540D01*
Y405*
X1540*
X1550Y407*
X1559Y412*
X1567Y420*
X1572Y429*
X1575Y439*
Y440*
G37*
G36*
X1530D02*
X1495D01*
Y439*
X1497Y429*
X1502Y420*
X1510Y412*
X1519Y407*
X1529Y405*
X1530*
Y440*
G37*
G36*
X3495Y436D02*
X3462D01*
X3465Y427*
X3469Y418*
X3476Y411*
X3485Y406*
X3495Y404*
Y436*
G37*
G36*
X3735D02*
X3702D01*
X3705Y427*
X3709Y418*
X3716Y411*
X3725Y406*
X3735Y404*
Y436*
G37*
G36*
X3777D02*
X3745D01*
Y404*
X3754Y406*
X3763Y411*
X3770Y418*
X3775Y427*
X3777Y436*
G37*
G36*
X3537D02*
X3505D01*
Y404*
X3514Y406*
X3523Y411*
X3530Y418*
X3535Y427*
X3537Y436*
G37*
G36*
X3185Y435D02*
X3152D01*
X3155Y425*
X3159Y416*
X3166Y409*
X3175Y405*
X3185Y402*
Y435*
G37*
G36*
X2935D02*
X2902D01*
X2905Y425*
X2909Y416*
X2916Y409*
X2925Y405*
X2935Y402*
Y435*
G37*
G36*
X3227D02*
X3195D01*
Y402*
X3204Y405*
X3213Y409*
X3220Y416*
X3225Y425*
X3227Y435*
G37*
G36*
X2977D02*
X2945D01*
Y402*
X2954Y405*
X2963Y409*
X2970Y416*
X2975Y425*
X2977Y435*
G37*
G36*
X2510Y430D02*
X2475D01*
Y395*
X2475*
X2485Y397*
X2494Y402*
X2502Y410*
X2507Y419*
X2510Y429*
Y430*
G37*
G36*
X2465D02*
X2430D01*
Y429*
X2432Y419*
X2437Y410*
X2445Y402*
X2454Y397*
X2464Y395*
X2465*
Y430*
G37*
G36*
X750D02*
X715D01*
Y395*
X715*
X725Y397*
X734Y402*
X742Y410*
X747Y419*
X750Y429*
Y430*
G37*
G36*
X705D02*
X670D01*
Y429*
X672Y419*
X677Y410*
X685Y402*
X694Y397*
X704Y395*
X705*
Y430*
G37*
G36*
X2060Y425D02*
X2025D01*
Y390*
X2025*
X2035Y392*
X2044Y397*
X2052Y405*
X2057Y414*
X2060Y424*
Y425*
G37*
G36*
X2015D02*
X1980D01*
Y424*
X1982Y414*
X1987Y405*
X1995Y397*
X2004Y392*
X2014Y390*
X2015*
Y425*
G37*
G36*
X1700Y415D02*
X1700D01*
Y380*
X1735*
Y380*
X1732Y390*
X1727Y399*
X1719Y407*
X1710Y412*
X1700Y415*
G37*
G36*
X1690D02*
X1689D01*
X1679Y412*
X1670Y407*
X1662Y399*
X1657Y390*
X1655Y380*
Y380*
X1690*
Y415*
G37*
G36*
X5645Y405D02*
X5645D01*
Y370*
X5680*
Y370*
X5677Y380*
X5672Y389*
X5664Y397*
X5655Y402*
X5645Y405*
G37*
G36*
X5635D02*
X5634D01*
X5624Y402*
X5615Y397*
X5607Y389*
X5602Y380*
X5600Y370*
Y370*
X5635*
Y405*
G37*
G36*
X4705D02*
X4705D01*
Y370*
X4740*
Y370*
X4737Y380*
X4732Y389*
X4724Y397*
X4715Y402*
X4705Y405*
G37*
G36*
X4695D02*
X4694D01*
X4684Y402*
X4675Y397*
X4667Y389*
X4662Y380*
X4660Y370*
Y370*
X4695*
Y405*
G37*
G36*
X3915D02*
X3915D01*
Y370*
X3950*
Y370*
X3947Y380*
X3942Y389*
X3934Y397*
X3925Y402*
X3915Y405*
G37*
G36*
X3905D02*
X3904D01*
X3894Y402*
X3885Y397*
X3877Y389*
X3872Y380*
X3870Y370*
Y370*
X3905*
Y405*
G37*
G36*
X4975Y400D02*
X4975D01*
Y365*
X5010*
Y365*
X5007Y375*
X5002Y384*
X4994Y392*
X4985Y397*
X4975Y400*
G37*
G36*
X4965D02*
X4964D01*
X4954Y397*
X4945Y392*
X4937Y384*
X4932Y375*
X4930Y365*
Y365*
X4965*
Y400*
G37*
G36*
X2660Y390D02*
X2660D01*
Y355*
X2695*
Y355*
X2692Y365*
X2687Y374*
X2679Y382*
X2670Y387*
X2660Y390*
G37*
G36*
X2650D02*
X2649D01*
X2639Y387*
X2630Y382*
X2622Y374*
X2617Y365*
X2615Y355*
Y355*
X2650*
Y390*
G37*
G36*
X1285D02*
X1285D01*
Y355*
X1320*
Y355*
X1317Y365*
X1312Y374*
X1304Y382*
X1295Y387*
X1285Y390*
G37*
G36*
X1275D02*
X1274D01*
X1264Y387*
X1255Y382*
X1247Y374*
X1242Y365*
X1240Y355*
Y355*
X1275*
Y390*
G37*
G36*
X1735Y370D02*
X1700D01*
Y335*
X1700*
X1710Y337*
X1719Y342*
X1727Y350*
X1732Y359*
X1735Y369*
Y370*
G37*
G36*
X1690D02*
X1655D01*
Y369*
X1657Y359*
X1662Y350*
X1670Y342*
X1679Y337*
X1689Y335*
X1690*
Y370*
G37*
G36*
X1040D02*
X1040D01*
Y335*
X1075*
Y335*
X1072Y345*
X1067Y354*
X1059Y362*
X1050Y367*
X1040Y370*
G37*
G36*
X1030D02*
X1029D01*
X1019Y367*
X1010Y362*
X1002Y354*
X997Y345*
X995Y335*
Y335*
X1030*
Y370*
G37*
G36*
X5680Y360D02*
X5645D01*
Y325*
X5645*
X5655Y327*
X5664Y332*
X5672Y340*
X5677Y349*
X5680Y359*
Y360*
G37*
G36*
X5635D02*
X5600D01*
Y359*
X5602Y349*
X5607Y340*
X5615Y332*
X5624Y327*
X5634Y325*
X5635*
Y360*
G37*
G36*
X4740D02*
X4705D01*
Y325*
X4705*
X4715Y327*
X4724Y332*
X4732Y340*
X4737Y349*
X4740Y359*
Y360*
G37*
G36*
X4695D02*
X4660D01*
Y359*
X4662Y349*
X4667Y340*
X4675Y332*
X4684Y327*
X4694Y325*
X4695*
Y360*
G37*
G36*
X3950D02*
X3915D01*
Y325*
X3915*
X3925Y327*
X3934Y332*
X3942Y340*
X3947Y349*
X3950Y359*
Y360*
G37*
G36*
X3905D02*
X3870D01*
Y359*
X3872Y349*
X3877Y340*
X3885Y332*
X3894Y327*
X3904Y325*
X3905*
Y360*
G37*
G36*
X3620D02*
X3620D01*
Y325*
X3655*
Y325*
X3652Y335*
X3647Y344*
X3639Y352*
X3630Y357*
X3620Y360*
G37*
G36*
X3610D02*
X3609D01*
X3599Y357*
X3590Y352*
X3582Y344*
X3577Y335*
X3575Y325*
Y325*
X3610*
Y360*
G37*
G36*
X3320D02*
X3320D01*
Y325*
X3355*
Y325*
X3352Y335*
X3347Y344*
X3339Y352*
X3330Y357*
X3320Y360*
G37*
G36*
X3310D02*
X3309D01*
X3299Y357*
X3290Y352*
X3282Y344*
X3277Y335*
X3275Y325*
Y325*
X3310*
Y360*
G37*
G36*
X5010Y355D02*
X4975D01*
Y320*
X4975*
X4985Y322*
X4994Y327*
X5002Y335*
X5007Y344*
X5010Y354*
Y355*
G37*
G36*
X4965D02*
X4930D01*
Y354*
X4932Y344*
X4937Y335*
X4945Y327*
X4954Y322*
X4964Y320*
X4965*
Y355*
G37*
G36*
X3055D02*
X3055D01*
Y320*
X3090*
Y320*
X3087Y330*
X3082Y339*
X3074Y347*
X3065Y352*
X3055Y355*
G37*
G36*
X3045D02*
X3044D01*
X3034Y352*
X3025Y347*
X3017Y339*
X3012Y330*
X3010Y320*
Y320*
X3045*
Y355*
G37*
G36*
X2695Y345D02*
X2660D01*
Y310*
X2660*
X2670Y312*
X2679Y317*
X2687Y325*
X2692Y334*
X2695Y344*
Y345*
G37*
G36*
X2650D02*
X2615D01*
Y344*
X2617Y334*
X2622Y325*
X2630Y317*
X2639Y312*
X2649Y310*
X2650*
Y345*
G37*
G36*
X1320D02*
X1285D01*
Y310*
X1285*
X1295Y312*
X1304Y317*
X1312Y325*
X1317Y334*
X1320Y344*
Y345*
G37*
G36*
X1275D02*
X1240D01*
Y344*
X1242Y334*
X1247Y325*
X1255Y317*
X1264Y312*
X1274Y310*
X1275*
Y345*
G37*
G36*
X1075Y325D02*
X1040D01*
Y290*
X1040*
X1050Y292*
X1059Y297*
X1067Y305*
X1072Y314*
X1075Y324*
Y325*
G37*
G36*
X1030D02*
X995D01*
Y324*
X997Y314*
X1002Y305*
X1010Y297*
X1019Y292*
X1029Y290*
X1030*
Y325*
G37*
G36*
X3655Y315D02*
X3620D01*
Y280*
X3620*
X3630Y282*
X3639Y287*
X3647Y295*
X3652Y304*
X3655Y314*
Y315*
G37*
G36*
X3610D02*
X3575D01*
Y314*
X3577Y304*
X3582Y295*
X3590Y287*
X3599Y282*
X3609Y280*
X3610*
Y315*
G37*
G36*
X3355D02*
X3320D01*
Y280*
X3320*
X3330Y282*
X3339Y287*
X3347Y295*
X3352Y304*
X3355Y314*
Y315*
G37*
G36*
X3310D02*
X3275D01*
Y314*
X3277Y304*
X3282Y295*
X3290Y287*
X3299Y282*
X3309Y280*
X3310*
Y315*
G37*
G36*
X3090Y310D02*
X3055D01*
Y275*
X3055*
X3065Y277*
X3074Y282*
X3082Y290*
X3087Y299*
X3090Y309*
Y310*
G37*
G36*
X3045D02*
X3010D01*
Y309*
X3012Y299*
X3017Y290*
X3025Y282*
X3034Y277*
X3044Y275*
X3045*
Y310*
G37*
%LNpcb-3*%
%LPD*%
G36*
X4660Y3320D02*
Y3217D01*
X4658Y3217*
X4640Y3214*
X4637Y3219*
X4629Y3227*
X4620Y3232*
X4610Y3235*
X4610*
Y3195*
X4605*
Y3190*
X4565*
Y3189*
X4567Y3179*
X4572Y3170*
X4580Y3162*
X4589Y3157*
X4599Y3155*
X4601*
X4610Y3135*
X4579Y3104*
X4568Y3107*
X4564Y3110*
X4525*
Y3070*
X4527Y3066*
X4530Y3055*
X4497Y3022*
X4479Y3032*
X4480Y3034*
Y3035*
X4400*
Y3034*
X4402Y3024*
X4407Y3015*
X4394Y3002*
X4385Y3007*
X4375Y3010*
X4375*
Y2970*
Y2930*
X4375*
X4377Y2930*
X4387Y2912*
X4354Y2879*
X4343Y2882*
X4339Y2885*
X4300*
Y2845*
X4302Y2841*
X4305Y2830*
X4254Y2779*
X4236Y2788*
X4236Y2790*
X4200*
Y2755*
X4200*
X4202Y2755*
X4212Y2737*
X4162Y2687*
X4144Y2697*
X4145Y2699*
Y2700*
X4110*
Y2665*
X4110*
X4122Y2650*
X4123Y2648*
X4072Y2597*
X4054Y2607*
X4055Y2609*
Y2610*
X4015*
Y2615*
X4010*
Y2655*
X4009*
X3999Y2652*
X3990Y2647*
X3982Y2639*
X3977Y2630*
X3975Y2620*
Y2615*
X3958Y2607*
X3955Y2606*
X3811Y2751*
X3830Y2770*
Y2800*
X4445Y3415*
Y3435*
X4525*
X4535Y3445*
X4660Y3320*
G37*
G36*
X5612Y3256D02*
Y3247D01*
X5614Y3237*
X5619Y3228*
X5623Y3225*
X5623Y3225*
X5621Y3219*
X5615Y3214*
X5581Y3181*
X5576Y3183*
Y3249*
X5537*
Y3260*
X5609*
X5612Y3256*
G37*
G36*
X5803Y3290D02*
X5885D01*
Y3110*
X5859Y3084*
X5828*
X5826Y3088*
X5827Y3090*
X5830Y3103*
Y3116*
X5827Y3129*
X5820Y3141*
X5811Y3150*
X5799Y3157*
X5786Y3160*
X5773*
X5760Y3157*
X5748Y3150*
X5739Y3141*
X5735Y3133*
X5730Y3135*
Y3160*
X5711*
X5710Y3162*
X5710Y3165*
X5775Y3230*
X5781Y3238*
X5785Y3246*
X5786Y3255*
Y3294*
X5803*
Y3290*
G37*
G36*
X5445Y2782D02*
Y2773D01*
X5440Y2770*
X5435Y2771*
X5428*
X5420Y2769*
X5414Y2765*
X5408Y2760*
X5405Y2753*
X5403Y2746*
Y2738*
X5405Y2731*
X5408Y2724*
X5414Y2719*
X5414Y2719*
X5413Y2714*
X5406Y2710*
X5399Y2703*
X5394Y2694*
X5392Y2684*
Y2675*
X5394Y2665*
X5399Y2656*
X5406Y2649*
X5415Y2644*
X5425Y2642*
X5434*
X5440Y2643*
X5445Y2643*
X5458*
X5461Y2639*
X5461Y2638*
Y2631*
X5463Y2623*
X5466Y2617*
X5472Y2611*
X5478Y2608*
X5483Y2606*
X5490Y2600*
X5498Y2594*
X5507Y2593*
X5519*
Y2580*
X5612*
Y2585*
X5635*
X5639Y2578*
X5648Y2569*
X5660Y2562*
X5662Y2562*
Y2557*
X5660Y2557*
X5648Y2550*
X5639Y2541*
X5635Y2534*
X5480*
X5470Y2532*
X5462Y2527*
X5319Y2383*
X5314Y2385*
Y2754*
X5316Y2758*
X5318Y2766*
Y2773*
X5317Y2780*
X5318Y2783*
X5319Y2785*
X5441*
X5445Y2782*
G37*
G36*
X3710Y2793D02*
X3712Y2783D01*
X3717Y2775*
X3781Y2712*
X3780Y2707*
X3777Y2705*
X3771Y2699*
X3768Y2699*
X3668Y2799*
X3670Y2803*
X3710*
Y2793*
G37*
G36*
X2213Y2798D02*
X2212Y2796D01*
X2210Y2789*
Y2781*
X2212Y2774*
X2216Y2767*
X2221Y2762*
X2228Y2758*
X2235Y2756*
X2243*
X2250Y2758*
X2256Y2762*
X2259Y2761*
X2261Y2760*
Y2733*
X2263Y2723*
X2269Y2716*
X2294Y2690*
X2294Y2690*
X2290Y2685*
X2226*
X2224Y2690*
X2227Y2691*
X2233Y2697*
X2236Y2703*
X2238Y2711*
Y2718*
X2236Y2726*
X2233Y2732*
X2227Y2738*
X2221Y2741*
X2216Y2743*
X2160Y2798*
Y2803*
X2211*
X2213Y2798*
G37*
G36*
X2975Y2580D02*
X3100D01*
X3255Y2735*
X3599*
X3600Y2734*
X3606Y2715*
X3603Y2712*
X3598Y2703*
X3595Y2692*
Y2692*
X3675*
Y2692*
X3675Y2694*
X3693Y2705*
X3857Y2540*
X3851Y2521*
X3849Y2520*
X3841Y2522*
X3840*
Y2487*
X3875*
Y2487*
X3873Y2496*
X3874Y2498*
X3893Y2504*
X3936Y2461*
X3915Y2440*
X3878*
X3871Y2452*
X3868Y2460*
X3873Y2467*
X3875Y2477*
Y2477*
X3795*
Y2477*
X3798Y2467*
X3801Y2462*
X3795Y2446*
X3793Y2443*
X3785Y2435*
X1965*
Y2520*
X1880Y2605*
X1888Y2625*
X1890*
X1900Y2627*
X1909Y2632*
X1917Y2640*
X1922Y2649*
X1925Y2659*
Y2660*
X1885*
Y2670*
X1925*
Y2670*
X1922Y2680*
X1918Y2687*
X1921Y2696*
X1927Y2707*
X1958Y2707*
X1960Y2705*
X1969Y2687*
X1967Y2685*
X1965Y2675*
Y2675*
X2045*
Y2675*
X2042Y2685*
X2040Y2688*
X2046Y2704*
X2050Y2708*
X2120Y2710*
X2175Y2655*
X2360*
X2450Y2745*
X2810*
X2975Y2580*
G37*
G36*
X3034Y2738D02*
X3112Y2659D01*
X3120Y2654*
X3124Y2653*
X3126Y2648*
X3087Y2610*
X3051*
X3050Y2612*
X3049Y2615*
X3054Y2620*
X3058Y2626*
X3060Y2634*
Y2641*
X3058Y2648*
X3054Y2655*
X3049Y2660*
X3042Y2664*
X3037Y2665*
X3025Y2677*
Y2741*
X3030Y2743*
X3034Y2738*
G37*
G36*
X4057Y2571D02*
D01*
X4064Y2568*
X4072Y2567*
X4080Y2568*
X4084Y2569*
X4087Y2565*
X4086Y2564*
X4082Y2556*
X4081Y2547*
X4082Y2537*
X4086Y2529*
X4092Y2522*
X4099Y2516*
X4107Y2512*
X4117Y2511*
X4169*
X4173Y2507*
X4172Y2501*
X4174Y2492*
X4177Y2483*
X4183Y2476*
X4190Y2471*
X4193Y2469*
X4195Y2463*
X4193Y2459*
X4191Y2454*
X4246*
X4244Y2459*
X4241Y2466*
X4236Y2471*
X4235Y2471*
X4236Y2476*
X4261*
Y2520*
X4271*
Y2476*
X4303*
Y2466*
X4328*
Y2434*
X4330Y2424*
X4330Y2423*
X4327Y2420*
X4318*
X4310Y2418*
X4303Y2414*
X4297Y2408*
X4293Y2401*
X4291Y2393*
Y2384*
X4292Y2380*
X4288Y2375*
X4256*
X4253Y2379*
X4253Y2381*
Y2390*
X4251Y2398*
X4247Y2405*
X4241Y2411*
X4234Y2415*
X4227Y2417*
Y2422*
X4229Y2423*
X4236Y2426*
X4241Y2431*
X4244Y2438*
X4246Y2444*
X4191*
X4193Y2438*
X4196Y2431*
X4201Y2426*
X4208Y2423*
X4213Y2421*
Y2416*
X4209Y2415*
X4202Y2411*
X4196Y2405*
X4192Y2398*
X4190Y2390*
Y2381*
X4186Y2378*
X4184Y2378*
X4000Y2561*
X4003Y2566*
X4008Y2565*
X4021*
X4034Y2568*
X4045Y2574*
X4047Y2576*
X4057Y2571*
G37*
G36*
X4536Y2514D02*
D01*
X4609*
Y2507*
X4598*
Y2507*
X4593Y2504*
X4586Y2505*
X4549*
X4539Y2504*
X4531Y2500*
X4524Y2494*
X4518Y2487*
X4514Y2479*
X4513Y2470*
X4514Y2460*
X4518Y2452*
X4521Y2448*
X4518Y2443*
X4514Y2444*
X4469*
Y2466*
X4471Y2469*
X4472Y2469*
X4475Y2476*
X4477Y2482*
X4450*
Y2492*
X4477*
X4475Y2497*
X4472Y2504*
X4468Y2507*
X4470Y2512*
X4498*
Y2512*
X4517*
X4526Y2514*
X4531Y2516*
X4536Y2514*
G37*
G36*
X5639Y2478D02*
X5648Y2469D01*
X5660Y2462*
X5662Y2462*
Y2457*
X5660Y2457*
X5648Y2450*
X5639Y2441*
X5635Y2434*
X5446*
X5443Y2438*
X5490Y2485*
X5635*
X5639Y2478*
G37*
G36*
X5261Y2769D02*
Y2766D01*
X5263Y2758*
X5265Y2754*
Y2375*
X5263Y2371*
X5261Y2363*
Y2356*
X5263Y2348*
X5266Y2342*
X5272Y2336*
Y2336*
X5127Y2191*
X4967*
X4965Y2196*
X4966Y2197*
X4967Y2206*
X4966Y2215*
X4960Y2223*
X4952Y2229*
X4950Y2234*
X4952Y2241*
Y2249*
X4950Y2257*
X4948Y2261*
X4949Y2268*
X4954Y2270*
X4961Y2277*
X4966Y2286*
X4968Y2296*
Y2305*
X4966Y2315*
X4961Y2324*
X4954Y2331*
X4945Y2336*
X4935Y2338*
X4926*
X4916Y2336*
X4907Y2331*
X4900Y2324*
X4895Y2315*
X4893Y2305*
Y2296*
X4895Y2286*
X4900Y2277*
X4902Y2276*
X4901Y2271*
X4901Y2271*
X4895Y2265*
X4891Y2257*
X4889Y2251*
X4854*
X4849Y2250*
X4844Y2254*
Y2255*
X4845Y2260*
Y2311*
X4843Y2321*
X4837Y2329*
X4829Y2335*
X4826Y2335*
X4825Y2340*
X4887Y2402*
X4892Y2400*
Y2396*
X4894Y2389*
X4897Y2382*
X4902Y2377*
X4909Y2374*
X4915Y2372*
Y2400*
X4920*
Y2405*
X4947*
X4945Y2410*
X4942Y2417*
X4937Y2422*
X4930Y2425*
X4923Y2427*
X4919*
X4917Y2432*
X5256Y2771*
X5261Y2769*
G37*
G36*
X4770Y2237D02*
X4775Y2236D01*
Y2224*
X4734Y2183*
X4729Y2181*
X4723Y2178*
X4717Y2172*
X4714Y2166*
X4712Y2158*
Y2151*
X4714Y2143*
X4717Y2137*
X4723Y2131*
X4729Y2128*
X4737Y2126*
X4744*
X4745Y2126*
X4750Y2122*
Y2117*
X4752Y2109*
X4755Y2103*
X4761Y2097*
X4767Y2094*
X4772Y2092*
X4775Y2088*
X4775Y2087*
X4773Y2083*
X4772Y2078*
X4767Y2071*
X4765Y2062*
Y2059*
X4760Y2058*
X4757Y2062*
X4710Y2109*
X4711Y2114*
Y2122*
X4709Y2129*
X4705Y2136*
X4700Y2141*
X4693Y2145*
X4686Y2147*
X4678*
X4671Y2145*
X4664Y2141*
X4659Y2136*
X4655Y2129*
X4654Y2126*
X4651Y2125*
X4645Y2122*
X4639Y2116*
X4638Y2113*
X4631Y2112*
X4598Y2146*
X4596Y2151*
X4593Y2157*
X4587Y2163*
X4581Y2166*
X4573Y2168*
X4566*
X4558Y2166*
X4552Y2163*
X4546Y2157*
X4543Y2151*
X4541Y2143*
Y2136*
X4543Y2128*
X4546Y2122*
X4548Y2120*
X4547Y2117*
X4542Y2112*
X4538Y2105*
X4536Y2098*
Y2090*
X4538Y2083*
X4542Y2076*
X4547Y2071*
X4546Y2066*
X4543Y2061*
X4541Y2053*
Y2046*
X4543Y2038*
X4546Y2032*
X4552Y2026*
X4558Y2023*
X4563Y2021*
X4585Y1999*
X4585Y1994*
X4582Y1993*
X4576Y1987*
X4573Y1981*
X4571Y1973*
Y1966*
X4573Y1958*
X4570Y1954*
X4567Y1953*
X4561Y1954*
X4561Y1956*
X4557Y1963*
X4552Y1968*
X4545Y1972*
X4538Y1974*
X4530*
X4523Y1972*
X4516Y1968*
X4511Y1963*
X4507Y1956*
X4505Y1949*
Y1941*
X4507Y1934*
X4511Y1927*
X4516Y1922*
X4523Y1918*
X4528Y1917*
X4535Y1909*
Y1805*
X4537Y1795*
X4542Y1787*
X4559Y1771*
Y1743*
X4554Y1742*
X4554Y1742*
X4554Y1742*
X4544Y1744*
X4534Y1742*
X4534Y1742*
X4534Y1742*
X4524Y1744*
X4522Y1744*
X4520Y1749*
X4523Y1750*
X4529Y1756*
X4533Y1762*
X4534Y1770*
Y1777*
X4533Y1785*
X4529Y1791*
X4523Y1796*
X4517Y1800*
X4512Y1802*
X4472Y1842*
X4473Y1847*
X4475Y1848*
X4481Y1854*
X4485Y1860*
X4486Y1868*
Y1875*
X4485Y1883*
X4481Y1889*
X4475Y1894*
X4469Y1898*
X4461Y1900*
X4454*
X4446Y1898*
X4442Y1896*
X4337*
X4336Y1901*
X4336Y1901*
X4336Y1901*
X4338Y1911*
X4336Y1920*
X4336Y1921*
X4336Y1921*
X4338Y1930*
X4336Y1940*
X4336Y1940*
X4336Y1940*
X4338Y1950*
X4336Y1960*
X4336Y1960*
X4336Y1960*
X4338Y1970*
X4336Y1980*
X4336Y1980*
X4336Y1980*
X4338Y1990*
X4336Y1999*
X4336Y1999*
X4336Y1999*
X4338Y2009*
X4336Y2019*
X4336Y2019*
X4336Y2019*
X4338Y2029*
X4336Y2039*
X4336Y2039*
X4336Y2039*
X4338Y2049*
X4336Y2058*
X4336Y2058*
X4336Y2059*
X4338Y2068*
X4336Y2078*
X4336Y2078*
X4336Y2078*
X4338Y2088*
X4336Y2098*
X4336Y2098*
X4336Y2098*
X4338Y2108*
X4336Y2117*
X4336Y2117*
X4336Y2118*
X4338Y2127*
X4336Y2137*
X4336Y2137*
X4336Y2137*
X4338Y2147*
X4336Y2157*
X4336Y2157*
X4336Y2157*
X4338Y2167*
X4336Y2174*
X4339Y2177*
Y2206*
X4344*
Y2211*
X4371*
X4370Y2217*
X4366Y2223*
X4361Y2228*
X4360Y2229*
X4359Y2235*
X4360Y2236*
X4367Y2235*
X4376Y2237*
X4377Y2237*
X4377Y2237*
X4386Y2235*
X4396Y2237*
X4396Y2237*
X4396Y2237*
X4406Y2235*
X4414Y2236*
X4417Y2233*
X4474*
X4477Y2236*
X4485Y2235*
X4495Y2237*
X4495Y2237*
X4495Y2237*
X4505Y2235*
X4514Y2237*
X4514Y2237*
X4514Y2237*
X4524Y2235*
X4530Y2236*
X4535Y2232*
Y2232*
X4537Y2224*
X4540Y2218*
X4546Y2212*
X4552Y2209*
X4560Y2207*
X4567*
X4575Y2209*
X4581Y2212*
X4587Y2218*
X4590Y2224*
X4592Y2232*
Y2232*
X4597Y2236*
X4603Y2235*
X4611Y2236*
X4614Y2233*
X4671*
X4674Y2236*
X4678Y2235*
X4682Y2234*
X4683Y2230*
Y2226*
X4685Y2218*
X4688Y2212*
X4694Y2206*
X4700Y2203*
X4708Y2201*
X4715*
X4723Y2203*
X4729Y2206*
X4735Y2212*
X4738Y2218*
X4740Y2224*
X4744Y2230*
X4745Y2236*
X4750Y2237*
X4751Y2237*
X4751Y2237*
X4760Y2235*
X4770Y2237*
X4770Y2237*
X4770Y2237*
G37*
G36*
X5517Y2380D02*
X5512Y2377D01*
X5293Y2158*
X5288Y2160*
Y2163*
X5286Y2171*
X5283Y2177*
X5277Y2183*
X5271Y2186*
X5265Y2188*
X5263Y2193*
X5455Y2385*
X5516*
X5517Y2380*
G37*
G36*
X5562Y2330D02*
X5557Y2327D01*
X5343Y2112*
X5324*
X5322Y2117*
X5540Y2335*
X5561*
X5562Y2330*
G37*
G36*
X5639Y2278D02*
X5648Y2269D01*
X5660Y2262*
X5662Y2262*
Y2257*
X5660Y2257*
X5648Y2250*
X5639Y2241*
X5632Y2229*
X5629Y2216*
Y2203*
X5632Y2190*
X5639Y2178*
X5648Y2169*
X5660Y2162*
X5662Y2162*
Y2157*
X5660Y2157*
X5648Y2150*
X5639Y2141*
X5635Y2134*
X5460*
X5450Y2132*
X5442Y2127*
X5408Y2093*
X5399*
X5397Y2097*
X5585Y2285*
X5635*
X5639Y2278*
G37*
G36*
Y2078D02*
X5648Y2069D01*
X5660Y2062*
X5662Y2062*
Y2057*
X5660Y2057*
X5648Y2050*
X5639Y2041*
X5635Y2034*
X5460*
X5439Y2055*
X5470Y2085*
X5635*
X5639Y2078*
G37*
G36*
X5432Y1992D02*
X5437Y1989D01*
X5436Y1984*
X5342*
X5340Y1989*
X5343Y1992*
X5346Y1998*
X5348Y2006*
Y2013*
X5347Y2019*
X5350Y2024*
X5400*
X5432Y1992*
G37*
G36*
X5633Y1931D02*
X5632Y1929D01*
X5629Y1916*
Y1903*
X5632Y1890*
X5633Y1888*
X5631Y1884*
X5310*
X5263Y1930*
X5265Y1935*
X5631*
X5633Y1931*
G37*
G36*
X4826Y2059D02*
X4830Y2057D01*
X4829Y2049*
X4830Y2039*
X4831Y2039*
X4830Y2039*
X4829Y2029*
X4830Y2019*
X4831Y2019*
X4830Y2019*
X4829Y2009*
X4830Y1999*
X4831Y1999*
X4830Y1999*
X4829Y1990*
X4830Y1980*
X4831Y1980*
X4830Y1980*
X4829Y1970*
X4830Y1960*
X4831Y1960*
X4830Y1960*
X4829Y1950*
X4830Y1940*
X4831Y1940*
X4830Y1940*
X4829Y1930*
X4830Y1921*
X4831Y1921*
X4830Y1920*
X4829Y1911*
X4830Y1901*
X4831Y1901*
X4830Y1901*
X4829Y1891*
X4830Y1881*
X4831Y1881*
X4830Y1881*
X4829Y1871*
X4830Y1862*
X4831Y1862*
X4830Y1861*
X4829Y1852*
X4830Y1842*
X4831Y1842*
X4830Y1842*
X4829Y1832*
X4830Y1825*
X4826Y1820*
X4826Y1820*
X4824*
X4817Y1818*
X4816Y1819*
X4813Y1821*
X4812Y1822*
X4814Y1830*
Y2047*
X4818Y2049*
X4823Y2054*
X4825Y2059*
X4826Y2059*
G37*
G36*
X5633Y1831D02*
X5632Y1829D01*
X5629Y1816*
Y1803*
X5632Y1790*
X5633Y1788*
X5631Y1784*
X5370*
X5323Y1830*
X5325Y1835*
X5631*
X5633Y1831*
G37*
G36*
Y1731D02*
X5632Y1729D01*
X5629Y1716*
Y1703*
X5632Y1690*
X5633Y1688*
X5631Y1684*
X5420*
X5373Y1730*
X5375Y1735*
X5631*
X5633Y1731*
G37*
G36*
X4323Y1725D02*
X4322Y1719D01*
Y1668*
X4323Y1663*
Y1632*
X4322Y1632*
X4319Y1627*
X4313Y1626*
X4243Y1696*
X4244Y1701*
X4250Y1703*
X4257Y1707*
X4263Y1713*
X4267Y1720*
X4269Y1728*
X4313*
X4319Y1729*
X4323Y1725*
G37*
G36*
X4083Y1598D02*
X4085Y1597D01*
Y1279*
X4083Y1278*
X4080Y1277*
X4076Y1278*
X4054Y1300*
Y1604*
X4059Y1607*
X4060Y1605*
X4067Y1601*
X4073Y1600*
Y1627*
X4083*
Y1598*
G37*
G36*
X4225Y1542D02*
Y965D01*
X4223Y961*
X4221Y953*
Y946*
X4223Y938*
X4226Y932*
X4232Y926*
X4238Y923*
X4246Y921*
X4253*
X4261Y923*
X4267Y926*
X4273Y932*
X4276Y938*
X4278Y946*
Y953*
X4276Y961*
X4274Y965*
Y1397*
X4279Y1399*
X4282Y1396*
X4288Y1393*
X4296Y1391*
X4303*
X4310Y1392*
X4313Y1391*
X4315Y1390*
Y880*
Y805*
X4313Y801*
X4311Y793*
Y786*
X4313Y778*
X4316Y772*
X4322Y766*
X4328Y763*
X4336Y761*
X4342*
Y737*
X4282Y677*
X4277Y669*
X4275Y660*
Y595*
X4268Y591*
X4258Y581*
X4252Y571*
X4251Y570*
X4248*
X4247Y571*
X4241Y581*
X4231Y591*
X4219Y597*
X4206Y601*
X4193*
X4180Y597*
X4168Y591*
X4158Y581*
X4152Y569*
X4148Y556*
Y543*
X4152Y530*
X4158Y518*
X4168Y508*
X4180Y502*
X4193Y498*
X4206*
X4219Y502*
X4231Y508*
X4241Y518*
X4247Y528*
X4248Y529*
X4251*
X4252Y528*
X4258Y518*
X4268Y508*
X4278Y502*
X4279Y501*
Y498*
X4278Y497*
X4268Y491*
X4258Y481*
X4252Y469*
X4248Y456*
Y443*
X4252Y430*
X4258Y418*
X4268Y408*
X4280Y402*
X4293Y398*
X4306*
X4319Y402*
X4331Y408*
X4341Y418*
X4347Y428*
X4348Y429*
X4351*
X4352Y428*
X4358Y418*
X4368Y408*
X4380Y402*
X4393Y398*
X4406*
X4419Y402*
X4431Y408*
X4441Y418*
X4447Y428*
X4448Y429*
X4451*
X4452Y428*
X4458Y418*
X4468Y408*
X4480Y402*
X4493Y398*
X4506*
X4507Y398*
X4509Y394*
X4504Y389*
X4180*
X4134Y435*
Y840*
X4136Y841*
X4139Y842*
X4146Y841*
X4153*
X4161Y843*
X4167Y846*
X4173Y852*
X4176Y858*
X4178Y866*
Y873*
X4176Y881*
X4174Y885*
Y1535*
X4178Y1537*
X4180Y1536*
X4190Y1534*
X4199*
X4209Y1536*
X4218Y1541*
X4220Y1544*
X4225Y1542*
G37*
G36*
X3612Y1711D02*
X3611Y1710D01*
X3610Y1701*
X3611Y1692*
X3612Y1691*
Y1667*
X3631*
X3632Y1667*
X3630Y1662*
X3602*
Y1575*
X3610*
Y1552*
X3611Y1543*
X3615Y1534*
X3619Y1529*
Y1508*
X3615Y1506*
X3614*
X3548*
Y1533*
X3547Y1542*
X3544Y1550*
X3538Y1558*
X3531Y1564*
Y1586*
Y1588*
X3535Y1591*
X3569*
Y1667*
X3565*
Y1733*
X3612*
Y1711*
G37*
G36*
X3196Y1701D02*
X3195Y1700D01*
X3194Y1691*
X3195Y1682*
X3196Y1681*
Y1657*
X3215*
X3216Y1657*
X3214Y1652*
X3186*
Y1565*
X3194*
Y1559*
X3193*
Y1508*
X3189Y1506*
X3122*
Y1533*
X3121Y1542*
X3118Y1550*
X3115Y1553*
Y1576*
Y1578*
X3119Y1581*
X3153*
Y1657*
X3152*
Y1685*
X3151Y1694*
X3149Y1699*
Y1723*
X3196*
Y1701*
G37*
G36*
X5633Y1531D02*
X5632Y1529D01*
X5629Y1516*
Y1503*
X5632Y1490*
X5633Y1488*
X5631Y1484*
X5540*
X5493Y1530*
X5495Y1535*
X5631*
X5633Y1531*
G37*
G36*
X5481Y1403D02*
X5483Y1398D01*
X5483Y1398*
X5479Y1395*
X5465Y1409*
X5032Y1841*
X5034Y1846*
X5038Y1847*
X5481Y1403*
G37*
G36*
X5633Y1431D02*
X5632Y1429D01*
X5629Y1416*
Y1403*
X5632Y1390*
X5633Y1388*
X5631Y1384*
X5532*
X5530Y1389*
X5533Y1392*
X5536Y1398*
X5538Y1406*
Y1413*
X5536Y1421*
X5533Y1427*
X5530Y1430*
X5532Y1435*
X5631*
X5633Y1431*
G37*
G36*
X1850Y1460D02*
Y1260D01*
X1790Y1200*
X1785Y1205*
X1525*
Y1425*
X1585Y1485*
X1790Y1495*
X1850Y1460*
G37*
G36*
X5109Y605D02*
X5107Y601D01*
X5104Y602*
X5091*
X5078Y598*
X5066Y591*
X5056Y582*
X5052Y575*
X4819*
X4424Y970*
Y980*
X4426Y981*
X4429Y982*
X4436Y981*
X4443*
X4451Y983*
X4455Y985*
X4729*
X5109Y605*
G37*
G36*
X5307Y606D02*
X5305Y602D01*
X5304Y602*
X5291*
X5283Y600*
X4795Y1087*
X4788Y1092*
X4778Y1094*
X4455*
X4451Y1096*
X4446Y1098*
X4445Y1103*
X4446Y1105*
X4808*
X5307Y606*
G37*
G36*
X5207D02*
X5205Y602D01*
X5204Y602*
X5191*
X5184Y600*
X4757Y1027*
X4749Y1032*
X4740Y1034*
X4455*
X4451Y1036*
X4449Y1037*
Y1042*
X4451Y1043*
X4455Y1045*
X4768*
X5207Y606*
G37*
%LNpcb-4*%
%LPC*%
G36*
X4500Y3395D02*
X4500D01*
Y3360*
X4535*
Y3360*
X4532Y3370*
X4527Y3379*
X4519Y3387*
X4510Y3392*
X4500Y3395*
G37*
G36*
X4490D02*
X4489D01*
X4479Y3392*
X4470Y3387*
X4462Y3379*
X4457Y3370*
X4455Y3360*
Y3360*
X4490*
Y3395*
G37*
G36*
X4535Y3350D02*
X4500D01*
Y3315*
X4500*
X4510Y3317*
X4519Y3322*
X4527Y3330*
X4532Y3339*
X4535Y3349*
Y3350*
G37*
G36*
X4490D02*
X4455D01*
Y3349*
X4457Y3339*
X4462Y3330*
X4470Y3322*
X4479Y3317*
X4489Y3315*
X4490*
Y3350*
G37*
G36*
X4420Y3320D02*
X4420D01*
Y3285*
X4455*
Y3285*
X4452Y3295*
X4447Y3304*
X4439Y3312*
X4430Y3317*
X4420Y3320*
G37*
G36*
X4410D02*
X4409D01*
X4399Y3317*
X4390Y3312*
X4382Y3304*
X4377Y3295*
X4375Y3285*
Y3285*
X4410*
Y3320*
G37*
G36*
X4455Y3275D02*
X4420D01*
Y3240*
X4420*
X4430Y3242*
X4439Y3247*
X4447Y3255*
X4452Y3264*
X4455Y3274*
Y3275*
G37*
G36*
X4410D02*
X4375D01*
Y3274*
X4377Y3264*
X4382Y3255*
X4390Y3247*
X4399Y3242*
X4409Y3240*
X4410*
Y3275*
G37*
G36*
X4345Y3240D02*
X4345D01*
Y3205*
X4380*
Y3205*
X4377Y3215*
X4372Y3224*
X4364Y3232*
X4355Y3237*
X4345Y3240*
G37*
G36*
X4335D02*
X4334D01*
X4324Y3237*
X4315Y3232*
X4307Y3224*
X4302Y3215*
X4300Y3205*
Y3205*
X4335*
Y3240*
G37*
G36*
X4600Y3235D02*
X4599D01*
X4589Y3232*
X4580Y3227*
X4572Y3219*
X4567Y3210*
X4565Y3200*
Y3200*
X4600*
Y3235*
G37*
G36*
X4380Y3195D02*
X4345D01*
Y3160*
X4345*
X4355Y3162*
X4364Y3167*
X4372Y3175*
X4377Y3184*
X4380Y3194*
Y3195*
G37*
G36*
X4335D02*
X4300D01*
Y3194*
X4302Y3184*
X4307Y3175*
X4315Y3167*
X4324Y3162*
X4334Y3160*
X4335*
Y3195*
G37*
G36*
X4275Y3165D02*
X4275D01*
Y3130*
X4310*
Y3130*
X4307Y3140*
X4302Y3149*
X4294Y3157*
X4285Y3162*
X4275Y3165*
G37*
G36*
X4265D02*
X4264D01*
X4254Y3162*
X4245Y3157*
X4237Y3149*
X4232Y3140*
X4230Y3130*
Y3130*
X4265*
Y3165*
G37*
G36*
X4525Y3155D02*
X4525D01*
Y3120*
X4560*
Y3120*
X4557Y3130*
X4552Y3139*
X4544Y3147*
X4535Y3152*
X4525Y3155*
G37*
G36*
X4515D02*
X4514D01*
X4504Y3152*
X4495Y3147*
X4487Y3139*
X4482Y3130*
X4480Y3120*
Y3120*
X4515*
Y3155*
G37*
G36*
X4310Y3120D02*
X4275D01*
Y3085*
X4275*
X4285Y3087*
X4294Y3092*
X4302Y3100*
X4307Y3109*
X4310Y3119*
Y3120*
G37*
G36*
X4265D02*
X4230D01*
Y3119*
X4232Y3109*
X4237Y3100*
X4245Y3092*
X4254Y3087*
X4264Y3085*
X4265*
Y3120*
G37*
G36*
X4515Y3110D02*
X4480D01*
Y3109*
X4482Y3099*
X4487Y3090*
X4495Y3082*
X4504Y3077*
X4514Y3075*
X4515*
Y3110*
G37*
G36*
X4200Y3095D02*
X4200D01*
Y3060*
X4235*
Y3060*
X4232Y3070*
X4227Y3079*
X4219Y3087*
X4210Y3092*
X4200Y3095*
G37*
G36*
X4190D02*
X4189D01*
X4179Y3092*
X4170Y3087*
X4162Y3079*
X4157Y3070*
X4155Y3060*
Y3060*
X4190*
Y3095*
G37*
G36*
X4445Y3080D02*
X4445D01*
Y3045*
X4480*
Y3045*
X4477Y3055*
X4472Y3064*
X4464Y3072*
X4455Y3077*
X4445Y3080*
G37*
G36*
X4435D02*
X4434D01*
X4424Y3077*
X4415Y3072*
X4407Y3064*
X4402Y3055*
X4400Y3045*
Y3045*
X4435*
Y3080*
G37*
G36*
X4235Y3050D02*
X4200D01*
Y3015*
X4200*
X4210Y3017*
X4219Y3022*
X4227Y3030*
X4232Y3039*
X4235Y3049*
Y3050*
G37*
G36*
X4190D02*
X4155D01*
Y3049*
X4157Y3039*
X4162Y3030*
X4170Y3022*
X4179Y3017*
X4189Y3015*
X4190*
Y3050*
G37*
G36*
X4120Y3020D02*
X4120D01*
Y2985*
X4155*
Y2985*
X4152Y2995*
X4147Y3004*
X4139Y3012*
X4130Y3017*
X4120Y3020*
G37*
G36*
X4110D02*
X4109D01*
X4099Y3017*
X4090Y3012*
X4082Y3004*
X4077Y2995*
X4075Y2985*
Y2985*
X4110*
Y3020*
G37*
G36*
X4365Y3010D02*
X4364D01*
X4354Y3007*
X4345Y3002*
X4337Y2994*
X4332Y2985*
X4330Y2975*
Y2975*
X4365*
Y3010*
G37*
G36*
X4155Y2975D02*
X4120D01*
Y2940*
X4120*
X4130Y2942*
X4139Y2947*
X4147Y2955*
X4152Y2964*
X4155Y2974*
Y2975*
G37*
G36*
X4110D02*
X4075D01*
Y2974*
X4077Y2964*
X4082Y2955*
X4090Y2947*
X4099Y2942*
X4109Y2940*
X4110*
Y2975*
G37*
G36*
X4365Y2965D02*
X4330D01*
Y2964*
X4332Y2954*
X4337Y2945*
X4345Y2937*
X4354Y2932*
X4364Y2930*
X4365*
Y2965*
G37*
G36*
X4300Y2930D02*
X4300D01*
Y2895*
X4335*
Y2895*
X4332Y2905*
X4327Y2914*
X4319Y2922*
X4310Y2927*
X4300Y2930*
G37*
G36*
X4290D02*
X4289D01*
X4279Y2927*
X4270Y2922*
X4262Y2914*
X4257Y2905*
X4255Y2895*
Y2895*
X4290*
Y2930*
G37*
G36*
X4020Y2920D02*
X4020D01*
Y2885*
X4055*
Y2885*
X4052Y2895*
X4047Y2904*
X4039Y2912*
X4030Y2917*
X4020Y2920*
G37*
G36*
X4010D02*
X4009D01*
X3999Y2917*
X3990Y2912*
X3982Y2904*
X3977Y2895*
X3975Y2885*
Y2885*
X4010*
Y2920*
G37*
G36*
X4290Y2885D02*
X4255D01*
Y2884*
X4257Y2874*
X4262Y2865*
X4270Y2857*
X4279Y2852*
X4289Y2850*
X4290*
Y2885*
G37*
G36*
X4055Y2875D02*
X4020D01*
Y2840*
X4020*
X4030Y2842*
X4039Y2847*
X4047Y2855*
X4052Y2864*
X4055Y2874*
Y2875*
G37*
G36*
X4010D02*
X3975D01*
Y2874*
X3977Y2864*
X3982Y2855*
X3990Y2847*
X3999Y2842*
X4009Y2840*
X4010*
Y2875*
G37*
G36*
X3930Y2840D02*
X3930D01*
Y2805*
X3965*
Y2805*
X3962Y2815*
X3957Y2824*
X3949Y2832*
X3940Y2837*
X3930Y2840*
G37*
G36*
X3920D02*
X3919D01*
X3909Y2837*
X3900Y2832*
X3892Y2824*
X3887Y2815*
X3885Y2805*
Y2805*
X3920*
Y2840*
G37*
G36*
X4200Y2835D02*
X4200D01*
Y2800*
X4235*
Y2800*
X4232Y2810*
X4227Y2819*
X4219Y2827*
X4210Y2832*
X4200Y2835*
G37*
G36*
X4190D02*
X4189D01*
X4179Y2832*
X4170Y2827*
X4162Y2819*
X4157Y2810*
X4155Y2800*
Y2800*
X4190*
Y2835*
G37*
G36*
X3965Y2795D02*
X3930D01*
Y2760*
X3930*
X3940Y2762*
X3949Y2767*
X3957Y2775*
X3962Y2784*
X3965Y2794*
Y2795*
G37*
G36*
X3920D02*
X3885D01*
Y2794*
X3887Y2784*
X3892Y2775*
X3900Y2767*
X3909Y2762*
X3919Y2760*
X3920*
Y2795*
G37*
G36*
X4190Y2790D02*
X4155D01*
Y2789*
X4157Y2779*
X4162Y2770*
X4170Y2762*
X4179Y2757*
X4189Y2755*
X4190*
Y2790*
G37*
G36*
X4110Y2745D02*
X4110D01*
Y2710*
X4145*
Y2710*
X4142Y2720*
X4137Y2729*
X4129Y2737*
X4120Y2742*
X4110Y2745*
G37*
G36*
X4100D02*
X4099D01*
X4089Y2742*
X4080Y2737*
X4072Y2729*
X4067Y2720*
X4065Y2710*
Y2710*
X4100*
Y2745*
G37*
G36*
Y2700D02*
X4065D01*
Y2699*
X4067Y2689*
X4072Y2680*
X4080Y2672*
X4089Y2667*
X4099Y2665*
X4100*
Y2700*
G37*
G36*
X4020Y2655D02*
X4020D01*
Y2620*
X4055*
Y2620*
X4052Y2630*
X4047Y2639*
X4039Y2647*
X4030Y2652*
X4020Y2655*
G37*
G36*
X2790Y2715D02*
X2790D01*
Y2680*
X2825*
Y2680*
X2822Y2690*
X2817Y2699*
X2809Y2707*
X2800Y2712*
X2790Y2715*
G37*
G36*
X2780D02*
X2779D01*
X2769Y2712*
X2760Y2707*
X2752Y2699*
X2747Y2690*
X2745Y2680*
Y2680*
X2780*
Y2715*
G37*
G36*
X2650Y2710D02*
X2650D01*
Y2675*
X2685*
Y2675*
X2682Y2685*
X2677Y2694*
X2669Y2702*
X2660Y2707*
X2650Y2710*
G37*
G36*
X2640D02*
X2639D01*
X2629Y2707*
X2620Y2702*
X2612Y2694*
X2607Y2685*
X2605Y2675*
Y2675*
X2640*
Y2710*
G37*
G36*
X2535D02*
X2535D01*
Y2675*
X2570*
Y2675*
X2567Y2685*
X2562Y2694*
X2554Y2702*
X2545Y2707*
X2535Y2710*
G37*
G36*
X2525D02*
X2524D01*
X2514Y2707*
X2505Y2702*
X2497Y2694*
X2492Y2685*
X2490Y2675*
Y2675*
X2525*
Y2710*
G37*
G36*
X3675Y2682D02*
X3640D01*
Y2647*
X3641*
X3651Y2650*
X3660Y2655*
X3667Y2663*
X3673Y2672*
X3675Y2682*
Y2682*
G37*
G36*
X3630D02*
X3595D01*
Y2682*
X3598Y2672*
X3603Y2663*
X3611Y2655*
X3620Y2650*
X3630Y2647*
X3630*
Y2682*
G37*
G36*
X2825Y2670D02*
X2790D01*
Y2635*
X2790*
X2800Y2637*
X2809Y2642*
X2817Y2650*
X2822Y2659*
X2825Y2669*
Y2670*
G37*
G36*
X2780D02*
X2745D01*
Y2669*
X2747Y2659*
X2752Y2650*
X2760Y2642*
X2769Y2637*
X2779Y2635*
X2780*
Y2670*
G37*
G36*
X2685Y2665D02*
X2650D01*
Y2630*
X2650*
X2660Y2632*
X2669Y2637*
X2677Y2645*
X2682Y2654*
X2685Y2664*
Y2665*
G37*
G36*
X2640D02*
X2605D01*
Y2664*
X2607Y2654*
X2612Y2645*
X2620Y2637*
X2629Y2632*
X2639Y2630*
X2640*
Y2665*
G37*
G36*
X2570D02*
X2535D01*
Y2630*
X2535*
X2545Y2632*
X2554Y2637*
X2562Y2645*
X2567Y2654*
X2570Y2664*
Y2665*
G37*
G36*
X2525D02*
X2490D01*
Y2664*
X2492Y2654*
X2497Y2645*
X2505Y2637*
X2514Y2632*
X2524Y2630*
X2525*
Y2665*
G37*
G36*
X2045D02*
X2010D01*
Y2630*
X2010*
X2020Y2632*
X2029Y2637*
X2037Y2645*
X2042Y2654*
X2045Y2664*
Y2665*
G37*
G36*
X2000D02*
X1965D01*
Y2664*
X1967Y2654*
X1972Y2645*
X1980Y2637*
X1989Y2632*
X1999Y2630*
X2000*
Y2665*
G37*
G36*
X3345Y2545D02*
X3345D01*
Y2510*
X3380*
Y2510*
X3377Y2520*
X3372Y2529*
X3364Y2537*
X3355Y2542*
X3345Y2545*
G37*
G36*
X3335D02*
X3334D01*
X3324Y2542*
X3315Y2537*
X3307Y2529*
X3302Y2520*
X3300Y2510*
Y2510*
X3335*
Y2545*
G37*
G36*
X3200D02*
X3200D01*
Y2510*
X3235*
Y2510*
X3232Y2520*
X3227Y2529*
X3219Y2537*
X3210Y2542*
X3200Y2545*
G37*
G36*
X3190D02*
X3189D01*
X3179Y2542*
X3170Y2537*
X3162Y2529*
X3157Y2520*
X3155Y2510*
Y2510*
X3190*
Y2545*
G37*
G36*
X2925Y2540D02*
X2925D01*
Y2505*
X2960*
Y2505*
X2957Y2515*
X2952Y2524*
X2944Y2532*
X2935Y2537*
X2925Y2540*
G37*
G36*
X2915D02*
X2914D01*
X2904Y2537*
X2895Y2532*
X2887Y2524*
X2882Y2515*
X2880Y2505*
Y2505*
X2915*
Y2540*
G37*
G36*
X3070Y2540D02*
X3070D01*
Y2505*
X3105*
Y2505*
X3102Y2515*
X3097Y2524*
X3089Y2532*
X3080Y2537*
X3070Y2540*
G37*
G36*
X3060D02*
X3059D01*
X3049Y2537*
X3040Y2532*
X3032Y2524*
X3027Y2515*
X3025Y2505*
Y2505*
X3060*
Y2540*
G37*
G36*
X2780Y2535D02*
X2780D01*
Y2500*
X2815*
Y2500*
X2812Y2510*
X2807Y2519*
X2799Y2527*
X2790Y2532*
X2780Y2535*
G37*
G36*
X2770D02*
X2769D01*
X2759Y2532*
X2750Y2527*
X2742Y2519*
X2737Y2510*
X2735Y2500*
Y2500*
X2770*
Y2535*
G37*
G36*
X2365D02*
X2365D01*
Y2500*
X2400*
Y2500*
X2397Y2510*
X2392Y2519*
X2384Y2527*
X2375Y2532*
X2365Y2535*
G37*
G36*
X2355D02*
X2354D01*
X2344Y2532*
X2335Y2527*
X2327Y2519*
X2322Y2510*
X2320Y2500*
Y2500*
X2355*
Y2535*
G37*
G36*
X2180D02*
X2180D01*
Y2500*
X2215*
Y2500*
X2212Y2510*
X2207Y2519*
X2199Y2527*
X2190Y2532*
X2180Y2535*
G37*
G36*
X2170D02*
X2169D01*
X2159Y2532*
X2150Y2527*
X2142Y2519*
X2137Y2510*
X2135Y2500*
Y2500*
X2170*
Y2535*
G37*
G36*
X2060D02*
X2060D01*
Y2500*
X2095*
Y2500*
X2092Y2510*
X2087Y2519*
X2079Y2527*
X2070Y2532*
X2060Y2535*
G37*
G36*
X2050D02*
X2049D01*
X2039Y2532*
X2030Y2527*
X2022Y2519*
X2017Y2510*
X2015Y2500*
Y2500*
X2050*
Y2535*
G37*
G36*
X3830Y2522D02*
X3830D01*
X3820Y2519*
X3811Y2514*
X3803Y2507*
X3798Y2498*
X3795Y2487*
Y2487*
X3830*
Y2522*
G37*
G36*
X3380Y2500D02*
X3345D01*
Y2465*
X3345*
X3355Y2467*
X3364Y2472*
X3372Y2480*
X3377Y2489*
X3380Y2499*
Y2500*
G37*
G36*
X3335D02*
X3300D01*
Y2499*
X3302Y2489*
X3307Y2480*
X3315Y2472*
X3324Y2467*
X3334Y2465*
X3335*
Y2500*
G37*
G36*
X3235D02*
X3200D01*
Y2465*
X3200*
X3210Y2467*
X3219Y2472*
X3227Y2480*
X3232Y2489*
X3235Y2499*
Y2500*
G37*
G36*
X3190D02*
X3155D01*
Y2499*
X3157Y2489*
X3162Y2480*
X3170Y2472*
X3179Y2467*
X3189Y2465*
X3190*
Y2500*
G37*
G36*
X2960Y2495D02*
X2925D01*
Y2460*
X2925*
X2935Y2462*
X2944Y2468*
X2952Y2475*
X2957Y2484*
X2960Y2495*
Y2495*
G37*
G36*
X2915D02*
X2880D01*
Y2495*
X2882Y2484*
X2887Y2475*
X2895Y2468*
X2904Y2462*
X2914Y2460*
X2915*
Y2495*
G37*
G36*
X3105Y2495D02*
X3070D01*
Y2460*
X3070*
X3080Y2462*
X3089Y2467*
X3097Y2475*
X3102Y2484*
X3105Y2494*
Y2495*
G37*
G36*
X3060D02*
X3025D01*
Y2494*
X3027Y2484*
X3032Y2475*
X3040Y2467*
X3049Y2462*
X3059Y2460*
X3060*
Y2495*
G37*
G36*
X2815Y2490D02*
X2780D01*
Y2455*
X2780*
X2790Y2457*
X2799Y2462*
X2807Y2470*
X2812Y2479*
X2815Y2489*
Y2490*
G37*
G36*
X2770D02*
X2735D01*
Y2489*
X2737Y2479*
X2742Y2470*
X2750Y2462*
X2759Y2457*
X2769Y2455*
X2770*
Y2490*
G37*
G36*
X2400D02*
X2365D01*
Y2455*
X2365*
X2375Y2457*
X2384Y2462*
X2392Y2470*
X2397Y2479*
X2400Y2489*
Y2490*
G37*
G36*
X2355D02*
X2320D01*
Y2489*
X2322Y2479*
X2327Y2470*
X2335Y2462*
X2344Y2457*
X2354Y2455*
X2355*
Y2490*
G37*
G36*
X2215D02*
X2180D01*
Y2455*
X2180*
X2190Y2457*
X2199Y2462*
X2207Y2470*
X2212Y2479*
X2215Y2489*
Y2490*
G37*
G36*
X2170D02*
X2135D01*
Y2489*
X2137Y2479*
X2142Y2470*
X2150Y2462*
X2159Y2457*
X2169Y2455*
X2170*
Y2490*
G37*
G36*
X2095D02*
X2060D01*
Y2455*
X2060*
X2070Y2457*
X2079Y2462*
X2087Y2470*
X2092Y2479*
X2095Y2489*
Y2490*
G37*
G36*
X2050D02*
X2015D01*
Y2489*
X2017Y2479*
X2022Y2470*
X2030Y2462*
X2039Y2457*
X2049Y2455*
X2050*
Y2490*
G37*
G36*
X5145Y2495D02*
X5145D01*
Y2460*
X5180*
Y2460*
X5177Y2470*
X5172Y2479*
X5164Y2487*
X5155Y2492*
X5145Y2495*
G37*
G36*
X5135D02*
X5134D01*
X5124Y2492*
X5115Y2487*
X5107Y2479*
X5102Y2470*
X5100Y2460*
Y2460*
X5135*
Y2495*
G37*
G36*
X5180Y2450D02*
X5145D01*
Y2415*
X5145*
X5155Y2417*
X5164Y2422*
X5172Y2430*
X5177Y2439*
X5180Y2449*
Y2450*
G37*
G36*
X5135D02*
X5100D01*
Y2449*
X5102Y2439*
X5107Y2430*
X5115Y2422*
X5124Y2417*
X5134Y2415*
X5135*
Y2450*
G37*
G36*
X4947Y2395D02*
X4925D01*
Y2372*
X4930Y2374*
X4937Y2377*
X4942Y2382*
X4945Y2389*
X4947Y2395*
G37*
G36*
X4473Y2223D02*
X4450D01*
Y2201*
X4456Y2203*
X4462Y2206*
X4468Y2211*
X4471Y2218*
X4473Y2223*
G37*
G36*
X4440D02*
X4418D01*
X4420Y2218*
X4423Y2211*
X4428Y2206*
X4435Y2203*
X4440Y2201*
Y2223*
G37*
G36*
X4670Y2223D02*
X4647D01*
Y2201*
X4653Y2202*
X4659Y2206*
X4664Y2211*
X4668Y2218*
X4670Y2223*
G37*
G36*
X4637D02*
X4615D01*
X4616Y2218*
X4620Y2211*
X4625Y2206*
X4632Y2202*
X4637Y2201*
Y2223*
G37*
G36*
X4371Y2201D02*
X4349D01*
Y2179*
X4355Y2180*
X4361Y2184*
X4366Y2189*
X4370Y2195*
X4371Y2201*
G37*
G36*
X4205Y491D02*
X4205D01*
Y455*
X4241*
Y455*
X4238Y466*
X4233Y475*
X4225Y483*
X4216Y488*
X4205Y491*
G37*
G36*
X4195D02*
X4194D01*
X4183Y488*
X4174Y483*
X4166Y475*
X4161Y466*
X4158Y455*
Y455*
X4195*
Y491*
G37*
G36*
X4241Y445D02*
X4205D01*
Y408*
X4205*
X4216Y411*
X4225Y416*
X4233Y424*
X4238Y433*
X4241Y444*
Y445*
G37*
G36*
X4195D02*
X4158D01*
Y444*
X4161Y433*
X4166Y424*
X4174Y416*
X4183Y411*
X4194Y408*
X4195*
Y445*
G37*
G36*
X1780Y1470D02*
X1780D01*
Y1435*
X1815*
Y1435*
X1812Y1445*
X1807Y1454*
X1799Y1462*
X1790Y1467*
X1780Y1470*
G37*
G36*
X1770D02*
X1769D01*
X1759Y1467*
X1750Y1462*
X1742Y1454*
X1737Y1445*
X1735Y1435*
Y1435*
X1770*
Y1470*
G37*
G36*
X1620D02*
X1620D01*
Y1435*
X1655*
Y1435*
X1652Y1445*
X1647Y1454*
X1639Y1462*
X1630Y1467*
X1620Y1470*
G37*
G36*
X1610D02*
X1609D01*
X1599Y1467*
X1590Y1462*
X1582Y1454*
X1577Y1445*
X1575Y1435*
Y1435*
X1610*
Y1470*
G37*
G36*
X1815Y1425D02*
X1780D01*
Y1390*
X1780*
X1790Y1392*
X1799Y1397*
X1807Y1405*
X1812Y1414*
X1815Y1424*
Y1425*
G37*
G36*
X1770D02*
X1735D01*
Y1424*
X1737Y1414*
X1742Y1405*
X1750Y1397*
X1759Y1392*
X1769Y1390*
X1770*
Y1425*
G37*
G36*
X1655D02*
X1620D01*
Y1390*
X1620*
X1630Y1392*
X1639Y1397*
X1647Y1405*
X1652Y1414*
X1655Y1424*
Y1425*
G37*
G36*
X1610D02*
X1575D01*
Y1424*
X1577Y1414*
X1582Y1405*
X1590Y1397*
X1599Y1392*
X1609Y1390*
X1610*
Y1425*
G37*
G36*
X1745Y1305D02*
X1745D01*
Y1270*
X1780*
Y1270*
X1777Y1280*
X1772Y1289*
X1764Y1297*
X1755Y1302*
X1745Y1305*
G37*
G36*
X1735D02*
X1734D01*
X1724Y1302*
X1715Y1297*
X1707Y1289*
X1702Y1280*
X1700Y1270*
Y1270*
X1735*
Y1305*
G37*
G36*
X1595Y1300D02*
X1595D01*
Y1265*
X1630*
Y1265*
X1627Y1275*
X1622Y1284*
X1614Y1292*
X1605Y1297*
X1595Y1300*
G37*
G36*
X1585D02*
X1584D01*
X1574Y1297*
X1565Y1292*
X1557Y1284*
X1552Y1275*
X1550Y1265*
Y1265*
X1585*
Y1300*
G37*
G36*
X1780Y1260D02*
X1745D01*
Y1225*
X1745*
X1755Y1227*
X1764Y1232*
X1772Y1240*
X1777Y1249*
X1780Y1259*
Y1260*
G37*
G36*
X1735D02*
X1700D01*
Y1259*
X1702Y1249*
X1707Y1240*
X1715Y1232*
X1724Y1227*
X1734Y1225*
X1735*
Y1260*
G37*
G36*
X1630Y1255D02*
X1595D01*
Y1220*
X1595*
X1605Y1222*
X1614Y1227*
X1622Y1235*
X1627Y1244*
X1630Y1254*
Y1255*
G37*
G36*
X1585D02*
X1550D01*
Y1254*
X1552Y1244*
X1557Y1235*
X1565Y1227*
X1574Y1222*
X1584Y1220*
X1585*
Y1255*
G37*
%LNpcb-5*%
%LPD*%
G36*
X3726Y3275D02*
X3727Y3270D01*
X3732Y3262*
X3745Y3250*
Y3197*
X3719Y3172*
X3714Y3174*
X3714Y3176*
X3711Y3184*
X3706Y3190*
X3694Y3201*
Y3248*
X3717Y3270*
X3721Y3276*
X3726Y3275*
G37*
G36*
X2974Y3268D02*
X2975Y3267D01*
X2975Y3266*
X2980Y3258*
X3001Y3238*
Y3189*
X2980Y3168*
X2976Y3163*
X2972Y3162*
X2969Y3162*
X2941Y3190*
Y3237*
X2965Y3261*
X2970Y3268*
X2974Y3268*
G37*
G36*
X1573Y3692D02*
X1572Y3691D01*
X1568Y3684*
X1566Y3676*
Y3667*
X1568Y3659*
X1572Y3652*
X1578Y3646*
X1585Y3642*
X1593Y3640*
X1594Y3637*
X1595Y3635*
X1518Y3558*
X1518Y3558*
X1514Y3559*
X1511Y3560*
X1508*
X1505Y3560*
X1501Y3560*
X1498*
X1495Y3559*
X1491Y3558*
X1488Y3557*
X1485Y3556*
X1482Y3554*
X1479Y3553*
X1477Y3551*
X1474Y3550*
X1471Y3547*
X1469Y3545*
X1467Y3543*
X1464Y3540*
X1463Y3537*
X1461Y3535*
X1460Y3532*
X1458Y3529*
X1457Y3526*
X1456Y3523*
X1455Y3519*
X1455Y3516*
Y3513*
X1454Y3510*
Y3485*
X1441Y3483*
X1429Y3478*
X1419Y3470*
X1394Y3445*
X1386Y3435*
X1381Y3423*
X1379Y3410*
Y3395*
X1380Y3391*
Y3388*
X1380Y3385*
X1381Y3383*
Y3361*
X1348*
X1344Y3363*
Y3489*
X1525Y3670*
X1530Y3678*
X1532Y3688*
Y3715*
X1573*
Y3692*
G37*
G36*
X4856Y3439D02*
X4856Y3438D01*
X4860Y3431*
X4866Y3425*
X4873Y3421*
X4881Y3419*
X4883*
X4895Y3406*
Y3375*
X4883*
Y3377*
X4881Y3386*
X4876Y3394*
X4875Y3395*
X4867Y3400*
X4858Y3402*
X4848Y3400*
X4840Y3395*
X4835Y3387*
X4833Y3378*
X4831Y3375*
X4816*
Y3403*
X4840Y3427*
X4840Y3428*
X4842Y3429*
X4848Y3435*
X4850Y3439*
X4856Y3439*
G37*
G54D13*
X1265Y1170D02*
X1270Y1175D01*
X1265Y1011D02*
Y1170D01*
X1315Y1011D02*
Y1415D01*
G54D18*
X1365Y1011D03*
Y769D03*
X1315Y1011D03*
X1265D03*
X1315Y769D03*
X1265D03*
X1215Y1011D03*
Y769D03*
G54D19*
X4723Y2470D03*
X4676D03*
X4633D03*
X4586D03*
G54D20*
X1460Y862D03*
Y925D03*
X4460Y2548D03*
Y2611D03*
X5560Y1291D03*
Y1228D03*
Y2928D03*
Y2991D03*
X800Y2168D03*
Y2231D03*
Y2400D03*
Y2336D03*
G54D21*
X1140Y2797D03*
Y2982D03*
X910Y2797D03*
Y2982D03*
G54D22*
X1132Y3320D03*
X887D03*
G54D23*
X3060Y898D03*
X3590Y898D03*
G54D24*
X2960Y1290D03*
X3160D03*
X3490Y1290D03*
X3690D03*
G54D25*
X3646Y1701D03*
Y1618D03*
X3230Y1691D03*
Y1608D03*
X1508Y3956D03*
Y3873D03*
X1598Y3956D03*
Y3873D03*
X1688Y3956D03*
Y3873D03*
G54D26*
X3053Y3210D03*
X3219D03*
X2723D03*
X2889D03*
X3796Y3220D03*
X3963D03*
X1975D03*
X2141D03*
X2278D03*
X2444D03*
X3476D03*
X3643D03*
G54D27*
X4878Y3335D03*
X4859D03*
X4839D03*
Y3272D03*
X4859D03*
X4878D03*
G54D28*
X5677Y3450D03*
X5760D03*
G54D29*
X980Y2480D03*
X1176D03*
X1178Y2160D03*
X981D03*
X1431Y3310D03*
X1628D03*
Y2580D03*
X1431D03*
G54D30*
X1969Y3060D03*
X2033D03*
X3476D03*
X3540D03*
X2724Y3050D03*
X2788D03*
G54D31*
X2677Y1326D03*
Y1261D03*
X1688Y3752D03*
Y3817D03*
X4170Y2547D03*
Y2612D03*
X5883Y2981D03*
Y2916D03*
X5492Y2680D03*
Y2745D03*
X5566Y2682D03*
Y2617D03*
X5350Y3382D03*
Y3317D03*
X5570Y3362D03*
Y3297D03*
X5850Y3327D03*
Y3392D03*
X5530Y3212D03*
Y3147D03*
X2844Y1493D03*
Y1558D03*
X4942Y3343D03*
Y3408D03*
X4770Y3339D03*
Y3404D03*
X1598Y3752D03*
Y3817D03*
X1508Y3752D03*
Y3817D03*
X3666Y1467D03*
Y1532D03*
X3240Y1457D03*
Y1522D03*
G54D32*
X1530Y2300D03*
Y2055D03*
G54D33*
X4353Y2620D03*
Y2520D03*
X4266D03*
Y2620D03*
G54D34*
X4594Y2560D03*
X4720D03*
X4594Y2776D03*
X4720D03*
G54D35*
X4277Y2730D03*
X4342D03*
X4367Y2420D03*
X4432D03*
X5938Y2818D03*
X5873D03*
X5938Y2717D03*
X5873D03*
X5939Y2614D03*
X5874D03*
X5442Y3210D03*
X5377D03*
X3528Y1700D03*
X3463D03*
X3112Y1690D03*
X3047D03*
X3528Y1780D03*
X3593D03*
X3110Y1770D03*
X3175D03*
X3578Y1460D03*
X3513D03*
X3152D03*
X3087D03*
X3383D03*
X3448D03*
X2957D03*
X3022D03*
G54D36*
X2901Y3047D03*
X2951D03*
X3001D03*
X3051D03*
Y2852D03*
X3001D03*
X2951D03*
X2901D03*
X3635Y2862D03*
X3685D03*
X3735D03*
X3785D03*
Y3057D03*
X3735D03*
X3685D03*
X3635D03*
X2136Y2862D03*
X2186D03*
X2236D03*
X2286D03*
Y3057D03*
X2236D03*
X2186D03*
X2136D03*
G54D37*
X1520Y3054D03*
G54D38*
X1610Y2825D03*
X1520D03*
X1429D03*
G54D39*
X4819Y2286D03*
X4800D03*
X4780D03*
X4760D03*
X4741D03*
X4721D03*
X4701D03*
X4682D03*
X4662D03*
X4642D03*
X4623D03*
X4603D03*
X4583D03*
X4564D03*
X4544D03*
X4524D03*
X4505D03*
X4485D03*
X4465D03*
X4445D03*
X4426D03*
X4406D03*
X4386D03*
X4367D03*
X4347D03*
Y1693D03*
X4367D03*
X4386D03*
X4406D03*
X4426D03*
X4445D03*
X4465D03*
X4485D03*
X4505D03*
X4524D03*
X4544D03*
X4564D03*
X4583D03*
X4603D03*
X4623D03*
X4642D03*
X4662D03*
X4682D03*
X4701D03*
X4721D03*
X4741D03*
X4760D03*
X4780D03*
X4800D03*
X4819D03*
G54D40*
X4287Y2226D03*
Y2206D03*
Y2186D03*
Y2167D03*
Y2147D03*
Y2127D03*
Y2108D03*
Y2088D03*
Y2068D03*
Y2049D03*
Y2029D03*
Y2009D03*
Y1990D03*
Y1970D03*
Y1950D03*
Y1930D03*
Y1911D03*
Y1891D03*
Y1871D03*
Y1852D03*
Y1832D03*
Y1812D03*
Y1793D03*
Y1773D03*
Y1753D03*
X4880D03*
Y1773D03*
Y1793D03*
Y1812D03*
Y1832D03*
Y1852D03*
Y1871D03*
Y1891D03*
Y1911D03*
Y1930D03*
Y1950D03*
Y1970D03*
Y1990D03*
Y2009D03*
Y2029D03*
Y2049D03*
Y2068D03*
Y2088D03*
Y2108D03*
Y2127D03*
Y2147D03*
Y2167D03*
Y2186D03*
Y2206D03*
Y2226D03*
G54D41*
X5420Y3320D03*
X5499Y3357D03*
Y3282D03*
G54D42*
X2221Y1550D03*
G54D43*
X2671Y1450D03*
Y1650D03*
G54D44*
X5669Y3367D03*
G54D45*
X5669Y3292D03*
X5750Y3330D03*
G54D46*
X3080Y1540D03*
X3042Y1619D03*
X3117D03*
X3496Y1550D03*
X3458Y1629D03*
X3533D03*
G54D59*
X2465Y750D03*
G54D60*
X1874Y750D03*
G54D61*
X5056Y3726D03*
X4582D03*
G54D62*
X4770Y3541D03*
G54D63*
X4868Y3541D03*
Y3620D03*
X4770D03*
G54D68*
X5640Y3880D03*
G54D69*
X5540Y3880D03*
X5440D03*
X5640Y3780D03*
X5540D03*
X5440D03*
G54D72*
X3740Y540D03*
X3500D03*
X2940Y538D03*
X3190D03*
G54D73*
X3740Y441D03*
X3500D03*
X2940Y440D03*
X3190D03*
G54D80*
X3805Y1565D02*
X3820Y1550D01*
X3805Y1565D02*
Y1790D01*
G54D81*
X2136Y2788D02*
X2210Y2715D01*
X2136Y2788D02*
Y2862D01*
X4400Y960D02*
X4809Y550D01*
X4400Y960D02*
Y1210D01*
X4809Y550D02*
X5098D01*
X4175Y1865D02*
X4221Y1911D01*
X4175Y1665D02*
X4250Y1590D01*
X4175Y1665D02*
Y1865D01*
X4685Y2099D02*
X4740Y2045D01*
X4685Y2099D02*
Y2108D01*
X4679Y2115D02*
X4685Y2108D01*
X4834Y3144D02*
X4839Y3149D01*
X4679Y2115D02*
X4682Y2118D01*
X4663Y2097D02*
X4722Y2037D01*
Y1727D02*
Y2037D01*
X4663Y2097D02*
Y2099D01*
X4760Y1800D02*
X4790Y1830D01*
X4760Y1693D02*
Y1800D01*
X4790Y1830D02*
Y2062D01*
X5445Y2410D02*
X5680D01*
X5182Y2147D02*
X5445Y2410D01*
X4880Y2147D02*
X5182D01*
X5227Y2127D02*
X5260Y2160D01*
X4880Y2127D02*
X5227D01*
X5530Y2360D02*
X5710D01*
X4880Y2108D02*
X5278D01*
X5530Y2360*
X5353Y2088D02*
X5575Y2310D01*
X5680*
X4880Y2088D02*
X5353D01*
X1415Y1380D02*
X2162Y2127D01*
X1415Y1315D02*
Y1380D01*
X1365Y1011D02*
Y1400D01*
X2112Y2147*
X1315Y1415D02*
X2067Y2167D01*
X1542Y862D02*
X1545Y860D01*
X5660Y1610D02*
X5670Y1620D01*
X4880Y1832D02*
X4967D01*
X4980Y1820*
X4960Y1764D02*
X4979D01*
X4931Y1793D02*
X4960Y1764D01*
X4654Y2336D02*
X4662Y2327D01*
X4348Y1773D02*
X4350Y1775D01*
X4287Y1773D02*
X4348D01*
X4200Y1705D02*
X4300Y1605D01*
X4200Y1705D02*
Y1850D01*
X4300Y1420D02*
Y1605D01*
X3965Y1115D02*
X4010Y1070D01*
X3965Y1885D02*
X4089Y2009D01*
X3965Y1115D02*
Y1885D01*
X3925Y1325D02*
Y1900D01*
X4054Y2029*
X4030Y1830D02*
X4170Y1970D01*
X4030Y1290D02*
Y1830D01*
X4170Y1970D02*
X4287D01*
X4000Y1865D02*
X4125Y1990D01*
X4287*
X4000Y1169D02*
Y1865D01*
X4089Y2009D02*
X4287D01*
X4054Y2029D02*
X4287D01*
X5780Y2910D02*
X5876D01*
X5883Y2916*
X5788Y2818D02*
X5873D01*
X5780Y2710D02*
X5866D01*
X5873Y2717*
X5442Y3210D02*
X5444Y3212D01*
X5499Y3225D02*
X5512Y3212D01*
X5530*
X5420Y3320D02*
X5535D01*
X5557Y3297D02*
X5570D01*
X5535Y3320D02*
X5557Y3297D01*
X4834Y3144D02*
X4836Y3142D01*
X4834Y3144D02*
D01*
X4839Y3149D02*
Y3272D01*
X4340Y1615D02*
X4347Y1622D01*
X4340Y880D02*
Y1615D01*
X4347Y1622D02*
Y1693D01*
X4400Y1520D02*
Y1610D01*
X4386Y1623D02*
Y1693D01*
Y1623D02*
X4400Y1610D01*
X4515Y365D02*
X4600Y450D01*
X4170Y365D02*
X4515D01*
X4110Y425D02*
X4170Y365D01*
X4250Y950D02*
Y1590D01*
X4880Y2206D02*
X4943D01*
X4912Y2226D02*
X4921Y2235D01*
Y2245*
X4880Y2226D02*
X4912D01*
X2162Y2127D02*
X4287D01*
X3593Y1788D02*
X3873Y2068D01*
X3593Y1780D02*
Y1788D01*
X3873Y2068D02*
X4287D01*
X3483Y2088D02*
X4287D01*
X3175Y1780D02*
X3483Y2088D01*
X3175Y1770D02*
Y1780D01*
X4160Y2317D02*
X4268D01*
X4298Y2286*
X4347*
X4560Y1805D02*
X4583Y1781D01*
X4560Y1805D02*
Y1920D01*
X4583Y1693D02*
Y1781D01*
X4585Y1810D02*
X4603Y1791D01*
Y1693D02*
Y1791D01*
X4585Y1810D02*
Y1930D01*
X4623Y1693D02*
Y1806D01*
X4610Y1820D02*
X4623Y1806D01*
X4610Y1820D02*
Y1960D01*
X4600Y1970D02*
X4610Y1960D01*
X4534Y1945D02*
X4560Y1920D01*
X4642Y1693D02*
Y1842D01*
X4635Y1850D02*
X4642Y1842D01*
X1505Y3510D02*
X1688Y3693D01*
Y3752*
X4823Y3303D02*
X4855D01*
X4800Y3280D02*
X4823Y3303D01*
X2873Y1558D02*
X2898D01*
X2910Y1570*
X1598Y3672D02*
Y3752D01*
X1140Y2797D02*
X1237D01*
X1320Y2880*
Y3500*
X1508Y3688*
Y3752*
X5910Y3100D02*
Y3620D01*
X5490Y3830D02*
X5700D01*
X5910Y3620*
X5440Y3880D02*
X5490Y3830D01*
X5450Y3590D02*
X5640Y3780D01*
X5190Y3590D02*
X5450D01*
X5460Y2110D02*
X5680D01*
X5418Y2068D02*
X5460Y2110D01*
X4880Y2068D02*
X5418D01*
X5450Y2010D02*
X5680D01*
X5410Y2049D02*
X5450Y2010D01*
X5323Y2049D02*
X5410D01*
X4675Y2415D02*
Y2469D01*
X4670Y2410D02*
X4675Y2415D01*
Y2469D02*
X4676Y2470D01*
X5100Y2740D02*
X5150D01*
X4965Y2605D02*
X5100Y2740D01*
X4965Y2577D02*
Y2605D01*
X4760Y2340D02*
X5010Y2590D01*
Y2600*
X5040Y2630*
X4780Y2330D02*
X5260Y2810D01*
X4780Y2286D02*
Y2330D01*
X5260Y2810D02*
X5680D01*
X4760Y2286D02*
Y2340D01*
X4741Y2353D02*
X4965Y2577D01*
X4741Y2286D02*
Y2353D01*
X4564Y2235D02*
Y2286D01*
X5730Y2380D02*
Y3040D01*
X5710Y2360D02*
X5730Y2380D01*
X5870Y3060D02*
X5910Y3100D01*
X5750Y3060D02*
X5870D01*
X5730Y3040D02*
X5750Y3060D01*
X5290Y2360D02*
Y2770D01*
X5480Y2510D02*
X5680D01*
X5137Y2167D02*
X5480Y2510D01*
X4880Y2167D02*
X5137D01*
X4790Y2062D02*
X4800Y2072D01*
X4740Y1694D02*
Y2045D01*
X3001Y2667D02*
Y2852D01*
Y2667D02*
X3031Y2637D01*
X3129Y2677D02*
X3149D01*
X3051Y2755D02*
X3129Y2677D01*
X3051Y2755D02*
Y2852D01*
X2901Y2748D02*
Y2852D01*
X2236Y2862D02*
X2239Y2859D01*
Y2785D02*
Y2859D01*
X2286Y2733D02*
Y2862D01*
Y2733D02*
X2322Y2696D01*
X2898Y3050D02*
X2901Y3047D01*
X2998Y3276D02*
Y3448D01*
Y3276D02*
X3053Y3221D01*
X2948Y3278D02*
Y3548D01*
X2889Y3220D02*
X2948Y3278D01*
X2889Y3199D02*
Y3210D01*
Y3220*
X3053Y3198D02*
Y3210D01*
Y3221*
X4570Y2050D02*
X4662Y1957D01*
X2112Y2147D02*
X4287D01*
X4243Y2186D02*
X4287D01*
X4230Y2200D02*
X4243Y2186D01*
X2067Y2167D02*
X4287D01*
X4662Y1693D02*
Y1957D01*
X4682Y1693D02*
Y1977D01*
X4565Y2094D02*
X4682Y1977D01*
X4701Y1693D02*
Y2008D01*
X4570Y2140D02*
X4701Y2008D01*
X2844Y1558D02*
X2873D01*
X4367Y727D02*
Y1693D01*
X5450Y498D02*
X5498Y450D01*
X5450Y498D02*
Y600D01*
X4769Y1280D02*
X5450Y600D01*
X4439Y1280D02*
X4769D01*
X4200Y1850D02*
X4240Y1890D01*
X4285*
X4287Y1891*
X4030Y1290D02*
X4070Y1250D01*
X4000Y1169D02*
X4050Y1119D01*
X4440Y1010D02*
X4740D01*
X5198Y551*
X4050Y1020D02*
Y1119D01*
X4778Y1070D02*
X5298Y550D01*
X4440Y1070D02*
X4778D01*
X4110Y425D02*
Y1870D01*
X4430Y1130D02*
X4818D01*
X5398Y550*
X5198D02*
Y551D01*
X4287Y1970D02*
X4287Y1970D01*
X4110Y1870D02*
X4190Y1950D01*
X4150Y1870D02*
X4210Y1930D01*
X4150Y870D02*
Y1870D01*
X4190Y1950D02*
X4287D01*
X4210Y1930D02*
X4287D01*
X4221Y1911D02*
X4287D01*
X4177Y2351D02*
X4338D01*
X3797Y2680D02*
X4160Y2317D01*
X4201Y2283D02*
X4257Y2226D01*
X4150Y2283D02*
X4201D01*
X3735Y2793D02*
Y2862D01*
X3635Y2798D02*
X4150Y2283D01*
X3735Y2793D02*
X4177Y2351D01*
X3635Y2798D02*
Y2862D01*
X4287Y1871D02*
X4458D01*
X4427Y1852D02*
X4506Y1773D01*
X4287Y1852D02*
X4427D01*
X4238Y1733D02*
X4258Y1753D01*
X4407Y1832D02*
X4450Y1790D01*
X4287Y1832D02*
X4407D01*
X4377Y1812D02*
X4430Y1760D01*
X4287Y1812D02*
X4377D01*
X4340Y790D02*
Y880D01*
X4300Y660D02*
X4367Y727D01*
X4300Y550D02*
Y660D01*
X5310Y3210D02*
X5377D01*
X4770Y2670D02*
X5310Y3210D01*
X4961Y1793D02*
X4978D01*
X4880Y1812D02*
X4942D01*
X4828Y1792D02*
X4846Y1773D01*
X4880*
X4722Y1727D02*
X4722Y1727D01*
X4722Y1694D02*
Y1727D01*
X4721Y1693D02*
X4722Y1694D01*
X4741Y2155D02*
X4800Y2214D01*
Y2286*
X4819Y2200D02*
Y2286D01*
X4775Y2156D02*
X4819Y2200D01*
X4779Y2121D02*
Y2124D01*
X4841Y2186*
X4880*
X4712Y2230D02*
X4721Y2239D01*
X4740Y1694D02*
X4741Y1693D01*
X5476Y1610D02*
X5660D01*
X5670Y1620D02*
X5680Y1610D01*
X5410Y1660D02*
X5730D01*
X5139Y1930D02*
X5410Y1660D01*
X4987Y1852D02*
X5448Y1391D01*
X5480Y1360*
X5494*
X4721Y2239D02*
Y2286D01*
X5128Y1911D02*
X5480Y1560D01*
X4780Y1645D02*
X4781Y1645D01*
X4819Y1656D02*
X4831Y1645D01*
X4780Y1645D02*
Y1693D01*
X4800Y1732D02*
X4820Y1751D01*
X4800Y1693D02*
Y1732D01*
X5250Y2009D02*
X5270Y1990D01*
X4880Y2009D02*
X5250D01*
X4819Y1656D02*
Y1693D01*
X5730Y1660D02*
X5780Y1610D01*
X4880Y1735D02*
Y1753D01*
X5489Y2742D02*
X5492Y2745D01*
X5432Y2742D02*
X5489D01*
X5507Y2617D02*
X5566D01*
X5490Y2635D02*
X5507Y2617D01*
X5430Y2680D02*
X5430Y2680D01*
X5492*
X5493Y2682*
X5566*
X4880Y1793D02*
X4931D01*
X4978Y1793D02*
X4980Y1792D01*
X4942Y1812D02*
X4961Y1793D01*
X4944Y1852D02*
X4970D01*
X4880D02*
X4944D01*
X4970D02*
X4987D01*
X5297Y2049D02*
X5323D01*
X5300Y2029D02*
X5320Y2010D01*
X4880Y2029D02*
X5300D01*
X4880Y2049D02*
X5297D01*
X5250Y1960D02*
X5730D01*
X5220Y1990D02*
X5250Y1960D01*
X5730D02*
X5780Y1910D01*
X4880Y1990D02*
X5220D01*
X5189Y1970D02*
X5300Y1860D01*
X4880Y1970D02*
X5189D01*
X5300Y1860D02*
X5730D01*
X5780Y1810*
X5730Y1760D02*
X5780Y1710D01*
X5360Y1760D02*
X5730D01*
X5169Y1950D02*
X5360Y1760D01*
X4880Y1950D02*
X5169D01*
X4880Y1930D02*
X5139D01*
X5048Y1871D02*
X5510Y1410D01*
X4880Y1911D02*
X5128D01*
X4880Y1891D02*
X5098D01*
X4880Y1871D02*
X5048D01*
X5098Y1891D02*
X5530Y1460D01*
X5730D02*
X5780Y1410D01*
X5530Y1460D02*
X5730D01*
Y1560D02*
X5780Y1510D01*
X5480Y1560D02*
X5730D01*
X5494Y1360D02*
X5700D01*
X5730Y1330*
Y1260D02*
Y1330D01*
Y1260D02*
X5780Y1210D01*
X4782Y3404D02*
X4823Y3445D01*
Y3455*
X4886Y3451D02*
X4928Y3408D01*
X2133Y3060D02*
X2136Y3057D01*
X3632Y3060D02*
X3635Y3057D01*
X3540Y3060D02*
X3632D01*
X4855Y3303D02*
X4859Y3299D01*
Y3272D02*
Y3299D01*
X4445Y2228D02*
Y2286D01*
X4465D02*
Y2336D01*
X4287Y2206D02*
X4344D01*
X4257Y2226D02*
X4287D01*
X4338Y2351D02*
X4367Y2321D01*
Y2286D02*
Y2321D01*
X3785Y2804D02*
Y2862D01*
X3783Y2802D02*
X3785Y2804D01*
X4603Y2286D02*
Y2330D01*
X4432Y2420D02*
X4514D01*
X4603Y2330*
X4878Y3271D02*
X4878Y3272D01*
X4878Y3232D02*
Y3271D01*
X4858Y3378D02*
X4859Y3377D01*
Y3335D02*
Y3377D01*
X4633Y2396D02*
X4669Y2360D01*
X4633Y2396D02*
Y2470D01*
X4669Y2360D02*
X4682Y2347D01*
X4633Y2470D02*
Y2536D01*
X5780Y2810D02*
X5788Y2818D01*
X5780Y2610D02*
X5784Y2614D01*
X5874*
X5644Y2745D02*
X5680Y2710D01*
X5492Y2745D02*
X5644D01*
X5566Y2617D02*
X5573Y2610D01*
X5680*
X5418Y3317D02*
X5420Y3320D01*
X5664Y3362D02*
X5669Y3367D01*
X4878Y3335D02*
X4934D01*
X4942Y3343*
X4835Y3339D02*
X4839Y3335D01*
X4770Y3339D02*
X4835D01*
X4928Y3408D02*
X4942D01*
X4770Y3404D02*
X4782D01*
X3796Y3206D02*
Y3220D01*
X3643Y3210D02*
Y3220D01*
X2278Y3208D02*
Y3220D01*
X2141Y3209D02*
Y3220D01*
Y3232D02*
X2193Y3283D01*
X2141Y3220D02*
Y3232D01*
X2193Y3283D02*
Y3548D01*
X2260Y3237D02*
X2278Y3220D01*
X2243Y3265D02*
Y3448D01*
X2260Y3237D02*
Y3248D01*
X2243Y3265D02*
X2260Y3248D01*
X3796Y3220D02*
Y3233D01*
X3750Y3280D02*
X3796Y3233D01*
X3750Y3280D02*
Y3450D01*
X3643Y3220D02*
Y3231D01*
X3700Y3288D02*
Y3550D01*
X3643Y3231D02*
X3700Y3288D01*
X4623Y2286D02*
Y2350D01*
X4623Y2351D02*
X4623Y2350D01*
X4353Y2434D02*
X4367Y2420D01*
X4353Y2434D02*
Y2520D01*
X4258Y1753D02*
X4287D01*
X4241Y1793D02*
X4287D01*
X4406Y2286D02*
X4407Y2286D01*
Y2335*
X4415Y2343*
X4426Y2331*
Y2286D02*
Y2331D01*
X4642Y2228D02*
Y2286D01*
X4682Y2324D02*
Y2347D01*
Y2286D02*
Y2324D01*
X4662Y2286D02*
Y2327D01*
X4594Y2560D02*
X4610D01*
X4633Y2536*
X4710Y2560D02*
X4720D01*
X4676Y2526D02*
X4710Y2560D01*
X4676Y2470D02*
Y2526D01*
G54D82*
X1255Y500D02*
X1315Y560D01*
Y769*
X1005Y500D02*
X1105Y600D01*
X1205*
X1265Y660*
Y769*
X1215D02*
Y860D01*
X3051Y3047D02*
X3102D01*
X2289Y3060D02*
X2345D01*
X2788Y3050D02*
X2898D01*
X2033Y3060D02*
X2133D01*
G54D83*
X1366Y769D02*
X1460Y862D01*
X1365Y769D02*
X1366D01*
X5750Y3255D02*
Y3330D01*
X5685Y3190D02*
X5750Y3255D01*
X5640Y3190D02*
X5685D01*
X5600Y3150D02*
X5640Y3190D01*
X5600Y3065D02*
Y3150D01*
X5655Y3010D02*
X5680D01*
X5600Y3065D02*
X5655Y3010D01*
X5499Y3225D02*
Y3282D01*
X5444Y3212D02*
X5530D01*
X5817Y3425D02*
X5850Y3392D01*
X5760Y3450D02*
X5785Y3425D01*
X5817*
X5418Y3317D02*
X5420Y3320D01*
X5350Y3317D02*
X5418D01*
X5662Y3264D02*
Y3292D01*
X5650Y3252D02*
X5662Y3264D01*
Y3292D02*
X5669D01*
X5350Y3382D02*
Y3440D01*
X3219Y3309D02*
X3220Y3310D01*
X3788Y3061D02*
X3841D01*
X3845Y3065*
X3102Y3047D02*
X3105Y3045D01*
X2785Y2970D02*
X2788Y2973D01*
Y3050*
X2677Y1202D02*
Y1261D01*
X2675Y1200D02*
X2677Y1202D01*
X980Y2400D02*
X985Y2395D01*
X5498Y3358D02*
X5500Y3360D01*
X2960Y1290D02*
Y1521D01*
X808Y2160D02*
X981D01*
X800Y2168D02*
X808Y2160D01*
X621Y2168D02*
X800D01*
X600Y2190D02*
X621Y2168D01*
X4723Y2425D02*
X4738Y2411D01*
X4723Y2470D02*
X4723Y2469D01*
Y2425D02*
Y2469D01*
X2960Y1521D02*
X2960Y1522D01*
X5508Y1227D02*
X5509Y1228D01*
X5560*
X5883Y2981D02*
X5933D01*
X5939Y2555D02*
Y2614D01*
X5938Y2717D02*
Y2818D01*
Y2717D02*
X5939Y2716D01*
Y2614D02*
Y2716D01*
X2671Y1450D02*
X2677Y1444D01*
Y1326D02*
Y1444D01*
X2671Y1450D02*
X2714Y1493D01*
X2844*
X2671Y1650D02*
X2776D01*
X3047Y1742D02*
X3047Y1741D01*
Y1690D02*
Y1741D01*
X3042Y1685D02*
X3047Y1690D01*
X3042Y1619D02*
Y1685D01*
X3463Y1756D02*
X3464Y1757D01*
X3463Y1700D02*
Y1756D01*
X3458Y1695D02*
X3463Y1700D01*
X3458Y1629D02*
Y1695D01*
X3279Y1086D02*
Y1418D01*
X3383Y1460D02*
Y1511D01*
X3240Y1457D02*
X3279Y1418D01*
X3380Y1515D02*
X3383Y1511D01*
X3688Y1701D02*
X3689Y1702D01*
X3646Y1701D02*
X3688D01*
X3279Y1691D02*
X3280Y1692D01*
X3230Y1691D02*
X3279D01*
X3785Y3057D02*
X3788Y3061D01*
X5676Y3450D02*
X5677Y3450D01*
X5676Y3450D02*
Y3505D01*
X5500Y3360D02*
Y3403D01*
X3540Y3060D02*
X3540Y3059D01*
X4460Y2611D02*
Y2667D01*
X5500Y1300D02*
X5508Y1291D01*
X5560*
X4549Y2470D02*
X4586D01*
X1688Y3817D02*
Y3873D01*
X1598Y3817D02*
Y3873D01*
X1508Y3817D02*
Y3873D01*
X1507Y4017D02*
X1508Y4016D01*
Y3956D02*
Y4016D01*
X1598Y4014D02*
X1600Y4016D01*
X1598Y3956D02*
Y4014D01*
X1687Y3956D02*
Y4015D01*
Y3956D02*
X1688Y3956D01*
X5498Y3358D02*
X5499Y3357D01*
X5528Y3101D02*
X5530Y3103D01*
Y3147*
X5506Y2993D02*
X5558D01*
X5560Y2991*
X4117Y2547D02*
X4169D01*
X4170Y2547*
X4208Y2501D02*
X4226Y2520D01*
X4266*
X4517Y2548D02*
X4519Y2550D01*
X4460Y2548D02*
X4517D01*
X5560Y1228D02*
X5578Y1210D01*
X5680*
X5560Y1291D02*
X5572Y1304D01*
X5674D02*
X5680Y1310D01*
X5572Y1304D02*
X5674D01*
X5570Y3362D02*
X5664D01*
X5847Y3330D02*
X5850Y3327D01*
X5750Y3330D02*
X5847D01*
X5578Y2910D02*
X5680D01*
X5560Y2928D02*
X5578Y2910D01*
X2940Y778D02*
X3060Y898D01*
X3190Y768*
X3590Y898D02*
X3737Y751D01*
Y543D02*
X3740Y540D01*
X3500Y808D02*
X3590Y898D01*
X3790Y1065D02*
Y1396D01*
X3666Y1467D02*
X3718D01*
X3790Y1396*
X3590Y898D02*
X3623D01*
X3790Y1065*
X3091Y898D02*
X3279Y1086D01*
X3060Y898D02*
X3091D01*
X3646Y1552D02*
X3666Y1532D01*
X3646Y1552D02*
Y1618D01*
X3230Y1532D02*
X3240Y1522D01*
X3230Y1532D02*
Y1608D01*
X3117Y1619D02*
Y1685D01*
X3112Y1690D02*
X3117Y1685D01*
X3528Y1634D02*
X3533Y1629D01*
X3528Y1634D02*
Y1700D01*
X3528Y1700*
Y1780*
X3110Y1691D02*
X3112Y1690D01*
X3110Y1691D02*
Y1770D01*
X3080Y1540D02*
X3087Y1533D01*
Y1460D02*
Y1533D01*
X3022Y1460D02*
X3087D01*
X3496Y1550D02*
X3513Y1533D01*
Y1460D02*
Y1533D01*
X3448Y1460D02*
X3513D01*
X3578Y1357D02*
Y1460D01*
Y1357D02*
X3645Y1290D01*
X3690*
X3383Y1344D02*
X3437Y1290D01*
X3383Y1344D02*
Y1460D01*
X3437Y1290D02*
X3490D01*
X3152Y1460D02*
X3160Y1452D01*
Y1290D02*
Y1452D01*
X2221Y1495D02*
Y1550D01*
X4353Y2620D02*
Y2719D01*
X4342Y2730D02*
X4353Y2719D01*
Y2620D02*
X4361Y2611D01*
X4460*
X4266Y2620D02*
Y2719D01*
X4277Y2730*
X4259Y2612D02*
X4266Y2620D01*
X4170Y2612D02*
X4259D01*
G54D84*
X1460Y862D02*
X1542D01*
X1460Y925D02*
Y995D01*
X2033Y2983D02*
Y3060D01*
X1890D02*
X1969D01*
X1429Y2750D02*
Y2825D01*
X1330Y2580D02*
X1431D01*
X800Y2336D02*
X856D01*
X800Y2231D02*
X858D01*
X600Y2390D02*
X610Y2400D01*
X800*
X880Y2480*
X980*
G54D85*
X1505Y3435D02*
Y3510D01*
X1455Y3435D02*
X1505D01*
X1431Y3310D02*
Y3393D01*
X1430Y3410D02*
X1455Y3435D01*
X1431Y3142D02*
Y3310D01*
X1430Y3395D02*
X1431Y3393D01*
X1430Y3395D02*
Y3410D01*
X3963Y3220D02*
Y3313D01*
X3965Y3315*
X3540Y2974D02*
Y3059D01*
X3400Y3060D02*
X3476D01*
X2645Y3210D02*
X2723D01*
X2645Y3050D02*
X2714D01*
X2445Y3219D02*
Y3325D01*
X3219Y3210D02*
Y3309D01*
X3400Y3220D02*
X3476D01*
X1530Y1910D02*
Y2055D01*
X1610Y2710D02*
X1610Y2709D01*
X1610Y2710D02*
X1610Y2710D01*
Y2597D02*
Y2709D01*
Y2710D02*
Y2825D01*
X1178Y2160D02*
X1280D01*
X1176Y2480D02*
X1275D01*
X980D02*
X985Y2475D01*
Y2395D02*
Y2475D01*
X1890Y3220D02*
X1975D01*
X1628Y3310D02*
X1730D01*
X1628Y2580D02*
X1758D01*
X1070Y2300D02*
X1530D01*
X981Y2211D02*
X1070Y2300D01*
X981Y2160D02*
Y2211D01*
X980Y2520D02*
Y2620D01*
Y2480D02*
Y2520D01*
X1182Y3320D02*
X1250D01*
X1628Y2458D02*
Y2580D01*
X1530Y2360D02*
X1628Y2458D01*
X1530Y2300D02*
Y2360D01*
X1610Y2597D02*
X1628Y2580D01*
X1520Y2825D02*
Y3054D01*
X1431Y3142D02*
X1520Y3054D01*
X910Y2797D02*
X1140D01*
X910Y2690D02*
X980Y2620D01*
X910Y2690D02*
Y2797D01*
X1874Y750D02*
X2221Y1096D01*
Y1550*
G54D86*
X910Y2982D02*
X1140D01*
X672D02*
X910D01*
X614Y2924D02*
X672Y2982D01*
X520Y2924D02*
X614D01*
X520Y3515D02*
X715Y3320D01*
X887*
X909Y3341*
Y3808*
X2940Y538D02*
Y778D01*
X3190Y538D02*
Y768D01*
X3737Y543D02*
Y751D01*
X3500Y540D02*
Y808D01*
G54D87*
X2951Y2852D02*
X3001D01*
X2889Y3199D02*
X2951Y3138D01*
Y3047D02*
Y3138D01*
X3001Y3047D02*
Y3147D01*
X3053Y3198*
X2236Y3057D02*
Y3167D01*
X2278Y3208*
X2186Y2862D02*
X2236D01*
X3685D02*
X3735D01*
Y3145D02*
X3796Y3206D01*
X3735Y3057D02*
Y3145D01*
X3643Y3210D02*
X3685Y3169D01*
Y3057D02*
Y3169D01*
X2141Y3209D02*
X2186Y3164D01*
Y3057D02*
Y3164D01*
G54D88*
X5680Y1210D03*
Y1310D03*
Y1410D03*
Y1510D03*
Y1610D03*
Y1710D03*
Y1810D03*
Y1910D03*
Y2010D03*
Y2110D03*
Y2210D03*
Y2310D03*
Y2410D03*
Y2510D03*
Y2610D03*
Y2710D03*
Y2810D03*
Y2910D03*
Y3010D03*
X5780Y1210D03*
Y1310D03*
Y1410D03*
Y1510D03*
Y1610D03*
Y1710D03*
Y1810D03*
Y1910D03*
Y2010D03*
Y2110D03*
Y2210D03*
Y2310D03*
Y2410D03*
Y2510D03*
Y2610D03*
Y2710D03*
Y2810D03*
Y2910D03*
Y3010D03*
Y3110D03*
G54D89*
X5680Y3110D03*
G54D90*
X4600Y450D03*
X4500D03*
X4400D03*
X4300D03*
X4200D03*
X4500Y550D03*
X4400D03*
X4300D03*
X4200D03*
X5098Y550D03*
X5198D03*
X5298D03*
X5398D03*
X5098Y450D03*
X5198D03*
X5298D03*
X5398D03*
X5498D03*
G54D91*
X4600Y550D03*
X5498Y550D03*
G54D92*
X1005Y500D03*
X1159Y3808D03*
G54D93*
X1255Y500D03*
X909Y3808D03*
G54D94*
X850Y893D03*
Y1681D03*
G54D95*
X2746Y3800D03*
X3196Y3805D03*
X3948Y3806D03*
X3498Y3801D03*
X1991Y3800D03*
X2441Y3805D03*
X5994Y343D03*
Y3965D03*
X404Y343D03*
Y3965D03*
G54D96*
X3048Y3548D03*
X2998Y3448D03*
X2948Y3548D03*
X2898Y3448D03*
X2848Y3548D03*
X2798Y3448D03*
X3148Y3548D03*
X3098Y3448D03*
X3850Y3450D03*
X3900Y3550D03*
X3550Y3450D03*
X3600Y3550D03*
X3650Y3450D03*
X3700Y3550D03*
X3750Y3450D03*
X3800Y3550D03*
X2293Y3548D03*
X2243Y3448D03*
X2193Y3548D03*
X2143Y3448D03*
X2093Y3548D03*
X2043Y3448D03*
X2393Y3548D03*
X2343Y3448D03*
G54D97*
X600Y2390D03*
G54D98*
X600Y2290D03*
Y2190D03*
G54D99*
X520Y3515D03*
Y2924D03*
G54D100*
X3635Y2687D03*
X3835Y2482D03*
X2970Y1840D03*
X5325Y2945D03*
X5140Y2455D03*
X4910Y2690D03*
X4470Y2825D03*
X4615Y2985D03*
X4995Y3060D03*
X4700Y3980D03*
X4930Y3970D03*
X5225Y3945D03*
X4395Y3980D03*
X4200Y3840D03*
X4345Y3705D03*
X4140Y3555D03*
X4330Y3485D03*
X4140Y3350D03*
X6005Y3640D03*
X6025Y3385D03*
X6040Y3170D03*
X6025Y2915D03*
X5975Y2410D03*
X5970Y2185D03*
X5980Y1915D03*
X5975Y1685D03*
X5970Y1455D03*
Y1165D03*
X5985Y870D03*
X5995Y630D03*
X5785Y445D03*
X5820Y570D03*
X5765Y805D03*
X5730Y1025D03*
X5570Y895D03*
X5445Y1065D03*
X5330Y1250D03*
X5205Y1415D03*
X4890Y1355D03*
X5010Y1445D03*
X5015Y1260D03*
X5185Y1110D03*
X5325Y960D03*
X5465Y755D03*
X5635Y630D03*
X5640Y365D03*
X4970Y360D03*
X4700Y365D03*
X3050Y315D03*
X3615Y320D03*
X3315D03*
X3910Y365D03*
X3920Y550D03*
X3945Y815D03*
X3885Y1010D03*
X3585Y1215D03*
X3070Y1275D03*
X3415Y1845D03*
X2250Y1995D03*
X2550Y1830D03*
X2830Y1915D03*
X2480Y1995D03*
X3450Y2290D03*
X3095Y2320D03*
X2390D03*
X2060Y2325D03*
X1830Y2205D03*
X3210Y2840D03*
X3435Y2845D03*
X3245Y2975D03*
X2670Y2870D03*
X2455Y2875D03*
X2505Y3000D03*
X1975Y2825D03*
X1775Y2840D03*
X1760Y3025D03*
X1775Y3550D03*
X2160Y1830D03*
X1870Y1615D03*
X1985Y1140D03*
X2435Y1210D03*
X2710Y1025D03*
X2395Y950D03*
X2725Y800D03*
X2745Y595D03*
X2655Y350D03*
X2470Y435D03*
X2260Y815D03*
X2245Y475D03*
X2130Y620D03*
X2020Y430D03*
X1870Y550D03*
X1615Y1060D03*
X1765Y940D03*
X1695Y375D03*
X1535Y445D03*
Y635D03*
X1280Y350D03*
X1060Y850D03*
X1035Y330D03*
X710Y435D03*
X675Y700D03*
X500Y625D03*
X490Y865D03*
X465Y1035D03*
X830Y1270D03*
X565Y1295D03*
X1055Y1430D03*
X800Y1470D03*
X625Y1500D03*
X1045Y1680D03*
X1485Y1750D03*
X1300Y1765D03*
X1235Y1920D03*
X985Y1950D03*
X725Y2005D03*
X590Y1675D03*
X500Y1920D03*
X420Y2345D03*
Y2205D03*
X740Y2600D03*
X535Y2645D03*
X720Y2765D03*
X780Y3200D03*
X1110Y3460D03*
X1035Y3170D03*
X500Y3115D03*
Y3280D03*
X1195Y3615D03*
X1335Y3795D03*
X1200Y3980D03*
X920Y3960D03*
X555Y3750D03*
X710Y3910D03*
X4015Y2615D03*
X4105Y2705D03*
X4195Y2795D03*
X3925Y2800D03*
X4015Y2880D03*
X3340Y2505D03*
X3195D03*
X3065Y2500D03*
X2360Y2495D03*
X2530Y2670D03*
X3820Y1550D03*
X3805Y1790D03*
X1590Y1260D03*
X1740Y1265D03*
X1775Y1430D03*
X1615D03*
X2920Y2500D03*
X2775Y2495D03*
X2785Y2675D03*
X2645Y2670D03*
X1885Y2665D03*
X2055Y2495D03*
X2175D03*
X2005Y2670D03*
X4495Y3355D03*
X4605Y3195D03*
X4520Y3115D03*
X4440Y3040D03*
X4370Y2970D03*
X4295Y2890D03*
X4115Y2980D03*
X4195Y3055D03*
X4270Y3125D03*
X4340Y3200D03*
X4415Y3280D03*
X1215Y860D03*
X1460Y995D03*
X1505Y3510D03*
Y3435D03*
X1430Y3395D03*
X3965Y3315D03*
X3540Y2974D03*
X3400Y3060D03*
X2645Y3210D03*
Y3050D03*
X2445Y3325D03*
X3220Y3310D03*
X3845Y3065D03*
X3400Y3220D03*
X3105Y3045D03*
X2785Y2970D03*
X2675Y1200D03*
X1545Y860D03*
X1530Y1910D03*
X1758Y2580D03*
X1280Y2160D03*
X1275Y2480D03*
X985Y2395D03*
X2345Y3060D03*
X2033Y2983D03*
X1890Y3060D03*
Y3220D03*
X1730Y3310D03*
X1250Y3320D03*
X1330Y2580D03*
G54D101*
X2210Y2715D03*
X5260Y2160D03*
X1270Y1175D03*
X1415Y1315D03*
X4980Y1820D03*
Y1764D03*
X4654Y2336D03*
X3925Y1325D03*
X4836Y3142D03*
X4250Y950D03*
X4585Y1930D03*
X4635Y1850D03*
X2910Y1570D03*
X5290Y2770D03*
Y2360D03*
X4670Y2410D03*
X5150Y2740D03*
X5040Y2630D03*
X5190Y3590D03*
X4564Y2235D03*
X4800Y2072D03*
X3031Y2637D03*
X3149Y2677D03*
X2901Y2748D03*
X2239Y2785D03*
X2322Y2696D03*
X4534Y1945D03*
X4600Y1970D03*
X4570Y2050D03*
X4565Y2094D03*
X4570Y2140D03*
X4400Y1520D03*
X4439Y1280D03*
X4300Y1420D03*
X4070Y1250D03*
X4400Y1210D03*
X4440Y1010D03*
X4050Y1020D03*
X4010Y1070D03*
X4440D03*
X4430Y1130D03*
X4150Y870D03*
X4458Y1871D03*
X4506Y1773D03*
X4450Y1790D03*
X4430Y1760D03*
X4340Y790D03*
X4770Y2670D03*
X4663Y2099D03*
X4682Y2118D03*
X4741Y2155D03*
X4775Y2156D03*
X4779Y2121D03*
X4712Y2230D03*
X5476Y1610D03*
X4910D03*
X4828Y1792D03*
X5270Y1990D03*
X4880Y1735D03*
X5432Y2742D03*
X5490Y2635D03*
X4980Y1792D03*
X5320Y2010D03*
X5510Y1410D03*
X4520Y2350D03*
X4570Y2420D03*
X4878Y3232D03*
X4858Y3378D03*
G54D102*
X4350Y1775D03*
X5350Y3440D03*
X4920Y2400D03*
X4931Y2301D03*
X4800Y3280D03*
X856Y2336D03*
X1429Y2750D03*
X858Y2231D03*
X4738Y2411D03*
X2776Y3641D03*
X2960Y1522D03*
X4820Y1751D03*
X5430Y2680D03*
X5508Y1227D03*
X5933Y2981D03*
X5939Y2555D03*
X4078Y1627D03*
X2776Y1650D03*
X3047Y1742D03*
X3464Y1757D03*
X3380Y1515D03*
X3689Y1702D03*
X3280Y1692D03*
X4679Y3437D03*
X5676Y3505D03*
X5500Y3403D03*
X5650Y3252D03*
X4460Y2667D03*
X5500Y1300D03*
X4549Y2470D03*
X4445Y2228D03*
X4102Y2237D03*
X4344Y2206D03*
X4195Y1572D03*
X1270Y1601D03*
X1507Y4017D03*
X1600Y4016D03*
X1687Y4015D03*
X2009Y3639D03*
X3520D03*
X4833Y3726D03*
X5528Y3101D03*
X5506Y2993D03*
X4867Y1482D03*
X4779Y1482D03*
X4073Y1702D03*
X4078Y1784D03*
X4117Y2547D03*
X4208Y2501D03*
X4219Y2449D03*
X4450Y2487D03*
X4519Y2550D03*
X4642Y2228D03*
G54D103*
X4943Y2206D03*
X4921Y2245D03*
X1610Y2710D03*
X1598Y3672D03*
X4230Y2200D03*
X4238Y1733D03*
X4831Y1645D03*
X4781D03*
X4823Y3455D03*
X4886Y3451D03*
X3797Y2680D03*
X4465Y2336D03*
X4183Y2233D03*
X4222Y2386D03*
X3783Y2802D03*
X4323Y2389D03*
X4623Y2351D03*
X4241Y1793D03*
X4415Y2343D03*
M02*