%FSLAX23Y23*%
%MOIN*%
%SFA1B1*%

%IPPOS*%
%ADD13C,0.010000*%
%ADD20R,0.057330X0.051360*%
%ADD30R,0.051360X0.057330*%
%ADD31R,0.053150X0.033470*%
%ADD35R,0.033470X0.053150*%
%ADD59R,0.068900X0.068900*%
%ADD60C,0.068900*%
%ADD61C,0.137800*%
%ADD62R,0.055910X0.055910*%
%ADD63C,0.055910*%
%ADD68R,0.061810X0.061810*%
%ADD69C,0.061810*%
%ADD72R,0.055120X0.055120*%
%ADD73C,0.055120*%
%ADD81C,0.008000*%
%ADD83C,0.030000*%
%ADD88C,0.061020*%
%ADD89R,0.061020X0.061020*%
%ADD90C,0.062990*%
%ADD91R,0.062990X0.062990*%
%ADD92R,0.070870X0.070870*%
%ADD93C,0.070870*%
%ADD94C,0.089760*%
%ADD95C,0.196850*%
%ADD96C,0.059060*%
%ADD97R,0.045980X0.045980*%
%ADD98C,0.045980*%
%ADD99C,0.088580*%
%ADD100C,0.060000*%
%ADD101C,0.017720*%
%ADD102C,0.035430*%
%ADD103C,0.023620*%
%ADD105R,0.047490X0.037650*%
%ADD106R,0.037650X0.047490*%
%ADD107C,0.035000*%
%LNpcb-1*%
%LPD*%
G54D13*
X4548Y2470D02*
X4549Y2470D01*
G54D20*
X4275Y2448D03*
Y2385D03*
X4780Y1600D03*
Y1536D03*
G54D30*
X4133Y1626D03*
X4196D03*
X4134Y1783D03*
X4197D03*
G54D31*
X4680Y3552D03*
Y3487D03*
G54D35*
X3575Y3640D03*
X3640D03*
X2888D03*
X2823D03*
X3817D03*
X3882D03*
X2188D03*
X2253D03*
X4782Y3730D03*
X4717D03*
X2058Y3640D03*
X2123D03*
X2316D03*
X2381D03*
X3008D03*
X2943D03*
X3697D03*
X3762D03*
X3128D03*
X3063D03*
G54D59*
X2465Y750D03*
G54D60*
X1874Y750D03*
G54D61*
X5056Y3726D03*
X4582D03*
G54D62*
X4770Y3541D03*
G54D63*
X4868Y3541D03*
Y3620D03*
X4770D03*
G54D68*
X5640Y3880D03*
G54D69*
X5540Y3880D03*
X5440D03*
X5640Y3780D03*
X5540D03*
X5440D03*
G54D72*
X3740Y540D03*
X3500D03*
X2940Y538D03*
X3190D03*
G54D73*
X3740Y441D03*
X3500D03*
X2940Y440D03*
X3190D03*
G54D81*
X3447Y2677D02*
X4030Y2094D01*
X3149Y2677D02*
X3447D01*
X4030Y2094D02*
X4565D01*
X3995Y2050D02*
X4570D01*
X3407Y2637D02*
X3995Y2050D01*
X3031Y2637D02*
X3407D01*
X2369Y2755D02*
X3115Y2010D01*
X2268Y2755D02*
X2369D01*
X3115Y2010D02*
X4560D01*
X2210Y2715D02*
X2979Y1945D01*
X4534*
X4832Y2289D02*
Y3142D01*
X5260Y2160D02*
X5310Y2210D01*
X5680*
X1270Y1175D02*
X1410Y1315D01*
X1415*
X4465Y2380D02*
X4474Y2389D01*
X4500*
X4465Y2336D02*
Y2380D01*
X5010Y1610D02*
X5476D01*
X4790Y1672D02*
X4948D01*
X5010Y1610*
X5025Y1760D02*
X5640D01*
X5020Y1764D02*
X5025Y1760D01*
X4980Y1764D02*
X5020D01*
X5390Y2160D02*
X5700D01*
X4982Y1790D02*
X5020D01*
X5390Y2160*
X4980Y1820D02*
Y1970D01*
Y1792D02*
X4982Y1790D01*
X4770Y2335D02*
Y2532D01*
X4680Y2210D02*
Y2245D01*
X4770Y2335*
X4595Y2235D02*
X4660Y2300D01*
X4585Y2235D02*
X4595D01*
X4700Y2340D02*
Y2620D01*
X4660Y2300D02*
X4700Y2340D01*
X4654Y2336D02*
X4670Y2352D01*
X4564Y2235D02*
X4585D01*
X4670Y2352D02*
Y2410D01*
X3925Y1290D02*
Y1325D01*
Y1290D02*
X4085Y1130D01*
X5320Y2010D02*
X5485D01*
X5585Y1910D02*
X5680D01*
X5485Y2010D02*
X5585Y1910D01*
X4340Y720D02*
Y790D01*
X4400Y550D02*
Y660D01*
X4340Y720D02*
X4400Y660D01*
X4150Y600D02*
Y870D01*
Y600D02*
X4200Y550D01*
X1598Y3672D02*
X1610Y3660D01*
Y2710D02*
Y3660D01*
X4832Y3142D02*
X4836D01*
X4677Y2134D02*
X4832Y2289D01*
X4814Y2296D02*
Y3168D01*
X4659Y2141D02*
X4814Y2296D01*
X4085Y1130D02*
X4430D01*
X4250Y520D02*
Y950D01*
Y520D02*
X4270Y500D01*
X4450*
X4545Y1000D02*
Y1695D01*
X5045Y500D02*
X5148D01*
X4545Y1000D02*
X5045Y500D01*
X4600Y1250D02*
X5190Y660D01*
X4600Y1250D02*
Y1680D01*
X4660Y1310D02*
X5350Y620D01*
X4660Y1310D02*
Y1670D01*
X5350Y498D02*
Y620D01*
X4450Y1790D02*
X4545Y1695D01*
X4506Y1773D02*
X4600Y1680D01*
X4458Y1871D02*
X4660Y1670D01*
X5431Y2561D02*
X5530D01*
X4828Y1792D02*
Y1958D01*
X5431Y2561*
X4814Y3168D02*
X4878Y3232D01*
X4985Y2705D02*
X5270Y2990D01*
X4985Y2175D02*
Y2705D01*
X4912Y2102D02*
X4985Y2175D01*
X4830Y2102D02*
X4912D01*
X5270Y2990D02*
Y3710D01*
X4800Y2072D02*
X4830Y2102D01*
X4554Y1980D02*
X4585Y1949D01*
Y1930D02*
Y1949D01*
X4630Y1855D02*
X4635Y1850D01*
X4630Y1855D02*
Y2160D01*
X2910Y1570D02*
X3520D01*
X5270Y3710D02*
X5390Y3830D01*
X5490*
X5540Y3880*
X5420Y3550D02*
X5560Y3690D01*
X5420Y2900D02*
Y3550D01*
X5290Y2770D02*
X5420Y2900D01*
X5560Y3690D02*
X5590Y3720D01*
Y3830D02*
X5640Y3880D01*
X5590Y3720D02*
Y3830D01*
X4980Y1970D02*
X5620Y2610D01*
X4880Y1950D02*
X5290Y2360D01*
X4700Y2620D02*
X4740Y2660D01*
X4770Y2532D02*
Y2670D01*
X5150Y2740D02*
X5152Y2742D01*
X5432*
X5040Y2630D02*
X5045Y2635D01*
X5490*
X4740Y2660D02*
Y3140D01*
X5190Y3590*
X4880Y1735D02*
Y1950D01*
X4741Y1748D02*
Y2122D01*
X4770Y1747D02*
Y2112D01*
X2933Y2716D02*
X3503D01*
X2901Y2748D02*
X2933Y2716D01*
X2239Y2785D02*
X2268Y2755D01*
X2322Y2696D02*
X3039Y1980D01*
X4080Y2140D02*
X4570D01*
X3503Y2716D02*
X4080Y2140D01*
X2998Y3629D02*
X3008Y3640D01*
X2943D02*
X2948Y3635D01*
Y3548D02*
Y3635D01*
X2998Y3448D02*
Y3629D01*
X3039Y1980D02*
X4554D01*
X4560Y2010D02*
X4600Y1970D01*
X4194Y2200D02*
X4230D01*
X4183Y2189D02*
X4194Y2200D01*
X3520Y1570D02*
X3610Y1480D01*
X4360*
X4400Y1520*
X4300Y1420D02*
X4439Y1280D01*
X4070Y1250D02*
X4360D01*
X4400Y1210*
X4060Y1010D02*
X4440D01*
X4050Y1020D02*
X4060Y1010D01*
X4010Y1070D02*
X4440D01*
X4450Y500D02*
X4500Y450D01*
X5350Y498D02*
X5398Y450D01*
X5250Y498D02*
X5298Y450D01*
X5250Y498D02*
Y600D01*
X5190Y660D02*
X5250Y600D01*
X4500Y550D02*
Y1690D01*
X4430Y1760D02*
X4500Y1690D01*
X4231Y1733D02*
X4238D01*
X4200Y1702D02*
X4231Y1733D01*
X4200Y1629D02*
Y1702D01*
X5148Y500D02*
X5198Y450D01*
X4630Y2160D02*
X4680Y2210D01*
X4663Y2099D02*
X4666Y2102D01*
X5730Y2760D02*
X5780Y2810D01*
X5640Y2760D02*
X5730D01*
X5620Y2740D02*
X5640Y2760D01*
X5620Y2610D02*
Y2740D01*
X5700Y2160D02*
X5730Y2190D01*
Y2550*
X5780Y2600*
Y2610*
Y2710D02*
X5790D01*
X5860Y2640*
Y1790D02*
Y2640D01*
X5830Y1760D02*
X5860Y1790D01*
X5640Y1760D02*
X5830D01*
X5731Y2861D02*
X5780Y2910D01*
X5650Y2861D02*
X5731D01*
X5583Y2794D02*
X5650Y2861D01*
X5583Y2614D02*
Y2794D01*
X5530Y2561D02*
X5583Y2614D01*
X4677Y2124D02*
Y2134D01*
X4659Y2109D02*
X4666Y2102D01*
X4659Y2116D02*
X4659Y2116D01*
X4677Y2124D02*
X4682Y2118D01*
X4659Y2116D02*
Y2141D01*
X4659Y2109D02*
Y2116D01*
X4711Y1750D02*
Y2125D01*
X4741Y2155*
Y2122D02*
X4775Y2156D01*
X4770Y2112D02*
X4779Y2121D01*
X4770Y1747D02*
X4808Y1710D01*
X4741Y1748D02*
X4799Y1690D01*
X5435*
X5615Y1510*
X4711Y1750D02*
X4790Y1672D01*
X5615Y1510D02*
X5680D01*
X4808Y1710D02*
X5680D01*
X4908Y1608D02*
X4910Y1610D01*
X4780Y1600D02*
X4781Y1601D01*
Y1645*
X4831Y1643D02*
Y1645D01*
Y1643D02*
X4866Y1608D01*
X5270Y1990D02*
X5450Y1810D01*
X4866Y1608D02*
X4908D01*
X5450Y1810D02*
X5680D01*
X5560Y1360D02*
X5730D01*
X5510Y1410D02*
X5560Y1360D01*
X5730D02*
X5780Y1310D01*
X4820Y3458D02*
Y3571D01*
Y3458D02*
X4823Y3455D01*
X4886Y3451D02*
Y3541D01*
X3783Y2693D02*
X3797Y2680D01*
X4520Y2350D02*
Y2369D01*
X4500Y2389D02*
X4520Y2369D01*
X4570Y2419D02*
Y2420D01*
X4183Y2233D02*
X4183Y2232D01*
Y2189D02*
Y2232D01*
X4275Y2385D02*
X4278Y2389D01*
X3783Y2693D02*
Y2802D01*
X4195Y1572D02*
X4196Y1573D01*
Y1626*
X4200Y1629*
X4868Y3541D02*
X4886D01*
X4820Y3571D02*
X4868Y3620D01*
X2243Y3629D02*
X2253Y3640D01*
X2243Y3448D02*
Y3629D01*
X2188Y3553D02*
Y3640D01*
Y3553D02*
X2193Y3548D01*
X3750Y3450D02*
Y3627D01*
X3762Y3640*
X3640D02*
X3642Y3637D01*
X3700Y3550D02*
Y3637D01*
X4197Y1783D02*
X4207Y1793D01*
X4241*
X4400Y2389D02*
X4415Y2374D01*
Y2343D02*
Y2374D01*
G54D83*
X4884Y2275D02*
X4921D01*
Y2245D02*
Y2275D01*
X2445Y3325D02*
X2455Y3335D01*
X2410Y3640D02*
X2455Y3595D01*
Y3335D02*
Y3595D01*
X4222Y2386D02*
X4222Y2385D01*
X4275*
X2381Y3640D02*
X2410D01*
X3220Y3310D02*
Y3585D01*
X3128Y3640D02*
X3165D01*
X3220Y3585*
X3882Y3640D02*
X3925D01*
X3965Y3315D02*
Y3600D01*
X3925Y3640D02*
X3965Y3600D01*
X4884Y2356D02*
Y2364D01*
X4920Y2400*
X4909Y2301D02*
X4931D01*
X4884Y2275D02*
X4909Y2301D01*
X2888Y3640D02*
X2943D01*
X3008D02*
X3063D01*
X2776Y3641D02*
X2777Y3640D01*
X2823*
X4132Y1626D02*
X4133Y1626D01*
X4078Y1626D02*
X4132D01*
X4078Y1627D02*
X4078Y1626D01*
X4549Y2470D02*
X4549Y2470D01*
X4600*
X4679Y3437D02*
X4680Y3438D01*
Y3487*
X4570Y2419D02*
X4600Y2389D01*
X4500Y2470D02*
X4548D01*
X4466D02*
X4500D01*
X4102Y2189D02*
Y2236D01*
X4102Y2237D02*
X4102Y2236D01*
X4278Y2389D02*
X4323D01*
X4600Y2389D02*
X4623Y2366D01*
X2009Y3639D02*
X2010Y3640D01*
X2058*
X3520Y3639D02*
X3521Y3640D01*
X3575*
X4828Y3731D02*
X4833Y3726D01*
X4792Y3731D02*
X4828D01*
X4791Y3730D02*
X4792Y3731D01*
X4782Y3730D02*
X4791D01*
X4866Y1483D02*
X4867Y1482D01*
X4866Y1483D02*
Y1527D01*
X4779Y1482D02*
Y1536D01*
X4780Y1536*
X4073Y1702D02*
X4119D01*
X4078Y1784D02*
X4079Y1783D01*
X4134*
X4219Y2449D02*
X4219Y2448D01*
X4275*
X4433Y2470D02*
X4450Y2487D01*
X4400Y2470D02*
X4433D01*
X4450Y2487D02*
X4466Y2470D01*
X4717Y3730D02*
Y3776D01*
X4766Y3825D02*
X4951D01*
X4717Y3776D02*
X4766Y3825D01*
X5049Y3726D02*
X5056D01*
X4951Y3825D02*
X5049Y3726D01*
X4582D02*
X4585Y3730D01*
X4717*
X4758Y3552D02*
X4770Y3541D01*
X4680Y3552D02*
X4758D01*
X2253Y3640D02*
X2316D01*
X2123D02*
X2188D01*
X3762D02*
X3817D01*
X3642Y3637D02*
X3700D01*
X4623Y2351D02*
Y2366D01*
G54D88*
X5680Y1210D03*
Y1310D03*
Y1410D03*
Y1510D03*
Y1610D03*
Y1710D03*
Y1810D03*
Y1910D03*
Y2010D03*
Y2110D03*
Y2210D03*
Y2310D03*
Y2410D03*
Y2510D03*
Y2610D03*
Y2710D03*
Y2810D03*
Y2910D03*
Y3010D03*
X5780Y1210D03*
Y1310D03*
Y1410D03*
Y1510D03*
Y1610D03*
Y1710D03*
Y1810D03*
Y1910D03*
Y2010D03*
Y2110D03*
Y2210D03*
Y2310D03*
Y2410D03*
Y2510D03*
Y2610D03*
Y2710D03*
Y2810D03*
Y2910D03*
Y3010D03*
Y3110D03*
G54D89*
X5680Y3110D03*
G54D90*
X4600Y450D03*
X4500D03*
X4400D03*
X4300D03*
X4200D03*
X4500Y550D03*
X4400D03*
X4300D03*
X4200D03*
X5098Y550D03*
X5198D03*
X5298D03*
X5398D03*
X5098Y450D03*
X5198D03*
X5298D03*
X5398D03*
X5498D03*
G54D91*
X4600Y550D03*
X5498Y550D03*
G54D92*
X1005Y500D03*
X1159Y3808D03*
G54D93*
X1255Y500D03*
X909Y3808D03*
G54D94*
X850Y893D03*
Y1681D03*
G54D95*
X2746Y3800D03*
X3196Y3805D03*
X3948Y3806D03*
X3498Y3801D03*
X1991Y3800D03*
X2441Y3805D03*
X5994Y343D03*
Y3965D03*
X404Y343D03*
Y3965D03*
G54D96*
X3048Y3548D03*
X2998Y3448D03*
X2948Y3548D03*
X2898Y3448D03*
X2848Y3548D03*
X2798Y3448D03*
X3148Y3548D03*
X3098Y3448D03*
X3850Y3450D03*
X3900Y3550D03*
X3550Y3450D03*
X3600Y3550D03*
X3650Y3450D03*
X3700Y3550D03*
X3750Y3450D03*
X3800Y3550D03*
X2293Y3548D03*
X2243Y3448D03*
X2193Y3548D03*
X2143Y3448D03*
X2093Y3548D03*
X2043Y3448D03*
X2393Y3548D03*
X2343Y3448D03*
G54D97*
X600Y2390D03*
G54D98*
X600Y2290D03*
Y2190D03*
G54D99*
X520Y3515D03*
Y2924D03*
G54D100*
X3635Y2687D03*
X3835Y2482D03*
X2970Y1840D03*
X5325Y2945D03*
X5140Y2455D03*
X4910Y2690D03*
X4470Y2825D03*
X4615Y2985D03*
X4995Y3060D03*
X4700Y3980D03*
X4930Y3970D03*
X5225Y3945D03*
X4395Y3980D03*
X4200Y3840D03*
X4345Y3705D03*
X4140Y3555D03*
X4330Y3485D03*
X4140Y3350D03*
X6005Y3640D03*
X6025Y3385D03*
X6040Y3170D03*
X6025Y2915D03*
X5975Y2410D03*
X5970Y2185D03*
X5980Y1915D03*
X5975Y1685D03*
X5970Y1455D03*
Y1165D03*
X5985Y870D03*
X5995Y630D03*
X5785Y445D03*
X5820Y570D03*
X5765Y805D03*
X5730Y1025D03*
X5570Y895D03*
X5445Y1065D03*
X5330Y1250D03*
X5205Y1415D03*
X4890Y1355D03*
X5010Y1445D03*
X5015Y1260D03*
X5185Y1110D03*
X5325Y960D03*
X5465Y755D03*
X5635Y630D03*
X5640Y365D03*
X4970Y360D03*
X4700Y365D03*
X3050Y315D03*
X3615Y320D03*
X3315D03*
X3910Y365D03*
X3920Y550D03*
X3945Y815D03*
X3885Y1010D03*
X3585Y1215D03*
X3070Y1275D03*
X3415Y1845D03*
X2250Y1995D03*
X2550Y1830D03*
X2830Y1915D03*
X2480Y1995D03*
X3450Y2290D03*
X3095Y2320D03*
X2390D03*
X2060Y2325D03*
X1830Y2205D03*
X3210Y2840D03*
X3435Y2845D03*
X3245Y2975D03*
X2670Y2870D03*
X2455Y2875D03*
X2505Y3000D03*
X1975Y2825D03*
X1775Y2840D03*
X1760Y3025D03*
X1775Y3550D03*
X2160Y1830D03*
X1870Y1615D03*
X1985Y1140D03*
X2435Y1210D03*
X2710Y1025D03*
X2395Y950D03*
X2725Y800D03*
X2745Y595D03*
X2655Y350D03*
X2470Y435D03*
X2260Y815D03*
X2245Y475D03*
X2130Y620D03*
X2020Y430D03*
X1870Y550D03*
X1615Y1060D03*
X1765Y940D03*
X1695Y375D03*
X1535Y445D03*
Y635D03*
X1280Y350D03*
X1060Y850D03*
X1035Y330D03*
X710Y435D03*
X675Y700D03*
X500Y625D03*
X490Y865D03*
X465Y1035D03*
X830Y1270D03*
X565Y1295D03*
X1055Y1430D03*
X800Y1470D03*
X625Y1500D03*
X1045Y1680D03*
X1485Y1750D03*
X1300Y1765D03*
X1235Y1920D03*
X985Y1950D03*
X725Y2005D03*
X590Y1675D03*
X500Y1920D03*
X420Y2345D03*
Y2205D03*
X740Y2600D03*
X535Y2645D03*
X720Y2765D03*
X780Y3200D03*
X1110Y3460D03*
X1035Y3170D03*
X500Y3115D03*
Y3280D03*
X1195Y3615D03*
X1335Y3795D03*
X1200Y3980D03*
X920Y3960D03*
X555Y3750D03*
X710Y3910D03*
X4015Y2615D03*
X4105Y2705D03*
X4195Y2795D03*
X3925Y2800D03*
X4015Y2880D03*
X3340Y2505D03*
X3195D03*
X3065Y2500D03*
X2360Y2495D03*
X2530Y2670D03*
X3820Y1550D03*
X3805Y1790D03*
X1590Y1260D03*
X1740Y1265D03*
X1775Y1430D03*
X1615D03*
X2920Y2500D03*
X2775Y2495D03*
X2785Y2675D03*
X2645Y2670D03*
X1885Y2665D03*
X2055Y2495D03*
X2175D03*
X2005Y2670D03*
X4495Y3355D03*
X4605Y3195D03*
X4520Y3115D03*
X4440Y3040D03*
X4370Y2970D03*
X4295Y2890D03*
X4115Y2980D03*
X4195Y3055D03*
X4270Y3125D03*
X4340Y3200D03*
X4415Y3280D03*
X1215Y860D03*
X1460Y995D03*
X1505Y3510D03*
Y3435D03*
X1430Y3395D03*
X3965Y3315D03*
X3540Y2974D03*
X3400Y3060D03*
X2645Y3210D03*
Y3050D03*
X2445Y3325D03*
X3220Y3310D03*
X3845Y3065D03*
X3400Y3220D03*
X3105Y3045D03*
X2785Y2970D03*
X2675Y1200D03*
X1545Y860D03*
X1530Y1910D03*
X1758Y2580D03*
X1280Y2160D03*
X1275Y2480D03*
X985Y2395D03*
X2345Y3060D03*
X2033Y2983D03*
X1890Y3060D03*
Y3220D03*
X1730Y3310D03*
X1250Y3320D03*
X1330Y2580D03*
G54D101*
X2210Y2715D03*
X5260Y2160D03*
X1270Y1175D03*
X1415Y1315D03*
X4980Y1820D03*
Y1764D03*
X4654Y2336D03*
X3925Y1325D03*
X4836Y3142D03*
X4250Y950D03*
X4585Y1930D03*
X4635Y1850D03*
X2910Y1570D03*
X5290Y2770D03*
Y2360D03*
X4670Y2410D03*
X5150Y2740D03*
X5040Y2630D03*
X5190Y3590D03*
X4564Y2235D03*
X4800Y2072D03*
X3031Y2637D03*
X3149Y2677D03*
X2901Y2748D03*
X2239Y2785D03*
X2322Y2696D03*
X4534Y1945D03*
X4600Y1970D03*
X4570Y2050D03*
X4565Y2094D03*
X4570Y2140D03*
X4400Y1520D03*
X4439Y1280D03*
X4300Y1420D03*
X4070Y1250D03*
X4400Y1210D03*
X4440Y1010D03*
X4050Y1020D03*
X4010Y1070D03*
X4440D03*
X4430Y1130D03*
X4150Y870D03*
X4458Y1871D03*
X4506Y1773D03*
X4450Y1790D03*
X4430Y1760D03*
X4340Y790D03*
X4770Y2670D03*
X4663Y2099D03*
X4682Y2118D03*
X4741Y2155D03*
X4775Y2156D03*
X4779Y2121D03*
X4712Y2230D03*
X5476Y1610D03*
X4910D03*
X4828Y1792D03*
X5270Y1990D03*
X4880Y1735D03*
X5432Y2742D03*
X5490Y2635D03*
X4980Y1792D03*
X5320Y2010D03*
X5510Y1410D03*
X4520Y2350D03*
X4570Y2420D03*
X4878Y3232D03*
X4858Y3378D03*
G54D102*
X4350Y1775D03*
X5350Y3440D03*
X4920Y2400D03*
X4931Y2301D03*
X4800Y3280D03*
X856Y2336D03*
X1429Y2750D03*
X858Y2231D03*
X4738Y2411D03*
X2776Y3641D03*
X2960Y1522D03*
X4820Y1751D03*
X5430Y2680D03*
X5508Y1227D03*
X5933Y2981D03*
X5939Y2555D03*
X4078Y1627D03*
X2776Y1650D03*
X3047Y1742D03*
X3464Y1757D03*
X3380Y1515D03*
X3689Y1702D03*
X3280Y1692D03*
X4679Y3437D03*
X5676Y3505D03*
X5500Y3403D03*
X5650Y3252D03*
X4460Y2667D03*
X5500Y1300D03*
X4549Y2470D03*
X4445Y2228D03*
X4102Y2237D03*
X4344Y2206D03*
X4195Y1572D03*
X1270Y1601D03*
X1507Y4017D03*
X1600Y4016D03*
X1687Y4015D03*
X2009Y3639D03*
X3520D03*
X4833Y3726D03*
X5528Y3101D03*
X5506Y2993D03*
X4867Y1482D03*
X4779Y1482D03*
X4073Y1702D03*
X4078Y1784D03*
X4117Y2547D03*
X4208Y2501D03*
X4219Y2449D03*
X4450Y2487D03*
X4519Y2550D03*
X4642Y2228D03*
G54D103*
X4943Y2206D03*
X4921Y2245D03*
X1610Y2710D03*
X1598Y3672D03*
X4230Y2200D03*
X4238Y1733D03*
X4831Y1645D03*
X4781D03*
X4823Y3455D03*
X4886Y3451D03*
X3797Y2680D03*
X4465Y2336D03*
X4183Y2233D03*
X4222Y2386D03*
X3783Y2802D03*
X4323Y2389D03*
X4623Y2351D03*
X4241Y1793D03*
X4415Y2343D03*
G54D105*
X4884Y2356D03*
Y2275D03*
X4400Y2470D03*
Y2389D03*
X4600Y2470D03*
Y2389D03*
X4500Y2470D03*
Y2389D03*
X4866Y1527D03*
Y1608D03*
G54D106*
X4119Y1702D03*
X4200D03*
X4102Y2189D03*
X4183D03*
G54D107*
X4400Y2389D02*
X4500D01*
M02*